<svg id="Layer_1" data-name="Layer 1" xmlns="http://www.w3.org/2000/svg" viewBox="0 0 1280 720"><defs><style>.cls-1,.cls-19{fill:#22b0ff;}.cls-15,.cls-2{fill:#1fffff;}.cls-3{fill:#1a4e99;}.cls-4{fill:#a5cf47;}.cls-13,.cls-18,.cls-5{fill:none;}.cls-5{stroke:#1a4e99;}.cls-13,.cls-14,.cls-15,.cls-18,.cls-19,.cls-5{stroke-miterlimit:10;}.cls-6{fill:#1c2077;}.cls-7{fill:#3a9ec1;}.cls-8{fill:#fff3df;}.cls-14,.cls-9{fill:#f7f5f2;}.cls-10{opacity:0.28;}.cls-11{fill:#1a3f6b;}.cls-12{fill:#130101;}.cls-13,.cls-14{stroke:#2d6eb5;}.cls-15{stroke:#1a5bba;}.cls-16{opacity:0.54;}.cls-17{fill:#fff;}.cls-18,.cls-19{stroke:#2369af;}.cls-20{fill:#1fe5e0;}.cls-21{opacity:0.56;}</style></defs><path class="cls-1" d="M436.3,615a2.23,2.23,0,0,1-1.49,1,39.37,39.37,0,0,1-7.8,1.06,37.78,37.78,0,0,1-9.15-.78c-9.44-1.91-9.37-5.53-17-6.45-4.61-.57-8.08.28-9.22-1.78-.92-1.63-.5-5-.5-5a3.1,3.1,0,0,0,.08-.85c.78-7.38-.15-16.89-5.61-28.17,10.07-2.48,20.08-5,20.08-4.89a58.06,58.06,0,0,0-2.84,5.67,65.33,65.33,0,0,0-4.11,11.78c-.93,4-2,9.08.7,11.63a4.71,4.71,0,0,0,1.35.85c18.94-2.05,28.95-1.34,30.08,2.27a3.3,3.3,0,0,1-.21,2.27c2.34,1.56,6.31,4.54,5.67,6.18-.14.42-.63.85-2,1.06h0C436.23,612.13,436.87,614,436.3,615Z"/><path class="cls-2" d="M391.3,600.93a44.37,44.37,0,0,0,0-6.82,12.32,12.32,0,0,1,6.48-2.34,8.57,8.57,0,0,0,1,5.7C395.93,597.69,393.17,599.43,391.3,600.93Z"/><path class="cls-1" d="M405.73,569.21a58.06,58.06,0,0,0-2.84,5.67c-.43,1-.92,2.13-1.42,3.26a62.43,62.43,0,0,1-12.91,2.91,55.26,55.26,0,0,0-2.91-6.95C395.8,571.55,405.73,569.06,405.73,569.21Z"/><path class="cls-3" d="M434.44,611.2a22.23,22.23,0,0,0-9-2.76,24.48,24.48,0,0,0-3.2-.14c1.07-.07,2.13-.07,3.2-.07a22.51,22.51,0,0,1,9.36,2.34l-.35.63Z"/><path class="cls-4" d="M362.17,607.37c-.14.71-.21,1.42-.28,2.13"/><path class="cls-4" d="M356.56,608c.08,1.21.15,1.92.15,2.13"/><path class="cls-1" d="M374.44,619.65c-10.85,7.94-32.14,2.83-31.57-1.28.5-3.48,10.08-8.8,13.77-10.36-.93-10.28-6-53.2-6-53.63s22.63,16.46,22.63,16.46-8.23,19-11,36.53C370,610.5,375.15,617.66,374.44,619.65Z"/><path class="cls-2" d="M364.17,599.51c-.52,2.14-1,4.31-1.4,6.48a35.66,35.66,0,0,0-6.38-.24c-.2-1.85-.43-4.08-.71-6.55A36.34,36.34,0,0,1,364.17,599.51Z"/><path class="cls-1" d="M373.16,572.4s-1.63,3.83-3.76,9.72a64.91,64.91,0,0,1-16.1-4.9c-1.21-10.5-2.27-19.72-2.41-21.07C353.8,558,373.16,572.4,373.16,572.4Z"/><polygon class="cls-3" points="401.04 599.58 394.72 599.94 400.96 598.87 401.04 599.58"/><path class="cls-3" d="M430.69,604.16a12.16,12.16,0,0,0-8-1.56,12.43,12.43,0,0,1,8.45,1c-.07-.07-.43.57-.43.57Z"/><path class="cls-2" d="M401.6,577.74a66.18,66.18,0,0,0-2.36,6.8,21.44,21.44,0,0,0-8.95,3.39,54,54,0,0,0-1.55-5.68C391.22,580.45,396.46,577.25,401.6,577.74Z"/><path class="cls-2" d="M370.23,580c-1,2.72-2.1,5.94-3.17,9.44-4-2.2-8.95-2-12.24-1.43-.42-3.67-.85-7.46-1.28-11.11C357.17,576.08,365.29,575,370.23,580Z"/><path class="cls-5" d="M436.3,615a2.23,2.23,0,0,1-1.49,1,39.37,39.37,0,0,1-7.8,1.06,37.78,37.78,0,0,1-9.15-.78c-9.44-1.91-9.37-5.53-17-6.45-4.61-.57-8.08.28-9.22-1.78-.92-1.63-.5-5-.5-5a3.1,3.1,0,0,0,.08-.85c.78-7.38-.15-16.89-5.61-28.17,10.07-2.48,20.08-5,20.08-4.89a58.06,58.06,0,0,0-2.84,5.67,65.33,65.33,0,0,0-4.11,11.78c-.93,4-2,9.08.7,11.63a4.71,4.71,0,0,0,1.35.85c18.94-2.05,28.95-1.34,30.08,2.27a3.3,3.3,0,0,1-.21,2.27c2.34,1.56,6.31,4.54,5.67,6.18-.14.42-.63.85-2,1.06h0C436.23,612.13,436.87,614,436.3,615Z"/><path class="cls-5" d="M374.73,619.65c-10.86,7.94-32.14,2.83-31.57-1.28.49-3.48,10.07-8.8,13.76-10.36-.92-10.28-6-53.2-6-53.63s22.63,16.46,22.63,16.46-8.16,19-11,36.53C370.33,610.5,375.51,617.66,374.73,619.65Z"/><path class="cls-1" d="M458.33,522.73c2.77-2.27,8.66-6.46,11.28-3.48,3.34,3.9,3.76,6.88,1.07,9.65-.22.07,2.76,2.13-.57,6.1.07.28,1.63,6.39-6.1,8.16-8.09,1.84-7.81-1.56-7.81-1.56a9.35,9.35,0,0,1-8.51-2.48c-.21.07-18.94,1.56-21.71-.36s-5.53-10.43-5.53-10.43V497.12s7,20.22,9.29,22.49,15.82,15.25,19.94,13.12l-.85-.07s-5.11-5.39,1.34-9.86,8.94-1,9.37,4,.07,8.94-2.63,9.15-4.11-5.18-1.34-6"/><path class="cls-2" d="M445.67,539.4c-1.49.11-3.75.25-6.23.35a11.52,11.52,0,0,1-.13-11.42,41.44,41.44,0,0,0,5.17,3.45,11.25,11.25,0,0,0-.2,2A11.4,11.4,0,0,0,445.67,539.4Z"/><path class="cls-2" d="M431,539.47c-2.48-.07-4.4-.35-5.18-.85-2.77-1.85-5.53-10.43-5.53-10.43V510.81c.64-2.77,1.63-4.82,2.91-5.75,2.19,5.89,5,13.13,6.38,14.4l.5.5A56.18,56.18,0,0,0,431,539.47Z"/><path class="cls-5" d="M458.33,522.73c2.77-2.27,8.66-6.46,11.28-3.48,3.34,3.9,3.76,6.88,1.07,9.65-.22.07,2.76,2.13-.57,6.1.07.28,1.63,6.39-6.1,8.16-8.09,1.84-7.81-1.56-7.81-1.56a9.35,9.35,0,0,1-8.51-2.48c-.21.07-18.94,1.56-21.71-.36s-5.53-10.43-5.53-10.43V497.12s7,20.22,9.29,22.49,15.82,15.25,19.94,13.12l-.85-.07s-5.11-5.39,1.34-9.86,8.94-1,9.37,4,.07,8.94-2.63,9.15-4.11-5.18-1.34-6"/><path class="cls-3" d="M470.82,529.25a12,12,0,0,1-9.15.64,12.24,12.24,0,0,0,8.79-1.2l.36.56Z"/><path class="cls-3" d="M470.32,535.28a12,12,0,0,1-9.15.64,12.27,12.27,0,0,0,8.8-1.2l.35.56Z"/><path class="cls-3" d="M456.13,541.67c1.56-2.91,5.25-3.62,8.3-3.33l1.35.21h-.21c-.14.07-.07.07-.07.07.21-.71.35-1.92-.57-2.2v-.07a.85.85,0,0,1,.78.28,2.73,2.73,0,0,1,.43,2.2.43.43,0,0,1-.36.36,16.27,16.27,0,0,0-5.25-.22,7,7,0,0,0-4.4,2.7Z"/><path class="cls-2" d="M433.45,555.57c.41.06-4.16,5.31-11.22,4.65-.49.11,1.74,3.21,5.72,2.18a26.22,26.22,0,0,1-17.71,2.86c.2.42,2.86,5.1,12.08,3.55a22.53,22.53,0,0,1-20.8,3.85,12.15,12.15,0,0,0,13.39,4.51c-.2.06-11.92,9.6-25.57-2.7-.09.23-8.67,12.4-25.86,7.24-.48-.43,9.66-4.24,10.4-10.07,0-.12,0-.24,0-.36a1.2,1.2,0,0,1-.35.33c-2,1.59-12.57,7.67-22.66,4.73.42-.11,8.87-4.29,10.35-7.72a3.16,3.16,0,0,0,.16-.46,4.2,4.2,0,0,1-.72.23c-3.34.94-17.06,4.15-20.31,2.73.52,0,6.77-6.44,10-7.67-.16-.15-11.51,3.16-13.24,2.72s1.89-6.41,1-10.23-3.79-10.76-4.77-14.15a58.94,58.94,0,0,1-1.05-9.33,0,0,0,0,0,0,0,77.12,77.12,0,0,1-.19-10.13c1.27-36.75,32.17-82.95,65.95-82.14,17.32.41,36.78,13.22,37.13,23.94.26,7.8-9.4,20.91-7.45,27.78.28,1,1.07,3-.14,4.64s-3.83,1.94-4.82,4.23a5.48,5.48,0,0,0-.36,1.18A96.12,96.12,0,0,0,422,524.3c.46,4.29.84,7.58,1,10.25h0a7.24,7.24,0,0,0,6.64,4.69c-.09.16-2,1.53-6.61,1a14.46,14.46,0,0,1-.2,1.51,20.15,20.15,0,0,1-.57,2.29,15.58,15.58,0,0,0,7.37,3,20.56,20.56,0,0,1-9.34,1.66,13.48,13.48,0,0,1-3.56-.8c.11.09,1,1.29,2.42,2.75C422.11,553.65,427.36,557.6,433.45,555.57Z"/><path class="cls-5" d="M433.45,555.57c.41.06-4.16,5.31-11.22,4.65-.49.11,1.74,3.21,5.72,2.18a26.22,26.22,0,0,1-17.71,2.86c.2.42,2.86,5.1,12.08,3.55a22.53,22.53,0,0,1-20.8,3.85,12.15,12.15,0,0,0,13.39,4.51c-.2.06-11.92,9.6-25.57-2.7-.09.23-8.67,12.4-25.86,7.24-.48-.43,9.66-4.24,10.4-10.07,0-.12,0-.24,0-.36a1.2,1.2,0,0,1-.35.33c-2,1.59-12.57,7.67-22.66,4.73.42-.11,8.87-4.29,10.35-7.72a3.16,3.16,0,0,0,.16-.46,4.2,4.2,0,0,1-.72.23c-3.34.94-17.06,4.15-20.31,2.73.52,0,6.77-6.44,10-7.67-.16-.15-11.51,3.16-13.24,2.72s1.89-6.41,1-10.23-3.79-10.76-4.77-14.15a58.94,58.94,0,0,1-1.05-9.33,0,0,0,0,0,0,0,77.12,77.12,0,0,1-.19-10.13c1.27-36.75,32.17-82.95,65.95-82.14,17.32.41,36.78,13.22,37.13,23.94.26,7.8-9.4,20.91-7.45,27.78.28,1,1.07,3-.14,4.64s-3.83,1.94-4.82,4.23a5.48,5.48,0,0,0-.36,1.18A96.12,96.12,0,0,0,422,524.3c.46,4.29.84,7.58,1,10.25h0a7.24,7.24,0,0,0,6.64,4.69c-.09.16-2,1.53-6.61,1a14.46,14.46,0,0,1-.2,1.51,20.15,20.15,0,0,1-.57,2.29,15.58,15.58,0,0,0,7.37,3,20.56,20.56,0,0,1-9.34,1.66,13.48,13.48,0,0,1-3.56-.8c.11.09,1,1.29,2.42,2.75C422.11,553.65,427.36,557.6,433.45,555.57Z"/><path class="cls-6" d="M414,510.05a13.55,13.55,0,0,0,.22,3.21l.09.44c.06.29.13.57.21.85a21.49,21.49,0,0,0,.8,2.31,0,0,0,0,0,0,0c.25.58.5,1.12.74,1.61s.53,1,.74,1.4a5.23,5.23,0,0,1,.56,1.13s0,0,0,0a6.23,6.23,0,0,1-1.64,4.86,10.57,10.57,0,0,1-2.58,2c-.51.29-1.06.57-1.64.83a25.85,25.85,0,0,1-2.86,1c-.67.19-1.38.36-2.11.51s-1.48.28-2.26.39h0c-1.15.16-2.36.28-3.59.35h0c-.7,0-1.47.08-2.19.05a49.56,49.56,0,0,1-15.12-2.33c-.65-.22-1.29-.43-1.93-.69l-.25-.11c-1.17-.5-2.33-1-3.43-1.58l-4.52-3.08a15.48,15.48,0,0,1-3.43-4.06,11.94,11.94,0,0,1-.87-1.71,6.93,6.93,0,0,1-.26-.72c-.26-.74-.48-1.46-.69-2.18a44.79,44.79,0,0,1-1.17-5.24c-.15-1-.26-1.92-.35-2.84-1.17-12.87,3.78-22.19,4.16-22.38l0,0c.3.72.61,1.41.93,2.08a39.9,39.9,0,0,0,6.73,10.06c.42.45.84.88,1.27,1.29l.78.71.19.16a28.07,28.07,0,0,0,4.53,3.28,29.48,29.48,0,0,0,5.79,2.61c.42.15.85.28,1.27.39l.22.07a9.43,9.43,0,0,0,1.23.28,37.8,37.8,0,0,0,10.66.83l.87-.06c1.39-.1,2.74-.26,4.05-.45,1.62-.26,3.19-.6,4.65-1,.95-.24,1.86-.48,2.72-.73a.39.39,0,0,0-.08.1A10.91,10.91,0,0,0,414,510.05Z"/><path class="cls-7" d="M417.43,521a.41.41,0,0,1,0,.1,6.15,6.15,0,0,1-1.65,4.86c-2.73,3.06-8.46,4.82-15.05,5.12-.71,0-1.42.08-2.2.06a50,50,0,0,1-15.13-2.34c-.72-.24-1.45-.49-2.17-.8a35.11,35.11,0,0,1-3.43-1.58l-4.52-3.08a15.37,15.37,0,0,1-3.43-4.07,10.46,10.46,0,0,1-1.13-2.42c-.26-.75-.5-1.51-.71-2.26h0c7.65-1.38,22.36-2.58,29.56,6.62.11,0,10.94-6.81,19.27-1.35h0A5.51,5.51,0,0,1,417.43,521Z"/><path class="cls-8" d="M382.66,522.45a11,11,0,0,1-1.21,5.62l-.25-.11c-1.17-.5-2.33-1-3.43-1.58l-4.51-3.08a15.34,15.34,0,0,1-3.44-4.06,11.94,11.94,0,0,1-.87-1.71c2.89-2.78,6.82-3.56,9.53-2.3C380.82,516.37,382.48,519.19,382.66,522.45Z"/><path class="cls-8" d="M398.5,531.1a49.42,49.42,0,0,1-15.13-2.34c-.72-.24-1.45-.48-2.17-.8a11.25,11.25,0,0,1,3.6-5.25c2.79-2.22,6.3-2.92,8.93-1.72C396.87,522.45,399,526.59,398.5,531.1Z"/><path class="cls-8" d="M415.75,525.92C413,529,407.29,530.66,400.7,531a11.46,11.46,0,0,1,1.89-6.65c.4-.52,3.75-5.33,8.06-4.51a6.23,6.23,0,0,1,4.22,3A15.48,15.48,0,0,1,415.75,525.92Z"/><path class="cls-8" d="M379.6,497.58c-2.69,1.28-5.62,1.18-7.47-.19-2.77-2.05-3.51-7.2-.54-11.16a39.9,39.9,0,0,0,6.73,10.06C378.74,496.74,379.16,497.17,379.6,497.58Z"/><path class="cls-8" d="M385.09,501.73a29.17,29.17,0,0,0,5.79,2.61,8,8,0,0,1-3.28,3.2,6,6,0,0,1-5.53-.12c-2.09-1.39-2.94-5-1.51-9A28.07,28.07,0,0,0,385.09,501.73Z"/><path class="cls-8" d="M393.6,505.08a37.83,37.83,0,0,0,10.66.83,22.27,22.27,0,0,1-2.88,3.64c-1.47,1.47-2.77,2.73-4.52,2.65a5.3,5.3,0,0,1-4.09-3,7.66,7.66,0,0,1-.62-4.45l.22.07A9.43,9.43,0,0,0,393.6,505.08Z"/><path class="cls-8" d="M413.83,504.43c-.8,5.3-3.21,8.68-5.48,8.71a3.84,3.84,0,0,1-3.06-1.9c-1-1.65-.63-3.79-.16-5.39,1.39-.1,2.74-.26,4.05-.45C410.8,505.14,412.37,504.8,413.83,504.43Z"/><path class="cls-5" d="M416.84,519.85a9.34,9.34,0,0,1,.57,1.15.38.38,0,0,1,0,.1,6.17,6.17,0,0,1-1.65,4.85c-2.73,3.07-8.46,4.82-15,5.13-.71,0-1.42.08-2.2,0a49.67,49.67,0,0,1-15.13-2.33c-.72-.25-1.45-.49-2.18-.8a37.43,37.43,0,0,1-3.43-1.58l-4.51-3.09a15.14,15.14,0,0,1-3.43-4.06,10.85,10.85,0,0,1-1.13-2.42c-.27-.76-.5-1.51-.71-2.26a44.71,44.71,0,0,1-1.16-5.24c-.15-1-.26-1.91-.34-2.84-1.17-13,3.95-22.42,4.18-22.32.3.69.6,1.37.91,2a43.83,43.83,0,0,0,2.64,4.78,37.93,37.93,0,0,0,4.11,5.34c.4.42.8.84,1.22,1.23s.66.62,1,.91a29.26,29.26,0,0,0,10.3,5.9c.43.14.87.28,1.31.39l.24.07c.43.12.78.17,1.22.29a37.48,37.48,0,0,0,10.58.86l.91-.06c1.4-.1,2.77-.27,4.09-.48,1.61-.27,3.17-.61,4.63-1,.93-.23,1.82-.47,2.65-.71l.08,0a10.72,10.72,0,0,0-2.51,6.27,12.68,12.68,0,0,0,.22,3.22,3.43,3.43,0,0,0,.09.44q.09.42.21.84a18,18,0,0,0,.8,2.32v0c.24.59.5,1.12.75,1.61S416.63,519.47,416.84,519.85Z"/><path class="cls-3" d="M416.2,503.54c2.85-1,5.77-2.1,8.08-4.08-2.15,2.18-5,3.48-7.83,4.71l-.25-.63Z"/><path class="cls-9" d="M426.56,487.39c-1.23,3.34-3,8.19-7.58,10.44a10,10,0,0,1-6.72.89,9.22,9.22,0,0,1-2.94-1.36,10.2,10.2,0,0,1-3.77-4.33,7,7,0,0,1-.48-1.33A20.05,20.05,0,0,1,405,482c1.54-5.62,8-14.09,14.83-12.42,4.94,1.21,8.16,7.31,8.13,12.25A17,17,0,0,1,426.56,487.39Z"/><path class="cls-10" d="M424.94,473.09a9.48,9.48,0,0,0-5.26-3.75c-6.77-1.63-13.32,6.85-14.81,12.46a20.1,20.1,0,0,0,.09,9.75c.08.24.23.73.48,1.33a10.39,10.39,0,0,0,3.78,4.33,9.72,9.72,0,0,0,2.93,1.36l.7.16a8.69,8.69,0,0,1-2.44-.25,10.86,10.86,0,0,1-3.12-1.43,11.47,11.47,0,0,1-4-4.55,8.77,8.77,0,0,1-.53-1.4,21.23,21.23,0,0,1-.09-10.3c1.62-5.92,8.48-14.87,15.69-13.13A10.5,10.5,0,0,1,424.94,473.09Z"/><ellipse class="cls-11" cx="417.63" cy="484.03" rx="6.44" ry="4.94" transform="translate(-152.9 772.47) rotate(-76.03)"/><ellipse class="cls-12" cx="417.67" cy="483.7" rx="3.43" ry="2.64" transform="translate(-152.55 772.27) rotate(-76.03)"/><ellipse class="cls-9" cx="416.02" cy="482.13" rx="1.26" ry="0.96" transform="translate(-152.27 769.47) rotate(-76.03)"/><path class="cls-13" d="M426.56,487.39c-1.23,3.34-3,8.19-7.58,10.44a10,10,0,0,1-6.72.89,9.22,9.22,0,0,1-2.94-1.36,10.2,10.2,0,0,1-3.77-4.33,7,7,0,0,1-.48-1.33A20.05,20.05,0,0,1,405,482c1.54-5.62,8-14.09,14.83-12.42,4.94,1.21,8.16,7.31,8.13,12.25A17,17,0,0,1,426.56,487.39Z"/><path class="cls-14" d="M402.63,477.27c-1.64,3.77-4,9.25-9.47,11.52a11.5,11.5,0,0,1-7.82.57,10.5,10.5,0,0,1-3.29-1.78,11.88,11.88,0,0,1-4.06-5.25,8.31,8.31,0,0,1-.46-1.57,23.1,23.1,0,0,1,.56-11.25c2.16-6.38,10.26-15.71,18-13.31,5.62,1.74,8.91,9,8.54,14.7A19.36,19.36,0,0,1,402.63,477.27Z"/><path class="cls-10" d="M401.75,460.65a11,11,0,0,0-5.81-4.69c-7.7-2.35-15.85,7-18,13.36a23.14,23.14,0,0,0-.56,11.26c.07.28.21.85.46,1.56a11.86,11.86,0,0,0,4.05,5.26,11.46,11.46,0,0,0,3.3,1.78l.79.22a9.84,9.84,0,0,1-2.8-.45,12.31,12.31,0,0,1-3.49-1.86,13.41,13.41,0,0,1-4.32-5.53,9.12,9.12,0,0,1-.52-1.66A24.62,24.62,0,0,1,375.5,468c2.28-6.74,10.82-16.58,19-14.08C397.75,454.85,400.19,457.47,401.75,460.65Z"/><ellipse class="cls-11" cx="392.55" cy="472.77" rx="7.45" ry="5.71" transform="translate(-175.96 706.03) rotate(-72.6)"/><ellipse class="cls-12" cx="392.62" cy="472.4" rx="3.97" ry="3.05" transform="matrix(0.3, -0.95, 0.95, 0.3, -175.55, 705.83)"/><ellipse class="cls-9" cx="390.83" cy="470.46" rx="1.45" ry="1.11" transform="translate(-174.96 702.76) rotate(-72.6)"/><path class="cls-13" d="M402.63,477.27c-1.64,3.77-4,9.25-9.47,11.52a11.5,11.5,0,0,1-7.82.57,10.5,10.5,0,0,1-3.29-1.78,11.88,11.88,0,0,1-4.06-5.25,8.31,8.31,0,0,1-.46-1.57,23.1,23.1,0,0,1,.56-11.25c2.16-6.38,10.26-15.71,18-13.31,5.62,1.74,8.91,9,8.54,14.7A19.36,19.36,0,0,1,402.63,477.27Z"/><path class="cls-1" d="M398.64,444.89c-.12-.08-4.65-4.06-5.95-3.57s-2.17,2-.28,3.57c0,0-6.73-2.3-6.57,1.52-.08-.17-5.45-.25-3,2.95-.21-.08-4.39,1.6-3,4.18,7.15-4.29,10.66-4.68,12.54-4.15a17.39,17.39,0,0,0,3.25.58c2.1.19,3.87.35,4.51-.57S400.11,446.6,398.64,444.89Z"/><path class="cls-1" d="M420.87,457.86c.1,0,4-1.51,4.76-.86s.92,1.84-.7,2.39c0,0,5,.16,3.91,2.61.1-.09,3.62,1.18,1.25,2.67.16,0,2.47,2.13,1,3.48-3.6-4.56-5.79-5.68-7.15-5.79a13.39,13.39,0,0,1-2.27-.43c-1.41-.39-2.6-.72-2.8-1.48S419.49,458.61,420.87,457.86Z"/><path class="cls-15" d="M411,443.26c.51-.62,4.13-3.69.94-7.6.11,0,5.94,2.92,2.83,8.9.21-.19,6.13-5,.86-10.19,0,.12,7.29,1.49,2.51,11.5a6.84,6.84,0,0,0,5.41-5.74c.14.32,2.46,4.15-1.1,9"/><path class="cls-15" d="M411,443.51c.51-.61,4.13-3.68.94-7.59.11.05,5.94,2.92,2.83,8.9.21-.19,6.13-5,.86-10.19,0,.12,7.29,1.49,2.51,11.5a6.84,6.84,0,0,0,5.41-5.74c.14.32,2.46,4.15-1.1,9"/><g class="cls-16"><ellipse class="cls-17" cx="370.68" cy="459.43" rx="6.7" ry="3.35" transform="translate(-210.82 357.79) rotate(-41.19)"/><ellipse class="cls-17" cx="358.2" cy="474.08" rx="10.41" ry="5.35" transform="translate(-224.61 589.8) rotate(-64.16)"/></g><path class="cls-1" d="M404.28,441.7c.5-.82,5.07-17.71-10.33-23.55-6.6-1.09-11.76,12.5,1.48,10.68,4.2-1.19,4-1.92,4-1.92s8.8,9.22-.09,15.43"/><path class="cls-18" d="M404.12,441.7c.5-.82,5.07-17.71-10.33-23.55-6.6-1.09-11.75,12.5,1.48,10.68,4.2-1.19,4-1.92,4-1.92s8.81,9.22-.09,15.43"/><ellipse class="cls-2" cx="391.58" cy="424.14" rx="2.04" ry="4.18" transform="translate(-88.86 104.14) rotate(-13.62)"/><path class="cls-19" d="M426.88,452.63c10.19-4.06,11.76-15.82,11.46-15.84-5.43.51-11.86-3-12.64-8.14.9-5.74,16.86-7.57,17,4-1,19.16-14.22,22.58-14.22,22.58"/><ellipse class="cls-2" cx="430.38" cy="430.7" rx="2.04" ry="4.18" transform="translate(-157.59 272.53) rotate(-29.96)"/><path class="cls-20" d="M349.85,501.53a40.8,40.8,0,0,0-9.22,11.71A42.27,42.27,0,0,0,338,519a68.33,68.33,0,0,0-4.33,24.61,7.41,7.41,0,0,0-.42-.71l-.07-.07c0-.07-.07-.07-.07-.14a92.73,92.73,0,0,1-1-10.78c-.07-1.92-.07-3.9,0-6,0-.78.07-1.49.07-2.27.08-1.49.15-3,.29-4.47a129.6,129.6,0,0,1,1.84-13.62c4.4-2.2,9.37-4.26,13.2-4.33h.28A14.7,14.7,0,0,1,349.85,501.53Z"/><g class="cls-21"><path class="cls-3" d="M365.46,484a5.67,5.67,0,0,1,7.53-1.92,5.13,5.13,0,0,1,2,1.92,8.26,8.26,0,0,0-4.76-1.63,6.9,6.9,0,0,0-2.44.43A11,11,0,0,0,365.46,484Z"/></g><g class="cls-21"><path class="cls-3" d="M379.85,493.56c1.14,1,2.24,2,3.45,2.94a33.19,33.19,0,0,0,3.67,2.58,25.33,25.33,0,0,0,8.2,3.34,34.79,34.79,0,0,0,8.9.33c1.5-.09,3-.23,4.5-.4s3-.35,4.51-.54a60.24,60.24,0,0,1-8.94,1.7,29.71,29.71,0,0,1-9.17-.11,23.08,23.08,0,0,1-8.41-3.68A33,33,0,0,1,379.85,493.56Z"/></g><g class="cls-21"><path class="cls-3" d="M361.83,506.93a34.23,34.23,0,0,0,1.61,7.41,29.95,29.95,0,0,0,8.21,12.41,28.24,28.24,0,0,0,3,2.36,34.3,34.3,0,0,0,3.2,2.07,24.35,24.35,0,0,1-6.65-3.85,24.93,24.93,0,0,1-5.22-5.72,24.59,24.59,0,0,1-3.22-7.05,28.57,28.57,0,0,1-.76-3.79A24.65,24.65,0,0,1,361.83,506.93Z"/></g><path class="cls-1" d="M348.56,502.17C340.9,499.82,322.67,512,323,512c-2.41,3.47-2.27,22.06-2.2,30.15,3.41-.15,9.58-.22,10.93,1.27,1.77,1.92,4.54,14.62-1,17.1-3.05,1.56-5.18.71-5.75-3.62a.89.89,0,0,0-.07-.42h0c.07.07.07.21.07.42-.14,1.28-1.77,5-3.26,5-1.14-.07-2.63-2.27-2.63-5.53-.64,3.47-2.41,5.88-4.11,6-2.34.08-3.9-4.68-4.19-5.6-1.77-5.6.29-11,1.7-14-.14-4.82-.28-8.65-.35-10.85-.5-13.83-.78-18.09,2-22.77.21-.29,1.42-1.78,3.9-4.76,5.6-6.66,8.37-10.07,11.07-12.77a66.86,66.86,0,0,1,14.75-11.2,13.8,13.8,0,0,1,4.54,5.1,14.63,14.63,0,0,1,1.35,8.37"/><path class="cls-2" d="M321,535.69c0,1.83,0,3.6,0,5.22a14.71,14.71,0,0,0-8.37,1.71c-.09-2.52-.16-4.63-.21-6.22C315,535.35,318.11,534.69,321,535.69Z"/><path class="cls-2" d="M338.49,503.82a52.23,52.23,0,0,0-6.37,2.68c0-4.76-2.82-8.9-5.74-11.89.56-.62,1.09-1.18,1.62-1.72,1.13-1.14,2.48-2.42,4.11-3.79C335.7,492.53,339.54,497.75,338.49,503.82Z"/><path class="cls-3" d="M324.49,556.51a32.52,32.52,0,0,1,.12-4,16,16,0,0,1,.31-1.94,3.9,3.9,0,0,1,.82-1.77,3.71,3.71,0,0,0-.57,1.81,17.59,17.59,0,0,0-.06,1.92,34.49,34.49,0,0,0,.37,3.83Z"/><path class="cls-3" d="M318.66,556.7a32.46,32.46,0,0,1,.12-4,18,18,0,0,1,.31-2,3.82,3.82,0,0,1,.83-1.77,3.65,3.65,0,0,0-.58,1.81,17.78,17.78,0,0,0-.06,1.93,35,35,0,0,0,.37,3.83Z"/><path class="cls-2" d="M322.81,512.59c-.85,1.53-1.36,5.08-1.66,9.34a21.43,21.43,0,0,0-9.22-5.15,15.88,15.88,0,0,1,2.17-7.34c.06-.09.22-.29.48-.61A24.45,24.45,0,0,1,322.81,512.59Z"/><path class="cls-10" d="M349.1,498.66l-.43,3.26c-7.73-2.34-25.89,9.87-25.61,9.87-2.41,3.47-2.27,22.13-2.12,30.15,3.4-.15,9.57-.22,10.92,1.27,1.06,1.21,2.48,6.32,2.27,10.72-.28-4-1.56-7.95-2.48-9-1.56-1.64-8.52-1.64-12.35-1.42-.07-9-.28-29.73,2.49-33.56C321.36,509.94,339.74,497.81,349.1,498.66Z"/><path class="cls-3" d="M348.69,502.21a9.1,9.1,0,0,0-3.45-.21,19.93,19.93,0,0,0-3.42.69,45.24,45.24,0,0,0-6.53,2.49c-2.11,1-4.18,2.08-6.2,3.23-1,.58-2,1.18-3,1.79l-1.47.94-.73.49-.36.25-.17.12-.09.07,0,0h0l0,0c.07-.1-.13-.26-.13-.2l.12.23a10.91,10.91,0,0,0-1.11,3.55c-.21,1.24-.36,2.49-.48,3.75-.23,2.52-.35,5.05-.42,7.58-.15,5.06-.12,10.12-.06,15.18l-.26-.24c1.6-.07,3.21-.11,4.81-.06a20.4,20.4,0,0,1,4.83.59,4.66,4.66,0,0,1,1.17.52,2.87,2.87,0,0,1,.83,1,13,13,0,0,1,.88,2.29,24.93,24.93,0,0,1,.9,4.77,18.86,18.86,0,0,1-.13,4.86,7,7,0,0,1-2.3,4.36,5,5,0,0,1-1.09.64,6.52,6.52,0,0,1-1.16.46,3.54,3.54,0,0,1-2.58-.06,3.5,3.5,0,0,1-1.7-1.94,9.94,9.94,0,0,1-.62-2.41v-.05a.87.87,0,0,0,0-.11,1,1,0,0,1,0-.35l.09-.8.51.59a.69.69,0,0,1,.17.43V557h0a9.92,9.92,0,0,1-1.15,3.11,7.44,7.44,0,0,1-1,1.38,3.38,3.38,0,0,1-.7.58,1.46,1.46,0,0,1-1,.2,2.66,2.66,0,0,1-1.46-1.11,6.5,6.5,0,0,1-.78-1.5,9.83,9.83,0,0,1-.55-3.26l.76.07a12.28,12.28,0,0,1-1.21,3.59,4.85,4.85,0,0,1-2.88,2.65,2.47,2.47,0,0,1-2.05-.58,6.18,6.18,0,0,1-1.28-1.49,16.7,16.7,0,0,1-2.22-10.93,24.72,24.72,0,0,1,2.23-7.14l0,.22-.59-17c-.09-2.84-.18-5.69,0-8.55a22.5,22.5,0,0,1,.61-4.3,14.64,14.64,0,0,1,1.68-4l0,0h0c2.23-2.69,4.46-5.37,6.71-8s4.47-5.31,6.84-7.86a63.7,63.7,0,0,1,7.74-7,74.09,74.09,0,0,1,8.72-5.74l.13-.07.11.08a13.72,13.72,0,0,1,4.9,6,14.77,14.77,0,0,1,.91,7.66h-.1a14.5,14.5,0,0,0-1.08-7.54,13.51,13.51,0,0,0-4.89-5.74h.25a73.4,73.4,0,0,0-8.58,5.81,63.14,63.14,0,0,0-7.57,7.05c-2.32,2.56-4.5,5.26-6.72,7.93s-4.4,5.35-6.57,8l0,0a16.56,16.56,0,0,0-2.15,7.89c-.15,2.8-.06,5.63,0,8.46l.56,17v.12l-.05.1a23.61,23.61,0,0,0-2.2,6.86,15.42,15.42,0,0,0,.57,7.08,16.3,16.3,0,0,0,1.46,3.27c.6,1,1.49,1.92,2.45,1.73a4.25,4.25,0,0,0,2.36-2.24,11.44,11.44,0,0,0,1.14-3.35l.77.07a9.2,9.2,0,0,0,.49,3,5.49,5.49,0,0,0,.68,1.32,2,2,0,0,0,1,.82c.3.09.71-.2,1-.55a7,7,0,0,0,.87-1.23,9.77,9.77,0,0,0,1.08-2.84v-.15c0-.06,0-.07,0,0l.6-.22a.32.32,0,0,0,0,.08.82.82,0,0,1,.06.31v0a9.7,9.7,0,0,0,.55,2.23,2.89,2.89,0,0,0,1.36,1.6c1.27.59,3-.17,4.15-1a6.34,6.34,0,0,0,2.07-3.95,18,18,0,0,0,.15-4.7,25.47,25.47,0,0,0-.85-4.66,12.92,12.92,0,0,0-.83-2.18,2.25,2.25,0,0,0-.65-.84,4.2,4.2,0,0,0-1-.45,20.2,20.2,0,0,0-4.68-.59c-1.59-.06-3.19,0-4.78,0h-.26v-.26c0-5.07,0-10.14.16-15.21.09-2.53.23-5.07.48-7.59q.18-1.9.51-3.78a11.05,11.05,0,0,1,1.18-3.66l.11.23c0,.05-.2-.11-.13-.21s0,0,0,0v0l0,0,.05,0,.09-.07.18-.13.37-.25.73-.48,1.49-.94c1-.61,2-1.2,3-1.77,2-1.15,4.12-2.22,6.25-3.19a45.18,45.18,0,0,1,6.57-2.47,20.22,20.22,0,0,1,3.45-.67,9.13,9.13,0,0,1,3.49.25Z"/></svg>