<svg id="Layer_1" data-name="Layer 1" xmlns="http://www.w3.org/2000/svg" viewBox="0 0 1280 720"><defs><style>.cls-1,.cls-18{fill:#22b0ff;}.cls-2{fill:#1fffff;}.cls-11,.cls-13,.cls-3{fill:none;}.cls-3{stroke:#1a4e99;}.cls-11,.cls-13,.cls-18,.cls-3{stroke-miterlimit:10;}.cls-4{fill:#1a4e99;}.cls-5{fill:#d83976;}.cls-6{fill:#e10058;}.cls-7{fill:#f7f5f2;}.cls-8{opacity:0.28;}.cls-9{fill:#9642e7;}.cls-10{fill:#130101;}.cls-11{stroke:#2d6eb5;}.cls-12{opacity:0.56;}.cls-13{stroke:#050505;}.cls-14{fill:#1c2077;}.cls-15{fill:#3a9ec1;}.cls-16{fill:#fff3df;}.cls-17{fill:#fff;}.cls-18{stroke:#2369af;}.cls-19{fill:#ff9294;}</style></defs><path class="cls-1" d="M358.25,414.45l.78,1.12.69,1,11.15-2.29c1.2-.63,3.63-2.68,2.17-8.83a.92.92,0,0,0-.11.15c-1.23-2.13-2.52-2.63-3.2-2.79-4-.89-8.39,5.48-10.12,8.64A21.88,21.88,0,0,0,358.25,414.45Z"/><path class="cls-2" d="M376.9,421.89l0,0-.07.11a21.7,21.7,0,0,1-2.81,3.81,33.65,33.65,0,0,1-3.28,2.92c-2.55,2.12-3.06,2.14-4,3.3-.09.11-.19.22-.26.32a14.1,14.1,0,0,0-1.9,3.54c-.41.95-.86,1.87-1.31,2.78-.68,1.4-1.39,2.78-2,4.21-.3.72-.67,1.54-1.23,2.69-.72,1.46-1.73,3.45-3.34,6.46s-3.75,7-6.75,12.46c-1.74,3.18-3.76,6.85-6.11,11.11l-1.05,1.9c.13-6.53.39-14.09.73-23.24l0,0c.33-.33.68-.66,1-1l0,0a106.25,106.25,0,0,0,8.6-9.81c.55-.7,1.1-1.43,1.65-2.17h0l.94-1.29c.17-.23.33-.47.49-.7,1.66-2.35,3.14-4.64,4.46-6.86q1.54-2.6,2.8-5c.51-.95,1-1.88,1.41-2.79l-4.74-7-.66-1c0-.09,0-.18,0-.27h0a.34.34,0,0,1,0-.1c0-.49.05-1,0-1.58-.13-2.39,5.48-6.21,8.63-6.4a1.66,1.66,0,0,1,1.31.51.12.12,0,0,1,0,.05c1.1,1.17,1.29,3.9,1.3,5.45v.06c0,.34,0,.61,0,.8s0,.27,0,.27h0a.66.66,0,0,0-.09.19h0a1,1,0,0,0,0,.23.69.69,0,0,0,0,.2v0a.85.85,0,0,0,0,.23,2.17,2.17,0,0,0,.07.24,1.63,1.63,0,0,0,.11.23,2.36,2.36,0,0,0,.13.23,1.88,1.88,0,0,0,.16.23l.17.22,0,0a3.8,3.8,0,0,0,.33.37,1.85,1.85,0,0,0,.14.14.38.38,0,0,1,.09.09l.08.07.16.15c.24.23.47.42.64.57a.73.73,0,0,1,.09.08.61.61,0,0,1,.09.12s0,0,0,0,0,0,0,0,0,0,0,.07a1.75,1.75,0,0,0-.09.38,2,2,0,0,0,0,.84,1.62,1.62,0,0,0,.23.59l.14.18,0,0a1.66,1.66,0,0,0,.19.18l.07.07a2.07,2.07,0,0,0,.25.15,1.15,1.15,0,0,0,.25.12,2.46,2.46,0,0,0,.48.16,7.68,7.68,0,0,0,.62.09,5.76,5.76,0,0,0,1.24,0C376.53,422,376.71,421.93,376.9,421.89Z"/><path class="cls-1" d="M370.82,414.37c0,.34,0,.61,0,.8s0,.27,0,.27a.88.88,0,0,0-.09.2h0c-.51,1.52,2.42,3.35,2.26,3.48a.64.64,0,0,0,0,.07,8.52,8.52,0,0,0,1.25-.32c2.05-.67,5.21-2.5,6.56-7.5h-.09c-.19-10.59-6.68-6.92-7.65-5.93C374.5,411.68,372,413.75,370.82,414.37Z"/><path class="cls-1" d="M372.94,419.2l-.09.37h0a2,2,0,0,0,0,.84c.27,1.4,2,1.84,4,1.47a8.67,8.67,0,0,0,6.18-4.33c2.23-4.5-1.67-6.17-2.32-6.18-1.35,5-4.51,6.83-6.56,7.5A8.52,8.52,0,0,1,372.94,419.2Z"/><path class="cls-3" d="M373,419.22c0,.13-.06.25-.09.38h0a2.17,2.17,0,0,0,0,.84c.27,1.4,2,1.84,4,1.48a8.71,8.71,0,0,0,6.18-4.34c2.23-4.5-1.67-6.17-2.32-6.18-1.35,5-4.51,6.84-6.56,7.5A8.85,8.85,0,0,1,373,419.22Z"/><path class="cls-3" d="M373.19,405.76c-1.26-2.15-2.57-2.65-3.26-2.82-4-.91-8.52,5.51-10.27,8.7a20.53,20.53,0,0,0-1.37,3l.8,1.13c.06.11.32.49.7,1"/><path class="cls-3" d="M380.81,411.49c-.2-10.59-6.69-6.92-7.66-5.93,1.5,6.21-1,8.27-2.19,8.9,0,.33,0,.61,0,.79s0,.28,0,.28a1.63,1.63,0,0,0-.09.19h0c-.51,1.52,2.26,3.48,2.26,3.48h0"/><path class="cls-2" d="M342.87,477.65c1.76-3.19,3.34-6,4.76-8.65.08-.12.15-.25.22-.37l2.09-3.82c3-5.51,5.2-9.54,6.8-12.55s2.64-5,3.35-6.49c.58-1.18,1-2,1.27-2.74.61-1.4,1.29-2.76,2-4.12.47-.94.93-1.9,1.36-2.88a14.21,14.21,0,0,1,1.86-3.49,4.57,4.57,0,0,1,.29-.36c1-1.17,1.45-1.19,4-3.3a34.63,34.63,0,0,0,3.27-2.93A21.26,21.26,0,0,0,377,422l-.21,0a4.13,4.13,0,0,1-3.29-.57l-.07-.07a1.37,1.37,0,0,1-.19-.23v0a.71.71,0,0,1-.1-.14,1.82,1.82,0,0,1-.17-.48,2,2,0,0,1,0-.85h0a3,3,0,0,1,.09-.38s0-.05,0-.07,0,0,0,0v0h0a1.42,1.42,0,0,0-.18-.19.73.73,0,0,0-.09-.08c-.17-.15-.4-.34-.64-.57l-.16-.15-.08-.07a.38.38,0,0,0-.09-.09,6.85,6.85,0,0,1-.73-.9c0-.07-.07-.13-.1-.2h0a1.48,1.48,0,0,1-.15-1.15h0a.25.25,0,0,1,0-.07l0-.06a.15.15,0,0,1,0-.07s0-.1,0-.28,0-.46,0-.79a1,1,0,0,0,0-.17v-.05c0-1.63-.24-4.34-1.42-5.4a.12.12,0,0,0,0-.05,1.61,1.61,0,0,0-1.18-.39c-3.16.18-8.76,4-8.63,6.39,0,.59,0,1.14,0,1.65,0,0,0,.07,0,.1s0,.14,0,.21c.2.28.42.61.66,1,1.72,2.54,4.48,6.58,4.74,7-.45.93-.92,1.87-1.43,2.85q-1.27,2.44-2.83,5.05c-1.31,2.2-2.79,4.49-4.44,6.82l-.46.65c-.31.44-.63.87-.94,1.29h0c-.56.77-1.13,1.52-1.7,2.25-1.68,2.18-3.38,4.17-5,6q-1.86,2.07-3.66,3.87c-.29.3-.59.6-.89.89v0"/><path class="cls-4" d="M371.16,415.81a6,6,0,0,1-1.92.54,5.88,5.88,0,0,1-1.92-.06,6.44,6.44,0,0,1-1.79-.62,7.66,7.66,0,0,1-1.52-1.06,8,8,0,0,0,1.62.83,5.87,5.87,0,0,0,1.74.36,6,6,0,0,0,1.74-.18,5.29,5.29,0,0,0,1.53-.66Z"/><path class="cls-1" d="M350,464.92c-1.77,3.12-3.81,6.7-6.16,10.81.13-6.31.39-13.62.72-22.46l0,0c1.18-1.12,2.4-2.33,3.63-3.62,0,0,0,.05,0,.08C348.63,453.33,349.39,460,350,464.92Z"/><path class="cls-1" d="M366.55,432.54a14.21,14.21,0,0,0-1.86,3.49c-.43,1-.89,1.94-1.36,2.88a1.67,1.67,0,0,0-.08-.2q-1.19-2.9-2.5-6.11a.89.89,0,0,0-.07-.19q1.54-2.6,2.8-5a.86.86,0,0,1,.1.16l2.88,4.84Z"/><path class="cls-1" d="M360.09,445.77c-.71,1.47-1.74,3.48-3.35,6.49,0-.06-.05-.13-.08-.19l-3.45-8.45-.07-.18c.55-.7,1.1-1.43,1.65-2.17h0l.94-1.29c.17-.23.33-.47.49-.7,0,.05.06.11.09.15l3.69,6.19Z"/><path class="cls-2" d="M271.18,538.74c-3.24,5-6.17,9.43-8.75,13.31l-.22.34q-2.49,3.74-4.55,6.77c-.85,1.26-1.65,2.42-2.38,3.49l-1.89,2.76c-1.39,2.06-2.52,3.82-3.53,5.66a43.2,43.2,0,0,0-2.31,4.95c-2.85,7.3-4.22,15.78-5,20.29-.32,1.92-.5,3.53-.68,4.58.8.19,8.47,2.17,10.08,8a4.42,4.42,0,0,1,.06,3.22c-.8,1.67-3,2.05-16.46,2.11-5,0-8.23,0-9.34-2a3.94,3.94,0,0,1-.31-2.41c1.73-10.65,3.34-14.42,3.34-14.42,6-13.93,5.57-19.12,9.84-20.3a7,7,0,0,1,4.39.37l2.1-6.68,1.95-6.22,2.79-8.89q1.14-3.63,2.27-7.25,1.38-4.38,2.75-8.77c.68-2.16,1.36-4.34,2.05-6.51A30.72,30.72,0,0,0,271.18,538.74Z"/><path class="cls-1" d="M262.93,552.22l-.72.17q-2.49,3.74-4.55,6.77a27.77,27.77,0,0,1-6.66-4.78l-.64-.65q1.14-3.63,2.27-7.25a29,29,0,0,0,5.87,3.91,33.62,33.62,0,0,0,3.93,1.66Z"/><path class="cls-1" d="M253.57,565.46c-1.45,2.12-2.63,3.88-3.67,5.62a18.39,18.39,0,0,1-2.43-1.09,17.68,17.68,0,0,1-2.13-1.36l1.95-6.21a18.18,18.18,0,0,0,2.3,1.47A17.1,17.1,0,0,0,253.57,565.46Z"/><path class="cls-3" d="M271.18,538.74c-3.24,5-6.17,9.43-8.75,13.31l-.22.34q-2.49,3.74-4.55,6.77c-.85,1.26-1.65,2.42-2.38,3.49l-1.89,2.76c-1.39,2.06-2.52,3.82-3.53,5.66a43.2,43.2,0,0,0-2.31,4.95c-2.85,7.3-4.22,15.78-5,20.29-.32,1.92-.5,3.53-.68,4.58.8.19,8.47,2.17,10.08,8a4.42,4.42,0,0,1,.06,3.22c-.8,1.67-3,2.05-16.46,2.11-5,0-8.23,0-9.34-2a3.94,3.94,0,0,1-.31-2.41c1.73-10.65,3.34-14.42,3.34-14.42,6-13.93,5.57-19.12,9.84-20.3a7,7,0,0,1,4.39.37l2.1-6.68,1.95-6.22,2.79-8.89q1.14-3.63,2.27-7.25,1.38-4.38,2.75-8.77c.68-2.16,1.36-4.34,2.05-6.51A30.72,30.72,0,0,0,271.18,538.74Z"/><path class="cls-4" d="M248,614.07a9.38,9.38,0,0,0-.6-2.76,6.07,6.07,0,0,0-1.56-2.31,5.88,5.88,0,0,0-2.51-1.34,10.44,10.44,0,0,0-2.9-.36,10.89,10.89,0,0,1,3,.11,6.37,6.37,0,0,1,2.76,1.2,6.83,6.83,0,0,1,1.94,2.39,10.34,10.34,0,0,1,.9,2.93Z"/><path class="cls-4" d="M240.48,614.33a9.45,9.45,0,0,0-.6-2.77,6,6,0,0,0-1.56-2.3,5.77,5.77,0,0,0-2.51-1.34,10.44,10.44,0,0,0-2.9-.36,10.89,10.89,0,0,1,3,.11,6.26,6.26,0,0,1,2.76,1.2,6.74,6.74,0,0,1,1.94,2.39,10.28,10.28,0,0,1,.9,2.92Z"/><path class="cls-5" d="M241.45,601.35a2.64,2.64,0,0,0-.64-.22,6,6,0,0,0-.74-.11,6.89,6.89,0,0,0-1.56.12,6.29,6.29,0,0,1,1.51-.61,5.77,5.77,0,0,1,.83-.15,3.3,3.3,0,0,1,.93,0Z"/><path class="cls-6" d="M310.33,545.27l-3.58,3.24C308,546.82,309.29,545.33,310.33,545.27Z"/><path class="cls-2" d="M369,540.47c-1.43,4.29-3.34,6.88-8.8,13.7-9.61,12-11.38,13.57-14.38,14.93-1,.48-8.18,3.75-11.39.75-1.77-1.63-1.63-4.43-1.5-6.27.22-3,.6-6,1.08-9.05.37-2.27.79-4.52,1.24-6.69.84-4,1.79-7.78,2.66-11-16.77,10.5-24,13.09-25.57,11.25-.61-.75-.61-2.45-1.63-2.79a.83.83,0,0,0-.38,0L335.8,522.2c.68-.62,1.63-1.57,2.86-2.53,3.89-3.13,13.36-9.61,16.29-7.43,2,1.5.21,6.34-5.25,23.11l-1,3c-.84,2.59-1.6,5-2.29,7.11-1.1,3.43-2,6.24-2.65,8.25a49.74,49.74,0,0,1,9.34-13.36c5-5,13.78-11.8,16.57-9.68C371.73,532.29,369.82,538.08,369,540.47Z"/><path class="cls-1" d="M345.91,514.31a126.6,126.6,0,0,1-12.28,24.81c-8.71,5.27-14.4,8-17.78,9,10.71-6.81,18.78-18.28,24.74-30.31A62.9,62.9,0,0,1,345.91,514.31Z"/><path class="cls-1" d="M348.77,538.35c-.08.26-.16.53-.25.8-.73,2.23-1.42,4.36-2,6.32l-.05,0a110.07,110.07,0,0,1-11.87,9l-.54.07c.37-2.27.79-4.52,1.24-6.69a99.34,99.34,0,0,0,13.46-9.44Z"/><path class="cls-3" d="M306.75,548.51c1.22-1.69,2.54-3.18,3.58-3.24a.83.83,0,0,1,.38,0c1,.34,1,2,1.63,2.79,1.57,1.84,8.8-.75,25.57-11.25-.87,3.21-1.82,7-2.66,11-.45,2.17-.87,4.42-1.24,6.69-.48,3-.86,6.06-1.08,9.05-.13,1.84-.27,4.64,1.5,6.27,3.21,3,10.37-.27,11.39-.75,3-1.36,4.77-2.93,14.38-14.93,5.46-6.82,7.37-9.41,8.8-13.7.82-2.39,2.73-8.18.68-9.75-2.79-2.12-11.59,4.63-16.57,9.68a49.74,49.74,0,0,0-9.34,13.36c.66-2,1.55-4.82,2.65-8.25.69-2.14,1.45-4.52,2.29-7.11l1-3c5.46-16.77,7.23-21.61,5.25-23.11-2.93-2.18-12.4,4.3-16.29,7.43-1.23,1-2.18,1.91-2.86,2.53"/><path class="cls-2" d="M340.45,491.66c-.39,0,9.25,8.49,2,13.33.25-.27,1-7.81-2.48-7.45-.15.38-5.22,19.41,1.94,29.64-.3-.08-5.86,3.35-11.21,0-.07,0,.7,5.5,7.87,7.34a8.79,8.79,0,0,1-10.64-1.44c.62.6,6.87,7,3.05,15.23-.14-.21-1.68-9.22-6.68-11.82.07.14,5.27,22.79-5.49,27.65.14-.21,5.28-16.19-5.56-19.56.21.14,3,16.46-6.83,20.83.21.07,1.55-9.22-2.67-12.88.14,0-9.78,18.58-26.88,11,.17,0,9.39-3.92,10.05-10.31-.39.63-12.24,7.19-20,4,.11.05,11.79-6,4.57-10.76a15.46,15.46,0,0,1-8.49,5.81l-.72.17a13.66,13.66,0,0,1-5.89-.2,9.07,9.07,0,0,0,2.18-1.8c2.65-2.65,6.55-7.84,5.11-12.85a52.92,52.92,0,0,1-8.23.17c-2.57-.19-5-.73-6-2,0,0,6.08-3.16,4.65-8.83-.29.4-13.48,9.4-21.05-3.1a16.68,16.68,0,0,0,10-1.34,18.15,18.15,0,0,0,6.71-6,27.64,27.64,0,0,0,4.22-8.51c3-9.41,13.4-34.48,13.52-38.36a.9.9,0,0,0-.15-.55c-1.07-1.51-7.64,1.64-7.64,1.64s3-10.54,6.53-12.13,5.36-9.77,5.36-9.77a13.8,13.8,0,0,0,5.34-5.84c.87-2.36,5.09-36,32.42-39s35.66,17.39,37,22.42,0,24,.87,26.4,3.53,7.76,2.47,9.5-5.89,5.78-5.89,7.14-1.44,16.49,4.73,18.9C353.38,490.6,344,493.3,340.45,491.66Z"/><path class="cls-3" d="M340.46,491.87c-.39,0,9.25,8.49,2,13.34.25-.28,1-7.82-2.48-7.46-.15.38-5.22,19.41,1.94,29.64-.3-.07-5.86,3.36-11.21,0-.07,0,.7,5.5,7.87,7.34a8.8,8.8,0,0,1-10.64-1.43c.62.6,6.86,7,3,15.22-.14-.21-1.69-9.22-6.68-11.82.06.14,5.27,22.8-5.49,27.65.14-.21,5.27-16.18-5.57-19.56.21.14,3,16.47-6.82,20.83.21.07,1.55-9.22-2.67-12.88.14,0-9.79,18.58-26.89,11,.18,0,9.4-3.92,10.06-10.31-.4.63-12.24,7.19-20,4,.1,0,11.79-6,4.57-10.76a15.46,15.46,0,0,1-8.49,5.81l-.73.17a13.62,13.62,0,0,1-5.88-.2,9.28,9.28,0,0,0,2.18-1.8c2.65-2.65,6.55-7.83,5.11-12.85a52.92,52.92,0,0,1-8.23.17c-2.57-.19-5-.72-6-2,0-.05,6.08-3.16,4.64-8.83-.28.4-13.47,9.4-21-3.1a16.68,16.68,0,0,0,10-1.34,18.11,18.11,0,0,0,6.7-6,27.17,27.17,0,0,0,4.22-8.51c3-9.41,13.41-34.48,13.52-38.36a.88.88,0,0,0-.14-.55c-1.07-1.5-7.64,1.65-7.64,1.65s3-10.55,6.53-12.14S271.5,449,271.5,449a13.8,13.8,0,0,0,5.34-5.84c.87-2.36,5.09-36,32.42-39s35.66,17.39,37,22.43,0,24,.88,26.39,3.53,7.76,2.46,9.5-5.88,5.78-5.88,7.14-1.45,16.49,4.72,18.91C353.39,490.81,344,493.51,340.46,491.87Z"/><path class="cls-7" d="M346,442.94c0,3.2.07,7.84-3.08,11.18a8.93,8.93,0,0,1-5.38,2.88,8.17,8.17,0,0,1-2.9-.22,9.29,9.29,0,0,1-4.55-2.45,7,7,0,0,1-.82-1,18.06,18.06,0,0,1-3.16-8.17c-.48-5.22,2.32-14.41,8.56-15.15,4.54-.54,9.18,3.58,10.72,7.75A15.09,15.09,0,0,1,346,442.94Z"/><path class="cls-8" d="M340.12,431.4a8.53,8.53,0,0,0-5.61-1.49c-6.22.77-9.05,10-8.54,15.18a18.1,18.1,0,0,0,3.16,8.18,10.86,10.86,0,0,0,.83,1,9.19,9.19,0,0,0,4.54,2.45,8.56,8.56,0,0,0,2.91.22l.63-.08a8.11,8.11,0,0,1-2.13.56,9.75,9.75,0,0,1-3.08-.22A10.4,10.4,0,0,1,328,454.6a8.25,8.25,0,0,1-.9-1,19.26,19.26,0,0,1-3.33-8.64c-.5-5.51,2.45-15.21,9.07-16A9.42,9.42,0,0,1,340.12,431.4Z"/><ellipse class="cls-9" cx="339.78" cy="437.68" rx="5.79" ry="4.44" transform="translate(-113.72 756.05) rotate(-87.25)"/><ellipse class="cls-10" cx="339.76" cy="437.39" rx="3.09" ry="2.37" transform="translate(-113.44 755.75) rotate(-87.25)"/><ellipse class="cls-7" cx="338.65" cy="435.02" rx="1.13" ry="0.87" transform="translate(-112.13 752.39) rotate(-87.25)"/><path class="cls-11" d="M346,442.94c0,3.2.07,7.84-3.08,11.18a8.93,8.93,0,0,1-5.38,2.88,8.17,8.17,0,0,1-2.9-.22,9.29,9.29,0,0,1-4.55-2.45,7,7,0,0,1-.82-1,18.06,18.06,0,0,1-3.16-8.17c-.48-5.22,2.32-14.41,8.56-15.15,4.54-.54,9.18,3.58,10.72,7.75A15.09,15.09,0,0,1,346,442.94Z"/><path class="cls-7" d="M322.65,442c-.19,3.69-.46,9.06-4.33,12.69a10.33,10.33,0,0,1-6.4,3,9.76,9.76,0,0,1-3.34-.46A10.67,10.67,0,0,1,303.5,454a7.82,7.82,0,0,1-.88-1.17,20.7,20.7,0,0,1-3.08-9.65c-.2-6.06,3.67-16.47,10.92-16.89,5.28-.31,10.35,4.76,11.84,9.68A17.68,17.68,0,0,1,322.65,442Z"/><path class="cls-8" d="M316.66,428.26a9.82,9.82,0,0,0-6.37-2.11c-7.24.46-11.14,10.89-10.91,16.93a20.74,20.74,0,0,0,3.09,9.65,13.85,13.85,0,0,0,.88,1.17,10.69,10.69,0,0,0,5.08,3.15,10.19,10.19,0,0,0,3.33.45l.75-.05a9.32,9.32,0,0,1-2.51.5,11.4,11.4,0,0,1-3.53-.46,12.18,12.18,0,0,1-5.39-3.29,9.66,9.66,0,0,1-1-1.24,22.19,22.19,0,0,1-3.24-10.2c-.21-6.39,3.87-17.38,11.57-17.86C311.45,424.64,314.34,426.08,316.66,428.26Z"/><ellipse class="cls-9" cx="314.63" cy="435.29" rx="5.13" ry="6.7" transform="matrix(1, -0.06, 0.06, 1, -23.64, 18.11)"/><ellipse class="cls-10" cx="315.29" cy="434.95" rx="2.74" ry="3.57" transform="translate(-23.62 18.14) rotate(-3.18)"/><ellipse class="cls-7" cx="313.31" cy="433.32" rx="1" ry="1.31" transform="translate(-23.53 18.03) rotate(-3.18)"/><path class="cls-11" d="M322.65,442c-.19,3.69-.46,9.06-4.33,12.69a10.33,10.33,0,0,1-6.4,3,9.76,9.76,0,0,1-3.34-.46A10.67,10.67,0,0,1,303.5,454a7.82,7.82,0,0,1-.88-1.17,20.7,20.7,0,0,1-3.08-9.65c-.2-6.06,3.67-16.47,10.92-16.89,5.28-.31,10.35,4.76,11.84,9.68A17.68,17.68,0,0,1,322.65,442Z"/><path class="cls-1" d="M309.06,416c-.13,0-5.2-2-6.14-1.12s-1.19,2.38.89,3.09c0,0-6.39.19-5.05,3.35-.12-.11-4.67,1.52-1.62,3.45-.2,0-3.19,2.73-1.23,4.48,4.66-5.87,7.49-7.31,9.24-7.45a17.08,17.08,0,0,0,2.93-.54c1.82-.51,3.36-.94,3.61-1.91S310.84,417,309.06,416Z"/><path class="cls-1" d="M331.88,419.87c.07-.05,2.92-2.54,3.73-2.23s1.36,1.26.18,2.23c0,0,4.22-1.43,4.11,1,.05-.1,3.42-.14,1.9,1.86.13-.05,2.75,1,1.9,2.63-4.48-2.7-6.68-3-7.86-2.62a11.6,11.6,0,0,1-2,.36c-1.31.12-2.43.21-2.83-.36S331,420.94,331.88,419.87Z"/><g class="cls-12"><path class="cls-4" d="M336.63,471.25a28.19,28.19,0,0,0,5.62-2.31,30.41,30.41,0,0,0,5.11-3.39,31.1,31.1,0,0,1-4.86,3.82,28.59,28.59,0,0,1-5.57,2.83Z"/></g><path class="cls-13" d="M293.32,455v0"/><path class="cls-14" d="M340.22,498c-.22.26-.45.52-.68.76a20.15,20.15,0,0,1-4.72,3.74,23.66,23.66,0,0,1-7.39,2.77l-.36.08-.73.12-1.08.17-.34,0-1.11.11c-1,.08-2,.12-3,.11h-.24c-1.24,0-2.48-.08-3.71-.21l-.86-.1c-.9-.11-1.79-.25-2.68-.42-.3-.05-.59-.11-.89-.18l-.09,0h0c-6.39-1.33-12.1-4-15.4-6.6a11.87,11.87,0,0,1-2-2l-.25-.34a29.57,29.57,0,0,1-1.66-4.78c-3.74-14.22.37-34,.23-36.84a30.41,30.41,0,0,0,1.42,5.1,23.18,23.18,0,0,0,3.49,6.24,18.85,18.85,0,0,0,3.07,3.11.75.75,0,0,0,.14.12,21.67,21.67,0,0,0,2.33,1.63,25.89,25.89,0,0,0,8.81,3.21c.62.12,1.26.22,1.89.3l.82.1h.07l1.08.1h0c.73.05,1.45.09,2.17.11a53,53,0,0,0,7.26-.35l.24,0c1.86-.22,3.58-.5,5.1-.8,1.22-.24,2.31-.49,3.23-.72l1.48-.37.54-.15.31-.09c-.29,1.61-.52,3.12-.69,4.55C333.79,494.41,339.79,498.44,340.22,498Z"/><path class="cls-15" d="M339.54,498.77a20.15,20.15,0,0,1-4.72,3.74,23.66,23.66,0,0,1-7.39,2.77l-.36.08-.73.12-1.08.17-.34,0-1.11.11c-1,.08-2,.12-3,.11h-.24c-1.24,0-2.48-.08-3.71-.21l-.86-.1c-.9-.11-1.79-.25-2.68-.42-.3-.05-.59-.11-.89-.18l-.09,0h0c-6.39-1.33-12.1-4-15.4-6.6a11.87,11.87,0,0,1-2-2l-.25-.34a29.57,29.57,0,0,1-1.66-4.78c6.33-1.3,16.77-1.92,24.8,5.18C318.55,496.26,330.35,489.88,339.54,498.77Z"/><path class="cls-16" d="M326,474.06l-.17.32-.3.61-.07.13-.18.37c-.87,1.83-1.08,2.62-1.42,3.3a4.66,4.66,0,0,1-4.11,2.72c-1.89-.08-4.4-2.46-6.58-6.33-.24-.43-.48-.88-.71-1.35.62.12,1.26.22,1.89.3l.82.1h.07l1.08.1h0c.73.05,1.45.09,2.17.11a53,53,0,0,0,7.26-.35Z"/><path class="cls-16" d="M314.39,474.13c-.31.27-.71.61-1.18,1.05l-.1.1-.11.1c-.09.09-.2.18-.29.28-1.46,1.4-1.94,2.07-2.5,2.59a4.67,4.67,0,0,1-4.8,1.1c-1.7-.73-3.18-3.71-3.88-7.94-.13-.8-.24-1.65-.31-2.54a.75.75,0,0,0,.14.12,21.67,21.67,0,0,0,2.33,1.63,25.89,25.89,0,0,0,8.81,3.21C313.12,474,313.76,474.05,314.39,474.13Z"/><path class="cls-16" d="M303.69,470.62c-.28.1-.6.2-.94.33a.43.43,0,0,0-.13.05,3,3,0,0,0-.39.14l-.7.27c-1.39.55-2,.9-2.62,1.12a4.68,4.68,0,0,1-4.84-.89c-1.6-1.69-1.47-6.46.59-12.12a23.18,23.18,0,0,0,3.49,6.24,18.85,18.85,0,0,0,3.07,3.11.75.75,0,0,0,.14.12A21.67,21.67,0,0,0,303.69,470.62Z"/><path class="cls-16" d="M336.39,472c-1.95,6.43-5.81,8.74-8.1,7.06a7.15,7.15,0,0,1-2.16-3.76c-.07-.21-.13-.41-.18-.62s-.06-.21-.08-.32,0-.19-.07-.29l.24,0c1.86-.22,3.58-.5,5.1-.8,1.22-.24,2.31-.49,3.23-.72l1.48-.37Z"/><path class="cls-16" d="M312.33,505c-6.39-1.33-12.1-4-15.4-6.61a11.48,11.48,0,0,1-2-2c1.52-2.1,3.86-4.53,6.52-4.33s4.7,3.13,8.18,8.32C310.75,502.09,311.64,503.66,312.33,505Z"/><path class="cls-16" d="M323,505.8c-.72.06-1.44.1-2.17.11h-.24c-1.24,0-2.48-.08-3.71-.21l-.86-.1c-.9-.11-1.79-.25-2.68-.42-.3-.05-.59-.11-.89-.18a6,6,0,0,1,.18-4.36c.68-1.5,2.18-3.34,3.88-3.48C318.91,497,322,500.27,323,505.8Z"/><path class="cls-16" d="M334.82,502.51a23.66,23.66,0,0,1-7.39,2.77c-.72.15-1.45.27-2.17.37l-.33.05h0a6.25,6.25,0,0,1-1.37-4.42c.15-1.67,1-3.93,2.54-4.61C328.25,495.73,332.08,497.79,334.82,502.51Z"/><path class="cls-3" d="M336.14,476.26c.17-1.43.4-2.94.68-4.55q-.42.14-.84.24l-1.48.37c-.92.23-2,.48-3.23.72a59.72,59.72,0,0,1-12.6,1.18c-.72,0-1.45-.06-2.18-.11h0l-1.09-.1h-.07a26.2,26.2,0,0,1-13.85-5.24,19.57,19.57,0,0,1-3.2-3.23,25.66,25.66,0,0,1-4.89-11.17,0,0,0,0,0,0,0c0,3.78-4.9,27.57,1.44,41.45.07.11.16.22.24.34a12,12,0,0,0,2,2c3.3,2.65,9,5.27,15.4,6.6h0c.33.08.65.14,1,.2.88.17,1.78.31,2.68.42l.85.1a37.64,37.64,0,0,0,7,.1,31.74,31.74,0,0,0,3.25-.44,22.28,22.28,0,0,0,13.11-7.29s0,0,0,0C339.53,498,334,493.61,336.14,476.26Z"/><path class="cls-2" d="M272.19,449.85c-1.18,9-2.17,16.54-3.12,23-10-28.4-11.68-33.83-12.47-37.13-.63-2.51-1.48-4.92-2.12-7.43a12.74,12.74,0,0,0-1.48-4.15c-.66-1.17-1.13-1.38-2.77-3.2a8.93,8.93,0,0,0,1.55-.62c3.07-1.76,3-2.71,3-2.71a12.28,12.28,0,0,0,1.62-.89c-.17.17-.29.31-.34.36a103.37,103.37,0,0,0,6.47,16.65l.71,1.42h0a106,106,0,0,0,9,14.68Z"/><path class="cls-3" d="M269.09,472.64c-10-28.39-11.68-33.82-12.47-37.12-.63-2.51-1.48-4.93-2.12-7.43a12.65,12.65,0,0,0-1.48-4.15c-.66-1.17-1.13-1.38-2.77-3.2a8.93,8.93,0,0,0,1.55-.62c3.07-1.76,3-2.71,3-2.71s1.33-.58,1.28-.53a102.94,102.94,0,0,0,6.47,16.64c.23.48.47,1,.71,1.43h0a106,106,0,0,0,9,14.68v0"/><path class="cls-1" d="M263.31,407.94a1.91,1.91,0,0,1-.06.33,6.68,6.68,0,0,1-.28,1.11,3.52,3.52,0,0,1-.16.49c-.08.22-.16.44-.26.66s-.16.35-.25.53-.19.35-.29.53-.19.32-.29.48l0,.05c-.11.17-.21.33-.33.49s-.23.32-.35.47-.19.26-.29.38l-.07.09c-.25.29-.51.58-.76.85s-.8.8-1.21,1.15-.8.67-1.19.95a4.5,4.5,0,0,1-.37.28c-.43.31-.82.57-1.18.78a12.28,12.28,0,0,1-1.62.89s.09.95-3,2.71a9.25,9.25,0,0,1-1.55.62,6.91,6.91,0,0,1-1.08.22l-.24,0a3.86,3.86,0,0,1-2-.4,4.22,4.22,0,0,1-.54-.36,4.31,4.31,0,0,1-.67-.68,7.51,7.51,0,0,1-1.3-2.82l-.12-.54a12.22,12.22,0,0,1-.22-1.68s-4.13,1.15-6.79-1.13c-3.3-4.55,3.24-9.6,3.4-9.33.74-6.64,6.4-6.75,6.27-6.65,9.87-8.16,10.13,1,10.13,1s3.86-2.69,6.08,3.13A10.52,10.52,0,0,1,263.31,407.94Z"/><path class="cls-3" d="M263.31,407.94a1.91,1.91,0,0,1-.06.33,6.68,6.68,0,0,1-.28,1.11,3.52,3.52,0,0,1-.16.49c-.08.22-.16.44-.26.66s-.16.35-.25.53-.19.35-.29.53-.19.32-.29.48l0,.05c-.11.17-.21.33-.33.49s-.23.32-.35.47-.19.26-.29.38l-.07.09c-.25.29-.51.58-.76.85s-.8.8-1.21,1.15-.8.67-1.19.95a4.5,4.5,0,0,1-.37.28c-.43.31-.82.57-1.18.78a12.28,12.28,0,0,1-1.62.89s.09.95-3,2.71a9.25,9.25,0,0,1-1.55.62,5.92,5.92,0,0,1-1.08.22l-.24,0a3.74,3.74,0,0,1-2-.4,4.22,4.22,0,0,1-.54-.36,3.59,3.59,0,0,1-.67-.68,7.51,7.51,0,0,1-1.3-2.82l-.12-.54a12.22,12.22,0,0,1-.22-1.68s-4.13,1.15-6.79-1.13c-3.3-4.55,3.24-9.6,3.4-9.33.74-6.64,6.4-6.75,6.27-6.65,9.87-8.16,10.13,1,10.13,1s3.86-2.69,6.08,3.13A10.52,10.52,0,0,1,263.31,407.94Z"/><path class="cls-4" d="M256.85,399.91a14.92,14.92,0,0,0-4,3,6.92,6.92,0,0,0-2,4.41,6.34,6.34,0,0,0,.13,1.23c.11.4.14.86.42,1.06a3.19,3.19,0,0,0,2.36.33,8.83,8.83,0,0,0,4.57-2.21,9,9,0,0,1-4.53,2.46,3.46,3.46,0,0,1-2.64-.29,1.21,1.21,0,0,1-.42-.61l-.19-.64a6.57,6.57,0,0,1-.2-1.33,7.47,7.47,0,0,1,2-4.9A15.27,15.27,0,0,1,256.4,399Z"/><path class="cls-4" d="M247,398.56a34.43,34.43,0,0,0-.83,3.94,20.65,20.65,0,0,0-.27,4,7.58,7.58,0,0,0,.32,2,2.37,2.37,0,0,0,3,1.81,7.35,7.35,0,0,0,1.9-.69,7.85,7.85,0,0,1-1.88.81,2.81,2.81,0,0,1-2-.16,3,3,0,0,1-1.31-1.65,8,8,0,0,1-.45-2,21.11,21.11,0,0,1,0-4.13,35.85,35.85,0,0,1,.6-4.1Z"/><path class="cls-4" d="M240.73,405.07a24.8,24.8,0,0,0,.26,3.54,9.06,9.06,0,0,0,1.06,3.31,1.88,1.88,0,0,0,1.28.93,2.52,2.52,0,0,0,1.6-.44,11.47,11.47,0,0,0,2.61-2.46,11.38,11.38,0,0,1-2.47,2.67,2.78,2.78,0,0,1-1.78.6,2.3,2.3,0,0,1-1.65-1,9.56,9.56,0,0,1-1.38-3.46,24.83,24.83,0,0,1-.53-3.66Z"/><path class="cls-4" d="M254.35,419a7.38,7.38,0,0,1-2-.37,6.72,6.72,0,0,1-1.81-.87,5.65,5.65,0,0,1-1.44-1.36,6.76,6.76,0,0,1-.91-1.72,6.59,6.59,0,0,0,1.1,1.55,5.32,5.32,0,0,0,1.5,1.1,6.37,6.37,0,0,0,1.74.58,7.29,7.29,0,0,0,1.79.09Z"/><path class="cls-1" d="M270.12,446.57a12.26,12.26,0,0,1-4.51,3.83,12.13,12.13,0,0,1-4.19,1.22c-1.36-3.93-2.37-6.93-3.14-9.28a12.54,12.54,0,0,0,3.34-1.1,12.18,12.18,0,0,0,3.48-2.58C266.76,441.56,268.46,444.2,270.12,446.57Z"/><path class="cls-1" d="M262.06,433.05a7.74,7.74,0,0,1-2.17,1.6,7.49,7.49,0,0,1-3,.79c-.49-1.68-1-3.34-1.45-5a20.86,20.86,0,0,0-.91-3.07,7.64,7.64,0,0,0,2.89-.78,7,7,0,0,0,1.56-1C259.86,427.92,260.87,430.45,262.06,433.05Z"/><ellipse class="cls-17" cx="287.18" cy="426.38" rx="6.65" ry="3.33" transform="translate(-221.06 503.62) rotate(-64.68)"/><ellipse class="cls-17" cx="281.94" cy="448.29" rx="10.33" ry="5.31" transform="translate(-235.78 559.7) rotate(-69.98)"/><g class="cls-12"><path class="cls-4" d="M288.89,455.25a7.54,7.54,0,0,1,1.63-2.34,4.67,4.67,0,0,1,1.25-.85,2.81,2.81,0,0,1,1.61-.25h.1l0,0,.09,0,.15.07.26.14.48.32c.3.22.58.46.86.71a10.48,10.48,0,0,1,1.5,1.62c-.68-.31-1.3-.68-1.93-1l-.92-.53a4.92,4.92,0,0,0-.45-.24l-.22-.11-.1,0,0,0h0a2.39,2.39,0,0,0-1.1.17,6.25,6.25,0,0,0-1.09.61C290.32,454.05,289.64,454.67,288.89,455.25Z"/></g><g class="cls-12"><path class="cls-4" d="M301.74,465a41.76,41.76,0,0,0,10.17,4.44,38.66,38.66,0,0,0,10.9,1.46,38.25,38.25,0,0,0,10.88-1.64,37.3,37.3,0,0,0,5.19-2,41.47,41.47,0,0,0,4.92-2.62,34,34,0,0,1-9.87,5.3,34.91,34.91,0,0,1-22.25.18,38.81,38.81,0,0,1-5.2-2.17A33.83,33.83,0,0,1,301.74,465Z"/></g><g class="cls-12"><path class="cls-4" d="M288.89,485.71c.17,2,.46,4,.72,6a33.12,33.12,0,0,0,1.21,5.78,4.79,4.79,0,0,0,.59,1.2,4.18,4.18,0,0,0,1.08.75c.84.51,1.73,1,2.6,1.46l2.64,1.43a28.07,28.07,0,0,0,2.69,1.34,30.16,30.16,0,0,1-5.68-2.07c-.92-.41-1.82-.86-2.72-1.34-.23-.12-.45-.24-.67-.38a2.37,2.37,0,0,1-.7-.59,4.84,4.84,0,0,1-.77-1.47,24.21,24.21,0,0,1-1-6A34,34,0,0,1,288.89,485.71Z"/></g><path class="cls-18" d="M309.63,404.52s2.6-4.88-6.76-6.92c-.31.39,8.34-4.33,10.85,5.58.55,0,3.93-8.49-9-12.74.16-.31,12.74,0,14.47,12.66-.08-.16,3.85-4.48,0-8.73.31-.15,5.74.32,4.4,10.54"/><path class="cls-18" d="M309.63,404.52s2.6-4.88-6.76-6.92c-.31.39,8.34-4.33,10.85,5.58.55,0,3.93-8.49-9-12.74.16-.31,12.74,0,14.47,12.66-.08-.16,3.85-4.48,0-8.73.31-.15,5.74.32,4.4,10.54"/><path class="cls-18" d="M330.35,408.38s8-22.4-4.11-25.39-15.62,12.34-3.44,7.86c3.38-2,2.36-4.25,2.36-4.25s6.21,2,2.83,20"/><path class="cls-19" d="M322.85,390.59c-4.7,1.73-7.08.51-7.51-1.47,1.06,1.32,3.47,1.82,7.43.37a5,5,0,0,0,2.54-2.78C325.45,387.42,325.42,389.1,322.85,390.59Z"/><path class="cls-18" d="M330.35,408.38s8-22.4-4.11-25.39-15.62,12.34-3.44,7.86c3.38-2,2.36-4.25,2.36-4.25s6.21,2,2.83,20"/><path class="cls-18" d="M306.77,407.37c-.32-.24-.48-12.5-21.47-5.58s-13,24.53-2.28,12.65c4.8-5.42.32-6.91.32-6.91s15.33-9.12,20.44,1.18"/><path class="cls-19" d="M282.94,414.45c-4.76,5.27-9,4.72-10.35,1.88,1.76,2,5.56,1.92,9.77-2.76,2.26-2.55,2.47-4.23,2-5.3C285.3,409.18,286,411,282.94,414.45Z"/><path class="cls-18" d="M306.77,407.37c-.32-.23-.48-12.5-21.47-5.58s-13,24.53-2.28,12.66c4.8-5.43.32-6.92.32-6.92s15.33-9.12,20.44,1.18"/></svg>