<svg id="Layer_1" data-name="Layer 1" xmlns="http://www.w3.org/2000/svg" viewBox="0 0 1280 720"><defs><style>.cls-1,.cls-19{fill:#22b0ff;}.cls-15,.cls-2{fill:#1fffff;}.cls-3{fill:#1a4e99;}.cls-4{fill:#a5cf47;}.cls-13,.cls-18,.cls-5{fill:none;}.cls-5{stroke:#1a4e99;}.cls-13,.cls-14,.cls-15,.cls-18,.cls-19,.cls-5{stroke-miterlimit:10;}.cls-6{fill:#1c2077;}.cls-7{fill:#3a9ec1;}.cls-8{fill:#fff3df;}.cls-14,.cls-9{fill:#f7f5f2;}.cls-10{opacity:0.28;}.cls-11{fill:#1a3f6b;}.cls-12{fill:#130101;}.cls-13,.cls-14{stroke:#2d6eb5;}.cls-15{stroke:#1a5bba;}.cls-16{opacity:0.54;}.cls-17{fill:#fff;}.cls-18,.cls-19{stroke:#2369af;}.cls-20{fill:#1fe5e0;}.cls-21{opacity:0.56;}</style></defs><path class="cls-1" d="M309.24,609.39a2.19,2.19,0,0,1-1.49,1,40,40,0,0,1-7.8,1.07,37.78,37.78,0,0,1-9.15-.78c-9.44-1.92-9.36-5.54-17-6.46-4.61-.57-8.08.28-9.22-1.77-.92-1.64-.49-5-.49-5a3.49,3.49,0,0,0,.07-.85c.78-7.38-.15-16.89-5.61-28.17,10.08-2.48,20.08-5,20.08-4.89a58.06,58.06,0,0,0-2.84,5.67,65.61,65.61,0,0,0-4.11,11.78c-.93,4-2,9.08.71,11.64a5,5,0,0,0,1.34.85c19-2.06,29-1.35,30.08,2.27a3.19,3.19,0,0,1-.21,2.27c2.34,1.56,6.31,4.54,5.68,6.17-.15.42-.64.85-2,1.06h0C309.17,606.48,309.81,608.32,309.24,609.39Z"/><path class="cls-2" d="M264.24,595.28a44.37,44.37,0,0,0,0-6.82,12.35,12.35,0,0,1,6.48-2.34,8.57,8.57,0,0,0,1,5.7C268.87,592.05,266.12,593.78,264.24,595.28Z"/><path class="cls-1" d="M278.67,563.56a58.06,58.06,0,0,0-2.84,5.67c-.42,1-.92,2.13-1.42,3.27a63.75,63.75,0,0,1-12.91,2.91,56,56,0,0,0-2.91-7C268.74,565.9,278.67,563.42,278.67,563.56Z"/><path class="cls-3" d="M307.38,605.56a22.24,22.24,0,0,0-9-2.77,24.4,24.4,0,0,0-3.19-.14c1.06-.07,2.12-.07,3.19-.07a22.51,22.51,0,0,1,9.36,2.34l-.35.64Z"/><path class="cls-4" d="M235.11,601.73c-.14.71-.21,1.42-.28,2.12"/><path class="cls-4" d="M229.51,602.37c.07,1.2.14,1.91.14,2.12"/><path class="cls-1" d="M247.38,614c-10.85,8-32.13,2.84-31.57-1.28.5-3.47,10.08-8.79,13.77-10.35-.93-10.29-6-53.21-6-53.64s22.63,16.46,22.63,16.46-8.23,19-11,36.54C242.91,604.85,248.09,612,247.38,614Z"/><path class="cls-2" d="M237.11,593.86c-.52,2.14-1,4.32-1.4,6.48a35.63,35.63,0,0,0-6.38-.23c-.2-1.86-.43-4.08-.71-6.55A35.77,35.77,0,0,1,237.11,593.86Z"/><path class="cls-1" d="M246.11,566.75s-1.64,3.83-3.76,9.72a64.44,64.44,0,0,1-16.11-4.9c-1.2-10.49-2.27-19.72-2.41-21.07C226.74,552.35,246.11,566.75,246.11,566.75Z"/><polygon class="cls-3" points="273.98 593.93 267.66 594.29 273.91 593.23 273.98 593.93"/><path class="cls-3" d="M303.63,598.51a12.14,12.14,0,0,0-8-1.56,12.41,12.41,0,0,1,8.44,1c-.07-.07-.43.57-.43.57Z"/><path class="cls-2" d="M274.54,572.09a65.55,65.55,0,0,0-2.36,6.81,21.43,21.43,0,0,0-8.95,3.38,53.85,53.85,0,0,0-1.55-5.67C264.16,574.8,269.4,571.61,274.54,572.09Z"/><path class="cls-2" d="M243.17,574.34c-1,2.72-2.09,5.94-3.17,9.44-4-2.2-8.95-2-12.24-1.43-.41-3.66-.85-7.45-1.27-11.11C230.12,570.43,238.23,569.34,243.17,574.34Z"/><path class="cls-5" d="M309.24,609.39a2.19,2.19,0,0,1-1.49,1,40,40,0,0,1-7.8,1.07,37.78,37.78,0,0,1-9.15-.78c-9.44-1.92-9.36-5.54-17-6.46-4.61-.57-8.08.28-9.22-1.77-.92-1.64-.49-5-.49-5a3.49,3.49,0,0,0,.07-.85c.78-7.38-.15-16.89-5.61-28.17,10.08-2.48,20.08-5,20.08-4.89a58.06,58.06,0,0,0-2.84,5.67,65.61,65.61,0,0,0-4.11,11.78c-.93,4-2,9.08.71,11.64a5,5,0,0,0,1.34.85c19-2.06,29-1.35,30.08,2.27a3.19,3.19,0,0,1-.21,2.27c2.34,1.56,6.31,4.54,5.68,6.17-.15.42-.64.85-2,1.06h0C309.17,606.48,309.81,608.32,309.24,609.39Z"/><path class="cls-5" d="M247.67,614c-10.86,8-32.14,2.84-31.57-1.28.49-3.47,10.07-8.79,13.76-10.35-.92-10.29-6-53.21-6-53.64s22.63,16.46,22.63,16.46-8.16,19-11,36.54C243.27,604.85,248.45,612,247.67,614Z"/><path class="cls-1" d="M331.27,517.08c2.77-2.27,8.66-6.46,11.28-3.48,3.34,3.91,3.76,6.89,1.07,9.65-.21.07,2.76,2.13-.57,6.1.07.29,1.63,6.39-6.1,8.16-8.09,1.85-7.8-1.56-7.8-1.56a9.37,9.37,0,0,1-8.52-2.48c-.21.07-18.94,1.56-21.71-.36s-5.53-10.42-5.53-10.42V491.47s7,20.22,9.29,22.49,15.82,15.25,19.94,13.12l-.85-.07s-5.11-5.39,1.35-9.86,8.93-1,9.36,4,.07,8.94-2.62,9.16-4.12-5.18-1.35-6"/><path class="cls-2" d="M318.62,533.75c-1.5.11-3.76.25-6.24.36a11.54,11.54,0,0,1-.13-11.43,41.44,41.44,0,0,0,5.17,3.45,11.44,11.44,0,0,0,1.2,7.62Z"/><path class="cls-2" d="M303.89,533.82c-2.48-.07-4.4-.35-5.18-.85-2.77-1.84-5.53-10.43-5.53-10.43V505.16c.64-2.76,1.63-4.82,2.91-5.74,2.2,5.88,5,13.12,6.38,14.4l.5.49A56.17,56.17,0,0,0,303.89,533.82Z"/><path class="cls-5" d="M331.27,517.08c2.77-2.27,8.66-6.46,11.28-3.48,3.34,3.91,3.76,6.89,1.07,9.65-.21.07,2.76,2.13-.57,6.1.07.29,1.63,6.39-6.1,8.16-8.09,1.85-7.8-1.56-7.8-1.56a9.37,9.37,0,0,1-8.52-2.48c-.21.07-18.94,1.56-21.71-.36s-5.53-10.42-5.53-10.42V491.47s7,20.22,9.29,22.49,15.82,15.25,19.94,13.12l-.85-.07s-5.11-5.39,1.35-9.86,8.93-1,9.36,4,.07,8.94-2.62,9.16-4.12-5.18-1.35-6"/><path class="cls-3" d="M343.76,523.61a12.07,12.07,0,0,1-9.15.64,12.28,12.28,0,0,0,8.8-1.21l.35.57Z"/><path class="cls-3" d="M343.26,529.64a12.07,12.07,0,0,1-9.15.64,12.28,12.28,0,0,0,8.8-1.21l.35.57Z"/><path class="cls-3" d="M329.07,536c1.57-2.91,5.25-3.62,8.31-3.33l1.34.21h-.21c-.14.07-.07.07-.07.07.21-.71.35-1.91-.57-2.2v-.07a.83.83,0,0,1,.78.29,2.71,2.71,0,0,1,.43,2.19.42.42,0,0,1-.36.36,16.25,16.25,0,0,0-5.25-.21,7,7,0,0,0-4.4,2.69Z"/><path class="cls-2" d="M306.39,549.92c.41.07-4.16,5.31-11.22,4.65-.49.12,1.74,3.22,5.72,2.18a26.15,26.15,0,0,1-17.71,2.86c.2.43,2.86,5.11,12.08,3.55a22.53,22.53,0,0,1-20.8,3.85,12.15,12.15,0,0,0,13.39,4.51c-.2.06-11.92,9.6-25.56-2.7-.09.23-8.68,12.4-25.87,7.25-.48-.43,9.67-4.25,10.4-10.07a2.33,2.33,0,0,0,0-.37,1.12,1.12,0,0,1-.34.33c-2,1.6-12.58,7.68-22.67,4.73.42-.11,8.87-4.29,10.35-7.72a3.05,3.05,0,0,0,.16-.45c-.06,0-.31.11-.72.23-3.34.93-17.06,4.14-20.31,2.72.52,0,6.78-6.44,10-7.67-.16-.15-11.51,3.17-13.24,2.73s1.89-6.41,1-10.24-3.78-10.76-4.77-14.15a58.8,58.8,0,0,1-1-9.33,0,0,0,0,0,0,0,75.11,75.11,0,0,1-.18-10.12c1.26-36.76,32.16-83,65.94-82.15,17.33.42,36.78,13.23,37.14,23.94.25,7.81-9.41,20.92-7.46,27.78.29,1,1.07,3-.14,4.64s-3.83,1.94-4.82,4.23a5.48,5.48,0,0,0-.36,1.18,96.12,96.12,0,0,0-.42,22.37c.47,4.29.84,7.58,1,10.26h0a7.26,7.26,0,0,0,6.64,4.68c-.09.17-2,1.53-6.6,1.06q-.07.78-.21,1.5a22.42,22.42,0,0,1-.56,2.29,15.4,15.4,0,0,0,7.36,3,20.65,20.65,0,0,1-9.34,1.67,13.21,13.21,0,0,1-3.56-.81,35.69,35.69,0,0,0,2.42,2.75C295.05,548,300.3,552,306.39,549.92Z"/><path class="cls-5" d="M306.39,549.92c.41.07-4.16,5.31-11.22,4.65-.49.12,1.74,3.22,5.72,2.18a26.15,26.15,0,0,1-17.71,2.86c.2.43,2.86,5.11,12.08,3.55a22.53,22.53,0,0,1-20.8,3.85,12.15,12.15,0,0,0,13.39,4.51c-.2.06-11.92,9.6-25.56-2.7-.09.23-8.68,12.4-25.87,7.25-.48-.43,9.67-4.25,10.4-10.07a2.33,2.33,0,0,0,0-.37,1.12,1.12,0,0,1-.34.33c-2,1.6-12.58,7.68-22.67,4.73.42-.11,8.87-4.29,10.35-7.72a3.05,3.05,0,0,0,.16-.45c-.06,0-.31.11-.72.23-3.34.93-17.06,4.14-20.31,2.72.52,0,6.78-6.44,10-7.67-.16-.15-11.51,3.17-13.24,2.73s1.89-6.41,1-10.24-3.78-10.76-4.77-14.15a58.8,58.8,0,0,1-1-9.33,0,0,0,0,0,0,0,75.11,75.11,0,0,1-.18-10.12c1.26-36.76,32.16-83,65.94-82.15,17.33.42,36.78,13.23,37.14,23.94.25,7.81-9.41,20.92-7.46,27.78.29,1,1.07,3-.14,4.64s-3.83,1.94-4.82,4.23a5.48,5.48,0,0,0-.36,1.18,96.12,96.12,0,0,0-.42,22.37c.47,4.29.84,7.58,1,10.26h0a7.26,7.26,0,0,0,6.64,4.68c-.09.17-2,1.53-6.6,1.06q-.07.78-.21,1.5a22.42,22.42,0,0,1-.56,2.29,15.4,15.4,0,0,0,7.36,3,20.65,20.65,0,0,1-9.34,1.67,13.21,13.21,0,0,1-3.56-.81,35.69,35.69,0,0,0,2.42,2.75C295.05,548,300.3,552,306.39,549.92Z"/><path class="cls-6" d="M287,504.4a13.15,13.15,0,0,0,.23,3.22c0,.14.05.29.08.44s.13.56.21.84a21,21,0,0,0,.8,2.32v0c.25.58.5,1.12.74,1.61s.54,1,.74,1.4a5.48,5.48,0,0,1,.56,1.13s0,0,0,0a6.25,6.25,0,0,1-1.63,4.85,10.59,10.59,0,0,1-2.59,2,16.74,16.74,0,0,1-1.64.83,23.94,23.94,0,0,1-2.86,1c-.67.2-1.38.37-2.11.52s-1.48.27-2.26.38h0c-1.15.17-2.36.28-3.59.35h0c-.71,0-1.48.08-2.2.06a49.61,49.61,0,0,1-15.12-2.33c-.65-.22-1.29-.44-1.93-.7l-.25-.1c-1.17-.51-2.33-1-3.43-1.59l-4.52-3.08a15.48,15.48,0,0,1-3.43-4.06,11.94,11.94,0,0,1-.87-1.71,6.93,6.93,0,0,1-.26-.72c-.26-.74-.48-1.46-.69-2.18a46.93,46.93,0,0,1-1.17-5.24c-.15-1-.26-1.91-.35-2.84-1.17-12.87,3.78-22.19,4.16-22.38h0q.45,1.07.93,2.07a40,40,0,0,0,6.73,10.07c.42.44.84.87,1.28,1.28.25.25.51.48.77.71l.19.16a28.07,28.07,0,0,0,4.53,3.28,29.17,29.17,0,0,0,5.79,2.61c.42.15.85.28,1.27.4l.22.06a7,7,0,0,0,1.23.28,37.8,37.8,0,0,0,10.66.83l.87-.06c1.39-.1,2.74-.25,4.05-.44,1.62-.27,3.19-.61,4.65-1,1-.24,1.86-.48,2.72-.73l-.08.1A10.94,10.94,0,0,0,287,504.4Z"/><path class="cls-7" d="M290.37,515.38a.46.46,0,0,1,0,.1,6.18,6.18,0,0,1-1.64,4.86c-2.74,3.06-8.47,4.82-15.06,5.12a19.72,19.72,0,0,1-2.2.06,49.56,49.56,0,0,1-15.12-2.33c-.73-.25-1.46-.49-2.18-.8-1.24-.51-2.33-1-3.43-1.59l-4.52-3.08a15.48,15.48,0,0,1-3.43-4.06,11.32,11.32,0,0,1-1.13-2.42c-.26-.76-.5-1.52-.71-2.26h0c7.65-1.39,22.37-2.59,29.56,6.61.11,0,10.94-6.8,19.27-1.35h0A5.51,5.51,0,0,1,290.37,515.38Z"/><path class="cls-8" d="M255.6,516.81a11,11,0,0,1-1.2,5.61l-.26-.1c-1.17-.51-2.33-1-3.43-1.59l-4.51-3.08a15.29,15.29,0,0,1-3.43-4.06,11,11,0,0,1-.88-1.71c2.89-2.77,6.82-3.56,9.53-2.3C253.76,510.73,255.42,513.55,255.6,516.81Z"/><path class="cls-8" d="M271.44,525.45a49.72,49.72,0,0,1-15.13-2.33c-.72-.25-1.44-.49-2.17-.8a11.15,11.15,0,0,1,3.6-5.25c2.79-2.23,6.3-2.92,8.93-1.72C269.81,516.8,272,520.94,271.44,525.45Z"/><path class="cls-8" d="M288.7,520.27c-2.74,3.07-8.47,4.75-15.06,5.12a11.41,11.41,0,0,1,1.89-6.64c.4-.52,3.75-5.33,8.06-4.51a6.21,6.21,0,0,1,4.22,3A16.3,16.3,0,0,1,288.7,520.27Z"/><path class="cls-8" d="M252.54,491.93c-2.69,1.28-5.61,1.19-7.47-.19-2.77-2.05-3.51-7.2-.54-11.16a40,40,0,0,0,6.73,10.07C251.68,491.09,252.1,491.52,252.54,491.93Z"/><path class="cls-8" d="M258,496.09a29.36,29.36,0,0,0,5.78,2.6,8,8,0,0,1-3.28,3.2,6,6,0,0,1-5.53-.11c-2.09-1.39-2.94-5-1.51-9A28.94,28.94,0,0,0,258,496.09Z"/><path class="cls-8" d="M266.55,499.43a37.73,37.73,0,0,0,10.65.83,21.85,21.85,0,0,1-2.88,3.64c-1.47,1.47-2.77,2.74-4.52,2.66a5.29,5.29,0,0,1-4.09-3,7.63,7.63,0,0,1-.62-4.44l.23.06A6.63,6.63,0,0,0,266.55,499.43Z"/><path class="cls-8" d="M286.78,498.78c-.81,5.3-3.22,8.68-5.49,8.71a3.84,3.84,0,0,1-3.06-1.9c-1-1.65-.63-3.79-.16-5.39,1.39-.1,2.75-.25,4.05-.44C283.74,499.49,285.31,499.15,286.78,498.78Z"/><path class="cls-5" d="M289.78,514.21a8.76,8.76,0,0,1,.57,1.14.38.38,0,0,1,0,.1,6.13,6.13,0,0,1-1.65,4.85c-2.73,3.07-8.46,4.83-15,5.13-.71,0-1.42.08-2.2.06a50,50,0,0,1-15.13-2.34c-.72-.25-1.45-.49-2.17-.8a35.11,35.11,0,0,1-3.43-1.58l-4.52-3.08a15.52,15.52,0,0,1-3.43-4.07,10.46,10.46,0,0,1-1.13-2.42c-.26-.75-.5-1.51-.71-2.26a42.68,42.68,0,0,1-1.15-5.24c-.16-1-.27-1.91-.35-2.84-1.17-13,3.95-22.42,4.18-22.32.3.7.6,1.37.91,2a44,44,0,0,0,2.64,4.79,38.41,38.41,0,0,0,4.11,5.33c.4.43.8.84,1.22,1.23s.66.62,1,.91a29,29,0,0,0,10.3,5.9c.43.14.87.28,1.31.39l.24.07c.43.12.78.17,1.22.29a37.16,37.16,0,0,0,10.59.86l.9-.06c1.41-.1,2.77-.27,4.09-.48,1.61-.26,3.18-.6,4.63-1,.93-.23,1.82-.47,2.65-.7l.09,0a10.67,10.67,0,0,0-2.52,6.27,13.16,13.16,0,0,0,.22,3.22,3.43,3.43,0,0,0,.09.44c.06.29.13.56.21.84a17.5,17.5,0,0,0,.8,2.32v0a17.22,17.22,0,0,0,.74,1.6C289.32,513.35,289.57,513.82,289.78,514.21Z"/><path class="cls-3" d="M289.14,497.9c2.85-1,5.78-2.11,8.08-4.09-2.15,2.18-5,3.48-7.83,4.71l-.25-.62Z"/><path class="cls-9" d="M299.5,481.74c-1.22,3.34-3,8.19-7.58,10.44a9.92,9.92,0,0,1-6.72.9,9.41,9.41,0,0,1-2.94-1.37,10.2,10.2,0,0,1-3.77-4.33,8.09,8.09,0,0,1-.48-1.32,20.09,20.09,0,0,1-.1-9.75c1.54-5.62,8-14.09,14.83-12.42,4.94,1.21,8.16,7.31,8.13,12.25A17,17,0,0,1,299.5,481.74Z"/><path class="cls-10" d="M297.88,467.44a9.46,9.46,0,0,0-5.26-3.74c-6.77-1.63-13.32,6.84-14.81,12.46a20.06,20.06,0,0,0,.09,9.74c.08.24.23.73.48,1.33a10.39,10.39,0,0,0,3.78,4.33,9.72,9.72,0,0,0,2.93,1.36l.7.16a8.69,8.69,0,0,1-2.44-.25,10.38,10.38,0,0,1-3.11-1.43,11.6,11.6,0,0,1-4-4.54,8.78,8.78,0,0,1-.53-1.41,21.19,21.19,0,0,1-.09-10.29c1.62-5.93,8.48-14.87,15.69-13.14A10.5,10.5,0,0,1,297.88,467.44Z"/><ellipse class="cls-11" cx="290.57" cy="478.38" rx="6.44" ry="4.94" transform="translate(-243.81 644.89) rotate(-76.03)"/><ellipse class="cls-12" cx="290.61" cy="478.06" rx="3.43" ry="2.64" transform="translate(-243.46 644.68) rotate(-76.03)"/><ellipse class="cls-9" cx="288.96" cy="476.48" rx="1.26" ry="0.96" transform="translate(-243.18 641.88) rotate(-76.03)"/><path class="cls-13" d="M299.5,481.74c-1.22,3.34-3,8.19-7.58,10.44a9.92,9.92,0,0,1-6.72.9,9.41,9.41,0,0,1-2.94-1.37,10.2,10.2,0,0,1-3.77-4.33,8.09,8.09,0,0,1-.48-1.32,20.09,20.09,0,0,1-.1-9.75c1.54-5.62,8-14.09,14.83-12.42,4.94,1.21,8.16,7.31,8.13,12.25A17,17,0,0,1,299.5,481.74Z"/><path class="cls-14" d="M275.57,471.62c-1.64,3.77-4,9.25-9.47,11.52a11.44,11.44,0,0,1-7.82.57,10.52,10.52,0,0,1-3.29-1.77,11.83,11.83,0,0,1-4.06-5.26,8.31,8.31,0,0,1-.46-1.57,23.11,23.11,0,0,1,.56-11.25c2.17-6.38,10.26-15.71,18-13.31,5.62,1.74,8.91,9,8.54,14.7A19.36,19.36,0,0,1,275.57,471.62Z"/><path class="cls-10" d="M274.69,455a10.89,10.89,0,0,0-5.81-4.68c-7.7-2.35-15.84,7-18,13.36a23.1,23.1,0,0,0-.56,11.25,15.66,15.66,0,0,0,.46,1.56,11.83,11.83,0,0,0,4.06,5.26,11.23,11.23,0,0,0,3.29,1.78l.8.23a10.24,10.24,0,0,1-2.81-.46,12.06,12.06,0,0,1-3.49-1.86,13.35,13.35,0,0,1-4.32-5.53,10.29,10.29,0,0,1-.52-1.65,24.65,24.65,0,0,1,.61-11.89c2.28-6.73,10.82-16.58,19-14.08C270.69,449.2,273.13,451.82,274.69,455Z"/><ellipse class="cls-11" cx="265.49" cy="467.13" rx="7.45" ry="5.71" transform="matrix(0.3, -0.95, 0.95, 0.3, -259.64, 580.82)"/><ellipse class="cls-12" cx="265.56" cy="466.75" rx="3.97" ry="3.05" transform="translate(-259.24 580.63) rotate(-72.6)"/><ellipse class="cls-9" cx="263.77" cy="464.82" rx="1.45" ry="1.11" transform="translate(-258.65 577.56) rotate(-72.6)"/><path class="cls-13" d="M275.57,471.62c-1.64,3.77-4,9.25-9.47,11.52a11.44,11.44,0,0,1-7.82.57,10.52,10.52,0,0,1-3.29-1.77,11.83,11.83,0,0,1-4.06-5.26,8.31,8.31,0,0,1-.46-1.57,23.11,23.11,0,0,1,.56-11.25c2.17-6.38,10.26-15.71,18-13.31,5.62,1.74,8.91,9,8.54,14.7A19.36,19.36,0,0,1,275.57,471.62Z"/><path class="cls-1" d="M271.58,439.24c-.12-.08-4.65-4.06-5.95-3.57s-2.17,2-.28,3.57c0,0-6.73-2.3-6.57,1.52-.08-.16-5.45-.25-3,2.95-.21-.08-4.39,1.6-3,4.19,7.15-4.29,10.66-4.69,12.54-4.15a18.39,18.39,0,0,0,3.25.58c2.1.18,3.87.34,4.52-.58S273.05,441,271.58,439.24Z"/><path class="cls-1" d="M293.81,452.21c.1,0,4-1.5,4.76-.86s.92,1.84-.69,2.4c0,0,4.95.15,3.9,2.6.1-.08,3.62,1.18,1.26,2.68.15,0,2.46,2.12.95,3.47-3.61-4.56-5.8-5.68-7.16-5.79a13,13,0,0,1-2.27-.42c-1.41-.4-2.6-.73-2.8-1.49S292.43,453,293.81,452.21Z"/><path class="cls-15" d="M283.89,437.61c.51-.61,4.13-3.68.94-7.6.12.05,5.94,2.93,2.83,8.9.21-.19,6.13-5,.86-10.19,0,.13,7.29,1.5,2.51,11.5a6.83,6.83,0,0,0,5.41-5.74c.15.33,2.46,4.15-1.1,9"/><path class="cls-15" d="M283.89,437.87c.51-.61,4.13-3.69.94-7.6.12.05,5.94,2.93,2.83,8.9.21-.19,6.13-5,.86-10.19,0,.12,7.29,1.49,2.51,11.5a6.83,6.83,0,0,0,5.41-5.74c.15.32,2.46,4.15-1.1,9"/><g class="cls-16"><ellipse class="cls-17" cx="243.62" cy="453.78" rx="6.7" ry="3.35" transform="translate(-238.55 272.72) rotate(-41.19)"/><ellipse class="cls-17" cx="231.14" cy="468.43" rx="10.41" ry="5.35" transform="translate(-291.2 472.27) rotate(-64.16)"/></g><path class="cls-1" d="M277.22,436.05c.5-.82,5.07-17.71-10.33-23.55-6.6-1.09-11.76,12.51,1.48,10.68,4.2-1.18,4-1.91,4-1.91s8.81,9.21-.09,15.42"/><path class="cls-18" d="M277.06,436.05c.51-.82,5.07-17.71-10.33-23.55-6.6-1.09-11.75,12.51,1.48,10.68,4.2-1.18,4-1.91,4-1.91s8.81,9.21-.09,15.42"/><ellipse class="cls-2" cx="264.53" cy="418.49" rx="2.04" ry="4.18" transform="translate(-91.11 74.06) rotate(-13.62)"/><path class="cls-19" d="M299.82,447c10.19-4.07,11.76-15.83,11.47-15.85-5.44.51-11.87-3-12.65-8.14.9-5.74,16.86-7.57,17,4-1,19.15-14.22,22.57-14.22,22.57"/><ellipse class="cls-2" cx="303.32" cy="425.06" rx="2.04" ry="4.18" transform="translate(-171.76 208.31) rotate(-29.96)"/><path class="cls-20" d="M222.79,495.89a40.56,40.56,0,0,0-9.22,11.7,43.52,43.52,0,0,0-2.63,5.75A68.15,68.15,0,0,0,206.62,538a7,7,0,0,0-.43-.71l-.07-.07c0-.08-.07-.08-.07-.15a92.73,92.73,0,0,1-1-10.78c-.07-1.92-.07-3.9,0-6,0-.78.08-1.49.08-2.27.07-1.49.14-3,.28-4.47a129.6,129.6,0,0,1,1.84-13.62c4.4-2.2,9.37-4.26,13.2-4.33h.28A13.25,13.25,0,0,1,222.79,495.89Z"/><g class="cls-21"><path class="cls-3" d="M238.41,478.38a5.67,5.67,0,0,1,7.53-1.92,5.11,5.11,0,0,1,2,1.92,8.26,8.26,0,0,0-4.76-1.63,7.13,7.13,0,0,0-2.44.43A10.91,10.91,0,0,0,238.41,478.38Z"/></g><g class="cls-21"><path class="cls-3" d="M252.79,487.92c1.14,1,2.24,2,3.45,2.93a31.91,31.91,0,0,0,3.67,2.58,25.33,25.33,0,0,0,8.2,3.34,34.34,34.34,0,0,0,8.9.33c1.51-.09,3-.22,4.51-.4s3-.34,4.5-.53a61.56,61.56,0,0,1-8.94,1.7,29.4,29.4,0,0,1-9.17-.12,22.89,22.89,0,0,1-8.41-3.67A33.63,33.63,0,0,1,252.79,487.92Z"/></g><g class="cls-21"><path class="cls-3" d="M234.77,501.28a34.23,34.23,0,0,0,1.61,7.41,30.21,30.21,0,0,0,8.21,12.41,27.08,27.08,0,0,0,2.95,2.37,34.22,34.22,0,0,0,3.2,2.06,24.35,24.35,0,0,1-6.65-3.85,25,25,0,0,1-8.44-12.76,27.61,27.61,0,0,1-.75-3.79A24.83,24.83,0,0,1,234.77,501.28Z"/></g><path class="cls-1" d="M221.51,496.52c-7.67-2.34-25.9,9.86-25.61,9.86-2.42,3.48-2.27,22.06-2.2,30.15,3.4-.14,9.57-.21,10.92,1.28,1.77,1.91,4.54,14.61-1,17.09-3,1.56-5.18.71-5.75-3.61a.91.91,0,0,0-.07-.43h0c.07.07.07.21.07.43-.14,1.27-1.77,5-3.26,5-1.14-.07-2.63-2.27-2.63-5.53-.64,3.47-2.41,5.89-4.11,6-2.34.07-3.9-4.69-4.19-5.61-1.77-5.6.29-11,1.71-14-.15-4.83-.29-8.66-.36-10.86-.5-13.83-.78-18.09,2-22.77.21-.28,1.42-1.77,3.9-4.75,5.6-6.67,8.37-10.08,11.07-12.77a66.85,66.85,0,0,1,14.75-11.21,13.77,13.77,0,0,1,4.54,5.11,14.63,14.63,0,0,1,1.35,8.37"/><path class="cls-2" d="M194,530c0,1.83,0,3.6,0,5.22a14.71,14.71,0,0,0-8.37,1.71c-.09-2.51-.16-4.62-.21-6.22C187.93,529.7,191.05,529,194,530Z"/><path class="cls-2" d="M211.43,498.17a53.67,53.67,0,0,0-6.37,2.69c0-4.76-2.82-8.91-5.74-11.9.56-.62,1.1-1.18,1.63-1.71,1.12-1.15,2.48-2.43,4.1-3.79C208.64,486.88,212.48,492.11,211.43,498.17Z"/><path class="cls-3" d="M197.43,550.87a32.46,32.46,0,0,1,.12-4,18,18,0,0,1,.31-1.95,3.82,3.82,0,0,1,.83-1.77,3.62,3.62,0,0,0-.58,1.81,17.7,17.7,0,0,0-.06,1.93,35,35,0,0,0,.37,3.83Z"/><path class="cls-3" d="M191.6,551.05a32.46,32.46,0,0,1,.12-3.95,18.39,18.39,0,0,1,.31-2,4,4,0,0,1,.83-1.77,3.69,3.69,0,0,0-.58,1.82,17.59,17.59,0,0,0-.06,1.92,35,35,0,0,0,.37,3.83Z"/><path class="cls-2" d="M195.76,506.94c-.86,1.53-1.37,5.08-1.67,9.34a21.53,21.53,0,0,0-9.22-5.15,16,16,0,0,1,2.17-7.34l.48-.6A24.47,24.47,0,0,1,195.76,506.94Z"/><path class="cls-10" d="M222,493l-.42,3.27c-7.74-2.34-25.9,9.86-25.62,9.86-2.41,3.47-2.27,22.13-2.12,30.15,3.4-.14,9.57-.21,10.92,1.28,1.07,1.2,2.48,6.31,2.27,10.71-.28-4-1.56-7.95-2.48-9-1.56-1.63-8.51-1.63-12.35-1.42-.07-9-.28-29.73,2.49-33.56C194.3,504.29,212.68,492.16,222,493Z"/><path class="cls-3" d="M221.63,496.57a8.91,8.91,0,0,0-3.45-.22,19.93,19.93,0,0,0-3.42.69,45.28,45.28,0,0,0-6.53,2.5c-2.11,1-4.18,2.07-6.2,3.23-1,.57-2,1.17-3,1.79l-1.47.94-.73.48-.36.25-.17.13-.09.06,0,0h0s0,0,0,0-.13-.25-.13-.2l.12.23a10.91,10.91,0,0,0-1.11,3.55c-.21,1.24-.36,2.5-.48,3.75-.23,2.52-.35,5-.42,7.58-.15,5.06-.12,10.12-.06,15.19l-.26-.25c1.6-.07,3.21-.1,4.82-.06a20.91,20.91,0,0,1,4.82.59,4.36,4.36,0,0,1,1.17.53,2.76,2.76,0,0,1,.83,1,12.29,12.29,0,0,1,.88,2.29,25.08,25.08,0,0,1,.9,4.77,18.5,18.5,0,0,1-.13,4.87,6.93,6.93,0,0,1-2.29,4.35,5.88,5.88,0,0,1-1.1.65,8,8,0,0,1-1.16.46,3.65,3.65,0,0,1-2.58-.06,3.6,3.6,0,0,1-1.7-2,9.38,9.38,0,0,1-.61-2.41l0-.08v0a.47.47,0,0,0,0-.12.88.88,0,0,1,0-.34l.09-.81.51.59a.69.69,0,0,1,.17.43v.27h0a9.89,9.89,0,0,1-1.15,3.12,7.05,7.05,0,0,1-1,1.37,2.68,2.68,0,0,1-.7.58,1.41,1.41,0,0,1-1,.2,2.72,2.72,0,0,1-1.46-1.1,6.76,6.76,0,0,1-.78-1.51,9.83,9.83,0,0,1-.55-3.26l.77.07a12.5,12.5,0,0,1-1.22,3.59,4.9,4.9,0,0,1-2.88,2.66,2.55,2.55,0,0,1-2-.58,6.46,6.46,0,0,1-1.28-1.5,16.14,16.14,0,0,1-1.57-3.44,16.37,16.37,0,0,1-.65-7.48,24.69,24.69,0,0,1,2.23-7.15l0,.22-.59-17c-.08-2.84-.18-5.68,0-8.55a23.45,23.45,0,0,1,.61-4.3,15.08,15.08,0,0,1,1.68-4l0,0v0c2.23-2.68,4.46-5.36,6.71-8s4.47-5.31,6.84-7.87a63.62,63.62,0,0,1,7.74-7,72.93,72.93,0,0,1,8.72-5.75l.13-.07.12.08a13.82,13.82,0,0,1,4.89,6,14.77,14.77,0,0,1,.91,7.66h-.1a14.51,14.51,0,0,0-1.08-7.54,13.54,13.54,0,0,0-4.89-5.73H217a73.4,73.4,0,0,0-8.58,5.81,64,64,0,0,0-7.57,7.06c-2.31,2.56-4.5,5.25-6.72,7.92s-4.4,5.35-6.57,8l0,0a16.61,16.61,0,0,0-2.16,7.9c-.15,2.79-.06,5.63,0,8.46l.56,17v.12l-.05.1a23.78,23.78,0,0,0-2.19,6.86,15.47,15.47,0,0,0,.56,7.09,16,16,0,0,0,1.46,3.26c.6,1,1.49,1.93,2.45,1.73a4.23,4.23,0,0,0,2.36-2.23,11.6,11.6,0,0,0,1.14-3.36l.77.07a9.2,9.2,0,0,0,.49,3,6,6,0,0,0,.68,1.33,1.89,1.89,0,0,0,1,.81c.3.09.71-.2,1-.55a6.17,6.17,0,0,0,.87-1.23,9.71,9.71,0,0,0,1.08-2.83v-.16c0-.05,0-.07,0,0l.6-.22a.2.2,0,0,0,0,.09,1.05,1.05,0,0,1,.05.31v0a9.12,9.12,0,0,0,.56,2.23,2.84,2.84,0,0,0,1.35,1.6c1.27.59,2.95-.17,4.15-.94a6.39,6.39,0,0,0,2.07-4,18,18,0,0,0,.15-4.7,25.47,25.47,0,0,0-.85-4.66,13.26,13.26,0,0,0-.83-2.18,2.25,2.25,0,0,0-.65-.84,4,4,0,0,0-1-.45,20.2,20.2,0,0,0-4.68-.59c-1.59,0-3.19,0-4.78,0h-.26v-.26c0-5.07,0-10.14.16-15.2.09-2.54.23-5.07.48-7.6.13-1.26.29-2.52.51-3.78a10.92,10.92,0,0,1,1.18-3.65l.12.23c0,.05-.21-.12-.14-.22s0,0,0,0h0l0,0,0,0,.09-.07.18-.13.37-.25.73-.48,1.49-.93c1-.61,2-1.2,3-1.78,2-1.14,4.11-2.22,6.24-3.19a44,44,0,0,1,6.57-2.46,21.27,21.27,0,0,1,3.45-.68,9.13,9.13,0,0,1,3.49.25Z"/></svg>