<svg id="Layer_1" data-name="Layer 1" xmlns="http://www.w3.org/2000/svg" xmlns:xlink="http://www.w3.org/1999/xlink" width="1600" height="900" viewBox="0 0 1600 900">
  <defs>
    <style>
      .cls-1 {
        fill: none;
      }

      .cls-2 {
        clip-path: url(#clip-path);
      }

      .cls-3 {
        clip-path: url(#clip-path-2);
      }

      .cls-4 {
        fill: #191c3f;
      }

      .cls-5 {
        opacity: 0.8;
      }

      .cls-6 {
        opacity: 0.77;
      }

      .cls-7 {
        fill: #f4edf9;
      }

      .cls-8 {
        opacity: 0.76;
      }

      .cls-9 {
        opacity: 0.88;
      }

      .cls-10 {
        fill: #f9f0bd;
      }

      .cls-11 {
        opacity: 0.78;
      }

      .cls-12 {
        fill: #a0e6f9;
      }

      .cls-13 {
        opacity: 0.92;
      }

      .cls-14 {
        fill: #b8e9f4;
      }

      .cls-15 {
        opacity: 0.89;
      }

      .cls-16 {
        opacity: 1;
      }

      .cls-17 {
        opacity: 0.7;
      }

      .cls-18 {
        fill: #f9e9aa;
      }

      .cls-19 {
        fill: #100e33;
        opacity: 0.3;
      }

      .cls-20 {
        clip-path: url(#clip-path-3);
      }

      .cls-21 {
        clip-path: url(#clip-path-4);
      }

      .cls-22 {
        clip-path: url(#clip-path-5);
      }

      .cls-23 {
        fill: url(#linear-gradient);
      }

      .cls-24 {
        clip-path: url(#clip-path-6);
      }

      .cls-25 {
        clip-path: url(#clip-path-7);
      }

      .cls-26 {
        opacity: 0.21;
      }

      .cls-27 {
        fill: #23490f;
      }

      .cls-28 {
        fill: #073f20;
      }

      .cls-29 {
        clip-path: url(#clip-path-8);
      }

      .cls-30 {
        clip-path: url(#clip-path-9);
      }

      .cls-31 {
        opacity: 0.56;
      }

      .cls-32 {
        fill: url(#radial-gradient);
      }

      .cls-33 {
        fill: #063019;
      }

      .cls-34 {
        fill: #0c5118;
      }

      .cls-35 {
        fill: #0b3d12;
      }

      .cls-36 {
        fill: #0e2312;
      }

      .cls-37 {
        fill: #174226;
      }
    </style>
    <clipPath id="clip-path">
      <rect class="cls-1" x="3000.68" y="-284.03" width="1600" height="900"/>
    </clipPath>
    <clipPath id="clip-path-2">
      <rect class="cls-1" x="-6080.79" y="577.77" width="11168.71" height="2050"/>
    </clipPath>
    <clipPath id="clip-path-3">
      <rect class="cls-1" x="-2158.39" y="-1412.54" width="10800" height="2050"/>
    </clipPath>
    <clipPath id="clip-path-4">
      <rect class="cls-1" x="3200.25" y="1888.32" width="1280" height="720"/>
    </clipPath>
    <clipPath id="clip-path-5">
      <rect class="cls-1" x="3040.25" y="1798.32" width="1600" height="900"/>
    </clipPath>
    <linearGradient id="linear-gradient" x1="-1776.74" y1="3900.29" x2="-1776.74" y2="-3083.55" gradientUnits="userSpaceOnUse">
      <stop offset="0" stop-color="#a4f2ff"/>
      <stop offset="0.23" stop-color="#69e3ff"/>
      <stop offset="0.45" stop-color="#34d5ff"/>
      <stop offset="0.57" stop-color="#1fd0ff"/>
      <stop offset="0.65" stop-color="#25c3ff"/>
      <stop offset="0.81" stop-color="#36a2ff"/>
      <stop offset="1" stop-color="#4d73ff"/>
    </linearGradient>
    <clipPath id="clip-path-6">
      <rect class="cls-1" x="-1669" y="90" width="1280" height="720"/>
    </clipPath>
    <clipPath id="clip-path-7">
      <rect class="cls-1" x="-1829" width="1600" height="900"/>
    </clipPath>
    <clipPath id="clip-path-8">
      <rect class="cls-1" x="160" y="90" width="1280" height="720"/>
    </clipPath>
    <clipPath id="clip-path-9">
      <rect class="cls-1" width="1600" height="900"/>
    </clipPath>
    <radialGradient id="radial-gradient" cx="2253.04" cy="412.46" r="641.07" gradientTransform="matrix(-0.89, 0, 0, 0.57, 2843.76, 479)" gradientUnits="userSpaceOnUse">
      <stop offset="0" stop-color="#61dfff"/>
      <stop offset="0.14" stop-color="#5adaff"/>
      <stop offset="0.35" stop-color="#47caff"/>
      <stop offset="0.59" stop-color="#28b1ff"/>
      <stop offset="0.84" stop-color="#0091ff"/>
    </radialGradient>
  </defs>
  <g class="cls-2">
    <g class="cls-3">
      <rect class="cls-4" x="-496.44" y="577.77" width="5584.35" height="2050" transform="translate(4591.48 3205.54) rotate(-180)"/>
      <g>
        <g>
          <g class="cls-5">
            <g class="cls-6">
              <path class="cls-7" d="M339.44,708.93l-.17,6a1.93,1.93,0,0,0,1.36,1.87l5.89,1.93-6.22-.16a2,2,0,0,0-1.94,1.3l-2,5.7.18-6a1.94,1.94,0,0,0-1.36-1.88l-5.89-1.93,6.22.17a2,2,0,0,0,1.94-1.31Z"/>
            </g>
            <path class="cls-7" d="M129.84,641.83l1.12,5.91a2,2,0,0,0,1.72,1.57l6.18.7-6.12,1.09a2,2,0,0,0-1.62,1.67l-.73,6-1.12-5.92a2,2,0,0,0-1.72-1.56l-6.18-.71,6.12-1.08a2,2,0,0,0,1.62-1.67Z"/>
            <g class="cls-8">
              <path class="cls-7" d="M564.36,459.81l.62,6a2,2,0,0,0,1.59,1.71l6.13,1.21-6.23.59a2,2,0,0,0-1.76,1.54l-1.25,5.93-.61-6a2,2,0,0,0-1.6-1.71l-6.13-1.21,6.23-.59a2,2,0,0,0,1.77-1.54Z"/>
            </g>
            <path class="cls-7" d="M770.79,687.58l-.17,6a1.94,1.94,0,0,0,1.35,1.87l5.9,1.93-6.22-.16a2,2,0,0,0-1.94,1.3l-2,5.7.17-6a1.92,1.92,0,0,0-1.35-1.88l-5.89-1.93,6.22.17a2,2,0,0,0,1.94-1.31Z"/>
            <path class="cls-7" d="M995.65,504.39l-2.3,5.58a1.89,1.89,0,0,0,.6,2.21l4.84,3.78L993,513.73a2,2,0,0,0-2.29.58l-3.9,4.69,2.3-5.59a1.89,1.89,0,0,0-.6-2.21l-4.85-3.77,5.78,2.22a2,2,0,0,0,2.29-.58Z"/>
            <path class="cls-7" d="M789,331.71l-1.08,8.77a2.81,2.81,0,0,0,1.72,2.91l8.34,3.58-9.06-1a3,3,0,0,0-3,1.66l-3.7,8.07,1.08-8.77a2.81,2.81,0,0,0-1.72-2.91l-8.34-3.58,9.06,1a2.94,2.94,0,0,0,3-1.66Z"/>
            <g class="cls-9">
              <path class="cls-7" d="M1131.75,871.55l.44,6.23a2,2,0,0,0,1.59,1.81l6.29,1.43-6.45.42a2.06,2.06,0,0,0-1.87,1.54l-1.48,6.08-.44-6.23a2,2,0,0,0-1.59-1.81l-6.29-1.43,6.45-.43a2,2,0,0,0,1.87-1.53Z"/>
            </g>
            <path class="cls-10" d="M1102.46,328.7l1.89,5.73a2,2,0,0,0,1.91,1.34l6.22,0-5.92,1.82a1.93,1.93,0,0,0-1.39,1.85l0,6-1.88-5.73a2,2,0,0,0-1.91-1.35l-6.22.06,5.92-1.83a1.91,1.91,0,0,0,1.39-1.85Z"/>
            <path class="cls-7" d="M810.74,888.52,816,901.21a4.54,4.54,0,0,0,4.57,2.73l14.09-1.14-13.12,5.1a4.37,4.37,0,0,0-2.82,4.42L819.92,926l-5.27-12.69a4.55,4.55,0,0,0-4.58-2.73L796,911.67l13.12-5.1a4.37,4.37,0,0,0,2.82-4.42Z"/>
            <path class="cls-7" d="M133.94,423.88l-.48,6a1.92,1.92,0,0,0,1.25,1.94L140.5,434l-6.2-.47a2,2,0,0,0-2,1.21l-2.28,5.6.48-6a1.93,1.93,0,0,0-1.26-1.94l-5.78-2.21,6.2.47a2,2,0,0,0,2-1.21Z"/>
            <path class="cls-7" d="M891,758.7l-.17,6a2,2,0,0,0,1.36,1.88l5.89,1.92-6.22-.16a2,2,0,0,0-1.94,1.31l-2,5.69.17-6a1.93,1.93,0,0,0-1.36-1.87l-5.89-1.93,6.22.16a2,2,0,0,0,1.94-1.3Z"/>
            <path class="cls-7" d="M1106.77,495.47l-5,6.43a2.51,2.51,0,0,0,0,3.06l4.88,6.5-6.65-4.82a2.74,2.74,0,0,0-3.16,0l-6.72,4.72,5-6.42a2.51,2.51,0,0,0,0-3.06l-4.88-6.5,6.65,4.82a2.72,2.72,0,0,0,3.15,0Z"/>
            <g class="cls-11">
              <path class="cls-7" d="M799.37,588.81l1.81,6.83a2.31,2.31,0,0,0,2.14,1.7l7.29.34-7.07,1.75a2.27,2.27,0,0,0-1.75,2.08l-.35,7-1.81-6.83a2.32,2.32,0,0,0-2.15-1.7l-7.28-.33,7.06-1.76a2.26,2.26,0,0,0,1.76-2.07Z"/>
            </g>
            <path class="cls-7" d="M902.21,633.2l-2.5,5.51a1.86,1.86,0,0,0,.52,2.23l4.7,3.93-5.7-2.42a2,2,0,0,0-2.3.5l-4.08,4.55,2.51-5.51a1.89,1.89,0,0,0-.52-2.23l-4.7-3.94,5.69,2.43a2,2,0,0,0,2.31-.5Z"/>
            <path class="cls-12" d="M509.17,777.84l-2.3,5.58a1.89,1.89,0,0,0,.6,2.21l4.84,3.78-5.78-2.23a2,2,0,0,0-2.28.58l-3.9,4.69,2.3-5.59a1.89,1.89,0,0,0-.6-2.21l-4.85-3.78L503,783.1a2,2,0,0,0,2.29-.58Z"/>
            <path class="cls-7" d="M76.85,765.69l1.54,5.83A2,2,0,0,0,80.23,773l6.21.29-6,1.5a1.93,1.93,0,0,0-1.49,1.77l-.3,6-1.54-5.82a2,2,0,0,0-1.84-1.45L69,775l6-1.5a1.94,1.94,0,0,0,1.49-1.77Z"/>
            <g class="cls-13">
              <path class="cls-14" d="M149.5,824.12l-.17,6a2,2,0,0,0,1.35,1.88l5.89,1.92-6.22-.16a2,2,0,0,0-1.94,1.31l-2,5.69.17-6a2,2,0,0,0-1.35-1.88L139.35,831l6.22.16a2,2,0,0,0,1.94-1.31Z"/>
            </g>
            <g class="cls-15">
              <path class="cls-7" d="M486.33,865.63l1.44,8a2.67,2.67,0,0,0,2.32,2.14l8.35,1-8.3,1.4a2.65,2.65,0,0,0-2.21,2.24l-1.06,8.07-1.44-8a2.66,2.66,0,0,0-2.32-2.13l-8.35-1,8.3-1.4a2.64,2.64,0,0,0,2.21-2.24Z"/>
            </g>
            <path class="cls-7" d="M866.48,485l1.41,5.86a2,2,0,0,0,1.8,1.49l6.2.42-6.06,1.36a1.94,1.94,0,0,0-1.53,1.74l-.44,6L866.45,496a2,2,0,0,0-1.8-1.48l-6.2-.43,6.06-1.36A1.93,1.93,0,0,0,866,491Z"/>
            <path class="cls-7" d="M1155.67,281.93l-1.73,5.78a1.92,1.92,0,0,0,.83,2.15l5.2,3.29-6-1.67a2,2,0,0,0-2.22.8l-3.41,5,1.73-5.78a1.91,1.91,0,0,0-.82-2.15l-5.2-3.29,6,1.67a2,2,0,0,0,2.22-.8Z"/>
          </g>
          <g class="cls-17">
            <path class="cls-7" d="M23.92,594.34a2,2,0,1,1-2-1.91A1.93,1.93,0,0,1,23.92,594.34Z"/>
            <path class="cls-7" d="M136.18,508.41a2,2,0,1,1-2-1.9A1.94,1.94,0,0,1,136.18,508.41Z"/>
            <path class="cls-7" d="M97.28,403a2,2,0,1,1-2-1.91A1.93,1.93,0,0,1,97.28,403Z"/>
            <path class="cls-7" d="M225.09,644a2,2,0,1,1-2-1.91A1.93,1.93,0,0,1,225.09,644Z"/>
            <path class="cls-7" d="M281.86,556.79a2,2,0,1,1-2-1.91A2,2,0,0,1,281.86,556.79Z"/>
            <path class="cls-18" d="M259.56,412.63a2,2,0,1,1-2-1.91A2,2,0,0,1,259.56,412.63Z"/>
            <path class="cls-7" d="M451.44,347.1a2,2,0,1,1-2-1.9A1.94,1.94,0,0,1,451.44,347.1Z"/>
            <path class="cls-7" d="M662.6,454.7a2,2,0,1,1-2-1.91A1.93,1.93,0,0,1,662.6,454.7Z"/>
            <path class="cls-7" d="M476.09,587a2,2,0,1,1-2-1.9A1.94,1.94,0,0,1,476.09,587Z"/>
            <path class="cls-7" d="M622.64,645.14a2,2,0,1,1-2-1.91A1.94,1.94,0,0,1,622.64,645.14Z"/>
            <path class="cls-7" d="M726.19,651.58a2,2,0,1,1-2-1.91A2,2,0,0,1,726.19,651.58Z"/>
            <path class="cls-7" d="M715.1,492.53a2,2,0,1,1-2-1.91A1.93,1.93,0,0,1,715.1,492.53Z"/>
            <path class="cls-7" d="M817.07,365.47a2,2,0,1,1-2-1.91A1.94,1.94,0,0,1,817.07,365.47Z"/>
            <path class="cls-7" d="M943.73,390.21a2,2,0,1,1-2-1.91A1.94,1.94,0,0,1,943.73,390.21Z"/>
            <path class="cls-7" d="M977.23,454.93a2,2,0,1,1-2-1.9A1.94,1.94,0,0,1,977.23,454.93Z"/>
            <path class="cls-7" d="M981.56,558.11a2,2,0,1,1-2-1.91A1.94,1.94,0,0,1,981.56,558.11Z"/>
            <path class="cls-7" d="M1042.9,609.75a2,2,0,1,1-2-1.91A1.94,1.94,0,0,1,1042.9,609.75Z"/>
            <path class="cls-18" d="M937.21,765.57a2,2,0,1,1-2-1.91A1.94,1.94,0,0,1,937.21,765.57Z"/>
            <path class="cls-7" d="M811.67,792.53a2,2,0,1,1-2-1.91A1.94,1.94,0,0,1,811.67,792.53Z"/>
            <path class="cls-7" d="M409.63,890.37a2,2,0,1,1-2-1.91A1.94,1.94,0,0,1,409.63,890.37Z"/>
            <ellipse class="cls-7" cx="351.08" cy="785.92" rx="1.97" ry="1.91"/>
            <path class="cls-7" d="M261.75,769.76a2,2,0,1,1-2-1.9A1.94,1.94,0,0,1,261.75,769.76Z"/>
            <path class="cls-7" d="M235.25,890.38a2,2,0,1,1-2-1.91A1.94,1.94,0,0,1,235.25,890.38Z"/>
            <path class="cls-7" d="M119.72,901.05a2,2,0,1,1-2-1.9A1.94,1.94,0,0,1,119.72,901.05Z"/>
            <path class="cls-7" d="M45.19,850.32a2,2,0,1,1-2-1.91A1.94,1.94,0,0,1,45.19,850.32Z"/>
            <path class="cls-7" d="M625,878.51a2,2,0,1,1-2-1.91A2,2,0,0,1,625,878.51Z"/>
            <path class="cls-7" d="M686.08,787.11a2,2,0,1,1-2-1.91A1.94,1.94,0,0,1,686.08,787.11Z"/>
            <path class="cls-7" d="M1136.36,682.79a2,2,0,1,1-2-1.9A1.94,1.94,0,0,1,1136.36,682.79Z"/>
            <path class="cls-18" d="M1018.23,287.08a2,2,0,1,1-2-1.91A1.94,1.94,0,0,1,1018.23,287.08Z"/>
            <path class="cls-7" d="M37.25,319.11a2,2,0,1,1-2-1.91A1.94,1.94,0,0,1,37.25,319.11Z"/>
            <path class="cls-7" d="M1122.87,405.49a2,2,0,1,1-2-1.91A2,2,0,0,1,1122.87,405.49Z"/>
            <path class="cls-7" d="M608.33,325.56a2,2,0,1,1-2-1.91A2,2,0,0,1,608.33,325.56Z"/>
            <path class="cls-12" d="M528.24,381.67a2,2,0,1,1-2-1.91A1.94,1.94,0,0,1,528.24,381.67Z"/>
            <ellipse class="cls-12" cx="25.32" cy="677.36" rx="1.97" ry="1.91"/>
            <path class="cls-12" d="M1082.9,762.46a2,2,0,1,1-2-1.91A2,2,0,0,1,1082.9,762.46Z"/>
          </g>
        </g>
        <g>
          <g class="cls-5">
            <path class="cls-7" d="M1532.34,687.58l.17,6a1.94,1.94,0,0,1-1.35,1.87l-5.9,1.93,6.22-.16a2,2,0,0,1,1.94,1.3l2,5.7-.17-6a1.92,1.92,0,0,1,1.35-1.88l5.89-1.93-6.22.17a2,2,0,0,1-1.94-1.31Z"/>
            <path class="cls-7" d="M1307.48,504.39l2.3,5.58a1.89,1.89,0,0,1-.6,2.21l-4.84,3.78,5.77-2.23a2,2,0,0,1,2.29.58l3.9,4.69-2.3-5.59a1.89,1.89,0,0,1,.6-2.21l4.85-3.77-5.78,2.22a2,2,0,0,1-2.29-.58Z"/>
            <path class="cls-7" d="M1514.17,331.71l1.08,8.77a2.81,2.81,0,0,1-1.72,2.91l-8.34,3.58,9.06-1a2.94,2.94,0,0,1,3,1.66l3.7,8.07-1.08-8.77a2.81,2.81,0,0,1,1.72-2.91l8.34-3.58-9.06,1a3,3,0,0,1-3-1.66Z"/>
            <g class="cls-9">
              <path class="cls-7" d="M1171.38,871.55l-.44,6.23a2,2,0,0,1-1.59,1.81l-6.29,1.43,6.45.42a2.06,2.06,0,0,1,1.87,1.54l1.48,6.08.44-6.23a2,2,0,0,1,1.59-1.81l6.29-1.43-6.45-.43a2,2,0,0,1-1.87-1.53Z"/>
            </g>
            <path class="cls-10" d="M1200.67,328.7l-1.89,5.73a2,2,0,0,1-1.91,1.34l-6.22,0,5.92,1.82a1.93,1.93,0,0,1,1.39,1.85l0,6,1.88-5.73a2,2,0,0,1,1.92-1.35l6.21.06-5.92-1.83a1.91,1.91,0,0,1-1.39-1.85Z"/>
            <path class="cls-7" d="M1492.39,888.52l-5.28,12.69a4.54,4.54,0,0,1-4.57,2.73l-14.09-1.14,13.12,5.1a4.37,4.37,0,0,1,2.82,4.42L1483.21,926l5.27-12.69a4.56,4.56,0,0,1,4.58-2.73l14.09,1.14-13.12-5.1a4.37,4.37,0,0,1-2.82-4.42Z"/>
            <path class="cls-7" d="M1412.17,758.7l.17,6a2,2,0,0,1-1.36,1.88l-5.89,1.92,6.22-.16a2,2,0,0,1,1.94,1.31l2,5.69-.17-6a1.93,1.93,0,0,1,1.36-1.87l5.89-1.93-6.22.16a2,2,0,0,1-1.94-1.3Z"/>
            <path class="cls-7" d="M1196.36,495.47l5,6.43a2.51,2.51,0,0,1,0,3.06l-4.88,6.5,6.65-4.82a2.74,2.74,0,0,1,3.16,0l6.72,4.72-5-6.42a2.51,2.51,0,0,1,0-3.06l4.88-6.5-6.64,4.82a2.74,2.74,0,0,1-3.16,0Z"/>
            <g class="cls-11">
              <path class="cls-7" d="M1503.76,588.81l-1.81,6.83a2.31,2.31,0,0,1-2.14,1.7l-7.29.34,7.07,1.75a2.27,2.27,0,0,1,1.75,2.08l.35,7,1.81-6.83a2.32,2.32,0,0,1,2.15-1.7l7.28-.33-7.06-1.76a2.25,2.25,0,0,1-1.75-2.07Z"/>
            </g>
            <path class="cls-7" d="M1400.92,633.2l2.5,5.51a1.87,1.87,0,0,1-.51,2.23l-4.71,3.93,5.7-2.42a2,2,0,0,1,2.3.5l4.08,4.55-2.51-5.51a1.89,1.89,0,0,1,.52-2.23l4.7-3.94-5.69,2.43a2,2,0,0,1-2.31-.5Z"/>
            <path class="cls-7" d="M1436.65,485l-1.41,5.86a2,2,0,0,1-1.8,1.49l-6.2.42,6.06,1.36a1.94,1.94,0,0,1,1.53,1.74l.44,6,1.41-5.86a2,2,0,0,1,1.8-1.48l6.2-.43-6.06-1.36a1.93,1.93,0,0,1-1.53-1.74Z"/>
            <path class="cls-7" d="M1147.46,281.93l1.73,5.78a1.9,1.9,0,0,1-.83,2.15l-5.2,3.29,6-1.67a2,2,0,0,1,2.22.8l3.41,5-1.73-5.78a1.91,1.91,0,0,1,.82-2.15l5.2-3.29-6,1.67a2,2,0,0,1-2.22-.8Z"/>
          </g>
          <g class="cls-17">
            <path class="cls-7" d="M1576.94,651.58a2,2,0,1,0,2-1.91A2,2,0,0,0,1576.94,651.58Z"/>
            <path class="cls-7" d="M1588,492.53a2,2,0,1,0,2-1.91A1.93,1.93,0,0,0,1588,492.53Z"/>
            <path class="cls-7" d="M1486.06,365.47a2,2,0,1,0,2-1.91A1.94,1.94,0,0,0,1486.06,365.47Z"/>
            <path class="cls-7" d="M1359.4,390.21a2,2,0,1,0,2-1.91A1.94,1.94,0,0,0,1359.4,390.21Z"/>
            <path class="cls-7" d="M1325.9,454.93a2,2,0,1,0,2-1.9A1.94,1.94,0,0,0,1325.9,454.93Z"/>
            <path class="cls-7" d="M1321.57,558.11a2,2,0,1,0,2-1.91A1.95,1.95,0,0,0,1321.57,558.11Z"/>
            <path class="cls-7" d="M1260.23,609.75a2,2,0,1,0,2-1.91A1.94,1.94,0,0,0,1260.23,609.75Z"/>
            <path class="cls-18" d="M1365.92,765.57a2,2,0,1,0,2-1.91A1.94,1.94,0,0,0,1365.92,765.57Z"/>
            <path class="cls-7" d="M1491.46,792.53a2,2,0,1,0,2-1.91A1.94,1.94,0,0,0,1491.46,792.53Z"/>
            <path class="cls-7" d="M1166.77,682.79a2,2,0,1,0,2-1.9A1.94,1.94,0,0,0,1166.77,682.79Z"/>
            <path class="cls-18" d="M1284.9,287.08a2,2,0,1,0,2-1.91A1.94,1.94,0,0,0,1284.9,287.08Z"/>
            <path class="cls-7" d="M1180.26,405.49a2,2,0,1,0,2-1.91A2,2,0,0,0,1180.26,405.49Z"/>
            <path class="cls-12" d="M1220.23,762.46a2,2,0,1,0,2-1.91A2,2,0,0,0,1220.23,762.46Z"/>
          </g>
        </g>
      </g>
      <path class="cls-19" d="M804.43,1320.37c27.36-12.95,41-19.43,46.25-24.94,33.44-35.39-51.81-106.62-27.13-169.88,23.91-61.29,136.77-78.54,148.75-80.24,39.82-5.67,47.67,4,115.08-2.56,55.06-5.38,83.06-8.45,105.72-27.32,27.93-23.26,15.89-46,45.67-81.95,20.67-24.94,46.61-38.16,65-45.39a58.31,58.31,0,0,0-9.37,26.42A56.22,56.22,0,0,0,1297,936c2.37,8.16,19.42,65.36-3.74,97.32-6.81,9.39-15.36,14.43-21.71,18.18-31.73,18.72-54.25,5.31-79.31,15-33,12.72-54.11,59-51.59,95.62,3.31,48.32,46.44,59.06,43.84,105.77-1.88,33.52-25.68,56.46-29,59.57-27.07,25.35-63.82,27.08-130.39,30.2-61.76,2.91-73-5.33-93.69,8.31-14.07,9.29-26.52,24.78-57.29,38.1-5.57,2.41-12.24,6-21.59,7.77-35.2,6.75-52.56-10.85-90.67-1.19-25.61,6.49-43.85,21-55.49,32.7,1-17.13,5.4-43.8,23.4-69.92a132.63,132.63,0,0,1,22.48-25.18C767.52,1335.18,780,1331.94,804.43,1320.37Z"/>
    </g>
    <g class="cls-20">
      <rect class="cls-4" x="-2158.39" y="-1412.54" width="5400" height="2050"/>
    </g>
  </g>
  <g class="cls-21">
    <g class="cls-22">
      <rect class="cls-23" x="-8372.59" y="-1904.08" width="13191.7" height="5525.81"/>
    </g>
  </g>
  <g class="cls-24">
    <g class="cls-25">
      <g class="cls-26">
        <path class="cls-27" d="M-160.95,900.08l4.21,0,110.37-.51,65.49-.3c7.86,0,15.73-.15,23.59-.11,5,0,21.46,3.41,17.53-5.84-1.39-3.25-4.88-4.89-8.1-6.23A637.32,637.32,0,0,0-147.5,840c22.4-7.12,45.31-14.5,63.41-30.09a15.76,15.76,0,0,0,5.34-9.43c1.47-9.54-7-14.2-14.3-17.32a540.57,540.57,0,0,0-182-42.3,107.84,107.84,0,0,0,39.17-19.92,8.94,8.94,0,0,0,3.47-7.11c-.09-5-4.31-6.55-8.06-7.59a207,207,0,0,0-55.26-7.56c6.18-8.48,24.5-8,22.81-18.22a9.12,9.12,0,0,0-6.58-7.19c-68.23-19-138.91-26.43-209.18-34.1a6,6,0,0,1-5.34-5.21c-.37-3.27,2.33-4.81,4.73-6l34.6-17.17a7.9,7.9,0,0,0,4.36-5.76c.87-5.46-4.6-7.84-9.11-9.09q-27.07-7.44-54.67-12.68L-497,572.38a711.26,711.26,0,0,0-115.1-9.08c-29,.07-41.64,1.67-68.89-8.77-23.11-8.84-13.63-9.92-38.24-9.28-66.37,1.72-183,3.72-249.42,5.43-6.37.17-10.13,2.89-15.12,7s-2.41,7.37,3.09,10.67c-56.65,4.4-124.05,16.07-180,14.84-40.41-.89-81.55,18.08-144.69,36.34-18.88,5.46,32,20,35.6,24.77-79.94.94-124.7-10.37-203.62,2.79-7.13,1.19-67.11,18.3-78.7,22-25.7,14.68,22.72,22.1,30,21.93-31.55,4.69-144.32,20.83-115.75,27.3,50.37,11.4-71,4-122.54,28.12a16.18,16.18,0,0,0-7.67,8.89c-3,10.65,8.63,16.81,18.09,19.6,44,13,121.65,41.78,167,48a.38.38,0,0,1,0,.76c-90.4-15.08-232.86,32.37-232.86,32.37l-9.31-1.57v45.6Z"/>
      </g>
      <path class="cls-28" d="M-68.07,914.57c28.54-6.52,60-16.91,68.26-22.31C-17.1,891.38-49,897-75.51,903.1l6-2.42c15.08-4.79,27.29-9.42,28.54-11.4,18.11-7.14,33-12.82,35.3-13.21-9.95.42-35.41,6.51-59.25,14.64-2.5.38-5,.79-7.54,1.22C-40,875.54-3.93,856.71-.63,852.34c-6.88,0-33.76,10.77-61.45,23.42,14.6-10,28.19-20,34.88-25.84-6.8,2.15-14.87,5.12-23.34,8.62,7.24-6.5,14.47-13,21.43-19.2-2-1.61-9,1.28-18.33,6.69,12.57-13.07,21.32-23.93,20.62-27.5-12.71,9.91-26.45,20.37-39.54,30.62,8.69-8.83,16.88-17.76,23.39-25.1-5.54,2.72-13.94,7.93-23.26,14.22C-50.67,817-37.93,798-35.95,791.71c-3.57,1.64-20.68,21.64-39.44,44.46,2.82-4.77,5.53-9.5,8.06-14.07,7.1-8.12,13.08-14.93,17.1-19.32q-5.39,3.42-10.45,6.91a182.79,182.79,0,0,0,9.58-20.83c-.94,2-8,12.62-17.34,26.37q-8.49,6.22-16,12.57c3.9-10.3,7.4-20.42,10-29.54q3.47-4,7.07-8c-2.08,1.53-4.12,3.08-6.12,4.63a142.62,142.62,0,0,0,3.22-14.35c-2.7,3.7-7.36,11.8-12.82,22.18-6.34,5.39-12.21,10.87-17.64,16.38a91.52,91.52,0,0,0-.71-9.64s-.83,1.46-2.2,3.94c.58-4.41,1.11-8.84,1.58-13.24,5.62-15.61,10.6-30.43,14.29-42.88C-91.93,762.49-96,768.11-100,774c.28-6.24.4-12.33.32-18.19-2.91,9.23-6,20.19-9.13,32-6.69,11.09-13,22.84-18.77,34.65-.68-16.79-2-34.7-4.2-52.66-.08-10.39-.55-18.56-1.44-22.94-.4,1.15-.8,2.36-1.19,3.63q-1-6.35-2.08-12.62c.08,6.33.15,12.76.2,19.24-5.77,22.11-10.44,56.25-13.34,85.75q-.15-4.1-.3-8.27c.58-20.26.28-37-1.28-39.33-.74-24.9-1.14-45.28-.7-48.25-3.18,12.19-6.21,45.52-6.55,77.76-.51,3.19-1,6.4-1.48,9.63-5-46.18-11.13-97.76-14.4-103.6-2.46,8.32-1.24,45.34,1.63,84.17-4.89-21.88-10.19-42.55-13.76-53.14-.26,9.13-.16,20.14.34,31.86-4-11.53-8.06-23-11.85-34.07-2.21,1.6-2,10.14-.21,22.37-.05.44-.1.87-.16,1.3-8.57-20.08-16.25-34.65-20.08-35.32,5.53,19.57,11.23,40.62,16.95,60.8-5.87-14.26-12-28-17.17-38.95.58,5.79,2,14,3.88,23.58-.1,2.15-.16,4.29-.2,6.39-15.14-26-28.78-47.43-34.19-52.25.37,5,14.62,34.19,31.13,66.58-15.71-22.2-31.63-42-39.55-49.52,1.36,1.56,6.7,9.85,14,21.59a294.64,294.64,0,0,0,7.17,28.93c-13.38-13-26.35-24.3-36.67-30.95,5.44,9.37,25,34.66,46.32,59.25.5,1.32,1,2.63,1.52,3.94A117.44,117.44,0,0,0-236.55,841c-16.12-16.77-31.94-31.22-38.51-35,4.34,8.36,12.05,19.39,21.08,31-9.89-5.89-19.91-11.45-29.79-16.42a13.28,13.28,0,0,1-1.09-1.15c.18.29.37.59.58.9-8.42-4.22-16.71-8-24.72-11.22,13.72,12.21,32,27,51.22,41.85,5.12,5.27,10.59,10.66,16.13,15.85,1.64,2.11,3.31,4.23,5,6.34-30.35-21.8-64.57-45.71-69.81-46.58,3.48,6,24,23.56,47.08,41.68q-2.81-1-5.64-1.93c-12-6.26-22.75-11.48-29.23-14,2.31,2.25,4.87,4.64,7.62,7.13-17.68-5.31-36-10-54.05-13.52,13.24,5.3,26.91,10.87,40.52,16.48,2.31,2.73,7.16,6.39,13.58,10.5-17.11-5.1-30.43-7.78-32.91-5.35,14.68,6.79,30.33,14.27,45.48,21.26-11.67-3.63-23.16-6.75-32.48-9.11,5.12,3.75,13.75,8.92,23.72,14.39C-308,890.34-330,888-336,889.33c3.21,2.48,28.27,8.32,56.45,14.29-21.64-1-42-.47-50.66,1.09,3.92-.26,42.16,4.17,75,8.24-26.17,2.62-55.08,7.1-71.45,13.56,9.31,1.37,39.06,1.09,67.49-1.13A89.41,89.41,0,0,0-287,940.89s1.59,0,4.31.07c-17.17,7.4-33.91,15.89-48,25,25.75-5.49,63.88-16.69,95.45-27.14,1.6-.2,3.17-.42,4.7-.66a546,546,0,0,0-94.86,70.65c57.05-36.7,126.09-78.32,139.43-86.34.45.5.88,1,1.29,1.37.65-1.31,3.16-5.84,3.82-7.13h0c.54-1,1.12-2,1.42-2.63a13.92,13.92,0,0,0-2-.46c-.15-.34-.3-.71-.47-1.11,9.19,4,16,6.93,19.59,8.5-.08.82-.13,1.58-.16,2.29,1.59-.32,7.27-1.16,8.87-1.45h0c1.24-.2,2.57-.4,3.27-.53a17.9,17.9,0,0,0-1.15-2.34q.72-1.63,1.87-4.16c1.06-2,2.2-4.27,3.41-6.73,2.76-2.44,6-5.51,9.53-9.07-.08,6.14-.14,10.75-.18,13.48-.62.15-1.2.3-1.73.46.72,1.3,3.09,6,3.79,7.33h0c.52,1,1.08,2.12,1.4,2.7a13,13,0,0,0,1.36-1.61c.95.13,2.16.31,3.64.54,1.81.4,3.82.8,6,1.2,22.26,14.86,87.42,45.62,107,55.9-26.4-24-51.86-38.84-72-48a401.33,401.33,0,0,1,76,29.84A237.31,237.31,0,0,0-59.07,931c23.57,2.12,47.79,3.54,65.59,3.45C-15.54,924.7-42.86,918.24-68.07,914.57Zm-26.62-61.25-.24.35.06-.15Zm3.31-34.25c-3.83,7.76-7.76,16-11.5,24.33.7-3.63,1.23-7.32,1.61-11Q-96.55,825.79-91.38,819.07Zm-133.47-2.68c3.77,6.15,7.64,12.46,11.46,18.74.16,1.35.32,2.68.49,4l-1.63-1.74C-217.93,830.3-221.41,823.24-224.85,816.39Z"/>
    </g>
  </g>
  <g class="cls-29">
    <g class="cls-30">
      <g>
        <g class="cls-26">
          <path class="cls-27" d="M165.48,886l-3.93,0-103.1-.53-61.17-.32c-7.34,0-14.69-.17-22-.12-4.66,0-20,3.6-16.37-6.16,1.3-3.44,4.56-5.17,7.56-6.58a539.12,539.12,0,0,1,186.49-49.73c-20.92-7.52-42.32-15.32-59.23-31.77a17.2,17.2,0,0,1-5-10c-1.38-10.07,6.48-15,13.35-18.28a457.18,457.18,0,0,1,170-44.66,97,97,0,0,1-36.59-21,10,10,0,0,1-3.25-7.5c.09-5.28,4-6.92,7.53-8a172.54,172.54,0,0,1,51.62-8c-5.77-9-22.88-8.46-21.3-19.23a9.26,9.26,0,0,1,6.15-7.59c63.73-20.09,129.75-27.91,195.39-36a6,6,0,0,0,5-5.5c.34-3.46-2.18-5.08-4.41-6.34L439.88,580.6a8.34,8.34,0,0,1-4.07-6.09c-.82-5.76,4.3-8.28,8.51-9.59q25.29-7.86,51.06-13.39l-16-11.45a590.25,590.25,0,0,1,107.51-9.58c27.07.07,38.9,1.76,64.36-9.26,21.58-9.33,12.72-10.47,35.71-9.8,62,1.82,171,3.93,233,5.74,6,.18,9.46,3.05,14.12,7.34s2.26,7.78-2.88,11.26c52.91,4.65,115.88,17,168.15,15.66,37.75-.94,76.18,19.09,135.15,38.37,17.64,5.76-29.91,21.1-33.25,26.14,74.68,1,116.49-10.93,190.2,2.95,6.67,1.26,62.69,19.33,73.52,23.24,24,15.5-21.23,23.33-28,23.15,29.47,5,134.81,22,108.12,28.82-47,12,66.34,4.27,114.47,29.7a16.68,16.68,0,0,1,7.17,9.37c2.83,11.25-8.07,17.75-16.9,20.69-41.08,13.69-113.63,44.12-156,50.72a.41.41,0,0,0,0,.79c84.44-15.91,217.52,34.18,217.52,34.18l8.7-1.66V886Z"/>
        </g>
        <g class="cls-31">
          <path class="cls-27" d="M237.41,898.72l-3.57,0-93.66-.53-55.56-.32c-6.68,0-13.35-.16-20-.11-4.23,0-18.21,3.59-14.87-6.17,1.18-3.43,4.14-5.17,6.87-6.57,53.92-27.85,111.34-44.71,169.4-49.74-19-7.52-38.45-15.31-53.8-31.77a17.89,17.89,0,0,1-4.53-10c-1.25-10.07,5.89-15,12.12-18.28,49-25.92,101.48-41.1,154.45-44.66a86.64,86.64,0,0,1-33.24-21,10.53,10.53,0,0,1-2.95-7.51c.08-5.27,3.67-6.92,6.84-8a143.08,143.08,0,0,1,46.89-8c-5.24-9-20.79-8.47-19.35-19.24.49-3.69,2.75-6.61,5.59-7.59,57.88-20.09,117.86-27.91,177.49-36,2.31-.32,4.27-2.55,4.53-5.5.31-3.46-2-5.08-4-6.34l-29.37-18.12a8.37,8.37,0,0,1-3.69-6.09c-.75-5.76,3.9-8.28,7.73-9.59q23-7.86,46.38-13.39l-14.55-11.45a489.21,489.21,0,0,1,97.66-9.58c24.59.08,35.33,1.76,58.46-9.26,19.6-9.33,11.56-10.47,32.44-9.8,56.32,1.82,155.32,3.93,211.64,5.74,5.41.18,8.6,3,12.83,7.34s2.05,7.78-2.62,11.26c48.07,4.65,105.26,17,152.74,15.66,34.3-.94,69.2,19.09,122.78,38.37,16,5.77-27.17,21.11-30.21,26.15,67.83,1,105.82-10.94,172.78,3,6,1.25,56.94,19.32,66.78,23.23,21.8,15.5-19.28,23.33-25.42,23.16,26.77,4.95,122.46,22,98.22,28.82-42.74,12,60.26,4.26,104,29.69,2.69,1.56,5.68,5.76,6.51,9.38,2.57,11.24-7.33,17.74-15.35,20.69-37.32,13.68-103.22,44.11-141.7,50.71-.37.06-.37.74,0,.79,76.7-15.91,197.59,34.18,197.59,34.18l7.9-1.66v48.14Z"/>
        </g>
        <path class="cls-32" d="M241.65,904.46l-3.53,0-92.5-.54-54.89-.32c-6.59,0-13.19-.16-19.78-.11-4.18,0-18,3.59-14.68-6.17,1.16-3.43,4.09-5.16,6.78-6.57C116.32,862.87,173,846,230.38,841c-18.77-7.52-38-15.32-53.14-31.78a17.94,17.94,0,0,1-4.48-10c-1.23-10.07,5.82-15,12-18.28C233.13,755,285,739.87,337.3,736.3a85.4,85.4,0,0,1-32.84-21,10.59,10.59,0,0,1-2.91-7.51c.08-5.27,3.62-6.91,6.76-8a140.28,140.28,0,0,1,46.32-8c-5.18-9-20.54-8.46-19.12-19.24.49-3.69,2.72-6.61,5.52-7.59,57.18-20.09,116.42-27.91,175.32-36,2.29-.32,4.22-2.56,4.48-5.5.3-3.46-2-5.09-4-6.34l-29-18.13a8.37,8.37,0,0,1-3.65-6.08c-.74-5.77,3.85-8.29,7.64-9.6q22.68-7.86,45.81-13.39l-14.37-11.45a476.06,476.06,0,0,1,96.46-9.58c24.29.07,45.84-3,68.68-14,19.36-9.34,36.84-9.25,57.47-8.57l166.9,5.44c5.34.18,11.1.54,15.28,4.83s5.21,14.06.6,17.55c47.48,4.65,104,17,150.88,15.66,33.87-.94,68.35,19.09,121.27,38.38,15.82,5.76-26.84,21.1-29.84,26.15,67,1,104.52-10.94,170.66,2.94,6,1.26,56.25,19.33,66,23.24,21.53,15.5-19,23.34-25.11,23.16,26.45,5,121,22,97,28.82-42.22,12,59.52,4.27,102.71,29.7,2.65,1.56,5.61,5.76,6.43,9.38,2.53,11.25-7.24,17.75-15.17,20.69-36.85,13.69-102,44.12-140,50.72-.37.06-.37.74,0,.8,75.77-15.92,195.17,34.18,195.17,34.18l7.81-1.66v48.15Z"/>
      </g>
      <path class="cls-33" d="M242.6,975.53c33,8.13,71.08,13.74,82.51,12.47-17.49-9.94-53.58-20.75-84.25-28.26l7.49.61c18.17,2.9,33.25,4.47,35.59,3.07,22.53,2,40.93,3.91,43.55,4.71-10.55-4.76-40.17-11.73-69.16-15.73-2.8-.91-5.63-1.8-8.47-2.67,42.26-.07,89.54-.79,95.24-3.6-7.16-3.55-40.67-6.44-76-7.77,20.36-2.73,39.69-6,49.7-8.62-8.18-1.31-18.11-2.45-28.74-3.23,10.93-3,21.84-6,32.28-8.75-1.22-2.7-10-3.35-22.52-2.62,19.87-7,34.62-13.71,35.76-17.79-18.37,3.66-38.09,7.35-57,11.15,13.63-4.63,26.8-9.63,37.39-13.85-7.17-.06-18.61,1-31.57,2.62,27.26-13.95,50.4-27,55.74-32.53-4.56-.17-32.76,11.68-64.15,25.57,5.41-3.47,10.7-7,15.71-10.4,11.61-4.73,21.37-8.67,27.83-11.13q-7.37.74-14.45,1.72c9.32-6.76,16.75-12.67,20.83-16.63-2,1.62-14.88,8.94-31.77,18.32-8.05,1.36-15.78,2.94-23.2,4.69,9.43-8.65,18.34-17.33,25.84-25.42q5.68-2.36,11.52-4.61c-3,.5-5.89,1-8.78,1.62a165.13,165.13,0,0,0,10.83-13.22c-4.73,2.44-13.79,8.41-24.88,16.33-9.39,2.29-18.35,4.91-26.86,7.8A109.41,109.41,0,0,0,262.84,849s-1.63,1.08-4.35,3q4.38-6.42,8.57-12.93c14-13.27,26.88-26.06,37.21-37-7,3.21-14.24,6.91-21.47,11,3.55-6.32,6.85-12.59,9.83-18.71-7.84,8.06-16.78,17.82-26.19,28.47-12.73,8-25.41,16.92-37.57,26.17,8.06-17.79,16-37.09,23.12-56.86,5.35-10.83,9.12-19.56,10.48-24.57-1,1-2.06,2-3.12,3.14q2.29-7.08,4.42-14.18c-3.21,6.61-6.5,13.32-9.83,20.08-17.53,19.95-40.2,52.95-58.61,82.06l4-8.74c11.17-20.74,19.58-38.23,19.19-41.5C230.77,782.06,241,760.7,243,757.84c-9.66,11-30.2,44-47.39,77.32-2.19,3-4.39,6.11-6.56,9.21,18.94-50.54,39.47-107.3,39.13-115.07-6.9,7.35-25,46.42-42.25,88.23,6.35-25.27,11.64-49.49,13.45-62.34-5,9.33-10.67,20.82-16.27,33.25,1.85-14.07,3.66-28.13,5.48-41.55-3.12.5-7.35,9.48-11.89,23.11-.29.42-.57.84-.85,1.27,1.58-25.33,1.22-44.47-2.41-47.16-4.48,23.2-9.54,48-14.14,72,1.35-17.86,2.11-35.3,2.51-49.39-2.43,6.3-5.3,15.6-8.29,26.5q-1.83,3.27-3.54,6.53c-2.14-34.91-5.11-64.27-8.22-72.1-2.23,5.39-2.67,43.13-2.43,85.38-4.73-31.25-10.89-60.17-15.22-72.07.6,2.34,1.82,13.74,3.33,29.76a337.78,337.78,0,0,0-7.66,33.78c-7.11-20.48-14.68-39-21.92-51.28.76,12.57,7.9,49,17.16,85.69-.16,1.63-.32,3.26-.47,4.89a140.49,140.49,0,0,0-8.46-12.55c-8-25.82-16.86-49.08-21.73-56.4.14,10.93,2.39,26.41,5.7,43.21-7.2-11.29-14.7-22.29-22.36-32.6-.28-.81-.46-1.42-.54-1.77,0,.39.09.8.14,1.23-6.53-8.77-13.17-17-19.81-24.54,7.87,19.83,19.12,44.73,31.33,70.18,2.57,8.14,5.44,16.6,8.48,24.87q.9,4.58,1.87,9.2C69,806.12,46,763.43,41,759.79c.5,8,12.58,37,27.11,67.85-1.59-1.65-3.21-3.3-4.84-4.95-9.15-12.74-17.63-23.79-23-29.83,1.23,3.54,2.63,7.36,4.19,11.38C28.86,789.49,12.29,775.09-4.62,762c11,12.42,22.26,25.34,33.47,38.27,1,4,4.09,10.37,8.62,18C22.36,804,9.93,794.28,6.09,795.5c11.69,14.72,24,30.65,36.12,45.82-10.22-9.86-20.52-19.1-29-26.41,3.35,6.56,9.61,16.43,17.11,27.32-24.22-17.12-45.8-31-52.77-32.78,2,4.25,25,23.39,51.14,44.3-22-12.29-43.34-22.4-53.17-25.31,4.21,1.77,41.6,26.33,73.59,47.71-28.54-10.94-60.9-21.38-81.26-23.22,9,6.28,40,21.52,70.66,34.05a104.32,104.32,0,0,0-37,1.58s1.62.88,4.44,2.33c-21.69-1.28-43.5-1.21-62.88.86,29.59,7.74,75,16,113.27,21.65q2.64.95,5.22,1.77C23.84,917.37-27,925.15-73.75,939,4.63,930.67,98,923.51,116.07,922.15c.2.75.41,1.45.62,2.09,1.36-1,6.32-4.41,7.7-5.41h0c1.07-.75,2.23-1.55,2.84-2a14.34,14.34,0,0,0-1.85-1.53c0-.42.06-.89.09-1.4,7.48,8.93,13,15.55,15.91,19.06-.51.8-1,1.57-1.36,2.29,1.81.5,8.15,2.59,10,3.12h0c1.39.45,2.88.92,3.68,1.16a23.14,23.14,0,0,0,0-3c1.06-.87,2.43-2,4.11-3.34,2.15-1.54,4.51-3.28,7-5.21,4.14-1.09,9.08-2.6,14.62-4.44l-7.21,13.91c-.73-.18-1.41-.32-2-.43.07,1.73.06,7.86.11,9.58h0c0,1.33,0,2.77,0,3.54a18.31,18.31,0,0,0,2.26-1c.92.63,2.09,1.44,3.5,2.45q2.51,2,5.6,4.38c15.36,27,66.94,93,81.9,113.89-14.89-38.67-33.57-67.41-49.73-87.41a466.53,466.53,0,0,1,63.31,70.64,274.51,274.51,0,0,0-33.87-55.79c23.37,14.51,47.77,28.63,66.3,37.83C291.86,1013.46,266.86,992.5,242.6,975.53ZM246.94,898l-.43.24.14-.12Zm21.31-33.84c-8,6.07-16.44,12.62-24.63,19.27q3.91-5.12,7.42-10.62Q259.38,868.49,268.25,864.2ZM131.08,791.76c.71,8.35,1.43,16.92,2.12,25.43-.54,1.48-1.06,2.95-1.58,4.41-.26-.88-.52-1.77-.79-2.66C131,809.81,131.08,800.67,131.08,791.76Z"/>
      <path class="cls-28" d="M77.05,914.57c28.54-6.52,60-16.91,68.26-22.31C128,891.38,96.09,897,69.61,903.1l6-2.42c15.08-4.79,27.29-9.42,28.54-11.4,18.11-7.14,33-12.82,35.3-13.21-9.95.42-35.41,6.51-59.25,14.64-2.5.38-5,.79-7.54,1.22,32.47-16.39,68.54-35.22,71.83-39.59-6.88,0-33.75,10.77-61.45,23.42,14.6-10,28.19-20,34.88-25.84-6.8,2.15-14.87,5.12-23.34,8.62,7.25-6.5,14.48-13,21.43-19.2-2-1.61-9,1.28-18.33,6.69C110.25,833,119,822.1,118.3,818.53c-12.71,9.91-26.44,20.37-39.54,30.62,8.69-8.83,16.88-17.76,23.39-25.1-5.53,2.72-13.94,7.93-23.26,14.22C94.45,817,107.19,798,109.17,791.71c-3.57,1.64-20.68,21.64-39.44,44.46,2.82-4.77,5.53-9.5,8.06-14.07,7.1-8.12,13.08-14.93,17.1-19.32q-5.39,3.42-10.45,6.91A182.79,182.79,0,0,0,94,788.86c-.94,2-8,12.62-17.34,26.37q-8.49,6.22-16,12.57c3.9-10.3,7.4-20.42,10-29.54q3.47-4,7.07-8c-2.08,1.53-4.12,3.08-6.12,4.63a142.62,142.62,0,0,0,3.22-14.35c-2.7,3.7-7.36,11.8-12.82,22.18-6.33,5.39-12.21,10.87-17.64,16.38a91.52,91.52,0,0,0-.71-9.64s-.83,1.46-2.2,3.94c.58-4.41,1.11-8.84,1.59-13.24,5.61-15.61,10.59-30.43,14.28-42.88-4.18,5.2-8.27,10.82-12.26,16.74.28-6.24.4-12.33.32-18.19-2.91,9.23-6,20.19-9.13,32-6.69,11.09-13,22.84-18.77,34.65-.68-16.79-2.05-34.7-4.2-52.66-.08-10.39-.55-18.56-1.44-22.94-.4,1.15-.8,2.36-1.19,3.63q-1-6.35-2.08-12.62c.08,6.33.15,12.76.2,19.24C3.05,779.26-1.61,813.4-4.51,842.9q-.17-4.1-.3-8.27c.57-20.26.27-37-1.29-39.33-.73-24.9-1.14-45.28-.7-48.25-3.18,12.19-6.2,45.52-6.55,77.76-.51,3.19-1,6.4-1.48,9.63-5-46.18-11.13-97.76-14.4-103.6-2.46,8.32-1.24,45.34,1.63,84.17-4.89-21.88-10.19-42.55-13.76-53.14-.26,9.13-.16,20.14.34,31.86-4-11.53-8.06-23-11.85-34.07-2.2,1.6-2,10.14-.21,22.37-.05.44-.1.87-.16,1.3-8.57-20.08-16.25-34.65-20.08-35.32,5.53,19.57,11.23,40.62,16.95,60.8-5.87-14.26-12-28-17.17-38.95.58,5.79,2,14,3.88,23.58-.09,2.15-.16,4.29-.2,6.39C-85,773.82-98.63,752.4-104,747.58c.37,5,14.62,34.19,31.14,66.58-15.72-22.2-31.64-42-39.56-49.52,1.36,1.56,6.7,9.85,14,21.59a291.93,291.93,0,0,0,7.18,28.93c-13.39-13-26.36-24.3-36.68-30.95,5.44,9.37,25,34.66,46.32,59.25.5,1.32,1,2.63,1.52,3.94A118.49,118.49,0,0,0-91.42,841c-16.13-16.77-31.95-31.22-38.52-35,4.34,8.36,12,19.39,21.08,31-9.89-5.89-19.91-11.45-29.79-16.42a13.28,13.28,0,0,1-1.09-1.15c.18.29.37.59.58.9-8.41-4.22-16.71-8-24.72-11.22,13.72,12.21,32,27,51.22,41.85,5.12,5.27,10.6,10.66,16.13,15.85,1.64,2.11,3.31,4.23,5,6.34-30.35-21.8-64.57-45.71-69.81-46.58,3.48,6,24,23.56,47.08,41.68q-2.81-1-5.64-1.93c-12-6.26-22.75-11.48-29.23-14,2.31,2.25,4.87,4.64,7.62,7.13-17.68-5.31-36-10-54-13.52,13.24,5.3,26.91,10.87,40.52,16.48,2.31,2.73,7.16,6.39,13.58,10.5-17.11-5.1-30.43-7.78-32.91-5.35,14.68,6.79,30.33,14.27,45.48,21.26-11.67-3.63-23.16-6.75-32.47-9.11,5.11,3.75,13.74,8.92,23.72,14.39-25.25-3.79-47.19-6.1-53.26-4.8,3.21,2.48,28.27,8.32,56.45,14.29-21.64-1-42-.47-50.66,1.09,3.92-.26,42.16,4.17,75,8.24-26.17,2.62-55.08,7.1-71.45,13.56,9.31,1.37,39.06,1.09,67.49-1.13a89.41,89.41,0,0,0-27.83,15.51s1.59,0,4.31.07c-17.16,7.4-33.91,15.89-48,25,25.75-5.49,63.88-16.69,95.46-27.14,1.59-.2,3.16-.42,4.69-.66a546,546,0,0,0-94.86,70.65c57.05-36.7,126.09-78.32,139.43-86.34.45.5.88,1,1.29,1.37.65-1.31,3.16-5.84,3.82-7.13h0c.54-1,1.12-2,1.42-2.63a13.92,13.92,0,0,0-2-.46c-.15-.34-.3-.71-.47-1.11,9.19,4,16,6.93,19.59,8.5-.08.82-.13,1.58-.16,2.29,1.59-.32,7.27-1.16,8.87-1.45h0c1.24-.2,2.57-.4,3.27-.53a16.72,16.72,0,0,0-1.15-2.34q.72-1.63,1.87-4.16c1.06-2,2.2-4.27,3.41-6.73,2.77-2.44,6-5.51,9.53-9.07-.08,6.14-.14,10.75-.18,13.48-.62.15-1.2.3-1.73.46.72,1.3,3.09,6,3.8,7.33h0c.52,1,1.08,2.12,1.4,2.7a13,13,0,0,0,1.36-1.61c.95.13,2.16.31,3.64.54,1.81.4,3.82.8,6,1.2,22.26,14.86,87.42,45.62,107,55.9-26.4-24-51.86-38.84-72-48a401.33,401.33,0,0,1,76,29.84A237.31,237.31,0,0,0,86.05,931c23.57,2.12,47.79,3.54,65.59,3.45C129.58,924.7,102.26,918.24,77.05,914.57ZM50.43,853.32l-.24.35.06-.15Zm3.31-34.25c-3.83,7.76-7.76,16-11.49,24.33.69-3.63,1.22-7.32,1.6-11Q48.58,825.79,53.74,819.07Zm-133.47-2.68c3.77,6.15,7.64,12.46,11.47,18.74.15,1.35.31,2.68.48,4l-1.63-1.74C-72.81,830.3-76.28,823.24-79.73,816.39Z"/>
      <g>
        <path class="cls-34" d="M1582.87,868.57c-15.51,24.78-30.62,49.51-41.54,75.49-31.9-15.6-9.74-89.13,3.64-122.91a239.26,239.26,0,0,1,37.3-63.59,226.53,226.53,0,0,1,26.27-27.2c4.77-4.15,26.33-16.4,28.51-21-13.26,28-14.3,54.42-20,82.25-5.58,27.51-18,51.08-34.23,77"/>
        <path class="cls-35" d="M1634.56,713.18c-54.49,50.76-56.21,131.67-78.81,191.3-4.35,11.48-9.87,22.48-11.82,33.89-14.63-5.94-15.19-30-14.18-46.44a253.39,253.39,0,0,1,13.85-67.09c15.22-43.66,44.6-91.59,91-111.66"/>
        <path class="cls-36" d="M1567.06,910.52c-10.76,11.12-17.33,23.45-25,34.73-14.12-22.56,24.41-72.25,36.22-98.6,16.48-36.75,39.37-65.95,76.38-84.62,15.37-7.75,30.12-15.66,45.24-23.67-21.61,33.59-46.11,65.47-66.68,99.15-18.59,30.46-41.33,47.38-66.13,73"/>
        <path class="cls-34" d="M1544,912.07c-4,11.73-7.5,19.9-7.37,31.1-54-28.53-45.6-121.15-9.78-184,7.87-13.8,16.63-27,28.33-38.53,16.89,50.77,9.65,130.75-11.18,191.4"/>
        <path class="cls-35" d="M1526.87,759.2c7.86-13.78,15.52-26.39,28.57-36.52-20.56,61.3-6.57,115.42-18.75,175.84-2.58,12.8-5.18,25.57-7.18,38.24-48.69-25.76-34.12-122.34-2.64-177.56"/>
        <path class="cls-34" d="M1545.59,940.31a15.2,15.2,0,0,0,2.56-2.43c6.06-7.25-3.17-57.52-3.71-66.8-2.85-48.27-12.76-97.35-49.8-123.09-20.15-14-25.3-17.84-31.34-42.31-6.86,15.56-9,29.7-6.7,43.75,3.78,23.72,16.07,44,20.36,67.73,8.55,47.24-2,90.24,39.62,114,6.82,3.89,19.34,16.23,29,9.14"/>
        <path class="cls-35" d="M1538,926.94c3.72-74.72-36.28-126.59-65.72-182.48-6-11.43-13.31-24.39-10.4-39.92-2.34,15.47-7.41,31.69-5.29,44.89,3.57,22.34,14.6,40.58,19.39,62.26,4.14,18.72.25,39.35,2.61,58.84,3,24.66,19.55,29.65,37.93,41.62,7.34,4.78,13.83,10.4,21.48,14.79"/>
        <path class="cls-34" d="M1519.59,933.21c9.43,3.15,19.05,4.58,25.33.68,17.14-10.66-8.81-45.6-13.71-58-22.71-57.34-95.87-93.34-167.29-38.38,34.53,1.6,61.34,19.26,81.59,41.7,14.25,15.81,28.47,31.77,47.83,42,5,2.63,15.51,8.43,26.25,12"/>
        <path class="cls-35" d="M1553,937.94c-5-37.3-27.51-58.15-53.6-78.49-25-19.48-78.57-36.28-118-20.4,26.37,10,48.93,24.77,67.11,44.93,16.39,18.17,42.83,47.21,73.79,54.57a59.12,59.12,0,0,0,30.72-.61"/>
        <path class="cls-37" d="M1552.94,932.66c-.23.06-.33-2.41.6-7.13a90.33,90.33,0,0,1,7-20.22A256.86,256.86,0,0,1,1577.33,876c7-10.87,15.07-22.53,22.58-35.08,7.71-12.57,15.35-24.55,23.29-35.12,4-5.29,8-10.21,11.89-14.7s7.83-8.53,11.35-12.15a155.11,155.11,0,0,1,17.91-16.44c4.63-3.48,7.46-4.91,7.53-4.74s-2.5,2-6.79,5.65a196.3,196.3,0,0,0-16.85,16.78c-3.41,3.73-7.14,7.74-10.88,12.2s-7.59,9.32-11.4,14.53c-7.63,10.44-15.09,22.29-22.78,34.83s-15.87,24.43-22.91,35.13a296.12,296.12,0,0,0-17.2,28.75,113.78,113.78,0,0,0-8,19.75c-1.36,4.67-1.79,7.24-2.09,7.3"/>
        <path class="cls-36" d="M1548.44,909.2c-.29.06-.14-2.47-.21-6.92s-.5-10.78-1.4-18.5c-.43-3.86-.94-8.08-1.38-12.68s-.72-9.55-1.22-14.69c-1-10.29-2.25-21.53-3.25-33.49a308.34,308.34,0,0,1-1.24-34.34,172.27,172.27,0,0,1,3.16-29.27,124.9,124.9,0,0,1,5.81-20.29c1.86-4.81,3.27-7.45,3.5-7.43.61,0-3.9,10.62-6.58,27.26a191,191,0,0,0-2.28,28.64c-.11,10.6.53,22,1.53,34s2.19,23.21,2.95,33.62c.41,5.18.59,10.23.86,14.83l.9,12.84a127.07,127.07,0,0,1,.16,19.1c-.39,4.65-1.07,7.32-1.31,7.37"/>
        <path class="cls-36" d="M1557.09,794.38c.28,0-.42,3.66-1.28,9.56s-1.8,14-2.74,23-1.93,17.11-3,23.08-2.1,9.71-2.35,9.74.27-3.61,1-9.47,1.51-13.93,2.44-22.9,2.08-17.17,3.32-23.19,2.41-9.77,2.65-9.8"/>
        <path class="cls-36" d="M1537.66,890.63c-.29.13-.94-2.23-2.38-6.34s-3.75-9.92-6.78-17c-6.14-14.3-12.1-35.32-21.16-57.09-2.26-5.44-4.63-10.64-7.12-15.54-.65-1.23-1.26-2.45-1.84-3.68s-1.21-2.37-1.84-3.52c-1.26-2.3-2.58-4.5-3.9-6.62-5.33-8.48-10.6-15.84-14.51-22.42a86.67,86.67,0,0,1-8-16.41c-1.42-4.16-1.73-6.7-1.5-6.82s1.11,2.12,3,6a119.28,119.28,0,0,0,9.05,15.47c4.2,6.3,9.71,13.43,15.28,21.87,1.38,2.12,2.76,4.32,4.08,6.64.66,1.16,1.3,2.35,1.93,3.57s1.22,2.43,1.87,3.64c2.57,4.92,5,10.16,7.27,15.64,9.12,21.94,14.68,43.24,20.08,57.78a147.7,147.7,0,0,1,5.62,17.81c1,4.38,1.14,7,.89,7.1"/>
        <path class="cls-36" d="M1551,923.19c-.29.13-.93-2.2-2.27-6.28a62.25,62.25,0,0,0-7.64-16c-1-1.52-2.22-3.06-3.52-4.59s-2.82-3-4.35-4.58c-3.08-3.12-6.46-6.39-10.13-9.72a172.09,172.09,0,0,0-25.86-19.61,113.92,113.92,0,0,0-15.35-7.84c-5.38-2.13-10.37-4.45-15.15-6.57a200.68,200.68,0,0,0-26.13-10,67.08,67.08,0,0,0-19.71-3c-5,.11-8,1-8,.7s3.07-1.55,8.42-2.1a62.56,62.56,0,0,1,20.81,1.88c8.2,1.94,17.26,5.3,27,9.41,4.87,2,9.86,4.27,15.23,6.34a109.25,109.25,0,0,1,15.76,8,156.68,156.68,0,0,1,26,20.11c3.62,3.44,6.93,6.82,9.91,10.08,1.48,1.64,2.95,3.17,4.24,4.83a51.59,51.59,0,0,1,10,21.93c.9,4.36,1,6.92.78,7"/>
        <path class="cls-36" d="M1543.7,909.16c-.25.26-4.06-2.71-11.63-5.75a114.92,114.92,0,0,0-13.91-4.47c-5.41-1.43-11.51-2.76-17.89-4.25a170.3,170.3,0,0,1-17.6-4.87,61.53,61.53,0,0,1-12.91-6.08c-6.69-4.33-9.14-8.56-9-8.66.3-.26,3.15,3.57,10,7.52a69.42,69.42,0,0,0,13,5.63c5.2,1.72,11.19,3.22,17.55,4.7s12.47,2.86,17.86,4.39a96.42,96.42,0,0,1,13.8,4.89c7.45,3.4,10.91,6.79,10.73,6.95"/>
      </g>
    </g>
  </g>
</svg>
