<svg xmlns="http://www.w3.org/2000/svg" xmlns:xlink="http://www.w3.org/1999/xlink" width="27.71" height="39.46" viewBox="0 0 27.71 39.46">
  <defs>
    <style>
      .cls-1 {
        fill: none;
      }

      .cls-2 {
        isolation: isolate;
      }

      .cls-3 {
        clip-path: url(#clip-path);
      }

      .cls-4 {
        fill: #6de2fe;
      }

      .cls-5 {
        fill: #b3c661;
      }

      .cls-6 {
        opacity: 0.3;
      }

      .cls-7 {
        clip-path: url(#clip-path-2);
      }

      .cls-8 {
        mix-blend-mode: multiply;
      }

      .cls-9 {
        fill: #84e75a;
      }

      .cls-10 {
        clip-path: url(#clip-path-4);
      }

      .cls-11 {
        opacity: 0.21;
      }

      .cls-12 {
        clip-path: url(#clip-path-5);
      }

      .cls-13 {
        fill: #23490f;
      }

      .cls-14 {
        opacity: 0.56;
      }

      .cls-15 {
        clip-path: url(#clip-path-6);
      }

      .cls-16 {
        clip-path: url(#clip-path-7);
      }

      .cls-17 {
        fill: url(#radial-gradient);
      }

      .cls-18 {
        fill: #342517;
      }

      .cls-19 {
        fill: #ebb7ad;
        stroke: #323232;
        stroke-miterlimit: 10;
        stroke-width: 0.25px;
      }

      .cls-20 {
        clip-path: url(#clip-path-8);
      }

      .cls-21 {
        clip-path: url(#clip-path-9);
      }

      .cls-22 {
        fill: url(#linear-gradient);
      }
    </style>
    <clipPath id="clip-path">
      <rect class="cls-1" x="2060.09" y="-548.35" width="1280" height="720"/>
    </clipPath>
    <clipPath id="clip-path-2">
      <rect class="cls-1" x="-4658.85" y="-40.38" width="8468.38" height="314.12"/>
    </clipPath>
    <clipPath id="clip-path-4">
      <rect class="cls-1" x="-4720.09" y="-628.96" width="12896.26" height="900"/>
    </clipPath>
    <clipPath id="clip-path-5">
      <rect class="cls-1" x="-1316.57" y="-117.68" width="1885.03" height="374.76"/>
    </clipPath>
    <clipPath id="clip-path-6">
      <rect class="cls-1" x="-1241.14" y="-104.99" width="1712.33" height="374.76"/>
    </clipPath>
    <clipPath id="clip-path-7">
      <path class="cls-1" d="M-212.76-94.06c24.45,11,47.5,14,73.49,14A544.81,544.81,0,0,1-36-70.51L-51.44-59q24.72,5.5,49,13.38c4.05,1.31,9,3.83,8.18,9.6A8.31,8.31,0,0,1,1.85-30l-31,18.13C-31.33-10.6-33.75-9-33.43-5.53A5.91,5.91,0,0,0-28.63,0C34.39,8.07,97.77,15.89,159,36a9.19,9.19,0,0,1,5.9,7.59c1.52,10.78-14.91,10.28-20.45,19.24a159.62,159.62,0,0,1,49.56,8c3.35,1.1,7.14,2.74,7.23,8a10.18,10.18,0,0,1-3.12,7.5,92.3,92.3,0,0,1-35.13,21c56,3.57,111.46,18.74,163.24,44.67,6.59,3.29,14.13,8.21,12.81,18.29a17.51,17.51,0,0,1-4.78,9.95C318,196.71,297.44,204.51,277.35,212c61.36,5,122,21.89,179,49.74,2.88,1.41,6,3.14,7.26,6.57a7.75,7.75,0,0,1,.54,2.7H-1227.2V227.35l8.35,1.66s127.76-50.1,208.83-34.18a.42.42,0,0,0,0-.8c-40.67-6.6-110.33-37-149.76-50.72-8.49-2.94-18.94-9.44-16.23-20.69.87-3.62,4-7.82,6.88-9.38,46.21-25.43,155.07-17.65,109.9-29.69-25.62-6.84,75.51-23.88,103.8-28.83-6.48.18-49.9-7.66-26.86-23.16,10.4-3.91,64.18-22,70.58-23.24,47.16-9.25,80.71-7,119.07-4.83,19.2,1.11,48.19,6.23,72.11,5.89-3.21-5-57.43-24.39-40.49-30.15C-704.39-40-667.5-60.08-631.25-59.15c50.18,1.3,110.63-11,161.43-15.66-4.94-3.48-3.84-13.26.64-17.55s10.64-4.65,16.35-4.83l178.58-5.44c4.82-.15,9.47-.27,14-.27,16.31,0,31.28,1.54,47.47,8.84"/>
    </clipPath>
    <radialGradient id="radial-gradient" cx="-7851.52" cy="271.99" r="1" gradientTransform="matrix(608.17, 0, 0, -367.21, 4774711.87, 99967.15)" gradientUnits="userSpaceOnUse">
      <stop offset="0" stop-color="#61dfff"/>
      <stop offset="0.14" stop-color="#5adaff"/>
      <stop offset="0.35" stop-color="#47caff"/>
      <stop offset="0.59" stop-color="#28b1ff"/>
      <stop offset="0.84" stop-color="#0091ff"/>
      <stop offset="1" stop-color="#0091ff"/>
    </radialGradient>
    <clipPath id="clip-path-8">
      <rect class="cls-1" x="2086.96" y="3526.32" width="1280" height="720"/>
    </clipPath>
    <clipPath id="clip-path-9">
      <rect class="cls-1" x="1926.96" y="3436.32" width="1600" height="900"/>
    </clipPath>
    <linearGradient id="linear-gradient" x1="-2890.03" y1="5538.29" x2="-2890.03" y2="-1445.55" gradientUnits="userSpaceOnUse">
      <stop offset="0" stop-color="#a4f2ff"/>
      <stop offset="0.23" stop-color="#69e3ff"/>
      <stop offset="0.45" stop-color="#34d5ff"/>
      <stop offset="0.57" stop-color="#1fd0ff"/>
      <stop offset="0.65" stop-color="#25c3ff"/>
      <stop offset="0.81" stop-color="#36a2ff"/>
      <stop offset="1" stop-color="#4d73ff"/>
    </linearGradient>
  </defs>
  <g class="cls-2">
    <g id="Layer_1" data-name="Layer 1">
      <g class="cls-3">
        <path class="cls-4" d="M4108.12,99.5l0-92.72V-23.59L4108-482.26l0-147.62-15622.49.31.06,186.16h0l0,129.3v105l0,63.92v1.62c1.2.12,1.78,3.95,2,9.52.19,5.81,0,13.53-.42,20.89s-.82,14.12-1.14,18.58h0c-.19,2.48-.35,4.21-.38,4.84v0a1.22,1.22,0,0,0,0,.23s0,0,.06,0c.41.58,5.24,6.79,7.85,7.15l0,89.05,0,59.93c4.39,15.44,6.55,30.05,2.35,46.16q-1.14,4.36-2.33,8.73l0,140.52v8h237.48l15029.66-.29h339.53l0-163.81h7.91Z"/>
        <path class="cls-5" d="M3763.47-133.5c-1354.44,31.1-9549.2,6.85-15593.32,0V21.77c8.91,9,17.29,18.81,20.46,28.3,7.48,22.43,13.62,41.68,7.89,63.74-5.82,22.41-12.69,44.54-22.2,66.64-2,4.75-4.14,9.51-6.15,14.28V270.9H3763.47Z"/>
        <g class="cls-6">
          <g class="cls-7">
            <g class="cls-8">
              <g class="cls-7">
                <path class="cls-9" d="M3756.55,79.2h5.61L3766,230.42h43.49v43.32H-4658.85V112l6.48-.07q23.59-.24,47.14-.53,81.78-.94,163.2-2.28h0l14.35-.23h0q60.15-1,120.15-2c201.13-3.54,400.68-6.5,603.58-8.31l32.42-.29,6.61-.06,15.56-.14,14.65-.14q114.6-1.05,228.78-2.5,65.82-.9,131.18-2.11c50.5-.94,101-2.56,151.92-3.06,56-.58,100.32-1.46,129-7.3,1.7-.35.69-.7-2.16-.92-109.81-8-261.14-7.82-387.83-8.22q-57.33-.21-114.46-.64c-66-.43-131.87-.88-198-.83-118.58.09-237,.56-355.51,0C-4158.12,71.81-4278,70.9-4372,64.89c-17.53-1.12-33.22-2.55-46.69-4.24-11.4-1.42-10.34-1.43,2-2.67,14.22-1.39,30.64-2.49,47.34-3.47,62-3.72,135.15-5.12,204.14-6.28,64.2-1.07,129.18-1.63,193-2.91,98.88-2,196.7-5,294.53-7.47,111.55-2.84,223.78-5.76,337.27-7.49h0q13.56-.21,27.14-.39h.22q15.63-.22,31.32-.39c11-.13,22-.23,33-.34h1.66l15.93-.12c4.92,0,9.81-.08,14.73-.1l18.36-.1h1.8q11.41,0,22.85-.07h0q10.53,0,21.09,0h3c157.47,0,314.86,2,472.41.94,30.69-.2,61.56-.53,92.1-1.07h0q23.57-.42,46.77-1c1.43,0,2.89-.07,4.32-.12h0l11.27-.32q13.08-.39,26-.85c4.12-.14,8.2-.3,12.27-.46h.05l3.58-.15q23.53-.93,46.1-2.17c4.32-.26,3.68-.92,0-1.17-127.18-8.79-288.2-9.71-434.12-10.47-90.13-.46-178.44-1.22-267.42-2.93q-113.88-2.14-225.45-5.54L-3377.62,3l-.66,0h0l-5.93-.17L-3410.77,2l-5.37-.16s0,0,0,0h-.18l-3.27-.1c-4.39-.12-8.79-.26-13.16-.39h-.11l-.48,0h0l-.81,0q-21.21-.63-42.38-1.3-38.72-1.18-77.38-2.43l-2.18-.07h0c-.59,0-1.16,0-1.73-.06h0Q-3698.83-7-3839.54-11.73h0l-17.27-.56a.34.34,0,0,0-.1,0c-1.13-.05-2.27-.08-3.39-.11L-3909.17-14l-25.76-.82h0l-12.44-.39-18.17-.57-9.93-.31-13.55-.42c-3.89-.12-7.77-.25-11.66-.36h0l-20.54-.63-5.24-.16-33.38-1h0q-45.6-1.38-91.37-2.65h0q-26.69-.75-53.43-1.46h0q-29.86-.8-59.81-1.54l-3.95-.09-1.19,0q-31.2-.78-62.52-1.49-101.82-2.34-205-4-34-.53-68-.93-23.55-.3-47.14-.5l-6.48-.07v-9l6.48,0q23.49.11,47.14.3c182.56,1.56,369.66,7.54,549.73,11.15q59.39,1.2,118.08,3h0l15.23.47q53.55,1.68,106.81,3.64h0l14.86.53,8.91.33a.16.16,0,0,0,.07,0l11.87.44,36.74,1.35h.07l6.45.24h0l20,.74,4.45.15h.06l.33,0,8.76.32,15.07.55h0l19,.68,1.25.05,5.53.19,19.47.69h0l17.61.6q38.74,1.32,77.73,2.5,15.15.45,30.38.87l2.86.07h0q8.28.24,16.6.44h0q17,.45,34,.82,11.19.27,22.39.49l3.66.08,16.22.32h.06l3.08.06c242.22,4.8,479.2,8.2,723.1,10.56h0l15.3.15h1.18l4.17.05,13.53.14c1.93,0,3.87,0,5.79.06l11.15.12,9.08.11q7.74.07,15.47.19l9.36.11,23.1.31h0c13.68.19,27.31.39,41,.61h0c10.55.16,21.15.33,31.7.51h0q54.24.91,108.35,2h.52l37.56.79h.09c3.2,0,6.42.12,9.62.2h.79l8.85.19,15.43.33,14.88.32,8.1.19h.55l11.54.26,15.21.33h0l19.35.45,1.9,0h0l8.16.19q12,.27,24.09.56l5.5.12h0c113.09,2.63,226.11,5.41,339.43,7.72q130.64,2.67,262,4.2c345.68,3.69,692.14.3,1038,4q110.39,1.22,219.63,2h0l27.49.2-24.44,0h0c-38.69.06-77.36.21-116.22.52-98.25.82-196.15,2.27-294,3.5-96.16,1.21-193.61,2.45-290.59,2-85.76-.42-172.22-1.61-257.61,0-12.66.23-25.16.65-37.28,1-5.58.18-5.73.9-1.54,1.25C-1251,45-1107.49,46.92-977.54,48c147.87,1.17,297.07.86,445.15,1.38q107.36.36,214.65.5,194.4.27,388.78,0c203.08-.27,406-1.35,609.05-1.77q102.54-.21,204.5.61c320.52,2.36,638,10.35,960,9.22C1960.4,57.47,2076.31,56.31,2192,55q101.55-1.14,202.79-2.27c145.33-1.55,312.53-4.94,452.68,1.29-56.79,9.53-184.5,9.53-251,18.18-2.58.33-2.25.69.26,1,.26,0,.57.07.9.1,59.66,5,146,5,217.34,4.43,60.34-.47,120.27-1.64,179.29-3.22l18-.49q13.85-.39,27.63-.82c2-.06,4-.11,6.07-.18l13.83-.43,13.13-.43,6.19-.2h0q26.51-.89,52.6-1.83c107.89-3.91,213.35-8.89,312.75-14.94,44.9-2.73,91.33-5.75,132.82-9.35,27.55-2.39,53-5,74.3-8q.73-.09,1.44-.21c-442,4.74-1288.72,15.53,0-14.63a4.31,4.31,0,0,0-.63,0c-5.72-.46-11.8-.87-18.16-1.24h0c-17.25-1-36.58-1.7-56.93-2.18s-41.75-.73-63-.86c-2,0-4.1,0-6.14,0l-3.07,0c-22.84-.11-45.42-.09-66.35-.07l-23.28,0c-98.09.1-195.93,1.22-293.64,2.21q-49,.49-98.06.93h0l-14,.11a.09.09,0,0,0-.07,0l-21.3.2h0q-38.09.32-76.19.65l-3.7,0h-.71l-88.26.79-2.87,0h-.54q-36,.33-72,.69c-135.32,1.4-272.68,2.61-408.8,1.79h-.15q-47.19-.27-94.15-.9l-.76,0-9.07-.13H2231l-10.26-.16H2220q-9.33-.13-18.64-.3l-1.26,0,1.29-.07,8.88-.44h0c4.52-.24,9-.47,13.59-.68h0q8.64-.44,17.33-.84l2.23-.1c75.59-3.51,153.66-6.12,233-8.31h0q48.14-1.32,96.89-2.46h0l37.55-.86h0l1.78,0h0L2634,10.2l32.75-.73h.66q9.39-.22,18.79-.42,8.46-.17,16.9-.36l21.49-.46h.63l3-.06,32.63-.7h0L2774,7.18h0C2899.28,4.47,3024,1.55,3143.65-3.2c65.73-2.61,128.79-5.69,189.71-9.2,77.48-4.47,151.52-9.62,223.28-15.32l20.69-1.66c25-2,28.77.18,53.29-1.87l22.23-1.42C3682.49-34,3678.16-30,3708-31.25c8.06-.35,40.51,2.92,48.6,2.58l0,18.59V79.2Z"/>
              </g>
            </g>
          </g>
        </g>
        <g>
          <g class="cls-10">
            <g class="cls-11">
              <g class="cls-12">
                <path class="cls-13" d="M346.79,257.08l4.21,0,110.31-.53,65.46-.32c7.85,0,15.72-.16,23.58-.12,5,0,21.44,3.6,17.51-6.16-1.39-3.43-4.88-5.17-8.09-6.57a608.85,608.85,0,0,0-199.54-49.74c22.39-7.52,45.29-15.31,63.38-31.77a16.85,16.85,0,0,0,5.33-10c1.47-10.07-6.94-15-14.28-18.28A516.58,516.58,0,0,0,232.73,89a106,106,0,0,0,39.16-21,9.74,9.74,0,0,0,3.47-7.51c-.1-5.27-4.32-6.92-8.06-8a196.15,196.15,0,0,0-55.23-8c6.17-9,24.49-8.47,22.79-19.24a9.44,9.44,0,0,0-6.57-7.59C160.1-2.49,89.45-10.31,19.21-18.4a6.17,6.17,0,0,1-5.34-5.5c-.36-3.46,2.34-5.08,4.73-6.34L53.19-48.36a8.35,8.35,0,0,0,4.36-6.09c.87-5.76-4.6-8.28-9.12-9.59Q21.39-71.9-6.2-77.43L10.94-88.88a674.53,674.53,0,0,0-115-9.58c-29,.08-41.62,1.76-68.86-9.26-23.09-9.33-13.62-10.47-38.21-9.8-66.35,1.82-183,3.93-249.3,5.74-6.37.18-10.12,3-15.11,7.34s-2.41,7.78,3.08,11.26c-56.61,4.65-124,17-179.91,15.66-40.39-.94-81.51,19.09-144.62,38.37C-815.89-33.38-765-18-761.43-13c-79.91,1-124.65-10.94-203.52,2.94-7.13,1.26-67.07,19.33-78.66,23.24-25.68,15.5,22.71,23.33,29.93,23.16-31.53,4.95-144.24,22-115.68,28.82,50.34,12-71,4.26-122.49,29.69a16.92,16.92,0,0,0-7.67,9.38c-3,11.24,8.64,17.74,18.09,20.69,44,13.68,121.58,44.11,166.91,50.71a.4.4,0,0,1,0,.79c-90.36-15.91-232.75,34.18-232.75,34.18l-9.31-1.66v48.14Z"/>
              </g>
            </g>
            <g class="cls-14">
              <g class="cls-15">
                <path class="cls-13" d="M269.83,269.76l3.82,0,100.21-.53,59.46-.32c7.14,0,14.28-.16,21.42-.11,4.52,0,19.48,3.59,15.91-6.17-1.26-3.43-4.43-5.17-7.35-6.57A512.45,512.45,0,0,0,282,206.3c20.34-7.52,41.14-15.31,57.57-31.77a17.4,17.4,0,0,0,4.84-10c1.34-10.07-6.3-15-13-18.28a434.62,434.62,0,0,0-165.26-44.66,93.8,93.8,0,0,0,35.57-21,10.13,10.13,0,0,0,3.15-7.51c-.08-5.27-3.92-6.92-7.31-8a162.89,162.89,0,0,0-50.18-8c5.61-9,22.25-8.47,20.71-19.24a9.22,9.22,0,0,0-6-7.59C100.24,10.19,36.07,2.37-27.73-5.72a5.91,5.91,0,0,1-4.85-5.5c-.33-3.46,2.12-5.08,4.29-6.34L3.13-35.68a8.31,8.31,0,0,0,4-6.09c.79-5.76-4.18-8.28-8.28-9.59q-24.57-7.86-49.63-13.38L-35.24-76.2a559,559,0,0,0-104.5-9.58C-166-85.7-177.54-84-202.29-95c-21-9.33-12.37-10.47-34.71-9.8-60.27,1.82-166.19,3.93-226.46,5.74-5.78.18-9.19,3-13.72,7.34s-2.2,7.78,2.8,11.26c-51.43,4.65-112.63,17-163.43,15.66-36.69-.94-74.05,19.09-131.37,38.37C-786.32-20.7-740.11-5.36-736.85-.32c-72.59,1-113.23-10.94-184.88,2.95-6.48,1.25-60.93,19.32-71.45,23.23C-1016.51,41.36-972.55,49.19-966,49c-28.64,4.95-131,22-105.09,28.82,45.73,12-64.48,4.27-111.26,29.69a16.61,16.61,0,0,0-7,9.38c-2.75,11.24,7.84,17.74,16.43,20.69,39.92,13.68,110.44,44.11,151.61,50.71a.41.41,0,0,1,0,.79c-82.07-15.91-211.42,34.18-211.42,34.18l-8.46-1.66v48.14Z"/>
              </g>
            </g>
          </g>
          <g class="cls-16">
            <rect class="cls-17" x="-1218.63" y="-98.89" width="1691.4" height="373.94"/>
          </g>
        </g>
      </g>
      <path class="cls-18" d="M16.71,9.8a6.32,6.32,0,0,0-7.74,5s4-2.86,7.54-2.21C16.51,12.62,17.45,10.09,16.71,9.8Z"/>
      <ellipse class="cls-19" cx="13.64" cy="23.57" rx="6.84" ry="4.33" transform="translate(-10.08 36.96) rotate(-89.38)"/>
      <g class="cls-20">
        <g class="cls-21">
          <rect class="cls-22" x="-9485.88" y="-266.08" width="13191.7" height="5525.81"/>
        </g>
      </g>
    </g>
  </g>
</svg>
