<svg xmlns="http://www.w3.org/2000/svg" xmlns:xlink="http://www.w3.org/1999/xlink" width="27.71" height="39.46" viewBox="0 0 27.71 39.46">
  <defs>
    <style>
      .cls-1 {
        fill: none;
      }

      .cls-2 {
        isolation: isolate;
      }

      .cls-3 {
        clip-path: url(#clip-path);
      }

      .cls-4 {
        fill: #6de2fe;
      }

      .cls-5 {
        fill: #b3c661;
      }

      .cls-6 {
        opacity: 0.3;
      }

      .cls-7 {
        clip-path: url(#clip-path-2);
      }

      .cls-8 {
        mix-blend-mode: multiply;
      }

      .cls-9 {
        fill: #84e75a;
      }

      .cls-10 {
        clip-path: url(#clip-path-4);
      }

      .cls-11 {
        opacity: 0.21;
      }

      .cls-12 {
        clip-path: url(#clip-path-5);
      }

      .cls-13 {
        fill: #23490f;
      }

      .cls-14 {
        opacity: 0.56;
      }

      .cls-15 {
        clip-path: url(#clip-path-6);
      }

      .cls-16 {
        clip-path: url(#clip-path-7);
      }

      .cls-17 {
        fill: url(#radial-gradient);
      }

      .cls-18 {
        fill: #fff;
        stroke: #3d2e18;
        stroke-width: 0.5px;
      }

      .cls-18, .cls-22 {
        stroke-miterlimit: 10;
      }

      .cls-19 {
        fill: #2d2b21;
      }

      .cls-20 {
        fill: #f1efe8;
      }

      .cls-21 {
        fill: #342517;
      }

      .cls-22 {
        fill: #ebb7ad;
        stroke: #323232;
        stroke-width: 0.25px;
      }

      .cls-23 {
        clip-path: url(#clip-path-8);
      }

      .cls-24 {
        clip-path: url(#clip-path-9);
      }

      .cls-25 {
        fill: url(#linear-gradient);
      }
    </style>
    <clipPath id="clip-path">
      <rect class="cls-1" x="2060.09" y="-594.71" width="1280" height="720"/>
    </clipPath>
    <clipPath id="clip-path-2">
      <rect class="cls-1" x="-4658.85" y="-86.74" width="8468.38" height="314.12"/>
    </clipPath>
    <clipPath id="clip-path-4">
      <rect class="cls-1" x="-4720.09" y="-675.31" width="12896.26" height="900"/>
    </clipPath>
    <clipPath id="clip-path-5">
      <rect class="cls-1" x="-1316.57" y="-164.03" width="1885.03" height="374.76"/>
    </clipPath>
    <clipPath id="clip-path-6">
      <rect class="cls-1" x="-1241.14" y="-151.35" width="1712.33" height="374.76"/>
    </clipPath>
    <clipPath id="clip-path-7">
      <path class="cls-1" d="M-212.76-140.42c24.45,11,47.5,14,73.49,14A544,544,0,0,1-36-116.86l-15.39,11.45q24.72,5.52,49,13.39c4.05,1.31,9,3.83,8.18,9.59a8.31,8.31,0,0,1-3.91,6.09l-31,18.13c-2.15,1.25-4.57,2.87-4.25,6.33a5.89,5.89,0,0,0,4.8,5.5c63,8.1,126.4,15.92,187.59,36a9.19,9.19,0,0,1,5.9,7.59C166.38,8,150,7.5,144.41,16.46a159.62,159.62,0,0,1,49.56,8c3.35,1.1,7.14,2.74,7.23,8A10.19,10.19,0,0,1,198.08,40,92.3,92.3,0,0,1,163,61c56,3.56,111.46,18.74,163.24,44.66,6.59,3.3,14.13,8.22,12.81,18.29a17.51,17.51,0,0,1-4.78,10c-16.24,16.46-36.78,24.25-56.87,31.77,61.36,5,122,21.89,179,49.75,2.88,1.4,6,3.14,7.26,6.57a7.71,7.71,0,0,1,.54,2.7H-1227.2V181l8.35,1.66s127.76-50.1,208.83-34.18a.42.42,0,0,0,0-.8c-40.67-6.6-110.33-37-149.76-50.72-8.49-2.94-18.94-9.44-16.23-20.69.87-3.62,4-7.82,6.88-9.38,46.21-25.43,155.07-17.65,109.9-29.7-25.62-6.83,75.51-23.87,103.8-28.82-6.48.18-49.9-7.66-26.86-23.16,10.4-3.91,64.18-22,70.58-23.24,47.16-9.25,80.71-7,119.07-4.83,19.2,1.11,48.19,6.22,72.11,5.89-3.21-5-57.43-24.39-40.49-30.16,56.62-19.28,93.51-39.31,129.76-38.37,50.18,1.3,110.63-11,161.43-15.66-4.94-3.49-3.84-13.26.64-17.56s10.64-4.64,16.35-4.82L-274.25-149c4.82-.14,9.47-.26,14-.26,16.31,0,31.28,1.53,47.47,8.83"/>
    </clipPath>
    <radialGradient id="radial-gradient" cx="-7851.52" cy="225.64" r="1" gradientTransform="matrix(608.17, 0, 0, -367.21, 4774711.87, 82899.74)" gradientUnits="userSpaceOnUse">
      <stop offset="0" stop-color="#61dfff"/>
      <stop offset="0.14" stop-color="#5adaff"/>
      <stop offset="0.35" stop-color="#47caff"/>
      <stop offset="0.59" stop-color="#28b1ff"/>
      <stop offset="0.84" stop-color="#0091ff"/>
      <stop offset="1" stop-color="#0091ff"/>
    </radialGradient>
    <clipPath id="clip-path-8">
      <rect class="cls-1" x="2086.96" y="3479.97" width="1280" height="720"/>
    </clipPath>
    <clipPath id="clip-path-9">
      <rect class="cls-1" x="1926.96" y="3389.97" width="1600" height="900"/>
    </clipPath>
    <linearGradient id="linear-gradient" x1="-2890.03" y1="5491.94" x2="-2890.03" y2="-1491.9" gradientUnits="userSpaceOnUse">
      <stop offset="0" stop-color="#a4f2ff"/>
      <stop offset="0.23" stop-color="#69e3ff"/>
      <stop offset="0.45" stop-color="#34d5ff"/>
      <stop offset="0.57" stop-color="#1fd0ff"/>
      <stop offset="0.65" stop-color="#25c3ff"/>
      <stop offset="0.81" stop-color="#36a2ff"/>
      <stop offset="1" stop-color="#4d73ff"/>
    </linearGradient>
  </defs>
  <g class="cls-2">
    <g id="Layer_1" data-name="Layer 1">
      <g class="cls-3">
        <path class="cls-4" d="M4108.12,53.15l0-92.72V-69.95L4108-528.62l0-147.62-15622.49.31.06,186.17h0l0,129.3v105l0,63.92v1.62c1.2.12,1.78,3.95,2,9.52.19,5.81,0,13.52-.42,20.89-.35,7.21-.82,14.11-1.14,18.58h0c-.19,2.48-.35,4.21-.38,4.83v0a1.36,1.36,0,0,0,0,.24s0,0,.06,0c.41.59,5.24,6.8,7.85,7.15l0,89.06,0,59.93c4.39,15.44,6.55,30.05,2.35,46.16q-1.14,4.37-2.33,8.72l0,140.52v8h237.48l15029.66-.3h339.53l0-163.81h7.91Z"/>
        <path class="cls-5" d="M3763.47-179.85c-1354.44,31.1-9549.2,6.85-15593.32,0V-24.58c8.91,9,17.29,18.81,20.46,28.3,7.48,22.42,13.62,41.68,7.89,63.74-5.82,22.4-12.69,44.54-22.2,66.63-2,4.76-4.14,9.52-6.15,14.28v76.18H3763.47Z"/>
        <g class="cls-6">
          <g class="cls-7">
            <g class="cls-8">
              <g class="cls-7">
                <path class="cls-9" d="M3756.55,32.84h5.61L3766,184.07h43.49v43.31H-4658.85V65.67l6.48-.07q23.59-.24,47.14-.53,81.78-1,163.2-2.28h0c4.8-.08,9.57-.15,14.35-.24h0q60.15-.94,120.15-2C-4106.35,57-3906.8,54-3703.9,52.22l32.42-.29c2.2,0,4.4,0,6.61-.06l15.56-.15,14.65-.13q114.6-1.06,228.78-2.5,65.82-.92,131.18-2.11c50.5-.94,101-2.56,151.92-3.06,56-.58,100.32-1.46,129-7.3,1.7-.35.69-.7-2.16-.92-109.81-8-261.14-7.82-387.83-8.22q-57.33-.21-114.46-.64c-66-.44-131.87-.88-198-.83-118.58.08-237,.56-355.51,0-106.34-.54-226.25-1.45-320.19-7.46-17.53-1.13-33.22-2.55-46.69-4.24-11.4-1.42-10.34-1.44,2-2.67,14.22-1.39,30.64-2.49,47.34-3.48,62-3.71,135.15-5.11,204.14-6.28,64.2-1.06,129.18-1.62,193-2.9,98.88-2,196.7-5,294.53-7.47,111.55-2.84,223.78-5.76,337.27-7.49h0l27.14-.4h.22q15.63-.21,31.32-.38c11-.13,22-.24,33-.34h1.66q8-.07,15.93-.12c4.92,0,9.81-.08,14.73-.1l18.36-.1h1.8q11.41-.06,22.85-.07h0q10.53,0,21.09,0h3c157.47,0,314.86,2,472.41.94,30.69-.2,61.56-.53,92.1-1.08h0q23.57-.4,46.77-1l4.32-.12h0l11.27-.32q13.08-.39,26-.85l12.27-.46h.05l3.58-.15q23.53-.93,46.1-2.17c4.32-.26,3.68-.93,0-1.17-127.18-8.79-288.2-9.71-434.12-10.48-90.13-.45-178.44-1.21-267.42-2.92q-113.88-2.15-225.45-5.54l-16.32-.47-.66,0h0l-5.93-.17-26.54-.79-5.37-.16h-.19l-3.27-.1-13.16-.39h-.11l-.48,0h0q-.42,0-.81,0-21.21-.61-42.38-1.29-38.72-1.2-77.38-2.43l-2.18-.07h0l-1.73-.06h0q-140.88-4.5-281.59-9.17h0l-17.27-.57h-.1l-3.39-.11-48.85-1.57-25.76-.82h0l-12.44-.39-18.17-.57-9.93-.31-13.55-.42-11.66-.37h0l-20.54-.63-5.24-.15q-16.68-.51-33.38-1h0q-45.6-1.38-91.37-2.65h0q-26.69-.75-53.43-1.46h0q-29.86-.8-59.81-1.54l-3.95-.1-1.19,0q-31.2-.78-62.52-1.49-101.82-2.35-205-4-34-.52-68-.94-23.55-.28-47.14-.49l-6.48-.07v-9l6.48,0q23.49.1,47.14.3c182.56,1.56,369.66,7.54,549.73,11.15q59.39,1.2,118.08,3h0l15.23.47q53.55,1.68,106.81,3.64h0l14.86.53c3,.11,5.95.21,8.91.33h.07l11.87.44,36.74,1.35h.07l6.45.23h0l20,.74,4.45.16h.06l.33,0,8.76.32c5,.18,10,.37,15.07.54h0q9.47.34,19,.69l1.25,0,5.53.2,19.47.69h0l17.61.6q38.74,1.32,77.73,2.49,15.15.46,30.38.88c.95,0,1.89.05,2.86.07h0l16.6.44h0q17,.43,34,.82,11.19.27,22.39.49l3.66.07,16.22.32h.06l3.08.07c242.22,4.79,479.2,8.19,723.1,10.56h0l15.3.15h1.18l4.17.05,13.53.14,5.79,0,11.15.13,9.08.11c5.16,0,10.31.12,15.47.18l9.36.12,23.1.31h0c13.68.19,27.31.39,41,.61h0c10.55.16,21.15.33,31.7.51h0q54.24.9,108.35,2h.52q18.78.38,37.56.78a0,0,0,0,1,0,0,0,0,0,0,1,.05,0l9.62.2h.79l8.85.19,15.43.33,14.88.32,8.1.19h.55l11.54.26,15.21.34h0l19.35.45,1.9,0h0l8.16.19,24.09.55,5.5.13h0c113.09,2.63,226.11,5.41,339.43,7.72q130.64,2.65,262,4.2c345.68,3.69,692.14.3,1038,4q110.39,1.21,219.63,2h0l27.49.2-24.44,0h0c-38.69.06-77.36.21-116.22.52-98.25.82-196.15,2.27-294,3.49-96.16,1.22-193.61,2.45-290.59,2-85.76-.41-172.22-1.6-257.61,0-12.66.22-25.16.64-37.28,1.05-5.58.18-5.73.89-1.54,1.25C-1251-1.38-1107.49.56-977.54,1.6-829.67,2.76-680.47,2.46-532.39,3q107.36.38,214.65.51,194.4.27,388.78,0c203.08-.27,406-1.35,609.05-1.77q102.54-.21,204.5.61c320.52,2.36,638,10.35,960,9.22C1960.4,11.12,2076.31,10,2192,8.67q101.55-1.14,202.79-2.27c145.33-1.55,312.53-4.95,452.68,1.28-56.79,9.54-184.5,9.54-251,18.19-2.58.32-2.25.69.26,1,.26,0,.57.07.9.09,59.66,5,146,5,217.34,4.44,60.34-.47,120.27-1.64,179.29-3.22l18-.49q13.85-.39,27.63-.82l6.07-.18,13.83-.43L3073,25.8l6.19-.2h0q26.51-.88,52.6-1.83c107.89-3.91,213.35-8.89,312.75-14.95,44.9-2.72,91.33-5.75,132.82-9.34,27.55-2.39,53-5,74.3-8,.49-.07,1-.13,1.44-.21-442,4.74-1288.72,15.53,0-14.63.21,0-.42,0-.63-.05-5.72-.46-11.8-.88-18.16-1.24h0c-17.25-1-36.58-1.7-56.93-2.18s-41.75-.73-63-.86l-6.14,0h-3.07c-22.84-.11-45.42-.1-66.35-.07l-23.28,0c-98.09.11-195.93,1.23-293.64,2.22q-49,.5-98.06.92h0l-14,.12h-.07l-21.3.19h0l-76.19.66-3.7,0h-.71q-44.11.38-88.26.79l-2.87,0h-.54q-36,.32-72,.69c-135.32,1.4-272.68,2.6-408.8,1.79h-.15q-47.19-.27-94.15-.91h-.76l-9.07-.13H2231l-10.26-.16H2220q-9.33-.14-18.64-.3l-1.26,0,1.29-.07,8.88-.45h0l13.59-.68h0l17.33-.83,2.23-.1c75.59-3.51,153.66-6.13,233-8.31h0q48.14-1.32,96.89-2.46h0l37.55-.86h0l1.78,0h0l21.22-.47,32.75-.72h.66l18.79-.41c5.64-.12,11.28-.23,16.9-.36l21.49-.46h.63l3-.07q16.32-.33,32.63-.69h0l13.12-.28h0c125.22-2.71,249.9-5.63,369.59-10.38,65.73-2.62,128.79-5.7,189.71-9.21,77.48-4.46,151.52-9.61,223.28-15.32q10.38-.81,20.69-1.65c25-2,28.77.18,53.29-1.88.5,0,21.73-1.38,22.23-1.41,29.64-1.32,25.31,2.66,55.12,1.41,8.06-.34,40.51,2.93,48.6,2.59l0,18.59V32.84Z"/>
              </g>
            </g>
          </g>
        </g>
        <g>
          <g class="cls-10">
            <g class="cls-11">
              <g class="cls-12">
                <path class="cls-13" d="M346.79,210.73l4.21,0,110.31-.54,65.46-.31c7.85,0,15.72-.17,23.58-.12,5,0,21.44,3.6,17.51-6.17-1.39-3.43-4.88-5.16-8.09-6.57a608.84,608.84,0,0,0-199.54-49.73c22.39-7.52,45.29-15.32,63.38-31.77a16.88,16.88,0,0,0,5.33-10c1.47-10.07-6.94-15-14.28-18.29A516.78,516.78,0,0,0,232.73,42.6a106,106,0,0,0,39.16-21,9.71,9.71,0,0,0,3.47-7.51c-.1-5.27-4.32-6.91-8.06-8a196.52,196.52,0,0,0-55.23-8c6.17-9,24.49-8.46,22.79-19.24a9.45,9.45,0,0,0-6.57-7.59c-68.19-20.08-138.84-27.9-209.08-36a6.16,6.16,0,0,1-5.34-5.5c-.36-3.46,2.34-5.08,4.73-6.33L53.19-94.72a8.34,8.34,0,0,0,4.36-6.08c.87-5.76-4.6-8.28-9.12-9.59q-27-7.87-54.63-13.39l17.14-11.45a673.51,673.51,0,0,0-115-9.58c-29,.07-41.62,1.76-68.86-9.26-23.09-9.34-13.62-10.47-38.21-9.8-66.35,1.82-183,3.92-249.3,5.74-6.37.17-10.12,3-15.11,7.33s-2.41,7.78,3.08,11.27c-56.61,4.64-124,17-179.91,15.66-40.39-.94-81.51,19.09-144.62,38.37-18.87,5.76,32,21.1,35.59,26.14-79.91,1-124.65-10.94-203.52,3-7.13,1.26-67.07,19.33-78.66,23.24-25.68,15.49,22.71,23.33,29.93,23.15-31.53,5-144.24,22-115.68,28.82,50.34,12-71,4.27-122.49,29.69a17,17,0,0,0-7.67,9.38c-3,11.25,8.64,17.75,18.09,20.69,44,13.69,121.58,44.12,166.91,50.71a.41.41,0,0,1,0,.8c-90.36-15.91-232.75,34.18-232.75,34.18l-9.31-1.66v48.14Z"/>
              </g>
            </g>
            <g class="cls-14">
              <g class="cls-15">
                <path class="cls-13" d="M269.83,223.41l3.82,0,100.21-.53,59.46-.32c7.14,0,14.28-.17,21.42-.12,4.52,0,19.48,3.6,15.91-6.16-1.26-3.44-4.43-5.17-7.35-6.58A512.43,512.43,0,0,0,282,160c20.34-7.52,41.14-15.32,57.57-31.77a17.4,17.4,0,0,0,4.84-10c1.34-10.07-6.3-15-13-18.28A434.62,434.62,0,0,0,166.22,55.28a93.7,93.7,0,0,0,35.57-21,10.09,10.09,0,0,0,3.15-7.5c-.08-5.28-3.92-6.92-7.31-8a163.49,163.49,0,0,0-50.18-8c5.61-8.95,22.25-8.46,20.71-19.23a9.22,9.22,0,0,0-6-7.59C100.24-36.16,36.07-44-27.73-52.07a5.92,5.92,0,0,1-4.85-5.5c-.33-3.46,2.12-5.08,4.29-6.34L3.13-82a8.33,8.33,0,0,0,4-6.09c.79-5.76-4.18-8.28-8.28-9.59q-24.57-7.86-49.63-13.39l15.58-11.45a558.17,558.17,0,0,0-104.5-9.58c-26.31.07-37.8,1.76-62.55-9.26-21-9.33-12.37-10.47-34.71-9.8-60.27,1.82-166.19,3.93-226.46,5.74-5.78.18-9.19,3-13.72,7.34s-2.2,7.78,2.8,11.26c-51.43,4.65-112.63,17-163.43,15.66-36.69-.94-74.05,19.09-131.37,38.37-17.14,5.76,29.07,21.1,32.33,26.15-72.59,1-113.23-10.94-184.88,2.94-6.48,1.26-60.93,19.33-71.45,23.24C-1016.51-5-972.55,2.84-966,2.66c-28.64,5-131,22-105.09,28.82,45.73,12-64.48,4.27-111.26,29.7a16.62,16.62,0,0,0-7,9.37c-2.75,11.25,7.84,17.75,16.43,20.69,39.92,13.69,110.44,44.12,151.61,50.72a.41.41,0,0,1,0,.79c-82.07-15.91-211.42,34.18-211.42,34.18l-8.46-1.66v48.14Z"/>
              </g>
            </g>
          </g>
          <g class="cls-16">
            <rect class="cls-17" x="-1218.63" y="-145.25" width="1691.4" height="373.94"/>
          </g>
        </g>
      </g>
      <g>
        <ellipse class="cls-18" cx="13.64" cy="23.35" rx="6.84" ry="4.33" transform="translate(-9.86 36.74) rotate(-89.38)"/>
        <ellipse class="cls-19" cx="14.06" cy="23.48" rx="2.71" ry="4.5" transform="translate(-0.23 0.14) rotate(-0.57)"/>
        <ellipse class="cls-20" cx="15.73" cy="20.54" rx="0.78" ry="1.3" transform="translate(-0.17 0.13) rotate(-0.48)"/>
      </g>
      <path class="cls-21" d="M16.71,10a6.31,6.31,0,0,0-7.74,5s4-2.86,7.54-2.21C16.51,12.84,17.45,10.31,16.71,10Z"/>
      <path class="cls-22" d="M9.37,24.59s4.73,1.79,8.44.56c0,0,1-4.68-1.53-7.26a3.47,3.47,0,0,0-5-.24S9.17,19.1,9.37,24.59Z"/>
      <g class="cls-23">
        <g class="cls-24">
          <rect class="cls-25" x="-9485.88" y="-312.43" width="13191.7" height="5525.81"/>
        </g>
      </g>
    </g>
  </g>
</svg>
