<svg xmlns="http://www.w3.org/2000/svg" xmlns:xlink="http://www.w3.org/1999/xlink" width="27.71" height="39.46" viewBox="0 0 27.71 39.46">
  <defs>
    <style>
      .cls-1 {
        fill: none;
      }

      .cls-2 {
        isolation: isolate;
      }

      .cls-3 {
        clip-path: url(#clip-path);
      }

      .cls-4 {
        fill: #6de2fe;
      }

      .cls-5 {
        fill: #b3c661;
      }

      .cls-6 {
        opacity: 0.3;
      }

      .cls-7 {
        clip-path: url(#clip-path-2);
      }

      .cls-8 {
        mix-blend-mode: multiply;
      }

      .cls-9 {
        fill: #84e75a;
      }

      .cls-10 {
        clip-path: url(#clip-path-4);
      }

      .cls-11 {
        opacity: 0.21;
      }

      .cls-12 {
        clip-path: url(#clip-path-5);
      }

      .cls-13 {
        fill: #23490f;
      }

      .cls-14 {
        opacity: 0.56;
      }

      .cls-15 {
        clip-path: url(#clip-path-6);
      }

      .cls-16 {
        clip-path: url(#clip-path-7);
      }

      .cls-17 {
        fill: url(#radial-gradient);
      }

      .cls-18 {
        fill: #fff;
        stroke: #3d2e18;
        stroke-width: 0.5px;
      }

      .cls-18, .cls-21 {
        stroke-miterlimit: 10;
      }

      .cls-19 {
        fill: #2d2b21;
      }

      .cls-20 {
        fill: #f1efe8;
      }

      .cls-21 {
        fill: #ebb7ad;
        stroke: #323232;
        stroke-width: 0.25px;
      }

      .cls-22 {
        fill: #342517;
      }

      .cls-23 {
        clip-path: url(#clip-path-8);
      }

      .cls-24 {
        clip-path: url(#clip-path-9);
      }

      .cls-25 {
        fill: url(#linear-gradient);
      }
    </style>
    <clipPath id="clip-path">
      <rect class="cls-1" x="2060.09" y="-639.91" width="1280" height="720"/>
    </clipPath>
    <clipPath id="clip-path-2">
      <rect class="cls-1" x="-4658.85" y="-131.94" width="8468.38" height="314.12"/>
    </clipPath>
    <clipPath id="clip-path-4">
      <rect class="cls-1" x="-4720.09" y="-720.52" width="12896.26" height="900"/>
    </clipPath>
    <clipPath id="clip-path-5">
      <rect class="cls-1" x="-1316.57" y="-209.23" width="1885.03" height="374.76"/>
    </clipPath>
    <clipPath id="clip-path-6">
      <rect class="cls-1" x="-1241.14" y="-196.55" width="1712.33" height="374.76"/>
    </clipPath>
    <clipPath id="clip-path-7">
      <path class="cls-1" d="M-212.76-185.62c24.45,11,47.5,14.05,73.49,14A545.64,545.64,0,0,1-36-162.07l-15.39,11.46q24.72,5.51,49,13.39c4.05,1.31,9,3.83,8.18,9.59a8.33,8.33,0,0,1-3.91,6.09l-31,18.12c-2.15,1.26-4.57,2.88-4.25,6.34a5.9,5.9,0,0,0,4.8,5.5c63,8.09,126.4,15.92,187.59,36a9.2,9.2,0,0,1,5.9,7.6c1.52,10.77-14.91,10.27-20.45,19.23a159.34,159.34,0,0,1,49.56,8c3.35,1.09,7.14,2.74,7.23,8a10.2,10.2,0,0,1-3.12,7.51,92.43,92.43,0,0,1-35.13,21c56,3.56,111.46,18.74,163.24,44.66,6.59,3.3,14.13,8.22,12.81,18.29a17.48,17.48,0,0,1-4.78,10C318,105.15,297.44,113,277.35,120.47c61.36,5,122,21.89,179,49.74,2.88,1.41,6,3.14,7.26,6.58a7.66,7.66,0,0,1,.54,2.69H-1227.2V135.8l8.35,1.65s127.76-50.09,208.83-34.18c.4,0,.4-.73,0-.8-40.67-6.59-110.33-37-149.76-50.71-8.49-2.95-18.94-9.45-16.23-20.7.87-3.62,4-7.82,6.88-9.38C-1122.91-3.74-1014,4-1059.22-8c-25.62-6.83,75.51-23.87,103.8-28.82-6.48.17-49.9-7.66-26.86-23.16,10.4-3.91,64.18-22,70.58-23.24,47.16-9.26,80.71-7,119.07-4.83,19.2,1.1,48.19,6.22,72.11,5.88-3.21-5-57.43-24.39-40.49-30.15,56.62-19.28,93.51-39.31,129.76-38.37,50.18,1.29,110.63-11,161.43-15.67-4.94-3.48-3.84-13.26.64-17.55s10.64-4.65,16.35-4.82l178.58-5.45c4.82-.15,9.47-.27,14-.27,16.31,0,31.28,1.54,47.47,8.84"/>
    </clipPath>
    <radialGradient id="radial-gradient" cx="-7851.52" cy="180.43" r="1" gradientTransform="matrix(608.17, 0, 0, -367.21, 4774711.87, 66255.07)" gradientUnits="userSpaceOnUse">
      <stop offset="0" stop-color="#61dfff"/>
      <stop offset="0.14" stop-color="#5adaff"/>
      <stop offset="0.35" stop-color="#47caff"/>
      <stop offset="0.59" stop-color="#28b1ff"/>
      <stop offset="0.84" stop-color="#0091ff"/>
      <stop offset="1" stop-color="#0091ff"/>
    </radialGradient>
    <clipPath id="clip-path-8">
      <rect class="cls-1" x="2086.96" y="3434.76" width="1280" height="720"/>
    </clipPath>
    <clipPath id="clip-path-9">
      <rect class="cls-1" x="1926.96" y="3344.76" width="1600" height="900"/>
    </clipPath>
    <linearGradient id="linear-gradient" x1="-2890.03" y1="5446.74" x2="-2890.03" y2="-1537.11" gradientUnits="userSpaceOnUse">
      <stop offset="0" stop-color="#a4f2ff"/>
      <stop offset="0.23" stop-color="#69e3ff"/>
      <stop offset="0.45" stop-color="#34d5ff"/>
      <stop offset="0.57" stop-color="#1fd0ff"/>
      <stop offset="0.65" stop-color="#25c3ff"/>
      <stop offset="0.81" stop-color="#36a2ff"/>
      <stop offset="1" stop-color="#4d73ff"/>
    </linearGradient>
  </defs>
  <g class="cls-2">
    <g id="Layer_1" data-name="Layer 1">
      <g class="cls-3">
        <path class="cls-4" d="M4108.12,7.94l0-92.72v-30.37L4108-573.82l0-147.62-15622.49.31.06,186.17h0l0,129.29v105l0,63.92v1.61c1.2.12,1.78,4,2,9.53.19,5.81,0,13.52-.42,20.88s-.82,14.12-1.14,18.58h0c-.19,2.48-.35,4.21-.38,4.84v0a1.22,1.22,0,0,0,0,.23s0,0,.06.05c.41.58,5.24,6.79,7.85,7.15l0,89.05,0,59.93c4.39,15.44,6.55,30.06,2.35,46.16-.76,2.92-1.54,5.82-2.33,8.73l0,140.52v8h237.48l15029.66-.29h339.53l0-163.81h7.91Z"/>
        <path class="cls-5" d="M3763.47-225C2409-194-5785.73-218.21-11829.85-225V-69.79c8.91,9,17.29,18.81,20.46,28.3,7.48,22.43,13.62,41.68,7.89,63.74-5.82,22.41-12.69,44.54-22.2,66.64-2,4.76-4.14,9.51-6.15,14.28v76.18H3763.47Z"/>
        <g class="cls-6">
          <g class="cls-7">
            <g class="cls-8">
              <g class="cls-7">
                <path class="cls-9" d="M3756.55-12.36h5.61L3766,138.86h43.49v43.32H-4658.85V20.46l6.48-.06q23.59-.24,47.14-.53,81.78-1,163.2-2.29h0l14.35-.23h0q60.15-1,120.15-2C-4106.35,11.78-3906.8,8.82-3703.9,7l32.42-.29,6.61-.06,15.56-.14,14.65-.14q114.6-1,228.78-2.5,65.82-.9,131.18-2.1c50.5-.94,101-2.56,151.92-3.07,56-.58,100.32-1.46,129-7.29,1.7-.36.69-.71-2.16-.93-109.81-8-261.14-7.81-387.83-8.22q-57.33-.21-114.46-.63c-66-.44-131.87-.89-198-.84-118.58.09-237,.57-355.51,0-106.34-.55-226.25-1.46-320.19-7.47-17.53-1.12-33.22-2.55-46.69-4.24-11.4-1.42-10.34-1.43,2-2.67,14.22-1.39,30.64-2.49,47.34-3.47,62-3.71,135.15-5.11,204.14-6.28,64.2-1.07,129.18-1.63,193-2.91,98.88-2,196.7-5,294.53-7.47,111.55-2.84,223.78-5.76,337.27-7.49h0q13.56-.21,27.14-.39h.22q15.63-.21,31.32-.39c11-.12,22-.23,33-.33h1.66l15.93-.12,14.73-.1,18.36-.1h1.8q11.41,0,22.85-.06h0q10.53,0,21.09,0h3c157.47,0,314.86,2,472.41.94,30.69-.2,61.56-.53,92.1-1.07h0q23.57-.42,46.77-1l4.32-.11h0l11.27-.32q13.08-.39,26-.86c4.12-.14,8.2-.29,12.27-.45h.05l3.58-.15q23.53-.93,46.1-2.18c4.32-.26,3.68-.92,0-1.16-127.18-8.79-288.2-9.72-434.12-10.48-90.13-.46-178.44-1.22-267.42-2.92q-113.88-2.16-225.45-5.54l-16.32-.47-.66,0h0l-5.93-.17-26.54-.79-5.37-.16h-.19l-3.27-.11c-4.39-.12-8.79-.26-13.16-.39h-.11l-.48,0h0q-.42,0-.81,0-21.21-.63-42.38-1.29-38.72-1.2-77.38-2.44l-2.18-.06h0l-1.73-.06h0q-140.88-4.5-281.59-9.18h0l-17.27-.56a.34.34,0,0,0-.1,0l-3.39-.11-48.85-1.58-25.76-.81h0l-12.44-.4-18.17-.57-9.93-.31L-3989-108l-11.66-.36h0l-20.54-.63-5.24-.16-33.38-1h0q-45.6-1.36-91.37-2.64h0q-26.69-.76-53.43-1.46h0q-29.86-.8-59.81-1.55l-3.95-.09-1.19,0q-31.2-.78-62.52-1.5-101.82-2.34-205-4-34-.51-68-.93-23.55-.28-47.14-.5c-2.16,0-4.32,0-6.48-.06v-9l6.48,0q23.49.1,47.14.31c182.56,1.56,369.66,7.53,549.73,11.14q59.39,1.2,118.08,3h0l15.23.47q53.55,1.66,106.81,3.63h0l14.86.53,8.91.34h.07l11.87.43,36.74,1.35h.07l6.45.24h0l20,.74,4.45.16h.39l8.76.32,15.07.55h0l19,.69,1.25,0,5.53.19c6.49.24,13,.46,19.47.69h0l17.61.61q38.74,1.32,77.73,2.49,15.15.45,30.38.87l2.86.08h0l16.6.43h0q17,.45,34,.83,11.19.25,22.39.48l3.66.08,16.22.32h.06l3.08.07c242.22,4.79,479.2,8.19,723.1,10.56h0l15.3.15h1.18l4.17,0c4.51,0,9,.08,13.53.13,1.93,0,3.87,0,5.79.06l11.15.13,9.08.1,15.47.19c3.11,0,6.25.07,9.36.12l23.1.31h0c13.68.18,27.31.38,41,.6h0l31.7.51h0q54.24.91,108.35,2h.52q18.78.38,37.56.78a0,0,0,0,1,0,0,0,0,0,0,1,.05,0c3.2.06,6.42.12,9.62.2h.79l8.85.18,15.43.34,14.88.32,8.1.18h.55l11.54.26,15.21.34h0l19.35.44,1.9,0h0l8.16.2q12,.26,24.09.55l5.5.13h0c113.09,2.62,226.11,5.4,339.43,7.71q130.64,2.67,262,4.21c345.68,3.68,692.14.29,1038,4q110.39,1.22,219.63,2h0l27.49.2q-12.21,0-24.44.05h0c-38.69,0-77.36.21-116.22.52-98.25.81-196.15,2.26-294,3.49-96.16,1.22-193.61,2.45-290.59,2-85.76-.41-172.22-1.61-257.61,0-12.66.23-25.16.65-37.28,1.05-5.58.19-5.73.9-1.54,1.25,107.6,8.75,251.11,10.69,381.06,11.72,147.87,1.17,297.07.87,445.15,1.38q107.36.36,214.65.5,194.4.28,388.78,0c203.08-.28,406-1.35,609.05-1.77q102.54-.23,204.5.6c320.52,2.37,638,10.35,960,9.23,115.77-.4,231.68-1.56,347.34-2.85q101.55-1.14,202.79-2.27c145.33-1.55,312.53-4.94,452.68,1.29-56.79,9.54-184.5,9.54-251,18.18-2.58.33-2.25.69.26,1l.9.09c59.66,5,146,5,217.34,4.43,60.34-.47,120.27-1.64,179.29-3.21l18-.5q13.85-.39,27.63-.81l6.07-.19,13.83-.43,13.13-.43,6.19-.2h0q26.51-.87,52.6-1.83c107.89-3.91,213.35-8.89,312.75-14.94,44.9-2.73,91.33-5.75,132.82-9.34,27.55-2.4,53-5,74.3-8l1.44-.21c-442,4.73-1288.72,15.53,0-14.64.21,0-.42,0-.63-.05-5.72-.46-11.8-.87-18.16-1.24h0c-17.25-1-36.58-1.7-56.93-2.17s-41.75-.73-63-.87l-6.14,0-3.07,0c-22.84-.11-45.42-.09-66.35-.06l-23.28,0c-98.09.11-195.93,1.22-293.64,2.22q-49,.48-98.06.92h0l-14,.12h-.07l-21.3.19h0l-76.19.65-3.7,0h-.71q-44.11.38-88.26.79l-2.87,0h-.54q-36,.33-72,.7c-135.32,1.39-272.68,2.6-408.8,1.79h-.15q-47.19-.28-94.15-.91l-.76,0-9.07-.12H2231l-10.26-.16H2220q-9.33-.13-18.64-.3l-1.26,0,1.29-.07,8.88-.44h0c4.52-.24,9-.46,13.59-.68h0q8.64-.43,17.33-.83l2.23-.1c75.59-3.51,153.66-6.13,233-8.31h0q48.14-1.33,96.89-2.46h0q18.74-.45,37.55-.87h0l1.78,0h0l21.22-.47,32.75-.72h.66l18.79-.41,16.9-.36,21.49-.47h.63l3-.07,32.63-.7h0l13.12-.28h0C2899.28-87.09,3024-90,3143.65-94.76c65.73-2.61,128.79-5.69,189.71-9.2,77.48-4.47,151.52-9.61,223.28-15.32l20.69-1.66c25-2,28.77.18,53.29-1.87.5,0,21.73-1.39,22.23-1.41,29.64-1.32,25.31,2.65,55.12,1.41,8.06-.35,40.51,2.92,48.6,2.59l0,18.58v89.28Z"/>
              </g>
            </g>
          </g>
        </g>
        <g>
          <g class="cls-10">
            <g class="cls-11">
              <g class="cls-12">
                <path class="cls-13" d="M346.79,165.52l4.21,0L461.31,165l65.46-.32c7.85,0,15.72-.16,23.58-.11,5,0,21.44,3.59,17.51-6.17-1.39-3.43-4.88-5.17-8.09-6.57a608.85,608.85,0,0,0-199.54-49.74c22.39-7.52,45.29-15.31,63.38-31.77a16.82,16.82,0,0,0,5.33-10c1.47-10.07-6.94-15-14.28-18.28A516.8,516.8,0,0,0,232.73-2.61a105.82,105.82,0,0,0,39.16-21,9.74,9.74,0,0,0,3.47-7.51c-.1-5.27-4.32-6.91-8.06-8a196.16,196.16,0,0,0-55.23-8c6.17-9,24.49-8.47,22.79-19.24A9.44,9.44,0,0,0,228.29-74C160.1-94,89.45-101.87,19.21-110a6.17,6.17,0,0,1-5.34-5.5c-.36-3.46,2.34-5.08,4.73-6.34l34.59-18.12A8.34,8.34,0,0,0,57.55-146c.87-5.76-4.6-8.28-9.12-9.59Q21.39-163.46-6.2-169l17.14-11.46a675.54,675.54,0,0,0-115-9.58c-29,.08-41.62,1.76-68.86-9.26-23.09-9.33-13.62-10.47-38.21-9.79-66.35,1.81-183,3.92-249.3,5.73-6.37.18-10.12,3.05-15.11,7.34s-2.41,7.78,3.08,11.26c-56.61,4.65-124,17-179.91,15.66C-692.79-170-733.91-150-797-130.71c-18.87,5.77,32,21.11,35.59,26.15-79.91,1-124.65-10.94-203.52,3-7.13,1.25-67.07,19.32-78.66,23.23-25.68,15.5,22.71,23.33,29.93,23.16-31.53,4.95-144.24,22-115.68,28.82,50.34,12-71,4.27-122.49,29.69a16.92,16.92,0,0,0-7.67,9.38c-3,11.25,8.64,17.74,18.09,20.69,44,13.68,121.58,44.11,166.91,50.71a.41.41,0,0,1,0,.8C-1164.88,69-1307.27,119-1307.27,119l-9.31-1.65v48.13Z"/>
              </g>
            </g>
            <g class="cls-14">
              <g class="cls-15">
                <path class="cls-13" d="M269.83,178.21l3.82,0,100.21-.54,59.46-.32c7.14,0,14.28-.16,21.42-.11,4.52,0,19.48,3.59,15.91-6.17-1.26-3.43-4.43-5.16-7.35-6.57A512.45,512.45,0,0,0,282,114.74c20.34-7.52,41.14-15.31,57.57-31.77a17.37,17.37,0,0,0,4.84-10c1.34-10.07-6.3-15-13-18.29A434.8,434.8,0,0,0,166.22,10.07a93.67,93.67,0,0,0,35.57-21,10.11,10.11,0,0,0,3.15-7.51c-.08-5.27-3.92-6.91-7.31-8a163.49,163.49,0,0,0-50.18-8c5.61-9,22.25-8.46,20.71-19.24a9.22,9.22,0,0,0-6-7.59c-61.94-20.08-126.11-27.91-189.91-36a5.9,5.9,0,0,1-4.85-5.5c-.33-3.46,2.12-5.08,4.29-6.33L3.13-127.24a8.31,8.31,0,0,0,4-6.08c.79-5.77-4.18-8.28-8.28-9.6q-24.57-7.86-49.63-13.38l15.58-11.45a558.18,558.18,0,0,0-104.5-9.59c-26.31.08-37.8,1.76-62.55-9.25-21-9.34-12.37-10.48-34.71-9.8-60.27,1.81-166.19,3.92-226.46,5.74-5.78.17-9.19,3-13.72,7.33s-2.2,7.78,2.8,11.26c-51.43,4.65-112.63,17-163.43,15.66-36.69-.93-74.05,19.1-131.37,38.37-17.14,5.77,29.07,21.11,32.33,26.15-72.59,1-113.23-10.94-184.88,2.95-6.48,1.25-60.93,19.32-71.45,23.23-23.33,15.5,20.63,23.34,27.19,23.16-28.64,4.95-131,22-105.09,28.82,45.73,12-64.48,4.27-111.26,29.69a16.61,16.61,0,0,0-7,9.38C-1192,36.6-1181.46,43.1-1172.87,46c39.92,13.68,110.44,44.12,151.61,50.71a.42.42,0,0,1,0,.8c-82.07-15.91-211.42,34.17-211.42,34.17l-8.46-1.65v48.14Z"/>
              </g>
            </g>
          </g>
          <g class="cls-16">
            <rect class="cls-17" x="-1218.63" y="-190.45" width="1691.4" height="373.94"/>
          </g>
        </g>
      </g>
      <g>
        <ellipse class="cls-18" cx="13.6" cy="23.13" rx="6.84" ry="4.33" transform="translate(-9.67 36.47) rotate(-89.38)"/>
        <ellipse class="cls-19" cx="14.03" cy="23.26" rx="2.71" ry="4.5" transform="translate(-0.23 0.14) rotate(-0.57)"/>
        <ellipse class="cls-20" cx="15.7" cy="20.31" rx="0.78" ry="1.3" transform="matrix(1, -0.01, 0.01, 1, -0.17, 0.13)"/>
      </g>
      <path class="cls-21" d="M9.48,21.47s5.36-1.93,8.46.5c0,0-.64-5.84-4.58-5.65C13.36,16.32,10.32,16.74,9.48,21.47Z"/>
      <path class="cls-22" d="M16.74,10.25a6.32,6.32,0,0,0-7.74,5s4-2.86,7.54-2.21C16.54,13.07,17.48,10.54,16.74,10.25Z"/>
      <g class="cls-23">
        <g class="cls-24">
          <rect class="cls-25" x="-9485.88" y="-357.64" width="13191.7" height="5525.81"/>
        </g>
      </g>
    </g>
  </g>
</svg>
