<svg id="Layer_1" data-name="Layer 1" xmlns="http://www.w3.org/2000/svg" xmlns:xlink="http://www.w3.org/1999/xlink" width="1600" height="900" viewBox="0 0 1600 900">
  <defs>
    <style>
      .cls-1 {
        fill: none;
      }

      .cls-2 {
        clip-path: url(#clip-path);
      }

      .cls-3 {
        clip-path: url(#clip-path-2);
      }

      .cls-4 {
        fill: #191c3f;
      }

      .cls-5 {
        opacity: 0.8;
      }

      .cls-6 {
        opacity: 0.77;
      }

      .cls-7 {
        fill: #f4edf9;
      }

      .cls-8 {
        opacity: 0.76;
      }

      .cls-9 {
        opacity: 0.57;
      }

      .cls-10 {
        opacity: 0.88;
      }

      .cls-11 {
        fill: #f9f0bd;
      }

      .cls-12 {
        opacity: 0.79;
      }

      .cls-13 {
        opacity: 0.78;
      }

      .cls-14 {
        fill: #a0e6f9;
      }

      .cls-15 {
        opacity: 0.92;
      }

      .cls-16 {
        fill: #b8e9f4;
      }

      .cls-17 {
        opacity: 0.89;
      }

      .cls-18 {
        opacity: 1;
      }

      .cls-19 {
        opacity: 0.7;
      }

      .cls-20 {
        fill: #f9e9aa;
      }

      .cls-21 {
        opacity: 0.8;
      }

      .cls-22 {
        clip-path: url(#clip-path-3);
      }

      .cls-23 {
        clip-path: url(#clip-path-4);
      }

      .cls-24 {
        clip-path: url(#clip-path-5);
      }

      .cls-25 {
        fill: url(#linear-gradient);
      }

      .cls-26 {
        clip-path: url(#clip-path-6);
      }

      .cls-27 {
        opacity: 0.21;
      }

      .cls-28 {
        fill: #23490f;
      }

      .cls-29 {
        clip-path: url(#clip-path-7);
      }

      .cls-30 {
        clip-path: url(#clip-path-8);
      }

      .cls-31 {
        opacity: 0.67;
        fill: url(#linear-gradient-2);
      }

      .cls-32 {
        opacity: 0.56;
      }

      .cls-33 {
        fill: url(#radial-gradient);
      }

      .cls-34 {
        fill: #1c4c0b;
      }

      .cls-35 {
        fill: #123006;
      }

      .cls-36 {
        opacity: 0.33;
      }

      .cls-37 {
        fill: #fbf5b6;
      }

      .cls-38 {
        fill: #073f20;
      }
    </style>
    <clipPath id="clip-path">
      <rect class="cls-1" x="4829.68" y="-284.03" width="1600" height="900"/>
    </clipPath>
    <clipPath id="clip-path-2">
      <rect class="cls-1" x="-4251.79" y="577.77" width="11168.71" height="2050"/>
    </clipPath>
    <clipPath id="clip-path-3">
      <rect class="cls-1" x="-329.39" y="-1412.54" width="10800" height="2050"/>
    </clipPath>
    <clipPath id="clip-path-4">
      <rect class="cls-1" x="5029.25" y="1888.32" width="1280" height="720"/>
    </clipPath>
    <clipPath id="clip-path-5">
      <rect class="cls-1" x="4869.25" y="1798.32" width="1600" height="900"/>
    </clipPath>
    <linearGradient id="linear-gradient" x1="52.26" y1="3900.29" x2="52.26" y2="-3083.55" gradientUnits="userSpaceOnUse">
      <stop offset="0" stop-color="#a4f2ff"/>
      <stop offset="0.23" stop-color="#69e3ff"/>
      <stop offset="0.45" stop-color="#34d5ff"/>
      <stop offset="0.57" stop-color="#1fd0ff"/>
      <stop offset="0.65" stop-color="#25c3ff"/>
      <stop offset="0.81" stop-color="#36a2ff"/>
      <stop offset="1" stop-color="#4d73ff"/>
    </linearGradient>
    <clipPath id="clip-path-6">
      <rect class="cls-1" x="-1816" width="1600" height="900"/>
    </clipPath>
    <clipPath id="clip-path-7">
      <rect class="cls-1" x="160" y="90" width="1280" height="720"/>
    </clipPath>
    <clipPath id="clip-path-8">
      <rect class="cls-1" width="1600" height="900"/>
    </clipPath>
    <linearGradient id="linear-gradient-2" x1="2014.87" y1="749.96" x2="7077.64" y2="749.96" gradientTransform="matrix(-1.08, 0, 0, 1, 3672.36, 0)" gradientUnits="userSpaceOnUse">
      <stop offset="0.03" stop-color="#8ad866"/>
      <stop offset="0.57" stop-color="#207263"/>
    </linearGradient>
    <radialGradient id="radial-gradient" cx="951.36" cy="573.2" r="641.07" gradientTransform="translate(36.39 427.31) scale(0.95 0.54)" gradientUnits="userSpaceOnUse">
      <stop offset="0" stop-color="#61dfff"/>
      <stop offset="0.14" stop-color="#5adaff"/>
      <stop offset="0.35" stop-color="#47caff"/>
      <stop offset="0.59" stop-color="#28b1ff"/>
      <stop offset="0.84" stop-color="#0091ff"/>
    </radialGradient>
  </defs>
  <g class="cls-2">
    <g class="cls-3">
      <g>
        <rect class="cls-4" x="-4251.79" y="577.77" width="5584.35" height="2050"/>
        <rect class="cls-4" x="1332.56" y="577.77" width="5584.35" height="2050" transform="translate(8249.48 3205.54) rotate(-180)"/>
      </g>
      <g>
        <g>
          <g class="cls-5">
            <g class="cls-6">
              <path class="cls-7" d="M492.4,708.93l-.17,6a1.93,1.93,0,0,0,1.36,1.87l5.89,1.93-6.22-.16a2,2,0,0,0-1.94,1.3l-2,5.7.17-6a1.94,1.94,0,0,0-1.36-1.88l-5.89-1.93,6.22.17a2,2,0,0,0,1.94-1.31Z"/>
            </g>
            <path class="cls-7" d="M282.8,641.83l1.12,5.91a2,2,0,0,0,1.72,1.57l6.18.7-6.12,1.09a1.94,1.94,0,0,0-1.61,1.67l-.74,6-1.12-5.92a2,2,0,0,0-1.72-1.56l-6.18-.71,6.12-1.08a2,2,0,0,0,1.62-1.67Z"/>
            <g class="cls-8">
              <path class="cls-7" d="M717.33,459.81l.61,6a2,2,0,0,0,1.59,1.71l6.13,1.21-6.23.59a2,2,0,0,0-1.76,1.54l-1.25,5.93-.61-6a2,2,0,0,0-1.6-1.71l-6.13-1.21,6.23-.59a2,2,0,0,0,1.77-1.54Z"/>
            </g>
            <path class="cls-7" d="M923.75,687.58l-.17,6a1.93,1.93,0,0,0,1.36,1.87l5.89,1.93-6.22-.16a2,2,0,0,0-1.94,1.3l-2,5.7.17-6a1.94,1.94,0,0,0-1.36-1.88l-5.89-1.93,6.22.17a2,2,0,0,0,1.94-1.31Z"/>
            <g class="cls-9">
              <path class="cls-7" d="M70.11,305.94l-.21,7.19a2.31,2.31,0,0,0,1.62,2.24l7,2.31-7.44-.19a2.38,2.38,0,0,0-2.32,1.56l-2.39,6.82.21-7.2A2.3,2.3,0,0,0,65,316.43L58,314.12l7.44.2a2.38,2.38,0,0,0,2.32-1.57Z"/>
            </g>
            <path class="cls-7" d="M1148.61,504.39l-2.3,5.58a1.89,1.89,0,0,0,.6,2.21l4.85,3.78-5.78-2.23a2,2,0,0,0-2.29.58l-3.9,4.69,2.3-5.59a1.89,1.89,0,0,0-.6-2.21l-4.84-3.77,5.77,2.22a2,2,0,0,0,2.29-.58Z"/>
            <path class="cls-7" d="M941.92,331.71l-1.08,8.77a2.81,2.81,0,0,0,1.72,2.91l8.35,3.58-9.07-1a3,3,0,0,0-3,1.66l-3.7,8.07,1.08-8.77a2.8,2.8,0,0,0-1.72-2.91l-8.34-3.58,9.06,1a2.94,2.94,0,0,0,3-1.66Z"/>
            <g class="cls-10">
              <path class="cls-7" d="M1284.71,871.55l.44,6.23a2,2,0,0,0,1.59,1.81L1293,881l-6.45.42a2.06,2.06,0,0,0-1.87,1.54l-1.48,6.08-.44-6.23a2,2,0,0,0-1.59-1.81l-6.29-1.43,6.45-.43a2,2,0,0,0,1.87-1.53Z"/>
            </g>
            <path class="cls-11" d="M1255.43,328.7l1.88,5.73a2,2,0,0,0,1.92,1.34l6.22,0-5.93,1.82a1.94,1.94,0,0,0-1.39,1.85l.06,6-1.89-5.73a2,2,0,0,0-1.91-1.35l-6.22.06,5.92-1.83a1.91,1.91,0,0,0,1.39-1.85Z"/>
            <path class="cls-7" d="M963.7,888.52,969,901.21a4.54,4.54,0,0,0,4.57,2.73l14.09-1.14-13.11,5.1a4.34,4.34,0,0,0-2.82,4.42L972.88,926l-5.27-12.69a4.55,4.55,0,0,0-4.58-2.73l-14.09,1.14,13.12-5.1a4.35,4.35,0,0,0,2.82-4.42Z"/>
            <g class="cls-12">
              <path class="cls-7" d="M45.61,658.29l1,5.93a2,2,0,0,0,1.69,1.59l6.16.81-6.13,1a2,2,0,0,0-1.65,1.64l-.84,6-1-5.93a2,2,0,0,0-1.7-1.59L37,666.87l6.14-1a2,2,0,0,0,1.64-1.64Z"/>
            </g>
            <path class="cls-7" d="M286.9,423.88l-.48,6a1.92,1.92,0,0,0,1.26,1.94l5.78,2.21-6.2-.47a2,2,0,0,0-2,1.21l-2.28,5.6.48-6a1.92,1.92,0,0,0-1.26-1.94l-5.78-2.21,6.2.47a2,2,0,0,0,2-1.21Z"/>
            <path class="cls-7" d="M1043.93,758.7l-.17,6a1.93,1.93,0,0,0,1.35,1.88l5.89,1.92-6.22-.16a2,2,0,0,0-1.94,1.31l-2,5.69.17-6a1.94,1.94,0,0,0-1.35-1.87l-5.9-1.93,6.22.16a2,2,0,0,0,1.94-1.3Z"/>
            <path class="cls-7" d="M1259.73,495.47l-5,6.43a2.51,2.51,0,0,0,0,3.06l4.88,6.5-6.65-4.82a2.74,2.74,0,0,0-3.16,0l-6.72,4.72,5-6.42a2.51,2.51,0,0,0,0-3.06l-4.88-6.5,6.65,4.82a2.74,2.74,0,0,0,3.16,0Z"/>
            <g class="cls-13">
              <path class="cls-7" d="M952.33,588.81l1.81,6.83a2.32,2.32,0,0,0,2.15,1.7l7.28.34-7.06,1.75a2.27,2.27,0,0,0-1.76,2.08l-.35,7-1.81-6.83a2.32,2.32,0,0,0-2.15-1.7l-7.28-.33,7.06-1.76a2.26,2.26,0,0,0,1.76-2.07Z"/>
            </g>
            <path class="cls-7" d="M1055.17,633.2l-2.5,5.51a1.89,1.89,0,0,0,.52,2.23l4.7,3.93-5.69-2.42a2,2,0,0,0-2.31.5l-4.07,4.55,2.5-5.51a1.87,1.87,0,0,0-.52-2.23l-4.7-3.94,5.7,2.43a2,2,0,0,0,2.3-.5Z"/>
            <path class="cls-14" d="M662.13,777.84l-2.3,5.58a1.89,1.89,0,0,0,.6,2.21l4.84,3.78-5.77-2.23a2,2,0,0,0-2.29.58l-3.9,4.69,2.3-5.59a1.89,1.89,0,0,0-.6-2.21l-4.85-3.78,5.78,2.23a2,2,0,0,0,2.29-.58Z"/>
            <path class="cls-7" d="M229.81,765.69l1.54,5.83a2,2,0,0,0,1.84,1.44l6.21.29-6,1.5a1.93,1.93,0,0,0-1.49,1.77l-.3,6L230,776.7a2,2,0,0,0-1.84-1.45L222,775l6-1.5a1.94,1.94,0,0,0,1.49-1.77Z"/>
            <g class="cls-15">
              <path class="cls-16" d="M302.46,824.12l-.17,6a2,2,0,0,0,1.35,1.88l5.89,1.92-6.21-.16a2,2,0,0,0-1.94,1.31l-2,5.69.17-6a1.93,1.93,0,0,0-1.35-1.88L292.31,831l6.22.16a2,2,0,0,0,1.94-1.31Z"/>
            </g>
            <path class="cls-7" d="M54.31,804.33l-.17,6a1.91,1.91,0,0,0,1.35,1.87l5.89,1.93L55.16,814a2,2,0,0,0-1.94,1.31l-2,5.69.17-6a2,2,0,0,0-1.35-1.88l-5.9-1.92,6.22.16A2,2,0,0,0,52.31,810Z"/>
            <g class="cls-17">
              <path class="cls-7" d="M639.29,865.63l1.44,8a2.68,2.68,0,0,0,2.32,2.14l8.35,1-8.29,1.4a2.64,2.64,0,0,0-2.21,2.24l-1.07,8.07-1.44-8a2.65,2.65,0,0,0-2.32-2.13l-8.35-1,8.3-1.4a2.64,2.64,0,0,0,2.21-2.24Z"/>
            </g>
            <path class="cls-7" d="M1019.44,485l1.41,5.86a2,2,0,0,0,1.8,1.49l6.2.42-6.06,1.36a1.94,1.94,0,0,0-1.53,1.74l-.44,6-1.41-5.86a2,2,0,0,0-1.8-1.48l-6.2-.43,6.06-1.36A1.93,1.93,0,0,0,1019,491Z"/>
            <path class="cls-7" d="M1308.63,281.93l-1.72,5.78a1.9,1.9,0,0,0,.82,2.15l5.2,3.29-6-1.67a2,2,0,0,0-2.21.8l-3.42,5,1.73-5.78a1.91,1.91,0,0,0-.82-2.15l-5.2-3.29,6,1.67a2,2,0,0,0,2.21-.8Z"/>
          </g>
          <g class="cls-19">
            <path class="cls-7" d="M16.92,617a2,2,0,1,1-2-1.91A1.94,1.94,0,0,1,16.92,617Z"/>
            <path class="cls-7" d="M176.89,594.34a2,2,0,1,1-2-1.91A1.94,1.94,0,0,1,176.89,594.34Z"/>
            <path class="cls-7" d="M289.14,508.41a2,2,0,1,1-2-1.9A1.94,1.94,0,0,1,289.14,508.41Z"/>
            <path class="cls-7" d="M250.25,403a2,2,0,1,1-2-1.91A1.94,1.94,0,0,1,250.25,403Z"/>
            <path class="cls-7" d="M378.05,644a2,2,0,1,1-2-1.91A1.93,1.93,0,0,1,378.05,644Z"/>
            <path class="cls-7" d="M434.82,556.79a2,2,0,1,1-2-1.91A1.95,1.95,0,0,1,434.82,556.79Z"/>
            <path class="cls-20" d="M412.52,412.63a2,2,0,1,1-2-1.91A2,2,0,0,1,412.52,412.63Z"/>
            <path class="cls-7" d="M604.4,347.1a2,2,0,1,1-2-1.9A1.94,1.94,0,0,1,604.4,347.1Z"/>
            <path class="cls-7" d="M815.56,454.7a2,2,0,1,1-2-1.91A1.93,1.93,0,0,1,815.56,454.7Z"/>
            <path class="cls-7" d="M629.05,587a2,2,0,1,1-2-1.9A1.94,1.94,0,0,1,629.05,587Z"/>
            <path class="cls-7" d="M775.61,645.14a2,2,0,1,1-2-1.91A2,2,0,0,1,775.61,645.14Z"/>
            <path class="cls-7" d="M879.15,651.58a2,2,0,1,1-2-1.91A2,2,0,0,1,879.15,651.58Z"/>
            <path class="cls-7" d="M868.07,492.53a2,2,0,1,1-2-1.91A1.94,1.94,0,0,1,868.07,492.53Z"/>
            <path class="cls-7" d="M970,365.47a2,2,0,1,1-2-1.91A2,2,0,0,1,970,365.47Z"/>
            <path class="cls-7" d="M1096.7,390.21a2,2,0,1,1-2-1.91A2,2,0,0,1,1096.7,390.21Z"/>
            <path class="cls-7" d="M1130.19,454.93a2,2,0,1,1-2-1.9A1.94,1.94,0,0,1,1130.19,454.93Z"/>
            <path class="cls-7" d="M1134.52,558.11a2,2,0,1,1-2-1.91A1.94,1.94,0,0,1,1134.52,558.11Z"/>
            <path class="cls-7" d="M1195.86,609.75a2,2,0,1,1-2-1.91A1.94,1.94,0,0,1,1195.86,609.75Z"/>
            <path class="cls-20" d="M1090.17,765.57a2,2,0,1,1-2-1.91A1.94,1.94,0,0,1,1090.17,765.57Z"/>
            <path class="cls-7" d="M964.63,792.53a2,2,0,1,1-2-1.91A1.94,1.94,0,0,1,964.63,792.53Z"/>
            <path class="cls-7" d="M562.59,890.37a2,2,0,1,1-2-1.91A1.94,1.94,0,0,1,562.59,890.37Z"/>
            <ellipse class="cls-7" cx="504.04" cy="785.92" rx="1.97" ry="1.91"/>
            <path class="cls-7" d="M414.71,769.76a2,2,0,1,1-2-1.9A1.94,1.94,0,0,1,414.71,769.76Z"/>
            <path class="cls-7" d="M388.21,890.38a2,2,0,1,1-2-1.91A1.94,1.94,0,0,1,388.21,890.38Z"/>
            <path class="cls-7" d="M272.68,901.05a2,2,0,1,1-2-1.9A1.94,1.94,0,0,1,272.68,901.05Z"/>
            <path class="cls-7" d="M198.15,850.32a2,2,0,1,1-2-1.91A1.94,1.94,0,0,1,198.15,850.32Z"/>
            <path class="cls-7" d="M146.55,855.83a2,2,0,1,1-2-1.91A1.94,1.94,0,0,1,146.55,855.83Z"/>
            <path class="cls-7" d="M778,878.51a2,2,0,1,1-2-1.91A1.95,1.95,0,0,1,778,878.51Z"/>
            <path class="cls-7" d="M839.05,787.11a2,2,0,1,1-2-1.91A1.94,1.94,0,0,1,839.05,787.11Z"/>
            <path class="cls-7" d="M1289.32,682.79a2,2,0,1,1-2-1.9A1.94,1.94,0,0,1,1289.32,682.79Z"/>
            <path class="cls-20" d="M1171.19,287.08a2,2,0,1,1-2-1.91A1.94,1.94,0,0,1,1171.19,287.08Z"/>
            <path class="cls-7" d="M190.21,319.11a2,2,0,1,1-2-1.91A1.94,1.94,0,0,1,190.21,319.11Z"/>
            <path class="cls-7" d="M1275.83,405.49a2,2,0,1,1-2-1.91A1.95,1.95,0,0,1,1275.83,405.49Z"/>
            <path class="cls-7" d="M761.29,325.56a2,2,0,1,1-2-1.91A1.94,1.94,0,0,1,761.29,325.56Z"/>
            <path class="cls-14" d="M681.2,381.67a2,2,0,1,1-2-1.91A1.94,1.94,0,0,1,681.2,381.67Z"/>
            <ellipse class="cls-14" cx="178.28" cy="677.36" rx="1.97" ry="1.91"/>
            <path class="cls-14" d="M1235.86,762.46a2,2,0,1,1-2-1.91A2,2,0,0,1,1235.86,762.46Z"/>
          </g>
        </g>
        <g>
          <g class="cls-5">
            <path class="cls-7" d="M1555.64,845.13l4.22,4.41a2,2,0,0,0,2.32.43l5.61-2.6-4.57,4.09a1.87,1.87,0,0,0-.44,2.24l2.69,5.42-4.22-4.41a2,2,0,0,0-2.33-.43l-5.6,2.6,4.56-4.08a1.9,1.9,0,0,0,.45-2.25Z"/>
            <path class="cls-11" d="M1500.1,421.62l-6.1,9.21a3.4,3.4,0,0,0,.28,4.14l7.31,8.35-9.53-5.89a3.72,3.72,0,0,0-4.29.27l-8.63,7.06,6.1-9.2a3.4,3.4,0,0,0-.29-4.15l-7.3-8.35,9.52,5.9a3.72,3.72,0,0,0,4.29-.28Z"/>
            <g class="cls-21">
              <path class="cls-7" d="M1369.77,777.68l-.29,10.41a3.33,3.33,0,0,0,2.33,3.25l10.2,3.33-10.76-.28a3.46,3.46,0,0,0-3.36,2.26l-3.45,9.86.3-10.4a3.34,3.34,0,0,0-2.34-3.25l-10.2-3.34,10.76.29a3.45,3.45,0,0,0,3.36-2.27Z"/>
            </g>
          </g>
          <g class="cls-19">
            <ellipse class="cls-7" cx="1444.91" cy="315.98" rx="1.97" ry="1.91"/>
            <path class="cls-7" d="M1580.91,346.09a2,2,0,1,1-2-1.91A2,2,0,0,1,1580.91,346.09Z"/>
            <path class="cls-7" d="M1526.18,719.16a2,2,0,1,1-2-1.91A1.94,1.94,0,0,1,1526.18,719.16Z"/>
            <path class="cls-7" d="M1490.85,836.29a2,2,0,1,1-2-1.91A1.94,1.94,0,0,1,1490.85,836.29Z"/>
            <path class="cls-7" d="M1442.47,843.74a2,2,0,1,1-2-1.91A1.94,1.94,0,0,1,1442.47,843.74Z"/>
            <ellipse class="cls-7" cx="1421.64" cy="893.6" rx="1.97" ry="1.91"/>
            <path class="cls-7" d="M1356.14,384a2,2,0,1,1-2-1.9A1.94,1.94,0,0,1,1356.14,384Z"/>
          </g>
        </g>
      </g>
    </g>
    <g class="cls-22">
      <rect class="cls-4" x="-329.39" y="-1412.54" width="5400" height="2050"/>
    </g>
  </g>
  <g class="cls-23">
    <g class="cls-24">
      <rect class="cls-25" x="-6543.59" y="-1904.08" width="13191.7" height="5525.81"/>
    </g>
  </g>
  <g class="cls-26">
    <g class="cls-27">
      <path class="cls-28" d="M-1707.09,868.33c-21.52-.09,54-54.42-32-92.34-4.77-1.15-7-6.69-3.52-11.61,4.74-6.7,48-26.52,55.27-29.17,56.92-20.8,48.08-30.41,109.62-33.27a113.78,113.78,0,0,1-38.61-16.88,7.28,7.28,0,0,1-3.43-6c.1-4.23,4.26-5.55,8-6.43a234.75,234.75,0,0,1,54.47-6.4c-6.09-7.19-24.15-6.8-22.48-15.44.57-3,3.2-5.3,6.49-6.09,67.25-16.12,136.92-22.4,206.19-28.89,2.69-.25,5-2,5.27-4.41.35-2.78-2.3-4.08-4.67-5.09l-34.11-14.54a7,7,0,0,1-4.3-4.88c-.86-4.63,4.54-6.65,9-7.7q26.68-6.31,53.88-10.74l-16.91-9.19a814.5,814.5,0,0,1,113.46-7.69c28.56.06,41,1.41,67.91-7.43,22.77-7.49,13.43-8.4,37.68-7.86,65.43,1.45,180.44,3.14,245.86,4.6,6.29.14,10,2.44,14.91,5.89s2.38,6.24-3,9c55.83,3.73,122.27,13.61,177.44,12.57,39.83-.75,80.38,15.32,142.62,30.79,18.61,4.63-31.57,16.94-35.1,21,78.81.8,122.93-8.78,200.72,2.37,7,1,66.15,15.51,77.58,18.64,25.33,12.44-22.4,18.73-29.53,18.59,31.1,4,142.26,17.64,114.1,23.12-49.65,9.66,70,3.43,120.79,23.83,3.12,1.25,6.61,4.62,7.57,7.52,3,9-8.52,14.24-17.84,16.61-43.35,11-119.91,35.4-164.61,40.69a.32.32,0,1,0,0,.64C-199.4,759.36-59,799.55-59,799.55,62.71,824.37,1.9,915-38.94,929.31-38.94,929.31-1670.83,868.47-1707.09,868.33Z"/>
    </g>
  </g>
  <g class="cls-29">
    <g class="cls-30">
      <rect class="cls-1" x="-5467.9" width="7096.47" height="900"/>
      <path class="cls-31" d="M-563.68,732c3.17-7.38,15.47-.43,16.93,1.16,3.35,3.67,6.11,11.41,9.85.38a26.85,26.85,0,0,0-1.6-19.75c3.06,2.79,12.37,11.14,15.3,21.41,2.14-3.29,3.5-8.61,3.55-13.69,7,5.3,31.43,42.14,31.62,8.6,1.63,7.61,6.67,12.42,9.48,12.8,5.77.8,5.77-7.51,7.88-14.39,2.21,2.7,5.55,5.88,5.22,11.36,5.38-.84,6.68-19.92,2-25.32,2.43.94,13.13,10.07,14,18.46,1.39-5.11,5.21-12.93,8.52-14.22-3.27,15.33,2.5,19.13,8.07,7.62,4.18,4.64,3.72,10.56,9.23,7.12,3.58-2.23,7.93-10.25,7.39-18,2.21,10.19,4.13,25.75,11.83,15,.2,2.9,1.94,6.67,3.86,7.69,2.33,1.23,5-.92,6.68-3.61,4-6.29,5.85-20,7.33-28.68-.82,11.68-2.69,23.93,5,30.7,7,6.14,8.75-3,12.1-12.21-2.71,14.69,9.17-4.52,10.83-5.27-1.61,6.87,10,7.48,12.55,6.42,1-8.38,4.73-13.24,7.82-19.57.17,4.57-2.94,18.34-.16,21.63,2.41,2.86,5.14-5.46,6.54-7.9,2.15,6.48,5.11,6.72,9.69,3.29-.33,3,5.37,4.07,5.6,3.86,2.37-2.16,7.29-1.66,9.09-4.3,2.52-3.67,2.54-9.8,1.6-15,2.12,2.7,7.94,12.11,9.92,14.58,4.94-11.15,7.38-.5,12.47,3.19,6.27,4.55,9.78-4.78,8.69-18,2.45,12.3,13.31,32.12,16.47,14.51,2.73,7.16,2.22,12.09,7,3.78,3.07-5.27,4.77-13,8.52-17.94.1,3.95-1.15,14.3,1.45,16.55s5.73-5.21,5.62-9.56c2.23,6.47,5.51,14.12,8.23,3.44.52,10.85,6.5,12,8.79,3.33.52,6.35,3.25,8.41,5.52,4.29,2-3.7.81-13.71.22-18.91,2.45,11.17,6.45,24.57,11.87,15.49.43-.7,4.75-5.87,2.6-19,5.75,6.41,4.28,14.63,12.37,8.83,3-2.14,5.54-6.35,7.26-9.93.74,3.08,1.37,10,3.44,12.08,2.56,2.65,6.63-2.11,7.46-2,2.68.41,4,4.11,7.13,4.51,2.26.27,7.59,1.21,9.45-.61s2.22-8.78,2.71-11.94c.12,3.36,1.34,13.19,5.1,12.58,1.57-.25,2.87-4.07,5.54-4.4-.77.27-.13,5.82,1.72,5.79,4.86-.08,8.71-7.21,10.25-14.74,2.61,9.87,4.61,26.8,10.1,32.64,3.25-5.62,3.22-17.93,4.51-25.1,4.33,12.81,10.34,20.43,10.56-1.65.73,5.3,1.17,7.55,3,9.34,1.44,1.39,1.24-17,1.52-18.55,2.43,17.43,16,34.87,20.65,10.9-.11,6.41-1.93,21.12,2.72,22.53s11.54-13.82,12.83-21c.82,10.76.79,12.69,6,9.78,3.75-2.08,6.47-7.34,10.29-9.08.62,1.9,9.2,22.17,8.95,22.31,2.38-1.49,4.23-5.3,4.85-9.47,3.65,3.34,6.54,10.62,9.15,16.22,2.94-2.41,4.29-8.62,6.4-10.77,1,7.24,26.39,13.51,18.92-.95,5.8,5.46,11.92,10.27,18.46,5.55-.12-1.43,0-2.85,0-4.26,0,.88,9.28,12.8,10.25,13.09,4,1.22,6.67-4.7,6.56-11.24,1.53,7,4.19,16,8.82,10.32,3-3.72,2.27-11.86,2.58-17.27,2.25,1.77,8.93,19.64,13.13,17.61,4.74-2.3,5.42-32,9.53-19.28,5.57-3.41,7.84-16.87,11.89-20-2.91,4.19,2.57,22.71,4.92,25.8,3.51,4.63,9.5,11.77,13.4,7s4.55-16.86,4.89-25.78c1,8.36,3,14.27,5.6,18.41,1.65,2.55,4.7-8.69,4.92-10.13,3.07,2.72,3.64-4.45,3.8-8.73,3.29,9,5.82,24.21,13.54,21.41,8-2.89,7.63-17.78,8.37-31.39.55,8.84.8,21.82,4,28.88,3.7,8.19,9.75,2,10.11-9.64.38,4.24,1.1,13.94,4.14,15.21,3.33,1.38,4.39-7.44,5.93-11.26,1.28,4.67,2.89,13,6.84,12.24,7.22-1.37,4.25-23.41,10.74-8.47,3.63,8.32,4.2,11.06,9.41,2.65,4.24-6.83,7.81-17.8,12.64-22.92.49,6.1-4.47,20.86,1.59,23.59,3.07,1.37,6.46-7.15,8.59-10.24.45,8.68-.1,12.53,5,10.19,1.4-.65,4.32-6.24,5.54-6,6,1.22,7.65,21.58,14.57,23.38,3.49-6.85,3-22.4,6-26.28-3.32,9.41,14.81,15.87,20.39,8.45,2.69-3.55,3.58-11.12,3.87-16.56,5.55,9.24,3.73,20.94,6,31.9,4.23.46,5.93-11,7.83-16.23.63,7.55,5,10.52,7.24,3.14,3.47,14,9.62-.28,9.47-10.11,4.53,26.92,15-4.6,16.63-17.39-.29,13.58,3.25,21.36,6.79,26.78,1.17-4.43,3.26-8.07,3.37-13.07,1.6,1.89,5.39,21.74,5.87,21.67,2.38-.42,4-4.88,5.43-7.72,8.24,12.71,14.23-3.37,16.74-19,.73,7,11.08,10.8,6.07,21.21,4.08-4.48,6.59-9.91,10-13.53,0,0,.65,8.39.69,9.22,2.48.9,4.47-2.61,4.87-7,.18-1.79,7.09,5.49,7.9,5.41,3.86-.38,4.37-9.21.59-10.66,3.92-.56,9.55,10.12,10.83,10.64,4.75,1.81,10.25-10.93,12.93-13.76-1.63,3.67,1.08,14.28,4.87,15.77,6.09,2.41,10-10.93,12.52-15.65,4.35,2.38,6.12,9.74,7.77,14.82,3,.76,5-1.52,5.42-5,2.55,2.85,2.82,12.91,8.61,13.84.34,0,5.06-13.88,6-15.26a23.05,23.05,0,0,1,3.17,11.89c5.51-3.67,12,3.77,15.3,11.78,5.38-.89,4.79-19.48,4.58-25.5.7,3.44,3.46,18.66,6.6,18.39,2.93-.25,4-8.95,3.94-12.71,2,6.66,3.34,8.35,5.69,5.14,2-2.73,4.75-13.72,7.32-18-.76,5,4.85,24,6.31,24.72,4.23,1.95,7.1-12.53,7.88-17.22.46,5.59,1.18,20,5.73,20.52,2.87.37,4.36-6,6.38-8.95,5.46,14.48,13.2,6.74,13.56-9.51,6.45,8,5.6,22.62,9,25.61-.15-4.59,7.3-22.75,7.71-21.49,1.66,5,.36,16.82.85,22.77-.13-1.62,16.62-24.86,21.18-31.52-7.64,16-3.3,40.4,5.44,21.8.13,7.91.29,18.86,5.65,10.13,1.92,3.37,2.34,8.39,5.59,8.13,5.22-.44,8.91-21.81,9.48-31.28.29,5.52.76,16.27,3.49,18.11,2.31,1.56,4.75-2.78,7.08-2.89s4.63,3.22,7.23,2.81c.26-4.79,0-9.69.42-14.53,1.23,5.67,3,12.59,6.16,17.58,1.84-14.78,3.53-37.14,8.91-49.38-.49,1.12-.08,16.74-.13,19.09-.19,11.06,1.26,20.85,5.67,29.18,12.22,23.05,18.37-10.63,22.55-26-.58,10.89,2.57,26.79,7.52,33.77,1.58-2.53,2.65-6.24,3.66-9.68,3.68,12.85,5.61,14.58,11,4.62,2.67,10.67,7.58,6.55,9.89-2.14,1.93-7.29,1-16.09,2.68-23.63,5.23,5.5,10.4,21.2,12,31.48,3.7,1,6-5.31,9.06-4.17,2.81,1.07,4.5,10.34,7.55,12.26,5.53,3.53,5-8.8,9.56-10,4.12-1.09,6,9.58,11,7.2,5.27-2.47,9.13-18.69,11.92-25.8-.07,13.39-.25,22.9,9.14,24.13,2.34.3,2.8-2,5.14-.76,4.67,2.43,13.27,14.31,17.9,10.92,3.45-2.49,4.5-17.29,5.13-24,0,10,4.93,32.56,9.06,13.67,3.48,5.16,4.77,7.93,9.67,8.91,2.78.55,6.83-10,9.1-24.64,2.22,4.4,1.14,18.31,7,16.81,5.07-1.3,6.25-13.67,8.76-18,1.29,3.31,5.3,10.93,7,9.89-1.19-15.62,3.39-23.62,5.84-27.88-4,19.46,8.86,31.47,17.84,39.48.06-1.33,4-7.43,4.21-8.93,5.86,11,7.79.24,13-3.77.43,1.49-.34,7.73,3,8.85-.24-4.37,2.24-11.72,2.74-15.75,2.53,1.37,1.57,11.26,2.92,10.77,4.46-19.34,6.56-16.39,7.56-22.22,0,14.58,3.63,24.93,3.37,37.76,3.2-5,3.94-11,3.07-17.14,2.22,8.42,7.62,18.53,12.35,10.51,1.56-2.66,1.8-9.44,2.38-13,1.42,9,5.3,22.15,11.46,22.91,6.56.82,9.13-10.7,9.68-21.13.44,8,1.62,18.93,6.49,21.33,3.74,1.85,8.52-3.06,9.78-11.94,0,3.84,7,9.73,8.48,11.78,3.2,4.27,7,8.88,8,16,3.7-6.6,6.19-24.28,3-35.41,3.06,6.82,5.33,20.83,9.34,17.74,1.93-1.49,6.07-18.7,4.1-22.95,3.63,3.3,9.22,13.94,10.19,22.25,1.45-1.62,2.36-4.62,3.08-7.73,2.45,5.32,4.28,13.26,8.8,13.83,1.15-3.58,1.64-8.31.56-11.81,1.46,2.44,2.49,9.92,5.9,11.39.7-9.22,2.52-17,1.13-26.67,3.54,10.56,6.92,12.29,9.46,16.31,3.33,5.25,5.83,12.75,10.21,15.24s4.7-8.36,4.6-15.52c2.32,5.59,5.69,12.33,9.38,15.2.17-1.59,1.06-3,1.19-4.82,1.87.89,3.83,1.92,5.89,1.5.14-1.33.5-2.13.68-3.23,2.51,2.77,10.52,9.67,13.5,7.78,7.18-4.56,4.11-22.8,1.14-30.29,3.33,5.18,9.78,9.93,13.32,17.4,2.35,5,2.66,9.77,6.55,11.87,1.81-6.68,3.18-14.9,2.56-22.31,2.53,6.28,14.6,28.32,16.13,9.09,1.27,4.82,3.52,12.83,6.65,15,4.57,3.14,6.12-7.78,6.52-7.62,4.2,1.64,4.75-4.15,4.43-10.32,1.81,4.92,1.82,10.59,4.8,11.6,2.15.72,2.53-3.72,4.29-3,1.07.44,2.19,4.43,3.8,9.6V799.8H-563.68Z"/>
      <g>
        <g class="cls-27">
          <path class="cls-28" d="M1668.05,900.08l4.21,0,110.37-.51,65.49-.3c7.86,0,15.73-.15,23.59-.11,5,0,21.46,3.41,17.53-5.84-1.39-3.25-4.88-4.89-8.1-6.23A637.32,637.32,0,0,0,1681.5,840c22.4-7.12,45.31-14.5,63.41-30.09a15.76,15.76,0,0,0,5.34-9.43c1.47-9.54-7-14.2-14.3-17.32a540.57,540.57,0,0,0-182-42.3,107.84,107.84,0,0,0,39.17-19.92,8.94,8.94,0,0,0,3.47-7.11c-.09-5-4.31-6.55-8.06-7.59a207,207,0,0,0-55.26-7.56c6.18-8.48,24.5-8,22.81-18.22a9.12,9.12,0,0,0-6.58-7.19c-68.23-19-138.91-26.43-209.18-34.1a6,6,0,0,1-5.34-5.21c-.37-3.27,2.33-4.81,4.73-6l34.6-17.17a7.9,7.9,0,0,0,4.36-5.76c.87-5.46-4.6-7.84-9.11-9.09q-27.08-7.44-54.67-12.68L1332,572.38a711.26,711.26,0,0,0-115.1-9.08c-29,.07-41.64,1.67-68.89-8.77-23.11-8.84-13.63-9.92-38.24-9.28-66.37,1.72-183,3.72-249.42,5.43-6.37.17-10.13,2.89-15.12,7s-2.41,7.37,3.09,10.67c-56.65,4.4-124.05,16.07-180,14.84-40.41-.89-81.55,18.08-144.69,36.34-18.88,5.46,32,20,35.6,24.77-79.94.94-124.7-10.37-203.62,2.79-7.13,1.19-67.11,18.3-78.7,22-25.7,14.68,22.72,22.1,29.95,21.93-31.55,4.69-144.32,20.83-115.75,27.3,50.37,11.4-71,4-122.54,28.12a16.18,16.18,0,0,0-7.67,8.89c-3,10.65,8.63,16.81,18.09,19.6,44,13,121.65,41.78,167,48a.38.38,0,0,1,0,.76c-90.4-15.08-232.86,32.37-232.86,32.37l-9.31-1.57v45.6Z"/>
        </g>
        <g class="cls-32">
          <path class="cls-28" d="M1591.06,912.09l3.82,0,100.26-.51,59.48-.3c7.15,0,14.29-.15,21.44-.11,4.52,0,19.48,3.41,15.91-5.84-1.26-3.25-4.43-4.89-7.35-6.22A535.16,535.16,0,0,0,1603.27,852c20.35-7.13,41.16-14.51,57.6-30.1a16.12,16.12,0,0,0,4.85-9.43c1.33-9.54-6.31-14.19-13-17.32a454.19,454.19,0,0,0-165.34-42.3A95.1,95.1,0,0,0,1523,732.92a9.35,9.35,0,0,0,3.15-7.12c-.08-5-3.92-6.54-7.32-7.59a171.65,171.65,0,0,0-50.2-7.55c5.61-8.49,22.26-8,20.72-18.23a8.87,8.87,0,0,0-6-7.19c-62-19-126.18-26.43-190-34.1a5.7,5.7,0,0,1-4.85-5.21c-.33-3.27,2.12-4.81,4.29-6l31.44-17.17a7.87,7.87,0,0,0,4-5.76c.79-5.46-4.18-7.84-8.28-9.08q-24.6-7.45-49.66-12.68l15.58-10.85a588.18,588.18,0,0,0-104.55-9.08c-26.32.07-37.82,1.67-62.58-8.77-21-8.84-12.37-9.92-34.73-9.28C1023.67,559,917.69,561,857.39,562.7c-5.79.16-9.2,2.88-13.73,6.94s-2.2,7.37,2.8,10.67C795,584.72,733.78,596.38,683,595.15c-36.71-.89-74.09,18.08-131.44,36.34-17.15,5.46,29.09,20,32.34,24.77-72.62.94-113.28-10.36-185,2.79-6.48,1.19-61,18.31-71.5,22C304.06,695.74,348,703.16,354.6,703c-28.66,4.69-131.09,20.83-105.14,27.3,45.75,11.41-64.51,4.05-111.31,28.13a15.87,15.87,0,0,0-7,8.88c-2.74,10.65,7.85,16.81,16.44,19.6,39.95,13,110.5,41.79,151.7,48a.39.39,0,0,1,0,.76c-82.11-15.07-211.52,32.37-211.52,32.37l-8.46-1.57v45.6Z"/>
        </g>
        <path class="cls-33" d="M1586.51,917.52l3.78,0,99-.51,58.76-.3c7.06,0,14.12-.15,21.17-.1,4.47,0,19.25,3.4,15.72-5.85-1.24-3.25-4.38-4.89-7.26-6.22a523.22,523.22,0,0,0-179.13-47.12c20.1-7.12,40.65-14.51,56.89-30.1a16.16,16.16,0,0,0,4.79-9.43c1.32-9.54-6.23-14.2-12.82-17.32a444.12,444.12,0,0,0-163.32-42.31,93.58,93.58,0,0,0,35.15-19.92,9.43,9.43,0,0,0,3.12-7.11c-.09-5-3.88-6.55-7.24-7.59a168,168,0,0,0-49.58-7.56c5.54-8.49,22-8,20.46-18.22a8.8,8.8,0,0,0-5.9-7.19c-61.22-19-124.64-26.44-187.69-34.11a5.7,5.7,0,0,1-4.8-5.21c-.32-3.28,2.1-4.81,4.25-6l31-17.17a7.86,7.86,0,0,0,3.91-5.77c.78-5.45-4.13-7.84-8.18-9.08q-24.29-7.45-49.05-12.68L1285,589.78a574.1,574.1,0,0,0-103.27-9.08c-26,.07-49.06-2.8-73.52-13.24-20.73-8.84-39.44-8.75-61.52-8.11L868,564.51c-5.72.16-11.89.5-16.36,4.57s-5.58,13.32-.65,16.62c-50.82,4.4-111.3,16.07-161.51,14.84-36.27-.89-73.18,18.08-129.83,36.35-16.94,5.46,28.73,20,32,24.77-71.74.94-111.9-10.37-182.71,2.79-6.4,1.19-60.21,18.31-70.62,22-23.05,14.68,20.39,22.1,26.88,21.94-28.31,4.69-129.49,20.83-103.86,27.3,45.19,11.41-63.72,4-109.95,28.13a15.77,15.77,0,0,0-6.89,8.88c-2.71,10.66,7.75,16.81,16.24,19.6,39.45,13,109.15,41.8,149.84,48.05a.39.39,0,0,1,0,.75C229.44,826,101.61,873.49,101.61,873.49l-8.35-1.57v45.6Z"/>
      </g>
      <path class="cls-34" d="M-193.89,879.66c-24.79-4.63-24.4-25.25,4.91-25.48-19.7-15.15-3.59-36.8,23.82-26.71,6.71-14,27.34-16.25,30.88-.57,6.48-9.8,18-16.14,30.86-13.7-47.4-18.72,15.78-42.52,43.88-39.88-10.37-32.91,34.66-50.49,68.78-32.85,8.82-34.68,73-4.25,87.87,11.34,24.87-24.5,72.47-5.92,76,22,34-24.53,54.15,17.93,50.82,38.21,24.28-9.32,25.94,14.24,19.08,26.79,19.42-4.92,32.39,3,23.69,18,20.16-4.57,35.5,6,23.86,20.59,17.6-1.21,47.43.2,25.67,15.13,10.84-1.83,16.51,2.06,24.5,3-2.12,6.3-6.31,4.69-12.88,6.56l20.94,2.93c-10.73,14.42-41.13,13.27-56.48,3.63-9.88,5.7-4.13,5.44-17.81-.1-10.11,17.38-28.13,9.27-28.26-7.29-11,8.5-32,9.86-46.56,2.42,25,14.32-28.72,26.62-46.17,9.87-.45,16.82-30.46,12.24-37.7,1.4-7.65,12.79-26.46,14.48-42.14,9.21-24.58,27.45-45.39-6.36-67-13.59-3.57,13.65-23.94,15.07-39.32,9.92.5,2.67.09,6.14.61,8.91-22.29,3.79-47.25,6.95-66-5.1-11.58,10.93-35.37,6.47-37.82-8.27-14.36,5.63-34.71,8.53-36-7-11.95,0-25-.15-35.85-1.73,4.27-1.71,8.75-4.76,13.44-6.63a148,148,0,0,1-33.61-3.94C-223,886.36-208.77,881.84-193.89,879.66Z"/>
      <path class="cls-35" d="M317.51,939.47c4.82-.91,7.8.19,9.55-3.54-5.75-.83-9.71-3.36-17.62-2.6,16.27-8.32-5.26-10.14-18-10,8.94-8.45-1.78-15.32-16.53-13.21,6.82-8.82-2.28-14-16.49-11.66,5.4-7.36,5-21.66-12.87-16.81,3.13-12.14-9.93-38.45-35.41-24.73-1.55-17-35.32-29.76-54.18-15.76-10.19-9.9-55.55-30.36-63.15-9.68-23.36-11.42-55.31-3.12-51.36,15.88a28.69,28.69,0,0,0-5,1.43c-1.5,0-3.07,0-4.69.12-3.75-16-35.71-27.35-53.85-13.87-10.19-9.9-55.56-30.36-63.16-9.69-24.06-11.76-57.25-2.59-50.9,17.63-20.24-2.49-66.77,9.85-33.14,22.69A24,24,0,0,0-192.1,873c-2-9.6-17-8.87-22.35-.66-19.48-7-31.89,5.58-18.18,15.37-21.2-.8-22.21,11.65-4.44,15.25-10.84.84-21.32,3.11-25.24,9.21a126.21,126.21,0,0,0,24.17,3.47c-3.46,1-6.8,2.68-10,3.57,7.78,1.3,17.22,1.8,25.87,2.2.41,9.46,15.23,8.36,25.82,5.42,1.25,9,18.3,12.45,27.06,6.22,13.12,7.89,31.29,6.78,47.55,5.21-.29-1.69.13-3.77-.13-5.4,11,3.61,25.73,3.4,28.79-4.73,15.39,5.07,29.25,26.17,48,10.37,9.82,3.25,21.59,3.31,28.34-1.83,4.15,5.41,15.13,7.35,22.74,4a12.4,12.4,0,0,0,3.52-1.07c13.05,7.38,30.82,6.29,46.76,4.75-.29-1.69.13-3.77-.14-5.4,9.33,3.08,21.45,3.38,26.72-1.63a10.47,10.47,0,0,0,12.78,2.46c11.49,7.4,23,16.89,37.29,4.82,11.16,3.69,24.82,3.27,30.81-4.21,4.86,6.79,26.4,10.53,27.32.37,12,10.69,51.32,5,33.74-4.47,10.28,5,25.51,4.82,33.76,0-.49,10,12.26,15.49,20.18,5.31,9.71,3.79,5.53,3.77,12.88.64,10.77,6.32,32.72,8,41-.37Z"/>
      <g class="cls-36">
        <path class="cls-37" d="M24,903.8c-2.61,1.4-4.24-2.16-4.24-2.16a3.36,3.36,0,0,1-4.94-.9,4.4,4.4,0,0,1,.49-5.54,3.06,3.06,0,0,1-1.59-4.06c1.28-3.73,4.75-.31,4.75-.31s.29-5.05,3.63-3.45,1.92,5,1.92,5,4.2-.63,4.27,3.42-2.87,2.91-2.87,2.91S26.64,902.35,24,903.8Z"/>
        <path class="cls-37" d="M4.15,875.11C2,876,.85,873,.85,873a2.78,2.78,0,0,1-3.91-1.15,3.39,3.39,0,0,1,.61-4.37,2.55,2.55,0,0,1-1.1-3.34c1.17-2.85,3.81.17,3.81.17s.44-4,3-2.44A3.21,3.21,0,0,1,4.61,866s3.4-.11,3.28,3.13-2.38,2.05-2.38,2.05S6.28,874.22,4.15,875.11Z"/>
        <path class="cls-37" d="M167,895.06c-1.82,2.66-3.86.68-3.86.68s-1.9,3.38-4.2,2.12-.79-4.82-.79-4.82-2.29.69-2.09-2.36a3,3,0,0,1,3.76-3s-.82-4.3,2.21-4.94,2.6,3,2.6,3,3.29-3,4.2.31-1.7,4-1.7,4A4.35,4.35,0,0,1,167,895.06Z"/>
        <path class="cls-37" d="M139.72,873.87c-2.06.21-2.76-2.76-2.76-2.76s-2.32.69-3.45-2.05a2.79,2.79,0,0,1,1.11-3.75A2.63,2.63,0,0,1,134,862c1.43-2.25,3.47,1.17,3.47,1.17s.9-3.5,3.07-1.41a3.09,3.09,0,0,1,.7,4.09s3.12.79,2.63,3.65-2.44,1.22-2.44,1.22S141.79,873.63,139.72,873.87Z"/>
        <path class="cls-37" d="M120.15,871.88c-1.47,1.21-2.63-.66-2.63-.66s-1.59,1.66-3,.17,0-3.33,0-3.33-1.6-.24-1.14-2.18c.57-2.35,2.81-.84,2.81-.84s-.07-3.09,2-2.58,1.38,2.68,1.38,2.68,2.49-1,2.72,1.41-1.54,2.13-1.54,2.13A2.87,2.87,0,0,1,120.15,871.88Z"/>
        <path class="cls-37" d="M132.2,807.45c-2.36,1.31-3.83-1.92-3.83-1.92a3.08,3.08,0,0,1-4.5-.84,4,4,0,0,1,.45-5,2.76,2.76,0,0,1-1.45-3.67c1.16-3.4,4.33-.29,4.33-.29s.25-4.62,3.26-3.15a3.54,3.54,0,0,1,1.77,4.55s3.8-.56,3.9,3.11-2.62,2.63-2.62,2.63S134.59,806.17,132.2,807.45Z"/>
        <path class="cls-37" d="M113.84,789.78c-2,.79-3-1.91-3-1.91a2.55,2.55,0,0,1-3.56-1,3.12,3.12,0,0,1,.57-4,2.31,2.31,0,0,1-1-3c1-2.6,3.46.17,3.46.17s.4-3.65,2.74-2.23a2.91,2.91,0,0,1,1.21,3.78s3.1-.07,3,2.87-2.17,1.83-2.17,1.83S115.77,789,113.84,789.78Z"/>
        <path class="cls-37" d="M185,832.2c-1.66,2.42-3.52.61-3.52.61s-1.72,3.09-3.82,1.93-.71-4.35-.71-4.35-2.1.61-1.9-2.19a2.71,2.71,0,0,1,3.42-2.69s-.74-3.93,2-4.49,2.36,2.74,2.36,2.74,3-2.7,3.82.26-1.56,3.67-1.56,3.67A4,4,0,0,1,185,832.2Z"/>
        <path class="cls-37" d="M33.5,821.86c-2.38,2.14-4.38-1-4.38-1s-2.53,2.88-4.91.47-.2-5.62-.2-5.62-2.63-.31-2-3.55c.75-4.06,4.57-1.59,4.57-1.59s-.33-5.11,3.09-4.46,2.47,4.44,2.47,4.44,4-1.74,4.6,2.23-2.45,3.64-2.45,3.64S35.87,819.74,33.5,821.86Z"/>
        <path class="cls-37" d="M5.16,791c-1.79.65-2.7-1.85-2.7-1.85A2.31,2.31,0,0,1-.75,788a2.74,2.74,0,0,1,.56-3.59A2.15,2.15,0,0,1-1,781.6c1-2.34,3.13.28,3.13.28s.42-3.31,2.54-1.91a2.68,2.68,0,0,1,1.06,3.47s2.8,0,2.66,2.72-2,1.58-2,1.58S6.93,790.25,5.16,791Z"/>
        <path class="cls-37" d="M234.56,825c-1.81.79-2.77-1.7-2.77-1.7a2.32,2.32,0,0,1-3.31-.86,2.88,2.88,0,0,1,.55-3.65,2.07,2.07,0,0,1-.92-2.78c1-2.38,3.23.08,3.23.08s.38-3.37,2.56-2.14a2.66,2.66,0,0,1,1.1,3.46s2.87-.16,2.76,2.51-2,1.77-2,1.77S236.37,824.16,234.56,825Z"/>
        <path class="cls-37" d="M68.61,802.34c-1.49.79-2.36-1.21-2.36-1.21a1.91,1.91,0,0,1-2.76-.47,2.44,2.44,0,0,1,.31-3.06,1.65,1.65,0,0,1-.84-2.23c.72-2.09,2.65-.2,2.65-.2s.2-2.81,2-1.94a2.13,2.13,0,0,1,1,2.77s2.37-.33,2.37,1.93-1.6,1.58-1.6,1.58S70.07,801.53,68.61,802.34Z"/>
        <path class="cls-37" d="M214.34,809.61C213,810.73,212,809,212,809s-1.45,1.55-2.7.17,0-3,0-3-1.47-.2-1.05-1.94c.53-2.17,2.57-.8,2.57-.8s-.07-2.78,1.81-2.33,1.25,2.42,1.25,2.42,2.26-.89,2.48,1.32-1.41,1.93-1.41,1.93A2.53,2.53,0,0,1,214.34,809.61Z"/>
        <path class="cls-37" d="M91.11,811.15c-1.76,1.21-3-1.12-3-1.12s-1.92,1.72-3.42-.16.19-3.82.19-3.82a1.89,1.89,0,0,1-1.18-2.61c.76-2.63,3.24-.65,3.24-.65s.07-3.45,2.41-2.67,1.43,3.25,1.43,3.25,2.88-.79,3,2S92,807.55,92,807.55,92.87,809.94,91.11,811.15Z"/>
      </g>
      <path class="cls-38" d="M1760.93,914.57c28.54-6.52,60-16.91,68.26-22.31-17.29-.88-49.22,4.76-75.7,10.84l6-2.42c15.08-4.79,27.29-9.42,28.54-11.4,18.11-7.14,33-12.82,35.3-13.21-9.95.42-35.41,6.51-59.25,14.64-2.5.38-5,.79-7.54,1.22,32.47-16.39,68.53-35.22,71.83-39.59-6.88,0-33.76,10.77-61.45,23.42,14.6-10,28.19-20,34.88-25.84-6.8,2.15-14.87,5.12-23.34,8.62,7.24-6.5,14.47-13,21.43-19.2-2-1.61-9,1.28-18.33,6.69,12.57-13.07,21.32-23.93,20.62-27.5-12.71,9.91-26.45,20.37-39.54,30.62,8.69-8.83,16.88-17.76,23.39-25.1-5.54,2.72-13.94,7.93-23.26,14.22,15.56-21.26,28.3-40.27,30.28-46.56-3.57,1.64-20.68,21.64-39.44,44.46,2.82-4.77,5.53-9.5,8.06-14.07,7.1-8.12,13.08-14.93,17.1-19.32q-5.38,3.42-10.45,6.91a182.79,182.79,0,0,0,9.58-20.83c-.94,2-8,12.62-17.34,26.37q-8.49,6.22-16,12.57c3.9-10.3,7.4-20.42,10-29.54q3.47-4,7.07-8c-2.08,1.53-4.12,3.08-6.12,4.63a142.62,142.62,0,0,0,3.22-14.35c-2.7,3.7-7.36,11.8-12.82,22.18-6.34,5.39-12.21,10.87-17.64,16.38a91.52,91.52,0,0,0-.71-9.64s-.83,1.46-2.2,3.94c.58-4.41,1.11-8.84,1.58-13.24,5.62-15.61,10.6-30.43,14.29-42.88-4.18,5.2-8.27,10.82-12.26,16.74.28-6.24.4-12.33.32-18.19-2.91,9.23-6,20.19-9.13,32-6.69,11.09-13,22.84-18.77,34.65-.68-16.79-2.05-34.7-4.2-52.66-.08-10.39-.55-18.56-1.44-22.94-.4,1.15-.8,2.36-1.19,3.63q-1-6.35-2.08-12.62c.08,6.33.15,12.76.2,19.24-5.77,22.11-10.44,56.25-13.34,85.75q-.15-4.1-.3-8.27c.58-20.26.28-37-1.28-39.33-.74-24.9-1.14-45.28-.7-48.25-3.18,12.19-6.21,45.52-6.55,77.76-.51,3.19-1,6.4-1.48,9.63-5-46.18-11.13-97.76-14.4-103.6-2.46,8.32-1.24,45.34,1.63,84.17-4.89-21.88-10.19-42.55-13.76-53.14-.26,9.13-.16,20.14.34,31.86-4-11.53-8.06-23-11.85-34.07-2.21,1.6-2,10.14-.21,22.37,0,.44-.1.87-.16,1.3-8.57-20.08-16.25-34.65-20.08-35.32,5.53,19.57,11.23,40.62,17,60.8-5.87-14.26-12-28-17.17-38.95.58,5.79,2,14,3.88,23.58-.1,2.15-.16,4.29-.2,6.39-15.14-26-28.78-47.43-34.19-52.25.37,5,14.62,34.19,31.13,66.58-15.71-22.2-31.63-42-39.55-49.52,1.36,1.56,6.7,9.85,14,21.59a294.64,294.64,0,0,0,7.17,28.93c-13.38-13-26.35-24.3-36.67-30.95,5.44,9.37,25,34.66,46.32,59.25.5,1.32,1,2.63,1.52,3.94a117.44,117.44,0,0,0-11.35-6.38c-16.12-16.77-31.94-31.22-38.51-35,4.34,8.36,12,19.39,21.08,31-9.89-5.89-19.91-11.45-29.79-16.42a13.28,13.28,0,0,1-1.09-1.15c.18.29.37.59.58.9-8.42-4.22-16.71-8-24.72-11.22,13.72,12.21,32,27,51.22,41.85,5.12,5.27,10.59,10.66,16.13,15.85,1.64,2.11,3.31,4.23,5,6.34-30.35-21.8-64.57-45.71-69.81-46.58,3.48,6,24,23.56,47.08,41.68q-2.8-1-5.64-1.93c-12-6.26-22.75-11.48-29.23-14,2.31,2.25,4.87,4.64,7.62,7.13-17.68-5.31-36-10-54-13.52,13.24,5.3,26.91,10.87,40.52,16.48,2.31,2.73,7.16,6.39,13.58,10.5-17.11-5.1-30.43-7.78-32.91-5.35,14.68,6.79,30.33,14.27,45.48,21.26-11.67-3.63-23.16-6.75-32.48-9.11,5.12,3.75,13.75,8.92,23.72,14.39-25.24-3.79-47.18-6.1-53.25-4.8,3.21,2.48,28.27,8.32,56.45,14.29-21.64-1-42-.47-50.66,1.09,3.92-.26,42.16,4.17,75,8.24-26.17,2.62-55.08,7.1-71.45,13.56,9.31,1.37,39.06,1.09,67.49-1.13A89.41,89.41,0,0,0,1542,940.89s1.59,0,4.31.07c-17.17,7.4-33.91,15.89-48,25,25.75-5.49,63.88-16.69,95.45-27.14,1.6-.2,3.17-.42,4.7-.66a546,546,0,0,0-94.86,70.65c57.05-36.7,126.09-78.32,139.43-86.34.45.5.88,1,1.29,1.37.65-1.31,3.16-5.84,3.82-7.13h0c.54-1,1.12-2,1.42-2.63a13.92,13.92,0,0,0-2-.46c-.15-.34-.3-.71-.47-1.11,9.19,4,16,6.93,19.59,8.5-.08.82-.13,1.58-.16,2.29,1.59-.32,7.27-1.16,8.87-1.45h0c1.24-.2,2.57-.4,3.27-.53a17.9,17.9,0,0,0-1.15-2.34q.72-1.63,1.87-4.16c1.06-2,2.2-4.27,3.41-6.73,2.76-2.44,6-5.51,9.53-9.07-.08,6.14-.14,10.75-.18,13.48-.62.15-1.2.3-1.73.46.72,1.3,3.09,6,3.79,7.33h0c.52,1,1.08,2.12,1.4,2.7a13,13,0,0,0,1.36-1.61c1,.13,2.16.31,3.64.54,1.81.4,3.82.8,6,1.2,22.26,14.86,87.42,45.62,107,55.9-26.4-24-51.86-38.84-72-48a401.33,401.33,0,0,1,76,29.84,237.31,237.31,0,0,0-47.6-29.8c23.57,2.12,47.79,3.54,65.59,3.45C1813.46,924.7,1786.14,918.24,1760.93,914.57Zm-26.62-61.25-.24.35.06-.15Zm3.31-34.25c-3.83,7.76-7.76,16-11.5,24.33.7-3.63,1.23-7.32,1.61-11Q1732.46,825.79,1737.62,819.07Zm-133.47-2.68c3.77,6.15,7.64,12.46,11.46,18.74.16,1.35.32,2.68.49,4l-1.63-1.74C1611.07,830.3,1607.59,823.24,1604.15,816.39Z"/>
    </g>
  </g>
</svg>
