<svg id="Layer_1" data-name="Layer 1" xmlns="http://www.w3.org/2000/svg" xmlns:xlink="http://www.w3.org/1999/xlink" width="1600" height="900" viewBox="0 0 1600 900">
  <defs>
    <style>
      .cls-1 {
        fill: none;
      }

      .cls-2 {
        clip-path: url(#clip-path);
      }

      .cls-3 {
        clip-path: url(#clip-path-2);
      }

      .cls-4 {
        fill: #191c3f;
      }

      .cls-5 {
        opacity: 0.8;
      }

      .cls-6 {
        opacity: 0.77;
      }

      .cls-7 {
        fill: #f4edf9;
      }

      .cls-8 {
        opacity: 0.76;
      }

      .cls-9 {
        opacity: 0.81;
      }

      .cls-10 {
        opacity: 0.88;
      }

      .cls-11 {
        fill: #f9f0bd;
      }

      .cls-12 {
        opacity: 0.78;
      }

      .cls-13 {
        fill: #a0e6f9;
      }

      .cls-14 {
        opacity: 0.92;
      }

      .cls-15 {
        fill: #b8e9f4;
      }

      .cls-16 {
        opacity: 0.89;
      }

      .cls-17 {
        opacity: 1;
      }

      .cls-18 {
        opacity: 0.7;
      }

      .cls-19 {
        fill: #f9e9aa;
      }

      .cls-20 {
        fill: #100e33;
      }

      .cls-20, .cls-21 {
        opacity: 0.3;
      }

      .cls-22 {
        fill: #090921;
      }

      .cls-23 {
        fill: #c8c2ff;
        opacity: 0.5;
      }

      .cls-24 {
        clip-path: url(#clip-path-3);
      }

      .cls-25 {
        clip-path: url(#clip-path-4);
      }

      .cls-26 {
        fill: url(#linear-gradient);
      }

      .cls-27 {
        clip-path: url(#clip-path-5);
      }

      .cls-28 {
        clip-path: url(#clip-path-6);
      }

      .cls-29 {
        clip-path: url(#clip-path-7);
      }

      .cls-30 {
        fill: #063019;
      }

      .cls-31 {
        fill: #073f20;
      }

      .cls-32 {
        clip-path: url(#clip-path-8);
      }

      .cls-33 {
        clip-path: url(#clip-path-9);
      }

      .cls-34 {
        opacity: 0.21;
      }

      .cls-35 {
        clip-path: url(#clip-path-10);
      }

      .cls-36 {
        fill: #23490f;
      }

      .cls-37 {
        opacity: 0.56;
      }

      .cls-38 {
        clip-path: url(#clip-path-11);
      }

      .cls-39 {
        clip-path: url(#clip-path-12);
      }

      .cls-40 {
        fill: url(#radial-gradient);
      }

      .cls-41 {
        fill: #0c5118;
      }

      .cls-42 {
        fill: #0b3d12;
      }

      .cls-43 {
        fill: #0e2312;
      }

      .cls-44 {
        fill: #174226;
      }
    </style>
    <clipPath id="clip-path">
      <rect class="cls-1" x="2991.68" y="-1265.03" width="1600" height="900"/>
    </clipPath>
    <clipPath id="clip-path-2">
      <rect class="cls-1" x="-6089.79" y="-403.23" width="11168.71" height="2050"/>
    </clipPath>
    <clipPath id="clip-path-3">
      <rect class="cls-1" x="3191.25" y="907.32" width="1280" height="720"/>
    </clipPath>
    <clipPath id="clip-path-4">
      <rect class="cls-1" x="3031.25" y="817.32" width="1600" height="900"/>
    </clipPath>
    <linearGradient id="linear-gradient" x1="-1785.74" y1="2919.29" x2="-1785.74" y2="-4064.55" gradientUnits="userSpaceOnUse">
      <stop offset="0" stop-color="#a4f2ff"/>
      <stop offset="0.23" stop-color="#69e3ff"/>
      <stop offset="0.45" stop-color="#34d5ff"/>
      <stop offset="0.57" stop-color="#1fd0ff"/>
      <stop offset="0.65" stop-color="#25c3ff"/>
      <stop offset="0.81" stop-color="#36a2ff"/>
      <stop offset="1" stop-color="#4d73ff"/>
    </linearGradient>
    <clipPath id="clip-path-5">
      <rect class="cls-1" x="-1678" y="-891" width="1280" height="720"/>
    </clipPath>
    <clipPath id="clip-path-6">
      <rect class="cls-1" x="151" y="-891" width="1280" height="720"/>
    </clipPath>
    <clipPath id="clip-path-7">
      <rect class="cls-1" x="-9" y="-981" width="1600" height="900"/>
    </clipPath>
    <clipPath id="clip-path-8">
      <rect class="cls-1" x="160" y="90" width="1280" height="720"/>
    </clipPath>
    <clipPath id="clip-path-9">
      <rect class="cls-1" width="1600" height="900"/>
    </clipPath>
    <clipPath id="clip-path-10">
      <rect class="cls-1" x="-24.27" y="511.74" width="1885.03" height="374.76"/>
    </clipPath>
    <clipPath id="clip-path-11">
      <rect class="cls-1" x="51.17" y="524.42" width="1712.33" height="374.76"/>
    </clipPath>
    <clipPath id="clip-path-12">
      <path class="cls-1" d="M1079.55,535.35c24.45,11,47.5,14,73.49,14a544.63,544.63,0,0,1,103.21,9.58l-15.38,11.46q24.72,5.5,49,13.39c4,1.31,9,3.83,8.18,9.59a8.31,8.31,0,0,1-3.91,6.08l-31,18.13c-2.15,1.26-4.56,2.88-4.24,6.34a5.9,5.9,0,0,0,4.79,5.5c63,8.09,126.41,15.91,187.6,36a9.2,9.2,0,0,1,5.9,7.6c1.52,10.77-14.91,10.27-20.45,19.23a159.38,159.38,0,0,1,49.56,8c3.35,1.09,7.14,2.74,7.23,8a10.26,10.26,0,0,1-3.12,7.51,92.28,92.28,0,0,1-35.13,21c56,3.57,111.45,18.75,163.23,44.67,6.59,3.3,14.14,8.21,12.82,18.29a17.43,17.43,0,0,1-4.79,9.95c-16.23,16.46-36.77,24.26-56.86,31.78,61.36,5,122,21.89,179,49.74,2.88,1.41,6,3.14,7.26,6.57a8,8,0,0,1,.54,2.7H65.11V856.76l8.35,1.66s127.76-50.09,208.83-34.18a.42.42,0,0,0,0-.8c-40.67-6.59-110.33-37-149.77-50.71-8.48-3-18.94-9.45-16.22-20.7.87-3.62,4-7.82,6.88-9.38C169.39,717.23,278.26,725,233.09,713c-25.62-6.83,75.5-23.87,103.8-28.83-6.48.18-49.91-7.65-26.87-23.15,10.4-3.91,64.19-22,70.59-23.24,47.15-9.26,80.71-7,119.06-4.83,19.21,1.1,48.2,6.22,72.12,5.88-3.21-5-57.43-24.39-40.5-30.15,56.62-19.28,93.52-39.31,129.76-38.38,50.18,1.3,110.63-11,161.43-15.66-4.93-3.48-3.83-13.26.65-17.55s10.64-4.65,16.35-4.83l178.58-5.44c4.82-.15,9.47-.27,14-.27,16.3,0,31.27,1.54,47.47,8.84"/>
    </clipPath>
    <radialGradient id="radial-gradient" cx="-6746.92" cy="-2355.85" r="1" gradientTransform="matrix(608.17, 0, 0, -367.21, 4104213.92, -864362.99)" gradientUnits="userSpaceOnUse">
      <stop offset="0" stop-color="#61dfff"/>
      <stop offset="0.14" stop-color="#5adaff"/>
      <stop offset="0.35" stop-color="#47caff"/>
      <stop offset="0.59" stop-color="#28b1ff"/>
      <stop offset="0.84" stop-color="#0091ff"/>
      <stop offset="1" stop-color="#0091ff"/>
    </radialGradient>
  </defs>
  <g class="cls-2">
    <g class="cls-3">
      <rect class="cls-4" x="-505.44" y="-403.23" width="5584.35" height="2050" transform="translate(4573.48 1243.54) rotate(-180)"/>
      <g>
        <g>
          <g>
            <g class="cls-5">
              <g class="cls-6">
                <path class="cls-7" d="M330.44,612.45l-.17,6a1.94,1.94,0,0,0,1.36,1.88l5.89,1.93-6.22-.17a2,2,0,0,0-1.94,1.31l-2,5.7.18-6a1.93,1.93,0,0,0-1.36-1.87l-5.89-1.93,6.22.16a2,2,0,0,0,1.94-1.3Z"/>
              </g>
              <path class="cls-7" d="M120.84,545.34l1.12,5.92a2,2,0,0,0,1.72,1.56l6.18.71-6.12,1.08a2,2,0,0,0-1.62,1.67l-.73,6-1.12-5.91a2,2,0,0,0-1.72-1.57l-6.18-.7,6.12-1.09a2,2,0,0,0,1.62-1.66Z"/>
              <g class="cls-8">
                <path class="cls-7" d="M555.36,363.32l.62,6a2,2,0,0,0,1.59,1.7l6.13,1.21-6.23.59a2,2,0,0,0-1.76,1.54l-1.25,5.93-.61-6a2,2,0,0,0-1.6-1.71l-6.13-1.2,6.23-.6a2,2,0,0,0,1.77-1.54Z"/>
              </g>
              <path class="cls-7" d="M761.79,591.1l-.17,6A1.94,1.94,0,0,0,763,599l5.9,1.93-6.22-.17a2,2,0,0,0-1.94,1.31l-2,5.7.17-6a1.91,1.91,0,0,0-1.35-1.87l-5.89-1.93,6.22.16a2,2,0,0,0,1.94-1.3Z"/>
              <g class="cls-9">
                <path class="cls-7" d="M2.11,895.2l-.17,6a2,2,0,0,0,1.36,1.88L9.19,905,3,904.85A2,2,0,0,0,1,906.16l-2,5.69.17-6A1.93,1.93,0,0,0-2.15,904L-8,902l6.22.16a2,2,0,0,0,1.94-1.31Z"/>
              </g>
              <path class="cls-7" d="M986.65,407.9l-2.3,5.59a1.89,1.89,0,0,0,.6,2.21l4.84,3.77L984,417.25a2,2,0,0,0-2.29.58l-3.9,4.68,2.3-5.58a1.9,1.9,0,0,0-.6-2.22l-4.85-3.77,5.78,2.23a2.06,2.06,0,0,0,2.29-.58Z"/>
              <path class="cls-7" d="M780,235.23,778.88,244a2.82,2.82,0,0,0,1.72,2.92l8.34,3.58-9.06-1a2.93,2.93,0,0,0-3,1.66l-3.7,8.07,1.08-8.77a2.83,2.83,0,0,0-1.72-2.92l-8.34-3.57,9.06,1a3,3,0,0,0,3-1.66Z"/>
              <g class="cls-10">
                <path class="cls-7" d="M1122.75,775.06l.44,6.23a2,2,0,0,0,1.59,1.81l6.29,1.43-6.45.43a2.05,2.05,0,0,0-1.87,1.54l-1.48,6.08-.44-6.23a2,2,0,0,0-1.59-1.81l-6.29-1.43,6.45-.43a2.05,2.05,0,0,0,1.87-1.54Z"/>
              </g>
              <path class="cls-11" d="M1093.46,232.22l1.89,5.73a2,2,0,0,0,1.91,1.34l6.22-.06-5.92,1.83a1.91,1.91,0,0,0-1.39,1.85l0,6-1.88-5.73a2,2,0,0,0-1.91-1.34l-6.22.05,5.92-1.82a1.92,1.92,0,0,0,1.39-1.85Z"/>
              <path class="cls-7" d="M801.74,792,807,804.72a4.52,4.52,0,0,0,4.57,2.73l14.09-1.14-13.12,5.1a4.39,4.39,0,0,0-2.82,4.43l1.18,13.62-5.27-12.68a4.55,4.55,0,0,0-4.58-2.73L787,815.19l13.12-5.1a4.38,4.38,0,0,0,2.82-4.43Z"/>
              <path class="cls-7" d="M124.94,327.4l-.48,6a1.91,1.91,0,0,0,1.25,1.94l5.79,2.21-6.2-.46a2,2,0,0,0-2,1.21L121,343.88l.48-6a1.93,1.93,0,0,0-1.26-1.94l-5.78-2.21,6.2.46a2,2,0,0,0,2-1.21Z"/>
              <path class="cls-7" d="M882,662.21l-.17,6a1.93,1.93,0,0,0,1.36,1.87L889,672l-6.22-.16a2,2,0,0,0-1.94,1.3l-2,5.7.17-6A1.94,1.94,0,0,0,877.7,671l-5.89-1.93,6.22.17a2,2,0,0,0,1.94-1.31Z"/>
              <path class="cls-7" d="M1097.77,399l-5,6.43a2.49,2.49,0,0,0,0,3.05l4.88,6.5-6.65-4.82a2.72,2.72,0,0,0-3.16,0l-6.72,4.72,5-6.43a2.49,2.49,0,0,0,0-3.05l-4.88-6.5,6.65,4.82a2.72,2.72,0,0,0,3.15,0Z"/>
              <g class="cls-12">
                <path class="cls-7" d="M790.37,492.33l1.81,6.83a2.29,2.29,0,0,0,2.14,1.69l7.29.34-7.07,1.75a2.28,2.28,0,0,0-1.75,2.08l-.35,7.05-1.81-6.83a2.32,2.32,0,0,0-2.15-1.7l-7.28-.34,7.06-1.75a2.27,2.27,0,0,0,1.76-2.08Z"/>
              </g>
              <path class="cls-7" d="M893.21,536.72l-2.5,5.5a1.86,1.86,0,0,0,.52,2.23l4.7,3.94-5.7-2.42a2,2,0,0,0-2.3.5L883.85,551l2.51-5.5a1.88,1.88,0,0,0-.52-2.23l-4.7-3.94,5.69,2.42a2,2,0,0,0,2.31-.5Z"/>
              <path class="cls-13" d="M500.17,681.35l-2.3,5.59a1.89,1.89,0,0,0,.6,2.21l4.84,3.77-5.78-2.22a2,2,0,0,0-2.28.58l-3.9,4.68,2.3-5.59a1.89,1.89,0,0,0-.6-2.21l-4.85-3.77,5.78,2.23a2.06,2.06,0,0,0,2.29-.58Z"/>
              <path class="cls-7" d="M67.85,669.21,69.39,675a2,2,0,0,0,1.84,1.45l6.21.29-6,1.49A1.94,1.94,0,0,0,69.92,680l-.3,6-1.54-5.83a2,2,0,0,0-1.84-1.44L60,678.48l6-1.49a1.94,1.94,0,0,0,1.49-1.77Z"/>
              <g class="cls-14">
                <path class="cls-15" d="M140.5,727.63l-.17,6a1.93,1.93,0,0,0,1.35,1.87l5.89,1.93-6.22-.16a2,2,0,0,0-1.94,1.3l-2,5.7.17-6a1.93,1.93,0,0,0-1.35-1.88l-5.89-1.93,6.22.17a2,2,0,0,0,1.94-1.31Z"/>
              </g>
              <g class="cls-16">
                <path class="cls-7" d="M477.33,769.15l1.44,8a2.66,2.66,0,0,0,2.32,2.14l8.35,1-8.3,1.4a2.64,2.64,0,0,0-2.21,2.23L477.87,792l-1.44-8a2.67,2.67,0,0,0-2.32-2.14l-8.35-1,8.3-1.4a2.65,2.65,0,0,0,2.21-2.24Z"/>
              </g>
              <path class="cls-7" d="M857.48,388.48l1.41,5.86a2,2,0,0,0,1.8,1.48l6.2.43-6.06,1.36a1.94,1.94,0,0,0-1.53,1.74l-.44,6-1.41-5.86a2,2,0,0,0-1.8-1.49l-6.2-.42,6.06-1.36a1.94,1.94,0,0,0,1.53-1.74Z"/>
              <path class="cls-7" d="M1146.67,185.45l-1.73,5.78a1.9,1.9,0,0,0,.83,2.14l5.2,3.3-6-1.67a2,2,0,0,0-2.22.79l-3.41,5,1.73-5.77a1.9,1.9,0,0,0-.82-2.15l-5.2-3.3,6,1.67a2,2,0,0,0,2.22-.79Z"/>
            </g>
            <g class="cls-18">
              <path class="cls-7" d="M14.92,497.85a2,2,0,1,1-2-1.9A1.94,1.94,0,0,1,14.92,497.85Z"/>
              <path class="cls-7" d="M127.18,411.93a2,2,0,1,1-2-1.91A1.94,1.94,0,0,1,127.18,411.93Z"/>
              <path class="cls-7" d="M88.28,306.5a2,2,0,1,1-2-1.9A1.94,1.94,0,0,1,88.28,306.5Z"/>
              <path class="cls-7" d="M216.09,547.49a2,2,0,1,1-2-1.91A1.94,1.94,0,0,1,216.09,547.49Z"/>
              <path class="cls-7" d="M272.86,460.31a2,2,0,1,1-2-1.91A1.94,1.94,0,0,1,272.86,460.31Z"/>
              <path class="cls-19" d="M250.56,316.15a2,2,0,1,1-2-1.91A1.94,1.94,0,0,1,250.56,316.15Z"/>
              <path class="cls-7" d="M442.44,250.62a2,2,0,1,1-2-1.91A1.94,1.94,0,0,1,442.44,250.62Z"/>
              <path class="cls-7" d="M653.6,358.21a2,2,0,1,1-2-1.9A1.94,1.94,0,0,1,653.6,358.21Z"/>
              <path class="cls-7" d="M467.09,490.54a2,2,0,1,1-2-1.91A1.94,1.94,0,0,1,467.09,490.54Z"/>
              <path class="cls-7" d="M613.64,548.66a2,2,0,1,1-2-1.91A1.93,1.93,0,0,1,613.64,548.66Z"/>
              <path class="cls-7" d="M717.19,555.1a2,2,0,1,1-2-1.91A1.94,1.94,0,0,1,717.19,555.1Z"/>
              <path class="cls-7" d="M706.1,396a2,2,0,1,1-2-1.9A1.94,1.94,0,0,1,706.1,396Z"/>
              <path class="cls-7" d="M808.07,269a2,2,0,1,1-2-1.9A1.94,1.94,0,0,1,808.07,269Z"/>
              <path class="cls-7" d="M934.73,293.72a2,2,0,1,1-2-1.9A1.94,1.94,0,0,1,934.73,293.72Z"/>
              <path class="cls-7" d="M968.23,358.45a2,2,0,1,1-2-1.91A2,2,0,0,1,968.23,358.45Z"/>
              <path class="cls-7" d="M972.56,461.62a2,2,0,1,1-2-1.9A1.94,1.94,0,0,1,972.56,461.62Z"/>
              <path class="cls-7" d="M1033.9,513.27a2,2,0,1,1-2-1.91A1.94,1.94,0,0,1,1033.9,513.27Z"/>
              <path class="cls-19" d="M928.21,669.09a2,2,0,1,1-2-1.91A1.94,1.94,0,0,1,928.21,669.09Z"/>
              <path class="cls-7" d="M802.67,696.05a2,2,0,1,1-2-1.91A1.93,1.93,0,0,1,802.67,696.05Z"/>
              <path class="cls-13" d="M577.06,884.24a2,2,0,1,1-2-1.91A1.94,1.94,0,0,1,577.06,884.24Z"/>
              <path class="cls-7" d="M400.63,793.89a2,2,0,1,1-2-1.91A1.94,1.94,0,0,1,400.63,793.89Z"/>
              <ellipse class="cls-7" cx="342.08" cy="689.44" rx="1.97" ry="1.91"/>
              <path class="cls-7" d="M252.75,673.28a2,2,0,1,1-2-1.91A1.94,1.94,0,0,1,252.75,673.28Z"/>
              <path class="cls-7" d="M226.25,793.89a2,2,0,1,1-2-1.9A1.94,1.94,0,0,1,226.25,793.89Z"/>
              <path class="cls-7" d="M110.72,804.57a2,2,0,1,1-2-1.91A1.95,1.95,0,0,1,110.72,804.57Z"/>
              <path class="cls-7" d="M36.19,753.84a2,2,0,1,1-2-1.91A1.95,1.95,0,0,1,36.19,753.84Z"/>
              <path class="cls-7" d="M56,854.35a2,2,0,1,1-2-1.91A1.94,1.94,0,0,1,56,854.35Z"/>
              <path class="cls-7" d="M952.56,808.92a2,2,0,1,1-2-1.9A1.94,1.94,0,0,1,952.56,808.92Z"/>
              <path class="cls-7" d="M1044,816.41a2,2,0,1,1-2-1.9A1.94,1.94,0,0,1,1044,816.41Z"/>
              <path class="cls-7" d="M616,782a2,2,0,1,1-2-1.91A1.94,1.94,0,0,1,616,782Z"/>
              <path class="cls-7" d="M677.08,690.63a2,2,0,1,1-2-1.91A1.94,1.94,0,0,1,677.08,690.63Z"/>
              <path class="cls-7" d="M1127.36,586.31a2,2,0,1,1-2-1.91A2,2,0,0,1,1127.36,586.31Z"/>
              <path class="cls-19" d="M1009.23,190.6a2,2,0,1,1-2-1.91A1.94,1.94,0,0,1,1009.23,190.6Z"/>
              <path class="cls-7" d="M28.25,222.63a2,2,0,1,1-2-1.91A1.93,1.93,0,0,1,28.25,222.63Z"/>
              <path class="cls-7" d="M1113.87,309a2,2,0,1,1-2-1.91A1.94,1.94,0,0,1,1113.87,309Z"/>
              <path class="cls-7" d="M599.33,229.08a2,2,0,1,1-2-1.91A1.94,1.94,0,0,1,599.33,229.08Z"/>
              <path class="cls-13" d="M519.24,285.19a2,2,0,1,1-2-1.91A1.93,1.93,0,0,1,519.24,285.19Z"/>
              <ellipse class="cls-13" cx="16.32" cy="580.87" rx="1.97" ry="1.91"/>
              <path class="cls-13" d="M1073.9,666a2,2,0,1,1-2-1.9A1.94,1.94,0,0,1,1073.9,666Z"/>
            </g>
          </g>
          <g>
            <g class="cls-5">
              <path class="cls-7" d="M1523.34,591.1l.17,6a1.94,1.94,0,0,1-1.35,1.88l-5.9,1.93,6.22-.17a2,2,0,0,1,1.94,1.31l2,5.7-.17-6a1.91,1.91,0,0,1,1.35-1.87l5.89-1.93-6.22.16a2,2,0,0,1-1.94-1.3Z"/>
              <path class="cls-7" d="M1298.48,407.9l2.3,5.59a1.89,1.89,0,0,1-.6,2.21l-4.84,3.77,5.77-2.22a2,2,0,0,1,2.29.58l3.9,4.68-2.3-5.58a1.9,1.9,0,0,1,.6-2.22l4.85-3.77-5.78,2.23a2.06,2.06,0,0,1-2.29-.58Z"/>
              <path class="cls-7" d="M1505.17,235.23l1.08,8.76a2.82,2.82,0,0,1-1.72,2.92l-8.34,3.58,9.06-1a2.93,2.93,0,0,1,3,1.66l3.7,8.07-1.08-8.77a2.83,2.83,0,0,1,1.72-2.92l8.34-3.57-9.06,1a3,3,0,0,1-3-1.66Z"/>
              <g class="cls-10">
                <path class="cls-7" d="M1162.38,775.06l-.44,6.23a2,2,0,0,1-1.59,1.81l-6.29,1.43,6.45.43a2.05,2.05,0,0,1,1.87,1.54l1.48,6.08.44-6.23a2,2,0,0,1,1.59-1.81l6.29-1.43-6.45-.43a2.05,2.05,0,0,1-1.87-1.54Z"/>
              </g>
              <path class="cls-11" d="M1191.67,232.22l-1.89,5.73a2,2,0,0,1-1.91,1.34l-6.22-.06,5.92,1.83a1.91,1.91,0,0,1,1.39,1.85l0,6,1.88-5.73a2,2,0,0,1,1.92-1.34l6.21.05-5.92-1.82a1.92,1.92,0,0,1-1.39-1.85Z"/>
              <path class="cls-7" d="M1483.39,792l-5.28,12.68a4.52,4.52,0,0,1-4.57,2.73l-14.09-1.14,13.12,5.1a4.39,4.39,0,0,1,2.82,4.43l-1.18,13.62,5.27-12.68a4.56,4.56,0,0,1,4.58-2.73l14.09,1.14-13.12-5.1a4.38,4.38,0,0,1-2.82-4.43Z"/>
              <path class="cls-7" d="M1403.17,662.21l.17,6a1.93,1.93,0,0,1-1.36,1.87l-5.89,1.93,6.22-.16a2,2,0,0,1,1.94,1.3l2,5.7-.17-6a1.94,1.94,0,0,1,1.36-1.88l5.89-1.93-6.22.17a2,2,0,0,1-1.94-1.31Z"/>
              <path class="cls-7" d="M1187.36,399l5,6.43a2.49,2.49,0,0,1,0,3.05l-4.88,6.5,6.65-4.82a2.72,2.72,0,0,1,3.16,0l6.72,4.72-5-6.43a2.49,2.49,0,0,1,0-3.05l4.88-6.5-6.64,4.82a2.74,2.74,0,0,1-3.16,0Z"/>
              <g class="cls-12">
                <path class="cls-7" d="M1494.76,492.33l-1.81,6.83a2.29,2.29,0,0,1-2.14,1.69l-7.29.34,7.07,1.75a2.28,2.28,0,0,1,1.75,2.08l.35,7.05,1.81-6.83a2.32,2.32,0,0,1,2.15-1.7l7.28-.34-7.06-1.75a2.26,2.26,0,0,1-1.75-2.08Z"/>
              </g>
              <path class="cls-7" d="M1391.92,536.72l2.5,5.5a1.87,1.87,0,0,1-.51,2.23l-4.71,3.94,5.7-2.42a2,2,0,0,1,2.3.5l4.08,4.54-2.51-5.5a1.88,1.88,0,0,1,.52-2.23l4.7-3.94-5.69,2.42a2,2,0,0,1-2.31-.5Z"/>
              <path class="cls-7" d="M1427.65,388.48l-1.41,5.86a2,2,0,0,1-1.8,1.48l-6.2.43,6.06,1.36a1.94,1.94,0,0,1,1.53,1.74l.44,6,1.41-5.86a2,2,0,0,1,1.8-1.49l6.2-.42-6.06-1.36a1.94,1.94,0,0,1-1.53-1.74Z"/>
              <path class="cls-7" d="M1138.46,185.45l1.73,5.78a1.88,1.88,0,0,1-.83,2.14l-5.2,3.3,6-1.67a2,2,0,0,1,2.22.79l3.41,5-1.73-5.77a1.9,1.9,0,0,1,.82-2.15l5.2-3.3-6,1.67a2,2,0,0,1-2.22-.79Z"/>
            </g>
            <g class="cls-18">
              <path class="cls-7" d="M1567.94,555.1a2,2,0,1,0,2-1.91A1.94,1.94,0,0,0,1567.94,555.1Z"/>
              <path class="cls-7" d="M1579,396a2,2,0,1,0,2-1.9A1.94,1.94,0,0,0,1579,396Z"/>
              <path class="cls-7" d="M1477.06,269a2,2,0,1,0,2-1.9A1.94,1.94,0,0,0,1477.06,269Z"/>
              <path class="cls-7" d="M1350.4,293.72a2,2,0,1,0,2-1.9A1.94,1.94,0,0,0,1350.4,293.72Z"/>
              <path class="cls-7" d="M1316.9,358.45a2,2,0,1,0,2-1.91A2,2,0,0,0,1316.9,358.45Z"/>
              <path class="cls-7" d="M1312.57,461.62a2,2,0,1,0,2-1.9A1.94,1.94,0,0,0,1312.57,461.62Z"/>
              <path class="cls-7" d="M1251.23,513.27a2,2,0,1,0,2-1.91A1.94,1.94,0,0,0,1251.23,513.27Z"/>
              <path class="cls-19" d="M1356.92,669.09a2,2,0,1,0,2-1.91A1.94,1.94,0,0,0,1356.92,669.09Z"/>
              <path class="cls-7" d="M1482.46,696.05a2,2,0,1,0,2-1.91A1.93,1.93,0,0,0,1482.46,696.05Z"/>
              <path class="cls-7" d="M1332.57,808.92a2,2,0,1,0,2-1.9A1.94,1.94,0,0,0,1332.57,808.92Z"/>
              <path class="cls-7" d="M1241.18,816.41a2,2,0,1,0,2-1.9A1.94,1.94,0,0,0,1241.18,816.41Z"/>
              <path class="cls-7" d="M1157.77,586.31a2,2,0,1,0,2-1.91A2,2,0,0,0,1157.77,586.31Z"/>
              <path class="cls-19" d="M1275.9,190.6a2,2,0,1,0,2-1.91A1.94,1.94,0,0,0,1275.9,190.6Z"/>
              <path class="cls-7" d="M1171.26,309a2,2,0,1,0,2-1.91A1.94,1.94,0,0,0,1171.26,309Z"/>
              <path class="cls-13" d="M1211.23,666a2,2,0,1,0,2-1.9A1.94,1.94,0,0,0,1211.23,666Z"/>
            </g>
          </g>
        </g>
        <g>
          <g>
            <g class="cls-5">
              <g class="cls-9">
                <path class="cls-7" d="M2.11,10.68l-.17,6A1.94,1.94,0,0,0,3.3,18.57L9.19,20.5,3,20.33A2,2,0,0,0,1,21.64l-2,5.7.17-6a1.94,1.94,0,0,0-1.36-1.88L-8,17.52l6.22.17A2,2,0,0,0,.12,16.38Z"/>
              </g>
              <path class="cls-7" d="M159.45,107.76l-.27,9.69a3.1,3.1,0,0,0,2.17,3l9.5,3.11-10-.26a3.2,3.2,0,0,0-3.13,2.1l-3.21,9.18.27-9.69a3.1,3.1,0,0,0-2.17-3l-9.5-3.11,10,.27a3.2,3.2,0,0,0,3.13-2.11Z"/>
              <path class="cls-11" d="M951.55,92l-1.63,5.81a1.91,1.91,0,0,0,.86,2.13l5.26,3.21-6-1.57a2,2,0,0,0-2.21.83l-3.32,5.08,1.63-5.8a1.89,1.89,0,0,0-.86-2.13L940,96.33l6,1.58a2,2,0,0,0,2.21-.83Z"/>
            </g>
            <g class="cls-18">
              <path class="cls-13" d="M577.06-.28a2,2,0,0,1-2,1.91,1.94,1.94,0,0,1-2-1.91,1.94,1.94,0,0,1,2-1.91A2,2,0,0,1,577.06-.28Z"/>
              <path class="cls-7" d="M162.86,21.5a2,2,0,1,1-2-1.91A1.93,1.93,0,0,1,162.86,21.5Z"/>
              <path class="cls-7" d="M261.71,79.57a2,2,0,1,1-2-1.91A1.94,1.94,0,0,1,261.71,79.57Z"/>
              <path class="cls-7" d="M403.87,52.47a2,2,0,1,1-2-1.91A2,2,0,0,1,403.87,52.47Z"/>
              <path class="cls-19" d="M629.2,75.18a2,2,0,1,1-2-1.91A1.94,1.94,0,0,1,629.2,75.18Z"/>
              <path class="cls-13" d="M684.05,80.53a2,2,0,1,1-2-1.91A1.93,1.93,0,0,1,684.05,80.53Z"/>
              <path class="cls-7" d="M888.05,50.26a2,2,0,1,1-2-1.91A1.94,1.94,0,0,1,888.05,50.26Z"/>
              <path class="cls-7" d="M1082.7,69.4a2,2,0,1,1-2-1.91A1.94,1.94,0,0,1,1082.7,69.4Z"/>
              <path class="cls-7" d="M1103.72,168.43a2,2,0,1,1-2-1.91A1.94,1.94,0,0,1,1103.72,168.43Z"/>
              <ellipse class="cls-7" cx="423.01" cy="136.58" rx="1.97" ry="1.91"/>
              <path class="cls-7" d="M53.9,143.05a2,2,0,1,1-2-1.91A1.94,1.94,0,0,1,53.9,143.05Z"/>
              <path class="cls-7" d="M971.34,146a2,2,0,1,1-2-1.91A1.94,1.94,0,0,1,971.34,146Z"/>
            </g>
          </g>
          <g>
            <g class="cls-5">
              <path class="cls-11" d="M1333.58,92l1.63,5.81a1.89,1.89,0,0,1-.86,2.13l-5.26,3.21,6-1.57a2,2,0,0,1,2.21.83l3.32,5.08-1.63-5.8a1.9,1.9,0,0,1,.86-2.13l5.26-3.22-6,1.58a2,2,0,0,1-2.21-.83Z"/>
            </g>
            <g class="cls-18">
              <path class="cls-7" d="M1397.08,50.26a2,2,0,1,0,2-1.91A1.94,1.94,0,0,0,1397.08,50.26Z"/>
              <path class="cls-7" d="M1202.43,69.4a2,2,0,1,0,2-1.91A1.94,1.94,0,0,0,1202.43,69.4Z"/>
              <path class="cls-7" d="M1181.42,168.43a2,2,0,1,0,2-1.91A1.93,1.93,0,0,0,1181.42,168.43Z"/>
              <path class="cls-7" d="M1313.79,146a2,2,0,1,0,2-1.91A1.94,1.94,0,0,0,1313.79,146Z"/>
            </g>
          </g>
        </g>
      </g>
      <g>
        <path class="cls-20" d="M795.43,339.37c27.36-12.95,41-19.43,46.25-24.94,33.44-35.39-51.81-106.62-27.13-169.88C838.46,83.26,951.32,66,963.3,64.31c39.82-5.67,47.67,4,115.08-2.56,55.06-5.38,83.06-8.45,105.72-27.32,27.93-23.26,15.89-46,45.67-81.95,20.67-24.94,46.61-38.16,65-45.39a58.31,58.31,0,0,0-9.37,26.42A56.22,56.22,0,0,0,1288-45c2.37,8.16,19.42,65.36-3.74,97.32-6.81,9.39-15.36,14.43-21.71,18.18-31.73,18.72-54.25,5.31-79.31,15-33,12.72-54.11,59-51.59,95.62,3.31,48.32,46.44,59.06,43.84,105.77-1.88,33.52-25.68,56.46-29,59.57-27.07,25.35-63.82,27.08-130.39,30.2-61.76,2.91-73-5.33-93.69,8.31-14.07,9.29-26.52,24.78-57.29,38.1-5.57,2.41-12.24,6-21.59,7.77-35.2,6.75-52.56-10.85-90.67-1.19-25.61,6.49-43.85,21-55.49,32.7,1-17.13,5.4-43.8,23.4-69.92a132.63,132.63,0,0,1,22.48-25.18C758.52,354.18,771,350.94,795.43,339.37Z"/>
        <g class="cls-21">
          <path class="cls-22" d="M1000.49,161.45c-11,10-22.35,20.53-28.13,34.07-.87,2-1.54,4.52-.16,6.26a5.41,5.41,0,0,0,4.41,1.63c5.92-.14,10.46-4.8,15.22-8.2s12.23-5.4,16-1c3.49,4,1.12,10.07-1.56,14.62-9.94,16.89-17.95,30.32-38.68,34.71-10.81,2.29-22.51,3.63-31,10.49-9.78,7.89-12.76,20.93-18.6,31.87-12.85,24.05-37.19,28.34-58.21,42.9-1.9,1.32-3.93,3-4,5.27s2.24,4.35,4.67,4.79,4.92-.28,7.26-1.06c46.13-15.36,78.21-56.35,122-77.18,7.24-3.44,16.53-6.12,22.83-1.25,1.91,1.48,3.3,3.52,5.22,5,6,4.55,15.21,1.95,20.68-3.19,7.33-6.88,10.19-17.15,10.72-27s-.93-19.73-.76-29.6c.48-27.09,13.37-52.85,30.73-74.12,3.81-4.66,21.85-21.56,17.19-28s-20.56,1.38-25.23,3.94C1044.78,120.78,1022.36,141.54,1000.49,161.45Z"/>
        </g>
      </g>
      <g>
        <path class="cls-23" d="M10.29,348.2c2.53,2.39-74.92,82.93-79.41,87.37s-10.19,6.09-12.72,3.69-1-7.94,3.53-12.38S7.75,345.8,10.29,348.2Z"/>
        <path class="cls-23" d="M845.71,2.6C848.24,5,770.79,85.53,766.3,90s-10.19,6.09-12.72,3.69-1-7.94,3.53-12.38S843.17.2,845.71,2.6Z"/>
        <path class="cls-23" d="M1078,611.72c2.53,2.39-74.92,82.93-79.41,87.37s-10.19,6.09-12.72,3.69-1-7.94,3.53-12.38S1075.48,609.32,1078,611.72Z"/>
        <path class="cls-23" d="M332,775.88c2.53,2.39-74.92,82.93-79.41,87.37s-10.19,6.09-12.72,3.69-1-7.94,3.53-12.38S329.41,773.48,332,775.88Z"/>
      </g>
    </g>
  </g>
  <g class="cls-24">
    <g class="cls-25">
      <rect class="cls-26" x="-8381.59" y="-2885.08" width="13191.7" height="5525.81"/>
    </g>
  </g>
  <g class="cls-28">
    <g class="cls-29">
      <path class="cls-30" d="M233.6-5.47c33,8.13,71.08,13.74,82.51,12.47-17.49-9.94-53.58-20.75-84.25-28.26l7.49.61c18.17,2.9,33.25,4.47,35.59,3.07,22.53,2,40.93,3.91,43.55,4.71-10.55-4.76-40.17-11.73-69.16-15.73-2.8-.91-5.63-1.8-8.47-2.67,42.26-.07,89.54-.79,95.24-3.6-7.16-3.55-40.67-6.44-76-7.77,20.36-2.73,39.69-6,49.7-8.62-8.18-1.31-18.11-2.45-28.74-3.23,10.93-3,21.84-6,32.28-8.75-1.22-2.7-10-3.35-22.52-2.62,19.87-7,34.62-13.71,35.76-17.79-18.37,3.66-38.09,7.35-57,11.15,13.63-4.63,26.8-9.63,37.39-13.85-7.17-.06-18.61.95-31.57,2.62,27.26-14,50.4-27,55.74-32.53-4.56-.17-32.76,11.68-64.15,25.57,5.41-3.47,10.7-7,15.71-10.4,11.61-4.73,21.37-8.67,27.83-11.13q-7.37.73-14.45,1.72c9.32-6.76,16.75-12.67,20.83-16.63-2,1.62-14.88,8.94-31.77,18.32-8.05,1.36-15.78,2.94-23.2,4.69,9.43-8.65,18.34-17.33,25.84-25.42q5.68-2.36,11.52-4.61c-3,.5-5.89,1.05-8.78,1.62a165.13,165.13,0,0,0,10.83-13.22c-4.73,2.44-13.79,8.41-24.88,16.33-9.39,2.29-18.35,4.91-26.86,7.8A109.41,109.41,0,0,0,253.84-132s-1.63,1.08-4.35,2.95q4.38-6.42,8.57-12.93C272-155.25,284.94-168,295.27-179c-7,3.21-14.24,6.91-21.47,11,3.55-6.32,6.85-12.59,9.83-18.71-7.84,8.06-16.78,17.82-26.19,28.47-12.73,8-25.41,16.92-37.57,26.17,8.06-17.79,16-37.09,23.12-56.86,5.35-10.83,9.12-19.56,10.48-24.57-1,1-2.06,2-3.12,3.14q2.29-7.08,4.42-14.18c-3.21,6.61-6.5,13.32-9.83,20.08-17.53,20-40.2,53-58.61,82.06l4-8.74c11.17-20.74,19.58-38.23,19.19-41.5C221.77-198.94,232-220.3,234-223.16c-9.66,11-30.2,44-47.39,77.32-2.19,3-4.39,6.11-6.56,9.21,18.94-50.54,39.47-107.3,39.13-115.07-6.9,7.35-25,46.42-42.25,88.23,6.35-25.27,11.64-49.49,13.45-62.34-5,9.33-10.67,20.82-16.27,33.25,1.85-14.07,3.66-28.13,5.48-41.55-3.12.5-7.35,9.48-11.89,23.11-.29.42-.57.84-.85,1.27,1.58-25.33,1.22-44.47-2.41-47.16-4.48,23.2-9.54,48-14.14,72,1.35-17.86,2.11-35.3,2.51-49.39-2.43,6.3-5.3,15.6-8.29,26.5q-1.83,3.27-3.54,6.53c-2.14-34.91-5.11-64.27-8.22-72.1-2.23,5.39-2.67,43.13-2.43,85.38-4.73-31.25-10.89-60.17-15.22-72.07.6,2.34,1.82,13.74,3.33,29.76a337.78,337.78,0,0,0-7.66,33.78c-7.11-20.48-14.68-39-21.92-51.28.76,12.57,7.9,49.05,17.16,85.69-.16,1.63-.32,3.26-.47,4.89a140.49,140.49,0,0,0-8.46-12.55c-8-25.82-16.86-49.08-21.73-56.4.14,10.93,2.39,26.41,5.7,43.21-7.2-11.29-14.7-22.29-22.36-32.6-.28-.81-.46-1.42-.54-1.77,0,.39.09.8.14,1.23-6.53-8.77-13.17-17-19.81-24.54,7.87,19.83,19.12,44.73,31.33,70.18,2.57,8.14,5.44,16.6,8.48,24.87q.9,4.57,1.87,9.2C60-174.88,37-217.57,32-221.21c.5,8,12.58,37,27.11,67.85-1.59-1.65-3.21-3.3-4.84-4.95-9.15-12.74-17.63-23.79-23-29.83,1.23,3.54,2.63,7.36,4.19,11.38C19.86-191.51,3.29-205.91-13.62-219c11,12.42,22.26,25.34,33.47,38.27,1,4,4.09,10.37,8.62,18C13.36-177,.93-186.72-2.91-185.5c11.69,14.72,24,30.65,36.12,45.82-10.22-9.86-20.52-19.1-29-26.41,3.35,6.56,9.61,16.43,17.11,27.32-24.22-17.12-45.8-31-52.77-32.78,2,4.25,25,23.39,51.14,44.3-22-12.29-43.34-22.4-53.17-25.31,4.21,1.77,41.6,26.33,73.59,47.71-28.54-10.94-60.9-21.38-81.26-23.22,9,6.28,40,21.52,70.66,34.05a104.32,104.32,0,0,0-37,1.58s1.62.88,4.44,2.33c-21.69-1.28-43.5-1.21-62.88.86,29.59,7.74,75,16,113.27,21.65q2.64.94,5.22,1.77C14.84-63.63-36-55.85-82.75-42-4.37-50.33,89-57.49,107.07-58.85c.2.75.41,1.45.62,2.09,1.36-1,6.32-4.41,7.7-5.41h0c1.07-.75,2.23-1.55,2.84-2a14.34,14.34,0,0,0-1.85-1.53c0-.42.06-.89.09-1.4,7.48,8.93,13,15.55,15.91,19.06-.51.8-1,1.57-1.36,2.29,1.81.5,8.15,2.59,10,3.12h0c1.39.45,2.88.92,3.68,1.16a23.14,23.14,0,0,0,0-3c1.06-.87,2.43-2,4.11-3.34,2.15-1.54,4.51-3.28,7-5.21,4.14-1.09,9.08-2.6,14.62-4.44l-7.21,13.91c-.73-.18-1.41-.32-2-.43.07,1.73.06,7.86.11,9.58h0c0,1.33,0,2.77,0,3.54a18.31,18.31,0,0,0,2.26-1c.92.63,2.09,1.44,3.5,2.45q2.51,2,5.6,4.38C188.09,2,239.67,68,254.63,88.88,239.74,50.21,221.06,21.47,204.9,1.47a466.53,466.53,0,0,1,63.31,70.64,274.51,274.51,0,0,0-33.87-55.79c23.37,14.51,47.77,28.63,66.3,37.83C282.86,32.46,257.86,11.5,233.6-5.47ZM237.94-83l-.43.24.14-.12Zm21.31-33.84c-8,6.07-16.44,12.62-24.63,19.27q3.91-5.11,7.42-10.62Q250.38-112.51,259.25-116.8ZM122.08-189.24c.71,8.35,1.43,16.92,2.12,25.43-.54,1.48-1.06,2.95-1.58,4.41-.26-.88-.52-1.77-.79-2.66C122-171.19,122.08-180.33,122.08-189.24Z"/>
      <path class="cls-31" d="M68.05-66.43c28.54-6.52,60-16.91,68.26-22.31C119-89.62,87.09-84,60.61-77.9l6-2.42c15.08-4.79,27.29-9.42,28.54-11.4,18.11-7.14,33-12.82,35.3-13.21-9.95.42-35.41,6.51-59.25,14.64-2.5.38-5,.79-7.54,1.22,32.47-16.39,68.54-35.22,71.83-39.59-6.88,0-33.75,10.77-61.45,23.42,14.6-10,28.19-20,34.88-25.84-6.8,2.15-14.87,5.12-23.34,8.62,7.25-6.5,14.48-13,21.43-19.2-2-1.61-9,1.28-18.33,6.69C101.25-148,110-158.9,109.3-162.47c-12.71,9.91-26.44,20.37-39.54,30.62,8.69-8.83,16.88-17.76,23.39-25.1-5.53,2.72-13.94,7.93-23.26,14.22C85.45-164,98.19-183,100.17-189.29c-3.57,1.64-20.68,21.64-39.44,44.46,2.82-4.77,5.53-9.5,8.06-14.07,7.1-8.12,13.08-14.93,17.1-19.32q-5.39,3.42-10.45,6.91A182.79,182.79,0,0,0,85-192.14c-.94,2-8,12.62-17.34,26.37q-8.49,6.22-16,12.57c3.9-10.3,7.4-20.42,10-29.54q3.47-4,7.07-8c-2.08,1.53-4.12,3.08-6.12,4.63a142.62,142.62,0,0,0,3.22-14.35c-2.7,3.7-7.36,11.8-12.82,22.18-6.33,5.39-12.21,10.87-17.64,16.38a91.52,91.52,0,0,0-.71-9.64s-.83,1.46-2.2,3.94c.58-4.41,1.11-8.84,1.59-13.24,5.61-15.61,10.59-30.43,14.28-42.88-4.18,5.2-8.27,10.82-12.26,16.74.28-6.24.4-12.33.32-18.19-2.91,9.23-6,20.19-9.13,32-6.69,11.09-13,22.84-18.77,34.65-.68-16.79-2-34.7-4.2-52.66-.08-10.39-.55-18.56-1.44-22.94-.4,1.15-.8,2.36-1.19,3.63q-1-6.34-2.08-12.62c.08,6.33.15,12.76.2,19.24-5.77,22.11-10.43,56.25-13.33,85.75q-.16-4.1-.3-8.27c.57-20.26.27-37-1.29-39.33-.73-24.9-1.14-45.28-.7-48.25-3.18,12.19-6.2,45.52-6.55,77.76-.51,3.19-1,6.4-1.48,9.63-5-46.18-11.13-97.76-14.4-103.6-2.46,8.32-1.24,45.34,1.63,84.17-4.89-21.88-10.19-42.55-13.76-53.14-.26,9.13-.16,20.14.34,31.86-4-11.53-8.06-23-11.85-34.07-2.2,1.6-2,10.14-.21,22.37-.05.44-.1.87-.16,1.3-8.57-20.08-16.25-34.65-20.08-35.32,5.53,19.57,11.23,40.62,16.95,60.8-5.87-14.26-12-28-17.17-38.95.58,5.79,2,14,3.88,23.58-.09,2.15-.16,4.29-.2,6.39-15.14-26-28.77-47.43-34.19-52.25.37,5,14.62,34.19,31.14,66.58-15.72-22.2-31.64-42-39.56-49.52,1.36,1.56,6.7,9.85,14,21.59a291.93,291.93,0,0,0,7.18,28.93c-13.39-13-26.36-24.3-36.68-30.95,5.44,9.37,25,34.66,46.32,59.25.5,1.32,1,2.63,1.52,3.94A118.49,118.49,0,0,0-100.42-140c-16.13-16.77-31.95-31.22-38.52-35,4.34,8.36,12,19.39,21.08,31-9.89-5.89-19.91-11.45-29.79-16.42a13.28,13.28,0,0,1-1.09-1.15c.18.29.37.59.58.9-8.41-4.22-16.71-8-24.72-11.22,13.72,12.21,32,27,51.22,41.85,5.12,5.27,10.6,10.66,16.13,15.85,1.64,2.11,3.31,4.23,5,6.34-30.35-21.8-64.57-45.71-69.81-46.58,3.48,6,24,23.56,47.08,41.68q-2.81-1-5.64-1.93c-12-6.26-22.75-11.48-29.23-14,2.31,2.25,4.87,4.64,7.62,7.13-17.68-5.31-36-10-54-13.52,13.24,5.3,26.91,10.87,40.52,16.48,2.31,2.73,7.16,6.39,13.58,10.5-17.11-5.1-30.43-7.78-32.91-5.35,14.68,6.79,30.33,14.27,45.48,21.26-11.67-3.63-23.16-6.75-32.47-9.11,5.11,3.75,13.74,8.92,23.72,14.39-25.25-3.79-47.19-6.1-53.26-4.8,3.21,2.48,28.27,8.32,56.45,14.29-21.64-1-42-.47-50.66,1.09,3.92-.26,42.16,4.17,75,8.24-26.17,2.62-55.08,7.1-71.45,13.56,9.31,1.37,39.06,1.09,67.49-1.13a89.41,89.41,0,0,0-27.83,15.51s1.59,0,4.31.07c-17.16,7.4-33.91,15.89-48,25,25.75-5.49,63.88-16.69,95.46-27.14,1.59-.2,3.16-.42,4.69-.66A546,546,0,0,0-189.3,27.78C-132.25-8.92-63.21-50.54-49.87-58.56c.45.5.88,1,1.29,1.37.65-1.31,3.16-5.84,3.82-7.13h0c.54-1,1.12-2,1.42-2.63a13.92,13.92,0,0,0-2-.46c-.15-.34-.3-.71-.47-1.11,9.19,4,16,6.93,19.59,8.5-.08.82-.13,1.58-.16,2.29,1.59-.32,7.27-1.16,8.87-1.45h0c1.24-.2,2.57-.4,3.27-.53a16.72,16.72,0,0,0-1.15-2.34q.72-1.63,1.87-4.16c1.06-2,2.2-4.27,3.41-6.73,2.77-2.44,6-5.51,9.53-9.07-.08,6.14-.14,10.75-.18,13.48-.62.15-1.2.3-1.73.46.72,1.3,3.09,6,3.8,7.33h0c.52,1,1.08,2.12,1.4,2.7a13,13,0,0,0,1.36-1.61c1,.13,2.16.31,3.64.54,1.81.4,3.82.8,6,1.2C36-43.06,101.12-12.3,120.69-2c-26.4-24-51.86-38.84-72-48a401.33,401.33,0,0,1,76,29.84A237.31,237.31,0,0,0,77.05-50c23.57,2.12,47.79,3.54,65.59,3.45C120.58-56.3,93.26-62.76,68.05-66.43ZM41.43-127.68l-.24.35.06-.15Zm3.31-34.25c-3.83,7.76-7.76,16.05-11.49,24.33.69-3.63,1.22-7.32,1.6-11Q39.58-155.22,44.74-161.93Zm-133.47-2.68c3.77,6.15,7.64,12.46,11.47,18.74.15,1.35.31,2.68.48,4l-1.63-1.74C-81.81-150.7-85.28-157.76-88.73-164.61Z"/>
    </g>
  </g>
  <g class="cls-32">
    <g class="cls-33">
      <g class="cls-34">
        <g class="cls-35">
          <path class="cls-36" d="M1639.1,886.49l4.21,0,110.31-.53,65.45-.32c7.86,0,15.73-.16,23.58-.11,5,0,21.45,3.59,17.52-6.17-1.39-3.43-4.88-5.17-8.09-6.57A608.91,608.91,0,0,0,1652.54,823c22.39-7.52,45.29-15.31,63.37-31.77a16.78,16.78,0,0,0,5.34-10c1.47-10.07-6.94-15-14.29-18.28A516.69,516.69,0,0,0,1525,718.36a105.89,105.89,0,0,0,39.16-21,9.74,9.74,0,0,0,3.47-7.51c-.1-5.27-4.32-6.91-8.06-8a196.21,196.21,0,0,0-55.23-8c6.17-9,24.48-8.47,22.79-19.24a9.43,9.43,0,0,0-6.58-7.59c-68.19-20.09-138.83-27.91-209.07-36a6.17,6.17,0,0,1-5.34-5.5c-.36-3.46,2.33-5.08,4.73-6.34l34.59-18.12a8.3,8.3,0,0,0,4.35-6.09c.88-5.76-4.59-8.28-9.11-9.59q-27-7.86-54.63-13.38l17.14-11.46a675.54,675.54,0,0,0-115-9.58c-29,.08-41.62,1.76-68.86-9.26-23.09-9.33-13.62-10.47-38.22-9.79-66.34,1.81-183,3.92-249.29,5.73-6.37.18-10.12,3-15.11,7.34s-2.42,7.78,3.08,11.26c-56.61,4.65-124,17-179.91,15.66-40.4-.94-81.52,19.09-144.62,38.37-18.87,5.77,32,21.11,35.59,26.15-79.91,1-124.65-10.94-203.52,3-7.14,1.25-67.08,19.32-78.67,23.23-25.68,15.5,22.72,23.33,29.94,23.16-31.53,5-144.24,22-115.69,28.82,50.34,12-71,4.27-122.48,29.69a16.88,16.88,0,0,0-7.67,9.38c-3,11.25,8.64,17.74,18.09,20.69C94.83,768,172.46,798.44,217.79,805a.41.41,0,0,1,0,.8C127.43,789.92-15,840-15,840l-9.31-1.65v48.13Z"/>
        </g>
      </g>
      <g class="cls-37">
        <g class="cls-38">
          <path class="cls-36" d="M1562.14,899.17l3.82,0,100.21-.53,59.45-.32c7.14,0,14.29-.16,21.43-.11,4.52,0,19.47,3.59,15.9-6.17-1.26-3.43-4.43-5.16-7.34-6.57a512.5,512.5,0,0,0-181.26-49.74c20.33-7.52,41.14-15.31,57.57-31.77a17.37,17.37,0,0,0,4.84-10c1.34-10.08-6.3-15-13-18.29A434.8,434.8,0,0,0,1458.53,731a93.67,93.67,0,0,0,35.57-21,10.11,10.11,0,0,0,3.15-7.51c-.08-5.27-3.92-6.91-7.32-8a163.38,163.38,0,0,0-50.17-8c5.61-9,22.24-8.47,20.71-19.24a9.22,9.22,0,0,0-6-7.59c-61.94-20.09-126.11-27.91-189.92-36a5.91,5.91,0,0,1-4.85-5.5c-.33-3.46,2.12-5.08,4.3-6.34l31.42-18.12a8.34,8.34,0,0,0,4-6.08c.79-5.77-4.18-8.28-8.28-9.6q-24.58-7.86-49.63-13.38l15.57-11.46a558.83,558.83,0,0,0-104.49-9.58c-26.31.08-37.81,1.76-62.55-9.25-21-9.34-12.37-10.48-34.71-9.8-60.27,1.81-166.19,3.92-226.46,5.73-5.78.18-9.19,3.05-13.73,7.34s-2.19,7.78,2.81,11.26c-51.43,4.65-112.63,17-163.44,15.66-36.69-.93-74,19.09-131.36,38.37-17.14,5.77,29.07,21.11,32.32,26.15-72.58,1-113.22-10.94-184.87,2.95-6.48,1.25-60.93,19.32-71.46,23.23-23.32,15.5,20.64,23.34,27.2,23.16-28.65,5-131,22-105.09,28.82,45.73,12-64.48,4.27-111.26,29.69a16.61,16.61,0,0,0-7,9.38c-2.75,11.25,7.84,17.74,16.42,20.69,39.93,13.68,110.45,44.11,151.62,50.71a.42.42,0,0,1,0,.8C189,802.61,59.63,852.69,59.63,852.69L51.17,851v48.13Z"/>
        </g>
      </g>
      <g class="cls-39">
        <rect class="cls-40" x="73.67" y="530.52" width="1691.4" height="373.94"/>
      </g>
      <path class="cls-41" d="M-48,868.57c-15.51,24.78-30.62,49.51-41.53,75.49-31.91-15.6-9.74-89.13,3.64-122.91a239.22,239.22,0,0,1,37.29-63.59,227.3,227.3,0,0,1,26.27-27.2c4.77-4.15,26.33-16.4,28.52-21-13.27,28-14.3,54.42-19.95,82.25-5.58,27.51-18,51.08-34.24,77"/>
      <path class="cls-42" d="M3.64,713.18c-54.48,50.76-56.2,131.67-78.8,191.3C-79.52,916-85,927-87,938.37c-14.62-5.94-15.18-30-14.18-46.44a253,253,0,0,1,13.86-67.09c15.21-43.66,44.6-91.59,91-111.66"/>
      <path class="cls-43" d="M-63.85,910.52c-10.76,11.12-17.33,23.45-25,34.73C-103,922.69-64.47,873-52.66,846.65-36.19,809.9-13.3,780.7,23.71,762c15.37-7.75,30.12-15.66,45.25-23.67C47.35,772,22.85,803.83,2.28,837.51c-18.59,30.45-41.34,47.38-66.13,73"/>
      <path class="cls-44" d="M-78,932.66c-.23.06-.32-2.41.61-7.13a89.82,89.82,0,0,1,7.05-20.22A256.63,256.63,0,0,1-53.59,876c7-10.87,15.08-22.53,22.59-35.08,7.71-12.57,15.34-24.55,23.28-35.12,4-5.29,8-10.21,11.89-14.7s7.84-8.53,11.36-12.15a155.17,155.17,0,0,1,17.9-16.44c4.64-3.48,7.46-4.91,7.53-4.74s-2.5,2-6.78,5.65a193.43,193.43,0,0,0-16.85,16.78c-3.42,3.73-7.15,7.74-10.89,12.2s-7.59,9.32-11.39,14.53c-7.64,10.44-15.09,22.29-22.78,34.83s-15.88,24.43-22.92,35.13a293.81,293.81,0,0,0-17.19,28.75,114,114,0,0,0-8,19.75c-1.36,4.67-1.78,7.24-2.09,7.3"/>
      <path class="cls-41" d="M16.28,915.7c-30.21.67-60.2,1.6-89.73,6.12,2.26-30.14,82.3-49.14,120.35-55.59a304.28,304.28,0,0,1,76.52-3.5,247.39,247.39,0,0,1,36.87,5.85c5.94,1.44,26.45,11,31.81,10.39-32.48,3.82-58.4,15.56-87.59,24.7-28.86,9.05-56.66,11.33-88.23,12"/>
      <path class="cls-42" d="M187.38,879c-71-14.82-150,22.26-216.74,34.36C-42.22,915.69-55.07,917-66.9,921c-.14-13.24,23-25.05,39.22-32.09A358.39,358.39,0,0,1,42.78,867c48.35-9.81,106.53-11.55,144.6,12"/>
      <path class="cls-43" d="M-30.66,924.29c-15.08-2.41-29.65-1.26-43.65-1.42C-58.17,902.12,5.39,906.08,35.62,902c42.18-5.65,79.63-3.15,112.58,14.4,13.67,7.29,27.26,14.07,41.09,21.06-41.18.49-81.88-1.89-122.73-.61-36.93,1.15-62.45-7-97.22-12.6"/>
      <path class="cls-41" d="M-41.42,908.59c-13,2.68-22.27,4.07-33,9.46,5.9-52,98.84-89.86,174-94,16.51-.92,32.76-.91,48.67,2C105.89,862,25.61,894.73-41.42,908.59"/>
      <path class="cls-42" d="M99.55,824c16.49-.92,31.76-1.43,46.81,3.08C78.8,841.44,32.07,877-31.27,897c-13.41,4.21-26.81,8.41-39.87,13C-65.81,863,33.47,827.69,99.55,824"/>
      <path class="cls-41" d="M-68.11,923.08a15.53,15.53,0,0,0,3.39.67c9.44.89,54.36-29.49,63.11-34.27,45.55-24.87,89-55.18,99-93.77,5.44-21,7.09-26.49,28.33-42.38-17.82,2.47-32.33,7.68-45,15.93-21.42,13.93-36.13,32.3-57.33,46.58-42.25,28.46-88.07,41.3-94.33,82.22-1,6.71-7.93,21.48,2.82,25"/>
      <path class="cls-42" d="M-58.22,911.34C15.55,878.63,49.63,825.55,91.85,778.1c8.64-9.71,18.24-21,34.43-26.32-15.9,5.66-33.63,9.72-45.55,17.48-20.17,13.12-33.38,29.62-52.42,43.3-16.44,11.82-38,18.8-55.86,29.72-22.65,13.8-20.83,28-25,46.74-1.67,7.5-4.5,14.79-5.66,22.32"/>
      <path class="cls-41" d="M-71.7,901.18c.75,8.21,3.23,15.75,9.53,18.38,17.2,7.18,40.57-27.87,50.57-37.23C34.73,839,40.13,769.79-41.76,744.88c12.34,25.38,6,52.85-7.52,77.91-9.56,17.65-19.28,35.35-21.35,54-.54,4.82-1.93,15.05-1.07,24.41"/>
      <path class="cls-43" d="M-36.87,910.38c-.18-.18,2.34-1.27,6.61-3.43s10.23-5.46,17.33-9.75c3.56-2.13,7.44-4.5,11.72-7s8.94-5,13.7-7.82c9.58-5.55,19.93-11.79,31.1-18.17S65.74,852,76.31,847.08a244.56,244.56,0,0,1,29.57-11.6,174.16,174.16,0,0,1,22-5.46c5.4-1,8.52-1.19,8.6-1,.24.44-11.85,2.25-29,8.22a270.42,270.42,0,0,0-28.63,11.93C68.51,854.08,57.7,860,46.58,866.31s-21.56,12.54-31.33,18c-4.85,2.74-9.66,5.26-14,7.63l-12.07,6.73a181.67,181.67,0,0,1-18.41,9.15c-4.65,1.92-7.5,2.7-7.65,2.55"/>
      <path class="cls-43" d="M77.67,862.2c.15.18-3.7,1.43-9.76,3.62s-14.29,5.34-23.33,8.92-17.32,6.72-23.53,8.77-10.24,3.1-10.37,2.94,3.6-1.51,9.55-3.79,14.08-5.52,23.13-9.1,17.45-6.64,23.76-8.61S77.55,862,77.67,862.2"/>
      <path class="cls-43" d="M-23.24,893.91c-.24-.15,1.78-1.73,5.17-4.7s8.08-7.37,13.76-12.9C7.05,865.16,25,851,42.41,834.19c4.34-4.19,8.42-8.34,12.15-12.43.93-1,1.88-2.06,2.83-3s1.8-2,2.66-3c1.72-2,3.31-4,4.84-5.92,6.06-7.81,11-15.06,15.84-21A101.32,101.32,0,0,1,93.4,775.38c3.45-3,5.78-4.41,6-4.3s-1.61,1.79-4.58,4.93a133.68,133.68,0,0,0-11.33,13.78c-4.39,6-9.08,13.28-15,21.25-1.5,2-3.07,4-4.79,6.05-.86,1-1.75,2-2.67,3.07s-1.86,2-2.77,3.06c-3.72,4.15-7.82,8.36-12.2,12.59-17.56,16.88-35.93,30.93-47.81,41.66a190.56,190.56,0,0,1-15,12.44c-3.84,2.78-6.31,4.12-6.51,4"/>
      <path class="cls-41" d="M1643.05,915.69c-4,11.72-7.51,19.9-7.38,31.09-54-28.53-45.59-121.14-9.77-184,7.87-13.8,16.62-27,28.33-38.54,16.88,50.78,9.64,130.76-11.18,191.41"/>
      <path class="cls-42" d="M1625.9,762.82c7.86-13.79,15.51-26.39,28.57-36.52-20.56,61.3-6.58,115.42-18.76,175.84-2.58,12.8-5.18,25.57-7.17,38.24-48.7-25.77-34.13-122.34-2.64-177.56"/>
      <path class="cls-41" d="M1644.62,943.93a15.15,15.15,0,0,0,2.55-2.43c6.07-7.25-3.16-57.53-3.71-66.8-2.84-48.27-12.76-97.35-49.79-123.09-20.15-14-25.31-17.85-31.35-42.31-6.86,15.56-8.94,29.7-6.7,43.75,3.79,23.72,16.07,44,20.36,67.73,8.55,47.24-2,90.24,39.62,114,6.82,3.89,19.34,16.23,29,9.14"/>
      <path class="cls-42" d="M1637,930.56c3.73-74.72-36.27-126.59-65.71-182.48-6-11.43-13.32-24.39-10.4-39.92-2.34,15.46-7.41,31.69-5.3,44.89,3.57,22.34,14.61,40.58,19.4,62.26,4.14,18.72.24,39.35,2.61,58.84,3,24.66,19.55,29.65,37.92,41.62,7.35,4.78,13.83,10.4,21.48,14.79"/>
      <path class="cls-41" d="M1618.62,936.83c9.42,3.14,19,4.58,25.32.67,17.15-10.65-8.81-45.6-13.71-58-22.7-57.34-95.86-93.34-167.29-38.38,34.54,1.6,61.35,19.25,81.59,41.7,14.26,15.81,28.48,31.77,47.84,42,5,2.64,15.5,8.44,26.25,12"/>
      <path class="cls-42" d="M1652,941.56c-5-37.3-27.52-58.15-53.61-78.49-25-19.48-78.56-36.28-118-20.4,26.36,10,48.93,24.77,67.1,44.92,16.4,18.18,42.83,47.22,73.79,54.57a59,59,0,0,0,30.73-.6"/>
      <path class="cls-43" d="M1636.69,894.25c-.29.13-.94-2.23-2.38-6.34s-3.76-9.92-6.79-17c-6.13-14.3-12.1-35.32-21.15-57.1-2.27-5.43-4.64-10.63-7.13-15.53-.64-1.23-1.25-2.45-1.83-3.68s-1.22-2.37-1.84-3.52c-1.27-2.3-2.58-4.5-3.9-6.62-5.33-8.48-10.61-15.84-14.52-22.42a85.65,85.65,0,0,1-8-16.42c-1.42-4.16-1.73-6.7-1.5-6.81s1.1,2.12,3,6a118.12,118.12,0,0,0,9.05,15.47c4.19,6.29,9.71,13.43,15.27,21.87,1.39,2.12,2.76,4.32,4.08,6.64.66,1.16,1.31,2.35,1.94,3.57s1.22,2.43,1.87,3.64c2.56,4.92,5,10.16,7.27,15.64,9.12,21.94,14.67,43.24,20.08,57.78a145.55,145.55,0,0,1,5.61,17.81c1,4.38,1.14,7,.9,7.1"/>
      <path class="cls-43" d="M1650,926.81c-.28.13-.92-2.2-2.26-6.28a62,62,0,0,0-7.65-16,55.2,55.2,0,0,0-3.52-4.59c-1.28-1.5-2.82-3-4.34-4.57-3.09-3.13-6.46-6.39-10.13-9.72a172.71,172.71,0,0,0-25.87-19.61,112.77,112.77,0,0,0-15.35-7.84c-5.38-2.14-10.37-4.45-15.14-6.57a200.34,200.34,0,0,0-26.13-10,67.08,67.08,0,0,0-19.71-3c-5,.11-8,1-8,.7s3.07-1.55,8.41-2.1a62.61,62.61,0,0,1,20.82,1.88c8.19,1.94,17.26,5.29,27,9.41,4.87,2,9.87,4.27,15.24,6.34a109.25,109.25,0,0,1,15.76,8,155.63,155.63,0,0,1,26,20.11c3.63,3.44,6.93,6.82,9.92,10.08,1.48,1.64,2.94,3.17,4.24,4.83a51.42,51.42,0,0,1,3.39,4.9,53.53,53.53,0,0,1,6.63,17c.89,4.36,1,6.92.77,7"/>
      <path class="cls-43" d="M1642.73,912.78c-.25.26-4.06-2.71-11.64-5.75a114.71,114.71,0,0,0-13.9-4.47c-5.41-1.43-11.52-2.76-17.9-4.25a170.08,170.08,0,0,1-17.59-4.87,61.29,61.29,0,0,1-12.91-6.08c-6.69-4.33-9.15-8.56-9-8.66.3-.26,3.16,3.57,10,7.52a69.42,69.42,0,0,0,13,5.63c5.19,1.72,11.18,3.22,17.55,4.7s12.47,2.86,17.86,4.39a96.25,96.25,0,0,1,13.79,4.89c7.45,3.39,10.92,6.79,10.74,6.95"/>
    </g>
  </g>
</svg>
