<svg id="Layer_1" data-name="Layer 1" xmlns="http://www.w3.org/2000/svg" xmlns:xlink="http://www.w3.org/1999/xlink" width="1600" height="900" viewBox="0 0 1600 900">
  <defs>
    <style>
      .cls-1 {
        fill: none;
      }

      .cls-2 {
        clip-path: url(#clip-path);
      }

      .cls-3 {
        clip-path: url(#clip-path-2);
      }

      .cls-4 {
        fill: #191c3f;
      }

      .cls-5 {
        opacity: 0.8;
      }

      .cls-6 {
        opacity: 0.77;
      }

      .cls-7 {
        fill: #f4edf9;
      }

      .cls-8 {
        opacity: 0.76;
      }

      .cls-9 {
        opacity: 0.81;
      }

      .cls-10 {
        opacity: 0.88;
      }

      .cls-11 {
        fill: #f9f0bd;
      }

      .cls-12 {
        opacity: 0.78;
      }

      .cls-13 {
        fill: #a0e6f9;
      }

      .cls-14 {
        opacity: 0.92;
      }

      .cls-15 {
        fill: #b8e9f4;
      }

      .cls-16 {
        opacity: 0.89;
      }

      .cls-17 {
        opacity: 1;
      }

      .cls-18 {
        opacity: 0.7;
      }

      .cls-19 {
        fill: #f9e9aa;
      }

      .cls-20 {
        clip-path: url(#clip-path-3);
      }

      .cls-21 {
        clip-path: url(#clip-path-4);
      }

      .cls-22 {
        fill: url(#linear-gradient);
      }

      .cls-23 {
        clip-path: url(#clip-path-5);
      }

      .cls-24 {
        clip-path: url(#clip-path-6);
      }

      .cls-25 {
        opacity: 0.21;
      }

      .cls-26 {
        clip-path: url(#clip-path-7);
      }

      .cls-27 {
        fill: #23490f;
      }

      .cls-28 {
        opacity: 0.56;
      }

      .cls-29 {
        clip-path: url(#clip-path-8);
      }

      .cls-30 {
        clip-path: url(#clip-path-9);
      }

      .cls-31 {
        fill: url(#radial-gradient);
      }

      .cls-32 {
        fill: #0c5118;
      }

      .cls-33 {
        fill: #0b3d12;
      }

      .cls-34 {
        fill: #0e2312;
      }

      .cls-35 {
        fill: #174226;
      }

      .cls-36 {
        fill: #1c4c0b;
      }

      .cls-37 {
        fill: #123006;
      }

      .cls-38 {
        opacity: 0.33;
      }

      .cls-39 {
        fill: #fbf5b6;
      }
    </style>
    <clipPath id="clip-path">
      <rect class="cls-1" x="2991.68" y="-2246.03" width="1600" height="900"/>
    </clipPath>
    <clipPath id="clip-path-2">
      <rect class="cls-1" x="-6089.79" y="-1384.23" width="11168.71" height="2050"/>
    </clipPath>
    <clipPath id="clip-path-3">
      <rect class="cls-1" x="3191.25" y="-73.68" width="1280" height="720"/>
    </clipPath>
    <clipPath id="clip-path-4">
      <rect class="cls-1" x="3031.25" y="-163.68" width="1600" height="900"/>
    </clipPath>
    <linearGradient id="linear-gradient" x1="-1785.74" y1="1938.29" x2="-1785.74" y2="-5045.55" gradientUnits="userSpaceOnUse">
      <stop offset="0" stop-color="#a4f2ff"/>
      <stop offset="0.23" stop-color="#69e3ff"/>
      <stop offset="0.45" stop-color="#34d5ff"/>
      <stop offset="0.57" stop-color="#1fd0ff"/>
      <stop offset="0.65" stop-color="#25c3ff"/>
      <stop offset="0.81" stop-color="#36a2ff"/>
      <stop offset="1" stop-color="#4d73ff"/>
    </linearGradient>
    <clipPath id="clip-path-5">
      <rect class="cls-1" x="160" y="90" width="1280" height="720"/>
    </clipPath>
    <clipPath id="clip-path-6">
      <rect class="cls-1" width="1600" height="900"/>
    </clipPath>
    <clipPath id="clip-path-7">
      <rect class="cls-1" x="10.3" y="525.22" width="1805.36" height="412.61"/>
    </clipPath>
    <clipPath id="clip-path-8">
      <rect class="cls-1" x="82.54" y="539.18" width="1639.96" height="412.61"/>
    </clipPath>
    <clipPath id="clip-path-9">
      <path class="cls-1" d="M1067.46,551.22c23.41,12.13,45.49,15.46,70.38,15.38a456.41,456.41,0,0,1,98.86,10.55L1222,589.76a467.29,467.29,0,0,1,46.94,14.74c3.88,1.45,8.58,4.22,7.83,10.56a9.35,9.35,0,0,1-3.74,6.71l-29.72,20c-2.06,1.39-4.38,3.17-4.06,7,.26,3.24,2.24,5.71,4.58,6.06,60.36,8.91,121.07,17.52,179.67,39.64,2.86,1.08,5.15,4.29,5.65,8.36,1.46,11.86-14.28,11.31-19.59,21.18a134.69,134.69,0,0,1,47.47,8.79c3.21,1.2,6.84,3,6.92,8.82a12.11,12.11,0,0,1-3,8.26c-9.93,10.77-21.46,18.69-33.65,23.16,53.62,3.92,106.75,20.63,156.34,49.17,6.31,3.63,13.54,9.05,12.27,20.14a20.53,20.53,0,0,1-4.58,11c-15.55,18.12-35.22,26.7-54.46,35,58.76,5.54,116.88,24.1,171.47,54.77,2.76,1.55,5.76,3.46,7,7.24a9.72,9.72,0,0,1,.52,3H95.89V905.1l8,1.82s122.37-55.15,200-37.63c.38-.06.38-.81,0-.88-38.95-7.26-105.66-40.77-143.43-55.84-8.12-3.24-18.14-10.4-15.54-22.78.84-4,3.87-8.61,6.59-10.33,44.25-28,148.51-19.44,105.25-32.69-24.53-7.53,72.32-26.29,99.42-31.74-6.21.19-47.8-8.43-25.73-25.5,10-4.3,61.47-24.2,67.6-25.58,45.16-10.19,77.3-7.76,114-5.32,18.4,1.22,46.16,6.85,69.07,6.48-3.08-5.55-55-26.85-38.78-33.2,54.22-21.23,89.56-43.28,124.27-42.25,48.06,1.43,106-12.13,154.61-17.24-4.72-3.84-3.67-14.6.62-19.33s10.19-5.12,15.66-5.31l171-6c4.61-.16,9.07-.29,13.43-.29,15.61,0,30,1.69,45.46,9.73"/>
    </clipPath>
    <radialGradient id="radial-gradient" cx="-6746.71" cy="-3337.93" r="1" gradientTransform="matrix(582.47, 0, 0, -404.29, 3930666.94, -1348748.82)" gradientUnits="userSpaceOnUse">
      <stop offset="0" stop-color="#61dfff"/>
      <stop offset="0.14" stop-color="#5adaff"/>
      <stop offset="0.35" stop-color="#47caff"/>
      <stop offset="0.59" stop-color="#28b1ff"/>
      <stop offset="0.84" stop-color="#0091ff"/>
      <stop offset="1" stop-color="#0091ff"/>
    </radialGradient>
  </defs>
  <g class="cls-2">
    <g class="cls-3">
      <rect class="cls-4" x="-505.44" y="-1384.23" width="5584.35" height="2050" transform="translate(4573.48 -718.46) rotate(-180)"/>
      <g>
        <g>
          <g>
            <g class="cls-5">
              <g class="cls-6">
                <path class="cls-7" d="M330.44,516l-.17,6a1.93,1.93,0,0,0,1.36,1.87l5.89,1.93-6.22-.16a2,2,0,0,0-1.94,1.31l-2,5.69.18-6a2,2,0,0,0-1.36-1.88l-5.89-1.92,6.22.16a2,2,0,0,0,1.94-1.31Z"/>
              </g>
              <path class="cls-7" d="M120.84,448.86l1.12,5.92a2,2,0,0,0,1.72,1.56l6.18.71-6.12,1.08a2,2,0,0,0-1.62,1.67l-.73,6-1.12-5.92a2,2,0,0,0-1.72-1.56l-6.18-.71,6.12-1.08a2,2,0,0,0,1.62-1.67Z"/>
              <g class="cls-8">
                <path class="cls-7" d="M555.36,266.84l.62,6a2,2,0,0,0,1.59,1.71l6.13,1.21-6.23.59a2,2,0,0,0-1.76,1.54l-1.25,5.93-.61-6a2,2,0,0,0-1.6-1.71l-6.13-1.21,6.23-.59a2,2,0,0,0,1.77-1.54Z"/>
              </g>
              <path class="cls-7" d="M761.79,494.62l-.17,6A1.94,1.94,0,0,0,763,502.5l5.9,1.93-6.22-.16a2,2,0,0,0-1.94,1.31l-2,5.69.17-6a1.93,1.93,0,0,0-1.35-1.88l-5.89-1.92,6.22.16a2,2,0,0,0,1.94-1.31Z"/>
              <g class="cls-9">
                <path class="cls-7" d="M2.11,798.71l-.17,6A1.93,1.93,0,0,0,3.3,806.6l5.89,1.93L3,808.37A2,2,0,0,0,1,809.67l-2,5.7.17-6a1.94,1.94,0,0,0-1.36-1.88L-8,805.55l6.22.17a2,2,0,0,0,1.94-1.31Z"/>
              </g>
              <path class="cls-7" d="M986.65,311.42l-2.3,5.59a1.89,1.89,0,0,0,.6,2.21l4.84,3.77L984,320.76a2,2,0,0,0-2.29.59l-3.9,4.68,2.3-5.59a1.89,1.89,0,0,0-.6-2.21l-4.85-3.77,5.78,2.22a2,2,0,0,0,2.29-.58Z"/>
              <path class="cls-7" d="M780,138.74l-1.08,8.77a2.83,2.83,0,0,0,1.72,2.92l8.34,3.57-9.06-1a3,3,0,0,0-3,1.66l-3.7,8.07,1.08-8.76a2.82,2.82,0,0,0-1.72-2.92l-8.34-3.58,9.06,1a2.93,2.93,0,0,0,3-1.66Z"/>
              <g class="cls-10">
                <path class="cls-7" d="M1122.75,678.58l.44,6.23a2,2,0,0,0,1.59,1.81l6.29,1.43-6.45.43a2.05,2.05,0,0,0-1.87,1.53l-1.48,6.08-.44-6.23a2,2,0,0,0-1.59-1.81l-6.29-1.43,6.45-.42a2.06,2.06,0,0,0,1.87-1.54Z"/>
              </g>
              <path class="cls-11" d="M1093.46,135.73l1.89,5.73a2,2,0,0,0,1.91,1.34l6.22-.05-5.92,1.82a1.93,1.93,0,0,0-1.39,1.86l0,6-1.88-5.73a2,2,0,0,0-1.91-1.34l-6.22,0,5.92-1.82a1.93,1.93,0,0,0,1.39-1.85Z"/>
              <path class="cls-7" d="M159.45,895.8l-.27,9.68a3.12,3.12,0,0,0,2.17,3l9.5,3.1-10-.26a3.21,3.21,0,0,0-3.13,2.1l-3.21,9.18.27-9.68a3.12,3.12,0,0,0-2.17-3l-9.5-3.1,10,.26a3.21,3.21,0,0,0,3.13-2.1Z"/>
              <path class="cls-11" d="M951.55,880l-1.63,5.81a1.91,1.91,0,0,0,.86,2.13l5.26,3.21-6-1.57a2,2,0,0,0-2.21.83l-3.32,5.08,1.63-5.8a1.89,1.89,0,0,0-.86-2.13L940,884.37l6,1.57a2,2,0,0,0,2.21-.83Z"/>
              <path class="cls-7" d="M801.74,695.56,807,708.24a4.54,4.54,0,0,0,4.57,2.73l14.09-1.14-13.12,5.1a4.37,4.37,0,0,0-2.82,4.42L810.92,733l-5.27-12.69a4.54,4.54,0,0,0-4.58-2.72L787,718.71l13.12-5.11a4.37,4.37,0,0,0,2.82-4.42Z"/>
              <path class="cls-7" d="M124.94,230.91l-.48,6a1.92,1.92,0,0,0,1.25,1.94l5.79,2.21-6.2-.46a2,2,0,0,0-2,1.21L121,247.4l.48-6a1.94,1.94,0,0,0-1.26-1.94l-5.78-2.21,6.2.47a2,2,0,0,0,2-1.21Z"/>
              <path class="cls-7" d="M882,565.73l-.17,6a1.94,1.94,0,0,0,1.36,1.88l5.89,1.93-6.22-.17a2,2,0,0,0-1.94,1.31l-2,5.7.17-6a1.93,1.93,0,0,0-1.36-1.87l-5.89-1.93,6.22.16a2,2,0,0,0,1.94-1.3Z"/>
              <path class="cls-7" d="M1097.77,302.51l-5,6.42a2.51,2.51,0,0,0,0,3.06l4.88,6.5-6.65-4.82a2.74,2.74,0,0,0-3.16,0l-6.72,4.73,5-6.43a2.51,2.51,0,0,0,0-3.06l-4.88-6.5,6.65,4.82a2.72,2.72,0,0,0,3.15,0Z"/>
              <g class="cls-12">
                <path class="cls-7" d="M790.37,395.85l1.81,6.83a2.3,2.3,0,0,0,2.14,1.69l7.29.34-7.07,1.75a2.28,2.28,0,0,0-1.75,2.08l-.35,7-1.81-6.83a2.29,2.29,0,0,0-2.15-1.69l-7.28-.34,7.06-1.75a2.28,2.28,0,0,0,1.76-2.08Z"/>
              </g>
              <path class="cls-7" d="M893.21,440.23l-2.5,5.51a1.86,1.86,0,0,0,.52,2.23l4.7,3.94-5.7-2.43a2,2,0,0,0-2.3.5l-4.08,4.55,2.51-5.5a1.9,1.9,0,0,0-.52-2.24l-4.7-3.93,5.69,2.42a2,2,0,0,0,2.31-.5Z"/>
              <path class="cls-13" d="M500.17,584.87l-2.3,5.59a1.89,1.89,0,0,0,.6,2.21l4.84,3.77-5.78-2.23a2,2,0,0,0-2.28.58l-3.9,4.69,2.3-5.59a1.89,1.89,0,0,0-.6-2.21l-4.85-3.77,5.78,2.22a2,2,0,0,0,2.29-.58Z"/>
              <path class="cls-7" d="M67.85,572.72l1.54,5.83A2,2,0,0,0,71.23,580l6.21.28-6,1.5a1.94,1.94,0,0,0-1.49,1.77l-.3,6-1.54-5.83a2,2,0,0,0-1.84-1.44L60,582l6-1.5a1.93,1.93,0,0,0,1.49-1.77Z"/>
              <g class="cls-14">
                <path class="cls-15" d="M140.5,631.15l-.17,6a1.93,1.93,0,0,0,1.35,1.88l5.89,1.93-6.22-.17a2,2,0,0,0-1.94,1.31l-2,5.7.17-6a1.93,1.93,0,0,0-1.35-1.87L130.35,638l6.22.16a2,2,0,0,0,1.94-1.3Z"/>
              </g>
              <g class="cls-16">
                <path class="cls-7" d="M477.33,672.66l1.44,8a2.67,2.67,0,0,0,2.32,2.14l8.35,1-8.3,1.4a2.66,2.66,0,0,0-2.21,2.24l-1.06,8.08-1.44-8a2.66,2.66,0,0,0-2.32-2.14l-8.35-1,8.3-1.39a2.66,2.66,0,0,0,2.21-2.24Z"/>
              </g>
              <path class="cls-7" d="M857.48,292l1.41,5.85a2,2,0,0,0,1.8,1.49l6.2.42-6.06,1.37a1.93,1.93,0,0,0-1.53,1.73l-.44,6L857.45,303a2,2,0,0,0-1.8-1.48l-6.2-.42,6.06-1.37A1.93,1.93,0,0,0,857,298Z"/>
              <path class="cls-7" d="M1146.67,89l-1.73,5.77a1.91,1.91,0,0,0,.83,2.15l5.2,3.3-6-1.67a2,2,0,0,0-2.22.79l-3.41,5,1.73-5.78a1.89,1.89,0,0,0-.82-2.14l-5.2-3.3,6,1.67a2,2,0,0,0,2.22-.79Z"/>
            </g>
            <g class="cls-18">
              <path class="cls-7" d="M14.92,401.37a2,2,0,1,1-2-1.91A1.94,1.94,0,0,1,14.92,401.37Z"/>
              <path class="cls-7" d="M127.18,315.45a2,2,0,1,1-2-1.91A1.93,1.93,0,0,1,127.18,315.45Z"/>
              <path class="cls-7" d="M88.28,210a2,2,0,1,1-2-1.91A1.94,1.94,0,0,1,88.28,210Z"/>
              <path class="cls-7" d="M216.09,451a2,2,0,1,1-2-1.91A1.94,1.94,0,0,1,216.09,451Z"/>
              <path class="cls-7" d="M272.86,363.82a2,2,0,1,1-2-1.91A1.94,1.94,0,0,1,272.86,363.82Z"/>
              <path class="cls-19" d="M250.56,219.66a2,2,0,1,1-2-1.91A1.94,1.94,0,0,1,250.56,219.66Z"/>
              <path class="cls-7" d="M442.44,154.14a2,2,0,1,1-2-1.91A1.93,1.93,0,0,1,442.44,154.14Z"/>
              <path class="cls-7" d="M653.6,261.73a2,2,0,1,1-2-1.91A1.94,1.94,0,0,1,653.6,261.73Z"/>
              <path class="cls-7" d="M467.09,394.06a2,2,0,1,1-2-1.91A1.93,1.93,0,0,1,467.09,394.06Z"/>
              <path class="cls-7" d="M613.64,452.17a2,2,0,1,1-2-1.91A1.94,1.94,0,0,1,613.64,452.17Z"/>
              <path class="cls-7" d="M717.19,458.61a2,2,0,1,1-2-1.9A1.94,1.94,0,0,1,717.19,458.61Z"/>
              <path class="cls-7" d="M706.1,299.56a2,2,0,1,1-2-1.91A1.94,1.94,0,0,1,706.1,299.56Z"/>
              <path class="cls-7" d="M808.07,172.5a2,2,0,1,1-2-1.91A1.94,1.94,0,0,1,808.07,172.5Z"/>
              <path class="cls-7" d="M934.73,197.24a2,2,0,1,1-2-1.91A1.94,1.94,0,0,1,934.73,197.24Z"/>
              <path class="cls-7" d="M968.23,262a2,2,0,1,1-2-1.91A1.94,1.94,0,0,1,968.23,262Z"/>
              <path class="cls-7" d="M972.56,365.14a2,2,0,1,1-2-1.91A1.94,1.94,0,0,1,972.56,365.14Z"/>
              <path class="cls-7" d="M1033.9,416.78a2,2,0,1,1-2-1.9A1.94,1.94,0,0,1,1033.9,416.78Z"/>
              <path class="cls-19" d="M928.21,572.6a2,2,0,1,1-2-1.9A1.94,1.94,0,0,1,928.21,572.6Z"/>
              <path class="cls-7" d="M802.67,599.56a2,2,0,1,1-2-1.91A1.94,1.94,0,0,1,802.67,599.56Z"/>
              <path class="cls-13" d="M577.06,787.75a2,2,0,1,1-2-1.91A2,2,0,0,1,577.06,787.75Z"/>
              <path class="cls-7" d="M400.63,697.4a2,2,0,1,1-2-1.9A1.94,1.94,0,0,1,400.63,697.4Z"/>
              <ellipse class="cls-7" cx="342.08" cy="592.95" rx="1.97" ry="1.91"/>
              <path class="cls-7" d="M252.75,576.8a2,2,0,1,1-2-1.91A1.93,1.93,0,0,1,252.75,576.8Z"/>
              <path class="cls-7" d="M226.25,697.41a2,2,0,1,1-2-1.91A2,2,0,0,1,226.25,697.41Z"/>
              <path class="cls-7" d="M110.72,708.09a2,2,0,1,1-2-1.91A1.94,1.94,0,0,1,110.72,708.09Z"/>
              <path class="cls-7" d="M36.19,657.35a2,2,0,1,1-2-1.9A1.94,1.94,0,0,1,36.19,657.35Z"/>
              <path class="cls-7" d="M56,757.87a2,2,0,1,1-2-1.91A1.93,1.93,0,0,1,56,757.87Z"/>
              <path class="cls-7" d="M162.86,809.53a2,2,0,1,1-2-1.91A1.94,1.94,0,0,1,162.86,809.53Z"/>
              <path class="cls-7" d="M261.71,867.6a2,2,0,1,1-2-1.91A2,2,0,0,1,261.71,867.6Z"/>
              <path class="cls-7" d="M403.87,840.5a2,2,0,1,1-2-1.9A1.94,1.94,0,0,1,403.87,840.5Z"/>
              <path class="cls-19" d="M629.2,863.21a2,2,0,1,1-2-1.91A1.94,1.94,0,0,1,629.2,863.21Z"/>
              <path class="cls-13" d="M684.05,868.56a2,2,0,1,1-2-1.91A1.94,1.94,0,0,1,684.05,868.56Z"/>
              <path class="cls-7" d="M888.05,838.29a2,2,0,1,1-2-1.91A1.94,1.94,0,0,1,888.05,838.29Z"/>
              <path class="cls-7" d="M952.56,712.44a2,2,0,1,1-2-1.91A1.95,1.95,0,0,1,952.56,712.44Z"/>
              <path class="cls-7" d="M1044,719.93a2,2,0,1,1-2-1.91A1.94,1.94,0,0,1,1044,719.93Z"/>
              <path class="cls-7" d="M1082.7,857.43a2,2,0,1,1-2-1.9A1.94,1.94,0,0,1,1082.7,857.43Z"/>
              <path class="cls-7" d="M616,685.54a2,2,0,1,1-2-1.9A1.94,1.94,0,0,1,616,685.54Z"/>
              <path class="cls-7" d="M677.08,594.14a2,2,0,1,1-2-1.9A1.94,1.94,0,0,1,677.08,594.14Z"/>
              <path class="cls-7" d="M1127.36,489.83a2,2,0,1,1-2-1.91A1.94,1.94,0,0,1,1127.36,489.83Z"/>
              <path class="cls-19" d="M1009.23,94.11a2,2,0,1,1-2-1.9A1.94,1.94,0,0,1,1009.23,94.11Z"/>
              <path class="cls-7" d="M28.25,126.14a2,2,0,1,1-2-1.91A1.94,1.94,0,0,1,28.25,126.14Z"/>
              <path class="cls-7" d="M1113.87,212.52a2,2,0,1,1-2-1.9A1.94,1.94,0,0,1,1113.87,212.52Z"/>
              <path class="cls-7" d="M599.33,132.59a2,2,0,1,1-2-1.9A1.94,1.94,0,0,1,599.33,132.59Z"/>
              <path class="cls-13" d="M519.24,188.7a2,2,0,1,1-2-1.91A1.94,1.94,0,0,1,519.24,188.7Z"/>
              <ellipse class="cls-13" cx="16.32" cy="484.39" rx="1.97" ry="1.91"/>
              <path class="cls-13" d="M1073.9,569.49a2,2,0,1,1-2-1.91A2,2,0,0,1,1073.9,569.49Z"/>
            </g>
          </g>
          <g>
            <g class="cls-5">
              <path class="cls-7" d="M1523.34,494.62l.17,6a1.94,1.94,0,0,1-1.35,1.87l-5.9,1.93,6.22-.16a2,2,0,0,1,1.94,1.31l2,5.69-.17-6a1.93,1.93,0,0,1,1.35-1.88l5.89-1.92-6.22.16a2,2,0,0,1-1.94-1.31Z"/>
              <path class="cls-7" d="M1298.48,311.42l2.3,5.59a1.89,1.89,0,0,1-.6,2.21l-4.84,3.77,5.77-2.23a2,2,0,0,1,2.29.59l3.9,4.68-2.3-5.59a1.89,1.89,0,0,1,.6-2.21l4.85-3.77-5.78,2.22a2,2,0,0,1-2.29-.58Z"/>
              <path class="cls-7" d="M1505.17,138.74l1.08,8.77a2.83,2.83,0,0,1-1.72,2.92l-8.34,3.57,9.06-1a3,3,0,0,1,3,1.66l3.7,8.07-1.08-8.76a2.82,2.82,0,0,1,1.72-2.92l8.34-3.58-9.06,1a2.93,2.93,0,0,1-3-1.66Z"/>
              <g class="cls-10">
                <path class="cls-7" d="M1162.38,678.58l-.44,6.23a2,2,0,0,1-1.59,1.81l-6.29,1.43,6.45.43a2.05,2.05,0,0,1,1.87,1.53l1.48,6.08.44-6.23a2,2,0,0,1,1.59-1.81l6.29-1.43-6.45-.42a2.06,2.06,0,0,1-1.87-1.54Z"/>
              </g>
              <path class="cls-11" d="M1191.67,135.73l-1.89,5.73a2,2,0,0,1-1.91,1.34l-6.22-.05,5.92,1.82a1.93,1.93,0,0,1,1.39,1.86l0,6,1.88-5.73a2,2,0,0,1,1.92-1.34l6.21,0L1193,143.6a1.93,1.93,0,0,1-1.39-1.85Z"/>
              <path class="cls-11" d="M1333.58,880l1.63,5.81a1.89,1.89,0,0,1-.86,2.13l-5.26,3.21,6-1.57a2,2,0,0,1,2.21.83l3.32,5.08-1.63-5.8a1.9,1.9,0,0,1,.86-2.13l5.26-3.21-6,1.57a2,2,0,0,1-2.21-.83Z"/>
              <path class="cls-7" d="M1483.39,695.56l-5.28,12.68a4.54,4.54,0,0,1-4.57,2.73l-14.09-1.14,13.12,5.1a4.37,4.37,0,0,1,2.82,4.42L1474.21,733l5.27-12.69a4.55,4.55,0,0,1,4.58-2.72l14.09,1.14L1485,713.6a4.37,4.37,0,0,1-2.82-4.42Z"/>
              <path class="cls-7" d="M1403.17,565.73l.17,6a1.94,1.94,0,0,1-1.36,1.88l-5.89,1.93,6.22-.17a2,2,0,0,1,1.94,1.31l2,5.7-.17-6a1.93,1.93,0,0,1,1.36-1.87l5.89-1.93-6.22.16a2,2,0,0,1-1.94-1.3Z"/>
              <path class="cls-7" d="M1187.36,302.51l5,6.42a2.51,2.51,0,0,1,0,3.06l-4.88,6.5,6.65-4.82a2.74,2.74,0,0,1,3.16,0l6.72,4.73-5-6.43a2.51,2.51,0,0,1,0-3.06l4.88-6.5-6.64,4.82a2.74,2.74,0,0,1-3.16,0Z"/>
              <g class="cls-12">
                <path class="cls-7" d="M1494.76,395.85l-1.81,6.83a2.3,2.3,0,0,1-2.14,1.69l-7.29.34,7.07,1.75a2.28,2.28,0,0,1,1.75,2.08l.35,7,1.81-6.83a2.29,2.29,0,0,1,2.15-1.69l7.28-.34-7.06-1.75a2.27,2.27,0,0,1-1.75-2.08Z"/>
              </g>
              <path class="cls-7" d="M1391.92,440.23l2.5,5.51a1.87,1.87,0,0,1-.51,2.23l-4.71,3.94,5.7-2.43a2,2,0,0,1,2.3.5l4.08,4.55-2.51-5.5a1.9,1.9,0,0,1,.52-2.24l4.7-3.93-5.69,2.42a2,2,0,0,1-2.31-.5Z"/>
              <path class="cls-7" d="M1427.65,292l-1.41,5.85a2,2,0,0,1-1.8,1.49l-6.2.42,6.06,1.37a1.93,1.93,0,0,1,1.53,1.73l.44,6,1.41-5.86a2,2,0,0,1,1.8-1.48l6.2-.42-6.06-1.37a1.93,1.93,0,0,1-1.53-1.73Z"/>
              <path class="cls-7" d="M1138.46,89l1.73,5.77a1.89,1.89,0,0,1-.83,2.15l-5.2,3.3,6-1.67a2,2,0,0,1,2.22.79l3.41,5L1144,98.56a1.89,1.89,0,0,1,.82-2.14l5.2-3.3-6,1.67a2,2,0,0,1-2.22-.79Z"/>
            </g>
            <g class="cls-18">
              <path class="cls-7" d="M1567.94,458.61a2,2,0,1,0,2-1.9A1.94,1.94,0,0,0,1567.94,458.61Z"/>
              <path class="cls-7" d="M1579,299.56a2,2,0,1,0,2-1.91A1.94,1.94,0,0,0,1579,299.56Z"/>
              <path class="cls-7" d="M1477.06,172.5a2,2,0,1,0,2-1.91A1.94,1.94,0,0,0,1477.06,172.5Z"/>
              <path class="cls-7" d="M1350.4,197.24a2,2,0,1,0,2-1.91A1.94,1.94,0,0,0,1350.4,197.24Z"/>
              <path class="cls-7" d="M1316.9,262a2,2,0,1,0,2-1.91A1.94,1.94,0,0,0,1316.9,262Z"/>
              <path class="cls-7" d="M1312.57,365.14a2,2,0,1,0,2-1.91A1.95,1.95,0,0,0,1312.57,365.14Z"/>
              <path class="cls-7" d="M1251.23,416.78a2,2,0,1,0,2-1.9A1.94,1.94,0,0,0,1251.23,416.78Z"/>
              <path class="cls-19" d="M1356.92,572.6a2,2,0,1,0,2-1.9A1.94,1.94,0,0,0,1356.92,572.6Z"/>
              <path class="cls-7" d="M1482.46,599.56a2,2,0,1,0,2-1.91A1.94,1.94,0,0,0,1482.46,599.56Z"/>
              <path class="cls-7" d="M1397.08,838.29a2,2,0,1,0,2-1.91A1.94,1.94,0,0,0,1397.08,838.29Z"/>
              <path class="cls-7" d="M1332.57,712.44a2,2,0,1,0,2-1.91A1.95,1.95,0,0,0,1332.57,712.44Z"/>
              <path class="cls-7" d="M1241.18,719.93a2,2,0,1,0,2-1.91A1.94,1.94,0,0,0,1241.18,719.93Z"/>
              <path class="cls-7" d="M1202.43,857.43a2,2,0,1,0,2-1.9A1.94,1.94,0,0,0,1202.43,857.43Z"/>
              <path class="cls-7" d="M1157.77,489.83a2,2,0,1,0,2-1.91A1.94,1.94,0,0,0,1157.77,489.83Z"/>
              <path class="cls-19" d="M1275.9,94.11a2,2,0,1,0,2-1.9A1.94,1.94,0,0,0,1275.9,94.11Z"/>
              <path class="cls-7" d="M1171.26,212.52a2,2,0,1,0,2-1.9A1.94,1.94,0,0,0,1171.26,212.52Z"/>
              <path class="cls-13" d="M1211.23,569.49a2,2,0,1,0,2-1.91A2,2,0,0,0,1211.23,569.49Z"/>
            </g>
          </g>
        </g>
        <g>
          <g>
            <g class="cls-5">
              <path class="cls-7" d="M159.45,11.28,159.18,21a3.1,3.1,0,0,0,2.17,3l9.5,3.11-10-.27a3.2,3.2,0,0,0-3.13,2.11l-3.21,9.18.27-9.69a3.1,3.1,0,0,0-2.17-3l-9.5-3.11,10,.27a3.22,3.22,0,0,0,3.13-2.11Z"/>
              <path class="cls-11" d="M951.55-4.49l-1.63,5.8a1.9,1.9,0,0,0,.86,2.13L956,6.65l-6-1.57a2,2,0,0,0-2.21.83L944.51,11l1.63-5.81a1.89,1.89,0,0,0-.86-2.13L940-.15l6,1.57a2,2,0,0,0,2.21-.83Z"/>
            </g>
            <g class="cls-18">
              <path class="cls-7" d="M1103.72,71.94a2,2,0,1,1-2-1.91A1.94,1.94,0,0,1,1103.72,71.94Z"/>
              <ellipse class="cls-7" cx="423.01" cy="40.1" rx="1.97" ry="1.91"/>
              <path class="cls-7" d="M53.9,46.57a2,2,0,1,1-2-1.91A1.94,1.94,0,0,1,53.9,46.57Z"/>
              <path class="cls-7" d="M971.34,49.48a2,2,0,1,1-2-1.91A1.94,1.94,0,0,1,971.34,49.48Z"/>
            </g>
          </g>
          <g>
            <g class="cls-5">
              <path class="cls-11" d="M1333.58-4.49l1.63,5.8a1.89,1.89,0,0,1-.86,2.13l-5.26,3.21,6-1.57a2,2,0,0,1,2.21.83l3.32,5.09L1339,5.19a1.91,1.91,0,0,1,.86-2.13l5.26-3.21-6,1.57a2,2,0,0,1-2.21-.83Z"/>
            </g>
            <g class="cls-18">
              <path class="cls-7" d="M1181.42,71.94a2,2,0,1,0,2-1.91A1.94,1.94,0,0,0,1181.42,71.94Z"/>
              <path class="cls-7" d="M1313.79,49.48a2,2,0,1,0,2-1.91A1.94,1.94,0,0,0,1313.79,49.48Z"/>
            </g>
          </g>
        </g>
      </g>
    </g>
  </g>
  <g class="cls-20">
    <g class="cls-21">
      <rect class="cls-22" x="-8381.59" y="-3866.08" width="13191.7" height="5525.81"/>
    </g>
  </g>
  <g class="cls-23">
    <g class="cls-24">
      <g class="cls-25">
        <g class="cls-26">
          <path class="cls-27" d="M1603.36,937.83l4,0,105.65-.59,62.69-.35c7.53,0,15.06-.18,22.58-.13,4.78,0,20.54,4,16.78-6.79-1.33-3.78-4.67-5.69-7.75-7.23-60.84-30.67-125.61-49.23-191.11-54.76,21.45-8.28,43.38-16.86,60.7-35a19.5,19.5,0,0,0,5.11-11c1.41-11.08-6.65-16.5-13.68-20.13-55.27-28.53-114.48-45.24-174.24-49.16a98.3,98.3,0,0,0,37.51-23.15,11.42,11.42,0,0,0,3.32-8.27c-.09-5.8-4.14-7.61-7.72-8.82a165.42,165.42,0,0,0-52.9-8.79c5.91-9.86,23.46-9.32,21.83-21.18a10,10,0,0,0-6.3-8.35c-65.3-22.12-133-30.73-200.23-39.64-2.61-.35-4.82-2.81-5.12-6.06-.34-3.81,2.24-5.59,4.53-7l33.13-20a9.17,9.17,0,0,0,4.17-6.7c.84-6.34-4.4-9.11-8.72-10.56q-25.92-8.65-52.33-14.73l16.42-12.61a563,563,0,0,0-110.17-10.55c-27.74.08-39.86,1.93-66-10.2-22.12-10.28-13-11.53-36.6-10.79-63.54,2-175.22,4.32-238.76,6.32-6.1.2-9.7,3.35-14.47,8.08s-2.31,8.56,3,12.4C764.49,557.31,700,570.86,646.4,569.43c-38.69-1-78.07,21-138.5,42.25C489.82,618,538.55,634.91,542,640.46c-76.53,1.1-119.38-12-194.92,3.25-6.83,1.38-64.24,21.28-75.34,25.58-24.59,17.06,21.75,25.69,28.67,25.5-30.2,5.45-138.14,24.21-110.79,31.73,48.21,13.25-68,4.7-117.31,32.69-3,1.72-6.41,6.34-7.35,10.32-2.89,12.39,8.27,19.54,17.33,22.78,42.09,15.07,116.44,48.57,159.85,55.84a.46.46,0,0,1,0,.87c-86.54-17.51-222.91,37.63-222.91,37.63l-8.91-1.82v53Z"/>
        </g>
      </g>
      <g class="cls-28">
        <g class="cls-29">
          <path class="cls-27" d="M1529.66,951.79l3.66,0,96-.59,56.94-.35c6.84,0,13.68-.18,20.52-.13,4.33,0,18.65,4,15.23-6.79-1.2-3.78-4.24-5.68-7-7.23-55.27-30.67-114.11-49.22-173.6-54.76,19.47-8.28,39.4-16.86,55.13-35a20.36,20.36,0,0,0,4.64-11c1.28-11.09-6-16.5-12.42-20.13-50.21-28.54-104-45.25-158.28-49.17,12.35-4.47,24-12.39,34.07-23.15a12,12,0,0,0,3-8.27c-.08-5.8-3.76-7.61-7-8.82a137.78,137.78,0,0,0-48-8.78c5.37-9.87,21.3-9.32,19.83-21.19-.51-4.06-2.82-7.27-5.72-8.35-59.33-22.12-120.79-30.73-181.89-39.64-2.37-.34-4.38-2.81-4.65-6.05-.31-3.81,2-5.6,4.11-7l30.1-20a9.35,9.35,0,0,0,3.79-6.69c.76-6.35-4-9.12-7.93-10.56a472.6,472.6,0,0,0-47.53-14.74l14.91-12.61a467.36,467.36,0,0,0-100.08-10.55c-25.19.08-36.2,1.93-59.9-10.19-20.09-10.28-11.85-11.53-33.25-10.79-57.71,2-159.16,4.32-216.88,6.32-5.54.19-8.81,3.35-13.15,8.07s-2.1,8.57,2.69,12.4c-49.26,5.12-107.87,18.67-156.53,17.24-35.14-1-70.91,21-125.81,42.25-16.42,6.35,27.84,23.24,31,28.79-69.52,1.09-108.44-12-177.06,3.24C382.25,659.05,330.1,679,320,683.25c-22.34,17.07,19.76,25.69,26.05,25.5C318.63,714.2,220.58,733,245.42,740.48c43.79,13.26-61.76,4.7-106.56,32.69-2.75,1.72-5.82,6.34-6.67,10.33-2.63,12.38,7.51,19.53,15.73,22.78,38.24,15.06,105.78,48.57,145.21,55.83.38.07.38.81,0,.88-78.61-17.52-202.48,37.62-202.48,37.62l-8.1-1.82v53Z"/>
        </g>
      </g>
      <g class="cls-30">
        <rect class="cls-31" x="104.1" y="545.9" width="1619.91" height="411.71"/>
      </g>
      <path class="cls-32" d="M88.89,872.19C73.38,897,58.27,921.7,47.36,947.68c-31.91-15.6-9.74-89.13,3.64-122.91a239,239,0,0,1,37.3-63.59A225.7,225.7,0,0,1,114.56,734c4.77-4.16,26.33-16.4,28.52-21-13.27,28.06-14.3,54.43-20,82.26-5.58,27.51-18,51.08-34.24,77"/>
      <path class="cls-33" d="M140.58,716.79C86.1,767.56,84.38,848.47,61.78,908.1,57.42,919.58,51.9,930.57,50,942c-14.62-5.94-15.18-30-14.18-46.44a253,253,0,0,1,13.86-67.09c15.22-43.66,44.6-91.59,91-111.67"/>
      <path class="cls-34" d="M73.09,914.14c-10.76,11.12-17.33,23.45-25,34.73-14.13-22.56,24.41-72.25,36.22-98.6,16.47-36.75,39.36-65.95,76.37-84.62C176,757.9,190.77,750,205.9,742c-21.61,33.59-46.11,65.47-66.68,99.15-18.59,30.45-41.34,47.38-66.13,73"/>
      <path class="cls-32" d="M50.05,915.69c-4,11.72-7.51,19.9-7.38,31.09-53.95-28.53-45.59-121.14-9.77-184,7.87-13.8,16.62-27,28.33-38.54C78.11,775.06,70.87,855,50.05,915.69"/>
      <path class="cls-33" d="M32.9,762.82C40.76,749,48.41,736.43,61.47,726.3c-20.56,61.3-6.58,115.42-18.76,175.84-2.58,12.8-5.18,25.57-7.17,38.24C-13.16,914.61,1.41,818,32.9,762.82"/>
      <path class="cls-32" d="M51.62,943.93a15.15,15.15,0,0,0,2.55-2.43c6.07-7.25-3.16-57.53-3.71-66.8C47.62,826.43,37.7,777.35.67,751.61c-20.15-14-25.31-17.85-31.35-42.31-6.86,15.56-8.94,29.7-6.7,43.75,3.79,23.72,16.07,44,20.36,67.73C-8.47,868-19,911,22.6,934.79c6.82,3.89,19.34,16.23,29,9.14"/>
      <path class="cls-33" d="M44,930.56C47.76,855.84,7.76,804-21.68,748.08c-6-11.43-13.32-24.39-10.4-39.92-2.34,15.46-7.41,31.69-5.3,44.89,3.57,22.34,14.61,40.58,19.4,62.26,4.14,18.72.24,39.35,2.61,58.84,3,24.66,19.55,29.65,37.92,41.62,7.35,4.78,13.83,10.4,21.48,14.79"/>
      <path class="cls-32" d="M25.62,936.83c9.42,3.14,19,4.58,25.32.67,17.15-10.65-8.81-45.6-13.71-58-22.7-57.34-95.86-93.34-167.29-38.38,34.54,1.6,61.35,19.25,81.59,41.7,14.26,15.81,28.48,31.77,47.84,42,5,2.64,15.5,8.44,26.25,12"/>
      <path class="cls-33" d="M59,941.56c-5-37.3-27.52-58.15-53.61-78.49-25-19.48-78.56-36.28-118-20.4,26.36,10,48.93,24.77,67.1,44.92,16.4,18.18,42.83,47.22,73.79,54.57a59,59,0,0,0,30.73-.6"/>
      <path class="cls-35" d="M59,936.28c-.24.06-.33-2.41.6-7.14a89.94,89.94,0,0,1,7.05-20.21,256.63,256.63,0,0,1,16.73-29.34c7-10.87,15.08-22.53,22.59-35.08,7.71-12.57,15.34-24.55,23.28-35.12,4-5.29,7.95-10.21,11.89-14.7s7.84-8.53,11.36-12.16a157,157,0,0,1,17.9-16.44c4.64-3.47,7.46-4.9,7.53-4.73s-2.5,2-6.78,5.65a194.85,194.85,0,0,0-16.85,16.78c-3.42,3.72-7.15,7.74-10.89,12.2s-7.58,9.32-11.39,14.53c-7.64,10.43-15.09,22.29-22.78,34.83S93.33,869.78,86.3,880.47a294.48,294.48,0,0,0-17.2,28.75,114.63,114.63,0,0,0-8,19.75c-1.36,4.68-1.78,7.25-2.08,7.31"/>
      <path class="cls-34" d="M54.47,912.82c-.3.06-.14-2.47-.22-6.92s-.5-10.78-1.39-18.5c-.43-3.86-1-8.09-1.38-12.69s-.72-9.54-1.23-14.68C49.31,849.74,48,838.5,47,826.53a308,308,0,0,1-1.23-34.33,171.32,171.32,0,0,1,3.15-29.27,125.23,125.23,0,0,1,5.82-20.3c1.85-4.81,3.27-7.44,3.49-7.43.62,0-3.9,10.63-6.58,27.26a190.05,190.05,0,0,0-2.27,28.65c-.11,10.6.53,22,1.53,33.95s2.19,23.21,2.94,33.62c.41,5.18.59,10.23.87,14.83l.9,12.84a129.82,129.82,0,0,1,.16,19.1c-.4,4.65-1.07,7.32-1.31,7.37"/>
      <path class="cls-34" d="M63.12,798c.28,0-.43,3.66-1.28,9.56s-1.8,14-2.74,23-1.93,17.11-3,23.08-2.09,9.71-2.35,9.74.28-3.61,1-9.47S56.21,840,57.15,831s2.08-17.17,3.32-23.19,2.4-9.78,2.65-9.8"/>
      <path class="cls-34" d="M43.69,894.25c-.29.13-.94-2.23-2.38-6.34s-3.76-9.92-6.79-17c-6.13-14.3-12.1-35.32-21.15-57.1-2.27-5.43-4.64-10.63-7.13-15.53C5.6,797,5,795.79,4.41,794.56S3.19,792.19,2.57,791c-1.27-2.3-2.58-4.5-3.9-6.62-5.33-8.48-10.61-15.84-14.52-22.42a85.65,85.65,0,0,1-8-16.42c-1.42-4.16-1.73-6.7-1.5-6.81s1.1,2.12,3,6a118.12,118.12,0,0,0,9,15.47c4.19,6.29,9.71,13.43,15.27,21.87,1.39,2.12,2.76,4.32,4.08,6.64.66,1.16,1.31,2.35,1.94,3.57s1.22,2.43,1.87,3.64c2.56,4.92,5,10.16,7.27,15.64,9.12,21.94,14.67,43.24,20.08,57.78a145.55,145.55,0,0,1,5.61,17.81c1,4.38,1.14,7,.9,7.1"/>
      <path class="cls-34" d="M57,926.81c-.28.13-.92-2.2-2.26-6.28a62,62,0,0,0-7.65-16A55.2,55.2,0,0,0,43.55,900c-1.28-1.5-2.82-3-4.34-4.57-3.09-3.13-6.46-6.39-10.13-9.72A172.71,172.71,0,0,0,3.21,866.06a112.77,112.77,0,0,0-15.35-7.84c-5.38-2.14-10.37-4.45-15.14-6.57a200.34,200.34,0,0,0-26.13-10,67.08,67.08,0,0,0-19.71-3c-5,.11-8,1-8,.7s3.07-1.55,8.41-2.1a62.61,62.61,0,0,1,20.82,1.88c8.19,1.94,17.26,5.29,27,9.41,4.87,2,9.87,4.27,15.24,6.34a109.25,109.25,0,0,1,15.76,8,155.63,155.63,0,0,1,26,20.11C35.66,886.38,39,889.76,42,893c1.48,1.64,2.94,3.17,4.24,4.83a51.42,51.42,0,0,1,3.39,4.9,53.53,53.53,0,0,1,6.63,17c.89,4.36,1,6.92.77,7"/>
      <path class="cls-34" d="M49.73,912.78c-.25.26-4.06-2.71-11.64-5.75a114.71,114.71,0,0,0-13.9-4.47c-5.41-1.43-11.52-2.76-17.9-4.25a170.08,170.08,0,0,1-17.59-4.87,61.29,61.29,0,0,1-12.91-6.08c-6.69-4.33-9.15-8.56-9-8.66.3-.26,3.16,3.57,10,7.52a69.42,69.42,0,0,0,13,5.63C-5,893.57,1,895.07,7.34,896.55s12.47,2.86,17.86,4.39A96.25,96.25,0,0,1,39,905.83c7.45,3.39,10.92,6.79,10.74,6.95"/>
      <path class="cls-32" d="M153.22,919.32c-30.21.67-60.2,1.6-89.73,6.12,2.26-30.14,82.3-49.14,120.35-55.59a304.75,304.75,0,0,1,76.52-3.51,248.7,248.7,0,0,1,36.87,5.86c5.94,1.44,26.45,11,31.81,10.38-32.48,3.83-58.4,15.57-87.59,24.71-28.86,9.05-56.66,11.33-88.23,12"/>
      <path class="cls-33" d="M324.32,882.62c-71-14.82-150,22.26-216.74,34.36-12.86,2.33-25.71,3.6-37.54,7.61C69.9,911.35,93,899.54,109.26,892.5a358.27,358.27,0,0,1,70.47-21.88c48.34-9.82,106.52-11.55,144.59,12"/>
      <path class="cls-32" d="M95.52,912.21c-13,2.68-22.27,4.07-33,9.46,5.9-52,98.84-89.86,174-94,16.51-.93,32.76-.91,48.67,2-42.33,36.08-122.61,68.77-189.64,82.63"/>
      <path class="cls-33" d="M236.49,827.62c16.49-.92,31.76-1.43,46.81,3.08C215.74,845.06,169,880.65,105.67,900.56c-13.41,4.22-26.81,8.42-39.87,13,5.34-46.92,104.61-82.24,170.69-85.93"/>
      <path class="cls-32" d="M68.83,926.7a15.53,15.53,0,0,0,3.39.67c9.44.89,54.36-29.49,63.11-34.27,45.55-24.87,89-55.18,99-93.77,5.44-21,7.09-26.5,28.33-42.38-17.82,2.47-32.33,7.67-45,15.93-21.42,13.93-36.13,32.3-57.33,46.58-42.25,28.46-88.07,41.3-94.33,82.22-1,6.71-7.93,21.48,2.82,25"/>
      <path class="cls-33" d="M78.72,915c73.77-32.71,107.85-85.79,150.07-133.24,8.64-9.71,18.24-21,34.43-26.32-15.9,5.66-33.62,9.72-45.55,17.48-20.17,13.12-33.38,29.62-52.42,43.3-16.44,11.81-38,18.8-55.86,29.72-22.65,13.8-20.83,28-25,46.74-1.67,7.5-4.5,14.79-5.66,22.32"/>
      <path class="cls-32" d="M65.24,904.8c.75,8.21,3.23,15.74,9.53,18.38C92,930.36,115.34,895.31,125.34,886c46.33-43.33,51.73-112.54-30.16-137.46,12.34,25.39,6,52.86-7.52,77.92-9.56,17.65-19.28,35.35-21.35,54-.54,4.82-1.93,15.05-1.07,24.41"/>
      <path class="cls-33" d="M74.1,930.86c34.08-21.21,45.19-47.15,54.37-75.38,8.79-27,3.49-73.2-27.74-93.81,1,23.51-4.28,46.61-16.46,69.11-11,20.3-28.44,52.89-23.11,78.46A37.53,37.53,0,0,0,74.1,930.86"/>
      <path class="cls-34" d="M100.07,914c-.18-.18,2.34-1.27,6.61-3.43s10.23-5.46,17.33-9.75c3.56-2.13,7.44-4.5,11.72-7s8.94-5,13.71-7.82c9.57-5.55,19.92-11.79,31.09-18.17s22.15-12.25,32.72-17.14a244.56,244.56,0,0,1,29.57-11.6,172.09,172.09,0,0,1,22-5.46c5.39-1,8.51-1.19,8.59-1,.24.44-11.85,2.25-29,8.21a272.77,272.77,0,0,0-28.63,11.94c-10.3,4.94-21.11,10.81-32.23,17.17s-21.56,12.54-31.33,18c-4.85,2.74-9.66,5.26-14,7.63l-12.07,6.73a181.67,181.67,0,0,1-18.41,9.15c-4.65,1.92-7.5,2.7-7.65,2.55"/>
      <path class="cls-34" d="M214.61,865.82c.15.18-3.7,1.43-9.76,3.61s-14.29,5.35-23.33,8.93-17.32,6.72-23.53,8.77-10.24,3.1-10.37,2.94,3.6-1.51,9.55-3.79,14.08-5.52,23.13-9.1,17.45-6.64,23.76-8.61,10.43-2.91,10.55-2.75"/>
      <path class="cls-34" d="M113.7,897.53c-.24-.15,1.78-1.73,5.17-4.7s8.08-7.37,13.76-12.91c11.36-11.14,29.3-25.35,46.72-42.11,4.34-4.19,8.42-8.34,12.16-12.43.92-1,1.87-2.06,2.82-3s1.8-2,2.66-3c1.72-2,3.32-4,4.84-5.92,6.06-7.81,11-15.06,15.84-21A101.32,101.32,0,0,1,230.34,779c3.45-3,5.78-4.41,6-4.3s-1.61,1.79-4.58,4.93a133.68,133.68,0,0,0-11.33,13.78c-4.39,6-9.08,13.28-15,21.25-1.49,2-3.07,4-4.79,6.05-.86,1-1.74,2-2.67,3.07s-1.86,2-2.77,3.05c-3.72,4.16-7.82,8.37-12.2,12.59-17.56,16.89-35.93,30.94-47.81,41.67a190.56,190.56,0,0,1-15,12.44c-3.84,2.78-6.31,4.12-6.51,4"/>
      <path class="cls-34" d="M87.55,922.42c-.24-.14,1.76-1.7,5.17-4.59a74,74,0,0,0,12.37-13c1-1.47,2.07-3,3-4.68s1.76-3.43,2.67-5.27c1.78-3.68,3.59-7.63,5.33-11.83a140.29,140.29,0,0,0,8.57-27.72,81.13,81.13,0,0,0,1.41-14.66c-.1-4.84.13-9.5.26-13.91.29-8.82.2-16.75-.8-23.39a41.46,41.46,0,0,0-5.07-15.45c-2.12-3.52-4.17-5.24-3.89-5.37s2.73,1.46,5.42,5,5.2,9,6.56,15.73,1.81,14.82,1.74,23.68c0,4.44-.17,9.06,0,13.86a76.75,76.75,0,0,1-1.36,15,127.71,127.71,0,0,1-9,28c-1.87,4.21-3.81,8.17-5.76,11.84-1,1.84-1.88,3.6-3,5.31a57.15,57.15,0,0,1-3.37,4.74A66.42,66.42,0,0,1,94,918.54c-3.86,2.7-6.28,4-6.49,3.88"/>
      <path class="cls-34" d="M98.2,910.6c-.35-.05,1-4.17.89-11a75.08,75.08,0,0,0-1.27-12c-.79-4.53-2-9.52-3.09-14.77a108.53,108.53,0,0,1-2.37-14.85,43,43,0,0,1,.69-12.09c1.5-6.81,4.6-10.57,4.78-10.49.37.09-2.19,3.94-3.27,10.67A47.35,47.35,0,0,0,94.34,858a131,131,0,0,0,2.52,14.74c1.12,5.24,2.24,10.25,2.93,14.82a63,63,0,0,1,.82,12.15c-.29,6.92-2.18,11-2.41,10.94"/>
      <path class="cls-36" d="M1332.54,861.34c-24.79-4.62-24.4-25.25,4.9-25.48-19.69-15.15-3.59-36.8,23.83-26.71,6.71-13.95,27.34-16.25,30.88-.56,6.48-9.81,18-16.15,30.86-13.71-47.4-18.72,15.77-42.51,43.88-39.88-10.37-32.91,34.65-50.48,68.78-32.84,8.81-34.69,73-4.26,87.86,11.33,24.87-24.5,72.48-5.92,76,22,34-24.53,54.14,17.93,50.81,38.21,24.29-9.32,26,14.24,19.09,26.79,19.42-4.91,32.38,3,23.69,18,20.16-4.58,35.5,6,23.85,20.58,17.61-1.2,47.44.21,25.67,15.13,10.85-1.83,16.52,2.06,24.51,3-2.12,6.3-6.31,4.69-12.89,6.56l20.94,2.93c-10.72,14.42-41.12,13.27-56.47,3.64-9.89,5.69-4.13,5.43-17.81-.11-10.11,17.38-28.14,9.27-28.26-7.28-11,8.5-32,9.85-46.57,2.41,25,14.32-28.71,26.63-46.16,9.87-.45,16.82-30.46,12.24-37.7,1.4-7.65,12.79-26.47,14.48-42.14,9.21-24.58,27.45-45.39-6.36-67-13.59-3.57,13.65-23.94,15.07-39.33,9.92.5,2.67.09,6.14.62,8.91-22.29,3.79-47.26,7-66-5.09-11.57,10.92-35.36,6.46-37.81-8.28-14.36,5.63-34.71,8.53-36-7-12,0-25-.15-35.85-1.73,4.27-1.7,8.74-4.76,13.44-6.62a148,148,0,0,1-33.61-4C1303.39,868.05,1317.66,863.53,1332.54,861.34Z"/>
      <path class="cls-37" d="M1843.93,921.16c4.83-.92,7.8.18,9.56-3.55-5.75-.82-9.72-3.36-17.62-2.6,16.27-8.32-5.26-10.13-18-10,8.94-8.45-1.78-15.33-16.53-13.21,6.82-8.82-2.28-14-16.5-11.67,5.4-7.36,5-21.65-12.86-16.8,3.12-12.15-9.93-38.46-35.41-24.74-1.55-17-35.33-29.76-54.18-15.76-10.19-9.89-55.56-30.36-63.15-9.68-23.36-11.42-55.31-3.11-51.36,15.88a28.69,28.69,0,0,0-5,1.43c-1.5,0-3.07,0-4.69.12-3.75-16-35.71-27.35-53.85-13.87-10.2-9.9-55.56-30.36-63.16-9.68-24.06-11.77-57.25-2.6-50.9,17.63-20.24-2.5-66.77,9.84-33.15,22.68a24,24,0,0,0-22.8,7.29c-2-9.59-17-8.87-22.35-.65-19.48-7-31.89,5.57-18.18,15.37-21.21-.81-22.21,11.64-4.44,15.24-10.84.84-21.33,3.11-25.24,9.21a126.21,126.21,0,0,0,24.17,3.47c-3.46,1-6.8,2.68-10,3.57,7.77,1.31,17.22,1.81,25.86,2.21.42,9.45,15.24,8.35,25.82,5.42,1.26,9,18.31,12.45,27.07,6.21,13.12,7.89,31.29,6.78,47.55,5.21-.29-1.69.13-3.77-.14-5.4,11,3.61,25.74,3.41,28.8-4.73,15.39,5.07,29.25,26.17,48,10.38,9.83,3.25,21.59,3.31,28.35-1.83,4.15,5.41,15.13,7.34,22.74,4a11.92,11.92,0,0,0,3.51-1.07c13.06,7.38,30.83,6.3,46.76,4.76-.28-1.7.14-3.78-.13-5.41,9.33,3.08,21.44,3.38,26.72-1.63a10.46,10.46,0,0,0,12.78,2.46c11.48,7.41,23,16.9,37.29,4.82,11.15,3.69,24.82,3.28,30.8-4.2,4.86,6.78,26.41,10.52,27.32.36,12,10.69,51.33,5,33.74-4.47,10.29,5,25.51,4.82,33.77,0-.49,10,12.26,15.5,20.18,5.32,9.7,3.79,5.53,3.76,12.88.64,10.76,6.31,32.72,8,41-.38Z"/>
      <g class="cls-38">
        <path class="cls-39" d="M1550.46,885.48c-2.61,1.4-4.24-2.15-4.24-2.15a3.37,3.37,0,0,1-4.94-.91,4.4,4.4,0,0,1,.49-5.54,3.06,3.06,0,0,1-1.59-4.06c1.28-3.73,4.75-.3,4.75-.3s.29-5.06,3.62-3.46,1.93,5,1.93,5,4.19-.63,4.27,3.43-2.87,2.9-2.87,2.9S1553.07,884,1550.46,885.48Z"/>
        <path class="cls-39" d="M1366.24,874.51c-2,2.45-4,.07-4,.07s-2.11,3.14-4.44,1.49-.59-5-.59-5-2.45.32-2.11-2.79c.41-3.8,4.06-2.44,4.06-2.44s-.68-4.55,2.5-4.66,2.59,3.46,2.59,3.46,3.53-2.46,4.34,1-2,3.79-2,3.79A4.44,4.44,0,0,1,1366.24,874.51Z"/>
        <path class="cls-39" d="M1530.58,856.8c-2.14.87-3.3-2.1-3.3-2.1a2.78,2.78,0,0,1-3.91-1.16,3.39,3.39,0,0,1,.61-4.37,2.55,2.55,0,0,1-1.1-3.34c1.16-2.85,3.81.17,3.81.17s.43-4,3-2.44a3.22,3.22,0,0,1,1.34,4.16s3.39-.11,3.28,3.13-2.38,2-2.38,2S1532.7,855.9,1530.58,856.8Z"/>
        <path class="cls-39" d="M1426.94,854.88c-2.6,2.33-4.77-1-4.77-1s-2.77,3.15-5.35.51-.2-6.12-.2-6.12-2.88-.33-2.18-3.86c.81-4.42,5-1.73,5-1.73s-.35-5.57,3.37-4.86,2.68,4.83,2.68,4.83,4.4-1.89,5,2.45-2.66,4-2.66,4S1429.51,852.59,1426.94,854.88Z"/>
        <path class="cls-39" d="M1399,845.51c-2,.73-3-2-3-2a2.54,2.54,0,0,1-3.53-1.21,3,3,0,0,1,.61-3.95,2.37,2.37,0,0,1-.93-3.1c1.11-2.55,3.44.34,3.44.34s.48-3.65,2.81-2.13a2.94,2.94,0,0,1,1.15,3.83s3.07,0,2.94,3-2.22,1.75-2.22,1.75S1401,844.76,1399,845.51Z"/>
        <path class="cls-39" d="M1474.3,889.81c-2.77,1.48-4.43-2.28-4.43-2.28s-3,2.24-5.2-.86.57-5.79.57-5.79a3.09,3.09,0,0,1-1.57-4.19c1.35-3.91,5-.37,5-.37s.38-5.3,3.86-3.63,1.93,5.22,1.93,5.22,4.44-.66,4.46,3.59-3,3-3,3S1477,888.29,1474.3,889.81Z"/>
        <path class="cls-39" d="M1502.84,876.65c-2.07.45-2.92-2.56-2.92-2.56a2.84,2.84,0,0,1-3.59-1.77,3,3,0,0,1,.92-4,2.59,2.59,0,0,1-.74-3.32c1.31-2.47,3.56.83,3.56.83s.75-3.63,3.06-1.7a3.16,3.16,0,0,1,.91,4.11s3.18.53,2.81,3.5-2.4,1.47-2.4,1.47S1504.93,876.22,1502.84,876.65Z"/>
        <path class="cls-39" d="M1499.69,801.23a2.28,2.28,0,0,1-3.68,0s-1.91,2.87-4,1.37-.54-4.57-.54-4.57-2.22.31-1.91-2.51c.38-3.47,3.68-2.23,3.68-2.23s-.59-4.15,2.29-4.25,2.35,3.15,2.35,3.15,3.2-2.24,4,.94-1.79,3.42-1.79,3.42A4.1,4.1,0,0,1,1499.69,801.23Z"/>
        <path class="cls-39" d="M1559.92,803.54c-2.37,2.14-4.37-.95-4.37-.95s-2.54,2.88-4.91.46-.2-5.61-.2-5.61-2.64-.32-2-3.56c.75-4,4.57-1.58,4.57-1.58s-.33-5.12,3.08-4.47,2.48,4.44,2.48,4.44,4-1.73,4.59,2.23-2.45,3.65-2.45,3.65S1562.3,801.42,1559.92,803.54Z"/>
        <path class="cls-39" d="M1531.58,772.64c-1.78.65-2.69-1.85-2.69-1.85a2.31,2.31,0,0,1-3.21-1.11,2.75,2.75,0,0,1,.56-3.6,2.14,2.14,0,0,1-.84-2.8c1-2.33,3.13.28,3.13.28s.42-3.3,2.54-1.9a2.67,2.67,0,0,1,1.06,3.46s2.8,0,2.65,2.72-2,1.59-2,1.59S1533.36,771.94,1531.58,772.64Z"/>
        <path class="cls-39" d="M1595,784c-1.49.8-2.36-1.21-2.36-1.21a1.9,1.9,0,0,1-2.76-.46,2.45,2.45,0,0,1,.31-3.07,1.65,1.65,0,0,1-.85-2.23c.73-2.09,2.66-.2,2.66-.2s.2-2.81,2-1.94a2.13,2.13,0,0,1,1,2.77s2.36-.33,2.36,1.93-1.6,1.59-1.6,1.59S1596.5,783.21,1595,784Z"/>
      </g>
    </g>
  </g>
</svg>
