<svg id="Layer_1" data-name="Layer 1" xmlns="http://www.w3.org/2000/svg" xmlns:xlink="http://www.w3.org/1999/xlink" width="72" height="63" viewBox="0 0 72 63">
  <defs>
    <style>
      .cls-1, .cls-7 {
        fill: none;
      }

      .cls-2 {
        opacity: 0.3;
      }

      .cls-3 {
        fill: #666;
      }

      .cls-3, .cls-4, .cls-5, .cls-6, .cls-7 {
        fill-rule: evenodd;
      }

      .cls-4 {
        fill: #e50303;
      }

      .cls-5 {
        fill: red;
      }

      .cls-6 {
        fill: #fff;
        opacity: 0.46;
      }

      .cls-7 {
        stroke: #491a07;
        stroke-miterlimit: 10;
      }

      .cls-8 {
        clip-path: url(#clip-path);
      }

      .cls-9 {
        fill: #6de2fe;
      }

      .cls-10 {
        fill: #42b236;
      }
    </style>
    <clipPath id="clip-path">
      <rect class="cls-1" x="-1702.62" y="-323.35" width="1280" height="720"/>
    </clipPath>
  </defs>
  <g>
    <ellipse class="cls-2" cx="42.97" cy="47.82" rx="20.03" ry="6.18"/>
    <g>
      <g>
        <g>
          <path class="cls-3" d="M46.68,26.79a12.62,12.62,0,0,0,7.49-4.58,3.94,3.94,0,0,1,1.08-1.11,1.63,1.63,0,0,1,.65-.19,1.24,1.24,0,0,1,.65.15,1.08,1.08,0,0,1,.46.46,1.13,1.13,0,0,1,.12.65,2,2,0,0,1-.47,1,10.12,10.12,0,0,1-6.58,3.64A12.1,12.1,0,0,1,46.68,26.79Z"/>
          <path class="cls-4" d="M17.57,36.94a10.92,10.92,0,0,1-2.22-5.68,16.13,16.13,0,0,1,.84-6.11A25.59,25.59,0,0,1,22,14.91,19.29,19.29,0,0,1,32.25,9.2a15.45,15.45,0,0,1,9.2,1A13.08,13.08,0,0,1,48,16.71a12.19,12.19,0,0,1-.14,10.05,12,12,0,0,1,6.29,11.9,13.25,13.25,0,0,1-3.83,7.78,16.51,16.51,0,0,1-7.63,4.25C37,52.14,30.85,50.8,25.5,48.33a17.12,17.12,0,0,1-4.9-3.17A10.63,10.63,0,0,1,17.57,36.94Z"/>
          <path class="cls-5" d="M16.94,33.35a10,10,0,0,1,.63-5.23,19.16,19.16,0,0,1,2.68-4.58c3.12-4.13,7.34-7.63,12.35-8.89a13.52,13.52,0,0,1,7.77.2A9.62,9.62,0,0,1,46.07,20a8.38,8.38,0,0,1-.3,7.14,10.36,10.36,0,0,1,7.15,9.66,11.59,11.59,0,0,1-1.72,6.11,14.59,14.59,0,0,1-4.47,4.55,18.29,18.29,0,0,1-10.86,2.84,21.94,21.94,0,0,1-10.69-3.58,15.74,15.74,0,0,1-5.95-6.48,11.47,11.47,0,0,1-1-3.68A8,8,0,0,1,16.94,33.35Z"/>
        </g>
        <path class="cls-6" d="M44.47,29.82s1.37,5.89,6.11,7.58c0,0-5.19,9.16-15.22,6.25C35.36,43.65,44.57,39.27,44.47,29.82Z"/>
      </g>
      <path class="cls-7" d="M50.3,46.44a13.25,13.25,0,0,0,3.83-7.78,12,12,0,0,0-6-11.76,12.09,12.09,0,0,0,2-.12,10.12,10.12,0,0,0,6.58-3.64,2,2,0,0,0,.47-1,1.13,1.13,0,0,0-.12-.65,1.08,1.08,0,0,0-.46-.46,1.24,1.24,0,0,0-.65-.15,1.63,1.63,0,0,0-.65.19,3.94,3.94,0,0,0-1.08,1.11A12.78,12.78,0,0,1,48,26.47a12.18,12.18,0,0,0,0-9.76,13.08,13.08,0,0,0-6.53-6.48,15.45,15.45,0,0,0-9.2-1A19.29,19.29,0,0,0,22,14.91a25.59,25.59,0,0,0-5.83,10.24,16.13,16.13,0,0,0-.84,6.11,10.92,10.92,0,0,0,2.22,5.68,10.63,10.63,0,0,0,3,8.22,17.12,17.12,0,0,0,4.9,3.17C30.85,50.8,37,52.14,42.67,50.69A16.51,16.51,0,0,0,50.3,46.44Z"/>
    </g>
  </g>
  <g class="cls-8">
    <path class="cls-9" d="M345.41,324.5l0-92.72V201.41l-.13-458.67,0-147.62-15622.49.31.07,186.16h0l0,129.3v105l0,63.92v1.62c1.21.12,1.78,4,2,9.52.19,5.81,0,13.53-.41,20.89s-.83,14.12-1.15,18.58h0c-.19,2.48-.35,4.21-.38,4.84v0a1.22,1.22,0,0,0,0,.23s0,0,.06.05c.42.58,5.25,6.79,7.85,7.15l0,89.05,0,59.93c4.38,15.44,6.54,30.05,2.35,46.16q-1.14,4.36-2.34,8.73l0,140.52v8h237.47L-2,494.82H337.53l0-163.81h7.91Z"/>
    <path class="cls-10" d="M24.24-10.37V317h-2272.7V35.85a1.09,1.09,0,0,1,.23.09,25.64,25.64,0,0,1,6.56,1.4,8.32,8.32,0,0,1,4.51,3.34l.29,0a6.47,6.47,0,0,1,.74-5.12,9.89,9.89,0,0,1,5.58-3.84c3.44-1,7.56-.81,11.34-.36l.14-.22a15,15,0,0,1-7-3.66,3.59,3.59,0,0,1-1.26-2.5c.13-1.78,2.76-3.19,5.64-3.68a35,35,0,0,1,8.86,0l.34-.66c-3.56-1.08-5.86-3.54-5.39-5.91a8.14,8.14,0,0,1,2.72-3.92,34.33,34.33,0,0,1,6.41-4.59l-.11-.14-11.41,3.2a40.42,40.42,0,0,1-11,1.95c-3.86,0-8-1.37-8.84-3.6-.62-1.64.67-3.38,2.68-4.57a28.4,28.4,0,0,1,7.2-2.63c6.76-1.78,13.75-3.26,20.88-4.42l-.23-.5a17.88,17.88,0,0,1-7.1-.69c-3.89-1.1-7.5-3.13-7.79-5.69a5,5,0,0,1,1.58-3.69c2.2-2.48,5.85-4.49,10.2-5.59l.51-.53a36.53,36.53,0,0,1-11-2.49c-3.18-1.39-5.61-3.52-5.88-5.87-.41-3.41,4-6.64,9.53-7.61a27.19,27.19,0,0,1,16.07,2.38c-.4-3.52,4.29-6.52,9.23-8.47a28.3,28.3,0,0,1,7.47-2,15.08,15.08,0,0,1,7.82,1c3.11,1.54,3.56,4.28,3,6.67a13.77,13.77,0,0,1-1.25,3.37l1.14.38a23.91,23.91,0,0,1,8.38-4.64c3.43-1,7.85-1.19,11,.13a5.56,5.56,0,0,1,3.53,3.34,3.67,3.67,0,0,1-1.59,3.75l.83.37,3.07-1.31a21.41,21.41,0,0,1,7.06-2.05,9,9,0,0,1,5.16,1.09c-.65-5.08,2.58-10.32,8.75-13.88A17.55,17.55,0,0,1-2120-49.1c4.44.31,7.67,2.87,8.4,5.49s-.47,5.28-1.73,7.82a11.42,11.42,0,0,1-1.53,2.51l.32.1,6.89-3a14.73,14.73,0,0,1,3.5-1.21c3.46-.62,7,.71,9.76,2.13,3.59,1.89,6.91,4.24,7.54,7.08,2.61-3.61,9.77-5.82,16.25-5l.32-.24c-3.7-1.83-6.53-4.4-6.53-7.22s2.78-5.36,6.68-6.85a32.59,32.59,0,0,1,13.33-1.66h1.42c-2.28-2.07-4.31-4.31-5-6.76s.28-5.14,3.24-6.89a18.6,18.6,0,0,1,6.66-2c5.31-.75,11.26-.13,15.45,1.93,3.84,1.89,5.94,5,5.06,7.87a27.45,27.45,0,0,1,9.79-5.76,30.21,30.21,0,0,1,11.12-1.83c3.89.17,7.78,1.42,9.57,3.48s1.27,4.58.19,6.81a23.53,23.53,0,0,1-5.91,7.46l.4.16a32.21,32.21,0,0,1,5.37-2.07,14.43,14.43,0,0,1,6.24-.31,12.26,12.26,0,0,1,6.18,3.66,13.5,13.5,0,0,1,3.51,4.35,8.56,8.56,0,0,1,0,4.76,3.8,3.8,0,0,1-1.1,2.38c5-3,11.91-4.95,19.06-5.19l.14,0a7.53,7.53,0,0,1-2.39-4.15,4.65,4.65,0,0,1,2.56-4.47,15.77,15.77,0,0,1,7.39-1.66,60.91,60.91,0,0,1,8,.62,1.9,1.9,0,0,0,.89,0,.82.82,0,0,0,.46-.43c1.18-2,2.23-4.17,4.74-5.72s7-2.19,9.7-.73a5.7,5.7,0,0,1,1.92,1.73,13.6,13.6,0,0,1,2.17,3.89,10.35,10.35,0,0,1,3.58-4.48,17.63,17.63,0,0,1,9.81-3.33c3.87-.12,8,1.29,9,3.5a3.27,3.27,0,0,1,.22,2l.8-.12c5.61-1.53,13,0,15.86,3.27a24,24,0,0,1,13.41-7.57c5.87-1.14,13.23,0,16.13,3.24a12.88,12.88,0,0,1,1-4.61c1.84-4,7.44-7.33,14.11-8.69a43.32,43.32,0,0,1,20.52,1.06c4.94,1.5,9.47,4.34,9,7.62a7.52,7.52,0,0,1-2.23,3.64,17.9,17.9,0,0,1-7.4,4.92l0,0a28,28,0,0,1,10.46.13c3.28.79,5.92,2.75,5.68,4.85a4.61,4.61,0,0,1-.71,1.74,11,11,0,0,1-3.84,3.77,13.92,13.92,0,0,1-5.58,1.81l4.16.52a31.33,31.33,0,0,1,6.91,1.39c2.06.79,3.66,2.16,3.45,3.6a3.69,3.69,0,0,1-1.42,2.05c-2.35,1.95-6.25,3.08-10.23,3.49a66.86,66.86,0,0,1-12-.15l0,.21a40.56,40.56,0,0,1,7.18,1.84c2,.73,3.9,1.69,4.57,3a3.1,3.1,0,0,1-.76,3.44c-2.28,2.65-7,4.16-11.57,5.38a29.59,29.59,0,0,1-7.3,1.25,31.11,31.11,0,0,1-8.45-1.35l-.38.53a12.43,12.43,0,0,1,5,2.6,17,17,0,0,1,3.37,3.06A3.27,3.27,0,0,1-1837-1.2l1.66.33c1.42-3.41,7.59-5.87,13.45-5.39s10.64,3.87,10.43,7.39c1.78-1.33,5-1.68,7.8-1.54.55,0,1.09.06,1.63.12-8.43-5.52-11.77-13.41.22-18.84,16.86-7.64,32.85,1.91,37.6,11.43,3.79-4,13.43-6.23,20.71-4.33.68-4.81,9.63-7.58,17-6.11-6.43-5.66-12.29-14.25-4.42-20.51,6.21-5,19.41-3.81,26.16,0,8,4.49,9.44,11.57,10.51,17.71,3.77-3.95,11-7,18.94-6.55-5.28-4.79-6-10.72.62-15.21,7-4.75,19.34-6.36,25.69-.29,2-5.34,8.91-9.89,18.55-10,20.31,0,24.82,15.32,20.57,24.39,15-6.21,21.62,5.72,21.44,12.67,3-2.13,7.68-5.51,13-4.7-2.13-7.83-.45-15.58,14.09-18.57,14.78-3,21.64,5.43,18.33,13,9.84-5.94,25.34-6.64,31,.9a22.78,22.78,0,0,1,2.71-1.32c15.51-6.58,26.29,3.68,35.75,10.08-1.33-5.44,1.78-14.91,14.63-16.05s18.17,8,22,14.82c9.76-8.77,19.8-4,24.68,1.23,1.32-3.43,5.61-12.45,14.48-15.62s22.16-4.19,32.36-3.76c-7.25-3.51-12.12-12.71-6.35-16.66s16.25-2.28,27.33,3.6c-2.08-6.92,1.47-19.55,19.65-18.93s17.57,18,13,25.41c.61-.26,15.27-6.45,27.72-.17-1.67-8.22-2.91-19.81,14.28-25.26s28.68,13.54,28.68,13.54c9.71-7.81,24.54-22.58,42.62-18.33s15.29,22.83,1.34,34.94c7.26-1.58,19.2.93,14.84,9.74,4.59-4.37,11.72-8.6,22.66-5.43,9.46,2.75,7.26,12.58,7.26,12.58,11.93-13.64,28.77-26.35,44.4-21.85,15.2,4.38,5.92,19.38-6.9,34,.58-.18,13.63-4.21,20.07-.86s-.9,9-5,13.18-5.58,8.28,0,8.94c4.45.53,17.22-3.66,26-3.89-2.93-4.5-2-9.39,6.3-13.13,16.86-7.64,32.85,1.91,37.6,11.43,3.8-4,13.43-6.22,20.7-4.32.68-4.81,9.63-7.59,17-6.11-6.44-5.66-12.28-14.24-4.41-20.52,6.21-4.95,19.41-3.81,26.15,0,8,4.48,9.45,11.56,10.51,17.71,3.78-4,11-7,18.94-6.55-5.27-4.79-6-10.72.61-15.22,7-4.74,19.36-6.35,25.7-.29,2-5.34,8.92-9.88,18.55-10,20.32,0,24.81,15.32,20.58,24.39,15-6.21,21.62,5.73,21.42,12.67,3-2.13,7.7-5.5,13-4.7-2-7.43-.6-14.81,12-18.08-.81-4.37.48-8.85,4.4-12.77,3.65-3.65,10.28-6.39,17.65-5.63,8.3.85,13.24,6.43,14.56,11a23.72,23.72,0,0,1,9.89-4.05c-7.68-5.56,3.21-12.88,12.19-14.84-15.25-4-28.55-16.42-11.75-24s32.85,1.91,37.6,11.44c3.79-4,13.44-6.23,20.71-4.32.68-4.82,9.63-7.6,17-6.12-6.44-5.65-12.28-14.24-4.42-20.51,6.21-5,19.4-3.82,26.15,0,8,4.47,9.44,11.56,10.51,17.71,3.78-4,11-7,18.95-6.56-5.29-4.79-6-10.72.61-15.21,7-4.74,19.35-6.36,25.69-.3,1.95-5.34,8.91-9.87,18.56-10,20.31,0,24.81,15.31,20.56,24.38,15-6.2,21.62,5.74,21.44,12.67,3-2.13,7.68-5.5,13-4.7-2.13-7.82-.46-15.58,14.09-18.56,14.77-3,21.63,5.43,18.32,13,10.94-6.62,28.87-6.74,32.49,3.69,3.36,9.71-5.48,20.71-16.82,27.46a70.64,70.64,0,0,1,32.57,6c-.58-2.46-1.28-5.54,1.83-7.49,3.54-2.22,10-2.13,14.52-1.42,7.15,1.11,10.8,4.12,13.08,7.93.8-.13,1.59-.23,2.36-.29a34.9,34.9,0,0,1,22.34-7.94c6.78,0,12.94,1.53,16.39,4.59a22.09,22.09,0,0,1,3.44-.55c12.86-1.15,18.18,8,22,14.81,9.76-8.76,19.8-4,24.67,1.22,1.34-3.42,5.63-12.44,14.49-15.6s22.16-4.2,32.36-3.77c-7.25-3.51-12.12-12.71-6.36-16.65s16.26-2.28,27.34,3.59c-2.08-6.92,1.48-19.55,19.64-18.93s17.59,18,13,25.41c.61-.26,15.27-6.46,27.71-.17-1.67-8.21-2.9-19.81,14.29-25.26s28.68,13.54,28.68,13.54c9.7-7.81,24.54-22.58,42.63-18.34s15.28,22.84,1.33,35c7.26-1.59,19.19.92,14.85,9.73,4.57-4.36,11.71-8.61,22.65-5.43,9.45,2.75,7.25,12.58,7.25,12.58,11.94-13.64,28.79-26.35,44.41-21.85,15.19,4.38,5.91,19.39-6.9,34,.58-.17,13.62-4.2,20.07-.84s-.89,8.94-5,13.18-5.57,8.27,0,8.93,24.22-6.09,31.71-3.17C-3.43-4.92-1.56-.38-1.7,5a12,12,0,0,1,4.09-1,46.59,46.59,0,0,1,5-2.6,2.64,2.64,0,0,1,0-.74c.43-1.93,3.07-3.63,6.3-4a18.56,18.56,0,0,1,5.1.18l.54-.66a14.57,14.57,0,0,1-3.64-1.46C14-6.33,13.09-8.1,14.44-9.39c1.87-1.81,6.25-1.55,9.8-1"/>
  </g>
</svg>
