<svg id="Layer_1" data-name="Layer 1" xmlns="http://www.w3.org/2000/svg" xmlns:xlink="http://www.w3.org/1999/xlink" width="1600" height="900" viewBox="0 0 1600 900">
  <defs>
    <style>
      .cls-1 {
        fill: none;
      }

      .cls-2 {
        clip-path: url(#clip-path);
      }

      .cls-3 {
        clip-path: url(#clip-path-2);
      }

      .cls-4 {
        fill: #191c3f;
      }

      .cls-5 {
        opacity: 0.7;
      }

      .cls-6 {
        fill: #f4edf9;
      }

      .cls-7 {
        opacity: 0.8;
      }

      .cls-8 {
        opacity: 0.77;
      }

      .cls-9 {
        opacity: 0.76;
      }

      .cls-10 {
        fill: #f9f0bd;
      }

      .cls-11 {
        opacity: 0.57;
      }

      .cls-12 {
        opacity: 0.88;
      }

      .cls-13 {
        opacity: 0.79;
      }

      .cls-14 {
        opacity: 0.8;
      }

      .cls-15 {
        opacity: 0.78;
      }

      .cls-16 {
        fill: #a0e6f9;
      }

      .cls-17 {
        opacity: 0.92;
      }

      .cls-18 {
        fill: #b8e9f4;
      }

      .cls-19 {
        opacity: 0.89;
      }

      .cls-20 {
        fill: #f9e9aa;
      }

      .cls-21 {
        clip-path: url(#clip-path-3);
      }

      .cls-22 {
        clip-path: url(#clip-path-4);
      }

      .cls-23 {
        fill: url(#linear-gradient);
      }

      .cls-24 {
        clip-path: url(#clip-path-5);
      }

      .cls-25 {
        clip-path: url(#clip-path-6);
      }

      .cls-26 {
        opacity: 0.21;
      }

      .cls-27 {
        fill: #23490f;
      }

      .cls-28 {
        opacity: 0.56;
      }

      .cls-29 {
        fill: url(#radial-gradient);
      }

      .cls-30 {
        fill: #0c4c2d;
      }

      .cls-31 {
        fill: #13382e;
      }

      .cls-32 {
        fill: #3d7331;
      }

      .cls-33 {
        clip-path: url(#clip-path-7);
      }

      .cls-34 {
        clip-path: url(#clip-path-8);
      }

      .cls-35 {
        clip-path: url(#clip-path-9);
      }

      .cls-36 {
        clip-path: url(#clip-path-10);
      }
    </style>
    <clipPath id="clip-path">
      <rect class="cls-1" x="8429.68" y="-284.03" width="1600" height="900"/>
    </clipPath>
    <clipPath id="clip-path-2">
      <rect class="cls-1" x="-651.79" y="577.77" width="11168.71" height="2050"/>
    </clipPath>
    <clipPath id="clip-path-3">
      <rect class="cls-1" x="8629.25" y="1888.32" width="1280" height="720"/>
    </clipPath>
    <clipPath id="clip-path-4">
      <rect class="cls-1" x="8469.25" y="1798.32" width="1600" height="900"/>
    </clipPath>
    <linearGradient id="linear-gradient" x1="3652.26" y1="3900.29" x2="3652.26" y2="-3083.55" gradientUnits="userSpaceOnUse">
      <stop offset="0" stop-color="#a4f2ff"/>
      <stop offset="0.23" stop-color="#69e3ff"/>
      <stop offset="0.45" stop-color="#34d5ff"/>
      <stop offset="0.57" stop-color="#1fd0ff"/>
      <stop offset="0.65" stop-color="#25c3ff"/>
      <stop offset="0.81" stop-color="#36a2ff"/>
      <stop offset="1" stop-color="#4d73ff"/>
    </linearGradient>
    <clipPath id="clip-path-5">
      <rect class="cls-1" x="160" y="90" width="1280" height="720"/>
    </clipPath>
    <clipPath id="clip-path-6">
      <rect class="cls-1" width="1600" height="900"/>
    </clipPath>
    <radialGradient id="radial-gradient" cx="3569.78" cy="1363.32" r="725.03" gradientTransform="matrix(-0.81, 0, 0, 0.4, 3814.02, 181.6)" gradientUnits="userSpaceOnUse">
      <stop offset="0" stop-color="#61dfff"/>
      <stop offset="0.14" stop-color="#5adaff"/>
      <stop offset="0.35" stop-color="#47caff"/>
      <stop offset="0.59" stop-color="#28b1ff"/>
      <stop offset="0.84" stop-color="#0091ff"/>
    </radialGradient>
    <clipPath id="clip-path-7">
      <rect class="cls-1" x="-1602" y="90" width="1280" height="720"/>
    </clipPath>
    <clipPath id="clip-path-8">
      <rect class="cls-1" x="-1762" width="1600" height="900"/>
    </clipPath>
    <clipPath id="clip-path-9">
      <rect class="cls-1" x="3760" y="90" width="1280" height="720"/>
    </clipPath>
    <clipPath id="clip-path-10">
      <rect class="cls-1" x="3600" width="1600" height="900"/>
    </clipPath>
  </defs>
  <g class="cls-2">
    <g class="cls-3">
      <rect class="cls-4" x="-651.79" y="577.77" width="5584.35" height="2050"/>
      <g>
        <g class="cls-5">
          <path class="cls-6" d="M1596.31,384a2,2,0,1,1-2-1.9A1.94,1.94,0,0,1,1596.31,384Z"/>
        </g>
        <g>
          <g class="cls-7">
            <g class="cls-8">
              <path class="cls-6" d="M785.29,708.93l.17,6a1.91,1.91,0,0,1-1.35,1.87l-5.89,1.93,6.22-.16a2,2,0,0,1,1.94,1.3l2,5.7-.17-6a1.94,1.94,0,0,1,1.35-1.88l5.89-1.93-6.21.17a2,2,0,0,1-1.94-1.31Z"/>
            </g>
            <path class="cls-6" d="M994.9,641.83l-1.12,5.91a2,2,0,0,1-1.73,1.57l-6.17.7L992,651.1a2,2,0,0,1,1.61,1.67l.73,6,1.12-5.92a2,2,0,0,1,1.73-1.56l6.18-.71-6.12-1.08a2,2,0,0,1-1.62-1.67Z"/>
            <g class="cls-9">
              <path class="cls-6" d="M560.37,459.81l-.61,6a2,2,0,0,1-1.59,1.71L552,468.75l6.22.59a2,2,0,0,1,1.77,1.54l1.25,5.93.61-6a2,2,0,0,1,1.59-1.71l6.14-1.21-6.23-.59a2,2,0,0,1-1.77-1.54Z"/>
            </g>
            <path class="cls-6" d="M353.94,687.58l.17,6a1.91,1.91,0,0,1-1.35,1.87l-5.89,1.93,6.22-.16a2,2,0,0,1,1.94,1.3l2,5.7-.17-6a1.94,1.94,0,0,1,1.35-1.88l5.9-1.93-6.22.17a2,2,0,0,1-1.94-1.31Z"/>
            <path class="cls-6" d="M1398.1,845.13l-4.22,4.41a2,2,0,0,1-2.32.43l-5.61-2.6,4.56,4.09a1.86,1.86,0,0,1,.45,2.24l-2.69,5.42,4.22-4.41a2,2,0,0,1,2.32-.43l5.61,2.6-4.57-4.08a1.89,1.89,0,0,1-.44-2.25Z"/>
            <path class="cls-10" d="M1453.64,421.62l6.1,9.21a3.39,3.39,0,0,1-.29,4.14l-7.3,8.35,9.52-5.89a3.72,3.72,0,0,1,4.29.27l8.64,7.06-6.1-9.2a3.41,3.41,0,0,1,.28-4.15l7.31-8.35-9.53,5.9a3.72,3.72,0,0,1-4.29-.28Z"/>
            <path class="cls-6" d="M1534.4,556l1.11,5.92a1.93,1.93,0,0,1-1,2.06l-5.52,2.76,6.12-1.07a2,2,0,0,1,2.12,1l2.87,5.34-1.11-5.92a1.89,1.89,0,0,1,1-2l5.52-2.77-6.12,1.07a2,2,0,0,1-2.12-1Z"/>
            <g class="cls-11">
              <path class="cls-6" d="M1207.59,305.94l.2,7.19a2.29,2.29,0,0,1-1.61,2.24l-7,2.31,7.44-.19a2.38,2.38,0,0,1,2.32,1.56l2.38,6.82-.2-7.2a2.3,2.3,0,0,1,1.62-2.24l7-2.31-7.44.2a2.38,2.38,0,0,1-2.32-1.57Z"/>
            </g>
            <path class="cls-6" d="M129.09,504.39l2.3,5.58a1.89,1.89,0,0,1-.6,2.21L125.94,516l5.78-2.23a2,2,0,0,1,2.29.58l3.9,4.69-2.3-5.59a1.87,1.87,0,0,1,.6-2.21l4.84-3.77-5.78,2.22a2,2,0,0,1-2.28-.58Z"/>
            <path class="cls-6" d="M335.78,331.71l1.08,8.77a2.81,2.81,0,0,1-1.72,2.91L326.79,347l9.07-1a2.93,2.93,0,0,1,3,1.66l3.71,8.07-1.08-8.77a2.8,2.8,0,0,1,1.71-2.91l8.35-3.58-9.06,1a2.94,2.94,0,0,1-3-1.66Z"/>
            <g class="cls-12">
              <path class="cls-6" d="M-7,871.55l-.44,6.23A2,2,0,0,1-9,879.59L-15.33,881l6.45.42A2.06,2.06,0,0,1-7,883l1.47,6.08.45-6.23A2,2,0,0,1-3.5,881l6.28-1.43-6.44-.43a2,2,0,0,1-1.87-1.53Z"/>
            </g>
            <path class="cls-10" d="M22.27,328.7l-1.88,5.73a2,2,0,0,1-1.92,1.34l-6.22,0,5.93,1.82a1.94,1.94,0,0,1,1.39,1.85l-.06,6,1.89-5.73a2,2,0,0,1,1.91-1.35l6.22.06-5.93-1.83a1.91,1.91,0,0,1-1.38-1.85Z"/>
            <path class="cls-6" d="M314,888.52l-5.28,12.69a4.55,4.55,0,0,1-4.58,2.73l-14.09-1.14,13.12,5.1a4.35,4.35,0,0,1,2.82,4.42L304.81,926l5.28-12.69a4.55,4.55,0,0,1,4.58-2.73l14.09,1.14-13.12-5.1a4.35,4.35,0,0,1-2.82-4.42Z"/>
            <g class="cls-13">
              <path class="cls-6" d="M1232.09,658.29l-1,5.93a2,2,0,0,1-1.69,1.59l-6.17.81,6.14,1a2,2,0,0,1,1.65,1.64l.83,6,1-5.93a2,2,0,0,1,1.7-1.59l6.16-.81-6.14-1a2,2,0,0,1-1.64-1.64Z"/>
            </g>
            <path class="cls-6" d="M990.79,423.88l.49,6a1.93,1.93,0,0,1-1.26,1.94L984.24,434l6.2-.47a2,2,0,0,1,2,1.21l2.28,5.6-.48-6a1.92,1.92,0,0,1,1.25-1.94l5.79-2.21-6.2.47a2,2,0,0,1-2-1.21Z"/>
            <path class="cls-6" d="M233.77,758.7l.17,6a1.93,1.93,0,0,1-1.35,1.88l-5.89,1.92,6.22-.16a2,2,0,0,1,1.94,1.31l2,5.69-.17-6a1.94,1.94,0,0,1,1.35-1.87l5.89-1.93-6.21.16a2,2,0,0,1-1.94-1.3Z"/>
            <g class="cls-14">
              <path class="cls-6" d="M1584,777.68l.29,10.41a3.35,3.35,0,0,1-2.34,3.25l-10.2,3.33,10.77-.28a3.43,3.43,0,0,1,3.35,2.26l3.46,9.86-.3-10.4a3.34,3.34,0,0,1,2.34-3.25l10.2-3.34-10.76.29a3.44,3.44,0,0,1-3.36-2.27Z"/>
            </g>
            <path class="cls-6" d="M18,495.47l5,6.43A2.51,2.51,0,0,1,23,505l-4.88,6.5,6.64-4.82a2.74,2.74,0,0,1,3.16,0l6.73,4.72-5-6.42a2.51,2.51,0,0,1,0-3.06l4.88-6.5-6.65,4.82a2.74,2.74,0,0,1-3.16,0Z"/>
            <g class="cls-15">
              <path class="cls-6" d="M325.37,588.81l-1.81,6.83a2.33,2.33,0,0,1-2.15,1.7l-7.28.34,7.06,1.75a2.27,2.27,0,0,1,1.75,2.08l.36,7,1.81-6.83a2.31,2.31,0,0,1,2.14-1.7l7.29-.33-7.07-1.76a2.26,2.26,0,0,1-1.75-2.07Z"/>
            </g>
            <path class="cls-6" d="M222.52,633.2l2.51,5.51a1.89,1.89,0,0,1-.52,2.23l-4.7,3.93,5.69-2.42a2,2,0,0,1,2.31.5l4.07,4.55-2.5-5.51a1.87,1.87,0,0,1,.51-2.23l4.7-3.94-5.69,2.43a2,2,0,0,1-2.3-.5Z"/>
            <path class="cls-16" d="M615.57,777.84l2.3,5.58a1.89,1.89,0,0,1-.6,2.21l-4.85,3.78,5.78-2.23a2,2,0,0,1,2.29.58l3.9,4.69-2.3-5.59a1.89,1.89,0,0,1,.6-2.21l4.84-3.78-5.77,2.23a2,2,0,0,1-2.29-.58Z"/>
            <path class="cls-6" d="M1047.89,765.69l-1.55,5.83a2,2,0,0,1-1.83,1.44l-6.21.29,6,1.5a1.93,1.93,0,0,1,1.5,1.77l.3,6,1.54-5.82a2,2,0,0,1,1.83-1.45l6.22-.28-6-1.5a1.94,1.94,0,0,1-1.49-1.77Z"/>
            <g class="cls-17">
              <path class="cls-18" d="M975.24,824.12l.17,6a2,2,0,0,1-1.35,1.88l-5.9,1.92,6.22-.16a2,2,0,0,1,1.94,1.31l2,5.69-.17-6a1.93,1.93,0,0,1,1.35-1.88l5.89-1.92-6.22.16a2,2,0,0,1-1.94-1.31Z"/>
            </g>
            <path class="cls-6" d="M1223.39,804.33l.17,6a1.91,1.91,0,0,1-1.35,1.87l-5.89,1.93,6.22-.16a2,2,0,0,1,1.94,1.31l2,5.69-.17-6a2,2,0,0,1,1.35-1.88l5.89-1.92-6.21.16a2,2,0,0,1-1.94-1.31Z"/>
            <g class="cls-19">
              <path class="cls-6" d="M638.41,865.63l-1.45,8a2.66,2.66,0,0,1-2.31,2.14l-8.35,1,8.29,1.4a2.64,2.64,0,0,1,2.21,2.24l1.06,8.07,1.45-8a2.65,2.65,0,0,1,2.31-2.13l8.35-1-8.29-1.4a2.64,2.64,0,0,1-2.21-2.24Z"/>
            </g>
            <path class="cls-6" d="M258.26,485l-1.41,5.86a2,2,0,0,1-1.8,1.49l-6.2.42,6.06,1.36a1.94,1.94,0,0,1,1.53,1.74l.44,6,1.41-5.86a2,2,0,0,1,1.8-1.48l6.2-.43-6.06-1.36A1.93,1.93,0,0,1,258.7,491Z"/>
          </g>
          <g class="cls-5">
            <ellipse class="cls-6" cx="1508.83" cy="315.98" rx="1.97" ry="1.91"/>
            <path class="cls-6" d="M1372.83,346.09a2,2,0,1,0,2-1.91A1.95,1.95,0,0,0,1372.83,346.09Z"/>
            <path class="cls-6" d="M1493.09,449.5a2,2,0,1,0,2-1.91A1.94,1.94,0,0,0,1493.09,449.5Z"/>
            <path class="cls-6" d="M1316.22,472.92a2,2,0,1,0,2-1.9A1.94,1.94,0,0,0,1316.22,472.92Z"/>
            <path class="cls-16" d="M1402,554.75a2,2,0,1,0,2-1.91A2,2,0,0,0,1402,554.75Z"/>
            <path class="cls-6" d="M1521.11,645a2,2,0,1,0,2-1.9A1.94,1.94,0,0,0,1521.11,645Z"/>
            <path class="cls-6" d="M1427.56,719.16a2,2,0,1,0,2-1.91A1.94,1.94,0,0,0,1427.56,719.16Z"/>
            <path class="cls-20" d="M1295.2,751.53a2,2,0,1,0,2-1.91A2,2,0,0,0,1295.2,751.53Z"/>
            <path class="cls-6" d="M1260.78,617a2,2,0,1,0,2-1.91A1.94,1.94,0,0,0,1260.78,617Z"/>
            <path class="cls-6" d="M1100.81,594.34a2,2,0,1,0,2-1.91A1.94,1.94,0,0,0,1100.81,594.34Z"/>
            <path class="cls-6" d="M988.56,508.41a2,2,0,1,0,2-1.9A1.94,1.94,0,0,0,988.56,508.41Z"/>
            <path class="cls-6" d="M1027.45,403a2,2,0,1,0,2-1.91A1.94,1.94,0,0,0,1027.45,403Z"/>
            <path class="cls-6" d="M899.65,644a2,2,0,1,0,2-1.91A1.93,1.93,0,0,0,899.65,644Z"/>
            <path class="cls-6" d="M842.88,556.79a2,2,0,1,0,2-1.91A1.94,1.94,0,0,0,842.88,556.79Z"/>
            <path class="cls-20" d="M865.18,412.63a2,2,0,1,0,2-1.91A1.94,1.94,0,0,0,865.18,412.63Z"/>
            <path class="cls-6" d="M673.29,347.1a2,2,0,1,0,2-1.9A1.94,1.94,0,0,0,673.29,347.1Z"/>
            <path class="cls-6" d="M462.14,454.7a2,2,0,1,0,2-1.91A1.93,1.93,0,0,0,462.14,454.7Z"/>
            <path class="cls-6" d="M648.65,587a2,2,0,1,0,2-1.9A1.94,1.94,0,0,0,648.65,587Z"/>
            <path class="cls-6" d="M502.09,645.14a2,2,0,1,0,2-1.91A1.95,1.95,0,0,0,502.09,645.14Z"/>
            <path class="cls-6" d="M398.55,651.58a2,2,0,1,0,2-1.91A1.94,1.94,0,0,0,398.55,651.58Z"/>
            <path class="cls-6" d="M409.63,492.53a2,2,0,1,0,2-1.91A1.94,1.94,0,0,0,409.63,492.53Z"/>
            <path class="cls-6" d="M307.66,365.47a2,2,0,1,0,2-1.91A2,2,0,0,0,307.66,365.47Z"/>
            <path class="cls-6" d="M181,390.21a2,2,0,1,0,2-1.91A2,2,0,0,0,181,390.21Z"/>
            <path class="cls-6" d="M147.51,454.93a2,2,0,1,0,2-1.9A1.94,1.94,0,0,0,147.51,454.93Z"/>
            <path class="cls-6" d="M143.18,558.11a2,2,0,1,0,2-1.91A1.94,1.94,0,0,0,143.18,558.11Z"/>
            <path class="cls-6" d="M81.84,609.75a2,2,0,1,0,2-1.91A1.94,1.94,0,0,0,81.84,609.75Z"/>
            <path class="cls-20" d="M187.53,765.57a2,2,0,1,0,2-1.91A1.94,1.94,0,0,0,187.53,765.57Z"/>
            <path class="cls-6" d="M313.06,792.53a2,2,0,1,0,2-1.91A2,2,0,0,0,313.06,792.53Z"/>
            <path class="cls-6" d="M715.11,890.37a2,2,0,1,0,2-1.91A1.94,1.94,0,0,0,715.11,890.37Z"/>
            <ellipse class="cls-6" cx="773.65" cy="785.92" rx="1.97" ry="1.91"/>
            <path class="cls-6" d="M863,769.76a2,2,0,1,0,2-1.9A1.94,1.94,0,0,0,863,769.76Z"/>
            <path class="cls-6" d="M889.49,890.38a2,2,0,1,0,2-1.91A1.93,1.93,0,0,0,889.49,890.38Z"/>
            <path class="cls-6" d="M1005,901.05a2,2,0,1,0,2-1.9A1.94,1.94,0,0,0,1005,901.05Z"/>
            <path class="cls-6" d="M1079.55,850.32a2,2,0,1,0,2-1.91A1.94,1.94,0,0,0,1079.55,850.32Z"/>
            <path class="cls-6" d="M1131.15,855.83a2,2,0,1,0,2-1.91A1.94,1.94,0,0,0,1131.15,855.83Z"/>
            <path class="cls-6" d="M1462.89,836.29a2,2,0,1,0,2-1.91A1.94,1.94,0,0,0,1462.89,836.29Z"/>
            <path class="cls-6" d="M1511.26,843.74a2,2,0,1,0,2-1.91A2,2,0,0,0,1511.26,843.74Z"/>
            <ellipse class="cls-6" cx="1532.1" cy="893.6" rx="1.97" ry="1.91"/>
            <path class="cls-6" d="M499.74,878.51a2,2,0,1,0,2-1.91A1.94,1.94,0,0,0,499.74,878.51Z"/>
            <path class="cls-6" d="M438.65,787.11a2,2,0,1,0,2-1.91A1.94,1.94,0,0,0,438.65,787.11Z"/>
            <path class="cls-6" d="M1597.59,384a2,2,0,1,0,2-1.9A1.94,1.94,0,0,0,1597.59,384Z"/>
            <path class="cls-20" d="M106.51,287.08a2,2,0,1,0,2-1.91A1.94,1.94,0,0,0,106.51,287.08Z"/>
            <path class="cls-6" d="M1087.49,319.11a2,2,0,1,0,2-1.91A1.94,1.94,0,0,0,1087.49,319.11Z"/>
            <path class="cls-6" d="M1.87,405.49a1.94,1.94,0,0,0,2,1.91,1.91,1.91,0,1,0,0-3.82A1.94,1.94,0,0,0,1.87,405.49Z"/>
            <path class="cls-6" d="M516.41,325.56a2,2,0,1,0,2-1.91A1.94,1.94,0,0,0,516.41,325.56Z"/>
            <path class="cls-16" d="M596.49,381.67a2,2,0,1,0,2-1.91A2,2,0,0,0,596.49,381.67Z"/>
            <ellipse class="cls-16" cx="1099.41" cy="677.36" rx="1.97" ry="1.91"/>
            <path class="cls-16" d="M41.84,762.46a2,2,0,1,0,2-1.91A1.94,1.94,0,0,0,41.84,762.46Z"/>
          </g>
        </g>
      </g>
    </g>
  </g>
  <g class="cls-21">
    <g class="cls-22">
      <rect class="cls-23" x="-2943.59" y="-1904.08" width="13191.7" height="5525.81"/>
    </g>
  </g>
  <g class="cls-24">
    <g class="cls-25">
      <g>
        <g class="cls-26">
          <path class="cls-27" d="M107.85,837.93c-21.52-.09,54-54.42-32-92.34-4.77-1.15-7-6.69-3.53-11.61,4.75-6.7,48-26.53,55.28-29.17,56.91-20.8,48.08-30.42,109.62-33.28a113.7,113.7,0,0,1-38.62-16.87,7.3,7.3,0,0,1-3.42-6c.09-4.23,4.25-5.55,7.94-6.43a235.3,235.3,0,0,1,54.47-6.41c-6.08-7.19-24.14-6.79-22.48-15.43.58-3,3.2-5.31,6.49-6.09,67.25-16.12,136.92-22.4,206.19-28.89,2.69-.26,5-2,5.27-4.42.36-2.77-2.3-4.07-4.66-5.08l-34.12-14.55a6.92,6.92,0,0,1-4.29-4.88c-.86-4.62,4.53-6.64,9-7.69q26.67-6.32,53.88-10.75l-16.91-9.19a815.89,815.89,0,0,1,113.45-7.69c28.57.07,41,1.42,67.91-7.42,22.77-7.5,13.43-8.41,37.69-7.87,65.43,1.46,180.43,3.15,245.86,4.61,6.28.14,10,2.44,14.9,5.88s2.38,6.25-3,9C988.53,529.11,1055,539,1110.13,538c39.84-.75,80.39,15.32,142.62,30.79,18.62,4.62-31.56,16.93-35.09,21,78.8.8,122.93-8.78,200.71,2.37,7,1,66.15,15.5,77.58,18.64,25.33,12.44-22.4,18.72-29.52,18.58,31.1,4,142.25,17.65,114.09,23.13-49.64,9.66,70,3.42,120.8,23.82,3.12,1.26,6.6,4.63,7.56,7.53,3,9-8.51,14.24-17.84,16.6-43.34,11-119.9,35.4-164.61,40.7a.32.32,0,1,0,0,.64C1615.54,729,1756,769.15,1756,769.15c121.68,24.82,60.88,115.47,20,129.76C1776,898.91,144.12,838.07,107.85,837.93Z"/>
        </g>
        <g class="cls-28">
          <path class="cls-27" d="M200.6,816.63c-1.26,0,8,6.28,6.7,6.28-32.94-.15-43.86-7.06-54.29-12.88-17.06-9.53-25.72-40.29,35.55-44.33-20.06-6-40.57-12.29-56.78-25.49a13.17,13.17,0,0,1-4.78-8c-1.32-8.08,6.22-12,12.8-14.68a507.54,507.54,0,0,1,163-35.83,98.94,98.94,0,0,1-35.08-16.87,7.53,7.53,0,0,1-3.11-6c.09-4.23,3.87-5.55,7.22-6.43a195.14,195.14,0,0,1,49.48-6.4c-5.53-7.19-21.94-6.79-20.42-15.44a7.92,7.92,0,0,1,5.89-6.09c61.09-16.12,124.38-22.39,187.3-28.89a5.24,5.24,0,0,0,4.79-4.41c.32-2.78-2.09-4.08-4.24-5.08l-31-14.55a6.76,6.76,0,0,1-3.9-4.88c-.78-4.62,4.12-6.65,8.17-7.7q24.23-6.32,48.94-10.74L501.47,539a673.15,673.15,0,0,1,103.06-7.69c26,.06,37.28,1.41,61.69-7.43,20.68-7.49,12.2-8.4,34.23-7.86,59.43,1.46,163.9,3.15,223.34,4.6,5.7.14,9.07,2.45,13.53,5.89s2.17,6.24-2.76,9c50.72,3.73,111.08,13.61,161.18,12.57,36.19-.76,73,15.31,129.56,30.78,16.91,4.63-28.67,16.94-31.88,21,71.58.8,111.66-8.78,182.32,2.36,6.39,1,60.09,15.51,70.48,18.65,23,12.43-20.35,18.72-26.82,18.58,28.25,4,129.22,17.64,103.64,23.12-45.1,9.67,63.59,3.43,109.72,23.83a14,14,0,0,1,6.88,7.53c2.7,9-7.74,14.24-16.21,16.6-39.37,11-108.92,35.4-149.53,40.69a.32.32,0,0,0,0,.64c80.94-12.77,208.5,27.43,208.5,27.43,123.71,28.75,69.15,117.67,36.18,119.58C1718.59,898.91,200.91,816.63,200.6,816.63Z"/>
        </g>
        <path class="cls-29" d="M205.08,821.23c1.13-.51-2.49,0-3.73,0-32.54-.14-68.68-46.88-8.17-50.91-19.81-6-40.07-12.29-56.08-25.5a13.18,13.18,0,0,1-4.72-8c-1.3-8.08,6.14-12,12.64-14.68a495.9,495.9,0,0,1,161-35.84,97.07,97.07,0,0,1-34.65-16.87,7.5,7.5,0,0,1-3.07-6c.08-4.23,3.82-5.55,7.13-6.43a190.08,190.08,0,0,1,48.87-6.4c-5.46-7.19-21.67-6.79-20.17-15.44a7.87,7.87,0,0,1,5.82-6.09c60.34-16.12,122.86-22.4,185-28.89a5.21,5.21,0,0,0,4.73-4.42c.32-2.77-2.07-4.08-4.18-5.08l-30.61-14.55a6.78,6.78,0,0,1-3.86-4.88c-.77-4.63,4.07-6.65,8.06-7.7q24-6.32,48.35-10.74l-15.17-9.2a658.14,658.14,0,0,1,101.8-7.69c25.63.07,48.36-2.37,72.47-11.21,20.43-7.49,38.87-7.41,60.64-6.87l176.12,4.37c5.64.14,11.72.43,16.13,3.87s5.5,11.29.63,14.08c50.11,3.73,109.72,13.61,159.22,12.57,35.74-.75,72.13,15.32,128,30.79,16.7,4.63-28.32,16.94-31.49,21,70.71.8,110.3-8.78,180.09,2.36,6.32,1,59.36,15.51,69.62,18.65,22.72,12.44-20.1,18.73-26.5,18.59,27.91,4,127.64,17.64,102.38,23.13-44.55,9.66,62.81,3.42,108.38,23.82a14,14,0,0,1,6.79,7.53c2.67,9-7.64,14.24-16,16.61-38.89,11-107.59,35.4-147.7,40.7a.32.32,0,0,0,0,.64c80-12.77,206,27.42,206,27.42,22,.58,142.53,59.46-13.23,112.22C1566.66,935.6-105.25,959.15,205.08,821.23Z"/>
      </g>
      <path class="cls-30" d="M693.09,899s54.59,2.33,46.59-4.48S696.39,867,674.27,872.18s-9.88,1.57-32.47-11.45-78.12-10.49-78.12-10.49-17.41-9-32-11.44-21.62,43.62-21.62,43.62l15.23,20.89Z"/>
      <g>
        <path class="cls-30" d="M97.19,843.08l0,0S97.17,843.07,97.19,843.08Z"/>
        <path class="cls-30" d="M-25.87,885c5-8.56,39.54-14.69,39.54-14.69C9.37,858.21,10,836.64,10,836.64c4.68,21,14.2,26.36,14.2,26.36C23.67,836.2,21,833.19,21,833.19c15.33,14.88,16.3,23.8,16.3,23.8,5.32-16.88-3.93-36.08-3.93-36.08,4,4.08,10.79,27.89,10.79,27.89C44,841.61,52,800.3,52,800.3c-1.89,10.08,2.71,63.24,3.49,60.47s2.23-24.39,2.78-13.82,3.2,29.34,3.2,29.34c3-5.67,2.3-44.51,2.3-44.51,3.73,28.74,18.86,30.76,18.86,30.76,1.53-24.32-4.1-37.63-4.1-37.63,7.09,15.85,23,35.75,23,35.75-2.26-15.64-4-17.41-4.28-17.58,12.14,7.61,14.87,16.52,14.87,16.52-5.59-18.24-4.7-43.17-4.7-43.17,1.13,10.88,11.53,28.18,13.4,33.41,2.21-19.71-7.59-40.48-7.59-40.48C122.47,829,141,856.71,141,856.71c4.84-10.33-10-43.52-10-43.52,15.64,20,21,57.55,16.06,28.64-1.8-10.51.26-9,.26-9,3.13,6.85,7.64,15.35,7.64,15.35l1.77-11c.41-12.7-19.7-35.36-19.7-35.36,13.73,3.26,35.83,41,35.83,41,1.78-5.55-6.65-17.24-6.65-17.24,4.74,3.61,11.79,14.34,15.35,18.59.13-12.51-16.37-27.89-16.37-27.89,14.93,5.85,22.8,28.61,26.25,31.85,2,1.83-4.26-21.06-4.26-21.06.59,1.11,1.39,2.48,2.3,4a57.84,57.84,0,0,0-2.54-6.66c1.59,1.61,3.61,6.31,5.47,11.41,2,3.24,4.21,6.61,6,9.32.4-3,1-6.6,1.59-10.41-7.77-30.46-18.57-46.45,1.39-8.19,2.05-11.67,4.19-22.74,4.19-22.74-.87,4.65-.36,18.46.52,31.72,4.13,7.84,7.4,14,7.4,14,4.19-4.9-3.41-26.52-3.41-26.52,2.72,3.25,7.55,12.71,9.57,16.95,5.33-16.64-19-54.45-19-54.45,23.6,19.18,31.26,55.91,31.26,55.91a30,30,0,0,0,1.93-7.39c-1.59-6.37-3-7.84.18-1.65,1.17-14.68-7.47-28-7.47-28,8.81,5.76,17.48,30.48,17.48,30.48,10.46-28.79,19.63-23.44,15.5-23s-5.86,33.73-5.86,33.73l.46,3.35c9.33,7,11.56,14.25,11.56,14.25C260.09,844.83,261,819.9,261,819.9c1.13,10.88,11.53,28.16,13.4,33.41,2.21-19.71-7.59-40.48-7.59-40.48C274,828,286.63,848,292,856.27c2.06-.42,3.31-.64,3.31-.64-1.92-5.41-2.86-12.72-3.31-19.14a200.43,200.43,0,0,0-7.41-19.83c8.95,11.46,6.73,16.19,7.05,5.3,2.27,10.18,5.68,16.69,8.59,20.69-1-7.6.67-6.38.67-6.38,1.54,3.35,3.4,7.1,4.9,10.05-.31-12.07-1.07-19-1.77-22.89a142.05,142.05,0,0,0-13.41-18.2c9.15,2.17,22,19.68,29.58,31.11a41,41,0,0,0,.34-6.23c-.85-1.27-1.13-1.47,0-.48a54.55,54.55,0,0,0-1.07-9.25c-.86-.84-.94-.78-.08-.41A64.66,64.66,0,0,0,315,806.23c1.95,2,4.55,8.59,6.7,14.88a29,29,0,0,1,5.06,3.7c2.09-14.53,6.86-39.19,6.86-39.19-1.3,7,.51,34.61,2,50,.84,1.31,1.63,2.62,2.37,3.9,2-18.07,1.37-9.65,3,5.44a44,44,0,0,0,3.76,6.28c.08-1.11.15-2.26.22-3.46-3.71-19.53-7.5-22.23.34-9.64.91-41.33-3.17-11.72,9,3-7.66-33.33-24.08-57.74,9.94,6.45,1.19-19.46-2.1-31.82-3.51-35.92,1.3,2.87,4.91,9.85,12.86,21.35-2.78-18.36-19.37-44.13-19.37-44.13,13.82,11.23,22.18,28.5,26.73,40.87a42.29,42.29,0,0,1,6.65,5.74c1.06-14.58-7.49-27.76-7.49-27.76,3.29,2.15,6.56,6.93,9.36,12.09-.75-10.19-.47-18.12-.47-18.12,1,9.28,9.15,24.28,11.53,29.2q1.1-2.44,2.13-4.42A88.79,88.79,0,0,0,396.29,798c1.81,3.56,5.37,10.14,11.61,20.61,5.09-5.89,7.87-3.62,5.24-3.37-1.2.11-2.2,3-3,7.06,6.74,11.08,12.54,19.76,12.54,19.76,4.84-10.33-10-43.52-10-43.52,15.64,20,21,57.55,16.05,28.64-1.79-10.51.27-9,.27-9,3.13,6.85,7.63,15.35,7.63,15.35l1.78-11c.41-12.69-19.7-35.35-19.7-35.35,13.73,3.26,35.82,41,35.82,41,1.78-5.54-6.65-17.23-6.65-17.23,5.21,4,15.35,19,15.35,19,.56-12.59-16.36-28.35-16.36-28.35,14.92,5.84,22.8,28.6,26.25,31.84,2,1.83-4.26-21.06-4.26-21.06,2.43,4.53,8.2,13.48,11.78,19a30.84,30.84,0,0,1,3-1.68c-1.87-13.88-11.9-40.26-11.9-40.26,2.23,5.24,13,25.71,19.11,37.3,1.69-.59,3.43-1.15,5.18-1.68a106.73,106.73,0,0,0-4.28-16.71c2.72,3.25,7.1,11.91,8.83,15.43l1.19-.32c3.2-17.42-19.46-52.61-19.46-52.61a70,70,0,0,1,12,12.76,190.56,190.56,0,0,0,17.8,40c3.08,10,6.45,19.88,10.18,29.62,5.93,15.51,12.07,31.24,19.26,46.36-9.2,2.63-36.52,10.18-48.35,10.37-14.91.24-9.91-22-77.3,1.88l.69,5s-37.11,11-51.45,11.27-11.27-21.84-76.11,1.46-85,2.39-84,.51c.74-1.42-8.24-8.91-31.81-14.07-9.12,1.16-21.24,4.15-37.78,10.09-64.85,23.31-85,2.4-84,.51S36.1,911.94-9,908.38-30.9,893.56-25.87,885ZM325.8,834.12a50.39,50.39,0,0,1,.52-6.08c-1.33-1.71-2.64-3.22-3.78-4.48C324.42,829.26,325.8,834.12,325.8,834.12Z"/>
        <path class="cls-30" d="M396.29,798c-2.42-4.78-1.68-4.11,0,0Z"/>
      </g>
      <g>
        <path class="cls-31" d="M262.94,761.12c-18.46,23.35-13.18,78.63,24.27,115.58a88.79,88.79,0,0,0,9.35,7.82l1.05-.31a100.19,100.19,0,0,1-11.41-16.06c-17.57-30.91-21-64.84-21.88-92.1-.13-4.83-.15-9.63.08-14.32l-1.46-.61Z"/>
        <g>
          <path class="cls-31" d="M589.78,813.34c-19.17,17.62-40.28,42.49-58.17,61.13a607.27,607.27,0,0,1-47.73,45.46l.84.83C523.53,904,549.87,876,571.55,845.83A244.47,244.47,0,0,0,590.86,814l-1.08-.63Z"/>
          <path class="cls-31" d="M513.53,791.27C472.61,804,447.77,855,475.92,903.46a81.75,81.75,0,0,0,13.38,16.73l1.81,0a67.12,67.12,0,0,1-7.41-19.57c-7.07-36,8.69-68.72,23.28-94.7,2.63-4.58,5.41-9.09,8.45-13.4l-1.9-1.29Z"/>
          <g>
            <path class="cls-31" d="M543.72,813.88c-17,19.47-26.26,43.4-36.63,66.68-5,11.35-9.78,23.11-16.46,33.46a75.56,75.56,0,0,1-4.77,6.1l1.05,1.11c28.14-9.74,43.18-50.8,50.83-75.76a260.85,260.85,0,0,0,7.43-30.91l-1.45-.68Z"/>
            <path class="cls-31" d="M496,836c-5.84,12.38-6.47,27.77-6.8,42.52-.12,7.14,0,14.27-.27,21.06-.47,7.12-.43,13.61-5.42,18.63l.83,1.16c23.25-2.44,20.14-39.91,17.84-58.61a215.6,215.6,0,0,0-4.74-24.4L496,836Z"/>
            <path class="cls-31" d="M485.73,918.6c-7.39-18.28-15.41-34.92-20.81-52.1-5.72-17.38-6.77-31.45-7.44-48.14l-1.35-.89c-14.61,17.41-9.89,45.61,7.79,73.85a188,188,0,0,0,20.77,27.6l1-.32Z"/>
          </g>
          <path class="cls-31" d="M295.63,781.5c-27,15.79-37.14,65.83,7.92,110.32a123,123,0,0,0,25.75,19.1l.6-.47a121.72,121.72,0,0,1-20.41-18.73c-26.27-31.21-24.27-61.39-20.74-83A123,123,0,0,1,297,782.33l-1.39-.83Z"/>
          <path class="cls-31" d="M384,763.78c17.62,23.35,12.58,78.63-23.14,115.58a86.81,86.81,0,0,1-8.92,7.82l-1-.3a100.68,100.68,0,0,0,10.88-16.07c16.76-30.9,20-64.84,20.87-92.1.13-4.83.14-9.63-.07-14.31l1.38-.62Z"/>
          <path class="cls-31" d="M352.85,784.16C378.63,800,388.27,850,345.3,894.48a118.09,118.09,0,0,1-24.57,19.11l-.57-.47a118.28,118.28,0,0,0,19.47-18.74c25.06-31.2,23.15-61.38,19.78-83A127.23,127.23,0,0,0,351.52,785l1.33-.83Z"/>
          <path class="cls-31" d="M340.11,831.65c15.73,9.63,21.61,40.17-4.61,67.32a71.8,71.8,0,0,1-15,11.66l-.35-.28A72.2,72.2,0,0,0,332,898.91c15.29-19,14.13-37.46,12.07-50.63a77.85,77.85,0,0,0-4.81-16.12l.81-.51Z"/>
          <path class="cls-31" d="M323.89,821.63c-17.2,5.16-32.83,31.68-18.93,62.55a56.92,56.92,0,0,0,9.26,14.13l.41-.18a58.36,58.36,0,0,1-6.6-13.2c-7-20.94.32-37.49,6.64-49a86.83,86.83,0,0,1,9.76-13.61l-.54-.65Z"/>
        </g>
      </g>
      <g>
        <g>
          <path class="cls-32" d="M707.33,857.2c-16.46,25.84-67,54.51-108.74,51.18a54.51,54.51,0,0,1-9.18-1.64l0-.88a90.72,90.72,0,0,0,17-1.78c31.69-6.34,62.74-23.84,87.26-39.11,4.33-2.72,8.62-5.5,12.74-8.38l.89.61Z"/>
          <g>
            <path class="cls-32" d="M624.09,770.18c-11.19,23-28.39,51.45-40.78,74.17-10.69,19.19-20.29,38.43-29.26,58.12l-.95-.08c5.77-35.48,24.51-69.24,46.32-101.21,7.37-10.67,15.21-21.16,23.85-31.35l.82.35Z"/>
            <path class="cls-32" d="M661.74,807.9c-1.69,34.55-41.34,80.75-91.14,90.26a67.86,67.86,0,0,1-18.06.87l-.46-1.18a83.43,83.43,0,0,0,19.18-6.48c33.78-16.28,59.21-45.76,78.93-70.56,3.46-4.42,6.82-8.89,9.95-13.41l1.6.5Z"/>
            <g>
              <path class="cls-32" d="M634.46,801c-13.34,22.61-32.49,42.69-50.8,63.12-8.94,9.91-18.29,19.93-25.94,30.39-1.58,2.2-2.89,4.42-4.32,6.72l-1.23,0c2-24.33,35.1-58.21,55.55-77.82,8.22-7.85,16.77-15.52,25.79-22.92l1,.56Z"/>
              <path class="cls-32" d="M626,845.58c-9.66,11.08-23.22,20.46-36.3,29.27-6.33,4.24-12.72,8.28-18.71,12.43-6.23,4.46-12,8.21-15.33,14.44l-1.22.13c-3.31-16.84,30.82-36.59,48-46,7.39-3.93,15-7.64,22.87-11.06l.66.74Z"/>
              <path class="cls-32" d="M554.79,900.47c18-5.74,34.76-10.1,51.36-16.53,16.83-6.32,29.63-13.82,44.65-23.08l1.12.37c-12.07,19.82-38.33,33.11-67.67,37.82a161.9,161.9,0,0,1-29.5,2.29l0-.87Z"/>
            </g>
            <path class="cls-32" d="M681.46,847.38c-7.71,27.12-49.93,63-100.2,59a69.65,69.65,0,0,1-23.11-6l.28-.67a80.2,80.2,0,0,0,21.51,2.63c34-.74,60.44-19.63,78.85-34.54a216.38,216.38,0,0,0,21.6-20.87l1.07.44Z"/>
          </g>
        </g>
        <g>
          <path class="cls-32" d="M456.48,813.28c-3,28.19,19.9,69.72,56,80a46.54,46.54,0,0,0,8.52,1.45l.53-.78a60.3,60.3,0,0,1-12.71-7c-21.78-15.7-35.94-41.12-46.2-62.47-1.8-3.8-3.52-7.63-5.05-11.5l-1.11.26Z"/>
          <g>
            <path class="cls-32" d="M579.53,762.38c-5.48,24-9.57,54.74-13.92,78.87-3.48,20.45-7.89,40.61-13.1,61l.82.23c17.85-33.36,24-69.32,26.59-104.66a312.91,312.91,0,0,0,.5-35.44l-.89,0Z"/>
            <path class="cls-32" d="M524.92,783.94c-20.57,31.25-17.64,84.9,16.86,109.17a46.65,46.65,0,0,0,14.15,6.51l1.13-.9a49.23,49.23,0,0,1-11.51-11.85c-17.16-25.2-19.13-59.48-19.43-87.79,0-5,.09-10.06.42-15.08l-1.62-.06Z"/>
            <g>
              <path class="cls-32" d="M551.48,786.52c-3.5,24.32-.67,48.25,1.26,72.22,1,11.65,2.23,23.53,1.82,35.26-.11,2.45-.46,4.84-.76,7.34l1,.35c13.79-22.28,8.4-62.89,4.21-86.81-1.71-9.59-3.8-19.12-6.44-28.57l-1.13.21Z"/>
              <path class="cls-32" d="M530.09,828.79c.82,12.92,5.91,25.56,11,37.54,2.47,5.78,5.09,11.41,7.33,17,2.25,5.94,4.58,11.12,3.31,17.7l.92.5c13.39-13.92-1.85-42.31-9.92-56.1a183.48,183.48,0,0,0-11.59-17.09l-1,.45Z"/>
              <path class="cls-32" d="M553.18,900.18c-11-10.83-21.88-20-31.31-31-9.69-11-15.34-21.69-21.69-34.7l-1.15,0c-2.76,21.46,10.17,41.6,31.07,55.11A108.69,108.69,0,0,0,552.66,901l.52-.79Z"/>
            </g>
            <path class="cls-32" d="M483.78,812.77c-10.95,26.55.66,71.81,44.12,84.24a64.94,64.94,0,0,0,22.59,2l.21-.68a65.35,65.35,0,0,1-19.19-4.5c-27.22-11.46-36.73-36.65-42.25-55.75a147.6,147.6,0,0,1-4.33-25.4l-1.15,0Z"/>
          </g>
        </g>
      </g>
      <path class="cls-31" d="M320.16,750.88c11.47,146.9-37,127.44,11.63,168.69C326.32,860,368.69,836.56,320.16,750.88Z"/>
    </g>
  </g>
  <g class="cls-33">
    <rect class="cls-1" x="-511.54" width="1600" height="900"/>
    <g class="cls-34">
      <g class="cls-26">
        <path class="cls-27" d="M-126.19,887.72l4.21,0,110.37-.52,65.48-.32c7.86,0,15.73-.16,23.59-.11,5,0,21.46,3.53,17.53-6-1.39-3.37-4.88-5.07-8.09-6.46a618.85,618.85,0,0,0-199.65-48.83c22.4-7.38,45.31-15,63.41-31.2A16.44,16.44,0,0,0-44,784.44c1.47-9.89-7-14.72-14.29-18a525,525,0,0,0-182-43.85A106.46,106.46,0,0,0-201.14,702a9.45,9.45,0,0,0,3.48-7.37c-.1-5.17-4.32-6.79-8.06-7.86A200,200,0,0,0-261,678.92c6.18-8.8,24.5-8.31,22.81-18.89a9.32,9.32,0,0,0-6.58-7.45c-68.23-19.72-138.91-27.4-209.18-35.35a6.1,6.1,0,0,1-5.34-5.4c-.37-3.39,2.33-5,4.73-6.22l34.6-17.8a8.13,8.13,0,0,0,4.36-6c.88-5.66-4.6-8.13-9.11-9.42q-27.07-7.73-54.67-13.14L-462.21,548a687.58,687.58,0,0,0-115.1-9.4c-29,.07-41.64,1.72-68.89-9.09-23.1-9.17-13.63-10.28-38.24-9.62-66.37,1.78-183,3.85-249.42,5.63-6.37.17-10.13,3-15.12,7.2s-2.41,7.64,3.09,11.06c-56.65,4.56-124.05,16.65-180,15.38-40.41-.92-81.55,18.74-144.69,37.67-18.88,5.66,32,20.72,35.61,25.67-80,1-124.71-10.74-203.63,2.9-7.13,1.23-67.11,19-78.7,22.81-25.7,15.22,22.72,22.91,30,22.74-31.55,4.86-144.31,21.59-115.75,28.29,50.37,11.83-71,4.2-122.54,29.16a16.58,16.58,0,0,0-7.67,9.21c-3,11,8.63,17.42,18.09,20.31,44,13.44,121.65,43.32,167,49.79a.4.4,0,0,1,0,.79c-90.4-15.63-232.86,33.55-232.86,33.55l-9.31-1.62v47.26Z"/>
      </g>
    </g>
  </g>
  <g class="cls-35">
    <g class="cls-36">
      <rect class="cls-1" x="-1867.9" width="7096.47" height="900"/>
    </g>
  </g>
</svg>
