<svg xmlns="http://www.w3.org/2000/svg" xmlns:xlink="http://www.w3.org/1999/xlink" width="72" height="99" viewBox="0 0 72 99">
  <defs>
    <style>
      .cls-1, .cls-7 {
        fill: none;
      }

      .cls-2 {
        isolation: isolate;
      }

      .cls-3 {
        fill: #666;
      }

      .cls-3, .cls-4, .cls-5, .cls-6, .cls-7 {
        fill-rule: evenodd;
      }

      .cls-4 {
        fill: #e50303;
      }

      .cls-5 {
        fill: red;
      }

      .cls-10, .cls-6 {
        fill: #fff;
      }

      .cls-6 {
        opacity: 0.46;
      }

      .cls-7 {
        stroke: #491a07;
        stroke-miterlimit: 10;
      }

      .cls-8 {
        opacity: 0.79;
      }

      .cls-9 {
        fill: url(#Dégradé_sans_nom_90);
      }

      .cls-10 {
        mix-blend-mode: overlay;
        opacity: 0.31;
      }

      .cls-11 {
        fill: url(#Dégradé_sans_nom_90-2);
      }

      .cls-12 {
        clip-path: url(#clip-path);
      }

      .cls-13 {
        fill: #6de2fe;
      }

      .cls-14 {
        opacity: 0.6;
      }

      .cls-15 {
        clip-path: url(#clip-path-2);
      }

      .cls-16 {
        fill: #7af8ff;
      }
    </style>
    <linearGradient id="Dégradé_sans_nom_90" data-name="Dégradé sans nom 90" x1="-10272.52" y1="-838.78" x2="-10224.34" y2="-855.42" gradientTransform="matrix(-0.45, 0.87, 0.93, 0.35, -3757.38, 9264.45)" gradientUnits="userSpaceOnUse">
      <stop offset="0" stop-color="#c5cf0d"/>
      <stop offset="1" stop-color="#72ab07"/>
    </linearGradient>
    <linearGradient id="Dégradé_sans_nom_90-2" x1="-4203.35" y1="-1224.55" x2="-4171.25" y2="-1235.64" gradientTransform="matrix(0.66, 1.23, 1.23, -0.66, 4288.73, 4350.37)" xlink:href="#Dégradé_sans_nom_90"/>
    <clipPath id="clip-path">
      <rect class="cls-1" x="-1693.62" y="0.65" width="1280" height="720"/>
    </clipPath>
    <clipPath id="clip-path-2">
      <rect class="cls-1" x="-433.83" y="-117.12" width="443.6" height="202.4"/>
    </clipPath>
  </defs>
  <g class="cls-2">
    <g id="Layer_1" data-name="Layer 1">
      <g>
        <g>
          <g>
            <g>
              <path class="cls-3" d="M36.11,51.72a14.77,14.77,0,0,0-2.46-10,4.52,4.52,0,0,1-.84-1.61,1.76,1.76,0,0,1,0-.79,1.47,1.47,0,0,1,.39-.67,1.3,1.3,0,0,1,.69-.35,1.42,1.42,0,0,1,.76.09,2.43,2.43,0,0,1,.92.88,11.88,11.88,0,0,1,1.73,8.63A14,14,0,0,1,36.11,51.72Z"/>
              <path class="cls-4" d="M37.11,87.81a12.78,12.78,0,0,1-7.14.46,18.62,18.62,0,0,1-6.51-3.1A30.15,30.15,0,0,1,14.09,75a22.62,22.62,0,0,1-2.74-13.44,18.17,18.17,0,0,1,4.42-9.9,15.36,15.36,0,0,1,9.55-5,14.25,14.25,0,0,1,11.17,3.72A14,14,0,0,1,52,47.62a15.52,15.52,0,0,1,7.32,7,19.24,19.24,0,0,1,2,10C61,71.57,57.29,77.91,52.63,83a19.48,19.48,0,0,1-5.28,4.34A12.38,12.38,0,0,1,37.11,87.81Z"/>
              <path class="cls-5" d="M32.87,87.23a11.65,11.65,0,0,1-5.61-2.55,22.53,22.53,0,0,1-4.16-4.61c-3.5-4.95-5.92-10.9-5.54-16.95a15.87,15.87,0,0,1,3-8.6A11.27,11.27,0,0,1,28.28,50a9.86,9.86,0,0,1,7.87,2.87A12.14,12.14,0,0,1,49.46,48.3a13.45,13.45,0,0,1,6.21,4.08A17,17,0,0,1,59.16,59a21.27,21.27,0,0,1-.69,13.12,25.55,25.55,0,0,1-7.78,10.67,18.53,18.53,0,0,1-9.34,4.35,13.63,13.63,0,0,1-4.46-.22A9.25,9.25,0,0,1,32.87,87.23Z"/>
            </g>
            <path class="cls-6" d="M38.7,55.26s7.07.56,10.64-4.13c0,0,8.38,9,1.56,19.21C50.9,70.34,49.28,58.5,38.7,55.26Z"/>
          </g>
          <path class="cls-7" d="M59.33,54.66a15.52,15.52,0,0,0-7.32-7,14,14,0,0,0-15.28,2.57,14.82,14.82,0,0,0,.58-2.27,11.88,11.88,0,0,0-1.73-8.63,2.43,2.43,0,0,0-.92-.88,1.42,1.42,0,0,0-.76-.09,1.3,1.3,0,0,0-.69.35,1.47,1.47,0,0,0-.39.67,1.76,1.76,0,0,0,0,.79,4.52,4.52,0,0,0,.84,1.61,14.78,14.78,0,0,1,2.56,8.42,14.3,14.3,0,0,0-10.89-3.47,15.36,15.36,0,0,0-9.55,5,18.17,18.17,0,0,0-4.42,9.9A22.62,22.62,0,0,0,14.09,75a30.15,30.15,0,0,0,9.37,10.15A18.62,18.62,0,0,0,30,88.27a12.78,12.78,0,0,0,7.14-.46,12.38,12.38,0,0,0,10.24-.47A19.48,19.48,0,0,0,52.63,83c4.66-5.09,8.32-11.43,8.73-18.32A19.24,19.24,0,0,0,59.33,54.66Z"/>
        </g>
        <g class="cls-8">
          <path class="cls-9" d="M49.06,44.25c7.1-3.08,12.73-9.5,13.73-16.62.85-6-1-11.82-3-17.38l0-.11a.7.7,0,0,1,0,.14,1.6,1.6,0,0,1-.25,1.17C58.09,14,51.28,16.72,49.7,17.6A25.35,25.35,0,0,0,45,21a25.87,25.87,0,0,0-7,10.23c-.83,2.23-2.68,10.16-1,13.11a2,2,0,0,0,1.16,1C41.53,46.41,45.56,45.77,49.06,44.25Z"/>
          <path class="cls-10" d="M49.06,44.25c7.1-3.08,12.73-9.5,13.73-16.62.85-6-1-11.82-3-17.38,0,0,0,0,0,0-.1.39-.18.78-.25,1.17-.32,1.78-.42,3.62-.69,4.78a29.62,29.62,0,0,1-4.33,9.29,65.88,65.88,0,0,1-4.25,5.81,69.31,69.31,0,0,1-8.39,8.58c-1.66,1.44-3.42,2.83-4.93,4.38a2,2,0,0,0,1.16,1C41.53,46.41,45.56,45.77,49.06,44.25Z"/>
        </g>
        <g class="cls-8">
          <path class="cls-11" d="M44,36.05c1.92-6.91.33-14.63-4.63-19.38C35.22,12.66,29.54,10.75,24,9l-.1,0a.52.52,0,0,1,.13.06,1.44,1.44,0,0,1,.76.84c1.09,2.49-.92,9-1.19,10.64a22.06,22.06,0,0,0-.25,5.31,22.81,22.81,0,0,0,3.73,10.89c1.24,1.86,6.32,7.68,9.63,8.15a2.15,2.15,0,0,0,1.51-.26A14.78,14.78,0,0,0,44,36.05Z"/>
          <path class="cls-10" d="M44,36.05c1.92-6.91.33-14.63-4.63-19.38C35.22,12.66,29.54,10.75,24,9c0,0,0,0,0,0,.24.29.5.57.76.84,1.2,1.23,2.58,2.34,3.32,3.2a26.56,26.56,0,0,1,4.63,8.4,57.22,57.22,0,0,1,2,6.37,59.63,59.63,0,0,1,1.6,11c.11,2,.13,4.09.42,6.07a2.15,2.15,0,0,0,1.51-.26A14.78,14.78,0,0,0,44,36.05Z"/>
        </g>
      </g>
      <g class="cls-12">
        <path class="cls-13" d="M354.41,648.5l0-92.72V525.41l-.13-458.67,0-147.62-15622.49.31.07,186.16h0l0,129.3v105l0,63.92v1.62c1.21.12,1.78,3.95,2,9.52.19,5.81,0,13.53-.41,20.89-.35,7.21-.83,14.12-1.15,18.58h0c-.19,2.48-.35,4.21-.38,4.84v0a1.22,1.22,0,0,0,0,.23s0,0,.06.05c.42.58,5.25,6.79,7.85,7.15l0,89,0,59.93c4.38,15.44,6.54,30,2.35,46.16q-1.14,4.36-2.34,8.73l0,140.52v8h237.47L7,818.82H346.53l0-163.81h7.91Z"/>
        <g class="cls-14">
          <g class="cls-15">
            <path class="cls-16" d="M9.8-88.59c-7.29-48.88-85-26.5-146.68,4.33-6.28,5.26-15.58,9.47-14.11,20,.62,4.4,3,7.75,5.3,10.61C-134.91-40.41-122-31-108.34-26.58c35.14,11.4-32,9.44-76.09,10.51-10.23.24-21.53,3.71-27.89,15.65s-4.09,30.16,9,32.6c31.75,24-49.5,27-230.59,11.4,106,35.81,274.5,60.14,309.57,23.54,11.87-12.7,6.66-20.85-9-26.24A436.66,436.66,0,0,0,9.8,30.9"/>
          </g>
        </g>
      </g>
    </g>
  </g>
</svg>
