<svg id="Layer_1" data-name="Layer 1" xmlns="http://www.w3.org/2000/svg" xmlns:xlink="http://www.w3.org/1999/xlink" width="1600" height="900" viewBox="0 0 1600 900">
  <defs>
    <style>
      .cls-1 {
        fill: none;
      }

      .cls-2 {
        clip-path: url(#clip-path);
      }

      .cls-3 {
        clip-path: url(#clip-path-2);
      }

      .cls-4 {
        fill: url(#linear-gradient);
      }

      .cls-5 {
        clip-path: url(#clip-path-3);
      }

      .cls-6 {
        clip-path: url(#clip-path-4);
      }

      .cls-7 {
        opacity: 0.21;
      }

      .cls-8 {
        clip-path: url(#clip-path-5);
      }

      .cls-9 {
        fill: #23490f;
      }

      .cls-10 {
        opacity: 0.56;
      }

      .cls-11 {
        clip-path: url(#clip-path-6);
      }

      .cls-12 {
        clip-path: url(#clip-path-7);
      }

      .cls-13 {
        fill: url(#radial-gradient);
      }

      .cls-14 {
        fill: #1c4c0b;
      }

      .cls-15 {
        fill: #123006;
      }

      .cls-16 {
        opacity: 0.33;
      }

      .cls-17 {
        fill: #fbf5b6;
      }

      .cls-18 {
        clip-path: url(#clip-path-8);
      }

      .cls-19 {
        clip-path: url(#clip-path-9);
      }
    </style>
    <clipPath id="clip-path">
      <rect class="cls-1" x="3191.25" y="-1090.68" width="1280" height="720"/>
    </clipPath>
    <clipPath id="clip-path-2">
      <rect class="cls-1" x="3031.25" y="-1180.68" width="1600" height="900"/>
    </clipPath>
    <linearGradient id="linear-gradient" x1="-1785.74" y1="921.29" x2="-1785.74" y2="-6062.55" gradientUnits="userSpaceOnUse">
      <stop offset="0" stop-color="#a4f2ff"/>
      <stop offset="0.23" stop-color="#69e3ff"/>
      <stop offset="0.45" stop-color="#34d5ff"/>
      <stop offset="0.57" stop-color="#1fd0ff"/>
      <stop offset="0.65" stop-color="#25c3ff"/>
      <stop offset="0.81" stop-color="#36a2ff"/>
      <stop offset="1" stop-color="#4d73ff"/>
    </linearGradient>
    <clipPath id="clip-path-3">
      <rect class="cls-1" x="160" y="90" width="1280" height="720"/>
    </clipPath>
    <clipPath id="clip-path-4">
      <rect class="cls-1" width="1600" height="900"/>
    </clipPath>
    <clipPath id="clip-path-5">
      <rect class="cls-1" x="29.97" y="512.21" width="1885.03" height="374.76"/>
    </clipPath>
    <clipPath id="clip-path-6">
      <rect class="cls-1" x="105.4" y="524.89" width="1712.33" height="374.76"/>
    </clipPath>
    <clipPath id="clip-path-7">
      <path class="cls-1" d="M1133.78,535.82c24.45,11,47.5,14,73.49,14a545.64,545.64,0,0,1,103.22,9.58l-15.39,11.46q24.72,5.5,49,13.39c4.05,1.31,9,3.83,8.18,9.59a8.33,8.33,0,0,1-3.91,6.09l-31,18.12c-2.15,1.26-4.56,2.88-4.24,6.34a5.9,5.9,0,0,0,4.79,5.5c63,8.09,126.41,15.92,187.6,36a9.2,9.2,0,0,1,5.9,7.6c1.52,10.77-14.91,10.27-20.45,19.23a159.34,159.34,0,0,1,49.56,8c3.35,1.09,7.14,2.74,7.23,8a10.2,10.2,0,0,1-3.12,7.51,92.43,92.43,0,0,1-35.13,21c56,3.56,111.45,18.74,163.24,44.66,6.59,3.3,14.13,8.22,12.81,18.29a17.48,17.48,0,0,1-4.78,10c-16.24,16.46-36.78,24.26-56.87,31.78,61.36,5,122,21.89,179,49.74,2.88,1.41,6,3.14,7.26,6.58a7.66,7.66,0,0,1,.54,2.69H119.34V857.24l8.35,1.65s127.76-50.09,208.83-34.18c.4-.05.4-.73,0-.8-40.67-6.59-110.33-37-149.77-50.71-8.48-3-18.94-9.45-16.22-20.7.87-3.62,4-7.82,6.88-9.38,46.21-25.42,155.07-17.65,109.9-29.69-25.62-6.83,75.51-23.87,103.8-28.82-6.48.17-49.9-7.66-26.86-23.16,10.4-3.91,64.18-22,70.58-23.24,47.15-9.26,80.71-7,119.06-4.83,19.21,1.1,48.2,6.22,72.12,5.88-3.21-5-57.43-24.39-40.49-30.15,56.62-19.28,93.51-39.31,129.75-38.37,50.19,1.29,110.64-11,161.44-15.67-4.94-3.48-3.84-13.26.64-17.55s10.64-4.65,16.35-4.82l178.58-5.45c4.82-.15,9.47-.27,14-.27,16.31,0,31.27,1.54,47.47,8.84"/>
    </clipPath>
    <radialGradient id="radial-gradient" cx="-6746.83" cy="-4359.3" r="1" gradientTransform="matrix(608.17, 0, 0, -367.21, 4104213.92, -1600037.53)" gradientUnits="userSpaceOnUse">
      <stop offset="0" stop-color="#61dfff"/>
      <stop offset="0.14" stop-color="#5adaff"/>
      <stop offset="0.35" stop-color="#47caff"/>
      <stop offset="0.59" stop-color="#28b1ff"/>
      <stop offset="0.84" stop-color="#0091ff"/>
      <stop offset="1" stop-color="#0091ff"/>
    </radialGradient>
    <clipPath id="clip-path-8">
      <rect class="cls-1" x="1906" y="90" width="1280" height="720"/>
    </clipPath>
    <clipPath id="clip-path-9">
      <rect class="cls-1" x="1746" width="1600" height="900"/>
    </clipPath>
  </defs>
  <g class="cls-2">
    <g class="cls-3">
      <rect class="cls-4" x="-8381.59" y="-4883.08" width="13191.7" height="5525.81"/>
    </g>
  </g>
  <g class="cls-5">
    <g class="cls-6">
      <g class="cls-7">
        <g class="cls-8">
          <path class="cls-9" d="M1693.33,887l4.21,0,110.31-.53,65.45-.32c7.86,0,15.73-.16,23.59-.11,5,0,21.44,3.59,17.51-6.17-1.39-3.43-4.88-5.17-8.09-6.57a608.85,608.85,0,0,0-199.54-49.74c22.39-7.52,45.29-15.31,63.38-31.77a16.82,16.82,0,0,0,5.33-10c1.47-10.07-6.94-15-14.28-18.28a516.8,516.8,0,0,0-181.93-44.66,105.82,105.82,0,0,0,39.16-21,9.74,9.74,0,0,0,3.47-7.51c-.1-5.27-4.32-6.91-8.06-8a196.16,196.16,0,0,0-55.23-8c6.17-9,24.48-8.47,22.79-19.24a9.43,9.43,0,0,0-6.58-7.59c-68.18-20.09-138.83-27.91-209.07-36a6.17,6.17,0,0,1-5.34-5.5c-.36-3.46,2.34-5.08,4.73-6.34l34.59-18.12a8.34,8.34,0,0,0,4.36-6.09c.87-5.76-4.6-8.28-9.12-9.59q-27-7.86-54.63-13.38L1357.48,541a675.54,675.54,0,0,0-115-9.58c-29,.08-41.62,1.76-68.86-9.26-23.09-9.33-13.62-10.47-38.22-9.79-66.34,1.81-182.95,3.92-249.29,5.73-6.37.18-10.12,3-15.11,7.34s-2.41,7.78,3.08,11.26c-56.61,4.65-124,17-179.91,15.66-40.39-.94-81.51,19.09-144.62,38.37-18.87,5.77,32,21.11,35.59,26.15-79.91,1-124.65-10.94-203.52,3-7.13,1.25-67.08,19.32-78.67,23.23-25.68,15.5,22.72,23.33,29.94,23.16-31.53,4.95-144.24,22-115.69,28.82,50.35,12-71,4.27-122.48,29.69A16.92,16.92,0,0,0,87,734.11c-3,11.25,8.64,17.74,18.09,20.69,44,13.68,121.58,44.11,166.91,50.71a.41.41,0,0,1,0,.8c-90.36-15.92-232.75,34.17-232.75,34.17L30,838.83V887Z"/>
        </g>
      </g>
      <g class="cls-10">
        <g class="cls-11">
          <path class="cls-9" d="M1616.37,899.65l3.82,0,100.21-.54,59.46-.32c7.13,0,14.28-.16,21.42-.11,4.52,0,19.48,3.59,15.91-6.17-1.26-3.43-4.44-5.16-7.35-6.57a512.45,512.45,0,0,0-181.26-49.74c20.34-7.52,41.14-15.31,57.57-31.77a17.37,17.37,0,0,0,4.84-9.95c1.34-10.07-6.3-15-13-18.29a434.8,434.8,0,0,0-165.26-44.66,93.67,93.67,0,0,0,35.57-21,10.11,10.11,0,0,0,3.15-7.51c-.08-5.27-3.92-6.91-7.32-8a163.38,163.38,0,0,0-50.17-8c5.61-9,22.24-8.46,20.71-19.24a9.22,9.22,0,0,0-6-7.59c-61.94-20.08-126.11-27.91-189.91-36a5.9,5.9,0,0,1-4.85-5.5c-.33-3.46,2.11-5.08,4.29-6.33l31.42-18.13a8.34,8.34,0,0,0,4-6.08c.79-5.77-4.18-8.28-8.28-9.6q-24.57-7.86-49.63-13.38l15.58-11.45a558.18,558.18,0,0,0-104.5-9.59c-26.31.08-37.8,1.76-62.55-9.25-21-9.34-12.37-10.48-34.71-9.8-60.27,1.81-166.19,3.92-226.46,5.74-5.78.17-9.19,3-13.72,7.33s-2.2,7.78,2.8,11.26c-51.43,4.65-112.63,17-163.43,15.66-36.7-.93-74.05,19.1-131.37,38.37-17.14,5.77,29.07,21.11,32.32,26.15-72.58,1-113.22-10.94-184.87,3-6.48,1.25-60.93,19.32-71.45,23.23C330,671.24,374,679.08,380.55,678.9c-28.64,5-131,22-105.09,28.82,45.73,12-64.48,4.27-111.26,29.69a16.61,16.61,0,0,0-7,9.38c-2.75,11.25,7.84,17.75,16.42,20.69,39.93,13.68,110.45,44.12,151.62,50.71a.42.42,0,0,1,0,.8c-82.08-15.91-211.42,34.17-211.42,34.17l-8.46-1.65v48.14Z"/>
        </g>
      </g>
      <g class="cls-12">
        <rect class="cls-13" x="127.9" y="530.99" width="1691.4" height="373.94"/>
      </g>
      <path class="cls-14" d="M-131.58,859.24c-24.79-4.63-24.4-25.25,4.91-25.48-19.7-15.15-3.59-36.8,23.83-26.71,6.7-13.95,27.33-16.25,30.88-.56,6.47-9.81,18-16.15,30.86-13.71-47.41-18.72,15.77-42.51,43.87-39.88C-7.6,720,37.43,702.42,71.55,720.06c8.82-34.69,73-4.26,87.87,11.33,24.87-24.5,72.47-5.92,76,22,34-24.53,54.15,17.93,50.82,38.21,24.28-9.32,25.94,14.24,19.08,26.79,19.42-4.91,32.39,3,23.69,18,20.16-4.58,35.5,6,23.86,20.58,17.61-1.2,47.44.2,25.67,15.13,10.84-1.83,16.51,2.06,24.5,3-2.11,6.3-6.3,4.69-12.88,6.56l20.94,2.93c-10.72,14.42-41.13,13.27-56.48,3.64-9.88,5.69-4.13,5.43-17.81-.11-10.11,17.38-28.13,9.27-28.26-7.29-11,8.5-32,9.86-46.56,2.42,25,14.32-28.72,26.63-46.17,9.87-.44,16.82-30.45,12.24-37.7,1.4-7.65,12.79-26.46,14.48-42.14,9.21-24.58,27.45-45.39-6.36-67-13.59-3.57,13.65-23.94,15.07-39.33,9.92.5,2.67.09,6.14.62,8.91-22.29,3.79-47.26,7-66-5.09-11.58,10.92-35.37,6.46-37.82-8.28-14.36,5.63-34.71,8.53-36-7-11.95,0-25-.15-35.84-1.73,4.27-1.7,8.74-4.76,13.43-6.62a148,148,0,0,1-33.61-4C-160.73,866-146.45,861.43-131.58,859.24Z"/>
      <path class="cls-15" d="M379.82,919.06c4.82-.92,7.8.18,9.55-3.55-5.75-.83-9.71-3.36-17.62-2.6,16.27-8.32-5.26-10.13-18-10,8.93-8.45-1.79-15.33-16.53-13.21,6.81-8.82-2.28-14-16.5-11.67,5.4-7.36,5-21.65-12.87-16.8,3.13-12.15-9.93-38.46-35.41-24.74-1.55-17-35.32-29.76-54.17-15.76-10.2-9.89-55.56-30.36-63.16-9.68C131.72,799.66,99.77,808,103.72,827a28.69,28.69,0,0,0-5,1.43c-1.5,0-3.07,0-4.68.12-3.75-16-35.71-27.35-53.86-13.87C30,804.74-15.34,784.28-22.94,805c-24.06-11.77-57.25-2.6-50.9,17.63-20.24-2.5-66.77,9.84-33.14,22.68a24,24,0,0,0-22.8,7.29c-2-9.6-17-8.87-22.36-.65-19.48-7-31.89,5.57-18.18,15.37-21.2-.81-22.21,11.64-4.44,15.24-10.84.84-21.32,3.11-25.24,9.21a126.32,126.32,0,0,0,24.17,3.47c-3.46,1-6.8,2.68-9.95,3.57,7.78,1.31,17.22,1.8,25.87,2.2.41,9.46,15.23,8.36,25.82,5.43,1.25,9,18.3,12.44,27.06,6.21,13.12,7.89,31.3,6.78,47.55,5.21-.28-1.69.13-3.77-.13-5.4,11,3.61,25.73,3.41,28.79-4.73,15.39,5.07,29.25,26.17,48,10.38,9.82,3.25,21.59,3.31,28.34-1.83,4.15,5.4,15.14,7.34,22.74,4a11.9,11.9,0,0,0,3.52-1.07c13,7.38,30.82,6.3,46.76,4.76-.29-1.7.13-3.78-.14-5.41,9.34,3.08,21.45,3.38,26.72-1.63a10.47,10.47,0,0,0,12.78,2.46c11.49,7.41,23,16.9,37.29,4.82,11.16,3.69,24.82,3.27,30.81-4.2,4.86,6.78,26.4,10.52,27.32.36,12,10.69,51.33,5,33.74-4.47,10.28,5,25.51,4.82,33.76,0-.49,10,12.26,15.5,20.18,5.32,9.71,3.79,5.54,3.76,12.88.64,10.77,6.31,32.72,8,41-.38Z"/>
      <g class="cls-16">
        <path class="cls-17" d="M86.34,883.38c-2.61,1.4-4.23-2.15-4.23-2.15a3.37,3.37,0,0,1-4.94-.91,4.39,4.39,0,0,1,.48-5.54,3,3,0,0,1-1.58-4.06c1.27-3.73,4.74-.3,4.74-.3s.29-5.06,3.63-3.46,1.93,5,1.93,5,4.19-.63,4.26,3.43-2.86,2.9-2.86,2.9S89,881.94,86.34,883.38Z"/>
        <path class="cls-17" d="M66.46,854.7c-2.13.87-3.3-2.11-3.3-2.11a2.78,2.78,0,0,1-3.91-1.15,3.39,3.39,0,0,1,.61-4.37,2.54,2.54,0,0,1-1.09-3.34c1.16-2.85,3.8.17,3.8.17s.44-4,3-2.44a3.21,3.21,0,0,1,1.33,4.16s3.4-.11,3.28,3.13-2.38,2-2.38,2S68.59,853.8,66.46,854.7Z"/>
        <path class="cls-17" d="M229.32,874.64c-1.82,2.66-3.85.68-3.85.68s-1.91,3.38-4.21,2.13-.79-4.83-.79-4.83-2.29.69-2.09-2.36a3,3,0,0,1,3.76-3s-.82-4.3,2.21-4.94,2.61,3,2.61,3,3.28-3,4.19.31-1.7,4-1.7,4A4.35,4.35,0,0,1,229.32,874.64Z"/>
        <path class="cls-17" d="M202,853.46c-2.06.2-2.76-2.77-2.76-2.77s-2.32.69-3.45-2.05a2.79,2.79,0,0,1,1.11-3.75,2.62,2.62,0,0,1-.6-3.31c1.42-2.25,3.46,1.17,3.46,1.17s.9-3.5,3.07-1.41a3.09,3.09,0,0,1,.7,4.09s3.12.79,2.63,3.65-2.44,1.23-2.44,1.23S204.1,853.22,202,853.46Z"/>
        <path class="cls-17" d="M10.18,887.71c-2.76,1.48-4.43-2.28-4.43-2.28s-3,2.24-5.2-.86.57-5.79.57-5.79a3.09,3.09,0,0,1-1.57-4.19c1.36-3.91,5-.37,5-.37s.38-5.3,3.86-3.63,1.93,5.22,1.93,5.22,4.44-.66,4.47,3.59-3,3-3,3S12.91,886.19,10.18,887.71Z"/>
        <path class="cls-17" d="M182.46,851.46c-1.47,1.21-2.62-.66-2.62-.66s-1.59,1.66-3,.17,0-3.33,0-3.33-1.6-.24-1.14-2.18c.57-2.35,2.81-.84,2.81-.84s-.07-3.08,2-2.58,1.38,2.68,1.38,2.68,2.49-1,2.73,1.41-1.54,2.13-1.54,2.13S183.94,850.26,182.46,851.46Z"/>
        <path class="cls-17" d="M38.72,874.55C36.65,875,35.8,872,35.8,872a2.83,2.83,0,0,1-3.58-1.77,3,3,0,0,1,.92-4,2.59,2.59,0,0,1-.75-3.32c1.32-2.47,3.56.83,3.56.83s.75-3.63,3.06-1.7a3.16,3.16,0,0,1,.91,4.11s3.19.53,2.82,3.5-2.41,1.47-2.41,1.47S40.81,874.12,38.72,874.55Z"/>
        <path class="cls-17" d="M194.52,787c-2.37,1.3-3.84-1.93-3.84-1.93a3.08,3.08,0,0,1-4.5-.83,4,4,0,0,1,.45-5,2.76,2.76,0,0,1-1.45-3.67c1.16-3.4,4.33-.29,4.33-.29s.25-4.61,3.26-3.15a3.54,3.54,0,0,1,1.77,4.55s3.81-.56,3.9,3.12-2.62,2.62-2.62,2.62S196.9,785.76,194.52,787Z"/>
        <path class="cls-17" d="M35.57,799.13a2.28,2.28,0,0,1-3.68,0s-1.9,2.87-4,1.37-.54-4.57-.54-4.57-2.22.3-1.9-2.51c.38-3.47,3.68-2.23,3.68-2.23s-.6-4.15,2.28-4.26,2.35,3.16,2.35,3.16,3.2-2.24,4,.94-1.79,3.42-1.79,3.42A4.1,4.1,0,0,1,35.57,799.13Z"/>
        <path class="cls-17" d="M176.15,769.36c-1.94.79-3-1.9-3-1.9a2.53,2.53,0,0,1-3.55-1.06,3.11,3.11,0,0,1,.56-4,2.3,2.3,0,0,1-1-3c1.05-2.6,3.46.18,3.46.18s.39-3.66,2.73-2.23a2.9,2.9,0,0,1,1.21,3.77s3.1-.07,3,2.87-2.17,1.84-2.17,1.84S178.09,768.53,176.15,769.36Z"/>
        <path class="cls-17" d="M247.26,811.78c-1.66,2.42-3.52.61-3.52.61s-1.72,3.09-3.82,1.93-.71-4.35-.71-4.35-2.1.61-1.9-2.19a2.71,2.71,0,0,1,3.42-2.69s-.74-3.93,2-4.48,2.36,2.73,2.36,2.73,3-2.69,3.82.26-1.56,3.68-1.56,3.68A3.93,3.93,0,0,1,247.26,811.78Z"/>
        <path class="cls-17" d="M95.81,801.44c-2.37,2.14-4.38-1-4.38-1s-2.53,2.88-4.91.46-.2-5.61-.2-5.61-2.63-.32-2-3.56c.74-4,4.56-1.58,4.56-1.58s-.33-5.12,3.09-4.47,2.47,4.44,2.47,4.44,4-1.73,4.6,2.23-2.45,3.65-2.45,3.65S98.18,799.32,95.81,801.44Z"/>
        <path class="cls-17" d="M67.47,770.54c-1.79.65-2.7-1.85-2.7-1.85a2.32,2.32,0,0,1-3.21-1.11,2.75,2.75,0,0,1,.56-3.6,2.15,2.15,0,0,1-.84-2.8c1-2.33,3.13.28,3.13.28s.42-3.3,2.54-1.9A2.67,2.67,0,0,1,68,763s2.8,0,2.66,2.72-2,1.59-2,1.59S69.24,769.84,67.47,770.54Z"/>
        <path class="cls-17" d="M296.87,804.56c-1.81.79-2.77-1.69-2.77-1.69a2.33,2.33,0,0,1-3.31-.86,2.89,2.89,0,0,1,.55-3.66,2.07,2.07,0,0,1-.92-2.78c1-2.38,3.23.08,3.23.08s.38-3.37,2.56-2.14a2.64,2.64,0,0,1,1.1,3.46s2.87-.16,2.77,2.52-2,1.76-2,1.76S298.68,803.74,296.87,804.56Z"/>
        <path class="cls-17" d="M130.93,781.92c-1.49.8-2.37-1.21-2.37-1.21a1.89,1.89,0,0,1-2.75-.46,2.44,2.44,0,0,1,.3-3.07,1.64,1.64,0,0,1-.84-2.23c.72-2.09,2.65-.2,2.65-.2s.2-2.81,2-1.94a2.13,2.13,0,0,1,1,2.77s2.37-.33,2.37,1.93-1.6,1.59-1.6,1.59S132.38,781.11,130.93,781.92Z"/>
        <path class="cls-17" d="M276.65,789.19c-1.34,1.12-2.39-.61-2.39-.61s-1.45,1.55-2.7.17,0-3,0-3-1.47-.19-1.05-1.94c.53-2.16,2.57-.8,2.57-.8s-.07-2.78,1.81-2.33,1.26,2.42,1.26,2.42,2.25-.88,2.47,1.32-1.41,1.93-1.41,1.93A2.53,2.53,0,0,1,276.65,789.19Z"/>
        <path class="cls-17" d="M153.42,790.73c-1.76,1.21-2.95-1.12-2.95-1.12s-1.92,1.72-3.42-.16.19-3.81.19-3.81a1.91,1.91,0,0,1-1.18-2.62c.77-2.63,3.24-.65,3.24-.65s.07-3.45,2.41-2.66,1.44,3.24,1.44,3.24,2.88-.79,3,2-1.87,2.2-1.87,2.2S155.18,789.52,153.42,790.73Z"/>
      </g>
      <path class="cls-14" d="M1421.25,831.42c-24.79-4.63-24.4-25.25,4.9-25.48-19.69-15.16-3.59-36.8,23.83-26.71,6.71-14,27.34-16.25,30.88-.57,6.48-9.8,18.05-16.14,30.86-13.7-47.4-18.72,15.77-42.52,43.88-39.88-10.38-32.92,34.65-50.49,68.78-32.85,8.81-34.68,73-4.25,87.86,11.33,24.87-24.49,72.47-5.91,76,22,34-24.53,54.15,17.93,50.82,38.21,24.28-9.32,25.94,14.24,19.09,26.79,19.42-4.92,32.38,3,23.69,18,20.16-4.57,35.49,6,23.85,20.58,17.61-1.2,47.44.21,25.67,15.14,10.84-1.84,16.52,2,24.5,3-2.11,6.29-6.3,4.69-12.88,6.56l20.94,2.93c-10.72,14.41-41.13,13.27-56.48,3.63-9.88,5.69-4.12,5.44-17.81-.1-10.1,17.38-28.13,9.27-28.26-7.29-11,8.5-32,9.86-46.56,2.42,25,14.31-28.71,26.62-46.16,9.87-.45,16.82-30.46,12.24-37.71,1.4-7.65,12.78-26.46,14.47-42.13,9.21-24.58,27.45-45.4-6.37-67-13.59-3.57,13.65-23.94,15.07-39.33,9.92.5,2.67.09,6.14.62,8.91-22.29,3.79-47.26,6.95-66-5.1-11.58,10.93-35.36,6.47-37.82-8.27-14.35,5.63-34.71,8.53-36-7-12,0-25-.16-35.84-1.74,4.27-1.7,8.74-4.75,13.43-6.62a147.43,147.43,0,0,1-33.61-3.95C1392.1,838.12,1406.37,833.6,1421.25,831.42Z"/>
      <path class="cls-15" d="M1932.64,891.23c4.83-.92,7.8.19,9.55-3.55-5.74-.82-9.71-3.35-17.62-2.59,16.27-8.32-5.25-10.14-18-10,8.93-8.45-1.79-15.32-16.53-13.21,6.82-8.82-2.28-14-16.5-11.66,5.4-7.36,5-21.66-12.86-16.81,3.12-12.15-9.93-38.46-35.41-24.73-1.55-17-35.33-29.76-54.18-15.76-10.19-9.9-55.56-30.36-63.16-9.68-23.35-11.42-55.3-3.12-51.35,15.87a29.34,29.34,0,0,0-5,1.43c-1.51,0-3.08,0-4.69.13-3.75-16-35.71-27.35-53.86-13.87-10.19-9.9-55.55-30.37-63.15-9.69-24.06-11.76-57.25-2.59-50.91,17.63-20.23-2.5-66.77,9.84-33.14,22.69a24,24,0,0,0-22.8,7.29c-2-9.6-17-8.87-22.36-.66-19.47-7-31.89,5.58-18.17,15.37-21.21-.8-22.22,11.65-4.45,15.25-10.83.83-21.32,3.1-25.24,9.21a127.22,127.22,0,0,0,24.18,3.47c-3.46,1-6.81,2.68-10,3.57,7.77,1.3,17.22,1.8,25.86,2.2.42,9.45,15.24,8.36,25.82,5.42,1.26,9,18.3,12.45,27.06,6.22,13.13,7.88,31.3,6.78,47.55,5.21-.28-1.69.14-3.77-.13-5.41,11,3.61,25.73,3.41,28.8-4.72,15.38,5.06,29.25,26.17,48,10.37,9.83,3.25,21.59,3.31,28.35-1.83,4.15,5.41,15.13,7.34,22.74,4a12.23,12.23,0,0,0,3.51-1.07c13.06,7.38,30.83,6.29,46.76,4.75-.28-1.69.13-3.77-.13-5.4,9.33,3.07,21.44,3.38,26.71-1.64a10.48,10.48,0,0,0,12.79,2.47c11.48,7.4,23,16.89,37.29,4.82,11.15,3.69,24.82,3.27,30.8-4.21,4.86,6.79,26.41,10.52,27.32.37,12,10.69,51.33,5,33.74-4.47,10.28,5,25.51,4.82,33.76,0-.49,10,12.27,15.49,20.19,5.31,9.7,3.79,5.53,3.76,12.88.64,10.76,6.32,32.71,8,41-.37Z"/>
      <g class="cls-16">
        <path class="cls-17" d="M1455,844.59c-2,2.44-4,.06-4,.06s-2.11,3.15-4.44,1.5-.6-5-.6-5-2.44.32-2.1-2.78c.41-3.81,4.06-2.44,4.06-2.44s-.68-4.55,2.5-4.67,2.59,3.46,2.59,3.46,3.53-2.46,4.34,1-2,3.79-2,3.79A4.46,4.46,0,0,1,1455,844.59Z"/>
        <path class="cls-17" d="M1515.64,825c-2.59,2.32-4.76-1.05-4.76-1.05s-2.77,3.15-5.36.5-.19-6.11-.19-6.11-2.89-.33-2.18-3.86c.81-4.43,5-1.73,5-1.73s-.36-5.58,3.36-4.86,2.69,4.83,2.69,4.83,4.39-1.9,5,2.45-2.66,3.94-2.66,3.94S1518.22,822.67,1515.64,825Z"/>
        <path class="cls-17" d="M1487.75,815.59c-2,.73-3-2-3-2a2.53,2.53,0,0,1-3.52-1.22,3,3,0,0,1,.61-4,2.36,2.36,0,0,1-.93-3.09c1.11-2.55,3.44.33,3.44.33s.48-3.65,2.81-2.13a3,3,0,0,1,1.15,3.83s3.07,0,2.93,3-2.21,1.74-2.21,1.74S1489.71,814.84,1487.75,815.59Z"/>
        <path class="cls-17" d="M1563,859.89c-2.77,1.48-4.43-2.29-4.43-2.29s-3,2.25-5.2-.86.57-5.79.57-5.79a3.08,3.08,0,0,1-1.57-4.18c1.35-3.91,5-.37,5-.37s.38-5.3,3.85-3.64,1.94,5.22,1.94,5.22,4.43-.66,4.46,3.6-3,3-3,3S1565.73,858.37,1563,859.89Z"/>
        <path class="cls-17" d="M1591.55,846.73c-2.07.45-2.92-2.57-2.92-2.57a2.84,2.84,0,0,1-3.59-1.76,3,3,0,0,1,.92-4,2.58,2.58,0,0,1-.74-3.31c1.31-2.47,3.56.83,3.56.83s.74-3.63,3-1.7a3.15,3.15,0,0,1,.91,4.11s3.19.52,2.82,3.5-2.41,1.46-2.41,1.46S1593.64,846.29,1591.55,846.73Z"/>
        <path class="cls-17" d="M1588.4,771.3a2.3,2.3,0,0,1-3.69.06s-1.9,2.86-4,1.37-.54-4.57-.54-4.57-2.22.3-1.9-2.51c.38-3.48,3.68-2.24,3.68-2.24s-.6-4.15,2.29-4.25,2.34,3.16,2.34,3.16,3.21-2.25,4,.94-1.8,3.42-1.8,3.42A4.07,4.07,0,0,1,1588.4,771.3Z"/>
      </g>
    </g>
  </g>
  <g class="cls-18">
    <g class="cls-19">
      <path class="cls-14" d="M1544.17,831.42c-24.79-4.63-24.4-25.25,4.9-25.48-19.69-15.16-3.59-36.8,23.83-26.71,6.71-14,27.34-16.25,30.88-.57,6.48-9.8,18-16.14,30.86-13.7-47.4-18.72,15.77-42.52,43.88-39.88-10.38-32.92,34.65-50.49,68.78-32.85,8.81-34.68,73-4.25,87.86,11.33,24.87-24.49,72.47-5.91,76,22,34-24.53,54.15,17.93,50.82,38.21,24.28-9.32,25.94,14.24,19.09,26.79,19.42-4.92,32.38,3,23.69,18,20.16-4.57,35.49,6,23.85,20.58,17.61-1.2,47.44.21,25.67,15.14,10.84-1.84,16.52,2,24.51,3-2.12,6.29-6.31,4.69-12.89,6.56l20.94,2.93c-10.72,14.41-41.13,13.27-56.48,3.63-9.88,5.69-4.12,5.44-17.81-.1-10.1,17.38-28.13,9.27-28.26-7.29-11,8.5-32,9.86-46.56,2.42,25,14.31-28.71,26.62-46.16,9.87-.45,16.82-30.46,12.24-37.71,1.4-7.65,12.78-26.46,14.47-42.13,9.21-24.58,27.45-45.39-6.37-67-13.59-3.57,13.65-23.94,15.07-39.33,9.92.5,2.67.09,6.14.62,8.91-22.29,3.79-47.26,6.95-66-5.1-11.58,10.93-35.36,6.47-37.82-8.27-14.35,5.63-34.7,8.53-36-7-12,0-25-.16-35.85-1.74,4.27-1.7,8.74-4.75,13.44-6.62a147.51,147.51,0,0,1-33.62-3.95C1515,838.12,1529.29,833.6,1544.17,831.42Z"/>
      <path class="cls-15" d="M2055.56,891.23c4.83-.92,7.8.19,9.55-3.55-5.74-.82-9.71-3.35-17.61-2.59,16.27-8.32-5.26-10.14-18-10,8.94-8.45-1.79-15.32-16.53-13.21,6.82-8.82-2.28-14-16.5-11.66,5.4-7.36,5-21.66-12.86-16.81,3.12-12.15-9.93-38.46-35.41-24.73-1.55-17-35.33-29.76-54.18-15.76-10.19-9.9-55.56-30.36-63.15-9.68-23.36-11.42-55.31-3.12-51.36,15.87a29.6,29.6,0,0,0-5,1.43c-1.5,0-3.08,0-4.69.13-3.75-16-35.71-27.35-53.86-13.87-10.19-9.9-55.55-30.37-63.15-9.69-24.06-11.76-57.25-2.59-50.9,17.63-20.24-2.5-66.77,9.84-33.15,22.69a24,24,0,0,0-22.8,7.29c-2-9.6-17-8.87-22.36-.66-19.47-7-31.88,5.58-18.17,15.37-21.21-.8-22.21,11.65-4.45,15.25-10.83.83-21.32,3.1-25.24,9.21a127.22,127.22,0,0,0,24.18,3.47c-3.46,1-6.81,2.68-10,3.57,7.77,1.3,17.22,1.8,25.86,2.2.42,9.45,15.24,8.36,25.82,5.42,1.26,9,18.31,12.45,27.06,6.22,13.13,7.88,31.3,6.78,47.56,5.21-.29-1.69.13-3.77-.14-5.41,10.95,3.61,25.73,3.41,28.8-4.72,15.39,5.06,29.25,26.17,48,10.37,9.83,3.25,21.59,3.31,28.35-1.83,4.15,5.41,15.13,7.34,22.74,4a12.23,12.23,0,0,0,3.51-1.07c13.06,7.38,30.83,6.29,46.76,4.75-.28-1.69.14-3.77-.13-5.4,9.33,3.07,21.44,3.38,26.71-1.64a10.48,10.48,0,0,0,12.79,2.47c11.48,7.4,23,16.89,37.29,4.82,11.15,3.69,24.82,3.27,30.8-4.21,4.86,6.79,26.41,10.52,27.32.37,12,10.69,51.33,5,33.74-4.47,10.29,5,25.51,4.82,33.77,0-.49,10,12.26,15.49,20.18,5.31,9.7,3.79,5.53,3.76,12.88.64,10.76,6.32,32.71,8,41-.37Z"/>
      <g class="cls-16">
        <path class="cls-17" d="M1577.87,844.59c-2,2.44-4,.06-4,.06s-2.11,3.15-4.44,1.5-.59-5-.59-5-2.45.32-2.11-2.78c.41-3.81,4.06-2.44,4.06-2.44s-.68-4.55,2.5-4.67,2.59,3.46,2.59,3.46,3.53-2.46,4.34,1-2,3.79-2,3.79A4.44,4.44,0,0,1,1577.87,844.59Z"/>
      </g>
    </g>
  </g>
</svg>
