<svg xmlns="http://www.w3.org/2000/svg" xmlns:xlink="http://www.w3.org/1999/xlink" width="63" height="81" viewBox="0 0 63 81">
  <defs>
    <style>
      .cls-1, .cls-7 {
        fill: none;
      }

      .cls-2 {
        isolation: isolate;
      }

      .cls-3 {
        fill: #666;
      }

      .cls-3, .cls-4, .cls-5, .cls-6, .cls-7 {
        fill-rule: evenodd;
      }

      .cls-4 {
        fill: #e50303;
      }

      .cls-5 {
        fill: red;
      }

      .cls-10, .cls-24, .cls-6 {
        fill: #fff;
      }

      .cls-6 {
        opacity: 0.46;
      }

      .cls-7 {
        stroke: #491a07;
        stroke-miterlimit: 10;
      }

      .cls-8 {
        opacity: 0.79;
      }

      .cls-9 {
        fill: url(#Dégradé_sans_nom_90);
      }

      .cls-10, .cls-24, .cls-25 {
        mix-blend-mode: overlay;
      }

      .cls-10 {
        opacity: 0.31;
      }

      .cls-11 {
        fill: url(#Dégradé_sans_nom_90-2);
      }

      .cls-12 {
        clip-path: url(#clip-path);
      }

      .cls-13 {
        fill: #6de2fe;
      }

      .cls-14 {
        opacity: 0.6;
      }

      .cls-15 {
        clip-path: url(#clip-path-2);
      }

      .cls-16 {
        fill: #7af8ff;
      }

      .cls-17 {
        opacity: 0.35;
      }

      .cls-18 {
        clip-path: url(#clip-path-3);
      }

      .cls-19 {
        clip-path: url(#clip-path-4);
      }

      .cls-20 {
        fill: url(#linear-gradient);
      }

      .cls-21 {
        fill: #244c0a;
      }

      .cls-22 {
        fill: #428715;
      }

      .cls-23 {
        fill: #41771e;
      }

      .cls-24 {
        opacity: 0.34;
      }

      .cls-25 {
        opacity: 0.29;
      }
    </style>
    <linearGradient id="Dégradé_sans_nom_90" data-name="Dégradé sans nom 90" x1="-10086.71" y1="-971.63" x2="-10051.84" y2="-983.68" gradientTransform="matrix(-0.45, 0.87, 0.93, 0.35, -3566.49, 9148.67)" gradientUnits="userSpaceOnUse">
      <stop offset="0" stop-color="#c5cf0d"/>
      <stop offset="1" stop-color="#72ab07"/>
    </linearGradient>
    <linearGradient id="Dégradé_sans_nom_90-2" x1="-4114.38" y1="-1319.69" x2="-4091.15" y2="-1327.72" gradientTransform="matrix(0.66, 1.23, 1.23, -0.66, 4343.08, 4180.72)" xlink:href="#Dégradé_sans_nom_90"/>
    <clipPath id="clip-path">
      <rect class="cls-1" x="-1567.62" y="-8.35" width="1280" height="720"/>
    </clipPath>
    <clipPath id="clip-path-2">
      <rect class="cls-1" x="-307.83" y="-126.12" width="443.6" height="202.4"/>
    </clipPath>
    <clipPath id="clip-path-3">
      <rect class="cls-1" x="-2010.29" y="-92.9" width="2041.68" height="513.84"/>
    </clipPath>
    <clipPath id="clip-path-4">
      <rect class="cls-1" x="-2010.29" y="-92.9" width="2041.69" height="513.84"/>
    </clipPath>
    <linearGradient id="linear-gradient" x1="-11499" y1="814.79" x2="-11497.99" y2="814.79" gradientTransform="matrix(0, 1611.79, 1611.79, 0, -1314256.09, 18533770.98)" gradientUnits="userSpaceOnUse">
      <stop offset="0" stop-color="#08f"/>
      <stop offset="0.04" stop-color="#08f"/>
      <stop offset="0.13" stop-color="#2399e8"/>
      <stop offset="0.42" stop-color="#96cf9b"/>
      <stop offset="0.63" stop-color="#dff26b"/>
      <stop offset="0.72" stop-color="#fbff58"/>
      <stop offset="1" stop-color="#fbff58"/>
    </linearGradient>
  </defs>
  <g class="cls-2">
    <g id="Layer_1" data-name="Layer 1">
      <g>
        <g>
          <g>
            <g>
              <path class="cls-3" d="M30.42,39.68a10.69,10.69,0,0,0-1.78-7.22A3.41,3.41,0,0,1,28,31.3a1.22,1.22,0,0,1,0-.57,1.09,1.09,0,0,1,.28-.49,1,1,0,0,1,.5-.25.94.94,0,0,1,.55.06,1.72,1.72,0,0,1,.67.64,8.61,8.61,0,0,1,1.25,6.25A10.18,10.18,0,0,1,30.42,39.68Z"/>
              <path class="cls-4" d="M31.14,65.8a9.26,9.26,0,0,1-5.16.34,13.61,13.61,0,0,1-4.72-2.25,21.73,21.73,0,0,1-6.77-7.34,16.37,16.37,0,0,1-2-9.73,13.17,13.17,0,0,1,3.2-7.16A11.1,11.1,0,0,1,22.61,36a10.34,10.34,0,0,1,8.09,2.7,10.13,10.13,0,0,1,11.23-2,11.23,11.23,0,0,1,5.3,5.09,14.07,14.07,0,0,1,1.47,7.25c-.3,5-3,9.58-6.32,13.26a14.45,14.45,0,0,1-3.82,3.15A9,9,0,0,1,31.14,65.8Z"/>
              <path class="cls-5" d="M28.08,65.39A8.48,8.48,0,0,1,24,63.54a16,16,0,0,1-3-3.34c-2.53-3.58-4.28-7.89-4-12.26a11.55,11.55,0,0,1,2.16-6.23,8.21,8.21,0,0,1,5.6-3.29,7.15,7.15,0,0,1,5.7,2.08,8.75,8.75,0,0,1,9.63-3.29,9.79,9.79,0,0,1,4.5,3A12.3,12.3,0,0,1,47.1,45a15.41,15.41,0,0,1-.49,9.49A18.58,18.58,0,0,1,41,62.16a13.32,13.32,0,0,1-6.76,3.15A10,10,0,0,1,31,65.15,6.83,6.83,0,0,1,28.08,65.39Z"/>
            </g>
            <path class="cls-6" d="M32.3,42.25s5.11.4,7.7-3c0,0,6.06,6.54,1.13,13.9C41.13,53.16,40,44.59,32.3,42.25Z"/>
          </g>
          <path class="cls-7" d="M47.23,41.81a11.23,11.23,0,0,0-5.3-5.09,10.15,10.15,0,0,0-11.06,1.85,11.47,11.47,0,0,0,.42-1.63A8.61,8.61,0,0,0,30,30.69a1.72,1.72,0,0,0-.67-.64.94.94,0,0,0-.55-.06,1,1,0,0,0-.5.25,1.09,1.09,0,0,0-.28.49,1.22,1.22,0,0,0,0,.57,3.41,3.41,0,0,0,.61,1.16,10.69,10.69,0,0,1,1.85,6.1A10.32,10.32,0,0,0,22.61,36a11.1,11.1,0,0,0-6.91,3.62,13.17,13.17,0,0,0-3.2,7.16,16.37,16.37,0,0,0,2,9.73,21.73,21.73,0,0,0,6.77,7.34A13.61,13.61,0,0,0,26,66.14a9.26,9.26,0,0,0,5.16-.34,9,9,0,0,0,7.42-.33,14.45,14.45,0,0,0,3.82-3.15c3.37-3.68,6-8.27,6.32-13.26A14.07,14.07,0,0,0,47.23,41.81Z"/>
        </g>
        <g class="cls-8">
          <path class="cls-9" d="M39.79,34.27c5.14-2.22,9.21-6.86,9.94-12,.61-4.36-.75-8.55-2.16-12.58l0-.08a.44.44,0,0,1,0,.1,1.11,1.11,0,0,1-.17.85c-1.06,1.83-6,3.81-7.13,4.45a18.36,18.36,0,0,0-3.4,2.42,18.81,18.81,0,0,0-5.08,7.41c-.6,1.61-1.94,7.35-.75,9.49a1.44,1.44,0,0,0,.84.74A11.55,11.55,0,0,0,39.79,34.27Z"/>
          <path class="cls-10" d="M39.79,34.27c5.14-2.22,9.21-6.86,9.94-12,.61-4.36-.75-8.55-2.16-12.58v0a8.52,8.52,0,0,0-.17.85c-.23,1.29-.31,2.62-.5,3.46a21.42,21.42,0,0,1-3.14,6.72,46.25,46.25,0,0,1-3.08,4.21,50,50,0,0,1-6.06,6.21c-1.21,1-2.48,2-3.58,3.17a1.44,1.44,0,0,0,.84.74A11.55,11.55,0,0,0,39.79,34.27Z"/>
        </g>
        <g class="cls-8">
          <path class="cls-11" d="M36.16,28.34c1.39-5,.24-10.58-3.35-14-3-2.91-7.15-4.28-11.16-5.53l-.07,0,.09,0a1.07,1.07,0,0,1,.55.61c.79,1.8-.66,6.51-.86,7.7A15.49,15.49,0,0,0,21.18,21a16.37,16.37,0,0,0,2.7,7.88c.9,1.35,4.57,5.56,7,5.9a1.5,1.5,0,0,0,1.09-.19A10.66,10.66,0,0,0,36.16,28.34Z"/>
          <path class="cls-10" d="M36.16,28.34c1.39-5,.24-10.58-3.35-14-3-2.91-7.15-4.28-11.16-5.53,0,0,0,0,0,0,.17.21.36.41.55.61.87.89,1.87,1.69,2.41,2.31A19.26,19.26,0,0,1,28,17.81a39.82,39.82,0,0,1,1.41,4.62,42.62,42.62,0,0,1,1.16,7.92c.08,1.46.09,3,.31,4.39a1.5,1.5,0,0,0,1.09-.19A10.66,10.66,0,0,0,36.16,28.34Z"/>
        </g>
      </g>
      <g class="cls-12">
        <path class="cls-13" d="M480.41,639.5l0-92.72V516.41l-.13-458.67,0-147.62-15622.49.31.07,186.16h0l0,129.3v105l0,63.92v1.62c1.21.12,1.78,3.95,2,9.52.19,5.81,0,13.53-.41,20.89-.35,7.21-.83,14.12-1.15,18.58h0c-.19,2.48-.35,4.21-.38,4.84v0a1.22,1.22,0,0,0,0,.23s0,0,.06.05c.42.58,5.25,6.79,7.85,7.15l0,89,0,59.93c4.38,15.44,6.54,30,2.35,46.16q-1.14,4.36-2.34,8.73l0,140.52v8h237.47L133,809.82H472.53l0-163.81h7.91Z"/>
        <g class="cls-14">
          <g class="cls-15">
            <path class="cls-16" d="M135.8-97.59c-7.29-48.88-85-26.5-146.68,4.33C-17.16-88-26.46-83.79-25-73.27c.62,4.4,3,7.75,5.3,10.61C-8.91-49.41,4-40,17.66-35.58c35.14,11.4-32,9.44-76.09,10.51C-68.66-24.83-80-21.36-86.32-9.42s-4.09,30.16,9,32.6c31.75,24-49.5,27-230.59,11.4,106,35.81,274.5,60.14,309.57,23.54,11.87-12.7,6.66-20.85-9-26.24a436.66,436.66,0,0,0,143.06-10"/>
          </g>
        </g>
        <g class="cls-17">
          <g class="cls-18">
            <g class="cls-19">
              <rect class="cls-20" x="-2010.29" y="-92.9" width="2041.69" height="513.84"/>
            </g>
          </g>
        </g>
        <g>
          <path class="cls-21" d="M-803.86,127.63c0,50.82,64.4,92.25,127.52,95.06,12.73.56,25.85-.38,37.32-4.65,10.15-3.79,18.86-10.4,27-16.64,2.1-1.62,4.15-3.21,6.2-4.71,12-8.9,19.56-20.87,20.61-33.76a50.45,50.45,0,0,0,7.66,2.89c12.95,3.73,27.53,2.53,39.88-2.46-3.62,16.41,7.92,25.17,26.76,32.91q18.43,7.56,37.78,13.7c17.82,5.66,36.54,10.43,55.81,10.48s39.35-5.27,51.48-16.79c7.24,10.79,20.9,18.22,35.22,23.33,17.36,6.2,37,9.6,55.8,7s36.7-11.82,44-25.43c17.09,9.35,38.93,12.3,59.89,11.72,24.3-.67,48.88-6,68.1-17.45s32.41-29.57,31.72-48.27c.06,1.53,23-9,27.83-11.29.39-.17.66-.31.8-.37,9.34-4.55,17-8.64,24.17-15.38C-3.36,113.59,5.39,96.1,5.39,78c0-46.4-55.09-84-123-84-54.63,0-100.93,24.31-117,58a149.46,149.46,0,0,0-60-12.14c-34.47,0-65.42,10.93-86.64,28.27a171.86,171.86,0,0,0-33.11-3.18,165.79,165.79,0,0,0-54.64,9c-8.6-33.19-44.19-58.09-86.81-58.09-32.26,0-60.49,14.25-76,35.58a148.52,148.52,0,0,0-55.55-10.49,148.55,148.55,0,0,0-53.88,9.84C-778.49,65.19-803.86,94.2-803.86,127.63Z"/>
          <path class="cls-22" d="M-699.85-28.36c15.3,21,41.75,37.2,74.23,42.6,22.63,3.77,46,.3,67.72-5.57,5,11.44,16.88,19.25,31.43,20.28,14.08,1,27.91-3.81,39.78-10.31,6.54-3.58,13.4-9.3,11.55-15.71,12.11,38.66,46.59,65.53,93,73.27,34.17,5.69,67.31-.41,91.79-14.63a136.57,136.57,0,0,0,23.28,6c47.26,7.86,92.68-8.94,113.46-39C-138,39.32-118.36,47.37-96.13,51.07-46.9,59.27.11,43.68,22.3,14.84A63.49,63.49,0,0,0,34.05-9.64c9.88-42.78-29.83-85.61-89.22-97.19,0-.47,0-.93,0-1.4,0-57.06-54.45-103.31-121.62-103.31a140.91,140.91,0,0,0-40.55,5.88c-15.89-56.34-84.3-98.71-166.28-98.71-60.33,0-113.29,22.94-143.39,57.5-43.45.66-78.42,28.33-78.42,62.4,0,.38,0,.77,0,1.16a51.44,51.44,0,0,0-7.84-.61c-23.7,0-42.93,16.08-42.93,35.91a31.6,31.6,0,0,0,.34,4.48c-28.82,10.74-50.65,31.62-56.8,58.21C-717.24-65.2-712.13-45.21-699.85-28.36Z"/>
          <path class="cls-23" d="M-749.23,44.76c.19,14.69,6.39,28.41,17.08,40.2,21.89,24.18,62.6,40.23,109,39.84,24.84-.21,47.93-5.11,67.28-13.37,15.31,32.9,60.31,56.52,113.13,56.08a170.07,170.07,0,0,0,26.5-2.3c23,17.81,57.35,29,95.52,28.64,63.44-.54,115.37-32.58,122.44-73.45a115,115,0,0,0,20.36,1.67,113.81,113.81,0,0,0,24.1-2.8c18,30.4,60.72,51.57,110.25,51.15,26.48-.22,50.86-6.58,70.43-17.16,28.73-15.5,47.16-40.07,46.8-67.57C73,39.45,19.56,2.41-45.79,3c-1.62,0-3.22.07-4.83.12a54,54,0,0,0,4.54-22.23C-46.61-59.58-93.12-92-150-91.47c-21.19.17-40.83,4.9-57.11,12.86-14.29-56.58-82.82-99.1-164.62-98.4-56.88.47-106.78,21.74-136.23,53.74a114.41,114.41,0,0,0-34.29-4.9c-50.94.44-91.82,33.32-91.3,73.46a58.61,58.61,0,0,0,2.93,17.44C-697.15-34.9-749.81,1.14-749.23,44.76Z"/>
          <path class="cls-24" d="M-725.27,91.75c-14.81-30.1,1.29-53.24,31.57-71.28A122.68,122.68,0,0,1-646.6,4.65c9.53-1.2,41.28-3.79,48.17,3.55-22.85-24.36-23.88-61.46.52-84.83,22.54-21.59,76.63-30.8,102-7,9.19-11.59,18.52-21.78,32.85-29.77,42.95-24,102-27.8,149.14-9.72,48.93,18.75,78.53,57.38,85,99.83,16.82-17.84,46.71-30.34,74.35-32.57s57.18,6.29,73.87,24.18c23,24.67,17.47,59,10.84,89.44,6.33-13.51,27.35-18.6,45.17-17.1C8.16,43.48,31,61.66,45,84.49c10,16.37,12.43,48.71-7.69,62.42C60,131.46,74,109.69,73.64,85.69,73,39.45,19.56,2.41-45.79,3c-1.62,0-3.22.07-4.83.12a54,54,0,0,0,4.54-22.23C-46.61-59.58-93.12-92-150-91.47c-21.19.17-40.83,4.9-57.11,12.86-14.29-56.58-82.82-99.1-164.62-98.4-56.88.47-106.78,21.74-136.23,53.74a114.41,114.41,0,0,0-34.29-4.9c-50.94.44-91.82,33.32-91.3,73.46a58.61,58.61,0,0,0,2.93,17.44c-66.54,2.37-119.2,38.41-118.62,82C-749,62.36-740.14,78.59-725.27,91.75Z"/>
          <path class="cls-25" d="M-732.15,85c21.89,24.18,62.6,40.23,109,39.84,24.84-.21,47.93-5.11,67.28-13.37,15.31,32.9,60.31,56.52,113.13,56.08a170.07,170.07,0,0,0,26.5-2.3c23,17.81,57.35,29,95.52,28.64,63.44-.54,115.37-32.58,122.44-73.45a115,115,0,0,0,20.36,1.67,113.81,113.81,0,0,0,24.1-2.8c18,30.4,60.72,51.57,110.25,51.15,26.48-.22,50.86-6.58,70.43-17.16-26.28,6.53-51.63,8.73-78.09-.48a123.76,123.76,0,0,1-74.06-70.87c-14.16,11.39-36.05,14.76-55.79,12.16s-37.8-10.41-54.85-18.84c4,32.93-22.66,66.69-61.38,77.71s-85.8-1.78-108.34-29.44c-5.95,9.89-22.52,11.73-36.05,10.27-45.33-4.92-85.09-34-95.53-69.89-4.76,14.57-25.1,21.45-43.12,25.5C-630.39,100.64-687.84,105.14-732.15,85Z"/>
          <path class="cls-24" d="M-699.85-28.36c1.25-18.11,8.56-35.29,19.61-51.2,2.39-3.44,41-38.26,45.85-28.26-6-12.56-2.49-27.76,8.76-37.71s29.69-14.21,45.78-10.55c-9-12.23-6-28.8,5.16-39.84,22.88-22.73,56.34-17.71,86.15-9.07,2.29-26.2,25.28-49.66,54.82-60.77s64.48-10.75,95.44-2.49c53.39,14.23,96.06,49.71,116,91.67.76-7.1,11.3-10.37,20.08-11.18,33.62-3.11,69.81,7.32,94.14,26.1,21.88,16.88,40.27,40.52,34.25,64.44A105,105,0,0,1-3.61-59,97.74,97.74,0,0,1,11.27-34.19c6.42,15.82,8.94,32.46,11,49A63.49,63.49,0,0,0,34.05-9.64c9.88-42.78-29.83-85.61-89.22-97.19,0-.47,0-.93,0-1.4,0-57.06-54.45-103.31-121.62-103.31a140.91,140.91,0,0,0-40.55,5.88c-15.89-56.34-84.3-98.71-166.28-98.71-60.33,0-113.29,22.94-143.39,57.5-43.45.66-78.42,28.33-78.42,62.4,0,.38,0,.77,0,1.16a51.44,51.44,0,0,0-7.84-.61c-23.7,0-42.93,16.08-42.93,35.91a31.6,31.6,0,0,0,.34,4.48c-28.82,10.74-50.65,31.62-56.8,58.21C-717.24-65.2-712.13-45.21-699.85-28.36Z"/>
        </g>
      </g>
    </g>
  </g>
</svg>
