<svg id="Layer_1" data-name="Layer 1" xmlns="http://www.w3.org/2000/svg" xmlns:xlink="http://www.w3.org/1999/xlink" width="1600" height="900" viewBox="0 0 1600 900">
  <defs>
    <style>
      .cls-1 {
        fill: none;
      }

      .cls-2 {
        clip-path: url(#clip-path);
      }

      .cls-3 {
        clip-path: url(#clip-path-2);
      }

      .cls-4 {
        fill: url(#linear-gradient);
      }

      .cls-5 {
        clip-path: url(#clip-path-3);
      }

      .cls-6 {
        clip-path: url(#clip-path-4);
      }

      .cls-7 {
        opacity: 0.21;
      }

      .cls-8 {
        clip-path: url(#clip-path-5);
      }

      .cls-9 {
        fill: #23490f;
      }

      .cls-10 {
        opacity: 0.56;
      }

      .cls-11 {
        clip-path: url(#clip-path-6);
      }

      .cls-12 {
        clip-path: url(#clip-path-7);
      }

      .cls-13 {
        fill: url(#radial-gradient);
      }

      .cls-14 {
        fill: #1c4c0b;
      }

      .cls-15 {
        fill: #123006;
      }

      .cls-16 {
        opacity: 0.33;
      }

      .cls-17 {
        fill: #fbf5b6;
      }

      .cls-18 {
        fill: #063019;
      }

      .cls-19 {
        fill: #073f20;
      }

      .cls-20 {
        clip-path: url(#clip-path-8);
      }

      .cls-21 {
        clip-path: url(#clip-path-9);
      }
    </style>
    <clipPath id="clip-path">
      <rect class="cls-1" x="-316.75" y="-1090.68" width="1280" height="720"/>
    </clipPath>
    <clipPath id="clip-path-2">
      <rect class="cls-1" x="-476.75" y="-1180.68" width="1600" height="900"/>
    </clipPath>
    <linearGradient id="linear-gradient" x1="-5293.74" y1="921.29" x2="-5293.74" y2="-6062.55" gradientUnits="userSpaceOnUse">
      <stop offset="0" stop-color="#a4f2ff"/>
      <stop offset="0.23" stop-color="#69e3ff"/>
      <stop offset="0.45" stop-color="#34d5ff"/>
      <stop offset="0.57" stop-color="#1fd0ff"/>
      <stop offset="0.65" stop-color="#25c3ff"/>
      <stop offset="0.81" stop-color="#36a2ff"/>
      <stop offset="1" stop-color="#4d73ff"/>
    </linearGradient>
    <clipPath id="clip-path-3">
      <rect class="cls-1" x="172.71" y="81.53" width="1280" height="720"/>
    </clipPath>
    <clipPath id="clip-path-4">
      <rect class="cls-1" width="1600" height="900"/>
    </clipPath>
    <clipPath id="clip-path-5">
      <rect class="cls-1" x="-161.68" y="524.91" width="1679.54" height="374.76"/>
    </clipPath>
    <clipPath id="clip-path-6">
      <rect class="cls-1" x="-75.02" y="537.59" width="1525.67" height="374.76"/>
    </clipPath>
    <clipPath id="clip-path-7">
      <path class="cls-1" d="M534.38,548.53c-21.79,11-42.32,14-65.48,14a434.18,434.18,0,0,0-92,9.58l13.71,11.46A441.33,441.33,0,0,0,347,596.92c-3.61,1.31-8,3.83-7.28,9.6a8.43,8.43,0,0,0,3.48,6.08l27.65,18.13c1.92,1.25,4.07,2.88,3.78,6.33-.24,3-2.09,5.19-4.27,5.51-56.15,8.09-112.63,15.91-167.14,36-2.67,1-4.8,3.9-5.26,7.59-1.35,10.78,13.29,10.28,18.22,19.24a128.1,128.1,0,0,0-44.15,8c-3,1.1-6.37,2.74-6.44,8a10.8,10.8,0,0,0,2.77,7.5,81,81,0,0,0,31.3,21c-49.88,3.56-99.3,18.74-145.44,44.67-5.87,3.29-12.59,8.21-11.42,18.28a18.41,18.41,0,0,0,4.27,10c14.46,16.46,32.76,24.26,50.66,31.78C43,859.65-11,876.51-61.83,904.36c-2.57,1.4-5.36,3.14-6.47,6.57a9.12,9.12,0,0,0-.48,2.7h1507V869.94l-7.44,1.66S1317,821.5,1244.72,837.42c-.35-.06-.35-.74,0-.8,36.24-6.6,98.3-37,133.44-50.72,7.55-2.94,16.87-9.44,14.46-20.69-.78-3.62-3.6-7.82-6.14-9.38-41.17-25.43-138.16-17.65-97.91-29.69,22.82-6.84-67.28-23.88-92.49-28.83,5.77.18,44.46-7.66,23.93-23.16-9.26-3.91-57.18-22-62.89-23.24-42-9.25-71.91-7-106.08-4.83-17.12,1.11-42.94,6.23-64.26,5.89,2.87-5,51.18-24.39,36.09-30.16-50.45-19.28-83.32-39.31-115.62-38.37-44.71,1.3-98.57-11-143.83-15.66,4.39-3.49,3.41-13.26-.58-17.55s-9.47-4.65-14.57-4.83L589.16,540c-4.29-.15-8.43-.27-12.49-.27-14.53,0-27.86,1.54-42.29,8.84"/>
    </clipPath>
    <radialGradient id="radial-gradient" cx="-10242.59" cy="-4359.33" r="1" gradientTransform="translate(-5549538.18 -1600037.53) rotate(180) scale(541.88 367.21)" gradientUnits="userSpaceOnUse">
      <stop offset="0" stop-color="#61dfff"/>
      <stop offset="0.14" stop-color="#5adaff"/>
      <stop offset="0.35" stop-color="#47caff"/>
      <stop offset="0.59" stop-color="#28b1ff"/>
      <stop offset="0.84" stop-color="#0091ff"/>
      <stop offset="1" stop-color="#0091ff"/>
    </radialGradient>
    <clipPath id="clip-path-8">
      <rect class="cls-1" x="-1602" y="90" width="1280" height="720"/>
    </clipPath>
    <clipPath id="clip-path-9">
      <rect class="cls-1" x="-1762" width="1600" height="900"/>
    </clipPath>
  </defs>
  <g class="cls-2">
    <g class="cls-3">
      <rect class="cls-4" x="-11889.59" y="-4883.08" width="13191.7" height="5525.81"/>
    </g>
  </g>
  <g class="cls-5">
    <g class="cls-6">
      <g class="cls-7">
        <g class="cls-8">
          <path class="cls-9" d="M35.82,899.67l-3.75,0-98.29-.54-58.31-.31c-7,0-14-.17-21-.12-4.44,0-19.11,3.6-15.61-6.16,1.24-3.44,4.35-5.17,7.21-6.58,56.6-27.85,116.86-44.7,177.79-49.73-20-7.52-40.35-15.32-56.47-31.77a17.48,17.48,0,0,1-4.75-10c-1.31-10.07,6.18-15,12.72-18.28,51.42-25.92,106.5-41.1,162.1-44.66a91.7,91.7,0,0,1-34.89-21A10.2,10.2,0,0,1,99.47,703c.08-5.27,3.84-6.91,7.18-8a157.4,157.4,0,0,1,49.21-8c-5.5-9-21.82-8.46-20.31-19.23a9.17,9.17,0,0,1,5.86-7.59c60.76-20.09,123.7-27.91,186.28-36a5.87,5.87,0,0,0,4.76-5.49c.32-3.46-2.08-5.09-4.21-6.34l-30.82-18.13a8.29,8.29,0,0,1-3.88-6.08c-.78-5.76,4.09-8.28,8.12-9.59q24.1-7.87,48.67-13.39l-15.27-11.45a536.35,536.35,0,0,1,102.49-9.58c25.81.07,37.08,1.76,61.36-9.26,20.57-9.34,12.13-10.47,34.05-9.8,59.1,1.82,163,3.92,222.11,5.74,5.68.17,9,3,13.47,7.33s2.15,7.78-2.75,11.27c50.44,4.65,110.47,17,160.3,15.66,36-.94,72.63,19.09,128.85,38.37,16.82,5.76-28.51,21.1-31.7,26.14,71.19,1,111.06-10.93,181.33,2.95,6.36,1.26,59.76,19.33,70.09,23.24,22.88,15.5-20.24,23.33-26.68,23.15,28.1,5,128.52,22,103.08,28.82-44.85,12,63.25,4.27,109.13,29.69,2.82,1.57,6,5.76,6.84,9.38,2.69,11.25-7.7,17.75-16.12,20.69-39.16,13.69-108.33,44.12-148.71,50.72-.39.06-.39.74,0,.79,80.5-15.91,207.37,34.18,207.37,34.18l8.3-1.66v48.14Z"/>
        </g>
      </g>
      <g class="cls-10">
        <g class="cls-11">
          <path class="cls-9" d="M104.39,912.35l-3.4,0L11.7,911.8l-53-.32c-6.36,0-12.73-.16-19.09-.12-4,0-17.35,3.6-14.17-6.16,1.12-3.43,4-5.17,6.55-6.57,51.41-27.85,106.15-44.71,161.5-49.74-18.12-7.52-36.66-15.31-51.3-31.77a18.31,18.31,0,0,1-4.32-10c-1.19-10.07,5.62-15,11.57-18.28,46.7-25.92,96.73-41.1,147.24-44.66a82.15,82.15,0,0,1-31.69-21,10.73,10.73,0,0,1-2.81-7.51c.07-5.27,3.49-6.92,6.52-8a130.87,130.87,0,0,1,44.7-8c-5-9-19.82-8.47-18.45-19.24.47-3.69,2.63-6.61,5.33-7.59,55.19-20.09,112.36-27.91,169.21-36,2.2-.32,4.07-2.55,4.32-5.5.3-3.46-1.89-5.08-3.82-6.34l-28-18.12a8.47,8.47,0,0,1-3.53-6.09c-.7-5.76,3.73-8.28,7.38-9.59a453.14,453.14,0,0,1,44.22-13.39l-13.88-11.45a444.77,444.77,0,0,1,93.11-9.58c23.44.08,33.68,1.76,55.73-9.26,18.69-9.33,11-10.47,30.93-9.8,53.69,1.82,148.07,3.93,201.76,5.74,5.16.18,8.2,3,12.24,7.34s1.95,7.78-2.5,11.26c45.82,4.65,100.35,17,145.62,15.66,32.69-.94,66,19.09,117,38.37,15.28,5.77-25.9,21.1-28.8,26.15,64.67,1,100.88-10.94,164.72,2.94,5.77,1.26,54.29,19.33,63.67,23.24,20.78,15.5-18.39,23.33-24.24,23.16,25.53,4.95,116.75,22,93.64,28.82-40.74,12,57.45,4.26,99.13,29.69,2.56,1.56,5.42,5.76,6.21,9.38,2.44,11.24-7,17.74-14.64,20.69-35.57,13.68-98.41,44.11-135.09,50.71-.35.06-.35.74,0,.79,73.13-15.91,188.37,34.18,188.37,34.18l7.54-1.66v48.14Z"/>
        </g>
      </g>
      <g class="cls-12">
        <rect class="cls-13" x="-76.42" y="543.7" width="1507.02" height="373.94"/>
      </g>
      <path class="cls-14" d="M-302.65,869.87c-24.79-4.63-24.4-25.26,4.91-25.49-19.7-15.15-3.59-36.8,23.82-26.7,6.71-14,27.34-16.26,30.88-.57,6.48-9.81,18-16.14,30.86-13.7-47.4-18.73,15.78-42.52,43.88-39.89-10.37-32.91,34.66-50.48,68.78-32.84,8.82-34.69,73-4.25,87.87,11.33,24.87-24.49,72.47-5.92,76,22,34-24.53,54.15,17.94,50.82,38.21,24.28-9.32,25.94,14.24,19.08,26.8,19.42-4.92,32.39,3,23.69,18,20.16-4.58,35.5,6,23.86,20.58,17.6-1.2,47.43.21,25.67,15.14,10.84-1.84,16.51,2.05,24.5,3-2.11,6.29-6.31,4.69-12.88,6.56L240,895.26c-10.73,14.42-41.13,13.27-56.48,3.64-9.88,5.69-4.13,5.43-17.81-.11-10.11,17.39-28.13,9.27-28.26-7.28-11,8.5-32,9.85-46.56,2.41,25,14.32-28.72,26.63-46.17,9.87C44.27,920.62,14.27,916,7,905.2-.63,918-19.44,919.67-35.12,914.4c-24.58,27.45-45.39-6.36-67-13.59-3.57,13.65-23.93,15.08-39.32,9.92.5,2.68.09,6.14.61,8.91-22.29,3.79-47.25,7-66-5.09-11.58,10.93-35.37,6.46-37.82-8.27-14.36,5.62-34.71,8.52-36-7-11.95,0-25-.15-35.85-1.73,4.27-1.7,8.75-4.75,13.44-6.62a148,148,0,0,1-33.61-4C-331.8,876.57-317.52,872.05-302.65,869.87Z"/>
      <path class="cls-15" d="M312.49,917.25c4.82-.92,7.8.18,9.55-3.55-5.75-.82-9.71-3.36-17.62-2.6,16.27-8.32-5.26-10.13-18-10,8.93-8.45-1.79-15.33-16.53-13.21,6.82-8.82-2.28-14-16.5-11.67,5.4-7.36,5-21.65-12.87-16.8,3.13-12.15-9.93-38.46-35.41-24.74-1.55-17-35.32-29.76-54.17-15.76-10.2-9.89-55.56-30.36-63.16-9.68-23.35-11.42-55.31-3.11-51.36,15.88a28.69,28.69,0,0,0-5,1.43c-1.5,0-3.07,0-4.68.12C23,810.68-9,799.35-27.11,812.83c-10.19-9.9-55.56-30.36-63.15-9.68-24.07-11.76-57.26-2.6-50.91,17.63-20.24-2.5-66.77,9.84-33.14,22.68a24,24,0,0,0-22.8,7.29c-2-9.59-17-8.87-22.36-.65-19.48-7-31.89,5.57-18.18,15.37-21.2-.81-22.21,11.64-4.44,15.24-10.84.84-21.32,3.11-25.24,9.21a125.65,125.65,0,0,0,24.17,3.47c-3.46,1-6.8,2.68-10,3.57,7.78,1.31,17.22,1.81,25.87,2.21.41,9.45,15.23,8.35,25.82,5.42,1.25,9,18.3,12.45,27.06,6.21,13.12,7.89,31.3,6.79,47.55,5.21-.28-1.69.14-3.77-.13-5.4,11,3.61,25.73,3.41,28.79-4.73,15.39,5.07,29.25,26.18,48,10.38,9.82,3.25,21.59,3.31,28.34-1.83,4.15,5.41,15.14,7.34,22.74,4a11.61,11.61,0,0,0,3.52-1.07c13.05,7.38,30.82,6.3,46.76,4.76-.29-1.69.13-3.78-.14-5.41,9.34,3.08,21.45,3.38,26.72-1.63a10.47,10.47,0,0,0,12.78,2.46c11.49,7.41,23,16.9,37.3,4.82,11.15,3.69,24.81,3.28,30.8-4.2,4.86,6.78,26.4,10.52,27.32.36,12,10.69,51.33,5,33.74-4.47,10.28,5,25.51,4.83,33.76,0-.49,10,12.26,15.5,20.19,5.32,9.7,3.79,5.53,3.76,12.87.64,10.77,6.31,32.72,8,41-.38Z"/>
      <g class="cls-16">
        <path class="cls-17" d="M14.11,867.57c-1.47,2.15-3.11.55-3.11.55s-1.54,2.73-3.41,1.72-.63-3.9-.63-3.9S5.1,866.5,5.27,864a2.42,2.42,0,0,1,3-2.41s-.66-3.49,1.79-4,2.1,2.44,2.1,2.44,2.65-2.4,3.39.24-1.38,3.26-1.38,3.26A3.5,3.5,0,0,1,14.11,867.57Z"/>
        <path class="cls-17" d="M28.61,816.76a1.76,1.76,0,0,1-2.84.49s-1.39,2.5-3.09,1.56-.57-3.52-.57-3.52-1.7.49-1.54-1.77a2.21,2.21,0,0,1,2.77-2.18s-.6-3.17,1.62-3.62,1.91,2.21,1.91,2.21,2.41-2.18,3.09.22-1.27,3-1.27,3A3.18,3.18,0,0,1,28.61,816.76Z"/>
        <path class="cls-17" d="M68.72,810.92c-1.47.64-2.24-1.37-2.24-1.37a1.89,1.89,0,0,1-2.68-.7,2.33,2.33,0,0,1,.45-3,1.69,1.69,0,0,1-.75-2.25c.81-1.92,2.62.07,2.62.07s.3-2.73,2.07-1.73a2.15,2.15,0,0,1,.89,2.8s2.32-.13,2.23,2-1.65,1.43-1.65,1.43S70.18,810.25,68.72,810.92Z"/>
        <path class="cls-17" d="M52.37,798.49c-1.08.91-1.93-.49-1.93-.49s-1.17,1.25-2.18.14a2,2,0,0,1,0-2.46s-1.19-.16-.85-1.57c.43-1.75,2.08-.65,2.08-.65s-.06-2.24,1.46-1.88,1,2,1,2,1.82-.72,2,1.07-1.13,1.56-1.13,1.56A2,2,0,0,1,52.37,798.49Z"/>
      </g>
      <path class="cls-18" d="M1560.29,925.57c19.62-2.36,41.76-6.6,48-9.07-11.09-1-32.77.76-51,3l4.29-1c10.6-1.94,19.3-3.88,20.44-4.85,13-3,23.56-5.43,25.13-5.56-6.53-.12-24.09,2.13-40.92,5.47-1.69.11-3.4.24-5.11.37,23.82-7.27,50.38-15.67,53.25-17.78-4.48-.22-23.72,4.35-43.82,9.87,11.15-4.6,21.64-9.25,27-12-4.78.87-10.51,2.12-16.6,3.62,5.79-3.08,11.57-6.17,17.11-9.08-1-.89-6,.35-13,2.79,10.33-6.25,17.82-11.5,18-13.35-9.9,4.63-20.56,9.51-30.78,14.3,7.12-4.21,13.92-8.5,19.37-12-4.05,1.21-10.37,3.58-17.47,6.48,13.64-10.34,25.07-19.61,27.4-22.76-2.59.72-17,10.36-33,21.37,2.62-2.34,5.17-4.66,7.57-6.91,6-3.91,11-7.18,14.32-9.29q-4.07,1.56-7.94,3.18a126.37,126.37,0,0,0,9.69-10.32c-1,1-7.28,6.18-15.65,12.88q-6.54,2.9-12.5,5.88c4.25-5.13,8.21-10.18,11.44-14.75,1.94-1.28,3.91-2.57,5.92-3.84q-2.42,1.06-4.75,2.16a79.36,79.36,0,0,0,4.47-7.23c-2.36,1.81-6.73,5.78-12,10.9q-7.51,3.81-14.18,7.77a38.41,38.41,0,0,0,1.14-5l-2.08,1.94q1.66-3.36,3.23-6.71c6.24-7.79,11.94-15.19,16.4-21.42-3.58,2.51-7.17,5.24-10.74,8.13,1.22-3.17,2.3-6.28,3.23-9.28-3.43,4.62-7.26,10.11-11.25,16.05-6.19,5.43-12.24,11.22-17.95,17.06,2.34-8.6,4.43-17.8,6-27,1.67-5.3,2.72-9.5,2.87-11.76-.45.57-.91,1.17-1.37,1.81.28-2.18.53-4.36.74-6.52q-1.5,4.86-3.06,9.84c-7.43,11.1-16.13,28.38-22.92,43.35.39-1.4.79-2.81,1.18-4.24,3.74-10.33,6.33-18.87,5.7-20.13,3.66-12.75,6.79-23.17,7.56-24.67-4.09,6.12-11.59,23-17.17,39.5-.86,1.61-1.72,3.24-2.56,4.87,4.44-23.76,9-50.32,7.86-53.41-3,4.16-8.34,23.12-12.93,43,.46-11.35.45-22.09-.11-27.61-1.69,4.65-3.45,10.28-5.07,16.28-.7-6-1.41-12-2-17.8-1.7.73-3,5.1-3.85,11.41-.11.23-.21.45-.32.67-2.24-10.55-4.8-18.26-7.18-18.73.34,10.18.55,21.13.91,31.64-1.44-7.49-3.17-14.7-4.68-20.49a105,105,0,0,0-1.4,12.18c-.42,1.1-.82,2.18-1.19,3.26-5.52-13.8-10.81-25.21-13.53-27.86-.59,2.58,3.82,18,9.16,35.07-6.52-11.87-13.56-22.55-17.47-26.64.63.85,2.72,5.27,5.55,11.51a110.35,110.35,0,0,0-.15,15c-6.54-7.09-13.08-13.3-18.69-17.05,2,5,10.51,18.55,20.25,31.84.11.69.22,1.38.34,2.06a63.94,63.94,0,0,0-6.31-3.64c-7.69-9.12-15.57-17-19.22-19.17,1.43,4.41,4.61,10.31,8.55,16.56-5.45-3.35-11-6.53-16.63-9.4a6.26,6.26,0,0,1-.52-.63c.07.16.15.32.23.48-4.76-2.44-9.53-4.66-14.19-6.57,6.88,6.7,16.29,14.89,26.32,23.12,2.45,2.87,5.11,5.81,7.85,8.64.71,1.14,1.44,2.28,2.18,3.42-16.09-12.17-34.35-25.55-37.61-26.17,1.27,3.16,11.65,12.85,23.66,22.89l-3.34-1.18c-6.73-3.6-12.87-6.64-16.66-8.16,1.13,1.22,2.39,2.53,3.77,3.9-10.61-3.32-21.72-6.32-32.88-8.75,7.73,3.16,15.68,6.47,23.59,9.8,1,1.48,3.59,3.51,7.08,5.83-10.27-3.19-18.48-5-20.49-3.86,8.41,4,17.33,8.32,26,12.41-7-2.25-13.92-4.24-19.58-5.76a119,119,0,0,0,13,8.16c-15.77-2.8-29.64-4.72-33.8-4.26,1.67,1.37,17,5.21,34.3,9.21-13.9-1.22-27.2-1.66-33.1-1.16,2.6,0,26.7,3.56,47.37,6.76-17.43.45-37,1.76-48.67,4.5,5.82,1,25.19,1.88,44,1.71a84.82,84.82,0,0,0-20.65,7s1,.08,2.79.19a318.09,318.09,0,0,0-35.34,11.12c17.64-1.93,44.27-6.36,66.52-10.62,1.07,0,2.13-.11,3.16-.18A508.2,508.2,0,0,0,1377.45,965c43.15-16.81,94.92-35.73,104.92-39.37.21.27.41.52.61.74.64-.64,3-2.87,3.67-3.51h0l1.36-1.3a8.21,8.21,0,0,0-1.23-.3c0-.18-.08-.37-.12-.59l11.31,5c-.18.42-.35.81-.48,1.17,1.08-.11,4.92-.35,6-.44h0c.84-.05,1.74-.11,2.22-.16a6.92,6.92,0,0,0-.36-1.23c.49-.54,1.12-1.23,1.9-2.06q1.55-1.49,3.34-3.32c2.2-1.15,4.8-2.62,7.69-4.31l-2.35,6.88q-.65.08-1.2.18c.25.68,1,3.17,1.24,3.87h0c.17.54.35,1.12.46,1.43a11.75,11.75,0,0,0,1.15-.78l2.27.4c1.11.26,2.35.54,3.7.82,12,8.34,49.21,26.27,60.22,32.19a135.42,135.42,0,0,0-38.81-27,240.46,240.46,0,0,1,44.4,17.82,118.14,118.14,0,0,0-26-16.84c15,1.89,30.46,3.44,42,4-12.71-5.75-29.38-10-45.15-12.71m-7.12-32.19-.21.17.06-.07.15-.1M1561,876c-3.78,3.84-7.71,7.94-11.51,12q1.57-2.76,2.87-5.59,4.17-3.19,8.64-6.46m-86.27-5.89c1.43,3.26,2.9,6.62,4.34,9.95-.12.7-.24,1.38-.35,2.06l-.77-.94c-1-3.73-2.11-7.46-3.22-11.07"/>
      <path class="cls-19" d="M1463.11,920.6c21.55-4.93,45.28-12.78,51.55-16.85-13.06-.67-37.17,3.59-57.18,8.19l4.54-1.83c11.39-3.63,20.61-7.12,21.56-8.61,13.67-5.4,24.91-9.69,26.66-10-7.52.32-26.75,4.92-44.75,11.06-1.89.29-3.8.6-5.7.93,24.52-12.38,51.76-26.61,54.25-29.9-5.19,0-25.49,8.13-46.41,17.68,11-7.53,21.29-15.08,26.34-19.52-5.13,1.63-11.23,3.87-17.63,6.52,5.48-4.92,10.94-9.84,16.19-14.5-1.49-1.22-6.76,1-13.84,5.05,9.49-9.87,16.1-18.07,15.57-20.78-9.6,7.49-20,15.4-29.86,23.13,6.56-6.66,12.75-13.41,17.66-18.95A169,169,0,0,0,1464.49,863c11.76-16.06,21.38-30.42,22.88-35.17-2.7,1.24-15.62,16.35-29.79,33.58,2.13-3.6,4.18-7.18,6.09-10.63,5.36-6.13,9.87-11.27,12.91-14.58-2.71,1.71-5.34,3.46-7.89,5.21a139.15,139.15,0,0,0,7.24-15.73c-.71,1.53-6,9.53-13.1,19.91-4.27,3.14-8.31,6.32-12.11,9.5,3-7.78,5.6-15.42,7.59-22.31q2.61-3,5.34-6-2.36,1.74-4.63,3.5a105.75,105.75,0,0,0,2.44-10.84,165.6,165.6,0,0,0-9.68,16.75q-7.18,6.11-13.32,12.38a70.88,70.88,0,0,0-.54-7.28s-.63,1.1-1.67,3c.45-3.33.85-6.67,1.2-10,4.25-11.79,8-23,10.79-32.38-3.15,3.92-6.24,8.17-9.26,12.64.22-4.71.3-9.31.25-13.74-2.2,7-4.55,15.25-6.9,24.18-5,8.37-9.82,17.24-14.17,26.17-.52-12.69-1.55-26.21-3.18-39.78-.06-7.84-.42-14-1.09-17.32-.3.86-.6,1.78-.9,2.74-.49-3.2-1-6.37-1.57-9.53q.11,7.17.16,14.53c-4.36,16.7-7.89,42.49-10.08,64.77-.07-2.06-.15-4.15-.22-6.25.43-15.3.21-27.92-1-29.71-.55-18.8-.85-34.19-.53-36.44-2.4,9.21-4.68,34.38-4.94,58.73q-.58,3.62-1.12,7.28c-3.76-34.89-8.41-73.84-10.87-78.25-1.86,6.28-.94,34.24,1.22,63.57-3.69-16.53-7.69-32.14-10.39-40.13-.2,6.89-.12,15.21.26,24.06-3-8.71-6.09-17.4-9-25.73-1.66,1.2-1.5,7.65-.16,16.89l-.12,1c-6.47-15.17-12.27-26.18-15.17-26.69,4.18,14.79,8.49,30.68,12.81,45.93-4.43-10.77-9.09-21.12-13-29.42.43,4.37,1.48,10.61,2.93,17.81-.07,1.63-.12,3.23-.15,4.83-11.44-19.65-21.73-35.83-25.83-39.47.29,3.78,11,25.83,23.52,50.29C1338,828,1326,813,1320,807.35c1,1.19,5.07,7.45,10.62,16.31a220.26,220.26,0,0,0,5.42,21.85c-10.11-9.81-19.91-18.35-27.71-23.37,4.12,7.07,18.91,26.17,35,44.74.38,1,.76,2,1.15,3a91.5,91.5,0,0,0-8.57-4.82c-12.18-12.66-24.13-23.57-29.09-26.41,3.28,6.32,9.1,14.64,15.93,23.43-7.48-4.45-15-8.65-22.5-12.4a10.82,10.82,0,0,1-.83-.87c.13.22.28.44.44.68-6.36-3.19-12.63-6.05-18.67-8.47,10.36,9.22,24.16,20.4,38.68,31.61,3.87,4,8,8,12.19,12q1.85,2.4,3.77,4.8c-22.93-16.47-48.77-34.53-52.73-35.19,2.63,4.5,18.1,17.8,35.56,31.49-1.41-.5-2.83-1-4.26-1.47-9-4.72-17.18-8.67-22.08-10.6,1.75,1.7,3.68,3.51,5.76,5.39-13.36-4-27.18-7.54-40.83-10.22,10,4,20.32,8.21,30.61,12.45,1.74,2.07,5.4,4.83,10.25,7.94-12.92-3.86-23-5.88-24.85-4,11.08,5.13,22.91,10.78,34.35,16.06-8.82-2.74-17.49-5.1-24.53-6.88a181.26,181.26,0,0,0,17.91,10.87c-19.06-2.87-35.63-4.61-40.22-3.63,2.43,1.87,21.35,6.28,42.64,10.79-16.35-.71-31.71-.35-38.27.83,3-.2,31.85,3.15,56.67,6.22-19.77,2-41.61,5.37-54,10.24,7,1,29.5.82,51-.85a67.62,67.62,0,0,0-21,11.71s1.2,0,3.26.06a254.18,254.18,0,0,0-36.26,18.86c19.45-4.15,48.25-12.61,72.1-20.5,1.2-.15,2.39-.32,3.54-.5a412.19,412.19,0,0,0-71.64,53.36c43.08-27.72,95.23-59.15,105.31-65.21.33.38.66.73,1,1,.49-1,2.38-4.4,2.89-5.38h0c.4-.75.84-1.55,1.06-2a10.61,10.61,0,0,0-1.51-.34l-.36-.84c7,3,12.08,5.24,14.8,6.42-.06.62-.1,1.2-.12,1.73,1.2-.24,5.49-.88,6.7-1.1h0c.93-.15,1.94-.3,2.47-.4a13.59,13.59,0,0,0-.87-1.76c.36-.82.83-1.88,1.41-3.15.8-1.52,1.67-3.22,2.58-5.08,2.08-1.84,4.51-4.16,7.19-6.85,0,4.64-.1,8.12-.13,10.18-.47.11-.91.23-1.31.35.55,1,2.34,4.55,2.87,5.53h0c.4.78.82,1.61,1.06,2a11.3,11.3,0,0,0,1-1.22c.71.1,1.63.23,2.75.41,1.36.3,2.88.6,4.53.9,16.81,11.23,66,34.46,80.81,42.22a210.86,210.86,0,0,0-54.4-36.24,304.36,304.36,0,0,1,57.38,22.54A178.78,178.78,0,0,0,1469.9,933c17.81,1.61,36.1,2.68,49.55,2.61-16.67-7.4-37.3-12.27-56.34-15M1443,874.33l-.18.27,0-.11s.09-.1.13-.16m2.5-25.87c-2.89,5.87-5.86,12.13-8.68,18.38.52-2.74.93-5.53,1.21-8.33,2.38-3.31,4.87-6.67,7.47-10m-100.81-2c2.85,4.64,5.77,9.41,8.66,14.14.12,1,.24,2,.37,3l-1.23-1.31c-2.57-5.35-5.19-10.69-7.8-15.85"/>
      <path class="cls-19" d="M1673.38,928.36c17-3.88,35.7-10.06,40.64-13.28-10.3-.52-29.3,2.84-45.07,6.46l3.57-1.45c9-2.85,16.25-5.6,17-6.78,10.78-4.25,19.63-7.63,21-7.87-5.92.25-21.08,3.87-35.27,8.72-1.49.22-3,.47-4.49.72,19.33-9.75,40.8-21,42.76-23.56-4.09,0-20.09,6.41-36.58,13.93a255.53,255.53,0,0,0,20.76-15.38c-4,1.29-8.85,3-13.89,5.14,4.31-3.88,8.62-7.76,12.76-11.43-1.18-1-5.34.76-10.91,4,7.48-7.78,12.69-14.25,12.27-16.38-7.56,5.91-15.74,12.14-23.54,18.23,5.17-5.25,10-10.57,13.92-14.94a135.17,135.17,0,0,0-13.84,8.47c9.26-12.66,16.84-24,18-27.72-2.12,1-12.3,12.89-23.47,26.47,1.67-2.84,3.29-5.66,4.79-8.38,4.23-4.83,7.79-8.88,10.18-11.5-2.13,1.36-4.21,2.73-6.22,4.12a110.35,110.35,0,0,0,5.71-12.41c-.56,1.21-4.75,7.52-10.33,15.7-3.36,2.47-6.54,5-9.54,7.48,2.33-6.13,4.41-12.15,6-17.58q2.07-2.39,4.21-4.76-1.86,1.36-3.64,2.76a86.25,86.25,0,0,0,1.91-8.54,131.61,131.61,0,0,0-7.63,13.2q-5.65,4.82-10.5,9.75a55.39,55.39,0,0,0-.42-5.74s-.5.87-1.31,2.35q.52-3.95.94-7.89c3.35-9.29,6.31-18.11,8.5-25.52-2.48,3.09-4.92,6.44-7.29,10,.17-3.71.24-7.34.19-10.82-1.73,5.49-3.58,12-5.43,19-4,6.6-7.74,13.6-11.18,20.63-.41-10-1.22-20.66-2.5-31.35a85.35,85.35,0,0,0-.86-13.65c-.24.68-.47,1.4-.71,2.15-.38-2.51-.79-5-1.23-7.51,0,3.77.08,7.6.12,11.45-3.44,13.17-6.22,33.49-7.94,51.06-.06-1.63-.12-3.27-.18-4.93.34-12.06.16-22-.77-23.41-.44-14.83-.68-27-.42-28.73-1.89,7.26-3.69,27.1-3.89,46.3-.31,1.89-.6,3.81-.89,5.73-3-27.5-6.62-58.2-8.57-61.68-1.46,5-.74,27,1,50.11-2.91-13-6.06-25.33-8.19-31.63-.16,5.43-.09,12,.2,19-2.39-6.86-4.8-13.71-7-20.28-1.31,1-1.18,6-.12,13.32,0,.26-.07.51-.1.77-5.11-12-9.68-20.63-12-21,3.29,11.65,6.69,24.18,10.1,36.2-3.5-8.49-7.16-16.64-10.22-23.19.34,3.45,1.16,8.37,2.3,14q-.07,1.92-.12,3.81c-9-15.49-17.13-28.24-20.35-31.11.22,3,8.7,20.35,18.54,39.63-9.36-13.21-18.84-25-23.55-29.48.81.94,4,5.87,8.36,12.85a175.89,175.89,0,0,0,4.27,17.23c-8-7.74-15.69-14.46-21.83-18.42,3.24,5.57,14.9,20.63,27.58,35.27.29.78.6,1.56.9,2.34a73.63,73.63,0,0,0-6.75-3.8c-9.6-10-19-18.58-22.93-20.81,2.58,5,7.17,11.54,12.55,18.47-5.89-3.51-11.86-6.82-17.74-9.78-.31-.31-.53-.54-.65-.69.11.18.22.35.35.54-5-2.51-10-4.77-14.72-6.68,8.17,7.27,19,16.08,30.49,24.92,3,3.13,6.31,6.34,9.61,9.43,1,1.26,2,2.52,3,3.78-18.07-13-38.44-27.22-41.56-27.74,2.07,3.55,14.27,14,28,24.82-1.11-.39-2.23-.77-3.36-1.15-7.12-3.73-13.54-6.84-17.4-8.36,1.37,1.34,2.9,2.77,4.54,4.25-10.53-3.17-21.43-6-32.19-8.06,7.89,3.16,16,6.48,24.13,9.82,1.37,1.63,4.26,3.8,8.08,6.25-10.18-3-18.11-4.63-19.59-3.19,8.74,4.05,18.06,8.5,27.07,12.66-6.94-2.16-13.78-4-19.33-5.42a142.61,142.61,0,0,0,14.12,8.56c-15-2.26-28.08-3.63-31.7-2.86,1.91,1.48,16.83,5,33.61,8.51-12.89-.56-25-.28-30.16.65,2.33-.15,25.1,2.48,44.66,4.91-15.58,1.56-32.79,4.22-42.54,8.07,5.55.81,23.25.65,40.18-.68A53.4,53.4,0,0,0,1543,944s1,0,2.57,0A200,200,0,0,0,1517,958.94c15.33-3.27,38-9.94,56.82-16.16,1-.12,1.89-.25,2.8-.39a325.1,325.1,0,0,0-56.47,42.06c34-21.85,75.06-46.63,83-51.4.27.3.53.57.77.81.39-.78,1.88-3.47,2.28-4.24h0l.84-1.56a7.08,7.08,0,0,0-1.2-.28c-.08-.2-.18-.42-.28-.66l11.66,5.06c0,.49-.07.94-.09,1.36.95-.18,4.33-.69,5.28-.86h0c.74-.12,1.53-.24,2-.32a11.71,11.71,0,0,0-.68-1.39c.28-.64.65-1.47,1.11-2.47q.95-1.8,2-4c1.64-1.45,3.56-3.28,5.67-5.4,0,3.65-.08,6.4-.1,8-.38.08-.72.17-1,.27.43.77,1.84,3.58,2.26,4.36h0c.32.61.65,1.27.84,1.61a8.45,8.45,0,0,0,.81-1l2.16.32c1.08.24,2.28.48,3.58.72,13.25,8.84,52,27.16,63.69,33.28a166,166,0,0,0-42.87-28.57,239.28,239.28,0,0,1,45.23,17.77,140.65,140.65,0,0,0-28.34-17.74c14,1.26,28.45,2.11,39,2.05-13.13-5.83-29.4-9.67-44.41-11.86m-15.84-36.46-.15.2a.2.2,0,0,0,0-.08l.11-.12m2-20.39c-2.28,4.62-4.62,9.55-6.84,14.48.42-2.16.73-4.36,1-6.57q2.81-3.92,5.88-7.91m-79.45-1.59c2.24,3.65,4.55,7.41,6.82,11.15.09.8.19,1.59.29,2.38l-1-1c-2-4.21-4.09-8.42-6.14-12.49"/>
    </g>
  </g>
  <g class="cls-20">
    <g class="cls-21">
      <path class="cls-14" d="M-435.63,861.4c-24.79-4.63-24.4-25.26,4.9-25.49-19.69-15.15-3.59-36.8,23.83-26.7,6.71-14,27.34-16.26,30.88-.57,6.48-9.81,18-16.15,30.86-13.7-47.4-18.73,15.77-42.52,43.88-39.89-10.38-32.91,34.65-50.48,68.78-32.84,8.81-34.69,73-4.25,87.86,11.33,24.87-24.49,72.47-5.92,76,22,34-24.53,54.15,17.94,50.82,38.21,24.29-9.32,26,14.24,19.09,26.8,19.42-4.92,32.38,3,23.69,18,20.16-4.58,35.49,6,23.85,20.58,17.61-1.2,47.44.21,25.67,15.14,10.85-1.84,16.52,2,24.51,3-2.12,6.29-6.31,4.69-12.89,6.56L107,886.79c-10.72,14.42-41.13,13.27-56.48,3.64-9.88,5.69-4.12,5.43-17.81-.11C22.62,907.71,4.59,899.59,4.46,883c-11,8.5-32,9.85-46.56,2.41,25,14.32-28.71,26.63-46.16,9.87-.45,16.83-30.46,12.25-37.71,1.4-7.65,12.79-26.46,14.48-42.13,9.21-24.58,27.45-45.39-6.36-67-13.59-3.57,13.65-23.94,15.08-39.33,9.92.5,2.68.09,6.14.62,8.91-22.29,3.79-47.26,7-66-5.09-11.58,10.93-35.36,6.46-37.82-8.27-14.35,5.62-34.7,8.52-36-7-12,0-25-.15-35.85-1.73,4.27-1.7,8.74-4.76,13.44-6.62a148.08,148.08,0,0,1-33.62-3.95C-464.78,868.1-450.51,863.58-435.63,861.4Z"/>
      <path class="cls-15" d="M179.51,908.78c4.82-.92,7.79.18,9.55-3.55-5.75-.83-9.72-3.36-17.62-2.6,16.27-8.32-5.26-10.13-18-10,8.94-8.45-1.78-15.33-16.53-13.21,6.82-8.82-2.28-14-16.5-11.67,5.4-7.36,5-21.65-12.86-16.8,3.12-12.15-9.93-38.46-35.41-24.74-1.55-17-35.33-29.76-54.18-15.76-10.19-9.89-55.55-30.36-63.15-9.68-23.36-11.42-55.31-3.11-51.36,15.88a28.69,28.69,0,0,0-5,1.43c-1.5,0-3.07,0-4.69.12-3.75-16-35.71-27.35-53.85-13.87-10.19-9.9-55.56-30.36-63.16-9.68-24.06-11.77-57.25-2.6-50.9,17.63-20.24-2.5-66.77,9.84-33.15,22.68a24,24,0,0,0-22.8,7.29c-2-9.59-17-8.87-22.35-.65-19.48-7-31.89,5.57-18.18,15.37-21.21-.81-22.21,11.64-4.44,15.24-10.84.84-21.33,3.11-25.24,9.21a126.21,126.21,0,0,0,24.17,3.47c-3.46,1-6.8,2.68-9.95,3.57,7.77,1.31,17.22,1.8,25.86,2.21.42,9.45,15.24,8.35,25.82,5.42,1.26,9,18.31,12.45,27.07,6.21,13.12,7.89,31.29,6.78,47.55,5.21-.29-1.69.13-3.77-.14-5.4,11,3.61,25.74,3.41,28.8-4.73,15.39,5.07,29.25,26.17,48,10.38,9.82,3.25,21.58,3.31,28.34-1.83,4.15,5.41,15.13,7.34,22.74,4a11.92,11.92,0,0,0,3.51-1.07c13.06,7.38,30.83,6.3,46.76,4.76-.28-1.7.14-3.78-.13-5.41,9.33,3.08,21.44,3.38,26.72-1.63a10.46,10.46,0,0,0,12.78,2.46c11.49,7.41,23,16.9,37.29,4.82,11.15,3.69,24.82,3.28,30.8-4.2,4.86,6.78,26.41,10.52,27.32.36,12,10.69,51.33,5,33.74-4.47,10.29,5,25.51,4.82,33.77,0-.49,10,12.26,15.5,20.18,5.32,9.7,3.79,5.53,3.76,12.88.64,10.76,6.31,32.72,8,41-.38Z"/>
    </g>
  </g>
</svg>
