<svg id="Layer_1" data-name="Layer 1" xmlns="http://www.w3.org/2000/svg" xmlns:xlink="http://www.w3.org/1999/xlink" width="1600" height="900" viewBox="0 0 1600 900">
  <defs>
    <style>
      .cls-1 {
        fill: none;
      }

      .cls-2 {
        clip-path: url(#clip-path);
      }

      .cls-3 {
        clip-path: url(#clip-path-2);
      }

      .cls-4 {
        fill: #191c3f;
      }

      .cls-5 {
        opacity: 0.8;
      }

      .cls-6 {
        fill: #f4edf9;
      }

      .cls-7 {
        opacity: 0.8;
      }

      .cls-8 {
        opacity: 0.7;
      }

      .cls-9 {
        opacity: 0.77;
      }

      .cls-10 {
        opacity: 0.76;
      }

      .cls-11 {
        opacity: 0.57;
      }

      .cls-12 {
        opacity: 0.88;
      }

      .cls-13 {
        fill: #f9f0bd;
      }

      .cls-14 {
        opacity: 0.79;
      }

      .cls-15 {
        opacity: 0.78;
      }

      .cls-16 {
        fill: #a0e6f9;
      }

      .cls-17 {
        opacity: 0.92;
      }

      .cls-18 {
        fill: #b8e9f4;
      }

      .cls-19 {
        opacity: 0.89;
      }

      .cls-20 {
        opacity: 1;
      }

      .cls-21 {
        fill: #f9e9aa;
      }

      .cls-22 {
        clip-path: url(#clip-path-3);
      }

      .cls-23 {
        clip-path: url(#clip-path-4);
      }

      .cls-24 {
        clip-path: url(#clip-path-5);
      }

      .cls-25 {
        fill: url(#linear-gradient);
      }

      .cls-26 {
        clip-path: url(#clip-path-6);
      }

      .cls-27 {
        clip-path: url(#clip-path-7);
      }

      .cls-28 {
        opacity: 0.21;
      }

      .cls-29 {
        fill: #23490f;
      }

      .cls-30 {
        clip-path: url(#clip-path-8);
      }

      .cls-31 {
        opacity: 0.56;
      }

      .cls-32 {
        fill: url(#radial-gradient);
      }

      .cls-33 {
        fill: #0c4c2d;
      }

      .cls-34 {
        fill: #13382e;
      }

      .cls-35 {
        fill: #1b3a13;
      }

      .cls-36 {
        clip-path: url(#clip-path-9);
      }

      .cls-37 {
        clip-path: url(#clip-path-10);
      }

      .cls-38 {
        opacity: 0.67;
        fill: url(#linear-gradient-2);
      }

      .cls-39 {
        fill: #1c4c0b;
      }

      .cls-40 {
        fill: #123006;
      }
    </style>
    <clipPath id="clip-path">
      <rect class="cls-1" x="6645.68" y="-284.03" width="1600" height="900"/>
    </clipPath>
    <clipPath id="clip-path-2">
      <rect class="cls-1" x="-2435.79" y="577.77" width="11168.71" height="2050"/>
    </clipPath>
    <clipPath id="clip-path-3">
      <rect class="cls-1" x="1486.61" y="-1412.54" width="10800" height="2050"/>
    </clipPath>
    <clipPath id="clip-path-4">
      <rect class="cls-1" x="6845.25" y="1888.32" width="1280" height="720"/>
    </clipPath>
    <clipPath id="clip-path-5">
      <rect class="cls-1" x="6685.25" y="1798.32" width="1600" height="900"/>
    </clipPath>
    <linearGradient id="linear-gradient" x1="1868.26" y1="3900.29" x2="1868.26" y2="-3083.55" gradientUnits="userSpaceOnUse">
      <stop offset="0" stop-color="#a4f2ff"/>
      <stop offset="0.23" stop-color="#69e3ff"/>
      <stop offset="0.45" stop-color="#34d5ff"/>
      <stop offset="0.57" stop-color="#1fd0ff"/>
      <stop offset="0.65" stop-color="#25c3ff"/>
      <stop offset="0.81" stop-color="#36a2ff"/>
      <stop offset="1" stop-color="#4d73ff"/>
    </linearGradient>
    <clipPath id="clip-path-6">
      <rect class="cls-1" x="-1624" y="90" width="1280" height="720"/>
    </clipPath>
    <clipPath id="clip-path-7">
      <rect class="cls-1" x="-1784" width="1600" height="900"/>
    </clipPath>
    <clipPath id="clip-path-8">
      <rect class="cls-1" width="1600" height="900"/>
    </clipPath>
    <radialGradient id="radial-gradient" cx="-426.1" cy="1401.66" r="725.03" gradientTransform="matrix(-0.81, 0, 0, 0.4, 590.28, 196.8)" gradientUnits="userSpaceOnUse">
      <stop offset="0" stop-color="#61dfff"/>
      <stop offset="0.14" stop-color="#5adaff"/>
      <stop offset="0.35" stop-color="#47caff"/>
      <stop offset="0.59" stop-color="#28b1ff"/>
      <stop offset="0.84" stop-color="#0091ff"/>
    </radialGradient>
    <clipPath id="clip-path-9">
      <rect class="cls-1" x="1976" y="90" width="1280" height="720"/>
    </clipPath>
    <clipPath id="clip-path-10">
      <rect class="cls-1" x="1816" width="1600" height="900"/>
    </clipPath>
    <linearGradient id="linear-gradient-2" x1="3830.87" y1="749.96" x2="8893.64" y2="749.96" gradientTransform="matrix(-1.08, 0, 0, 1, 7450.14, 0)" gradientUnits="userSpaceOnUse">
      <stop offset="0.03" stop-color="#8ad866"/>
      <stop offset="0.57" stop-color="#207263"/>
    </linearGradient>
  </defs>
  <g class="cls-2">
    <g class="cls-3">
      <rect class="cls-4" x="-2435.79" y="577.77" width="5584.35" height="2050"/>
      <g>
        <g>
          <g class="cls-5">
            <path class="cls-6" d="M1559.3,556l-1.11,5.92a1.93,1.93,0,0,0,1,2.06l5.53,2.76-6.12-1.07a2,2,0,0,0-2.13,1l-2.86,5.34,1.11-5.92a1.91,1.91,0,0,0-1-2l-5.52-2.77,6.12,1.07a2,2,0,0,0,2.12-1Z"/>
            <g class="cls-7">
              <path class="cls-6" d="M1509.73,777.68l-.29,10.41a3.33,3.33,0,0,0,2.34,3.25l10.19,3.33-10.76-.28a3.46,3.46,0,0,0-3.36,2.26l-3.45,9.86.3-10.4a3.34,3.34,0,0,0-2.34-3.25l-10.2-3.34,10.76.29a3.45,3.45,0,0,0,3.36-2.27Z"/>
            </g>
          </g>
          <g class="cls-8">
            <ellipse class="cls-6" cx="1584.87" cy="315.98" rx="1.97" ry="1.91"/>
            <path class="cls-6" d="M1572.59,645a2,2,0,1,1-2-1.9A1.94,1.94,0,0,1,1572.59,645Z"/>
            <path class="cls-6" d="M1582.44,843.74a2,2,0,1,1-2-1.91A2,2,0,0,1,1582.44,843.74Z"/>
            <ellipse class="cls-6" cx="1561.6" cy="893.6" rx="1.97" ry="1.91"/>
            <path class="cls-6" d="M1496.1,384a2,2,0,1,1-2-1.9A1.94,1.94,0,0,1,1496.1,384Z"/>
          </g>
        </g>
        <g>
          <g class="cls-5">
            <g class="cls-9">
              <path class="cls-6" d="M624.61,708.93l-.17,6a1.91,1.91,0,0,0,1.35,1.87l5.89,1.93-6.22-.16a2,2,0,0,0-1.94,1.3l-2,5.7.17-6a1.94,1.94,0,0,0-1.35-1.88l-5.89-1.93,6.21.17a2,2,0,0,0,1.94-1.31Z"/>
            </g>
            <path class="cls-6" d="M415,641.83l1.12,5.91a2,2,0,0,0,1.73,1.57l6.17.7-6.11,1.09a2,2,0,0,0-1.62,1.67l-.73,6-1.12-5.92a2,2,0,0,0-1.73-1.56l-6.18-.71,6.12-1.08a2,2,0,0,0,1.62-1.67Z"/>
            <g class="cls-10">
              <path class="cls-6" d="M849.53,459.81l.61,6a2,2,0,0,0,1.59,1.71l6.13,1.21-6.22.59a2,2,0,0,0-1.77,1.54l-1.25,5.93-.61-6a2,2,0,0,0-1.59-1.71l-6.13-1.21,6.22-.59a2,2,0,0,0,1.77-1.54Z"/>
            </g>
            <path class="cls-6" d="M1056,687.58l-.17,6a1.91,1.91,0,0,0,1.35,1.87l5.89,1.93-6.22-.16a2,2,0,0,0-1.94,1.3l-2,5.7.17-6a1.94,1.94,0,0,0-1.35-1.88l-5.9-1.93,6.22.17a2,2,0,0,0,1.94-1.31Z"/>
            <g class="cls-11">
              <path class="cls-6" d="M202.31,305.94l-.2,7.19a2.29,2.29,0,0,0,1.61,2.24l7.05,2.31-7.44-.19a2.38,2.38,0,0,0-2.32,1.56l-2.38,6.82.2-7.2a2.3,2.3,0,0,0-1.62-2.24l-7.05-2.31,7.44.2a2.38,2.38,0,0,0,2.32-1.57Z"/>
            </g>
            <path class="cls-6" d="M1280.81,504.39l-2.3,5.58a1.89,1.89,0,0,0,.6,2.21L1284,516l-5.78-2.23a2,2,0,0,0-2.29.58L1272,519l2.3-5.59a1.87,1.87,0,0,0-.6-2.21l-4.84-3.77,5.78,2.22a2,2,0,0,0,2.28-.58Z"/>
            <path class="cls-6" d="M1074.12,331.71l-1.08,8.77a2.81,2.81,0,0,0,1.72,2.91l8.35,3.58-9.07-1a2.93,2.93,0,0,0-3,1.66l-3.71,8.07,1.08-8.77a2.8,2.8,0,0,0-1.71-2.91l-8.35-3.58,9.07,1a2.93,2.93,0,0,0,3-1.66Z"/>
            <g class="cls-12">
              <path class="cls-6" d="M1416.91,871.55l.44,6.23a2,2,0,0,0,1.59,1.81l6.29,1.43-6.45.42a2.06,2.06,0,0,0-1.87,1.54l-1.47,6.08-.45-6.23a2,2,0,0,0-1.59-1.81l-6.28-1.43,6.44-.43a2,2,0,0,0,1.87-1.53Z"/>
            </g>
            <path class="cls-13" d="M1387.63,328.7l1.88,5.73a2,2,0,0,0,1.92,1.34l6.22,0-5.93,1.82a2,2,0,0,0-1.39,1.85l.06,6-1.89-5.73a2,2,0,0,0-1.91-1.35l-6.22.06,5.93-1.83a1.91,1.91,0,0,0,1.38-1.85Z"/>
            <path class="cls-6" d="M1095.9,888.52l5.28,12.69a4.55,4.55,0,0,0,4.58,2.73l14.09-1.14-13.12,5.1a4.35,4.35,0,0,0-2.82,4.42l1.18,13.63-5.28-12.69a4.55,4.55,0,0,0-4.58-2.73l-14.09,1.14,13.12-5.1a4.35,4.35,0,0,0,2.82-4.42Z"/>
            <g class="cls-14">
              <path class="cls-6" d="M177.81,658.29l1,5.93a2,2,0,0,0,1.69,1.59l6.17.81-6.14,1a2,2,0,0,0-1.65,1.64l-.83,6-1-5.93a2,2,0,0,0-1.7-1.59l-6.16-.81,6.14-1a2,2,0,0,0,1.65-1.64Z"/>
            </g>
            <path class="cls-6" d="M419.11,423.88l-.49,6a1.93,1.93,0,0,0,1.26,1.94l5.78,2.21-6.2-.47a2,2,0,0,0-2,1.21l-2.29,5.6.48-6a1.92,1.92,0,0,0-1.25-1.94l-5.79-2.21,6.2.47a2,2,0,0,0,2-1.21Z"/>
            <path class="cls-6" d="M1176.13,758.7l-.17,6a1.93,1.93,0,0,0,1.35,1.88l5.89,1.92-6.22-.16a2,2,0,0,0-1.94,1.31l-2,5.69.17-6a1.93,1.93,0,0,0-1.35-1.87l-5.89-1.93,6.21.16a2,2,0,0,0,1.94-1.3Z"/>
            <path class="cls-6" d="M1391.93,495.47l-5,6.43a2.51,2.51,0,0,0,0,3.06l4.88,6.5-6.64-4.82a2.74,2.74,0,0,0-3.16,0l-6.73,4.72,5-6.42a2.51,2.51,0,0,0,0-3.06l-4.88-6.5,6.65,4.82a2.74,2.74,0,0,0,3.16,0Z"/>
            <g class="cls-15">
              <path class="cls-6" d="M1084.53,588.81l1.81,6.83a2.33,2.33,0,0,0,2.15,1.7l7.28.34-7.06,1.75a2.27,2.27,0,0,0-1.75,2.08l-.36,7-1.81-6.83a2.31,2.31,0,0,0-2.14-1.7l-7.29-.33,7.07-1.76a2.26,2.26,0,0,0,1.75-2.07Z"/>
            </g>
            <path class="cls-6" d="M1187.38,633.2l-2.51,5.51a1.89,1.89,0,0,0,.52,2.23l4.7,3.93-5.69-2.42a2,2,0,0,0-2.31.5L1178,647.5l2.51-5.51a1.89,1.89,0,0,0-.52-2.23l-4.7-3.94,5.69,2.43a2,2,0,0,0,2.3-.5Z"/>
            <path class="cls-16" d="M794.33,777.84l-2.3,5.58a1.89,1.89,0,0,0,.6,2.21l4.85,3.78-5.78-2.23a2,2,0,0,0-2.29.58l-3.9,4.69,2.3-5.59a1.89,1.89,0,0,0-.6-2.21l-4.84-3.78,5.77,2.23a2,2,0,0,0,2.29-.58Z"/>
            <path class="cls-6" d="M362,765.69l1.55,5.83a2,2,0,0,0,1.83,1.44l6.21.29-6,1.5a1.93,1.93,0,0,0-1.5,1.77l-.3,6-1.54-5.82a2,2,0,0,0-1.83-1.45l-6.22-.28,6-1.5a1.93,1.93,0,0,0,1.49-1.77Z"/>
            <g class="cls-17">
              <path class="cls-18" d="M434.66,824.12l-.17,6a2,2,0,0,0,1.35,1.88l5.9,1.92-6.22-.16a2,2,0,0,0-1.94,1.31l-2,5.69.17-6a1.93,1.93,0,0,0-1.35-1.88L424.51,831l6.22.16a2,2,0,0,0,1.94-1.31Z"/>
            </g>
            <path class="cls-6" d="M186.51,804.33l-.17,6a1.91,1.91,0,0,0,1.35,1.87l5.89,1.93-6.22-.16a2,2,0,0,0-1.94,1.31l-2,5.69.17-6a1.94,1.94,0,0,0-1.35-1.88l-5.89-1.92,6.21.16a2,2,0,0,0,1.94-1.31Z"/>
            <g class="cls-19">
              <path class="cls-6" d="M771.49,865.63l1.45,8a2.66,2.66,0,0,0,2.31,2.14l8.35,1-8.29,1.4a2.64,2.64,0,0,0-2.21,2.24L772,888.52l-1.45-8a2.65,2.65,0,0,0-2.31-2.13l-8.35-1,8.29-1.4a2.64,2.64,0,0,0,2.21-2.24Z"/>
            </g>
            <path class="cls-6" d="M1151.64,485l1.41,5.86a2,2,0,0,0,1.8,1.49l6.2.42-6,1.36a1.94,1.94,0,0,0-1.54,1.74l-.44,6-1.41-5.86a2,2,0,0,0-1.8-1.48l-6.2-.43,6.06-1.36a1.93,1.93,0,0,0,1.53-1.74Z"/>
            <path class="cls-6" d="M1440.84,281.93l-1.73,5.78a1.91,1.91,0,0,0,.82,2.15l5.2,3.29-6-1.67a2,2,0,0,0-2.21.8l-3.41,5,1.72-5.78a1.9,1.9,0,0,0-.82-2.15l-5.2-3.29,6,1.67a2,2,0,0,0,2.21-.8Z"/>
          </g>
          <g class="cls-8">
            <path class="cls-6" d="M37.07,346.09a2,2,0,1,1-2-1.91A1.94,1.94,0,0,1,37.07,346.09Z"/>
            <path class="cls-6" d="M93.68,472.92a2,2,0,1,1-2-1.9A1.94,1.94,0,0,1,93.68,472.92Z"/>
            <path class="cls-16" d="M7.92,554.75a2,2,0,1,1-2-1.91A2,2,0,0,1,7.92,554.75Z"/>
            <path class="cls-21" d="M114.7,751.53a2,2,0,1,1-2-1.91A1.95,1.95,0,0,1,114.7,751.53Z"/>
            <path class="cls-6" d="M149.12,617a2,2,0,1,1-2-1.91A1.94,1.94,0,0,1,149.12,617Z"/>
            <path class="cls-6" d="M309.09,594.34a2,2,0,1,1-2-1.91A1.94,1.94,0,0,1,309.09,594.34Z"/>
            <path class="cls-6" d="M421.34,508.41a2,2,0,1,1-2-1.9A1.94,1.94,0,0,1,421.34,508.41Z"/>
            <path class="cls-6" d="M382.45,403a2,2,0,1,1-2-1.91A1.94,1.94,0,0,1,382.45,403Z"/>
            <path class="cls-6" d="M510.26,644a2,2,0,1,1-2-1.91A1.94,1.94,0,0,1,510.26,644Z"/>
            <path class="cls-6" d="M567,556.79a2,2,0,1,1-2-1.91A1.94,1.94,0,0,1,567,556.79Z"/>
            <path class="cls-21" d="M544.72,412.63a2,2,0,1,1-2-1.91A1.94,1.94,0,0,1,544.72,412.63Z"/>
            <path class="cls-6" d="M736.61,347.1a2,2,0,1,1-2-1.9A1.94,1.94,0,0,1,736.61,347.1Z"/>
            <path class="cls-6" d="M947.76,454.7a2,2,0,1,1-2-1.91A1.93,1.93,0,0,1,947.76,454.7Z"/>
            <path class="cls-6" d="M761.25,587a2,2,0,1,1-2-1.9A1.94,1.94,0,0,1,761.25,587Z"/>
            <path class="cls-6" d="M907.81,645.14a2,2,0,1,1-2-1.91A1.94,1.94,0,0,1,907.81,645.14Z"/>
            <path class="cls-6" d="M1011.35,651.58a2,2,0,1,1-2-1.91A1.94,1.94,0,0,1,1011.35,651.58Z"/>
            <path class="cls-6" d="M1000.27,492.53a2,2,0,1,1-2-1.91A1.94,1.94,0,0,1,1000.27,492.53Z"/>
            <path class="cls-6" d="M1102.24,365.47a2,2,0,1,1-2-1.91A1.95,1.95,0,0,1,1102.24,365.47Z"/>
            <path class="cls-6" d="M1228.9,390.21a2,2,0,1,1-2-1.91A2,2,0,0,1,1228.9,390.21Z"/>
            <path class="cls-6" d="M1262.39,454.93a2,2,0,1,1-2-1.9A1.94,1.94,0,0,1,1262.39,454.93Z"/>
            <path class="cls-6" d="M1266.72,558.11a2,2,0,1,1-2-1.91A1.94,1.94,0,0,1,1266.72,558.11Z"/>
            <path class="cls-6" d="M1328.06,609.75a2,2,0,1,1-2-1.91A1.94,1.94,0,0,1,1328.06,609.75Z"/>
            <path class="cls-21" d="M1222.37,765.57a2,2,0,1,1-2-1.91A1.94,1.94,0,0,1,1222.37,765.57Z"/>
            <path class="cls-6" d="M1096.84,792.53a2,2,0,1,1-2-1.91A2,2,0,0,1,1096.84,792.53Z"/>
            <path class="cls-6" d="M694.79,890.37a2,2,0,1,1-2-1.91A1.94,1.94,0,0,1,694.79,890.37Z"/>
            <ellipse class="cls-6" cx="636.25" cy="785.92" rx="1.97" ry="1.91"/>
            <path class="cls-6" d="M546.92,769.76a2,2,0,1,1-2-1.9A1.94,1.94,0,0,1,546.92,769.76Z"/>
            <path class="cls-6" d="M520.41,890.38a2,2,0,1,1-2-1.91A1.93,1.93,0,0,1,520.41,890.38Z"/>
            <path class="cls-6" d="M404.88,901.05a2,2,0,1,1-2-1.9A1.94,1.94,0,0,1,404.88,901.05Z"/>
            <path class="cls-6" d="M330.35,850.32a2,2,0,1,1-2-1.91A1.94,1.94,0,0,1,330.35,850.32Z"/>
            <path class="cls-6" d="M278.75,855.83a2,2,0,1,1-2-1.91A1.94,1.94,0,0,1,278.75,855.83Z"/>
            <path class="cls-6" d="M910.16,878.51a2,2,0,1,1-2-1.91A1.94,1.94,0,0,1,910.16,878.51Z"/>
            <path class="cls-6" d="M971.25,787.11a2,2,0,1,1-2-1.91A1.94,1.94,0,0,1,971.25,787.11Z"/>
            <path class="cls-6" d="M1421.52,682.79a2,2,0,1,1-2-1.9A1.94,1.94,0,0,1,1421.52,682.79Z"/>
            <path class="cls-21" d="M1303.39,287.08a2,2,0,1,1-2-1.91A1.94,1.94,0,0,1,1303.39,287.08Z"/>
            <path class="cls-6" d="M322.41,319.11a2,2,0,1,1-2-1.91A1.94,1.94,0,0,1,322.41,319.11Z"/>
            <path class="cls-6" d="M1408,405.49a2,2,0,1,1-2-1.91A1.94,1.94,0,0,1,1408,405.49Z"/>
            <path class="cls-6" d="M893.49,325.56a2,2,0,1,1-2-1.91A1.94,1.94,0,0,1,893.49,325.56Z"/>
            <path class="cls-16" d="M813.41,381.67a2,2,0,1,1-2-1.91A2,2,0,0,1,813.41,381.67Z"/>
            <ellipse class="cls-16" cx="310.49" cy="677.36" rx="1.97" ry="1.91"/>
            <path class="cls-16" d="M1368.06,762.46a2,2,0,1,1-2-1.91A1.94,1.94,0,0,1,1368.06,762.46Z"/>
          </g>
        </g>
      </g>
    </g>
    <g class="cls-22">
      <rect class="cls-4" x="1486.61" y="-1412.54" width="5400" height="2050"/>
    </g>
  </g>
  <g class="cls-23">
    <g class="cls-24">
      <rect class="cls-25" x="-4727.59" y="-1904.08" width="13191.7" height="5525.81"/>
    </g>
  </g>
  <g class="cls-26">
    <g class="cls-27">
      <g class="cls-28">
        <path class="cls-29" d="M-1676.15,837.93c-21.52-.09,54-54.42-32-92.34-4.77-1.15-7-6.69-3.53-11.61,4.75-6.7,48-26.53,55.28-29.17,56.91-20.8,48.08-30.42,109.62-33.28a113.7,113.7,0,0,1-38.62-16.87,7.3,7.3,0,0,1-3.42-6c.09-4.23,4.25-5.55,7.94-6.43a235.3,235.3,0,0,1,54.47-6.41c-6.08-7.19-24.14-6.79-22.48-15.43.58-3,3.2-5.31,6.49-6.09,67.25-16.12,136.92-22.4,206.19-28.89,2.69-.26,5-2,5.27-4.42.36-2.77-2.3-4.07-4.66-5.08l-34.12-14.55a6.92,6.92,0,0,1-4.29-4.88c-.86-4.62,4.53-6.64,9-7.69q26.67-6.32,53.88-10.75l-16.91-9.19a815.89,815.89,0,0,1,113.45-7.69c28.57.07,41,1.42,67.91-7.42,22.77-7.5,13.43-8.41,37.69-7.87,65.43,1.46,180.43,3.15,245.86,4.61,6.28.14,10,2.44,14.9,5.88s2.38,6.25-3,9C-795.47,529.11-729,539-673.87,538c39.84-.75,80.39,15.32,142.62,30.79,18.62,4.62-31.56,16.93-35.09,21,78.8.8,122.93-8.78,200.71,2.37,7,1,66.15,15.5,77.58,18.64,25.33,12.44-22.4,18.72-29.52,18.58,31.1,4,142.25,17.65,114.09,23.13-49.64,9.66,70,3.42,120.8,23.82,3.12,1.26,6.6,4.63,7.56,7.53,3,9-8.51,14.24-17.84,16.6-43.34,11-119.9,35.4-164.61,40.7a.32.32,0,1,0,0,.64C-168.46,729-28,769.15-28,769.15,93.65,794,32.85,884.62-8,898.91-8,898.91-1639.88,838.07-1676.15,837.93Z"/>
      </g>
    </g>
  </g>
  <g class="cls-30">
    <g>
      <g class="cls-28">
        <path class="cls-29" d="M108.91,868.33c-21.52-.09,54-54.42-32-92.34-4.77-1.15-7-6.69-3.52-11.61,4.74-6.7,48-26.52,55.27-29.17,56.92-20.8,48.08-30.41,109.62-33.27a113.78,113.78,0,0,1-38.61-16.88,7.28,7.28,0,0,1-3.43-6c.1-4.23,4.26-5.55,8-6.43a234.75,234.75,0,0,1,54.47-6.4c-6.09-7.19-24.15-6.8-22.48-15.44.57-3,3.2-5.3,6.49-6.09,67.25-16.12,136.92-22.4,206.19-28.89,2.69-.25,5-2,5.27-4.41.35-2.78-2.3-4.08-4.67-5.09l-34.11-14.54a7,7,0,0,1-4.3-4.88c-.86-4.63,4.54-6.65,9-7.7q26.69-6.31,53.88-10.74L457,559.24a814.5,814.5,0,0,1,113.46-7.69c28.56.06,41,1.41,67.91-7.43,22.77-7.49,13.43-8.4,37.68-7.86,65.43,1.45,180.44,3.14,245.86,4.6,6.29.14,10,2.44,14.91,5.89s2.38,6.24-3,9c55.83,3.73,122.27,13.61,177.44,12.57,39.83-.75,80.38,15.32,142.62,30.79,18.61,4.63-31.57,16.94-35.1,21,78.81.8,122.93-8.78,200.72,2.37,7,1,66.15,15.51,77.58,18.64,25.33,12.44-22.4,18.73-29.53,18.59,31.1,4,142.26,17.64,114.1,23.12-49.65,9.66,70,3.43,120.79,23.83,3.12,1.25,6.61,4.62,7.57,7.52,3,9-8.52,14.24-17.84,16.61-43.35,11-119.91,35.4-164.61,40.69a.32.32,0,1,0,0,.64C1616.6,759.36,1757,799.55,1757,799.55c121.68,24.82,60.87,115.47,20,129.76C1777.06,929.31,145.17,868.47,108.91,868.33Z"/>
      </g>
      <g class="cls-31">
        <path class="cls-29" d="M201.65,847c-1.25,0,8,6.29,6.71,6.28-33-.14-43.87-7.06-54.29-12.88-17.06-9.53-25.72-40.29,35.54-44.32-20.05-6-40.57-12.29-56.77-25.5a13.17,13.17,0,0,1-4.78-8c-1.32-8.08,6.22-12,12.79-14.67a507.29,507.29,0,0,1,163-35.84,98.69,98.69,0,0,1-35.08-16.87,7.47,7.47,0,0,1-3.11-6c.08-4.22,3.86-5.54,7.22-6.42a195.1,195.1,0,0,1,49.48-6.41c-5.53-7.19-21.94-6.79-20.42-15.43a7.87,7.87,0,0,1,5.89-6.09c61.09-16.12,124.38-22.4,187.3-28.89a5.24,5.24,0,0,0,4.78-4.42c.33-2.77-2.09-4.07-4.23-5.08l-31-14.55a6.72,6.72,0,0,1-3.9-4.88c-.78-4.62,4.12-6.64,8.16-7.7q24.24-6.3,48.95-10.74l-15.36-9.19a674.29,674.29,0,0,1,103.05-7.69c25.95.07,37.29,1.42,61.69-7.42,20.69-7.5,12.2-8.41,34.24-7.87,59.43,1.46,163.9,3.15,223.33,4.61,5.71.14,9.07,2.44,13.54,5.88s2.16,6.25-2.76,9c50.72,3.73,111.07,13.61,161.18,12.57,36.18-.75,73,15.32,129.55,30.79,16.91,4.62-28.67,16.93-31.88,21,71.59.8,111.67-8.78,182.33,2.36,6.39,1,60.09,15.51,70.47,18.65,23,12.44-20.35,18.72-26.82,18.58,28.25,4,129.22,17.65,103.64,23.13-45.1,9.66,63.6,3.42,109.73,23.82a14,14,0,0,1,6.87,7.53c2.71,9-7.73,14.24-16.2,16.6-39.38,11-108.92,35.4-149.53,40.7a.32.32,0,0,0,0,.64c81-12.77,208.51,27.42,208.51,27.42,123.71,28.76,69.15,117.68,36.18,119.58C1719.65,929.31,202,847,201.65,847Z"/>
      </g>
      <path class="cls-32" d="M206.13,851.63c1.13-.5-2.48,0-3.72,0-32.54-.14-68.69-46.87-8.17-50.91-19.81-6-40.08-12.29-56.08-25.5a13.18,13.18,0,0,1-4.72-8c-1.31-8.08,6.14-12,12.64-14.67a495.58,495.58,0,0,1,161-35.84,97.26,97.26,0,0,1-34.65-16.88,7.54,7.54,0,0,1-3.07-6c.09-4.23,3.82-5.55,7.13-6.43A190.54,190.54,0,0,1,325.35,681c-5.46-7.19-21.67-6.79-20.17-15.44a7.86,7.86,0,0,1,5.82-6.09c60.34-16.12,122.85-22.4,185-28.89a5.19,5.19,0,0,0,4.72-4.42c.33-2.77-2.06-4.07-4.18-5.08l-30.61-14.55a6.75,6.75,0,0,1-3.85-4.88c-.77-4.62,4.07-6.64,8.06-7.7q23.94-6.31,48.35-10.74L503.33,574a656.78,656.78,0,0,1,101.79-7.69c25.63.06,48.37-2.37,72.48-11.21,20.43-7.5,38.87-7.42,60.64-6.88l176.12,4.37c5.63.14,11.71.43,16.13,3.87s5.5,11.29.63,14.09c50.1,3.73,109.72,13.61,159.21,12.56,35.75-.75,72.13,15.33,128,30.8,16.7,4.62-28.32,16.94-31.49,21,70.71.8,110.3-8.78,180.1,2.37,6.31,1,59.36,15.51,69.61,18.65,22.73,12.43-20.1,18.72-26.49,18.58,27.9,4,127.64,17.65,102.37,23.13-44.54,9.66,62.82,3.43,108.39,23.83a13.9,13.9,0,0,1,6.78,7.52c2.68,9-7.64,14.25-16,16.61-38.89,11-107.59,35.41-147.7,40.7a.32.32,0,0,0,0,.64c80-12.77,206,27.43,206,27.43,22,.57,142.53,59.45-13.24,112.22C1567.72,966-104.19,989.55,206.13,851.63Z"/>
    </g>
    <g>
      <path class="cls-33" d="M390.89,844.3l0,0Z"/>
      <path class="cls-33" d="M17.59,780.36c3.17-5.78,2.22-5,0,0Z"/>
      <path class="cls-33" d="M543.81,899.17c-6-10.61-49.1-19.12-49.1-19.12,5.73-14.67,5.56-41.06,5.56-41.06-6.46,25.53-18.54,31.8-18.54,31.8,1.44-32.75,4.92-36.35,4.92-36.35-19.63,17.75-21.11,28.62-21.11,28.62-6.17-20.79,6-44,6-44-5.15,4.86-14.31,33.79-14.31,33.79.41-8.8-8.42-59.53-8.42-59.53,2.07,12.38-5.22,77.23-6.11,73.83s-2.09-29.89-3.09-17S434.72,886,434.72,886c-3.54-7-1.61-54.49-1.61-54.49-5.49,35-24.5,37.06-24.5,37.06-1.21-29.78,6.22-45.89,6.22-45.89-9.34,19.17-29.8,43-29.8,43,3.28-19,5.57-21.16,5.86-21.36-15.42,9-19.1,19.76-19.1,19.76,7.52-22.14,7.13-52.64,7.13-52.64-1.73,13.27-15.25,34.11-17.74,40.45-2.2-24.16,10.66-49.26,10.66-49.26-12.21,23.76-36.2,57.07-36.2,57.07-5.76-12.77,13.75-52.91,13.75-52.91-20.16,24-27.95,69.74-20.93,34.54,2.55-12.8-.07-11-.07-11-4.12,8.28-10,18.54-10,18.54l-1.91-13.55c-.15-15.53,25.68-42.64,25.68-42.64-17.29,3.58-46,49.1-46,49.1-2.07-6.84,8.82-20.88,8.82-20.88-6,4.27-15.18,17.19-19.76,22.27.2-15.29,21.3-33.61,21.3-33.61-18.86,6.71-29.37,34.31-33.79,38.16-2.51,2.19,5.95-25.62,5.95-25.62-.78,1.34-1.82,3-3,4.83A68.34,68.34,0,0,1,279,818.8c-2,1.92-4.71,7.61-7.19,13.79-2.64,3.9-5.46,8-7.76,11.22-.41-3.68-1-8.1-1.69-12.78,10.6-37,24.59-56.24-1.51-10-2.22-14.33-4.59-27.93-4.59-27.93,1,5.71-.08,22.59-1.56,38.78-5.39,9.45-9.67,16.87-9.67,16.87-5.1-6.1,5-32.31,5-32.31-3.5,3.89-9.82,15.32-12.47,20.44-6.2-20.51,25.37-66,25.37-66-30.1,22.75-40.76,67.43-40.76,67.43a35.86,35.86,0,0,1-2.2-9.09c2.17-7.74,4-9.5-.17-2-1.06-18,10.15-34,10.15-34-11.2,6.78-22.77,36.75-22.77,36.75-12.27-35.5-23.91-29.23-18.75-28.64s6.38,41.41,6.38,41.41l-.67,4.09C182.3,855,179.3,863.78,179.3,863.78c7.53-22.13,7.13-52.63,7.13-52.63-1.73,13.27-15.25,34.09-17.74,40.45-2.2-24.16,10.67-49.27,10.67-49.27-9.42,18.34-25.86,42.36-32.87,52.37-2.57-.57-4.14-.88-4.14-.88,2.57-6.56,4-15.46,4.69-23.3a241.2,241.2,0,0,1,9.86-24c-11.54,13.75-8.9,19.6-9,6.27-3.13,12.39-7.59,20.24-11.35,25,1.5-9.26-.66-7.82-.66-7.82-2,4-4.45,8.58-6.41,12.15.72-14.76,1.87-23.18,2.86-27.94a174.29,174.29,0,0,1,17.32-21.86c-11.52,2.39-28.14,23.42-37.94,37.17a51.48,51.48,0,0,1-.25-7.63c1.11-1.53,1.47-1.76,0-.59a66.22,66.22,0,0,1,1.6-11.27c1.1-1,1.2-.93.12-.5a78.27,78.27,0,0,1,5.92-16.68c-2.5,2.36-5.94,10.37-8.83,18a36.64,36.64,0,0,0-6.43,4.37c-2.21-17.82-7.48-48.11-7.48-48.11,1.43,8.57-1.62,42.3-3.93,61.11-1.09,1.58-2.12,3.16-3.09,4.69-2-22.15-1.44-11.83-4,6.57-2.06,3.51-3.67,6.28-4.89,7.57-.06-1.36-.12-2.77-.17-4.24,5.21-23.77,10-27-.15-11.8,0-50.56,4.3-14.23-11.34,3.43,10.55-40.53,31.8-69.89-12.64,7.58-.93-23.82,3.54-38.84,5.43-43.8C60,801.67,55.24,810.1,45,823.92c4-22.35,25.53-53.38,25.53-53.38-17.63,13.33-28.6,34.19-34.65,49.18a53.36,53.36,0,0,0-8.5,6.83c-.9-17.85,10.18-33.72,10.18-33.72-4.18,2.53-8.41,8.28-12.07,14.51a218.79,218.79,0,0,0,1.11-22.14c-1.47,11.31-12.16,29.42-15.28,35.36q-1.29-3-2.54-5.47a106.32,106.32,0,0,1,8.85-34.73c-2.37,4.3-7,12.25-15.14,24.85-6.19-7.34-9.75-4.65-6.45-4.27,1.5.17,2.66,3.74,3.56,8.72C-9.2,823-16.71,833.45-16.71,833.45-22.47,820.68-3,780.54-3,780.54c-20.16,24-27.94,69.75-20.92,34.54,2.55-12.8-.08-11-.08-11-4.11,8.28-10,18.54-10,18.54L-35.88,809C-36,793.5-10.2,766.39-10.2,766.39c-17.28,3.58-46,49.1-46,49.1-2.07-6.83,8.82-20.88,8.82-20.88-3.8,2.69-9.73,9.79-14.11,15.38-1.15,6.93-2.38,13.85-3.75,20.77-1.22,6.21-2.51,12.42-3.67,18.65-1.65,18.12-2.29,36.32-2.45,54.54,12.28.06,30.87,3.68,61.14,14.95l-1,6.09s46.15,14.58,64.11,15.29,14.74-26.38,95.28,4,106.4,5.42,105.22,3.08c-.89-1.75,10.57-10.65,40.23-16.26,11.39,1.68,26.48,5.69,47,13.45C421.17,975,447,950,445.84,947.66s19.59-17.38,76.19-20.4S549.87,909.78,543.81,899.17Zm-439-72.54a58.46,58.46,0,0,0-.48-7.46c1.72-2,3.41-3.85,4.87-5.36C106.7,820.73,104.83,826.63,104.83,826.63Z"/>
    </g>
    <g>
      <path class="cls-34" d="M89.58,814.48c-14,17.29-29.47,41.79-42.56,60.12a543.39,543.39,0,0,1-34.81,44.62l.58.85C40.6,904,59.88,876.48,75.92,846.65a279.53,279.53,0,0,0,14.41-31.52l-.75-.65Z"/>
      <path class="cls-34" d="M36.27,791.11c-29.2,12-48,62.63-29.28,111.52a83.84,83.84,0,0,0,9,17l1.28.07A86.61,86.61,0,0,1,12.55,900c-4.12-36.13,7.8-68.55,18.73-94.27,2-4.54,4-9,6.3-13.26l-1.31-1.32Z"/>
      <g>
        <path class="cls-34" d="M57.05,814.24c-12.48,19.17-19.61,42.93-27.49,66-3.79,11.26-7.46,22.93-12.43,33.17-1.06,2.12-2.29,4-3.52,6l.71,1.12c20.11-9.25,31.72-50,37.74-74.87,2.38-10,4.43-20.19,6-30.77l-1-.7Z"/>
        <path class="cls-34" d="M22.81,835.55c-4.43,12.27-5.25,27.65-5.84,42.39-.26,7.14-.33,14.26-.69,21-.51,7.11-.64,13.6-4.28,18.53l.55,1.17c16.48-2,15.19-39.55,14-58.28-.58-8-1.46-16.15-2.76-24.47l-1-.39Z"/>
        <path class="cls-34" d="M13.55,917.93c-4.77-18.4-10-35.17-13.43-52.45C-3.5,848-3.9,833.93-4,817.24l-.94-.92c-10.73,17.16-8.08,45.43,3.72,74a197.61,197.61,0,0,0,14,27.94l.74-.3Z"/>
      </g>
      <path class="cls-34" d="M-8.84,784.84C-28.31,800.17-36.67,850-5.93,895.26A96.87,96.87,0,0,0,11.8,914.8l.43-.45a108,108,0,0,1-14-19.08c-17.79-31.65-15.65-61.79-12.63-83.3A162,162,0,0,1-7.88,785.7l-1-.86Z"/>
    </g>
    <g>
      <path class="cls-34" d="M39.45,822.06c-14,17.29-29.47,41.79-42.56,60.12A543.39,543.39,0,0,1-37.92,926.8l.58.85c27.81-16.07,47.09-43.6,63.13-73.43A277.92,277.92,0,0,0,40.2,822.7l-.75-.64Z"/>
      <path class="cls-34" d="M6.91,821.81c-12.47,19.17-19.6,42.93-27.48,66C-24.36,899.11-28,910.78-33,921c-1,2-2.1,3.71-3.23,5.55a.89.89,0,0,0,0,.93h0a.87.87,0,0,0,1.12.33c19.68-9.87,31.09-50,37-74.53,2.35-9.81,4.37-19.85,5.92-30.23a.9.9,0,0,0-.37-.86l-.56-.39Z"/>
    </g>
    <g>
      <path class="cls-35" d="M211.42,869.47c-8,15.17-34.59,33.23-57.61,32.95a29.16,29.16,0,0,1-5.09-.58l0-.49A49.38,49.38,0,0,0,158,899.7c17.13-4.78,33.46-15.81,46.3-25.34,2.27-1.7,4.51-3.42,6.66-5.2l.51.31Z"/>
      <g>
        <path class="cls-35" d="M162.39,823.65c-5.23,13.36-13.55,30-19.45,43.3-5.11,11.21-9.63,22.41-13.77,33.83h-.52c1.77-20.2,10.72-39.91,21.43-58.74,3.62-6.28,7.51-12.49,11.85-18.55l.46.16Z"/>
        <path class="cls-35" d="M184.5,843.45c.43,19.51-19.5,47-46.43,54.28a36,36,0,0,1-9.87,1.17l-.29-.64a45.37,45.37,0,0,0,10.26-4.38c17.88-10.45,30.67-28,40.51-42.72,1.72-2.62,3.39-5.26,4.93-7.93l.89.22Z"/>
        <g>
          <path class="cls-35" d="M169.28,840.63c-6.43,13.23-16.14,25.26-25.38,37.46-4.51,5.92-9.25,11.92-13,18.1-.78,1.29-1.41,2.59-2.1,3.94l-.68,0c.17-13.77,17-34.1,27.41-45.92,4.2-4.73,8.59-9.37,13.24-13.88l.54.28Z"/>
          <path class="cls-35" d="M166.38,866c-4.86,6.61-11.94,12.4-18.76,17.86-3.31,2.63-6.65,5.15-9.77,7.71-3.24,2.75-6.27,5.08-7.84,8.71l-.66.12c-2.48-9.35,15.46-21.77,24.53-27.69,3.9-2.5,7.91-4.87,12.1-7.1l.4.39Z"/>
          <path class="cls-35" d="M129.5,899.63c9.66-3.92,18.66-7,27.5-11.26s15.7-8.9,23.58-14.69l.63.17c-5.85,11.61-19.72,20.09-35.62,23.86a86.46,86.46,0,0,1-16.08,2.41v-.49Z"/>
        </g>
        <path class="cls-35" d="M196.86,864.93c-3.17,15.55-24.91,37.33-52.63,37a37.52,37.52,0,0,1-12.89-2.47l.12-.39a43.14,43.14,0,0,0,11.9.66c18.61-1.71,32.36-13.35,41.87-22.44a121.22,121.22,0,0,0,11-12.57l.61.21Z"/>
      </g>
    </g>
    <g>
      <path class="cls-35" d="M71.92,856.4c-.55,16,13.64,38.49,33.84,42.92a24.78,24.78,0,0,0,4.72.49l.27-.46a32.08,32.08,0,0,1-7.25-3.45c-12.55-8-21.3-21.78-27.76-33.41-1.14-2.06-2.23-4.16-3.22-6.27l-.6.18Z"/>
      <g>
        <path class="cls-35" d="M137.39,823.07c-2.07,13.7-3.11,31.18-4.55,44.93-1.11,11.64-2.74,23.15-4.8,34.8l.46.1C137,883.44,139,863,139,843a179.62,179.62,0,0,0-1.11-20l-.48.06Z"/>
        <path class="cls-35" d="M108.29,837.29c-10.05,18.37-6.35,48.46,13.51,60.81a25.49,25.49,0,0,0,8,3.12l.58-.55a27.56,27.56,0,0,1-6.77-6.23c-10.39-13.53-12.81-32.76-14.08-48.68-.2-2.83-.34-5.67-.36-8.5l-.89,0Z"/>
        <g>
          <path class="cls-35" d="M123,837.72c-1,13.83,1.52,27.19,3.52,40.61,1,6.52,2.14,13.16,2.37,19.78,0,1.38-.06,2.74-.13,4.16l.58.16c6.69-13.07,2.15-35.72-1.08-49-1.31-5.33-2.83-10.62-4.65-15.83l-.61.15Z"/>
          <path class="cls-35" d="M112.88,862.33c1,7.24,4.24,14.17,7.47,20.72,1.58,3.16,3.24,6.23,4.69,9.29,1.46,3.25,2.94,6.08,2.5,9.84l.52.24c6.8-8.34-2.66-23.75-7.62-31.2a104.9,104.9,0,0,0-7-9.18l-.53.29Z"/>
          <path class="cls-35" d="M128.32,901.64c-6.47-5.67-12.77-10.43-18.37-16.26s-9.26-11.62-13.25-18.7l-.63,0c-.67,12.18,7.2,23,19.19,29.84a59.77,59.77,0,0,0,12.81,5.56l.25-.47Z"/>
        </g>
        <path class="cls-35" d="M86.87,855.08c-5,15.36,3.16,40.39,27.47,45.74a34.91,34.91,0,0,0,12.47.29l.08-.4a34.84,34.84,0,0,1-10.69-1.8c-15.37-5.41-21.57-19.23-25.34-29.77A85.09,85.09,0,0,1,87.5,855l-.63.07Z"/>
      </g>
    </g>
  </g>
  <rect class="cls-1" x="160" y="90" width="1280" height="720"/>
  <g class="cls-36">
    <g class="cls-37">
      <rect class="cls-1" x="-3651.9" width="7096.47" height="900"/>
      <path class="cls-38" d="M1252.32,732c3.17-7.38,15.47-.43,16.93,1.16,3.35,3.67,6.11,11.41,9.85.38a26.85,26.85,0,0,0-1.6-19.75c3.06,2.79,12.37,11.14,15.3,21.41,2.14-3.29,3.5-8.61,3.55-13.69,7,5.3,31.43,42.14,31.62,8.6,1.63,7.61,6.67,12.42,9.48,12.8,5.77.8,5.77-7.51,7.88-14.39,2.21,2.7,5.55,5.88,5.22,11.36,5.38-.84,6.68-19.92,2-25.32,2.43.94,13.13,10.07,14,18.46,1.39-5.11,5.21-12.93,8.52-14.22-3.27,15.33,2.5,19.13,8.07,7.62,4.18,4.64,3.72,10.56,9.23,7.12,3.58-2.23,7.93-10.25,7.39-18,2.21,10.19,4.13,25.75,11.83,15,.2,2.9,1.94,6.67,3.86,7.69,2.33,1.23,5-.92,6.68-3.61,4-6.29,5.85-20,7.33-28.68-.82,11.68-2.69,23.93,5,30.7,7,6.14,8.75-3,12.1-12.21-2.71,14.69,9.17-4.52,10.83-5.27-1.61,6.87,10,7.48,12.55,6.42,1-8.38,4.73-13.24,7.82-19.57.17,4.57-2.94,18.34-.16,21.63,2.41,2.86,5.14-5.46,6.54-7.9,2.15,6.48,5.11,6.72,9.69,3.29-.33,3,5.37,4.07,5.6,3.86,2.37-2.16,7.29-1.66,9.09-4.3,2.52-3.67,2.54-9.8,1.6-15,2.12,2.7,7.94,12.11,9.92,14.58,4.94-11.15,7.38-.5,12.47,3.19,6.27,4.55,9.78-4.78,8.69-18,2.45,12.3,13.31,32.12,16.47,14.51,2.73,7.16,2.22,12.09,7,3.78,3.07-5.27,4.77-13,8.52-17.94.1,3.95-1.15,14.3,1.45,16.55s5.73-5.21,5.62-9.56c2.23,6.47,5.51,14.12,8.23,3.44.52,10.85,6.5,12,8.79,3.33.52,6.35,3.25,8.41,5.52,4.29,2-3.7.81-13.71.22-18.91,2.45,11.17,6.45,24.57,11.87,15.49.43-.7,4.75-5.87,2.6-19,5.75,6.41,4.28,14.63,12.37,8.83,3-2.14,5.54-6.35,7.26-9.93.74,3.08,1.37,10,3.44,12.08,2.56,2.65,6.63-2.11,7.46-2,2.68.41,4,4.11,7.13,4.51,2.26.27,7.59,1.21,9.45-.61s2.22-8.78,2.71-11.94c.12,3.36,1.34,13.19,5.1,12.58,1.57-.25,2.87-4.07,5.54-4.4-.77.27-.13,5.82,1.72,5.79,4.86-.08,8.71-7.21,10.25-14.74,2.61,9.87,4.61,26.8,10.1,32.64,3.25-5.62,3.22-17.93,4.51-25.1,4.33,12.81,10.34,20.43,10.56-1.65.73,5.3,1.17,7.55,3,9.34,1.44,1.39,1.24-17,1.52-18.55,2.43,17.43,16,34.87,20.65,10.9-.11,6.41-1.93,21.12,2.72,22.53s11.54-13.82,12.83-21c.82,10.76.79,12.69,6,9.78,3.75-2.08,6.47-7.34,10.29-9.08.62,1.9,9.2,22.17,9,22.31,2.38-1.49,4.23-5.3,4.85-9.47,3.65,3.34,6.54,10.62,9.15,16.22,2.94-2.41,4.29-8.62,6.4-10.77,1,7.24,26.39,13.51,18.92-.95,5.8,5.46,11.92,10.27,18.46,5.55-.12-1.43,0-2.85,0-4.26,0,.88,9.28,12.8,10.25,13.09,4,1.22,6.67-4.7,6.56-11.24,1.53,7,4.19,16,8.82,10.32,3-3.72,2.27-11.86,2.58-17.27,2.25,1.77,8.93,19.64,13.13,17.61,4.74-2.3,5.42-32,9.53-19.28,5.57-3.41,7.84-16.87,11.89-20-2.91,4.19,2.57,22.71,4.92,25.8,3.51,4.63,9.5,11.77,13.4,7s4.55-16.86,4.89-25.78c1,8.36,3,14.27,5.6,18.41,1.65,2.55,4.7-8.69,4.92-10.13,3.07,2.72,3.64-4.45,3.8-8.73,3.29,9,5.82,24.21,13.54,21.41,8-2.89,7.63-17.78,8.37-31.39.55,8.84.8,21.82,4,28.88,3.7,8.19,9.75,2,10.11-9.64.38,4.24,1.1,13.94,4.14,15.21,3.33,1.38,4.39-7.44,5.93-11.26,1.28,4.67,2.89,13,6.84,12.24,7.22-1.37,4.25-23.41,10.74-8.47,3.63,8.32,4.2,11.06,9.41,2.65,4.24-6.83,7.81-17.8,12.64-22.92.49,6.1-4.47,20.86,1.59,23.59,3.07,1.37,6.46-7.15,8.59-10.24.45,8.68-.1,12.53,5,10.19,1.4-.65,4.32-6.24,5.54-6,6,1.22,7.65,21.58,14.57,23.38,3.49-6.85,3-22.4,6-26.28-3.32,9.41,14.81,15.87,20.39,8.45,2.69-3.55,3.58-11.12,3.87-16.56,5.55,9.24,3.73,20.94,6,31.9,4.23.46,5.93-11,7.83-16.23.63,7.55,5,10.52,7.24,3.14,3.47,14,9.62-.28,9.47-10.11,4.53,26.92,15-4.6,16.63-17.39-.29,13.58,3.25,21.36,6.79,26.78,1.17-4.43,3.26-8.07,3.37-13.07,1.6,1.89,5.39,21.74,5.87,21.67,2.38-.42,4-4.88,5.43-7.72,8.24,12.71,14.23-3.37,16.74-19,.73,7,11.08,10.8,6.07,21.21,4.08-4.48,6.59-9.91,10-13.53,0,0,.65,8.39.69,9.22,2.48.9,4.47-2.61,4.87-7,.18-1.79,7.09,5.49,7.9,5.41,3.86-.38,4.37-9.21.59-10.66,3.92-.56,9.55,10.12,10.83,10.64,4.75,1.81,10.25-10.93,12.93-13.76-1.63,3.67,1.08,14.28,4.87,15.77,6.09,2.41,10-10.93,12.52-15.65,4.35,2.38,6.12,9.74,7.77,14.82,3,.76,5-1.52,5.42-5,2.55,2.85,2.82,12.91,8.61,13.84.34,0,5.06-13.88,6-15.26a23.05,23.05,0,0,1,3.17,11.89c5.51-3.67,12,3.77,15.3,11.78,5.38-.89,4.79-19.48,4.58-25.5.7,3.44,3.46,18.66,6.6,18.39,2.93-.25,4-8.95,3.94-12.71,2,6.66,3.34,8.35,5.69,5.14,2-2.73,4.75-13.72,7.32-18-.76,5,4.85,24,6.31,24.72,4.23,1.95,7.1-12.53,7.88-17.22.46,5.59,1.18,20,5.73,20.52,2.87.37,4.36-6,6.38-8.95,5.46,14.48,13.2,6.74,13.56-9.51,6.45,8,5.6,22.62,9,25.61-.15-4.59,7.3-22.75,7.71-21.49,1.66,5,.36,16.82.85,22.77-.13-1.62,16.62-24.86,21.18-31.52-7.64,16-3.3,40.4,5.44,21.8.13,7.91.29,18.86,5.65,10.13,1.92,3.37,2.34,8.39,5.59,8.13,5.22-.44,8.91-21.81,9.48-31.28.29,5.52.76,16.27,3.49,18.11,2.31,1.56,4.75-2.78,7.08-2.89s4.63,3.22,7.23,2.81c.26-4.79,0-9.69.42-14.53,1.23,5.67,3,12.59,6.16,17.58,1.84-14.78,3.53-37.14,8.91-49.38-.49,1.12-.08,16.74-.13,19.09-.19,11.06,1.26,20.85,5.67,29.18,12.22,23.05,18.37-10.63,22.55-26-.58,10.89,2.57,26.79,7.52,33.77,1.58-2.53,2.65-6.24,3.66-9.68,3.68,12.85,5.61,14.58,11,4.62,2.67,10.67,7.58,6.55,9.89-2.14,1.93-7.29,1-16.09,2.68-23.63,5.23,5.5,10.4,21.2,12,31.48,3.7,1,6-5.31,9.06-4.17,2.81,1.07,4.5,10.34,7.55,12.26,5.53,3.53,5-8.8,9.56-10,4.12-1.09,6,9.58,11,7.2,5.27-2.47,9.13-18.69,11.92-25.8-.07,13.39-.25,22.9,9.14,24.13,2.34.3,2.8-2,5.14-.76,4.67,2.43,13.27,14.31,17.9,10.92,3.45-2.49,4.5-17.29,5.13-24,0,10,4.93,32.56,9.06,13.67,3.48,5.16,4.77,7.93,9.67,8.91,2.78.55,6.83-10,9.1-24.64,2.22,4.4,1.14,18.31,7,16.81,5.07-1.3,6.25-13.67,8.76-18,1.29,3.31,5.3,10.93,7,9.89-1.19-15.62,3.39-23.62,5.84-27.88-4,19.46,8.86,31.47,17.84,39.48.06-1.33,4-7.43,4.21-8.93,5.86,11,7.79.24,13-3.77.43,1.49-.34,7.73,3,8.85-.24-4.37,2.24-11.72,2.74-15.75,2.53,1.37,1.57,11.26,2.92,10.77,4.46-19.34,6.56-16.39,7.56-22.22,0,14.58,3.63,24.93,3.37,37.76,3.2-5,3.94-11,3.07-17.14,2.22,8.42,7.62,18.53,12.35,10.51,1.56-2.66,1.8-9.44,2.38-13,1.42,9,5.3,22.15,11.46,22.91,6.56.82,9.13-10.7,9.68-21.13.44,8,1.62,18.93,6.49,21.33,3.74,1.85,8.52-3.06,9.78-11.94,0,3.84,6.95,9.73,8.48,11.78,3.2,4.27,7,8.88,8,16,3.7-6.6,6.19-24.28,3-35.41,3.06,6.82,5.33,20.83,9.34,17.74,1.93-1.49,6.07-18.7,4.1-22.95,3.63,3.3,9.22,13.94,10.19,22.25,1.45-1.62,2.36-4.62,3.08-7.73,2.45,5.32,4.28,13.26,8.8,13.83,1.15-3.58,1.64-8.31.56-11.81,1.46,2.44,2.49,9.92,5.9,11.39.7-9.22,2.52-17,1.13-26.67,3.54,10.56,6.92,12.29,9.46,16.31,3.33,5.25,5.83,12.75,10.21,15.24s4.7-8.36,4.6-15.52c2.32,5.59,5.69,12.33,9.38,15.2.17-1.59,1.06-3,1.19-4.82,1.87.89,3.83,1.92,5.89,1.5.14-1.33.5-2.13.68-3.23,2.51,2.77,10.52,9.67,13.5,7.78,7.18-4.56,4.11-22.8,1.14-30.29,3.33,5.18,9.78,9.93,13.32,17.4,2.35,5,2.66,9.77,6.55,11.87,1.81-6.68,3.18-14.9,2.56-22.31,2.53,6.28,14.6,28.32,16.13,9.09,1.27,4.82,3.52,12.83,6.65,15,4.57,3.14,6.12-7.78,6.52-7.62,4.2,1.64,4.75-4.15,4.43-10.32,1.81,4.92,1.82,10.59,4.8,11.6,2.15.72,2.53-3.72,4.29-3,1.07.44,2.19,4.43,3.8,9.6V799.8H1252.32Z"/>
      <path class="cls-39" d="M1622.11,879.66c-24.79-4.63-24.4-25.25,4.91-25.48-19.7-15.15-3.59-36.8,23.82-26.71,6.71-14,27.34-16.25,30.88-.57,6.48-9.8,18-16.14,30.86-13.7-47.4-18.72,15.78-42.52,43.88-39.88-10.37-32.91,34.66-50.49,68.78-32.85,8.82-34.68,73-4.25,87.87,11.34,24.87-24.5,72.47-5.92,76,22,34-24.53,54.15,17.93,50.82,38.21,24.28-9.32,25.94,14.24,19.08,26.79,19.42-4.92,32.39,3,23.69,18,20.16-4.57,35.5,6,23.86,20.59,17.6-1.21,47.43.2,25.67,15.13,10.84-1.83,16.51,2.06,24.5,3-2.12,6.3-6.31,4.69-12.88,6.56l20.94,2.93c-10.73,14.42-41.13,13.27-56.48,3.63-9.88,5.7-4.13,5.44-17.81-.1-10.11,17.38-28.13,9.27-28.26-7.29-11,8.5-32,9.86-46.56,2.42,25,14.32-28.72,26.62-46.17,9.87-.45,16.82-30.46,12.24-37.7,1.4-7.65,12.79-26.46,14.48-42.14,9.21-24.58,27.45-45.39-6.36-67-13.59-3.57,13.65-23.94,15.07-39.32,9.92.5,2.67.09,6.14.61,8.91-22.29,3.79-47.25,6.95-66-5.1-11.58,10.93-35.37,6.47-37.82-8.27-14.36,5.63-34.71,8.53-36-7-12,0-25-.15-35.85-1.73,4.27-1.71,8.75-4.76,13.44-6.63a148,148,0,0,1-33.61-3.94C1593,886.36,1607.23,881.84,1622.11,879.66Z"/>
      <path class="cls-40" d="M2133.51,939.47c4.82-.91,7.8.19,9.55-3.54-5.75-.83-9.71-3.36-17.62-2.6,16.27-8.32-5.26-10.14-18-10,8.94-8.45-1.78-15.32-16.53-13.21,6.82-8.82-2.28-14-16.49-11.66,5.4-7.36,5-21.66-12.87-16.81,3.13-12.14-9.93-38.45-35.41-24.73-1.55-17-35.32-29.76-54.18-15.76-10.19-9.9-55.55-30.36-63.15-9.68-23.36-11.42-55.31-3.12-51.36,15.88a28.69,28.69,0,0,0-5,1.43c-1.5,0-3.07,0-4.69.12-3.75-16-35.71-27.35-53.85-13.87-10.19-9.9-55.56-30.36-63.16-9.69-24.06-11.76-57.25-2.59-50.9,17.63-20.24-2.49-66.77,9.85-33.14,22.69A24,24,0,0,0,1623.9,873c-2-9.6-17-8.87-22.35-.66-19.48-7-31.89,5.58-18.18,15.37-21.2-.8-22.21,11.65-4.44,15.25-10.84.84-21.32,3.11-25.24,9.21a126.21,126.21,0,0,0,24.17,3.47c-3.46,1-6.8,2.68-9.95,3.57,7.78,1.3,17.22,1.8,25.87,2.2.41,9.46,15.23,8.36,25.82,5.42,1.25,9,18.3,12.45,27.06,6.22,13.12,7.89,31.29,6.78,47.55,5.21-.29-1.69.13-3.77-.13-5.4,11,3.61,25.73,3.4,28.79-4.73,15.39,5.07,29.25,26.17,48,10.37,9.82,3.25,21.59,3.31,28.34-1.83,4.15,5.41,15.13,7.35,22.74,4a12.4,12.4,0,0,0,3.52-1.07c13,7.38,30.82,6.29,46.76,4.75-.29-1.69.13-3.77-.14-5.4,9.33,3.08,21.45,3.38,26.72-1.63a10.47,10.47,0,0,0,12.78,2.46c11.49,7.4,23,16.89,37.29,4.82,11.16,3.69,24.82,3.27,30.81-4.21,4.86,6.79,26.4,10.53,27.32.37,12,10.69,51.32,5,33.74-4.47,10.28,5,25.51,4.82,33.76,0-.49,10,12.26,15.49,20.18,5.31,9.71,3.79,5.53,3.77,12.88.64,10.77,6.32,32.72,8,41-.37Z"/>
    </g>
  </g>
</svg>
