<svg id="Layer_1" data-name="Layer 1" xmlns="http://www.w3.org/2000/svg" xmlns:xlink="http://www.w3.org/1999/xlink" width="1600" height="900" viewBox="0 0 1600 900">
  <defs>
    <style>
      .cls-1 {
        fill: none;
      }

      .cls-2 {
        clip-path: url(#clip-path);
      }

      .cls-3 {
        clip-path: url(#clip-path-2);
      }

      .cls-4 {
        fill: #191c3f;
      }

      .cls-5 {
        opacity: 0.8;
      }

      .cls-6 {
        opacity: 0.77;
      }

      .cls-7 {
        fill: #f4edf9;
      }

      .cls-8 {
        opacity: 0.76;
      }

      .cls-9 {
        fill: #f9f0bd;
      }

      .cls-10 {
        opacity: 0.57;
      }

      .cls-11 {
        opacity: 0.79;
      }

      .cls-12 {
        opacity: 0.8;
      }

      .cls-13 {
        opacity: 0.78;
      }

      .cls-14 {
        fill: #a0e6f9;
      }

      .cls-15 {
        opacity: 0.92;
      }

      .cls-16 {
        fill: #b8e9f4;
      }

      .cls-17 {
        opacity: 0.89;
      }

      .cls-18 {
        opacity: 0.7;
      }

      .cls-19 {
        fill: #f9e9aa;
      }

      .cls-20 {
        clip-path: url(#clip-path-3);
      }

      .cls-21 {
        clip-path: url(#clip-path-4);
      }

      .cls-22 {
        fill: url(#linear-gradient);
      }

      .cls-23 {
        clip-path: url(#clip-path-5);
      }

      .cls-24 {
        clip-path: url(#clip-path-6);
      }

      .cls-25 {
        opacity: 0.21;
      }

      .cls-26 {
        fill: #23490f;
      }

      .cls-27 {
        opacity: 0.56;
      }

      .cls-28 {
        fill: url(#radial-gradient);
      }

      .cls-29 {
        fill: #0c4c2d;
      }

      .cls-30 {
        clip-path: url(#clip-path-7);
      }

      .cls-31 {
        clip-path: url(#clip-path-8);
      }
    </style>
    <clipPath id="clip-path">
      <rect class="cls-1" x="10191.68" y="-284.03" width="1600" height="900"/>
    </clipPath>
    <clipPath id="clip-path-2">
      <rect class="cls-1" x="1110.21" y="577.77" width="11168.71" height="2050"/>
    </clipPath>
    <clipPath id="clip-path-3">
      <rect class="cls-1" x="10391.25" y="1888.32" width="1280" height="720"/>
    </clipPath>
    <clipPath id="clip-path-4">
      <rect class="cls-1" x="10231.25" y="1798.32" width="1600" height="900"/>
    </clipPath>
    <linearGradient id="linear-gradient" x1="5414.26" y1="3900.29" x2="5414.26" y2="-3083.55" gradientUnits="userSpaceOnUse">
      <stop offset="0" stop-color="#a4f2ff"/>
      <stop offset="0.23" stop-color="#69e3ff"/>
      <stop offset="0.45" stop-color="#34d5ff"/>
      <stop offset="0.57" stop-color="#1fd0ff"/>
      <stop offset="0.65" stop-color="#25c3ff"/>
      <stop offset="0.81" stop-color="#36a2ff"/>
      <stop offset="1" stop-color="#4d73ff"/>
    </linearGradient>
    <clipPath id="clip-path-5">
      <rect class="cls-1" x="160" y="90" width="1280" height="720"/>
    </clipPath>
    <clipPath id="clip-path-6">
      <rect class="cls-1" width="1600" height="900"/>
    </clipPath>
    <radialGradient id="radial-gradient" cx="630.22" cy="489.07" r="641.07" gradientTransform="translate(308.95 444.97) scale(0.95 0.56)" gradientUnits="userSpaceOnUse">
      <stop offset="0" stop-color="#61dfff"/>
      <stop offset="0.14" stop-color="#5adaff"/>
      <stop offset="0.35" stop-color="#47caff"/>
      <stop offset="0.59" stop-color="#28b1ff"/>
      <stop offset="0.84" stop-color="#0091ff"/>
    </radialGradient>
    <clipPath id="clip-path-7">
      <rect class="cls-1" x="5522" y="90" width="1280" height="720"/>
    </clipPath>
    <clipPath id="clip-path-8">
      <rect class="cls-1" x="5362" width="1600" height="900"/>
    </clipPath>
  </defs>
  <g class="cls-2">
    <g class="cls-3">
      <rect class="cls-4" x="1110.21" y="577.77" width="5584.35" height="2050"/>
      <g>
        <g class="cls-5">
          <g class="cls-6">
            <path class="cls-7" d="M923.05,708.93l-.17,6a1.93,1.93,0,0,0,1.35,1.87l5.89,1.93-6.21-.16a2,2,0,0,0-1.94,1.3l-2,5.7.17-6a1.92,1.92,0,0,0-1.35-1.88l-5.89-1.93,6.22.17a2,2,0,0,0,1.94-1.31Z"/>
          </g>
          <path class="cls-7" d="M713.44,641.83l1.13,5.91a2,2,0,0,0,1.72,1.57l6.18.7-6.12,1.09a2,2,0,0,0-1.62,1.67l-.73,6-1.12-5.92a2,2,0,0,0-1.73-1.56l-6.17-.71,6.12-1.08a2,2,0,0,0,1.61-1.67Z"/>
          <g class="cls-8">
            <path class="cls-7" d="M1148,459.81l.61,6a2,2,0,0,0,1.6,1.71l6.13,1.21-6.23.59a2,2,0,0,0-1.77,1.54l-1.25,5.93-.61-6a2,2,0,0,0-1.59-1.71l-6.13-1.21,6.23-.59a2,2,0,0,0,1.76-1.54Z"/>
          </g>
          <path class="cls-7" d="M1354.4,687.58l-.17,6a1.93,1.93,0,0,0,1.35,1.87l5.89,1.93-6.21-.16a2,2,0,0,0-2,1.3l-2,5.7.17-6a1.92,1.92,0,0,0-1.35-1.88l-5.89-1.93,6.22.17a2,2,0,0,0,1.94-1.31Z"/>
          <path class="cls-7" d="M310.24,845.13l4.23,4.41a2,2,0,0,0,2.32.43l5.61-2.6-4.57,4.09a1.87,1.87,0,0,0-.44,2.24l2.68,5.42-4.22-4.41a2,2,0,0,0-2.32-.43l-5.61,2.6,4.57-4.08a1.89,1.89,0,0,0,.44-2.25Z"/>
          <path class="cls-9" d="M254.7,421.62l-6.1,9.21a3.4,3.4,0,0,0,.29,4.14l7.3,8.35-9.52-5.89a3.72,3.72,0,0,0-4.29.27l-8.63,7.06,6.1-9.2a3.41,3.41,0,0,0-.29-4.15l-7.3-8.35,9.52,5.9a3.72,3.72,0,0,0,4.29-.28Z"/>
          <g class="cls-10">
            <path class="cls-7" d="M500.75,305.94l-.2,7.19a2.3,2.3,0,0,0,1.62,2.24l7.05,2.31-7.44-.19a2.36,2.36,0,0,0-2.32,1.56l-2.39,6.82.2-7.2a2.29,2.29,0,0,0-1.61-2.24l-7.05-2.31,7.44.2a2.4,2.4,0,0,0,2.32-1.57Z"/>
          </g>
          <path class="cls-7" d="M1579.26,504.39,1577,510a1.87,1.87,0,0,0,.6,2.21l4.84,3.78-5.78-2.23a2,2,0,0,0-2.28.58l-3.91,4.69,2.31-5.59a1.89,1.89,0,0,0-.6-2.21l-4.85-3.77,5.78,2.22a2,2,0,0,0,2.29-.58Z"/>
          <path class="cls-7" d="M1372.57,331.71l-1.08,8.77a2.8,2.8,0,0,0,1.71,2.91l8.35,3.58-9.07-1a2.93,2.93,0,0,0-3,1.66l-3.7,8.07,1.08-8.77a2.81,2.81,0,0,0-1.72-2.91l-8.35-3.58,9.07,1a2.93,2.93,0,0,0,3-1.66Z"/>
          <path class="cls-7" d="M1394.35,888.52l5.27,12.69a4.55,4.55,0,0,0,4.58,2.73l14.09-1.14-13.12,5.1a4.37,4.37,0,0,0-2.82,4.42l1.18,13.63-5.28-12.69a4.54,4.54,0,0,0-4.57-2.73l-14.09,1.14,13.12-5.1a4.37,4.37,0,0,0,2.82-4.42Z"/>
          <g class="cls-11">
            <path class="cls-7" d="M476.25,658.29l1,5.93a2,2,0,0,0,1.7,1.59l6.16.81-6.14,1a2,2,0,0,0-1.64,1.64l-.84,6-1-5.93a2,2,0,0,0-1.69-1.59l-6.17-.81,6.14-1a2,2,0,0,0,1.65-1.64Z"/>
          </g>
          <path class="cls-7" d="M717.55,423.88l-.48,6a1.92,1.92,0,0,0,1.25,1.94L724.1,434l-6.2-.47a2,2,0,0,0-2,1.21l-2.29,5.6.48-6a1.92,1.92,0,0,0-1.25-1.94l-5.78-2.21,6.2.47a2,2,0,0,0,2-1.21Z"/>
          <path class="cls-7" d="M1474.57,758.7l-.17,6a1.94,1.94,0,0,0,1.35,1.88l5.89,1.92-6.21-.16a2,2,0,0,0-1.94,1.31l-2,5.69.17-6a1.91,1.91,0,0,0-1.35-1.87l-5.89-1.93,6.22.16a2,2,0,0,0,1.94-1.3Z"/>
          <g class="cls-12">
            <path class="cls-7" d="M124.38,777.68l-.3,10.41a3.35,3.35,0,0,0,2.34,3.25l10.2,3.33-10.76-.28a3.45,3.45,0,0,0-3.36,2.26l-3.45,9.86.29-10.4a3.34,3.34,0,0,0-2.34-3.25l-10.2-3.34,10.77.29a3.43,3.43,0,0,0,3.35-2.27Z"/>
          </g>
          <g class="cls-13">
            <path class="cls-7" d="M1383,588.81l1.81,6.83a2.33,2.33,0,0,0,2.15,1.7l7.29.34-7.07,1.75a2.27,2.27,0,0,0-1.75,2.08l-.35,7-1.81-6.83a2.33,2.33,0,0,0-2.15-1.7l-7.29-.33,7.07-1.76a2.26,2.26,0,0,0,1.75-2.07Z"/>
          </g>
          <path class="cls-7" d="M1485.82,633.2l-2.51,5.51a1.89,1.89,0,0,0,.52,2.23l4.7,3.93-5.69-2.42a2,2,0,0,0-2.31.5l-4.07,4.55L1479,642a1.89,1.89,0,0,0-.52-2.23l-4.7-3.94,5.69,2.43a2,2,0,0,0,2.31-.5Z"/>
          <path class="cls-14" d="M1092.78,777.84l-2.31,5.58a1.88,1.88,0,0,0,.61,2.21l4.84,3.78-5.78-2.23a2,2,0,0,0-2.29.58l-3.9,4.69,2.3-5.59a1.87,1.87,0,0,0-.6-2.21l-4.84-3.78,5.78,2.23a2,2,0,0,0,2.29-.58Z"/>
          <path class="cls-7" d="M660.45,765.69l1.55,5.83a2,2,0,0,0,1.83,1.44l6.21.29-6,1.5a1.92,1.92,0,0,0-1.49,1.77l-.3,6-1.55-5.82a2,2,0,0,0-1.83-1.45l-6.21-.28,6-1.5a2,2,0,0,0,1.5-1.77Z"/>
          <g class="cls-15">
            <path class="cls-16" d="M733.11,824.12l-.17,6a1.93,1.93,0,0,0,1.35,1.88l5.89,1.92-6.22-.16a2,2,0,0,0-1.94,1.31l-2,5.69.17-6a2,2,0,0,0-1.35-1.88L723,831l6.22.16a2,2,0,0,0,1.94-1.31Z"/>
          </g>
          <path class="cls-7" d="M485,804.33l-.17,6a1.93,1.93,0,0,0,1.35,1.87l5.89,1.93-6.21-.16a2,2,0,0,0-1.94,1.31l-2,5.69.17-6a1.93,1.93,0,0,0-1.35-1.88l-5.89-1.92,6.22.16A2,2,0,0,0,483,810Z"/>
          <g class="cls-17">
            <path class="cls-7" d="M1069.93,865.63l1.45,8a2.66,2.66,0,0,0,2.31,2.14l8.35,1-8.29,1.4a2.65,2.65,0,0,0-2.21,2.24l-1.06,8.07-1.45-8a2.65,2.65,0,0,0-2.31-2.13l-8.35-1,8.29-1.4a2.63,2.63,0,0,0,2.21-2.24Z"/>
          </g>
          <path class="cls-7" d="M1450.09,485l1.4,5.86a2,2,0,0,0,1.8,1.49l6.21.42-6.06,1.36a2,2,0,0,0-1.54,1.74l-.44,6-1.4-5.86a2,2,0,0,0-1.8-1.48l-6.21-.43,6.06-1.36a1.94,1.94,0,0,0,1.54-1.74Z"/>
        </g>
        <g class="cls-18">
          <ellipse class="cls-7" cx="199.51" cy="315.98" rx="1.97" ry="1.91"/>
          <path class="cls-7" d="M335.51,346.09a2,2,0,1,1-2-1.91A1.94,1.94,0,0,1,335.51,346.09Z"/>
          <path class="cls-7" d="M392.13,472.92a2,2,0,1,1-2-1.9A1.94,1.94,0,0,1,392.13,472.92Z"/>
          <path class="cls-7" d="M280.78,719.16a2,2,0,1,1-2-1.91A1.94,1.94,0,0,1,280.78,719.16Z"/>
          <path class="cls-19" d="M413.14,751.53a2,2,0,1,1-2-1.91A1.94,1.94,0,0,1,413.14,751.53Z"/>
          <path class="cls-7" d="M447.57,617a2,2,0,1,1-2-1.91A2,2,0,0,1,447.57,617Z"/>
          <path class="cls-7" d="M607.53,594.34a2,2,0,1,1-2-1.91A1.93,1.93,0,0,1,607.53,594.34Z"/>
          <path class="cls-7" d="M719.79,508.41a2,2,0,1,1-2-1.9A1.94,1.94,0,0,1,719.79,508.41Z"/>
          <path class="cls-7" d="M680.89,403a2,2,0,1,1-2-1.91A1.93,1.93,0,0,1,680.89,403Z"/>
          <path class="cls-7" d="M808.7,644a2,2,0,1,1-2-1.91A1.93,1.93,0,0,1,808.7,644Z"/>
          <path class="cls-7" d="M865.46,556.79a2,2,0,1,1-2-1.91A1.94,1.94,0,0,1,865.46,556.79Z"/>
          <path class="cls-19" d="M843.16,412.63a2,2,0,1,1-2-1.91A1.94,1.94,0,0,1,843.16,412.63Z"/>
          <path class="cls-7" d="M1035.05,347.1a2,2,0,1,1-2-1.9A1.94,1.94,0,0,1,1035.05,347.1Z"/>
          <path class="cls-7" d="M1246.21,454.7a2,2,0,1,1-2-1.91A1.94,1.94,0,0,1,1246.21,454.7Z"/>
          <path class="cls-7" d="M1059.7,587a2,2,0,1,1-2-1.9A1.94,1.94,0,0,1,1059.7,587Z"/>
          <path class="cls-7" d="M1206.25,645.14a2,2,0,1,1-2-1.91A1.94,1.94,0,0,1,1206.25,645.14Z"/>
          <path class="cls-7" d="M1309.79,651.58a2,2,0,1,1-2-1.91A1.94,1.94,0,0,1,1309.79,651.58Z"/>
          <path class="cls-7" d="M1298.71,492.53a2,2,0,1,1-2-1.91A1.93,1.93,0,0,1,1298.71,492.53Z"/>
          <path class="cls-7" d="M1400.68,365.47a2,2,0,1,1-2-1.91A1.94,1.94,0,0,1,1400.68,365.47Z"/>
          <path class="cls-7" d="M1527.34,390.21a2,2,0,1,1-2-1.91A1.94,1.94,0,0,1,1527.34,390.21Z"/>
          <path class="cls-7" d="M1560.83,454.93a2,2,0,1,1-2-1.9A1.94,1.94,0,0,1,1560.83,454.93Z"/>
          <path class="cls-7" d="M1565.17,558.11a2,2,0,1,1-2-1.91A2,2,0,0,1,1565.17,558.11Z"/>
          <path class="cls-19" d="M1520.82,765.57a2,2,0,1,1-2-1.91A1.94,1.94,0,0,1,1520.82,765.57Z"/>
          <path class="cls-7" d="M1395.28,792.53a2,2,0,1,1-2-1.91A1.94,1.94,0,0,1,1395.28,792.53Z"/>
          <path class="cls-7" d="M993.24,890.37a2,2,0,1,1-2-1.91A1.94,1.94,0,0,1,993.24,890.37Z"/>
          <ellipse class="cls-7" cx="934.69" cy="785.92" rx="1.97" ry="1.91"/>
          <path class="cls-7" d="M845.36,769.76a2,2,0,1,1-2-1.9A1.94,1.94,0,0,1,845.36,769.76Z"/>
          <path class="cls-7" d="M818.85,890.38a2,2,0,1,1-2-1.91A1.93,1.93,0,0,1,818.85,890.38Z"/>
          <path class="cls-7" d="M703.32,901.05a2,2,0,1,1-2-1.9A1.94,1.94,0,0,1,703.32,901.05Z"/>
          <path class="cls-7" d="M628.79,850.32a2,2,0,1,1-2-1.91A1.94,1.94,0,0,1,628.79,850.32Z"/>
          <path class="cls-7" d="M577.2,855.83a2,2,0,1,1-2-1.91A1.94,1.94,0,0,1,577.2,855.83Z"/>
          <path class="cls-7" d="M245.46,836.29a2,2,0,1,1-2-1.91A2,2,0,0,1,245.46,836.29Z"/>
          <path class="cls-7" d="M197.08,843.74a2,2,0,1,1-2-1.91A1.94,1.94,0,0,1,197.08,843.74Z"/>
          <ellipse class="cls-7" cx="176.24" cy="893.6" rx="1.97" ry="1.91"/>
          <path class="cls-7" d="M1208.6,878.51a2,2,0,1,1-2-1.91A1.94,1.94,0,0,1,1208.6,878.51Z"/>
          <path class="cls-7" d="M1269.69,787.11a2,2,0,1,1-2-1.91A1.94,1.94,0,0,1,1269.69,787.11Z"/>
          <path class="cls-7" d="M110.75,384a2,2,0,1,1-2-1.9A1.94,1.94,0,0,1,110.75,384Z"/>
          <path class="cls-19" d="M1601.84,287.08a2,2,0,1,1-2-1.91A1.94,1.94,0,0,1,1601.84,287.08Z"/>
          <path class="cls-7" d="M620.86,319.11a2,2,0,1,1-2-1.91A1.95,1.95,0,0,1,620.86,319.11Z"/>
          <path class="cls-7" d="M1191.93,325.56a2,2,0,1,1-2-1.91A1.94,1.94,0,0,1,1191.93,325.56Z"/>
          <path class="cls-14" d="M1111.85,381.67a2,2,0,1,1-2-1.91A1.94,1.94,0,0,1,1111.85,381.67Z"/>
          <ellipse class="cls-14" cx="608.93" cy="677.36" rx="1.97" ry="1.91"/>
        </g>
      </g>
    </g>
  </g>
  <g class="cls-20">
    <g class="cls-21">
      <rect class="cls-22" x="-1181.59" y="-1904.08" width="13191.7" height="5525.81"/>
    </g>
  </g>
  <g class="cls-23">
    <rect class="cls-1" x="1250.46" width="1600" height="900"/>
    <g class="cls-24">
      <g>
        <g class="cls-25">
          <path class="cls-26" d="M1635.81,887.72l4.21,0,110.37-.52,65.48-.32c7.86,0,15.73-.16,23.59-.11,5,0,21.46,3.53,17.53-6-1.39-3.37-4.88-5.07-8.09-6.46a618.85,618.85,0,0,0-199.65-48.83c22.4-7.38,45.31-15,63.41-31.2a16.44,16.44,0,0,0,5.34-9.77c1.47-9.89-7-14.72-14.29-18a525,525,0,0,0-182-43.85A106.46,106.46,0,0,0,1560.86,702a9.45,9.45,0,0,0,3.48-7.37c-.1-5.17-4.32-6.79-8.06-7.86a200,200,0,0,0-55.27-7.84c6.18-8.8,24.5-8.31,22.81-18.89a9.32,9.32,0,0,0-6.58-7.45c-68.23-19.72-138.91-27.4-209.18-35.35a6.1,6.1,0,0,1-5.34-5.4c-.37-3.39,2.33-5,4.73-6.22l34.6-17.8a8.13,8.13,0,0,0,4.36-6c.88-5.66-4.6-8.13-9.11-9.42q-27.08-7.73-54.67-13.14L1299.79,548a687.58,687.58,0,0,0-115.1-9.4c-29,.07-41.64,1.72-68.89-9.09-23.1-9.17-13.63-10.28-38.24-9.62-66.37,1.78-183,3.85-249.42,5.63-6.37.17-10.13,3-15.12,7.2s-2.41,7.64,3.09,11.06c-56.65,4.56-124.05,16.65-180,15.38-40.41-.92-81.55,18.74-144.69,37.67-18.88,5.66,32,20.72,35.61,25.67-79.95,1-124.71-10.74-203.63,2.9-7.13,1.23-67.11,19-78.7,22.81C219,663.46,267.41,671.15,274.64,671c-31.55,4.86-144.31,21.59-115.75,28.29,50.37,11.83-71,4.2-122.54,29.16a16.58,16.58,0,0,0-7.67,9.21c-3,11,8.63,17.42,18.09,20.31,44,13.44,121.65,43.32,167,49.79a.4.4,0,0,1,0,.79C123.36,792.9-19.1,842.08-19.1,842.08l-9.31-1.62v47.26Z"/>
        </g>
        <g class="cls-27">
          <path class="cls-26" d="M1558.81,900.17l3.82,0,100.26-.52,59.48-.31c7.15,0,14.29-.16,21.44-.12,4.52,0,19.49,3.53,15.91-6.05-1.26-3.37-4.43-5.07-7.35-6.45A520.2,520.2,0,0,0,1571,837.86c20.35-7.38,41.16-15,57.6-31.19a17,17,0,0,0,4.85-9.78c1.33-9.89-6.31-14.71-13-17.95a441.42,441.42,0,0,0-165.35-43.85,94.14,94.14,0,0,0,35.59-20.64,9.9,9.9,0,0,0,3.16-7.38c-.09-5.17-3.93-6.78-7.33-7.86a166.12,166.12,0,0,0-50.2-7.84c5.61-8.79,22.26-8.31,20.72-18.89a9.1,9.1,0,0,0-6-7.45c-62-19.72-126.17-27.4-190-35.35a5.83,5.83,0,0,1-4.85-5.4c-.33-3.39,2.12-5,4.29-6.22L1292,600.27a8.19,8.19,0,0,0,4-6c.79-5.65-4.18-8.13-8.28-9.42q-24.6-7.71-49.66-13.14l15.58-11.24A568.7,568.7,0,0,0,1149,551.08c-26.32.07-37.82,1.72-62.58-9.09-21-9.17-12.37-10.28-34.73-9.62-60.29,1.78-166.27,3.85-226.57,5.63-5.79.17-9.2,3-13.73,7.2s-2.19,7.64,2.8,11.06c-51.45,4.57-112.68,16.65-163.51,15.38-36.71-.92-74.08,18.74-131.44,37.67C502.11,615,548.35,630,551.61,635c-72.63,1-113.29-10.74-185,2.9-6.48,1.23-61,19-71.5,22.81-23.33,15.22,20.65,22.91,27.22,22.74-28.67,4.86-131.1,21.59-105.15,28.3,45.75,11.82-64.51,4.19-111.31,29.15a16.29,16.29,0,0,0-7,9.21c-2.75,11,7.84,17.42,16.43,20.31,40,13.44,110.5,43.32,151.7,49.8a.4.4,0,0,1,0,.78c-82.11-15.63-211.52,33.56-211.52,33.56l-8.46-1.63v47.26Z"/>
        </g>
        <path class="cls-28" d="M1554.26,905.8l3.78,0,99-.52,58.76-.31c7.06,0,14.12-.16,21.17-.12,4.48,0,19.25,3.53,15.72-6.05-1.24-3.37-4.37-5.07-7.26-6.46a509.11,509.11,0,0,0-179.13-48.84c20.1-7.38,40.66-15,56.89-31.2a17,17,0,0,0,4.79-9.77c1.32-9.89-6.23-14.72-12.82-18a431.78,431.78,0,0,0-163.32-43.85A92.81,92.81,0,0,0,1487,720.05a10,10,0,0,0,3.12-7.37c-.09-5.18-3.88-6.79-7.24-7.87a162,162,0,0,0-49.58-7.83c5.54-8.8,22-8.32,20.46-18.9a9.06,9.06,0,0,0-5.9-7.45c-61.22-19.72-124.64-27.41-187.69-35.35a5.83,5.83,0,0,1-4.8-5.4c-.32-3.4,2.1-5,4.25-6.22l31-17.8a8.16,8.16,0,0,0,3.91-6c.78-5.66-4.13-8.13-8.18-9.42q-24.29-7.73-49.05-13.14l15.39-11.25a555.09,555.09,0,0,0-103.27-9.41c-26,.08-49.06-2.9-73.52-13.72-20.73-9.16-39.44-9.07-61.52-8.41l-178.67,5.35c-5.72.17-11.88.52-16.36,4.73s-5.58,13.82-.65,17.24c-50.82,4.56-111.3,16.65-161.51,15.38C621,576.31,584.08,596,527.43,614.9c-16.94,5.67,28.73,20.73,32,25.68-71.74,1-111.9-10.74-182.71,2.9-6.4,1.23-60.21,19-70.62,22.81C283,681.51,326.44,689.2,332.93,689c-28.31,4.86-129.49,21.6-103.86,28.3,45.19,11.83-63.72,4.19-109.95,29.16a16.34,16.34,0,0,0-6.89,9.21c-2.71,11,7.75,17.43,16.24,20.32,39.45,13.43,109.15,43.32,149.84,49.8a.4.4,0,0,1,0,.78C197.19,811,69.36,860.16,69.36,860.16L61,858.53V905.8Z"/>
      </g>
      <g>
        <path class="cls-29" d="M50.71,822.93l0,0Z"/>
        <path class="cls-29" d="M203.63,877.8c-6-10.61-49.1-19.12-49.1-19.12,5.73-14.67,5.56-41.06,5.56-41.06-6.46,25.53-18.54,31.8-18.54,31.8,1.44-32.75,4.92-36.35,4.92-36.35-19.63,17.75-21.11,28.62-21.11,28.62-6.17-20.79,6-44,6-44-5.15,4.87-14.31,33.79-14.31,33.79.41-8.8-8.42-59.53-8.42-59.53,2.07,12.38-5.22,77.23-6.11,73.83s-2.09-29.89-3.09-17-4.85,35.78-4.85,35.78c-3.54-7-1.61-54.49-1.61-54.49-5.49,35-24.5,37.06-24.5,37.06-1.21-29.78,6.22-45.89,6.22-45.89-9.34,19.17-29.8,43-29.8,43,3.28-19,5.57-21.16,5.86-21.36-15.42,9-19.1,19.76-19.1,19.76,7.52-22.14,7.13-52.64,7.13-52.64C37,803.32,23.49,824.16,21,830.5c-2.2-24.15,10.66-49.26,10.66-49.26C19.45,805-4.54,838.31-4.54,838.31-10.3,825.54,9.21,785.4,9.21,785.4c-20.16,24-27.95,69.74-20.93,34.54,2.55-12.8-.07-11-.07-11-4.12,8.28-10,18.54-10,18.54l-1.92-13.55C-23.85,798.36,2,771.25,2,771.25c-17.29,3.58-46,49.1-46,49.1-2.07-6.83,8.82-20.88,8.82-20.88-6,4.27-15.18,17.19-19.76,22.27.2-15.29,21.3-33.61,21.3-33.61-18.86,6.71-29.37,34.31-33.79,38.16-2.51,2.19,5.95-25.62,5.95-25.62-.78,1.34-1.82,3-3,4.83a68.34,68.34,0,0,1,3.39-8.07c-2,1.92-4.71,7.62-7.19,13.79-2.64,3.9-5.46,8-7.76,11.22-.42-3.68-1-8.1-1.69-12.78,10.6-37,24.59-56.24-1.51-10-2.22-14.34-4.59-27.94-4.59-27.94,1,5.72-.08,22.59-1.56,38.78-5.39,9.45-9.67,16.87-9.67,16.87-5.1-6.1,5-32.31,5-32.31-3.5,3.89-9.82,15.32-12.47,20.44-6.2-20.51,25.37-66,25.37-66C-107.3,772.2-118,816.89-118,816.89a36,36,0,0,1-2.2-9.1c2.17-7.74,4-9.5-.17-2-1.06-18,10.15-34,10.15-34-11.2,6.77-22.77,36.75-22.77,36.75-12.27-35.51-23.91-29.24-18.75-28.65s6.38,41.41,6.38,41.41l-.67,4.09c-11.89,8.29-14.89,17.08-14.89,17.08,7.53-22.14,7.13-52.64,7.13-52.64-1.73,13.27-15.25,34.09-17.74,40.45-2.2-24.16,10.67-49.27,10.67-49.27-9.43,18.34-25.86,42.36-32.87,52.37-2.58-.57-4.14-.88-4.14-.88,2.57-6.56,4-15.46,4.69-23.3a241.2,241.2,0,0,1,9.86-24c-11.54,13.75-8.9,19.6-9,6.27-3.13,12.39-7.59,20.24-11.35,25.05,1.5-9.26-.66-7.82-.66-7.82-2,4.06-4.45,8.58-6.42,12.15.73-14.76,1.88-23.18,2.87-27.93A173.94,173.94,0,0,1-190.51,771c-11.52,2.39-28.14,23.42-37.94,37.17a51.44,51.44,0,0,1-.25-7.63c1.11-1.53,1.47-1.76,0-.59a66.22,66.22,0,0,1,1.6-11.27c1.1-1,1.2-.92.12-.5A78.54,78.54,0,0,1-221,771.47c-2.5,2.36-5.94,10.37-8.83,18a36.7,36.7,0,0,0-6.43,4.38c-2.21-17.83-7.48-48.12-7.48-48.12,1.43,8.57-1.62,42.31-3.93,61.11-1.09,1.58-2.12,3.16-3.09,4.7-2-22.15-1.44-11.84-4,6.56-2.06,3.51-3.67,6.28-4.89,7.57-.06-1.35-.12-2.77-.17-4.23,5.21-23.77,10-27-.15-11.81.05-50.55,4.3-14.23-11.34,3.43,10.55-40.52,31.8-69.89-12.64,7.59-.93-23.83,3.54-38.85,5.42-43.81-1.71,3.46-6.43,11.89-16.71,25.71,4-22.35,25.53-53.38,25.53-53.38-17.64,13.33-28.6,34.2-34.65,49.19a52.8,52.8,0,0,0-8.5,6.82c-.9-17.85,10.18-33.72,10.18-33.72-4.18,2.53-8.41,8.29-12.07,14.51a218.79,218.79,0,0,0,1.11-22.14c-1.47,11.32-12.16,29.42-15.28,35.36q-1.29-3-2.54-5.47A106.32,106.32,0,0,1-322.59,759c-2.37,4.3-7,12.25-15.14,24.85-6.19-7.34-9.75-4.65-6.46-4.27,1.51.17,2.67,3.75,3.57,8.72-8.76,13.36-16.27,23.79-16.27,23.79-5.76-12.77,13.74-52.91,13.74-52.91-20.16,24-27.94,69.75-20.92,34.54,2.55-12.79-.08-11-.08-11-4.11,8.28-10,18.54-10,18.54l-1.91-13.55c-.14-15.53,25.68-42.64,25.68-42.64-17.28,3.58-46,49.1-46,49.1-2.08-6.83,8.82-20.88,8.82-20.88-3.8,2.69-9.73,9.8-14.11,15.38-1.15,6.93-2.38,13.85-3.75,20.77-1.22,6.21-2.51,12.42-3.67,18.65-1.65,18.12-2.29,36.32-2.45,54.54,12.28.07,30.87,3.68,61.14,14.95l-1,6.09s46.15,14.59,64.11,15.29,14.74-26.37,95.28,4,106.4,5.42,105.22,3.08c-.89-1.75,10.57-10.65,40.23-16.26,11.39,1.68,26.48,5.7,47,13.45,80.54,30.4,106.39,5.43,105.21,3.09s19.59-17.38,76.19-20.4S209.69,888.41,203.63,877.8Zm-439-72.54a58.23,58.23,0,0,0-.48-7.45c1.72-2,3.41-3.86,4.87-5.37C-233.48,799.36-235.35,805.26-235.35,805.26Z"/>
      </g>
    </g>
  </g>
  <g class="cls-30">
    <g class="cls-31">
      <rect class="cls-1" x="-105.9" width="7096.47" height="900"/>
    </g>
  </g>
</svg>
