<svg id="Layer_1" data-name="Layer 1" xmlns="http://www.w3.org/2000/svg" xmlns:xlink="http://www.w3.org/1999/xlink" width="72" height="54" viewBox="0 0 72 54">
  <defs>
    <style>
      .cls-1, .cls-7 {
        fill: none;
      }

      .cls-2 {
        opacity: 0.3;
      }

      .cls-3 {
        fill: #666;
      }

      .cls-3, .cls-4, .cls-5, .cls-6, .cls-7 {
        fill-rule: evenodd;
      }

      .cls-4 {
        fill: #e50303;
      }

      .cls-5 {
        fill: red;
      }

      .cls-6 {
        fill: #fff;
        opacity: 0.46;
      }

      .cls-7 {
        stroke: #491a07;
        stroke-miterlimit: 10;
      }

      .cls-8 {
        clip-path: url(#clip-path);
      }

      .cls-9 {
        fill: #6de2fe;
      }

      .cls-10 {
        fill: #387f69;
      }

      .cls-11 {
        fill: #42b236;
      }

      .cls-12 {
        clip-path: url(#clip-path-2);
      }

      .cls-13 {
        fill: url(#linear-gradient);
      }

      .cls-14 {
        opacity: 0.35;
      }

      .cls-15 {
        clip-path: url(#clip-path-3);
      }

      .cls-16 {
        clip-path: url(#clip-path-4);
      }

      .cls-17 {
        fill: url(#linear-gradient-2);
      }

      .cls-18 {
        fill: url(#Dégradé_sans_nom_156);
      }

      .cls-19 {
        fill: #244c0a;
      }

      .cls-20 {
        clip-path: url(#clip-path-5);
      }

      .cls-21 {
        clip-path: url(#clip-path-6);
      }

      .cls-22 {
        fill: url(#linear-gradient-3);
      }
    </style>
    <clipPath id="clip-path">
      <rect class="cls-1" x="-1558.62" y="-314.35" width="1280" height="720"/>
    </clipPath>
    <clipPath id="clip-path-2">
      <path class="cls-1" d="M-231.61,57.56c.13,4.19,2.22,13.79-3.13,14.71s-13.26-9-14.75-13.71c-.93,7-.9,8.28-6.92,6.38-4.32-1.36-7.45-4.79-11.83-5.93-.72,1.24-10.58,14.48-10.29,14.57a9.12,9.12,0,0,1-5.58-6.19c-4.19,2.19-7.51,6.94-10.52,10.6-3.38-1.58-4.93-5.63-7.36-7-1.09,4.72-30.33,8.82-21.74-.63C-330.4,73.9-337.44,77-345,74c.14-.94,0-1.86,0-2.78,0,.57-10.66,8.36-11.78,8.55-4.64.79-7.66-3.07-7.54-7.35-1.75,4.55-4.82,10.49-10.15,6.75-3.46-2.43-2.6-7.75-3-11.28-2.58,1.15-10.26,12.83-15.09,11.5-5.45-1.51-6.23-20.92-10.95-12.59-6.4-2.23-9-11-13.67-13.05,3.35,2.73-3,14.83-5.66,16.85-4,3-10.92,7.68-15.4,4.56s-5.23-11-5.62-16.83c-1.16,5.46-3.4,9.32-6.44,12-1.9,1.67-5.41-5.67-5.65-6.61-3.53,1.77-4.19-2.91-4.38-5.71-3.78,5.85-6.69,15.82-15.56,14-9.16-1.89-8.77-11.62-9.62-20.5-.64,5.77-.92,14.25-4.58,18.85-4.25,5.36-11.2,1.34-11.62-6.29-.43,2.77-1.27,9.1-4.76,9.93-3.83.9-5-4.86-6.81-7.35-1.47,3-3.33,8.48-7.87,8-8.3-.89-4.88-15.28-12.35-5.53-4.16,5.43-4.82,7.22-10.81,1.73-4.87-4.46-9-11.62-14.53-15-.56,4,5.14,13.62-1.83,15.41-3.53.89-7.43-4.67-9.87-6.69-.52,5.67.11,8.19-5.75,6.65-1.61-.42-5-4.07-6.37-3.91-6.91.79-8.79,14.09-16.75,15.27-4-4.47-3.4-14.63-6.93-17.17,3.83,6.15-17,10.37-23.44,5.52-3.08-2.31-4.11-7.26-4.45-10.81-6.38,6-4.29,13.67-6.94,20.83-4.87.31-6.82-7.16-9-10.6-.73,4.93-5.72,6.87-8.32,2-4,9.13-11.06-.18-10.88-6.6-5.22,17.58-17.29-3-19.13-11.36.34,8.87-3.73,13.95-7.8,17.49-1.35-2.89-3.75-5.27-3.87-8.53-1.84,1.23-6.21,14.19-6.75,14.15-2.74-.28-4.56-3.19-6.25-5-9.47,8.3-16.36-2.2-19.24-12.39-.84,4.57-12.73,7-7,13.85-4.68-2.92-7.57-6.47-11.52-8.84,0,0-.76,5.49-.8,6-2.85.58-5.13-1.71-5.59-4.58-.12-.65-2.6.51-4.94,1.67a23,23,0,0,1-4.15,1.86c-4.43-.25-5-6-.68-7-4.5-.37-11,6.61-12.45,7-5.46,1.18-11.78-7.14-14.86-9,1.88,2.4-1.25,9.33-5.6,10.3-7,1.58-11.49-7.14-14.39-10.22-5,1.55-7,6.36-8.93,9.68-3.5.5-5.76-1-6.23-3.27-2.93,1.86-3.24,8.44-9.9,9-.39,0-5.82-9.06-6.94-10a10.68,10.68,0,0,0-3.64,7.77c-6.33-2.39-13.84,2.46-17.6,7.69-6.18-.58-5.5-12.72-5.27-16.65-.79,2.25-4,12.18-7.58,12-3.36-.16-4.58-5.84-4.52-8.3-2.33,4.35-3.85,5.45-6.55,3.36-2.3-1.78-5.46-9-8.41-11.73.87,3.3-5.58,15.71-7.25,16.15-4.87,1.28-8.17-8.19-9.06-11.25-.53,3.66-1.36,13-6.59,13.41-3.3.23-5-4-7.34-5.85-6.27,9.45-15.17,4.4-15.58-6.21C-953,72.3-952.06,81.83-956,83.78c.16-3-8.4-14.86-8.87-14-1.9,3.24-.42,11-1,14.87.16-1.06-19.11-16.24-24.34-20.59,8.77,10.45,3.79,26.39-6.26,14.24-.15,5.16-.33,12.32-6.49,6.62-2.21,2.19-2.7,5.47-6.43,5.31-6-.29-10.24-14.25-10.9-20.43-.33,3.6-.86,10.62-4,11.83-2.65,1-5.45-1.82-8.13-1.89a10.44,10.44,0,0,0-3.91.93,10.16,10.16,0,0,1-4.41.9c-.3-3.13,0-6.33-.47-9.49-1.42,3.71-3.48,8.22-7.09,11.48-2.12-9.65-4.07-24.25-10.24-32.24.57.72.09,10.93.14,12.47.23,7.21-1.44,13.61-6.51,19.05-14.05,15-21.12-6.94-25.92-17,.66,7.11-3,17.49-8.65,22-1.82-1.65-3-4.08-4.21-6.32-4.23,8.39-6.45,9.52-12.69,3-3.06,7-8.71,4.28-11.36-1.4-2.22-4.76-1.14-10.51-3.09-15.43-6,3.59-12,13.84-13.84,20.56-2.1.32-3.83-.53-5.45-1.37s-3.21-1.73-5-1.36c-3.23.7-5.18,6.75-8.68,8-6.36,2.31-5.76-5.75-11-6.55-2.25-.33-3.91,1.06-5.66,2.44-1.94,1.54-4,3.08-7,2.26-6.07-1.61-10.49-12.2-13.7-16.84.07,8.75.28,15-10.51,15.76a6.3,6.3,0,0,1-2.59-.36,4.76,4.76,0,0,0-3.32-.14c-5.36,1.58-15.25,9.35-20.58,7.13-4-1.63-5.16-11.29-5.89-15.64,0,6.5-5.66,21.27-10.42,8.93-4,3.37-5.48,5.18-11.11,5.82-3.2.36-7.85-6.52-10.47-16.1-2.55,2.88-1.3,12-8,11-5.83-.84-7.18-8.93-10.08-11.76-1.47,2.16-6.08,7.14-8,6.46,1.36-10.2-3.9-15.43-6.72-18.21,4.57,12.71-10.19,20.55-20.51,25.79-.06-.87-4.62-4.86-4.84-5.84-6.73,7.17-9,.16-14.9-2.46-.49,1,.4,5-3.46,5.78.28-2.85-2.57-7.65-3.14-10.28-2.91.89-1.81,7.35-3.36,7-5.12-12.63-7.54-10.7-8.7-14.51,0,9.52-4.16,16.28-3.87,24.66a10.7,10.7,0,0,1-3.53-11.2c-2.55,5.51-8.75,12.11-14.19,6.87-1.79-1.73-2.07-6.17-2.74-8.5-1.63,5.88-6.08,14.47-13.17,15-7.54.54-10.49-7-11.13-13.8-.51,5.25-1.86,12.36-7.46,13.93-4.3,1.21-9.79-2-11.24-7.8-.06,2.51-8,6.35-9.75,7.7-3.68,2.78-8,5.79-9.22,10.45-4.25-4.31-7.12-15.86-3.48-23.13-3.52,4.46-6.13,13.61-10.74,11.59-2.22-1-7-12.21-4.72-15-4.16,2.16-10.6,9.11-11.7,14.54-1.67-1.06-2.72-3-3.55-5-2.82,3.47-4.91,8.66-10.12,9-1.31-2.34-1.88-5.43-.64-7.71-1.67,1.59-2.85,6.47-6.78,7.44-.81-6-2.89-11.09-1.3-17.43-4.06,6.9-8,8-10.87,10.66-3.83,3.43-6.71,8.32-11.74,10s-5.41-5.46-5.29-10.14c-2.67,3.66-6.54,8.06-10.77,9.93-.21-1-1.23-2-1.38-3.14a18,18,0,0,1-6.77,1,17.22,17.22,0,0,0-.78-2.12c-2.88,1.81-12.09,6.32-15.52,5.09-8.25-3-4.73-14.9-1.31-19.78-3.83,3.38-11.24,6.48-15.31,11.36-2.7,3.24-3.06,6.38-7.53,7.75-2.08-4.36-3.66-9.73-2.94-14.57-2.91,4.1-16.78,18.5-18.54,5.93-1.46,3.16-4,8.38-7.64,9.78-2.95,1.15-4.8-.58-5.94-2.3-.9-1.36-1.37-2.72-1.57-2.68-4.83,1.08-5.45-2.71-5.09-6.74-2.07,3.22-2.09,6.92-5.52,7.58a2.83,2.83,0,0,1-2.62-1c-.68-.61-1.29-1.22-2.31-1-1.23.29-2.51,2.89-4.36,6.27l-.75,8.15,1775.15.59V71.73a13.32,13.32,0,0,1-3.57,2.5c-8,4-10.06-1.93-13.9-8,3.11,9.59-10.55-3-12.45-3.44C95.52,67.31,82.2,67.7,79.24,67c-1.2-5.47-5.44-8.65-9-12.78-.18,3,3.39,12,.2,14.13-2.78,1.86-5.92-3.57-7.53-5.16-2.47,4.23-5.87,4.39-11.14,2.15.38,2-6.17,2.65-6.44,2.52-2.71-1.41-8.38-1.09-10.44-2.81-2.91-2.4-2.92-6.4-1.84-9.83-2.44,1.76-9.13,7.91-11.41,9.52-5.68-7.28-8.48-.32-14.33,2.09-7.21,3-11.24-3.12-10-11.74-2.82,8-15.3,21-18.93,9.48-3.15,4.67-2.56,7.89-8.11,2.46-3.52-3.44-5.48-8.47-9.79-11.72-.11,2.59,1.32,9.34-1.67,10.82s-6.59-3.41-6.45-6.24c-2.58,4.22-6.34,9.22-9.47,2.24-.59,7.08-7.47,7.8-10.1,2.18-.6,4.14-3.74,5.48-6.35,2.8-2.33-2.42-.94-9-.25-12.35-2.82,7.29-7.41,16-13.65,10.11-.49-.45-5.46-3.83-3-12.39-6.62,4.19-4.92,9.56-14.22,5.77A23.2,23.2,0,0,1-113,51.77c-.85,2-1.57,6.5-4,7.89-1.78,1.05-4.19.33-6-.38a12.13,12.13,0,0,0-2.55-.92c-3.08.27-4.58,2.69-8.19,3-2.61.18-8.73.79-10.87-.4s-2.55-5.74-3.12-7.8c-.14,2.2-1.54,8.62-5.85,8.22-1.81-.16-3.31-2.66-6.37-2.87.88.17.15,3.8-2,3.77-5.59,0-10-4.7-11.79-9.62-3,6.45-5.3,17.5-11.6,21.31-3.74-3.66-3.7-11.7-5.19-16.38-5,8.36-11.89,13.34-12.14-1.09-.84,3.47-1.35,4.94-3.49,6.1-1.66.92-1.43-11.09-1.75-12.11-2.8,11.38-18.35,22.77-23.74,7.12"/>
    </clipPath>
    <linearGradient id="linear-gradient" x1="-11491.82" y1="506" x2="-11488.24" y2="506" gradientTransform="matrix(1757.78, 0, 0, -10056.11, 20198005.41, 5088471.64)" gradientUnits="userSpaceOnUse">
      <stop offset="0" stop-color="#63dca9"/>
      <stop offset="0.08" stop-color="#4aba8c"/>
      <stop offset="0.19" stop-color="#2f966d"/>
      <stop offset="0.29" stop-color="#1b7a56"/>
      <stop offset="0.39" stop-color="#0c6645"/>
      <stop offset="0.5" stop-color="#035a3a"/>
      <stop offset="0.6" stop-color="#005637"/>
      <stop offset="1" stop-color="#005637"/>
    </linearGradient>
    <clipPath id="clip-path-3">
      <rect class="cls-1" x="-2001.29" y="-398.9" width="2041.68" height="513.84"/>
    </clipPath>
    <clipPath id="clip-path-4">
      <rect class="cls-1" x="-2001.29" y="-398.9" width="2041.69" height="513.84"/>
    </clipPath>
    <linearGradient id="linear-gradient-2" x1="-11490" y1="508.79" x2="-11488.99" y2="508.79" gradientTransform="matrix(0, 1611.79, 1611.79, 0, -821039.75, 18518958.88)" gradientUnits="userSpaceOnUse">
      <stop offset="0" stop-color="#08f"/>
      <stop offset="0.04" stop-color="#08f"/>
      <stop offset="0.13" stop-color="#2399e8"/>
      <stop offset="0.42" stop-color="#96cf9b"/>
      <stop offset="0.63" stop-color="#dff26b"/>
      <stop offset="0.72" stop-color="#fbff58"/>
      <stop offset="1" stop-color="#fbff58"/>
    </linearGradient>
    <linearGradient id="Dégradé_sans_nom_156" data-name="Dégradé sans nom 156" x1="-10433.24" y1="8.49" x2="-10412.74" y2="-169.24" gradientTransform="matrix(-1, 0, 0, 1, -10780.11, 0)" gradientUnits="userSpaceOnUse">
      <stop offset="0" stop-color="#769d1a"/>
      <stop offset="1" stop-color="#477411"/>
    </linearGradient>
    <clipPath id="clip-path-5">
      <rect class="cls-1" x="-1531.75" y="3760.32" width="1280" height="720"/>
    </clipPath>
    <clipPath id="clip-path-6">
      <rect class="cls-1" x="-1691.75" y="3670.32" width="1600" height="900"/>
    </clipPath>
    <linearGradient id="linear-gradient-3" x1="-6508.74" y1="5772.29" x2="-6508.74" y2="-1211.55" gradientUnits="userSpaceOnUse">
      <stop offset="0" stop-color="#a4f2ff"/>
      <stop offset="0.23" stop-color="#69e3ff"/>
      <stop offset="0.45" stop-color="#34d5ff"/>
      <stop offset="0.57" stop-color="#1fd0ff"/>
      <stop offset="0.65" stop-color="#25c3ff"/>
      <stop offset="0.81" stop-color="#36a2ff"/>
      <stop offset="1" stop-color="#4d73ff"/>
    </linearGradient>
  </defs>
  <g>
    <ellipse class="cls-2" cx="38.53" cy="44.92" rx="20.03" ry="6.18"/>
    <g>
      <g>
        <g>
          <path class="cls-3" d="M24.26,27.2a10.75,10.75,0,0,0-7.39-.87,3.24,3.24,0,0,1-1.3.17,1.28,1.28,0,0,1-.53-.21,1,1,0,0,1-.36-.44.94.94,0,0,1-.06-.55.87.87,0,0,1,.26-.49,1.62,1.62,0,0,1,.82-.4,8.58,8.58,0,0,1,6.29,1A10.27,10.27,0,0,1,24.26,27.2Z"/>
          <path class="cls-4" d="M49,35.69a9.3,9.3,0,0,1-1.49,5,13.83,13.83,0,0,1-3.76,3.63A21.79,21.79,0,0,1,34.46,48a16.24,16.24,0,0,1-9.8-1.55A13.15,13.15,0,0,1,19.07,41a11.12,11.12,0,0,1-1-7.74,10.29,10.29,0,0,1,5.36-6.62,10.31,10.31,0,0,1-.7-5.93,10.18,10.18,0,0,1,2.75-5.3,11.29,11.29,0,0,1,6.63-3.18,14,14,0,0,1,7.3,1.17c4.57,2,7.94,6.12,10.2,10.57a14.15,14.15,0,0,1,1.61,4.68A9,9,0,0,1,49,35.69Z"/>
          <path class="cls-5" d="M47.51,38.42a8.46,8.46,0,0,1-3.16,3.15,16,16,0,0,1-4.18,1.65c-4.24,1.12-8.89,1.24-12.89-.55a11.53,11.53,0,0,1-5.08-4.2,8.19,8.19,0,0,1-1.11-6.4A7.14,7.14,0,0,1,25,27.47a8.77,8.77,0,0,1,.3-10.18,9.61,9.61,0,0,1,4.34-3.17A12.36,12.36,0,0,1,35,13.43a15.47,15.47,0,0,1,8.72,3.8,18.41,18.41,0,0,1,5.25,8,13.34,13.34,0,0,1,.58,7.44,10,10,0,0,1-1.28,3A6.94,6.94,0,0,1,47.51,38.42Z"/>
        </g>
        <path class="cls-6" d="M27.32,26.35s2.17-4.65-.1-8.26c0,0,8.26-3.38,13.42,3.82C40.64,21.91,32.2,20,27.32,26.35Z"/>
      </g>
      <path class="cls-7" d="M32.15,12.21a11.29,11.29,0,0,0-6.63,3.18,10.15,10.15,0,0,0-2.14,11,10.18,10.18,0,0,0-1.39-1,8.58,8.58,0,0,0-6.29-1,1.62,1.62,0,0,0-.82.4.87.87,0,0,0-.26.49.94.94,0,0,0,.06.55,1,1,0,0,0,.36.44,1.28,1.28,0,0,0,.53.21,3.24,3.24,0,0,0,1.3-.17,10.79,10.79,0,0,1,6.36.41,10.35,10.35,0,0,0-5.12,6.5,11.12,11.12,0,0,0,1,7.74,13.15,13.15,0,0,0,5.59,5.51A16.24,16.24,0,0,0,34.46,48a21.79,21.79,0,0,0,9.26-3.76,13.83,13.83,0,0,0,3.76-3.63,9.3,9.3,0,0,0,1.49-5,9,9,0,0,0,2.29-7.06A14.15,14.15,0,0,0,49.65,24C47.39,19.5,44,15.41,39.45,13.38A14,14,0,0,0,32.15,12.21Z"/>
    </g>
  </g>
  <g class="cls-8">
    <path class="cls-9" d="M489.41,333.5l0-92.72V210.41l-.13-458.67,0-147.62-15622.49.31.07,186.16h0l0,129.3v105l0,63.92v1.62c1.21.12,1.78,4,2,9.52.19,5.81,0,13.53-.41,20.89s-.83,14.12-1.15,18.58h0c-.19,2.48-.35,4.21-.38,4.84v0a1.22,1.22,0,0,0,0,.23s0,0,.06.05c.42.58,5.25,6.79,7.85,7.15l0,89.05,0,59.93c4.38,15.44,6.54,30.05,2.35,46.16q-1.14,4.36-2.34,8.73l0,140.52v8h237.47L142,503.82H481.53l0-163.81h7.91Z"/>
    <path class="cls-10" d="M122.62-80.81V377.7H-3365.56V-16.09a2.23,2.23,0,0,1,.34.12,43.1,43.1,0,0,1,10.08,2c.49.17,1,.35,1.44.55,2.52,1.07,4.53,2.49,5.49,4.14l.38-.06h.06c0-.09-.05-.18-.06-.26v0a8.4,8.4,0,0,1,.08-4.61h0a8.67,8.67,0,0,1,1.11-2.27,15.26,15.26,0,0,1,8.57-5.37c5.27-1.45,11.6-1.13,17.4-.51l.22-.31a23.94,23.94,0,0,1-10.75-5.12c-1.16-1.07-2-2.28-1.94-3.51A2.21,2.21,0,0,1-3333-32c.74-2.18,4.47-3.9,8.52-4.54a46.3,46.3,0,0,1,9.8-.27q.48,0,1,.06l1.29.08,1.55.12.52-.91a18,18,0,0,1-2.07-.72c-.29-.11-.58-.24-.85-.37s-.49-.23-.72-.36c-3.3-1.76-5.18-4.33-4.64-6.84.44-2,2.2-3.8,4.19-5.48.65-.54,1.32-1.08,2-1.6s1.49-1.07,2.27-1.59a.71.71,0,0,1,.14-.1c.8-.53,1.63-1,2.49-1.55s1.9-1.08,2.91-1.59l-.17-.21-4.11,1-.85.22h0c-.87.23-1.75.46-2.63.67l-9.87,2.53c-5.38,1.37-11,2.77-16.89,2.74a27.35,27.35,0,0,1-8.2-1.25c-2.65-.87-4.7-2.17-5.36-3.8-1-2.29,1-4.72,4.09-6.4.27-.14.55-.29.83-.42a51.58,51.58,0,0,1,10.23-3.25c8.19-2,16.6-3.68,25.17-5.1,1.51-.26,3-.51,4.55-.73l2.33-.37-.35-.7c-.62.08-1.26.13-1.9.16a28.82,28.82,0,0,1-4.63-.25,41.38,41.38,0,0,1-4.38-.87c-6-1.54-11.51-4.39-11.94-8-.22-1.79.87-3.57,2.42-5.17,3.08-3.16,8-5.78,13.9-7.38.57-.16,1.15-.31,1.75-.44l.48-.46.3-.28-.41,0-2.12-.21a56,56,0,0,1-14.36-3.24c-4.88-2-8.62-4.94-9-8.23-.46-3.47,3-6.8,8.14-8.88h0a29.9,29.9,0,0,1,6.47-1.77,40.2,40.2,0,0,1,8.07-.44l.69,0a46.6,46.6,0,0,1,11.25,2l.38.11c.69.23,1.37.46,2,.71s1.53.62,2.24,1c-.29-2.39,1.23-4.6,3.76-6.56h0a26.47,26.47,0,0,1,4.24-2.64h0c1-.5,2-1,3-1.42s2.09-.86,3.16-1.24c.57-.2,1.15-.41,1.74-.6a43.58,43.58,0,0,1,9.25-2.15h0a3.78,3.78,0,0,1,.47-.06,31.75,31.75,0,0,1,5.85,0,20,20,0,0,1,6.14,1.47,8.09,8.09,0,0,1,4.38,4.1,8.41,8.41,0,0,1,.31,5.24,17.84,17.84,0,0,1-1.92,4.71l1.74.53a39,39,0,0,1,11.75-6.17l1.11-.32a32.88,32.88,0,0,1,4.95-.93,29.16,29.16,0,0,1,9.87.47,16.77,16.77,0,0,1,2.08.63,10.48,10.48,0,0,1,4.41,2.9,4.72,4.72,0,0,1,1,1.79c.52,1.84-.39,3.77-2.45,5.26l1.29.51,4.71-1.84a35.34,35.34,0,0,1,10.83-2.86,14.72,14.72,0,0,1,7.92,1.53c-1-7.13,4-14.46,13.43-19.44a28.79,28.79,0,0,1,15-3.56c6.82.43,11.77,4,12.9,7.69s-.71,7.38-2.66,11a15.84,15.84,0,0,1-2.35,3.51l.5.13q5.31-2.14,10.58-4.27a24.4,24.4,0,0,1,5.36-1.68c5.32-.87,10.79,1,15,3,5.51,2.65,10.61,5.94,11.57,9.92,4-5,15-8.14,24.94-7l.5-.33c-5.68-2.56-10-6.16-10-10.12s4.27-7.5,10.24-9.6,13.41-2.74,20.47-2.32h2.18c-3.51-2.89-6.62-6-7.6-9.46s.43-7.2,5-9.65a30.48,30.48,0,0,1,10.22-2.85c8.15-1,17.29-.18,23.72,2.7,5.89,2.65,9.11,7,7.76,11a43.16,43.16,0,0,1,15-8.07,50.41,50.41,0,0,1,17.07-2.56c6,.24,12,2,14.7,4.87s1.94,6.42.28,9.54a33.4,33.4,0,0,1-9.07,10.44l.61.23a53.53,53.53,0,0,1,8.24-2.9,24,24,0,0,1,9.6-.42c4.31.78,7.06,3,9.48,5.12,2.2,1.91,4.44,3.88,5.39,6.08s.5,4.45.06,6.68l-.11.5a4.7,4.7,0,0,1-1.59,2.83,57.27,57.27,0,0,1,16-5.71s0,0,0,0h0a77.25,77.25,0,0,1,13.17-1.56l.22-.06c-2-1.79-3.38-3.75-3.67-5.81-.28-2.27,1-4.66,3.93-6.26s7.19-2.26,11.33-2.32a98.62,98.62,0,0,1,12.3.86,3.49,3.49,0,0,0,1.37,0,1.29,1.29,0,0,0,.7-.6c1.81-2.82,3.42-5.85,7.29-8s10.79-3.06,14.88-1a8.61,8.61,0,0,1,2.94,2.43,18.91,18.91,0,0,1,3.34,5.45,14.79,14.79,0,0,1,5.49-6.28,28.69,28.69,0,0,1,15-4.66c6-.17,12.23,1.8,13.84,4.9a4.17,4.17,0,0,1,.35,2.78l1.22-.17c8.61-2.14,20,0,24.35,4.59a37.63,37.63,0,0,1,20.58-10.61c9-1.58,20.3.06,24.75,4.54a16.86,16.86,0,0,1,1.5-6.45c2.83-5.66,11.42-10.27,21.67-12.17a72.62,72.62,0,0,1,31.48,1.47c7.59,2.11,14.55,6.09,13.8,10.68-.3,1.82-1.79,3.52-3.42,5.1a27.73,27.73,0,0,1-11.36,6.89l.09.07c5.28-.73,11-.95,16,.17s9.1,3.85,8.72,6.78a6,6,0,0,1-1.08,2.44,15.89,15.89,0,0,1-3.19,3.49h0a19,19,0,0,1-2.69,1.79,23.06,23.06,0,0,1-8.57,2.54c2.14.24,4.25.49,6.39.72a52.67,52.67,0,0,1,10.59,2c3.16,1.1,5.63,3,5.3,5a5.17,5.17,0,0,1-2.18,2.86c-3.6,2.74-9.59,4.32-15.7,4.89a114.52,114.52,0,0,1-18.42-.2l-.06.29a65.65,65.65,0,0,1,11,2.57c3.05,1,6,2.36,7,4.23.9,1.59.2,3.34-1.17,4.81-3.49,3.71-10.77,5.84-17.75,7.55a49.16,49.16,0,0,1-11.2,1.74,52.29,52.29,0,0,1-13-1.88l-.58.74a19.58,19.58,0,0,1,7.63,3.64,24.58,24.58,0,0,1,5.16,4.28c1.18,1.46,1.7,3.15.92,4.68l2.55.46c2.18-4.77,11.64-8.22,20.65-7.55s16.32,5.43,16,10.36c2.72-1.86,7.6-2.36,12-2.17.85,0,1.69.1,2.51.18-12.94-7.74-18.07-18.78.33-26.39a49.47,49.47,0,0,1,31.23-2.41c12.49,3.13,22.31,10.78,26.48,18.42,5.82-5.58,20.62-8.72,31.78-6.07,1-6.74,14.79-10.62,26.12-8.56-9.88-7.92-18.85-20-6.77-28.72,9.52-6.94,29.78-5.34,40.13,0,12.21,6.3,14.5,16.21,16.13,24.81,5.8-5.53,16.83-9.84,29.08-9.18-8.1-6.69-9.24-15,.94-21.29,10.75-6.65,29.69-8.92,39.44-.41,3-7.49,13.67-13.85,28.47-14,31.18,0,38.09,21.46,31.57,34.15,8.92-3.36,15.9-2.92,21.09-.56A20.71,20.71,0,0,1-2353-92.63h0a17,17,0,0,1,.41,4l1.2-.78c4.62-3,11.27-6.84,18.81-5.8-3.27-11-.7-21.82,21.63-26,11.85-2.23,20.39,0,25.1,4.05a11.36,11.36,0,0,1,3,14.09c15.11-8.33,38.89-9.31,47.55,1.25a36.58,36.58,0,0,1,4.16-1.85c22-8.51,37.79,3.1,51.51,12,1.14.74,2.26,1.45,3.37,2.14-2.05-7.61,2.72-20.88,22.46-22.48s27.88,11.18,33.76,20.76c15-12.29,30.39-5.66,37.89,1.72,2-4.8,8.62-17.44,22.22-21.87s34-5.88,49.66-5.27c-11.12-4.91-18.59-17.8-9.74-23.34s24.94-3.19,41.94,5.05c-3.18-9.7,2.27-27.38,30.18-26.52s27,25.16,20,35.59c1-.36,23.44-9,42.56-.23-2.58-11.51-4.47-27.75,21.91-35.39a33.71,33.71,0,0,1,8.26-1.35h0c16.57-.63,28.67,11.53,33.47,17.33,1.49,1.8,2.28,3,2.28,3l2-1.45h0c14.91-11.21,36.9-29.92,63.46-24.23,19.82,4.23,23.29,18.74,15.87,32.86a45.76,45.76,0,0,1-4.51,6.87,57.63,57.63,0,0,1-9.31,9.21c11.14-2.21,29.48,1.31,22.78,13.65l.75-.63c7.07-5.9,17.83-11.27,34-7,14.51,3.85,11.14,17.62,11.14,17.62,18.31-19.11,44.16-36.9,68.14-30.6,18,4.73,13.63,18.36,1.6,33.78a181.21,181.21,0,0,1-12.19,13.86c.72-.21,14.11-4,24.4-2.85a20,20,0,0,1,6.41,1.66c10.11,4.82-1.37,12.52-7.7,18.45-3.36,3.14-5.56,6.22-5.61,8.54-.06,2.07,1.58,3.56,5.61,4,2.45.26,6.53-.32,11.38-1.19h0c8.69-1.57,19.86-4.05,28.51-4.27-4.5-6.3-3-13.16,9.68-18.39a50.33,50.33,0,0,1,14.26-3.63c20.19-2.07,37.51,8.8,43.44,19.64,5.82-5.57,20.61-8.72,31.77-6.05.88-5.69,10.82-9.36,20.71-9.1,0,0,0,0,0,0a34.55,34.55,0,0,1,5.4.54q-.84-.66-1.65-1.38c-9.17-7.88-16.51-19.06-5.11-27.35,9.53-6.93,29.78-5.35,40.13,0,12.22,6.27,14.5,16.19,16.14,24.8,5.8-5.55,16.81-9.86,29.06-9.18-8.09-6.71-9.24-15,.94-21.31,10.75-6.63,29.71-8.89,39.44-.41,3-7.48,13.68-13.83,28.47-14,31.19,0,38.08,21.45,31.59,34.16,23.06-8.7,33.18,8,32.87,17.74,4.65-3,11.82-7.71,20-6.59-3.1-10.4-.92-20.73,18.44-25.32-1.24-6.11.74-12.39,6.76-17.88,5.6-5.12,15.78-9,27.09-7.88a30.61,30.61,0,0,1,9.43,2.36c7.11,3.06,11.46,8.41,12.92,13a38.24,38.24,0,0,1,15.17-5.68c-9.24-6.1-1-13.72,9.69-18a51.47,51.47,0,0,1,9-2.73c-23.39-5.56-43.82-23-18-33.66s50.43,2.66,57.71,16c2.34-2.24,6.13-4.1,10.57-5.33a44.31,44.31,0,0,1,21.22-.72c1-6.74,14.77-10.64,26.12-8.57-9.88-7.92-18.84-19.94-6.79-28.73,9.53-6.93,29.78-5.35,40.14,0,12.21,6.28,14.5,16.19,16.13,24.8,5.8-5.54,16.83-9.85,29.09-9.17-8.12-6.72-9.25-15,.93-21.32,10.75-6.63,29.7-8.9,39.44-.41,2.47-6.19,10.21-11.61,21.18-13.36h0A46.7,46.7,0,0,1-852-218c29.88,0,37.48,19.71,32.31,32.52h0c-.22.56-.47,1.09-.74,1.62.69-.26,1.36-.49,2-.71h0c21.64-7,31.15,9,30.88,18.46,4.62-3,11.79-7.7,20-6.58-3.27-11-.69-21.83,21.63-26,22.67-4.27,33.2,7.61,28.12,18.15,16.79-9.27,44.3-9.44,49.87,5.17,3.17,8.35-.74,17.39-8.26,25.32h0a71.29,71.29,0,0,1-17.55,13.14c17.84-.87,36,2.51,50,8.44-.9-3.44-2-7.76,2.81-10.49,5.43-3.11,15.33-3,22.28-2,11,1.56,16.57,5.77,20.08,11.11,1.22-.18,2.44-.33,3.62-.4a56.72,56.72,0,0,1,34.29-11.13c10.4,0,19.86,2.16,25.16,6.43a35.81,35.81,0,0,1,5.28-.77c7.73-.64,13.69.95,18.43,3.67,7.36,4.24,11.78,11.25,15.36,17.07,15-12.27,30.39-5.66,37.87,1.72,2-4.79,8.63-17.44,22.23-21.85,11.58-3.76,28.09-5.39,42.4-5.42h0c2.51,0,4.94,0,7.27.14a26.11,26.11,0,0,1-3.42-1.83,24.69,24.69,0,0,1-8.71-9.16h0c-2.4-4.66-2.19-9.49,2.37-12.34,8.85-5.53,25-3.19,42,5-3.19-9.7,2.26-27.38,30.15-26.51s27,25.15,20,35.58c.94-.36,23.44-9,42.53-.23-2.57-11.49-4.44-27.74,21.94-35.39s44,19,44,19c7.93-5.84,18.11-14.43,30.1-20.29,10.49-5.14,22.36-8.17,35.32-5.39,27.73,5.92,23.46,32,2,48.95,11.14-2.22,29.45,1.3,22.78,13.64,7-6.12,18-12.07,34.77-7.61,14.5,3.85,11.12,17.62,11.12,17.62,18.34-19.1,44.19-36.91,68.17-30.61,23.31,6.13,9.07,27.17-10.59,47.64.89-.25,20.9-5.89,30.8-1.17C38.82-98.62,27.35-90.93,21-85a27.9,27.9,0,0,0-4.11,4.68c-2.36,3.57-2.18,6.51,2.4,7.55a14.9,14.9,0,0,0,1.71.28c8.57.93,37.18-8.53,48.67-4.45C80.15-73.2,83-66.83,82.81-59.23a16.86,16.86,0,0,1,3.31-1,21.91,21.91,0,0,1,3-.38,72,72,0,0,1,7.65-3.65,3.31,3.31,0,0,1,.09-1c.65-2.71,4.71-5.07,9.66-5.63a31.12,31.12,0,0,1,7.83.26l.82-.93a23.67,23.67,0,0,1-5.58-2c-2.7-1.52-4-4-2-5.81,2.88-2.53,9.59-2.17,15-1.36"/>
    <path class="cls-11" d="M168.24-1.37V326h-2272.7V44.85a1.09,1.09,0,0,1,.23.09,25.64,25.64,0,0,1,6.56,1.4,8.32,8.32,0,0,1,4.51,3.34l.29,0a6.47,6.47,0,0,1,.74-5.12,9.89,9.89,0,0,1,5.58-3.84c3.44-1,7.56-.81,11.34-.36l.14-.22a15,15,0,0,1-7-3.66,3.59,3.59,0,0,1-1.26-2.5c.13-1.78,2.76-3.19,5.64-3.68a35,35,0,0,1,8.86,0l.34-.66c-3.56-1.08-5.86-3.54-5.39-5.91a8.14,8.14,0,0,1,2.72-3.92,34.33,34.33,0,0,1,6.41-4.59l-.11-.14-11.41,3.2a40.42,40.42,0,0,1-11,1.95c-3.86,0-8-1.37-8.84-3.6-.62-1.64.67-3.38,2.68-4.57a28.4,28.4,0,0,1,7.2-2.63c6.76-1.78,13.75-3.26,20.88-4.42l-.23-.5a17.88,17.88,0,0,1-7.1-.69c-3.89-1.1-7.5-3.13-7.79-5.69a5,5,0,0,1,1.58-3.69c2.2-2.48,5.85-4.49,10.2-5.59l.51-.53a36.53,36.53,0,0,1-11-2.49c-3.18-1.39-5.61-3.52-5.88-5.87-.41-3.41,4-6.64,9.53-7.61a27.19,27.19,0,0,1,16.07,2.38c-.4-3.52,4.29-6.52,9.23-8.47a28.3,28.3,0,0,1,7.47-2,15.08,15.08,0,0,1,7.82,1c3.11,1.54,3.56,4.28,3,6.67a13.77,13.77,0,0,1-1.25,3.37l1.14.38a23.91,23.91,0,0,1,8.38-4.64c3.43-1,7.85-1.19,11,.13a5.56,5.56,0,0,1,3.53,3.34,3.67,3.67,0,0,1-1.59,3.75l.83.37,3.07-1.31a21.41,21.41,0,0,1,7.06-2.05,9,9,0,0,1,5.16,1.09c-.65-5.08,2.58-10.32,8.75-13.88A17.55,17.55,0,0,1-1976-40.1c4.44.31,7.67,2.87,8.4,5.49s-.47,5.28-1.73,7.82a11.42,11.42,0,0,1-1.53,2.51l.32.1,6.89-3.05a14.73,14.73,0,0,1,3.5-1.21c3.46-.62,7,.71,9.76,2.13,3.59,1.89,6.91,4.24,7.54,7.08,2.61-3.61,9.77-5.82,16.25-5l.32-.24c-3.7-1.83-6.53-4.4-6.53-7.22s2.78-5.36,6.68-6.85a32.59,32.59,0,0,1,13.33-1.66h1.42c-2.28-2.07-4.31-4.31-5-6.76s.28-5.14,3.24-6.89a18.6,18.6,0,0,1,6.66-2c5.31-.75,11.26-.13,15.45,1.93,3.84,1.89,5.94,5,5.06,7.87a27.45,27.45,0,0,1,9.79-5.76,30.21,30.21,0,0,1,11.12-1.83c3.89.17,7.78,1.42,9.57,3.48s1.27,4.58.19,6.81a23.53,23.53,0,0,1-5.91,7.46l.4.16a32.21,32.21,0,0,1,5.37-2.07,14.43,14.43,0,0,1,6.24-.31,12.26,12.26,0,0,1,6.18,3.66,13.5,13.5,0,0,1,3.51,4.35,8.56,8.56,0,0,1,0,4.76,3.8,3.8,0,0,1-1.1,2.38c5-3.05,11.91-4.95,19.06-5.19l.14-.05a7.53,7.53,0,0,1-2.39-4.15,4.65,4.65,0,0,1,2.56-4.47,15.77,15.77,0,0,1,7.39-1.66,60.91,60.91,0,0,1,8,.62,1.9,1.9,0,0,0,.89,0,.82.82,0,0,0,.46-.43c1.18-2,2.23-4.17,4.74-5.72s7-2.19,9.7-.73a5.7,5.7,0,0,1,1.92,1.73,13.6,13.6,0,0,1,2.17,3.89,10.35,10.35,0,0,1,3.58-4.48,17.63,17.63,0,0,1,9.81-3.33c3.87-.12,8,1.29,9,3.5a3.27,3.27,0,0,1,.22,2l.8-.12c5.61-1.53,13,0,15.86,3.27a24,24,0,0,1,13.41-7.57c5.87-1.14,13.23,0,16.13,3.24a12.88,12.88,0,0,1,1-4.61c1.84-4,7.44-7.33,14.11-8.69a43.32,43.32,0,0,1,20.52,1.06c4.94,1.5,9.47,4.34,9,7.62a7.52,7.52,0,0,1-2.23,3.64,17.9,17.9,0,0,1-7.4,4.92l0,0a28,28,0,0,1,10.46.13c3.28.79,5.92,2.75,5.68,4.85a4.61,4.61,0,0,1-.71,1.74,11,11,0,0,1-3.84,3.77,13.92,13.92,0,0,1-5.58,1.81l4.16.52a31.33,31.33,0,0,1,6.91,1.39c2.06.79,3.66,2.16,3.45,3.6a3.69,3.69,0,0,1-1.42,2.05c-2.35,1.95-6.25,3.08-10.23,3.49a66.86,66.86,0,0,1-12-.15l0,.21a40.56,40.56,0,0,1,7.18,1.84c2,.73,3.9,1.69,4.57,3a3.1,3.1,0,0,1-.76,3.44c-2.28,2.65-7,4.16-11.57,5.38a29.59,29.59,0,0,1-7.3,1.25,31.11,31.11,0,0,1-8.45-1.35l-.38.53a12.43,12.43,0,0,1,5,2.6,17,17,0,0,1,3.37,3.06A3.27,3.27,0,0,1-1693,7.8l1.66.33c1.42-3.41,7.59-5.87,13.45-5.39s10.64,3.87,10.43,7.39c1.78-1.33,5-1.68,7.8-1.54.55,0,1.09.06,1.63.12-8.43-5.52-11.77-13.41.22-18.84,16.86-7.64,32.85,1.91,37.6,11.43,3.79-4,13.43-6.23,20.71-4.33.68-4.81,9.63-7.58,17-6.11-6.43-5.66-12.29-14.25-4.42-20.51,6.21-5,19.41-3.81,26.16,0,8,4.49,9.44,11.57,10.51,17.71,3.77-4,11-7,18.94-6.55-5.28-4.79-6-10.72.62-15.21,7-4.75,19.34-6.36,25.69-.29,2-5.34,8.91-9.89,18.55-10,20.31,0,24.82,15.32,20.57,24.39,15-6.21,21.62,5.72,21.44,12.67,3-2.13,7.68-5.51,13-4.7-2.13-7.83-.45-15.58,14.09-18.57,14.78-3,21.64,5.43,18.33,13,9.84-5.94,25.34-6.64,31,.9a22.78,22.78,0,0,1,2.71-1.32c15.51-6.58,26.29,3.68,35.75,10.08-1.33-5.44,1.78-14.91,14.63-16s18.17,8,22,14.82c9.76-8.77,19.8-4,24.68,1.23,1.32-3.43,5.61-12.45,14.48-15.62s22.16-4.19,32.36-3.76c-7.25-3.51-12.12-12.71-6.35-16.66s16.25-2.28,27.33,3.6c-2.08-6.92,1.47-19.55,19.65-18.93s17.57,18,13,25.41c.61-.26,15.27-6.45,27.72-.17-1.67-8.22-2.91-19.81,14.28-25.26s28.68,13.54,28.68,13.54c9.71-7.81,24.54-22.58,42.62-18.33s15.29,22.83,1.34,34.94c7.26-1.58,19.2.93,14.84,9.74,4.59-4.37,11.72-8.6,22.66-5.43,9.46,2.75,7.26,12.58,7.26,12.58,11.93-13.64,28.77-26.35,44.4-21.85,15.2,4.38,5.92,19.38-6.9,34,.58-.18,13.63-4.21,20.07-.86s-.9,9-5,13.18-5.58,8.28,0,8.94c4.45.53,17.22-3.66,26-3.89-2.93-4.5-2-9.39,6.3-13.13,16.86-7.64,32.85,1.91,37.6,11.43,3.8-4,13.43-6.22,20.7-4.32.68-4.81,9.63-7.59,17-6.11C-854.62-.18-860.46-8.76-852.59-15c6.21-4.95,19.41-3.81,26.15,0,8,4.48,9.45,11.56,10.51,17.71,3.78-4,11-7,18.94-6.55-5.27-4.79-6-10.72.61-15.22,7-4.74,19.36-6.35,25.7-.29,2-5.34,8.92-9.88,18.55-10,20.32,0,24.81,15.32,20.58,24.39,15-6.21,21.62,5.73,21.42,12.67,3-2.13,7.7-5.5,13-4.7-2-7.43-.6-14.81,12-18.08-.81-4.37.48-8.85,4.4-12.77,3.65-3.65,10.28-6.39,17.65-5.63,8.3.85,13.24,6.43,14.56,11a23.72,23.72,0,0,1,9.89-4.05c-7.68-5.56,3.21-12.88,12.19-14.84-15.25-4-28.55-16.42-11.75-24s32.85,1.91,37.6,11.44c3.79-4,13.44-6.23,20.71-4.32.68-4.82,9.63-7.6,17-6.12-6.44-5.65-12.28-14.24-4.42-20.51,6.21-5,19.4-3.82,26.15,0,8,4.47,9.44,11.56,10.51,17.71,3.78-4,11-7,18.95-6.56-5.29-4.79-6-10.72.61-15.21,7-4.74,19.35-6.36,25.69-.3,1.95-5.34,8.91-9.87,18.56-10,20.31,0,24.81,15.31,20.56,24.38,15-6.2,21.62,5.74,21.44,12.67,3-2.13,7.68-5.5,13-4.7-2.13-7.82-.46-15.58,14.09-18.56,14.77-3,21.63,5.43,18.32,13,10.94-6.62,28.87-6.74,32.49,3.69,3.36,9.71-5.48,20.71-16.82,27.46a70.64,70.64,0,0,1,32.57,6c-.58-2.46-1.28-5.54,1.83-7.49,3.54-2.22,10-2.13,14.52-1.42,7.15,1.11,10.8,4.12,13.08,7.93.8-.13,1.59-.23,2.36-.29a34.9,34.9,0,0,1,22.34-7.94c6.78,0,12.94,1.53,16.39,4.59a22.09,22.09,0,0,1,3.44-.55c12.86-1.15,18.18,8,22,14.81,9.76-8.76,19.8-4,24.67,1.22,1.34-3.42,5.63-12.44,14.49-15.6s22.16-4.2,32.36-3.77c-7.25-3.51-12.12-12.71-6.36-16.65s16.26-2.28,27.34,3.59c-2.08-6.92,1.48-19.55,19.64-18.93s17.59,18,13,25.41c.61-.26,15.27-6.46,27.71-.17-1.67-8.21-2.9-19.81,14.29-25.26s28.68,13.54,28.68,13.54c9.7-7.81,24.54-22.58,42.63-18.34s15.28,22.84,1.33,35C12-47.31,23.92-44.8,19.58-36c4.57-4.36,11.71-8.61,22.65-5.43,9.45,2.75,7.25,12.58,7.25,12.58C61.42-42.48,78.27-55.19,93.89-50.69c15.19,4.38,5.91,19.39-6.9,34,.58-.17,13.62-4.2,20.07-.84s-.89,8.94-5,13.18-5.57,8.27,0,8.93,24.22-6.09,31.71-3.17c6.83,2.66,8.7,7.2,8.56,12.62a12,12,0,0,1,4.09-1,46.59,46.59,0,0,1,5-2.6,2.64,2.64,0,0,1,.05-.74c.43-1.93,3.07-3.63,6.3-4a18.56,18.56,0,0,1,5.1.18l.54-.66a14.57,14.57,0,0,1-3.64-1.46C158,2.67,157.09.9,158.44-.39c1.87-1.81,6.25-1.55,9.8-1"/>
    <g class="cls-12">
      <rect class="cls-13" x="-1651.57" y="50.44" width="1775.16" height="65.03"/>
    </g>
    <g class="cls-14">
      <g class="cls-15">
        <g class="cls-16">
          <rect class="cls-17" x="-2001.29" y="-398.9" width="2041.69" height="513.84"/>
        </g>
      </g>
    </g>
    <g>
      <path class="cls-18" d="M-740.41-218.79c.17-40.78,41.68-73.72,92.7-73.58,22.24.06,44.7,7.33,61.47,19.75a191.81,191.81,0,0,0,58.48,29.86c43.13,13.66,89.07,19.42,134.61,25.09l81.8,10.19c28.38,3.54,56.79,7.07,85.39,9,50.75,3.36,103.9,1.59,152.06,17.74,19.65,6.59,41.22,11.82,56.64,24.79C-1.47-142.7,7.41-124.23,7.33-105.35c-.17,38.8-36.65,70.16-81.49,70A91.15,91.15,0,0,1-110.73-43c-12.78,29-47.78,49.7-88.9,49.58-42.71-.11-78.63-22.7-89.83-53.48A107.93,107.93,0,0,1-324-41.36c-33.17-.09-62.05-14.8-77.44-36.57-16.95,17.7-43.68,29.09-73.72,29-22.63-.06-43.32-6.63-59.34-17.47a110.93,110.93,0,0,1-44.21,8.85c-51-.14-92.25-33.32-92.07-74.1a59.9,59.9,0,0,1,2-14.94C-709.95-154.16-740.56-183.64-740.41-218.79Z"/>
      <path class="cls-19" d="M-740.41-218.79c0-12.42,4.12-24.37,11.38-35.29,6.58-9.88,17.87-12.67,24.94-20.95-19.85,23.24-22.78,55.18-7.39,80.52,5.83,9.6,14,18.14,22.05,26.61l26.78,28.05c13.93,14.61,41.34,45.68,67.29,26.55-1.08.79,19.2,10.89,21.12,11.58a90.33,90.33,0,0,0,27.44,5.34c19.23.71,29.53-8.71,33.52-23.46,16.24,7.69,32.6,15.44,50.35,20.51a133.5,133.5,0,0,0,39.65,5.51c2.64-.07,32.39-2.7,31.28-6.44,4.41,14.85,20.25,23.73,36.42,30.11,14.39,5.68,29.56,10.46,45.48,12,9.51.92,30.22,2,36.39-5.82,26,27.71,75.68,35.53,117.42,26.75,17.93-3.78,37.38-12.62,39.64-27.44,20.22,9.4,46.15,10.32,67.33,2.4,34.51-12.92,48.9-47.59,46-76.51C6.2-131.85,7.37-115,7.33-105.35c-.17,38.8-36.65,70.16-81.49,70A91.15,91.15,0,0,1-110.73-43c-12.78,29-47.78,49.7-88.9,49.58-42.71-.11-78.63-22.7-89.83-53.48A107.93,107.93,0,0,1-324-41.36c-33.17-.09-62.05-14.8-77.44-36.57-16.95,17.7-43.68,29.09-73.72,29-22.63-.06-43.32-6.63-59.34-17.47a110.93,110.93,0,0,1-44.21,8.85c-51-.14-92.25-33.32-92.07-74.1a59.9,59.9,0,0,1,2-14.94C-709.95-154.16-740.56-183.64-740.41-218.79Z"/>
    </g>
  </g>
  <g class="cls-20">
    <g class="cls-21">
      <rect class="cls-22" x="-13104.59" y="-32.08" width="13191.7" height="5525.81"/>
    </g>
  </g>
</svg>
