<svg id="Layer_1" data-name="Layer 1" xmlns="http://www.w3.org/2000/svg" xmlns:xlink="http://www.w3.org/1999/xlink" width="1600" height="900" viewBox="0 0 1600 900">
  <defs>
    <style>
      .cls-1 {
        fill: none;
      }

      .cls-2 {
        clip-path: url(#clip-path);
      }

      .cls-3 {
        clip-path: url(#clip-path-2);
      }

      .cls-4 {
        fill: url(#linear-gradient);
      }

      .cls-5 {
        clip-path: url(#clip-path-3);
      }

      .cls-6 {
        clip-path: url(#clip-path-4);
      }

      .cls-7 {
        opacity: 0.21;
      }

      .cls-8 {
        clip-path: url(#clip-path-5);
      }

      .cls-9 {
        fill: #23490f;
      }

      .cls-10 {
        opacity: 0.56;
      }

      .cls-11 {
        clip-path: url(#clip-path-6);
      }

      .cls-12 {
        clip-path: url(#clip-path-7);
      }

      .cls-13 {
        fill: url(#radial-gradient);
      }

      .cls-14 {
        fill: #1c4c0b;
      }

      .cls-15 {
        fill: #123006;
      }

      .cls-16 {
        opacity: 0.33;
      }

      .cls-17 {
        fill: #fbf5b6;
      }

      .cls-18 {
        clip-path: url(#clip-path-8);
      }

      .cls-19 {
        clip-path: url(#clip-path-9);
      }

      .cls-20 {
        clip-path: url(#clip-path-10);
      }

      .cls-21 {
        clip-path: url(#clip-path-11);
      }

      .cls-22 {
        clip-path: url(#clip-path-12);
      }

      .cls-23 {
        clip-path: url(#clip-path-13);
      }

      .cls-24 {
        clip-path: url(#clip-path-14);
      }

      .cls-25 {
        fill: url(#radial-gradient-2);
      }
    </style>
    <clipPath id="clip-path">
      <rect class="cls-1" x="1445.25" y="-1090.68" width="1280" height="720"/>
    </clipPath>
    <clipPath id="clip-path-2">
      <rect class="cls-1" x="1285.25" y="-1180.68" width="1600" height="900"/>
    </clipPath>
    <linearGradient id="linear-gradient" x1="-3531.74" y1="921.29" x2="-3531.74" y2="-6062.55" gradientUnits="userSpaceOnUse">
      <stop offset="0" stop-color="#a4f2ff"/>
      <stop offset="0.23" stop-color="#69e3ff"/>
      <stop offset="0.45" stop-color="#34d5ff"/>
      <stop offset="0.57" stop-color="#1fd0ff"/>
      <stop offset="0.65" stop-color="#25c3ff"/>
      <stop offset="0.81" stop-color="#36a2ff"/>
      <stop offset="1" stop-color="#4d73ff"/>
    </linearGradient>
    <clipPath id="clip-path-3">
      <rect class="cls-1" x="-1586" y="90" width="1280" height="720"/>
    </clipPath>
    <clipPath id="clip-path-4">
      <rect class="cls-1" x="-1746" width="1600" height="900"/>
    </clipPath>
    <clipPath id="clip-path-5">
      <rect class="cls-1" x="-1716.03" y="512.21" width="1885.03" height="374.76"/>
    </clipPath>
    <clipPath id="clip-path-6">
      <rect class="cls-1" x="-1640.6" y="524.89" width="1712.33" height="374.76"/>
    </clipPath>
    <clipPath id="clip-path-7">
      <path class="cls-1" d="M-612.22,535.82c24.45,11,47.5,14,73.49,14a545.64,545.64,0,0,1,103.22,9.58l-15.39,11.46q24.72,5.5,49,13.39c4.05,1.31,9,3.83,8.18,9.59a8.33,8.33,0,0,1-3.91,6.09l-31,18.12c-2.15,1.26-4.56,2.88-4.24,6.34a5.9,5.9,0,0,0,4.79,5.5c63,8.09,126.41,15.92,187.6,36a9.2,9.2,0,0,1,5.9,7.6c1.52,10.77-14.91,10.27-20.45,19.23a159.34,159.34,0,0,1,49.56,8c3.35,1.09,7.14,2.74,7.23,8a10.2,10.2,0,0,1-3.12,7.51,92.43,92.43,0,0,1-35.13,21c56,3.56,111.45,18.74,163.24,44.66,6.59,3.3,14.13,8.22,12.81,18.29a17.48,17.48,0,0,1-4.78,10c-16.24,16.46-36.78,24.26-56.87,31.78,61.36,5,122.05,21.89,179,49.74,2.88,1.41,6,3.14,7.26,6.58a7.66,7.66,0,0,1,.54,2.69H-1626.66V857.24l8.35,1.65s127.76-50.09,208.83-34.18c.4-.05.4-.73,0-.8-40.67-6.59-110.33-37-149.77-50.71-8.48-3-18.94-9.45-16.22-20.7.87-3.62,4-7.82,6.88-9.38,46.21-25.42,155.07-17.65,109.9-29.69-25.62-6.83,75.51-23.87,103.8-28.82-6.48.17-49.9-7.66-26.86-23.16,10.4-3.91,64.18-22,70.58-23.24,47.15-9.26,80.71-7,119.06-4.83,19.21,1.1,48.2,6.22,72.12,5.88-3.21-5-57.43-24.39-40.49-30.15,56.62-19.28,93.51-39.31,129.75-38.37,50.19,1.29,110.64-11,161.44-15.67-4.94-3.48-3.84-13.26.64-17.55s10.64-4.65,16.35-4.82l178.58-5.45c4.82-.15,9.47-.27,14-.27,16.31,0,31.27,1.54,47.47,8.84"/>
    </clipPath>
    <radialGradient id="radial-gradient" cx="-8492.83" cy="-4359.3" r="1" gradientTransform="matrix(608.17, 0, 0, -367.21, 5164338.57, -1600037.53)" gradientUnits="userSpaceOnUse">
      <stop offset="0" stop-color="#61dfff"/>
      <stop offset="0.14" stop-color="#5adaff"/>
      <stop offset="0.35" stop-color="#47caff"/>
      <stop offset="0.59" stop-color="#28b1ff"/>
      <stop offset="0.84" stop-color="#0091ff"/>
      <stop offset="1" stop-color="#0091ff"/>
    </radialGradient>
    <clipPath id="clip-path-8">
      <rect class="cls-1" x="1934.71" y="81.53" width="1280" height="720"/>
    </clipPath>
    <clipPath id="clip-path-9">
      <rect class="cls-1" x="1762" width="1600" height="900"/>
    </clipPath>
    <clipPath id="clip-path-10">
      <rect class="cls-1" x="160" y="90" width="1280" height="720"/>
    </clipPath>
    <clipPath id="clip-path-11">
      <rect class="cls-1" width="1600" height="900"/>
    </clipPath>
    <clipPath id="clip-path-12">
      <rect class="cls-1" x="-36.19" y="516.44" width="1679.54" height="374.76"/>
    </clipPath>
    <clipPath id="clip-path-13">
      <rect class="cls-1" x="50.47" y="529.12" width="1525.67" height="374.76"/>
    </clipPath>
    <clipPath id="clip-path-14">
      <path class="cls-1" d="M659.86,540.06c-21.78,11-42.32,14-65.47,14a433.53,433.53,0,0,0-92,9.58l13.71,11.45a443.26,443.26,0,0,0-43.68,13.39c-3.61,1.31-8,3.83-7.29,9.59a8.48,8.48,0,0,0,3.49,6.09l27.65,18.13c1.92,1.25,4.07,2.87,3.78,6.33-.25,2.95-2.09,5.19-4.27,5.5-56.15,8.1-112.63,15.92-167.14,36-2.67,1-4.8,3.9-5.26,7.59-1.36,10.78,13.29,10.28,18.22,19.24a128.2,128.2,0,0,0-44.16,8c-3,1.1-6.36,2.74-6.44,8a10.81,10.81,0,0,0,2.78,7.51,81,81,0,0,0,31.3,21C275.23,745,225.8,760.2,179.67,786.13c-5.87,3.29-12.6,8.21-11.42,18.28a18.4,18.4,0,0,0,4.26,10c14.47,16.46,32.77,24.25,50.67,31.77-54.67,5-108.74,21.89-159.52,49.75-2.57,1.4-5.36,3.14-6.47,6.57a8.51,8.51,0,0,0-.48,2.7h1507V861.47l-7.44,1.66S1442.44,813,1370.21,829c-.35-.06-.35-.74,0-.8,36.23-6.6,98.3-37,133.43-50.72,7.56-2.94,16.88-9.44,14.46-20.69-.78-3.62-3.6-7.82-6.13-9.38-41.17-25.43-138.16-17.65-97.92-29.7,22.83-6.83-67.27-23.87-92.49-28.82,5.78.18,44.47-7.66,23.94-23.16-9.26-3.91-57.19-22-62.89-23.24-42-9.25-71.91-7-106.08-4.83-17.12,1.11-42.94,6.23-64.26,5.89,2.86-5,51.17-24.39,36.08-30.16C1097.9,594.06,1065,574,1032.74,575c-44.71,1.3-98.57-11-143.84-15.66,4.4-3.49,3.42-13.26-.57-17.55s-9.48-4.65-14.57-4.83l-159.11-5.44c-4.29-.15-8.44-.27-12.49-.27-14.53,0-27.87,1.54-42.3,8.84"/>
    </clipPath>
    <radialGradient id="radial-gradient-2" cx="-8477.57" cy="-4359.31" r="1" gradientTransform="translate(-4592990.4 -1600037.53) rotate(180) scale(541.88 367.21)" xlink:href="#radial-gradient"/>
  </defs>
  <g class="cls-2">
    <g class="cls-3">
      <rect class="cls-4" x="-10127.59" y="-4883.08" width="13191.7" height="5525.81"/>
    </g>
  </g>
  <g class="cls-5">
    <g class="cls-6">
      <g class="cls-7">
        <g class="cls-8">
          <path class="cls-9" d="M-52.67,887l4.21,0,110.31-.53,65.45-.32c7.86,0,15.73-.16,23.59-.11,5,0,21.44,3.59,17.51-6.17-1.39-3.43-4.88-5.17-8.09-6.57A608.85,608.85,0,0,0-39.23,823.5c22.39-7.52,45.29-15.31,63.38-31.77a16.82,16.82,0,0,0,5.33-10c1.47-10.07-6.94-15-14.28-18.28a516.8,516.8,0,0,0-181.93-44.66,105.82,105.82,0,0,0,39.16-21,9.74,9.74,0,0,0,3.47-7.51c-.1-5.27-4.32-6.91-8.06-8a196.16,196.16,0,0,0-55.23-8c6.17-9,24.48-8.47,22.79-19.24a9.43,9.43,0,0,0-6.58-7.59c-68.18-20.09-138.83-27.91-209.07-36a6.17,6.17,0,0,1-5.34-5.5c-.36-3.46,2.34-5.08,4.73-6.34l34.59-18.12a8.34,8.34,0,0,0,4.36-6.09c.87-5.76-4.6-8.28-9.12-9.59q-27-7.86-54.63-13.38L-388.52,541a675.54,675.54,0,0,0-115-9.58c-29,.08-41.62,1.76-68.86-9.26-23.09-9.33-13.62-10.47-38.22-9.79-66.34,1.81-183,3.92-249.29,5.73-6.37.18-10.12,3-15.11,7.34s-2.41,7.78,3.08,11.26c-56.61,4.65-124,17-179.91,15.66-40.39-.94-81.51,19.09-144.62,38.37-18.87,5.77,32,21.11,35.59,26.15-79.91,1-124.65-10.94-203.52,3-7.13,1.25-67.08,19.32-78.67,23.23-25.68,15.5,22.72,23.33,29.94,23.16-31.53,4.95-144.24,22-115.69,28.82,50.35,12-71,4.27-122.48,29.69a16.92,16.92,0,0,0-7.67,9.38c-3,11.25,8.64,17.74,18.09,20.69,44,13.68,121.58,44.11,166.91,50.71a.41.41,0,0,1,0,.8c-90.36-15.92-232.75,34.17-232.75,34.17l-9.31-1.65V887Z"/>
        </g>
      </g>
      <g class="cls-10">
        <g class="cls-11">
          <path class="cls-9" d="M-129.63,899.65l3.82,0,100.21-.54,59.46-.32c7.13,0,14.28-.16,21.42-.11,4.52,0,19.48,3.59,15.91-6.17-1.26-3.43-4.44-5.16-7.35-6.57a512.45,512.45,0,0,0-181.26-49.74c20.34-7.52,41.14-15.31,57.57-31.77A17.37,17.37,0,0,0-55,794.46c1.34-10.07-6.3-15-13-18.29a434.8,434.8,0,0,0-165.26-44.66,93.67,93.67,0,0,0,35.57-21,10.11,10.11,0,0,0,3.15-7.51c-.08-5.27-3.92-6.91-7.32-8A163.38,163.38,0,0,0-252,687c5.61-9,22.24-8.46,20.71-19.24a9.22,9.22,0,0,0-6-7.59c-61.94-20.08-126.11-27.91-189.91-36a5.9,5.9,0,0,1-4.85-5.5c-.33-3.46,2.11-5.08,4.29-6.33l31.42-18.13a8.34,8.34,0,0,0,4-6.08c.79-5.77-4.18-8.28-8.28-9.6q-24.57-7.86-49.63-13.38l15.58-11.45a558.18,558.18,0,0,0-104.5-9.59c-26.31.08-37.8,1.76-62.55-9.25-21-9.34-12.37-10.48-34.71-9.8-60.27,1.81-166.19,3.92-226.46,5.74-5.78.17-9.19,3-13.72,7.33s-2.2,7.78,2.8,11.26c-51.43,4.65-112.63,17-163.43,15.66-36.7-.93-74,19.1-131.37,38.37-17.14,5.77,29.07,21.11,32.32,26.15-72.58,1-113.22-10.94-184.87,3-6.48,1.25-60.93,19.32-71.45,23.23-23.33,15.5,20.63,23.34,27.19,23.16-28.64,5-131,22-105.09,28.82,45.73,12-64.48,4.27-111.26,29.69a16.61,16.61,0,0,0-7,9.38c-2.75,11.25,7.84,17.75,16.42,20.69,39.93,13.68,110.45,44.12,151.62,50.71a.42.42,0,0,1,0,.8c-82.08-15.91-211.42,34.17-211.42,34.17l-8.46-1.65v48.14Z"/>
        </g>
      </g>
      <g class="cls-12">
        <rect class="cls-13" x="-1618.1" y="530.99" width="1691.4" height="373.94"/>
      </g>
      <path class="cls-14" d="M-324.75,831.42c-24.79-4.63-24.4-25.25,4.9-25.48-19.69-15.16-3.59-36.8,23.83-26.71,6.71-14,27.34-16.25,30.88-.57,6.48-9.8,18-16.14,30.86-13.7-47.4-18.72,15.77-42.52,43.88-39.88-10.38-32.92,34.65-50.49,68.78-32.85,8.81-34.68,73-4.25,87.86,11.33,24.87-24.49,72.47-5.91,76,22,34-24.53,54.15,17.93,50.82,38.21,24.28-9.32,25.94,14.24,19.09,26.79,19.42-4.92,32.38,3,23.69,18,20.16-4.57,35.49,6,23.85,20.58,17.61-1.2,47.44.21,25.67,15.14,10.84-1.84,16.52,2,24.5,3-2.11,6.29-6.3,4.69-12.88,6.56l20.94,2.93c-10.72,14.41-41.13,13.27-56.48,3.63-9.88,5.69-4.12,5.44-17.81-.1-10.1,17.38-28.13,9.27-28.26-7.29-11,8.5-32,9.86-46.56,2.42,25,14.31-28.71,26.62-46.16,9.87-.45,16.82-30.46,12.24-37.71,1.4-7.65,12.78-26.46,14.47-42.13,9.21-24.58,27.45-45.4-6.37-67-13.59-3.57,13.65-23.94,15.07-39.33,9.92.5,2.67.09,6.14.62,8.91-22.29,3.79-47.26,6.95-66-5.1-11.58,10.93-35.36,6.47-37.82-8.27-14.35,5.63-34.71,8.53-36-7-11.95,0-25-.16-35.84-1.74,4.27-1.7,8.74-4.75,13.43-6.62a147.43,147.43,0,0,1-33.61-3.95C-353.9,838.12-339.63,833.6-324.75,831.42Z"/>
      <path class="cls-15" d="M186.64,891.23c4.83-.92,7.8.19,9.55-3.55-5.74-.82-9.71-3.35-17.62-2.59,16.27-8.32-5.25-10.14-18-10,8.93-8.45-1.79-15.32-16.53-13.21,6.82-8.82-2.28-14-16.5-11.66,5.4-7.36,5-21.66-12.86-16.81,3.12-12.15-9.93-38.46-35.41-24.73-1.55-17-35.33-29.76-54.18-15.76C14.87,783-30.5,762.58-38.1,783.26c-23.35-11.42-55.3-3.12-51.35,15.87a29.34,29.34,0,0,0-5,1.43c-1.51,0-3.08,0-4.69.13-3.75-16-35.71-27.35-53.86-13.87-10.19-9.9-55.55-30.37-63.15-9.69-24.06-11.76-57.25-2.59-50.91,17.63-20.23-2.5-66.77,9.84-33.14,22.69a24,24,0,0,0-22.8,7.29c-2-9.6-17-8.87-22.36-.66-19.47-7-31.89,5.58-18.17,15.37-21.21-.8-22.22,11.65-4.45,15.25-10.83.83-21.32,3.1-25.24,9.21A127.22,127.22,0,0,0-369,867.38c-3.46,1-6.81,2.68-9.95,3.57,7.77,1.3,17.22,1.8,25.86,2.2.42,9.45,15.24,8.36,25.82,5.42,1.26,9,18.3,12.45,27.06,6.22,13.13,7.88,31.3,6.78,47.55,5.21-.28-1.69.14-3.77-.13-5.41,10.95,3.61,25.73,3.41,28.8-4.72,15.38,5.06,29.25,26.17,48,10.37,9.83,3.25,21.59,3.31,28.35-1.83,4.15,5.41,15.13,7.34,22.74,4a12.23,12.23,0,0,0,3.51-1.07c13.06,7.38,30.83,6.29,46.76,4.75-.28-1.69.13-3.77-.13-5.4,9.33,3.07,21.44,3.38,26.71-1.64a10.48,10.48,0,0,0,12.79,2.47c11.48,7.4,23,16.89,37.29,4.82,11.15,3.69,24.82,3.27,30.8-4.21,4.86,6.79,26.41,10.52,27.32.37,12,10.69,51.33,5,33.74-4.47,10.28,5,25.51,4.82,33.76,0-.49,10,12.27,15.49,20.19,5.31,9.7,3.79,5.53,3.76,12.88.64,10.76,6.32,32.71,8,41-.37Z"/>
      <g class="cls-16">
        <path class="cls-17" d="M36.14,846.82c-1.81,2.66-3.85.67-3.85.67s-1.9,3.39-4.21,2.13-.78-4.82-.78-4.82-2.3.69-2.1-2.36a3,3,0,0,1,3.76-3s-.81-4.31,2.22-4.94,2.6,3,2.6,3,3.28-3,4.19.31-1.7,4-1.7,4A4.35,4.35,0,0,1,36.14,846.82Z"/>
        <path class="cls-17" d="M8.86,825.63c-2.07.21-2.76-2.76-2.76-2.76a2.91,2.91,0,0,1-3.46-2,2.79,2.79,0,0,1,1.12-3.75,2.63,2.63,0,0,1-.61-3.32c1.42-2.24,3.47,1.18,3.47,1.18s.9-3.51,3.06-1.42a3.1,3.1,0,0,1,.71,4.1s3.11.79,2.62,3.64-2.44,1.23-2.44,1.23S10.93,825.39,8.86,825.63Z"/>
        <path class="cls-17" d="M1.34,759.21c-2.37,1.31-3.84-1.93-3.84-1.93A3.07,3.07,0,0,1-7,756.45a4,4,0,0,1,.44-5A2.77,2.77,0,0,1-8,747.73c1.17-3.39,4.33-.29,4.33-.29s.25-4.61,3.27-3.14a3.53,3.53,0,0,1,1.76,4.54s3.81-.55,3.9,3.12-2.62,2.63-2.62,2.63S3.72,757.93,1.34,759.21Z"/>
        <path class="cls-17" d="M54.08,784c-1.66,2.42-3.52.61-3.52.61s-1.71,3.09-3.82,1.93-.71-4.35-.71-4.35-2.1.61-1.9-2.19a2.73,2.73,0,0,1,3.43-2.7s-.74-3.92,2-4.48,2.37,2.74,2.37,2.74,3-2.7,3.82.26-1.57,3.67-1.57,3.67A4,4,0,0,1,54.08,784Z"/>
        <path class="cls-17" d="M103.69,776.73c-1.81.8-2.77-1.69-2.77-1.69a2.32,2.32,0,0,1-3.31-.86,2.88,2.88,0,0,1,.55-3.65,2.07,2.07,0,0,1-.92-2.78c1-2.38,3.24.08,3.24.08s.38-3.37,2.55-2.14a2.65,2.65,0,0,1,1.11,3.46s2.87-.16,2.76,2.51-2,1.77-2,1.77S105.5,775.91,103.69,776.73Z"/>
        <path class="cls-17" d="M83.47,761.36c-1.34,1.13-2.39-.6-2.39-.6s-1.45,1.54-2.7.17,0-3,0-3-1.46-.2-1-1.94c.53-2.17,2.56-.8,2.56-.8s-.06-2.78,1.82-2.33S83,755.24,83,755.24s2.25-.89,2.47,1.32-1.4,1.93-1.4,1.93A2.51,2.51,0,0,1,83.47,761.36Z"/>
      </g>
    </g>
  </g>
  <g class="cls-18">
    <g class="cls-19">
      <path class="cls-14" d="M1459.35,869.87c-24.79-4.63-24.4-25.26,4.91-25.49-19.7-15.15-3.59-36.8,23.82-26.7,6.71-14,27.34-16.26,30.88-.57,6.48-9.81,18-16.14,30.86-13.7-47.4-18.73,15.78-42.52,43.88-39.89-10.37-32.91,34.66-50.48,68.78-32.84,8.82-34.69,73-4.25,87.87,11.33,24.87-24.49,72.47-5.92,76,22,34-24.53,54.15,17.94,50.82,38.21,24.28-9.32,25.94,14.24,19.08,26.8,19.42-4.92,32.39,3,23.69,18,20.16-4.58,35.5,6,23.86,20.58,17.6-1.2,47.43.21,25.67,15.14,10.84-1.84,16.51,2.05,24.5,3-2.11,6.29-6.31,4.69-12.88,6.56l20.94,2.92c-10.73,14.42-41.13,13.27-56.48,3.64-9.88,5.69-4.13,5.43-17.81-.11-10.11,17.39-28.13,9.27-28.26-7.28-11,8.5-32,9.85-46.56,2.41,25,14.32-28.72,26.63-46.17,9.87-.45,16.83-30.45,12.25-37.7,1.41-7.65,12.78-26.46,14.47-42.14,9.2-24.58,27.45-45.39-6.36-67-13.59-3.57,13.65-23.93,15.08-39.32,9.92.5,2.68.09,6.14.61,8.91-22.29,3.79-47.25,7-66-5.09-11.58,10.93-35.37,6.46-37.82-8.27-14.36,5.62-34.71,8.52-36-7-12,0-25-.15-35.85-1.73,4.27-1.7,8.75-4.75,13.44-6.62a148,148,0,0,1-33.61-4C1430.2,876.57,1444.48,872.05,1459.35,869.87Z"/>
      <path class="cls-15" d="M2074.49,917.25c4.82-.92,7.8.18,9.55-3.55-5.75-.82-9.71-3.36-17.62-2.6,16.27-8.32-5.26-10.13-18-10,8.93-8.45-1.79-15.33-16.53-13.21,6.82-8.82-2.28-14-16.5-11.67,5.4-7.36,5-21.65-12.87-16.8,3.13-12.15-9.93-38.46-35.41-24.74-1.55-17-35.32-29.76-54.17-15.76-10.2-9.89-55.56-30.36-63.16-9.68-23.35-11.42-55.31-3.11-51.36,15.88a28.69,28.69,0,0,0-5,1.43c-1.5,0-3.07,0-4.68.12-3.75-16-35.71-27.35-53.86-13.87-10.19-9.9-55.56-30.36-63.15-9.68-24.07-11.76-57.26-2.6-50.91,17.63-20.24-2.5-66.77,9.84-33.14,22.68a24,24,0,0,0-22.8,7.29c-2-9.59-17-8.87-22.36-.65-19.48-7-31.89,5.57-18.18,15.37-21.2-.81-22.21,11.64-4.44,15.24-10.84.84-21.32,3.11-25.24,9.21a125.65,125.65,0,0,0,24.17,3.47c-3.46,1-6.8,2.68-9.95,3.57,7.78,1.31,17.22,1.81,25.87,2.21.41,9.45,15.23,8.35,25.82,5.42,1.25,9,18.3,12.45,27.06,6.21,13.12,7.89,31.3,6.79,47.55,5.21-.28-1.69.14-3.77-.13-5.4,11,3.61,25.73,3.41,28.79-4.73,15.39,5.07,29.25,26.18,48,10.38,9.82,3.25,21.59,3.31,28.34-1.83,4.15,5.41,15.14,7.34,22.74,4a11.61,11.61,0,0,0,3.52-1.07c13,7.38,30.82,6.3,46.76,4.76-.29-1.69.13-3.78-.14-5.41,9.34,3.08,21.45,3.38,26.72-1.63a10.47,10.47,0,0,0,12.78,2.46c11.49,7.41,23,16.9,37.3,4.82,11.15,3.69,24.81,3.28,30.8-4.2,4.86,6.78,26.4,10.52,27.32.36,12,10.69,51.33,5,33.74-4.47,10.28,5,25.51,4.83,33.76,0-.49,10,12.26,15.5,20.19,5.32,9.7,3.79,5.53,3.76,12.87.64,10.77,6.31,32.72,8,41-.38Z"/>
      <g class="cls-16">
        <path class="cls-17" d="M1511.61,865.77a2,2,0,0,1-3.27.05s-1.71,2.55-3.59,1.21-.48-4.06-.48-4.06-2,.26-1.71-2.25c.34-3.08,3.29-2,3.29-2s-.55-3.67,2-3.77,2.09,2.8,2.09,2.8,2.85-2,3.51.83-1.59,3.07-1.59,3.07A3.6,3.6,0,0,1,1511.61,865.77Z"/>
        <path class="cls-17" d="M1560.68,849.9c-2.1,1.88-3.86-.85-3.86-.85s-2.24,2.55-4.32.41-.16-4.94-.16-4.94-2.33-.27-1.76-3.12c.65-3.58,4-1.4,4-1.4s-.28-4.51,2.72-3.93,2.17,3.9,2.17,3.9,3.56-1.53,4.06,2-2.15,3.19-2.15,3.19S1562.76,848.05,1560.68,849.9Z"/>
        <path class="cls-17" d="M1538.12,842.33c-1.57.58-2.38-1.64-2.38-1.64a2.05,2.05,0,0,1-2.85-1,2.44,2.44,0,0,1,.49-3.19,1.91,1.91,0,0,1-.75-2.5c.89-2.07,2.78.26,2.78.26s.39-2.94,2.27-1.71a2.38,2.38,0,0,1,.93,3.09,2.31,2.31,0,0,1,2.37,2.42c-.11,2.34-1.79,1.4-1.79,1.4S1539.71,841.72,1538.12,842.33Z"/>
        <path class="cls-17" d="M1599,878.14c-2.23,1.2-3.58-1.85-3.58-1.85a2.89,2.89,0,0,1-4.2-.7,3.74,3.74,0,0,1,.46-4.67,2.51,2.51,0,0,1-1.27-3.39c1.09-3.16,4-.3,4-.3s.3-4.28,3.11-2.94a3.24,3.24,0,0,1,1.57,4.22s3.58-.53,3.6,2.91-2.43,2.42-2.43,2.42S1601.17,876.91,1599,878.14Z"/>
      </g>
    </g>
  </g>
  <g class="cls-20">
    <g class="cls-21">
      <g class="cls-7">
        <g class="cls-22">
          <path class="cls-9" d="M161.31,891.2l-3.75,0-98.29-.54L1,890.33c-7,0-14-.17-21-.12-4.44,0-19.1,3.6-15.6-6.17,1.24-3.43,4.35-5.16,7.21-6.57,56.59-27.85,116.85-44.7,177.78-49.73C129.39,820.22,109,812.42,92.87,796a17.58,17.58,0,0,1-4.76-10c-1.31-10.07,6.19-15,12.73-18.29,51.42-25.91,106.5-41.09,162.1-44.65a91.7,91.7,0,0,1-34.89-21,10.2,10.2,0,0,1-3.09-7.51c.08-5.27,3.84-6.91,7.17-8a157.51,157.51,0,0,1,49.22-8c-5.5-9-21.82-8.46-20.31-19.24a9.18,9.18,0,0,1,5.86-7.59c60.75-20.08,123.7-27.9,186.28-36a5.88,5.88,0,0,0,4.76-5.5c.32-3.46-2.08-5.08-4.22-6.33l-30.81-18.13a8.32,8.32,0,0,1-3.89-6.08c-.77-5.76,4.1-8.28,8.12-9.59q24.11-7.87,48.68-13.39l-15.27-11.45A536.35,536.35,0,0,1,563,535.66c25.81.07,37.08,1.76,61.35-9.26,20.58-9.34,12.14-10.47,34.05-9.8,59.11,1.82,163,3.92,222.12,5.74,5.68.17,9,3,13.46,7.33s2.16,7.78-2.74,11.27c50.44,4.64,110.47,17,160.3,15.66,36-.94,72.63,19.09,128.85,38.37,16.82,5.76-28.51,21.1-31.7,26.14,71.19,1,111-10.94,181.33,2.95,6.35,1.26,59.76,19.33,70.09,23.24,22.88,15.49-20.24,23.33-26.68,23.15,28.1,5,128.52,22,103.08,28.82-44.85,12,63.25,4.27,109.13,29.69,2.82,1.57,6,5.76,6.83,9.38,2.7,11.25-7.69,17.75-16.11,20.69-39.16,13.69-108.33,44.12-148.72,50.71a.42.42,0,0,0,0,.8c80.5-15.91,207.37,34.18,207.37,34.18l8.29-1.66V891.2Z"/>
        </g>
      </g>
      <g class="cls-10">
        <g class="cls-23">
          <path class="cls-9" d="M229.88,903.88l-3.41,0-89.28-.53-53-.32c-6.36,0-12.73-.17-19.09-.12-4,0-17.36,3.6-14.17-6.16,1.12-3.44,3.94-5.17,6.54-6.58,51.41-27.85,106.15-44.7,161.5-49.73-18.12-7.52-36.65-15.32-51.29-31.77a18.31,18.31,0,0,1-4.32-10c-1.19-10.07,5.62-15,11.56-18.28,46.71-25.92,96.74-41.1,147.24-44.66a82.14,82.14,0,0,1-31.69-21,10.78,10.78,0,0,1-2.81-7.5c.08-5.28,3.5-6.92,6.52-8a131.22,131.22,0,0,1,44.71-8c-5-9-19.82-8.46-18.45-19.23.47-3.69,2.62-6.61,5.32-7.59C381,644.31,438.16,636.49,495,628.4c2.2-.32,4.07-2.56,4.32-5.5.29-3.46-1.89-5.08-3.83-6.34l-28-18.12a8.47,8.47,0,0,1-3.53-6.09c-.7-5.76,3.72-8.28,7.38-9.59a453,453,0,0,1,44.21-13.39L501.7,557.92a444.68,444.68,0,0,1,93.1-9.58c23.45.07,33.69,1.76,55.74-9.26,18.68-9.33,11-10.47,30.92-9.8,53.7,1.82,148.08,3.93,201.77,5.74,5.16.18,8.2,3.05,12.23,7.34s2,7.78-2.49,11.26c45.82,4.65,100.34,17,145.61,15.66,32.69-.94,66,19.09,117.05,38.37,15.27,5.76-25.91,21.1-28.8,26.15,64.67,1,100.88-10.94,164.71,2.94,5.78,1.26,54.29,19.33,63.67,23.24,20.79,15.5-18.38,23.33-24.23,23.15,25.53,5,116.75,22,93.63,28.82-40.74,12,57.46,4.27,99.14,29.7,2.56,1.56,5.42,5.76,6.2,9.37,2.45,11.25-7,17.75-14.63,20.69-35.58,13.69-98.41,44.12-135.09,50.72-.36.06-.35.74,0,.79,73.13-15.91,188.37,34.18,188.37,34.18l7.54-1.66v48.14Z"/>
        </g>
      </g>
      <g class="cls-24">
        <rect class="cls-25" x="49.07" y="535.23" width="1507.02" height="373.94"/>
      </g>
      <path class="cls-14" d="M-201.83,831.42c-24.79-4.63-24.4-25.25,4.9-25.48-19.69-15.16-3.59-36.8,23.83-26.71,6.71-14,27.34-16.25,30.88-.57,6.48-9.8,18-16.14,30.86-13.7-47.4-18.72,15.77-42.52,43.88-39.88-10.38-32.92,34.65-50.49,68.78-32.85,8.81-34.68,73-4.25,87.86,11.33,24.87-24.49,72.47-5.91,76,22,34-24.53,54.15,17.93,50.82,38.21,24.28-9.32,25.94,14.24,19.09,26.79,19.42-4.92,32.38,3,23.69,18,20.16-4.57,35.49,6,23.85,20.58,17.61-1.2,47.44.21,25.67,15.14,10.84-1.84,16.52,2,24.51,3-2.12,6.29-6.31,4.69-12.89,6.56l20.94,2.93c-10.72,14.41-41.13,13.27-56.48,3.63-9.88,5.69-4.12,5.44-17.81-.1-10.1,17.38-28.13,9.27-28.26-7.29-11,8.5-32,9.86-46.56,2.42,25,14.31-28.71,26.62-46.16,9.87-.45,16.82-30.46,12.24-37.71,1.4-7.65,12.78-26.46,14.47-42.13,9.21-24.58,27.45-45.39-6.37-67-13.59-3.57,13.65-23.94,15.07-39.33,9.92.5,2.67.09,6.14.62,8.91-22.29,3.79-47.26,6.95-66-5.1-11.58,10.93-35.36,6.47-37.82-8.27-14.35,5.63-34.7,8.53-36-7-12,0-25-.16-35.85-1.74,4.27-1.7,8.74-4.75,13.44-6.62a147.51,147.51,0,0,1-33.62-3.95C-231,838.12-216.71,833.6-201.83,831.42Z"/>
      <path class="cls-15" d="M309.56,891.23c4.83-.92,7.8.19,9.55-3.55-5.74-.82-9.71-3.35-17.61-2.59,16.27-8.32-5.26-10.14-18-10,8.94-8.45-1.79-15.32-16.53-13.21,6.82-8.82-2.28-14-16.5-11.66,5.4-7.36,5-21.66-12.86-16.81,3.12-12.15-9.93-38.46-35.41-24.73-1.55-17-35.33-29.76-54.18-15.76-10.19-9.9-55.56-30.36-63.15-9.68-23.36-11.42-55.31-3.12-51.36,15.87a29.6,29.6,0,0,0-5,1.43c-1.5,0-3.08,0-4.69.13-3.75-16-35.71-27.35-53.86-13.87-10.19-9.9-55.55-30.37-63.15-9.69-24.06-11.76-57.25-2.59-50.9,17.63-20.24-2.5-66.77,9.84-33.15,22.69a24,24,0,0,0-22.8,7.29c-2-9.6-17-8.87-22.36-.66-19.47-7-31.88,5.58-18.17,15.37-21.21-.8-22.21,11.65-4.45,15.25-10.83.83-21.32,3.1-25.24,9.21a127.22,127.22,0,0,0,24.18,3.47c-3.46,1-6.81,2.68-9.95,3.57,7.77,1.3,17.22,1.8,25.86,2.2.42,9.45,15.24,8.36,25.82,5.42,1.26,9,18.31,12.45,27.06,6.22,13.13,7.88,31.3,6.78,47.56,5.21-.29-1.69.13-3.77-.14-5.41,11,3.61,25.73,3.41,28.8-4.72,15.39,5.06,29.25,26.17,48,10.37,9.83,3.25,21.59,3.31,28.35-1.83,4.15,5.41,15.13,7.34,22.74,4a12.23,12.23,0,0,0,3.51-1.07c13.06,7.38,30.83,6.29,46.76,4.75-.28-1.69.14-3.77-.13-5.4,9.33,3.07,21.44,3.38,26.71-1.64a10.48,10.48,0,0,0,12.79,2.47c11.48,7.4,23,16.89,37.29,4.82,11.15,3.69,24.82,3.27,30.8-4.21,4.86,6.79,26.41,10.52,27.32.37,12,10.69,51.33,5,33.74-4.47,10.29,5,25.51,4.82,33.77,0-.49,10,12.26,15.49,20.18,5.31,9.7,3.79,5.53,3.76,12.88.64,10.76,6.32,32.71,8,41-.37Z"/>
      <g class="cls-16">
        <path class="cls-17" d="M16.09,855.56c-2.62,1.4-4.24-2.16-4.24-2.16a3.36,3.36,0,0,1-4.94-.9A4.4,4.4,0,0,1,7.4,847a3.06,3.06,0,0,1-1.59-4.06c1.28-3.73,4.75-.31,4.75-.31s.29-5.05,3.62-3.46,1.93,5,1.93,5,4.19-.63,4.27,3.42-2.87,2.91-2.87,2.91S18.69,854.11,16.09,855.56Z"/>
        <path class="cls-17" d="M159.06,846.82c-1.81,2.66-3.85.67-3.85.67s-1.9,3.39-4.21,2.13-.78-4.82-.78-4.82-2.3.69-2.1-2.36a3,3,0,0,1,3.77-3s-.82-4.31,2.21-4.94,2.6,3,2.6,3,3.28-3,4.19.31-1.7,4-1.7,4A4.35,4.35,0,0,1,159.06,846.82Z"/>
        <path class="cls-17" d="M131.78,825.63c-2.06.21-2.76-2.76-2.76-2.76a2.91,2.91,0,0,1-3.46-2,2.79,2.79,0,0,1,1.12-3.75,2.63,2.63,0,0,1-.61-3.32c1.42-2.24,3.47,1.18,3.47,1.18s.9-3.51,3.06-1.42a3.1,3.1,0,0,1,.71,4.1s3.11.79,2.62,3.64-2.44,1.23-2.44,1.23S133.85,825.39,131.78,825.63Z"/>
        <path class="cls-17" d="M112.21,823.63c-1.48,1.22-2.63-.65-2.63-.65s-1.59,1.66-3,.17,0-3.33,0-3.33-1.6-.24-1.14-2.18c.58-2.36,2.82-.85,2.82-.85s-.07-3.08,2-2.58,1.38,2.69,1.38,2.69,2.49-1,2.73,1.41-1.54,2.13-1.54,2.13S113.68,822.43,112.21,823.63Z"/>
        <path class="cls-17" d="M124.26,759.21c-2.36,1.31-3.84-1.93-3.84-1.93a3.07,3.07,0,0,1-4.49-.83,4,4,0,0,1,.44-5,2.76,2.76,0,0,1-1.44-3.68c1.16-3.39,4.32-.29,4.32-.29s.25-4.61,3.27-3.14a3.54,3.54,0,0,1,1.77,4.54s3.8-.55,3.89,3.12-2.62,2.63-2.62,2.63S126.64,757.93,124.26,759.21Z"/>
        <path class="cls-17" d="M105.89,741.54c-1.94.79-3-1.91-3-1.91a2.55,2.55,0,0,1-3.56-1,3.13,3.13,0,0,1,.56-4,2.29,2.29,0,0,1-1-3c1-2.6,3.46.17,3.46.17s.4-3.66,2.73-2.23a2.92,2.92,0,0,1,1.22,3.78s3.09-.07,3,2.87-2.17,1.83-2.17,1.83S107.83,740.71,105.89,741.54Z"/>
        <path class="cls-17" d="M177,784c-1.66,2.42-3.52.61-3.52.61s-1.71,3.09-3.82,1.93-.7-4.35-.7-4.35-2.11.61-1.91-2.19a2.73,2.73,0,0,1,3.43-2.7s-.74-3.92,2-4.48,2.37,2.74,2.37,2.74,3-2.7,3.82.26-1.57,3.67-1.57,3.67A4,4,0,0,1,177,784Z"/>
        <path class="cls-17" d="M25.55,773.62c-2.37,2.13-4.37-1-4.37-1s-2.54,2.88-4.91.46-.2-5.61-.2-5.61-2.64-.31-2-3.55c.75-4.06,4.57-1.59,4.57-1.59s-.34-5.11,3.08-4.46,2.48,4.44,2.48,4.44,4-1.74,4.59,2.23-2.45,3.64-2.45,3.64S27.93,771.5,25.55,773.62Z"/>
        <path class="cls-17" d="M-2.79,742.71c-1.78.65-2.69-1.85-2.69-1.85a2.32,2.32,0,0,1-3.22-1.11,2.75,2.75,0,0,1,.57-3.59,2.14,2.14,0,0,1-.84-2.8c1-2.34,3.13.28,3.13.28s.42-3.31,2.54-1.91a2.7,2.7,0,0,1,1.06,3.47s2.8,0,2.65,2.71-2,1.59-2,1.59S-1,742-2.79,742.71Z"/>
        <path class="cls-17" d="M226.61,776.73c-1.81.8-2.77-1.69-2.77-1.69a2.31,2.31,0,0,1-3.3-.86,2.87,2.87,0,0,1,.54-3.65,2.07,2.07,0,0,1-.92-2.78c1-2.38,3.24.08,3.24.08s.38-3.37,2.56-2.14a2.66,2.66,0,0,1,1.1,3.46s2.87-.16,2.76,2.51-2,1.77-2,1.77S228.42,775.91,226.61,776.73Z"/>
        <path class="cls-17" d="M60.67,754.1c-1.49.79-2.37-1.22-2.37-1.22a1.89,1.89,0,0,1-2.75-.46,2.42,2.42,0,0,1,.31-3.06,1.66,1.66,0,0,1-.85-2.23c.73-2.09,2.65-.21,2.65-.21s.21-2.81,2-1.94a2.14,2.14,0,0,1,1,2.78s2.36-.33,2.36,1.93-1.6,1.58-1.6,1.58S62.13,753.28,60.67,754.1Z"/>
        <path class="cls-17" d="M206.39,761.36c-1.33,1.13-2.39-.6-2.39-.6s-1.44,1.54-2.7.17,0-3,0-3-1.46-.2-1-1.94c.53-2.17,2.57-.8,2.57-.8s-.07-2.78,1.81-2.33,1.25,2.42,1.25,2.42,2.26-.89,2.47,1.32-1.4,1.93-1.4,1.93A2.51,2.51,0,0,1,206.39,761.36Z"/>
        <path class="cls-17" d="M83.17,762.91c-1.76,1.2-3-1.12-3-1.12s-1.92,1.72-3.41-.16.18-3.82.18-3.82a1.89,1.89,0,0,1-1.18-2.61c.77-2.63,3.24-.65,3.24-.65s.08-3.45,2.42-2.67,1.43,3.25,1.43,3.25,2.88-.79,3,2S84,759.31,84,759.31,84.93,761.7,83.17,762.91Z"/>
      </g>
      <path class="cls-14" d="M1326.37,861.4c-24.79-4.63-24.4-25.26,4.9-25.49-19.69-15.15-3.59-36.8,23.83-26.7,6.71-14,27.34-16.26,30.88-.57,6.48-9.81,18-16.15,30.86-13.7-47.4-18.73,15.77-42.52,43.88-39.89-10.38-32.91,34.65-50.48,68.78-32.84,8.81-34.69,73-4.25,87.86,11.33,24.87-24.49,72.47-5.92,76,22,34-24.53,54.15,17.94,50.82,38.21,24.29-9.32,25.95,14.24,19.09,26.8,19.42-4.92,32.38,3,23.69,18,20.16-4.58,35.49,6,23.85,20.58,17.61-1.2,47.44.21,25.67,15.14,10.85-1.84,16.52,2,24.51,3-2.12,6.29-6.31,4.69-12.89,6.56l20.94,2.92c-10.72,14.42-41.13,13.27-56.48,3.64-9.88,5.69-4.12,5.43-17.81-.11-10.1,17.39-28.13,9.27-28.26-7.28-11,8.5-32,9.85-46.56,2.41,25,14.32-28.71,26.63-46.16,9.87-.45,16.83-30.46,12.25-37.71,1.4-7.65,12.79-26.46,14.48-42.13,9.21-24.58,27.45-45.39-6.36-67-13.59-3.57,13.65-23.94,15.08-39.33,9.92.5,2.68.09,6.14.62,8.91-22.29,3.79-47.26,7-66-5.09-11.58,10.93-35.36,6.46-37.82-8.27-14.35,5.62-34.7,8.52-36-7-12,0-25-.15-35.85-1.73,4.27-1.7,8.74-4.76,13.44-6.62a148.08,148.08,0,0,1-33.62-3.95C1297.22,868.1,1311.49,863.58,1326.37,861.4Z"/>
      <path class="cls-15" d="M1941.51,908.78c4.82-.92,7.79.18,9.55-3.55-5.75-.83-9.72-3.36-17.62-2.6,16.27-8.32-5.26-10.13-18-10,8.94-8.45-1.78-15.33-16.53-13.21,6.82-8.82-2.28-14-16.5-11.67,5.4-7.36,5-21.65-12.86-16.8,3.12-12.15-9.93-38.46-35.41-24.74-1.55-17-35.33-29.76-54.18-15.76-10.19-9.89-55.55-30.36-63.15-9.68-23.36-11.42-55.31-3.11-51.36,15.88a28.69,28.69,0,0,0-5,1.43c-1.5,0-3.07,0-4.69.12-3.75-16-35.71-27.35-53.85-13.87-10.19-9.9-55.56-30.36-63.16-9.68-24.06-11.77-57.25-2.6-50.9,17.63-20.24-2.5-66.77,9.84-33.15,22.68a24,24,0,0,0-22.8,7.29c-2-9.59-17-8.87-22.35-.65-19.48-7-31.89,5.57-18.18,15.37-21.21-.81-22.21,11.64-4.44,15.24-10.84.84-21.33,3.11-25.24,9.21a126.21,126.21,0,0,0,24.17,3.47c-3.46,1-6.8,2.68-9.95,3.57,7.77,1.31,17.22,1.8,25.86,2.21.42,9.45,15.24,8.35,25.82,5.42,1.26,9,18.31,12.45,27.07,6.21,13.12,7.89,31.29,6.78,47.55,5.21-.29-1.69.13-3.77-.14-5.4,11,3.61,25.74,3.41,28.8-4.73,15.39,5.07,29.25,26.17,48,10.38,9.82,3.25,21.58,3.31,28.34-1.83,4.15,5.41,15.13,7.34,22.74,4a11.92,11.92,0,0,0,3.51-1.07c13.06,7.38,30.83,6.3,46.76,4.76-.28-1.7.14-3.78-.13-5.41,9.33,3.08,21.44,3.38,26.72-1.63a10.46,10.46,0,0,0,12.78,2.46c11.49,7.41,23,16.9,37.29,4.82,11.15,3.69,24.82,3.28,30.8-4.2,4.86,6.78,26.41,10.52,27.32.36,12,10.69,51.33,5,33.74-4.47,10.29,5,25.51,4.82,33.77,0-.49,10,12.26,15.5,20.18,5.32,9.7,3.79,5.53,3.76,12.88.64,10.76,6.31,32.72,8,41-.38Z"/>
      <g class="cls-16">
        <path class="cls-17" d="M1527.54,866.16c-2.11,1.14-3.42-1.74-3.42-1.74a2.71,2.71,0,0,1-4-.73,3.56,3.56,0,0,1,.39-4.48,2.46,2.46,0,0,1-1.28-3.28c1-3,3.83-.24,3.83-.24s.24-4.09,2.94-2.8a3.15,3.15,0,0,1,1.55,4.05s3.39-.52,3.45,2.76-2.31,2.35-2.31,2.35S1529.65,865,1527.54,866.16Z"/>
        <path class="cls-17" d="M1378.63,857.3a2,2,0,0,1-3.28.05s-1.71,2.55-3.59,1.21-.48-4.06-.48-4.06-2,.25-1.7-2.25c.34-3.08,3.28-2,3.28-2s-.55-3.67,2-3.77,2.1,2.8,2.1,2.8,2.85-2,3.51.83-1.6,3.07-1.6,3.07A3.59,3.59,0,0,1,1378.63,857.3Z"/>
        <path class="cls-17" d="M1511.48,843c-1.73.7-2.67-1.7-2.67-1.7a2.26,2.26,0,0,1-3.17-.93,2.76,2.76,0,0,1,.5-3.54,2.07,2.07,0,0,1-.89-2.7c.94-2.3,3.08.14,3.08.14s.35-3.24,2.44-2a2.6,2.6,0,0,1,1.08,3.36s2.74-.09,2.65,2.53-1.93,1.66-1.93,1.66S1513.19,842.25,1511.48,843Z"/>
        <path class="cls-17" d="M1427.69,841.43c-2.1,1.88-3.85-.85-3.85-.85s-2.24,2.55-4.33.41-.16-4.94-.16-4.94-2.33-.27-1.76-3.12c.66-3.58,4-1.41,4-1.41s-.29-4.5,2.72-3.92,2.17,3.9,2.17,3.9,3.55-1.53,4.06,2-2.16,3.19-2.16,3.19S1429.78,839.58,1427.69,841.43Z"/>
        <path class="cls-17" d="M1405.14,833.86c-1.57.58-2.39-1.64-2.39-1.64a2.05,2.05,0,0,1-2.85-1,2.45,2.45,0,0,1,.5-3.2,1.9,1.9,0,0,1-.75-2.49c.89-2.07,2.78.26,2.78.26s.38-2.94,2.27-1.71a2.37,2.37,0,0,1,.92,3.09,2.31,2.31,0,0,1,2.38,2.41c-.11,2.35-1.79,1.41-1.79,1.41S1406.73,833.25,1405.14,833.86Z"/>
        <path class="cls-17" d="M1466,869.67c-2.24,1.19-3.58-1.85-3.58-1.85a2.9,2.9,0,0,1-4.21-.7,3.75,3.75,0,0,1,.47-4.68,2.49,2.49,0,0,1-1.27-3.38c1.09-3.16,4-.3,4-.3s.31-4.28,3.12-2.94a3.23,3.23,0,0,1,1.56,4.22s3.59-.53,3.61,2.91-2.43,2.42-2.43,2.42S1468.18,868.44,1466,869.67Z"/>
        <path class="cls-17" d="M1605.25,840.36c-1.19,1-2.12-.53-2.12-.53s-1.29,1.34-2.41.14,0-2.7,0-2.7-1.3-.19-.92-1.76c.46-1.9,2.27-.68,2.27-.68s0-2.49,1.61-2.08,1.11,2.16,1.11,2.16,2-.78,2.21,1.14-1.25,1.73-1.25,1.73A2.3,2.3,0,0,1,1605.25,840.36Z"/>
        <path class="cls-17" d="M1489.05,859c-1.67.36-2.36-2.07-2.36-2.07a2.3,2.3,0,0,1-2.9-1.43,2.41,2.41,0,0,1,.74-3.2,2.09,2.09,0,0,1-.6-2.68c1.07-2,2.88.67,2.88.67s.61-2.93,2.47-1.37a2.55,2.55,0,0,1,.74,3.32s2.58.43,2.27,2.83-1.94,1.19-1.94,1.19S1490.74,858.68,1489.05,859Z"/>
        <path class="cls-17" d="M1486.5,798.06a1.84,1.84,0,0,1-3,0s-1.54,2.32-3.27,1.11-.43-3.7-.43-3.7-1.8.25-1.54-2c.3-2.81,3-1.81,3-1.81s-.48-3.36,1.85-3.44,1.9,2.55,1.9,2.55,2.59-1.81,3.19.76-1.45,2.77-1.45,2.77A3.29,3.29,0,0,1,1486.5,798.06Z"/>
        <path class="cls-17" d="M1600.15,774c-1.58.64-2.43-1.54-2.43-1.54a2.06,2.06,0,0,1-2.88-.85,2.52,2.52,0,0,1,.45-3.23,1.85,1.85,0,0,1-.8-2.44c.85-2.11,2.8.14,2.8.14s.32-3,2.21-1.81a2.36,2.36,0,0,1,1,3.06s2.5-.06,2.42,2.32-1.75,1.48-1.75,1.48S1601.71,773.32,1600.15,774Z"/>
        <path class="cls-17" d="M1535.2,799.93c-1.92,1.72-3.54-.78-3.54-.78s-2.05,2.33-4,.38-.16-4.54-.16-4.54-2.13-.26-1.61-2.87c.61-3.28,3.7-1.28,3.7-1.28s-.27-4.14,2.49-3.62,2,3.59,2,3.59,3.26-1.4,3.72,1.81-2,2.94-2,2.94S1537.12,798.22,1535.2,799.93Z"/>
        <path class="cls-17" d="M1512.29,774.94c-1.44.53-2.18-1.49-2.18-1.49a1.87,1.87,0,0,1-2.6-.9,2.24,2.24,0,0,1,.46-2.91,1.72,1.72,0,0,1-.68-2.26c.81-1.89,2.53.23,2.53.23s.34-2.68,2-1.54a2.17,2.17,0,0,1,.86,2.8s2.26,0,2.14,2.19-1.62,1.29-1.62,1.29S1513.72,774.38,1512.29,774.94Z"/>
        <path class="cls-17" d="M1563.59,784.15c-1.21.64-1.92-1-1.92-1a1.52,1.52,0,0,1-2.22-.38,2,2,0,0,1,.24-2.48,1.33,1.33,0,0,1-.68-1.8c.59-1.69,2.15-.16,2.15-.16s.16-2.27,1.64-1.57a1.72,1.72,0,0,1,.84,2.24s1.91-.27,1.91,1.56-1.29,1.28-1.29,1.28S1564.76,783.49,1563.59,784.15Z"/>
        <path class="cls-17" d="M1581.77,791.27c-1.42,1-2.38-.9-2.38-.9a1.89,1.89,0,0,1-2.77-.13,2.5,2.5,0,0,1,.15-3.09,1.53,1.53,0,0,1-1-2.11c.62-2.13,2.62-.53,2.62-.53s.06-2.79,2-2.15a2,2,0,0,1,1.16,2.62s2.33-.64,2.44,1.6-1.52,1.78-1.52,1.78S1583.2,790.29,1581.77,791.27Z"/>
      </g>
    </g>
  </g>
</svg>
