<svg xmlns="http://www.w3.org/2000/svg" xmlns:xlink="http://www.w3.org/1999/xlink" width="90" height="108" viewBox="0 0 90 108">
  <defs>
    <style>
      .cls-1, .cls-7 {
        fill: none;
      }

      .cls-2 {
        isolation: isolate;
      }

      .cls-3 {
        fill: #666;
      }

      .cls-3, .cls-4, .cls-5, .cls-6, .cls-7 {
        fill-rule: evenodd;
      }

      .cls-4 {
        fill: #e50303;
      }

      .cls-5 {
        fill: red;
      }

      .cls-10, .cls-24, .cls-27, .cls-6 {
        fill: #fff;
      }

      .cls-6 {
        opacity: 0.46;
      }

      .cls-7 {
        stroke: #491a07;
        stroke-miterlimit: 10;
      }

      .cls-8 {
        opacity: 0.79;
      }

      .cls-9 {
        fill: url(#Dégradé_sans_nom_87);
      }

      .cls-10, .cls-24, .cls-27, .cls-28 {
        mix-blend-mode: overlay;
      }

      .cls-10 {
        opacity: 0.31;
      }

      .cls-11 {
        fill: url(#Dégradé_sans_nom_90);
      }

      .cls-12 {
        fill: url(#Dégradé_sans_nom_90-2);
      }

      .cls-13 {
        clip-path: url(#clip-path);
      }

      .cls-14 {
        fill: #6de2fe;
      }

      .cls-15 {
        fill: #387f69;
      }

      .cls-16 {
        fill: #42b236;
      }

      .cls-17 {
        opacity: 0.35;
      }

      .cls-18 {
        clip-path: url(#clip-path-2);
      }

      .cls-19 {
        clip-path: url(#clip-path-3);
      }

      .cls-20 {
        fill: url(#linear-gradient);
      }

      .cls-21 {
        fill: url(#Dégradé_sans_nom_156);
      }

      .cls-22 {
        fill: #244c0a;
      }

      .cls-23 {
        fill: #9b540d;
      }

      .cls-24 {
        opacity: 0.41;
      }

      .cls-25 {
        mix-blend-mode: multiply;
        opacity: 0.33;
      }

      .cls-26 {
        fill: #41771e;
      }

      .cls-27 {
        opacity: 0.34;
      }

      .cls-28 {
        opacity: 0.29;
      }
    </style>
    <linearGradient id="Dégradé_sans_nom_87" data-name="Dégradé sans nom 87" x1="-2573.35" y1="-87.75" x2="-2580.85" y2="-45.43" gradientTransform="matrix(-0.32, 1.03, 1, 0.33, -736.42, 2704.56)" gradientUnits="userSpaceOnUse">
      <stop offset="0" stop-color="#90c20c"/>
      <stop offset="1" stop-color="#689906"/>
    </linearGradient>
    <linearGradient id="Dégradé_sans_nom_90" data-name="Dégradé sans nom 90" x1="-9937.16" y1="-1032.56" x2="-9888.97" y2="-1049.21" gradientTransform="matrix(-0.45, 0.87, 0.93, 0.35, -3415.09, 9045.16)" gradientUnits="userSpaceOnUse">
      <stop offset="0" stop-color="#c5cf0d"/>
      <stop offset="1" stop-color="#72ab07"/>
    </linearGradient>
    <linearGradient id="Dégradé_sans_nom_90-2" x1="-4009.84" y1="-1502.82" x2="-3977.74" y2="-1513.91" gradientTransform="matrix(0.66, 1.23, 1.23, -0.66, 4514.73, 3934.37)" xlink:href="#Dégradé_sans_nom_90"/>
    <clipPath id="clip-path">
      <rect class="cls-1" x="-1549.62" y="-143.35" width="1280" height="720"/>
    </clipPath>
    <clipPath id="clip-path-2">
      <rect class="cls-1" x="-1992.29" y="-227.9" width="2041.68" height="513.84"/>
    </clipPath>
    <clipPath id="clip-path-3">
      <rect class="cls-1" x="-1992.29" y="-227.9" width="2041.69" height="513.84"/>
    </clipPath>
    <linearGradient id="linear-gradient" x1="-11481" y1="679.79" x2="-11479.99" y2="679.79" gradientTransform="matrix(0, 1611.79, 1611.79, 0, -1096646.62, 18504623.78)" gradientUnits="userSpaceOnUse">
      <stop offset="0" stop-color="#08f"/>
      <stop offset="0.04" stop-color="#08f"/>
      <stop offset="0.13" stop-color="#2399e8"/>
      <stop offset="0.42" stop-color="#96cf9b"/>
      <stop offset="0.63" stop-color="#dff26b"/>
      <stop offset="0.72" stop-color="#fbff58"/>
      <stop offset="1" stop-color="#fbff58"/>
    </linearGradient>
    <linearGradient id="Dégradé_sans_nom_156" data-name="Dégradé sans nom 156" x1="-10424.24" y1="179.49" x2="-10403.74" y2="1.76" gradientTransform="matrix(-1, 0, 0, 1, -10762.11, 0)" gradientUnits="userSpaceOnUse">
      <stop offset="0" stop-color="#769d1a"/>
      <stop offset="1" stop-color="#477411"/>
    </linearGradient>
  </defs>
  <g class="cls-2">
    <g id="Layer_1" data-name="Layer 1">
      <g>
        <g>
          <g>
            <g>
              <path class="cls-3" d="M48,57.27a14.89,14.89,0,0,0-2.46-10,4.51,4.51,0,0,1-.85-1.6,1.75,1.75,0,0,1,0-.79,1.37,1.37,0,0,1,.39-.68,1.35,1.35,0,0,1,.68-.35,1.31,1.31,0,0,1,.76.1,2.27,2.27,0,0,1,.92.87,11.86,11.86,0,0,1,1.73,8.64A14.41,14.41,0,0,1,48,57.27Z"/>
              <path class="cls-4" d="M49,93.36a12.75,12.75,0,0,1-7.13.47,18.84,18.84,0,0,1-6.52-3.1A30,30,0,0,1,26,80.57a22.5,22.5,0,0,1-2.75-13.43,18.15,18.15,0,0,1,4.43-9.9,15.37,15.37,0,0,1,9.54-5A14.28,14.28,0,0,1,48.41,56a14,14,0,0,1,15.52-2.8,15.57,15.57,0,0,1,7.32,7,19.19,19.19,0,0,1,2,10c-.4,6.89-4.07,13.24-8.73,18.32a19.82,19.82,0,0,1-5.27,4.35A12.4,12.4,0,0,1,49,93.36Z"/>
              <path class="cls-5" d="M44.8,92.79a11.61,11.61,0,0,1-5.61-2.55A22.1,22.1,0,0,1,35,85.62c-3.5-5-5.91-10.9-5.54-16.94a16,16,0,0,1,3-8.61,11.36,11.36,0,0,1,7.74-4.54,9.88,9.88,0,0,1,7.87,2.87,12.11,12.11,0,0,1,13.31-4.54,13.41,13.41,0,0,1,6.22,4.08,16.91,16.91,0,0,1,3.48,6.61,21.34,21.34,0,0,1-.68,13.12,25.72,25.72,0,0,1-7.79,10.67,18.43,18.43,0,0,1-9.34,4.34,13.57,13.57,0,0,1-4.45-.22A9.44,9.44,0,0,1,44.8,92.79Z"/>
            </g>
            <path class="cls-6" d="M50.63,60.82s7.06.56,10.63-4.13c0,0,8.38,9,1.57,19.2C62.83,75.89,61.21,64.06,50.63,60.82Z"/>
          </g>
          <path class="cls-7" d="M71.25,60.21a15.57,15.57,0,0,0-7.32-7,14,14,0,0,0-15.28,2.57,14.69,14.69,0,0,0,.58-2.26,11.86,11.86,0,0,0-1.73-8.64,2.27,2.27,0,0,0-.92-.87,1.31,1.31,0,0,0-.76-.1,1.35,1.35,0,0,0-.68.35,1.37,1.37,0,0,0-.39.68,1.75,1.75,0,0,0,0,.79,4.51,4.51,0,0,0,.85,1.6,14.88,14.88,0,0,1,2.55,8.43,14.26,14.26,0,0,0-10.89-3.48,15.37,15.37,0,0,0-9.54,5,18.15,18.15,0,0,0-4.43,9.9A22.5,22.5,0,0,0,26,80.57a30,30,0,0,0,9.36,10.16,18.84,18.84,0,0,0,6.52,3.1A12.75,12.75,0,0,0,49,93.36a12.4,12.4,0,0,0,10.25-.46,19.82,19.82,0,0,0,5.27-4.35c4.66-5.08,8.33-11.43,8.73-18.32A19.19,19.19,0,0,0,71.25,60.21Z"/>
        </g>
        <g class="cls-8">
          <path class="cls-9" d="M50.06,46.54a15.68,15.68,0,0,0-4.26-9.66c-.12-.14-.24-.27-.37-.4l-.37-.4C39.4,30.35,30.67,27.75,23,30.85c-4.81,1.93-9.49,5.85-14.44,4.86l.17.19C16,44.35,26.43,52.12,38,51.81c2.17-.06,9.54-1.25,11.58-3.83A2.15,2.15,0,0,0,50.06,46.54Z"/>
          <path class="cls-10" d="M50.06,46.54a15.68,15.68,0,0,0-4.26-9.66c-.12-.14-.24-.27-.37-.4l-.37-.4C39.4,30.35,30.67,27.75,23,30.85c-4.81,1.93-9.49,5.85-14.44,4.86l.17.19A20.28,20.28,0,0,0,12,37a59.9,59.9,0,0,0,7.45.91C30.59,39,39.61,43.42,49.54,48A2.15,2.15,0,0,0,50.06,46.54Z"/>
        </g>
        <g class="cls-8">
          <path class="cls-11" d="M61,49.8c7.1-3.08,12.73-9.49,13.74-16.61.84-6-1-11.82-3-17.39l0-.1a.35.35,0,0,1,0,.14A1.59,1.59,0,0,1,71.48,17c-1.47,2.53-8.28,5.27-9.86,6.15a25.64,25.64,0,0,0-4.7,3.34,25.94,25.94,0,0,0-7,10.23c-.82,2.24-2.67,10.16-1,13.12a2,2,0,0,0,1.16,1C53.45,52,57.49,51.32,61,49.8Z"/>
          <path class="cls-10" d="M61,49.8c7.1-3.08,12.73-9.49,13.74-16.61.84-6-1-11.82-3-17.39,0,0,0,0,0,0A11,11,0,0,0,71.48,17c-.32,1.77-.42,3.62-.69,4.78a29.76,29.76,0,0,1-4.34,9.29,63.91,63.91,0,0,1-4.25,5.81,69.29,69.29,0,0,1-8.39,8.58c-1.66,1.43-3.42,2.83-4.93,4.38a2,2,0,0,0,1.16,1C53.45,52,57.49,51.32,61,49.8Z"/>
        </g>
        <g class="cls-8">
          <path class="cls-12" d="M56,41.6c1.92-6.9.33-14.62-4.63-19.38-4.19-4-9.87-5.91-15.41-7.63l-.1,0,.12.06a1.55,1.55,0,0,1,.77.84c1.08,2.5-.92,9-1.2,10.65a21.53,21.53,0,0,0-.24,5.31A22.65,22.65,0,0,0,39,42.29c1.25,1.86,6.32,7.68,9.63,8.15a2.09,2.09,0,0,0,1.51-.26A14.75,14.75,0,0,0,56,41.6Z"/>
          <path class="cls-10" d="M56,41.6c1.92-6.9.33-14.62-4.63-19.38-4.19-4-9.87-5.91-15.41-7.63l0,0c.24.29.5.57.77.84,1.19,1.24,2.57,2.35,3.32,3.2a27,27,0,0,1,4.62,8.4,58,58,0,0,1,2,6.38,58.78,58.78,0,0,1,1.6,11c.11,2,.13,4.09.42,6.06a2.09,2.09,0,0,0,1.51-.26A14.75,14.75,0,0,0,56,41.6Z"/>
        </g>
      </g>
      <g class="cls-13">
        <path class="cls-14" d="M498.41,504.5l0-92.72V381.41l-.13-458.67,0-147.62-15622.49.31.07,186.16h0l0,129.3v105l0,63.92v1.62c1.21.12,1.78,3.95,2,9.52.19,5.81,0,13.53-.41,20.89-.35,7.21-.83,14.12-1.15,18.58h0c-.19,2.48-.35,4.21-.38,4.84v0a1.22,1.22,0,0,0,0,.23s0,0,.06.05c.42.58,5.25,6.79,7.85,7.15l0,89,0,59.93c4.38,15.44,6.54,30.05,2.35,46.16q-1.14,4.36-2.34,8.73l0,140.52v8h237.47L151,674.82H490.53l0-163.81h7.91Z"/>
        <path class="cls-15" d="M131.62,90.19V548.7H-3356.56V154.91a2.23,2.23,0,0,1,.34.12,43.1,43.1,0,0,1,10.08,2c.49.17,1,.35,1.44.55,2.52,1.07,4.53,2.49,5.49,4.14l.38-.06h.06c0-.09-.05-.18-.06-.26v0a8.4,8.4,0,0,1,.08-4.61h0a8.67,8.67,0,0,1,1.11-2.27,15.26,15.26,0,0,1,8.57-5.37c5.27-1.45,11.6-1.13,17.4-.51l.22-.31a23.94,23.94,0,0,1-10.75-5.12c-1.16-1.07-2-2.28-1.94-3.51a2.21,2.21,0,0,1,.13-.62c.74-2.18,4.47-3.9,8.52-4.54a46.3,46.3,0,0,1,9.8-.27l1,.06,1.29.08,1.55.12.52-.91a18,18,0,0,1-2.07-.72c-.29-.11-.58-.24-.85-.37s-.49-.23-.72-.36c-3.3-1.76-5.18-4.33-4.64-6.84.44-2,2.2-3.8,4.19-5.48.65-.54,1.32-1.08,2-1.6s1.49-1.07,2.27-1.59a.71.71,0,0,1,.14-.1c.8-.53,1.63-1,2.49-1.55s1.9-1.08,2.91-1.59l-.17-.21-4.11,1-.85.22h0c-.87.23-1.75.46-2.63.67l-9.87,2.53c-5.38,1.37-11,2.77-16.89,2.74a27.35,27.35,0,0,1-8.2-1.25c-2.65-.87-4.7-2.17-5.36-3.8-1-2.29,1-4.72,4.09-6.4.27-.14.55-.29.83-.42a51.58,51.58,0,0,1,10.23-3.25c8.19-2,16.6-3.68,25.17-5.1,1.51-.26,3-.51,4.55-.73l2.33-.37-.35-.7c-.62.08-1.26.13-1.9.16a28.82,28.82,0,0,1-4.63-.25,41.38,41.38,0,0,1-4.38-.87c-6-1.54-11.51-4.39-11.94-8-.22-1.79.87-3.57,2.42-5.17,3.08-3.16,8-5.78,13.9-7.38.57-.16,1.15-.31,1.75-.44l.48-.46.3-.28-.41,0-2.12-.21a56,56,0,0,1-14.36-3.24c-4.88-2-8.62-4.94-9-8.23-.46-3.47,3-6.8,8.14-8.88h0a29.9,29.9,0,0,1,6.47-1.77,40.2,40.2,0,0,1,8.07-.44l.69,0a46.6,46.6,0,0,1,11.25,2l.38.11c.69.23,1.37.46,2,.71s1.53.62,2.24,1c-.29-2.39,1.23-4.6,3.76-6.56h0a26.47,26.47,0,0,1,4.24-2.64h0c1-.5,2-1,3-1.42s2.09-.86,3.16-1.24c.57-.2,1.15-.41,1.74-.6a43.58,43.58,0,0,1,9.25-2.15h0a3.78,3.78,0,0,1,.47-.06,31.75,31.75,0,0,1,5.85,0,20,20,0,0,1,6.14,1.47,8.09,8.09,0,0,1,4.38,4.1,8.41,8.41,0,0,1,.31,5.24,17.84,17.84,0,0,1-1.92,4.71l1.74.53a39,39,0,0,1,11.75-6.17l1.11-.32a32.88,32.88,0,0,1,4.95-.93,29.16,29.16,0,0,1,9.87.47,16.77,16.77,0,0,1,2.08.63,10.48,10.48,0,0,1,4.41,2.9,4.72,4.72,0,0,1,1,1.79c.52,1.84-.39,3.77-2.45,5.26l1.29.51,4.71-1.84a35.34,35.34,0,0,1,10.83-2.86,14.72,14.72,0,0,1,7.92,1.53c-1-7.13,4-14.46,13.43-19.44a28.79,28.79,0,0,1,15-3.56c6.82.43,11.77,4,12.9,7.69s-.71,7.38-2.66,10.95a15.84,15.84,0,0,1-2.35,3.51l.5.13q5.31-2.14,10.58-4.27a24.4,24.4,0,0,1,5.36-1.68c5.32-.87,10.79,1,15,3,5.51,2.65,10.61,5.94,11.57,9.92,4-5,15-8.14,24.94-7l.5-.33c-5.68-2.56-10-6.16-10-10.12s4.27-7.5,10.24-9.6,13.41-2.74,20.47-2.32h2.18c-3.51-2.89-6.62-6-7.6-9.46s.43-7.2,5-9.65a30.48,30.48,0,0,1,10.22-2.85c8.15-1,17.29-.18,23.72,2.7,5.89,2.65,9.11,7,7.76,11a43.16,43.16,0,0,1,15-8.07,50.41,50.41,0,0,1,17.07-2.56c6,.24,12,2,14.7,4.87s1.94,6.42.28,9.54a33.4,33.4,0,0,1-9.07,10.44l.61.23a53.53,53.53,0,0,1,8.24-2.9,24,24,0,0,1,9.6-.42c4.31.78,7.06,3,9.48,5.12,2.2,1.91,4.44,3.88,5.39,6.08s.5,4.45.06,6.68l-.11.5a4.7,4.7,0,0,1-1.59,2.83,57.27,57.27,0,0,1,16-5.71h.05a77.25,77.25,0,0,1,13.17-1.56l.22-.06c-2-1.79-3.38-3.75-3.67-5.81-.28-2.27,1-4.66,3.93-6.26s7.19-2.26,11.33-2.32a98.62,98.62,0,0,1,12.3.86,3.49,3.49,0,0,0,1.37,0,1.29,1.29,0,0,0,.7-.6c1.81-2.82,3.42-5.85,7.29-8s10.79-3.06,14.88-1a8.61,8.61,0,0,1,2.94,2.43,18.91,18.91,0,0,1,3.34,5.45,14.79,14.79,0,0,1,5.49-6.28,28.69,28.69,0,0,1,15-4.66c6-.17,12.23,1.8,13.84,4.9a4.17,4.17,0,0,1,.35,2.78l1.22-.17c8.61-2.14,20,0,24.35,4.59a37.63,37.63,0,0,1,20.58-10.61c9-1.58,20.3.06,24.75,4.54a16.86,16.86,0,0,1,1.5-6.45c2.83-5.66,11.42-10.27,21.67-12.17a72.62,72.62,0,0,1,31.48,1.47c7.59,2.11,14.55,6.09,13.8,10.68-.3,1.82-1.79,3.52-3.42,5.1a27.73,27.73,0,0,1-11.36,6.89l.09.07c5.28-.73,11-1,16,.17s9.1,3.85,8.72,6.78a6,6,0,0,1-1.08,2.44,15.89,15.89,0,0,1-3.19,3.49,0,0,0,0,0,0,0,19,19,0,0,1-2.69,1.79A23.06,23.06,0,0,1-2699,55.1c2.14.24,4.25.49,6.39.72a52.67,52.67,0,0,1,10.59,2c3.16,1.1,5.63,3,5.3,5a5.17,5.17,0,0,1-2.18,2.86c-3.6,2.74-9.59,4.32-15.7,4.89a114.52,114.52,0,0,1-18.42-.2l-.06.29a65.65,65.65,0,0,1,11,2.57c3.05,1,6,2.36,7,4.23.9,1.59.2,3.34-1.17,4.81-3.49,3.71-10.77,5.84-17.75,7.55a49.16,49.16,0,0,1-11.2,1.74,52.29,52.29,0,0,1-13-1.88l-.58.74a19.58,19.58,0,0,1,7.63,3.64,24.58,24.58,0,0,1,5.16,4.28c1.18,1.46,1.7,3.15.92,4.68l2.55.46c2.18-4.77,11.64-8.22,20.65-7.55s16.32,5.43,16,10.36c2.72-1.86,7.6-2.36,12-2.17.85,0,1.69.1,2.51.18-12.94-7.74-18.07-18.78.33-26.39a49.47,49.47,0,0,1,31.23-2.41c12.49,3.13,22.31,10.78,26.48,18.42,5.82-5.58,20.62-8.72,31.78-6.07,1-6.74,14.79-10.62,26.12-8.56-9.88-7.92-18.85-20-6.77-28.72,9.52-6.94,29.78-5.34,40.13,0,12.21,6.3,14.5,16.21,16.13,24.81,5.8-5.53,16.83-9.84,29.08-9.18-8.1-6.69-9.24-15,.94-21.29,10.75-6.65,29.69-8.92,39.44-.41,3-7.49,13.67-13.85,28.47-14,31.18,0,38.09,21.46,31.57,34.15,8.92-3.36,15.9-2.92,21.09-.56A20.71,20.71,0,0,1-2344,78.37h0a17,17,0,0,1,.41,4l1.2-.78c4.62-3,11.27-6.84,18.81-5.8-3.27-11-.7-21.82,21.63-26,11.85-2.23,20.39,0,25.1,4a11.36,11.36,0,0,1,3,14.09c15.11-8.33,38.89-9.31,47.55,1.25a36.58,36.58,0,0,1,4.16-1.85c22-8.51,37.79,3.1,51.51,12,1.14.74,2.26,1.45,3.37,2.14-2.05-7.61,2.72-20.88,22.46-22.48s27.88,11.18,33.76,20.76c15-12.29,30.39-5.66,37.89,1.72,2-4.8,8.62-17.44,22.22-21.87s34-5.88,49.66-5.27c-11.12-4.91-18.59-17.8-9.74-23.34s24.94-3.19,41.94,5c-3.18-9.7,2.27-27.38,30.18-26.52s27,25.16,20,35.59c1-.36,23.44-9,42.56-.23-2.58-11.51-4.47-27.75,21.91-35.39a33.71,33.71,0,0,1,8.26-1.35h0c16.57-.63,28.67,11.53,33.47,17.33,1.49,1.8,2.28,3,2.28,3l2-1.45h0c14.91-11.21,36.9-29.92,63.46-24.23,19.82,4.23,23.29,18.74,15.87,32.86a45.76,45.76,0,0,1-4.51,6.87,57.63,57.63,0,0,1-9.31,9.21c11.14-2.21,29.48,1.31,22.78,13.65l.75-.63c7.07-5.9,17.83-11.27,34-7,14.51,3.85,11.14,17.62,11.14,17.62,18.31-19.11,44.16-36.9,68.14-30.6,18,4.73,13.63,18.36,1.6,33.78a181.21,181.21,0,0,1-12.19,13.86c.72-.21,14.11-4,24.4-2.85a20,20,0,0,1,6.41,1.66c10.11,4.82-1.37,12.52-7.7,18.45-3.36,3.14-5.56,6.22-5.61,8.54-.06,2.07,1.58,3.56,5.61,4,2.45.26,6.53-.32,11.38-1.19h0c8.69-1.57,19.86-4,28.51-4.27-4.5-6.3-3-13.16,9.68-18.39a50.33,50.33,0,0,1,14.26-3.63c20.19-2.07,37.51,8.8,43.44,19.64,5.82-5.57,20.61-8.72,31.77-6,.88-5.69,10.82-9.36,20.71-9.1,0,0,0,0,0,0a34.55,34.55,0,0,1,5.4.54q-.84-.66-1.65-1.38c-9.17-7.88-16.51-19.06-5.11-27.35,9.53-6.93,29.78-5.35,40.13,0,12.22,6.27,14.5,16.19,16.14,24.8,5.8-5.55,16.81-9.86,29.06-9.18-8.09-6.71-9.24-15,.94-21.31,10.75-6.63,29.71-8.89,39.44-.41,3-7.48,13.68-13.83,28.47-14,31.19,0,38.08,21.45,31.59,34.16,23.06-8.7,33.18,8,32.87,17.74,4.65-3,11.82-7.71,20-6.59-3.1-10.4-.92-20.73,18.44-25.32-1.24-6.11.74-12.39,6.76-17.88,5.6-5.12,15.78-8.95,27.09-7.88a30.61,30.61,0,0,1,9.43,2.36c7.11,3.06,11.46,8.41,12.92,13a38.24,38.24,0,0,1,15.17-5.68c-9.24-6.1-1-13.72,9.69-18.05a51.47,51.47,0,0,1,9-2.73c-23.39-5.56-43.82-23-18-33.66s50.43,2.66,57.71,16c2.34-2.24,6.13-4.1,10.57-5.33a44.31,44.31,0,0,1,21.22-.72c1-6.74,14.77-10.64,26.12-8.57-9.88-7.92-18.84-19.94-6.79-28.73,9.53-6.93,29.78-5.35,40.14,0,12.21,6.28,14.5,16.19,16.13,24.8,5.8-5.54,16.83-9.85,29.09-9.17-8.12-6.72-9.25-15,.93-21.32,10.75-6.63,29.7-8.9,39.44-.41,2.47-6.19,10.21-11.61,21.18-13.36h0A46.7,46.7,0,0,1-843-47c29.88,0,37.48,19.71,32.31,32.52h0c-.22.56-.47,1.09-.74,1.62.69-.26,1.36-.49,2-.71h0c21.64-7,31.15,9,30.88,18.46,4.62-3,11.79-7.7,20-6.58-3.27-11-.69-21.83,21.63-26,22.67-4.27,33.2,7.61,28.12,18.15,16.79-9.27,44.3-9.44,49.87,5.17,3.17,8.35-.74,17.39-8.26,25.32h0A71.29,71.29,0,0,1-684.7,34.13c17.84-.87,36,2.51,50,8.44-.9-3.44-2-7.76,2.81-10.49,5.43-3.11,15.33-3,22.28-2,11,1.56,16.57,5.77,20.08,11.11,1.22-.18,2.44-.33,3.62-.4a56.72,56.72,0,0,1,34.29-11.13c10.4,0,19.86,2.16,25.16,6.43a35.81,35.81,0,0,1,5.28-.77c7.73-.64,13.69,1,18.43,3.67,7.36,4.24,11.78,11.25,15.36,17.07,15-12.27,30.39-5.66,37.87,1.72,2-4.79,8.63-17.44,22.23-21.85,11.58-3.76,28.09-5.39,42.4-5.42h0c2.51,0,4.94.05,7.27.14A26.11,26.11,0,0,1-381,28.83a24.69,24.69,0,0,1-8.71-9.16h0c-2.4-4.66-2.19-9.49,2.37-12.34,8.85-5.53,25-3.19,42,5-3.19-9.7,2.26-27.38,30.15-26.51s27,25.15,20,35.58c.94-.36,23.44-9,42.53-.23-2.57-11.49-4.44-27.74,21.94-35.39s44,19,44,19C-178.87-1-168.69-9.64-156.7-15.5c10.49-5.14,22.36-8.17,35.32-5.39,27.73,5.92,23.46,32,2,49,11.14-2.22,29.45,1.3,22.78,13.64,7-6.12,18-12.07,34.77-7.61,14.5,3.85,11.12,17.62,11.12,17.62C-32.32,32.61-6.47,14.8,17.51,21.1c23.31,6.13,9.07,27.17-10.59,47.64.89-.25,20.9-5.89,30.8-1.17C47.82,72.38,36.35,80.07,30,86a27.9,27.9,0,0,0-4.11,4.68c-2.36,3.57-2.18,6.51,2.4,7.55a14.9,14.9,0,0,0,1.71.28c8.57.93,37.18-8.53,48.67-4.45C89.15,97.8,92,104.17,91.81,111.77a16.86,16.86,0,0,1,3.31-1,21.91,21.91,0,0,1,3-.38,72,72,0,0,1,7.65-3.65,3.31,3.31,0,0,1,.09-1c.65-2.71,4.71-5.07,9.66-5.63a31.12,31.12,0,0,1,7.83.26l.82-.93a23.67,23.67,0,0,1-5.58-2c-2.7-1.52-4-4-2-5.81,2.88-2.53,9.59-2.17,15-1.36"/>
        <path class="cls-16" d="M177.24,169.63V497h-2272.7V215.85a1.09,1.09,0,0,1,.23.09,25.64,25.64,0,0,1,6.56,1.4,8.32,8.32,0,0,1,4.51,3.34l.29,0a6.47,6.47,0,0,1,.74-5.12,9.89,9.89,0,0,1,5.58-3.84c3.44-1,7.56-.81,11.34-.36l.14-.22a15,15,0,0,1-7-3.66,3.59,3.59,0,0,1-1.26-2.5c.13-1.78,2.76-3.19,5.64-3.68a35,35,0,0,1,8.86,0l.34-.66c-3.56-1.08-5.86-3.54-5.39-5.91a8.14,8.14,0,0,1,2.72-3.92,34.33,34.33,0,0,1,6.41-4.59l-.11-.14-11.41,3.2a40.42,40.42,0,0,1-11,2c-3.86,0-8-1.37-8.84-3.6-.62-1.64.67-3.38,2.68-4.57a28.4,28.4,0,0,1,7.2-2.63c6.76-1.78,13.75-3.26,20.88-4.42l-.23-.5a17.88,17.88,0,0,1-7.1-.69c-3.89-1.1-7.5-3.13-7.79-5.69a5,5,0,0,1,1.58-3.69c2.2-2.48,5.85-4.49,10.2-5.59l.51-.53a36.53,36.53,0,0,1-11-2.49c-3.18-1.39-5.61-3.52-5.88-5.87-.41-3.41,4-6.64,9.53-7.61a27.19,27.19,0,0,1,16.07,2.38c-.4-3.52,4.29-6.52,9.23-8.47a28.3,28.3,0,0,1,7.47-2,15.08,15.08,0,0,1,7.82,1c3.11,1.54,3.56,4.28,3,6.67a13.77,13.77,0,0,1-1.25,3.37l1.14.38a23.91,23.91,0,0,1,8.38-4.64c3.43-1,7.85-1.19,11,.13a5.56,5.56,0,0,1,3.53,3.34,3.67,3.67,0,0,1-1.59,3.75l.83.37,3.07-1.31a21.41,21.41,0,0,1,7.06-2.05,9,9,0,0,1,5.16,1.09c-.65-5.08,2.58-10.32,8.75-13.88a17.55,17.55,0,0,1,9.79-2.54c4.44.31,7.67,2.87,8.4,5.49s-.47,5.28-1.73,7.82a11.42,11.42,0,0,1-1.53,2.51l.32.1,6.89-3a14.73,14.73,0,0,1,3.5-1.21c3.46-.62,7,.71,9.76,2.13,3.59,1.89,6.91,4.24,7.54,7.08,2.61-3.61,9.77-5.82,16.25-5l.32-.24c-3.7-1.83-6.53-4.4-6.53-7.22s2.78-5.36,6.68-6.85a32.59,32.59,0,0,1,13.33-1.66h1.42c-2.28-2.07-4.31-4.31-5-6.76s.28-5.14,3.24-6.89a18.6,18.6,0,0,1,6.66-2c5.31-.75,11.26-.13,15.45,1.93,3.84,1.89,5.94,5,5.06,7.87a27.45,27.45,0,0,1,9.79-5.76,30.21,30.21,0,0,1,11.12-1.83c3.89.17,7.78,1.42,9.57,3.48s1.27,4.58.19,6.81a23.53,23.53,0,0,1-5.91,7.46l.4.16a32.21,32.21,0,0,1,5.37-2.07,14.43,14.43,0,0,1,6.24-.31,12.26,12.26,0,0,1,6.18,3.66,13.5,13.5,0,0,1,3.51,4.35,8.56,8.56,0,0,1,0,4.76,3.8,3.8,0,0,1-1.1,2.38c5-3,11.91-4.95,19.06-5.19l.14,0a7.53,7.53,0,0,1-2.39-4.15,4.65,4.65,0,0,1,2.56-4.47,15.77,15.77,0,0,1,7.39-1.66,60.91,60.91,0,0,1,8,.62,1.9,1.9,0,0,0,.89,0,.82.82,0,0,0,.46-.43c1.18-2,2.23-4.17,4.74-5.72s7-2.19,9.7-.73a5.7,5.7,0,0,1,1.92,1.73,13.6,13.6,0,0,1,2.17,3.89,10.35,10.35,0,0,1,3.58-4.48,17.63,17.63,0,0,1,9.81-3.33c3.87-.12,8,1.29,9,3.5a3.27,3.27,0,0,1,.22,2l.8-.12c5.61-1.53,13,0,15.86,3.27a24,24,0,0,1,13.41-7.57c5.87-1.14,13.23,0,16.13,3.24a12.88,12.88,0,0,1,1-4.61c1.84-4,7.44-7.33,14.11-8.69a43.32,43.32,0,0,1,20.52,1.06c4.94,1.5,9.47,4.34,9,7.62a7.52,7.52,0,0,1-2.23,3.64,17.9,17.9,0,0,1-7.4,4.92l0,0a28,28,0,0,1,10.46.13c3.28.79,5.92,2.75,5.68,4.85a4.61,4.61,0,0,1-.71,1.74,11,11,0,0,1-3.84,3.77,13.92,13.92,0,0,1-5.58,1.81l4.16.52a31.33,31.33,0,0,1,6.91,1.39c2.06.79,3.66,2.16,3.45,3.6a3.69,3.69,0,0,1-1.42,2c-2.35,2-6.25,3.08-10.23,3.49a66.86,66.86,0,0,1-12-.15l0,.21a40.56,40.56,0,0,1,7.18,1.84c2,.73,3.9,1.69,4.57,3a3.1,3.1,0,0,1-.76,3.44c-2.28,2.65-7,4.16-11.57,5.38a29.59,29.59,0,0,1-7.3,1.25,31.11,31.11,0,0,1-8.45-1.35l-.38.53a12.43,12.43,0,0,1,5,2.6,17,17,0,0,1,3.37,3.06,3.27,3.27,0,0,1,.59,3.34l1.66.33c1.42-3.41,7.59-5.87,13.45-5.39s10.64,3.87,10.43,7.39c1.78-1.33,5-1.68,7.8-1.54.55,0,1.09.06,1.63.12-8.43-5.52-11.77-13.41.22-18.84,16.86-7.64,32.85,1.91,37.6,11.43,3.79-4,13.43-6.23,20.71-4.33.68-4.81,9.63-7.58,17-6.11-6.43-5.66-12.29-14.25-4.42-20.51,6.21-5,19.41-3.81,26.16,0,8,4.49,9.44,11.57,10.51,17.71,3.77-4,11-7,18.94-6.55-5.28-4.79-6-10.72.62-15.21,7-4.75,19.34-6.36,25.69-.29,2-5.34,8.91-9.89,18.55-10,20.31,0,24.82,15.32,20.57,24.39,15-6.21,21.62,5.72,21.44,12.67,3-2.13,7.68-5.51,13-4.7-2.13-7.83-.45-15.58,14.09-18.57,14.78-3,21.64,5.43,18.33,12.95,9.84-5.94,25.34-6.64,31,.9a22.78,22.78,0,0,1,2.71-1.32c15.51-6.58,26.29,3.68,35.75,10.08-1.33-5.44,1.78-14.91,14.63-16s18.17,8,22,14.82c9.76-8.77,19.8-4,24.68,1.23,1.32-3.43,5.61-12.45,14.48-15.62s22.16-4.19,32.36-3.76c-7.25-3.51-12.12-12.71-6.35-16.66s16.25-2.28,27.33,3.6c-2.08-6.92,1.47-19.55,19.65-18.93s17.57,18,13,25.41c.61-.26,15.27-6.45,27.72-.17-1.67-8.22-2.91-19.81,14.28-25.26s28.68,13.54,28.68,13.54c9.71-7.81,24.54-22.58,42.62-18.33s15.29,22.83,1.34,34.94c7.26-1.58,19.2.93,14.84,9.74,4.59-4.37,11.72-8.6,22.66-5.43,9.46,2.75,7.26,12.58,7.26,12.58,11.93-13.64,28.77-26.35,44.4-21.85,15.2,4.38,5.92,19.38-6.9,34,.58-.18,13.63-4.21,20.07-.86s-.9,9-5,13.18-5.58,8.28,0,8.94c4.45.53,17.22-3.66,26-3.89-2.93-4.5-2-9.39,6.3-13.13,16.86-7.64,32.85,1.91,37.6,11.43,3.8-4,13.43-6.22,20.7-4.32.68-4.81,9.63-7.59,17-6.11-6.44-5.66-12.28-14.24-4.41-20.52,6.21-5,19.41-3.81,26.15,0,8,4.48,9.45,11.56,10.51,17.71,3.78-4,11-7,18.94-6.55-5.27-4.79-6-10.72.61-15.22,7-4.74,19.36-6.35,25.7-.29,2-5.34,8.92-9.88,18.55-10,20.32,0,24.81,15.32,20.58,24.39,15-6.21,21.62,5.73,21.42,12.67,3-2.13,7.7-5.5,13-4.7-2-7.43-.6-14.81,12-18.08-.81-4.37.48-8.85,4.4-12.77,3.65-3.65,10.28-6.39,17.65-5.63,8.3.85,13.24,6.43,14.56,11a23.72,23.72,0,0,1,9.89-4c-7.68-5.56,3.21-12.88,12.19-14.84-15.25-4-28.55-16.42-11.75-24s32.85,1.91,37.6,11.44c3.79-4,13.44-6.23,20.71-4.32.68-4.82,9.63-7.6,17-6.12-6.44-5.65-12.28-14.24-4.42-20.51,6.21-5,19.4-3.82,26.15,0,8,4.47,9.44,11.56,10.51,17.71,3.78-4,11-7,18.95-6.56-5.29-4.79-6-10.72.61-15.21,7-4.74,19.35-6.36,25.69-.3,1.95-5.34,8.91-9.87,18.56-10,20.31,0,24.81,15.31,20.56,24.38,15-6.2,21.62,5.74,21.44,12.67,3-2.13,7.68-5.5,13-4.7-2.13-7.82-.46-15.58,14.09-18.56,14.77-3,21.63,5.43,18.32,13,10.94-6.62,28.87-6.74,32.49,3.69,3.36,9.71-5.48,20.71-16.82,27.46a70.64,70.64,0,0,1,32.57,6c-.58-2.46-1.28-5.54,1.83-7.49,3.54-2.22,10-2.13,14.52-1.42,7.15,1.11,10.8,4.12,13.08,7.93.8-.13,1.59-.23,2.36-.29a34.9,34.9,0,0,1,22.34-7.94c6.78,0,12.94,1.53,16.39,4.59a22.09,22.09,0,0,1,3.44-.55c12.86-1.15,18.18,8,22,14.81,9.76-8.76,19.8-4,24.67,1.22,1.34-3.42,5.63-12.44,14.49-15.6s22.16-4.2,32.36-3.77c-7.25-3.51-12.12-12.71-6.36-16.65s16.26-2.28,27.34,3.59c-2.08-6.92,1.48-19.55,19.64-18.93s17.59,18,13,25.41c.61-.26,15.27-6.46,27.71-.17-1.67-8.21-2.9-19.81,14.29-25.26s28.68,13.54,28.68,13.54c9.7-7.81,24.54-22.58,42.63-18.34s15.28,22.84,1.33,35c7.26-1.59,19.19.92,14.85,9.73,4.57-4.36,11.71-8.61,22.65-5.43,9.45,2.75,7.25,12.58,7.25,12.58,11.94-13.64,28.79-26.35,44.41-21.85,15.19,4.38,5.91,19.39-6.9,34,.58-.17,13.62-4.2,20.07-.84s-.89,8.94-5,13.18-5.57,8.27,0,8.93,24.22-6.09,31.71-3.17c6.83,2.66,8.7,7.2,8.56,12.62a12,12,0,0,1,4.09-1,46.59,46.59,0,0,1,5-2.6,2.64,2.64,0,0,1,.05-.74c.43-1.93,3.07-3.63,6.3-4a18.56,18.56,0,0,1,5.1.18l.54-.66a14.57,14.57,0,0,1-3.64-1.46c-1.76-1.09-2.64-2.86-1.29-4.15,1.87-1.81,6.25-1.55,9.8-1"/>
        <g class="cls-17">
          <g class="cls-18">
            <g class="cls-19">
              <rect class="cls-20" x="-1992.29" y="-227.9" width="2041.69" height="513.84"/>
            </g>
          </g>
        </g>
        <g>
          <path class="cls-21" d="M-731.41-47.79c.17-40.78,41.68-73.72,92.7-73.58,22.24.06,44.7,7.33,61.47,19.75a191.81,191.81,0,0,0,58.48,29.86c43.13,13.66,89.07,19.42,134.61,25.09l81.8,10.19c28.38,3.54,56.79,7.07,85.39,9,50.75,3.36,103.9,1.59,152.06,17.74C-45.25-3.18-23.68,2.05-8.26,15,7.53,28.3,16.41,46.77,16.33,65.65c-.17,38.8-36.65,70.16-81.49,70A91.15,91.15,0,0,1-101.73,128c-12.78,29-47.78,49.7-88.9,49.58-42.71-.11-78.63-22.7-89.83-53.48a107.93,107.93,0,0,1-34.55,5.5c-33.17-.09-62.05-14.8-77.44-36.57-16.95,17.7-43.68,29.09-73.72,29-22.63-.06-43.32-6.63-59.34-17.47a110.93,110.93,0,0,1-44.21,8.85c-51-.14-92.25-33.32-92.07-74.1a59.9,59.9,0,0,1,2-14.94C-700.95,16.84-731.56-12.64-731.41-47.79Z"/>
          <path class="cls-22" d="M-731.41-47.79c0-12.42,4.12-24.37,11.38-35.29,6.58-9.88,17.87-12.67,24.94-21-19.85,23.24-22.78,55.18-7.39,80.52,5.83,9.6,14,18.14,22.05,26.61l26.78,28.05c13.93,14.61,41.34,45.68,67.29,26.55-1.08.79,19.2,10.89,21.12,11.58a90.33,90.33,0,0,0,27.44,5.34c19.23.71,29.53-8.71,33.52-23.46,16.24,7.69,32.6,15.44,50.35,20.51a133.5,133.5,0,0,0,39.65,5.51c2.64-.07,32.39-2.7,31.28-6.44,4.41,14.85,20.25,23.73,36.42,30.11,14.39,5.68,29.56,10.46,45.48,12,9.51.92,30.22,2,36.39-5.82,26,27.71,75.68,35.53,117.42,26.75,17.93-3.78,37.38-12.62,39.64-27.44,20.22,9.4,46.15,10.32,67.33,2.4,34.51-12.92,48.9-47.59,46-76.51C15.2,39.15,16.37,56,16.33,65.65c-.17,38.8-36.65,70.16-81.49,70A91.15,91.15,0,0,1-101.73,128c-12.78,29-47.78,49.7-88.9,49.58-42.71-.11-78.63-22.7-89.83-53.48a107.93,107.93,0,0,1-34.55,5.5c-33.17-.09-62.05-14.8-77.44-36.57-16.95,17.7-43.68,29.09-73.72,29-22.63-.06-43.32-6.63-59.34-17.47a110.93,110.93,0,0,1-44.21,8.85c-51-.14-92.25-33.32-92.07-74.1a59.9,59.9,0,0,1,2-14.94C-700.95,16.84-731.56-12.64-731.41-47.79Z"/>
          <path class="cls-22" d="M-785.86-7.37c0,50.82,64.4,92.25,127.52,95.06,12.73.56,25.85-.38,37.32-4.65,10.15-3.79,18.86-10.4,27-16.64,2.1-1.62,4.15-3.21,6.2-4.71,12-8.9,19.56-20.87,20.61-33.76a50.45,50.45,0,0,0,7.66,2.89c12.95,3.73,27.53,2.53,39.88-2.46-3.62,16.41,7.92,25.17,26.76,32.91q18.43,7.56,37.78,13.7c17.82,5.66,36.54,10.43,55.81,10.48s39.35-5.27,51.48-16.79c7.24,10.79,20.9,18.22,35.22,23.33,17.36,6.2,37,9.6,55.8,7s36.7-11.82,44-25.43c17.09,9.35,38.93,12.3,59.89,11.72,24.3-.67,48.88-6,68.1-17.45s32.41-29.57,31.72-48.27c.06,1.53,23-9,27.83-11.29.39-.17.66-.31.8-.37C-15.1,3.36-7.49-.73-.27-7.47,14.64-21.41,23.39-38.9,23.39-57c0-46.4-55.09-84-123-84-54.63,0-100.93,24.31-117,57.95a149.46,149.46,0,0,0-60-12.14c-34.47,0-65.42,10.93-86.64,28.27a171.86,171.86,0,0,0-33.11-3.18,165.79,165.79,0,0,0-54.64,9c-8.6-33.19-44.19-58.09-86.81-58.09-32.26,0-60.49,14.25-76,35.58a148.52,148.52,0,0,0-55.55-10.49,148.55,148.55,0,0,0-53.88,9.84C-760.49-69.81-785.86-40.8-785.86-7.37Z"/>
          <g>
            <path class="cls-23" d="M-627.53-12.87a1.79,1.79,0,0,1,0-.23.6.6,0,0,1,0-.24,1.12,1.12,0,0,1,0-.21,4.63,4.63,0,0,1,.26-.74,1.46,1.46,0,0,1,.16-.3.47.47,0,0,1,.07-.12c.06-.08.11-.16.18-.24s0,0,0,0a1,1,0,0,1,.14-.16,1,1,0,0,1,.18-.18l.14-.12.13-.11a.38.38,0,0,1,.13-.09,2.56,2.56,0,0,1,.35-.22.54.54,0,0,1,.19-.11.69.69,0,0,1,.2-.09c.15-.07.31-.13.48-.19a.05.05,0,0,1,0,0l.19-.06h0l.25-.06a3.22,3.22,0,0,1,.51-.09,3.08,3.08,0,0,1,2.51.68c.12.47.24.92.4,1.37l.12.4c.11.37.25.73.38,1.09.2.53.4,1,.63,1.55.07.17.14.32.22.49l.58,1.16.23.39c.14.26.29.52.44.76a3.12,3.12,0,0,0,.29.45s0,0,0,0a1.21,1.21,0,0,0,.1.14,22.63,22.63,0,0,0,2.77,3.48c.19.2.38.38.58.56s.31.31.49.47a5.79,5.79,0,0,0,.51.44l0,0a7.75,7.75,0,0,0,.62.52,8.27,8.27,0,0,0,.66.51c.18.14.36.28.55.41.38.27.78.54,1.19.8s.91.57,1.39.82,1.08.59,1.66.86c.31.16.63.3.94.44a.27.27,0,0,0,.14.05q.27.14.54.24l.16.07,1.23.49c.36.13.73.26,1.1.37a8.78,8.78,0,0,0,1.13.37h0c.8.24,1.61.47,2.44.67.41.11.84.21,1.26.3l1.32.28c.59.12,1.18.23,1.8.33a55.68,55.68,0,0,0,10.49.82h0l.32,0c-.33-.58-.66-1.17-1-1.75l-.53-1c-.19-.34-.35-.69-.53-1q-1.56-3.09-2.85-6.28c-.88-2.13-1.69-4.28-2.45-6.46-.35-1-.71-2.05-1-3.08-.4-1.19-.77-2.38-1.14-3.57-.65-2.12-1.3-4.23-1.93-6.34l12.84-1.77c0,.26.08.53.14.78s.08.52.13.79c.18.9.39,1.8.63,2.68.15.6.33,1.19.52,1.78s.42,1.32.66,2c.14.38.28.75.43,1.13s.34.85.52,1.27.33.76.49,1.14l.1.19c.21.47.42.92.66,1.39a36.12,36.12,0,0,0,6.24-.34,6.85,6.85,0,0,0,.89-.14.76.76,0,0,0,.21,0l.68-.13c.23,0,.47-.1.7-.17s.52-.12.78-.2.5-.13.73-.22.59-.19.88-.3l.67-.25.19-.09c.21-.08.41-.17.62-.27a17,17,0,0,0,2-1.08l.29-.2c.26-.18.51-.35.74-.54a1.49,1.49,0,0,0,.2-.15,10.59,10.59,0,0,0,.86-.76,12.75,12.75,0,0,0,.94-1c.15-.17.28-.34.4-.5a4.8,4.8,0,0,0,.38-.54l.07-.09a7.23,7.23,0,0,0,.4-.66c.07-.11.12-.21.18-.32a1.74,1.74,0,0,0,.16-.34,6.29,6.29,0,0,0,.32-.7c.07-.17.12-.32.18-.49s.11-.32.15-.47.11-.41.15-.62a9,9,0,0,0,.18-1.24c0-.2,0-.4,0-.6a6.12,6.12,0,0,0,0-.74,3.85,3.85,0,0,0-.08-.58,5.53,5.53,0,0,0-.29-1.2,3.52,3.52,0,0,0-.15-.42,8,8,0,0,0-.49-1l7.86-.25c1.49,0,1.84,3.64,1.77,7.23,0,.19,0,.38,0,.56,0,1.25-.12,2.48-.22,3.48,0,.28,0,.53-.08.77-.08.58-.15,1.07-.2,1.39a1.88,1.88,0,0,1-.1.36c-.11.31-.23.61-.36.91s-.24.55-.37.83-.18.35-.29.53l0,0c-.07.13-.14.27-.21.39a3.77,3.77,0,0,1-.25.41c-.16.27-.34.54-.52.79s-.37.52-.57.77-.26.32-.4.47-.41.46-.63.69l-.14.15a.66.66,0,0,1-.15.14,6.92,6.92,0,0,1-.56.53.45.45,0,0,1-.13.11l-.09.08a15,15,0,0,1-1.46,1.14h0l-.14.1-.1.07a1.67,1.67,0,0,1-.26.17l-.23.16a7.71,7.71,0,0,1-.74.46c-.15.1-.32.2-.49.29s-.62.34-.94.5-.52.26-.79.39l-1.21.55a28.25,28.25,0,0,1-4.11,1.36l-.24,0-.11,0a1.22,1.22,0,0,1-.26.06l-.35.08-1,.17a18.4,18.4,0,0,1-2.41.29h-1.28c-.36,0-.71,0-1.07,0,.49.63,1,1.25,1.51,1.86l.55.65c.74.86,1.51,1.7,2.3,2.53.37.41.76.81,1.15,1.21.14.14.29.28.43.43l.44.42c.48.47,1,1,1.48,1.41q1.95,1.83,4.07,3.56l1.62,1.29a1.82,1.82,0,0,0,.25.2h0c.23.19.48.38.73.55s.68.53,1,.79.91.66,1.36,1c1.06.75,2.14,1.48,3.25,2.2.18.13.37.24.56.37s.67.44,1,.65q2,1.29,4.17,2.48c1.44.82,2.89,1.58,4.37,2.33.93.46,1.87.91,2.81,1.34.55.26,1.1.51,1.66.75,1.31.59,2.62,1.14,4,1.67l1.49.59c.67.26,1.35.53,2,.77s1.35.5,2,.74l1.59.56,1.56.53c.92.31,1.86.61,2.8.9l.25.08c.79.25,1.59.5,2.39.73l.48.14c.34.11.67.21,1,.3l2.43.71,2.12.59,1.83.5,1,.28h0l1.37.36,1.3-.62c1.85-.87,3.69-1.76,5.49-2.7l-.3-.14-.22-.09-.74-.35c-.37-.17-.76-.36-1.13-.57l-.79-.45-1.16-.71-1-.65c-.27-.19-.53-.39-.8-.6a9.29,9.29,0,0,1-.77-.6c-.48-.36-.95-.76-1.4-1.17,0,0,0,0,0,0l0,0c-.23-.21-.43-.38-.64-.59a.55.55,0,0,1-.14-.12l-.56-.53q-.69-.68-1.35-1.38c-.22-.22-.42-.46-.62-.69-3.82-4.27-6.43-9.08-6.63-12.63a18.13,18.13,0,0,1,0-1.95c0-.7.08-1.4.16-2.09a9.06,9.06,0,0,1,.13-.91c0-.33.11-.66.17-1s.13-.67.21-1c.14-.66.3-1.31.49-2l.21-.69c.16-.58.34-1.14.53-1.7s.36-1.08.57-1.61.38-1.07.59-1.6c.39-1.06.82-2.11,1.23-3.16a42.47,42.47,0,0,0,9.89.65c-.38.4-.75.82-1.1,1.23a17.44,17.44,0,0,0-1.72,2.6,14.24,14.24,0,0,0-1.14,2.73,6,6,0,0,0-.2.69c0,.16-.08.3-.11.46a13.15,13.15,0,0,0-.3,2.18c0,.19,0,.38,0,.57a9.55,9.55,0,0,0,0,1.07,5.46,5.46,0,0,0,0,.58c0,.21,0,.42.07.63a17.17,17.17,0,0,0,.37,1.87c.06.21.13.41.2.62a3.88,3.88,0,0,0,.21.63,12.14,12.14,0,0,0,.51,1.25h0a16,16,0,0,0,1.24,2.2,15.28,15.28,0,0,0,1.62,2.12,19.54,19.54,0,0,0,3.18,2.86A101.13,101.13,0,0,0-492.1,22.5c.23-.18.47-.36.7-.56s.41-.34.6-.52l.59-.53c.25-.22.5-.44.72-.66s.43-.42.64-.64c.4-.39.77-.79,1.12-1.19a.9.9,0,0,0,.21-.23c.36-.39.7-.78,1-1.19s.48-.58.7-.87.52-.68.75-1,.58-.83.85-1.25a25.85,25.85,0,0,0,1.55-2.74,12.47,12.47,0,0,0,.55-1.18,11.87,11.87,0,0,0,.54-1.35c.18-.44.31-.9.45-1.36a0,0,0,0,1,0,0c.14-.45.25-.9.35-1.34a13.91,13.91,0,0,0,.26-1.38,17.46,17.46,0,0,0-.39-7.29,13.34,13.34,0,0,0,6.41-.67,30,30,0,0,1,1.32,3.12,28.38,28.38,0,0,1,.93,3.16,29.74,29.74,0,0,1,.67,8.24c0,.52-.07,1-.14,1.55l0,.33c0,.33-.08.67-.14,1a1.35,1.35,0,0,1-.05.29c0,.24-.07.48-.12.71s-.14.7-.21,1.05l-.16.68c-.13.5-.26,1-.42,1.52-.08.31-.19.63-.3.94s-.23.71-.37,1.06-.34.93-.53,1.39-.3.7-.47,1.05-.23.51-.36.77a.06.06,0,0,1,0,.05.75.75,0,0,1-.1.2s0,0,0,0c-.24.5-.5,1-.76,1.46s-.67,1.19-1,1.78l-.55.86c-.18.29-.37.58-.57.85l-.59.83-.64.83-.57.73c-.34.42-.7.84-1.07,1.25-.81.93-1.67,1.82-2.58,2.68-.29.27-.56.53-.85.78s-.58.49-.86.73a25.85,25.85,0,0,1-2.24,1.66c10,2.61,19.92,5.18,29.7,7.84,3.2.86,6.39,1.75,9.57,2.64,11.45,3.22,22.77,6.64,33.95,10.5l.23.08c8,2.75,15.84,5.71,23.67,9,1.27.53,2.54,1.07,3.79,1.63h.1a37.09,37.09,0,0,0,4.06-.71l.2-.07.14,0a1.38,1.38,0,0,0,.23-.09l.17-.1s0,0,0-.07a0,0,0,0,0,0,0c0-.23.07-.47.11-.7.32-2,.66-4,1.08-5.87l.09-.34c.05-.21.11-.42.15-.63.12-.54.24-1.08.37-1.61v0c.55-2.21,1.15-4.35,1.88-6.4l-.11,0-.3-.11c-2.28-.88-4.57-1.86-6.78-2.94a0,0,0,0,0,0,0c-4.91-2.48-9.31-5.53-11.85-9.23-.19-.29-.39-.57-.58-.87a21.2,21.2,0,0,1-1.14-2.08l0-.07a3.7,3.7,0,0,1-.24-.54c-.18-.37-.35-.76-.5-1.15s-.3-.75-.42-1.12-.24-.71-.35-1.07-.19-.65-.27-1a26.78,26.78,0,0,1-.59-2.77c0-.25-.08-.5-.11-.75a9.94,9.94,0,0,1-.14-1.06c0-.38-.08-.74-.11-1.12,0-.21,0-.42,0-.62a5.59,5.59,0,0,1-.05-.81,6.69,6.69,0,0,1,0-.77,1.48,1.48,0,0,1,0-.21,60.37,60.37,0,0,1,.26-7.12l10.53.94a15.55,15.55,0,0,0-.64,7.19,13.15,13.15,0,0,0,.42,2c.07.26.14.51.23.77a.06.06,0,0,0,0,.06,5.69,5.69,0,0,0,.25.69,7.27,7.27,0,0,0,.38.91.51.51,0,0,0,.07.15s0,0,0,0a3.49,3.49,0,0,0,.2.44c.08.17.17.32.26.48a4.4,4.4,0,0,0,.29.51.19.19,0,0,0,.05.09,6.62,6.62,0,0,0,.46.71,14.37,14.37,0,0,0,1,1.35,8.6,8.6,0,0,0,.58.64,8.31,8.31,0,0,0,.66.67,8.68,8.68,0,0,0,.7.65c.27.24.57.48.87.7.07.07.15.11.22.17.32.23.63.45,1,.65s.37.23.57.34l.57.32c.13.07.24.14.36.19.27.15.56.28.85.41l.2.09a1.45,1.45,0,0,0,.22.09l1.06.41h0l.06,0c.33.12.65.23,1,.32s.67.2,1,.29l1,.24c.19,0,.39.09.59.12l.81.15,1.54.23.24,0c.72.09,1.44.16,2.17.21.3-.42.62-.83,1-1.24s.53-.66.81-1,.6-.73.93-1.1l1-1.09c.39-.42.81-.85,1.23-1.27s.65-.64,1-1c.79-.79,1.67-1.56,2.59-2.33.3-.27.63-.54,1-.81.65-.52,1.31-1,2-1.56l1.21-.88c1.45-1.06,3-2.09,4.64-3.12a134,134,0,0,0,14.43,6.12c-.61.25-1.2.5-1.76.78-.34.15-.67.32-1,.48l-1,.52c-.64.36-1.26.73-1.86,1.14a5.46,5.46,0,0,0-.47.31c-.38.27-.75.53-1.11.81a3.83,3.83,0,0,0-.48.38c-.59.46-1.15.94-1.69,1.45s-.81.79-1.19,1.18c-.21.23-.41.45-.6.68s-.37.42-.55.64-.47.57-.69.86-.45.59-.66.89-.42.59-.61.9c-.32.47-.61.94-.88,1.43l-.25.44a5.62,5.62,0,0,0-.34.64,6.49,6.49,0,0,0-.33.64,2.1,2.1,0,0,0-.15.3c-.22.45-.43.91-.62,1.37,0,.1-.08.19-.11.28a8.68,8.68,0,0,0-.34.84c-.08.22-.18.44-.25.66-.19.51-.37,1-.53,1.56-.1.29-.18.59-.26.9s-.18.61-.25.92a7.28,7.28,0,0,0-.23.92c-.09.31-.15.62-.21.94a.37.37,0,0,0,0,.18,6.77,6.77,0,0,0-.15.73c-.1.5-.18,1-.26,1.48,0,.26-.08.51-.11.76s-.07.49-.1.75c-.08.63-.15,1.27-.2,1.9s-.13,1.53-.15,2.3a34.77,34.77,0,0,0,5.1,2c.75.23,1.53.43,2.32.59l.74.14c.19,0,.37,0,.54.09.5.06,1,.13,1.47.16h.19c.32,0,.65,0,1,.06h.07c.41,0,.83,0,1.24,0s.64,0,1-.07l.81-.08c.41-.06.82-.14,1.23-.23.22,0,.45-.1.67-.16h0c.22-.06.44-.12.66-.2h0a3.28,3.28,0,0,0,.5-.17c.18,0,.34-.12.52-.18s.63-.27.93-.42a1.79,1.79,0,0,0,.33-.18,2.17,2.17,0,0,0,.45-.24,4.12,4.12,0,0,0,.63-.39,1,1,0,0,0,.29-.19.18.18,0,0,0,.1-.08s0,0,0,0a4.84,4.84,0,0,0,.6-.44c.22-.16.42-.34.63-.52l.25-.23.35-.35.18-.18c.23-.24.45-.5.67-.75l.09-.1q.58-.77,1.11-1.59c.09-.16.19-.31.27-.47a4.45,4.45,0,0,0,.26-.48,5.12,5.12,0,0,0,.34-.71h0c.13-.27.25-.53.36-.81l.12-.33s0,0,0,0c.14-.33.25-.67.36-1l.08-.26a10.19,10.19,0,0,0,.33-1.32,0,0,0,0,0,0,0s0,0,0,0a3.58,3.58,0,0,0,.08-.43.07.07,0,0,0,0-.06c0-.18.06-.36.09-.54a3.53,3.53,0,0,0,.08-.54.07.07,0,0,0,0-.06c0-.12,0-.24,0-.36a0,0,0,0,0,0-.05h0c0-.3.07-.61.08-.9a5.17,5.17,0,0,0,0-.68,20.72,20.72,0,0,0,0-2.23,30.12,30.12,0,0,0,8.21,1.73c.11.33.21.65.29,1a8,8,0,0,1,.21.81,16.56,16.56,0,0,1,.29,1.83c0,.37.07.75.08,1.13v.13a.38.38,0,0,0,0,.1v.14c0,.35,0,.72,0,1.07,0,.09,0,.19,0,.28s0,.3,0,.44a.34.34,0,0,1,0,.1c0,.14,0,.3-.06.44s0,.33-.05.5c-.06.4-.13.78-.22,1.17s-.15.66-.25,1-.11.39-.18.59a18.55,18.55,0,0,1-.79,2.11c-.14.3-.28.6-.43.88s-.31.59-.48.88-.34.57-.52.86a15.85,15.85,0,0,1-1.23,1.72l-.36.43a19.68,19.68,0,0,1-3.57,3.36c-.11.08-.2.17-.31.24A19.38,19.38,0,0,1-333.45,72c-.41.22-.83.43-1.29.63s-.74.32-1.12.47a4.4,4.4,0,0,1-.51.18,10.19,10.19,0,0,1-1.1.38l-.35.11c-.25.08-.51.16-.77.22,0,0,0,0,0,0a6.09,6.09,0,0,1-.61.17l-.16,0h-.07c-.32.09-.63.16-1,.22l-.3.07-.59.11c-.33.07-.66.13-1,.18s-1,.15-1.47.21l-.47,0c-.49.06-1,.1-1.49.13l-1.17.07a32.92,32.92,0,0,1-11.56-1.41c.11.88.23,1.76.38,2.63.07.43.14.86.22,1.29s.11.65.18,1h0a.45.45,0,0,0,0,.16c.05.3.11.61.18.89s.15.8.24,1.2.14.65.22,1c.25,1.09.51,2.15.8,3.18.05.23.12.46.19.69.12.44.25.87.37,1.3.38,1.27.78,2.5,1.21,3.67.24.71.52,1.42.79,2.15.13.35.26.69.4,1h0l.45,1.15c.31.74.61,1.49.94,2.25s.65,1.51,1,2.26c.26.58.54,1.15.82,1.71s.57,1.15.88,1.72c.39.75.81,1.5,1.25,2.24.33.57.69,1.15,1,1.71s.77,1.2,1.18,1.77.74,1,1.13,1.55l.2.26c.36.47.73.92,1.11,1.36.14.16.29.32.43.49.33.37.66.74,1,1.09a2.39,2.39,0,0,0,.22.23c.2.21.4.41.61.6s.42.42.64.62.62.56.95.84c.59.51,1.21,1,1.85,1.47l.66.47a2.23,2.23,0,0,0,.3.2c.53.37,1.08.71,1.65,1l.57.32.56.31.46.22c.11.07.22.11.33.17l.11.05.08,0,.11,0h0a.13.13,0,0,0,.08,0,.31.31,0,0,0,.14.07l.14.07.12,0c.41.19.82.36,1.25.52s.78.29,1.19.42a7,7,0,0,0,.74.23c.39.13.77.24,1.17.34l1.16.26.22.06,1,.18a.7.7,0,0,1,.14,0l.83.14a2.66,2.66,0,0,0,.28,0h0l.49.07a34.85,34.85,0,0,0,14.82-.9c.5-.13,1-.29,1.5-.46s1.1-.39,1.64-.61l.13-.05a43.16,43.16,0,0,0,15-10.84l.42-.46a.46.46,0,0,1,.07-.07c.8-.86,1.58-1.75,2.33-2.67s1.3-1.58,1.94-2.37c0,0,0,0,0,0,.15-.19.3-.38.43-.57h0l.11-.13c.45-.56.89-1.13,1.32-1.69s.73-1,1.08-1.44.73-1,1.07-1.46.77-1.06,1.14-1.59l1.11-1.61c.77-1.14,1.52-2.3,2.24-3.46.31-.49.61-1,.89-1.47.42-.7.82-1.4,1.22-2.11l.47-.84c.28-.51.56-1,.82-1.54a39.79,39.79,0,0,1-8.78-2.87c-.36-.16-.71-.34-1.06-.53l-.54-.3-.13-.06-.34-.21-.62-.39a.94.94,0,0,0-.12-.09A15.94,15.94,0,0,1-287,80.68c-.29-.23-.56-.46-.82-.71,0,0,0,0,0,0a4.38,4.38,0,0,1-.39-.36l-.13-.11c-.38-.37-.75-.74-1.09-1.13-.15-.17-.31-.32-.44-.5a7.56,7.56,0,0,1-.58-.69c-.25-.3-.48-.61-.7-.93a0,0,0,0,1,0,0l-.1-.12s0,0,0,0a.31.31,0,0,1-.08-.11.83.83,0,0,1-.13-.18.56.56,0,0,1-.05-.08.91.91,0,0,1-.08-.13h0l-.44-.67-.2-.34-.11-.18-.1-.18a2.27,2.27,0,0,1-.19-.34c-.07-.11-.12-.22-.18-.33l0,0a2.86,2.86,0,0,1-.18-.35,1.82,1.82,0,0,1-.13-.28c-.11-.21-.21-.43-.32-.64s-.27-.6-.4-.91-.27-.69-.39-1c0,0,0,0,0-.05s0-.08,0-.11l-.1-.3a6.4,6.4,0,0,1-.2-.62.74.74,0,0,1,0-.14c-.16-.5-.29-1-.4-1.53a.71.71,0,0,1,0-.21c-.07-.29-.13-.59-.18-.87s-.06-.35-.08-.51a16.77,16.77,0,0,1-.2-1.86c0-.22,0-.44,0-.66a8.55,8.55,0,0,1,0-1.24c0-.16,0-.33,0-.48v0a8.3,8.3,0,0,1,.1-1c0-.12,0-.26,0-.39s0-.19.05-.28,0,0,0,0c0-.22.07-.43.11-.64s.1-.43.15-.65a3,3,0,0,1,.12-.45,10.33,10.33,0,0,1,.32-1,3.39,3.39,0,0,1,.15-.41,8.59,8.59,0,0,1,.37-.88.2.2,0,0,1,0,0s0,0,0,0h0a8.29,8.29,0,0,1,.43-.84c.11-.22.23-.43.35-.63a4.59,4.59,0,0,1,.33-.52l.06-.09c.07-.09.12-.18.19-.26a11.57,11.57,0,0,1,.75-1c.11-.13.22-.26.35-.39l.49-.54.1-.08a5.33,5.33,0,0,1,.42-.4l.71-.62c.11.39.21.78.32,1.18a.17.17,0,0,0,0,.1c.23.94.48,1.92.72,2.93.21.84.42,1.71.65,2.59.05.23.12.46.19.69.21.76.41,1.53.66,2.3.14.45.27.92.44,1.37s.27.81.42,1.22.29.77.46,1.15.3.72.46,1.08.28.59.43.89a5,5,0,0,0,.31.61c.14.28.29.55.46.83s.2.35.31.53.21.35.33.53h0a18.12,18.12,0,0,0,1.9,2.44,14.93,14.93,0,0,0,4.29,3.24c.84.42,4.61.95,8.23,1.44a46,46,0,0,0,2.25-13.79c0-.54,0-1.1,0-1.64s-.07-1.36-.14-2c0-.22,0-.46-.08-.68s-.07-.66-.12-1-.1-.66-.16-1c-.11-.66-.24-1.32-.39-2,0-.07,0-.15-.06-.23-.08-.36-.16-.72-.26-1.08l0-.14,1.22-.3.29-.07,1-.22c.24-.07.49-.12.75-.17l.22,0a.79.79,0,0,0,.23,0l.31-.07a1,1,0,0,0,.3-.07l.14,0h0c.28-.05.56-.11.85-.15h0l1.06-.2c.63-.11,1.25-.21,1.88-.3.27-.05.53-.08.81-.11.52-.08,1-.15,1.55-.2l1.55-.18a1.78,1.78,0,0,1,.4,0,1.14,1.14,0,0,1,.26,0h0l.19.05a.69.69,0,0,1,.28.08,1.19,1.19,0,0,1,.2.08,1.91,1.91,0,0,1,.41.24,1.66,1.66,0,0,1,.31.23h0l.21.19a2.74,2.74,0,0,1,.38.44,4.62,4.62,0,0,1,.28.4c.08.12.16.26.24.41a3.88,3.88,0,0,1,.24.45c.08.17.16.33.23.5l.22.53c0,.13.1.26.14.41v0l.18.55c.22.75.42,1.58.6,2.48,0,.22.09.44.13.67.12.7.23,1.44.33,2.2l1-.13c.56-.08,1.11-.18,1.67-.29l1-.21,1.14-.29c.43-.11.84-.23,1.25-.36l.86-.3.73-.29.89-.38c.18-.08.34-.17.51-.26s.45-.23.67-.35.51-.3.76-.47a10.77,10.77,0,0,0,1.19-.85h0c.22-.18.44-.36.64-.56s.42-.4.61-.61.23-.27.34-.41.08-.11.12-.15a3.17,3.17,0,0,0,.28-.36c.15-.21.29-.41.42-.62l.09-.14a13.43,13.43,0,0,0,.82-1.6,26.82,26.82,0,0,0,1.29-4h0c.13-.55.27-1.11.42-1.67s.25-1,.39-1.43a.19.19,0,0,1,0-.07c.13-.44.27-.88.42-1.31a.28.28,0,0,1,0-.11,7.1,7.1,0,0,1,.3-.81c0-.09.07-.17.11-.26s0-.07,0-.11a.93.93,0,0,1,0-.1,6.68,6.68,0,0,1,.39-.81h0s0,0,0,0,0,0,0,0l0-.06a3.13,3.13,0,0,1,.19-.36h.15a3.7,3.7,0,0,1,.48.06h0a4.44,4.44,0,0,1,.55.12,5.64,5.64,0,0,1,1.14.45,1,1,0,0,1,.15.08,5.25,5.25,0,0,1,.72.47l.24.2a2.61,2.61,0,0,1,.34.32l.05,0c.12.12.23.25.34.38a5.75,5.75,0,0,1,.95,1.7c.65,1.94.28,4-.09,6a5.88,5.88,0,0,1-.16.7c-.07.33-.17.66-.25,1a1.87,1.87,0,0,1-.14.44c-.09.35-.2.7-.32,1,0,0,0,0,0,0-.1.27-.2.55-.31.82a13.83,13.83,0,0,1-.57,1.32c-.07.15-.14.31-.22.45a17.84,17.84,0,0,1-1.13,2.1c-.11.19-.22.38-.34.57,0,0,0,0,0,0-.22.35-.45.7-.7,1s-.63.88-1,1.3c-.11.15-.23.29-.34.42l-.36.41c-.33.39-.67.75-1,1.12l-.22.21c-.23.23-.48.46-.73.68a1.14,1.14,0,0,1-.16.15c-.27.24-.55.47-.85.7l-.7.55a6.55,6.55,0,0,1-.58.4c-.37.26-.75.5-1.15.73s-.92.52-1.4.76c-.23.11-.46.22-.71.32s-.54.23-.81.33l-.71.25c-.21.08-.41.13-.63.2l-.42.11c-.3.08-.6.14-.9.21l-.51.1a0,0,0,0,1-.05,0,1.28,1.28,0,0,1-.33.06s0,0,0,0c-.31,0-.66.1-1,.13a1.48,1.48,0,0,1-.31,0h-.25a0,0,0,0,1,0,0,.16.16,0,0,1-.1,0h-.26s0,0-.08,0h0s0,0,0,0h-.05s0,0,0,0a.2.2,0,0,1-.11,0c-.43,0-.87,0-1.32,0-.22,0-.44,0-.66-.05l-.67-.06-.58-.06c0,.39,0,.78,0,1.16s0,.62,0,.93c0,.79,0,1.58-.06,2.38,0,.51,0,1-.05,1.53,0,.33,0,.65,0,1s0,.66-.06,1,0,.45,0,.67c0,.72-.08,1.45-.15,2.16a1.85,1.85,0,0,1,0,.24c0,.29,0,.58-.07.86-.07.83-.15,1.65-.23,2.46,0,0,0,.06,0,.1v0c0,.22,0,.43-.07.65s0,.42-.06.63-.09.71-.13,1c0,.14,0,.29-.05.43s0,.22,0,.32a.27.27,0,0,1,0,.13c0,.29-.07.58-.11.87s0,.31-.07.46c-.06.45-.12.89-.19,1.33,0,.08,0,.16,0,.24q-.1.63-.21,1.23c-.15.92-.32,1.83-.49,2.68a1.12,1.12,0,0,0-.05.22c-.06.31-.13.61-.2.91,0,.13-.05.26-.08.38s-.07.31-.11.46-.05.23-.08.34c-.1.39-.18.75-.29,1.11s-.19.7-.29,1-.2.64-.3.95c1.17-.44,2.33-.87,3.51-1.29l1.24-.45q4.53-1.65,9.12-3.22c8.15-2.83,16.36-5.54,24.44-8.41.25-.17.49-.35.76-.55s.52-.39.78-.6.35-.28.53-.44l.33-.26.87-.75c.49-.46,1-.91,1.45-1.37s.95-.93,1.4-1.41.92-.95,1.33-1.42.74-.82,1.08-1.23c.13-.14.25-.3.37-.44.32-.38.62-.75.92-1.14l.21-.27c.29-.36.56-.72.82-1.1l.44-.61c.33-.46.64-.93,1-1.39s.45-.7.65-1a10.37,10.37,0,0,0,.65-1.11c.22-.36.42-.74.62-1.11s.39-.75.57-1.13.37-.76.54-1.15.29-.62.41-.93.26-.63.37-.93.27-.69.38-1c.28-.79.54-1.58.76-2.39l0-.17c.05-.21.11-.41.16-.62,0,0,0,0,0,0,.11-.45.22-.91.31-1.36a1.24,1.24,0,0,0,0-.22c.11-.55.22-1.1.31-1.66s.13-.89.17-1.35.11-.89.14-1.34h0v-.06h0v0c0-.14,0-.28.05-.42s0-.56.05-.84V53c0-.2,0-.39,0-.57v-.12h0v-.36a.71.71,0,0,0,0-.2.75.75,0,0,0,0-.15c0-.89,0-1.79,0-2.67,0-.2,0-.4,0-.6s0-.1,0-.15v-.06c0-.9-.13-1.81-.24-2.71,0-.29-.07-.57-.11-.86v0c-.06-.53-.15-1.06-.23-1.59h0s0-.08,0-.12c-.09-.61-.22-1.22-.34-1.82a3.48,3.48,0,0,0-.1-.41c-.09-.48-.2-1-.32-1.43a1.81,1.81,0,0,0-.09-.31c-.07-.31-.15-.63-.24-.94s-.11-.44-.17-.65v0c-.11-.4-.22-.79-.35-1.18l-.06-.23a1.17,1.17,0,0,0-.05-.11,2.93,2.93,0,0,1-.1-.37l-.13-.34a.16.16,0,0,0,0-.09c-.13-.42-.27-.83-.42-1.24a.74.74,0,0,0-.07-.21c-.12-.33-.23-.65-.37-1s-.21-.57-.32-.85c-.23-.56-.45-1.11-.69-1.67l-.09-.19c-.31-.76-.66-1.5-1-2.24l-.45-.92c-.08-.17-.17-.34-.23-.49l-.17-.3h0c-.3-.59-.6-1.17-.92-1.76a1.07,1.07,0,0,0-.16-.27h0a2.32,2.32,0,0,0-.21-.38s0,0,0,0l-.46-.83c-.33-.6-.68-1.17-1-1.76l8.05-3.52,2.22-1q.39.36.75.75a.41.41,0,0,1,.1.09c.17.16.33.33.49.49l.62.67a1.7,1.7,0,0,1,.29.31c.14.13.26.27.4.4l.19.23c.14.15.29.3.42.46l0,0,.06.07c.11.12.22.24.31.36.32.35.62.7.91,1.05l.26.32.22.26.08.1.07.09c.15.17.3.36.44.55s.4.5.57.74a3.15,3.15,0,0,1,.33.44c.09.1.17.21.25.31l0,.07c.15.18.29.38.43.58s.35.49.52.73c.34.49.67,1,1,1.47a3.71,3.71,0,0,1,.28.41s0,0,0,.06l0,0h0l.15.23a.22.22,0,0,0,.05.08c.25.38.48.76.72,1.15.39.66.79,1.34,1.16,2l.58,1.07.55,1.09c.16.32.33.63.48.95,0,0,0,0,0,0a.59.59,0,0,1,0,.08.65.65,0,0,0,.08.17c0,.11.09.22.14.32.23.49.45,1,.66,1.46s.33.77.48,1.16.29.68.41,1a.84.84,0,0,1,.06.14c.16.43.33.85.48,1.3s.41,1.14.59,1.73.41,1.28.59,1.93l.28-.06a14.41,14.41,0,0,0,1.43-.39h.06l.52-.18.12,0a5.85,5.85,0,0,0,.63-.23c.29-.11.56-.22.84-.35a4.8,4.8,0,0,0,.57-.26h0c.44-.21.86-.43,1.27-.67l.61-.37c.2-.12.41-.25.6-.39l.58-.41c.22-.15.42-.32.63-.48s.35-.3.53-.44c.43-.38.84-.77,1.21-1.17l.3-.35h0a2.84,2.84,0,0,0,.24-.26,6.89,6.89,0,0,0,.49-.61c.17-.23.33-.45.48-.69s.32-.49.47-.75a.43.43,0,0,0,0-.07.11.11,0,0,1,0-.06,6.25,6.25,0,0,0,.33-.63.54.54,0,0,0,.05-.11h0s0,0,0-.05l.1-.19c.15-.33.29-.65.41-1,.05-.11.1-.23.14-.34s.13-.4.19-.6v0a7.11,7.11,0,0,0,.25-.87c0-.16.08-.31.11-.47a1.63,1.63,0,0,0,.08-.37,2.53,2.53,0,0,0,.07-.38,1.52,1.52,0,0,0,0-.21,0,0,0,0,0,0,0v-.09c0-.11,0-.23.06-.34s0-.05,0-.07,0-.3,0-.44a1.71,1.71,0,0,1,0-.25,1.27,1.27,0,0,1,0-.2,19,19,0,0,0-1.67-8.95l.41,0a1.18,1.18,0,0,1,.27,0h.15l.42,0a9.43,9.43,0,0,1,1.94.28,7.77,7.77,0,0,1,1,.29,6.76,6.76,0,0,1,.72.3l.12.07h0l.41.22a1.64,1.64,0,0,1,.22.14l.16.1c.06.05.13.09.18.14a1.18,1.18,0,0,1,.18.13,5,5,0,0,1,.69.61,4.38,4.38,0,0,1,.41.45l.13.17a7.1,7.1,0,0,1,.92,1.48,3.52,3.52,0,0,1,.18.4,2.75,2.75,0,0,1,.17.41.75.75,0,0,1,0,.16s0,0,0,0a1.83,1.83,0,0,0,.08.25v0a4.17,4.17,0,0,1,.13.42,6.09,6.09,0,0,1,.21.89.11.11,0,0,1,0,.06c0,.21.07.41.1.62a5.71,5.71,0,0,1,.08.71,15.63,15.63,0,0,1,.07,2.18c0,.1,0,.21,0,.31s0,.37,0,.55a0,0,0,0,1,0,0s0,0,0,0v0c0,.24,0,.49,0,.73s-.09.62-.11.93l-.09.53c-.12.75-.27,1.5-.45,2.26l-.08.37a.29.29,0,0,0,0,.1c0,.14-.07.27-.11.41s-.05.22-.08.32-.06.21-.08.32-.15.51-.24.75c-.16.5-.33,1-.49,1.5a1,1,0,0,1-.06.16c-.11.29-.23.59-.34.9s-.25.61-.37.92-.26.62-.4.92c-.22.46-.44.91-.65,1.37-.11.23-.24.45-.35.66-.2.39-.41.76-.63,1.13s-.4.66-.6,1-.45.71-.69,1c-.07.08-.12.16-.18.24-.17.25-.35.48-.53.71s-.26.32-.4.49c-.29.34-.59.66-.88,1s-.48.46-.72.67a20.83,20.83,0,0,1-3,2.14l-.72.4c-.12.07-.26.15-.41.22l-.64.35c-.24.11-.46.23-.7.35l-.47.22-.54.25-1,.45-1.15.45-.87.31-.06,0c-.42.13-.86.27-1.27.38l-.07,0A54.33,54.33,0,0,1-179,70.36l3.42-1.53q11.91-5.44,23.41-11.46L-149.6,56c1.7-.91,3.41-1.84,5.08-2.78.84-.46,1.67-.93,2.51-1.41s1.91-1.1,2.85-1.67q1-.61,2.1-1.26c.77-.46,1.52-.93,2.26-1.4s1.32-.83,2-1.25l0,0c.28-.17.54-.34.81-.53l.82-.54.37-.25c.81-.54,1.61-1.09,2.41-1.64l.13-.1s0,0,0,0h0a4,4,0,0,0,.43-.28l.09-.07,0,0h0a2.64,2.64,0,0,1,.29-.21l.12-.1.1-.07a.13.13,0,0,0,.09-.07,2.2,2.2,0,0,0,.25-.17l.67-.49a.88.88,0,0,0,.15-.12h0a.22.22,0,0,0,.09-.07c.22-.16.46-.33.67-.51s.27-.19.4-.29c.32-.22.62-.46.92-.7l0,0s0,0,.07-.06a.35.35,0,0,0,.12-.1,5.57,5.57,0,0,0,.56-.43c.22-.16.44-.34.66-.52s.5-.38.73-.58l.57-.47c.16-.12.29-.24.44-.36s.57-.47.84-.71.45-.37.67-.57.45-.38.66-.58c1.28-1.11,2.51-2.26,3.7-3.43.54-.52,1-1.05,1.55-1.58-.37-.05-.75-.1-1.12-.17-.81-.12-1.62-.28-2.4-.45-.39-.08-.77-.17-1.15-.27l-1-.25-1.1-.32c-.73-.22-1.44-.46-2.14-.71l-.13,0-.14-.06h0l-.21-.08a.19.19,0,0,1-.1,0l-.12-.05h0c-.26-.09-.52-.19-.77-.3a.82.82,0,0,1-.24-.1.46.46,0,0,1-.14-.05c-.13-.07-.25-.11-.37-.17h0l-.19-.09c-.38-.15-.77-.32-1.15-.49s-.88-.42-1.3-.64-.85-.46-1.28-.69c-.2-.1-.4-.21-.59-.33l-.67-.39-1.21-.76h0c-.78-.53-1.56-1.07-2.31-1.64-.38-.28-.74-.57-1.11-.87s-.52-.42-.76-.64c0,0-.06,0-.06,0-.25-.2-.48-.41-.7-.62-.49-.44-1-.9-1.44-1.36l-.08-.08c-.43-.44-.85-.89-1.26-1.36-.22-.24-.43-.47-.63-.72s-.29-.34-.44-.52-.21-.25-.32-.38c-.23-.3-.47-.6-.7-.91a4.33,4.33,0,0,1-.3-.41,4.15,4.15,0,0,1-.3-.43c-.26-.37-.51-.75-.76-1.13s-.49-.76-.71-1.14l-.22-.38c-.18-.31-.36-.62-.52-.94s-.34-.64-.49-1A29,29,0,0,1-146.7-8.59c.07-.36.13-.71.22-1.06,0-.18.08-.37.13-.56s.07-.3.11-.46.13-.44.21-.66.19-.63.3-.95l.08-.23c.11-.32.24-.66.37-1l.07-.16c.09-.22.18-.44.29-.67l.23-.53c.11-.25.24-.49.36-.74s.18-.34.26-.5a4.16,4.16,0,0,1,.28-.51c.2-.4.43-.8.67-1.2v0c0-.05.06-.12.1-.18h0a38.66,38.66,0,0,1,4.84-6.39,5.78,5.78,0,0,1,5-2.09,5,5,0,0,1,.66.11l.53.14c.17.06.35.11.52.18l.51.2a.84.84,0,0,1,.19.09l.17.07a14,14,0,0,1,1.93,1.12,59.44,59.44,0,0,0-4.47,5.11c-.26.35-.52.7-.77,1.06l-.2.29-.54.79c-.24.36-.48.73-.68,1.1s-.36.61-.52.91a2.12,2.12,0,0,0-.11.21c-.2.35-.37.71-.54,1.07a.27.27,0,0,0,0,.11s0,.08-.06.11l-.27.61a.67.67,0,0,1-.06.12c0,.06,0,.12-.07.19s-.15.38-.22.56-.15.39-.22.58l-.08.26c-.12.35-.22.69-.31,1s-.13.49-.18.73-.08.41-.11.62-.06.37-.08.57a13.82,13.82,0,0,0-.1,2.32c0,.13,0,.24,0,.36a18.79,18.79,0,0,0,.4,3c0,.21.08.42.14.63s.16.67.27,1,.2.69.32,1a5.17,5.17,0,0,0,.18.51A23.29,23.29,0,0,0-136,2.62s0,0,0,0h0c.1.22.21.44.32.66l.16.33a5.06,5.06,0,0,0,.24.46h0a.56.56,0,0,0,.07.16c.23.43.47.86.73,1.28v0c.22.38.45.76.68,1.14.52.83,1.09,1.65,1.68,2.44.28.39.59.78.9,1.16s.51.63.77.94l.16.18c.21.25.41.48.63.71s.29.32.44.49a2.94,2.94,0,0,0,.25.24c.3.34.63.66,1,1s.47.46.71.68.69.63,1,.93.68.58,1,.85.81.62,1.21.9a19.32,19.32,0,0,0,2.08,1.12l1.18.6.84.4.59.29.85.41c.53.24,1.09.51,1.66.76s1.31.59,2,.86l1.27.55.81.32c.3.12.59.24.88.34,0,0,0,0,0,0,.42.16.81.31,1.18.43l.28.09.35.11.39.11.37.1.29.05.12,0a2,2,0,0,0,1,0l0,0s.08,0,.09-.08a.06.06,0,0,1,0,0,1,1,0,0,1,0,.17h0l-.15.36,0,.05h0s0,0,0,0h0s0,0,0-.05l0,0h0s0,0,0,0,0,0,0-.05,0,0,0,0h0s0,0,0-.06,0-.08.08-.11a.44.44,0,0,0,.12-.17h0l.34-.48c.07-.09.14-.18.19-.26q.33-.46.63-.93s0,0,0-.05a2.39,2.39,0,0,0,.13-.21,6.33,6.33,0,0,0,.36-.54l.23-.37c.15-.22.29-.43.41-.65l0,0c.14-.21.26-.42.39-.64s.32-.56.49-.83a47,47,0,0,0,3-5.87c0-.1.08-.19.11-.29.2-.44.38-.88.55-1.32.08-.2.16-.4.23-.61a3.25,3.25,0,0,0,.15-.4,5.4,5.4,0,0,0,.25-.67c.31-.9.6-1.79.88-2.71.19-.67.38-1.36.55-2s.32-1.37.46-2.07a.42.42,0,0,1,0-.12c.12-.65.25-1.32.34-2,.24-1.4.4-2.83.51-4.26,5.86,1.94,8.65,5.59,9.55,10,.06.32.12.65.16,1a2.66,2.66,0,0,1,0,.28,8.46,8.46,0,0,1,.08.88c0,.21,0,.41,0,.62A30.66,30.66,0,0,1-88.61,18c-.09.34-.18.66-.28,1s-.18.59-.27.89c-.15.49-.32,1-.48,1.47s-.33,1-.51,1.46-.32.84-.48,1.26-.43,1.06-.65,1.58-.34.84-.52,1.25-.35.84-.55,1.24-.37.81-.54,1.21c-1.4,3-2.86,5.85-4.06,8.2s-2.51,4.6-3.93,6.84a23.43,23.43,0,0,0,9.19.5c.36-.07.72-.13,1.07-.22s.77-.19,1.15-.31c.14,0,.27-.07.4-.12A10.34,10.34,0,0,0-88,43.86h0c.22-.09.44-.17.65-.27h0l.55-.24a5.52,5.52,0,0,0,.55-.26c.29-.13.58-.28.85-.43s.49-.26.73-.4a20.18,20.18,0,0,0,1.75-1.14,5.56,5.56,0,0,0,.67-.5,7.73,7.73,0,0,0,.76-.6,9.09,9.09,0,0,0,.74-.63c.48-.42,1-.87,1.38-1.33.31-.3.58-.61.86-.92.11-.11.2-.23.31-.35.29-.33.56-.66.84-1h0a5,5,0,0,0,.41-.53s0,0,0,0c.22-.28.41-.54.6-.83a0,0,0,0,0,0-.05,3.09,3.09,0,0,0,.26-.37,1.53,1.53,0,0,0,.11-.16q.28-.4.54-.84a4.9,4.9,0,0,0,.31-.48,1.59,1.59,0,0,1,.13-.22c.23-.4.46-.8.67-1.2.07-.12.13-.24.19-.37s.11-.19.15-.28l.25-.5a2.06,2.06,0,0,0,.12-.26c.15-.3.29-.59.41-.89,0-.11.1-.21.14-.3a2.6,2.6,0,0,0,.1-.25c.12-.26.23-.54.32-.8a.19.19,0,0,0,0-.1c.13-.34.26-.67.37-1,0-.14.09-.27.13-.41s.14-.39.2-.59.17-.54.24-.81l6.61,1.77h0a3.11,3.11,0,0,1,1.71.84,1.53,1.53,0,0,1,.17.27,2.5,2.5,0,0,1,.09.25v0h0a2.72,2.72,0,0,1,0,1.17c-.11.62-.25,1.25-.41,1.88-.08.36-.18.72-.28,1.08s-.24.87-.38,1.31c-.08.23-.15.47-.23.72s-.17.48-.25.71q-.24.68-.51,1.35c-.17.48-.38.95-.6,1.43s-.43.94-.66,1.41-.45.94-.71,1.4-.34.66-.54,1l-.49.83,0,.06c-.18.3-.36.59-.55.88-.33.51-.67,1-1,1.51s-.52.71-.79,1.06a3.74,3.74,0,0,1-.36.45h0c-.1.13-.19.25-.3.37a1,1,0,0,1-.1.11.59.59,0,0,1-.14.18l-.15.17a6.45,6.45,0,0,1-.55.64c-.16.19-.34.39-.52.58s-.5.54-.76.79l-.11.1c-.2.21-.4.41-.64.62a3.83,3.83,0,0,1-.41.39l-.42.39c-.21.17-.41.36-.62.54s-.41.35-.64.52-.4.32-.61.47a7.27,7.27,0,0,1-.71.53c-.32.23-.63.46-1,.67l-.14.08a2.46,2.46,0,0,1-.34.22,27.47,27.47,0,0,1-4,2.17c-.42.19-.85.36-1.29.53a22.94,22.94,0,0,1-3,1l-.76.2c-.33.08-.66.16-1,.22a2.83,2.83,0,0,1-.4.08c-.41.09-.82.16-1.23.22-6.12.93-12.29-.55-18.17-2.33-.66.78-1.34,1.57-2,2.34-.54.61-1.08,1.21-1.63,1.79h0q-.69.77-1.44,1.53c-.24.27-.52.55-.79.83-.5.48-1,1-1.47,1.46l-2,1.85c-.64.61-1.31,1.22-2,1.81-.43.38-.86.76-1.3,1.13s-.88.75-1.33,1.13-.69.57-1,.85-.67.54-1,.81c-.51.42-1,.81-1.56,1.21-.76.59-1.53,1.15-2.31,1.71h.15c1,0,1.88,0,2.83,0,.64,0,1.29,0,1.93,0h.76l1.33,0c.63,0,1.24,0,1.86-.07l1.37,0,1.18-.07c2.8-.16,5.6-.42,8.37-.76l1.34-.17c.59-.07,1.18-.16,1.77-.25l.3,0c.69-.09,1.39-.21,2.08-.33.31,0,.61-.1.91-.15l.2,0,.18,0h0c.41-.07.82-.14,1.23-.23a8.24,8.24,0,0,0,.89-.17l.33-.06h0l.46-.1c.65-.12,1.28-.27,1.92-.41l.14,0,.81-.19h0a.29.29,0,0,0,.16,0q.53-.1,1-.24c.89-.21,1.77-.44,2.64-.68l1-.29q.53-.14,1.05-.3c.71-.2,1.41-.42,2.12-.64l.06,0,.16,0,1.85-.61q2.81-.93,5.56-2.06c.85-.34,1.69-.7,2.52-1a2.84,2.84,0,0,1,.32-.14c.79-.35,1.59-.7,2.36-1.07s1.49-.69,2.23-1.06c.33-.15.67-.32,1-.49q2.1-1,4.12-2.17c.74-.41,1.48-.83,2.21-1.26s1.26-.74,1.88-1.13c.79-.48,1.59-1,2.37-1.5h0l1.31-.87.15-.1.06,0h0C-58,53.3-56,51.82-54,50.28c1.23-1,2.44-2,3.62-3,.33-.29,1.15-1.13,2.28-2.32.14-.16.29-.31.44-.47,1-1.13,2.31-2.51,3.67-4,.4-.45.81-.92,1.24-1.39C-41.87,38-40.91,36.9-40,35.8l1.23-1.46.84-1c.26-.3.5-.61.75-.9l.77-.95C-35,29.8-33.86,28.25-33,27c.13-.23.28-.45.41-.65s.26-.46.37-.64a2.68,2.68,0,0,1,.12-.24.33.33,0,0,0,.07-.13A2.3,2.3,0,0,0-31.9,25c.26-.63.28-1,0-1.15l6.16,2.47a3.19,3.19,0,0,1,1.59,1.05,2.08,2.08,0,0,1-.17,1.87c-.35.85-.72,1.69-1.09,2.55,0,0,0,0,0,0-.34.77-.7,1.54-1,2.32-1.18,2.52-2.43,5-3.79,7.49l-.21.37a5.86,5.86,0,0,1-.3.55c-.38.68-.77,1.37-1.16,2a105,105,0,0,1-7.38,11c-.14.16-.26.33-.39.49,3.3,0,6.16,0,6.71-.06l1-.15c.91-.16,1.84-.34,2.79-.57h0c.32-.06.62-.14.94-.23.52-.13,1.05-.28,1.59-.43l.07,0,1.35-.42a1.44,1.44,0,0,1,.25-.08l.25-.09c.3-.09.59-.2.89-.3h0l.09,0,0,0,.74-.27.75-.28c1.13-.44,2.24-.92,3.35-1.43l1.51-.74c.42-.21.85-.43,1.26-.66,1.21-.66,2.39-1.35,3.51-2.1.44-.29.86-.59,1.29-.9s1-.72,1.45-1.1a29.62,29.62,0,0,0,2.27-2l.56-.57c.37-.37.71-.76,1-1.15a17,17,0,0,0,2.73-4.27c.14-.33.27-.66.4-1,.07-.16.12-.33.18-.5s.11-.34.16-.51c.11-.33.21-.68.29-1s.11-.4.15-.6.12-.56.18-.86.08-.44.11-.67c.12-.65.19-1.31.25-2,0-.12,0-.24,0-.36a6.56,6.56,0,0,0,0-.76c0-.47,0-.94,0-1.41a43.39,43.39,0,0,0-.5-6.24A18.61,18.61,0,0,1,.25,22.2c.25,0,.5,0,.73,0H1l.7.06h0a3,3,0,0,1,.32.06,5.68,5.68,0,0,1,1.72.53h0a1.46,1.46,0,0,1,.3.17,2.68,2.68,0,0,1,.28.18l.26.21a3.31,3.31,0,0,1,.27.26l.1.1a2.7,2.7,0,0,1,.4.54c.06.11.12.21.17.32a1.55,1.55,0,0,1,.14.29,2.48,2.48,0,0,1,.15.41,3.84,3.84,0,0,1,.15.54A.07.07,0,0,0,6,26V26a3.58,3.58,0,0,1,.08.49s0,.09,0,.14c.07.53.11,1.07.15,1.61,0,.11,0,.21,0,.32s0,0,0,0v.27a6.87,6.87,0,0,1,0,.78c0,.51,0,1,0,1.52,0,.08,0,.15,0,.23,0,.77-.08,1.54-.16,2.3s-.21,1.59-.36,2.37c-.07.35-.15.7-.23,1s-.23.92-.36,1.37-.26.85-.41,1.28A25.33,25.33,0,0,1,3.13,43.6c-.3.57-.63,1.14-1,1.69-.19.31-.4.63-.61.93a1.69,1.69,0,0,1-.17.27L.49,47.75c-.32.41-.64.82-1,1.22s-.71.87-1.09,1.29l-.17.19c-.39.43-.81.85-1.23,1.27-.66.68-1.37,1.34-2.11,2l-.61.52c-.2.17-.42.34-.64.5v0h0a3,3,0,0,0-.28.24l-.62.46-.62.47c-.49.35-1,.69-1.51,1s-1,.65-1.53,1-1,.59-1.51.87-.92.51-1.4.75-1,.5-1.5.73c-1,.48-2,.92-3.08,1.32-.36.15-.73.28-1.1.41l-1.1.38c-.37.12-.74.26-1.11.37s-.74.23-1.12.33l-1.13.31c-.37.1-.75.2-1.14.28l-1.13.26-1.16.23-1.15.21c-.9.16-1.82.28-2.73.38l-.77.07-.17,0-.72,0c-.44,0-.88.07-1.31.08s-.94,0-1.4,0a47.3,47.3,0,0,1-7.9-.48l-1.24-.19q-.94-.16-1.86-.36c-.62.61-1.24,1.22-1.87,1.82l-.16.15c-.54.5-1.07,1-1.64,1.48a.06.06,0,0,1,0,0c-.28.26-.59.52-.87.77l-.42.36c-.27.24-.54.47-.83.7-.66.55-1.33,1.1-2,1.62-.41.32-.82.64-1.23.93-.25.2-.51.39-.77.57-.54.4-1.09.78-1.65,1.16a.56.56,0,0,1-.16.12c-.18.13-.37.27-.55.38a.3.3,0,0,1-.11.06c-.38.27-.77.52-1.17.76,0,0,0,0,0,0l-.21.13a.07.07,0,0,1-.06,0c-.36.25-.72.47-1.07.68,0,0,0,0-.05,0-.34.22-.68.43-1,.63l0,0c-.23.15-.45.28-.68.4a.41.41,0,0,1-.14.08h0c-.38.23-.76.45-1.15.66l0,0c-.77.43-1.54.84-2.33,1.24l-.43.21c-.82.42-1.66.83-2.51,1.22a116.48,116.48,0,0,1-21.86,7.4h-.07l-1.41.32h0a152.63,152.63,0,0,1-28,3.57,160.69,160.69,0,0,1-18.37-.44h0l-2-.19-.53,0h-.16a2,2,0,0,0-.24,0l-.92-.09q-6.15-.65-12.1-1.8c-10,4.68-20.22,9-30,13.89a207.33,207.33,0,0,0-23.56,13.75,174,174,0,0,0-14.08,10.57,148,148,0,0,0-26.77,29.12h0a141,141,0,0,0-13.65,24.57c-.51,1.17-1,2.36-1.48,3.56-.42,1-.84,2.09-1.23,3.16-.24.58-.46,1.18-.66,1.77s-.44,1.2-.65,1.79q-.78,2.25-1.52,4.48c-.27.82-.55,1.64-.79,2.45s-.59,1.8-.87,2.7c-.18.54-.34,1.08-.51,1.62-.44,1.43-.86,2.85-1.27,4.28,0,.1-.07.21-.1.31-1,3.5-2,7-2.86,10.53-.42,1.55-.79,3.09-1.16,4.64a.94.94,0,0,1,0,.16c-.08.32-.15.64-.22,1,0,0,0,0,0,.06-.06.24-.11.46-.17.69-.32,1.38-.64,2.76-.94,4.13-.39,1.71-.76,3.43-1.11,5.14l0,.2c-6.42,31.15-8.73,62.84-9.24,94.41-.19,11.92-.08,23.81.46,35.65,0,1.31.11,2.64.19,3.95.05,1.05.1,2.1.18,3.14a2.81,2.81,0,0,0,0,.29c0,.15,0,.32,0,.47a2.47,2.47,0,0,0,0,.39c0,.17,0,.32,0,.49q.09,1.57.21,3.15c.08,1.13.15,2.28.25,3.42,0,.1,0,.2,0,.3a.86.86,0,0,0,0,.22c2.16,27.77,7,55.3,16.1,82.5.12.44.27.87.43,1.32-.4.11-.8.23-1.21.33s-1,.29-1.54.42a32.75,32.75,0,0,0-9.16-20.18c-.12-.14-.25-.28-.38-.41A44.21,44.21,0,0,1-281,459.49a41.94,41.94,0,0,1-.86,6.28.37.37,0,0,1,0,.18c-.85.17-1.69.32-2.53.47q-2.73.49-5.44.88l-1.08.17-.32,0-.26,0c-.07-.86-.14-1.71-.22-2.56a22.71,22.71,0,0,0-7.42-7.33c.95,2.9,1.91,5.78,2.87,8.67a42.44,42.44,0,0,1-7.44-10.83,34.21,34.21,0,0,1-1.82-4.61,35.58,35.58,0,0,1-1.46-6.39,108.12,108.12,0,0,1-9.13,23.31v0h0l-.18.33a38.65,38.65,0,0,0-.81-8.22,43.14,43.14,0,0,0-6.47-15.34c-.63-1-1.31-1.9-2-2.82s-1.39-1.74-2.14-2.58a47.38,47.38,0,0,1,1.77,7.9,45.1,45.1,0,0,1-1.5,18.85c-.12.48-.27.95-.42,1.42a23.13,23.13,0,0,0-8.55-12.89l4.32,13.4a22.47,22.47,0,0,0-7.07-6.37c-.33-.2-.66-.39-1-.55s-.66-.35-1-.51a27.44,27.44,0,0,0-5-1.83q1.14,2.88,2.25,5.76t2.24,5.72a28.53,28.53,0,0,0-3.67-4.06,18.24,18.24,0,0,1-2.88,2.5c-.27.19-.54.36-.83.53a84.54,84.54,0,0,1-8.7-16.19c-.25,1-.49,1.95-.77,2.92v0a33.47,33.47,0,0,1-3.6,12.66v0l0,0c-.29.55-.57,1.09-.89,1.63.06-.55.1-1.1.11-1.65a25.22,25.22,0,0,0-7.46-18.12c2.65,2.73,2.08,13,1.59,16.31-1.56-.61-3-2.84-4.25-5.79-.47-1.07-.92-2.23-1.36-3.44-2.32-6.51-4.22-14.52-5.95-17.62A52.78,52.78,0,0,1-378,462.9a18.88,18.88,0,0,0-5-10.1q.06,7.26.14,14.51a20.56,20.56,0,0,0-3.82-4.89c10.58-54.27,21.33-109.53,26.23-164.67,1.67-18.87,3.65-38.89,4.11-59.07v0c.47-20.18-.57-40.55-4.93-60a157.68,157.68,0,0,0-6-20.52q-1.15-3.17-2.48-6.27h0v0a133.56,133.56,0,0,0-11-20.57q-2.81-4.27-6-8.38c-.5-.64-1-1.28-1.53-1.91-.12-.16-.24-.3-.37-.46l-.46-.57c-.61-.73-1.22-1.46-1.85-2.18-.06-.08-.13-.14-.2-.22-.71-.82-1.42-1.62-2.16-2.42s-1.29-1.39-1.95-2.08c-.19-.21-.4-.42-.6-.63-.69-.7-1.39-1.41-2.1-2.11a3.9,3.9,0,0,0-.29-.28c-.52-.52-1.06-1-1.61-1.54l-1-1c-.84-.78-1.67-1.54-2.54-2.3s-1.51-1.34-2.29-2c-.41-.35-.82-.71-1.26-1s-.93-.78-1.41-1.17c-.77-.63-1.54-1.25-2.32-1.85l-1-.8c-3.17-2.44-6.48-4.79-9.88-7l-2-1.28c-1.2-.78-2.42-1.54-3.64-2.28q-3.37-2.07-6.9-4l-1.32-.73c-.65-.36-1.33-.73-2-1.08-3.25-1.74-6.59-3.41-10-5-1.3-.61-2.63-1.22-4-1.82s-2.5-1.1-3.76-1.63l-1.85-.78c-.77-.33-1.56-.65-2.35-1Q-466,69-472.94,66.66l-1.59-.54c-1.11-.38-2.22-.74-3.33-1.09l0,0-.46-.14c-1.51-.49-3-1-4.56-1.43-.29.16-.59.31-.91.46l-1,.44-1.06.43-1.12.41c-1.54.54-3.23,1-5,1.53-.48.14-1,.27-1.48.39h0l-.26.08h-.05l-.16,0-.32.08h0a1.06,1.06,0,0,0-.19.06l-.22,0c-1.24.31-2.51.6-3.78.89l-1.9.43-1.84.41c-1.76.38-3.44.76-5,1.12l-1.68.41-.8.2-.75.2-.73.2c-.56.15-1.11.31-1.67.45s-.94.26-1.4.37a98.26,98.26,0,0,1-42.14,1.36c-.45-.07-.89-.17-1.33-.26l0,0a40.85,40.85,0,0,1-13.73,5.27h0c-.79.18-1.6.34-2.4.47a44.29,44.29,0,0,1-11.88.41h-.11a40.74,40.74,0,0,1-5.7-1.11,55.37,55.37,0,0,1-13.64-5.84,65.72,65.72,0,0,0,11-6.14,42,42,0,0,0,5.1,1.66,19,19,0,0,0,11.81-1.86,62.3,62.3,0,0,1-9.13-6c1.34-1.25,2.61-2.53,3.8-3.87.34-.35.66-.72,1-1.08s.45-.53.66-.8c0,0,.07-.06.08-.1s0,0,0-.05l0,0,.13-.15h0a2.7,2.7,0,0,0,.28-.31c.89-1.07,1.71-2.16,2.51-3.26.42.23.86.44,1.29.66a6.68,6.68,0,0,0,2.44-2.94,6.27,6.27,0,0,0,.4-3.14,6.41,6.41,0,0,0-.14-1,54,54,0,0,0,2.89-6.31c.36-.55.69-1.1,1-1.65.26.27.49.56.74.85,3.47,4.17,5.21,9.15,4.3,13.31a11.38,11.38,0,0,1-2.33,4.59A89.57,89.57,0,0,0-543.51,59c1.41.07,2.83.1,4.25.1h1.77l1.48,0c1.09,0,2.17-.09,3.26-.17l.34,0c1.36-.1,2.71-.22,4.06-.39.19,0,.38,0,.56-.06a.76.76,0,0,0,.21,0q3.06-.37,6.06-1c1-.2,2.11-.42,3.15-.66s2.07-.5,3.1-.77l1.54-.43,1.47-.43,1.45-.47-2.5-.86L-515.8,53c-1.21-.42-2.42-.85-3.6-1.3h0c-4.62-1.69-9.15-3.47-13.54-5.37q-2.22-1-4.4-2c-1.21-.55-2.4-1.12-3.58-1.7-.84-.41-1.66-.81-2.48-1.23-1.9-1-3.75-2-5.57-3-.92-.51-1.81-1-2.7-1.56s-1.79-1.07-2.66-1.62-1.64-1-2.45-1.57a3.62,3.62,0,0,1-.32-.22c-.8-.53-1.58-1.07-2.36-1.61s-1.66-1.19-2.47-1.79-1.62-1.23-2.42-1.86c-.61-.49-1.25-1-1.86-1.5-.06-.06-.13-.1-.18-.16-1.06-.88-2.1-1.78-3.1-2.7-.51-.47-1-.93-1.5-1.41-.24-.23-.49-.46-.74-.71-.94-.92-1.86-1.86-2.75-2.84q-.91-1-1.77-1.95c-.59-.66-1.15-1.34-1.72-2a113.13,113.13,0,0,1-16.36-.21A75.07,75.07,0,0,1-608,12.23a33,33,0,0,1-4.32-1.55,25.38,25.38,0,0,1-3.66-2c-.37-.25-.74-.51-1.09-.78-.12-.08-.24-.18-.35-.27-.32-.25-.62-.5-.91-.76s-.59-.54-.86-.81-.47-.48-.69-.72l-.18-.19c-.32-.37-.65-.76-1-1.15s-.52-.68-.76-1a9.07,9.07,0,0,1-.58-.89.09.09,0,0,1-.05-.08,4,4,0,0,1-.37-.58l-.31-.53-.27-.51a.56.56,0,0,1-.07-.13c-.14-.24-.26-.48-.37-.72l-.12-.26a9.76,9.76,0,0,1-.47-1q-.48-1.08-.9-2.22a15,15,0,0,1-.53-1.46v0c-.11-.31-.22-.61-.31-.92s-.21-.63-.3-1a4,4,0,0,1-.15-.49c-.14-.44-.26-.89-.39-1.35l0-.13c-.07-.24-.14-.5-.19-.75a1.8,1.8,0,0,1-.06-.22c0-.18-.08-.36-.11-.55a4.17,4.17,0,0,1-.08-.51,4.8,4.8,0,0,1,0-.52.33.33,0,0,1,0-.17A4.11,4.11,0,0,1-627.53-12.87Zm253,137.5.55.15c-.11-.26-.2-.53-.31-.79C-374.38,124.21-374.44,124.42-374.53,124.63Z"/>
            <path class="cls-24" d="M-374.29,124c.11.26.2.53.31.79l-.55-.15C-374.44,124.42-374.38,124.21-374.29,124ZM-315.11,287h0c.52,1.62,1,3.25,1.58,4.86v0c.79,2.5,1.6,5,2.41,7.53h0c.29.88.57,1.73.84,2.6h0c.23.7.45,1.37.67,2.07q0-5.92.24-11.85v-.09q.24-7.15.76-14.32a394.12,394.12,0,0,1,24-109.42h0c.17-.48.37-1,.54-1.47v.4q0,11.15-.08,22.28h0c0,.93,0,1.85,0,2.77.51-1,1-2,1.54-3.06,6.84-13.72,13.64-28.18,21.93-41.4,1-1.58,2-3.14,3-4.69,0,0,0,0,0,0s0,0,0-.09a114.44,114.44,0,0,1,8.86-11.53l.06-.07c2.69-3.09,5.57-6.08,8.61-8.94.46-.42,1-.87,1.59-1.34,5.72-4.38,17.51-10.45,19.64-14.89l-1.44,3c-.2.42-.39.83-.6,1.25h0c-1.29,2.71-2.59,5.4-3.88,8.1A177.8,177.8,0,0,1-201.59,100l0,0c2-1.38,4.06-2.73,6.15-4h0a202.89,202.89,0,0,1,27.53-14.55h0q3.51-1.52,7.1-2.93h0c3.27-1.3,6.61-2.51,10-3.65h0c2.13-.72,4.25-1.4,6.41-2.06q-5.35,4.5-10.67,9l-.53.43c2.17.28,4.33.49,6.52.64h0c1.11.08,2.24.13,3.36.17a109.48,109.48,0,0,0,36-4.71c1.94-.6,3.86-1.25,5.74-2l0,0h0c1.17-.4,2.28-.86,3.42-1.34l-6.71,6a75.48,75.48,0,0,0,29-6.44A138.51,138.51,0,0,0-58.77,63.91c1.17-.73,2.32-1.48,3.49-2.23l3.14-2.06A90.2,90.2,0,0,0-41,51c.4-.36.81-.74,1.21-1.13h0A85.39,85.39,0,0,0-31.69,41a18.46,18.46,0,0,1-.26,3.54,14,14,0,0,1-.52,2.74c-1.09,2.37-4.81,5.84-6.86,8.3-.14.16-.26.33-.39.49,3.3,0,6.16,0,6.71-.06l1-.15c.91-.16,1.84-.34,2.79-.57h0c.32-.06.62-.14.94-.23.52-.13,1.05-.28,1.59-.43l.07,0,1.35-.42a1.44,1.44,0,0,1,.25-.08l.25-.09c.3-.09.59-.2.89-.3h0l.09,0,0,0,.74-.27.75-.28c1.13-.44,2.24-.92,3.35-1.43l1.51-.74c.42-.21.85-.43,1.26-.66,1.21-.66,2.39-1.35,3.51-2.1.44-.29.86-.59,1.29-.9s1-.72,1.45-1.1a29.62,29.62,0,0,0,2.27-2l.56-.57c.37-.37.71-.76,1-1.15a17,17,0,0,0,2.73-4.27c.14-.33.27-.66.4-1,.07-.16.12-.33.18-.5s.11-.34.16-.51c.11-.33.21-.68.29-1s.11-.4.15-.6.12-.56.18-.86.08-.44.11-.67c.12-.65.19-1.31.25-2,0-.12,0-.24,0-.36a6.56,6.56,0,0,0,0-.76c0-.47,0-.94,0-1.41a43.39,43.39,0,0,0-.5-6.24A18.61,18.61,0,0,1,.25,22.2c.25,0,.5,0,.73,0H1l.7.06h0a3,3,0,0,1,.32.06,5.68,5.68,0,0,1,1.72.53h0a1.46,1.46,0,0,1,.3.17,2.68,2.68,0,0,1,.28.18l.26.21a3.31,3.31,0,0,1,.27.26l.1.1a2.7,2.7,0,0,1,.4.54c.06.11.12.21.17.32a1.55,1.55,0,0,1,.14.29,2.48,2.48,0,0,1,.15.41,3.84,3.84,0,0,1,.15.54A.07.07,0,0,0,6,26V26a3.58,3.58,0,0,1,.08.49s0,.09,0,.14c.07.53.11,1.07.15,1.61,0,.11,0,.21,0,.32s0,0,0,0v.27a6.87,6.87,0,0,1,0,.78c0,.51,0,1,0,1.52,0,.08,0,.15,0,.23,0,.77-.08,1.54-.16,2.3s-.21,1.59-.36,2.37c-.07.35-.15.7-.23,1s-.23.92-.36,1.37-.26.85-.41,1.28A25.33,25.33,0,0,1,3.13,43.6c-.3.57-.63,1.14-1,1.69-.19.31-.4.63-.61.93a1.69,1.69,0,0,1-.17.27L.49,47.75c-.32.41-.64.82-1,1.22s-.71.87-1.09,1.29l-.17.19c-.39.43-.81.85-1.23,1.27-.66.68-1.37,1.34-2.11,2l-.61.52c-.2.17-.42.34-.64.5v0h0a3,3,0,0,0-.28.24l-.62.46-.62.47c-.49.35-1,.69-1.51,1s-1,.65-1.53,1-1,.59-1.51.87-.92.51-1.4.75-1,.5-1.5.73c-1,.48-2,.92-3.08,1.32-.36.15-.73.28-1.1.41l-1.1.38c-.37.12-.74.26-1.11.37s-.74.23-1.12.33l-1.13.31c-.37.1-.75.2-1.14.28l-1.13.26-1.16.23-1.15.21c-.9.16-1.82.28-2.73.38l-.77.07-.17,0-.72,0c-.44,0-.88.07-1.31.08s-.94,0-1.4,0a47.3,47.3,0,0,1-7.9-.48l-1.24-.19q-.94-.16-1.86-.36c-.62.61-1.24,1.22-1.87,1.82l-.16.15c-.54.5-1.07,1-1.64,1.48a.06.06,0,0,1,0,0c-.28.26-.59.52-.87.77l-.42.36c-.27.24-.54.47-.83.7-.66.55-1.33,1.1-2,1.62-.41.32-.82.64-1.23.93-.25.2-.51.39-.77.57-.54.4-1.09.78-1.65,1.16a.56.56,0,0,1-.16.12c-.18.13-.37.27-.55.38a.3.3,0,0,1-.11.06c-.38.27-.77.52-1.17.76,0,0,0,0,0,0l-.21.13a.07.07,0,0,1-.06,0c-.36.25-.72.47-1.07.68,0,0,0,0-.05,0-.34.22-.68.43-1,.63l0,0c-.23.15-.45.28-.68.4a.41.41,0,0,1-.14.08h0c-.38.23-.76.45-1.15.66l0,0c-.77.43-1.54.84-2.33,1.24l-.43.21c-.82.42-1.66.83-2.51,1.22a116.48,116.48,0,0,1-21.86,7.4h-.07l-1.41.32h0a152.63,152.63,0,0,1-28,3.57,160.69,160.69,0,0,1-18.37-.44h0l-2-.19-.53,0h-.16a2,2,0,0,0-.24,0l-.92-.09q-6.15-.65-12.1-1.8c-10,4.68-20.22,9-30,13.89a207.33,207.33,0,0,0-23.56,13.75,174,174,0,0,0-14.08,10.57,148,148,0,0,0-26.77,29.12h0a141,141,0,0,0-13.65,24.57c-.51,1.17-1,2.36-1.48,3.56-.42,1-.84,2.09-1.23,3.16-.24.58-.46,1.18-.66,1.77s-.44,1.2-.65,1.79q-.78,2.25-1.52,4.48c-.27.82-.55,1.64-.79,2.45s-.59,1.8-.87,2.7c-.18.54-.34,1.08-.51,1.62-.44,1.43-.86,2.85-1.27,4.28,0,.1-.07.21-.1.31-1,3.5-2,7-2.86,10.53-.42,1.55-.79,3.09-1.16,4.64a.94.94,0,0,1,0,.16c-.08.32-.15.64-.22,1,0,0,0,0,0,.06-.06.24-.11.46-.17.69-.32,1.38-.64,2.76-.94,4.13-.39,1.71-.76,3.43-1.11,5.14l0,.2c-6.42,31.15-8.73,62.84-9.24,94.41-.19,11.92-.08,23.81.46,35.65,0,1.31.11,2.64.19,3.95.05,1.05.1,2.1.18,3.14a2.81,2.81,0,0,0,0,.29c0,.15,0,.32,0,.47a2.47,2.47,0,0,0,0,.39c0,.17,0,.32,0,.49q.09,1.57.21,3.15c.08,1.13.15,2.28.25,3.42,0,.1,0,.2,0,.3a.86.86,0,0,0,0,.22c2.16,27.77,7,55.3,16.1,82.5.12.44.27.87.43,1.32-.4.11-.8.23-1.21.33s-1,.29-1.54.42a32.75,32.75,0,0,0-9.16-20.18c-.12-.14-.25-.28-.38-.41A44.21,44.21,0,0,1-281,459.49a41.94,41.94,0,0,1-.86,6.28c-.88.15-1.77.28-2.66.39-1.3.19-2.62.35-3.94.47-.64-1.18-1.26-2.37-1.86-3.59h0c-.74-1.5-1.46-3-2.18-4.58s-1.29-2.89-1.88-4.36c-5.81-14-9.6-29.72-9.6-43.61a80.71,80.71,0,0,0-1.9,16.8v0c0,.94,0,1.87,0,2.8-1-2.58-1.81-5.16-2.54-7.77h0a97.91,97.91,0,0,1-3.65-31.55c-1,3-2.05,6.09-3.07,9.12h0l-.73,2.13q-.74-17.52-1.46-35v-.11q-2.1-49.92-4.19-99.86Z"/>
            <g class="cls-25">
              <path d="M-80.63,65.6a102.7,102.7,0,0,1-11.83,4A147.4,147.4,0,0,0-64.6,77.62,79.35,79.35,0,0,0-46.64,64a50,50,0,0,0,35.73-6.08,38,38,0,0,0,14-14.31,28.89,28.89,0,0,0,3-17.07c-.5-4.12-4.06-4.66-8-4.18.79,5.32.85,10.87-1.32,15.89C-7.28,47.5-22.39,54.6-33,56c-.55.07-3.41.11-6.71.06.13-.16.25-.33.39-.49a105,105,0,0,0,7.38-11,130.88,130.88,0,0,0,7.62-15.33,2.08,2.08,0,0,0,.17-1.87,3.19,3.19,0,0,0-1.59-1.05l-6.16-2.47c2.44,1-16.57,21.71-18.52,23.42A106,106,0,0,1-80.63,65.6Z"/>
            </g>
          </g>
          <path class="cls-26" d="M-731.23-90.24c.19,14.69,6.39,28.41,17.08,40.2,21.89,24.18,62.6,40.23,109,39.84,24.84-.21,47.93-5.11,67.28-13.37C-522.58,9.33-477.58,33-424.76,32.51a170.07,170.07,0,0,0,26.5-2.3c23,17.81,57.35,29,95.52,28.64,63.44-.54,115.37-32.58,122.44-73.45a115,115,0,0,0,20.36,1.67,113.81,113.81,0,0,0,24.1-2.8c18,30.4,60.72,51.57,110.25,51.15C.89,35.2,25.27,28.84,44.84,18.26,73.57,2.76,92-21.81,91.64-49.31,91-95.55,37.56-132.59-27.79-132c-1.62,0-3.22.07-4.83.12a54,54,0,0,0,4.54-22.23c-.53-40.43-47-72.81-103.91-72.32-21.19.17-40.83,4.9-57.11,12.86-14.29-56.58-82.82-99.1-164.62-98.4-56.88.47-106.78,21.74-136.23,53.74a114.41,114.41,0,0,0-34.29-4.9c-50.94.44-91.82,33.32-91.3,73.46a58.61,58.61,0,0,0,2.93,17.44C-679.15-169.9-731.81-133.86-731.23-90.24Z"/>
          <path class="cls-27" d="M-707.27-43.25c-14.81-30.1,1.29-53.24,31.57-71.28a122.68,122.68,0,0,1,47.1-15.82c9.53-1.2,41.28-3.79,48.17,3.55-22.85-24.36-23.88-61.46.52-84.83,22.54-21.59,76.63-30.8,102-7,9.19-11.59,18.52-21.78,32.85-29.77,42.95-24,102-27.8,149.14-9.72,48.93,18.75,78.53,57.38,85,99.83,16.82-17.84,46.71-30.34,74.35-32.57s57.18,6.29,73.87,24.18c23,24.67,17.47,59,10.84,89.44,6.33-13.51,27.35-18.6,45.17-17.1C26.16-91.52,49-73.34,63-50.51,73-34.14,75.41-1.8,55.29,11.91,78-3.54,92-25.31,91.64-49.31,91-95.55,37.56-132.59-27.79-132c-1.62,0-3.22.07-4.83.12a54,54,0,0,0,4.54-22.23c-.53-40.43-47-72.81-103.91-72.32-21.19.17-40.83,4.9-57.11,12.86-14.29-56.58-82.82-99.1-164.62-98.4-56.88.47-106.78,21.74-136.23,53.74a114.41,114.41,0,0,0-34.29-4.9c-50.94.44-91.82,33.32-91.3,73.46a58.61,58.61,0,0,0,2.93,17.44c-66.54,2.37-119.2,38.41-118.62,82C-731-72.64-722.14-56.41-707.27-43.25Z"/>
          <path class="cls-28" d="M-714.15-50c21.89,24.18,62.6,40.23,109,39.84,24.84-.21,47.93-5.11,67.28-13.37C-522.58,9.33-477.58,33-424.76,32.51a170.07,170.07,0,0,0,26.5-2.3c23,17.81,57.35,29,95.52,28.64,63.44-.54,115.37-32.58,122.44-73.45a115,115,0,0,0,20.36,1.67,113.81,113.81,0,0,0,24.1-2.8c18,30.4,60.72,51.57,110.25,51.15C.89,35.2,25.27,28.84,44.84,18.26,18.56,24.79-6.79,27-33.25,17.78a123.76,123.76,0,0,1-74.06-70.87c-14.16,11.39-36.05,14.76-55.79,12.16s-37.8-10.41-54.85-18.84c4,32.93-22.66,66.69-61.38,77.71s-85.8-1.78-108.34-29.44C-393.62-1.61-410.19.23-423.72-1.23c-45.33-4.92-85.09-34-95.53-69.89-4.76,14.57-25.1,21.45-43.12,25.5C-612.39-34.36-669.84-29.86-714.15-50Z"/>
        </g>
      </g>
    </g>
  </g>
</svg>
