<svg id="Layer_1" data-name="Layer 1" xmlns="http://www.w3.org/2000/svg" xmlns:xlink="http://www.w3.org/1999/xlink" viewBox="0 0 317.28 294"><defs><style>.cls-1{opacity:0.29;fill:url(#radial-gradient);}.cls-2,.cls-3,.cls-4,.cls-5,.cls-6{opacity:0.39;}.cls-2{fill:url(#linear-gradient);}.cls-3{fill:url(#linear-gradient-2);}.cls-4{fill:url(#linear-gradient-3);}.cls-5{fill:url(#linear-gradient-4);}.cls-7{fill:#fff;}</style><radialGradient id="radial-gradient" cx="171.83" cy="146.02" r="127.35" gradientTransform="matrix(1.01, 0, 0, 1, -13.79, 0.07)" gradientUnits="userSpaceOnUse"><stop offset="0.15" stop-color="#518ee0"/><stop offset="0.3" stop-color="#5192e1"/><stop offset="0.46" stop-color="#4f9fe2"/><stop offset="0.63" stop-color="#4db5e5"/><stop offset="0.8" stop-color="#4ad3e9"/><stop offset="0.98" stop-color="#46faee"/><stop offset="1" stop-color="#45ffef"/></radialGradient><linearGradient id="linear-gradient" x1="158.15" y1="149.87" x2="158.15" y2="11.07" gradientTransform="translate(1.44 13.44) rotate(0.25)" gradientUnits="userSpaceOnUse"><stop offset="0.15" stop-color="#83c0e0" stop-opacity="0"/><stop offset="0.36" stop-color="#82c1e0" stop-opacity="0.01"/><stop offset="0.48" stop-color="#80c3e1" stop-opacity="0.04"/><stop offset="0.57" stop-color="#7dc6e1" stop-opacity="0.09"/><stop offset="0.65" stop-color="#78cbe3" stop-opacity="0.17"/><stop offset="0.73" stop-color="#72d1e4" stop-opacity="0.27"/><stop offset="0.79" stop-color="#6bd9e6" stop-opacity="0.39"/><stop offset="0.85" stop-color="#62e2e8" stop-opacity="0.54"/><stop offset="0.91" stop-color="#57eceb" stop-opacity="0.7"/><stop offset="0.97" stop-color="#4cf8ed" stop-opacity="0.89"/><stop offset="1" stop-color="#45ffef"/></linearGradient><linearGradient id="linear-gradient-2" x1="158.72" y1="162.33" x2="158.72" y2="23.53" xlink:href="#linear-gradient"/><linearGradient id="linear-gradient-3" x1="3631.37" y1="-3756.52" x2="3631.37" y2="-3894.19" gradientTransform="matrix(0.2, -1.05, 0.46, 0.09, 1118.51, 4282.95)" xlink:href="#linear-gradient"/><linearGradient id="linear-gradient-4" x1="4406.83" y1="5741.16" x2="4406.83" y2="5603.5" gradientTransform="matrix(-0.19, -1.05, -0.46, 0.08, 3683.95, 4293.95)" xlink:href="#linear-gradient"/></defs><path class="cls-1" d="M23.78,237.83c8.34,4.61,149.67,70.69,269.72-5.55L256.15,91.64c-8.51-32-39-57.23-78-63.71-1.16-.2-2.33-.38-3.5-.55-53.39-7.68-104.25,21.68-115,65.38Z"/><path class="cls-2" d="M252.57,164.39s-41.89-61.85-93.9-62.07-94.43,61.26-94.43,61.26C40.64,158.4,53.23,22.83,159,25.31,255.64,20.87,282,157.92,252.57,164.39Z"/><path class="cls-3" d="M253.09,176.84S211.2,115,159.19,114.77,64.76,176,64.76,176c-23.6-5.19-11-140.76,94.76-138.27C256.16,33.32,282.5,170.37,253.09,176.84Z"/><path class="cls-4" d="M133.19,61.06S96.63,100.12,86.25,155,74.81,247.8,74.81,247.8c-37.24-12.63-45.75,11.83-23.71-99.56C68.16,45.91,136,29.49,133.19,61.06Z"/><path class="cls-5" d="M184.78,61.28s36.23,39.38,46.13,94.31,10.64,92.92,10.64,92.92c37.35-12.31,45.65,12.22,24.57-99.36C249.94,46.69,182.2,29.69,184.78,61.28Z"/><g class="cls-6"><path class="cls-7" d="M254.18,155c-.36-5.27-2.43-10.5-4-15.54-1.76-5.13-3.75-10.17-5.91-15.13a218.8,218.8,0,0,0-14.78-28.68c-5.56-9-12.52-17.08-19.45-25-7-7.72-14.89-14.47-24.7-19.51l.2-.77a41.74,41.74,0,0,1,16.24,4.76c15.73,8,25.43,22.12,33.26,37.33a195.63,195.63,0,0,1,13,30.45c2.93,9.17,5.61,18.45,6.87,28a16.66,16.66,0,0,1,.1,4.25l-.78-.16Z"/></g></svg>