<svg id="Layer_1" data-name="Layer 1" xmlns="http://www.w3.org/2000/svg" viewBox="0 0 69.71 64.98"><defs><style>.cls-1{fill:#b7b6b6;stroke:#040421;}</style></defs><path class="cls-1" d="M35.61,36.75q0,5.32-3.23,8.22c-2.16,1.94-5.18,2.9-9.06,2.9a16.87,16.87,0,0,1-6.64-1.27,14.65,14.65,0,0,1-5.27-3.75l2.8-4.93q4.45,4,8.7,4a6.71,6.71,0,0,0,4.35-1.36A4.33,4.33,0,0,0,29,37.08a4.91,4.91,0,0,0-1.42-3.81A5.91,5.91,0,0,0,23.41,32a5.76,5.76,0,0,0-2.62.58,10.47,10.47,0,0,0-2.48,1.77L14,31.87l.5-18.9h20l.05,5.9H20.91l-.25,8.2,1.26-.57a10.34,10.34,0,0,1,1-.38,6,6,0,0,1,1.09-.2c.39,0,.82-.05,1.31-.05a10.65,10.65,0,0,1,4.17.79,9.16,9.16,0,0,1,3.23,2.21,10.08,10.08,0,0,1,2.09,3.44A12.69,12.69,0,0,1,35.61,36.75Z"/><path class="cls-1" d="M40.16,47.87,40.21,44c1-1.21,2.13-2.42,3.27-3.61s2.3-2.38,3.43-3.56,2.22-2.33,3.25-3.46a30.88,30.88,0,0,0,2.73-3.41,19.4,19.4,0,0,0,1.87-3.38,8.61,8.61,0,0,0,.7-3.39,3.69,3.69,0,0,0-1.3-2.94A4.72,4.72,0,0,0,51,19.07a5.29,5.29,0,0,0-2.42.54A6.12,6.12,0,0,0,46.69,21a9.68,9.68,0,0,0-1.35,1.87,15.3,15.3,0,0,0-1,2.05l-4.8-3.49c.33-.76.75-1.62,1.25-2.58A10.14,10.14,0,0,1,43,16.09a12.45,12.45,0,0,1,3.71-2.21A15.93,15.93,0,0,1,52.51,13a14.07,14.07,0,0,1,4.41.66,9.88,9.88,0,0,1,3.43,1.88,8,8,0,0,1,2.2,3,9.61,9.61,0,0,1,.76,3.87,13.14,13.14,0,0,1-1.47,6,31.65,31.65,0,0,1-3.58,5.53,42.27,42.27,0,0,1-4.4,4.7Q51.57,40.61,50,42H63.61v5.9Z"/></svg>