<svg id="Layer_1" data-name="Layer 1" xmlns="http://www.w3.org/2000/svg" viewBox="0 0 69.71 64.98"><defs><style>.cls-1{fill:#ffe8d9;stroke:#2d1606;stroke-miterlimit:10;}</style></defs><path class="cls-1" d="M33.46,44.13A9.12,9.12,0,0,1,29.7,51.9Q26,54.71,19.24,54.7A23.28,23.28,0,0,1,13,53.91,15.87,15.87,0,0,1,8.17,51.7a10,10,0,0,1-3.11-3.42A9,9,0,0,1,4,43.78a9,9,0,0,1,2-6.05,16.89,16.89,0,0,1,6.7-4.24c-1.65-1-3-1.92-4-2.68a11.16,11.16,0,0,1-2.32-2.27,6.46,6.46,0,0,1-1.1-2.35,12.14,12.14,0,0,1-.31-3,9.16,9.16,0,0,1,3.49-7.71q3.47-2.71,10.67-2.71a20.85,20.85,0,0,1,5.67.71,13.7,13.7,0,0,1,4.36,2,9,9,0,0,1,2.75,3.16,8.92,8.92,0,0,1,1,4.16,9.29,9.29,0,0,1-1.77,5.69,17.33,17.33,0,0,1-5.85,4.57,15,15,0,0,1,6.27,4.52A10.69,10.69,0,0,1,33.46,44.13Zm-8-.76A4.17,4.17,0,0,0,25,41.3a4.8,4.8,0,0,0-1.41-1.52,13,13,0,0,0-2.22-1.24c-.86-.38-1.83-.78-2.91-1.18a12.32,12.32,0,0,0-4.38,2.23,4,4,0,0,0-1.26,3.06,4.26,4.26,0,0,0,1.8,3.64,8,8,0,0,0,4.87,1.33,7.4,7.4,0,0,0,4.37-1.16A3.6,3.6,0,0,0,25.49,43.37Zm-1.15-19a3.9,3.9,0,0,0-1.59-3.21,6.61,6.61,0,0,0-4.17-1.23,5.76,5.76,0,0,0-3.72,1.15A3.61,3.61,0,0,0,13.42,24q0,3.15,5.77,5.62a9,9,0,0,0,4-2.28A4.46,4.46,0,0,0,24.34,24.34Z"/><path class="cls-1" d="M64.06,54.7H56L56.5,37a11,11,0,0,1-3.42,2.1,12,12,0,0,1-4,.6,12.64,12.64,0,0,1-5-1A11.07,11.07,0,0,1,40.18,36a12.21,12.21,0,0,1-2.49-4.23,16.48,16.48,0,0,1-.87-5.52,16.19,16.19,0,0,1,1-6,12.66,12.66,0,0,1,3-4.53,12.82,12.82,0,0,1,4.71-2.85,18.47,18.47,0,0,1,6.21-1q6.24,0,9.72,3.48t3.3,9.66ZM56.44,24.16a4.72,4.72,0,0,0-.39-1.95A4.83,4.83,0,0,0,55,20.68a4.79,4.79,0,0,0-1.65-1,5.76,5.76,0,0,0-2-.36,5.51,5.51,0,0,0-4.38,1.86,7.5,7.5,0,0,0-1.62,5.1,6.63,6.63,0,0,0,1.41,4.5,4.93,4.93,0,0,0,3.93,1.62,5.41,5.41,0,0,0,4.08-1.62,6.64,6.64,0,0,0,1.68-4.5Z"/></svg>