<svg id="Layer_1" data-name="Layer 1" xmlns="http://www.w3.org/2000/svg" viewBox="0 0 69.71 64.98"><defs><style>.cls-1{fill:#868687;}</style></defs><path class="cls-1" d="M32.54,39.91a6.71,6.71,0,0,1-2.76,5.7c-1.84,1.36-4.4,2-7.68,2a17.18,17.18,0,0,1-4.58-.58A11.72,11.72,0,0,1,14,45.46,7.46,7.46,0,0,1,11.71,43a7.25,7.25,0,0,1,.66-7.74,12.39,12.39,0,0,1,4.9-3.11c-1.2-.74-2.17-1.4-2.9-2a8.42,8.42,0,0,1-1.7-1.66,5.14,5.14,0,0,1-.81-1.73,9.15,9.15,0,0,1-.22-2.16,6.76,6.76,0,0,1,2.55-5.66q2.55-2,7.83-2a15.8,15.8,0,0,1,4.16.51,9.9,9.9,0,0,1,3.19,1.48,6.49,6.49,0,0,1,2,2.31,6.68,6.68,0,0,1,.7,3.05,6.8,6.8,0,0,1-1.3,4.18,12.76,12.76,0,0,1-4.29,3.35,10.82,10.82,0,0,1,4.59,3.31A7.81,7.81,0,0,1,32.54,39.91Zm-5.85-.56a3,3,0,0,0-.36-1.52,3.36,3.36,0,0,0-1-1.11,9.46,9.46,0,0,0-1.63-.91q-.95-.42-2.13-.87a8.86,8.86,0,0,0-3.21,1.64,2.93,2.93,0,0,0-.93,2.24,3.12,3.12,0,0,0,1.32,2.67,5.88,5.88,0,0,0,3.57,1,5.46,5.46,0,0,0,3.21-.84A2.68,2.68,0,0,0,26.69,39.35Zm-.84-14A2.87,2.87,0,0,0,24.69,23a4.88,4.88,0,0,0-3.06-.9A4.24,4.24,0,0,0,18.9,23a2.67,2.67,0,0,0-1.06,2.17c0,1.53,1.41,2.91,4.23,4.12A6.73,6.73,0,0,0,25,27.6,3.32,3.32,0,0,0,25.85,25.39Z"/><path class="cls-1" d="M57.44,31.77q0,8.39-2.88,12.14T46,47.66q-5.68,0-8.57-3.77T34.52,32.32q0-7.76,2.89-11.56T46,17Q57.44,17,57.44,31.77ZM50.53,32q-.12-5.06-1.14-7.23A3.49,3.49,0,0,0,46,22.62,3.69,3.69,0,0,0,42.62,25q-1.07,2.27-1.19,7.77a18.88,18.88,0,0,0,1.15,6.87A3.66,3.66,0,0,0,46,42a3.49,3.49,0,0,0,3.3-2.29Q50.41,37.41,50.53,32Z"/></svg>