<svg id="Layer_1" data-name="Layer 1" xmlns="http://www.w3.org/2000/svg" viewBox="0 0 69.71 64.98"><defs><style>.cls-1{fill:#868687;}</style></defs><path class="cls-1" d="M33.75,40.38A6.72,6.72,0,0,1,31,46.08c-1.84,1.36-4.4,2.05-7.68,2.05a17.13,17.13,0,0,1-4.58-.58,11.61,11.61,0,0,1-3.53-1.62,7.49,7.49,0,0,1-2.29-2.51,7.31,7.31,0,0,1,.66-7.74,12.44,12.44,0,0,1,4.91-3.11c-1.21-.74-2.17-1.4-2.91-2A8.61,8.61,0,0,1,13.89,29a5,5,0,0,1-.82-1.73,9.75,9.75,0,0,1-.21-2.16,6.76,6.76,0,0,1,2.55-5.66q2.55-2,7.83-2a15.85,15.85,0,0,1,4.16.51,10,10,0,0,1,3.19,1.48,6.46,6.46,0,0,1,2,2.31,6.55,6.55,0,0,1,.7,3.05A6.86,6.86,0,0,1,32,29a13,13,0,0,1-4.29,3.35,11,11,0,0,1,4.59,3.31A7.8,7.8,0,0,1,33.75,40.38Zm-5.85-.56a3,3,0,0,0-.35-1.52,3.58,3.58,0,0,0-1-1.11,9.86,9.86,0,0,0-1.63-.91c-.63-.28-1.34-.57-2.14-.87a9,9,0,0,0-3.21,1.64,3,3,0,0,0-.92,2.25A3.11,3.11,0,0,0,19.94,42a5.87,5.87,0,0,0,3.56,1,5.46,5.46,0,0,0,3.21-.85A2.64,2.64,0,0,0,27.9,39.82Zm-.83-14a2.85,2.85,0,0,0-1.17-2.35,4.88,4.88,0,0,0-3.06-.9,4.23,4.23,0,0,0-2.72.84,2.66,2.66,0,0,0-1.06,2.17c0,1.53,1.41,2.91,4.22,4.12a6.73,6.73,0,0,0,2.95-1.67A3.28,3.28,0,0,0,27.07,25.86Z"/><path class="cls-1" d="M54.35,48.13H48.89V40.56H37.58V17.37h5.63V35.63h5.68V28.2H54.3v7.43h3.92v4.89H54.35Z"/></svg>