<svg id="Layer_1" data-name="Layer 1" xmlns="http://www.w3.org/2000/svg" viewBox="0 0 69.71 64.98"><defs><style>.cls-1{fill:#fff;stroke:#040421;}</style></defs><path class="cls-1" d="M32,48.65h-6.7l.4-14.75a9,9,0,0,1-2.85,1.75,9.85,9.85,0,0,1-3.35.5,10.6,10.6,0,0,1-4.18-.8,9.19,9.19,0,0,1-3.22-2.27,10.19,10.19,0,0,1-2.08-3.53A13.83,13.83,0,0,1,9.33,25a13.54,13.54,0,0,1,.87-5,10.5,10.5,0,0,1,2.48-3.78,10.65,10.65,0,0,1,3.92-2.37A15.42,15.42,0,0,1,21.78,13q5.19,0,8.1,2.9c1.93,1.93,2.85,4.62,2.75,8ZM25.68,23.2a3.84,3.84,0,0,0-.33-1.62,4.12,4.12,0,0,0-.9-1.28,3.92,3.92,0,0,0-1.37-.85,4.83,4.83,0,0,0-1.7-.3,4.59,4.59,0,0,0-3.65,1.55A6.26,6.26,0,0,0,16.38,25a5.54,5.54,0,0,0,1.17,3.75,4.12,4.12,0,0,0,3.28,1.35,4.51,4.51,0,0,0,3.4-1.35A5.58,5.58,0,0,0,25.63,25Z"/><path class="cls-1" d="M57.38,48.65h-6.2v-8.6H38.33V13.7h6.4V34.45h6.45V26h6.15v8.45h4.44V40H57.38Z"/></svg>