<svg id="Layer_1" data-name="Layer 1" xmlns="http://www.w3.org/2000/svg" viewBox="0 0 69.71 64.98"><defs><style>.cls-1{fill:#ffe8d9;stroke:#2d1606;stroke-miterlimit:10;}</style></defs><path class="cls-1" d="M17.26,54.9H8.2L23.92,20.1H5.08V13H33.34v6.23Z"/><path class="cls-1" d="M37.66,54.9l.06-4.71q1.86-2.17,3.93-4.33l4.11-4.27q2-2.12,3.9-4.15a36.15,36.15,0,0,0,3.27-4.09,22.63,22.63,0,0,0,2.25-4.06A10.4,10.4,0,0,0,56,25.23a4.45,4.45,0,0,0-1.56-3.53,5.62,5.62,0,0,0-3.84-1.36,6.55,6.55,0,0,0-2.91.64,7.54,7.54,0,0,0-2.22,1.67,12.15,12.15,0,0,0-1.62,2.25,20.15,20.15,0,0,0-1.17,2.45l-5.76-4.18c.4-.91.9-1.94,1.5-3.1a11.92,11.92,0,0,1,2.61-3.3,14.38,14.38,0,0,1,4.44-2.66,19,19,0,0,1,7-1.09,16.82,16.82,0,0,1,5.29.79,12.21,12.21,0,0,1,4.12,2.25,9.89,9.89,0,0,1,2.63,3.54,11.42,11.42,0,0,1,.92,4.65,15.7,15.7,0,0,1-1.77,7.14A37.16,37.16,0,0,1,59.38,38a50.29,50.29,0,0,1-5.28,5.65c-1.84,1.67-3.4,3.06-4.68,4.15H65.8V54.9Z"/></svg>