<svg id="Layer_1" data-name="Layer 1" xmlns="http://www.w3.org/2000/svg" viewBox="0 0 69.71 64.98"><defs><style>.cls-1{fill:#b7b6b6;stroke:#040421;}</style></defs><path class="cls-1" d="M18.3,47.54V20.28c-.66.77-1.3,1.46-1.9,2.08l-1.95,2-3.3-4.5c1-.86,2-1.73,2.9-2.59s1.62-1.52,2.45-2.35a27.25,27.25,0,0,0,2.06-2.25H25v34.9Z"/><path class="cls-1" d="M35.1,47.54l0-3.92c1-1.21,2.13-2.42,3.28-3.61l3.42-3.56C43,35.28,44.07,34.12,45.1,33a29.76,29.76,0,0,0,2.73-3.41A18.76,18.76,0,0,0,49.7,26.2a8.61,8.61,0,0,0,.7-3.39,3.69,3.69,0,0,0-1.3-2.94,4.7,4.7,0,0,0-3.2-1.13,5.29,5.29,0,0,0-2.42.54,6.12,6.12,0,0,0-1.85,1.39,9.68,9.68,0,0,0-1.35,1.87,15.91,15.91,0,0,0-1,2.05L34.5,21.1c.34-.76.75-1.62,1.25-2.58a10,10,0,0,1,2.18-2.76,12.26,12.26,0,0,1,3.7-2.21,16,16,0,0,1,5.82-.91,14.07,14.07,0,0,1,4.41.66,9.93,9.93,0,0,1,3.44,1.88,8.11,8.11,0,0,1,2.19,2.95A9.45,9.45,0,0,1,58.25,22,13.14,13.14,0,0,1,56.78,28a31.65,31.65,0,0,1-3.58,5.53,41.35,41.35,0,0,1-4.4,4.7q-2.29,2.1-3.9,3.46H58.55v5.9Z"/></svg>