<svg id="Layer_1" data-name="Layer 1" xmlns="http://www.w3.org/2000/svg" viewBox="0 0 69.71 64.98"><defs><style>.cls-1{fill:#022749;}</style></defs><path class="cls-1" d="M10.41,47l.05-3.46q1.36-1.59,2.88-3.17l3-3.13c1-1,2-2,2.86-3a26.72,26.72,0,0,0,2.4-3,16.46,16.46,0,0,0,1.65-3,7.62,7.62,0,0,0,.62-3,3.29,3.29,0,0,0-1.14-2.59,4.18,4.18,0,0,0-2.82-1,4.81,4.81,0,0,0-2.14.47,5.51,5.51,0,0,0-1.62,1.23A8.81,8.81,0,0,0,15,25a14,14,0,0,0-.86,1.8L9.89,23.7c.29-.66.66-1.42,1.1-2.27A8.77,8.77,0,0,1,12.9,19a10.84,10.84,0,0,1,3.26-2,14,14,0,0,1,5.12-.8,12.58,12.58,0,0,1,3.88.58,8.87,8.87,0,0,1,3,1.65,7.2,7.2,0,0,1,1.93,2.6,8.3,8.3,0,0,1,.68,3.41,11.56,11.56,0,0,1-1.3,5.23,27.17,27.17,0,0,1-3.15,4.87,36.64,36.64,0,0,1-3.87,4.14q-2,1.84-3.43,3h12V47Z"/><path class="cls-1" d="M52.21,47H46.76V39.41H35.45V16.22h5.63V34.48h5.68V27h5.41v7.44h3.92v4.88H52.21Z"/></svg>