<svg id="Layer_1" data-name="Layer 1" xmlns="http://www.w3.org/2000/svg" viewBox="0 0 69.71 64.98"><defs><style>.cls-1{fill:#87786f;stroke:#2d1606;stroke-miterlimit:10;}</style></defs><path class="cls-1" d="M33.22,42.48a9.12,9.12,0,0,1-3.76,7.77Q25.7,53.05,19,53.05a23.2,23.2,0,0,1-6.24-.79,15.87,15.87,0,0,1-4.82-2.21,10.15,10.15,0,0,1-3.12-3.42,9.15,9.15,0,0,1-1.11-4.5,9,9,0,0,1,2-6.05,16.84,16.84,0,0,1,6.69-4.24c-1.64-1-3-1.92-4-2.68a11.33,11.33,0,0,1-2.31-2.27A6.65,6.65,0,0,1,5,24.54a12.7,12.7,0,0,1-.3-2.95A9.18,9.18,0,0,1,8.2,13.88q3.48-2.72,10.68-2.71a20.85,20.85,0,0,1,5.67.71,13.64,13.64,0,0,1,4.35,2,8.71,8.71,0,0,1,3.72,7.32,9.29,9.29,0,0,1-1.77,5.69A17.33,17.33,0,0,1,25,31.46,15,15,0,0,1,31.26,36,10.63,10.63,0,0,1,33.22,42.48Zm-8-.76a4.17,4.17,0,0,0-.48-2.07,4.67,4.67,0,0,0-1.41-1.51,13.4,13.4,0,0,0-2.22-1.25c-.86-.38-1.83-.78-2.91-1.18a12.32,12.32,0,0,0-4.38,2.23A4,4,0,0,0,12.58,41a4.29,4.29,0,0,0,1.8,3.65A8,8,0,0,0,19.24,46a7.41,7.41,0,0,0,4.38-1.16A3.61,3.61,0,0,0,25.24,41.72Zm-1.14-19a3.86,3.86,0,0,0-1.59-3.2,6.57,6.57,0,0,0-4.17-1.24,5.76,5.76,0,0,0-3.72,1.15,3.61,3.61,0,0,0-1.44,3q0,3.15,5.76,5.62a9.08,9.08,0,0,0,4-2.28A4.46,4.46,0,0,0,24.1,22.69Z"/><path class="cls-1" d="M37.24,53.05l.06-4.71c1.24-1.45,2.55-2.9,3.93-4.33l4.11-4.27q2-2.12,3.9-4.15a37.06,37.06,0,0,0,3.27-4.09,23,23,0,0,0,2.25-4.06,10.45,10.45,0,0,0,.84-4.07A4.46,4.46,0,0,0,54,19.84a5.66,5.66,0,0,0-3.84-1.35,6.42,6.42,0,0,0-2.91.64,7.54,7.54,0,0,0-2.22,1.67,12.15,12.15,0,0,0-1.62,2.25,19.47,19.47,0,0,0-1.17,2.45l-5.76-4.19q.6-1.35,1.5-3.09a12.1,12.1,0,0,1,2.61-3.31,14.56,14.56,0,0,1,4.44-2.65,19,19,0,0,1,7-1.09,16.82,16.82,0,0,1,5.29.79,12.12,12.12,0,0,1,4.12,2.25,9.61,9.61,0,0,1,2.63,3.54A11.38,11.38,0,0,1,65,22.4a15.66,15.66,0,0,1-1.77,7.13A37.23,37.23,0,0,1,59,36.17a50.29,50.29,0,0,1-5.28,5.65C51.84,43.49,50.28,44.88,49,46H65.38v7.08Z"/></svg>