<svg id="Layer_1" data-name="Layer 1" xmlns="http://www.w3.org/2000/svg" viewBox="0 0 69.71 64.98"><defs><style>.cls-1{fill:#87786f;stroke:#2d1606;stroke-miterlimit:10;}</style></defs><path class="cls-1" d="M31.6,40.92q0,6.39-3.87,9.87T16.85,54.27a20.29,20.29,0,0,1-8-1.53,17.63,17.63,0,0,1-6.32-4.5l3.36-5.91q5.34,4.86,10.44,4.86a8.09,8.09,0,0,0,5.22-1.64,5.19,5.19,0,0,0,2-4.23,5.87,5.87,0,0,0-1.71-4.57A7.1,7.1,0,0,0,17,35.19a7.07,7.07,0,0,0-3.15.69,12.78,12.78,0,0,0-3,2.13L5.68,35.06l.6-22.67h24l.06,7.08H14l-.3,9.84c.59-.28,1.09-.51,1.52-.69a11.85,11.85,0,0,1,1.25-.45,6.76,6.76,0,0,1,1.31-.24c.47,0,1-.06,1.57-.06a12.89,12.89,0,0,1,5,.94,10.9,10.9,0,0,1,3.88,2.65,12.31,12.31,0,0,1,2.5,4.13A15.21,15.21,0,0,1,31.6,40.92Z"/><path class="cls-1" d="M65.26,43a10.23,10.23,0,0,1-1,4.56,10.06,10.06,0,0,1-2.94,3.58,14.32,14.32,0,0,1-4.69,2.34,21,21,0,0,1-6.12.84,26.19,26.19,0,0,1-4.65-.38A16.61,16.61,0,0,1,42,52.7a14.87,14.87,0,0,1-3.42-2.16,26,26,0,0,1-3.24-3.29l4-5.34q4.68,5.28,10,5.28A7.3,7.3,0,0,0,54,45.8a4.84,4.84,0,0,0,1.83-3.67,4.72,4.72,0,0,0-.47-2.61,4.91,4.91,0,0,0-2-2,11.6,11.6,0,0,0-4-1.18,32.3,32.3,0,0,0-6.36-.12V29.13a44.2,44.2,0,0,0,6,.06,10.71,10.71,0,0,0,3.72-.82,4,4,0,0,0,1.92-1.7A5.5,5.5,0,0,0,55.18,24a4.35,4.35,0,0,0-1.74-3.32,6.85,6.85,0,0,0-4.32-1.25,10,10,0,0,0-4.26.94,17.29,17.29,0,0,0-4.32,3l-3.36-5.68q4.5-5.38,13.86-5.38a17.44,17.44,0,0,1,5.3.75,12.14,12.14,0,0,1,4,2.15A9.52,9.52,0,0,1,63,18.63a10.35,10.35,0,0,1,.9,4.39,9.14,9.14,0,0,1-1.74,5.78,13.66,13.66,0,0,1-5.76,3.87A11.26,11.26,0,0,1,63,36,10.1,10.1,0,0,1,65.26,43Z"/></svg>