<svg id="Layer_1" data-name="Layer 1" xmlns="http://www.w3.org/2000/svg" viewBox="0 0 69.71 64.98"><defs><style>.cls-1{fill:#868687;}</style></defs><path class="cls-1" d="M12.48,49.21l0-3.46q1.37-1.59,2.88-3.17l3-3.13c1-1,1.95-2.05,2.86-3a29.87,29.87,0,0,0,2.39-3,16.81,16.81,0,0,0,1.65-3,7.65,7.65,0,0,0,.62-3,3.26,3.26,0,0,0-1.14-2.59,4.19,4.19,0,0,0-2.82-1,4.64,4.64,0,0,0-2.13.48,5.24,5.24,0,0,0-1.63,1.22A8.88,8.88,0,0,0,17,27.21a14.71,14.71,0,0,0-.86,1.8L12,25.94c.29-.67.66-1.42,1.1-2.27A8.84,8.84,0,0,1,15,21.24a10.63,10.63,0,0,1,3.26-1.94,13.79,13.79,0,0,1,5.12-.8,12.29,12.29,0,0,1,3.88.58,8.68,8.68,0,0,1,3,1.65,7.14,7.14,0,0,1,1.92,2.59,8.34,8.34,0,0,1,.68,3.41A11.43,11.43,0,0,1,31.55,32a27.17,27.17,0,0,1-3.15,4.87A36.64,36.64,0,0,1,24.53,41q-2,1.85-3.43,3.05h12v5.19Z"/><path class="cls-1" d="M36.63,49.21l0-3.46q1.37-1.59,2.88-3.17l3-3.13c1-1,2-2.05,2.86-3a28.65,28.65,0,0,0,2.4-3,16.81,16.81,0,0,0,1.65-3,7.65,7.65,0,0,0,.62-3A3.27,3.27,0,0,0,49,24.86a4.15,4.15,0,0,0-2.81-1,4.65,4.65,0,0,0-2.14.48,5.49,5.49,0,0,0-1.63,1.22,8.83,8.83,0,0,0-1.18,1.65,13.38,13.38,0,0,0-.86,1.8L36.1,25.94c.3-.67.66-1.42,1.1-2.27a8.7,8.7,0,0,1,1.92-2.43,10.57,10.57,0,0,1,3.25-1.94,13.88,13.88,0,0,1,5.13-.8,12.29,12.29,0,0,1,3.88.58,8.55,8.55,0,0,1,3,1.65,7.16,7.16,0,0,1,1.93,2.59A8.34,8.34,0,0,1,57,26.73,11.54,11.54,0,0,1,55.71,32a27.73,27.73,0,0,1-3.15,4.87A36.64,36.64,0,0,1,48.69,41c-1.35,1.23-2.5,2.25-3.43,3.05h12v5.19Z"/></svg>