<svg id="Layer_1" data-name="Layer 1" xmlns="http://www.w3.org/2000/svg" viewBox="0 0 69.71 64.98"><defs><style>.cls-1{fill:#022749;}</style></defs><path class="cls-1" d="M22.38,48.37l0-3.46q1.36-1.59,2.89-3.17l3-3.13c1-1,1.95-2,2.86-3a27.73,27.73,0,0,0,2.4-3,17.4,17.4,0,0,0,1.65-3,7.68,7.68,0,0,0,.61-3A3.26,3.26,0,0,0,34.7,24a4.11,4.11,0,0,0-2.82-1,4.76,4.76,0,0,0-2.13.47,5.56,5.56,0,0,0-1.63,1.23,9.37,9.37,0,0,0-1.19,1.65,14.71,14.71,0,0,0-.86,1.8L21.85,25.1c.29-.67.66-1.42,1.1-2.28a9,9,0,0,1,1.91-2.42,11,11,0,0,1,3.26-1.95,14.05,14.05,0,0,1,5.13-.8,12.63,12.63,0,0,1,3.88.58,8.91,8.91,0,0,1,3,1.66,7.16,7.16,0,0,1,1.93,2.59,8.3,8.3,0,0,1,.67,3.41,11.43,11.43,0,0,1-1.3,5.23A27.12,27.12,0,0,1,38.31,36a37.64,37.64,0,0,1-3.88,4.14q-2,1.84-3.43,3H43v5.2Z"/></svg>