<svg id="Layer_1" data-name="Layer 1" xmlns="http://www.w3.org/2000/svg" viewBox="0 0 69.71 64.98"><defs><style>.cls-1{fill:#022749;}</style></defs><path class="cls-1" d="M31.58,38.15a6.68,6.68,0,0,1-2.76,5.69q-2.76,2.05-7.68,2.06a17.13,17.13,0,0,1-4.58-.58A11.61,11.61,0,0,1,13,43.7a7.59,7.59,0,0,1-2.29-2.51,6.72,6.72,0,0,1-.81-3.3,6.64,6.64,0,0,1,1.47-4.44,12.4,12.4,0,0,1,4.91-3.11c-1.2-.75-2.17-1.4-2.9-2a8.18,8.18,0,0,1-1.7-1.67A4.83,4.83,0,0,1,10.9,25a9.15,9.15,0,0,1-.22-2.16,6.75,6.75,0,0,1,2.55-5.66c1.7-1.32,4.31-2,7.83-2a15.79,15.79,0,0,1,4.16.52,10.11,10.11,0,0,1,3.19,1.47,6.43,6.43,0,0,1,2.73,5.37,6.77,6.77,0,0,1-1.3,4.17,12.85,12.85,0,0,1-4.29,3.36,10.82,10.82,0,0,1,4.59,3.31A7.81,7.81,0,0,1,31.58,38.15Zm-5.85-.56a3,3,0,0,0-.36-1.52,3.37,3.37,0,0,0-1-1.11,9.46,9.46,0,0,0-1.63-.91q-.95-.42-2.13-.87a8.86,8.86,0,0,0-3.21,1.64,2.93,2.93,0,0,0-.93,2.24,3.12,3.12,0,0,0,1.32,2.67,5.88,5.88,0,0,0,3.57,1,5.38,5.38,0,0,0,3.21-.85A2.65,2.65,0,0,0,25.73,37.59Zm-.84-14a2.85,2.85,0,0,0-1.17-2.35,4.83,4.83,0,0,0-3-.9,4.24,4.24,0,0,0-2.73.84,2.63,2.63,0,0,0-1.06,2.16q0,2.31,4.23,4.12a6.49,6.49,0,0,0,2.94-1.67A3.26,3.26,0,0,0,24.89,23.63Z"/><path class="cls-1" d="M52.17,45.9H46.71V38.33H35.41V15.14H41V33.4h5.67V26h5.42V33.4H56v4.88H52.17Z"/></svg>