<svg id="Layer_1" data-name="Layer 1" xmlns="http://www.w3.org/2000/svg" viewBox="0 0 69.71 64.98"><defs><style>.cls-1{fill:#868687;}</style></defs><path class="cls-1" d="M24.55,50.6l.05-3.45Q26,45.55,27.48,44l3-3.13c1-1,2-2.05,2.85-3a26.72,26.72,0,0,0,2.4-3,16.81,16.81,0,0,0,1.65-3,7.65,7.65,0,0,0,.62-3,3.26,3.26,0,0,0-1.14-2.59,4.18,4.18,0,0,0-2.82-1,4.7,4.7,0,0,0-2.14.47A5.32,5.32,0,0,0,30.3,27a8.88,8.88,0,0,0-1.19,1.65,14.71,14.71,0,0,0-.86,1.8L24,27.33c.29-.67.66-1.42,1.1-2.27A8.8,8.8,0,0,1,27,22.63a10.63,10.63,0,0,1,3.26-1.94,13.79,13.79,0,0,1,5.12-.8,12.29,12.29,0,0,1,3.88.58,8.68,8.68,0,0,1,3,1.65,7.14,7.14,0,0,1,1.92,2.59,8.34,8.34,0,0,1,.68,3.41,11.6,11.6,0,0,1-1.3,5.24,28,28,0,0,1-3.15,4.86,36.64,36.64,0,0,1-3.87,4.14q-2,1.85-3.43,3h12V50.6Z"/></svg>