<svg id="Layer_1" data-name="Layer 1" xmlns="http://www.w3.org/2000/svg" viewBox="0 0 69.71 64.98"><defs><style>.cls-1{fill:#b7b6b6;stroke:#040421;}</style></defs><path class="cls-1" d="M28.33,49.24h-6.2v-8.6H9.28V14.29h6.4V35h6.45V26.59h6.15V35h4.45v5.55h-4.4Z"/><path class="cls-1" d="M57.88,49.24h-6.7l.4-14.75a9,9,0,0,1-2.85,1.75,9.81,9.81,0,0,1-3.35.5,10.41,10.41,0,0,1-4.17-.8A9.23,9.23,0,0,1,38,33.67a10.25,10.25,0,0,1-2.08-3.53,13.79,13.79,0,0,1-.72-4.6,13.54,13.54,0,0,1,.87-5,10.26,10.26,0,0,1,6.41-6.15,15.36,15.36,0,0,1,5.17-.83q5.2,0,8.1,2.9t2.75,8.05ZM51.53,23.79a4,4,0,0,0-.32-1.62A4,4,0,0,0,48.93,20a4.79,4.79,0,0,0-1.7-.3,4.61,4.61,0,0,0-3.65,1.55,6.26,6.26,0,0,0-1.35,4.25,5.54,5.54,0,0,0,1.17,3.75,4.13,4.13,0,0,0,3.28,1.35,4.51,4.51,0,0,0,3.4-1.35,5.53,5.53,0,0,0,1.4-3.75Z"/></svg>