<svg id="Layer_1" data-name="Layer 1" xmlns="http://www.w3.org/2000/svg" viewBox="0 0 69.71 64.98"><defs><style>.cls-1{fill:#b7b6b6;stroke:#040421;}</style></defs><path class="cls-1" d="M31.05,36.78c0,3.55-1.07,6.29-3.23,8.22s-5.17,2.9-9.06,2.9a17.08,17.08,0,0,1-6.64-1.27,14.89,14.89,0,0,1-5.27-3.75L9.65,38q4.45,4,8.7,4a6.72,6.72,0,0,0,4.35-1.37,4.29,4.29,0,0,0,1.7-3.52A4.88,4.88,0,0,0,23,33.3,5.91,5.91,0,0,0,18.85,32a5.92,5.92,0,0,0-2.62.57,11.06,11.06,0,0,0-2.48,1.78l-4.3-2.46L10,13H30L30,18.9H16.35l-.25,8.2c.49-.24.91-.43,1.27-.58a9.29,9.29,0,0,1,1-.37A5.27,5.27,0,0,1,19.5,26c.39,0,.83-.05,1.31-.05a10.92,10.92,0,0,1,4.18.78,9,9,0,0,1,3.22,2.21,10.12,10.12,0,0,1,2.09,3.45A12.61,12.61,0,0,1,31.05,36.78Z"/><path class="cls-1" d="M55.65,47.9h-6.2V39.3H36.6V13H43V33.7h6.45V25.25H55.6V33.7h4.45v5.55h-4.4Z"/></svg>