<svg id="Layer_1" data-name="Layer 1" xmlns="http://www.w3.org/2000/svg" viewBox="0 0 69.71 64.98"><defs><style>.cls-1{fill:#fff;stroke:#040421;}</style></defs><path class="cls-1" d="M33.42,39.43a12.32,12.32,0,0,1-.84,4.66,9.88,9.88,0,0,1-5.95,5.8,13.33,13.33,0,0,1-4.77.81,13.12,13.12,0,0,1-5-.91A10.54,10.54,0,0,1,13,47.19a11.88,11.88,0,0,1-2.47-4A14.58,14.58,0,0,1,9.67,38a18.59,18.59,0,0,1,1.06-6.15,32.2,32.2,0,0,1,2.77-5.93,42.87,42.87,0,0,1,3.82-5.44,51.17,51.17,0,0,1,4.3-4.63h8.45a52.51,52.51,0,0,0-6.2,6.7,54.36,54.36,0,0,0-5.05,7.75c.53-.3,1-.55,1.42-.75a10.69,10.69,0,0,1,1.2-.48,7.61,7.61,0,0,1,1.15-.25,10.8,10.8,0,0,1,1.33-.07,9.28,9.28,0,0,1,3.84.78,8.51,8.51,0,0,1,3,2.22,10.87,10.87,0,0,1,2,3.41A12.79,12.79,0,0,1,33.42,39.43Zm-6.65.14a5,5,0,0,0-1.19-3.49,4.13,4.13,0,0,0-3.17-1.28,6.58,6.58,0,0,0-4.64,2c-.1.5-.17.88-.2,1.12a6.73,6.73,0,0,0-.05,1,5.57,5.57,0,0,0,1.35,3.88,4.57,4.57,0,0,0,3.54,1.5A4.1,4.1,0,0,0,25.58,43,4.82,4.82,0,0,0,26.77,39.57Z"/><path class="cls-1" d="M60,39.58q0,5.33-3.24,8.22t-9.05,2.9a17.1,17.1,0,0,1-6.65-1.27,14.86,14.86,0,0,1-5.26-3.75l2.8-4.93q4.44,4.05,8.7,4a6.76,6.76,0,0,0,4.35-1.37,4.32,4.32,0,0,0,1.7-3.52,4.88,4.88,0,0,0-1.43-3.81,5.89,5.89,0,0,0-4.12-1.3,5.94,5.94,0,0,0-2.63.57,10.8,10.8,0,0,0-2.47,1.78l-4.3-2.45.5-18.9h20l0,5.9H45.32l-.25,8.2c.48-.24.9-.43,1.26-.58a9.29,9.29,0,0,1,1-.37,5.39,5.39,0,0,1,1.09-.2c.39,0,.83-.05,1.32-.05a10.83,10.83,0,0,1,4.17.78,9.16,9.16,0,0,1,3.23,2.21,10.1,10.1,0,0,1,2.08,3.45A12.39,12.39,0,0,1,60,39.58Z"/></svg>