<svg id="Layer_1" data-name="Layer 1" xmlns="http://www.w3.org/2000/svg" viewBox="0 0 69.71 64.98"><defs><style>.cls-1{fill:#87786f;stroke:#2d1606;stroke-miterlimit:10;}</style></defs><path class="cls-1" d="M32.47,41.9a10.3,10.3,0,0,1-1,4.56A10,10,0,0,1,28.52,50a14.32,14.32,0,0,1-4.69,2.34,21,21,0,0,1-6.12.84,26.19,26.19,0,0,1-4.65-.38,16.15,16.15,0,0,1-3.87-1.19,14.87,14.87,0,0,1-3.42-2.16A25.32,25.32,0,0,1,2.53,46.2l4-5.34q4.68,5.28,10,5.28a7.24,7.24,0,0,0,4.71-1.39,4.82,4.82,0,0,0,1.83-3.67,4.72,4.72,0,0,0-.47-2.61,5,5,0,0,0-2-2,11.82,11.82,0,0,0-4-1.18,32.3,32.3,0,0,0-6.36-.12V28.08a44.2,44.2,0,0,0,6,.06,10.73,10.73,0,0,0,3.72-.81,4.06,4.06,0,0,0,1.92-1.71A5.46,5.46,0,0,0,22.39,23a4.32,4.32,0,0,0-1.74-3.32,6.85,6.85,0,0,0-4.32-1.26,10,10,0,0,0-4.26.94,17.29,17.29,0,0,0-4.32,3L4.39,16.73q4.5-5.38,13.86-5.39a17.33,17.33,0,0,1,5.29.75,11.93,11.93,0,0,1,4,2.16,9.43,9.43,0,0,1,2.58,3.34,10.3,10.3,0,0,1,.9,4.38,9.12,9.12,0,0,1-1.74,5.78,13.57,13.57,0,0,1-5.76,3.87A11.26,11.26,0,0,1,30.2,35,10.05,10.05,0,0,1,32.47,41.9Z"/><path class="cls-1" d="M67.15,31.56q0,11.43-3.94,16.55T51.52,53.22q-7.76,0-11.69-5.14T35.89,32.31q0-10.58,3.94-15.77t11.69-5.2Q67.15,11.34,67.15,31.56Zm-9.42.34c-.11-4.6-.64-7.89-1.56-9.86a4.73,4.73,0,0,0-4.59-3,5,5,0,0,0-4.64,3.2q-1.45,3.11-1.63,10.6c.12,4.16.64,7.29,1.57,9.37a5,5,0,0,0,4.7,3.23,4.78,4.78,0,0,0,4.5-3.12C57.06,40.28,57.62,36.79,57.73,31.9Z"/></svg>