<svg id="Layer_1" data-name="Layer 1" xmlns="http://www.w3.org/2000/svg" viewBox="0 0 69.71 64.98"><defs><style>.cls-1{fill:#fff;stroke:#040421;}</style></defs><path class="cls-1" d="M16,49.37V22.11c-.67.77-1.3,1.46-1.9,2.08s-1.25,1.27-1.95,2l-3.3-4.5c1-.86,2-1.73,2.9-2.59s1.61-1.52,2.45-2.35a29.15,29.15,0,0,0,2.06-2.25h6.39v34.9Z"/><path class="cls-1" d="M57.76,31.32q0,9.54-3.28,13.79t-9.75,4.26q-6.45,0-9.74-4.28T31.71,32q0-8.82,3.28-13.14t9.74-4.34Q57.77,14.47,57.76,31.32Zm-7.85.28c-.1-3.83-.53-6.57-1.31-8.21a4,4,0,0,0-3.82-2.47,4.23,4.23,0,0,0-3.87,2.67c-.8,1.72-1.26,4.67-1.35,8.84a21.51,21.51,0,0,0,1.3,7.8,4.17,4.17,0,0,0,3.92,2.69,4,4,0,0,0,3.75-2.6Q49.76,37.73,49.91,31.6Z"/></svg>