<svg id="Layer_1" data-name="Layer 1" xmlns="http://www.w3.org/2000/svg" viewBox="0 0 69.71 64.98"><defs><style>.cls-1{fill:#ffe8d9;stroke:#2d1606;stroke-miterlimit:10;}</style></defs><path class="cls-1" d="M34.4,43.27A9.14,9.14,0,0,1,30.64,51q-3.77,2.79-10.47,2.79A22.86,22.86,0,0,1,13.93,53a15.86,15.86,0,0,1-4.82-2.2A10.28,10.28,0,0,1,6,47.41a9.11,9.11,0,0,1-1.11-4.49,9.08,9.08,0,0,1,2-6.06,17,17,0,0,1,6.69-4.24q-2.46-1.53-4-2.68a11.31,11.31,0,0,1-2.31-2.26A6.7,6.7,0,0,1,6.2,25.32a12.61,12.61,0,0,1-.3-2.94,9.21,9.21,0,0,1,3.48-7.72Q12.86,12,20.06,12a21.25,21.25,0,0,1,5.67.71,13.44,13.44,0,0,1,4.35,2,8.83,8.83,0,0,1,2.76,3.15,8.94,8.94,0,0,1,1,4.16A9.32,9.32,0,0,1,32,27.68a17.46,17.46,0,0,1-5.85,4.57,14.86,14.86,0,0,1,6.26,4.52A10.61,10.61,0,0,1,34.4,43.27Zm-8-.77a4.16,4.16,0,0,0-.48-2.06,4.7,4.7,0,0,0-1.41-1.52,13.4,13.4,0,0,0-2.22-1.24c-.86-.39-1.83-.78-2.91-1.19A12.31,12.31,0,0,0,15,38.73a4,4,0,0,0-1.26,3.06,4.27,4.27,0,0,0,1.8,3.64,8,8,0,0,0,4.86,1.32,7.34,7.34,0,0,0,4.38-1.16A3.61,3.61,0,0,0,26.42,42.5Zm-1.14-19a3.86,3.86,0,0,0-1.59-3.2A6.63,6.63,0,0,0,19.52,19a5.82,5.82,0,0,0-3.72,1.15,3.63,3.63,0,0,0-1.44,2.95q0,3.15,5.76,5.62a9,9,0,0,0,4-2.27A4.49,4.49,0,0,0,25.28,23.47Z"/><path class="cls-1" d="M65.9,40.49q0,6.39-3.88,9.86T51.15,53.83a20.47,20.47,0,0,1-8-1.52,17.63,17.63,0,0,1-6.32-4.5l3.36-5.92q5.34,4.86,10.44,4.86a8,8,0,0,0,5.22-1.64,5.17,5.17,0,0,0,2-4.22,5.89,5.89,0,0,0-1.71-4.58,7.1,7.1,0,0,0-5-1.56,7.07,7.07,0,0,0-3.15.69,12.78,12.78,0,0,0-3,2.13L40,34.63,40.58,12h24L64.64,19H48.26L48,28.87c.58-.28,1.09-.51,1.52-.69a11.09,11.09,0,0,1,1.25-.45A6.62,6.62,0,0,1,52,27.49c.46,0,1-.06,1.57-.06a13.07,13.07,0,0,1,5,.94A10.92,10.92,0,0,1,62.49,31,12,12,0,0,1,65,35.16,15.21,15.21,0,0,1,65.9,40.49Z"/></svg>