<svg id="Layer_1" data-name="Layer 1" xmlns="http://www.w3.org/2000/svg" viewBox="0 0 69.71 64.98"><defs><style>.cls-1{fill:#fff;stroke:#040421;}</style></defs><path class="cls-1" d="M19.72,48.51H12.17l13.1-29H9.57v-5.9H33.12V18.8Z"/><path class="cls-1" d="M58.87,48.51h-6.7l.4-14.75a9.12,9.12,0,0,1-2.85,1.75,10.06,10.06,0,0,1-3.35.5,10.58,10.58,0,0,1-4.17-.8A9.23,9.23,0,0,1,39,32.94a10.17,10.17,0,0,1-2.07-3.53,13.58,13.58,0,0,1-.73-4.6,13.33,13.33,0,0,1,.88-5,10.52,10.52,0,0,1,2.47-3.78,10.64,10.64,0,0,1,3.93-2.37,15.36,15.36,0,0,1,5.17-.83q5.21,0,8.1,2.9c1.93,1.93,2.85,4.62,2.75,8ZM52.52,23.06a4,4,0,0,0-.32-1.62,4.12,4.12,0,0,0-.9-1.28,4,4,0,0,0-1.38-.85,4.79,4.79,0,0,0-1.7-.3,4.61,4.61,0,0,0-3.65,1.55,6.25,6.25,0,0,0-1.35,4.25,5.49,5.49,0,0,0,1.18,3.75,4.1,4.1,0,0,0,3.27,1.35,4.5,4.5,0,0,0,3.4-1.35,5.53,5.53,0,0,0,1.4-3.75Z"/></svg>