<svg id="Layer_1" data-name="Layer 1" xmlns="http://www.w3.org/2000/svg" viewBox="0 0 69.71 64.98"><defs><style>.cls-1{fill:#87786f;stroke:#2d1606;stroke-miterlimit:10;}</style></defs><path class="cls-1" d="M16.66,54.9H7.6L23.32,20.1H4.48V13H32.74v6.23Z"/><path class="cls-1" d="M65.26,43.58a10.17,10.17,0,0,1-1,4.56,10,10,0,0,1-2.94,3.58,13.94,13.94,0,0,1-4.69,2.34,21,21,0,0,1-6.12.84,25.28,25.28,0,0,1-4.65-.38A16.6,16.6,0,0,1,42,53.34a15.26,15.26,0,0,1-3.42-2.17,24.7,24.7,0,0,1-3.24-3.29l4-5.34q4.68,5.28,10,5.28A7.24,7.24,0,0,0,54,46.43a4.82,4.82,0,0,0,1.83-3.66,4.69,4.69,0,0,0-.47-2.61,4.91,4.91,0,0,0-2-2,11.39,11.39,0,0,0-4-1.18,31.45,31.45,0,0,0-6.36-.13V29.76a46.14,46.14,0,0,0,6,.07A10.71,10.71,0,0,0,52.69,29a4.06,4.06,0,0,0,1.92-1.71,5.46,5.46,0,0,0,.57-2.62,4.33,4.33,0,0,0-1.74-3.32,6.85,6.85,0,0,0-4.32-1.26,10.17,10.17,0,0,0-4.26.94,17.35,17.35,0,0,0-4.32,3.05l-3.36-5.68Q41.68,13,51,13a17.13,17.13,0,0,1,5.3.76,12,12,0,0,1,4,2.15A9.43,9.43,0,0,1,63,19.27a10.35,10.35,0,0,1,.9,4.39,9.14,9.14,0,0,1-1.74,5.78,13.56,13.56,0,0,1-5.76,3.86A11.32,11.32,0,0,1,63,36.68,10.05,10.05,0,0,1,65.26,43.58Z"/></svg>