<svg id="Layer_1" data-name="Layer 1" xmlns="http://www.w3.org/2000/svg" viewBox="0 0 69.71 64.98"><defs><style>.cls-1{fill:#87786f;stroke:#2d1606;stroke-miterlimit:10;}</style></defs><path class="cls-1" d="M31.65,42.46q0,6.39-3.88,9.86T16.9,55.8a20.43,20.43,0,0,1-8-1.52,17.88,17.88,0,0,1-6.32-4.5L6,43.86q5.34,4.86,10.44,4.86a8.09,8.09,0,0,0,5.22-1.64,5.17,5.17,0,0,0,2-4.23A5.87,5.87,0,0,0,22,38.28,7.1,7.1,0,0,0,17,36.72a7.07,7.07,0,0,0-3.15.69,12.78,12.78,0,0,0-3,2.13L5.73,36.6l.6-22.68h24L30.39,21H14l-.3,9.84c.58-.28,1.09-.51,1.51-.69a12,12,0,0,1,1.26-.45,6.49,6.49,0,0,1,1.31-.24c.46,0,1-.06,1.57-.06a13,13,0,0,1,5,.94A11.08,11.08,0,0,1,28.24,33a12.12,12.12,0,0,1,2.51,4.14A15.17,15.17,0,0,1,31.65,42.46Z"/><path class="cls-1" d="M67.05,34.14q0,11.43-3.94,16.55T51.42,55.8q-7.76,0-11.69-5.14T35.79,34.89q0-10.58,3.94-15.77t11.69-5.2Q67.05,13.92,67.05,34.14Zm-9.42.34q-.18-6.9-1.57-9.86a4.73,4.73,0,0,0-4.58-3,5.05,5.05,0,0,0-4.65,3.2Q45.39,28,45.21,35.46q.18,6.26,1.57,9.37a5,5,0,0,0,4.7,3.23A4.76,4.76,0,0,0,56,44.94Q57.46,41.82,57.63,34.48Z"/></svg>