<svg id="Layer_1" data-name="Layer 1" xmlns="http://www.w3.org/2000/svg" viewBox="0 0 69.71 64.98"><defs><style>.cls-1{fill:#868687;}</style></defs><path class="cls-1" d="M44,42.85a6.71,6.71,0,0,1-2.76,5.7q-2.76,2.06-7.68,2.05A16.73,16.73,0,0,1,29,50a11.61,11.61,0,0,1-3.53-1.62,7.59,7.59,0,0,1-2.29-2.51,6.72,6.72,0,0,1-.81-3.3,6.63,6.63,0,0,1,1.47-4.43,12.29,12.29,0,0,1,4.91-3.11c-1.2-.75-2.17-1.41-2.9-2a8.16,8.16,0,0,1-1.7-1.66,4.87,4.87,0,0,1-.81-1.73,9,9,0,0,1-.22-2.16,6.76,6.76,0,0,1,2.55-5.66q2.55-2,7.83-2a15.38,15.38,0,0,1,4.16.52,9.68,9.68,0,0,1,3.19,1.47,6.46,6.46,0,0,1,2,2.31,6.56,6.56,0,0,1,.71,3,6.86,6.86,0,0,1-1.3,4.18,12.84,12.84,0,0,1-4.29,3.35,11,11,0,0,1,4.59,3.31A7.81,7.81,0,0,1,44,42.85Zm-5.85-.56a3,3,0,0,0-.36-1.51,3.5,3.5,0,0,0-1-1.12,10.64,10.64,0,0,0-1.63-.91q-.95-.42-2.13-.87a9,9,0,0,0-3.21,1.64,2.94,2.94,0,0,0-.93,2.25,3.14,3.14,0,0,0,1.32,2.67,6,6,0,0,0,3.57,1,5.46,5.46,0,0,0,3.21-.85A2.66,2.66,0,0,0,38.12,42.29Zm-.84-14A2.82,2.82,0,0,0,36.11,26a4.77,4.77,0,0,0-3-.91,4.24,4.24,0,0,0-2.73.84,2.66,2.66,0,0,0-1.06,2.17q0,2.31,4.22,4.12a6.67,6.67,0,0,0,2.95-1.67A3.28,3.28,0,0,0,37.28,28.33Z"/></svg>