<svg id="Layer_1" data-name="Layer 1" xmlns="http://www.w3.org/2000/svg" viewBox="0 0 69.71 64.98"><defs><style>.cls-1{fill:#87786f;stroke:#2d1606;stroke-miterlimit:10;}</style></defs><path class="cls-1" d="M17.26,54l.06-4.71c1.24-1.45,2.55-2.9,3.93-4.33l4.11-4.27q2-2.11,3.9-4.15a36.15,36.15,0,0,0,3.27-4.09,23,23,0,0,0,2.25-4.06,10.44,10.44,0,0,0,.84-4.06,4.47,4.47,0,0,0-1.56-3.54,5.66,5.66,0,0,0-3.84-1.35,6.42,6.42,0,0,0-2.91.64,7.54,7.54,0,0,0-2.22,1.67A12.15,12.15,0,0,0,23.47,24a20.15,20.15,0,0,0-1.17,2.45l-5.76-4.19q.6-1.35,1.5-3.09a11.92,11.92,0,0,1,2.61-3.3,14.38,14.38,0,0,1,4.44-2.66,19,19,0,0,1,7-1.09,16.82,16.82,0,0,1,5.29.79,12.21,12.21,0,0,1,4.12,2.25,9.89,9.89,0,0,1,2.63,3.54A11.38,11.38,0,0,1,45,23.35a15.66,15.66,0,0,1-1.77,7.13A37.23,37.23,0,0,1,39,37.12a50.29,50.29,0,0,1-5.28,5.65c-1.84,1.67-3.4,3.06-4.68,4.15H45.4V54Z"/></svg>