<svg id="Layer_1" data-name="Layer 1" xmlns="http://www.w3.org/2000/svg" viewBox="0 0 69.71 64.98"><defs><style>.cls-1{fill:#022749;}</style></defs><path class="cls-1" d="M33.14,38.48a7.65,7.65,0,0,1-.74,3.35,7.52,7.52,0,0,1-2.16,2.62,10.38,10.38,0,0,1-3.44,1.72,15.38,15.38,0,0,1-4.49.61,18.59,18.59,0,0,1-3.41-.28,11.88,11.88,0,0,1-2.84-.87,10.93,10.93,0,0,1-2.5-1.58,18.25,18.25,0,0,1-2.38-2.42l2.9-3.91q3.44,3.87,7.35,3.87a5.34,5.34,0,0,0,3.46-1,3.57,3.57,0,0,0,1.34-2.69A3.52,3.52,0,0,0,25.88,36a3.62,3.62,0,0,0-1.5-1.48,8.51,8.51,0,0,0-2.95-.86,23.11,23.11,0,0,0-4.66-.09v-5.2a31.78,31.78,0,0,0,4.42.05,7.58,7.58,0,0,0,2.73-.6,3,3,0,0,0,1.41-1.25,4,4,0,0,0,.41-1.92,3.17,3.17,0,0,0-1.27-2.44,5.06,5.06,0,0,0-3.17-.92,7.35,7.35,0,0,0-3.12.69A12.68,12.68,0,0,0,15,24.18L12.54,20q3.3-3.94,10.17-3.95a12.63,12.63,0,0,1,3.88.55,8.82,8.82,0,0,1,3,1.58,6.94,6.94,0,0,1,1.89,2.45,7.56,7.56,0,0,1,.66,3.22,6.73,6.73,0,0,1-1.28,4.24,10.06,10.06,0,0,1-4.22,2.83,8.32,8.32,0,0,1,4.87,2.48A7.35,7.35,0,0,1,33.14,38.48Z"/><path class="cls-1" d="M46,46.78v-24c-.58.68-1.14,1.28-1.67,1.83L42.6,26.35l-2.91-4c.88-.77,1.73-1.53,2.55-2.29s1.43-1.33,2.16-2.06,1.34-1.4,1.82-2h5.62V46.78Z"/></svg>