<svg id="Layer_1" data-name="Layer 1" xmlns="http://www.w3.org/2000/svg" viewBox="0 0 69.71 64.98"><defs><style>.cls-1{fill:#022749;}</style></defs><path class="cls-1" d="M31.05,35.53a10.93,10.93,0,0,1-.73,4.1,9,9,0,0,1-2.05,3.11,9.21,9.21,0,0,1-3.19,2,11.86,11.86,0,0,1-4.2.7,11.67,11.67,0,0,1-4.39-.79,9.55,9.55,0,0,1-3.39-2.29,10.42,10.42,0,0,1-2.17-3.54,12.81,12.81,0,0,1-.78-4.59,16.32,16.32,0,0,1,.94-5.42,28.25,28.25,0,0,1,2.43-5.21,37.18,37.18,0,0,1,3.37-4.79,45.66,45.66,0,0,1,3.78-4.08H28.1a48,48,0,0,0-9.89,12.72c.46-.27.88-.49,1.25-.66a7.17,7.17,0,0,1,1.05-.42,5.78,5.78,0,0,1,1-.22,9.9,9.9,0,0,1,1.16-.07,8.11,8.11,0,0,1,3.38.69,7.57,7.57,0,0,1,2.63,1.95,9.57,9.57,0,0,1,1.73,3A11.3,11.3,0,0,1,31.05,35.53Zm-5.85.12a4.39,4.39,0,0,0-1-3.07,3.64,3.64,0,0,0-2.79-1.13,5.82,5.82,0,0,0-4.09,1.73q-.13.66-.18,1a6.78,6.78,0,0,0,0,.86,4.93,4.93,0,0,0,1.19,3.42,4,4,0,0,0,3.11,1.32,3.61,3.61,0,0,0,2.79-1.13A4.23,4.23,0,0,0,25.2,35.65Z"/><path class="cls-1" d="M52,45.44H46.49V37.87H35.19V14.69h5.63V33h5.67V25.51h5.42V33h3.91v4.88H52Z"/></svg>