<svg id="Layer_1" data-name="Layer 1" xmlns="http://www.w3.org/2000/svg" viewBox="0 0 69.71 64.98"><defs><style>.cls-1{fill:#ffe8d9;stroke:#2d1606;stroke-miterlimit:10;}</style></defs><path class="cls-1" d="M17.32,54.29V21.58Q16.12,23,15,24.07T12.7,26.44l-4-5.4q1.8-1.56,3.48-3.12c1-.87,1.94-1.81,2.94-2.81a36.38,36.38,0,0,0,2.48-2.7H25.3V54.29Z"/><path class="cls-1" d="M65.68,43a10,10,0,0,1-4,8.15A14.21,14.21,0,0,1,57,53.45a21,21,0,0,1-6.12.84,26.25,26.25,0,0,1-4.65-.37,16.61,16.61,0,0,1-3.87-1.19A15.26,15.26,0,0,1,39,50.56a25.2,25.2,0,0,1-3.24-3.28l4-5.35q4.68,5.28,10,5.28a7.3,7.3,0,0,0,4.71-1.38,4.85,4.85,0,0,0,1.83-3.67,4.71,4.71,0,0,0-.48-2.61,4.82,4.82,0,0,0-2-2,11.39,11.39,0,0,0-4-1.18,31.45,31.45,0,0,0-6.36-.13V29.15a46.14,46.14,0,0,0,6,.07,10.71,10.71,0,0,0,3.72-.82A4.1,4.1,0,0,0,55,26.7a5.53,5.53,0,0,0,.57-2.63,4.33,4.33,0,0,0-1.74-3.32,6.85,6.85,0,0,0-4.32-1.26,10.17,10.17,0,0,0-4.26.94A17.35,17.35,0,0,0,41,23.48L37.6,17.8q4.5-5.38,13.86-5.39a17.07,17.07,0,0,1,5.29.76,11.91,11.91,0,0,1,4,2.15,9.43,9.43,0,0,1,2.58,3.34,10.35,10.35,0,0,1,.9,4.39,9.14,9.14,0,0,1-1.74,5.78,13.56,13.56,0,0,1-5.76,3.86,11.29,11.29,0,0,1,6.63,3.38A10,10,0,0,1,65.68,43Z"/></svg>