<svg id="Layer_1" data-name="Layer 1" xmlns="http://www.w3.org/2000/svg" viewBox="0 0 69.71 64.98"><defs><style>.cls-1{fill:#87786f;stroke:#2d1606;stroke-miterlimit:10;}</style></defs><path class="cls-1" d="M47.67,40.48a14.81,14.81,0,0,1-1,5.59,12.19,12.19,0,0,1-2.79,4.24A12.32,12.32,0,0,1,39.53,53a15.94,15.94,0,0,1-5.73,1,15.81,15.81,0,0,1-6-1.09,12.76,12.76,0,0,1-4.62-3.12,14.31,14.31,0,0,1-3-4.82,17.45,17.45,0,0,1-1.06-6.26,22.39,22.39,0,0,1,1.27-7.39,38.84,38.84,0,0,1,3.32-7.11,52.2,52.2,0,0,1,4.6-6.53,63.69,63.69,0,0,1,5.15-5.56H43.65a62.51,62.51,0,0,0-7.43,8.05,63.7,63.7,0,0,0-6.06,9.29c.62-.36,1.19-.66,1.7-.9A11.27,11.27,0,0,1,33.3,28a8.08,8.08,0,0,1,1.38-.3,12.65,12.65,0,0,1,1.59-.09,11,11,0,0,1,4.61.94,10.24,10.24,0,0,1,3.59,2.66,12.79,12.79,0,0,1,2.35,4.1A15.13,15.13,0,0,1,47.67,40.48Zm-8,.16a5.93,5.93,0,0,0-1.42-4.18,4.93,4.93,0,0,0-3.81-1.54,7.93,7.93,0,0,0-5.57,2.36c-.12.6-.2,1-.24,1.34a9.37,9.37,0,0,0-.06,1.18,6.64,6.64,0,0,0,1.63,4.66,5.44,5.44,0,0,0,4.24,1.8,5,5,0,0,0,3.81-1.54A5.82,5.82,0,0,0,39.69,40.64Z"/></svg>