<svg id="Layer_1" data-name="Layer 1" xmlns="http://www.w3.org/2000/svg" viewBox="0 0 80.65 64.98"><defs><style>.cls-1{fill:#fff;stroke:#040421;}</style></defs><path class="cls-1" d="M9.15,48.28V21c-.66.76-1.3,1.45-1.9,2.07S6,24.37,5.3,25.07L2,20.57c1-.87,2-1.73,2.9-2.6s1.62-1.51,2.45-2.35a29,29,0,0,0,2.06-2.24H15.8v34.9Z"/><path class="cls-1" d="M50.9,30.22q0,9.54-3.28,13.8t-9.74,4.26q-6.47,0-9.75-4.29c-2.18-2.85-3.28-7.24-3.28-13.14S26,20.6,28.13,17.71s5.44-4.33,9.75-4.33Q50.9,13.38,50.9,30.22Zm-7.85.29c-.09-3.84-.53-6.58-1.3-8.22a4,4,0,0,0-3.82-2.46,4.19,4.19,0,0,0-3.87,2.67q-1.22,2.58-1.36,8.83A21.43,21.43,0,0,0,34,39.13a4.17,4.17,0,0,0,3.92,2.7,4,4,0,0,0,3.74-2.61C42.5,37.49,43,34.58,43.05,30.51Z"/><path class="cls-1" d="M78.35,30.22q0,9.54-3.28,13.8t-9.74,4.26q-6.46,0-9.75-4.29c-2.18-2.85-3.28-7.24-3.28-13.14s1.1-10.25,3.28-13.14,5.44-4.33,9.75-4.33Q78.35,13.38,78.35,30.22Zm-7.85.29c-.09-3.84-.53-6.58-1.3-8.22a4,4,0,0,0-3.82-2.46,4.19,4.19,0,0,0-3.87,2.67q-1.21,2.58-1.36,8.83a21.43,21.43,0,0,0,1.31,7.8,4.17,4.17,0,0,0,3.92,2.7,4,4,0,0,0,3.74-2.61C70,37.49,70.41,34.58,70.5,30.51Z"/></svg>