<svg id="Layer_1" data-name="Layer 1" xmlns="http://www.w3.org/2000/svg" viewBox="0 0 69.71 64.98"><defs><style>.cls-1{fill:#fff;stroke:#040421;}</style></defs><path class="cls-1" d="M28.1,48.89H21.9v-8.6H9.05V13.94h6.4V34.69H21.9V26.24h6.15v8.45H32.5v5.55H28.1Z"/><path class="cls-1" d="M59.25,37.63a12.27,12.27,0,0,1-.83,4.65,10.07,10.07,0,0,1-2.33,3.54,10.23,10.23,0,0,1-3.62,2.27A14.47,14.47,0,0,1,42.7,48a10.71,10.71,0,0,1-3.84-2.6,12.1,12.1,0,0,1-2.48-4,14.8,14.8,0,0,1-.88-5.22A18.85,18.85,0,0,1,36.56,30a32.55,32.55,0,0,1,2.77-5.93,42.24,42.24,0,0,1,3.83-5.44A52.71,52.71,0,0,1,47.46,14H55.9a53.28,53.28,0,0,0-6.19,6.71,54.27,54.27,0,0,0-5.05,7.74c.52-.3,1-.55,1.42-.75a9.24,9.24,0,0,1,1.2-.47A6.37,6.37,0,0,1,48.43,27a10.4,10.4,0,0,1,1.32-.08,9.3,9.3,0,0,1,3.85.78,8.47,8.47,0,0,1,3,2.22,10.45,10.45,0,0,1,2,3.42A12.51,12.51,0,0,1,59.25,37.63Zm-6.65.14a5,5,0,0,0-1.18-3.49A4.1,4.1,0,0,0,48.25,33a6.63,6.63,0,0,0-4.65,2c-.1.5-.16.87-.2,1.12a8.43,8.43,0,0,0,0,1A5.56,5.56,0,0,0,44.71,41a4.56,4.56,0,0,0,3.53,1.49,4.1,4.1,0,0,0,3.18-1.28A4.81,4.81,0,0,0,52.6,37.77Z"/></svg>