<svg id="Layer_1" data-name="Layer 1" xmlns="http://www.w3.org/2000/svg" viewBox="0 0 69.71 64.98"><defs><style>.cls-1{fill:#022749;}</style></defs><path class="cls-1" d="M29.66,36.55a9.23,9.23,0,0,1-2.84,7.23q-2.85,2.56-8,2.56A15,15,0,0,1,13,45.22a12.91,12.91,0,0,1-4.64-3.3l2.47-4.34C13.44,40,16,41.14,18.48,41.14a5.93,5.93,0,0,0,3.83-1.2,3.79,3.79,0,0,0,1.5-3.1,4.29,4.29,0,0,0-1.26-3.35,5.2,5.2,0,0,0-3.63-1.15,5.16,5.16,0,0,0-2.31.51,9.46,9.46,0,0,0-2.17,1.56l-3.79-2.16.44-16.63h17.6l0,5.2h-12L16.5,28l1.11-.5a6.41,6.41,0,0,1,.92-.33,4.8,4.8,0,0,1,1-.18c.35,0,.73,0,1.16,0a9.52,9.52,0,0,1,3.67.69,8,8,0,0,1,2.84,1.94,9.05,9.05,0,0,1,1.84,3A11.18,11.18,0,0,1,29.66,36.55Z"/><path class="cls-1" d="M55.62,30.45q0,8.39-2.89,12.14t-8.57,3.75q-5.69,0-8.58-3.77T32.69,31q0-7.76,2.89-11.56t8.58-3.82Q55.62,15.62,55.62,30.45Zm-6.91.25c-.08-3.38-.47-5.79-1.15-7.23A3.46,3.46,0,0,0,44.2,21.3a3.71,3.71,0,0,0-3.41,2.35q-1,2.27-1.19,7.77a19.14,19.14,0,0,0,1.15,6.87,3.66,3.66,0,0,0,3.45,2.37,3.5,3.5,0,0,0,3.3-2.29C48.22,36.84,48.63,34.29,48.71,30.7Z"/></svg>