<svg id="Layer_1" data-name="Layer 1" xmlns="http://www.w3.org/2000/svg" viewBox="0 0 69.71 64.98"><defs><style>.cls-1{fill:#022749;}</style></defs><path class="cls-1" d="M41.42,48.37h-5.9l.35-13a8.15,8.15,0,0,1-2.51,1.54,8.84,8.84,0,0,1-2.94.44,9.29,9.29,0,0,1-3.68-.71,8,8,0,0,1-2.83-2,8.73,8.73,0,0,1-1.83-3.1,12,12,0,0,1-.64-4,12,12,0,0,1,.77-4.38,9.27,9.27,0,0,1,2.18-3.32,9.37,9.37,0,0,1,3.45-2.09A13.72,13.72,0,0,1,32.4,17a9.62,9.62,0,0,1,7.12,2.56,9.12,9.12,0,0,1,2.42,7.08ZM35.83,26a3.44,3.44,0,0,0-1.08-2.55,3.64,3.64,0,0,0-1.21-.75,4.14,4.14,0,0,0-1.49-.26,4.06,4.06,0,0,0-3.22,1.36,5.52,5.52,0,0,0-1.18,3.74,4.85,4.85,0,0,0,1,3.3A3.63,3.63,0,0,0,31.56,32a4,4,0,0,0,3-1.19,4.78,4.78,0,0,0,1.23-3.3Z"/></svg>