<svg id="Layer_1" data-name="Layer 1" xmlns="http://www.w3.org/2000/svg" viewBox="0 0 69.71 64.98"><defs><style>.cls-1{fill:#022749;}</style></defs><path class="cls-1" d="M25.49,46.36H20V38.79H8.73V15.6h5.63V33.86H20V26.43h5.42v7.43h3.91v4.89H25.49Z"/><path class="cls-1" d="M53.21,38.61a6.71,6.71,0,0,1-2.76,5.7c-1.84,1.36-4.4,2-7.68,2a17.13,17.13,0,0,1-4.58-.58,11.72,11.72,0,0,1-3.53-1.62,7.59,7.59,0,0,1-2.29-2.51A7.31,7.31,0,0,1,33,33.91a12.51,12.51,0,0,1,4.91-3.11c-1.2-.74-2.17-1.4-2.9-2a8.42,8.42,0,0,1-1.7-1.66,5,5,0,0,1-.81-1.73,9.15,9.15,0,0,1-.22-2.16,6.76,6.76,0,0,1,2.55-5.66q2.55-2,7.83-2a15.8,15.8,0,0,1,4.16.51A9.9,9.9,0,0,1,50,17.64a6.49,6.49,0,0,1,2,2.31,6.68,6.68,0,0,1,.7,3.05,6.8,6.8,0,0,1-1.3,4.18,12.86,12.86,0,0,1-4.29,3.35,10.91,10.91,0,0,1,4.59,3.31A7.81,7.81,0,0,1,53.21,38.61Zm-5.85-.56A3,3,0,0,0,47,36.53a3.58,3.58,0,0,0-1-1.11,9.46,9.46,0,0,0-1.63-.91q-.95-.42-2.13-.87A8.86,8.86,0,0,0,39,35.28a2.94,2.94,0,0,0-.93,2.25,3.11,3.11,0,0,0,1.32,2.66,5.88,5.88,0,0,0,3.57,1,5.46,5.46,0,0,0,3.21-.85A2.66,2.66,0,0,0,47.36,38.05Zm-.84-14a2.85,2.85,0,0,0-1.17-2.35,4.83,4.83,0,0,0-3.05-.9,4.24,4.24,0,0,0-2.73.84,2.66,2.66,0,0,0-1.06,2.17c0,1.53,1.41,2.91,4.23,4.12a6.62,6.62,0,0,0,2.94-1.67A3.28,3.28,0,0,0,46.52,24.09Z"/></svg>