<svg id="Layer_1" data-name="Layer 1" xmlns="http://www.w3.org/2000/svg" viewBox="0 0 69.71 64.98"><defs><style>.cls-1{fill:#ffe8d9;stroke:#2d1606;stroke-miterlimit:10;}</style></defs><path class="cls-1" d="M31.84,57.92h-8l.48-17.7a11.23,11.23,0,0,1-3.42,2.1,12.09,12.09,0,0,1-4,.6,12.64,12.64,0,0,1-5-1A11,11,0,0,1,8,39.23,12.39,12.39,0,0,1,5.47,35a16.48,16.48,0,0,1-.87-5.52,16.4,16.4,0,0,1,1.05-6,12.55,12.55,0,0,1,3-4.53,12.7,12.7,0,0,1,4.7-2.85,18.53,18.53,0,0,1,6.22-1q6.24,0,9.71,3.48t3.3,9.66ZM24.22,27.38a4.72,4.72,0,0,0-.39-1.95,4.83,4.83,0,0,0-1.08-1.53,4.69,4.69,0,0,0-1.65-1,5.68,5.68,0,0,0-2-.36,5.51,5.51,0,0,0-4.38,1.86,7.5,7.5,0,0,0-1.62,5.1A6.63,6.63,0,0,0,14.47,34,4.93,4.93,0,0,0,18.4,35.6,5.41,5.41,0,0,0,22.48,34a6.64,6.64,0,0,0,1.68-4.5Z"/><path class="cls-1" d="M66.7,44.4a15,15,0,0,1-1,5.59,12,12,0,0,1-7.15,7,17.2,17.2,0,0,1-11.72-.12,12.77,12.77,0,0,1-4.61-3.12,14.49,14.49,0,0,1-3-4.82,17.69,17.69,0,0,1-1.06-6.27,22.39,22.39,0,0,1,1.28-7.38,38.19,38.19,0,0,1,3.32-7.11,50.41,50.41,0,0,1,4.59-6.53A60.9,60.9,0,0,1,52.55,16H62.69a62.47,62.47,0,0,0-7.44,8,64.33,64.33,0,0,0-6.06,9.3q.95-.54,1.71-.9a11.27,11.27,0,0,1,1.44-.57,8.08,8.08,0,0,1,1.38-.3,12.65,12.65,0,0,1,1.59-.09,11.2,11.2,0,0,1,4.61.93,10.35,10.35,0,0,1,3.58,2.67,12.74,12.74,0,0,1,2.35,4.09A15.23,15.23,0,0,1,66.7,44.4Zm-8,.16a5.92,5.92,0,0,0-1.42-4.18,4.92,4.92,0,0,0-3.8-1.54,8,8,0,0,0-5.58,2.35c-.11.6-.2,1.05-.24,1.35a9.26,9.26,0,0,0-.06,1.18,6.7,6.7,0,0,0,1.63,4.66,5.46,5.46,0,0,0,4.24,1.8,4.94,4.94,0,0,0,3.81-1.55A5.75,5.75,0,0,0,58.72,44.56Z"/></svg>