<svg id="Layer_1" data-name="Layer 1" xmlns="http://www.w3.org/2000/svg" viewBox="0 0 69.71 64.98"><defs><style>.cls-1{fill:#ffe8d9;stroke:#2d1606;stroke-miterlimit:10;}</style></defs><path class="cls-1" d="M17.67,54l.07-4.71c1.23-1.45,2.55-2.9,3.92-4.33l4.12-4.27q2-2.11,3.89-4.15A37.42,37.42,0,0,0,33,32.45a24.33,24.33,0,0,0,2.25-4.06A10.62,10.62,0,0,0,36,24.33a4.48,4.48,0,0,0-1.57-3.54,5.66,5.66,0,0,0-3.84-1.35,6.42,6.42,0,0,0-2.91.64,7.54,7.54,0,0,0-2.22,1.67A12.15,12.15,0,0,0,23.88,24a21.76,21.76,0,0,0-1.17,2.45L17,22.26c.39-.9.9-1.93,1.5-3.09a11.56,11.56,0,0,1,2.61-3.3,14.32,14.32,0,0,1,4.43-2.66,19,19,0,0,1,7-1.09,16.76,16.76,0,0,1,5.28.79,12.17,12.17,0,0,1,4.13,2.25,9.89,9.89,0,0,1,2.63,3.54,11.38,11.38,0,0,1,.92,4.65,15.79,15.79,0,0,1-1.77,7.13,37.8,37.8,0,0,1-4.29,6.64,52.2,52.2,0,0,1-5.28,5.65c-1.85,1.67-3.41,3.06-4.68,4.15H45.82V54Z"/></svg>