<svg id="Layer_1" data-name="Layer 1" xmlns="http://www.w3.org/2000/svg" viewBox="0 0 69.71 64.98"><defs><style>.cls-1{fill:#87786f;stroke:#2d1606;stroke-miterlimit:10;}</style></defs><path class="cls-1" d="M33.05,45a9.12,9.12,0,0,1-3.76,7.77q-3.76,2.8-10.47,2.8a22.81,22.81,0,0,1-6.24-.79,15.64,15.64,0,0,1-4.82-2.21,10.15,10.15,0,0,1-3.12-3.42,9.15,9.15,0,0,1-1.11-4.5,9.05,9.05,0,0,1,2-6,17,17,0,0,1,6.69-4.24q-2.46-1.53-4-2.68A11.08,11.08,0,0,1,6,29.42a6.65,6.65,0,0,1-1.11-2.35,12.7,12.7,0,0,1-.3-2.95A9.21,9.21,0,0,1,8,16.41q3.48-2.7,10.68-2.71a21.25,21.25,0,0,1,5.67.71,13.64,13.64,0,0,1,4.35,2,8.71,8.71,0,0,1,3.72,7.32,9.29,9.29,0,0,1-1.77,5.69A17.21,17.21,0,0,1,24.83,34a15,15,0,0,1,6.26,4.53A10.6,10.6,0,0,1,33.05,45Zm-8-.76a4.13,4.13,0,0,0-.48-2.06,4.7,4.7,0,0,0-1.41-1.52A12.72,12.72,0,0,0,21,39.43c-.86-.39-1.83-.78-2.91-1.19a12.15,12.15,0,0,0-4.38,2.24,4,4,0,0,0-1.26,3.06,4.27,4.27,0,0,0,1.8,3.64,8,8,0,0,0,4.86,1.32,7.34,7.34,0,0,0,4.38-1.16A3.61,3.61,0,0,0,25.07,44.25Zm-1.14-19A3.86,3.86,0,0,0,22.34,22a6.57,6.57,0,0,0-4.17-1.24,5.82,5.82,0,0,0-3.72,1.15A3.61,3.61,0,0,0,13,24.88Q13,28,18.77,30.5a9.08,9.08,0,0,0,4-2.27A4.49,4.49,0,0,0,23.93,25.22Z"/><path class="cls-1" d="M49.61,55.58H40.55l15.72-34.8H37.43V13.7H65.69v6.23Z"/></svg>