<svg id="Layer_1" data-name="Layer 1" xmlns="http://www.w3.org/2000/svg" viewBox="0 0 69.71 64.98"><defs><style>.cls-1{fill:#022749;}</style></defs><path class="cls-1" d="M31,33.93a9.23,9.23,0,0,1-2.84,7.23q-2.85,2.55-8,2.55a15,15,0,0,1-5.84-1.11,13.16,13.16,0,0,1-4.64-3.3L12.21,35q3.91,3.56,7.65,3.56a5.93,5.93,0,0,0,3.83-1.2,3.79,3.79,0,0,0,1.5-3.1,4.29,4.29,0,0,0-1.26-3.35,5.15,5.15,0,0,0-3.63-1.15,5.16,5.16,0,0,0-2.31.51,9.72,9.72,0,0,0-2.18,1.56L12,29.63,12.47,13h17.6l.05,5.19h-12l-.22,7.22L19,24.9c.32-.13.62-.24.92-.33a5.64,5.64,0,0,1,1-.17c.34,0,.73,0,1.16,0A9.52,9.52,0,0,1,25.7,25,8,8,0,0,1,28.54,27a9,9,0,0,1,1.84,3A11.18,11.18,0,0,1,31,33.93Z"/><path class="cls-1" d="M55.19,33.93a9.19,9.19,0,0,1-2.84,7.23c-1.9,1.7-4.55,2.55-8,2.55a15,15,0,0,1-5.85-1.11,13.12,13.12,0,0,1-4.63-3.3L36.36,35C39,37.33,41.53,38.52,44,38.52a6,6,0,0,0,3.83-1.2,3.8,3.8,0,0,0,1.49-3.1,4.32,4.32,0,0,0-1.25-3.35,6,6,0,0,0-5.94-.64A9.5,9.5,0,0,0,40,31.79l-3.78-2.16L36.63,13h17.6l0,5.19h-12L42,25.41l1.11-.51a9.29,9.29,0,0,1,.92-.33,5.64,5.64,0,0,1,1-.17c.34,0,.72,0,1.15,0a9.57,9.57,0,0,1,3.68.69A8.09,8.09,0,0,1,52.7,27a8.93,8.93,0,0,1,1.83,3A11.18,11.18,0,0,1,55.19,33.93Z"/></svg>