<svg id="Layer_1" data-name="Layer 1" xmlns="http://www.w3.org/2000/svg" viewBox="0 0 69.71 64.98"><defs><style>.cls-1{fill:#87786f;stroke:#2d1606;stroke-miterlimit:10;}</style></defs><path class="cls-1" d="M28.81,54.13H21.37V43.81H6V12.19h7.68v24.9h7.74V27h7.38V37.09h5.34v6.66H28.81Z"/><path class="cls-1" d="M67.63,32.47q0,11.45-3.94,16.55T52,54.13q-7.76,0-11.69-5.14T36.37,33.22q0-10.57,3.94-15.77T52,12.25Q67.63,12.25,67.63,32.47Zm-9.42.34c-.11-4.6-.64-7.89-1.57-9.86a4.72,4.72,0,0,0-4.58-3,5,5,0,0,0-4.64,3.21Q46,26.29,45.79,33.79,46,40,47.36,43.16a5,5,0,0,0,4.7,3.23,4.78,4.78,0,0,0,4.5-3.12C57.54,41.19,58.1,37.7,58.21,32.81Z"/></svg>