<svg id="Layer_1" data-name="Layer 1" xmlns="http://www.w3.org/2000/svg" viewBox="0 0 69.71 64.98"><defs><style>.cls-1{fill:#868687;}</style></defs><path class="cls-1" d="M12.71,49.21l0-3.46q1.37-1.59,2.88-3.17l3-3.13c1-1,1.95-2.05,2.86-3a29.87,29.87,0,0,0,2.39-3,16.81,16.81,0,0,0,1.65-3,7.65,7.65,0,0,0,.62-3A3.26,3.26,0,0,0,25,24.86a4.19,4.19,0,0,0-2.82-1,4.64,4.64,0,0,0-2.13.48,5.24,5.24,0,0,0-1.63,1.22,8.88,8.88,0,0,0-1.19,1.65,14.71,14.71,0,0,0-.86,1.8l-4.22-3.07c.29-.67.66-1.42,1.1-2.27a8.84,8.84,0,0,1,1.91-2.43,10.63,10.63,0,0,1,3.26-1.94,13.79,13.79,0,0,1,5.12-.8,12.29,12.29,0,0,1,3.88.58,8.68,8.68,0,0,1,3,1.65,7.14,7.14,0,0,1,1.92,2.59,8.34,8.34,0,0,1,.68,3.41A11.56,11.56,0,0,1,31.79,32a27.17,27.17,0,0,1-3.15,4.87A36.64,36.64,0,0,1,24.77,41q-2,1.85-3.43,3.05h12v5.19Z"/><path class="cls-1" d="M57.77,39.29a10.85,10.85,0,0,1-.73,4.1,8.83,8.83,0,0,1-2,3.11,9,9,0,0,1-3.19,2,11.86,11.86,0,0,1-4.2.71,11.67,11.67,0,0,1-4.39-.8,9.29,9.29,0,0,1-3.39-2.29,10.48,10.48,0,0,1-2.17-3.53,12.87,12.87,0,0,1-.78-4.6,16.26,16.26,0,0,1,.94-5.41,28,28,0,0,1,2.43-5.22,37.88,37.88,0,0,1,3.37-4.79,45.59,45.59,0,0,1,3.78-4.07h7.43a46.86,46.86,0,0,0-5.45,5.9,47.53,47.53,0,0,0-4.44,6.81c.46-.26.87-.48,1.25-.66a10.43,10.43,0,0,1,1-.42,6.85,6.85,0,0,1,1-.22,10.06,10.06,0,0,1,1.16-.06,8.11,8.11,0,0,1,3.38.69,7.33,7.33,0,0,1,2.63,2,9.41,9.41,0,0,1,1.73,3A11.34,11.34,0,0,1,57.77,39.29Zm-5.85.13a4.37,4.37,0,0,0-1-3.07,3.6,3.6,0,0,0-2.79-1.13A5.78,5.78,0,0,0,44,37c-.09.43-.15.76-.18,1a6.85,6.85,0,0,0,0,.87A4.89,4.89,0,0,0,45,42.21a4,4,0,0,0,3.11,1.32,3.61,3.61,0,0,0,2.8-1.13A4.24,4.24,0,0,0,51.92,39.42Z"/></svg>