<svg id="Layer_1" data-name="Layer 1" xmlns="http://www.w3.org/2000/svg" viewBox="0 0 69.71 64.98"><defs><style>.cls-1{fill:#ffe8d9;stroke:#2d1606;stroke-miterlimit:10;}</style></defs><path class="cls-1" d="M32,40.92q0,6.39-3.88,9.87T17.28,54.27a20.26,20.26,0,0,1-8-1.53A17.54,17.54,0,0,1,3,48.24l3.36-5.91q5.34,4.86,10.44,4.86A8.09,8.09,0,0,0,22,45.55a5.19,5.19,0,0,0,2-4.23,5.87,5.87,0,0,0-1.71-4.57,7.1,7.1,0,0,0-4.95-1.56,7.07,7.07,0,0,0-3.15.69,12.78,12.78,0,0,0-3,2.13L6.11,35.06l.6-22.67h24l.06,7.08H14.39l-.3,9.84c.58-.28,1.09-.51,1.51-.69a12.71,12.71,0,0,1,1.25-.45,6.72,6.72,0,0,1,1.32-.24c.46,0,1-.06,1.57-.06a13,13,0,0,1,5,.94,11,11,0,0,1,3.87,2.65,12.33,12.33,0,0,1,2.51,4.13A15.21,15.21,0,0,1,32,40.92Z"/><path class="cls-1" d="M50,54.27H41l15.72-34.8H37.85V12.39H66.11v6.23Z"/></svg>