<svg id="Layer_1" data-name="Layer 1" xmlns="http://www.w3.org/2000/svg" viewBox="0 0 69.71 64.98"><defs><style>.cls-1{fill:#868687;}</style></defs><path class="cls-1" d="M32.94,36.16a9.22,9.22,0,0,1-2.85,7.24Q27.26,46,22.12,46a14.94,14.94,0,0,1-5.84-1.12,12.82,12.82,0,0,1-4.64-3.3l2.46-4.34c2.61,2.38,5.17,3.56,7.66,3.56a5.89,5.89,0,0,0,3.83-1.2,3.78,3.78,0,0,0,1.49-3.1,4.29,4.29,0,0,0-1.25-3.35A5.23,5.23,0,0,0,22.2,32a5.16,5.16,0,0,0-2.31.51A9.5,9.5,0,0,0,17.71,34l-3.78-2.15.44-16.64H32l0,5.2H20l-.22,7.21,1.11-.5a7.29,7.29,0,0,1,.92-.33,4.8,4.8,0,0,1,1-.18c.34,0,.73,0,1.15,0a9.53,9.53,0,0,1,3.68.69,8.2,8.2,0,0,1,2.84,1.94,9,9,0,0,1,1.83,3A11.18,11.18,0,0,1,32.94,36.16Z"/><path class="cls-1" d="M36.94,46l0-3.46q1.37-1.59,2.89-3.17l3-3.13c1-1,1.95-2,2.86-3a28.65,28.65,0,0,0,2.4-3,16.81,16.81,0,0,0,1.65-3,7.68,7.68,0,0,0,.61-3,3.26,3.26,0,0,0-1.14-2.59,4.11,4.11,0,0,0-2.82-1,4.76,4.76,0,0,0-2.13.47,5.69,5.69,0,0,0-1.63,1.23A9.37,9.37,0,0,0,41.49,24a14.62,14.62,0,0,0-.85,1.8l-4.23-3.07c.3-.67.66-1.42,1.1-2.28A8.81,8.81,0,0,1,39.43,18,10.78,10.78,0,0,1,42.68,16a14.05,14.05,0,0,1,5.13-.8,12.58,12.58,0,0,1,3.88.58,8.82,8.82,0,0,1,3,1.66,7.16,7.16,0,0,1,1.93,2.59,8.3,8.3,0,0,1,.67,3.41A11.43,11.43,0,0,1,56,28.7a27.12,27.12,0,0,1-3.14,4.87A37.57,37.57,0,0,1,49,37.71q-2,1.84-3.44,3h12V46Z"/></svg>