<svg id="Layer_1" data-name="Layer 1" xmlns="http://www.w3.org/2000/svg" viewBox="0 0 69.71 64.98"><defs><style>.cls-1{fill:#b7b6b6;stroke:#040421;}</style></defs><path class="cls-1" d="M34,40.21a7.64,7.64,0,0,1-3.14,6.48C28.8,48.24,25.9,49,22.17,49A19.19,19.19,0,0,1,17,48.36a13.11,13.11,0,0,1-4-1.84,8.69,8.69,0,0,1-2.6-2.85,7.71,7.71,0,0,1-.92-3.75,7.57,7.57,0,0,1,1.67-5,14.12,14.12,0,0,1,5.58-3.54c-1.37-.85-2.47-1.59-3.3-2.23a9.39,9.39,0,0,1-1.93-1.89,5.4,5.4,0,0,1-.92-2,10.41,10.41,0,0,1-.25-2.46,7.63,7.63,0,0,1,2.9-6.42q2.89-2.27,8.9-2.26a17.33,17.33,0,0,1,4.72.59,11.26,11.26,0,0,1,3.63,1.67,7.24,7.24,0,0,1,3.1,6.1,7.71,7.71,0,0,1-1.48,4.74A14.41,14.41,0,0,1,27.18,31,12.47,12.47,0,0,1,32.4,34.8,8.91,8.91,0,0,1,34,40.21Zm-6.65-.63a3.57,3.57,0,0,0-.4-1.73,4,4,0,0,0-1.18-1.26,10.24,10.24,0,0,0-1.85-1c-.71-.33-1.52-.65-2.42-1a10.13,10.13,0,0,0-3.65,1.86A3.35,3.35,0,0,0,16.83,39a3.54,3.54,0,0,0,1.5,3,6.66,6.66,0,0,0,4.05,1.11,6.12,6.12,0,0,0,3.65-1A3,3,0,0,0,27.38,39.58Zm-.95-15.86a3.21,3.21,0,0,0-1.33-2.67,5.47,5.47,0,0,0-3.47-1,4.8,4.8,0,0,0-3.1,1,3,3,0,0,0-1.2,2.46q0,2.61,4.8,4.68a7.51,7.51,0,0,0,3.35-1.9A3.74,3.74,0,0,0,26.43,23.72Z"/><path class="cls-1" d="M60.28,37.9q0,5.33-3.23,8.22T48,49a17,17,0,0,1-6.64-1.27A14.81,14.81,0,0,1,36.08,44l2.8-4.93q4.44,4.05,8.7,4a6.76,6.76,0,0,0,4.35-1.37,4.32,4.32,0,0,0,1.7-3.52,4.88,4.88,0,0,0-1.43-3.81,5.89,5.89,0,0,0-4.12-1.3,6,6,0,0,0-2.63.57A10.8,10.8,0,0,0,43,35.47L38.68,33l.5-18.9h20l0,5.9H45.58l-.25,8.2c.48-.24.9-.43,1.26-.58a10.05,10.05,0,0,1,1-.37,5.37,5.37,0,0,1,1.1-.2c.38,0,.82-.05,1.31-.05a10.83,10.83,0,0,1,4.17.78A9.16,9.16,0,0,1,57.44,30a10.28,10.28,0,0,1,2.09,3.45A12.61,12.61,0,0,1,60.28,37.9Z"/></svg>