<svg id="Layer_1" data-name="Layer 1" xmlns="http://www.w3.org/2000/svg" viewBox="0 0 69.71 64.98"><defs><style>.cls-1{fill:#022749;}</style></defs><path class="cls-1" d="M31.63,38.48a7.51,7.51,0,0,1-.74,3.35,7.31,7.31,0,0,1-2.16,2.62,10.32,10.32,0,0,1-3.43,1.72,15.43,15.43,0,0,1-4.49.61,18.59,18.59,0,0,1-3.41-.28,11.88,11.88,0,0,1-2.84-.87,11,11,0,0,1-2.51-1.58,18.85,18.85,0,0,1-2.37-2.42l2.9-3.91q3.44,3.87,7.35,3.87a5.29,5.29,0,0,0,3.45-1,3.53,3.53,0,0,0,1.34-2.69A3.35,3.35,0,0,0,24.37,36a3.54,3.54,0,0,0-1.49-1.48,8.58,8.58,0,0,0-2.95-.86,23.21,23.21,0,0,0-4.67-.09v-5.2a31.92,31.92,0,0,0,4.43.05,7.57,7.57,0,0,0,2.72-.6,3,3,0,0,0,1.41-1.25,4,4,0,0,0,.42-1.92A3.18,3.18,0,0,0,23,22.18a5,5,0,0,0-3.16-.92,7.4,7.4,0,0,0-3.13.69,12.86,12.86,0,0,0-3.17,2.23L11,20q3.3-3.94,10.16-3.95a12.58,12.58,0,0,1,3.88.55,8.82,8.82,0,0,1,3,1.58,6.94,6.94,0,0,1,1.89,2.45,7.42,7.42,0,0,1,.66,3.22,6.73,6.73,0,0,1-1.27,4.24,10,10,0,0,1-4.23,2.83A8.26,8.26,0,0,1,30,33.42,7.35,7.35,0,0,1,31.63,38.48Z"/><path class="cls-1" d="M55.26,37a9.23,9.23,0,0,1-2.84,7.23q-2.85,2.55-8,2.55a14.83,14.83,0,0,1-5.84-1.12A12.91,12.91,0,0,1,34,42.36L36.43,38q3.91,3.57,7.65,3.57a5.93,5.93,0,0,0,3.83-1.2,3.8,3.8,0,0,0,1.5-3.1,4.3,4.3,0,0,0-1.26-3.36,5.2,5.2,0,0,0-3.63-1.14,5.29,5.29,0,0,0-2.31.5A9.24,9.24,0,0,0,40,34.86L36.25,32.7l.44-16.63h17.6l.05,5.19h-12l-.22,7.22q.65-.32,1.11-.51c.32-.13.62-.24.92-.33a4.8,4.8,0,0,1,1-.18c.35,0,.73,0,1.16,0a9.48,9.48,0,0,1,3.67.69,8.11,8.11,0,0,1,2.84,1.94,9,9,0,0,1,1.84,3A11.1,11.1,0,0,1,55.26,37Z"/></svg>