<svg id="Layer_1" data-name="Layer 1" xmlns="http://www.w3.org/2000/svg" viewBox="0 0 69.71 64.98"><defs><style>.cls-1{fill:#022749;}</style></defs><path class="cls-1" d="M31.51,38.48a7.65,7.65,0,0,1-.74,3.35,7.52,7.52,0,0,1-2.16,2.62,10.38,10.38,0,0,1-3.44,1.72,15.36,15.36,0,0,1-4.48.61,18.51,18.51,0,0,1-3.41-.28,11.74,11.74,0,0,1-2.84-.87,11,11,0,0,1-2.51-1.58,19.56,19.56,0,0,1-2.38-2.42l2.91-3.91q3.42,3.87,7.34,3.87a5.34,5.34,0,0,0,3.46-1,3.53,3.53,0,0,0,1.34-2.69A3.43,3.43,0,0,0,24.25,36a3.51,3.51,0,0,0-1.5-1.48,8.44,8.44,0,0,0-2.95-.86,23.11,23.11,0,0,0-4.66-.09v-5.2a31.78,31.78,0,0,0,4.42.05,7.58,7.58,0,0,0,2.73-.6,3,3,0,0,0,1.41-1.25,4,4,0,0,0,.42-1.92,3.21,3.21,0,0,0-1.28-2.44,5.06,5.06,0,0,0-3.17-.92,7.38,7.38,0,0,0-3.12.69,12.86,12.86,0,0,0-3.17,2.23L10.92,20q3.3-3.94,10.16-3.95a12.63,12.63,0,0,1,3.88.55,8.82,8.82,0,0,1,3,1.58,6.94,6.94,0,0,1,1.89,2.45,7.56,7.56,0,0,1,.66,3.22,6.67,6.67,0,0,1-1.28,4.24A10,10,0,0,1,25,30.94a8.29,8.29,0,0,1,4.87,2.48A7.35,7.35,0,0,1,31.51,38.48Z"/><path class="cls-1" d="M55.66,38.48a7.51,7.51,0,0,1-.74,3.35,7.38,7.38,0,0,1-2.15,2.62,10.47,10.47,0,0,1-3.44,1.72,15.43,15.43,0,0,1-4.49.61,18.59,18.59,0,0,1-3.41-.28,11.88,11.88,0,0,1-2.84-.87,11.21,11.21,0,0,1-2.51-1.58,18.85,18.85,0,0,1-2.37-2.42l2.9-3.91Q40,41.59,44,41.59a5.29,5.29,0,0,0,3.45-1,3.91,3.91,0,0,0,1-4.6,3.62,3.62,0,0,0-1.5-1.48A8.58,8.58,0,0,0,44,33.63a23.13,23.13,0,0,0-4.66-.09v-5.2a31.78,31.78,0,0,0,4.42.05,7.58,7.58,0,0,0,2.73-.6,3,3,0,0,0,1.41-1.25,4.13,4.13,0,0,0,.41-1.92A3.2,3.2,0,0,0,47,22.18a5.08,5.08,0,0,0-3.17-.92A7.4,7.4,0,0,0,40.7,22a12.83,12.83,0,0,0-3.16,2.23L35.07,20q3.3-3.94,10.17-3.95a12.67,12.67,0,0,1,3.88.55,8.92,8.92,0,0,1,3,1.58A6.94,6.94,0,0,1,54,20.65a7.56,7.56,0,0,1,.66,3.22,6.73,6.73,0,0,1-1.28,4.24,10.06,10.06,0,0,1-4.22,2.83A8.32,8.32,0,0,1,54,33.42,7.35,7.35,0,0,1,55.66,38.48Z"/></svg>