<svg id="Layer_1" data-name="Layer 1" xmlns="http://www.w3.org/2000/svg" viewBox="0 0 69.71 64.98"><defs><style>.cls-1{fill:#868687;}</style></defs><path class="cls-1" d="M18.29,45.67v-24c-.58.68-1.14,1.29-1.67,1.83l-1.71,1.74-2.91-4c.88-.76,1.73-1.52,2.55-2.29s1.43-1.33,2.16-2.06a24.49,24.49,0,0,0,1.81-2h5.63V45.67Z"/><path class="cls-1" d="M54.29,37.92a6.68,6.68,0,0,1-2.76,5.7q-2.76,2.06-7.68,2.05a16.73,16.73,0,0,1-4.58-.58,11.37,11.37,0,0,1-3.53-1.61A7.58,7.58,0,0,1,33.45,41a6.75,6.75,0,0,1-.81-3.3,6.64,6.64,0,0,1,1.47-4.44A12.33,12.33,0,0,1,39,30.12c-1.21-.75-2.17-1.4-2.91-2a8.63,8.63,0,0,1-1.69-1.67,4.82,4.82,0,0,1-.82-1.73,9.6,9.6,0,0,1-.21-2.15A6.75,6.75,0,0,1,35.94,17q2.55-2,7.83-2a15.43,15.43,0,0,1,4.16.52A10.21,10.21,0,0,1,51.12,17a6.57,6.57,0,0,1,2,2.32,6.5,6.5,0,0,1,.71,3.05,6.85,6.85,0,0,1-1.3,4.17,12.71,12.71,0,0,1-4.29,3.35,11.05,11.05,0,0,1,4.59,3.32A7.8,7.8,0,0,1,54.29,37.92Zm-5.86-.55a3,3,0,0,0-.35-1.52,3.37,3.37,0,0,0-1-1.11,9.18,9.18,0,0,0-1.63-.91q-.95-.44-2.13-.87a9,9,0,0,0-3.22,1.64,3,3,0,0,0-.92,2.24,3.14,3.14,0,0,0,1.32,2.67,5.87,5.87,0,0,0,3.56,1,5.44,5.44,0,0,0,3.22-.85A2.64,2.64,0,0,0,48.43,37.37Zm-.83-14a2.84,2.84,0,0,0-1.17-2.35,4.88,4.88,0,0,0-3.06-.91,4.23,4.23,0,0,0-2.72.85,2.63,2.63,0,0,0-1.06,2.16q0,2.31,4.22,4.12a6.54,6.54,0,0,0,2.95-1.67A3.26,3.26,0,0,0,47.6,23.41Z"/></svg>