<svg id="Layer_1" data-name="Layer 1" xmlns="http://www.w3.org/2000/svg" viewBox="0 0 69.71 64.98"><defs><style>.cls-1{fill:#ffe8d9;stroke:#2d1606;stroke-miterlimit:10;}</style></defs><path class="cls-1" d="M4.55,53.08l.06-4.71q1.86-2.17,3.93-4.32l4.11-4.27c1.36-1.41,2.66-2.8,3.9-4.15a38,38,0,0,0,3.27-4.09,23,23,0,0,0,2.25-4.07,10.36,10.36,0,0,0,.84-4.06,4.45,4.45,0,0,0-1.56-3.53,5.67,5.67,0,0,0-3.84-1.36,6.42,6.42,0,0,0-2.91.65,7.51,7.51,0,0,0-2.22,1.66,12.15,12.15,0,0,0-1.62,2.25,19.58,19.58,0,0,0-1.17,2.46L3.83,21.35c.4-.9.9-1.94,1.5-3.1A11.92,11.92,0,0,1,7.94,15a14.36,14.36,0,0,1,4.44-2.65,19,19,0,0,1,7-1.1,17.11,17.11,0,0,1,5.29.79,12.06,12.06,0,0,1,4.12,2.26,9.77,9.77,0,0,1,2.63,3.53,11.45,11.45,0,0,1,.92,4.65,15.7,15.7,0,0,1-1.77,7.14,37.59,37.59,0,0,1-4.29,6.64A50.17,50.17,0,0,1,21,41.85Q18.23,44.37,16.31,46H32.69v7.08Z"/><path class="cls-1" d="M50,53.08H41l15.72-34.8H37.85V11.2H66.11v6.23Z"/></svg>