<svg id="Layer_1" data-name="Layer 1" xmlns="http://www.w3.org/2000/svg" viewBox="0 0 69.71 64.98"><defs><style>.cls-1{fill:#022749;}</style></defs><path class="cls-1" d="M43.25,38.45a10.89,10.89,0,0,1-.73,4.1,8.82,8.82,0,0,1-5.24,5.11,11.86,11.86,0,0,1-4.2.71,11.67,11.67,0,0,1-4.39-.8,9.38,9.38,0,0,1-3.38-2.29,10.5,10.5,0,0,1-2.18-3.53,12.87,12.87,0,0,1-.78-4.6,16.52,16.52,0,0,1,.94-5.41,28,28,0,0,1,2.43-5.22,38.93,38.93,0,0,1,3.37-4.79,47.18,47.18,0,0,1,3.78-4.08h7.44a45.51,45.51,0,0,0-5.45,5.91,47.6,47.6,0,0,0-4.45,6.81c.46-.26.88-.48,1.25-.66a8.6,8.6,0,0,1,1.06-.42,6.72,6.72,0,0,1,1-.22A10.06,10.06,0,0,1,34.89,29a8.31,8.31,0,0,1,3.39.68,7.56,7.56,0,0,1,2.63,2,9.38,9.38,0,0,1,1.72,3A11.1,11.1,0,0,1,43.25,38.45Zm-5.85.12a4.35,4.35,0,0,0-1-3.06,3.61,3.61,0,0,0-2.79-1.14,5.82,5.82,0,0,0-4.09,1.73c-.09.44-.15.77-.17,1a6.58,6.58,0,0,0,0,.87,4.89,4.89,0,0,0,1.19,3.41,4,4,0,0,0,3.12,1.32,3.64,3.64,0,0,0,2.79-1.13A4.27,4.27,0,0,0,37.4,38.57Z"/></svg>