<svg id="Layer_1" data-name="Layer 1" xmlns="http://www.w3.org/2000/svg" viewBox="0 0 69.71 64.98"><defs><style>.cls-1{fill:#868687;}</style></defs><path class="cls-1" d="M33.64,40.73a7.36,7.36,0,0,1-2.89,6,10.66,10.66,0,0,1-3.44,1.71,15.43,15.43,0,0,1-4.49.61,19.57,19.57,0,0,1-3.41-.27,12.35,12.35,0,0,1-2.84-.87,11.26,11.26,0,0,1-2.51-1.59,18.73,18.73,0,0,1-2.37-2.41L14.59,40q3.43,3.87,7.35,3.87a5.35,5.35,0,0,0,3.45-1,3.92,3.92,0,0,0,1-4.61,3.66,3.66,0,0,0-1.5-1.47,8.49,8.49,0,0,0-2.95-.87,23.11,23.11,0,0,0-4.66-.09V30.6a33.42,33.42,0,0,0,4.42,0,8,8,0,0,0,2.73-.6,2.94,2.94,0,0,0,1.4-1.25,4,4,0,0,0,.42-1.93A3.17,3.17,0,0,0,25,24.44a5,5,0,0,0-3.17-.92,7.17,7.17,0,0,0-3.12.69,12.42,12.42,0,0,0-3.17,2.23l-2.47-4.17q3.3-3.94,10.17-3.95a12.66,12.66,0,0,1,3.88.56,8.9,8.9,0,0,1,3,1.57A7,7,0,0,1,32,22.9a7.63,7.63,0,0,1,.66,3.22,6.71,6.71,0,0,1-1.28,4.24,10,10,0,0,1-4.22,2.83A8.38,8.38,0,0,1,32,35.67,7.38,7.38,0,0,1,33.64,40.73Z"/><path class="cls-1" d="M54.76,49H49.31V41.47H38V18.28h5.63V36.54h5.68V29.1h5.41v7.44h3.92v4.88H54.76Z"/></svg>