<svg id="Layer_1" data-name="Layer 1" xmlns="http://www.w3.org/2000/svg" viewBox="0 0 69.71 64.98"><defs><style>.cls-1{fill:#b7b6b6;stroke:#040421;}</style></defs><path class="cls-1" d="M26.38,48.89h-6.2v-8.6H7.33V13.94h6.4V34.69h6.45V26.24h6.15v8.45h4.45v5.55h-4.4Z"/><path class="cls-1" d="M33.78,48.89l0-3.92q1.55-1.81,3.27-3.61l3.43-3.55c1.13-1.18,2.21-2.34,3.25-3.46a31.46,31.46,0,0,0,2.72-3.41,19.25,19.25,0,0,0,1.88-3.39,8.79,8.79,0,0,0,.7-3.39,3.74,3.74,0,0,0-1.3-2.94,4.74,4.74,0,0,0-3.2-1.13,5.36,5.36,0,0,0-2.43.54A6.38,6.38,0,0,0,40.3,22,11,11,0,0,0,39,23.89a15.82,15.82,0,0,0-1,2.05l-4.8-3.49c.33-.76.75-1.62,1.25-2.58a10,10,0,0,1,2.17-2.76,12.39,12.39,0,0,1,3.7-2.21A16,16,0,0,1,46.13,14a14.07,14.07,0,0,1,4.41.66A10.14,10.14,0,0,1,54,16.53a8.11,8.11,0,0,1,2.19,2.95,9.45,9.45,0,0,1,.77,3.87,13,13,0,0,1-1.48,5.95,31,31,0,0,1-3.57,5.53,41.4,41.4,0,0,1-4.4,4.7q-2.31,2.1-3.9,3.46H57.23v5.9Z"/></svg>