<svg id="Layer_1" data-name="Layer 1" xmlns="http://www.w3.org/2000/svg" viewBox="0 0 69.71 64.98"><defs><style>.cls-1{fill:#fff;stroke:#040421;}</style></defs><path class="cls-1" d="M30.65,39.43a12.32,12.32,0,0,1-.83,4.66,10,10,0,0,1-5.95,5.8,13.33,13.33,0,0,1-4.77.81,13.17,13.17,0,0,1-5-.91,10.58,10.58,0,0,1-3.84-2.6,11.9,11.9,0,0,1-2.48-4A14.8,14.8,0,0,1,6.9,38,18.61,18.61,0,0,1,8,31.8a32.15,32.15,0,0,1,2.76-5.93,42.94,42.94,0,0,1,3.83-5.44,51.17,51.17,0,0,1,4.3-4.63H27.3a53.18,53.18,0,0,0-6.19,6.7,54.36,54.36,0,0,0-5.05,7.75c.52-.3,1-.55,1.42-.75a9.37,9.37,0,0,1,1.2-.48,7.35,7.35,0,0,1,1.15-.25,10.52,10.52,0,0,1,1.32-.07,9.3,9.3,0,0,1,3.85.78,8.47,8.47,0,0,1,3,2.22,10.5,10.5,0,0,1,2,3.41A12.55,12.55,0,0,1,30.65,39.43ZM24,39.57a5,5,0,0,0-1.18-3.49,4.13,4.13,0,0,0-3.17-1.28,6.62,6.62,0,0,0-4.65,2c-.1.5-.16.88-.2,1.12a8.5,8.5,0,0,0-.05,1,5.53,5.53,0,0,0,1.36,3.88,4.53,4.53,0,0,0,3.53,1.5A4.11,4.11,0,0,0,22.82,43,4.81,4.81,0,0,0,24,39.57Z"/><path class="cls-1" d="M58.1,39.43a12.52,12.52,0,0,1-.83,4.66,10,10,0,0,1-6,5.8,13.33,13.33,0,0,1-4.77.81,13.17,13.17,0,0,1-5-.91,10.58,10.58,0,0,1-3.84-2.6,11.9,11.9,0,0,1-2.48-4A14.8,14.8,0,0,1,34.35,38a18.85,18.85,0,0,1,1.06-6.15,32.86,32.86,0,0,1,2.77-5.93A42.94,42.94,0,0,1,42,20.43a51.17,51.17,0,0,1,4.3-4.63h8.44a53.18,53.18,0,0,0-6.19,6.7,54.36,54.36,0,0,0-5.05,7.75c.52-.3,1-.55,1.42-.75a9.37,9.37,0,0,1,1.2-.48,7.35,7.35,0,0,1,1.15-.25,10.52,10.52,0,0,1,1.32-.07,9.3,9.3,0,0,1,3.85.78,8.47,8.47,0,0,1,3,2.22,10.5,10.5,0,0,1,2,3.41A12.55,12.55,0,0,1,58.1,39.43Zm-6.65.14a5,5,0,0,0-1.18-3.49A4.13,4.13,0,0,0,47.1,34.8a6.62,6.62,0,0,0-4.65,2c-.1.5-.16.88-.2,1.12a8.5,8.5,0,0,0,0,1,5.53,5.53,0,0,0,1.36,3.88,4.53,4.53,0,0,0,3.53,1.5A4.11,4.11,0,0,0,50.27,43,4.81,4.81,0,0,0,51.45,39.57Z"/></svg>