<svg id="Layer_1" data-name="Layer 1" xmlns="http://www.w3.org/2000/svg" viewBox="0 0 69.71 64.98"><defs><style>.cls-1{fill:#ffe8d9;stroke:#2d1606;stroke-miterlimit:10;}</style></defs><path class="cls-1" d="M17.5,52.48V19.77q-1.2,1.38-2.28,2.49t-2.34,2.37l-4-5.4q1.8-1.56,3.48-3.11,1.44-1.32,2.94-2.82a36,36,0,0,0,2.47-2.7h7.67V52.48Z"/><path class="cls-1" d="M37.66,52.48l.06-4.71q1.86-2.18,3.93-4.32l4.11-4.27q2-2.13,3.9-4.15a37.14,37.14,0,0,0,3.27-4.1,22.63,22.63,0,0,0,2.25-4.06A10.4,10.4,0,0,0,56,22.81a4.45,4.45,0,0,0-1.56-3.53,5.62,5.62,0,0,0-3.84-1.36,6.42,6.42,0,0,0-2.91.65,7.34,7.34,0,0,0-2.22,1.66,12.15,12.15,0,0,0-1.62,2.25,19.58,19.58,0,0,0-1.17,2.46l-5.76-4.19c.4-.91.9-1.94,1.5-3.1a11.92,11.92,0,0,1,2.61-3.3,14.57,14.57,0,0,1,4.44-2.66,19.2,19.2,0,0,1,7-1.09,17.11,17.11,0,0,1,5.29.79,12.12,12.12,0,0,1,4.12,2.25,9.89,9.89,0,0,1,2.63,3.54,11.45,11.45,0,0,1,.92,4.65A15.7,15.7,0,0,1,63.67,29a37.59,37.59,0,0,1-4.29,6.64,51,51,0,0,1-5.28,5.64q-2.76,2.52-4.68,4.15H65.8v7.08Z"/></svg>