<svg id="Layer_1" data-name="Layer 1" xmlns="http://www.w3.org/2000/svg" viewBox="0 0 69.71 64.98"><defs><style>.cls-1{fill:#868687;}</style></defs><path class="cls-1" d="M33.81,40.71a7.62,7.62,0,0,1-.74,3.35,7.52,7.52,0,0,1-2.16,2.62,10.38,10.38,0,0,1-3.44,1.72A15.38,15.38,0,0,1,23,49a19.45,19.45,0,0,1-3.4-.27,12.22,12.22,0,0,1-2.84-.88,10.66,10.66,0,0,1-2.51-1.58,18.77,18.77,0,0,1-2.38-2.41L14.76,40q3.42,3.87,7.34,3.87a5.34,5.34,0,0,0,3.46-1,3.55,3.55,0,0,0,1.34-2.69,3.45,3.45,0,0,0-.35-1.91,3.49,3.49,0,0,0-1.5-1.47,8.42,8.42,0,0,0-2.95-.87,23.11,23.11,0,0,0-4.66-.09V30.58a33.17,33.17,0,0,0,4.42,0,7.58,7.58,0,0,0,2.73-.6A3,3,0,0,0,26,28.78a4,4,0,0,0,.42-1.93,3.21,3.21,0,0,0-1.28-2.44A5.06,5.06,0,0,0,22,23.49a7.35,7.35,0,0,0-3.12.69,12.86,12.86,0,0,0-3.17,2.23l-2.46-4.16q3.3-3.94,10.16-3.95a12.94,12.94,0,0,1,3.88.55,8.82,8.82,0,0,1,3,1.58,6.94,6.94,0,0,1,1.89,2.45,7.6,7.6,0,0,1,.66,3.22,6.71,6.71,0,0,1-1.27,4.24,10,10,0,0,1-4.23,2.83,8.29,8.29,0,0,1,4.87,2.48A7.37,7.37,0,0,1,33.81,40.71Z"/><path class="cls-1" d="M57.44,39.23a9.2,9.2,0,0,1-2.85,7.23Q51.76,49,46.62,49a15,15,0,0,1-5.84-1.11,13.06,13.06,0,0,1-4.64-3.31l2.46-4.33c2.61,2.37,5.17,3.56,7.66,3.56a6,6,0,0,0,3.83-1.2,3.8,3.8,0,0,0,1.5-3.1,4.29,4.29,0,0,0-1.26-3.35,6,6,0,0,0-5.94-.64,8.92,8.92,0,0,0-2.18,1.56l-3.78-2.16.44-16.63h17.6l0,5.19h-12l-.22,7.22c.43-.21.8-.37,1.11-.51a9.29,9.29,0,0,1,.92-.33,5.64,5.64,0,0,1,1-.17c.34,0,.73-.05,1.15-.05a9.53,9.53,0,0,1,3.68.69,8.09,8.09,0,0,1,2.84,1.95,8.84,8.84,0,0,1,1.83,3A10.92,10.92,0,0,1,57.44,39.23Z"/></svg>