<svg id="Layer_1" data-name="Layer 1" xmlns="http://www.w3.org/2000/svg" viewBox="0 0 69.71 64.98"><defs><style>.cls-1{fill:#ffe8d9;stroke:#2d1606;stroke-miterlimit:10;}</style></defs><path class="cls-1" d="M17.32,54.29V21.58Q16.12,23,15,24.07T12.7,26.44l-4-5.4q1.8-1.56,3.48-3.12c1-.87,1.94-1.81,2.94-2.81a36,36,0,0,0,2.47-2.7H25.3V54.29Z"/><path class="cls-1" d="M66.4,43.73a9.17,9.17,0,0,1-3.76,7.77q-3.77,2.79-10.47,2.79a22.89,22.89,0,0,1-6.25-.79,15.58,15.58,0,0,1-4.81-2.21A10.15,10.15,0,0,1,38,47.87a9.14,9.14,0,0,1-1.11-4.49,9.08,9.08,0,0,1,2-6.06,17,17,0,0,1,6.69-4.24q-2.46-1.53-4-2.68a11.31,11.31,0,0,1-2.31-2.26,6.7,6.7,0,0,1-1.11-2.36,12.61,12.61,0,0,1-.3-2.94,9.21,9.21,0,0,1,3.48-7.72q3.48-2.7,10.68-2.71a21.25,21.25,0,0,1,5.67.71,13.44,13.44,0,0,1,4.35,2,8.83,8.83,0,0,1,2.76,3.15,8.94,8.94,0,0,1,1,4.16A9.29,9.29,0,0,1,64,28.13a17.34,17.34,0,0,1-5.85,4.58,14.86,14.86,0,0,1,6.26,4.52A10.61,10.61,0,0,1,66.4,43.73Zm-8-.77a4.16,4.16,0,0,0-.48-2.06,4.7,4.7,0,0,0-1.41-1.52,13.4,13.4,0,0,0-2.22-1.24c-.86-.39-1.83-.78-2.91-1.19A12.31,12.31,0,0,0,47,39.19a4,4,0,0,0-1.26,3.06,4.27,4.27,0,0,0,1.8,3.64,8,8,0,0,0,4.86,1.32,7.34,7.34,0,0,0,4.38-1.16A3.61,3.61,0,0,0,58.42,43Zm-1.14-19a3.86,3.86,0,0,0-1.59-3.2,6.57,6.57,0,0,0-4.17-1.24,5.82,5.82,0,0,0-3.72,1.15,3.63,3.63,0,0,0-1.44,2.95q0,3.15,5.76,5.62a9,9,0,0,0,4-2.27A4.49,4.49,0,0,0,57.28,23.93Z"/></svg>