<svg id="Layer_1" data-name="Layer 1" xmlns="http://www.w3.org/2000/svg" viewBox="0 0 69.71 64.98"><defs><style>.cls-1{fill:#87786f;stroke:#2d1606;stroke-miterlimit:10;}</style></defs><path class="cls-1" d="M33.14,40.92q0,6.39-3.88,9.87T18.39,54.27a20.26,20.26,0,0,1-8-1.53,17.54,17.54,0,0,1-6.32-4.5l3.36-5.91q5.34,4.86,10.44,4.86a8.09,8.09,0,0,0,5.22-1.64,5.19,5.19,0,0,0,2-4.23,5.87,5.87,0,0,0-1.71-4.57,7.1,7.1,0,0,0-4.95-1.56,7.07,7.07,0,0,0-3.15.69,12.78,12.78,0,0,0-3,2.13L7.22,35.06l.6-22.67h24l.06,7.08H15.5l-.3,9.84c.58-.28,1.08-.51,1.51-.69A12.71,12.71,0,0,1,18,28.17a6.76,6.76,0,0,1,1.31-.24c.47,0,1-.06,1.58-.06a13,13,0,0,1,5,.94,11,11,0,0,1,3.87,2.65,12.15,12.15,0,0,1,2.5,4.13A15,15,0,0,1,33.14,40.92Z"/><path class="cls-1" d="M51.38,54.27V21.55Q50.18,22.93,49.1,24t-2.34,2.37l-4-5.4c1.2-1,2.36-2.07,3.48-3.11q1.44-1.32,2.94-2.82c1-1,1.82-1.9,2.47-2.69h7.67V54.27Z"/></svg>