<svg id="Layer_1" data-name="Layer 1" xmlns="http://www.w3.org/2000/svg" viewBox="0 0 69.71 64.98"><defs><style>.cls-1{fill:#868687;}</style></defs><path class="cls-1" d="M31.78,40.71A7.62,7.62,0,0,1,31,44.06a7.52,7.52,0,0,1-2.16,2.62,10.38,10.38,0,0,1-3.44,1.72A15.36,15.36,0,0,1,21,49a19.49,19.49,0,0,1-3.41-.27,12.22,12.22,0,0,1-2.84-.88,10.66,10.66,0,0,1-2.51-1.58,19.44,19.44,0,0,1-2.38-2.41L12.73,40c2.29,2.58,4.73,3.87,7.35,3.87a5.33,5.33,0,0,0,3.45-1,3.52,3.52,0,0,0,1.34-2.69,3.45,3.45,0,0,0-.35-1.91A3.49,3.49,0,0,0,23,36.73a8.43,8.43,0,0,0-2.94-.87,23.24,23.24,0,0,0-4.67-.09V30.58a33.17,33.17,0,0,0,4.42,0,7.58,7.58,0,0,0,2.73-.6A3,3,0,0,0,24,28.78a4,4,0,0,0,.42-1.93,3.21,3.21,0,0,0-1.28-2.44,5.06,5.06,0,0,0-3.17-.92,7.38,7.38,0,0,0-3.12.69,12.86,12.86,0,0,0-3.17,2.23l-2.46-4.16q3.3-3.94,10.16-3.95a12.94,12.94,0,0,1,3.88.55,8.82,8.82,0,0,1,3,1.58,6.94,6.94,0,0,1,1.89,2.45,7.6,7.6,0,0,1,.66,3.22,6.71,6.71,0,0,1-1.27,4.24,9.94,9.94,0,0,1-4.23,2.83,8.29,8.29,0,0,1,4.87,2.48A7.37,7.37,0,0,1,31.78,40.71Z"/><path class="cls-1" d="M56.46,41.26A6.7,6.7,0,0,1,53.7,47Q51,49,46,49a16.73,16.73,0,0,1-4.58-.58,11.15,11.15,0,0,1-3.53-1.62,7.36,7.36,0,0,1-2.29-2.5,6.78,6.78,0,0,1-.81-3.3,6.64,6.64,0,0,1,1.47-4.44,12.33,12.33,0,0,1,4.91-3.11,33.93,33.93,0,0,1-2.91-2,8.09,8.09,0,0,1-1.69-1.66,4.9,4.9,0,0,1-.82-1.73,9.58,9.58,0,0,1-.22-2.16,6.72,6.72,0,0,1,2.56-5.65q2.55-2,7.83-2a15.43,15.43,0,0,1,4.16.52,10.32,10.32,0,0,1,3.19,1.47,6.67,6.67,0,0,1,2,2.32,6.5,6.5,0,0,1,.7,3.05,6.85,6.85,0,0,1-1.29,4.17,12.71,12.71,0,0,1-4.29,3.35A11,11,0,0,1,55,36.5,7.79,7.79,0,0,1,56.46,41.26Zm-5.85-.55a3.1,3.1,0,0,0-.35-1.52,3.48,3.48,0,0,0-1-1.11,9.18,9.18,0,0,0-1.63-.91c-.63-.29-1.35-.58-2.14-.87a9.22,9.22,0,0,0-3.21,1.63,3,3,0,0,0-.92,2.25,3.14,3.14,0,0,0,1.32,2.67,5.87,5.87,0,0,0,3.56,1A5.38,5.38,0,0,0,49.42,43,2.62,2.62,0,0,0,50.61,40.71Zm-.83-14a2.84,2.84,0,0,0-1.17-2.35,4.88,4.88,0,0,0-3.06-.91,4.22,4.22,0,0,0-2.73.85,2.64,2.64,0,0,0-1,2.16c0,1.54,1.4,2.91,4.22,4.12A6.63,6.63,0,0,0,48.94,29,3.26,3.26,0,0,0,49.78,26.75Z"/></svg>