<svg id="Layer_1" data-name="Layer 1" xmlns="http://www.w3.org/2000/svg" viewBox="0 0 69.71 64.98"><defs><style>.cls-1{fill:#022749;}</style></defs><path class="cls-1" d="M27.52,46.36H22.06V38.79H10.75V15.6h5.64V33.86h5.67V26.43h5.41v7.43h3.92v4.89H27.52Z"/><path class="cls-1" d="M54.18,36.57a9.23,9.23,0,0,1-2.84,7.24q-2.85,2.55-8,2.55a14.84,14.84,0,0,1-5.85-1.12,12.87,12.87,0,0,1-4.63-3.3l2.46-4.34q3.91,3.57,7.66,3.57A5.85,5.85,0,0,0,46.83,40a3.79,3.79,0,0,0,1.5-3.1,4.32,4.32,0,0,0-1.25-3.35,5.23,5.23,0,0,0-3.63-1.14,5.09,5.09,0,0,0-2.31.5A9.5,9.5,0,0,0,39,34.43l-3.79-2.15.44-16.63h17.6l0,5.19h-12L41,28.05c.42-.2.79-.37,1.11-.5a9.29,9.29,0,0,1,.92-.33A4.55,4.55,0,0,1,44,27c.34,0,.72,0,1.15,0a9.48,9.48,0,0,1,3.67.69,8.11,8.11,0,0,1,2.84,1.94,8.89,8.89,0,0,1,1.84,3A11.18,11.18,0,0,1,54.18,36.57Z"/></svg>