<svg id="Layer_1" data-name="Layer 1" xmlns="http://www.w3.org/2000/svg" viewBox="0 0 69.71 64.98"><defs><style>.cls-1{fill:#868687;}</style></defs><path class="cls-1" d="M27.67,48.59H22.21V41H10.9V17.83h5.63V36.09h5.68V28.66h5.41v7.43h3.92V41H27.67Z"/><path class="cls-1" d="M55.39,40.84a6.71,6.71,0,0,1-2.76,5.7Q49.87,48.6,45,48.59A16.73,16.73,0,0,1,40.37,48a11.61,11.61,0,0,1-3.53-1.62,7.49,7.49,0,0,1-2.29-2.51,6.71,6.71,0,0,1-.81-3.29,6.64,6.64,0,0,1,1.47-4.44A12.33,12.33,0,0,1,40.12,33c-1.21-.75-2.17-1.41-2.91-2a8.34,8.34,0,0,1-1.69-1.66,4.9,4.9,0,0,1-.82-1.73,9.63,9.63,0,0,1-.21-2.16A6.76,6.76,0,0,1,37,19.86q2.55-2,7.83-2A15.43,15.43,0,0,1,49,18.4a9.78,9.78,0,0,1,3.19,1.47,6.46,6.46,0,0,1,2,2.31,6.55,6.55,0,0,1,.7,3.05,6.86,6.86,0,0,1-1.29,4.18,12.84,12.84,0,0,1-4.29,3.35A11,11,0,0,1,54,36.08,7.76,7.76,0,0,1,55.39,40.84Zm-5.86-.56a3,3,0,0,0-.35-1.51,3.5,3.5,0,0,0-1-1.12,10.64,10.64,0,0,0-1.63-.91q-.95-.42-2.13-.87a9.18,9.18,0,0,0-3.22,1.64,3,3,0,0,0-.92,2.25,3.14,3.14,0,0,0,1.32,2.67,5.87,5.87,0,0,0,3.56,1,5.44,5.44,0,0,0,3.22-.85A2.65,2.65,0,0,0,49.53,40.28Zm-.83-14A2.82,2.82,0,0,0,47.53,24a4.82,4.82,0,0,0-3.06-.91,4.17,4.17,0,0,0-2.72.85,2.63,2.63,0,0,0-1.06,2.16q0,2.31,4.22,4.12a6.63,6.63,0,0,0,3-1.67A3.28,3.28,0,0,0,48.7,26.33Z"/></svg>