<svg id="Layer_1" data-name="Layer 1" xmlns="http://www.w3.org/2000/svg" viewBox="0 0 69.71 64.98"><defs><style>.cls-1{fill:#87786f;stroke:#2d1606;stroke-miterlimit:10;}</style></defs><path class="cls-1" d="M4.12,53.22l.06-4.71c1.24-1.45,2.55-2.9,3.93-4.33l4.11-4.27c1.36-1.41,2.66-2.8,3.9-4.15a37.06,37.06,0,0,0,3.27-4.09,23,23,0,0,0,2.25-4.06,10.45,10.45,0,0,0,.84-4.07A4.45,4.45,0,0,0,20.92,20a5.66,5.66,0,0,0-3.84-1.35,6.42,6.42,0,0,0-2.91.64A7.37,7.37,0,0,0,12,21a12.15,12.15,0,0,0-1.62,2.25,18.83,18.83,0,0,0-1.17,2.45L3.4,21.48q.6-1.35,1.5-3.09a12.1,12.1,0,0,1,2.61-3.31A14.56,14.56,0,0,1,12,12.43a19,19,0,0,1,7-1.09,16.78,16.78,0,0,1,5.29.79,11.92,11.92,0,0,1,4.13,2.25A9.83,9.83,0,0,1,31,17.92a11.38,11.38,0,0,1,.91,4.65,15.69,15.69,0,0,1-1.77,7.13,37.23,37.23,0,0,1-4.29,6.64A49.32,49.32,0,0,1,20.56,42q-2.76,2.52-4.68,4.16H32.26v7.08Z"/><path class="cls-1" d="M65.26,41.9a10.23,10.23,0,0,1-1,4.56A10,10,0,0,1,61.31,50a14.32,14.32,0,0,1-4.69,2.34,21,21,0,0,1-6.12.84,26.19,26.19,0,0,1-4.65-.38A16.61,16.61,0,0,1,42,51.65a14.87,14.87,0,0,1-3.42-2.16,25.32,25.32,0,0,1-3.24-3.29l4-5.34q4.68,5.28,10,5.28A7.24,7.24,0,0,0,54,44.75a4.84,4.84,0,0,0,1.83-3.67,4.72,4.72,0,0,0-.47-2.61,5,5,0,0,0-2-2,11.82,11.82,0,0,0-4-1.18,32.3,32.3,0,0,0-6.36-.12V28.08a44.2,44.2,0,0,0,6,.06,10.71,10.71,0,0,0,3.72-.82,4,4,0,0,0,1.92-1.7A5.49,5.49,0,0,0,55.18,23a4.35,4.35,0,0,0-1.74-3.33,6.91,6.91,0,0,0-4.32-1.25,10,10,0,0,0-4.26.94,17.29,17.29,0,0,0-4.32,3l-3.36-5.68q4.5-5.38,13.86-5.38a17.44,17.44,0,0,1,5.3.75,12.14,12.14,0,0,1,4,2.15A9.52,9.52,0,0,1,63,17.58a10.35,10.35,0,0,1,.9,4.39,9.14,9.14,0,0,1-1.74,5.78,13.66,13.66,0,0,1-5.76,3.87A11.26,11.26,0,0,1,63,35,10.05,10.05,0,0,1,65.26,41.9Z"/></svg>