<svg id="Layer_1" data-name="Layer 1" xmlns="http://www.w3.org/2000/svg" viewBox="0 0 69.71 64.98"><defs><style>.cls-1{fill:#022749;}</style></defs><path class="cls-1" d="M30.87,34A9.21,9.21,0,0,1,28,41.19c-1.9,1.7-4.55,2.55-8,2.55a15,15,0,0,1-5.85-1.12,12.87,12.87,0,0,1-4.63-3.3L12,35c2.61,2.38,5.16,3.56,7.66,3.56a6,6,0,0,0,3.83-1.2A3.8,3.8,0,0,0,25,34.24a4.29,4.29,0,0,0-1.25-3.35,5.23,5.23,0,0,0-3.63-1.15,5.16,5.16,0,0,0-2.31.51,9.5,9.5,0,0,0-2.18,1.56l-3.78-2.15L12.31,13h17.6l0,5.2h-12l-.22,7.21,1.11-.5a6,6,0,0,1,.92-.33,4.8,4.8,0,0,1,1-.18c.34,0,.73,0,1.15,0a9.53,9.53,0,0,1,3.68.69A8.07,8.07,0,0,1,28.38,27a9,9,0,0,1,1.83,3A11.18,11.18,0,0,1,30.87,34Z"/><path class="cls-1" d="M52.52,43.74H47.07V36.17H35.76V13h5.63V31.24h5.68V23.8h5.41v7.44h3.91v4.88H52.52Z"/></svg>