<svg id="Layer_1" data-name="Layer 1" xmlns="http://www.w3.org/2000/svg" viewBox="0 0 69.71 64.98"><defs><style>.cls-1{fill:#868687;}</style></defs><path class="cls-1" d="M21.43,47.66H14.79L26.31,22.14H12.5V17H33.22v4.56Z"/><path class="cls-1" d="M57.07,39.36a7.33,7.33,0,0,1-2.9,6A10.56,10.56,0,0,1,50.73,47a15.35,15.35,0,0,1-4.48.62,18.59,18.59,0,0,1-3.41-.28A11.74,11.74,0,0,1,40,46.51a11,11,0,0,1-2.51-1.59,19.44,19.44,0,0,1-2.38-2.41L38,38.59q3.43,3.87,7.35,3.87a5.33,5.33,0,0,0,3.45-1,3.55,3.55,0,0,0,1.34-2.69,3.48,3.48,0,0,0-.35-1.92,3.55,3.55,0,0,0-1.5-1.47,8.43,8.43,0,0,0-2.94-.87,24.82,24.82,0,0,0-4.67-.09V29.22a33.43,33.43,0,0,0,4.42.05,8,8,0,0,0,2.73-.6,3,3,0,0,0,1.41-1.25,4,4,0,0,0,.42-1.93,3.19,3.19,0,0,0-1.28-2.43,5,5,0,0,0-3.17-.92,7.38,7.38,0,0,0-3.12.69,12.6,12.6,0,0,0-3.17,2.23L36.48,20.9q3.3-4,10.16-3.95a12.63,12.63,0,0,1,3.88.55,8.65,8.65,0,0,1,3,1.58,6.85,6.85,0,0,1,1.89,2.45A7.55,7.55,0,0,1,56,24.74,6.69,6.69,0,0,1,54.76,29a10,10,0,0,1-4.23,2.84,8.25,8.25,0,0,1,4.87,2.47A7.4,7.4,0,0,1,57.07,39.36Z"/></svg>