<svg id="Layer_1" data-name="Layer 1" xmlns="http://www.w3.org/2000/svg" viewBox="0 0 69.71 64.98"><defs><style>.cls-1{fill:#87786f;stroke:#2d1606;stroke-miterlimit:10;}</style></defs><path class="cls-1" d="M4.85,53.22l.06-4.71q1.86-2.19,3.93-4.33L13,39.91c1.36-1.41,2.66-2.8,3.9-4.15a37.06,37.06,0,0,0,3.27-4.09,23,23,0,0,0,2.25-4.07,10.36,10.36,0,0,0,.84-4.06A4.45,4.45,0,0,0,21.65,20a5.66,5.66,0,0,0-3.84-1.35,6.42,6.42,0,0,0-2.91.64A7.37,7.37,0,0,0,12.68,21a12.15,12.15,0,0,0-1.62,2.25,18.83,18.83,0,0,0-1.17,2.45L4.13,21.48q.6-1.35,1.5-3.09a11.81,11.81,0,0,1,2.61-3.31,14.36,14.36,0,0,1,4.44-2.65,19,19,0,0,1,7-1.09,16.82,16.82,0,0,1,5.29.79,11.88,11.88,0,0,1,4.12,2.25,9.72,9.72,0,0,1,2.63,3.54,11.37,11.37,0,0,1,.92,4.64,15.7,15.7,0,0,1-1.77,7.14,37.59,37.59,0,0,1-4.29,6.64A49.32,49.32,0,0,1,21.29,42c-1.84,1.68-3.4,3.06-4.68,4.16H33v7.08Z"/><path class="cls-1" d="M66.29,39.69a15,15,0,0,1-1,5.59,11.94,11.94,0,0,1-7.14,7,17.23,17.23,0,0,1-11.73-.12A13,13,0,0,1,41.81,49a14.49,14.49,0,0,1-3-4.82,17.73,17.73,0,0,1-1.05-6.27,22.38,22.38,0,0,1,1.27-7.38,39.24,39.24,0,0,1,3.32-7.12A51.9,51.9,0,0,1,47,16.89a60.58,60.58,0,0,1,5.15-5.55H62.27a62.41,62.41,0,0,0-7.43,8,65.26,65.26,0,0,0-6.07,9.3q.94-.54,1.71-.9a11.27,11.27,0,0,1,1.44-.57,8.08,8.08,0,0,1,1.38-.3,12.65,12.65,0,0,1,1.59-.09,11.2,11.2,0,0,1,4.61.93,10.26,10.26,0,0,1,3.59,2.67,12.72,12.72,0,0,1,2.34,4.09A15.17,15.17,0,0,1,66.29,39.69Zm-8,.17a5.92,5.92,0,0,0-1.43-4.18,4.91,4.91,0,0,0-3.8-1.54,7.92,7.92,0,0,0-5.57,2.35q-.18.9-.24,1.35A9.26,9.26,0,0,0,47.21,39a6.69,6.69,0,0,0,1.62,4.66,5.46,5.46,0,0,0,4.25,1.79,4.91,4.91,0,0,0,3.8-1.54A5.76,5.76,0,0,0,58.31,39.86Z"/></svg>