<svg id="Layer_1" data-name="Layer 1" xmlns="http://www.w3.org/2000/svg" viewBox="0 0 69.71 64.98"><defs><style>.cls-1{fill:#87786f;stroke:#2d1606;stroke-miterlimit:10;}</style></defs><path class="cls-1" d="M16.81,57.88H7.75l15.72-34.8H4.63V16H32.89v6.23Z"/><path class="cls-1" d="M67.15,36.22q0,11.45-3.94,16.55T51.52,57.88q-7.76,0-11.69-5.14T35.89,37q0-10.57,3.94-15.77T51.52,16Q67.15,16,67.15,36.22Zm-9.42.34c-.11-4.6-.64-7.89-1.56-9.86a4.74,4.74,0,0,0-4.59-3A5,5,0,0,0,46.94,27Q45.49,30,45.31,37.54q.18,6.26,1.57,9.37a5,5,0,0,0,4.7,3.23A4.78,4.78,0,0,0,56.08,47C57.06,44.94,57.62,41.45,57.73,36.56Z"/></svg>