<svg id="Layer_1" data-name="Layer 1" xmlns="http://www.w3.org/2000/svg" viewBox="0 0 69.71 64.98"><defs><style>.cls-1{fill:#fff;stroke:#040421;}</style></defs><path class="cls-1" d="M9.92,49.16,10,45.23q1.56-1.81,3.28-3.61l3.42-3.55q1.71-1.77,3.25-3.46a30.42,30.42,0,0,0,2.73-3.41,18.83,18.83,0,0,0,1.87-3.39,8.6,8.6,0,0,0,.7-3.38,3.69,3.69,0,0,0-1.3-2.94,4.66,4.66,0,0,0-3.2-1.13,5.44,5.44,0,0,0-2.42.53,6.25,6.25,0,0,0-1.85,1.39,9.75,9.75,0,0,0-1.35,1.88,17.23,17.23,0,0,0-1,2l-4.8-3.49c.34-.75.75-1.61,1.25-2.58a10,10,0,0,1,2.18-2.75,11.87,11.87,0,0,1,3.7-2.21,15.79,15.79,0,0,1,5.82-.91,14.37,14.37,0,0,1,4.41.65,10.1,10.1,0,0,1,3.44,1.88,8.2,8.2,0,0,1,2.19,2.95,9.45,9.45,0,0,1,.76,3.87,13.11,13.11,0,0,1-1.47,5.95A31.08,31.08,0,0,1,28,35.09a41.46,41.46,0,0,1-4.4,4.71c-1.53,1.39-2.83,2.55-3.9,3.46H33.37v5.9Z"/><path class="cls-1" d="M48,49.16V21.9c-.66.76-1.3,1.45-1.9,2.07s-1.25,1.28-1.95,2l-3.3-4.5c1-.87,2-1.73,2.9-2.6s1.62-1.51,2.45-2.35,1.52-1.58,2.07-2.24h6.38v34.9Z"/></svg>