<svg id="Layer_1" data-name="Layer 1" xmlns="http://www.w3.org/2000/svg" viewBox="0 0 69.71 64.98"><defs><style>.cls-1{fill:#868687;}</style></defs><path class="cls-1" d="M29.69,48.59H24.24V41H12.93V17.83h5.63V36.09h5.68V28.66h5.41v7.43h3.92V41H29.69Z"/><path class="cls-1" d="M56.36,38.81A9.2,9.2,0,0,1,53.51,46q-2.84,2.55-8,2.55a14.83,14.83,0,0,1-5.84-1.12,12.91,12.91,0,0,1-4.64-3.3l2.47-4.34q3.91,3.57,7.65,3.57A5.93,5.93,0,0,0,49,42.2a3.8,3.8,0,0,0,1.5-3.1,4.3,4.3,0,0,0-1.26-3.36,5.2,5.2,0,0,0-3.63-1.14,5.29,5.29,0,0,0-2.31.5,9.48,9.48,0,0,0-2.18,1.57l-3.78-2.16.44-16.63h17.6l0,5.19h-12l-.22,7.22q.64-.32,1.11-.51c.32-.13.62-.24.92-.33a4.8,4.8,0,0,1,1-.18c.34,0,.73,0,1.16,0a9.52,9.52,0,0,1,3.67.69,8.11,8.11,0,0,1,2.84,1.94,9,9,0,0,1,1.84,3A11.1,11.1,0,0,1,56.36,38.81Z"/></svg>