<svg id="Layer_1" data-name="Layer 1" xmlns="http://www.w3.org/2000/svg" viewBox="0 0 69.71 64.98"><defs><style>.cls-1{fill:#022749;}</style></defs><path class="cls-1" d="M30,47h-5.9l.36-13A8.19,8.19,0,0,1,22,35.52,8.9,8.9,0,0,1,19,36a9.32,9.32,0,0,1-3.68-.71,7.89,7.89,0,0,1-2.83-2,9,9,0,0,1-1.83-3.1,12.2,12.2,0,0,1-.64-4,12,12,0,0,1,.77-4.38,9.05,9.05,0,0,1,5.64-5.41A13.62,13.62,0,0,1,21,15.59a9.64,9.64,0,0,1,7.13,2.55,9.16,9.16,0,0,1,2.42,7.08Zm-5.59-22.4a3.48,3.48,0,0,0-.28-1.43,3.7,3.7,0,0,0-.8-1.12,3.54,3.54,0,0,0-1.21-.75A4.36,4.36,0,0,0,20.64,21a4,4,0,0,0-3.21,1.36,5.47,5.47,0,0,0-1.19,3.74,4.85,4.85,0,0,0,1,3.3,3.63,3.63,0,0,0,2.88,1.19,4,4,0,0,0,3-1.19,4.88,4.88,0,0,0,1.23-3.3Z"/><path class="cls-1" d="M55.57,37a10.85,10.85,0,0,1-.73,4.1,8.83,8.83,0,0,1-2.05,3.11,9,9,0,0,1-3.19,2,11.86,11.86,0,0,1-4.2.71,11.67,11.67,0,0,1-4.39-.8,9.38,9.38,0,0,1-3.39-2.29,10.64,10.64,0,0,1-2.17-3.53,12.87,12.87,0,0,1-.78-4.6,16.26,16.26,0,0,1,.94-5.41A28,28,0,0,1,38,25.11a37.88,37.88,0,0,1,3.37-4.79,45.59,45.59,0,0,1,3.78-4.07h7.44a45.42,45.42,0,0,0-5.45,5.9A47.6,47.6,0,0,0,42.73,29c.46-.26.88-.48,1.25-.66A10.55,10.55,0,0,1,45,27.88a6.72,6.72,0,0,1,1-.22,10.06,10.06,0,0,1,1.16-.06,8.19,8.19,0,0,1,3.39.69,7.41,7.41,0,0,1,2.63,1.95,9.38,9.38,0,0,1,1.72,3A11.34,11.34,0,0,1,55.57,37Zm-5.85.13a4.37,4.37,0,0,0-1-3.07A3.6,3.6,0,0,0,45.89,33,5.78,5.78,0,0,0,41.8,34.7c-.09.44-.15.76-.17,1a6.58,6.58,0,0,0-.05.87A4.93,4.93,0,0,0,42.77,40a4,4,0,0,0,3.12,1.31,3.6,3.6,0,0,0,2.79-1.13A4.24,4.24,0,0,0,49.72,37.17Z"/></svg>