<svg id="Layer_1" data-name="Layer 1" xmlns="http://www.w3.org/2000/svg" viewBox="0 0 69.71 64.98"><defs><style>.cls-1{fill:#868687;}</style></defs><path class="cls-1" d="M32.06,49.19h-5.9l.36-13A8.08,8.08,0,0,1,24,37.75a8.86,8.86,0,0,1-3,.44,9.24,9.24,0,0,1-3.67-.7,8.18,8.18,0,0,1-2.84-2,9.08,9.08,0,0,1-1.83-3.11,12.2,12.2,0,0,1-.64-4.05A11.69,11.69,0,0,1,12.86,24,9.08,9.08,0,0,1,15,20.64a9.48,9.48,0,0,1,3.46-2.1A13.62,13.62,0,0,1,23,17.82a9.64,9.64,0,0,1,7.13,2.55,9.16,9.16,0,0,1,2.42,7.08Zm-5.59-22.4a3.51,3.51,0,0,0-.28-1.43,3.8,3.8,0,0,0-.79-1.12,3.74,3.74,0,0,0-1.21-.75,4.38,4.38,0,0,0-1.5-.26,4,4,0,0,0-3.21,1.37,5.48,5.48,0,0,0-1.19,3.73,4.9,4.9,0,0,0,1,3.31,3.63,3.63,0,0,0,2.89,1.18,4,4,0,0,0,3-1.18,4.93,4.93,0,0,0,1.23-3.31Z"/><path class="cls-1" d="M54.37,49.19H48.91V41.62H37.6V18.44h5.64V36.69h5.67V29.26h5.42v7.43h3.91v4.89H54.37Z"/></svg>