<svg id="Layer_1" data-name="Layer 1" xmlns="http://www.w3.org/2000/svg" viewBox="0 0 69.71 64.98"><defs><style>.cls-1{fill:#022749;}</style></defs><path class="cls-1" d="M29.71,38.12A6.68,6.68,0,0,1,27,43.82c-1.84,1.37-4.39,2-7.67,2a16.73,16.73,0,0,1-4.58-.58,11.37,11.37,0,0,1-3.53-1.61,7.48,7.48,0,0,1-2.29-2.51,6.75,6.75,0,0,1-.81-3.3,6.64,6.64,0,0,1,1.47-4.44,12.33,12.33,0,0,1,4.91-3.11,33.93,33.93,0,0,1-2.91-2,8.09,8.09,0,0,1-1.69-1.66A4.9,4.9,0,0,1,9,25a9.55,9.55,0,0,1-.22-2.15,6.75,6.75,0,0,1,2.55-5.66q2.57-2,7.84-2a15.43,15.43,0,0,1,4.16.52,10.32,10.32,0,0,1,3.19,1.47,6.67,6.67,0,0,1,2,2.32,6.5,6.5,0,0,1,.7,3.05A6.85,6.85,0,0,1,28,26.69,12.71,12.71,0,0,1,23.69,30a11.05,11.05,0,0,1,4.59,3.32A7.79,7.79,0,0,1,29.71,38.12Zm-5.85-.55a3.1,3.1,0,0,0-.35-1.52,3.48,3.48,0,0,0-1-1.11A9.18,9.18,0,0,0,20.85,34c-.63-.29-1.35-.58-2.14-.87A9,9,0,0,0,15.5,34.8,3,3,0,0,0,14.58,37a3.14,3.14,0,0,0,1.32,2.67,5.87,5.87,0,0,0,3.56,1,5.38,5.38,0,0,0,3.21-.85A2.62,2.62,0,0,0,23.86,37.57Zm-.83-14a2.84,2.84,0,0,0-1.17-2.35,4.88,4.88,0,0,0-3.06-.91,4.28,4.28,0,0,0-2.73.85A2.64,2.64,0,0,0,15,23.36c0,1.54,1.4,2.91,4.22,4.12a6.54,6.54,0,0,0,3-1.67A3.26,3.26,0,0,0,23,23.61Z"/><path class="cls-1" d="M53.87,38.12a6.68,6.68,0,0,1-2.76,5.7q-2.76,2.05-7.68,2a16.73,16.73,0,0,1-4.58-.58,11.47,11.47,0,0,1-3.53-1.61A7.69,7.69,0,0,1,33,41.17a6.75,6.75,0,0,1-.81-3.3,6.6,6.6,0,0,1,1.48-4.44,12.28,12.28,0,0,1,4.9-3.11c-1.2-.75-2.17-1.4-2.9-2A8.16,8.16,0,0,1,34,26.69,4.87,4.87,0,0,1,33.19,25,9,9,0,0,1,33,22.81a6.75,6.75,0,0,1,2.55-5.66q2.55-2,7.83-2a15.38,15.38,0,0,1,4.16.52,10.11,10.11,0,0,1,3.19,1.47,6.36,6.36,0,0,1,2.73,5.37,6.79,6.79,0,0,1-1.3,4.17A12.61,12.61,0,0,1,47.84,30a10.92,10.92,0,0,1,4.59,3.32A7.8,7.8,0,0,1,53.87,38.12ZM48,37.57a3,3,0,0,0-.36-1.52,3.37,3.37,0,0,0-1-1.11A8.84,8.84,0,0,0,45,34q-.95-.44-2.13-.87a8.86,8.86,0,0,0-3.21,1.64A2.92,2.92,0,0,0,38.73,37a3.14,3.14,0,0,0,1.32,2.67,5.88,5.88,0,0,0,3.57,1,5.38,5.38,0,0,0,3.21-.85A2.65,2.65,0,0,0,48,37.57Zm-.84-14A2.84,2.84,0,0,0,46,21.26a4.83,4.83,0,0,0-3-.91,4.24,4.24,0,0,0-2.73.85,2.65,2.65,0,0,0-1.06,2.16q0,2.31,4.23,4.12a6.44,6.44,0,0,0,2.94-1.67A3.26,3.26,0,0,0,47.18,23.61Z"/></svg>