<svg id="Layer_1" data-name="Layer 1" xmlns="http://www.w3.org/2000/svg" viewBox="0 0 69.71 64.98"><defs><style>.cls-1{fill:#868687;}</style></defs><path class="cls-1" d="M33.69,40.71a7.49,7.49,0,0,1-.75,3.35,7.38,7.38,0,0,1-2.15,2.62,10.47,10.47,0,0,1-3.44,1.72,15.43,15.43,0,0,1-4.49.61,19.57,19.57,0,0,1-3.41-.27,12.37,12.37,0,0,1-2.84-.88,10.6,10.6,0,0,1-2.5-1.58,18.14,18.14,0,0,1-2.38-2.41L14.63,40q3.44,3.87,7.35,3.87a5.34,5.34,0,0,0,3.46-1,3.92,3.92,0,0,0,1-4.6,3.61,3.61,0,0,0-1.5-1.47A8.56,8.56,0,0,0,22,35.86a23.11,23.11,0,0,0-4.66-.09V30.58a33.17,33.17,0,0,0,4.42,0,7.58,7.58,0,0,0,2.73-.6,3,3,0,0,0,1.41-1.24,4.14,4.14,0,0,0,.41-1.93A3.2,3.2,0,0,0,25,24.41a5.08,5.08,0,0,0-3.17-.92,7.4,7.4,0,0,0-3.13.69,12.83,12.83,0,0,0-3.16,2.23l-2.47-4.16q3.3-3.94,10.17-3.95a13,13,0,0,1,3.88.55,8.92,8.92,0,0,1,3,1.58A6.94,6.94,0,0,1,32,22.88a7.6,7.6,0,0,1,.66,3.22,6.71,6.71,0,0,1-1.28,4.24,10,10,0,0,1-4.22,2.83A8.32,8.32,0,0,1,32,35.65,7.37,7.37,0,0,1,33.69,40.71Z"/><path class="cls-1" d="M57.84,40.71a7.62,7.62,0,0,1-.74,3.35,7.52,7.52,0,0,1-2.16,2.62,10.42,10.42,0,0,1-3.43,1.72A15.43,15.43,0,0,1,47,49a19.57,19.57,0,0,1-3.41-.27,12.22,12.22,0,0,1-2.84-.88,10.66,10.66,0,0,1-2.51-1.58,19.44,19.44,0,0,1-2.38-2.41L38.79,40q3.43,3.87,7.35,3.87a5.31,5.31,0,0,0,3.45-1,3.52,3.52,0,0,0,1.34-2.69,3.45,3.45,0,0,0-.35-1.91,3.49,3.49,0,0,0-1.5-1.47,8.43,8.43,0,0,0-2.94-.87,23.21,23.21,0,0,0-4.67-.09V30.58a33.18,33.18,0,0,0,4.42,0,7.58,7.58,0,0,0,2.73-.6A3,3,0,0,0,50,28.78a4,4,0,0,0,.42-1.93,3.18,3.18,0,0,0-1.28-2.44A5,5,0,0,0,46,23.49a7.4,7.4,0,0,0-3.13.69,12.86,12.86,0,0,0-3.17,2.23l-2.46-4.16q3.3-3.94,10.16-3.95a12.94,12.94,0,0,1,3.88.55,8.82,8.82,0,0,1,3,1.58,6.94,6.94,0,0,1,1.89,2.45,7.6,7.6,0,0,1,.66,3.22,6.71,6.71,0,0,1-1.27,4.24,9.94,9.94,0,0,1-4.23,2.83,8.26,8.26,0,0,1,4.87,2.48A7.37,7.37,0,0,1,57.84,40.71Z"/></svg>