<svg id="Layer_1" data-name="Layer 1" xmlns="http://www.w3.org/2000/svg" viewBox="0 0 69.71 64.98"><defs><style>.cls-1{fill:#ffe8d9;stroke:#2d1606;stroke-miterlimit:10;}</style></defs><path class="cls-1" d="M4.55,53.22l.06-4.71c1.23-1.45,2.54-2.9,3.93-4.33l4.11-4.27c1.35-1.41,2.66-2.79,3.9-4.15a37.3,37.3,0,0,0,3.27-4.09,24.33,24.33,0,0,0,2.25-4.06,10.42,10.42,0,0,0,.83-4.06A4.44,4.44,0,0,0,21.34,20a5.64,5.64,0,0,0-3.84-1.35,6.45,6.45,0,0,0-2.91.64A7.5,7.5,0,0,0,12.38,21a12.19,12.19,0,0,0-1.63,2.25,21,21,0,0,0-1.17,2.45L3.82,21.48q.62-1.35,1.5-3.09a12.15,12.15,0,0,1,2.62-3.31,14.44,14.44,0,0,1,4.44-2.65,19,19,0,0,1,7-1.09,16.71,16.71,0,0,1,5.28.79,11.83,11.83,0,0,1,4.13,2.25,9.8,9.8,0,0,1,2.63,3.54,11.38,11.38,0,0,1,.91,4.65,15.65,15.65,0,0,1-1.76,7.13,37.23,37.23,0,0,1-4.29,6.64A52.2,52.2,0,0,1,21,42c-1.84,1.67-3.41,3.06-4.68,4.15H32.69v7.08Z"/><path class="cls-1" d="M64.07,53.22H56l.48-17.7a11,11,0,0,1-3.42,2.1,11.92,11.92,0,0,1-4,.6,12.64,12.64,0,0,1-5-1,11.11,11.11,0,0,1-3.88-2.73,12.21,12.21,0,0,1-2.49-4.23,16.48,16.48,0,0,1-.87-5.52,16,16,0,0,1,1.06-6,12.64,12.64,0,0,1,3-4.53,12.78,12.78,0,0,1,4.72-2.85,18.41,18.41,0,0,1,6.2-1q6.24,0,9.73,3.48t3.29,9.66ZM56.44,22.68a4.71,4.71,0,0,0-.38-1.95A5.17,5.17,0,0,0,55,19.2a4.93,4.93,0,0,0-1.66-1,5.76,5.76,0,0,0-2-.36,5.53,5.53,0,0,0-4.38,1.86,7.5,7.5,0,0,0-1.62,5.1,6.63,6.63,0,0,0,1.41,4.5,4.94,4.94,0,0,0,3.94,1.62,5.42,5.42,0,0,0,4.08-1.62,6.74,6.74,0,0,0,1.68-4.5Z"/></svg>