<svg id="Layer_1" data-name="Layer 1" xmlns="http://www.w3.org/2000/svg" viewBox="0 0 69.71 64.98"><defs><style>.cls-1{fill:#87786f;stroke:#2d1606;stroke-miterlimit:10;}</style></defs><path class="cls-1" d="M30.7,57.92h-8l.48-17.7a11,11,0,0,1-3.42,2.1,12,12,0,0,1-4,.6,12.64,12.64,0,0,1-5-1,11.07,11.07,0,0,1-3.87-2.73A12.21,12.21,0,0,1,4.33,35a16.48,16.48,0,0,1-.87-5.52,16.19,16.19,0,0,1,1-6,12.66,12.66,0,0,1,3-4.53,12.82,12.82,0,0,1,4.71-2.85,18.47,18.47,0,0,1,6.21-1q6.24,0,9.72,3.48t3.3,9.66ZM23.08,27.38a4.72,4.72,0,0,0-.39-1.95,4.83,4.83,0,0,0-1.08-1.53,4.79,4.79,0,0,0-1.65-1,5.76,5.76,0,0,0-2-.36,5.51,5.51,0,0,0-4.38,1.86,7.5,7.5,0,0,0-1.62,5.1A6.63,6.63,0,0,0,13.33,34a4.93,4.93,0,0,0,3.93,1.62A5.41,5.41,0,0,0,21.34,34,6.64,6.64,0,0,0,23,29.48Z"/><path class="cls-1" d="M65.26,46.6a10.23,10.23,0,0,1-1,4.56,10,10,0,0,1-2.94,3.58,14.32,14.32,0,0,1-4.69,2.34,21,21,0,0,1-6.12.84,26.19,26.19,0,0,1-4.65-.38A16.61,16.61,0,0,1,42,56.35a14.87,14.87,0,0,1-3.42-2.16,25.32,25.32,0,0,1-3.24-3.29l4-5.34q4.68,5.28,10,5.28A7.24,7.24,0,0,0,54,49.45a4.84,4.84,0,0,0,1.83-3.67,4.72,4.72,0,0,0-.47-2.61,5,5,0,0,0-2-2,11.82,11.82,0,0,0-4-1.18,32.3,32.3,0,0,0-6.36-.12V32.78a44.2,44.2,0,0,0,6,.06A10.71,10.71,0,0,0,52.69,32a4,4,0,0,0,1.92-1.7,5.49,5.49,0,0,0,.57-2.62,4.35,4.35,0,0,0-1.74-3.33,6.91,6.91,0,0,0-4.32-1.25,10,10,0,0,0-4.26.94,17.29,17.29,0,0,0-4.32,3l-3.36-5.68Q41.68,16,51,16a17.44,17.44,0,0,1,5.3.75,12.14,12.14,0,0,1,4,2.15A9.52,9.52,0,0,1,63,22.28a10.38,10.38,0,0,1,.9,4.39,9.14,9.14,0,0,1-1.74,5.78,13.66,13.66,0,0,1-5.76,3.87A11.26,11.26,0,0,1,63,39.7,10.05,10.05,0,0,1,65.26,46.6Z"/></svg>