<svg id="Layer_1" data-name="Layer 1" xmlns="http://www.w3.org/2000/svg" viewBox="0 0 69.71 64.98"><defs><style>.cls-1{fill:#868687;}</style></defs><path class="cls-1" d="M33.8,40.36A6.71,6.71,0,0,1,31,46.06c-1.84,1.36-4.4,2-7.68,2a17.13,17.13,0,0,1-4.58-.58,11.61,11.61,0,0,1-3.53-1.62A7.49,7.49,0,0,1,13,43.4a6.72,6.72,0,0,1-.81-3.3,6.64,6.64,0,0,1,1.47-4.44,12.44,12.44,0,0,1,4.91-3.11c-1.21-.75-2.17-1.4-2.91-2a8.36,8.36,0,0,1-1.69-1.67,4.67,4.67,0,0,1-.81-1.72A9.11,9.11,0,0,1,12.89,25a6.75,6.75,0,0,1,2.56-5.66c1.7-1.32,4.31-2,7.83-2a15.84,15.84,0,0,1,4.16.52,10.21,10.21,0,0,1,3.19,1.47,6.43,6.43,0,0,1,2.73,5.37,6.83,6.83,0,0,1-1.3,4.17,12.85,12.85,0,0,1-4.29,3.36,11,11,0,0,1,4.59,3.31A7.81,7.81,0,0,1,33.8,40.36Zm-5.86-.56a3,3,0,0,0-.35-1.52,3.37,3.37,0,0,0-1-1.11,9.86,9.86,0,0,0-1.63-.91q-.95-.42-2.13-.87A9,9,0,0,0,19.58,37a3,3,0,0,0-.92,2.24A3.12,3.12,0,0,0,20,41.94a5.87,5.87,0,0,0,3.56,1,5.51,5.51,0,0,0,3.22-.84A2.67,2.67,0,0,0,27.94,39.8Zm-.83-14a2.85,2.85,0,0,0-1.17-2.35,4.88,4.88,0,0,0-3.06-.9,4.28,4.28,0,0,0-2.73.84,2.66,2.66,0,0,0-1,2.16c0,1.54,1.41,2.92,4.22,4.12a6.63,6.63,0,0,0,2.95-1.66A3.3,3.3,0,0,0,27.11,25.84Z"/><path class="cls-1" d="M57.42,39.81a7.36,7.36,0,0,1-2.89,6,10.66,10.66,0,0,1-3.44,1.71,15.42,15.42,0,0,1-4.49.62,19.51,19.51,0,0,1-3.41-.28A11.88,11.88,0,0,1,40.35,47a11,11,0,0,1-2.51-1.59A18.73,18.73,0,0,1,35.47,43L38.37,39q3.43,3.87,7.35,3.87a5.29,5.29,0,0,0,3.45-1,3.52,3.52,0,0,0,1.34-2.69,3.48,3.48,0,0,0-.34-1.92,3.66,3.66,0,0,0-1.5-1.47,8.56,8.56,0,0,0-3-.87,24,24,0,0,0-4.67-.09V29.67a33.57,33.57,0,0,0,4.43,0,8.09,8.09,0,0,0,2.73-.6,3,3,0,0,0,1.4-1.25A4,4,0,0,0,50,25.94a3.17,3.17,0,0,0-1.27-2.43,5,5,0,0,0-3.17-.92,7.4,7.4,0,0,0-3.13.69,12.56,12.56,0,0,0-3.16,2.23l-2.47-4.17Q40.13,17.4,47,17.39a12.68,12.68,0,0,1,3.89.56,8.6,8.6,0,0,1,2.95,1.58A6.74,6.74,0,0,1,55.72,22a7.4,7.4,0,0,1,.66,3.21,6.69,6.69,0,0,1-1.27,4.24,10,10,0,0,1-4.23,2.84,8.25,8.25,0,0,1,4.87,2.47A7.35,7.35,0,0,1,57.42,39.81Z"/></svg>