<svg id="Layer_1" data-name="Layer 1" xmlns="http://www.w3.org/2000/svg" viewBox="0 0 69.71 64.98"><defs><style>.cls-1{fill:#022749;}</style></defs><path class="cls-1" d="M18,43.44v-24c-.58.68-1.14,1.28-1.67,1.83L14.63,23l-2.9-4c.88-.77,1.73-1.53,2.55-2.29s1.43-1.33,2.16-2.06a26.3,26.3,0,0,0,1.81-2h5.63V43.44Z"/><path class="cls-1" d="M53.49,35.14a7.65,7.65,0,0,1-.74,3.35,7.52,7.52,0,0,1-2.16,2.62,10.38,10.38,0,0,1-3.44,1.72,15.43,15.43,0,0,1-4.49.61,19.57,19.57,0,0,1-3.41-.27,12.52,12.52,0,0,1-2.84-.88,11.15,11.15,0,0,1-2.5-1.58,19.44,19.44,0,0,1-2.38-2.41l2.9-3.92q3.43,3.87,7.35,3.87a5.34,5.34,0,0,0,3.46-1,3.92,3.92,0,0,0,1-4.6,3.62,3.62,0,0,0-1.5-1.48,8.73,8.73,0,0,0-2.95-.86,23.11,23.11,0,0,0-4.66-.09V25a33.17,33.17,0,0,0,4.42,0,7.58,7.58,0,0,0,2.73-.6,3,3,0,0,0,1.41-1.25,4,4,0,0,0,.41-1.92,3.17,3.17,0,0,0-1.27-2.44,5.06,5.06,0,0,0-3.17-.92,7.32,7.32,0,0,0-3.12.69,12.68,12.68,0,0,0-3.17,2.23l-2.47-4.16q3.3-3.94,10.17-3.95a12.63,12.63,0,0,1,3.88.55,8.82,8.82,0,0,1,3,1.58,6.94,6.94,0,0,1,1.89,2.45,7.56,7.56,0,0,1,.66,3.22,6.73,6.73,0,0,1-1.28,4.24A10,10,0,0,1,47,27.6a8.29,8.29,0,0,1,4.87,2.48A7.37,7.37,0,0,1,53.49,35.14Z"/></svg>