<svg id="Layer_1" data-name="Layer 1" xmlns="http://www.w3.org/2000/svg" viewBox="0 0 69.71 64.98"><defs><style>.cls-1{fill:#868687;}</style></defs><path class="cls-1" d="M33.22,36.16a9.22,9.22,0,0,1-2.85,7.24Q27.54,46,22.4,46a15,15,0,0,1-5.85-1.12,12.87,12.87,0,0,1-4.63-3.3l2.46-4.34C17,39.57,19.55,40.75,22,40.75a5.89,5.89,0,0,0,3.83-1.2,3.8,3.8,0,0,0,1.49-3.1,4.32,4.32,0,0,0-1.25-3.35A5.23,5.23,0,0,0,22.48,32a5.16,5.16,0,0,0-2.31.51A9.5,9.5,0,0,0,18,34l-3.78-2.15.44-16.64h17.6l0,5.2h-12l-.22,7.21,1.11-.5a7.29,7.29,0,0,1,.92-.33,4.8,4.8,0,0,1,1-.18c.34,0,.73,0,1.15,0a9.53,9.53,0,0,1,3.68.69,8.2,8.2,0,0,1,2.84,1.94,9,9,0,0,1,1.83,3A11.18,11.18,0,0,1,33.22,36.16Z"/><path class="cls-1" d="M57.37,36.16a9.25,9.25,0,0,1-2.84,7.24Q51.68,46,46.55,46a15,15,0,0,1-5.84-1.12,13,13,0,0,1-4.64-3.3l2.47-4.34c2.61,2.38,5.16,3.56,7.65,3.56A5.85,5.85,0,0,0,50,39.55a3.79,3.79,0,0,0,1.5-3.1,4.29,4.29,0,0,0-1.26-3.35,6,6,0,0,0-5.94-.64A9.68,9.68,0,0,0,42.15,34l-3.79-2.15.44-16.64H56.4l.05,5.2h-12l-.22,7.21c.42-.2.79-.37,1.1-.5a7.9,7.9,0,0,1,.92-.33,4.8,4.8,0,0,1,1-.18c.35,0,.73,0,1.16,0a9.48,9.48,0,0,1,3.67.69,8.11,8.11,0,0,1,2.84,1.94,9.05,9.05,0,0,1,1.84,3A11.18,11.18,0,0,1,57.37,36.16Z"/></svg>