<svg id="Layer_1" data-name="Layer 1" xmlns="http://www.w3.org/2000/svg" viewBox="0 0 69.71 64.98"><defs><style>.cls-1{fill:#ffe8d9;stroke:#2d1606;stroke-miterlimit:10;}</style></defs><path class="cls-1" d="M28.6,55.8H21.16V45.48H5.74V13.86h7.68v24.9h7.74V28.62h7.38V38.76h5.34v6.66H28.6Z"/><path class="cls-1" d="M66.4,45.23A9.14,9.14,0,0,1,62.64,53q-3.77,2.8-10.47,2.8A22.89,22.89,0,0,1,45.92,55a15.58,15.58,0,0,1-4.81-2.21A10.15,10.15,0,0,1,38,49.38a9.15,9.15,0,0,1-1.11-4.5,9.05,9.05,0,0,1,2-6.05,17,17,0,0,1,6.69-4.24q-2.46-1.53-4-2.68a11.08,11.08,0,0,1-2.31-2.27,6.65,6.65,0,0,1-1.11-2.35,12.7,12.7,0,0,1-.3-2.95,9.19,9.19,0,0,1,3.48-7.71q3.48-2.71,10.68-2.71a21.25,21.25,0,0,1,5.67.71,13.64,13.64,0,0,1,4.35,2A8.71,8.71,0,0,1,65.8,24,9.29,9.29,0,0,1,64,29.64a17.21,17.21,0,0,1-5.85,4.57,15,15,0,0,1,6.26,4.52A10.65,10.65,0,0,1,66.4,45.23Zm-8-.76a4.17,4.17,0,0,0-.48-2.07,4.67,4.67,0,0,0-1.41-1.51,12.72,12.72,0,0,0-2.22-1.24c-.86-.39-1.83-.78-2.91-1.19A12.32,12.32,0,0,0,47,40.69a4,4,0,0,0-1.26,3.07,4.29,4.29,0,0,0,1.8,3.64,8,8,0,0,0,4.86,1.32,7.41,7.41,0,0,0,4.38-1.16A3.61,3.61,0,0,0,58.42,44.47Zm-1.14-19a3.86,3.86,0,0,0-1.59-3.2A6.57,6.57,0,0,0,51.52,21a5.82,5.82,0,0,0-3.72,1.15,3.61,3.61,0,0,0-1.44,3q0,3.15,5.76,5.62a9.08,9.08,0,0,0,4-2.28A4.46,4.46,0,0,0,57.28,25.44Z"/></svg>