<svg id="Layer_1" data-name="Layer 1" xmlns="http://www.w3.org/2000/svg" viewBox="0 0 69.71 64.98"><defs><style>.cls-1{fill:#b7b6b6;stroke:#040421;}</style></defs><path class="cls-1" d="M47.8,38.25q0,5.32-3.24,8.22c-2.15,1.94-5.17,2.9-9.06,2.9a17.08,17.08,0,0,1-6.64-1.26,14.76,14.76,0,0,1-5.26-3.76l2.8-4.93q4.44,4,8.7,4a6.75,6.75,0,0,0,4.35-1.36,4.33,4.33,0,0,0,1.7-3.53,4.91,4.91,0,0,0-1.43-3.81,5.93,5.93,0,0,0-4.12-1.3,5.94,5.94,0,0,0-2.63.58,10.44,10.44,0,0,0-2.47,1.77l-4.3-2.45.5-18.9h20l0,5.9H33.1l-.25,8.2q.72-.34,1.26-.57a9.39,9.39,0,0,1,1-.38,6.19,6.19,0,0,1,1.09-.2c.39,0,.83-.05,1.31-.05a10.88,10.88,0,0,1,4.18.79A9.16,9.16,0,0,1,45,30.37,10.15,10.15,0,0,1,47,33.81,12.47,12.47,0,0,1,47.8,38.25Z"/></svg>