<svg id="Layer_1" data-name="Layer 1" xmlns="http://www.w3.org/2000/svg" viewBox="0 0 69.71 64.98"><defs><style>.cls-1{fill:#868687;}</style></defs><path class="cls-1" d="M33.39,37.74a10.93,10.93,0,0,1-.73,4.1,9,9,0,0,1-2,3.11,9.11,9.11,0,0,1-3.19,2,11.86,11.86,0,0,1-4.2.7,11.67,11.67,0,0,1-4.39-.79,9.55,9.55,0,0,1-3.39-2.29A10.42,10.42,0,0,1,13.27,41a12.77,12.77,0,0,1-.78-4.59A16.56,16.56,0,0,1,13.42,31a29,29,0,0,1,2.44-5.21A37.18,37.18,0,0,1,19.23,21,45.66,45.66,0,0,1,23,16.94h7.43A46.86,46.86,0,0,0,25,22.84a47.62,47.62,0,0,0-4.44,6.82A13,13,0,0,1,21.8,29a7.17,7.17,0,0,1,1.05-.42,5.78,5.78,0,0,1,1-.22A9.9,9.9,0,0,1,25,28.29a8.11,8.11,0,0,1,3.38.69A7.57,7.57,0,0,1,31,30.93a9.57,9.57,0,0,1,1.73,3A11.3,11.3,0,0,1,33.39,37.74Zm-5.85.12a4.39,4.39,0,0,0-1-3.07,3.64,3.64,0,0,0-2.79-1.13,5.82,5.82,0,0,0-4.09,1.73q-.14.66-.18,1a6.78,6.78,0,0,0,0,.86,4.93,4.93,0,0,0,1.19,3.42A4,4,0,0,0,23.7,42a3.65,3.65,0,0,0,2.8-1.13A4.27,4.27,0,0,0,27.54,37.86Z"/><path class="cls-1" d="M56.8,37.87A9.2,9.2,0,0,1,54,45.1q-2.84,2.55-8,2.55a15,15,0,0,1-5.84-1.11,13.16,13.16,0,0,1-4.64-3.3L38,38.9q3.91,3.56,7.65,3.56a5.93,5.93,0,0,0,3.83-1.2,3.79,3.79,0,0,0,1.5-3.1,4.29,4.29,0,0,0-1.26-3.35,6,6,0,0,0-5.94-.64,9.46,9.46,0,0,0-2.17,1.56l-3.79-2.16.44-16.63h17.6l0,5.19h-12l-.22,7.22,1.11-.51c.32-.13.62-.24.92-.33a5.64,5.64,0,0,1,1-.17c.34,0,.73-.05,1.16-.05a9.52,9.52,0,0,1,3.67.69,8,8,0,0,1,2.84,1.95,8.86,8.86,0,0,1,1.84,3A11.18,11.18,0,0,1,56.8,37.87Z"/></svg>