<svg id="Layer_1" data-name="Layer 1" xmlns="http://www.w3.org/2000/svg" viewBox="0 0 69.71 64.98"><defs><style>.cls-1{fill:#87786f;stroke:#2d1606;stroke-miterlimit:10;}</style></defs><path class="cls-1" d="M32.33,42.81A10,10,0,0,1,28.38,51a14.21,14.21,0,0,1-4.69,2.33,21,21,0,0,1-6.12.84,26.25,26.25,0,0,1-4.65-.37,17.1,17.1,0,0,1-3.87-1.19A15.26,15.26,0,0,1,5.63,50.4a24.7,24.7,0,0,1-3.24-3.29l4-5.34q4.68,5.28,10,5.28a7.3,7.3,0,0,0,4.71-1.38A4.85,4.85,0,0,0,22.91,42a4.59,4.59,0,0,0-2.52-4.62,11.39,11.39,0,0,0-4-1.18A31.45,31.45,0,0,0,10,36.07V29a46.14,46.14,0,0,0,6,.07,10.71,10.71,0,0,0,3.72-.82,4.1,4.1,0,0,0,1.92-1.7,5.53,5.53,0,0,0,.57-2.63,4.33,4.33,0,0,0-1.74-3.32,6.85,6.85,0,0,0-4.32-1.26,10.17,10.17,0,0,0-4.26.94,17.35,17.35,0,0,0-4.32,3.05L4.25,17.64q4.5-5.38,13.86-5.39A17.07,17.07,0,0,1,23.4,13a11.86,11.86,0,0,1,4,2.15A9.43,9.43,0,0,1,30,18.5a10.35,10.35,0,0,1,.9,4.39,9.14,9.14,0,0,1-1.74,5.78,13.56,13.56,0,0,1-5.76,3.86,11.32,11.32,0,0,1,6.64,3.38A10,10,0,0,1,32.33,42.81Z"/><path class="cls-1" d="M63.65,54.13h-8l.48-17.7a11,11,0,0,1-3.42,2.1,12,12,0,0,1-4,.6,12.64,12.64,0,0,1-5-1,11.07,11.07,0,0,1-3.87-2.73,12.21,12.21,0,0,1-2.49-4.23,16.48,16.48,0,0,1-.87-5.52,16.19,16.19,0,0,1,1.05-6,12.66,12.66,0,0,1,3-4.53,12.82,12.82,0,0,1,4.71-2.85,18.47,18.47,0,0,1,6.21-1q6.24,0,9.72,3.48t3.3,9.66ZM56,23.59a4.72,4.72,0,0,0-.39-1.95,4.83,4.83,0,0,0-1.08-1.53,4.79,4.79,0,0,0-1.65-1,5.76,5.76,0,0,0-2-.36,5.51,5.51,0,0,0-4.38,1.86,7.5,7.5,0,0,0-1.62,5.1,6.63,6.63,0,0,0,1.41,4.5,4.93,4.93,0,0,0,3.93,1.62,5.41,5.41,0,0,0,4.08-1.62A6.64,6.64,0,0,0,56,25.69Z"/></svg>