<svg id="Layer_1" data-name="Layer 1" xmlns="http://www.w3.org/2000/svg" viewBox="0 0 69.71 64.98"><defs><style>.cls-1{fill:#fff;stroke:#040421;}</style></defs><path class="cls-1" d="M32,40.21a7.64,7.64,0,0,1-3.14,6.48Q25.71,49,20.12,49a19.19,19.19,0,0,1-5.21-.66,13.11,13.11,0,0,1-4-1.84,8.59,8.59,0,0,1-2.6-2.85,7.6,7.6,0,0,1-.92-3.75,7.51,7.51,0,0,1,1.67-5,14.12,14.12,0,0,1,5.58-3.54c-1.37-.85-2.47-1.59-3.3-2.23A9.39,9.39,0,0,1,9.4,27.22a5.4,5.4,0,0,1-.92-2,10.41,10.41,0,0,1-.25-2.46,7.63,7.63,0,0,1,2.9-6.42Q14,14.11,20,14.12a17.38,17.38,0,0,1,4.72.59,11.26,11.26,0,0,1,3.63,1.67,7.24,7.24,0,0,1,3.1,6.1A7.78,7.78,0,0,1,30,27.22,14.41,14.41,0,0,1,25.13,31a12.47,12.47,0,0,1,5.22,3.77A8.91,8.91,0,0,1,32,40.21Zm-6.65-.63a3.57,3.57,0,0,0-.4-1.73,4,4,0,0,0-1.18-1.26,10.6,10.6,0,0,0-1.85-1c-.72-.33-1.52-.65-2.42-1a10.13,10.13,0,0,0-3.65,1.86A3.35,3.35,0,0,0,14.78,39a3.54,3.54,0,0,0,1.5,3,6.66,6.66,0,0,0,4,1.11,6.12,6.12,0,0,0,3.65-1A3,3,0,0,0,25.33,39.58Zm-.95-15.86a3.24,3.24,0,0,0-1.33-2.67,5.47,5.47,0,0,0-3.47-1,4.8,4.8,0,0,0-3.1,1,3,3,0,0,0-1.2,2.46q0,2.61,4.8,4.68a7.51,7.51,0,0,0,3.35-1.9A3.74,3.74,0,0,0,24.38,23.72Z"/><path class="cls-1" d="M45.78,49H38.23l13.1-29H35.63v-5.9H59.18v5.19Z"/></svg>