<svg id="Layer_1" data-name="Layer 1" xmlns="http://www.w3.org/2000/svg" viewBox="0 0 69.71 64.98"><defs><style>.cls-1{fill:#ffe8d9;stroke:#2d1606;stroke-miterlimit:10;}</style></defs><path class="cls-1" d="M4.54,53.22l.06-4.71c1.24-1.45,2.55-2.9,3.93-4.33l4.11-4.27q2-2.11,3.9-4.15a37.06,37.06,0,0,0,3.27-4.09,23,23,0,0,0,2.25-4.06,10.45,10.45,0,0,0,.84-4.07A4.46,4.46,0,0,0,21.34,20a5.66,5.66,0,0,0-3.84-1.35,6.42,6.42,0,0,0-2.91.64A7.54,7.54,0,0,0,12.37,21a12.15,12.15,0,0,0-1.62,2.25,19.47,19.47,0,0,0-1.17,2.45L3.82,21.48q.6-1.35,1.5-3.09a12.1,12.1,0,0,1,2.61-3.31,14.56,14.56,0,0,1,4.44-2.65,19,19,0,0,1,7-1.09,16.82,16.82,0,0,1,5.29.79,11.88,11.88,0,0,1,4.12,2.25,9.72,9.72,0,0,1,2.63,3.54,11.38,11.38,0,0,1,.92,4.65,15.69,15.69,0,0,1-1.77,7.13,37.23,37.23,0,0,1-4.29,6.64A50.29,50.29,0,0,1,21,42c-1.84,1.67-3.4,3.06-4.68,4.15H32.68v7.08Z"/><path class="cls-1" d="M66.4,42.65a9.14,9.14,0,0,1-3.76,7.77q-3.77,2.8-10.47,2.8a23.28,23.28,0,0,1-6.25-.79,15.81,15.81,0,0,1-4.81-2.21A10.15,10.15,0,0,1,38,46.8a9.15,9.15,0,0,1-1.11-4.5,9,9,0,0,1,2-6A16.84,16.84,0,0,1,45.58,32c-1.64-1-3-1.92-4-2.68a11.33,11.33,0,0,1-2.31-2.27,6.65,6.65,0,0,1-1.11-2.35,12.7,12.7,0,0,1-.3-2.95,9.18,9.18,0,0,1,3.48-7.71q3.48-2.71,10.68-2.71a20.85,20.85,0,0,1,5.67.71,13.64,13.64,0,0,1,4.35,2,8.71,8.71,0,0,1,3.72,7.32A9.29,9.29,0,0,1,64,27.06a17.33,17.33,0,0,1-5.85,4.57,15,15,0,0,1,6.26,4.52A10.63,10.63,0,0,1,66.4,42.65Zm-8-.76a4.17,4.17,0,0,0-.48-2.07,4.67,4.67,0,0,0-1.41-1.51,12.72,12.72,0,0,0-2.22-1.25c-.86-.38-1.83-.78-2.91-1.18A12.32,12.32,0,0,0,47,38.11a4,4,0,0,0-1.26,3.06,4.26,4.26,0,0,0,1.8,3.64,8,8,0,0,0,4.86,1.33A7.41,7.41,0,0,0,56.8,45,3.61,3.61,0,0,0,58.42,41.89Zm-1.14-19a3.9,3.9,0,0,0-1.59-3.21,6.63,6.63,0,0,0-4.17-1.23,5.76,5.76,0,0,0-3.72,1.15,3.61,3.61,0,0,0-1.44,2.95q0,3.15,5.76,5.62a9.08,9.08,0,0,0,4-2.28A4.46,4.46,0,0,0,57.28,22.86Z"/></svg>