<svg id="Layer_1" data-name="Layer 1" xmlns="http://www.w3.org/2000/svg" viewBox="0 0 69.71 64.98"><defs><style>.cls-1{fill:#fff;stroke:#040421;}</style></defs><path class="cls-1" d="M13.9,47.54V20.28c-.66.77-1.3,1.46-1.9,2.08l-1.95,2-3.3-4.5c1-.86,2-1.73,2.9-2.59s1.62-1.52,2.45-2.35a27.25,27.25,0,0,0,2.06-2.25h6.39v34.9Z"/><path class="cls-1" d="M54.8,38.74a7.6,7.6,0,0,1-3.13,6.47c-2.09,1.56-5,2.33-8.73,2.33a19.11,19.11,0,0,1-5.2-.66,12.9,12.9,0,0,1-4-1.84,8.3,8.3,0,0,1-2.6-2.85,7.55,7.55,0,0,1-.93-3.74,7.53,7.53,0,0,1,1.68-5.05,13.89,13.89,0,0,1,5.57-3.53c-1.36-.85-2.46-1.6-3.3-2.24a9.08,9.08,0,0,1-1.92-1.89,5.6,5.6,0,0,1-.93-2,10.87,10.87,0,0,1-.25-2.45A7.67,7.67,0,0,1,34,14.9c1.94-1.5,4.9-2.26,8.9-2.26a17.8,17.8,0,0,1,4.73.59A11.52,11.52,0,0,1,51.2,14.9,7.24,7.24,0,0,1,54.3,21a7.73,7.73,0,0,1-1.47,4.74A14.47,14.47,0,0,1,48,29.55a12.49,12.49,0,0,1,5.22,3.77A8.87,8.87,0,0,1,54.8,38.74Zm-6.65-.64a3.42,3.42,0,0,0-.4-1.72,3.89,3.89,0,0,0-1.17-1.27,11.73,11.73,0,0,0-1.85-1q-1.08-.48-2.43-1A10.22,10.22,0,0,0,38.65,35a3.35,3.35,0,0,0-1,2.55,3.57,3.57,0,0,0,1.5,3,6.73,6.73,0,0,0,4,1.1,6.17,6.17,0,0,0,3.65-1A3,3,0,0,0,48.15,38.1ZM47.2,22.24a3.24,3.24,0,0,0-1.32-2.67,5.56,5.56,0,0,0-3.48-1,4.82,4.82,0,0,0-3.1,1A3,3,0,0,0,38.1,22q0,2.63,4.8,4.68a7.54,7.54,0,0,0,3.35-1.89A3.71,3.71,0,0,0,47.2,22.24Z"/></svg>