<svg id="Layer_1" data-name="Layer 1" xmlns="http://www.w3.org/2000/svg" viewBox="0 0 69.71 64.98"><defs><style>.cls-1{fill:#b7b6b6;stroke:#040421;}</style></defs><path class="cls-1" d="M17.92,49.94H10.37l13.1-29H7.77V15H31.32v5.19Z"/><path class="cls-1" d="M34.92,49.94,35,46q1.56-1.82,3.28-3.6l3.42-3.56q1.71-1.77,3.25-3.46A29.54,29.54,0,0,0,47.65,32a18.76,18.76,0,0,0,1.87-3.38,8.65,8.65,0,0,0,.7-3.39,3.69,3.69,0,0,0-1.3-2.94,4.66,4.66,0,0,0-3.2-1.13,5.44,5.44,0,0,0-2.42.53,6.43,6.43,0,0,0-1.85,1.39,10.07,10.07,0,0,0-1.35,1.88,17.23,17.23,0,0,0-1,2l-4.8-3.49c.34-.75.75-1.61,1.25-2.58a10.1,10.1,0,0,1,2.18-2.75A11.87,11.87,0,0,1,41.45,16,15.79,15.79,0,0,1,47.27,15a14.07,14.07,0,0,1,4.41.66,10.08,10.08,0,0,1,3.44,1.87,8.28,8.28,0,0,1,2.19,2.95,9.49,9.49,0,0,1,.76,3.88,13.1,13.1,0,0,1-1.47,5.94A31.16,31.16,0,0,1,53,35.88a42.21,42.21,0,0,1-4.4,4.7q-2.29,2.1-3.9,3.46H58.37v5.9Z"/></svg>