<svg id="Layer_1" data-name="Layer 1" xmlns="http://www.w3.org/2000/svg" viewBox="0 0 69.71 64.98"><defs><style>.cls-1{fill:#022749;}</style></defs><path class="cls-1" d="M18.15,43.44v-24c-.59.68-1.15,1.28-1.68,1.83S15.38,22.4,14.76,23l-2.91-4c.88-.77,1.73-1.53,2.56-2.29s1.42-1.33,2.15-2.06,1.34-1.39,1.82-2H24V43.44Z"/><path class="cls-1" d="M53.08,33.66a9.23,9.23,0,0,1-2.84,7.23q-2.85,2.55-8,2.55a14.84,14.84,0,0,1-5.85-1.12A12.87,12.87,0,0,1,31.79,39l2.46-4.33q3.91,3.56,7.66,3.56a5.9,5.9,0,0,0,3.82-1.2,3.8,3.8,0,0,0,1.5-3.1A4.35,4.35,0,0,0,46,30.59a5.23,5.23,0,0,0-3.63-1.14A5.26,5.26,0,0,0,40,30a9.27,9.27,0,0,0-2.18,1.57l-3.79-2.16.44-16.63h17.6l0,5.19h-12l-.22,7.22q.63-.32,1.11-.51A9.29,9.29,0,0,1,42,24.3a4.55,4.55,0,0,1,1-.18c.34,0,.72,0,1.15,0a9.48,9.48,0,0,1,3.67.69,8,8,0,0,1,2.84,1.95,8.7,8.7,0,0,1,1.84,3A11.1,11.1,0,0,1,53.08,33.66Z"/></svg>