<svg id="Layer_1" data-name="Layer 1" xmlns="http://www.w3.org/2000/svg" viewBox="0 0 69.71 64.98"><defs><style>.cls-1{fill:#87786f;stroke:#2d1606;stroke-miterlimit:10;}</style></defs><path class="cls-1" d="M32.63,44.36a15,15,0,0,1-1,5.59,12,12,0,0,1-7.14,7,16.24,16.24,0,0,1-5.73,1,15.81,15.81,0,0,1-6-1.09,12.78,12.78,0,0,1-4.62-3.11,14.35,14.35,0,0,1-3-4.83,17.45,17.45,0,0,1-1.06-6.26A22.38,22.38,0,0,1,5.4,35.21a38.93,38.93,0,0,1,3.32-7.12,51.9,51.9,0,0,1,4.6-6.53A62.18,62.18,0,0,1,18.47,16H28.61a63.18,63.18,0,0,0-7.43,8.05,64.79,64.79,0,0,0-6.06,9.29c.62-.36,1.19-.66,1.7-.9a11.27,11.27,0,0,1,1.44-.57,8.08,8.08,0,0,1,1.38-.3,12.65,12.65,0,0,1,1.59-.09,11,11,0,0,1,4.61.94,10.24,10.24,0,0,1,3.59,2.66,13,13,0,0,1,2.35,4.1A15.42,15.42,0,0,1,32.63,44.36Zm-8,.17a5.92,5.92,0,0,0-1.43-4.18,4.9,4.9,0,0,0-3.8-1.55,7.93,7.93,0,0,0-5.57,2.36q-.18.9-.24,1.35a9.26,9.26,0,0,0-.06,1.18,6.71,6.71,0,0,0,1.62,4.66,5.49,5.49,0,0,0,4.25,1.79,4.91,4.91,0,0,0,3.8-1.54A5.77,5.77,0,0,0,24.65,44.53Z"/><path class="cls-1" d="M63.65,57.88h-8l.48-17.7a11,11,0,0,1-3.42,2.1,12,12,0,0,1-4,.6,12.64,12.64,0,0,1-5-1,11.07,11.07,0,0,1-3.87-2.73A12.21,12.21,0,0,1,37.28,35a16.48,16.48,0,0,1-.87-5.52,16.19,16.19,0,0,1,1.05-6,12.66,12.66,0,0,1,3-4.53,12.82,12.82,0,0,1,4.71-2.85,18.47,18.47,0,0,1,6.21-1q6.24,0,9.72,3.48t3.3,9.66ZM56,27.34a4.72,4.72,0,0,0-.39-1.95,4.83,4.83,0,0,0-1.08-1.53,4.79,4.79,0,0,0-1.65-1,5.76,5.76,0,0,0-2-.36,5.51,5.51,0,0,0-4.38,1.86,7.5,7.5,0,0,0-1.62,5.1,6.63,6.63,0,0,0,1.41,4.5,4.93,4.93,0,0,0,3.93,1.62,5.41,5.41,0,0,0,4.08-1.62A6.64,6.64,0,0,0,56,29.44Z"/></svg>