<svg id="Layer_1" data-name="Layer 1" xmlns="http://www.w3.org/2000/svg" viewBox="0 0 69.71 64.98"><defs><style>.cls-1{fill:#87786f;stroke:#2d1606;stroke-miterlimit:10;}</style></defs><path class="cls-1" d="M31.43,57.92h-8l.48-17.7a11,11,0,0,1-3.42,2.1,12,12,0,0,1-4,.6,12.64,12.64,0,0,1-5-1,11.07,11.07,0,0,1-3.87-2.73A12.21,12.21,0,0,1,5.06,35a16.48,16.48,0,0,1-.87-5.52,16.19,16.19,0,0,1,1-6,12.66,12.66,0,0,1,3-4.53,12.82,12.82,0,0,1,4.71-2.85,18.47,18.47,0,0,1,6.21-1q6.24,0,9.72,3.48t3.3,9.66ZM23.81,27.38a4.72,4.72,0,0,0-.39-1.95,4.83,4.83,0,0,0-1.08-1.53,4.79,4.79,0,0,0-1.65-1,5.76,5.76,0,0,0-2-.36,5.51,5.51,0,0,0-4.38,1.86,7.5,7.5,0,0,0-1.62,5.1A6.63,6.63,0,0,0,14.06,34,4.93,4.93,0,0,0,18,35.6,5.41,5.41,0,0,0,22.07,34a6.64,6.64,0,0,0,1.68-4.5Z"/><path class="cls-1" d="M66.29,44.4a15,15,0,0,1-1,5.59,12,12,0,0,1-7.14,7,17.23,17.23,0,0,1-11.73-.12,12.85,12.85,0,0,1-4.61-3.12,14.49,14.49,0,0,1-3-4.82,17.7,17.7,0,0,1-1.05-6.27,22.38,22.38,0,0,1,1.27-7.38,38.84,38.84,0,0,1,3.32-7.11A50.48,50.48,0,0,1,47,21.6,59.46,59.46,0,0,1,52.13,16H62.27a62.41,62.41,0,0,0-7.43,8,65.26,65.26,0,0,0-6.07,9.3q.94-.54,1.71-.9a11.27,11.27,0,0,1,1.44-.57,8.08,8.08,0,0,1,1.38-.3,12.65,12.65,0,0,1,1.59-.09,11.2,11.2,0,0,1,4.61.93,10.39,10.39,0,0,1,3.59,2.67,12.72,12.72,0,0,1,2.34,4.09A15.23,15.23,0,0,1,66.29,44.4Zm-8,.16a5.92,5.92,0,0,0-1.43-4.18,4.91,4.91,0,0,0-3.8-1.54,7.92,7.92,0,0,0-5.57,2.35q-.18.9-.24,1.35a9.26,9.26,0,0,0-.06,1.18,6.69,6.69,0,0,0,1.62,4.66,5.47,5.47,0,0,0,4.25,1.8,4.91,4.91,0,0,0,3.8-1.55A5.76,5.76,0,0,0,58.31,44.56Z"/></svg>