<svg id="Layer_1" data-name="Layer 1" xmlns="http://www.w3.org/2000/svg" viewBox="0 0 69.71 64.98"><defs><style>.cls-1{fill:#b7b6b6;stroke:#040421;}</style></defs><path class="cls-1" d="M39.41,39a8.35,8.35,0,0,1-3.29,6.79,12.24,12.24,0,0,1-3.91,1.95,17.77,17.77,0,0,1-5.1.69,21.71,21.71,0,0,1-3.88-.31,13.88,13.88,0,0,1-3.22-1,12.39,12.39,0,0,1-2.85-1.8,21.29,21.29,0,0,1-2.7-2.74l3.3-4.45q3.9,4.4,8.35,4.39A6.06,6.06,0,0,0,30,41.36a4,4,0,0,0,1.53-3.06,3.9,3.9,0,0,0-.4-2.17,4,4,0,0,0-1.7-1.68,9.69,9.69,0,0,0-3.35-1,26.42,26.42,0,0,0-5.3-.1V27.46a35.93,35.93,0,0,0,5,.06,9.11,9.11,0,0,0,3.1-.68,3.36,3.36,0,0,0,1.6-1.42A4.55,4.55,0,0,0,31,23.23a3.63,3.63,0,0,0-1.45-2.77A5.71,5.71,0,0,0,26,19.41a8.4,8.4,0,0,0-3.55.79,14.19,14.19,0,0,0-3.6,2.53L16,18q3.75-4.48,11.55-4.49a14.72,14.72,0,0,1,4.41.63,10,10,0,0,1,3.36,1.8,7.87,7.87,0,0,1,2.15,2.78,8.61,8.61,0,0,1,.75,3.66,7.57,7.57,0,0,1-1.45,4.81A11.27,11.27,0,0,1,32,30.41a9.39,9.39,0,0,1,5.53,2.82A8.35,8.35,0,0,1,39.41,39Z"/><path class="cls-1" d="M67.11,37.15a12.56,12.56,0,0,1-.83,4.66,10,10,0,0,1-6,5.8,14.47,14.47,0,0,1-9.77-.1,10.66,10.66,0,0,1-3.85-2.6,12.07,12.07,0,0,1-2.47-4,14.58,14.58,0,0,1-.88-5.22,18.59,18.59,0,0,1,1.06-6.15,32.2,32.2,0,0,1,2.77-5.93A42.87,42.87,0,0,1,51,18.15a52.71,52.71,0,0,1,4.3-4.64h8.45a52.54,52.54,0,0,0-6.19,6.71A53.5,53.5,0,0,0,52.51,28c.53-.3,1-.55,1.43-.75a9.73,9.73,0,0,1,1.19-.47,6.47,6.47,0,0,1,1.16-.25,10.4,10.4,0,0,1,1.32-.08,9.13,9.13,0,0,1,3.84.79,8.6,8.6,0,0,1,3,2.21,10.81,10.81,0,0,1,2,3.42A12.79,12.79,0,0,1,67.11,37.15Zm-6.65.14a5,5,0,0,0-1.19-3.49,4.1,4.1,0,0,0-3.17-1.29,6.59,6.59,0,0,0-4.64,2c-.1.5-.17.87-.2,1.12a6.67,6.67,0,0,0,0,1,5.58,5.58,0,0,0,1.35,3.89A4.56,4.56,0,0,0,56.1,42a4.09,4.09,0,0,0,3.17-1.28A4.82,4.82,0,0,0,60.46,37.29Z"/></svg>