<svg id="Layer_1" data-name="Layer 1" xmlns="http://www.w3.org/2000/svg" viewBox="0 0 69.71 64.98"><defs><style>.cls-1{fill:#ffe8d9;stroke:#2d1606;stroke-miterlimit:10;}</style></defs><path class="cls-1" d="M17.08,54.9H8L23.74,20.1H4.9V13H33.16v6.24Z"/><path class="cls-1" d="M64.07,54.9H56l.48-17.7a11,11,0,0,1-3.42,2.1,11.92,11.92,0,0,1-4,.6,12.64,12.64,0,0,1-5-1,11.11,11.11,0,0,1-3.88-2.73A12,12,0,0,1,37.69,32a16.48,16.48,0,0,1-.87-5.52,16,16,0,0,1,1.06-6,12.27,12.27,0,0,1,7.68-7.38,18.41,18.41,0,0,1,6.2-1c4.16,0,7.4,1.17,9.73,3.48s3.41,5.54,3.29,9.66ZM56.44,24.36a4.71,4.71,0,0,0-.38-1.95A5.31,5.31,0,0,0,55,20.88a4.93,4.93,0,0,0-1.66-1,5.76,5.76,0,0,0-2-.36,5.56,5.56,0,0,0-4.38,1.86,7.5,7.5,0,0,0-1.62,5.1A6.63,6.63,0,0,0,46.69,31a4.94,4.94,0,0,0,3.94,1.62A5.42,5.42,0,0,0,54.71,31a6.74,6.74,0,0,0,1.68-4.5Z"/></svg>