<svg id="Layer_1" data-name="Layer 1" xmlns="http://www.w3.org/2000/svg" viewBox="0 0 69.71 64.98"><defs><style>.cls-1{fill:#022749;}</style></defs><path class="cls-1" d="M29.77,47h-5.9l.36-13a8.19,8.19,0,0,1-2.51,1.54,8.9,8.9,0,0,1-2.95.44,9.24,9.24,0,0,1-3.67-.71,7.93,7.93,0,0,1-2.84-2,9,9,0,0,1-1.83-3.1,12.2,12.2,0,0,1-.64-4,12,12,0,0,1,.77-4.38,9.05,9.05,0,0,1,5.64-5.41,13.62,13.62,0,0,1,4.55-.72,9.64,9.64,0,0,1,7.13,2.55,9.16,9.16,0,0,1,2.42,7.08Zm-5.59-22.4a3.48,3.48,0,0,0-.28-1.43A3.7,3.7,0,0,0,23.1,22a3.54,3.54,0,0,0-1.21-.75A4.32,4.32,0,0,0,20.4,21a4,4,0,0,0-3.21,1.36A5.47,5.47,0,0,0,16,26.1a4.85,4.85,0,0,0,1,3.3,3.63,3.63,0,0,0,2.88,1.19,4,4,0,0,0,3-1.19,4.88,4.88,0,0,0,1.23-3.3Z"/><path class="cls-1" d="M34.43,47l0-3.46q1.37-1.59,2.88-3.17c1-1,2-2.09,3-3.13s2-2.05,2.86-3a28.65,28.65,0,0,0,2.4-3,16.81,16.81,0,0,0,1.65-3,7.65,7.65,0,0,0,.62-3,3.24,3.24,0,0,0-1.15-2.59,4.15,4.15,0,0,0-2.81-1,4.68,4.68,0,0,0-2.14.48,5.32,5.32,0,0,0-1.62,1.22A8.45,8.45,0,0,0,39,25a13.38,13.38,0,0,0-.86,1.8l-4.22-3.07c.29-.67.66-1.42,1.1-2.27A8.66,8.66,0,0,1,36.92,19a10.63,10.63,0,0,1,3.26-1.94,13.79,13.79,0,0,1,5.12-.8,12.29,12.29,0,0,1,3.88.58,8.55,8.55,0,0,1,3,1.65,7,7,0,0,1,1.93,2.59,8.34,8.34,0,0,1,.68,3.41,11.56,11.56,0,0,1-1.3,5.23,27.73,27.73,0,0,1-3.15,4.87,36.64,36.64,0,0,1-3.87,4.14q-2,1.85-3.43,3.05h12V47Z"/></svg>