<svg id="Layer_1" data-name="Layer 1" xmlns="http://www.w3.org/2000/svg" viewBox="0 0 69.71 64.98"><defs><style>.cls-1{fill:#ffe8d9;stroke:#2d1606;stroke-miterlimit:10;}</style></defs><path class="cls-1" d="M32.89,41.9a10.3,10.3,0,0,1-1,4.56A10.19,10.19,0,0,1,28.94,50a14.42,14.42,0,0,1-4.69,2.34,21,21,0,0,1-6.12.84,26.19,26.19,0,0,1-4.65-.38,16.15,16.15,0,0,1-3.87-1.19,14.87,14.87,0,0,1-3.42-2.16A25.32,25.32,0,0,1,3,46.2l4-5.34q4.68,5.28,10,5.28a7.24,7.24,0,0,0,4.71-1.39,4.82,4.82,0,0,0,1.83-3.67A4.72,4.72,0,0,0,23,38.47a4.94,4.94,0,0,0-2-2,11.82,11.82,0,0,0-4-1.18,32.3,32.3,0,0,0-6.36-.12V28.08a44.2,44.2,0,0,0,6,.06,10.73,10.73,0,0,0,3.72-.81,4.06,4.06,0,0,0,1.92-1.71A5.46,5.46,0,0,0,22.81,23a4.32,4.32,0,0,0-1.74-3.32,6.85,6.85,0,0,0-4.32-1.26,10,10,0,0,0-4.26.94,17.29,17.29,0,0,0-4.32,3L4.81,16.73q4.5-5.38,13.86-5.39a17.38,17.38,0,0,1,5.29.75,11.93,11.93,0,0,1,4,2.16,9.55,9.55,0,0,1,2.58,3.34,10.45,10.45,0,0,1,.9,4.38,9.12,9.12,0,0,1-1.74,5.78A13.57,13.57,0,0,1,24,31.62,11.24,11.24,0,0,1,30.61,35,10,10,0,0,1,32.89,41.9Z"/><path class="cls-1" d="M67.57,31.56q0,11.43-3.94,16.55T51.94,53.22q-7.75,0-11.69-5.14T36.31,32.31q0-10.58,3.94-15.77t11.69-5.2Q67.57,11.34,67.57,31.56Zm-9.42.34Q58,25,56.58,22a4.72,4.72,0,0,0-4.58-3,5.05,5.05,0,0,0-4.65,3.2q-1.44,3.11-1.62,10.6c.12,4.16.64,7.29,1.57,9.37A5,5,0,0,0,52,45.48a4.78,4.78,0,0,0,4.5-3.12Q58,39.24,58.15,31.9Z"/></svg>