<svg id="Layer_1" data-name="Layer 1" xmlns="http://www.w3.org/2000/svg" viewBox="0 0 69.71 64.98"><defs><style>.cls-1{fill:#022749;}</style></defs><path class="cls-1" d="M17.44,43.77v-24q-.89,1-1.68,1.83c-.52.54-1.1,1.12-1.71,1.74l-2.91-4c.88-.77,1.74-1.53,2.56-2.29s1.42-1.33,2.15-2.06a26.66,26.66,0,0,0,1.82-2h5.62V43.77Z"/><path class="cls-1" d="M51.71,43.77H45.82l.35-13a7.89,7.89,0,0,1-2.51,1.54,8.86,8.86,0,0,1-2.95.44,9.24,9.24,0,0,1-3.67-.7,8.18,8.18,0,0,1-2.84-2A9.08,9.08,0,0,1,32.37,27a12.21,12.21,0,0,1-.63-4.05,11.69,11.69,0,0,1,.77-4.37,9.08,9.08,0,0,1,2.17-3.32,9.48,9.48,0,0,1,3.46-2.1,13.62,13.62,0,0,1,4.55-.72A9.64,9.64,0,0,1,49.82,15,9.16,9.16,0,0,1,52.24,22Zm-5.59-22.4a3.51,3.51,0,0,0-.28-1.43,3.8,3.8,0,0,0-.79-1.12,3.74,3.74,0,0,0-1.21-.75,4.38,4.38,0,0,0-1.5-.26,4,4,0,0,0-3.21,1.37,5.48,5.48,0,0,0-1.19,3.73,4.9,4.9,0,0,0,1,3.31,3.63,3.63,0,0,0,2.89,1.18,4,4,0,0,0,3-1.18,4.93,4.93,0,0,0,1.23-3.31Z"/></svg>