<svg id="Layer_1" data-name="Layer 1" xmlns="http://www.w3.org/2000/svg" viewBox="0 0 69.71 64.98"><defs><style>.cls-1{fill:#868687;}</style></defs><path class="cls-1" d="M20.2,45.67v-24c-.59.68-1.14,1.29-1.67,1.83l-1.72,1.74-2.9-4c.88-.76,1.73-1.52,2.55-2.29s1.42-1.33,2.16-2.06a26.5,26.5,0,0,0,1.81-2h5.62V45.67Z"/><path class="cls-1" d="M55.66,37.37a7.48,7.48,0,0,1-.74,3.35,7.3,7.3,0,0,1-2.15,2.62,10.47,10.47,0,0,1-3.44,1.72,15.43,15.43,0,0,1-4.49.61,19.57,19.57,0,0,1-3.41-.27,12.86,12.86,0,0,1-2.84-.87,11.26,11.26,0,0,1-2.51-1.59,18.73,18.73,0,0,1-2.37-2.41l2.9-3.92Q40,40.48,44,40.48a5.35,5.35,0,0,0,3.45-1,3.52,3.52,0,0,0,1.34-2.7,3.36,3.36,0,0,0-.35-1.91,3.52,3.52,0,0,0-1.49-1.47A8.56,8.56,0,0,0,44,32.52a23.13,23.13,0,0,0-4.66-.09V27.24a31.55,31.55,0,0,0,4.42,0,7.82,7.82,0,0,0,2.73-.59,3,3,0,0,0,1.4-1.25,4,4,0,0,0,.42-1.93A3.15,3.15,0,0,0,47,21.08a5,5,0,0,0-3.16-.93,7.4,7.4,0,0,0-3.13.69,12.89,12.89,0,0,0-3.16,2.24l-2.47-4.17Q38.37,15,45.24,15a12.66,12.66,0,0,1,3.88.56,8.75,8.75,0,0,1,3,1.57A6.94,6.94,0,0,1,54,19.54a7.6,7.6,0,0,1,.66,3.22A6.71,6.71,0,0,1,53.35,27a10,10,0,0,1-4.22,2.83A8.26,8.26,0,0,1,54,32.31,7.34,7.34,0,0,1,55.66,37.37Z"/></svg>