<svg id="Layer_1" data-name="Layer 1" xmlns="http://www.w3.org/2000/svg" viewBox="0 0 69.71 64.98"><defs><style>.cls-1{fill:#87786f;stroke:#2d1606;stroke-miterlimit:10;}</style></defs><path class="cls-1" d="M16.66,54.9H7.6L23.32,20.1H4.48V13H32.74v6.24Z"/><path class="cls-1" d="M66,44.34a9.14,9.14,0,0,1-3.76,7.77Q58.46,54.9,51.75,54.9a22.94,22.94,0,0,1-6.25-.79,15.67,15.67,0,0,1-4.81-2.2,10.34,10.34,0,0,1-3.12-3.42A9.15,9.15,0,0,1,36.46,44a9,9,0,0,1,2-6.05,16.84,16.84,0,0,1,6.69-4.25q-2.46-1.53-4-2.68a11.31,11.31,0,0,1-2.31-2.26,6.7,6.7,0,0,1-1.11-2.36,12.55,12.55,0,0,1-.3-2.94A9.21,9.21,0,0,1,41,15.73Q44.44,13,51.64,13a21.25,21.25,0,0,1,5.67.71,13.44,13.44,0,0,1,4.35,2,8.67,8.67,0,0,1,3.72,7.31,9.32,9.32,0,0,1-1.77,5.7,17.46,17.46,0,0,1-5.85,4.57A14.86,14.86,0,0,1,64,37.84,10.63,10.63,0,0,1,66,44.34Zm-8-.76a4.17,4.17,0,0,0-.48-2.07A4.7,4.7,0,0,0,56.11,40a13.4,13.4,0,0,0-2.22-1.24C53,38.36,52.06,38,51,37.56A12.31,12.31,0,0,0,46.6,39.8a4,4,0,0,0-1.26,3.06,4.26,4.26,0,0,0,1.8,3.64A8,8,0,0,0,52,47.82a7.41,7.41,0,0,0,4.38-1.15A3.64,3.64,0,0,0,58,43.58Zm-1.14-19a3.88,3.88,0,0,0-1.59-3.2A6.63,6.63,0,0,0,51.1,20.1a5.76,5.76,0,0,0-3.72,1.16,3.6,3.6,0,0,0-1.44,2.95c0,2.09,1.92,4,5.76,5.61a9,9,0,0,0,4-2.27A4.47,4.47,0,0,0,56.86,24.54Z"/></svg>