<svg id="Layer_1" data-name="Layer 1" xmlns="http://www.w3.org/2000/svg" viewBox="0 0 69.71 64.98"><defs><style>.cls-1{fill:#868687;}</style></defs><path class="cls-1" d="M19.53,47.66H12.88L24.41,22.14H10.59V17H31.32v4.56Z"/><path class="cls-1" d="M55.69,39.91a6.71,6.71,0,0,1-2.76,5.7c-1.83,1.36-4.39,2-7.67,2a17.13,17.13,0,0,1-4.58-.58,11.61,11.61,0,0,1-3.53-1.62A7.39,7.39,0,0,1,34.86,43a7.25,7.25,0,0,1,.66-7.74,12.44,12.44,0,0,1,4.91-3.11,34.15,34.15,0,0,1-2.91-2,8.34,8.34,0,0,1-1.69-1.66A5,5,0,0,1,35,26.75a9.71,9.71,0,0,1-.22-2.16,6.74,6.74,0,0,1,2.56-5.66q2.55-2,7.83-2a15.85,15.85,0,0,1,4.16.51,10,10,0,0,1,3.19,1.48,6.46,6.46,0,0,1,2,2.31,6.55,6.55,0,0,1,.7,3.05A6.8,6.8,0,0,1,54,28.48a12.81,12.81,0,0,1-4.28,3.35,11,11,0,0,1,4.59,3.31A7.87,7.87,0,0,1,55.69,39.91Zm-5.85-.56a3.13,3.13,0,0,0-.35-1.52,3.51,3.51,0,0,0-1-1.11,9.35,9.35,0,0,0-1.62-.91c-.63-.28-1.34-.57-2.14-.87a9,9,0,0,0-3.21,1.64,3,3,0,0,0-.92,2.24,3.12,3.12,0,0,0,1.32,2.67,5.87,5.87,0,0,0,3.56,1,5.46,5.46,0,0,0,3.21-.84A2.65,2.65,0,0,0,49.84,39.35Zm-.83-14A2.85,2.85,0,0,0,47.84,23a4.88,4.88,0,0,0-3.06-.9,4.28,4.28,0,0,0-2.73.84,2.66,2.66,0,0,0-1,2.17c0,1.53,1.41,2.91,4.22,4.12a6.73,6.73,0,0,0,3-1.67A3.28,3.28,0,0,0,49,25.39Z"/></svg>