<svg id="Layer_1" data-name="Layer 1" xmlns="http://www.w3.org/2000/svg" viewBox="0 0 69.71 64.98"><defs><style>.cls-1{fill:#022749;}</style></defs><path class="cls-1" d="M41.79,40.62A6.71,6.71,0,0,1,39,46.32c-1.84,1.36-4.4,2-7.67,2a17.07,17.07,0,0,1-4.58-.58,11.5,11.5,0,0,1-3.53-1.62A7.39,7.39,0,0,1,21,43.66a7.25,7.25,0,0,1,.66-7.74,12.39,12.39,0,0,1,4.9-3.11c-1.2-.75-2.17-1.4-2.9-2a8.34,8.34,0,0,1-1.69-1.66,5,5,0,0,1-.82-1.73,9.15,9.15,0,0,1-.22-2.16,6.76,6.76,0,0,1,2.55-5.66c1.7-1.32,4.32-2,7.84-2a15.71,15.71,0,0,1,4.15.52,9.9,9.9,0,0,1,3.19,1.48,6.49,6.49,0,0,1,2,2.31,6.55,6.55,0,0,1,.7,3.05,6.8,6.8,0,0,1-1.3,4.18,12.76,12.76,0,0,1-4.29,3.35,10.93,10.93,0,0,1,4.6,3.31A7.87,7.87,0,0,1,41.79,40.62Zm-5.85-.56a3.13,3.13,0,0,0-.35-1.52,3.51,3.51,0,0,0-1-1.11,9.35,9.35,0,0,0-1.62-.91c-.64-.28-1.35-.57-2.14-.87a9,9,0,0,0-3.21,1.64,2.93,2.93,0,0,0-.92,2.24A3.13,3.13,0,0,0,28,42.2a5.9,5.9,0,0,0,3.57,1,5.46,5.46,0,0,0,3.21-.84A2.68,2.68,0,0,0,35.94,40.06Zm-.84-14a2.87,2.87,0,0,0-1.16-2.35,4.88,4.88,0,0,0-3.06-.9,4.26,4.26,0,0,0-2.73.84,2.66,2.66,0,0,0-1,2.17c0,1.53,1.4,2.91,4.22,4.12a6.73,6.73,0,0,0,3-1.67A3.32,3.32,0,0,0,35.1,26.1Z"/></svg>