<svg id="Layer_1" data-name="Layer 1" xmlns="http://www.w3.org/2000/svg" viewBox="0 0 69.71 64.98"><defs><style>.cls-1{fill:#868687;}</style></defs><path class="cls-1" d="M34.72,36.16a9.22,9.22,0,0,1-2.85,7.24Q29,46,23.9,46a15,15,0,0,1-5.84-1.12,12.91,12.91,0,0,1-4.64-3.3l2.47-4.34c2.61,2.38,5.16,3.56,7.65,3.56a5.87,5.87,0,0,0,3.83-1.2,3.79,3.79,0,0,0,1.5-3.1,4.29,4.29,0,0,0-1.26-3.35A5.2,5.2,0,0,0,24,32a5.16,5.16,0,0,0-2.31.51A9.46,9.46,0,0,0,19.5,34l-3.79-2.15.44-16.64h17.6l0,5.2h-12l-.22,7.21,1.11-.5a7.9,7.9,0,0,1,.92-.33,4.8,4.8,0,0,1,1-.18c.34,0,.73,0,1.16,0a9.52,9.52,0,0,1,3.67.69,8.11,8.11,0,0,1,2.84,1.94,9.05,9.05,0,0,1,1.84,3A11.18,11.18,0,0,1,34.72,36.16Z"/><path class="cls-1" d="M48.09,46V22c-.58.67-1.14,1.28-1.67,1.82s-1.1,1.12-1.71,1.74l-2.91-4q1.32-1.14,2.55-2.28,1.07-1,2.16-2.07a26.86,26.86,0,0,0,1.82-2H54V46Z"/></svg>