<svg id="Layer_1" data-name="Layer 1" xmlns="http://www.w3.org/2000/svg" viewBox="0 0 69.71 64.98"><defs><style>.cls-1{fill:#868687;}</style></defs><path class="cls-1" d="M32.51,36.49a9.22,9.22,0,0,1-2.85,7.24q-2.84,2.55-8,2.55a15,15,0,0,1-5.85-1.12,12.87,12.87,0,0,1-4.63-3.3l2.46-4.34c2.61,2.38,5.17,3.56,7.66,3.56a5.89,5.89,0,0,0,3.83-1.2,3.8,3.8,0,0,0,1.49-3.1,4.29,4.29,0,0,0-1.25-3.35,5.23,5.23,0,0,0-3.63-1.15,5.16,5.16,0,0,0-2.31.51,9.5,9.5,0,0,0-2.18,1.56L13.5,32.2l.44-16.64h17.6l0,5.2h-12L19.35,28l1.11-.5a7.29,7.29,0,0,1,.92-.33,4.8,4.8,0,0,1,1-.18c.34,0,.73,0,1.15,0a9.53,9.53,0,0,1,3.68.69A8.2,8.2,0,0,1,30,29.55a9,9,0,0,1,1.83,3A11.18,11.18,0,0,1,32.51,36.49Z"/><path class="cls-1" d="M56,46.28H50.11l.35-13A8.27,8.27,0,0,1,48,34.84a8.86,8.86,0,0,1-3,.44,9.24,9.24,0,0,1-3.67-.71,8.05,8.05,0,0,1-2.84-2,9,9,0,0,1-1.83-3.1,12.21,12.21,0,0,1-.63-4A12,12,0,0,1,36.79,21a9.05,9.05,0,0,1,5.64-5.41A13.61,13.61,0,0,1,47,14.9a9.65,9.65,0,0,1,7.13,2.56,9.16,9.16,0,0,1,2.42,7.08Zm-5.59-22.4a3.48,3.48,0,0,0-.28-1.43,3.48,3.48,0,0,0-2-1.87,4.45,4.45,0,0,0-4.7,1.1,5.47,5.47,0,0,0-1.19,3.74,4.85,4.85,0,0,0,1,3.3,3.63,3.63,0,0,0,2.89,1.19,4,4,0,0,0,3-1.19,4.88,4.88,0,0,0,1.23-3.3Z"/></svg>