<svg id="Layer_1" data-name="Layer 1" xmlns="http://www.w3.org/2000/svg" viewBox="0 0 69.71 64.98"><defs><style>.cls-1{fill:#87786f;stroke:#2d1606;stroke-miterlimit:10;}</style></defs><path class="cls-1" d="M5.66,53.22l.06-4.71c1.24-1.45,2.55-2.9,3.93-4.33l4.11-4.27c1.36-1.41,2.66-2.8,3.9-4.15a37.06,37.06,0,0,0,3.27-4.09,23,23,0,0,0,2.25-4.06A10.45,10.45,0,0,0,24,23.54,4.45,4.45,0,0,0,22.46,20a5.66,5.66,0,0,0-3.84-1.35,6.42,6.42,0,0,0-2.91.64A7.37,7.37,0,0,0,13.49,21a12.15,12.15,0,0,0-1.62,2.25,18.83,18.83,0,0,0-1.17,2.45L4.94,21.48q.6-1.35,1.5-3.09a12.1,12.1,0,0,1,2.61-3.31,14.56,14.56,0,0,1,4.44-2.65,19,19,0,0,1,7-1.09,16.82,16.82,0,0,1,5.29.79,11.88,11.88,0,0,1,4.12,2.25,9.72,9.72,0,0,1,2.63,3.54,11.38,11.38,0,0,1,.92,4.65,15.69,15.69,0,0,1-1.77,7.13,37.59,37.59,0,0,1-4.29,6.64A49.32,49.32,0,0,1,22.1,42q-2.76,2.52-4.68,4.16H33.8v7.08Z"/><path class="cls-1" d="M51.38,53.22V20.5Q50.18,21.88,49.1,23t-2.34,2.37L42.8,20q1.8-1.56,3.48-3.12,1.44-1.32,2.94-2.82a36.08,36.08,0,0,0,2.47-2.69h7.67V53.22Z"/></svg>