<svg id="Layer_1" data-name="Layer 1" xmlns="http://www.w3.org/2000/svg" viewBox="0 0 69.71 64.98"><defs><style>.cls-1{fill:#b7b6b6;stroke:#040421;}</style></defs><path class="cls-1" d="M31.82,36.75c0,3.55-1.07,6.29-3.23,8.22s-5.17,2.9-9.06,2.9a16.9,16.9,0,0,1-6.64-1.27,14.65,14.65,0,0,1-5.27-3.75l2.8-4.93q4.46,4,8.7,4a6.71,6.71,0,0,0,4.35-1.36,4.31,4.31,0,0,0,1.7-3.53,4.91,4.91,0,0,0-1.42-3.81A5.91,5.91,0,0,0,19.62,32a5.79,5.79,0,0,0-2.62.58,10.68,10.68,0,0,0-2.48,1.77l-4.3-2.45.5-18.9h20l.05,5.9H17.12l-.25,8.2c.49-.23.91-.42,1.27-.57a9.39,9.39,0,0,1,1-.38,6,6,0,0,1,1.09-.2c.39,0,.83-.05,1.31-.05a10.73,10.73,0,0,1,4.18.79A9.12,9.12,0,0,1,29,28.87a10.08,10.08,0,0,1,2.09,3.44A12.69,12.69,0,0,1,31.82,36.75Z"/><path class="cls-1" d="M60.47,39.07a7.6,7.6,0,0,1-3.13,6.47c-2.09,1.56-5,2.33-8.73,2.33a19.11,19.11,0,0,1-5.2-.66,12.9,12.9,0,0,1-4-1.84,8.3,8.3,0,0,1-2.6-2.85,7.55,7.55,0,0,1-.93-3.74,7.53,7.53,0,0,1,1.68-5.05,13.89,13.89,0,0,1,5.57-3.53c-1.36-.85-2.46-1.6-3.3-2.24a9.08,9.08,0,0,1-1.92-1.89,5.6,5.6,0,0,1-.93-2,10.87,10.87,0,0,1-.25-2.45,7.67,7.67,0,0,1,2.9-6.43c1.94-1.5,4.9-2.26,8.9-2.26a17.8,17.8,0,0,1,4.73.59,11.52,11.52,0,0,1,3.62,1.67,7.24,7.24,0,0,1,3.1,6.1,7.73,7.73,0,0,1-1.47,4.74,14.47,14.47,0,0,1-4.88,3.81,12.49,12.49,0,0,1,5.22,3.77A8.87,8.87,0,0,1,60.47,39.07Zm-6.65-.64a3.42,3.42,0,0,0-.4-1.72,3.89,3.89,0,0,0-1.17-1.27,11.73,11.73,0,0,0-1.85-1q-1.08-.48-2.43-1a10.22,10.22,0,0,0-3.65,1.86,3.35,3.35,0,0,0-1,2.55,3.57,3.57,0,0,0,1.5,3,6.73,6.73,0,0,0,4,1.1,6.17,6.17,0,0,0,3.65-1A3,3,0,0,0,53.82,38.43Zm-1-15.86a3.24,3.24,0,0,0-1.32-2.67,5.56,5.56,0,0,0-3.48-1,4.82,4.82,0,0,0-3.1,1,3,3,0,0,0-1.2,2.46q0,2.63,4.8,4.68a7.54,7.54,0,0,0,3.35-1.89A3.71,3.71,0,0,0,52.87,22.57Z"/></svg>