<svg id="Layer_1" data-name="Layer 1" xmlns="http://www.w3.org/2000/svg" viewBox="0 0 69.71 64.98"><defs><style>.cls-1{fill:#868687;}</style></defs><path class="cls-1" d="M33.21,40.69a6.71,6.71,0,0,1-2.76,5.7c-1.84,1.36-4.4,2-7.68,2a17.18,17.18,0,0,1-4.58-.58,11.72,11.72,0,0,1-3.53-1.62,7.46,7.46,0,0,1-2.28-2.51A7.25,7.25,0,0,1,13,36a12.39,12.39,0,0,1,4.9-3.11c-1.2-.75-2.17-1.4-2.9-2a8.18,8.18,0,0,1-1.7-1.67,5,5,0,0,1-.81-1.72,9.15,9.15,0,0,1-.22-2.16,6.75,6.75,0,0,1,2.55-5.66c1.7-1.32,4.31-2,7.83-2a15.79,15.79,0,0,1,4.16.52A10.11,10.11,0,0,1,30,19.71a6.36,6.36,0,0,1,2.73,5.37,6.77,6.77,0,0,1-1.3,4.17,12.65,12.65,0,0,1-4.29,3.36,10.82,10.82,0,0,1,4.59,3.31A7.81,7.81,0,0,1,33.21,40.69Zm-5.85-.56A3,3,0,0,0,27,38.61a3.27,3.27,0,0,0-1-1.11,9.46,9.46,0,0,0-1.63-.91q-.94-.42-2.13-.87A8.86,8.86,0,0,0,19,37.36a2.93,2.93,0,0,0-.93,2.24,3.12,3.12,0,0,0,1.32,2.67,5.88,5.88,0,0,0,3.57,1,5.46,5.46,0,0,0,3.21-.84A2.68,2.68,0,0,0,27.36,40.13Zm-.84-14a2.87,2.87,0,0,0-1.16-2.35,4.88,4.88,0,0,0-3.06-.9,4.24,4.24,0,0,0-2.73.84,2.67,2.67,0,0,0-1.06,2.16c0,1.54,1.41,2.92,4.23,4.12a6.63,6.63,0,0,0,3-1.66A3.34,3.34,0,0,0,26.52,26.17Z"/><path class="cls-1" d="M55.65,48.44h-5.9l.36-13A8.39,8.39,0,0,1,47.6,37a8.9,8.9,0,0,1-3,.44A9.2,9.2,0,0,1,41,36.73a8.05,8.05,0,0,1-2.84-2,9,9,0,0,1-1.83-3.1,12.2,12.2,0,0,1-.64-4.05,12,12,0,0,1,.77-4.38,9.07,9.07,0,0,1,5.63-5.41,13.72,13.72,0,0,1,4.56-.73,9.65,9.65,0,0,1,7.13,2.56,9.2,9.2,0,0,1,2.42,7.08ZM50.06,26a3.48,3.48,0,0,0-.28-1.43,3.7,3.7,0,0,0-.8-1.12,3.54,3.54,0,0,0-1.21-.75,4.1,4.1,0,0,0-1.49-.26,4,4,0,0,0-3.21,1.36,5.47,5.47,0,0,0-1.19,3.74,4.85,4.85,0,0,0,1,3.3,3.63,3.63,0,0,0,2.88,1.19,4,4,0,0,0,3-1.19A4.84,4.84,0,0,0,50,27.58Z"/></svg>