<svg id="Layer_1" data-name="Layer 1" xmlns="http://www.w3.org/2000/svg" viewBox="0 0 69.71 64.98"><defs><style>.cls-1{fill:#868687;}</style></defs><path class="cls-1" d="M21.56,47.66H14.91L26.44,22.14H12.62V17H33.35v4.56Z"/><path class="cls-1" d="M56.67,37.87a9.22,9.22,0,0,1-2.85,7.24q-2.84,2.55-8,2.55A15,15,0,0,1,40,46.54a12.91,12.91,0,0,1-4.64-3.3l2.46-4.34c2.61,2.38,5.17,3.56,7.66,3.56a5.89,5.89,0,0,0,3.83-1.2,3.79,3.79,0,0,0,1.5-3.1,4.29,4.29,0,0,0-1.26-3.35,5.23,5.23,0,0,0-3.63-1.15,5.16,5.16,0,0,0-2.31.51,9.5,9.5,0,0,0-2.18,1.56l-3.78-2.15L38.1,17H55.7l0,5.19h-12l-.22,7.21,1.11-.5a7.29,7.29,0,0,1,.92-.33,4.8,4.8,0,0,1,1-.18c.34,0,.73,0,1.15,0a9.53,9.53,0,0,1,3.68.69,8.2,8.2,0,0,1,2.84,1.94A9,9,0,0,1,56,34,11,11,0,0,1,56.67,37.87Z"/></svg>