<svg id="Layer_1" data-name="Layer 1" xmlns="http://www.w3.org/2000/svg" viewBox="0 0 69.71 64.98"><defs><style>.cls-1{fill:#022749;}</style></defs><path class="cls-1" d="M28.67,46.2h-5.9l.35-13a7.86,7.86,0,0,1-2.5,1.54,8.69,8.69,0,0,1-2.95.44A9.29,9.29,0,0,1,14,34.5a8.14,8.14,0,0,1-2.83-2,9,9,0,0,1-1.83-3.1,12,12,0,0,1-.64-4A11.91,11.91,0,0,1,9.46,21a9.07,9.07,0,0,1,5.63-5.41,13.46,13.46,0,0,1,4.56-.73,9.66,9.66,0,0,1,7.13,2.55,9.24,9.24,0,0,1,2.42,7.09ZM23.08,23.81a3.45,3.45,0,0,0-.29-1.43A3.4,3.4,0,0,0,22,21.26a3.34,3.34,0,0,0-1.21-.75,4.14,4.14,0,0,0-1.49-.27,4.07,4.07,0,0,0-3.22,1.37,5.5,5.5,0,0,0-1.18,3.74,4.85,4.85,0,0,0,1,3.3,3.63,3.63,0,0,0,2.88,1.19,4,4,0,0,0,3-1.19A4.84,4.84,0,0,0,23,25.35Z"/><path class="cls-1" d="M55.29,30.32q0,8.38-2.89,12.13T43.83,46.2c-3.8,0-6.65-1.25-8.58-3.77s-2.89-6.37-2.89-11.56,1-9,2.89-11.57,4.78-3.81,8.58-3.81Q55.29,15.49,55.29,30.32Zm-6.91.25q-.14-5.07-1.15-7.23a3.46,3.46,0,0,0-3.36-2.17,3.71,3.71,0,0,0-3.41,2.35c-.71,1.51-1.1,4.1-1.19,7.77a19.14,19.14,0,0,0,1.15,6.87,3.69,3.69,0,0,0,3.45,2.37,3.53,3.53,0,0,0,3.3-2.29Q48.25,35.95,48.38,30.57Z"/></svg>