<svg id="Layer_1" data-name="Layer 1" xmlns="http://www.w3.org/2000/svg" viewBox="0 0 69.71 64.98"><defs><style>.cls-1{fill:#87786f;stroke:#2d1606;stroke-miterlimit:10;}</style></defs><path class="cls-1" d="M18.44,54.29V21.58q-1.2,1.38-2.28,2.49t-2.34,2.37l-4-5.4q1.8-1.56,3.48-3.12c1-.87,1.94-1.81,2.94-2.81a36,36,0,0,0,2.47-2.7h7.67V54.29Z"/><path class="cls-1" d="M51.38,54.29V21.58Q50.18,23,49.1,24.07t-2.34,2.37l-4-5.4q1.8-1.56,3.48-3.12c1-.87,1.94-1.81,2.94-2.81a36,36,0,0,0,2.47-2.7h7.67V54.29Z"/></svg>