<svg id="Layer_1" data-name="Layer 1" xmlns="http://www.w3.org/2000/svg" viewBox="0 0 69.71 64.98"><defs><style>.cls-1{fill:#022749;}</style></defs><path class="cls-1" d="M31.3,38.12a6.68,6.68,0,0,1-2.76,5.7q-2.76,2.05-7.68,2a16.73,16.73,0,0,1-4.58-.58,11.37,11.37,0,0,1-3.53-1.61,7.69,7.69,0,0,1-2.29-2.51,6.75,6.75,0,0,1-.81-3.3,6.64,6.64,0,0,1,1.47-4.44A12.4,12.4,0,0,1,16,30.32c-1.2-.75-2.17-1.4-2.9-2a8.16,8.16,0,0,1-1.7-1.66A4.87,4.87,0,0,1,10.62,25a9,9,0,0,1-.22-2.15A6.75,6.75,0,0,1,13,17.15q2.55-2,7.83-2a15.38,15.38,0,0,1,4.16.52,10.11,10.11,0,0,1,3.19,1.47,6.57,6.57,0,0,1,2,2.32,6.5,6.5,0,0,1,.71,3.05,6.85,6.85,0,0,1-1.3,4.17A12.71,12.71,0,0,1,25.27,30a11.05,11.05,0,0,1,4.59,3.32A7.8,7.8,0,0,1,31.3,38.12Zm-5.86-.55a3,3,0,0,0-.35-1.52,3.37,3.37,0,0,0-1-1.11A9.18,9.18,0,0,0,22.43,34q-.95-.44-2.13-.87a8.86,8.86,0,0,0-3.21,1.64A2.92,2.92,0,0,0,16.16,37a3.14,3.14,0,0,0,1.32,2.67,5.88,5.88,0,0,0,3.57,1,5.4,5.4,0,0,0,3.21-.85A2.64,2.64,0,0,0,25.44,37.57Zm-.83-14a2.84,2.84,0,0,0-1.17-2.35,4.83,4.83,0,0,0-3.05-.91,4.24,4.24,0,0,0-2.73.85,2.63,2.63,0,0,0-1.06,2.16q0,2.31,4.23,4.12a6.49,6.49,0,0,0,2.94-1.67A3.26,3.26,0,0,0,24.61,23.61Z"/><path class="cls-1" d="M43.44,45.87H36.8L48.33,20.35H34.51V15.16H55.23v4.57Z"/></svg>