<svg id="Layer_1" data-name="Layer 1" xmlns="http://www.w3.org/2000/svg" viewBox="0 0 69.71 64.98"><defs><style>.cls-1{fill:#868687;}</style></defs><path class="cls-1" d="M45.43,40.68a10.85,10.85,0,0,1-.73,4.1,9,9,0,0,1-2.05,3.12,9.19,9.19,0,0,1-3.19,2,12.63,12.63,0,0,1-8.6-.09,9.44,9.44,0,0,1-3.38-2.28A10.81,10.81,0,0,1,25.3,44a13.09,13.09,0,0,1-.77-4.6A16.5,16.5,0,0,1,25.46,34a28.74,28.74,0,0,1,2.44-5.22A37.88,37.88,0,0,1,31.27,24a45.49,45.49,0,0,1,3.78-4.07h7.43A48.16,48.16,0,0,0,32.59,32.6c.46-.26.87-.48,1.25-.66a8.36,8.36,0,0,1,1-.41,5,5,0,0,1,1-.22,8.86,8.86,0,0,1,4.54.62,7.33,7.33,0,0,1,2.63,2,9.31,9.31,0,0,1,1.72,3A11.1,11.1,0,0,1,45.43,40.68Zm-5.85.13a4.33,4.33,0,0,0-1-3.07,3.6,3.6,0,0,0-2.78-1.13,5.78,5.78,0,0,0-4.09,1.73c-.09.44-.15.77-.18,1a6.85,6.85,0,0,0,0,.87,4.93,4.93,0,0,0,1.19,3.42,4,4,0,0,0,3.11,1.31,3.58,3.58,0,0,0,2.79-1.13A4.2,4.2,0,0,0,39.58,40.81Z"/></svg>