<svg id="Layer_1" data-name="Layer 1" xmlns="http://www.w3.org/2000/svg" viewBox="0 0 69.71 64.98"><defs><style>.cls-1{fill:#fff;stroke:#040421;}</style></defs><path class="cls-1" d="M33.24,36.75C33.24,40.3,32.17,43,30,45s-5.17,2.9-9.06,2.9a16.87,16.87,0,0,1-6.64-1.27A14.65,14.65,0,0,1,9,42.85l2.8-4.93q4.46,4,8.7,4a6.71,6.71,0,0,0,4.35-1.36,4.31,4.31,0,0,0,1.7-3.53,4.91,4.91,0,0,0-1.42-3.81A5.91,5.91,0,0,0,21,32a5.79,5.79,0,0,0-2.62.58,10.47,10.47,0,0,0-2.48,1.77l-4.3-2.45.5-18.9h20l0,5.9H18.54l-.25,8.2,1.26-.57a10.34,10.34,0,0,1,1.05-.38,6,6,0,0,1,1.09-.2c.39,0,.83-.05,1.31-.05a10.73,10.73,0,0,1,4.18.79,9.12,9.12,0,0,1,3.22,2.21,10.08,10.08,0,0,1,2.09,3.44A12.69,12.69,0,0,1,33.24,36.75Z"/><path class="cls-1" d="M48.44,47.87V20.61c-.66.77-1.3,1.46-1.9,2.08l-1.95,2-3.3-4.5c1-.86,2-1.73,2.9-2.59s1.62-1.52,2.45-2.35A27.25,27.25,0,0,0,48.7,13h6.39v34.9Z"/></svg>