<svg id="Layer_1" data-name="Layer 1" xmlns="http://www.w3.org/2000/svg" viewBox="0 0 69.71 64.98"><defs><style>.cls-1{fill:#b7b6b6;stroke:#040421;}</style></defs><path class="cls-1" d="M31.08,49.39h-6.7l.4-14.75a9,9,0,0,1-2.85,1.75,9.85,9.85,0,0,1-3.35.5,10.42,10.42,0,0,1-4.18-.8,9.19,9.19,0,0,1-3.22-2.27A10.25,10.25,0,0,1,9.1,30.29a13.79,13.79,0,0,1-.72-4.6,13.54,13.54,0,0,1,.87-5,10.28,10.28,0,0,1,6.4-6.15,15.42,15.42,0,0,1,5.18-.83q5.19,0,8.1,2.9t2.75,8.05ZM24.73,23.94a3.84,3.84,0,0,0-.33-1.62A3.92,3.92,0,0,0,23.5,21a4.07,4.07,0,0,0-1.37-.85,4.83,4.83,0,0,0-1.7-.3,4.59,4.59,0,0,0-3.65,1.55,6.26,6.26,0,0,0-1.35,4.25,5.54,5.54,0,0,0,1.17,3.75,4.13,4.13,0,0,0,3.28,1.35,4.51,4.51,0,0,0,3.4-1.35,5.58,5.58,0,0,0,1.4-3.75Z"/><path class="cls-1" d="M61.33,31.34q0,9.54-3.28,13.79T48.3,49.39q-6.45,0-9.74-4.28T35.28,32q0-8.82,3.28-13.14t9.74-4.34Q61.34,14.49,61.33,31.34Zm-7.85.28q-.15-5.75-1.31-8.21a3.94,3.94,0,0,0-3.82-2.47,4.21,4.21,0,0,0-3.87,2.67c-.8,1.72-1.26,4.67-1.35,8.84a21.51,21.51,0,0,0,1.3,7.8,4.18,4.18,0,0,0,3.92,2.69,4,4,0,0,0,3.75-2.6Q53.33,37.74,53.48,31.62Z"/></svg>