<svg id="Layer_1" data-name="Layer 1" xmlns="http://www.w3.org/2000/svg" viewBox="0 0 69.71 64.98"><defs><style>.cls-1{fill:#fff;stroke:#040421;}</style></defs><path class="cls-1" d="M32.64,48.65h-6.7l.4-14.75a8.83,8.83,0,0,1-2.85,1.75,9.81,9.81,0,0,1-3.35.5,10.58,10.58,0,0,1-4.17-.8,9.23,9.23,0,0,1-3.23-2.27,10.17,10.17,0,0,1-2.07-3.53A13.58,13.58,0,0,1,9.94,25a13.33,13.33,0,0,1,.88-5,10.61,10.61,0,0,1,2.47-3.78,10.77,10.77,0,0,1,3.93-2.37A15.36,15.36,0,0,1,22.39,13q5.2,0,8.1,2.9c1.94,1.93,2.85,4.62,2.75,8ZM26.29,23.2A4,4,0,0,0,26,21.58a4.12,4.12,0,0,0-.9-1.28,4,4,0,0,0-1.38-.85,4.79,4.79,0,0,0-1.7-.3,4.61,4.61,0,0,0-3.65,1.55A6.26,6.26,0,0,0,17,25a5.49,5.49,0,0,0,1.18,3.75,4.1,4.1,0,0,0,3.27,1.35,4.5,4.5,0,0,0,3.4-1.35A5.49,5.49,0,0,0,26.24,25Z"/><path class="cls-1" d="M61.69,37.38A12.48,12.48,0,0,1,60.86,42a10.16,10.16,0,0,1-2.33,3.54,10.37,10.37,0,0,1-3.62,2.27,13.56,13.56,0,0,1-4.77.8,13.37,13.37,0,0,1-5-.9,10.84,10.84,0,0,1-3.84-2.6,12.1,12.1,0,0,1-2.48-4,14.84,14.84,0,0,1-.88-5.22A19,19,0,0,1,39,29.75a32.11,32.11,0,0,1,2.77-5.92,43,43,0,0,1,3.83-5.45,52.54,52.54,0,0,1,4.3-4.63h8.44a53.28,53.28,0,0,0-6.19,6.71,54.27,54.27,0,0,0-5,7.74c.52-.3,1-.55,1.42-.75a8,8,0,0,1,1.2-.47,6.37,6.37,0,0,1,1.15-.25,10.4,10.4,0,0,1,1.32-.08,9.3,9.3,0,0,1,3.85.78,8.47,8.47,0,0,1,3,2.22,10.45,10.45,0,0,1,2,3.42A12.45,12.45,0,0,1,61.69,37.38ZM55,37.52A4.94,4.94,0,0,0,53.86,34a4.1,4.1,0,0,0-3.17-1.29,6.63,6.63,0,0,0-4.65,2c-.1.5-.16.87-.2,1.12a8.43,8.43,0,0,0-.05,1,5.52,5.52,0,0,0,1.36,3.88,4.53,4.53,0,0,0,3.53,1.5,4.14,4.14,0,0,0,3.18-1.28A4.82,4.82,0,0,0,55,37.52Z"/></svg>