<svg id="Layer_1" data-name="Layer 1" xmlns="http://www.w3.org/2000/svg" viewBox="0 0 69.71 64.98"><defs><style>.cls-1{fill:#868687;}</style></defs><path class="cls-1" d="M12.31,49.21l0-3.46q1.37-1.59,2.89-3.17l3-3.13c1-1,1.95-2.05,2.86-3a28.65,28.65,0,0,0,2.4-3,16.81,16.81,0,0,0,1.65-3,7.64,7.64,0,0,0,.61-3,3.26,3.26,0,0,0-1.14-2.59,4.16,4.16,0,0,0-2.82-1,4.64,4.64,0,0,0-2.13.48,5.49,5.49,0,0,0-1.63,1.22,9.37,9.37,0,0,0-1.19,1.65A14.62,14.62,0,0,0,16,29l-4.23-3.07c.3-.67.66-1.42,1.1-2.27a8.7,8.7,0,0,1,1.92-2.43,10.57,10.57,0,0,1,3.25-1.94,13.84,13.84,0,0,1,5.13-.8,12.29,12.29,0,0,1,3.88.58,8.64,8.64,0,0,1,3,1.65A7.16,7.16,0,0,1,32,23.32a8.34,8.34,0,0,1,.67,3.41A11.43,11.43,0,0,1,31.38,32a27.12,27.12,0,0,1-3.14,4.87A37.57,37.57,0,0,1,24.37,41q-2,1.85-3.44,3.05H33v5.19Z"/><path class="cls-1" d="M45.66,49.21H39L50.55,23.69H36.73V18.5H57.45v4.57Z"/></svg>