<svg id="Layer_1" data-name="Layer 1" xmlns="http://www.w3.org/2000/svg" viewBox="0 0 69.71 64.98"><defs><style>.cls-1{fill:#ffe8d9;stroke:#2d1606;stroke-miterlimit:10;}</style></defs><path class="cls-1" d="M5.48,53.22l.06-4.71c1.24-1.45,2.55-2.9,3.93-4.33l4.11-4.27c1.36-1.41,2.66-2.8,3.9-4.15a37.06,37.06,0,0,0,3.27-4.09A23,23,0,0,0,23,27.61a10.45,10.45,0,0,0,.84-4.07A4.45,4.45,0,0,0,22.28,20a5.66,5.66,0,0,0-3.84-1.35,6.42,6.42,0,0,0-2.91.64A7.37,7.37,0,0,0,13.31,21a12.15,12.15,0,0,0-1.62,2.25,18.83,18.83,0,0,0-1.17,2.45L4.76,21.48q.6-1.35,1.5-3.09a12.1,12.1,0,0,1,2.61-3.31,14.56,14.56,0,0,1,4.44-2.65,19,19,0,0,1,7-1.09,16.82,16.82,0,0,1,5.29.79,11.79,11.79,0,0,1,4.12,2.25,9.61,9.61,0,0,1,2.63,3.54,11.22,11.22,0,0,1,.92,4.65,15.69,15.69,0,0,1-1.77,7.13,37.59,37.59,0,0,1-4.29,6.64A49.32,49.32,0,0,1,21.92,42q-2.76,2.52-4.68,4.16H33.62v7.08Z"/><path class="cls-1" d="M65.9,39.87q0,6.39-3.88,9.87T51.15,53.22a20.47,20.47,0,0,1-8-1.52,17.78,17.78,0,0,1-6.32-4.51l3.36-5.91q5.34,4.86,10.44,4.86a8.09,8.09,0,0,0,5.22-1.64,5.17,5.17,0,0,0,2-4.23,5.87,5.87,0,0,0-1.71-4.57,7.1,7.1,0,0,0-5-1.56,7.07,7.07,0,0,0-3.15.69,12.78,12.78,0,0,0-3,2.13L40,34l.6-22.67h24l.06,7.08H48.26L48,28.26c.58-.28,1.09-.51,1.52-.69a11.09,11.09,0,0,1,1.25-.45A6.62,6.62,0,0,1,52,26.88c.46,0,1-.06,1.57-.06a12.89,12.89,0,0,1,5,.94,10.9,10.9,0,0,1,3.87,2.65A12.17,12.17,0,0,1,65,34.54,15.25,15.25,0,0,1,65.9,39.87Z"/></svg>