<svg id="Layer_1" data-name="Layer 1" xmlns="http://www.w3.org/2000/svg" viewBox="0 0 69.71 64.98"><defs><style>.cls-1{fill:#ffe8d9;stroke:#2d1606;stroke-miterlimit:10;}</style></defs><path class="cls-1" d="M31.69,40.74a14.81,14.81,0,0,1-1,5.59,11.94,11.94,0,0,1-7.14,7,16.17,16.17,0,0,1-5.73,1,16,16,0,0,1-6-1.08,13,13,0,0,1-4.62-3.12,14.31,14.31,0,0,1-3-4.82A17.51,17.51,0,0,1,3.19,39a22.38,22.38,0,0,1,1.27-7.38,39.24,39.24,0,0,1,3.32-7.12,53,53,0,0,1,4.6-6.53,62.24,62.24,0,0,1,5.16-5.56H27.67a63.18,63.18,0,0,0-7.43,8,64.79,64.79,0,0,0-6.06,9.29c.62-.35,1.19-.66,1.7-.89a11.27,11.27,0,0,1,1.44-.57A7.23,7.23,0,0,1,18.7,28a11,11,0,0,1,1.59-.09,11.2,11.2,0,0,1,4.61.93,10.36,10.36,0,0,1,3.59,2.66,12.89,12.89,0,0,1,2.35,4.1A15.17,15.17,0,0,1,31.69,40.74Zm-8,.17a5.92,5.92,0,0,0-1.42-4.18,4.94,4.94,0,0,0-3.81-1.55,7.93,7.93,0,0,0-5.57,2.36q-.18.9-.24,1.35a9.26,9.26,0,0,0-.06,1.18,6.65,6.65,0,0,0,1.63,4.66,5.44,5.44,0,0,0,4.24,1.79A4.93,4.93,0,0,0,22.29,45,5.8,5.8,0,0,0,23.71,40.91Z"/><path class="cls-1" d="M66.07,32.6q0,11.44-3.94,16.55T50.44,54.26q-7.75,0-11.69-5.14T34.81,33.35q0-10.56,3.94-15.77t11.69-5.2Q66.07,12.38,66.07,32.6Zm-9.42.34c-.12-4.6-.64-7.88-1.57-9.86a4.72,4.72,0,0,0-4.58-2.95,5.05,5.05,0,0,0-4.65,3.2q-1.44,3.09-1.62,10.6.18,6.24,1.57,9.36a5,5,0,0,0,4.7,3.23A4.76,4.76,0,0,0,55,43.4Q56.47,40.28,56.65,32.94Z"/></svg>