<svg id="Layer_1" data-name="Layer 1" xmlns="http://www.w3.org/2000/svg" viewBox="0 0 69.71 64.98"><defs><style>.cls-1{fill:#022749;}</style></defs><path class="cls-1" d="M27.48,46.36H22V38.79H10.72V15.6h5.63V33.86H22V26.43h5.42v7.43h3.91v4.89H27.48Z"/><path class="cls-1" d="M54.89,36.44a10.85,10.85,0,0,1-.73,4.1,8.83,8.83,0,0,1-2,3.11,9.06,9.06,0,0,1-3.19,2,11.86,11.86,0,0,1-4.2.71,11.67,11.67,0,0,1-4.39-.8,9.29,9.29,0,0,1-3.39-2.29,10.48,10.48,0,0,1-2.17-3.53,12.87,12.87,0,0,1-.78-4.6,16.26,16.26,0,0,1,.94-5.41,28,28,0,0,1,2.43-5.22,37.88,37.88,0,0,1,3.37-4.79,45.59,45.59,0,0,1,3.78-4.07h7.43a46.18,46.18,0,0,0-5.45,5.9,47.53,47.53,0,0,0-4.44,6.81c.46-.26.88-.48,1.25-.66a10.43,10.43,0,0,1,1.05-.42,6.85,6.85,0,0,1,1-.22A10.06,10.06,0,0,1,46.53,27a8.26,8.26,0,0,1,3.38.68,7.47,7.47,0,0,1,2.63,2,9.41,9.41,0,0,1,1.73,3A11.34,11.34,0,0,1,54.89,36.44ZM49,36.56a4.36,4.36,0,0,0-1-3.06,3.6,3.6,0,0,0-2.79-1.13,5.81,5.81,0,0,0-4.09,1.72q-.13.66-.18,1a6.85,6.85,0,0,0,0,.87,4.89,4.89,0,0,0,1.19,3.41,4,4,0,0,0,3.11,1.32A3.61,3.61,0,0,0,48,39.55,4.21,4.21,0,0,0,49,36.56Z"/></svg>