<svg id="Layer_1" data-name="Layer 1" xmlns="http://www.w3.org/2000/svg" viewBox="0 0 69.71 64.98"><defs><style>.cls-1{fill:#022749;}</style></defs><path class="cls-1" d="M19.38,45.42H12.73L24.26,19.9H10.45V14.71H31.17v4.57Z"/><path class="cls-1" d="M54.49,35.64a9.23,9.23,0,0,1-2.84,7.23q-2.85,2.55-8,2.55a15,15,0,0,1-5.84-1.11A13,13,0,0,1,33.19,41l2.47-4.34q3.92,3.55,7.65,3.56A5.93,5.93,0,0,0,47.14,39a3.79,3.79,0,0,0,1.5-3.1,4.29,4.29,0,0,0-1.26-3.35,5.15,5.15,0,0,0-3.63-1.15,5.16,5.16,0,0,0-2.31.51,9.46,9.46,0,0,0-2.17,1.56l-3.79-2.16.44-16.63h17.6l0,5.19h-12l-.22,7.22,1.11-.51c.32-.13.62-.24.92-.33a5.64,5.64,0,0,1,1-.17c.35,0,.73-.05,1.16-.05a9.48,9.48,0,0,1,3.67.69A8,8,0,0,1,52,28.7a9,9,0,0,1,1.84,3A11.18,11.18,0,0,1,54.49,35.64Z"/></svg>