<svg id="Layer_1" data-name="Layer 1" xmlns="http://www.w3.org/2000/svg" viewBox="0 0 69.71 64.98"><defs><style>.cls-1{fill:#022749;}</style></defs><path class="cls-1" d="M10.45,47l.05-3.46q1.37-1.59,2.88-3.17l3-3.13c1-1,2-2,2.85-3a26.72,26.72,0,0,0,2.4-3,16.46,16.46,0,0,0,1.65-3,7.62,7.62,0,0,0,.62-3,3.29,3.29,0,0,0-1.14-2.59,4.18,4.18,0,0,0-2.82-1,4.84,4.84,0,0,0-2.14.47,5.51,5.51,0,0,0-1.62,1.23A8.81,8.81,0,0,0,15,25a15.45,15.45,0,0,0-.86,1.8L9.93,23.7c.29-.66.66-1.42,1.1-2.27A8.77,8.77,0,0,1,12.94,19a10.84,10.84,0,0,1,3.26-2,14,14,0,0,1,5.12-.8,12.58,12.58,0,0,1,3.88.58,9,9,0,0,1,3,1.65,7.17,7.17,0,0,1,1.92,2.6,8.3,8.3,0,0,1,.68,3.41,11.56,11.56,0,0,1-1.3,5.23,27.73,27.73,0,0,1-3.15,4.87,36.64,36.64,0,0,1-3.87,4.14q-2,1.84-3.43,3h12V47Z"/><path class="cls-1" d="M55.29,38.67a7.33,7.33,0,0,1-2.9,6A10.56,10.56,0,0,1,49,46.36a15.3,15.3,0,0,1-4.48.62,19.51,19.51,0,0,1-3.41-.28,11.74,11.74,0,0,1-2.84-.87,11,11,0,0,1-2.51-1.59,19.44,19.44,0,0,1-2.38-2.41l2.91-3.92q3.43,3.87,7.35,3.87a5.33,5.33,0,0,0,3.45-1,3.55,3.55,0,0,0,1.34-2.69A3.48,3.48,0,0,0,48,36.16a3.55,3.55,0,0,0-1.5-1.47,8.43,8.43,0,0,0-2.94-.87,23.24,23.24,0,0,0-4.67-.09V28.54a33.43,33.43,0,0,0,4.42.05,8,8,0,0,0,2.73-.6,3,3,0,0,0,1.41-1.25,4,4,0,0,0,.42-1.93,3.18,3.18,0,0,0-1.28-2.43,5,5,0,0,0-3.17-.92,7.38,7.38,0,0,0-3.12.69,12.6,12.6,0,0,0-3.17,2.23L34.7,20.21q3.3-3.95,10.16-3.95a12.62,12.62,0,0,1,3.88.56,8.8,8.8,0,0,1,3,1.57,7,7,0,0,1,1.89,2.45,7.63,7.63,0,0,1,.66,3.22A6.71,6.71,0,0,1,53,28.3a10,10,0,0,1-4.23,2.84,8.25,8.25,0,0,1,4.87,2.47A7.39,7.39,0,0,1,55.29,38.67Z"/></svg>