<svg id="Layer_1" data-name="Layer 1" xmlns="http://www.w3.org/2000/svg" viewBox="0 0 69.71 64.98"><defs><style>.cls-1{fill:#022749;}</style></defs><path class="cls-1" d="M31,38.45a6.68,6.68,0,0,1-2.76,5.7c-1.84,1.37-4.39,2.05-7.67,2.05A16.73,16.73,0,0,1,16,45.62,11.37,11.37,0,0,1,12.49,44,7.48,7.48,0,0,1,10.2,41.5a6.76,6.76,0,0,1-.82-3.3,6.65,6.65,0,0,1,1.48-4.44,12.35,12.35,0,0,1,4.9-3.11c-1.2-.75-2.17-1.4-2.9-2A8.36,8.36,0,0,1,11.17,27a4.82,4.82,0,0,1-.82-1.73,9.55,9.55,0,0,1-.22-2.15,6.75,6.75,0,0,1,2.55-5.66q2.57-2,7.84-2a15.31,15.31,0,0,1,4.15.52,10.27,10.27,0,0,1,3.2,1.47,6.67,6.67,0,0,1,2,2.32,6.5,6.5,0,0,1,.7,3.05A6.85,6.85,0,0,1,29.3,27,12.66,12.66,0,0,1,25,30.37a11,11,0,0,1,4.6,3.32A7.86,7.86,0,0,1,31,38.45Zm-5.85-.55a3.1,3.1,0,0,0-.35-1.52,3.48,3.48,0,0,0-1-1.11,9.18,9.18,0,0,0-1.63-.91c-.63-.29-1.35-.58-2.14-.87a9,9,0,0,0-3.21,1.64,3,3,0,0,0-.92,2.24A3.14,3.14,0,0,0,17.22,40a5.87,5.87,0,0,0,3.56,1A5.38,5.38,0,0,0,24,40.16,2.62,2.62,0,0,0,25.18,37.9Zm-.84-14a2.83,2.83,0,0,0-1.16-2.35,4.88,4.88,0,0,0-3.06-.91,4.28,4.28,0,0,0-2.73.85,2.64,2.64,0,0,0-1.05,2.16c0,1.54,1.4,2.91,4.22,4.12a6.54,6.54,0,0,0,3-1.67A3.25,3.25,0,0,0,24.34,23.94Z"/><path class="cls-1" d="M53.47,46.2H47.58l.35-13a7.89,7.89,0,0,1-2.51,1.54,8.61,8.61,0,0,1-3,.44,9.24,9.24,0,0,1-3.67-.7,8.18,8.18,0,0,1-2.84-2,9.13,9.13,0,0,1-1.83-3.1,12.29,12.29,0,0,1-.63-4A11.71,11.71,0,0,1,34.27,21a9.3,9.3,0,0,1,2.17-3.32,9.41,9.41,0,0,1,3.46-2.09,13.36,13.36,0,0,1,4.55-.73,9.64,9.64,0,0,1,7.13,2.55A9.2,9.2,0,0,1,54,24.47ZM47.88,23.81a3.44,3.44,0,0,0-.28-1.43,3.55,3.55,0,0,0-.79-1.12,3.34,3.34,0,0,0-1.21-.75,4.16,4.16,0,0,0-1.5-.27,4,4,0,0,0-3.21,1.37,5.5,5.5,0,0,0-1.19,3.74,4.9,4.9,0,0,0,1,3.3,3.63,3.63,0,0,0,2.89,1.19,4,4,0,0,0,3-1.19,4.88,4.88,0,0,0,1.23-3.3Z"/></svg>