<svg id="Layer_1" data-name="Layer 1" xmlns="http://www.w3.org/2000/svg" viewBox="0 0 69.71 64.98"><defs><style>.cls-1{fill:#ffe8d9;stroke:#2d1606;stroke-miterlimit:10;}</style></defs><path class="cls-1" d="M4.54,53.22l.06-4.71c1.24-1.45,2.55-2.9,3.93-4.33l4.11-4.27c1.36-1.41,2.66-2.8,3.9-4.15a37.06,37.06,0,0,0,3.27-4.09,23,23,0,0,0,2.25-4.06,10.45,10.45,0,0,0,.84-4.07A4.45,4.45,0,0,0,21.34,20a5.66,5.66,0,0,0-3.84-1.35,6.42,6.42,0,0,0-2.91.64A7.37,7.37,0,0,0,12.37,21a12.15,12.15,0,0,0-1.62,2.25,18.83,18.83,0,0,0-1.17,2.45L3.82,21.48q.6-1.35,1.5-3.09a12.1,12.1,0,0,1,2.61-3.31,14.56,14.56,0,0,1,4.44-2.65,19,19,0,0,1,7-1.09,16.82,16.82,0,0,1,5.29.79,11.79,11.79,0,0,1,4.12,2.25,9.61,9.61,0,0,1,2.63,3.54,11.38,11.38,0,0,1,.92,4.65,15.69,15.69,0,0,1-1.77,7.13,37.23,37.23,0,0,1-4.29,6.64A49.32,49.32,0,0,1,21,42q-2.76,2.52-4.68,4.16H32.68v7.08Z"/><path class="cls-1" d="M65.68,41.9a10.37,10.37,0,0,1-1,4.56A10.19,10.19,0,0,1,61.73,50,14.42,14.42,0,0,1,57,52.38a21,21,0,0,1-6.12.84,26.19,26.19,0,0,1-4.65-.38,16.61,16.61,0,0,1-3.87-1.19A14.87,14.87,0,0,1,39,49.49a25.32,25.32,0,0,1-3.24-3.29l4-5.34q4.68,5.28,10,5.28a7.24,7.24,0,0,0,4.71-1.39,4.84,4.84,0,0,0,1.83-3.67,4.72,4.72,0,0,0-.48-2.61,4.94,4.94,0,0,0-2-2,11.82,11.82,0,0,0-4-1.18,32.3,32.3,0,0,0-6.36-.12V28.08a44.2,44.2,0,0,0,6,.06,10.71,10.71,0,0,0,3.72-.82A4,4,0,0,0,55,25.62,5.49,5.49,0,0,0,55.6,23a4.35,4.35,0,0,0-1.74-3.33,6.91,6.91,0,0,0-4.32-1.25,10,10,0,0,0-4.26.94,17.29,17.29,0,0,0-4.32,3L37.6,16.72q4.5-5.38,13.86-5.38a17.38,17.38,0,0,1,5.29.75,12.09,12.09,0,0,1,4,2.15,9.52,9.52,0,0,1,2.58,3.34,10.35,10.35,0,0,1,.9,4.39,9.14,9.14,0,0,1-1.74,5.78,13.66,13.66,0,0,1-5.76,3.87A11.24,11.24,0,0,1,63.4,35,10,10,0,0,1,65.68,41.9Z"/></svg>