<svg id="Layer_1" data-name="Layer 1" xmlns="http://www.w3.org/2000/svg" viewBox="0 0 69.71 64.98"><defs><style>.cls-1{fill:#ffe8d9;stroke:#2d1606;stroke-miterlimit:10;}</style></defs><path class="cls-1" d="M28.6,55.8H21.16V45.48H5.74V13.86h7.68v24.9h7.74V28.62h7.38V38.76h5.34v6.66H28.6Z"/><path class="cls-1" d="M65.68,44.48a10.3,10.3,0,0,1-1,4.56,10.19,10.19,0,0,1-2.94,3.58A14.22,14.22,0,0,1,57,55a21,21,0,0,1-6.12.84,25.28,25.28,0,0,1-4.65-.38,16.15,16.15,0,0,1-3.87-1.19A14.87,14.87,0,0,1,39,52.07a25.32,25.32,0,0,1-3.24-3.29l4-5.34q4.68,5.28,10,5.28a7.24,7.24,0,0,0,4.71-1.39,4.82,4.82,0,0,0,1.83-3.66,4.69,4.69,0,0,0-.48-2.61,4.82,4.82,0,0,0-2-2,11.58,11.58,0,0,0-4-1.19,32.3,32.3,0,0,0-6.36-.12V30.66a44.2,44.2,0,0,0,6,.06,10.73,10.73,0,0,0,3.72-.81A4.06,4.06,0,0,0,55,28.2a5.46,5.46,0,0,0,.57-2.62,4.32,4.32,0,0,0-1.74-3.32A6.85,6.85,0,0,0,49.54,21a10,10,0,0,0-4.26.94A17.29,17.29,0,0,0,41,25L37.6,19.31q4.5-5.38,13.86-5.39a17.07,17.07,0,0,1,5.29.76,11.91,11.91,0,0,1,4,2.15,9.43,9.43,0,0,1,2.58,3.34,10.33,10.33,0,0,1,.9,4.38,9.17,9.17,0,0,1-1.74,5.79,13.56,13.56,0,0,1-5.76,3.86,11.29,11.29,0,0,1,6.63,3.38A10,10,0,0,1,65.68,44.48Z"/></svg>