<svg id="Layer_1" data-name="Layer 1" xmlns="http://www.w3.org/2000/svg" viewBox="0 0 69.71 64.98"><defs><style>.cls-1{fill:#87786f;stroke:#2d1606;stroke-miterlimit:10;}</style></defs><path class="cls-1" d="M17.84,54.29V21.58c-.8.92-1.55,1.75-2.28,2.49s-1.5,1.53-2.34,2.37l-4-5.4c1.21-1,2.36-2.08,3.48-3.12,1-.87,1.94-1.81,2.94-2.81a36.38,36.38,0,0,0,2.48-2.7h7.66V54.29Z"/><path class="cls-1" d="M65.48,41q0,6.39-3.87,9.86T50.73,54.29a20.47,20.47,0,0,1-8-1.52,17.63,17.63,0,0,1-6.32-4.5l3.36-5.92q5.34,4.86,10.44,4.86a8,8,0,0,0,5.22-1.64,5.17,5.17,0,0,0,2-4.23,5.89,5.89,0,0,0-1.71-4.57,7.1,7.1,0,0,0-4.95-1.56,7.07,7.07,0,0,0-3.15.69,12.78,12.78,0,0,0-3,2.13l-5.16-2.94.6-22.68h24l.06,7.08H47.84l-.3,9.84c.59-.28,1.09-.51,1.52-.69a11.09,11.09,0,0,1,1.25-.45A6.62,6.62,0,0,1,51.62,28c.47,0,1-.06,1.57-.06a13.07,13.07,0,0,1,5,.94,11.16,11.16,0,0,1,3.88,2.65,12.26,12.26,0,0,1,2.5,4.14A15.17,15.17,0,0,1,65.48,41Z"/></svg>