<svg id="Layer_1" data-name="Layer 1" xmlns="http://www.w3.org/2000/svg" viewBox="0 0 69.71 64.98"><defs><style>.cls-1{fill:#b7b6b6;stroke:#040421;}</style></defs><path class="cls-1" d="M30.44,48.89h-6.2v-8.6H11.39V13.94h6.4V34.69h6.45V26.24h6.15v8.45h4.45v5.55h-4.4Z"/><path class="cls-1" d="M60.74,37.77q0,5.32-3.23,8.22c-2.16,1.94-5.18,2.9-9.06,2.9a17,17,0,0,1-6.64-1.26,14.8,14.8,0,0,1-5.27-3.76l2.8-4.93Q43.8,43,48,43a6.71,6.71,0,0,0,4.35-1.36,4.33,4.33,0,0,0,1.7-3.53,4.91,4.91,0,0,0-1.42-3.81A6,6,0,0,0,48.54,33a5.76,5.76,0,0,0-2.62.58,10.47,10.47,0,0,0-2.48,1.77l-4.3-2.45.5-18.9h20l0,5.9H46l-.25,8.2,1.26-.57a10.34,10.34,0,0,1,1.05-.38,6,6,0,0,1,1.09-.2c.39,0,.82-.05,1.31-.05a10.65,10.65,0,0,1,4.17.79,9.07,9.07,0,0,1,3.23,2.21A10.08,10.08,0,0,1,60,33.33,12.69,12.69,0,0,1,60.74,37.77Z"/></svg>