<svg id="Layer_1" data-name="Layer 1" xmlns="http://www.w3.org/2000/svg" viewBox="0 0 69.71 64.98"><defs><style>.cls-1{fill:#868687;}</style></defs><path class="cls-1" d="M33.53,40.71a7.62,7.62,0,0,1-.74,3.35,7.41,7.41,0,0,1-2.16,2.62,10.38,10.38,0,0,1-3.44,1.72,15.31,15.31,0,0,1-4.48.61,19.49,19.49,0,0,1-3.41-.27,12.22,12.22,0,0,1-2.84-.88A10.66,10.66,0,0,1,14,46.28a19.44,19.44,0,0,1-2.38-2.41L14.48,40q3.43,3.87,7.35,3.87a5.33,5.33,0,0,0,3.45-1,3.52,3.52,0,0,0,1.34-2.69,3.36,3.36,0,0,0-.35-1.91,3.49,3.49,0,0,0-1.5-1.47,8.43,8.43,0,0,0-2.94-.87,23.21,23.21,0,0,0-4.67-.09V30.58a33.18,33.18,0,0,0,4.42,0,7.58,7.58,0,0,0,2.73-.6,3,3,0,0,0,1.41-1.24,4,4,0,0,0,.42-1.93,3.21,3.21,0,0,0-1.28-2.44,5,5,0,0,0-3.17-.92,7.38,7.38,0,0,0-3.12.69,12.86,12.86,0,0,0-3.17,2.23l-2.46-4.16q3.3-3.94,10.16-3.95a12.94,12.94,0,0,1,3.88.55,8.82,8.82,0,0,1,3,1.58,6.94,6.94,0,0,1,1.89,2.45,7.6,7.6,0,0,1,.66,3.22,6.71,6.71,0,0,1-1.27,4.24A9.94,9.94,0,0,1,27,33.17a8.26,8.26,0,0,1,4.87,2.48A7.37,7.37,0,0,1,33.53,40.71Z"/><path class="cls-1" d="M37,49l0-3.45c.91-1.07,1.87-2.12,2.88-3.18l3-3.12c1-1,1.95-2.06,2.86-3a25.52,25.52,0,0,0,2.39-3,17.55,17.55,0,0,0,1.66-3,7.64,7.64,0,0,0,.61-3,3.28,3.28,0,0,0-1.14-2.59,4.18,4.18,0,0,0-2.82-1,4.76,4.76,0,0,0-2.13.47,5.53,5.53,0,0,0-1.63,1.22A8.88,8.88,0,0,0,41.56,27a14.71,14.71,0,0,0-.86,1.8l-4.22-3.07c.29-.66.66-1.42,1.1-2.27a8.81,8.81,0,0,1,1.91-2.42,10.45,10.45,0,0,1,3.26-1.95,14,14,0,0,1,5.12-.8,12.29,12.29,0,0,1,3.88.58,9,9,0,0,1,3,1.65,7.31,7.31,0,0,1,1.93,2.6,8.47,8.47,0,0,1,.67,3.41,11.59,11.59,0,0,1-1.3,5.23,28,28,0,0,1-3.14,4.87,37.64,37.64,0,0,1-3.88,4.14q-2,1.84-3.43,3h12V49Z"/></svg>