<svg id="Layer_1" data-name="Layer 1" xmlns="http://www.w3.org/2000/svg" viewBox="0 0 69.71 64.98"><defs><style>.cls-1{fill:#ffe8d9;stroke:#2d1606;stroke-miterlimit:10;}</style></defs><path class="cls-1" d="M32.06,57.92H24l.48-17.7a11,11,0,0,1-3.42,2.1,12,12,0,0,1-4,.6,12.64,12.64,0,0,1-5-1,11.07,11.07,0,0,1-3.87-2.73A12.21,12.21,0,0,1,5.69,35a16.48,16.48,0,0,1-.87-5.52,16.19,16.19,0,0,1,1-6,12.66,12.66,0,0,1,3-4.53,12.82,12.82,0,0,1,4.71-2.85,18.47,18.47,0,0,1,6.21-1q6.24,0,9.72,3.48t3.3,9.66ZM24.44,27.38a4.72,4.72,0,0,0-.39-1.95A4.83,4.83,0,0,0,23,23.9a4.79,4.79,0,0,0-1.65-1,5.76,5.76,0,0,0-2-.36,5.51,5.51,0,0,0-4.38,1.86,7.5,7.5,0,0,0-1.62,5.1A6.63,6.63,0,0,0,14.69,34a4.93,4.93,0,0,0,3.93,1.62A5.41,5.41,0,0,0,22.7,34a6.64,6.64,0,0,0,1.68-4.5Z"/><path class="cls-1" d="M65.9,44.57Q65.9,51,62,54.44T51.15,57.92a20.47,20.47,0,0,1-8-1.52,17.78,17.78,0,0,1-6.32-4.51L40.22,46q5.34,4.86,10.44,4.86a8.09,8.09,0,0,0,5.22-1.64,5.17,5.17,0,0,0,2-4.23,5.87,5.87,0,0,0-1.71-4.57,7.1,7.1,0,0,0-5-1.56,7.07,7.07,0,0,0-3.15.69,12.78,12.78,0,0,0-3,2.13L40,38.71,40.58,16h24l.06,7.08H48.26L48,33c.58-.28,1.09-.51,1.52-.69a11.09,11.09,0,0,1,1.25-.45A6.62,6.62,0,0,1,52,31.58c.46,0,1-.06,1.57-.06a12.89,12.89,0,0,1,5,.94,11,11,0,0,1,3.87,2.65A12.17,12.17,0,0,1,65,39.24,15.25,15.25,0,0,1,65.9,44.57Z"/></svg>