<svg id="Layer_1" data-name="Layer 1" xmlns="http://www.w3.org/2000/svg" viewBox="0 0 69.71 64.98"><defs><style>.cls-1{fill:#022749;}</style></defs><path class="cls-1" d="M31.21,35.51a10.84,10.84,0,0,1-.73,4.09,8.69,8.69,0,0,1-5.23,5.11,11.66,11.66,0,0,1-4.21.71,11.51,11.51,0,0,1-4.39-.8,9.35,9.35,0,0,1-3.38-2.28,10.45,10.45,0,0,1-2.18-3.54,12.85,12.85,0,0,1-.78-4.59,16.53,16.53,0,0,1,.94-5.42,28.65,28.65,0,0,1,2.43-5.22,38.82,38.82,0,0,1,3.37-4.78,47.18,47.18,0,0,1,3.78-4.08h7.44a45.42,45.42,0,0,0-5.45,5.9,47.14,47.14,0,0,0-4.45,6.82c.46-.27.88-.49,1.25-.67a9.1,9.1,0,0,1,1.06-.41,5.06,5.06,0,0,1,1-.22,8.9,8.9,0,0,1,4.55.62,7.66,7.66,0,0,1,2.63,1.95,9.55,9.55,0,0,1,1.72,3A11.06,11.06,0,0,1,31.21,35.51Zm-5.85.12a4.39,4.39,0,0,0-1-3.07,3.64,3.64,0,0,0-2.79-1.13,5.84,5.84,0,0,0-4.09,1.73c-.09.44-.14.77-.17,1a6.41,6.41,0,0,0-.05.86,4.89,4.89,0,0,0,1.2,3.42,4,4,0,0,0,3.11,1.32,3.61,3.61,0,0,0,2.79-1.14A4.24,4.24,0,0,0,25.36,35.63Z"/><path class="cls-1" d="M54.62,35.64a9.23,9.23,0,0,1-2.84,7.23q-2.85,2.55-8,2.55A15,15,0,0,1,38,44.31,13,13,0,0,1,33.33,41l2.46-4.33q3.91,3.55,7.66,3.56A5.9,5.9,0,0,0,47.27,39a3.8,3.8,0,0,0,1.5-3.1,4.35,4.35,0,0,0-1.25-3.36,5.23,5.23,0,0,0-3.63-1.14,5.29,5.29,0,0,0-2.31.5A9.27,9.27,0,0,0,39.4,33.5l-3.79-2.16.44-16.63h17.6l.05,5.19h-12l-.22,7.22q.63-.32,1.11-.51c.31-.13.62-.24.91-.33a5.57,5.57,0,0,1,1-.18c.34,0,.72,0,1.15,0a9.48,9.48,0,0,1,3.67.69,8,8,0,0,1,2.84,1.95,8.7,8.7,0,0,1,1.84,3A11.14,11.14,0,0,1,54.62,35.64Z"/></svg>