<svg id="Layer_1" data-name="Layer 1" xmlns="http://www.w3.org/2000/svg" viewBox="0 0 69.71 64.98"><defs><style>.cls-1{fill:#868687;}</style></defs><path class="cls-1" d="M29,48.9H23.53V41.33H12.22V18.14h5.63V36.4h5.68V29h5.41V36.4h3.92v4.89H29Z"/><path class="cls-1" d="M55,48.9h-5.9l.36-13a8.19,8.19,0,0,1-2.51,1.54A8.9,8.9,0,0,1,44,37.9a9.2,9.2,0,0,1-3.67-.71,7.93,7.93,0,0,1-2.84-2,8.88,8.88,0,0,1-1.83-3.1A12.2,12.2,0,0,1,35,28a12,12,0,0,1,.77-4.38A9.41,9.41,0,0,1,38,20.34a9.5,9.5,0,0,1,3.45-2.09A13.72,13.72,0,0,1,46,17.53a9.64,9.64,0,0,1,7.13,2.55,9.2,9.2,0,0,1,2.42,7.08ZM49.4,26.5a3.32,3.32,0,0,0-.29-1.43,3.5,3.5,0,0,0-2-1.87,4.32,4.32,0,0,0-1.49-.26A4.06,4.06,0,0,0,42.4,24.3,5.52,5.52,0,0,0,41.22,28a4.85,4.85,0,0,0,1,3.3,3.63,3.63,0,0,0,2.88,1.19,4,4,0,0,0,3-1.19A4.84,4.84,0,0,0,49.36,28Z"/></svg>