<svg id="Layer_1" data-name="Layer 1" xmlns="http://www.w3.org/2000/svg" viewBox="0 0 69.71 64.98"><defs><style>.cls-1{fill:#ffe8d9;stroke:#2d1606;stroke-miterlimit:10;}</style></defs><path class="cls-1" d="M16.32,54.29V21.58c-.8.92-1.55,1.75-2.28,2.49s-1.5,1.53-2.34,2.37l-4-5.4C9,20,10.1,19,11.23,17.92c1-.87,1.93-1.81,2.93-2.81a36.38,36.38,0,0,0,2.48-2.7h7.67V54.29Z"/><path class="cls-1" d="M63.06,54.29H55l.48-17.7a11,11,0,0,1-3.42,2.1,12,12,0,0,1-4,.6,12.64,12.64,0,0,1-5-1,11.07,11.07,0,0,1-3.87-2.73,12.21,12.21,0,0,1-2.49-4.23,16.48,16.48,0,0,1-.87-5.52,16.19,16.19,0,0,1,1-6,12.66,12.66,0,0,1,3-4.53,12.82,12.82,0,0,1,4.71-2.85,18.47,18.47,0,0,1,6.21-1q6.24,0,9.72,3.48t3.3,9.66ZM55.44,23.75a4.72,4.72,0,0,0-.39-1.95A4.83,4.83,0,0,0,54,20.27a4.79,4.79,0,0,0-1.65-1,5.76,5.76,0,0,0-2-.36,5.51,5.51,0,0,0-4.38,1.86,7.5,7.5,0,0,0-1.62,5.1,6.63,6.63,0,0,0,1.41,4.5A4.93,4.93,0,0,0,49.62,32a5.41,5.41,0,0,0,4.08-1.62,6.64,6.64,0,0,0,1.68-4.5Z"/></svg>