<svg id="Layer_1" data-name="Layer 1" xmlns="http://www.w3.org/2000/svg" viewBox="0 0 69.71 64.98"><defs><style>.cls-1{fill:#b7b6b6;stroke:#040421;}</style></defs><path class="cls-1" d="M30.07,48.65h-6.7l.4-14.75a8.94,8.94,0,0,1-2.85,1.75,9.81,9.81,0,0,1-3.35.5,10.58,10.58,0,0,1-4.17-.8,9.23,9.23,0,0,1-3.23-2.27A10.17,10.17,0,0,1,8.1,29.55,13.58,13.58,0,0,1,7.37,25a13.33,13.33,0,0,1,.88-5,10.61,10.61,0,0,1,2.47-3.78,10.77,10.77,0,0,1,3.93-2.37A15.36,15.36,0,0,1,19.82,13q5.2,0,8.1,2.9c1.93,1.93,2.85,4.62,2.75,8ZM23.72,23.2a4,4,0,0,0-.32-1.62,4.12,4.12,0,0,0-.9-1.28,4,4,0,0,0-1.38-.85,4.79,4.79,0,0,0-1.7-.3,4.61,4.61,0,0,0-3.65,1.55A6.26,6.26,0,0,0,14.42,25,5.49,5.49,0,0,0,15.6,28.7a4.1,4.1,0,0,0,3.27,1.35,4.5,4.5,0,0,0,3.4-1.35A5.53,5.53,0,0,0,23.67,25Z"/><path class="cls-1" d="M58.87,39.22A8.57,8.57,0,0,1,58,43a8.33,8.33,0,0,1-2.45,3,11.75,11.75,0,0,1-3.91,2,17.33,17.33,0,0,1-5.1.7,21.67,21.67,0,0,1-3.87-.31,14,14,0,0,1-3.23-1,12.79,12.79,0,0,1-2.85-1.81,20.67,20.67,0,0,1-2.7-2.74l3.3-4.45q3.9,4.41,8.35,4.4A6.07,6.07,0,0,0,49.5,41.6,4,4,0,0,0,51,38.54a3.93,3.93,0,0,0-.4-2.18,4,4,0,0,0-1.7-1.67,9.69,9.69,0,0,0-3.35-1,26.31,26.31,0,0,0-5.3-.11V27.7a37.45,37.45,0,0,0,5,.05,8.71,8.71,0,0,0,3.1-.68A3.36,3.36,0,0,0,50,25.65a4.6,4.6,0,0,0,.47-2.18A3.63,3.63,0,0,0,49,20.7a5.71,5.71,0,0,0-3.6-1.05,8.28,8.28,0,0,0-3.55.79A14.55,14.55,0,0,0,38.27,23l-2.8-4.73Q39.22,13.76,47,13.75a14.41,14.41,0,0,1,4.41.63,10,10,0,0,1,3.36,1.79A7.88,7.88,0,0,1,56.94,19a8.6,8.6,0,0,1,.75,3.65,7.6,7.6,0,0,1-1.45,4.82,11.23,11.23,0,0,1-4.8,3.22A9.42,9.42,0,0,1,57,33.47,8.37,8.37,0,0,1,58.87,39.22Z"/></svg>