<svg id="Layer_1" data-name="Layer 1" xmlns="http://www.w3.org/2000/svg" viewBox="0 0 69.71 64.98"><defs><style>.cls-1{fill:#ffe8d9;stroke:#2d1606;stroke-miterlimit:10;}</style></defs><path class="cls-1" d="M3.19,52.48l.06-4.71q1.86-2.18,3.93-4.33l4.11-4.26q2-2.13,3.9-4.15a37.14,37.14,0,0,0,3.27-4.1,22.63,22.63,0,0,0,2.25-4.06,10.4,10.4,0,0,0,.84-4.06A4.45,4.45,0,0,0,20,19.28a5.62,5.62,0,0,0-3.84-1.36,6.42,6.42,0,0,0-2.91.65A7.34,7.34,0,0,0,11,20.23,12.15,12.15,0,0,0,9.4,22.48a19.58,19.58,0,0,0-1.17,2.46L2.47,20.75c.4-.91.9-1.94,1.5-3.1a11.92,11.92,0,0,1,2.61-3.3A14.57,14.57,0,0,1,11,11.69a19.2,19.2,0,0,1,7-1.09,17.11,17.11,0,0,1,5.29.79,12.12,12.12,0,0,1,4.12,2.25,9.89,9.89,0,0,1,2.63,3.54A11.45,11.45,0,0,1,31,21.83,15.7,15.7,0,0,1,29.2,29a37.59,37.59,0,0,1-4.29,6.64,51,51,0,0,1-5.28,5.64Q16.87,43.77,15,45.4H31.33v7.08Z"/><path class="cls-1" d="M66.07,30.82q0,11.45-3.94,16.55T50.44,52.48q-7.75,0-11.69-5.14T34.81,31.57q0-10.58,3.94-15.77t11.69-5.2Q66.07,10.6,66.07,30.82Zm-9.42.34q-.18-6.9-1.57-9.86a4.73,4.73,0,0,0-4.58-3,5,5,0,0,0-4.65,3.21q-1.44,3.09-1.62,10.59.18,6.26,1.57,9.37a5,5,0,0,0,4.7,3.23A4.76,4.76,0,0,0,55,41.62Q56.47,38.5,56.65,31.16Z"/></svg>