<svg id="Layer_1" data-name="Layer 1" xmlns="http://www.w3.org/2000/svg" viewBox="0 0 69.71 64.98"><defs><style>.cls-1{fill:#fff;stroke:#040421;}</style></defs><path class="cls-1" d="M34.88,39a8.42,8.42,0,0,1-3.29,6.79,12.24,12.24,0,0,1-3.91,1.95,17.77,17.77,0,0,1-5.1.69,21.71,21.71,0,0,1-3.88-.31,13.88,13.88,0,0,1-3.22-1,12.39,12.39,0,0,1-2.85-1.8,21.29,21.29,0,0,1-2.7-2.74l3.3-4.45q3.9,4.4,8.35,4.39a6.06,6.06,0,0,0,3.92-1.15A4,4,0,0,0,27,38.3a3.9,3.9,0,0,0-.4-2.17,4,4,0,0,0-1.7-1.68,9.69,9.69,0,0,0-3.35-1,26.42,26.42,0,0,0-5.3-.1V27.46a35.93,35.93,0,0,0,5,.06,9.11,9.11,0,0,0,3.1-.68A3.36,3.36,0,0,0,26,25.42a4.55,4.55,0,0,0,.48-2.19A3.63,3.63,0,0,0,25,20.46a5.71,5.71,0,0,0-3.6-1.05,8.4,8.4,0,0,0-3.55.79,14.19,14.19,0,0,0-3.6,2.53L11.48,18Q15.23,13.52,23,13.51a14.72,14.72,0,0,1,4.41.63,10,10,0,0,1,3.36,1.8A7.87,7.87,0,0,1,33,18.72a8.61,8.61,0,0,1,.75,3.66,7.57,7.57,0,0,1-1.45,4.81,11.27,11.27,0,0,1-4.8,3.22A9.39,9.39,0,0,1,33,33.23,8.35,8.35,0,0,1,34.88,39Z"/><path class="cls-1" d="M62.93,39.61a7.61,7.61,0,0,1-3.14,6.47c-2.09,1.56-5,2.33-8.72,2.33a19.2,19.2,0,0,1-5.21-.65,13.35,13.35,0,0,1-4-1.84,8.69,8.69,0,0,1-2.6-2.85,7.71,7.71,0,0,1-.92-3.75,7.57,7.57,0,0,1,1.67-5,14.12,14.12,0,0,1,5.58-3.54c-1.37-.85-2.47-1.59-3.3-2.23a9.39,9.39,0,0,1-1.93-1.89,5.48,5.48,0,0,1-.92-2,10.41,10.41,0,0,1-.25-2.46,7.66,7.66,0,0,1,2.9-6.43C44,14.27,47,13.51,51,13.51a17.72,17.72,0,0,1,4.72.59,11.49,11.49,0,0,1,3.63,1.68,7.24,7.24,0,0,1,3.1,6.09A7.72,7.72,0,0,1,61,26.62a14.66,14.66,0,0,1-4.87,3.81,12.46,12.46,0,0,1,5.22,3.76A9,9,0,0,1,62.93,39.61ZM56.28,39a3.57,3.57,0,0,0-.4-1.73A4,4,0,0,0,54.7,36a10.89,10.89,0,0,0-1.85-1c-.71-.32-1.52-.65-2.42-1a10.28,10.28,0,0,0-3.65,1.87,3.35,3.35,0,0,0-1.05,2.55,3.54,3.54,0,0,0,1.5,3,6.66,6.66,0,0,0,4.05,1.1,6.19,6.19,0,0,0,3.65-1A3,3,0,0,0,56.28,39Zm-1-15.87A3.19,3.19,0,0,0,54,20.45a5.47,5.47,0,0,0-3.47-1,4.86,4.86,0,0,0-3.1,1,3,3,0,0,0-1.2,2.46q0,2.63,4.8,4.68a7.6,7.6,0,0,0,3.35-1.89A3.74,3.74,0,0,0,55.33,23.11Z"/></svg>