<svg id="Layer_1" data-name="Layer 1" xmlns="http://www.w3.org/2000/svg" viewBox="0 0 69.71 64.98"><defs><style>.cls-1{fill:#ffe8d9;stroke:#2d1606;stroke-miterlimit:10;}</style></defs><path class="cls-1" d="M17.08,54.9H8L23.74,20.1H4.9V13H33.16v6.23Z"/><path class="cls-1" d="M65.68,43.58a10.3,10.3,0,0,1-1,4.56,10.19,10.19,0,0,1-2.94,3.58A14,14,0,0,1,57,54.06a21,21,0,0,1-6.12.84,25.28,25.28,0,0,1-4.65-.38,16.6,16.6,0,0,1-3.87-1.18A15.26,15.26,0,0,1,39,51.17a24.7,24.7,0,0,1-3.24-3.29l4-5.34q4.68,5.28,10,5.28a7.24,7.24,0,0,0,4.71-1.39,4.82,4.82,0,0,0,1.83-3.66,4.69,4.69,0,0,0-.48-2.61,4.82,4.82,0,0,0-2-2,11.39,11.39,0,0,0-4-1.18,31.45,31.45,0,0,0-6.36-.13V29.76a46.14,46.14,0,0,0,6,.07A10.71,10.71,0,0,0,53.11,29,4.06,4.06,0,0,0,55,27.3a5.46,5.46,0,0,0,.57-2.62,4.33,4.33,0,0,0-1.74-3.32,6.85,6.85,0,0,0-4.32-1.26,10.17,10.17,0,0,0-4.26.94A17.35,17.35,0,0,0,41,24.09L37.6,18.41Q42.1,13,51.46,13a17.07,17.07,0,0,1,5.29.76,11.91,11.91,0,0,1,4,2.15,9.43,9.43,0,0,1,2.58,3.34,10.35,10.35,0,0,1,.9,4.39,9.14,9.14,0,0,1-1.74,5.78,13.56,13.56,0,0,1-5.76,3.86,11.29,11.29,0,0,1,6.63,3.38A10,10,0,0,1,65.68,43.58Z"/></svg>