<svg id="Layer_1" data-name="Layer 1" xmlns="http://www.w3.org/2000/svg" viewBox="0 0 69.71 64.98"><defs><style>.cls-1{fill:#fff;stroke:#040421;}</style></defs><path class="cls-1" d="M29.63,39.36a8.6,8.6,0,0,1-.84,3.8,8.42,8.42,0,0,1-2.45,3,11.66,11.66,0,0,1-3.91,2,17.33,17.33,0,0,1-5.1.7,21.67,21.67,0,0,1-3.87-.31,13.51,13.51,0,0,1-3.23-1,12.39,12.39,0,0,1-2.85-1.8,20.67,20.67,0,0,1-2.7-2.74L8,38.49q3.9,4.4,8.35,4.4a6.07,6.07,0,0,0,3.93-1.15,4.5,4.5,0,0,0,1.13-5.24,4.11,4.11,0,0,0-1.71-1.67,9.61,9.61,0,0,0-3.35-1,27.17,27.17,0,0,0-5.3-.1v-5.9a37.46,37.46,0,0,0,5,.05,8.65,8.65,0,0,0,3.1-.68,3.36,3.36,0,0,0,1.6-1.42,4.53,4.53,0,0,0,.47-2.18,3.6,3.6,0,0,0-1.45-2.77,5.71,5.71,0,0,0-3.6-1.05,8.31,8.31,0,0,0-3.55.79A14.29,14.29,0,0,0,9,23.11l-2.8-4.73Q10,13.9,17.78,13.89a14.32,14.32,0,0,1,4.41.63,10.14,10.14,0,0,1,3.37,1.79A7.88,7.88,0,0,1,27.7,19.1a8.6,8.6,0,0,1,.75,3.65A7.66,7.66,0,0,1,27,27.57a11.34,11.34,0,0,1-4.81,3.22,9.42,9.42,0,0,1,5.54,2.82A8.36,8.36,0,0,1,29.63,39.36Z"/><path class="cls-1" d="M55.73,48.79H49L49.43,34a9,9,0,0,1-2.85,1.75,10.06,10.06,0,0,1-3.35.5,10.58,10.58,0,0,1-4.17-.8,9.13,9.13,0,0,1-3.23-2.28,10,10,0,0,1-2.07-3.52,13.83,13.83,0,0,1-.73-4.6,13.53,13.53,0,0,1,.88-5,10.52,10.52,0,0,1,2.47-3.78A10.79,10.79,0,0,1,40.31,14a15.36,15.36,0,0,1,5.17-.82q5.21,0,8.1,2.9c1.94,1.93,2.85,4.62,2.75,8.05ZM49.38,23.34a3.92,3.92,0,0,0-.32-1.63,4.2,4.2,0,0,0-.9-1.27,3.87,3.87,0,0,0-1.38-.85,4.79,4.79,0,0,0-1.7-.3,4.61,4.61,0,0,0-3.65,1.55,6.25,6.25,0,0,0-1.35,4.25,5.54,5.54,0,0,0,1.18,3.75,4.1,4.1,0,0,0,3.27,1.35,4.5,4.5,0,0,0,3.4-1.35,5.49,5.49,0,0,0,1.4-3.75Z"/></svg>