<svg id="Layer_1" data-name="Layer 1" xmlns="http://www.w3.org/2000/svg" viewBox="0 0 69.71 64.98"><defs><style>.cls-1{fill:#b7b6b6;stroke:#040421;}</style></defs><path class="cls-1" d="M11,49.16,11,45.23q1.56-1.81,3.28-3.61l3.42-3.55Q19.41,36.3,21,34.61a31.6,31.6,0,0,0,2.73-3.41,18.83,18.83,0,0,0,1.87-3.39,8.6,8.6,0,0,0,.7-3.38A3.69,3.69,0,0,0,25,21.49a4.66,4.66,0,0,0-3.2-1.13,5.41,5.41,0,0,0-2.42.53,6.12,6.12,0,0,0-1.85,1.39,9.75,9.75,0,0,0-1.35,1.88,15.8,15.8,0,0,0-1,2l-4.8-3.49c.34-.75.75-1.61,1.25-2.58a10,10,0,0,1,2.18-2.75,11.87,11.87,0,0,1,3.7-2.21,15.76,15.76,0,0,1,5.82-.91,14.37,14.37,0,0,1,4.41.65,10.1,10.1,0,0,1,3.44,1.88,8.2,8.2,0,0,1,2.19,2.95,9.45,9.45,0,0,1,.76,3.87,13.11,13.11,0,0,1-1.47,5.95,31.65,31.65,0,0,1-3.58,5.53,41.46,41.46,0,0,1-4.4,4.71c-1.53,1.39-2.83,2.55-3.9,3.46H34.4v5.9Z"/><path class="cls-1" d="M62.5,40.35a7.63,7.63,0,0,1-3.13,6.48q-3.13,2.33-8.73,2.33a19.11,19.11,0,0,1-5.2-.66,13.13,13.13,0,0,1-4-1.84,8.48,8.48,0,0,1-2.6-2.85,7.61,7.61,0,0,1-.93-3.75,7.52,7.52,0,0,1,1.68-5,14,14,0,0,1,5.57-3.54c-1.36-.85-2.46-1.59-3.3-2.23a9.58,9.58,0,0,1-1.92-1.89,5.68,5.68,0,0,1-.93-2,11,11,0,0,1-.25-2.46,7.69,7.69,0,0,1,2.9-6.43c1.94-1.5,4.9-2.25,8.9-2.25a17.4,17.4,0,0,1,4.73.59,11.31,11.31,0,0,1,3.62,1.67A7.24,7.24,0,0,1,62,22.61a7.78,7.78,0,0,1-1.47,4.75,14.47,14.47,0,0,1-4.88,3.81,12.39,12.39,0,0,1,5.22,3.77A8.84,8.84,0,0,1,62.5,40.35Zm-6.65-.63a3.46,3.46,0,0,0-.4-1.73,4,4,0,0,0-1.17-1.26,11.72,11.72,0,0,0-1.85-1c-.72-.32-1.53-.65-2.43-1a10.22,10.22,0,0,0-3.65,1.86,3.35,3.35,0,0,0-1.05,2.55,3.54,3.54,0,0,0,1.5,3,6.66,6.66,0,0,0,4.05,1.11,6.1,6.1,0,0,0,3.65-1A3,3,0,0,0,55.85,39.72Zm-1-15.86a3.22,3.22,0,0,0-1.32-2.67,5.5,5.5,0,0,0-3.48-1,4.82,4.82,0,0,0-3.1,1,3,3,0,0,0-1.2,2.45q0,2.63,4.8,4.69A7.55,7.55,0,0,0,54,26.36,3.69,3.69,0,0,0,54.9,23.86Z"/></svg>