<svg id="Layer_1" data-name="Layer 1" xmlns="http://www.w3.org/2000/svg" viewBox="0 0 69.71 64.98"><defs><style>.cls-1{fill:#868687;}</style></defs><path class="cls-1" d="M12.75,49.21l.05-3.46q1.37-1.59,2.88-3.17c1-1,2-2.09,3-3.13s2-2.05,2.87-3a29.87,29.87,0,0,0,2.39-3,16.81,16.81,0,0,0,1.65-3,7.65,7.65,0,0,0,.62-3,3.24,3.24,0,0,0-1.15-2.59,4.15,4.15,0,0,0-2.81-1,4.68,4.68,0,0,0-2.14.48,5.32,5.32,0,0,0-1.62,1.22,8.88,8.88,0,0,0-1.19,1.65,14.71,14.71,0,0,0-.86,1.8l-4.22-3.07c.29-.67.66-1.42,1.1-2.27a8.66,8.66,0,0,1,1.91-2.43A10.63,10.63,0,0,1,18.5,19.3a13.79,13.79,0,0,1,5.12-.8,12.29,12.29,0,0,1,3.88.58,8.68,8.68,0,0,1,3,1.65,7.14,7.14,0,0,1,1.92,2.59,8.34,8.34,0,0,1,.68,3.41A11.56,11.56,0,0,1,31.83,32a27.73,27.73,0,0,1-3.15,4.87A36.64,36.64,0,0,1,24.81,41q-2,1.85-3.43,3.05h12v5.19Z"/><path class="cls-1" d="M57.06,39.42a9.23,9.23,0,0,1-2.84,7.24q-2.85,2.55-8,2.55a14.84,14.84,0,0,1-5.85-1.12,12.87,12.87,0,0,1-4.63-3.3l2.46-4.34Q42.15,44,45.89,44a5.85,5.85,0,0,0,3.82-1.21,3.79,3.79,0,0,0,1.5-3.1A4.32,4.32,0,0,0,50,36.36a5.23,5.23,0,0,0-3.63-1.14,5.15,5.15,0,0,0-2.31.5,9.5,9.5,0,0,0-2.18,1.56l-3.79-2.15.44-16.63h17.6l0,5.19h-12l-.22,7.21c.42-.2.79-.37,1.11-.5a9.29,9.29,0,0,1,.92-.33,4.67,4.67,0,0,1,1-.18c.34,0,.72,0,1.15,0a9.48,9.48,0,0,1,3.67.69,8.11,8.11,0,0,1,2.84,1.94,8.89,8.89,0,0,1,1.84,3A11.18,11.18,0,0,1,57.06,39.42Z"/></svg>