<svg id="Layer_1" data-name="Layer 1" xmlns="http://www.w3.org/2000/svg" viewBox="0 0 69.71 64.98"><defs><style>.cls-1{fill:#87786f;stroke:#2d1606;stroke-miterlimit:10;}</style></defs><path class="cls-1" d="M32.91,45a9.13,9.13,0,0,1-3.77,7.77q-3.75,2.8-10.46,2.8a22.89,22.89,0,0,1-6.25-.79,15.58,15.58,0,0,1-4.81-2.21A10.15,10.15,0,0,1,4.5,49.16a9.15,9.15,0,0,1-1.11-4.5,9.05,9.05,0,0,1,2-6,17,17,0,0,1,6.69-4.24q-2.46-1.53-4-2.68a11.08,11.08,0,0,1-2.31-2.27,6.65,6.65,0,0,1-1.11-2.35,12.7,12.7,0,0,1-.3-2.95,9.21,9.21,0,0,1,3.48-7.71q3.48-2.7,10.68-2.71a21.25,21.25,0,0,1,5.67.71,13.64,13.64,0,0,1,4.35,2,8.71,8.71,0,0,1,3.72,7.32,9.29,9.29,0,0,1-1.77,5.69A17.21,17.21,0,0,1,24.69,34,15,15,0,0,1,31,38.52,10.66,10.66,0,0,1,32.91,45Zm-8-.76a4.13,4.13,0,0,0-.48-2.06A4.6,4.6,0,0,0,23,40.67a12.72,12.72,0,0,0-2.22-1.24C20,39,19,38.65,17.91,38.24a12.15,12.15,0,0,0-4.38,2.24,4,4,0,0,0-1.26,3.06,4.29,4.29,0,0,0,1.8,3.64,8,8,0,0,0,4.86,1.32,7.34,7.34,0,0,0,4.38-1.16A3.61,3.61,0,0,0,24.93,44.25Zm-1.14-19A3.86,3.86,0,0,0,22.2,22,6.57,6.57,0,0,0,18,20.78a5.82,5.82,0,0,0-3.72,1.15,3.61,3.61,0,0,0-1.44,2.95q0,3.15,5.76,5.62a9.08,9.08,0,0,0,4-2.27A4.49,4.49,0,0,0,23.79,25.22Z"/><path class="cls-1" d="M61,55.58H53.55V45.26H38.13V13.64h7.68v24.9h7.74V28.4h7.38V38.54h5.34V45.2H61Z"/></svg>