<svg id="Layer_1" data-name="Layer 1" xmlns="http://www.w3.org/2000/svg" viewBox="0 0 69.71 64.98"><defs><style>.cls-1{fill:#022749;}</style></defs><path class="cls-1" d="M16.12,43.44v-24c-.59.68-1.15,1.28-1.67,1.83L12.73,23l-2.91-4c.89-.77,1.74-1.53,2.56-2.29s1.42-1.33,2.15-2.06a26.66,26.66,0,0,0,1.82-2H22V43.44Z"/><path class="cls-1" d="M52.11,35.69a6.71,6.71,0,0,1-2.76,5.7q-2.76,2.05-7.68,2a16.73,16.73,0,0,1-4.58-.58,11.48,11.48,0,0,1-3.53-1.62,7.36,7.36,0,0,1-2.28-2.51,6.61,6.61,0,0,1-.82-3.29A6.6,6.6,0,0,1,31.94,31a12.28,12.28,0,0,1,4.9-3.11c-1.2-.75-2.17-1.41-2.9-2a8.16,8.16,0,0,1-1.7-1.66,4.87,4.87,0,0,1-.81-1.73,9,9,0,0,1-.22-2.16,6.74,6.74,0,0,1,2.55-5.65q2.55-2,7.83-2a15.38,15.38,0,0,1,4.16.52,9.68,9.68,0,0,1,3.19,1.47A6.57,6.57,0,0,1,51,17a6.68,6.68,0,0,1,.7,3,6.8,6.8,0,0,1-1.3,4.18,12.74,12.74,0,0,1-4.29,3.35,10.84,10.84,0,0,1,4.59,3.32A7.78,7.78,0,0,1,52.11,35.69Zm-5.85-.56a3,3,0,0,0-.36-1.51,3.5,3.5,0,0,0-1-1.12,10.18,10.18,0,0,0-1.63-.91c-.63-.28-1.34-.57-2.13-.86a8.87,8.87,0,0,0-3.21,1.63A2.94,2.94,0,0,0,37,34.61a3.14,3.14,0,0,0,1.32,2.67,5.88,5.88,0,0,0,3.57,1,5.38,5.38,0,0,0,3.21-.85A2.66,2.66,0,0,0,46.26,35.13Zm-.84-14a2.84,2.84,0,0,0-1.17-2.35,4.77,4.77,0,0,0-3-.91,4.18,4.18,0,0,0-2.73.85,2.65,2.65,0,0,0-1.06,2.16q0,2.31,4.23,4.12a6.53,6.53,0,0,0,2.94-1.67A3.28,3.28,0,0,0,45.42,21.18Z"/></svg>