<svg id="Layer_1" data-name="Layer 1" xmlns="http://www.w3.org/2000/svg" viewBox="0 0 69.71 64.98"><defs><style>.cls-1{fill:#022749;}</style></defs><path class="cls-1" d="M30.33,34.26a9.23,9.23,0,0,1-2.84,7.23Q24.64,44,19.51,44a15,15,0,0,1-5.84-1.11A13.16,13.16,0,0,1,9,39.63l2.47-4.34q3.91,3.56,7.65,3.56A5.93,5.93,0,0,0,23,37.65a3.79,3.79,0,0,0,1.5-3.1,4.29,4.29,0,0,0-1.26-3.35,5.15,5.15,0,0,0-3.63-1.15,5.16,5.16,0,0,0-2.31.51,9.72,9.72,0,0,0-2.18,1.56L11.32,30l.44-16.63h17.6l.05,5.19h-12l-.22,7.22,1.11-.51c.32-.13.62-.24.92-.33a5.64,5.64,0,0,1,1-.17c.34,0,.73-.05,1.16-.05a9.52,9.52,0,0,1,3.67.69,8,8,0,0,1,2.84,1.95,9,9,0,0,1,1.84,3A11.18,11.18,0,0,1,30.33,34.26Z"/><path class="cls-1" d="M53.83,44h-5.9l.35-13a7.89,7.89,0,0,1-2.51,1.54,8.59,8.59,0,0,1-2.94.44,9.29,9.29,0,0,1-3.68-.7,8.18,8.18,0,0,1-2.84-2,9,9,0,0,1-1.82-3.1,12,12,0,0,1-.64-4,11.78,11.78,0,0,1,.77-4.38,9.27,9.27,0,0,1,2.18-3.32,9.37,9.37,0,0,1,3.45-2.09,13.36,13.36,0,0,1,4.55-.73,9.64,9.64,0,0,1,7.13,2.55,9.2,9.2,0,0,1,2.42,7.09ZM48.24,21.65A3.45,3.45,0,0,0,48,20.22a3.4,3.4,0,0,0-.79-1.12A3.34,3.34,0,0,0,46,18.35a4.16,4.16,0,0,0-1.5-.27,4,4,0,0,0-3.21,1.37,5.5,5.5,0,0,0-1.19,3.74,4.85,4.85,0,0,0,1,3.3A3.63,3.63,0,0,0,44,27.68a4,4,0,0,0,3-1.19,4.88,4.88,0,0,0,1.23-3.3Z"/></svg>