<svg id="Layer_1" data-name="Layer 1" xmlns="http://www.w3.org/2000/svg" viewBox="0 0 69.71 64.98"><defs><style>.cls-1{fill:#022749;}</style></defs><path class="cls-1" d="M43.12,38.58a9.22,9.22,0,0,1-2.85,7.24q-2.84,2.55-8,2.55a15,15,0,0,1-5.84-1.12A12.91,12.91,0,0,1,21.82,44l2.46-4.34c2.62,2.38,5.17,3.56,7.66,3.56A6,6,0,0,0,35.77,42a3.78,3.78,0,0,0,1.49-3.1A4.29,4.29,0,0,0,36,35.52a5.23,5.23,0,0,0-3.63-1.15,5.16,5.16,0,0,0-2.31.51,9.5,9.5,0,0,0-2.18,1.56l-3.78-2.15.44-16.64h17.6l0,5.2h-12L30,30.06l1.11-.5a6,6,0,0,1,.92-.33,4.8,4.8,0,0,1,1-.18c.34,0,.73,0,1.15,0a9.53,9.53,0,0,1,3.68.69,8.2,8.2,0,0,1,2.84,1.94,9,9,0,0,1,1.83,3A11,11,0,0,1,43.12,38.58Z"/></svg>