<svg id="Layer_1" data-name="Layer 1" xmlns="http://www.w3.org/2000/svg" viewBox="0 0 69.71 64.98"><defs><style>.cls-1{fill:#868687;}</style></defs><path class="cls-1" d="M21.52,47.66H14.87L26.4,22.14H12.58V17H33.31v4.56Z"/><path class="cls-1" d="M57.38,37.74a10.89,10.89,0,0,1-.74,4.1A8.77,8.77,0,0,1,51.41,47a11.86,11.86,0,0,1-4.2.71,11.72,11.72,0,0,1-4.4-.8,9.25,9.25,0,0,1-3.38-2.29A10.5,10.5,0,0,1,37.25,41a12.87,12.87,0,0,1-.78-4.6A16.52,16.52,0,0,1,37.41,31a28,28,0,0,1,2.43-5.22A38.93,38.93,0,0,1,43.21,21,44.22,44.22,0,0,1,47,17h7.43A45.47,45.47,0,0,0,49,22.85a47.6,47.6,0,0,0-4.45,6.81c.46-.26.88-.48,1.25-.66a9.27,9.27,0,0,1,1.06-.42,7,7,0,0,1,1-.22A10.24,10.24,0,0,1,49,28.3,8.3,8.3,0,0,1,52.4,29a7.56,7.56,0,0,1,2.63,2,9.38,9.38,0,0,1,1.72,3A11.1,11.1,0,0,1,57.38,37.74Zm-5.86.12a4.3,4.3,0,0,0-1-3.06,3.61,3.61,0,0,0-2.79-1.14,5.84,5.84,0,0,0-4.09,1.73c-.08.44-.14.77-.17,1a6.58,6.58,0,0,0,0,.87,4.85,4.85,0,0,0,1.2,3.41A4,4,0,0,0,47.69,42a3.64,3.64,0,0,0,2.79-1.13A4.27,4.27,0,0,0,51.52,37.86Z"/></svg>