<svg id="Layer_1" data-name="Layer 1" xmlns="http://www.w3.org/2000/svg" viewBox="0 0 69.71 64.98"><defs><style>.cls-1{fill:#87786f;stroke:#2d1606;stroke-miterlimit:10;}</style></defs><path class="cls-1" d="M32.49,44.36a15,15,0,0,1-1,5.59,12,12,0,0,1-7.14,7,16.24,16.24,0,0,1-5.73,1,15.86,15.86,0,0,1-6-1.09A12.74,12.74,0,0,1,8,53.68a14.54,14.54,0,0,1-3-4.83,17.68,17.68,0,0,1-1-6.26,22.38,22.38,0,0,1,1.27-7.38,38.93,38.93,0,0,1,3.32-7.12,52.87,52.87,0,0,1,4.59-6.53A62.24,62.24,0,0,1,18.33,16H28.47A62.46,62.46,0,0,0,21,24.05,65.73,65.73,0,0,0,15,33.34q.94-.54,1.71-.9a11.27,11.27,0,0,1,1.44-.57,8.08,8.08,0,0,1,1.38-.3,12.65,12.65,0,0,1,1.59-.09,11,11,0,0,1,4.61.94,10.11,10.11,0,0,1,3.58,2.66,12.6,12.6,0,0,1,2.35,4.1A15.17,15.17,0,0,1,32.49,44.36Zm-8,.17a5.92,5.92,0,0,0-1.43-4.18,4.91,4.91,0,0,0-3.8-1.55,7.93,7.93,0,0,0-5.57,2.36q-.18.9-.24,1.35a9.26,9.26,0,0,0-.06,1.18A6.69,6.69,0,0,0,15,48.35a5.49,5.49,0,0,0,4.25,1.79,4.92,4.92,0,0,0,3.8-1.54A5.77,5.77,0,0,0,24.51,44.53Z"/><path class="cls-1" d="M61,57.88H53.55V47.56H38.13V15.94h7.68v24.9h7.74V30.7h7.38V40.84h5.34V47.5H61Z"/></svg>