<svg id="Layer_1" data-name="Layer 1" xmlns="http://www.w3.org/2000/svg" viewBox="0 0 69.71 64.98"><defs><style>.cls-1{fill:#fff;stroke:#040421;}</style></defs><path class="cls-1" d="M29.36,48.65h-6.7l.41-14.75a9,9,0,0,1-2.85,1.75,9.91,9.91,0,0,1-3.36.5,10.58,10.58,0,0,1-4.17-.8,9.1,9.1,0,0,1-3.22-2.27,10.19,10.19,0,0,1-2.08-3.53A13.83,13.83,0,0,1,6.66,25a13.53,13.53,0,0,1,.88-5A10.61,10.61,0,0,1,10,16.2a10.77,10.77,0,0,1,3.93-2.37A15.4,15.4,0,0,1,19.11,13q5.2,0,8.11,2.9c1.93,1.93,2.85,4.62,2.75,8ZM23,23.2a3.84,3.84,0,0,0-.32-1.62,4.12,4.12,0,0,0-.9-1.28,3.87,3.87,0,0,0-1.38-.85,4.73,4.73,0,0,0-1.69-.3,4.59,4.59,0,0,0-3.65,1.55A6.21,6.21,0,0,0,13.72,25a5.54,5.54,0,0,0,1.17,3.75,4.1,4.1,0,0,0,3.27,1.35,4.52,4.52,0,0,0,3.41-1.35A5.58,5.58,0,0,0,23,25Z"/><path class="cls-1" d="M56.81,48.65h-6.7l.4-14.75a8.83,8.83,0,0,1-2.85,1.75,9.81,9.81,0,0,1-3.35.5,10.58,10.58,0,0,1-4.17-.8,9.23,9.23,0,0,1-3.23-2.27,10.17,10.17,0,0,1-2.07-3.53,13.83,13.83,0,0,1-.73-4.6A13.53,13.53,0,0,1,35,20a10.61,10.61,0,0,1,2.47-3.78,10.77,10.77,0,0,1,3.93-2.37A15.36,15.36,0,0,1,46.56,13q5.2,0,8.1,2.9c1.94,1.93,2.85,4.62,2.75,8ZM50.46,23.2a3.84,3.84,0,0,0-.32-1.62,4.12,4.12,0,0,0-.9-1.28,3.87,3.87,0,0,0-1.38-.85,4.79,4.79,0,0,0-1.7-.3,4.61,4.61,0,0,0-3.65,1.55A6.26,6.26,0,0,0,41.16,25a5.54,5.54,0,0,0,1.18,3.75,4.1,4.1,0,0,0,3.27,1.35A4.5,4.5,0,0,0,49,28.7,5.49,5.49,0,0,0,50.41,25Z"/></svg>