<svg id="Layer_1" data-name="Layer 1" xmlns="http://www.w3.org/2000/svg" viewBox="0 0 69.71 64.98"><defs><style>.cls-1{fill:#ffe8d9;stroke:#2d1606;stroke-miterlimit:10;}</style></defs><path class="cls-1" d="M31,57.92h-8l.48-17.7A11,11,0,0,1,20,42.32a12,12,0,0,1-4,.6,12.64,12.64,0,0,1-5-1A11.07,11.07,0,0,1,7.1,39.23,12.21,12.21,0,0,1,4.61,35a16.48,16.48,0,0,1-.87-5.52,16.19,16.19,0,0,1,1-6,12.66,12.66,0,0,1,3-4.53,12.82,12.82,0,0,1,4.71-2.85,18.47,18.47,0,0,1,6.21-1q6.24,0,9.72,3.48t3.3,9.66ZM23.36,27.38A4.72,4.72,0,0,0,23,25.43a4.83,4.83,0,0,0-1.08-1.53,4.79,4.79,0,0,0-1.65-1,5.76,5.76,0,0,0-2-.36,5.51,5.51,0,0,0-4.38,1.86,7.5,7.5,0,0,0-1.62,5.1A6.63,6.63,0,0,0,13.61,34a4.93,4.93,0,0,0,3.93,1.62A5.41,5.41,0,0,0,21.62,34a6.64,6.64,0,0,0,1.68-4.5Z"/><path class="cls-1" d="M61.4,57.92H54V47.6H38.54V16h7.68v24.9H54V30.74h7.38V40.88h5.34v6.66H61.4Z"/></svg>