<svg id="Layer_1" data-name="Layer 1" xmlns="http://www.w3.org/2000/svg" viewBox="0 0 69.71 64.98"><defs><style>.cls-1{fill:#868687;}</style></defs><path class="cls-1" d="M32.23,49.19h-5.9l.35-13a8.08,8.08,0,0,1-2.51,1.54,8.84,8.84,0,0,1-2.94.44,9.29,9.29,0,0,1-3.68-.7,8.18,8.18,0,0,1-2.84-2,8.9,8.9,0,0,1-1.82-3.11,12,12,0,0,1-.64-4.05A11.89,11.89,0,0,1,13,24a9.1,9.1,0,0,1,2.18-3.32,9.52,9.52,0,0,1,3.45-2.1,13.68,13.68,0,0,1,4.56-.72,9.62,9.62,0,0,1,7.12,2.55,9.16,9.16,0,0,1,2.42,7.08Zm-5.59-22.4a3.51,3.51,0,0,0-.29-1.43,3.5,3.5,0,0,0-2-1.87,4.38,4.38,0,0,0-1.5-.26,4,4,0,0,0-3.21,1.37,5.48,5.48,0,0,0-1.19,3.73,4.9,4.9,0,0,0,1,3.31,3.62,3.62,0,0,0,2.88,1.18,4,4,0,0,0,3-1.18,4.93,4.93,0,0,0,1.23-3.31Z"/><path class="cls-1" d="M57,39.41a9.23,9.23,0,0,1-2.84,7.23q-2.85,2.55-8,2.55a14.83,14.83,0,0,1-5.84-1.12,13,13,0,0,1-4.64-3.3l2.47-4.33Q42.13,44,45.86,44a5.91,5.91,0,0,0,3.83-1.2,3.8,3.8,0,0,0,1.5-3.1,4.32,4.32,0,0,0-1.26-3.36,5.19,5.19,0,0,0-3.62-1.14,5.3,5.3,0,0,0-2.32.5,9.45,9.45,0,0,0-2.17,1.57L38,35.11l.44-16.63h17.6l0,5.19h-12l-.22,7.22c.42-.21.79-.38,1.1-.51s.62-.24.92-.33a4.8,4.8,0,0,1,1-.18c.35,0,.73,0,1.16,0a9.48,9.48,0,0,1,3.67.69,8,8,0,0,1,2.84,1.95,8.86,8.86,0,0,1,1.84,3A11.14,11.14,0,0,1,57,39.41Z"/></svg>