<svg id="Layer_1" data-name="Layer 1" xmlns="http://www.w3.org/2000/svg" viewBox="0 0 69.71 64.98"><defs><style>.cls-1{fill:#868687;}</style></defs><path class="cls-1" d="M32.68,38.07a10.93,10.93,0,0,1-.73,4.1,9,9,0,0,1-2.05,3.11,9.11,9.11,0,0,1-3.19,2,11.86,11.86,0,0,1-4.2.7,11.67,11.67,0,0,1-4.39-.79,9.55,9.55,0,0,1-3.39-2.29,10.42,10.42,0,0,1-2.17-3.54,12.77,12.77,0,0,1-.78-4.59,16.22,16.22,0,0,1,.94-5.41,28,28,0,0,1,2.43-5.22,37.18,37.18,0,0,1,3.37-4.79,45.66,45.66,0,0,1,3.78-4.08h7.44a46.19,46.19,0,0,0-5.46,5.9A46.77,46.77,0,0,0,19.84,30c.46-.27.88-.49,1.25-.66a7.17,7.17,0,0,1,1.05-.42,5.78,5.78,0,0,1,1-.22,9.9,9.9,0,0,1,1.16-.07,8.11,8.11,0,0,1,3.38.69,7.57,7.57,0,0,1,2.63,2,9.38,9.38,0,0,1,1.73,3A11.3,11.3,0,0,1,32.68,38.07Zm-5.85.12a4.39,4.39,0,0,0-1-3.07A3.64,3.64,0,0,0,23,34a5.82,5.82,0,0,0-4.09,1.73q-.14.66-.18,1a6.78,6.78,0,0,0,0,.86A4.93,4.93,0,0,0,19.88,41,4,4,0,0,0,23,42.31a3.61,3.61,0,0,0,2.79-1.13A4.23,4.23,0,0,0,26.83,38.19Z"/><path class="cls-1" d="M55.43,48h-5.9l.36-13a8,8,0,0,1-2.51,1.54,8.65,8.65,0,0,1-3,.44,9.29,9.29,0,0,1-3.68-.7,8.14,8.14,0,0,1-2.83-2,9,9,0,0,1-1.83-3.1,12,12,0,0,1-.64-4.05,12,12,0,0,1,.77-4.38,9.07,9.07,0,0,1,5.63-5.41,13.46,13.46,0,0,1,4.56-.73,9.66,9.66,0,0,1,7.13,2.55A9.24,9.24,0,0,1,56,26.25ZM49.84,25.59A3.34,3.34,0,0,0,48.76,23a3.34,3.34,0,0,0-1.21-.75A4.14,4.14,0,0,0,46.06,22a4.07,4.07,0,0,0-3.22,1.37,5.5,5.5,0,0,0-1.18,3.74,4.85,4.85,0,0,0,1,3.3,3.63,3.63,0,0,0,2.88,1.19,4,4,0,0,0,3-1.19,4.88,4.88,0,0,0,1.23-3.3Z"/></svg>