<svg id="Layer_1" data-name="Layer 1" xmlns="http://www.w3.org/2000/svg" viewBox="0 0 69.71 64.98"><defs><style>.cls-1{fill:#868687;}</style></defs><path class="cls-1" d="M43.59,50.6H37.7l.35-13a8.08,8.08,0,0,1-2.51,1.54,8.86,8.86,0,0,1-2.95.44,9.41,9.41,0,0,1-3.67-.7,8.08,8.08,0,0,1-2.84-2,8.86,8.86,0,0,1-1.82-3.1,12,12,0,0,1-.64-4.05,11.78,11.78,0,0,1,.77-4.38A9.27,9.27,0,0,1,26.57,22,9.42,9.42,0,0,1,30,20a13.62,13.62,0,0,1,4.55-.72,9.64,9.64,0,0,1,7.13,2.55,9.16,9.16,0,0,1,2.42,7.08ZM38,28.2a3.51,3.51,0,0,0-.29-1.43,3.5,3.5,0,0,0-2-1.87,4.38,4.38,0,0,0-1.5-.26A4,4,0,0,0,31,26a5.52,5.52,0,0,0-1.19,3.74,4.85,4.85,0,0,0,1,3.3,3.58,3.58,0,0,0,2.88,1.19,3.93,3.93,0,0,0,3-1.19A4.88,4.88,0,0,0,38,29.74Z"/></svg>