<svg id="Layer_1" data-name="Layer 1" xmlns="http://www.w3.org/2000/svg" viewBox="0 0 69.71 64.98"><defs><style>.cls-1{fill:#b7b6b6;stroke:#040421;}</style></defs><path class="cls-1" d="M29.8,39.43A12.52,12.52,0,0,1,29,44.09,10,10,0,0,1,23,49.89a13.39,13.39,0,0,1-4.78.81,13.12,13.12,0,0,1-5-.91,10.62,10.62,0,0,1-3.85-2.6,11.88,11.88,0,0,1-2.47-4A14.58,14.58,0,0,1,6.05,38,18.59,18.59,0,0,1,7.11,31.8a32.2,32.2,0,0,1,2.77-5.93,42,42,0,0,1,3.83-5.44A49.71,49.71,0,0,1,18,15.8h8.45A54.63,54.63,0,0,0,15.21,30.25c.52-.3,1-.55,1.42-.75A9.88,9.88,0,0,1,17.82,29,7.48,7.48,0,0,1,19,28.77a10.52,10.52,0,0,1,1.32-.07,9.28,9.28,0,0,1,3.84.78,8.51,8.51,0,0,1,3,2.22,10.68,10.68,0,0,1,2,3.41A12.79,12.79,0,0,1,29.8,39.43Zm-6.65.14A5,5,0,0,0,22,36.08a4.11,4.11,0,0,0-3.17-1.28,6.6,6.6,0,0,0-4.64,2c-.1.5-.17.88-.2,1.12a6.73,6.73,0,0,0,0,1,5.57,5.57,0,0,0,1.35,3.88,4.57,4.57,0,0,0,3.54,1.5A4.1,4.1,0,0,0,22,43,4.82,4.82,0,0,0,23.15,39.57Z"/><path class="cls-1" d="M57.6,41.89a7.64,7.64,0,0,1-3.14,6.48c-2.09,1.55-5,2.33-8.72,2.33A19.19,19.19,0,0,1,40.53,50a13.11,13.11,0,0,1-4-1.84,8.69,8.69,0,0,1-2.6-2.85A7.71,7.71,0,0,1,33,41.6a7.57,7.57,0,0,1,1.67-5A14.12,14.12,0,0,1,40.25,33c-1.37-.85-2.47-1.59-3.3-2.23A9.39,9.39,0,0,1,35,28.9a5.4,5.4,0,0,1-.92-2,10.41,10.41,0,0,1-.25-2.46,7.66,7.66,0,0,1,2.9-6.43q2.89-2.25,8.9-2.25a17.33,17.33,0,0,1,4.72.59A11.26,11.26,0,0,1,54,18.06a7.24,7.24,0,0,1,3.1,6.1,7.71,7.71,0,0,1-1.48,4.74,14.41,14.41,0,0,1-4.87,3.81A12.47,12.47,0,0,1,56,36.48,8.91,8.91,0,0,1,57.6,41.89ZM51,41.26a3.57,3.57,0,0,0-.4-1.73,4,4,0,0,0-1.18-1.26,10.24,10.24,0,0,0-1.85-1c-.71-.33-1.52-.65-2.42-1a10.13,10.13,0,0,0-3.65,1.86,3.35,3.35,0,0,0-1.05,2.55,3.54,3.54,0,0,0,1.5,3A6.66,6.66,0,0,0,46,44.8a6.12,6.12,0,0,0,3.65-1A3,3,0,0,0,51,41.26ZM50,25.4a3.2,3.2,0,0,0-1.33-2.67,5.47,5.47,0,0,0-3.47-1,4.8,4.8,0,0,0-3.1,1,3,3,0,0,0-1.2,2.46q0,2.61,4.8,4.68a7.6,7.6,0,0,0,3.35-1.9A3.74,3.74,0,0,0,50,25.4Z"/></svg>