<svg id="Layer_1" data-name="Layer 1" xmlns="http://www.w3.org/2000/svg" viewBox="0 0 69.71 64.98"><defs><style>.cls-1{fill:#ffe8d9;stroke:#2d1606;stroke-miterlimit:10;}</style></defs><path class="cls-1" d="M31.12,57.92h-8l.48-17.7a11,11,0,0,1-3.42,2.1,12,12,0,0,1-4,.6,12.64,12.64,0,0,1-5-1,11.07,11.07,0,0,1-3.87-2.73A12.21,12.21,0,0,1,4.75,35a16.48,16.48,0,0,1-.87-5.52,16.19,16.19,0,0,1,1-6A12.66,12.66,0,0,1,7.9,19a12.82,12.82,0,0,1,4.71-2.85,18.47,18.47,0,0,1,6.21-1q6.24,0,9.72,3.48t3.3,9.66ZM23.5,27.38a4.72,4.72,0,0,0-.39-1.95A4.83,4.83,0,0,0,22,23.9a4.79,4.79,0,0,0-1.65-1,5.76,5.76,0,0,0-2-.36A5.51,5.51,0,0,0,14,24.38a7.5,7.5,0,0,0-1.62,5.1A6.63,6.63,0,0,0,13.75,34a4.93,4.93,0,0,0,3.93,1.62A5.41,5.41,0,0,0,21.76,34a6.64,6.64,0,0,0,1.68-4.5Z"/><path class="cls-1" d="M65.68,46.6a10.37,10.37,0,0,1-1,4.56,10.19,10.19,0,0,1-2.94,3.58A14.42,14.42,0,0,1,57,57.08a21,21,0,0,1-6.12.84,26.19,26.19,0,0,1-4.65-.38,16.61,16.61,0,0,1-3.87-1.19A14.87,14.87,0,0,1,39,54.19a25.32,25.32,0,0,1-3.24-3.29l4-5.34q4.68,5.28,10,5.28a7.24,7.24,0,0,0,4.71-1.39,4.84,4.84,0,0,0,1.83-3.67,4.72,4.72,0,0,0-.48-2.61,4.94,4.94,0,0,0-2-2,11.82,11.82,0,0,0-4-1.18,32.3,32.3,0,0,0-6.36-.12V32.78a44.2,44.2,0,0,0,6,.06A10.71,10.71,0,0,0,53.11,32,4,4,0,0,0,55,30.32a5.49,5.49,0,0,0,.57-2.62,4.35,4.35,0,0,0-1.74-3.33,6.91,6.91,0,0,0-4.32-1.25,10,10,0,0,0-4.26.94,17.29,17.29,0,0,0-4.32,3L37.6,21.42Q42.1,16,51.46,16a17.38,17.38,0,0,1,5.29.75,12.09,12.09,0,0,1,4,2.15,9.52,9.52,0,0,1,2.58,3.34,10.38,10.38,0,0,1,.9,4.39,9.14,9.14,0,0,1-1.74,5.78,13.66,13.66,0,0,1-5.76,3.87A11.24,11.24,0,0,1,63.4,39.7,10,10,0,0,1,65.68,46.6Z"/></svg>