<svg id="Layer_1" data-name="Layer 1" xmlns="http://www.w3.org/2000/svg" viewBox="0 0 69.71 64.98"><defs><style>.cls-1{fill:#fff;stroke:#040421;}</style></defs><path class="cls-1" d="M35.4,40.21a7.64,7.64,0,0,1-3.14,6.48c-2.09,1.55-5,2.33-8.72,2.33a19.06,19.06,0,0,1-5.2-.66,13.07,13.07,0,0,1-4-1.84,8.69,8.69,0,0,1-2.6-2.85,7.71,7.71,0,0,1-.92-3.75,7.57,7.57,0,0,1,1.67-5,14.12,14.12,0,0,1,5.58-3.54c-1.37-.85-2.47-1.59-3.3-2.23a9.39,9.39,0,0,1-1.93-1.89,5.4,5.4,0,0,1-.92-2,10.41,10.41,0,0,1-.25-2.46,7.63,7.63,0,0,1,2.9-6.42q2.89-2.27,8.9-2.26a17.33,17.33,0,0,1,4.72.59,11.26,11.26,0,0,1,3.63,1.67,7.24,7.24,0,0,1,3.1,6.1,7.71,7.71,0,0,1-1.48,4.74A14.41,14.41,0,0,1,28.55,31a12.47,12.47,0,0,1,5.22,3.77A8.91,8.91,0,0,1,35.4,40.21Zm-6.65-.63a3.57,3.57,0,0,0-.4-1.73,4,4,0,0,0-1.18-1.26,10.24,10.24,0,0,0-1.85-1c-.71-.33-1.52-.65-2.42-1a10.13,10.13,0,0,0-3.65,1.86A3.35,3.35,0,0,0,18.2,39a3.54,3.54,0,0,0,1.5,3,6.66,6.66,0,0,0,4.05,1.11,6.12,6.12,0,0,0,3.65-1A3,3,0,0,0,28.75,39.58ZM27.8,23.72a3.21,3.21,0,0,0-1.33-2.67A5.47,5.47,0,0,0,23,20a4.8,4.8,0,0,0-3.1,1,3,3,0,0,0-1.2,2.46q0,2.61,4.8,4.68a7.45,7.45,0,0,0,3.35-1.9A3.74,3.74,0,0,0,27.8,23.72Z"/><path class="cls-1" d="M62.25,39.59a8.63,8.63,0,0,1-.84,3.8,8.53,8.53,0,0,1-2.45,3,12,12,0,0,1-3.91,2A17.42,17.42,0,0,1,50,49a21.66,21.66,0,0,1-3.88-.32,13,13,0,0,1-3.22-1A12.39,12.39,0,0,1,40,45.91a21.29,21.29,0,0,1-2.7-2.74l3.3-4.45q3.9,4.39,8.35,4.4A6.06,6.06,0,0,0,52.87,42a4,4,0,0,0,1.53-3.05,3.92,3.92,0,0,0-.4-2.18,4.1,4.1,0,0,0-1.7-1.68,9.69,9.69,0,0,0-3.35-1,27.19,27.19,0,0,0-5.3-.1v-5.9a37.31,37.31,0,0,0,5,.05,8.87,8.87,0,0,0,3.1-.68A3.36,3.36,0,0,0,53.37,26a4.55,4.55,0,0,0,.48-2.19,3.64,3.64,0,0,0-1.45-2.77,5.77,5.77,0,0,0-3.6-1,8.39,8.39,0,0,0-3.55.78,14.26,14.26,0,0,0-3.6,2.54l-2.8-4.73q3.75-4.5,11.55-4.49a14.41,14.41,0,0,1,4.41.63,9.82,9.82,0,0,1,3.36,1.79,7.87,7.87,0,0,1,2.15,2.78A8.65,8.65,0,0,1,61.07,23a7.62,7.62,0,0,1-1.45,4.82A11.45,11.45,0,0,1,54.82,31a9.44,9.44,0,0,1,5.53,2.81A8.36,8.36,0,0,1,62.25,39.59Z"/></svg>