<svg id="Layer_1" data-name="Layer 1" xmlns="http://www.w3.org/2000/svg" viewBox="0 0 69.71 64.98"><defs><style>.cls-1{fill:#ffe8d9;stroke:#2d1606;stroke-miterlimit:10;}</style></defs><path class="cls-1" d="M29.32,55.8H21.89V45.48H6.47V13.86h7.67v24.9h7.75V28.62h7.37V38.76H34.6v6.66H29.32Z"/><path class="cls-1" d="M66.7,42.28a15,15,0,0,1-1,5.59,12,12,0,0,1-7.15,7,17.2,17.2,0,0,1-11.72-.12,12.64,12.64,0,0,1-4.61-3.12,14.49,14.49,0,0,1-3-4.82,17.68,17.68,0,0,1-1.06-6.26,22.39,22.39,0,0,1,1.28-7.38A38,38,0,0,1,42.8,26a51.11,51.11,0,0,1,4.59-6.53,62.24,62.24,0,0,1,5.16-5.56H62.69a63.24,63.24,0,0,0-7.44,8,64.24,64.24,0,0,0-6.06,9.29q.95-.54,1.71-.9a11.27,11.27,0,0,1,1.44-.57,8.08,8.08,0,0,1,1.38-.3,12.65,12.65,0,0,1,1.59-.09,11,11,0,0,1,4.61.94A10.2,10.2,0,0,1,63.5,33a12.79,12.79,0,0,1,2.35,4.1A15.17,15.17,0,0,1,66.7,42.28Zm-8,.17a5.94,5.94,0,0,0-1.42-4.19,4.92,4.92,0,0,0-3.8-1.54,8,8,0,0,0-5.58,2.36c-.11.6-.2,1.05-.24,1.35a9.09,9.09,0,0,0-.06,1.17,6.68,6.68,0,0,0,1.63,4.66,5.46,5.46,0,0,0,4.24,1.8,4.93,4.93,0,0,0,3.81-1.54A5.77,5.77,0,0,0,58.72,42.45Z"/></svg>