<svg id="Layer_1" data-name="Layer 1" xmlns="http://www.w3.org/2000/svg" viewBox="0 0 69.71 64.98"><defs><style>.cls-1{fill:#868687;}</style></defs><path class="cls-1" d="M29.66,48.59H24.2V41H12.89V17.83h5.63V36.09H24.2V28.66h5.41v7.43h3.92V41H29.66Z"/><path class="cls-1" d="M57.07,38.67a11.05,11.05,0,0,1-.73,4.1,8.75,8.75,0,0,1-5.24,5.11,11.86,11.86,0,0,1-4.2.71,11.72,11.72,0,0,1-4.4-.8,9.35,9.35,0,0,1-3.38-2.28A10.71,10.71,0,0,1,36.94,42a13.07,13.07,0,0,1-.77-4.59A16.52,16.52,0,0,1,37.1,32a28.39,28.39,0,0,1,2.44-5.22A37.88,37.88,0,0,1,42.91,22a44.07,44.07,0,0,1,3.78-4.07h7.43a46.13,46.13,0,0,0-5.45,5.9,46.69,46.69,0,0,0-4.44,6.81c.45-.26.87-.48,1.25-.66a8.36,8.36,0,0,1,1.05-.41,5.06,5.06,0,0,1,1-.22,8.36,8.36,0,0,1,1.17-.07,8.14,8.14,0,0,1,3.38.69,7.57,7.57,0,0,1,2.63,1.95,9.25,9.25,0,0,1,1.72,3A11,11,0,0,1,57.07,38.67Zm-5.85.13a4.35,4.35,0,0,0-1-3.07,3.61,3.61,0,0,0-2.79-1.13,5.82,5.82,0,0,0-4.08,1.73c-.09.44-.15.77-.18,1a7,7,0,0,0,0,.87,4.88,4.88,0,0,0,1.19,3.42,4,4,0,0,0,3.11,1.31,3.59,3.59,0,0,0,2.79-1.13A4.2,4.2,0,0,0,51.22,38.8Z"/></svg>