<svg id="Layer_1" data-name="Layer 1" xmlns="http://www.w3.org/2000/svg" viewBox="0 0 69.71 64.98"><defs><style>.cls-1{fill:#868687;}</style></defs><path class="cls-1" d="M20,45.67v-24c-.58.68-1.14,1.29-1.67,1.83l-1.71,1.74-2.91-4c.88-.76,1.73-1.52,2.55-2.29s1.43-1.33,2.16-2.06a24.49,24.49,0,0,0,1.81-2H25.9V45.67Z"/><path class="cls-1" d="M34.83,45.67l0-3.45q1.37-1.59,2.88-3.17l3-3.13c1-1,1.95-2.05,2.86-3.05a26.72,26.72,0,0,0,2.4-3,16.81,16.81,0,0,0,1.65-3,7.64,7.64,0,0,0,.61-3,3.29,3.29,0,0,0-1.14-2.59,4.15,4.15,0,0,0-2.82-1,4.76,4.76,0,0,0-2.13.47A5.53,5.53,0,0,0,40.57,22a9.37,9.37,0,0,0-1.19,1.65,14.71,14.71,0,0,0-.86,1.8L34.3,22.4c.29-.66.66-1.42,1.1-2.27a8.81,8.81,0,0,1,1.91-2.42,10.64,10.64,0,0,1,3.26-2A14,14,0,0,1,45.7,15a12.52,12.52,0,0,1,3.87.58,9,9,0,0,1,3,1.65,7.2,7.2,0,0,1,1.93,2.6,8.3,8.3,0,0,1,.67,3.41,11.46,11.46,0,0,1-1.3,5.23,27.12,27.12,0,0,1-3.14,4.87,37.64,37.64,0,0,1-3.88,4.14q-2,1.85-3.43,3h12v5.19Z"/></svg>