<svg id="Layer_1" data-name="Layer 1" xmlns="http://www.w3.org/2000/svg" viewBox="0 0 69.71 64.98"><defs><style>.cls-1{font-size:12px;font-family:MyriadPro-Regular, Myriad Pro;}.cls-2{fill:#868687;}</style></defs><text class="cls-1" transform="translate(-55.04 29.89)">TI_G2_001</text><path class="cls-2" d="M33.05,36.18a9.23,9.23,0,0,1-2.84,7.24Q27.36,46,22.23,46a14.83,14.83,0,0,1-5.84-1.12,12.87,12.87,0,0,1-4.63-3.3l2.46-4.34q3.91,3.57,7.66,3.57a5.9,5.9,0,0,0,3.82-1.2,3.82,3.82,0,0,0,1.5-3.11A4.32,4.32,0,0,0,26,33.12,5.24,5.24,0,0,0,22.31,32a5.21,5.21,0,0,0-2.3.5A9.5,9.5,0,0,0,17.83,34L14,31.89l.44-16.63h17.6l.05,5.19h-12l-.23,7.22c.43-.21.8-.38,1.12-.51s.62-.24.91-.33a4.77,4.77,0,0,1,1-.18c.34,0,.72,0,1.15,0a9.48,9.48,0,0,1,3.67.69,8.11,8.11,0,0,1,2.84,1.94,8.89,8.89,0,0,1,1.84,3A11.18,11.18,0,0,1,33.05,36.18Z"/><path class="cls-2" d="M54.7,46H49.24V38.4H37.94V15.21h5.63V33.47h5.67V26h5.41v7.43h3.92v4.89H54.7Z"/></svg>