<svg id="Layer_1" data-name="Layer 1" xmlns="http://www.w3.org/2000/svg" viewBox="0 0 69.71 64.98"><defs><style>.cls-1{fill:#868687;}</style></defs><path class="cls-1" d="M33.64,40.36a6.71,6.71,0,0,1-2.76,5.7c-1.84,1.36-4.4,2-7.67,2a17.07,17.07,0,0,1-4.58-.58,11.67,11.67,0,0,1-3.54-1.62,7.46,7.46,0,0,1-2.28-2.51,7.25,7.25,0,0,1,.66-7.74,12.39,12.39,0,0,1,4.9-3.11c-1.2-.75-2.17-1.4-2.9-2a8.18,8.18,0,0,1-1.7-1.67A5,5,0,0,1,13,27.2,9.15,9.15,0,0,1,12.74,25a6.75,6.75,0,0,1,2.55-5.66c1.7-1.32,4.31-2,7.83-2a15.73,15.73,0,0,1,4.16.52,10.11,10.11,0,0,1,3.19,1.47,6.36,6.36,0,0,1,2.73,5.37,6.77,6.77,0,0,1-1.3,4.17,12.65,12.65,0,0,1-4.29,3.36,10.93,10.93,0,0,1,4.6,3.31A7.87,7.87,0,0,1,33.64,40.36Zm-5.85-.56a3.13,3.13,0,0,0-.35-1.52,3.41,3.41,0,0,0-1-1.11,9.46,9.46,0,0,0-1.63-.91q-.94-.42-2.13-.87A9,9,0,0,0,19.43,37a2.93,2.93,0,0,0-.93,2.24,3.12,3.12,0,0,0,1.32,2.67,5.88,5.88,0,0,0,3.57,1,5.46,5.46,0,0,0,3.21-.84A2.68,2.68,0,0,0,27.79,39.8Zm-.84-14a2.87,2.87,0,0,0-1.16-2.35,4.88,4.88,0,0,0-3.06-.9,4.24,4.24,0,0,0-2.73.84,2.67,2.67,0,0,0-1.06,2.16c0,1.54,1.41,2.92,4.23,4.12a6.63,6.63,0,0,0,2.95-1.66A3.34,3.34,0,0,0,27,25.84Z"/><path class="cls-1" d="M36.59,48.11l0-3.46q1.36-1.59,2.88-3.17l3-3.13c1-1,1.95-2.05,2.86-3a27.73,27.73,0,0,0,2.4-3,17.1,17.1,0,0,0,1.65-3,7.59,7.59,0,0,0,.61-3,3.26,3.26,0,0,0-1.14-2.59,4.12,4.12,0,0,0-2.82-1,4.76,4.76,0,0,0-2.13.47,5.56,5.56,0,0,0-1.63,1.23,9.37,9.37,0,0,0-1.19,1.65,15.33,15.33,0,0,0-.86,1.79l-4.22-3.07c.29-.66.66-1.42,1.1-2.27a9,9,0,0,1,1.91-2.42,10.84,10.84,0,0,1,3.26-1.95,14,14,0,0,1,5.13-.8,12.63,12.63,0,0,1,3.88.58,9.07,9.07,0,0,1,3,1.65,7.2,7.2,0,0,1,1.93,2.6A8.3,8.3,0,0,1,57,25.63a11.43,11.43,0,0,1-1.3,5.23,27.12,27.12,0,0,1-3.14,4.87,37.64,37.64,0,0,1-3.88,4.14q-2,1.85-3.43,3h12v5.2Z"/></svg>