<svg id="Layer_1" data-name="Layer 1" xmlns="http://www.w3.org/2000/svg" viewBox="0 0 69.71 64.98"><defs><style>.cls-1{fill:#87786f;stroke:#2d1606;stroke-miterlimit:10;}</style></defs><path class="cls-1" d="M30.88,55.09h-8l.48-17.7a11,11,0,0,1-3.42,2.1,12,12,0,0,1-4,.6,12.64,12.64,0,0,1-5-1A11.07,11.07,0,0,1,7,36.4a12.21,12.21,0,0,1-2.49-4.23,16.48,16.48,0,0,1-.87-5.52,16.19,16.19,0,0,1,1.05-6,12.66,12.66,0,0,1,3-4.53,12.82,12.82,0,0,1,4.71-2.85,18.47,18.47,0,0,1,6.21-1q6.24,0,9.72,3.48t3.3,9.66ZM23.26,24.55a4.72,4.72,0,0,0-.39-1.95,4.83,4.83,0,0,0-1.08-1.53,4.79,4.79,0,0,0-1.65-1,5.76,5.76,0,0,0-2-.36,5.51,5.51,0,0,0-4.38,1.86,7.5,7.5,0,0,0-1.62,5.1,6.63,6.63,0,0,0,1.41,4.5,4.93,4.93,0,0,0,3.93,1.62,5.41,5.41,0,0,0,4.08-1.62,6.64,6.64,0,0,0,1.68-4.5Z"/><path class="cls-1" d="M37.24,55.09l.06-4.71q1.86-2.18,3.93-4.32l4.11-4.27c1.36-1.41,2.66-2.8,3.9-4.15a38,38,0,0,0,3.27-4.09,23,23,0,0,0,2.25-4.07,10.4,10.4,0,0,0,.84-4.06A4.45,4.45,0,0,0,54,21.89a5.67,5.67,0,0,0-3.84-1.36,6.42,6.42,0,0,0-2.91.65,7.51,7.51,0,0,0-2.22,1.66,12.15,12.15,0,0,0-1.62,2.25,19.58,19.58,0,0,0-1.17,2.46l-5.76-4.19c.4-.9.9-1.94,1.5-3.1A11.92,11.92,0,0,1,40.63,17a14.57,14.57,0,0,1,4.44-2.66,19.2,19.2,0,0,1,7-1.09,17.11,17.11,0,0,1,5.29.79,12,12,0,0,1,4.12,2.26,9.65,9.65,0,0,1,2.63,3.53A11.29,11.29,0,0,1,65,24.44a15.7,15.7,0,0,1-1.77,7.14A37.59,37.59,0,0,1,59,38.22a50.17,50.17,0,0,1-5.28,5.64Q50.92,46.38,49,48H65.38v7.08Z"/></svg>