<svg id="Layer_1" data-name="Layer 1" xmlns="http://www.w3.org/2000/svg" viewBox="0 0 69.71 64.98"><defs><style>.cls-1{fill:#b7b6b6;stroke:#040421;}</style></defs><path class="cls-1" d="M29.26,48.65h-6.7L23,33.9a9,9,0,0,1-2.85,1.75,9.85,9.85,0,0,1-3.35.5,10.6,10.6,0,0,1-4.18-.8,9.19,9.19,0,0,1-3.22-2.27,10.34,10.34,0,0,1-2.08-3.53A13.83,13.83,0,0,1,6.56,25a13.54,13.54,0,0,1,.87-5,10.28,10.28,0,0,1,6.4-6.15A15.42,15.42,0,0,1,19,13q5.19,0,8.1,2.9C29,17.83,30,20.52,29.86,24ZM22.91,23.2a3.93,3.93,0,0,0-1.23-2.9,3.92,3.92,0,0,0-1.37-.85,4.83,4.83,0,0,0-1.7-.3A4.59,4.59,0,0,0,15,20.7,6.26,6.26,0,0,0,13.61,25a5.54,5.54,0,0,0,1.17,3.75,4.13,4.13,0,0,0,3.28,1.35,4.51,4.51,0,0,0,3.4-1.35A5.58,5.58,0,0,0,22.86,25Z"/><path class="cls-1" d="M34.56,48.65l0-3.92c1-1.21,2.12-2.42,3.27-3.61l3.43-3.56c1.13-1.17,2.21-2.33,3.25-3.46a29.64,29.64,0,0,0,2.72-3.41,18.84,18.84,0,0,0,1.88-3.38,8.79,8.79,0,0,0,.7-3.39A3.72,3.72,0,0,0,48.56,21a4.74,4.74,0,0,0-3.2-1.13,5.36,5.36,0,0,0-2.43.54,6.38,6.38,0,0,0-1.85,1.39,10.13,10.13,0,0,0-1.35,1.87,15.22,15.22,0,0,0-1,2.05L34,22.21c.33-.76.75-1.62,1.25-2.58a10,10,0,0,1,2.17-2.76,12.18,12.18,0,0,1,3.7-2.21,15.81,15.81,0,0,1,5.83-.91,14.07,14.07,0,0,1,4.41.66,10,10,0,0,1,3.43,1.88,8.11,8.11,0,0,1,2.19,2.95,9.45,9.45,0,0,1,.77,3.87,13,13,0,0,1-1.48,5.95,31,31,0,0,1-3.57,5.53,42.27,42.27,0,0,1-4.4,4.7q-2.31,2.1-3.9,3.46H58v5.9Z"/></svg>