<svg id="Layer_1" data-name="Layer 1" xmlns="http://www.w3.org/2000/svg" viewBox="0 0 69.71 64.98"><defs><style>.cls-1{fill:#022749;}</style></defs><path class="cls-1" d="M9.87,47l0-3.46q1.37-1.59,2.89-3.17l3-3.13c1-1,2-2,2.86-3a26.72,26.72,0,0,0,2.4-3,16.46,16.46,0,0,0,1.65-3,7.6,7.6,0,0,0,.61-3,3.29,3.29,0,0,0-1.14-2.59,4.15,4.15,0,0,0-2.82-1,4.76,4.76,0,0,0-2.13.47,5.69,5.69,0,0,0-1.63,1.23A9.29,9.29,0,0,0,14.42,25a13.89,13.89,0,0,0-.85,1.8L9.34,23.7c.29-.66.66-1.42,1.1-2.27A9,9,0,0,1,12.35,19a11,11,0,0,1,3.26-2,14.05,14.05,0,0,1,5.13-.8,12.58,12.58,0,0,1,3.88.58,9.07,9.07,0,0,1,3,1.65,7.2,7.2,0,0,1,1.93,2.6,8.3,8.3,0,0,1,.67,3.41,11.43,11.43,0,0,1-1.3,5.23A27.12,27.12,0,0,1,25.8,34.6a36.71,36.71,0,0,1-3.88,4.14q-2,1.84-3.43,3h12V47Z"/><path class="cls-1" d="M53.52,47h-5.9L48,34a7.79,7.79,0,0,1-2.51,1.54,8.57,8.57,0,0,1-2.94.45,9.29,9.29,0,0,1-3.68-.71,8.27,8.27,0,0,1-2.84-2,9,9,0,0,1-1.82-3.1,12,12,0,0,1-.64-4.05,12,12,0,0,1,.77-4.38,9.27,9.27,0,0,1,2.18-3.32,9.37,9.37,0,0,1,3.45-2.09,13.67,13.67,0,0,1,4.56-.73,9.58,9.58,0,0,1,7.12,2.56A9.16,9.16,0,0,1,54,25.24Zm-5.59-22.4a3.48,3.48,0,0,0-.29-1.43A3.4,3.4,0,0,0,46.85,22a3.48,3.48,0,0,0-1.21-.75A4.14,4.14,0,0,0,44.15,21a4.06,4.06,0,0,0-3.22,1.36,5.5,5.5,0,0,0-1.19,3.74,4.85,4.85,0,0,0,1,3.3,3.63,3.63,0,0,0,2.88,1.19,4,4,0,0,0,3-1.19,4.88,4.88,0,0,0,1.23-3.3Z"/></svg>