<svg id="Layer_1" data-name="Layer 1" xmlns="http://www.w3.org/2000/svg" viewBox="0 0 69.71 64.98"><defs><style>.cls-1{fill:#ffe8d9;stroke:#2d1606;stroke-miterlimit:10;}</style></defs><path class="cls-1" d="M48.09,40.48a15,15,0,0,1-1,5.59A12,12,0,0,1,40,53a16,16,0,0,1-5.73,1,15.9,15.9,0,0,1-6-1.09,12.73,12.73,0,0,1-4.61-3.12,14.49,14.49,0,0,1-3-4.82,17.68,17.68,0,0,1-1.05-6.26,22.39,22.39,0,0,1,1.27-7.39,38.84,38.84,0,0,1,3.32-7.11,51.18,51.18,0,0,1,4.6-6.53,60.74,60.74,0,0,1,5.15-5.56H44.07a62.51,62.51,0,0,0-7.43,8.05,64.61,64.61,0,0,0-6.07,9.29q.95-.54,1.71-.9A11.27,11.27,0,0,1,33.72,28a8.08,8.08,0,0,1,1.38-.3,12.65,12.65,0,0,1,1.59-.09,11,11,0,0,1,4.61.94,10.24,10.24,0,0,1,3.59,2.66,12.77,12.77,0,0,1,2.34,4.1A15.13,15.13,0,0,1,48.09,40.48Zm-8,.16a5.94,5.94,0,0,0-1.43-4.18,4.91,4.91,0,0,0-3.8-1.54,7.93,7.93,0,0,0-5.57,2.36c-.12.6-.2,1-.24,1.34A9.37,9.37,0,0,0,29,39.8a6.68,6.68,0,0,0,1.62,4.66,5.47,5.47,0,0,0,4.25,1.8,4.94,4.94,0,0,0,3.8-1.54A5.78,5.78,0,0,0,40.11,40.64Z"/></svg>