<svg id="Layer_1" data-name="Layer 1" xmlns="http://www.w3.org/2000/svg" viewBox="0 0 69.71 64.98"><defs><style>.cls-1{fill:#868687;}</style></defs><path class="cls-1" d="M12.05,49.21l0-3.46q1.37-1.59,2.88-3.17l3-3.13c1-1,2-2.05,2.85-3a28.65,28.65,0,0,0,2.4-3,16.81,16.81,0,0,0,1.65-3,7.65,7.65,0,0,0,.62-3,3.26,3.26,0,0,0-1.14-2.59,4.19,4.19,0,0,0-2.82-1,4.64,4.64,0,0,0-2.13.48,5.24,5.24,0,0,0-1.63,1.22,8.88,8.88,0,0,0-1.19,1.65,14.71,14.71,0,0,0-.86,1.8l-4.22-3.07c.29-.67.66-1.42,1.1-2.27a8.66,8.66,0,0,1,1.91-2.43,10.63,10.63,0,0,1,3.26-1.94,13.79,13.79,0,0,1,5.12-.8,12.29,12.29,0,0,1,3.88.58,8.68,8.68,0,0,1,3,1.65,7.14,7.14,0,0,1,1.92,2.59,8.34,8.34,0,0,1,.68,3.41A11.56,11.56,0,0,1,31.12,32,27.17,27.17,0,0,1,28,36.83,36.64,36.64,0,0,1,24.1,41q-2,1.85-3.43,3.05h12v5.19Z"/><path class="cls-1" d="M55.69,49.21H49.8l.35-13a8.08,8.08,0,0,1-2.51,1.54,8.86,8.86,0,0,1-3,.44A9.24,9.24,0,0,1,41,37.5a7.93,7.93,0,0,1-2.84-2,9,9,0,0,1-1.83-3.1,12.21,12.21,0,0,1-.63-4A11.78,11.78,0,0,1,36.49,24a9.27,9.27,0,0,1,2.18-3.32,9.42,9.42,0,0,1,3.45-2.09,13.62,13.62,0,0,1,4.55-.72,9.64,9.64,0,0,1,7.13,2.55,9.16,9.16,0,0,1,2.42,7.08ZM50.1,26.81a3.48,3.48,0,0,0-.28-1.43,3.5,3.5,0,0,0-2-1.87,4.38,4.38,0,0,0-1.5-.26,4,4,0,0,0-3.21,1.36,5.52,5.52,0,0,0-1.19,3.74,4.85,4.85,0,0,0,1,3.3,3.63,3.63,0,0,0,2.89,1.19,4,4,0,0,0,3-1.19,4.88,4.88,0,0,0,1.23-3.3Z"/></svg>