<svg id="Layer_1" data-name="Layer 1" xmlns="http://www.w3.org/2000/svg" viewBox="0 0 69.71 64.98"><defs><style>.cls-1{fill:#022749;}</style></defs><path class="cls-1" d="M29.89,47H24l.35-13a8.08,8.08,0,0,1-2.51,1.54,8.84,8.84,0,0,1-2.94.44,9.29,9.29,0,0,1-3.68-.71,7.93,7.93,0,0,1-2.84-2,8.86,8.86,0,0,1-1.82-3.1,12,12,0,0,1-.64-4,12,12,0,0,1,.77-4.38,9.27,9.27,0,0,1,2.18-3.32,9.5,9.5,0,0,1,3.45-2.09,13.68,13.68,0,0,1,4.56-.72A9.62,9.62,0,0,1,28,18.14a9.16,9.16,0,0,1,2.42,7.08ZM24.3,24.56A3.44,3.44,0,0,0,23.22,22,3.64,3.64,0,0,0,22,21.26a4.38,4.38,0,0,0-1.5-.26,4,4,0,0,0-3.21,1.36,5.52,5.52,0,0,0-1.19,3.74,4.85,4.85,0,0,0,1,3.3A3.63,3.63,0,0,0,20,30.59a4,4,0,0,0,3-1.19,4.88,4.88,0,0,0,1.23-3.3Z"/><path class="cls-1" d="M52.19,47H46.74V39.39H35.43V16.2h5.63V34.46h5.68V27h5.41v7.43h3.91v4.89H52.19Z"/></svg>