<svg id="Layer_1" data-name="Layer 1" xmlns="http://www.w3.org/2000/svg" viewBox="0 0 69.71 64.98"><defs><style>.cls-1{fill:#868687;}</style></defs><path class="cls-1" d="M33.88,40.36a6.71,6.71,0,0,1-2.76,5.7c-1.84,1.36-4.4,2-7.68,2a17.13,17.13,0,0,1-4.58-.58,11.72,11.72,0,0,1-3.53-1.62,7.46,7.46,0,0,1-2.28-2.51,7.25,7.25,0,0,1,.66-7.74,12.39,12.39,0,0,1,4.9-3.11c-1.2-.75-2.17-1.4-2.9-2A8.18,8.18,0,0,1,14,28.92a5,5,0,0,1-.81-1.72A9.15,9.15,0,0,1,13,25a6.75,6.75,0,0,1,2.55-5.66c1.7-1.32,4.31-2,7.83-2a15.73,15.73,0,0,1,4.16.52,10.11,10.11,0,0,1,3.19,1.47,6.36,6.36,0,0,1,2.73,5.37,6.77,6.77,0,0,1-1.3,4.17,12.65,12.65,0,0,1-4.29,3.36,10.82,10.82,0,0,1,4.59,3.31A7.81,7.81,0,0,1,33.88,40.36ZM28,39.8a3.13,3.13,0,0,0-.35-1.52,3.41,3.41,0,0,0-1-1.11A9.46,9.46,0,0,0,25,36.26q-.95-.42-2.13-.87A8.86,8.86,0,0,0,19.67,37a2.93,2.93,0,0,0-.93,2.24,3.12,3.12,0,0,0,1.32,2.67,5.88,5.88,0,0,0,3.57,1,5.46,5.46,0,0,0,3.21-.84A2.68,2.68,0,0,0,28,39.8Zm-.84-14A2.87,2.87,0,0,0,26,23.49a4.88,4.88,0,0,0-3.06-.9,4.24,4.24,0,0,0-2.73.84,2.67,2.67,0,0,0-1.06,2.16c0,1.54,1.41,2.92,4.23,4.12a6.63,6.63,0,0,0,2.95-1.66A3.34,3.34,0,0,0,27.19,25.84Z"/><path class="cls-1" d="M57.73,38.19a10.89,10.89,0,0,1-.74,4.1,8.9,8.9,0,0,1-2,3.11,9.06,9.06,0,0,1-3.19,2,11.86,11.86,0,0,1-4.2.71,11.72,11.72,0,0,1-4.4-.8A9.38,9.38,0,0,1,39.78,45a10.66,10.66,0,0,1-2.18-3.53,13.09,13.09,0,0,1-.77-4.6,16.5,16.5,0,0,1,.93-5.41,28.09,28.09,0,0,1,2.44-5.22,37.88,37.88,0,0,1,3.37-4.79,44.23,44.23,0,0,1,3.78-4.08h7.43a46.81,46.81,0,0,0-5.45,5.9,47.32,47.32,0,0,0-4.44,6.82c.46-.26.87-.48,1.25-.66a8.5,8.5,0,0,1,1-.42,7,7,0,0,1,1-.22,10.37,10.37,0,0,1,1.17-.06,8.3,8.3,0,0,1,3.38.68,7.47,7.47,0,0,1,2.63,2,9.2,9.2,0,0,1,1.72,3A11.1,11.1,0,0,1,57.73,38.19Zm-5.86.12a4.3,4.3,0,0,0-1-3.06A3.58,3.58,0,0,0,48,34.11,5.86,5.86,0,0,0,44,35.84c-.08.44-.14.77-.17,1a6.85,6.85,0,0,0,0,.87,4.84,4.84,0,0,0,1.19,3.41A4,4,0,0,0,48,42.43a3.62,3.62,0,0,0,2.79-1.13A4.22,4.22,0,0,0,51.87,38.31Z"/></svg>