<svg id="Layer_1" data-name="Layer 1" xmlns="http://www.w3.org/2000/svg" viewBox="0 0 69.71 64.98"><defs><style>.cls-1{fill:#b7b6b6;stroke:#040421;}</style></defs><path class="cls-1" d="M35.18,39a8.44,8.44,0,0,1-.85,3.8,8.34,8.34,0,0,1-2.45,3A12.09,12.09,0,0,1,28,47.72a17.77,17.77,0,0,1-5.1.69A21.71,21.71,0,0,1,19,48.1a13.88,13.88,0,0,1-3.22-1,12.39,12.39,0,0,1-2.85-1.8,21.29,21.29,0,0,1-2.7-2.74l3.3-4.45q3.9,4.4,8.35,4.39a6.06,6.06,0,0,0,3.92-1.15,4,4,0,0,0,1.53-3.06,3.9,3.9,0,0,0-.4-2.17,4.1,4.1,0,0,0-1.7-1.68,9.69,9.69,0,0,0-3.35-1,26.42,26.42,0,0,0-5.3-.1V27.46a35.93,35.93,0,0,0,5,.06,9.11,9.11,0,0,0,3.1-.68,3.36,3.36,0,0,0,1.6-1.42,4.55,4.55,0,0,0,.48-2.19,3.63,3.63,0,0,0-1.45-2.77,5.71,5.71,0,0,0-3.6-1.05,8.4,8.4,0,0,0-3.55.79,14.19,14.19,0,0,0-3.6,2.53L11.78,18q3.75-4.48,11.55-4.49a14.72,14.72,0,0,1,4.41.63,10,10,0,0,1,3.36,1.8,7.87,7.87,0,0,1,2.15,2.78A8.61,8.61,0,0,1,34,22.38a7.57,7.57,0,0,1-1.45,4.81,11.27,11.27,0,0,1-4.8,3.22,9.39,9.39,0,0,1,5.53,2.82A8.35,8.35,0,0,1,35.18,39Z"/><path class="cls-1" d="M62,37.3q0,5.31-3.23,8.22t-9.06,2.89a17.13,17.13,0,0,1-6.65-1.26,14.76,14.76,0,0,1-5.26-3.76l2.8-4.93q4.44,4,8.7,4a6.75,6.75,0,0,0,4.35-1.36,4.33,4.33,0,0,0,1.7-3.53A4.87,4.87,0,0,0,54,33.82a5.89,5.89,0,0,0-4.12-1.31,6,6,0,0,0-2.63.58,10.5,10.5,0,0,0-2.47,1.78l-4.3-2.46.5-18.9h20l0,5.9H47.33l-.25,8.21c.48-.24.9-.43,1.26-.58a10.19,10.19,0,0,1,1-.38,7.17,7.17,0,0,1,1.1-.2c.38,0,.82-.05,1.31-.05A10.83,10.83,0,0,1,56,27.2a9.16,9.16,0,0,1,3.23,2.21,10.34,10.34,0,0,1,2.09,3.44A12.71,12.71,0,0,1,62,37.3Z"/></svg>