<svg id="Layer_1" data-name="Layer 1" xmlns="http://www.w3.org/2000/svg" viewBox="0 0 69.71 64.98"><defs><style>.cls-1{fill:#fff;stroke:#040421;}</style></defs><path class="cls-1" d="M10,49.16l0-3.93q1.55-1.81,3.27-3.61l3.43-3.55Q18.42,36.3,20,34.61A31.46,31.46,0,0,0,22.7,31.2a18.91,18.91,0,0,0,1.88-3.39,8.78,8.78,0,0,0,.7-3.38A3.72,3.72,0,0,0,24,21.49a4.69,4.69,0,0,0-3.2-1.13,5.49,5.49,0,0,0-2.43.53,6.38,6.38,0,0,0-1.85,1.39,10.69,10.69,0,0,0-1.35,1.88,15.71,15.71,0,0,0-1,2l-4.8-3.49c.33-.75.75-1.61,1.25-2.58a9.91,9.91,0,0,1,2.17-2.75,12,12,0,0,1,3.7-2.21,15.81,15.81,0,0,1,5.83-.91,14.37,14.37,0,0,1,4.41.65,10.14,10.14,0,0,1,3.43,1.88,8.2,8.2,0,0,1,2.19,2.95,9.45,9.45,0,0,1,.77,3.87,13,13,0,0,1-1.48,5.95,31,31,0,0,1-3.57,5.53,42.38,42.38,0,0,1-4.4,4.71c-1.54,1.39-2.84,2.55-3.9,3.46H33.43v5.9Z"/><path class="cls-1" d="M60.33,38q0,5.33-3.23,8.22T48,49.16a17,17,0,0,1-6.64-1.27,14.81,14.81,0,0,1-5.27-3.75l2.8-4.93q4.44,4,8.7,4A6.76,6.76,0,0,0,52,41.89a4.32,4.32,0,0,0,1.7-3.52,4.88,4.88,0,0,0-1.43-3.81,5.89,5.89,0,0,0-4.12-1.3,6,6,0,0,0-2.63.57A10.5,10.5,0,0,0,43,35.61l-4.3-2.46.5-18.89h20l.05,5.9H45.63l-.25,8.2c.48-.24.9-.43,1.26-.58a10.05,10.05,0,0,1,1-.37,5.37,5.37,0,0,1,1.1-.2,12.93,12.93,0,0,1,1.31-.05,10.83,10.83,0,0,1,4.17.78,9.16,9.16,0,0,1,3.23,2.21,10.34,10.34,0,0,1,2.09,3.44A12.71,12.71,0,0,1,60.33,38Z"/></svg>