<svg id="Layer_1" data-name="Layer 1" xmlns="http://www.w3.org/2000/svg" viewBox="0 0 69.71 64.98"><defs><style>.cls-1{fill:#87786f;stroke:#2d1606;stroke-miterlimit:10;}</style></defs><path class="cls-1" d="M33.19,44.33a9.12,9.12,0,0,1-3.76,7.77Q25.67,54.91,19,54.9a22.86,22.86,0,0,1-6.24-.79A15.64,15.64,0,0,1,7.9,51.9a10.15,10.15,0,0,1-3.12-3.42A9.15,9.15,0,0,1,3.67,44a9.05,9.05,0,0,1,2-6,17,17,0,0,1,6.69-4.24q-2.46-1.53-4-2.68A11.08,11.08,0,0,1,6.1,28.74,6.65,6.65,0,0,1,5,26.39a12.7,12.7,0,0,1-.3-2.95,9.21,9.21,0,0,1,3.48-7.71Q11.65,13,18.85,13a21.25,21.25,0,0,1,5.67.71,13.64,13.64,0,0,1,4.35,2,8.71,8.71,0,0,1,3.72,7.32,9.29,9.29,0,0,1-1.77,5.69A17.21,17.21,0,0,1,25,33.31a15,15,0,0,1,6.27,4.53A10.66,10.66,0,0,1,33.19,44.33Zm-8-.76a4.17,4.17,0,0,0-.48-2.07A4.67,4.67,0,0,0,23.32,40a12.72,12.72,0,0,0-2.22-1.24c-.86-.39-1.83-.78-2.91-1.19a12.32,12.32,0,0,0-4.38,2.23,4,4,0,0,0-1.26,3.07,4.29,4.29,0,0,0,1.8,3.64,8,8,0,0,0,4.86,1.32,7.41,7.41,0,0,0,4.38-1.16A3.61,3.61,0,0,0,25.21,43.57Zm-1.14-19a3.86,3.86,0,0,0-1.59-3.2,6.57,6.57,0,0,0-4.17-1.24,5.76,5.76,0,0,0-3.72,1.15,3.61,3.61,0,0,0-1.44,2.95q0,3.15,5.76,5.62a9.17,9.17,0,0,0,4-2.27A4.51,4.51,0,0,0,24.07,24.54Z"/><path class="cls-1" d="M67.15,33.24q0,11.43-3.94,16.55T51.52,54.9q-7.76,0-11.69-5.14T35.89,34q0-10.58,3.94-15.77T51.52,13Q67.15,13,67.15,33.24Zm-9.42.34c-.11-4.6-.64-7.89-1.56-9.86a4.74,4.74,0,0,0-4.59-3A5,5,0,0,0,46.94,24q-1.45,3.09-1.63,10.59.18,6.25,1.57,9.37a5,5,0,0,0,4.7,3.23A4.78,4.78,0,0,0,56.08,44C57.06,42,57.62,38.47,57.73,33.58Z"/></svg>