<svg id="Layer_1" data-name="Layer 1" xmlns="http://www.w3.org/2000/svg" viewBox="0 0 69.71 64.98"><defs><style>.cls-1{fill:#ffe8d9;stroke:#2d1606;stroke-miterlimit:10;}</style></defs><path class="cls-1" d="M32.6,41.62a10.17,10.17,0,0,1-1,4.56,10,10,0,0,1-2.94,3.58A14.32,14.32,0,0,1,24,52.1a21,21,0,0,1-6.12.84,25.28,25.28,0,0,1-4.65-.38,16.15,16.15,0,0,1-3.87-1.19A14.87,14.87,0,0,1,5.9,49.21a25.32,25.32,0,0,1-3.24-3.29l4-5.34q4.68,5.28,10,5.28a7.24,7.24,0,0,0,4.71-1.39,4.82,4.82,0,0,0,1.83-3.67,4.67,4.67,0,0,0-.47-2.6,4.93,4.93,0,0,0-2.05-2,11.82,11.82,0,0,0-4-1.18,32.3,32.3,0,0,0-6.36-.12V27.8a44.2,44.2,0,0,0,6,.06A10.73,10.73,0,0,0,20,27.05,4.06,4.06,0,0,0,22,25.34a5.46,5.46,0,0,0,.57-2.62,4.32,4.32,0,0,0-1.74-3.32,6.85,6.85,0,0,0-4.32-1.26,10,10,0,0,0-4.26.94,17.29,17.29,0,0,0-4.32,3L4.52,16.45Q9,11.07,18.38,11.06a17.13,17.13,0,0,1,5.3.76,12,12,0,0,1,4,2.15,9.43,9.43,0,0,1,2.58,3.34,10.3,10.3,0,0,1,.9,4.38,9.17,9.17,0,0,1-1.74,5.79,13.65,13.65,0,0,1-5.76,3.86,11.26,11.26,0,0,1,6.64,3.38A10.05,10.05,0,0,1,32.6,41.62Z"/><path class="cls-1" d="M61.4,52.94H54V42.62H38.54V11h7.68V35.9H54V25.76h7.38V35.9h5.34v6.66H61.4Z"/></svg>