<svg id="Layer_1" data-name="Layer 1" xmlns="http://www.w3.org/2000/svg" viewBox="0 0 69.71 64.98"><defs><style>.cls-1{fill:#022749;}</style></defs><path class="cls-1" d="M18.67,45.75H12L23.55,20.23H9.74V15H30.46v4.57Z"/><path class="cls-1" d="M53.12,45.75h-5.9l.36-13a7.89,7.89,0,0,1-2.51,1.54,8.65,8.65,0,0,1-3,.44,9.24,9.24,0,0,1-3.67-.7,8.18,8.18,0,0,1-2.84-2A9.13,9.13,0,0,1,33.78,29a12.29,12.29,0,0,1-.64-4.05,12,12,0,0,1,.77-4.38,9.05,9.05,0,0,1,5.64-5.41,13.36,13.36,0,0,1,4.55-.73,9.64,9.64,0,0,1,7.13,2.55A9.2,9.2,0,0,1,53.65,24ZM47.53,23.36a3.44,3.44,0,0,0-.28-1.43,3.72,3.72,0,0,0-.79-1.12,3.38,3.38,0,0,0-1.22-.75,4.39,4.39,0,0,0-4.7,1.1,5.45,5.45,0,0,0-1.19,3.74,4.85,4.85,0,0,0,1,3.3,3.63,3.63,0,0,0,2.88,1.19,4,4,0,0,0,3-1.19,4.88,4.88,0,0,0,1.23-3.3Z"/></svg>