<svg id="Layer_1" data-name="Layer 1" xmlns="http://www.w3.org/2000/svg" viewBox="0 0 69.71 64.98"><defs><style>.cls-1{fill:#fff;stroke:#040421;}</style></defs><path class="cls-1" d="M33,39.43a12.52,12.52,0,0,1-.83,4.66,10,10,0,0,1-6,5.8,13.35,13.35,0,0,1-4.78.81,13.15,13.15,0,0,1-5-.91,10.58,10.58,0,0,1-3.84-2.6,11.74,11.74,0,0,1-2.48-4A14.58,14.58,0,0,1,9.28,38a18.85,18.85,0,0,1,1.06-6.15,32.2,32.2,0,0,1,2.77-5.93,42.94,42.94,0,0,1,3.83-5.44,49.77,49.77,0,0,1,4.3-4.63h8.44a52.44,52.44,0,0,0-6.19,6.7,53.51,53.51,0,0,0-5,7.75c.52-.3,1-.55,1.42-.75a9.37,9.37,0,0,1,1.2-.48,7.35,7.35,0,0,1,1.15-.25,10.52,10.52,0,0,1,1.32-.07,9.33,9.33,0,0,1,3.85.78,8.56,8.56,0,0,1,3,2.22,10.68,10.68,0,0,1,2,3.41A12.79,12.79,0,0,1,33,39.43Zm-6.65.14a5,5,0,0,0-1.18-3.49A4.14,4.14,0,0,0,22,34.8a6.62,6.62,0,0,0-4.65,2c-.1.5-.17.88-.2,1.12a8.5,8.5,0,0,0-.05,1,5.53,5.53,0,0,0,1.36,3.88A4.53,4.53,0,0,0,22,44.25,4.09,4.09,0,0,0,25.19,43,4.77,4.77,0,0,0,26.38,39.57Z"/><path class="cls-1" d="M47.38,50.7V23.44c-.67.76-1.3,1.45-1.9,2.07s-1.25,1.28-1.95,2L40.23,23c1-.87,2-1.73,2.9-2.6s1.62-1.51,2.45-2.35,1.52-1.58,2.06-2.24H54V50.7Z"/></svg>