<svg id="Layer_1" data-name="Layer 1" xmlns="http://www.w3.org/2000/svg" viewBox="0 0 69.71 64.98"><defs><style>.cls-1{fill:#022749;}</style></defs><path class="cls-1" d="M16.77,48.37v-24c-.59.67-1.15,1.28-1.68,1.82S14,27.32,13.38,27.94l-2.91-4c.88-.76,1.74-1.52,2.56-2.28s1.42-1.34,2.15-2.07a24.81,24.81,0,0,0,1.82-2h5.62V48.37Z"/><path class="cls-1" d="M53.51,32.48q0,8.39-2.89,12.14T42,48.37q-5.68,0-8.57-3.77T30.58,33q0-7.76,2.89-11.56T42,17.65Q53.5,17.65,53.51,32.48Zm-6.91.25q-.14-5.05-1.15-7.23a3.46,3.46,0,0,0-3.36-2.17,3.71,3.71,0,0,0-3.41,2.35c-.71,1.51-1.1,4.1-1.19,7.77a19.1,19.1,0,0,0,1.15,6.87,3.66,3.66,0,0,0,3.45,2.37,3.49,3.49,0,0,0,3.29-2.29C46.11,38.88,46.51,36.32,46.6,32.73Z"/></svg>