<svg id="Layer_1" data-name="Layer 1" xmlns="http://www.w3.org/2000/svg" viewBox="0 0 69.71 64.98"><defs><style>.cls-1{fill:#022749;}</style></defs><path class="cls-1" d="M19.1,45.42H12.46L24,19.9H10.17V14.71H30.89v4.57Z"/><path class="cls-1" d="M34.06,45.42l0-3.45Q35.46,40.38,37,38.8l3-3.13c1-1,2-2.05,2.86-3.05a26.72,26.72,0,0,0,2.4-3,16.81,16.81,0,0,0,1.65-3,7.64,7.64,0,0,0,.61-3,3.29,3.29,0,0,0-1.14-2.59,4.15,4.15,0,0,0-2.82-1,4.76,4.76,0,0,0-2.13.47,5.66,5.66,0,0,0-1.63,1.22,9.37,9.37,0,0,0-1.19,1.65,14.62,14.62,0,0,0-.85,1.8l-4.23-3.07c.29-.66.66-1.42,1.1-2.27a8.67,8.67,0,0,1,1.92-2.42,10.58,10.58,0,0,1,3.25-2,14.09,14.09,0,0,1,5.13-.8,12.58,12.58,0,0,1,3.88.58,9.07,9.07,0,0,1,3,1.65,7.2,7.2,0,0,1,1.93,2.6A8.3,8.3,0,0,1,54.43,23a11.46,11.46,0,0,1-1.3,5.23A27.12,27.12,0,0,1,50,33.05a36.64,36.64,0,0,1-3.87,4.14q-2,1.85-3.44,3h12v5.19Z"/></svg>