<svg id="Layer_1" data-name="Layer 1" xmlns="http://www.w3.org/2000/svg" viewBox="0 0 69.71 64.98"><defs><style>.cls-1{fill:#868687;}</style></defs><path class="cls-1" d="M29.42,48.59H24V41H12.65V17.83h5.63V36.09H24V28.66h5.41v7.43h3.92V41H29.42Z"/><path class="cls-1" d="M35.93,48.59l0-3.45q1.37-1.61,2.88-3.18l3-3.13c1-1,2-2,2.86-3a26.72,26.72,0,0,0,2.4-3,16.81,16.81,0,0,0,1.65-3,7.64,7.64,0,0,0,.61-3,3.28,3.28,0,0,0-1.14-2.59,4.15,4.15,0,0,0-2.82-1,4.63,4.63,0,0,0-2.13.47,5.36,5.36,0,0,0-1.63,1.22,9.37,9.37,0,0,0-1.19,1.65,14.71,14.71,0,0,0-.86,1.8L35.4,25.32c.29-.66.66-1.42,1.1-2.27a8.81,8.81,0,0,1,1.91-2.42,10.56,10.56,0,0,1,3.26-1.95,13.81,13.81,0,0,1,5.13-.8,12.23,12.23,0,0,1,3.87.58,8.68,8.68,0,0,1,3,1.65,7.16,7.16,0,0,1,1.93,2.59,8.34,8.34,0,0,1,.67,3.41A11.47,11.47,0,0,1,55,31.35a27.4,27.4,0,0,1-3.14,4.86A37.64,37.64,0,0,1,48,40.35q-2,1.84-3.43,3h12v5.19Z"/></svg>