<svg id="Layer_1" data-name="Layer 1" xmlns="http://www.w3.org/2000/svg" viewBox="0 0 69.71 64.98"><defs><style>.cls-1{fill:#022749;}</style></defs><path class="cls-1" d="M29.92,47H24l.35-13a8.08,8.08,0,0,1-2.51,1.54,8.86,8.86,0,0,1-2.95.44,9.27,9.27,0,0,1-3.67-.71,7.93,7.93,0,0,1-2.84-2,8.86,8.86,0,0,1-1.82-3.1,12,12,0,0,1-.64-4,12,12,0,0,1,.77-4.38A9.27,9.27,0,0,1,12.9,18.4a9.5,9.5,0,0,1,3.45-2.09,13.63,13.63,0,0,1,4.56-.72A9.62,9.62,0,0,1,28,18.14a9.16,9.16,0,0,1,2.42,7.08Zm-5.58-22.4A3.44,3.44,0,0,0,23.26,22a3.64,3.64,0,0,0-1.21-.75,4.38,4.38,0,0,0-1.5-.26,4,4,0,0,0-3.21,1.36,5.52,5.52,0,0,0-1.19,3.74,4.85,4.85,0,0,0,1,3.3,3.63,3.63,0,0,0,2.88,1.19,4,4,0,0,0,3-1.19,4.88,4.88,0,0,0,1.23-3.3Z"/><path class="cls-1" d="M55.27,38.66A7.57,7.57,0,0,1,54.53,42a7.46,7.46,0,0,1-2.16,2.63,10.36,10.36,0,0,1-3.44,1.71,15.37,15.37,0,0,1-4.49.62A18.66,18.66,0,0,1,41,46.68a11.8,11.8,0,0,1-2.83-.87,11.34,11.34,0,0,1-2.51-1.58,18.88,18.88,0,0,1-2.38-2.42l2.91-3.92q3.42,3.88,7.34,3.88a5.34,5.34,0,0,0,3.46-1,3.57,3.57,0,0,0,1.34-2.69A3.43,3.43,0,0,0,48,36.15a3.51,3.51,0,0,0-1.5-1.48,8.23,8.23,0,0,0-2.95-.86,23.78,23.78,0,0,0-4.66-.1V28.52a31.78,31.78,0,0,0,4.42.05,8,8,0,0,0,2.73-.6,3,3,0,0,0,1.41-1.25,4,4,0,0,0,.42-1.92,3.2,3.2,0,0,0-1.28-2.44,5.06,5.06,0,0,0-3.17-.92,7.38,7.38,0,0,0-3.12.69,12.42,12.42,0,0,0-3.17,2.23L34.68,20.2q3.3-4,10.16-3.95a12.63,12.63,0,0,1,3.88.55,8.82,8.82,0,0,1,3,1.58,6.94,6.94,0,0,1,1.89,2.45A7.55,7.55,0,0,1,54.23,24,6.69,6.69,0,0,1,53,28.28a10,10,0,0,1-4.23,2.84A8.24,8.24,0,0,1,53.6,33.6,7.35,7.35,0,0,1,55.27,38.66Z"/></svg>