<svg id="Layer_1" data-name="Layer 1" xmlns="http://www.w3.org/2000/svg" viewBox="0 0 69.71 64.98"><defs><style>.cls-1{fill:#87786f;stroke:#2d1606;stroke-miterlimit:10;}</style></defs><path class="cls-1" d="M14.58,55.18V22.46c-.8.93-1.56,1.75-2.28,2.49S10.8,26.48,10,27.32L6,21.93q1.8-1.56,3.48-3.12,1.44-1.32,2.94-2.82A36.44,36.44,0,0,0,14.9,13.3h7.66V55.18Z"/><path class="cls-1" d="M64.68,33.51q0,11.45-3.94,16.55T49.05,55.18q-7.75,0-11.69-5.14T33.42,34.27q0-10.58,3.94-15.77t11.69-5.2Q64.68,13.3,64.68,33.51Zm-9.42.34c-.11-4.6-.64-7.88-1.56-9.86A4.74,4.74,0,0,0,49.11,21a5,5,0,0,0-4.64,3.2Q43,27.35,42.84,34.84q.18,6.24,1.57,9.37a5,5,0,0,0,4.7,3.23,4.78,4.78,0,0,0,4.5-3.13C54.59,42.23,55.15,38.75,55.26,33.85Z"/></svg>