<svg id="Layer_1" data-name="Layer 1" xmlns="http://www.w3.org/2000/svg" viewBox="0 0 69.71 64.98"><defs><style>.cls-1{fill:#b7b6b6;stroke:#040421;}</style></defs><path class="cls-1" d="M36.62,39a8.47,8.47,0,0,1-.85,3.8,8.31,8.31,0,0,1-2.45,3,11.7,11.7,0,0,1-3.9,2,17.42,17.42,0,0,1-5.1.7,21.71,21.71,0,0,1-3.88-.31,13.43,13.43,0,0,1-3.22-1,12.39,12.39,0,0,1-2.85-1.8,20.67,20.67,0,0,1-2.7-2.74L15,38.14q3.9,4.39,8.35,4.4a6.06,6.06,0,0,0,3.92-1.15,4.07,4.07,0,0,0,1.53-3.06,3.93,3.93,0,0,0-.4-2.18,4.09,4.09,0,0,0-1.7-1.67,9.68,9.68,0,0,0-3.35-1,27.19,27.19,0,0,0-5.3-.1v-5.9a37.31,37.31,0,0,0,5,.05,8.65,8.65,0,0,0,3.1-.68,3.31,3.31,0,0,0,1.6-1.42,4.53,4.53,0,0,0,.48-2.18,3.61,3.61,0,0,0-1.45-2.77,5.71,5.71,0,0,0-3.6-1,8.39,8.39,0,0,0-3.55.78A14.26,14.26,0,0,0,16,22.76L13.22,18Q17,13.54,24.77,13.54a14.41,14.41,0,0,1,4.41.63A10,10,0,0,1,32.54,16a7.9,7.9,0,0,1,2.15,2.79,8.6,8.6,0,0,1,.75,3.65A7.6,7.6,0,0,1,34,27.22a11.36,11.36,0,0,1-4.8,3.22,9.39,9.39,0,0,1,5.53,2.82A8.31,8.31,0,0,1,36.62,39Z"/><path class="cls-1" d="M60.62,48.44h-6.2v-8.6H41.57V13.49H48V34.24h6.45V25.79h6.15v8.45H65v5.55h-4.4Z"/></svg>