<svg id="Layer_1" data-name="Layer 1" xmlns="http://www.w3.org/2000/svg" viewBox="0 0 69.71 64.98"><defs><style>.cls-1{fill:#87786f;stroke:#2d1606;stroke-miterlimit:10;}</style></defs><path class="cls-1" d="M34.16,44.36a15,15,0,0,1-1,5.59,12,12,0,0,1-7.14,7,16.24,16.24,0,0,1-5.73,1,15.81,15.81,0,0,1-6-1.09,12.7,12.7,0,0,1-4.62-3.11,14.54,14.54,0,0,1-3-4.83,17.68,17.68,0,0,1-1-6.26,22.38,22.38,0,0,1,1.27-7.38,38.93,38.93,0,0,1,3.32-7.12,51.9,51.9,0,0,1,4.6-6.53A60.74,60.74,0,0,1,20,16H30.14a62.46,62.46,0,0,0-7.43,8.05,64.79,64.79,0,0,0-6.06,9.29c.62-.36,1.19-.66,1.7-.9a11.27,11.27,0,0,1,1.44-.57,8.08,8.08,0,0,1,1.38-.3,12.65,12.65,0,0,1,1.59-.09,11,11,0,0,1,4.61.94A10.11,10.11,0,0,1,31,35.08a12.81,12.81,0,0,1,2.36,4.1A15.42,15.42,0,0,1,34.16,44.36Zm-8,.17a5.92,5.92,0,0,0-1.43-4.18A4.9,4.9,0,0,0,21,38.8a7.93,7.93,0,0,0-5.57,2.36q-.18.9-.24,1.35a9.26,9.26,0,0,0-.06,1.18,6.69,6.69,0,0,0,1.62,4.66A5.49,5.49,0,0,0,21,50.14a4.92,4.92,0,0,0,3.8-1.54A5.77,5.77,0,0,0,26.18,44.53Z"/><path class="cls-1" d="M51.38,57.88V25.17q-1.2,1.38-2.28,2.49T46.76,30l-4-5.4q1.8-1.56,3.48-3.12c1-.87,1.94-1.81,2.94-2.81A36,36,0,0,0,51.69,16h7.67V57.88Z"/></svg>