<svg id="Layer_1" data-name="Layer 1" xmlns="http://www.w3.org/2000/svg" viewBox="0 0 69.71 64.98"><defs><style>.cls-1{fill:#ffe8d9;stroke:#2d1606;stroke-miterlimit:10;}</style></defs><path class="cls-1" d="M33.32,45a9.12,9.12,0,0,1-3.76,7.77c-2.51,1.87-6,2.8-10.47,2.8a22.86,22.86,0,0,1-6.24-.79A15.64,15.64,0,0,1,8,52.58a10.15,10.15,0,0,1-3.12-3.42,9.15,9.15,0,0,1-1.11-4.5,9.05,9.05,0,0,1,2-6,17,17,0,0,1,6.69-4.24q-2.46-1.53-4-2.68a11.08,11.08,0,0,1-2.31-2.27,6.65,6.65,0,0,1-1.11-2.35,12.7,12.7,0,0,1-.3-2.95A9.21,9.21,0,0,1,8.3,16.41Q11.78,13.71,19,13.7a21.25,21.25,0,0,1,5.67.71,13.64,13.64,0,0,1,4.35,2,8.71,8.71,0,0,1,3.72,7.32A9.29,9.29,0,0,1,31,29.42,17.21,17.21,0,0,1,25.1,34a15,15,0,0,1,6.27,4.53A10.66,10.66,0,0,1,33.32,45Zm-8-.76a4.13,4.13,0,0,0-.48-2.06,4.6,4.6,0,0,0-1.41-1.52,12.72,12.72,0,0,0-2.22-1.24c-.86-.39-1.83-.78-2.91-1.19a12.15,12.15,0,0,0-4.38,2.24,4,4,0,0,0-1.26,3.06,4.29,4.29,0,0,0,1.8,3.64,8,8,0,0,0,4.86,1.32,7.34,7.34,0,0,0,4.38-1.16A3.61,3.61,0,0,0,25.34,44.25Zm-1.14-19A3.86,3.86,0,0,0,22.61,22a6.57,6.57,0,0,0-4.17-1.24,5.82,5.82,0,0,0-3.72,1.15,3.61,3.61,0,0,0-1.44,2.95Q13.28,28,19,30.5a9.08,9.08,0,0,0,4-2.27A4.49,4.49,0,0,0,24.2,25.22Z"/><path class="cls-1" d="M61.4,55.58H54V45.26H38.54V13.64h7.68v24.9H54V28.4h7.38V38.54h5.34V45.2H61.4Z"/></svg>