<svg id="Layer_1" data-name="Layer 1" xmlns="http://www.w3.org/2000/svg" viewBox="0 0 69.71 64.98"><defs><style>.cls-1{fill:#fff;stroke:#040421;}</style></defs><path class="cls-1" d="M44.59,39.94a8.57,8.57,0,0,1-.84,3.8,8.45,8.45,0,0,1-2.45,3,12.14,12.14,0,0,1-3.91,2,17.67,17.67,0,0,1-5.1.69,21.67,21.67,0,0,1-3.87-.31,14,14,0,0,1-3.23-1,12.39,12.39,0,0,1-2.85-1.8,21.29,21.29,0,0,1-2.7-2.74l3.3-4.46q3.9,4.41,8.35,4.4a6.07,6.07,0,0,0,3.93-1.15,4,4,0,0,0,1.52-3.06,3.9,3.9,0,0,0-.4-2.17,4,4,0,0,0-1.7-1.68,9.69,9.69,0,0,0-3.35-1,26.31,26.31,0,0,0-5.3-.11v-5.9a37.69,37.69,0,0,0,5,.06,9.16,9.16,0,0,0,3.1-.68,3.41,3.41,0,0,0,1.6-1.42,4.67,4.67,0,0,0,.47-2.19,3.63,3.63,0,0,0-1.45-2.77,5.71,5.71,0,0,0-3.6-1.05,8.43,8.43,0,0,0-3.55.79A14.55,14.55,0,0,0,24,23.69L21.19,19q3.75-4.48,11.55-4.49a14.41,14.41,0,0,1,4.41.63,10,10,0,0,1,3.36,1.79,8,8,0,0,1,2.15,2.79,8.61,8.61,0,0,1,.75,3.66A7.57,7.57,0,0,1,42,28.15a11.27,11.27,0,0,1-4.8,3.22,9.36,9.36,0,0,1,5.53,2.82A8.33,8.33,0,0,1,44.59,39.94Z"/></svg>