<svg id="Layer_1" data-name="Layer 1" xmlns="http://www.w3.org/2000/svg" viewBox="0 0 69.71 64.98"><defs><style>.cls-1{fill:#868687;}</style></defs><path class="cls-1" d="M20.85,48H14.2L25.73,22.47H11.91V17.28H32.64v4.56Z"/><path class="cls-1" d="M55.3,48H49.4l.35-13a8.15,8.15,0,0,1-2.51,1.54A8.84,8.84,0,0,1,44.3,37a9.29,9.29,0,0,1-3.68-.71,8.14,8.14,0,0,1-2.84-2A8.86,8.86,0,0,1,36,31.18a12,12,0,0,1-.64-4.05,12,12,0,0,1,.77-4.38,9.27,9.27,0,0,1,2.18-3.32,9.37,9.37,0,0,1,3.45-2.09,13.72,13.72,0,0,1,4.56-.72,9.62,9.62,0,0,1,7.12,2.55,9.12,9.12,0,0,1,2.42,7.08Zm-5.59-22.4A3.44,3.44,0,0,0,48.63,23a3.64,3.64,0,0,0-1.21-.75,4.38,4.38,0,0,0-1.5-.26,4,4,0,0,0-3.21,1.36,5.52,5.52,0,0,0-1.18,3.74,4.85,4.85,0,0,0,1,3.3,3.63,3.63,0,0,0,2.88,1.19,4,4,0,0,0,3-1.19,4.78,4.78,0,0,0,1.23-3.3Z"/></svg>