<svg id="Layer_1" data-name="Layer 1" xmlns="http://www.w3.org/2000/svg" viewBox="0 0 69.71 64.98"><defs><style>.cls-1{fill:#022749;}</style></defs><path class="cls-1" d="M30.05,47h-5.9l.35-13A8,8,0,0,1,22,35.52a8.9,8.9,0,0,1-2.95.44,9.2,9.2,0,0,1-3.67-.71,7.93,7.93,0,0,1-2.84-2,8.88,8.88,0,0,1-1.83-3.1,12.2,12.2,0,0,1-.64-4,12,12,0,0,1,.77-4.38A9.41,9.41,0,0,1,13,18.4a9.5,9.5,0,0,1,3.45-2.09A13.72,13.72,0,0,1,21,15.59a9.64,9.64,0,0,1,7.13,2.55,9.2,9.2,0,0,1,2.42,7.08Zm-5.59-22.4a3.32,3.32,0,0,0-.29-1.43A3.51,3.51,0,0,0,23.38,22a3.64,3.64,0,0,0-1.21-.75A4.32,4.32,0,0,0,20.68,21a4.06,4.06,0,0,0-3.22,1.36,5.52,5.52,0,0,0-1.18,3.74,4.85,4.85,0,0,0,1,3.3,3.63,3.63,0,0,0,2.88,1.19,4,4,0,0,0,3-1.19,4.84,4.84,0,0,0,1.24-3.3Z"/><path class="cls-1" d="M54.86,37.17A9.2,9.2,0,0,1,52,44.41c-1.9,1.7-4.55,2.55-8,2.55a14.84,14.84,0,0,1-5.85-1.12,12.87,12.87,0,0,1-4.63-3.3L36,38.2c2.61,2.38,5.17,3.57,7.66,3.57a5.89,5.89,0,0,0,3.83-1.21A3.8,3.8,0,0,0,49,37.46a4.32,4.32,0,0,0-1.25-3.35A5.23,5.23,0,0,0,44.13,33a5.29,5.29,0,0,0-2.31.5A9.5,9.5,0,0,0,39.64,35l-3.78-2.15.44-16.63H53.9l0,5.19h-12l-.22,7.21c.42-.2.8-.37,1.11-.5a9.29,9.29,0,0,1,.92-.33,4.8,4.8,0,0,1,1-.18c.34,0,.72,0,1.15,0a9.57,9.57,0,0,1,3.68.69,8.2,8.2,0,0,1,2.84,1.94,9,9,0,0,1,1.83,3A11.18,11.18,0,0,1,54.86,37.17Z"/></svg>