<svg id="Layer_1" data-name="Layer 1" xmlns="http://www.w3.org/2000/svg" viewBox="0 0 69.71 64.98"><defs><style>.cls-1{fill:#87786f;stroke:#2d1606;stroke-miterlimit:10;}</style></defs><path class="cls-1" d="M16.67,54.9H7.61L23.33,20.1H4.49V13H32.75v6.24Z"/><path class="cls-1" d="M63.65,54.9h-8l.48-17.7a11,11,0,0,1-3.42,2.1,12,12,0,0,1-4,.6,12.64,12.64,0,0,1-5-1,11.07,11.07,0,0,1-3.87-2.73A12,12,0,0,1,37.28,32a16.48,16.48,0,0,1-.87-5.52,16.19,16.19,0,0,1,1.05-6,12.34,12.34,0,0,1,7.68-7.38,18.47,18.47,0,0,1,6.21-1c4.16,0,7.4,1.17,9.72,3.48s3.42,5.54,3.3,9.66ZM56,24.36a4.72,4.72,0,0,0-.39-1.95,5,5,0,0,0-1.08-1.53,4.79,4.79,0,0,0-1.65-1,5.76,5.76,0,0,0-2-.36,5.54,5.54,0,0,0-4.38,1.86,7.5,7.5,0,0,0-1.62,5.1A6.63,6.63,0,0,0,46.28,31a4.93,4.93,0,0,0,3.93,1.62A5.41,5.41,0,0,0,54.29,31,6.64,6.64,0,0,0,56,26.46Z"/></svg>