<svg id="Layer_1" data-name="Layer 1" xmlns="http://www.w3.org/2000/svg" viewBox="0 0 69.71 64.98"><defs><style>.cls-1{fill:#b7b6b6;stroke:#040421;}</style></defs><path class="cls-1" d="M18.65,47.92V20.66c-.67.76-1.3,1.45-1.9,2.07s-1.25,1.28-1.95,2l-3.3-4.5c1-.87,2-1.73,2.9-2.6S16,16.1,16.85,15.26s1.52-1.58,2.06-2.24H25.3v34.9Z"/><path class="cls-1" d="M57.6,47.92H50.9l.4-14.75a9.44,9.44,0,0,1-2.85,1.75,10.06,10.06,0,0,1-3.35.5,10.63,10.63,0,0,1-4.18-.8,9.35,9.35,0,0,1-3.22-2.28,10.3,10.3,0,0,1-2.08-3.52,13.83,13.83,0,0,1-.72-4.6,13.59,13.59,0,0,1,.87-5,10.35,10.35,0,0,1,6.4-6.15,15.42,15.42,0,0,1,5.18-.82c3.47,0,6.17,1,8.1,2.9s2.85,4.61,2.75,8ZM51.25,22.47a3.89,3.89,0,0,0-.33-1.63,3.78,3.78,0,0,0-.9-1.27,3.92,3.92,0,0,0-1.37-.85,4.79,4.79,0,0,0-1.7-.3A4.58,4.58,0,0,0,43.3,20,6.25,6.25,0,0,0,42,24.22,5.54,5.54,0,0,0,43.12,28a4.13,4.13,0,0,0,3.28,1.35A4.51,4.51,0,0,0,49.8,28a5.53,5.53,0,0,0,1.4-3.75Z"/></svg>