<svg id="Layer_1" data-name="Layer 1" xmlns="http://www.w3.org/2000/svg" viewBox="0 0 69.71 64.98"><defs><style>.cls-1{fill:#868687;}</style></defs><path class="cls-1" d="M21.28,47.66H14.63L26.16,22.14H12.34V17H33.07v4.56Z"/><path class="cls-1" d="M36.24,47.66l0-3.46q1.36-1.59,2.88-3.17l3-3.13c1-1,2-2,2.86-3a27.27,27.27,0,0,0,2.39-3,17.55,17.55,0,0,0,1.66-3,7.68,7.68,0,0,0,.61-3,3.26,3.26,0,0,0-1.14-2.59,4.14,4.14,0,0,0-2.82-1,4.76,4.76,0,0,0-2.13.47A5.56,5.56,0,0,0,42,24a8.88,8.88,0,0,0-1.19,1.65,14.71,14.71,0,0,0-.86,1.8l-4.22-3.07c.29-.67.66-1.42,1.1-2.28a9,9,0,0,1,1.91-2.42,10.84,10.84,0,0,1,3.26-2A14,14,0,0,1,47.1,17a12.59,12.59,0,0,1,3.88.57,8.86,8.86,0,0,1,3,1.66,7.28,7.28,0,0,1,1.93,2.59,8.47,8.47,0,0,1,.67,3.41,11.56,11.56,0,0,1-1.3,5.23,27.67,27.67,0,0,1-3.14,4.87,37.64,37.64,0,0,1-3.88,4.14q-2,1.84-3.43,3h12v5.2Z"/></svg>