<svg id="Layer_1" data-name="Layer 1" xmlns="http://www.w3.org/2000/svg" viewBox="0 0 69.71 64.98"><defs><style>.cls-1{fill:#022749;}</style></defs><path class="cls-1" d="M31.47,38.5a7.62,7.62,0,0,1-.74,3.35,7.52,7.52,0,0,1-2.16,2.62,10.38,10.38,0,0,1-3.44,1.72,15.38,15.38,0,0,1-4.49.61,19.65,19.65,0,0,1-3.41-.27,12.29,12.29,0,0,1-2.83-.88,10.66,10.66,0,0,1-2.51-1.58,18.77,18.77,0,0,1-2.38-2.41l2.91-3.92q3.42,3.87,7.34,3.87a5.34,5.34,0,0,0,3.46-1,3.55,3.55,0,0,0,1.34-2.69A3.43,3.43,0,0,0,24.21,36a3.49,3.49,0,0,0-1.5-1.47,8.42,8.42,0,0,0-2.95-.87,23.11,23.11,0,0,0-4.66-.09V28.37a33.17,33.17,0,0,0,4.42,0,7.58,7.58,0,0,0,2.73-.6,3,3,0,0,0,1.41-1.25,4,4,0,0,0,.42-1.92A3.21,3.21,0,0,0,22.8,22.2a5.06,5.06,0,0,0-3.17-.92,7.38,7.38,0,0,0-3.12.69,12.68,12.68,0,0,0-3.17,2.23L10.88,20Q14.18,16.1,21,16.09a12.63,12.63,0,0,1,3.88.55,8.82,8.82,0,0,1,3,1.58,6.94,6.94,0,0,1,1.89,2.45,7.6,7.6,0,0,1,.66,3.22,6.71,6.71,0,0,1-1.27,4.24A10,10,0,0,1,24.93,31a8.29,8.29,0,0,1,4.87,2.48A7.37,7.37,0,0,1,31.47,38.5Z"/><path class="cls-1" d="M52.59,46.8H47.13V39.23H35.82V16.05h5.64V34.31h5.67V26.87h5.41v7.44h3.92v4.88H52.59Z"/></svg>