<svg id="Layer_1" data-name="Layer 1" xmlns="http://www.w3.org/2000/svg" viewBox="0 0 69.71 64.98"><defs><style>.cls-1{fill:#b7b6b6;stroke:#040421;}</style></defs><path class="cls-1" d="M21.83,47.54V20.28c-.66.77-1.3,1.46-1.9,2.08l-1.95,2-3.3-4.5c1-.86,2-1.73,2.9-2.59S19.2,15.72,20,14.89a29.49,29.49,0,0,0,2.07-2.25h6.38v34.9Z"/><path class="cls-1" d="M62.38,36.27a12.48,12.48,0,0,1-.83,4.66,10,10,0,0,1-5.95,5.81,13.56,13.56,0,0,1-4.77.8,13.37,13.37,0,0,1-5-.9A10.84,10.84,0,0,1,42,44a12.1,12.1,0,0,1-2.48-4,14.8,14.8,0,0,1-.88-5.22,18.85,18.85,0,0,1,1.06-6.15,32.55,32.55,0,0,1,2.77-5.93,43,43,0,0,1,3.83-5.45,52.54,52.54,0,0,1,4.3-4.63H59a53.28,53.28,0,0,0-6.19,6.71,54.27,54.27,0,0,0-5.05,7.74c.52-.3,1-.55,1.42-.75a8,8,0,0,1,1.2-.47,6.37,6.37,0,0,1,1.15-.25,10.4,10.4,0,0,1,1.32-.08,9.3,9.3,0,0,1,3.85.78,8.47,8.47,0,0,1,3,2.22,10.45,10.45,0,0,1,2,3.42A12.45,12.45,0,0,1,62.38,36.27Zm-6.65.14a4.94,4.94,0,0,0-1.18-3.48,4.1,4.1,0,0,0-3.17-1.29,6.63,6.63,0,0,0-4.65,2c-.1.5-.16.87-.2,1.12a8.43,8.43,0,0,0-.05,1,5.52,5.52,0,0,0,1.36,3.88,4.53,4.53,0,0,0,3.53,1.5,4.14,4.14,0,0,0,3.18-1.28A4.82,4.82,0,0,0,55.73,36.41Z"/></svg>