<svg id="Layer_1" data-name="Layer 1" xmlns="http://www.w3.org/2000/svg" viewBox="0 0 69.71 64.98"><defs><style>.cls-1{fill:#ffe8d9;stroke:#2d1606;stroke-miterlimit:10;}</style></defs><path class="cls-1" d="M32,40.92q0,6.39-3.88,9.87T17.27,54.27a20.26,20.26,0,0,1-8-1.53A17.54,17.54,0,0,1,3,48.24l3.36-5.91q5.34,4.86,10.44,4.86A8.09,8.09,0,0,0,22,45.55a5.19,5.19,0,0,0,2-4.23,5.87,5.87,0,0,0-1.71-4.57,7.1,7.1,0,0,0-4.95-1.56,7.07,7.07,0,0,0-3.15.69,12.78,12.78,0,0,0-3,2.13L6.1,35.06l.6-22.67h24l.06,7.08H14.38l-.3,9.84c.58-.28,1.08-.51,1.51-.69a12.71,12.71,0,0,1,1.25-.45,6.72,6.72,0,0,1,1.32-.24c.46,0,1-.06,1.57-.06a13,13,0,0,1,5,.94,11,11,0,0,1,3.87,2.65,12.33,12.33,0,0,1,2.51,4.13A15.21,15.21,0,0,1,32,40.92Z"/><path class="cls-1" d="M66.4,43.7a9.17,9.17,0,0,1-3.76,7.77q-3.77,2.79-10.47,2.8a22.87,22.87,0,0,1-6.25-.8,15.56,15.56,0,0,1-4.81-2.2A10.15,10.15,0,0,1,38,47.85a9.15,9.15,0,0,1-1.11-4.5,9,9,0,0,1,2-6.05,16.73,16.73,0,0,1,6.69-4.24c-1.64-1-3-1.92-4-2.68a11.33,11.33,0,0,1-2.31-2.27,6.7,6.7,0,0,1-1.11-2.36,12.55,12.55,0,0,1-.3-2.94,9.21,9.21,0,0,1,3.48-7.72q3.48-2.7,10.68-2.7a21.27,21.27,0,0,1,5.67.7,13.66,13.66,0,0,1,4.35,2,8.71,8.71,0,0,1,3.72,7.32A9.29,9.29,0,0,1,64,28.11a17.46,17.46,0,0,1-5.85,4.57,14.86,14.86,0,0,1,6.26,4.52A10.63,10.63,0,0,1,66.4,43.7Zm-8-.76a4.17,4.17,0,0,0-.48-2.07,4.7,4.7,0,0,0-1.41-1.52,13.4,13.4,0,0,0-2.22-1.24c-.86-.39-1.83-.78-2.91-1.18A12.32,12.32,0,0,0,47,39.16a4,4,0,0,0-1.26,3.06,4.26,4.26,0,0,0,1.8,3.64,8,8,0,0,0,4.86,1.33A7.41,7.41,0,0,0,56.8,46,3.61,3.61,0,0,0,58.42,42.94Zm-1.14-19a3.88,3.88,0,0,0-1.59-3.2,6.63,6.63,0,0,0-4.17-1.23,5.76,5.76,0,0,0-3.72,1.15,3.61,3.61,0,0,0-1.44,2.95q0,3.15,5.76,5.62a9.08,9.08,0,0,0,4-2.28A4.47,4.47,0,0,0,57.28,23.9Z"/></svg>