<svg id="Layer_1" data-name="Layer 1" xmlns="http://www.w3.org/2000/svg" viewBox="0 0 69.71 64.98"><defs><style>.cls-1{fill:#ffe8d9;stroke:#2d1606;stroke-miterlimit:10;}</style></defs><path class="cls-1" d="M5.26,53.22l.06-4.71c1.24-1.46,2.56-2.9,3.93-4.33s2.75-2.86,4.12-4.27,2.65-2.8,3.89-4.15a38.4,38.4,0,0,0,3.28-4.09,24.41,24.41,0,0,0,2.25-4.07,10.54,10.54,0,0,0,.84-4.06A4.46,4.46,0,0,0,22.06,20a5.66,5.66,0,0,0-3.84-1.35,6.42,6.42,0,0,0-2.91.64A7.5,7.5,0,0,0,13.09,21a12.15,12.15,0,0,0-1.62,2.25,18.74,18.74,0,0,0-1.16,2.45L4.55,21.48c.39-.9.9-1.93,1.5-3.09a11.59,11.59,0,0,1,2.6-3.31,14.48,14.48,0,0,1,4.44-2.65,19,19,0,0,1,7-1.09,16.78,16.78,0,0,1,5.29.79,11.83,11.83,0,0,1,4.13,2.25,9.72,9.72,0,0,1,2.63,3.54,11.37,11.37,0,0,1,.92,4.64,15.83,15.83,0,0,1-1.77,7.14A38.22,38.22,0,0,1,27,36.34,49.26,49.26,0,0,1,21.71,42C19.86,43.66,18.31,45,17,46.14H33.4v7.08Z"/><path class="cls-1" d="M66.7,39.69a15,15,0,0,1-1,5.59,12,12,0,0,1-7.15,7,17.2,17.2,0,0,1-11.72-.12A12.89,12.89,0,0,1,42.23,49a14.49,14.49,0,0,1-3-4.82,17.73,17.73,0,0,1-1.06-6.27,22.39,22.39,0,0,1,1.28-7.38,38.57,38.57,0,0,1,3.32-7.12,51.82,51.82,0,0,1,4.59-6.53,62.07,62.07,0,0,1,5.16-5.55H62.69a62.47,62.47,0,0,0-7.44,8,64.33,64.33,0,0,0-6.06,9.3q.95-.54,1.71-.9a11.27,11.27,0,0,1,1.44-.57,8.08,8.08,0,0,1,1.38-.3,12.65,12.65,0,0,1,1.59-.09,11.2,11.2,0,0,1,4.61.93,10.23,10.23,0,0,1,3.58,2.67,12.74,12.74,0,0,1,2.35,4.09A15.17,15.17,0,0,1,66.7,39.69Zm-8,.17a5.92,5.92,0,0,0-1.42-4.18,4.92,4.92,0,0,0-3.8-1.54,8,8,0,0,0-5.58,2.35c-.11.6-.2,1-.24,1.35A9.26,9.26,0,0,0,47.62,39a6.7,6.7,0,0,0,1.63,4.66,5.45,5.45,0,0,0,4.24,1.79,4.93,4.93,0,0,0,3.81-1.54A5.75,5.75,0,0,0,58.72,39.86Z"/></svg>