<svg id="Layer_1" data-name="Layer 1" xmlns="http://www.w3.org/2000/svg" viewBox="0 0 69.71 64.98"><defs><style>.cls-1{fill:#87786f;stroke:#2d1606;stroke-miterlimit:10;}</style></defs><path class="cls-1" d="M32.32,41.62a10.3,10.3,0,0,1-1,4.56,10.19,10.19,0,0,1-2.94,3.58,14.22,14.22,0,0,1-4.69,2.34,21,21,0,0,1-6.12.84,25.28,25.28,0,0,1-4.65-.38A16.15,16.15,0,0,1,9,51.37a14.87,14.87,0,0,1-3.42-2.16,25.32,25.32,0,0,1-3.24-3.29l4-5.34q4.68,5.28,10,5.28a7.24,7.24,0,0,0,4.71-1.39,4.82,4.82,0,0,0,1.83-3.66,4.6,4.6,0,0,0-.48-2.61,4.82,4.82,0,0,0-2-2,11.58,11.58,0,0,0-4-1.19A32.3,32.3,0,0,0,10,34.88V27.8a46.14,46.14,0,0,0,6,.07,10.94,10.94,0,0,0,3.72-.82,4.06,4.06,0,0,0,1.92-1.71,5.46,5.46,0,0,0,.57-2.62A4.32,4.32,0,0,0,20.5,19.4a6.85,6.85,0,0,0-4.32-1.26,10,10,0,0,0-4.26.94,17.29,17.29,0,0,0-4.32,3L4.24,16.45q4.5-5.38,13.86-5.39a17.07,17.07,0,0,1,5.29.76,11.91,11.91,0,0,1,4,2.15A9.43,9.43,0,0,1,30,17.31a10.33,10.33,0,0,1,.9,4.38,9.15,9.15,0,0,1-1.74,5.79,13.56,13.56,0,0,1-5.76,3.86A11.24,11.24,0,0,1,30,34.72,10,10,0,0,1,32.32,41.62Z"/><path class="cls-1" d="M66,42.37a9.12,9.12,0,0,1-3.76,7.77q-3.77,2.8-10.47,2.8a22.94,22.94,0,0,1-6.25-.79,15.68,15.68,0,0,1-4.81-2.21,10.15,10.15,0,0,1-3.12-3.42A9.15,9.15,0,0,1,36.46,42a9.05,9.05,0,0,1,2-6.05,17,17,0,0,1,6.69-4.24q-2.46-1.53-4-2.68a11.08,11.08,0,0,1-2.31-2.27,6.65,6.65,0,0,1-1.11-2.35,12.7,12.7,0,0,1-.3-2.95A9.21,9.21,0,0,1,41,13.77q3.48-2.71,10.68-2.71a21.25,21.25,0,0,1,5.67.71,13.64,13.64,0,0,1,4.35,2,8.71,8.71,0,0,1,3.72,7.32,9.29,9.29,0,0,1-1.77,5.69,17.21,17.21,0,0,1-5.85,4.57A15,15,0,0,1,64,35.87,10.65,10.65,0,0,1,66,42.37Zm-8-.76a4.17,4.17,0,0,0-.48-2.07A4.67,4.67,0,0,0,56.11,38a12.72,12.72,0,0,0-2.22-1.24C53,36.4,52.06,36,51,35.6a12.32,12.32,0,0,0-4.38,2.23,4,4,0,0,0-1.26,3.07,4.29,4.29,0,0,0,1.8,3.64A8,8,0,0,0,52,45.86a7.41,7.41,0,0,0,4.38-1.16A3.61,3.61,0,0,0,58,41.61Zm-1.14-19a3.86,3.86,0,0,0-1.59-3.2,6.57,6.57,0,0,0-4.17-1.24,5.76,5.76,0,0,0-3.72,1.15,3.61,3.61,0,0,0-1.44,2.95q0,3.15,5.76,5.62a9.08,9.08,0,0,0,4-2.28A4.46,4.46,0,0,0,56.86,22.58Z"/></svg>