<svg id="Layer_1" data-name="Layer 1" xmlns="http://www.w3.org/2000/svg" viewBox="0 0 69.71 64.98"><defs><style>.cls-1{fill:#868687;}</style></defs><path class="cls-1" d="M33.11,37.74a10.93,10.93,0,0,1-.73,4.1A9,9,0,0,1,30.33,45a9.11,9.11,0,0,1-3.19,2,11.86,11.86,0,0,1-4.2.7,11.67,11.67,0,0,1-4.39-.79,9.64,9.64,0,0,1-3.39-2.29A10.42,10.42,0,0,1,13,41a12.77,12.77,0,0,1-.78-4.59A16.32,16.32,0,0,1,13.15,31a28.25,28.25,0,0,1,2.43-5.21A37.18,37.18,0,0,1,19,21a47.18,47.18,0,0,1,3.78-4.08h7.44a46.19,46.19,0,0,0-5.46,5.9,48.49,48.49,0,0,0-4.44,6.82c.46-.27.88-.49,1.25-.66a7.26,7.26,0,0,1,1.06-.42,5.68,5.68,0,0,1,1-.22,9.9,9.9,0,0,1,1.16-.07,8.07,8.07,0,0,1,3.38.69,7.47,7.47,0,0,1,2.63,1.95,9.38,9.38,0,0,1,1.73,3A11.3,11.3,0,0,1,33.11,37.74Zm-5.85.12a4.39,4.39,0,0,0-1-3.07,3.64,3.64,0,0,0-2.79-1.13,5.82,5.82,0,0,0-4.09,1.73q-.14.66-.18,1a6.78,6.78,0,0,0,0,.86,4.93,4.93,0,0,0,1.19,3.42A4,4,0,0,0,23.42,42a3.65,3.65,0,0,0,2.8-1.13A4.27,4.27,0,0,0,27.26,37.86Z"/><path class="cls-1" d="M36.37,47.65l0-3.45q1.37-1.59,2.88-3.17l3-3.13c1-1,1.95-2,2.86-3a26.72,26.72,0,0,0,2.4-3,18.18,18.18,0,0,0,1.65-3,7.64,7.64,0,0,0,.61-3,3.29,3.29,0,0,0-1.14-2.59,4.15,4.15,0,0,0-2.82-1,4.76,4.76,0,0,0-2.13.47A5.53,5.53,0,0,0,42.11,24a9.37,9.37,0,0,0-1.19,1.65,14.71,14.71,0,0,0-.86,1.8l-4.22-3.07c.29-.66.66-1.42,1.1-2.27a8.81,8.81,0,0,1,1.91-2.42,10.76,10.76,0,0,1,3.26-2,14.05,14.05,0,0,1,5.13-.8,12.63,12.63,0,0,1,3.88.58,9.07,9.07,0,0,1,3,1.65,7.2,7.2,0,0,1,1.93,2.6,8.3,8.3,0,0,1,.67,3.41,11.46,11.46,0,0,1-1.3,5.23,27.12,27.12,0,0,1-3.14,4.87,37.64,37.64,0,0,1-3.88,4.14q-2,1.84-3.43,3H57v5.19Z"/></svg>