<svg id="Layer_1" data-name="Layer 1" xmlns="http://www.w3.org/2000/svg" viewBox="0 0 69.71 64.98"><defs><style>.cls-1{fill:#87786f;stroke:#2d1606;stroke-miterlimit:10;}</style></defs><path class="cls-1" d="M15.91,54.29V21.58q-1.2,1.38-2.28,2.49t-2.34,2.37l-4-5.4q1.8-1.56,3.48-3.12c1-.87,1.94-1.81,2.94-2.81a36,36,0,0,0,2.47-2.7h7.67V54.29Z"/><path class="cls-1" d="M62.65,54.29h-8l.48-17.7a11,11,0,0,1-3.42,2.1,12,12,0,0,1-4,.6,12.64,12.64,0,0,1-5-1,11.07,11.07,0,0,1-3.87-2.73,12.21,12.21,0,0,1-2.49-4.23,16.48,16.48,0,0,1-.87-5.52,16.19,16.19,0,0,1,1.05-6,12.66,12.66,0,0,1,3-4.53,12.82,12.82,0,0,1,4.71-2.85,18.47,18.47,0,0,1,6.21-1q6.24,0,9.72,3.48t3.3,9.66ZM55,23.75a4.72,4.72,0,0,0-.39-1.95,4.83,4.83,0,0,0-1.08-1.53,4.79,4.79,0,0,0-1.65-1,5.76,5.76,0,0,0-2-.36,5.51,5.51,0,0,0-4.38,1.86,7.5,7.5,0,0,0-1.62,5.1,6.63,6.63,0,0,0,1.41,4.5A4.93,4.93,0,0,0,49.21,32a5.41,5.41,0,0,0,4.08-1.62A6.64,6.64,0,0,0,55,25.85Z"/></svg>