<svg id="Layer_1" data-name="Layer 1" xmlns="http://www.w3.org/2000/svg" viewBox="0 0 69.71 64.98"><defs><style>.cls-1{fill:#ffe8d9;stroke:#2d1606;stroke-miterlimit:10;}</style></defs><path class="cls-1" d="M29.54,55.8H22.1V45.48H6.68V13.86h7.68v24.9H22.1V28.62h7.38V38.76h5.34v6.66H29.54Z"/><path class="cls-1" d="M65.9,42.46q0,6.39-3.88,9.86T51.15,55.8a20.47,20.47,0,0,1-8-1.52,17.88,17.88,0,0,1-6.32-4.5l3.36-5.92q5.34,4.86,10.44,4.86a8.09,8.09,0,0,0,5.22-1.64,5.17,5.17,0,0,0,2-4.23,5.87,5.87,0,0,0-1.71-4.57,7.1,7.1,0,0,0-5-1.56,7.07,7.07,0,0,0-3.15.69,12.78,12.78,0,0,0-3,2.13L40,36.6l.6-22.68h24L64.64,21H48.26L48,30.84c.58-.28,1.09-.51,1.52-.69a11.09,11.09,0,0,1,1.25-.45A6.62,6.62,0,0,1,52,29.46c.46,0,1-.06,1.57-.06a12.89,12.89,0,0,1,5,.94A11,11,0,0,1,62.49,33,12.12,12.12,0,0,1,65,37.13,15.17,15.17,0,0,1,65.9,42.46Z"/></svg>