<svg id="Layer_1" data-name="Layer 1" xmlns="http://www.w3.org/2000/svg" viewBox="0 0 69.71 64.98"><defs><style>.cls-1{fill:#fff;stroke:#040421;}</style></defs><path class="cls-1" d="M31.38,40.6a12.27,12.27,0,0,1-.84,4.65,10.18,10.18,0,0,1-2.32,3.54,10.36,10.36,0,0,1-3.63,2.27,13.33,13.33,0,0,1-4.77.8,13.4,13.4,0,0,1-5-.9A10.71,10.71,0,0,1,11,48.36a12.07,12.07,0,0,1-2.47-4,14.58,14.58,0,0,1-.88-5.22A18.59,18.59,0,0,1,8.69,33,32.5,32.5,0,0,1,11.45,27a44,44,0,0,1,3.83-5.44A52.71,52.71,0,0,1,19.58,17H28a52.6,52.6,0,0,0-6.2,6.71,54.27,54.27,0,0,0-5,7.74c.53-.3,1-.55,1.42-.75a10.51,10.51,0,0,1,1.2-.47,6.56,6.56,0,0,1,1.15-.25,10.68,10.68,0,0,1,1.33-.08,9.28,9.28,0,0,1,3.84.78,8.51,8.51,0,0,1,3,2.22,10.81,10.81,0,0,1,2,3.42A12.75,12.75,0,0,1,31.38,40.6Zm-6.65.14a5,5,0,0,0-1.19-3.49A4.1,4.1,0,0,0,20.37,36a6.59,6.59,0,0,0-4.64,2c-.1.5-.17.87-.2,1.12a6.67,6.67,0,0,0,0,1,5.6,5.6,0,0,0,1.35,3.89,4.54,4.54,0,0,0,3.54,1.49,4.09,4.09,0,0,0,3.17-1.28A4.82,4.82,0,0,0,24.73,40.74Z"/><path class="cls-1" d="M57.23,51.86h-6.7l.4-14.75a9,9,0,0,1-2.85,1.75,9.85,9.85,0,0,1-3.35.5,10.42,10.42,0,0,1-4.18-.8,9.19,9.19,0,0,1-3.22-2.27,10.1,10.1,0,0,1-2.08-3.53,13.79,13.79,0,0,1-.72-4.6,13.54,13.54,0,0,1,.87-5A10.28,10.28,0,0,1,41.8,17,15.42,15.42,0,0,1,47,16.21q5.19,0,8.1,2.9t2.75,8.05ZM50.88,26.41a3.84,3.84,0,0,0-.33-1.62,4.24,4.24,0,0,0-.9-1.28,4.07,4.07,0,0,0-1.37-.85,4.83,4.83,0,0,0-1.7-.3,4.59,4.59,0,0,0-3.65,1.55,6.26,6.26,0,0,0-1.35,4.25,5.54,5.54,0,0,0,1.17,3.75A4.12,4.12,0,0,0,46,33.26a4.51,4.51,0,0,0,3.4-1.35,5.58,5.58,0,0,0,1.4-3.75Z"/></svg>