<svg id="Layer_1" data-name="Layer 1" xmlns="http://www.w3.org/2000/svg" viewBox="0 0 69.71 64.98"><defs><style>.cls-1{fill:#fff;stroke:#040421;}</style></defs><path class="cls-1" d="M33.44,48.65h-6.7l.4-14.75a9,9,0,0,1-2.85,1.75,9.81,9.81,0,0,1-3.35.5,10.58,10.58,0,0,1-4.17-.8,9.23,9.23,0,0,1-3.23-2.27,10.17,10.17,0,0,1-2.07-3.53,13.58,13.58,0,0,1-.73-4.6,13.33,13.33,0,0,1,.88-5,10.47,10.47,0,0,1,2.47-3.78A10.77,10.77,0,0,1,18,13.83,15.36,15.36,0,0,1,23.19,13q5.2,0,8.1,2.9c1.93,1.93,2.85,4.62,2.75,8ZM27.09,23.2a4,4,0,0,0-.32-1.62,4.12,4.12,0,0,0-.9-1.28,4.05,4.05,0,0,0-1.38-.85,4.79,4.79,0,0,0-1.7-.3,4.61,4.61,0,0,0-3.65,1.55A6.26,6.26,0,0,0,17.79,25,5.49,5.49,0,0,0,19,28.7a4.1,4.1,0,0,0,3.27,1.35,4.51,4.51,0,0,0,3.4-1.35A5.53,5.53,0,0,0,27,25Z"/><path class="cls-1" d="M62.84,39.85a7.6,7.6,0,0,1-3.13,6.47c-2.09,1.56-5,2.33-8.73,2.33a19.11,19.11,0,0,1-5.2-.66,12.9,12.9,0,0,1-4-1.84,8.3,8.3,0,0,1-2.6-2.85,7.56,7.56,0,0,1-.93-3.75,7.52,7.52,0,0,1,1.68-5A13.89,13.89,0,0,1,45.49,31c-1.37-.85-2.47-1.6-3.3-2.24a9.08,9.08,0,0,1-1.92-1.89,5.6,5.6,0,0,1-.93-2,10.32,10.32,0,0,1-.25-2.45A7.67,7.67,0,0,1,42,16q2.9-2.27,8.9-2.26a17.86,17.86,0,0,1,4.73.59A11.52,11.52,0,0,1,59.24,16a7.4,7.4,0,0,1,2.3,2.63,7.51,7.51,0,0,1,.8,3.47,7.73,7.73,0,0,1-1.47,4.74A14.47,14.47,0,0,1,56,30.66a12.56,12.56,0,0,1,5.22,3.77A8.87,8.87,0,0,1,62.84,39.85Zm-6.65-.64a3.42,3.42,0,0,0-.4-1.72,4,4,0,0,0-1.17-1.27,11.73,11.73,0,0,0-1.85-1q-1.08-.48-2.43-1a10.22,10.22,0,0,0-3.65,1.86,3.35,3.35,0,0,0-1,2.55,3.57,3.57,0,0,0,1.5,3,6.73,6.73,0,0,0,4,1.1,6.19,6.19,0,0,0,3.65-1A3,3,0,0,0,56.19,39.21Zm-.95-15.86a3.24,3.24,0,0,0-1.32-2.67,5.58,5.58,0,0,0-3.48-1,4.8,4.8,0,0,0-3.1,1,3,3,0,0,0-1.2,2.46q0,2.63,4.8,4.68a7.54,7.54,0,0,0,3.35-1.89A3.76,3.76,0,0,0,55.24,23.35Z"/></svg>