<svg id="Layer_1" data-name="Layer 1" xmlns="http://www.w3.org/2000/svg" viewBox="0 0 69.71 64.98"><defs><style>.cls-1{fill:#87786f;stroke:#2d1606;stroke-miterlimit:10;}</style></defs><path class="cls-1" d="M34,43.27A9.14,9.14,0,0,1,30.22,51q-3.75,2.79-10.46,2.79A22.89,22.89,0,0,1,13.51,53a15.86,15.86,0,0,1-4.82-2.2,10.14,10.14,0,0,1-3.11-3.43,9,9,0,0,1-1.11-4.49,9.07,9.07,0,0,1,2-6.06,17,17,0,0,1,6.7-4.24,46.28,46.28,0,0,1-4-2.68,11.14,11.14,0,0,1-2.32-2.26,6.5,6.5,0,0,1-1.1-2.36,12.05,12.05,0,0,1-.31-2.94A9.19,9.19,0,0,1,9,14.66C11.28,12.86,14.85,12,19.64,12a21.25,21.25,0,0,1,5.67.71,13.5,13.5,0,0,1,4.36,2A8.67,8.67,0,0,1,33.39,22a9.32,9.32,0,0,1-1.78,5.7,17.46,17.46,0,0,1-5.85,4.57A14.9,14.9,0,0,1,32,36.77,10.66,10.66,0,0,1,34,43.27Zm-8-.77a4.05,4.05,0,0,0-.49-2.06,4.7,4.7,0,0,0-1.41-1.52,13,13,0,0,0-2.22-1.24c-.86-.39-1.83-.78-2.91-1.19a12.31,12.31,0,0,0-4.38,2.24,4,4,0,0,0-1.25,3.06,4.26,4.26,0,0,0,1.79,3.64A8.1,8.1,0,0,0,20,46.75a7.38,7.38,0,0,0,4.38-1.16A3.61,3.61,0,0,0,26,42.5Zm-1.15-19a3.86,3.86,0,0,0-1.59-3.2A6.61,6.61,0,0,0,19.1,19a5.79,5.79,0,0,0-3.71,1.15,3.64,3.64,0,0,0-1.45,2.95q0,3.15,5.77,5.62a8.88,8.88,0,0,0,4-2.27A4.49,4.49,0,0,0,24.86,23.47Z"/><path class="cls-1" d="M65.48,40.49q0,6.39-3.87,9.86T50.73,53.83a20.51,20.51,0,0,1-8-1.52,17.63,17.63,0,0,1-6.32-4.5l3.36-5.92q5.34,4.86,10.44,4.86a8,8,0,0,0,5.22-1.64,5.17,5.17,0,0,0,2-4.22,5.89,5.89,0,0,0-1.71-4.58,7.1,7.1,0,0,0-4.95-1.56,7.07,7.07,0,0,0-3.15.69,12.78,12.78,0,0,0-3,2.13l-5.16-2.94L40.16,12h24L64.22,19H47.84l-.3,9.84c.59-.28,1.09-.51,1.52-.69a11.85,11.85,0,0,1,1.25-.45,6.76,6.76,0,0,1,1.31-.24c.47,0,1-.06,1.57-.06a13.07,13.07,0,0,1,5,.94A11.05,11.05,0,0,1,62.08,31a12.11,12.11,0,0,1,2.5,4.13A15.21,15.21,0,0,1,65.48,40.49Z"/></svg>