<svg id="Layer_1" data-name="Layer 1" xmlns="http://www.w3.org/2000/svg" viewBox="0 0 69.71 64.98"><defs><style>.cls-1{fill:#ffe8d9;stroke:#2d1606;stroke-miterlimit:10;}</style></defs><path class="cls-1" d="M33.46,42.81a10.17,10.17,0,0,1-1,4.56A10,10,0,0,1,29.51,51a13.94,13.94,0,0,1-4.69,2.34,21,21,0,0,1-6.12.84,26.25,26.25,0,0,1-4.65-.37,17.1,17.1,0,0,1-3.87-1.19A15.26,15.26,0,0,1,6.76,50.4a24.7,24.7,0,0,1-3.24-3.29l4-5.34q4.68,5.28,10,5.28a7.3,7.3,0,0,0,4.71-1.38A4.85,4.85,0,0,0,24,42a4.69,4.69,0,0,0-.47-2.61,4.85,4.85,0,0,0-2.05-2,11.39,11.39,0,0,0-4-1.18,31.45,31.45,0,0,0-6.36-.13V29a46.14,46.14,0,0,0,6,.07,10.71,10.71,0,0,0,3.72-.82,4.06,4.06,0,0,0,1.92-1.71,5.46,5.46,0,0,0,.57-2.62,4.33,4.33,0,0,0-1.74-3.32,6.85,6.85,0,0,0-4.32-1.26,10.17,10.17,0,0,0-4.26.94,17.35,17.35,0,0,0-4.32,3.05L5.38,17.64q4.5-5.38,13.86-5.39a17.13,17.13,0,0,1,5.3.76,12,12,0,0,1,4,2.15,9.43,9.43,0,0,1,2.58,3.34,10.35,10.35,0,0,1,.9,4.39,9.14,9.14,0,0,1-1.74,5.78,13.56,13.56,0,0,1-5.76,3.86,11.32,11.32,0,0,1,6.64,3.38A10.05,10.05,0,0,1,33.46,42.81Z"/><path class="cls-1" d="M66.7,40.61a14.81,14.81,0,0,1-1,5.59,12.05,12.05,0,0,1-2.79,4.24,12.25,12.25,0,0,1-4.35,2.73,16.15,16.15,0,0,1-5.72,1,15.83,15.83,0,0,1-6-1.09,12.74,12.74,0,0,1-4.61-3.11,14.54,14.54,0,0,1-3-4.83,17.68,17.68,0,0,1-1.06-6.26,22.39,22.39,0,0,1,1.28-7.38,38.27,38.27,0,0,1,3.32-7.12,51.82,51.82,0,0,1,4.59-6.53,62.24,62.24,0,0,1,5.16-5.56H62.69a63.24,63.24,0,0,0-7.44,8.05,64.79,64.79,0,0,0-6.06,9.29q.95-.54,1.71-.9a11.27,11.27,0,0,1,1.44-.57,8.08,8.08,0,0,1,1.38-.3,12.6,12.6,0,0,1,1.58-.09,11.09,11.09,0,0,1,4.62.94,10.2,10.2,0,0,1,3.58,2.66,12.79,12.79,0,0,1,2.35,4.1A15.17,15.17,0,0,1,66.7,40.61Zm-8,.17A5.9,5.9,0,0,0,57.3,36.6a4.93,4.93,0,0,0-3.8-1.55,8,8,0,0,0-5.58,2.36q-.18.9-.24,1.35a9.26,9.26,0,0,0-.06,1.18,6.72,6.72,0,0,0,1.63,4.66,5.48,5.48,0,0,0,4.24,1.79,4.93,4.93,0,0,0,3.81-1.54A5.77,5.77,0,0,0,58.72,40.78Z"/></svg>