<svg id="Layer_1" data-name="Layer 1" xmlns="http://www.w3.org/2000/svg" viewBox="0 0 69.71 64.98"><defs><style>.cls-1{fill:#87786f;stroke:#2d1606;stroke-miterlimit:10;}</style></defs><path class="cls-1" d="M5.06,53.22l.07-4.71c1.23-1.45,2.55-2.9,3.92-4.33l4.12-4.27c1.35-1.41,2.65-2.8,3.89-4.15a38.4,38.4,0,0,0,3.28-4.09,24.33,24.33,0,0,0,2.25-4.06,10.63,10.63,0,0,0,.84-4.07A4.46,4.46,0,0,0,21.86,20,5.66,5.66,0,0,0,18,18.66a6.42,6.42,0,0,0-2.91.64A7.37,7.37,0,0,0,12.89,21a12.15,12.15,0,0,0-1.62,2.25,20.22,20.22,0,0,0-1.17,2.45L4.35,21.48c.39-.9.9-1.93,1.5-3.09a11.73,11.73,0,0,1,2.61-3.31,14.5,14.5,0,0,1,4.43-2.65,19,19,0,0,1,7-1.09,16.76,16.76,0,0,1,5.28.79,11.83,11.83,0,0,1,4.13,2.25,9.72,9.72,0,0,1,2.63,3.54,11.38,11.38,0,0,1,.92,4.65,15.82,15.82,0,0,1-1.77,7.13,38.17,38.17,0,0,1-4.29,6.64A51.17,51.17,0,0,1,21.51,42q-2.78,2.52-4.68,4.16H33.21v7.08Z"/><path class="cls-1" d="M65.48,39.87q0,6.39-3.87,9.87T50.73,53.22a20.51,20.51,0,0,1-8-1.52,17.78,17.78,0,0,1-6.32-4.51l3.36-5.91q5.34,4.86,10.44,4.86a8.09,8.09,0,0,0,5.22-1.64,5.17,5.17,0,0,0,2-4.23,5.87,5.87,0,0,0-1.71-4.57,7.1,7.1,0,0,0-4.95-1.56,7.07,7.07,0,0,0-3.15.69,12.78,12.78,0,0,0-3,2.13l-5.16-3,.6-22.67h24l.06,7.08H47.84l-.3,9.84c.59-.28,1.09-.51,1.52-.69a11.85,11.85,0,0,1,1.25-.45,6.76,6.76,0,0,1,1.31-.24c.47,0,1-.06,1.57-.06a12.89,12.89,0,0,1,5,.94,11,11,0,0,1,3.88,2.65,12.31,12.31,0,0,1,2.5,4.13A15.25,15.25,0,0,1,65.48,39.87Z"/></svg>