<svg id="Layer_1" data-name="Layer 1" xmlns="http://www.w3.org/2000/svg" viewBox="0 0 69.71 64.98"><defs><style>.cls-1{fill:#ffe8d9;stroke:#2d1606;stroke-miterlimit:10;}</style></defs><path class="cls-1" d="M6.07,53.22l.06-4.71c1.24-1.45,2.55-2.9,3.93-4.33l4.11-4.27c1.36-1.41,2.66-2.8,3.9-4.15a37.06,37.06,0,0,0,3.27-4.09,23,23,0,0,0,2.25-4.06,10.45,10.45,0,0,0,.84-4.07A4.45,4.45,0,0,0,22.87,20,5.66,5.66,0,0,0,19,18.66a6.42,6.42,0,0,0-2.91.64A7.37,7.37,0,0,0,13.9,21a12.15,12.15,0,0,0-1.62,2.25,18.83,18.83,0,0,0-1.17,2.45L5.35,21.48q.6-1.35,1.5-3.09a12.1,12.1,0,0,1,2.61-3.31,14.56,14.56,0,0,1,4.44-2.65,19,19,0,0,1,7-1.09,16.78,16.78,0,0,1,5.29.79,11.92,11.92,0,0,1,4.13,2.25,9.83,9.83,0,0,1,2.63,3.54,11.38,11.38,0,0,1,.91,4.65,15.69,15.69,0,0,1-1.77,7.13,37.59,37.59,0,0,1-4.29,6.64A49.32,49.32,0,0,1,22.51,42q-2.76,2.52-4.68,4.16H34.21v7.08Z"/><path class="cls-1" d="M51.79,53.22V20.5q-1.2,1.38-2.28,2.49t-2.34,2.37l-4-5.39q1.8-1.56,3.48-3.12,1.44-1.32,2.94-2.82a36.44,36.44,0,0,0,2.48-2.69h7.66V53.22Z"/></svg>