<svg id="Layer_1" data-name="Layer 1" xmlns="http://www.w3.org/2000/svg" viewBox="0 0 69.71 64.98"><defs><style>.cls-1{fill:#87786f;stroke:#2d1606;stroke-miterlimit:10;}</style></defs><path class="cls-1" d="M32.62,43a14.81,14.81,0,0,1-1,5.59,12.05,12.05,0,0,1-2.79,4.24,12.28,12.28,0,0,1-4.34,2.72,16,16,0,0,1-5.73,1,15.83,15.83,0,0,1-6-1.09,12.64,12.64,0,0,1-4.61-3.12,14.49,14.49,0,0,1-3-4.82,17.68,17.68,0,0,1-1.06-6.26A22.39,22.39,0,0,1,5.4,33.8a38,38,0,0,1,3.32-7.12,51.11,51.11,0,0,1,4.59-6.53,62.24,62.24,0,0,1,5.16-5.56H28.61a63.24,63.24,0,0,0-7.44,8.05,64.24,64.24,0,0,0-6.06,9.29q.95-.54,1.71-.9a11.27,11.27,0,0,1,1.44-.57,8.08,8.08,0,0,1,1.38-.3,12.6,12.6,0,0,1,1.58-.09,11.06,11.06,0,0,1,4.62.94,10.2,10.2,0,0,1,3.58,2.66,12.79,12.79,0,0,1,2.35,4.1A15.17,15.17,0,0,1,32.62,43Zm-8,.17a5.94,5.94,0,0,0-1.42-4.19,4.92,4.92,0,0,0-3.8-1.54,8,8,0,0,0-5.58,2.36q-.18.9-.24,1.35a9.19,9.19,0,0,0-.06,1.17,6.68,6.68,0,0,0,1.63,4.66,5.46,5.46,0,0,0,4.24,1.8,4.93,4.93,0,0,0,3.81-1.54A5.77,5.77,0,0,0,24.64,43.12Z"/><path class="cls-1" d="M65.26,45.15a10.17,10.17,0,0,1-1,4.56,10,10,0,0,1-2.94,3.58,14.13,14.13,0,0,1-4.69,2.34,21,21,0,0,1-6.12.84,25.28,25.28,0,0,1-4.65-.38A16.15,16.15,0,0,1,42,54.9a14.87,14.87,0,0,1-3.42-2.16,25.32,25.32,0,0,1-3.24-3.29l4-5.34q4.68,5.28,10,5.28A7.24,7.24,0,0,0,54,48a4.82,4.82,0,0,0,1.83-3.66,4.69,4.69,0,0,0-.47-2.61,4.91,4.91,0,0,0-2-2,11.58,11.58,0,0,0-4-1.19,32.3,32.3,0,0,0-6.36-.12V31.33a46.14,46.14,0,0,0,6,.07,10.94,10.94,0,0,0,3.72-.82,4.06,4.06,0,0,0,1.92-1.71,5.46,5.46,0,0,0,.57-2.62,4.32,4.32,0,0,0-1.74-3.32,6.85,6.85,0,0,0-4.32-1.26,10,10,0,0,0-4.26.94,17.29,17.29,0,0,0-4.32,3L37.18,20Q41.68,14.6,51,14.59a17.13,17.13,0,0,1,5.3.76,12,12,0,0,1,4,2.15A9.43,9.43,0,0,1,63,20.84a10.33,10.33,0,0,1,.9,4.38A9.15,9.15,0,0,1,62.11,31a13.56,13.56,0,0,1-5.76,3.86A11.32,11.32,0,0,1,63,38.25,10.05,10.05,0,0,1,65.26,45.15Z"/></svg>