<svg id="Layer_1" data-name="Layer 1" xmlns="http://www.w3.org/2000/svg" viewBox="0 0 69.71 64.98"><defs><style>.cls-1{fill:#87786f;stroke:#2d1606;stroke-miterlimit:10;}</style></defs><path class="cls-1" d="M33.05,44.13a9.14,9.14,0,0,1-3.76,7.77q-3.76,2.81-10.47,2.8a23.28,23.28,0,0,1-6.25-.79A15.81,15.81,0,0,1,7.76,51.7a10.15,10.15,0,0,1-3.12-3.42,9.15,9.15,0,0,1-1.11-4.5,9,9,0,0,1,2-6.05,16.84,16.84,0,0,1,6.69-4.24c-1.64-1-3-1.92-4-2.68A11.33,11.33,0,0,1,6,28.54a6.65,6.65,0,0,1-1.11-2.35,12.7,12.7,0,0,1-.3-3A9.18,9.18,0,0,1,8,15.53q3.48-2.71,10.68-2.71a20.85,20.85,0,0,1,5.67.71,13.64,13.64,0,0,1,4.35,2,8.71,8.71,0,0,1,3.72,7.32,9.29,9.29,0,0,1-1.77,5.69,17.33,17.33,0,0,1-5.85,4.57,15,15,0,0,1,6.26,4.52A10.63,10.63,0,0,1,33.05,44.13Zm-8-.76a4.17,4.17,0,0,0-.48-2.07,4.8,4.8,0,0,0-1.41-1.52A13.4,13.4,0,0,0,21,38.54c-.86-.38-1.83-.78-2.91-1.18a12.32,12.32,0,0,0-4.38,2.23,4,4,0,0,0-1.26,3.06,4.26,4.26,0,0,0,1.8,3.64,8,8,0,0,0,4.86,1.33,7.41,7.41,0,0,0,4.38-1.16A3.61,3.61,0,0,0,25.07,43.37Zm-1.14-19a3.9,3.9,0,0,0-1.59-3.21,6.63,6.63,0,0,0-4.17-1.23,5.76,5.76,0,0,0-3.72,1.15A3.61,3.61,0,0,0,13,24q0,3.15,5.76,5.62a9.08,9.08,0,0,0,4-2.28A4.46,4.46,0,0,0,23.93,24.34Z"/><path class="cls-1" d="M63.65,54.7h-8L56.09,37a11,11,0,0,1-3.42,2.1,12,12,0,0,1-4,.6,12.64,12.64,0,0,1-5-1A11.07,11.07,0,0,1,39.77,36a12.21,12.21,0,0,1-2.49-4.23,16.48,16.48,0,0,1-.87-5.52,16.19,16.19,0,0,1,1.05-6,12.66,12.66,0,0,1,3-4.53,12.82,12.82,0,0,1,4.71-2.85,18.47,18.47,0,0,1,6.21-1q6.24,0,9.72,3.48t3.3,9.66ZM56,24.16a4.72,4.72,0,0,0-.39-1.95,4.83,4.83,0,0,0-1.08-1.53,4.79,4.79,0,0,0-1.65-1,5.76,5.76,0,0,0-2-.36,5.51,5.51,0,0,0-4.38,1.86,7.5,7.5,0,0,0-1.62,5.1,6.63,6.63,0,0,0,1.41,4.5,4.93,4.93,0,0,0,3.93,1.62,5.41,5.41,0,0,0,4.08-1.62A6.64,6.64,0,0,0,56,26.26Z"/></svg>