<svg id="Layer_1" data-name="Layer 1" xmlns="http://www.w3.org/2000/svg" viewBox="0 0 69.71 64.98"><defs><style>.cls-1{fill:#ffe8d9;stroke:#2d1606;stroke-miterlimit:10;}</style></defs><path class="cls-1" d="M29.77,53.83h-8l.48-17.7a11,11,0,0,1-3.42,2.1,12,12,0,0,1-4,.6,12.64,12.64,0,0,1-5-1,11.07,11.07,0,0,1-3.87-2.73A12.21,12.21,0,0,1,3.4,30.91a16.48,16.48,0,0,1-.87-5.52,16.19,16.19,0,0,1,1.05-6,12.66,12.66,0,0,1,3-4.53A12.82,12.82,0,0,1,11.26,12a18.47,18.47,0,0,1,6.21-1q6.24,0,9.72,3.48t3.3,9.66ZM22.15,23.29a4.72,4.72,0,0,0-.39-1.95,4.83,4.83,0,0,0-1.08-1.53,4.79,4.79,0,0,0-1.65-1,5.76,5.76,0,0,0-2-.36,5.51,5.51,0,0,0-4.38,1.86A7.5,7.5,0,0,0,11,25.39a6.63,6.63,0,0,0,1.41,4.5,4.93,4.93,0,0,0,3.93,1.62,5.41,5.41,0,0,0,4.08-1.62,6.64,6.64,0,0,0,1.68-4.5Z"/><path class="cls-1" d="M66.07,32.17q0,11.44-3.94,16.55T50.44,53.83q-7.75,0-11.69-5.14T34.81,32.92q0-10.58,3.94-15.77T50.44,12Q66.07,12,66.07,32.17Zm-9.42.34q-.18-6.9-1.57-9.86a4.73,4.73,0,0,0-4.58-3,5.06,5.06,0,0,0-4.65,3.21Q44.41,26,44.23,33.5q.18,6.24,1.57,9.36a5,5,0,0,0,4.7,3.23A4.76,4.76,0,0,0,55,43Q56.47,39.85,56.65,32.51Z"/></svg>