<svg id="Layer_1" data-name="Layer 1" xmlns="http://www.w3.org/2000/svg" viewBox="0 0 69.71 64.98"><defs><style>.cls-1{fill:#022749;}</style></defs><path class="cls-1" d="M30.92,38.81a7.51,7.51,0,0,1-.74,3.35A7.38,7.38,0,0,1,28,44.78a10.47,10.47,0,0,1-3.44,1.72,15.43,15.43,0,0,1-4.49.61,18.59,18.59,0,0,1-3.41-.28A11.88,11.88,0,0,1,13.85,46a11,11,0,0,1-2.51-1.58A18.85,18.85,0,0,1,9,42l2.9-3.91q3.44,3.87,7.35,3.87a5.29,5.29,0,0,0,3.45-1A3.5,3.5,0,0,0,24,38.21a3.43,3.43,0,0,0-.34-1.91,3.62,3.62,0,0,0-1.5-1.48,8.58,8.58,0,0,0-3-.86,23.21,23.21,0,0,0-4.67-.09v-5.2a31.92,31.92,0,0,0,4.43,0,7.63,7.63,0,0,0,2.73-.6,2.93,2.93,0,0,0,1.4-1.25A4,4,0,0,0,23.53,25a3.18,3.18,0,0,0-1.28-2.44,5,5,0,0,0-3.16-.92,7.4,7.4,0,0,0-3.13.69,12.65,12.65,0,0,0-3.16,2.23l-2.47-4.16q3.3-3.95,10.16-4a12.69,12.69,0,0,1,3.89.55,8.77,8.77,0,0,1,2.95,1.58A6.83,6.83,0,0,1,29.22,21a7.42,7.42,0,0,1,.66,3.22,6.73,6.73,0,0,1-1.27,4.24,10,10,0,0,1-4.23,2.83,8.26,8.26,0,0,1,4.87,2.48A7.3,7.3,0,0,1,30.92,38.81Z"/><path class="cls-1" d="M53.89,47.11H48l.36-13a8.08,8.08,0,0,1-2.51,1.54,8.86,8.86,0,0,1-3,.44,9.24,9.24,0,0,1-3.67-.7,8.08,8.08,0,0,1-2.84-2,8.94,8.94,0,0,1-1.83-3.1,12.2,12.2,0,0,1-.64-4.05,11.89,11.89,0,0,1,.77-4.37,9.36,9.36,0,0,1,2.18-3.33,9.6,9.6,0,0,1,3.46-2.09,13.62,13.62,0,0,1,4.55-.72A9.64,9.64,0,0,1,52,18.29a9.16,9.16,0,0,1,2.42,7.08ZM48.3,24.71A3.51,3.51,0,0,0,48,23.28a3.65,3.65,0,0,0-.8-1.12A3.54,3.54,0,0,0,46,21.41a4.28,4.28,0,0,0-1.49-.26,4.06,4.06,0,0,0-3.21,1.36,5.47,5.47,0,0,0-1.19,3.74,4.85,4.85,0,0,0,1,3.3A3.6,3.6,0,0,0,44,30.74a4,4,0,0,0,3-1.19,4.88,4.88,0,0,0,1.23-3.3Z"/></svg>