<svg id="Layer_1" data-name="Layer 1" xmlns="http://www.w3.org/2000/svg" viewBox="0 0 69.71 64.98"><defs><style>.cls-1{fill:#fff;stroke:#040421;}</style></defs><path class="cls-1" d="M37.18,40.24A7.61,7.61,0,0,1,34,46.71C32,48.27,29,49,25.32,49a19.19,19.19,0,0,1-5.21-.66,13.11,13.11,0,0,1-4-1.84,8.4,8.4,0,0,1-2.6-2.85A7.54,7.54,0,0,1,12.58,40a7.52,7.52,0,0,1,1.67-5.05,14,14,0,0,1,5.58-3.53c-1.37-.85-2.47-1.6-3.3-2.24a9.12,9.12,0,0,1-1.93-1.88,5.52,5.52,0,0,1-.92-2,10.26,10.26,0,0,1-.25-2.45,7.65,7.65,0,0,1,2.9-6.43c1.93-1.5,4.9-2.26,8.9-2.26a17.78,17.78,0,0,1,4.72.59,11.48,11.48,0,0,1,3.63,1.67,7.24,7.24,0,0,1,3.1,6.1,7.74,7.74,0,0,1-1.48,4.74,14.41,14.41,0,0,1-4.87,3.81,12.56,12.56,0,0,1,5.22,3.77A8.94,8.94,0,0,1,37.18,40.24Zm-6.65-.64a3.53,3.53,0,0,0-.4-1.72A3.93,3.93,0,0,0,29,36.61a11.29,11.29,0,0,0-1.85-1c-.72-.32-1.52-.65-2.42-1A10.46,10.46,0,0,0,21,36.45,3.35,3.35,0,0,0,20,39a3.57,3.57,0,0,0,1.5,3,6.66,6.66,0,0,0,4.05,1.1,6.19,6.19,0,0,0,3.65-1A3,3,0,0,0,30.53,39.6Zm-1-15.86a3.25,3.25,0,0,0-1.33-2.67,5.53,5.53,0,0,0-3.47-1,4.8,4.8,0,0,0-3.1,1,3,3,0,0,0-1.2,2.46q0,2.63,4.8,4.68a7.6,7.6,0,0,0,3.35-1.89A3.76,3.76,0,0,0,29.58,23.74Z"/><path class="cls-1" d="M60.58,49h-6.2v-8.6H41.53V14.09h6.4V34.84h6.45V26.39h6.15v8.45H65v5.55h-4.4Z"/></svg>