<svg id="Layer_1" data-name="Layer 1" xmlns="http://www.w3.org/2000/svg" viewBox="0 0 69.71 64.98"><defs><style>.cls-1{fill:#022749;}</style></defs><path class="cls-1" d="M26.81,46.67H21.35V39.1H10.05V15.91h5.63V34.17h5.67V26.73h5.41v7.44h3.92v4.88H26.81Z"/><path class="cls-1" d="M52.81,46.67H46.92l.35-13a8.27,8.27,0,0,1-2.51,1.54,8.86,8.86,0,0,1-2.95.44A9.24,9.24,0,0,1,38.14,35a8.18,8.18,0,0,1-2.84-2,9.13,9.13,0,0,1-1.83-3.1,12.21,12.21,0,0,1-.63-4.05,11.78,11.78,0,0,1,.77-4.38A9,9,0,0,1,39.24,16a13.61,13.61,0,0,1,4.55-.73,9.65,9.65,0,0,1,7.13,2.56,9.16,9.16,0,0,1,2.42,7.08Zm-5.59-22.4a3.48,3.48,0,0,0-.28-1.43,3.55,3.55,0,0,0-.79-1.12A3.64,3.64,0,0,0,44.94,21a4.15,4.15,0,0,0-1.5-.26,4,4,0,0,0-3.21,1.36A5.52,5.52,0,0,0,39,25.81a4.85,4.85,0,0,0,1,3.3A3.63,3.63,0,0,0,43,30.3a4,4,0,0,0,3-1.19,4.88,4.88,0,0,0,1.23-3.3Z"/></svg>