<svg id="Layer_1" data-name="Layer 1" xmlns="http://www.w3.org/2000/svg" viewBox="0 0 69.71 64.98"><defs><style>.cls-1{fill:#868687;}</style></defs><path class="cls-1" d="M33.73,49.19h-5.9l.35-13a8,8,0,0,1-2.5,1.54,8.9,8.9,0,0,1-2.95.44,9.32,9.32,0,0,1-3.68-.7,8.23,8.23,0,0,1-2.83-2,8.92,8.92,0,0,1-1.83-3.11,12.2,12.2,0,0,1-.64-4.05A11.89,11.89,0,0,1,14.52,24a9.23,9.23,0,0,1,2.18-3.32,9.48,9.48,0,0,1,3.46-2.1,13.62,13.62,0,0,1,4.55-.72,9.64,9.64,0,0,1,7.13,2.55,9.2,9.2,0,0,1,2.42,7.08Zm-5.59-22.4a3.36,3.36,0,0,0-.29-1.43,3.62,3.62,0,0,0-.79-1.12,3.54,3.54,0,0,0-1.21-.75,4.36,4.36,0,0,0-1.49-.26,4,4,0,0,0-3.21,1.37A5.43,5.43,0,0,0,20,28.33a4.9,4.9,0,0,0,1,3.31,3.62,3.62,0,0,0,2.88,1.18,4,4,0,0,0,3-1.18,4.88,4.88,0,0,0,1.24-3.31Z"/><path class="cls-1" d="M47.76,49.19v-24c-.58.68-1.14,1.29-1.67,1.83l-1.71,1.74-2.91-4c.88-.77,1.73-1.53,2.55-2.29s1.43-1.33,2.16-2.06,1.34-1.39,1.82-2h5.62V49.19Z"/></svg>