<svg id="Layer_1" data-name="Layer 1" xmlns="http://www.w3.org/2000/svg" viewBox="0 0 69.71 64.98"><defs><style>.cls-1{fill:#b7b6b6;stroke:#040421;}</style></defs><path class="cls-1" d="M12.83,49.18l.05-3.92c1-1.21,2.12-2.42,3.27-3.61l3.43-3.56c1.13-1.17,2.21-2.33,3.25-3.46a29.64,29.64,0,0,0,2.72-3.41,19.48,19.48,0,0,0,1.88-3.38,8.79,8.79,0,0,0,.7-3.39,3.72,3.72,0,0,0-1.3-2.94,4.74,4.74,0,0,0-3.2-1.13,5.36,5.36,0,0,0-2.43.54,6.08,6.08,0,0,0-1.85,1.39A9.68,9.68,0,0,0,18,24.18a15.22,15.22,0,0,0-1,2.05l-4.8-3.49c.33-.76.75-1.62,1.25-2.58a10,10,0,0,1,2.17-2.76,12.06,12.06,0,0,1,3.7-2.21,15.81,15.81,0,0,1,5.83-.91,14,14,0,0,1,4.4.66A9.93,9.93,0,0,1,33,16.82a8.11,8.11,0,0,1,2.19,2.95A9.45,9.45,0,0,1,36,23.64a13.15,13.15,0,0,1-1.48,5.95,31,31,0,0,1-3.57,5.53,42.27,42.27,0,0,1-4.4,4.7q-2.31,2.1-3.9,3.46H36.28v5.9Z"/><path class="cls-1" d="M60.33,49.18h-6.2v-8.6H41.28V14.23h6.4V35h6.45V26.53h6.15V35h4.45v5.55h-4.4Z"/></svg>