<svg id="Layer_1" data-name="Layer 1" xmlns="http://www.w3.org/2000/svg" viewBox="0 0 69.71 64.98"><defs><style>.cls-1{fill:#022749;}</style></defs><path class="cls-1" d="M31.55,47H25.66L26,34a8.08,8.08,0,0,1-2.51,1.54,8.86,8.86,0,0,1-2.95.44,9.24,9.24,0,0,1-3.67-.71,7.93,7.93,0,0,1-2.84-2,8.86,8.86,0,0,1-1.82-3.1,12,12,0,0,1-.64-4,11.78,11.78,0,0,1,.77-4.38A9,9,0,0,1,18,16.31a13.62,13.62,0,0,1,4.55-.72,9.64,9.64,0,0,1,7.13,2.55,9.16,9.16,0,0,1,2.42,7.08ZM26,24.56a3.48,3.48,0,0,0-.29-1.43,3.5,3.5,0,0,0-2-1.87,4.38,4.38,0,0,0-1.5-.26A4,4,0,0,0,19,22.36a5.52,5.52,0,0,0-1.19,3.74,4.9,4.9,0,0,0,1,3.3,3.65,3.65,0,0,0,2.89,1.19,4,4,0,0,0,3-1.19,4.88,4.88,0,0,0,1.23-3.3Z"/><path class="cls-1" d="M45.59,47V23c-.59.67-1.15,1.28-1.67,1.82s-1.1,1.13-1.72,1.74l-2.9-4q1.32-1.14,2.55-2.28c.7-.64,1.42-1.33,2.15-2.07a26.73,26.73,0,0,0,1.82-2h5.62V47Z"/></svg>