<svg id="Layer_1" data-name="Layer 1" xmlns="http://www.w3.org/2000/svg" viewBox="0 0 69.71 64.98"><defs><style>.cls-1{fill:#022749;}</style></defs><path class="cls-1" d="M31,33.93a9.23,9.23,0,0,1-2.84,7.23q-2.85,2.55-8,2.55a15,15,0,0,1-5.84-1.11A13.16,13.16,0,0,1,9.7,39.3L12.17,35q3.92,3.56,7.65,3.56a5.93,5.93,0,0,0,3.83-1.2,3.79,3.79,0,0,0,1.5-3.1,4.29,4.29,0,0,0-1.26-3.35,5.15,5.15,0,0,0-3.63-1.15,5.16,5.16,0,0,0-2.31.51,9.46,9.46,0,0,0-2.17,1.56L12,29.63,12.43,13H30l0,5.19h-12l-.22,7.22L19,24.9c.32-.13.62-.24.92-.33a5.64,5.64,0,0,1,1-.17c.34,0,.73,0,1.16,0a9.48,9.48,0,0,1,3.67.69A8,8,0,0,1,28.5,27a9,9,0,0,1,1.84,3A11.18,11.18,0,0,1,31,33.93Z"/><path class="cls-1" d="M55.9,33.8a10.93,10.93,0,0,1-.73,4.1A9,9,0,0,1,53.12,41a9.11,9.11,0,0,1-3.19,2,11.86,11.86,0,0,1-4.2.7,11.67,11.67,0,0,1-4.39-.79A9.64,9.64,0,0,1,38,40.63a10.58,10.58,0,0,1-2.17-3.54A12.77,12.77,0,0,1,35,32.5a16.22,16.22,0,0,1,.94-5.41,28,28,0,0,1,2.43-5.22,38.19,38.19,0,0,1,3.37-4.79A47.18,47.18,0,0,1,45.52,13H53a46.19,46.19,0,0,0-5.46,5.9,49.07,49.07,0,0,0-4.44,6.82c.46-.27.88-.49,1.25-.66a7.26,7.26,0,0,1,1.06-.42,5.68,5.68,0,0,1,1-.22,9.9,9.9,0,0,1,1.16-.07,8.07,8.07,0,0,1,3.38.69A7.47,7.47,0,0,1,53.55,27a9.38,9.38,0,0,1,1.73,3A11.34,11.34,0,0,1,55.9,33.8Zm-5.85.12a4.39,4.39,0,0,0-1-3.07,3.64,3.64,0,0,0-2.79-1.13,5.82,5.82,0,0,0-4.09,1.73c-.09.44-.15.77-.17,1a5.16,5.16,0,0,0-.05.86,4.93,4.93,0,0,0,1.19,3.42A4,4,0,0,0,46.22,38,3.64,3.64,0,0,0,49,36.91,4.27,4.27,0,0,0,50.05,33.92Z"/></svg>