<svg id="Layer_1" data-name="Layer 1" xmlns="http://www.w3.org/2000/svg" viewBox="0 0 69.71 64.98"><defs><style>.cls-1{fill:#868687;}</style></defs><path class="cls-1" d="M34.89,37.74a10.93,10.93,0,0,1-.73,4.1A8.77,8.77,0,0,1,28.93,47a11.88,11.88,0,0,1-4.21.7,11.71,11.71,0,0,1-4.39-.79A9.51,9.51,0,0,1,17,44.57,10.45,10.45,0,0,1,14.77,41,12.77,12.77,0,0,1,14,36.44,16.56,16.56,0,0,1,14.93,31a28.25,28.25,0,0,1,2.43-5.21A38.19,38.19,0,0,1,20.73,21a47.18,47.18,0,0,1,3.78-4.08H32a45.42,45.42,0,0,0-5.45,5.9,47.69,47.69,0,0,0-4.45,6.82c.46-.27.88-.49,1.25-.66a7.74,7.74,0,0,1,1.06-.42,5.87,5.87,0,0,1,1-.22,10,10,0,0,1,1.16-.07,8.15,8.15,0,0,1,3.39.69,7.66,7.66,0,0,1,2.63,1.95,9.55,9.55,0,0,1,1.72,3A11.06,11.06,0,0,1,34.89,37.74ZM29,37.86a4.39,4.39,0,0,0-1-3.07,3.64,3.64,0,0,0-2.79-1.13,5.84,5.84,0,0,0-4.09,1.73c-.09.44-.14.77-.17,1a6.52,6.52,0,0,0-.05.86,4.89,4.89,0,0,0,1.2,3.42A4,4,0,0,0,25.21,42,3.64,3.64,0,0,0,28,40.85,4.27,4.27,0,0,0,29,37.86Z"/><path class="cls-1" d="M47.52,47.65v-24c-.58.68-1.14,1.29-1.67,1.83l-1.72,1.74-2.9-4c.88-.76,1.73-1.52,2.55-2.29s1.43-1.33,2.16-2.06a24.49,24.49,0,0,0,1.81-2h5.62V47.65Z"/></svg>