<svg id="Layer_1" data-name="Layer 1" xmlns="http://www.w3.org/2000/svg" viewBox="0 0 69.71 64.98"><defs><style>.cls-1{fill:#ffe8d9;stroke:#2d1606;stroke-miterlimit:10;}</style></defs><path class="cls-1" d="M34.27,42.81a10.17,10.17,0,0,1-1,4.56A10,10,0,0,1,30.32,51a13.94,13.94,0,0,1-4.69,2.34,21,21,0,0,1-6.12.84,26.25,26.25,0,0,1-4.65-.37A17.1,17.1,0,0,1,11,52.57,15.26,15.26,0,0,1,7.57,50.4a24.7,24.7,0,0,1-3.24-3.29l4-5.34q4.68,5.28,10,5.28A7.3,7.3,0,0,0,23,45.67,4.85,4.85,0,0,0,24.85,42a4.69,4.69,0,0,0-.47-2.61,4.85,4.85,0,0,0-2.05-2,11.39,11.39,0,0,0-4-1.18A31.45,31.45,0,0,0,12,36.07V29a46.14,46.14,0,0,0,6,.07,10.71,10.71,0,0,0,3.72-.82,4.06,4.06,0,0,0,1.92-1.71,5.46,5.46,0,0,0,.57-2.62,4.33,4.33,0,0,0-1.74-3.32,6.85,6.85,0,0,0-4.32-1.26,10.17,10.17,0,0,0-4.26.94,17.35,17.35,0,0,0-4.32,3.05L6.19,17.64q4.5-5.38,13.86-5.39a17.13,17.13,0,0,1,5.3.76,12,12,0,0,1,4,2.15A9.43,9.43,0,0,1,32,18.5a10.35,10.35,0,0,1,.9,4.39,9.14,9.14,0,0,1-1.74,5.78,13.56,13.56,0,0,1-5.76,3.86A11.32,11.32,0,0,1,32,35.91,10.05,10.05,0,0,1,34.27,42.81Z"/><path class="cls-1" d="M51.79,54.13V21.42q-1.2,1.38-2.28,2.49t-2.34,2.37l-4-5.4q1.8-1.56,3.48-3.12c1-.87,1.94-1.81,2.94-2.81a36.38,36.38,0,0,0,2.48-2.7h7.66V54.13Z"/></svg>