<svg id="Layer_1" data-name="Layer 1" xmlns="http://www.w3.org/2000/svg" viewBox="0 0 69.71 64.98"><defs><style>.cls-1{fill:#ffe8d9;stroke:#2d1606;stroke-miterlimit:10;}</style></defs><path class="cls-1" d="M49.93,43.43a9.14,9.14,0,0,1-3.76,7.77Q42.4,54,35.7,54a22.89,22.89,0,0,1-6.25-.79A15.58,15.58,0,0,1,24.64,51a10.15,10.15,0,0,1-3.12-3.42,9.15,9.15,0,0,1-1.11-4.5,9.05,9.05,0,0,1,2-6,17,17,0,0,1,6.69-4.24q-2.46-1.53-4-2.68a11.08,11.08,0,0,1-2.31-2.27,6.65,6.65,0,0,1-1.11-2.35,12.7,12.7,0,0,1-.3-2.95,9.21,9.21,0,0,1,3.48-7.71q3.48-2.72,10.68-2.71a21.25,21.25,0,0,1,5.67.71,13.64,13.64,0,0,1,4.35,2,8.71,8.71,0,0,1,3.72,7.32,9.29,9.29,0,0,1-1.77,5.69,17.21,17.21,0,0,1-5.85,4.57A15,15,0,0,1,48,36.93,10.65,10.65,0,0,1,49.93,43.43Zm-8-.76a4.17,4.17,0,0,0-.48-2.07,4.67,4.67,0,0,0-1.41-1.51,12.72,12.72,0,0,0-2.22-1.24c-.86-.39-1.83-.79-2.91-1.19a12.32,12.32,0,0,0-4.38,2.23A4,4,0,0,0,29.29,42a4.29,4.29,0,0,0,1.8,3.64A8,8,0,0,0,36,46.92a7.34,7.34,0,0,0,4.38-1.16A3.61,3.61,0,0,0,42,42.67Zm-1.14-19a3.86,3.86,0,0,0-1.59-3.2,6.57,6.57,0,0,0-4.17-1.24,5.76,5.76,0,0,0-3.72,1.15,3.61,3.61,0,0,0-1.44,2.95q0,3.15,5.76,5.62a9,9,0,0,0,4-2.28A4.46,4.46,0,0,0,40.81,23.64Z"/></svg>