<svg id="Layer_1" data-name="Layer 1" xmlns="http://www.w3.org/2000/svg" viewBox="0 0 69.71 64.98"><defs><style>.cls-1{fill:#fff;stroke:#040421;}</style></defs><path class="cls-1" d="M29.26,36.75C29.26,40.3,28.19,43,26,45s-5.17,2.9-9.06,2.9a16.9,16.9,0,0,1-6.64-1.27,14.65,14.65,0,0,1-5.27-3.75l2.8-4.93q4.46,4,8.7,4a6.71,6.71,0,0,0,4.35-1.36,4.31,4.31,0,0,0,1.7-3.53,4.91,4.91,0,0,0-1.42-3.81A5.91,5.91,0,0,0,17.06,32a5.79,5.79,0,0,0-2.62.58A10.47,10.47,0,0,0,12,34.32l-4.3-2.45L8.16,13h20l.05,5.9H14.56l-.25,8.2,1.26-.57a10.34,10.34,0,0,1,1.05-.38,6,6,0,0,1,1.09-.2c.39,0,.83-.05,1.31-.05a10.73,10.73,0,0,1,4.18.79,9.12,9.12,0,0,1,3.22,2.21,10.08,10.08,0,0,1,2.09,3.44A12.69,12.69,0,0,1,29.26,36.75Z"/><path class="cls-1" d="M57.31,38.44a8.57,8.57,0,0,1-.84,3.8,8.45,8.45,0,0,1-2.45,3,11.83,11.83,0,0,1-3.91,1.94,17.33,17.33,0,0,1-5.1.7,21.67,21.67,0,0,1-3.87-.31,14,14,0,0,1-3.23-1,13.11,13.11,0,0,1-2.85-1.8A21.41,21.41,0,0,1,32.36,42l3.3-4.45Q39.56,42,44,42a6.07,6.07,0,0,0,3.93-1.15,4.5,4.5,0,0,0,1.13-5.24,4.11,4.11,0,0,0-1.71-1.67,9.63,9.63,0,0,0-3.35-1,26.31,26.31,0,0,0-5.3-.11v-5.9a37.7,37.7,0,0,0,5,.06,8.91,8.91,0,0,0,3.1-.69,3.36,3.36,0,0,0,1.6-1.42,4.6,4.6,0,0,0,.47-2.18,3.6,3.6,0,0,0-1.45-2.77,5.71,5.71,0,0,0-3.6-1.05,8.31,8.31,0,0,0-3.55.79,14.55,14.55,0,0,0-3.6,2.53l-2.8-4.73Q37.66,13,45.46,13a14.32,14.32,0,0,1,4.41.63,10,10,0,0,1,3.36,1.79,7.88,7.88,0,0,1,2.15,2.79,8.6,8.6,0,0,1,.75,3.65,7.6,7.6,0,0,1-1.45,4.82,11.23,11.23,0,0,1-4.8,3.22,9.42,9.42,0,0,1,5.54,2.82A8.37,8.37,0,0,1,57.31,38.44Z"/></svg>