<svg id="Layer_1" data-name="Layer 1" xmlns="http://www.w3.org/2000/svg" viewBox="0 0 69.71 64.98"><defs><style>.cls-1{fill:#022749;}</style></defs><path class="cls-1" d="M31.09,35.51a11,11,0,0,1-.73,4.09,8.75,8.75,0,0,1-5.24,5.11,11.64,11.64,0,0,1-4.2.71,11.57,11.57,0,0,1-4.4-.8,9.44,9.44,0,0,1-3.38-2.28A10.42,10.42,0,0,1,11,38.8a12.85,12.85,0,0,1-.78-4.59,16.52,16.52,0,0,1,.93-5.42,29.38,29.38,0,0,1,2.44-5.22,37.78,37.78,0,0,1,3.37-4.78,44.23,44.23,0,0,1,3.78-4.08h7.43a46.86,46.86,0,0,0-5.45,5.9,46.24,46.24,0,0,0-4.44,6.82c.46-.27.87-.49,1.25-.67a8.36,8.36,0,0,1,1.05-.41,5,5,0,0,1,1-.22,8.86,8.86,0,0,1,4.54.62,7.57,7.57,0,0,1,2.63,1.95,9.36,9.36,0,0,1,1.72,3A11.06,11.06,0,0,1,31.09,35.51Zm-5.85.12a4.35,4.35,0,0,0-1-3.07,3.6,3.6,0,0,0-2.78-1.13,5.82,5.82,0,0,0-4.09,1.73q-.13.66-.18,1a6.68,6.68,0,0,0,0,.86,4.93,4.93,0,0,0,1.19,3.42,4,4,0,0,0,3.11,1.32,3.58,3.58,0,0,0,2.79-1.14A4.2,4.2,0,0,0,25.24,35.63Z"/><path class="cls-1" d="M55,37.12a7.52,7.52,0,0,1-.75,3.35,7.38,7.38,0,0,1-2.15,2.62,10.47,10.47,0,0,1-3.44,1.72,15.43,15.43,0,0,1-4.49.61,19.57,19.57,0,0,1-3.41-.27A12.37,12.37,0,0,1,38,44.27a10.93,10.93,0,0,1-2.5-1.58,18.76,18.76,0,0,1-2.38-2.41L36,36.36q3.44,3.87,7.35,3.87a5.34,5.34,0,0,0,3.46-1,3.92,3.92,0,0,0,1-4.6,3.62,3.62,0,0,0-1.5-1.48,8.73,8.73,0,0,0-3-.86,23.11,23.11,0,0,0-4.66-.09V27a33.17,33.17,0,0,0,4.42,0,7.58,7.58,0,0,0,2.73-.6,3,3,0,0,0,1.41-1.25,4.1,4.1,0,0,0,.41-1.92,3.17,3.17,0,0,0-1.27-2.44,5.06,5.06,0,0,0-3.17-.92,7.32,7.32,0,0,0-3.12.69,12.68,12.68,0,0,0-3.17,2.23l-2.47-4.16q3.3-3.94,10.17-3.95a12.67,12.67,0,0,1,3.88.55,8.92,8.92,0,0,1,3,1.58,6.94,6.94,0,0,1,1.89,2.45A7.56,7.56,0,0,1,54,22.51a6.73,6.73,0,0,1-1.28,4.24,10,10,0,0,1-4.22,2.83,8.32,8.32,0,0,1,4.87,2.48A7.37,7.37,0,0,1,55,37.12Z"/></svg>