<svg id="Layer_1" data-name="Layer 1" xmlns="http://www.w3.org/2000/svg" viewBox="0 0 69.71 64.98"><defs><style>.cls-1{fill:#b7b6b6;stroke:#040421;}</style></defs><path class="cls-1" d="M34.08,38.67a12.32,12.32,0,0,1-.84,4.66,9.88,9.88,0,0,1-6,5.8,13.33,13.33,0,0,1-4.77.81,13.21,13.21,0,0,1-5-.91,10.58,10.58,0,0,1-3.84-2.6,11.88,11.88,0,0,1-2.47-4,14.58,14.58,0,0,1-.88-5.22A18.64,18.64,0,0,1,11.39,31a32.82,32.82,0,0,1,2.76-5.93A44.75,44.75,0,0,1,18,19.67,52.54,52.54,0,0,1,22.28,15h8.45a52.51,52.51,0,0,0-6.2,6.7,54.36,54.36,0,0,0-5.05,7.75c.53-.3,1-.55,1.42-.75a10.69,10.69,0,0,1,1.2-.48A7.61,7.61,0,0,1,23.25,28a10.8,10.8,0,0,1,1.33-.07,9.28,9.28,0,0,1,3.84.78,8.51,8.51,0,0,1,3,2.22,10.87,10.87,0,0,1,2,3.41A12.79,12.79,0,0,1,34.08,38.67Zm-6.65.14a4.91,4.91,0,0,0-1.19-3.48A4.1,4.1,0,0,0,23.07,34a6.58,6.58,0,0,0-4.64,2c-.1.5-.17.88-.2,1.13a6.59,6.59,0,0,0-.05,1A5.57,5.57,0,0,0,19.53,42a4.55,4.55,0,0,0,3.54,1.5,4.1,4.1,0,0,0,3.17-1.29A4.82,4.82,0,0,0,27.43,38.81Z"/><path class="cls-1" d="M57.83,49.94h-6.2v-8.6H38.78V15h6.4V35.74h6.45V27.29h6.15v8.45h4.45v5.55h-4.4Z"/></svg>