<svg id="Layer_1" data-name="Layer 1" xmlns="http://www.w3.org/2000/svg" viewBox="0 0 69.71 64.98"><defs><style>.cls-1{fill:#ffe8d9;stroke:#2d1606;stroke-miterlimit:10;}</style></defs><path class="cls-1" d="M17.08,54.9H8L23.74,20.1H4.9V13H33.16v6.24Z"/><path class="cls-1" d="M66.4,44.34a9.17,9.17,0,0,1-3.76,7.77Q58.88,54.9,52.17,54.9a22.89,22.89,0,0,1-6.25-.79,15.56,15.56,0,0,1-4.81-2.2A10.34,10.34,0,0,1,38,48.49,9.15,9.15,0,0,1,36.88,44a9,9,0,0,1,2-6.05,16.84,16.84,0,0,1,6.69-4.25q-2.46-1.53-4-2.68a11.31,11.31,0,0,1-2.31-2.26,6.7,6.7,0,0,1-1.11-2.36,12.55,12.55,0,0,1-.3-2.94,9.21,9.21,0,0,1,3.48-7.72Q44.86,13,52.06,13a21.25,21.25,0,0,1,5.67.71,13.44,13.44,0,0,1,4.35,2,8.67,8.67,0,0,1,3.72,7.31A9.32,9.32,0,0,1,64,28.75a17.46,17.46,0,0,1-5.85,4.57,14.86,14.86,0,0,1,6.26,4.52A10.63,10.63,0,0,1,66.4,44.34Zm-8-.76a4.17,4.17,0,0,0-.48-2.07A4.7,4.7,0,0,0,56.53,40a13.4,13.4,0,0,0-2.22-1.24c-.86-.39-1.83-.78-2.91-1.19A12.31,12.31,0,0,0,47,39.8a4,4,0,0,0-1.26,3.06,4.26,4.26,0,0,0,1.8,3.64,8,8,0,0,0,4.86,1.32,7.41,7.41,0,0,0,4.38-1.15A3.64,3.64,0,0,0,58.42,43.58Zm-1.14-19a3.88,3.88,0,0,0-1.59-3.2,6.63,6.63,0,0,0-4.17-1.24,5.76,5.76,0,0,0-3.72,1.16,3.6,3.6,0,0,0-1.44,2.95c0,2.09,1.92,4,5.76,5.61a9,9,0,0,0,4-2.27A4.47,4.47,0,0,0,57.28,24.54Z"/></svg>