<svg id="Layer_1" data-name="Layer 1" xmlns="http://www.w3.org/2000/svg" viewBox="0 0 69.71 64.98"><defs><style>.cls-1{fill:#fff;stroke:#040421;}</style></defs><path class="cls-1" d="M32.68,36.75c0,3.55-1.07,6.29-3.23,8.22s-5.17,2.9-9.06,2.9a16.9,16.9,0,0,1-6.64-1.27,14.65,14.65,0,0,1-5.27-3.75l2.8-4.93q4.46,4,8.7,4a6.71,6.71,0,0,0,4.35-1.36A4.31,4.31,0,0,0,26,37.08a4.91,4.91,0,0,0-1.42-3.81A5.91,5.91,0,0,0,20.48,32a5.79,5.79,0,0,0-2.62.58,10.68,10.68,0,0,0-2.48,1.77l-4.3-2.45.5-18.9h20l.05,5.9H18l-.25,8.2c.49-.23.91-.42,1.27-.57a9.39,9.39,0,0,1,1-.38,6,6,0,0,1,1.09-.2c.39,0,.83-.05,1.31-.05a10.73,10.73,0,0,1,4.18.79,9.12,9.12,0,0,1,3.22,2.21,10.08,10.08,0,0,1,2.09,3.44A12.69,12.69,0,0,1,32.68,36.75Z"/><path class="cls-1" d="M60.13,36.75c0,3.55-1.07,6.29-3.23,8.22s-5.17,2.9-9.06,2.9A16.9,16.9,0,0,1,41.2,46.6a14.65,14.65,0,0,1-5.27-3.75l2.8-4.93q4.46,4,8.7,4a6.71,6.71,0,0,0,4.35-1.36,4.31,4.31,0,0,0,1.7-3.53,4.91,4.91,0,0,0-1.42-3.81A5.91,5.91,0,0,0,47.93,32a5.79,5.79,0,0,0-2.62.58,10.68,10.68,0,0,0-2.48,1.77l-4.3-2.45L39,13H59l0,5.9H45.43l-.25,8.2c.49-.23.91-.42,1.27-.57a9.39,9.39,0,0,1,1-.38,6,6,0,0,1,1.09-.2c.39,0,.83-.05,1.31-.05a10.73,10.73,0,0,1,4.18.79,9.12,9.12,0,0,1,3.22,2.21,10.08,10.08,0,0,1,2.09,3.44A12.69,12.69,0,0,1,60.13,36.75Z"/></svg>