<svg id="Layer_1" data-name="Layer 1" xmlns="http://www.w3.org/2000/svg" viewBox="0 0 69.71 64.98"><defs><style>.cls-1{fill:#87786f;stroke:#2d1606;stroke-miterlimit:10;}</style></defs><path class="cls-1" d="M4.13,53.08l.06-4.71Q6,46.2,8.12,44.05l4.11-4.27c1.36-1.41,2.66-2.8,3.9-4.15a38,38,0,0,0,3.27-4.09,23,23,0,0,0,2.25-4.07,10.36,10.36,0,0,0,.84-4.06,4.45,4.45,0,0,0-1.56-3.53,5.67,5.67,0,0,0-3.84-1.36,6.42,6.42,0,0,0-2.91.65A7.51,7.51,0,0,0,12,20.83a12.15,12.15,0,0,0-1.62,2.25,19.58,19.58,0,0,0-1.17,2.46L3.41,21.35c.4-.9.9-1.94,1.5-3.1A11.92,11.92,0,0,1,7.52,15,14.36,14.36,0,0,1,12,12.3a19,19,0,0,1,7-1.1,17.11,17.11,0,0,1,5.29.79,12,12,0,0,1,4.12,2.26A9.65,9.65,0,0,1,31,17.78a11.45,11.45,0,0,1,.92,4.65,15.7,15.7,0,0,1-1.77,7.14,37.59,37.59,0,0,1-4.29,6.64,50.17,50.17,0,0,1-5.28,5.64Q17.81,44.37,15.89,46H32.27v7.08Z"/><path class="cls-1" d="M49.61,53.08H40.55l15.72-34.8H37.43V11.2H65.69v6.23Z"/></svg>