<svg id="Layer_1" data-name="Layer 1" xmlns="http://www.w3.org/2000/svg" viewBox="0 0 69.71 64.98"><defs><style>.cls-1{fill:#fff;stroke:#040421;}</style></defs><path class="cls-1" d="M31.58,37.13c0,3.55-1.07,6.29-3.23,8.22s-5.17,2.9-9.06,2.9A17.08,17.08,0,0,1,12.65,47a14.89,14.89,0,0,1-5.27-3.75l2.8-4.93q4.46,4.05,8.7,4.05A6.72,6.72,0,0,0,23.23,41a4.29,4.29,0,0,0,1.7-3.52,4.88,4.88,0,0,0-1.42-3.81,5.91,5.91,0,0,0-4.13-1.3,5.92,5.92,0,0,0-2.62.57,11.06,11.06,0,0,0-2.48,1.78L10,32.24l.5-18.89h20l.05,5.9H16.88l-.25,8.2c.49-.24.91-.43,1.27-.58a9.29,9.29,0,0,1,1-.37A5.27,5.27,0,0,1,20,26.3c.39,0,.83-.05,1.31-.05a10.92,10.92,0,0,1,4.18.78,9,9,0,0,1,3.22,2.21,10.12,10.12,0,0,1,2.09,3.45A12.61,12.61,0,0,1,31.58,37.13Z"/><path class="cls-1" d="M58.28,48.25h-6.7L52,33.5a9.2,9.2,0,0,1-2.85,1.75,10.06,10.06,0,0,1-3.35.5,10.58,10.58,0,0,1-4.17-.8,9.39,9.39,0,0,1-3.23-2.28,10.12,10.12,0,0,1-2.07-3.52,13.83,13.83,0,0,1-.73-4.6,13.59,13.59,0,0,1,.88-5,10.28,10.28,0,0,1,6.4-6.15A15.36,15.36,0,0,1,48,12.6c3.47,0,6.17,1,8.1,2.9s2.85,4.61,2.75,8.05ZM51.93,22.8a3.89,3.89,0,0,0-.32-1.63,4.08,4.08,0,0,0-.9-1.27,3.87,3.87,0,0,0-1.38-.85,4.79,4.79,0,0,0-1.7-.3A4.58,4.58,0,0,0,44,20.3a6.25,6.25,0,0,0-1.35,4.25,5.54,5.54,0,0,0,1.18,3.75,4.1,4.1,0,0,0,3.27,1.35,4.5,4.5,0,0,0,3.4-1.35,5.49,5.49,0,0,0,1.4-3.75Z"/></svg>