<svg id="Layer_1" data-name="Layer 1" xmlns="http://www.w3.org/2000/svg" viewBox="0 0 69.71 64.98"><defs><style>.cls-1{fill:#868687;}</style></defs><path class="cls-1" d="M28.32,49H22.86V41.47H11.55V18.28h5.63V36.54h5.68V29.1h5.41v7.44h3.92v4.88H28.32Z"/><path class="cls-1" d="M56.78,33.15q0,8.39-2.88,12.14T45.32,49q-5.68,0-8.57-3.77T33.86,33.7q0-7.76,2.89-11.56t8.57-3.82Q56.78,18.32,56.78,33.15Zm-6.91.25q-.12-5.07-1.14-7.23A3.49,3.49,0,0,0,45.36,24,3.69,3.69,0,0,0,42,26.35q-1.07,2.26-1.19,7.77A18.92,18.92,0,0,0,41.92,41a3.66,3.66,0,0,0,3.44,2.37,3.49,3.49,0,0,0,3.3-2.29C49.39,39.54,49.79,37,49.87,33.4Z"/></svg>