<svg id="Layer_1" data-name="Layer 1" xmlns="http://www.w3.org/2000/svg" viewBox="0 0 69.71 64.98"><defs><style>.cls-1{fill:#87786f;stroke:#2d1606;stroke-miterlimit:10;}</style></defs><path class="cls-1" d="M32.33,42.81a10.3,10.3,0,0,1-1,4.56A10.08,10.08,0,0,1,28.38,51a14,14,0,0,1-4.69,2.34,21,21,0,0,1-6.12.84,25.28,25.28,0,0,1-4.65-.38,16.6,16.6,0,0,1-3.87-1.18A15.26,15.26,0,0,1,5.63,50.4a24.7,24.7,0,0,1-3.24-3.29l4-5.34q4.68,5.28,10,5.28a7.24,7.24,0,0,0,4.71-1.39A4.82,4.82,0,0,0,22.91,42a4.69,4.69,0,0,0-.48-2.61,4.82,4.82,0,0,0-2-2,11.39,11.39,0,0,0-4-1.18A31.45,31.45,0,0,0,10,36.07V29a46.14,46.14,0,0,0,6,.07,10.71,10.71,0,0,0,3.72-.82,4.06,4.06,0,0,0,1.92-1.71,5.46,5.46,0,0,0,.57-2.62,4.33,4.33,0,0,0-1.74-3.32,6.85,6.85,0,0,0-4.32-1.26,10.17,10.17,0,0,0-4.26.94,17.35,17.35,0,0,0-4.32,3.05L4.25,17.64q4.5-5.38,13.86-5.39A17.07,17.07,0,0,1,23.4,13a11.91,11.91,0,0,1,4,2.15A9.43,9.43,0,0,1,30,18.5a10.35,10.35,0,0,1,.9,4.39,9.2,9.2,0,0,1-1.74,5.78,13.69,13.69,0,0,1-5.76,3.86,11.29,11.29,0,0,1,6.63,3.38A10,10,0,0,1,32.33,42.81Z"/><path class="cls-1" d="M49.61,54.13H40.55l15.72-34.8H37.43V12.25H65.69v6.23Z"/></svg>