<svg id="Layer_1" data-name="Layer 1" xmlns="http://www.w3.org/2000/svg" viewBox="0 0 69.71 64.98"><defs><style>.cls-1{fill:#ffe8d9;stroke:#2d1606;stroke-miterlimit:10;}</style></defs><path class="cls-1" d="M33.61,44.33a9.12,9.12,0,0,1-3.76,7.77q-3.77,2.81-10.47,2.8a22.94,22.94,0,0,1-6.25-.79A15.68,15.68,0,0,1,8.32,51.9,10.15,10.15,0,0,1,5.2,48.48,9.15,9.15,0,0,1,4.09,44a9.05,9.05,0,0,1,2-6,17,17,0,0,1,6.69-4.24q-2.46-1.53-4-2.68a11.08,11.08,0,0,1-2.31-2.27,6.65,6.65,0,0,1-1.11-2.35,12.7,12.7,0,0,1-.3-2.95,9.21,9.21,0,0,1,3.48-7.71Q12.07,13,19.27,13a21.25,21.25,0,0,1,5.67.71,13.64,13.64,0,0,1,4.35,2A8.71,8.71,0,0,1,33,23.05a9.29,9.29,0,0,1-1.77,5.69,17.21,17.21,0,0,1-5.85,4.57,14.87,14.87,0,0,1,6.26,4.53A10.6,10.6,0,0,1,33.61,44.33Zm-8-.76a4.17,4.17,0,0,0-.48-2.07A4.67,4.67,0,0,0,23.74,40a12.72,12.72,0,0,0-2.22-1.24c-.86-.39-1.83-.78-2.91-1.19a12.32,12.32,0,0,0-4.38,2.23A4,4,0,0,0,13,42.86a4.29,4.29,0,0,0,1.8,3.64,8,8,0,0,0,4.86,1.32A7.41,7.41,0,0,0,24,46.66,3.61,3.61,0,0,0,25.63,43.57Zm-1.14-19a3.86,3.86,0,0,0-1.59-3.2,6.57,6.57,0,0,0-4.17-1.24A5.76,5.76,0,0,0,15,21.25a3.61,3.61,0,0,0-1.44,2.95q0,3.15,5.76,5.62a9.17,9.17,0,0,0,4-2.27A4.51,4.51,0,0,0,24.49,24.54Z"/><path class="cls-1" d="M67.57,33.24q0,11.43-3.94,16.55T51.94,54.9q-7.75,0-11.69-5.14T36.31,34q0-10.58,3.94-15.77T51.94,13Q67.57,13,67.57,33.24Zm-9.42.34q-.18-6.9-1.57-9.86a4.73,4.73,0,0,0-4.58-3A5,5,0,0,0,47.35,24q-1.44,3.09-1.62,10.59.18,6.25,1.57,9.37A5,5,0,0,0,52,47.16,4.78,4.78,0,0,0,56.5,44Q58,40.92,58.15,33.58Z"/></svg>