<svg id="Layer_1" data-name="Layer 1" xmlns="http://www.w3.org/2000/svg" viewBox="0 0 69.71 64.98"><defs><style>.cls-1{fill:#022749;}</style></defs><path class="cls-1" d="M30.77,35.51A10.84,10.84,0,0,1,30,39.6a8.75,8.75,0,0,1-5.24,5.11,11.64,11.64,0,0,1-4.2.71,11.57,11.57,0,0,1-4.4-.8,9.44,9.44,0,0,1-3.38-2.28,10.61,10.61,0,0,1-2.18-3.54,13.07,13.07,0,0,1-.77-4.59,16.28,16.28,0,0,1,.94-5.42,28.65,28.65,0,0,1,2.43-5.22,37.78,37.78,0,0,1,3.37-4.78,45.66,45.66,0,0,1,3.78-4.08h7.43a46.86,46.86,0,0,0-5.45,5.9,46.24,46.24,0,0,0-4.44,6.82c.46-.27.87-.49,1.25-.67a8.36,8.36,0,0,1,1.05-.41,5,5,0,0,1,1-.22,8.86,8.86,0,0,1,4.54.62,7.57,7.57,0,0,1,2.63,1.95,9.36,9.36,0,0,1,1.72,3A11.06,11.06,0,0,1,30.77,35.51Zm-5.85.12a4.35,4.35,0,0,0-1.05-3.07,3.6,3.6,0,0,0-2.78-1.13A5.82,5.82,0,0,0,17,33.16q-.13.66-.18,1a6.68,6.68,0,0,0,0,.86A4.93,4.93,0,0,0,18,38.43a4,4,0,0,0,3.11,1.32,3.58,3.58,0,0,0,2.79-1.14A4.2,4.2,0,0,0,24.92,35.63Z"/><path class="cls-1" d="M43.22,45.42H36.58L48.11,19.9H34.29V14.71H55v4.57Z"/></svg>