<svg id="Layer_1" data-name="Layer 1" xmlns="http://www.w3.org/2000/svg" viewBox="0 0 69.71 64.98"><defs><style>.cls-1{fill:#ffe8d9;stroke:#2d1606;stroke-miterlimit:10;}</style></defs><path class="cls-1" d="M33.05,44.36a14.81,14.81,0,0,1-1,5.59,12,12,0,0,1-7.14,7,16.21,16.21,0,0,1-5.73,1,15.81,15.81,0,0,1-6-1.09,12.78,12.78,0,0,1-4.62-3.11,14.35,14.35,0,0,1-3-4.83,17.45,17.45,0,0,1-1.06-6.26,22.38,22.38,0,0,1,1.27-7.38,38.93,38.93,0,0,1,3.32-7.12,51.9,51.9,0,0,1,4.6-6.53A62.18,62.18,0,0,1,18.89,16H29a63.18,63.18,0,0,0-7.43,8.05,64.79,64.79,0,0,0-6.06,9.29c.62-.36,1.19-.66,1.7-.9a11.27,11.27,0,0,1,1.44-.57,8.08,8.08,0,0,1,1.38-.3,12.65,12.65,0,0,1,1.59-.09,11,11,0,0,1,4.61.94,10.24,10.24,0,0,1,3.59,2.66,13,13,0,0,1,2.35,4.1A15.42,15.42,0,0,1,33.05,44.36Zm-8,.17a5.92,5.92,0,0,0-1.43-4.18,4.9,4.9,0,0,0-3.8-1.55,7.93,7.93,0,0,0-5.57,2.36q-.18.9-.24,1.35A9.26,9.26,0,0,0,14,43.69a6.69,6.69,0,0,0,1.62,4.66,5.49,5.49,0,0,0,4.25,1.79,4.89,4.89,0,0,0,3.8-1.54A5.77,5.77,0,0,0,25.07,44.53Z"/><path class="cls-1" d="M50,57.88H41l15.72-34.8H37.85V16H66.11v6.23Z"/></svg>