<svg id="Layer_1" data-name="Layer 1" xmlns="http://www.w3.org/2000/svg" viewBox="0 0 69.71 64.98"><defs><style>.cls-1{fill:#ffe8d9;stroke:#2d1606;stroke-miterlimit:10;}</style></defs><path class="cls-1" d="M32.07,42.46q0,6.39-3.88,9.86T17.32,55.8a20.43,20.43,0,0,1-8-1.52A17.79,17.79,0,0,1,3,49.78l3.36-5.92q5.34,4.86,10.44,4.86a8.09,8.09,0,0,0,5.22-1.64,5.17,5.17,0,0,0,2-4.23,5.87,5.87,0,0,0-1.71-4.57,7.1,7.1,0,0,0-4.95-1.56,7.07,7.07,0,0,0-3.15.69,12.78,12.78,0,0,0-3,2.13L6.15,36.6l.6-22.68h24L30.81,21H14.43l-.3,9.84c.58-.28,1.08-.51,1.51-.69a12.71,12.71,0,0,1,1.25-.45,6.76,6.76,0,0,1,1.31-.24c.47,0,1-.06,1.58-.06a13,13,0,0,1,5,.94A11.08,11.08,0,0,1,28.66,33a12.1,12.1,0,0,1,2.5,4.14A15,15,0,0,1,32.07,42.46Z"/><path class="cls-1" d="M67.47,34.14q0,11.43-3.94,16.55T51.84,55.8q-7.76,0-11.7-5.14T36.21,34.89q0-10.58,3.93-15.77t11.7-5.2Q67.47,13.92,67.47,34.14Zm-9.42.34q-.18-6.9-1.57-9.86a4.74,4.74,0,0,0-4.59-3,5,5,0,0,0-4.64,3.2Q45.8,28,45.63,35.46q.16,6.26,1.56,9.37a5,5,0,0,0,4.7,3.23,4.77,4.77,0,0,0,4.5-3.12Q57.88,41.82,58.05,34.48Z"/></svg>