<svg id="Layer_1" data-name="Layer 1" xmlns="http://www.w3.org/2000/svg" viewBox="0 0 69.71 64.98"><defs><style>.cls-1{fill:#868687;}</style></defs><path class="cls-1" d="M32,49.19h-5.9l.35-13a8.08,8.08,0,0,1-2.51,1.54,8.84,8.84,0,0,1-2.94.44,9.29,9.29,0,0,1-3.68-.7,8.27,8.27,0,0,1-2.84-2,8.9,8.9,0,0,1-1.82-3.11A12,12,0,0,1,12,28.33,11.89,11.89,0,0,1,12.74,24a9.1,9.1,0,0,1,2.18-3.32,9.52,9.52,0,0,1,3.45-2.1,13.68,13.68,0,0,1,4.56-.72,9.62,9.62,0,0,1,7.12,2.55,9.16,9.16,0,0,1,2.42,7.08Zm-5.59-22.4a3.51,3.51,0,0,0-.29-1.43,3.5,3.5,0,0,0-2-1.87,4.38,4.38,0,0,0-1.5-.26,4,4,0,0,0-3.21,1.37,5.48,5.48,0,0,0-1.19,3.73,4.9,4.9,0,0,0,1,3.31,3.62,3.62,0,0,0,2.88,1.18,4,4,0,0,0,3-1.18,4.93,4.93,0,0,0,1.23-3.31Z"/><path class="cls-1" d="M36.61,49.19l0-3.45q1.37-1.6,2.89-3.18l3-3.13c1-1,2-2,2.86-3a26.72,26.72,0,0,0,2.4-3,16.81,16.81,0,0,0,1.65-3,7.64,7.64,0,0,0,.61-3,3.28,3.28,0,0,0-1.14-2.59,4.15,4.15,0,0,0-2.82-1,4.63,4.63,0,0,0-2.13.47,5.49,5.49,0,0,0-1.63,1.22,9.37,9.37,0,0,0-1.19,1.65,14.62,14.62,0,0,0-.85,1.8l-4.23-3.07c.3-.66.66-1.42,1.1-2.27a8.67,8.67,0,0,1,1.92-2.42,10.39,10.39,0,0,1,3.25-1.95,14.05,14.05,0,0,1,5.13-.8,12.29,12.29,0,0,1,3.88.58,8.64,8.64,0,0,1,3,1.65,7.16,7.16,0,0,1,1.93,2.59A8.37,8.37,0,0,1,57,26.71,11.47,11.47,0,0,1,55.68,32a27.47,27.47,0,0,1-3.14,4.87A36.58,36.58,0,0,1,48.67,41q-2,1.84-3.44,3h12v5.19Z"/></svg>