<svg id="Layer_1" data-name="Layer 1" xmlns="http://www.w3.org/2000/svg" viewBox="0 0 69.71 64.98"><defs><style>.cls-1{fill:#868687;}</style></defs><path class="cls-1" d="M32,36a10.89,10.89,0,0,1-.73,4.1A8.82,8.82,0,0,1,26,45.24a11.86,11.86,0,0,1-4.2.71,11.67,11.67,0,0,1-4.39-.8,9.38,9.38,0,0,1-3.39-2.29,10.48,10.48,0,0,1-2.17-3.53,12.87,12.87,0,0,1-.78-4.6,16.26,16.26,0,0,1,.94-5.41,28,28,0,0,1,2.43-5.22,37.88,37.88,0,0,1,3.37-4.79,47.18,47.18,0,0,1,3.78-4.08h7.43a47,47,0,0,0-5.45,5.91A47.53,47.53,0,0,0,19.17,28c.46-.26.88-.48,1.25-.66a8.5,8.5,0,0,1,1-.42,6.85,6.85,0,0,1,1-.22,10.06,10.06,0,0,1,1.16-.06,8.26,8.26,0,0,1,3.38.68,7.47,7.47,0,0,1,2.63,2,9.41,9.41,0,0,1,1.73,3A11.34,11.34,0,0,1,32,36Zm-5.85.12a4.35,4.35,0,0,0-1-3.06A3.61,3.61,0,0,0,22.33,32a5.82,5.82,0,0,0-4.09,1.73q-.14.66-.18,1a6.85,6.85,0,0,0,0,.87A4.89,4.89,0,0,0,19.21,39a4,4,0,0,0,3.11,1.32,3.65,3.65,0,0,0,2.8-1.13A4.27,4.27,0,0,0,26.16,36.15Z"/><path class="cls-1" d="M57.22,30.06q0,8.39-2.88,12.14T45.76,46q-5.68,0-8.57-3.77T34.3,30.61q0-7.75,2.89-11.56t8.57-3.82Q57.22,15.23,57.22,30.06Zm-6.91.25q-.12-5.05-1.14-7.23a3.49,3.49,0,0,0-3.37-2.17,3.69,3.69,0,0,0-3.4,2.35Q41.33,25.53,41.21,31a18.88,18.88,0,0,0,1.15,6.87,3.66,3.66,0,0,0,3.44,2.37A3.49,3.49,0,0,0,49.1,38Q50.19,35.7,50.31,30.31Z"/></svg>