<svg id="Layer_1" data-name="Layer 1" xmlns="http://www.w3.org/2000/svg" viewBox="0 0 69.71 64.98"><defs><style>.cls-1{fill:#ffe8d9;stroke:#2d1606;stroke-miterlimit:10;}</style></defs><path class="cls-1" d="M4.4,53.22l.06-4.71q1.86-2.19,3.93-4.33l4.11-4.27c1.36-1.41,2.66-2.8,3.9-4.15a37.06,37.06,0,0,0,3.27-4.09,23.33,23.33,0,0,0,2.25-4.06,10.45,10.45,0,0,0,.84-4.07A4.45,4.45,0,0,0,21.2,20a5.66,5.66,0,0,0-3.84-1.35,6.42,6.42,0,0,0-2.91.64A7.37,7.37,0,0,0,12.23,21a12.15,12.15,0,0,0-1.62,2.25,18.83,18.83,0,0,0-1.17,2.45L3.68,21.48q.6-1.35,1.5-3.09a12,12,0,0,1,2.61-3.31,14.36,14.36,0,0,1,4.44-2.65,19,19,0,0,1,7-1.09,16.78,16.78,0,0,1,5.29.79,11.92,11.92,0,0,1,4.13,2.25,9.83,9.83,0,0,1,2.63,3.54,11.38,11.38,0,0,1,.91,4.65,15.69,15.69,0,0,1-1.77,7.13,37.59,37.59,0,0,1-4.29,6.64A49.32,49.32,0,0,1,20.84,42q-2.76,2.52-4.68,4.16H32.54v7.08Z"/><path class="cls-1" d="M61.4,53.22H54V42.9H38.54V11.28h7.68v24.9H54V26h7.38V36.18h5.34v6.66H61.4Z"/></svg>