<svg id="Layer_1" data-name="Layer 1" xmlns="http://www.w3.org/2000/svg" viewBox="0 0 69.71 64.98"><defs><style>.cls-1{fill:#87786f;stroke:#2d1606;stroke-miterlimit:10;}</style></defs><path class="cls-1" d="M29.35,53.83h-8l.48-17.7a11,11,0,0,1-3.42,2.1,12,12,0,0,1-4,.6,12.64,12.64,0,0,1-5-1,11.07,11.07,0,0,1-3.87-2.73A12.21,12.21,0,0,1,3,30.91a16.48,16.48,0,0,1-.87-5.52,16.19,16.19,0,0,1,1.05-6,12.66,12.66,0,0,1,3-4.53A12.82,12.82,0,0,1,10.84,12a18.47,18.47,0,0,1,6.21-1q6.24,0,9.72,3.48t3.3,9.66ZM21.73,23.29a4.72,4.72,0,0,0-.39-1.95,4.83,4.83,0,0,0-1.08-1.53,4.79,4.79,0,0,0-1.65-1,5.76,5.76,0,0,0-2-.36,5.51,5.51,0,0,0-4.38,1.86,7.5,7.5,0,0,0-1.62,5.1A6.63,6.63,0,0,0,12,29.89a4.93,4.93,0,0,0,3.93,1.62A5.41,5.41,0,0,0,20,29.89a6.64,6.64,0,0,0,1.68-4.5Z"/><path class="cls-1" d="M65.65,32.17q0,11.44-3.94,16.55T50,53.83q-7.76,0-11.69-5.14T34.39,32.92q0-10.58,3.94-15.77T50,12Q65.65,12,65.65,32.17Zm-9.42.34c-.11-4.6-.64-7.89-1.57-9.86a4.72,4.72,0,0,0-4.58-3,5,5,0,0,0-4.64,3.21Q44,26,43.81,33.5q.18,6.24,1.57,9.36a5,5,0,0,0,4.7,3.23A4.78,4.78,0,0,0,54.58,43C55.56,40.89,56.12,37.4,56.23,32.51Z"/></svg>