<svg id="Layer_1" data-name="Layer 1" xmlns="http://www.w3.org/2000/svg" viewBox="0 0 69.71 64.98"><defs><style>.cls-1{fill:#ffe8d9;stroke:#2d1606;stroke-miterlimit:10;}</style></defs><path class="cls-1" d="M32.74,40.92q0,6.39-3.87,9.87T18,54.27a20.24,20.24,0,0,1-8-1.53,17.46,17.46,0,0,1-6.32-4.5l3.35-5.91c3.57,3.24,7,4.86,10.44,4.86a8.07,8.07,0,0,0,5.22-1.64,5.19,5.19,0,0,0,2-4.23,5.87,5.87,0,0,0-1.7-4.57,7.14,7.14,0,0,0-5-1.56,7,7,0,0,0-3.14.69A12.62,12.62,0,0,0,12,38L6.82,35.06l.6-22.67h24l.06,7.08H15.1l-.29,9.84c.58-.28,1.08-.51,1.51-.69a11.85,11.85,0,0,1,1.25-.45,6.76,6.76,0,0,1,1.31-.24c.47,0,1-.06,1.58-.06a12.87,12.87,0,0,1,5,.94,10.9,10.9,0,0,1,3.88,2.65,12.31,12.31,0,0,1,2.5,4.13A15.21,15.21,0,0,1,32.74,40.92Z"/><path class="cls-1" d="M66.7,40.74a15,15,0,0,1-1,5.59,12,12,0,0,1-7.15,7,17.2,17.2,0,0,1-11.72-.12,12.89,12.89,0,0,1-4.61-3.12,14.49,14.49,0,0,1-3-4.82A17.73,17.73,0,0,1,38.2,39a22.39,22.39,0,0,1,1.28-7.38,38.57,38.57,0,0,1,3.32-7.12,51.82,51.82,0,0,1,4.59-6.53,60.73,60.73,0,0,1,5.16-5.55H62.69a62.47,62.47,0,0,0-7.44,8,64.33,64.33,0,0,0-6.06,9.3q.95-.54,1.71-.9a11.27,11.27,0,0,1,1.44-.57,8.08,8.08,0,0,1,1.38-.3,12.65,12.65,0,0,1,1.59-.09,11.2,11.2,0,0,1,4.61.93,10.23,10.23,0,0,1,3.58,2.67,12.74,12.74,0,0,1,2.35,4.09A15.17,15.17,0,0,1,66.7,40.74Zm-8,.17a5.92,5.92,0,0,0-1.42-4.18,4.92,4.92,0,0,0-3.8-1.54,8,8,0,0,0-5.58,2.35c-.11.6-.2,1.05-.24,1.35a9.26,9.26,0,0,0-.06,1.18,6.7,6.7,0,0,0,1.63,4.66,5.46,5.46,0,0,0,4.24,1.8A4.94,4.94,0,0,0,57.3,45,5.75,5.75,0,0,0,58.72,40.91Z"/></svg>