<svg id="Layer_1" data-name="Layer 1" xmlns="http://www.w3.org/2000/svg" viewBox="0 0 69.71 64.98"><defs><style>.cls-1{fill:#ffe8d9;stroke:#2d1606;stroke-miterlimit:10;}</style></defs><path class="cls-1" d="M33,40.92q0,6.39-3.88,9.87T18.21,54.27a20.29,20.29,0,0,1-8-1.53,17.63,17.63,0,0,1-6.32-4.5l3.36-5.91c3.56,3.23,7,4.86,10.44,4.86a8.09,8.09,0,0,0,5.22-1.64,5.19,5.19,0,0,0,2-4.23,5.87,5.87,0,0,0-1.71-4.57,7.1,7.1,0,0,0-4.95-1.56,7.07,7.07,0,0,0-3.15.69,12.78,12.78,0,0,0-3,2.13L7,35.06l.6-22.68h24l.06,7.08H15.32L15,29.3c.58-.27,1.09-.5,1.52-.68a11.09,11.09,0,0,1,1.25-.45,6,6,0,0,1,1.31-.24c.46,0,1-.06,1.57-.06a12.89,12.89,0,0,1,5,.94,10.86,10.86,0,0,1,3.87,2.65,12.17,12.17,0,0,1,2.51,4.13A15.21,15.21,0,0,1,33,40.92Z"/><path class="cls-1" d="M65.9,40.92q0,6.39-3.88,9.87T51.15,54.27a20.29,20.29,0,0,1-8-1.53,17.63,17.63,0,0,1-6.32-4.5l3.36-5.91c3.56,3.23,7,4.86,10.44,4.86a8.09,8.09,0,0,0,5.22-1.64,5.19,5.19,0,0,0,2-4.23,5.87,5.87,0,0,0-1.71-4.57,7.1,7.1,0,0,0-5-1.56,7.07,7.07,0,0,0-3.15.69,12.78,12.78,0,0,0-3,2.13L40,35.06l.6-22.68h24l.06,7.08H48.26L48,29.3c.58-.27,1.09-.5,1.52-.68a11.09,11.09,0,0,1,1.25-.45A6,6,0,0,1,52,27.93c.46,0,1-.06,1.57-.06a12.89,12.89,0,0,1,5,.94,10.86,10.86,0,0,1,3.87,2.65A12.17,12.17,0,0,1,65,35.59,15.21,15.21,0,0,1,65.9,40.92Z"/></svg>