<svg id="Layer_1" data-name="Layer 1" xmlns="http://www.w3.org/2000/svg" viewBox="0 0 69.71 64.98"><defs><style>.cls-1{fill:#022749;}</style></defs><path class="cls-1" d="M8.55,47l0-3.46q1.37-1.59,2.89-3.17l3-3.13c1-1,2-2,2.86-3a26.72,26.72,0,0,0,2.4-3,16.46,16.46,0,0,0,1.65-3,7.6,7.6,0,0,0,.61-3,3.29,3.29,0,0,0-1.14-2.59,4.15,4.15,0,0,0-2.82-1,4.76,4.76,0,0,0-2.13.47,5.69,5.69,0,0,0-1.63,1.23A9.29,9.29,0,0,0,13.1,25a13.89,13.89,0,0,0-.85,1.8L8,23.7c.29-.66.66-1.42,1.1-2.27A9,9,0,0,1,11,19a11,11,0,0,1,3.26-2,14.05,14.05,0,0,1,5.13-.8,12.58,12.58,0,0,1,3.88.58,9.07,9.07,0,0,1,3,1.65,7.2,7.2,0,0,1,1.93,2.6,8.3,8.3,0,0,1,.67,3.41,11.43,11.43,0,0,1-1.3,5.23,27.12,27.12,0,0,1-3.14,4.87,36.71,36.71,0,0,1-3.88,4.14c-1.34,1.23-2.49,2.24-3.43,3h12V47Z"/><path class="cls-1" d="M53.91,39.23a6.68,6.68,0,0,1-2.76,5.69C49.31,46.29,46.76,47,43.48,47a17.13,17.13,0,0,1-4.58-.58,11.61,11.61,0,0,1-3.53-1.62,7.39,7.39,0,0,1-2.29-2.51,6.73,6.73,0,0,1-.82-3.3,6.65,6.65,0,0,1,1.48-4.44,12.35,12.35,0,0,1,4.9-3.11c-1.2-.75-2.17-1.4-2.9-2a8.11,8.11,0,0,1-1.69-1.67,4.86,4.86,0,0,1-.82-1.72A9.71,9.71,0,0,1,33,23.91a6.75,6.75,0,0,1,2.55-5.66c1.71-1.32,4.32-2,7.84-2a15.71,15.71,0,0,1,4.15.52,10.27,10.27,0,0,1,3.2,1.47,6.67,6.67,0,0,1,2,2.32,6.53,6.53,0,0,1,.7,3.05,6.83,6.83,0,0,1-1.29,4.17,12.8,12.8,0,0,1-4.3,3.36,10.93,10.93,0,0,1,4.6,3.31A7.87,7.87,0,0,1,53.91,39.23Zm-5.85-.56a3.13,3.13,0,0,0-.35-1.52,3.48,3.48,0,0,0-1-1.11,9.86,9.86,0,0,0-1.63-.91c-.63-.28-1.35-.57-2.14-.87A9,9,0,0,0,39.7,35.9a3,3,0,0,0-.92,2.24,3.12,3.12,0,0,0,1.32,2.67,5.87,5.87,0,0,0,3.56,1,5.38,5.38,0,0,0,3.21-.85A2.62,2.62,0,0,0,48.06,38.67Zm-.84-14a2.84,2.84,0,0,0-1.16-2.35,4.88,4.88,0,0,0-3.06-.9,4.28,4.28,0,0,0-2.73.84,2.64,2.64,0,0,0-1.05,2.16c0,1.54,1.4,2.91,4.22,4.12a6.54,6.54,0,0,0,3-1.67A3.25,3.25,0,0,0,47.22,24.71Z"/></svg>