<svg id="Layer_1" data-name="Layer 1" xmlns="http://www.w3.org/2000/svg" viewBox="0 0 69.71 64.98"><defs><style>.cls-1{fill:#fff;stroke:#040421;}</style></defs><path class="cls-1" d="M8.45,49.16l.05-3.93q1.56-1.81,3.28-3.61l3.42-3.55q1.71-1.77,3.25-3.46a31.6,31.6,0,0,0,2.73-3.41,18.83,18.83,0,0,0,1.87-3.39,8.6,8.6,0,0,0,.7-3.38,3.69,3.69,0,0,0-1.3-2.94,4.66,4.66,0,0,0-3.2-1.13,5.41,5.41,0,0,0-2.42.53A6.12,6.12,0,0,0,15,22.28a9.75,9.75,0,0,0-1.35,1.88,15.8,15.8,0,0,0-1,2l-4.8-3.49c.34-.75.75-1.61,1.25-2.58a10,10,0,0,1,2.18-2.75A11.87,11.87,0,0,1,15,15.17a15.76,15.76,0,0,1,5.82-.91,14.37,14.37,0,0,1,4.41.65,10.19,10.19,0,0,1,3.44,1.88,8.2,8.2,0,0,1,2.19,2.95,9.45,9.45,0,0,1,.76,3.87,13.11,13.11,0,0,1-1.47,5.95,31.65,31.65,0,0,1-3.58,5.53,41.46,41.46,0,0,1-4.4,4.71c-1.53,1.39-2.83,2.55-3.9,3.46H31.9v5.9Z"/><path class="cls-1" d="M59.4,39.72a8.65,8.65,0,0,1-.84,3.81,8.51,8.51,0,0,1-2.45,3,12,12,0,0,1-3.91,2,17.66,17.66,0,0,1-5.1.7,21.62,21.62,0,0,1-3.87-.32,14,14,0,0,1-3.23-1,12.39,12.39,0,0,1-2.85-1.8,21.29,21.29,0,0,1-2.7-2.74l3.3-4.45q3.9,4.39,8.35,4.4A6.07,6.07,0,0,0,50,42.1,4,4,0,0,0,51.55,39a3.9,3.9,0,0,0-.4-2.17,4.1,4.1,0,0,0-1.7-1.68,9.63,9.63,0,0,0-3.35-1,26.4,26.4,0,0,0-5.3-.1v-5.9a37.46,37.46,0,0,0,5,.05,8.93,8.93,0,0,0,3.1-.68,3.41,3.41,0,0,0,1.6-1.42A4.67,4.67,0,0,0,51,24a3.6,3.6,0,0,0-1.45-2.77,5.77,5.77,0,0,0-3.6-1,8.45,8.45,0,0,0-3.55.78,14.35,14.35,0,0,0-3.6,2.54L36,18.75q3.75-4.5,11.55-4.49a14.32,14.32,0,0,1,4.41.63,9.82,9.82,0,0,1,3.36,1.79,7.76,7.76,0,0,1,2.15,2.78,8.61,8.61,0,0,1,.75,3.66,7.62,7.62,0,0,1-1.45,4.82A11.32,11.32,0,0,1,52,31.16,9.41,9.41,0,0,1,57.51,34,8.39,8.39,0,0,1,59.4,39.72Z"/></svg>