<svg id="Layer_1" data-name="Layer 1" xmlns="http://www.w3.org/2000/svg" viewBox="0 0 69.71 64.98"><defs><style>.cls-1{fill:#868687;}</style></defs><path class="cls-1" d="M31.84,38.78A9.21,9.21,0,0,1,29,46q-2.83,2.55-8,2.55a14.84,14.84,0,0,1-5.85-1.12,12.87,12.87,0,0,1-4.63-3.3L13,39.81c2.61,2.38,5.17,3.57,7.66,3.57a5.89,5.89,0,0,0,3.83-1.21A3.8,3.8,0,0,0,26,39.07a4.29,4.29,0,0,0-1.25-3.35,5.23,5.23,0,0,0-3.63-1.14,5.29,5.29,0,0,0-2.31.5,9.5,9.5,0,0,0-2.18,1.56l-3.78-2.15.44-16.63h17.6l0,5.19h-12l-.22,7.21,1.11-.5a9.29,9.29,0,0,1,.92-.33,4.8,4.8,0,0,1,1-.18c.34,0,.73,0,1.15,0a9.53,9.53,0,0,1,3.68.69,8.2,8.2,0,0,1,2.84,1.94,9,9,0,0,1,1.83,3A11,11,0,0,1,31.84,38.78Z"/><path class="cls-1" d="M57.8,32.68q0,8.4-2.89,12.14c-1.93,2.5-4.78,3.75-8.58,3.75s-6.65-1.26-8.57-3.77-2.89-6.37-2.89-11.57,1-9,2.89-11.56,4.78-3.81,8.57-3.81Q57.79,17.86,57.8,32.68Zm-6.91.25q-.14-5.05-1.15-7.23a3.48,3.48,0,0,0-3.36-2.17A3.72,3.72,0,0,0,43,25.88c-.71,1.52-1.1,4.11-1.19,7.77a19.05,19.05,0,0,0,1.15,6.87,3.66,3.66,0,0,0,3.45,2.37,3.49,3.49,0,0,0,3.29-2.29C50.4,39.08,50.8,36.52,50.89,32.93Z"/></svg>