<svg id="Layer_1" data-name="Layer 1" xmlns="http://www.w3.org/2000/svg" viewBox="0 0 69.71 64.98"><defs><style>.cls-1{fill:#b7b6b6;stroke:#040421;}</style></defs><path class="cls-1" d="M41.51,49.75h-6.7L35.21,35a9,9,0,0,1-2.85,1.75,10.06,10.06,0,0,1-3.35.5,10.58,10.58,0,0,1-4.17-.8,9.13,9.13,0,0,1-3.23-2.28,10,10,0,0,1-2.07-3.52,13.58,13.58,0,0,1-.73-4.6,13.42,13.42,0,0,1,.88-5,10.57,10.57,0,0,1,2.47-3.77,10.79,10.79,0,0,1,3.93-2.38,15.36,15.36,0,0,1,5.17-.82q5.2,0,8.1,2.9c1.94,1.93,2.85,4.62,2.75,8.05ZM35.16,24.3a4.09,4.09,0,0,0-.32-1.63,4.2,4.2,0,0,0-.9-1.27,4,4,0,0,0-1.38-.85,4.79,4.79,0,0,0-1.7-.3,4.61,4.61,0,0,0-3.65,1.55,6.25,6.25,0,0,0-1.35,4.25A5.49,5.49,0,0,0,27,29.8a4.1,4.1,0,0,0,3.27,1.35,4.5,4.5,0,0,0,3.4-1.35,5.49,5.49,0,0,0,1.4-3.75Z"/></svg>