<svg id="Layer_1" data-name="Layer 1" xmlns="http://www.w3.org/2000/svg" viewBox="0 0 69.71 64.98"><defs><style>.cls-1{fill:#87786f;stroke:#2d1606;stroke-miterlimit:10;}</style></defs><path class="cls-1" d="M4.13,53.22l.06-4.71c1.24-1.45,2.55-2.9,3.93-4.33l4.11-4.27q2-2.11,3.9-4.15a36.15,36.15,0,0,0,3.27-4.09,23,23,0,0,0,2.25-4.06,10.44,10.44,0,0,0,.84-4.06A4.47,4.47,0,0,0,20.93,20a5.66,5.66,0,0,0-3.84-1.35,6.42,6.42,0,0,0-2.91.64A7.54,7.54,0,0,0,12,21a12.15,12.15,0,0,0-1.62,2.25,19.47,19.47,0,0,0-1.17,2.45L3.41,21.48q.6-1.35,1.5-3.09a12.1,12.1,0,0,1,2.61-3.31A14.56,14.56,0,0,1,12,12.43a19,19,0,0,1,7-1.09,16.82,16.82,0,0,1,5.29.79,11.79,11.79,0,0,1,4.12,2.25A9.8,9.8,0,0,1,31,17.92a11.38,11.38,0,0,1,.92,4.65,15.66,15.66,0,0,1-1.77,7.13,37.23,37.23,0,0,1-4.29,6.64A50.29,50.29,0,0,1,20.57,42c-1.84,1.67-3.4,3.06-4.68,4.15H32.27v7.08Z"/><path class="cls-1" d="M63.65,53.22h-8l.48-17.7a11,11,0,0,1-3.42,2.1,12,12,0,0,1-4,.6,12.64,12.64,0,0,1-5-1,11.07,11.07,0,0,1-3.87-2.73,12.21,12.21,0,0,1-2.49-4.23,16.48,16.48,0,0,1-.87-5.52,16.19,16.19,0,0,1,1.05-6,12.66,12.66,0,0,1,3-4.53,12.82,12.82,0,0,1,4.71-2.85,18.47,18.47,0,0,1,6.21-1q6.24,0,9.72,3.48t3.3,9.66ZM56,22.68a4.72,4.72,0,0,0-.39-1.95,4.83,4.83,0,0,0-1.08-1.53,4.79,4.79,0,0,0-1.65-1,5.76,5.76,0,0,0-2-.36,5.51,5.51,0,0,0-4.38,1.86,7.5,7.5,0,0,0-1.62,5.1,6.63,6.63,0,0,0,1.41,4.5,4.93,4.93,0,0,0,3.93,1.62,5.41,5.41,0,0,0,4.08-1.62A6.64,6.64,0,0,0,56,24.78Z"/></svg>