<svg id="Layer_1" data-name="Layer 1" xmlns="http://www.w3.org/2000/svg" viewBox="0 0 69.71 64.98"><defs><style>.cls-1{fill:#868687;}</style></defs><path class="cls-1" d="M45.76,42.3A7.57,7.57,0,0,1,45,45.64a7.26,7.26,0,0,1-2.16,2.63A10.51,10.51,0,0,1,39.43,50a15.43,15.43,0,0,1-4.49.61,18.59,18.59,0,0,1-3.41-.28,11.88,11.88,0,0,1-2.84-.87,11.34,11.34,0,0,1-2.51-1.58,18.85,18.85,0,0,1-2.37-2.42l2.9-3.92q3.43,3.88,7.35,3.88a5.31,5.31,0,0,0,3.45-1,3.5,3.5,0,0,0,1.34-2.69,3.43,3.43,0,0,0-.34-1.91A3.62,3.62,0,0,0,37,38.31a8.58,8.58,0,0,0-2.95-.86,23.21,23.21,0,0,0-4.67-.09v-5.2a31.92,31.92,0,0,0,4.43.05,8,8,0,0,0,2.72-.6A3,3,0,0,0,38,30.36a4,4,0,0,0,.42-1.92A3.17,3.17,0,0,0,37.09,26a5,5,0,0,0-3.16-.92,7.4,7.4,0,0,0-3.13.69A12.78,12.78,0,0,0,27.63,28l-2.46-4.16q3.3-4,10.17-3.95a12.67,12.67,0,0,1,3.88.55,8.77,8.77,0,0,1,3,1.58,7,7,0,0,1,1.9,2.45,7.56,7.56,0,0,1,.66,3.22,6.73,6.73,0,0,1-1.28,4.24,10.06,10.06,0,0,1-4.22,2.83,8.26,8.26,0,0,1,4.86,2.48A7.3,7.3,0,0,1,45.76,42.3Z"/></svg>