<svg id="Layer_1" data-name="Layer 1" xmlns="http://www.w3.org/2000/svg" viewBox="0 0 69.71 64.98"><defs><style>.cls-1{fill:#ffe8d9;stroke:#2d1606;stroke-miterlimit:10;}</style></defs><path class="cls-1" d="M17.23,57.88H8.17l15.72-34.8H5.05V16H33.31v6.23Z"/><path class="cls-1" d="M67.57,36.22q0,11.45-3.94,16.55T51.94,57.88q-7.75,0-11.69-5.14T36.31,37q0-10.57,3.94-15.77T51.94,16Q67.57,16,67.57,36.22Zm-9.42.34q-.18-6.9-1.57-9.86a4.73,4.73,0,0,0-4.58-3A5.06,5.06,0,0,0,47.35,27Q45.91,30,45.73,37.54q.18,6.26,1.57,9.37A5,5,0,0,0,52,50.14,4.78,4.78,0,0,0,56.5,47Q58,43.9,58.15,36.56Z"/></svg>