<svg id="Layer_1" data-name="Layer 1" xmlns="http://www.w3.org/2000/svg" viewBox="0 0 69.71 64.98"><defs><style>.cls-1{fill:#87786f;stroke:#2d1606;stroke-miterlimit:10;}</style></defs><path class="cls-1" d="M28.91,55.8H21.47V45.48H6.05V13.86h7.68v24.9h7.74V28.62h7.38V38.76h5.34v6.66H28.91Z"/><path class="cls-1" d="M66.29,42.28a15,15,0,0,1-1,5.59,12,12,0,0,1-7.14,7,17.23,17.23,0,0,1-11.73-.12,12.73,12.73,0,0,1-4.61-3.12,14.49,14.49,0,0,1-3-4.82,17.68,17.68,0,0,1-1.05-6.26,22.38,22.38,0,0,1,1.27-7.38A38.62,38.62,0,0,1,42.38,26,51.18,51.18,0,0,1,47,19.48a60.74,60.74,0,0,1,5.15-5.56H62.27a63.18,63.18,0,0,0-7.43,8,65.17,65.17,0,0,0-6.07,9.29q.94-.54,1.71-.9a11.27,11.27,0,0,1,1.44-.57,8.08,8.08,0,0,1,1.38-.3,12.65,12.65,0,0,1,1.59-.09,11,11,0,0,1,4.61.94A10.24,10.24,0,0,1,63.09,33a12.77,12.77,0,0,1,2.34,4.1A15.17,15.17,0,0,1,66.29,42.28Zm-8,.17a6,6,0,0,0-1.43-4.19,4.91,4.91,0,0,0-3.8-1.54,7.93,7.93,0,0,0-5.57,2.36q-.18.9-.24,1.35a9.09,9.09,0,0,0-.06,1.17,6.68,6.68,0,0,0,1.62,4.66,5.47,5.47,0,0,0,4.25,1.8,4.91,4.91,0,0,0,3.8-1.54A5.77,5.77,0,0,0,58.31,42.45Z"/></svg>