<svg id="Layer_1" data-name="Layer 1" xmlns="http://www.w3.org/2000/svg" viewBox="0 0 69.71 64.98"><defs><style>.cls-1{fill:#fff;stroke:#040421;}</style></defs><path class="cls-1" d="M19.75,50.71H12.2l13.1-29H9.6v-5.9H33.15V21Z"/><path class="cls-1" d="M61.7,32.66q0,9.54-3.28,13.79t-9.74,4.26q-6.47,0-9.75-4.28T35.65,33.29q0-8.8,3.28-13.14t9.75-4.34Q61.7,15.81,61.7,32.66Zm-7.85.28c-.09-3.83-.53-6.57-1.3-8.21a4,4,0,0,0-3.82-2.47,4.22,4.22,0,0,0-3.87,2.67q-1.22,2.58-1.36,8.84a21.43,21.43,0,0,0,1.31,7.8,4.16,4.16,0,0,0,3.92,2.69,4,4,0,0,0,3.74-2.6Q53.72,39.07,53.85,32.94Z"/></svg>