<svg id="Layer_1" data-name="Layer 1" xmlns="http://www.w3.org/2000/svg" viewBox="0 0 69.71 64.98"><defs><style>.cls-1{fill:#fff;stroke:#040421;}</style></defs><path class="cls-1" d="M29.28,39.43a12.32,12.32,0,0,1-.84,4.66,9.88,9.88,0,0,1-6,5.8,13.33,13.33,0,0,1-4.77.81,13.12,13.12,0,0,1-5-.91,10.54,10.54,0,0,1-3.85-2.6,11.88,11.88,0,0,1-2.47-4A14.58,14.58,0,0,1,5.53,38,18.59,18.59,0,0,1,6.59,31.8a32.82,32.82,0,0,1,2.76-5.93,44,44,0,0,1,3.83-5.44,51.17,51.17,0,0,1,4.3-4.63h8.45a52.51,52.51,0,0,0-6.2,6.7,54.36,54.36,0,0,0-5.05,7.75c.53-.3,1-.55,1.42-.75A10.69,10.69,0,0,1,17.3,29a7.61,7.61,0,0,1,1.15-.25,10.8,10.8,0,0,1,1.33-.07,9.28,9.28,0,0,1,3.84.78,8.51,8.51,0,0,1,3,2.22,10.87,10.87,0,0,1,2,3.41A12.79,12.79,0,0,1,29.28,39.43Zm-6.65.14a5,5,0,0,0-1.19-3.49,4.13,4.13,0,0,0-3.17-1.28,6.58,6.58,0,0,0-4.64,2c-.1.5-.17.88-.2,1.12a6.73,6.73,0,0,0,0,1,5.57,5.57,0,0,0,1.35,3.88,4.55,4.55,0,0,0,3.54,1.5A4.1,4.1,0,0,0,21.44,43,4.82,4.82,0,0,0,22.63,39.57Z"/><path class="cls-1" d="M43.43,50.7H35.88L49,21.7H33.28V15.8H56.83V21Z"/></svg>