<svg id="Layer_1" data-name="Layer 1" xmlns="http://www.w3.org/2000/svg" viewBox="0 0 69.71 64.98"><defs><style>.cls-1{fill:#ffe8d9;stroke:#2d1606;stroke-miterlimit:10;}</style></defs><path class="cls-1" d="M34.57,44.36a14.81,14.81,0,0,1-1,5.59,12.05,12.05,0,0,1-2.79,4.24,12.3,12.3,0,0,1-4.34,2.73,16.24,16.24,0,0,1-5.73,1,15.83,15.83,0,0,1-6-1.09,12.74,12.74,0,0,1-4.61-3.11,14.54,14.54,0,0,1-3-4.83,17.68,17.68,0,0,1-1.06-6.26,22.39,22.39,0,0,1,1.28-7.38,38.27,38.27,0,0,1,3.32-7.12,51.82,51.82,0,0,1,4.59-6.53A62.24,62.24,0,0,1,20.42,16H30.56a63.24,63.24,0,0,0-7.44,8.05,64.79,64.79,0,0,0-6.06,9.29q.95-.54,1.71-.9a11.27,11.27,0,0,1,1.44-.57,8.08,8.08,0,0,1,1.38-.3,12.6,12.6,0,0,1,1.58-.09,11.06,11.06,0,0,1,4.62.94,10.2,10.2,0,0,1,3.58,2.66,12.79,12.79,0,0,1,2.35,4.1A15.17,15.17,0,0,1,34.57,44.36Zm-8,.17a5.92,5.92,0,0,0-1.42-4.18,4.93,4.93,0,0,0-3.8-1.55,8,8,0,0,0-5.58,2.36q-.18.9-.24,1.35a9.26,9.26,0,0,0-.06,1.18,6.7,6.7,0,0,0,1.63,4.66,5.48,5.48,0,0,0,4.24,1.79,4.93,4.93,0,0,0,3.81-1.54A5.77,5.77,0,0,0,26.59,44.53Z"/><path class="cls-1" d="M51.79,57.88V25.17q-1.2,1.38-2.28,2.49T47.17,30l-4-5.4q1.8-1.56,3.48-3.12c1-.87,1.94-1.81,2.94-2.81A36.38,36.38,0,0,0,52.11,16h7.66V57.88Z"/></svg>