<svg id="Layer_1" data-name="Layer 1" xmlns="http://www.w3.org/2000/svg" viewBox="0 0 69.71 64.98"><defs><style>.cls-1{fill:#022749;}</style></defs><path class="cls-1" d="M19.25,45.42H12.61L24.14,19.9H10.32V14.71H31.05v4.57Z"/><path class="cls-1" d="M54.89,37.12a7.36,7.36,0,0,1-2.89,6,10.66,10.66,0,0,1-3.44,1.71,15.43,15.43,0,0,1-4.49.61,19.57,19.57,0,0,1-3.41-.27,12.35,12.35,0,0,1-2.84-.87,11.26,11.26,0,0,1-2.51-1.59,18.73,18.73,0,0,1-2.37-2.41l2.9-3.92q3.44,3.87,7.35,3.87a5.35,5.35,0,0,0,3.45-1,3.92,3.92,0,0,0,1-4.61,3.66,3.66,0,0,0-1.5-1.47,8.56,8.56,0,0,0-3-.87,23.13,23.13,0,0,0-4.66-.09V27A33.42,33.42,0,0,0,43,27a8,8,0,0,0,2.73-.6,2.94,2.94,0,0,0,1.4-1.25,4,4,0,0,0,.42-1.93,3.17,3.17,0,0,0-1.27-2.43,5,5,0,0,0-3.17-.93,7.26,7.26,0,0,0-3.13.7,12.56,12.56,0,0,0-3.16,2.23L34.3,18.66q3.3-3.94,10.17-3.95a12.66,12.66,0,0,1,3.88.56,8.9,8.9,0,0,1,3,1.57,7,7,0,0,1,1.89,2.45,7.63,7.63,0,0,1,.66,3.22,6.71,6.71,0,0,1-1.28,4.24,10,10,0,0,1-4.22,2.83,8.38,8.38,0,0,1,4.87,2.48A7.38,7.38,0,0,1,54.89,37.12Z"/></svg>