<svg id="Layer_1" data-name="Layer 1" xmlns="http://www.w3.org/2000/svg" viewBox="0 0 69.71 64.98"><defs><style>.cls-1{fill:#022749;}</style></defs><path class="cls-1" d="M31.19,38.48a7.65,7.65,0,0,1-.74,3.35,7.52,7.52,0,0,1-2.16,2.62,10.38,10.38,0,0,1-3.44,1.72,15.38,15.38,0,0,1-4.49.61A18.66,18.66,0,0,1,17,46.5a12,12,0,0,1-2.84-.87,11.15,11.15,0,0,1-2.5-1.58,18.88,18.88,0,0,1-2.38-2.42l2.91-3.91q3.42,3.87,7.34,3.87a5.34,5.34,0,0,0,3.46-1,3.57,3.57,0,0,0,1.34-2.69A3.52,3.52,0,0,0,23.93,36a3.57,3.57,0,0,0-1.5-1.48,8.51,8.51,0,0,0-2.95-.86,23.11,23.11,0,0,0-4.66-.09v-5.2a31.78,31.78,0,0,0,4.42.05,7.58,7.58,0,0,0,2.73-.6,3,3,0,0,0,1.41-1.25,4,4,0,0,0,.42-1.92,3.21,3.21,0,0,0-1.28-2.44,5.06,5.06,0,0,0-3.17-.92,7.32,7.32,0,0,0-3.12.69,12.68,12.68,0,0,0-3.17,2.23L10.6,20q3.3-3.94,10.16-3.95a12.63,12.63,0,0,1,3.88.55,8.82,8.82,0,0,1,3,1.58,6.94,6.94,0,0,1,1.89,2.45,7.56,7.56,0,0,1,.66,3.22,6.73,6.73,0,0,1-1.28,4.24,10.06,10.06,0,0,1-4.22,2.83,8.29,8.29,0,0,1,4.87,2.48A7.35,7.35,0,0,1,31.19,38.48Z"/><path class="cls-1" d="M43.86,46.78H37.22L48.74,21.26H34.93V16.07H55.65v4.57Z"/></svg>