<svg id="Layer_1" data-name="Layer 1" xmlns="http://www.w3.org/2000/svg" viewBox="0 0 69.71 64.98"><defs><style>.cls-1{fill:#022749;}</style></defs><path class="cls-1" d="M10.58,47l0-3.46Q12,41.93,13.5,40.35l3-3.13c1-1,1.95-2,2.86-3a26.72,26.72,0,0,0,2.4-3,17.1,17.1,0,0,0,1.65-3,7.6,7.6,0,0,0,.61-3,3.29,3.29,0,0,0-1.14-2.59,4.17,4.17,0,0,0-2.82-1A4.76,4.76,0,0,0,18,22.1a5.56,5.56,0,0,0-1.63,1.23A9.29,9.29,0,0,0,15.13,25a15.45,15.45,0,0,0-.86,1.8L10.05,23.7c.29-.66.66-1.42,1.1-2.27A9,9,0,0,1,13.06,19a10.84,10.84,0,0,1,3.26-2,14,14,0,0,1,5.13-.8,12.63,12.63,0,0,1,3.88.58,9.07,9.07,0,0,1,3,1.65,7.2,7.2,0,0,1,1.93,2.6A8.3,8.3,0,0,1,31,24.5a11.43,11.43,0,0,1-1.3,5.23,27.12,27.12,0,0,1-3.14,4.87,37.64,37.64,0,0,1-3.88,4.14c-1.34,1.23-2.49,2.24-3.43,3h12V47Z"/><path class="cls-1" d="M54.89,37.19A9.2,9.2,0,0,1,52,44.42Q49.21,47,44.07,47a15,15,0,0,1-5.85-1.12,13,13,0,0,1-4.63-3.3l2.46-4.34c2.61,2.38,5.17,3.56,7.66,3.56a6,6,0,0,0,3.83-1.2A3.78,3.78,0,0,0,49,37.48a4.29,4.29,0,0,0-1.25-3.35A5.23,5.23,0,0,0,44.15,33a5.16,5.16,0,0,0-2.31.51,9.5,9.5,0,0,0-2.18,1.56l-3.78-2.16.44-16.63h17.6l0,5.2H42l-.22,7.21,1.11-.5a6,6,0,0,1,.92-.33,4.8,4.8,0,0,1,1-.18c.34,0,.73,0,1.15,0a9.53,9.53,0,0,1,3.68.69,8.07,8.07,0,0,1,2.84,1.94,9,9,0,0,1,1.83,3A11,11,0,0,1,54.89,37.19Z"/></svg>