<svg id="Layer_1" data-name="Layer 1" xmlns="http://www.w3.org/2000/svg" viewBox="0 0 69.71 64.98"><defs><style>.cls-1{fill:#868687;}</style></defs><path class="cls-1" d="M31.19,36.16a9.22,9.22,0,0,1-2.85,7.24Q25.51,46,20.37,46a15,15,0,0,1-5.85-1.12,12.87,12.87,0,0,1-4.63-3.3l2.46-4.34C15,39.57,17.52,40.75,20,40.75a5.89,5.89,0,0,0,3.83-1.2,3.8,3.8,0,0,0,1.49-3.1,4.32,4.32,0,0,0-1.25-3.35A5.23,5.23,0,0,0,20.45,32a5.16,5.16,0,0,0-2.31.51A9.5,9.5,0,0,0,16,34l-3.78-2.15.44-16.64h17.6l0,5.2h-12L18,27.64l1.11-.5a7.29,7.29,0,0,1,.92-.33,4.8,4.8,0,0,1,1-.18c.34,0,.72,0,1.15,0a9.53,9.53,0,0,1,3.68.69,8.2,8.2,0,0,1,2.84,1.94,9,9,0,0,1,1.83,3A11.18,11.18,0,0,1,31.19,36.16Z"/><path class="cls-1" d="M56.4,38.2a6.71,6.71,0,0,1-2.76,5.7C51.8,45.26,49.24,46,46,46a17.13,17.13,0,0,1-4.58-.58,11.61,11.61,0,0,1-3.53-1.62,7.59,7.59,0,0,1-2.29-2.51,7.31,7.31,0,0,1,.66-7.74,12.51,12.51,0,0,1,4.91-3.11c-1.2-.74-2.17-1.4-2.9-2a8.42,8.42,0,0,1-1.7-1.66A5,5,0,0,1,35.72,25a9.15,9.15,0,0,1-.22-2.16,6.76,6.76,0,0,1,2.55-5.66c1.7-1.32,4.31-2,7.83-2a15.79,15.79,0,0,1,4.16.52,9.9,9.9,0,0,1,3.19,1.48,6.46,6.46,0,0,1,2,2.31A6.56,6.56,0,0,1,56,22.59a6.86,6.86,0,0,1-1.3,4.18,13,13,0,0,1-4.29,3.35A11,11,0,0,1,55,33.43,7.81,7.81,0,0,1,56.4,38.2Zm-5.85-.56a3,3,0,0,0-.36-1.52,3.47,3.47,0,0,0-1-1.11,9.86,9.86,0,0,0-1.63-.91q-.95-.42-2.13-.87a8.86,8.86,0,0,0-3.21,1.64,2.93,2.93,0,0,0-.93,2.24,3.12,3.12,0,0,0,1.32,2.67,5.88,5.88,0,0,0,3.57,1,5.48,5.48,0,0,0,3.21-.84A2.68,2.68,0,0,0,50.55,37.64Zm-.84-14a2.85,2.85,0,0,0-1.17-2.35,4.83,4.83,0,0,0-3-.9,4.24,4.24,0,0,0-2.73.84,2.64,2.64,0,0,0-1.06,2.17c0,1.53,1.41,2.91,4.22,4.12a6.67,6.67,0,0,0,2.95-1.67A3.28,3.28,0,0,0,49.71,23.68Z"/></svg>