<svg id="Layer_1" data-name="Layer 1" xmlns="http://www.w3.org/2000/svg" viewBox="0 0 69.71 64.98"><defs><style>.cls-1{fill:#022749;}</style></defs><path class="cls-1" d="M33.25,38.12a6.68,6.68,0,0,1-2.76,5.7q-2.76,2.05-7.68,2a16.73,16.73,0,0,1-4.58-.58,11.37,11.37,0,0,1-3.53-1.61,7.69,7.69,0,0,1-2.29-2.51,6.75,6.75,0,0,1-.81-3.3,6.64,6.64,0,0,1,1.47-4.44A12.33,12.33,0,0,1,18,30.32c-1.2-.75-2.17-1.4-2.91-2a8.34,8.34,0,0,1-1.69-1.66A4.71,4.71,0,0,1,12.57,25a9,9,0,0,1-.22-2.15,6.75,6.75,0,0,1,2.55-5.66q2.55-2,7.83-2a15.38,15.38,0,0,1,4.16.52,10.21,10.21,0,0,1,3.19,1.47,6.57,6.57,0,0,1,2,2.32,6.5,6.5,0,0,1,.71,3.05,6.85,6.85,0,0,1-1.3,4.17A12.71,12.71,0,0,1,27.22,30a11.05,11.05,0,0,1,4.59,3.32A7.8,7.8,0,0,1,33.25,38.12Zm-5.86-.55A3,3,0,0,0,27,36.05a3.37,3.37,0,0,0-1-1.11A9.18,9.18,0,0,0,24.38,34q-.94-.44-2.13-.87A8.86,8.86,0,0,0,19,34.8,2.92,2.92,0,0,0,18.11,37a3.14,3.14,0,0,0,1.32,2.67,5.87,5.87,0,0,0,3.56,1,5.44,5.44,0,0,0,3.22-.85A2.64,2.64,0,0,0,27.39,37.57Zm-.83-14a2.84,2.84,0,0,0-1.17-2.35,4.85,4.85,0,0,0-3.06-.91,4.23,4.23,0,0,0-2.72.85,2.63,2.63,0,0,0-1.06,2.16q0,2.31,4.22,4.12a6.48,6.48,0,0,0,2.95-1.67A3.26,3.26,0,0,0,26.56,23.61Z"/><path class="cls-1" d="M45.57,45.87v-24q-.89,1-1.68,1.83c-.52.54-1.1,1.12-1.71,1.74l-2.91-4c.88-.76,1.73-1.52,2.56-2.29s1.42-1.33,2.15-2.06a26.86,26.86,0,0,0,1.82-2h5.62V45.87Z"/></svg>