<svg id="Layer_1" data-name="Layer 1" xmlns="http://www.w3.org/2000/svg" viewBox="0 0 69.71 64.98"><defs><style>.cls-1{fill:#b7b6b6;stroke:#040421;}</style></defs><path class="cls-1" d="M29.08,48.44h-6.2v-8.6H10V13.49h6.4V34.24h6.45V25.79H29v8.45h4.45v5.55h-4.4Z"/><path class="cls-1" d="M61.43,30.39q0,9.53-3.28,13.79T48.4,48.44q-6.45,0-9.74-4.28T35.38,31q0-8.81,3.28-13.14t9.74-4.33Q61.44,13.54,61.43,30.39Zm-7.85.28q-.15-5.75-1.31-8.22A3.94,3.94,0,0,0,48.45,20a4.21,4.21,0,0,0-3.87,2.67c-.8,1.72-1.26,4.66-1.35,8.83a21.57,21.57,0,0,0,1.3,7.81A4.18,4.18,0,0,0,48.45,42a4,4,0,0,0,3.75-2.6C53,37.65,53.48,34.75,53.58,30.67Z"/></svg>