<svg id="Layer_1" data-name="Layer 1" xmlns="http://www.w3.org/2000/svg" viewBox="0 0 69.71 64.98"><defs><style>.cls-1{fill:#ffe8d9;stroke:#2d1606;stroke-miterlimit:10;}</style></defs><path class="cls-1" d="M31.88,40.92q0,6.39-3.87,9.87T17.13,54.27a20.33,20.33,0,0,1-8-1.53,17.63,17.63,0,0,1-6.32-4.5L6.2,42.33q5.34,4.86,10.44,4.86a8.09,8.09,0,0,0,5.22-1.64,5.19,5.19,0,0,0,2-4.23,5.87,5.87,0,0,0-1.71-4.57,7.1,7.1,0,0,0-5-1.56,7.07,7.07,0,0,0-3.15.69,12.78,12.78,0,0,0-3,2.13L6,35.06l.6-22.67h24l.06,7.08H14.24l-.3,9.84c.59-.28,1.09-.51,1.52-.69a11.85,11.85,0,0,1,1.25-.45A6.76,6.76,0,0,1,18,27.93c.47,0,1-.06,1.57-.06a12.89,12.89,0,0,1,5,.94,10.9,10.9,0,0,1,3.88,2.65A12.31,12.31,0,0,1,31,35.59,15.21,15.21,0,0,1,31.88,40.92Z"/><path class="cls-1" d="M61.4,54.27H54V44H38.54V12.33h7.68v24.9H54V27.09h7.38V37.23h5.34v6.66H61.4Z"/></svg>