<svg id="Layer_1" data-name="Layer 1" xmlns="http://www.w3.org/2000/svg" viewBox="0 0 69.71 64.98"><defs><style>.cls-1{fill:#868687;}</style></defs><path class="cls-1" d="M18.94,50.6v-24c-.58.67-1.14,1.28-1.67,1.83s-1.1,1.12-1.72,1.73l-2.9-4Q14,25.07,15.2,23.93q1.07-1,2.16-2.07a26.36,26.36,0,0,0,1.81-2h5.62V50.6Z"/><path class="cls-1" d="M55.68,34.71q0,8.4-2.89,12.14T44.22,50.6q-5.69,0-8.57-3.77T32.76,35.26q0-7.74,2.89-11.56t8.57-3.81Q55.68,19.89,55.68,34.71Zm-6.9.25c-.09-3.37-.47-5.78-1.16-7.23a3.48,3.48,0,0,0-3.36-2.17,3.71,3.71,0,0,0-3.4,2.35q-1.06,2.28-1.19,7.78a18.6,18.6,0,0,0,1.15,6.86,3.66,3.66,0,0,0,3.44,2.37,3.49,3.49,0,0,0,3.3-2.29Q48.64,40.35,48.78,35Z"/></svg>