<svg id="Layer_1" data-name="Layer 1" xmlns="http://www.w3.org/2000/svg" viewBox="0 0 69.71 64.98"><defs><style>.cls-1{fill:#b7b6b6;stroke:#040421;}</style></defs><path class="cls-1" d="M33.66,36.6a12.48,12.48,0,0,1-.83,4.66,10,10,0,0,1-5.95,5.81,13.58,13.58,0,0,1-4.78.8,13.35,13.35,0,0,1-5-.9,10.88,10.88,0,0,1-3.85-2.6,12.07,12.07,0,0,1-2.47-4,14.58,14.58,0,0,1-.88-5.22A18.59,18.59,0,0,1,11,29a31.9,31.9,0,0,1,2.77-5.93,42.05,42.05,0,0,1,3.83-5.45A51.07,51.07,0,0,1,21.87,13h8.44a52.54,52.54,0,0,0-6.19,6.71,53.42,53.42,0,0,0-5.05,7.74c.52-.3,1-.55,1.42-.75a8,8,0,0,1,1.2-.47A6.37,6.37,0,0,1,22.84,26a10.4,10.4,0,0,1,1.32-.08,9.28,9.28,0,0,1,3.84.78,8.51,8.51,0,0,1,3,2.22,10.63,10.63,0,0,1,2,3.42A12.69,12.69,0,0,1,33.66,36.6ZM27,36.74a4.9,4.9,0,0,0-1.19-3.48A4.08,4.08,0,0,0,22.66,32a6.63,6.63,0,0,0-4.65,2c-.1.5-.17.87-.2,1.12a8.43,8.43,0,0,0,0,1,5.52,5.52,0,0,0,1.36,3.88,4.53,4.53,0,0,0,3.53,1.5,4.11,4.11,0,0,0,3.17-1.28A4.83,4.83,0,0,0,27,36.74Z"/><path class="cls-1" d="M62.31,29.82q0,9.52-3.28,13.79t-9.75,4.26q-6.45,0-9.74-4.28T36.26,30.45q0-8.82,3.28-13.15T49.28,13Q62.32,13,62.31,29.82Zm-7.85.28c-.1-3.83-.53-6.57-1.31-8.21a3.93,3.93,0,0,0-3.82-2.47,4.21,4.21,0,0,0-3.87,2.67c-.8,1.72-1.25,4.67-1.35,8.83a21.54,21.54,0,0,0,1.31,7.81,4.17,4.17,0,0,0,3.91,2.69,4,4,0,0,0,3.75-2.6Q54.31,36.23,54.46,30.1Z"/></svg>