<svg id="Layer_1" data-name="Layer 1" xmlns="http://www.w3.org/2000/svg" viewBox="0 0 69.71 64.98"><defs><style>.cls-1{fill:#87786f;stroke:#2d1606;stroke-miterlimit:10;}</style></defs><path class="cls-1" d="M33.26,42.81a10.17,10.17,0,0,1-1,4.56A10,10,0,0,1,29.31,51a14,14,0,0,1-4.68,2.34,21.06,21.06,0,0,1-6.12.84,26.28,26.28,0,0,1-4.66-.37A17.1,17.1,0,0,1,10,52.57,15.49,15.49,0,0,1,6.56,50.4a24.07,24.07,0,0,1-3.23-3.29l4-5.34q4.67,5.28,10,5.28A7.28,7.28,0,0,0,22,45.67,4.89,4.89,0,0,0,23.85,42a4.59,4.59,0,0,0-2.52-4.62,11.51,11.51,0,0,0-4-1.18,31.43,31.43,0,0,0-6.36-.13V29a46.14,46.14,0,0,0,6,.07,10.65,10.65,0,0,0,3.72-.82,4,4,0,0,0,1.92-1.71,5.46,5.46,0,0,0,.57-2.62,4.33,4.33,0,0,0-1.74-3.32,6.82,6.82,0,0,0-4.31-1.26,10.18,10.18,0,0,0-4.27.94,17.32,17.32,0,0,0-4.31,3.05L5.18,17.64q4.5-5.38,13.87-5.39a17.11,17.11,0,0,1,5.29.76,11.86,11.86,0,0,1,4,2.15A9.43,9.43,0,0,1,31,18.5a10.35,10.35,0,0,1,.9,4.39,9.14,9.14,0,0,1-1.74,5.78,13.56,13.56,0,0,1-5.76,3.86A11.32,11.32,0,0,1,31,35.91,10,10,0,0,1,33.26,42.81Z"/><path class="cls-1" d="M65.48,40.79q0,6.39-3.87,9.86T50.73,54.13a20.51,20.51,0,0,1-8-1.52,17.75,17.75,0,0,1-6.32-4.5l3.36-5.92q5.34,4.86,10.44,4.86a8,8,0,0,0,5.22-1.64,5.17,5.17,0,0,0,2-4.23,5.89,5.89,0,0,0-1.71-4.57,7.1,7.1,0,0,0-4.95-1.56,7.07,7.07,0,0,0-3.15.69,12.78,12.78,0,0,0-3,2.13l-5.16-2.94.6-22.68h24l.06,7.08H47.84l-.3,9.84c.59-.28,1.09-.51,1.52-.69A11.85,11.85,0,0,1,50.31,28a6.76,6.76,0,0,1,1.31-.24c.47,0,1-.06,1.57-.06a13.07,13.07,0,0,1,5,.94,11,11,0,0,1,3.88,2.65,12.26,12.26,0,0,1,2.5,4.14A15.17,15.17,0,0,1,65.48,40.79Z"/></svg>