<svg id="Layer_1" data-name="Layer 1" xmlns="http://www.w3.org/2000/svg" viewBox="0 0 69.71 64.98"><defs><style>.cls-1{fill:#868687;}</style></defs><path class="cls-1" d="M32.43,40.91a7.33,7.33,0,0,1-2.9,6,10.56,10.56,0,0,1-3.44,1.71,15.35,15.35,0,0,1-4.48.62,18.51,18.51,0,0,1-3.41-.28,11.74,11.74,0,0,1-2.84-.87,11,11,0,0,1-2.51-1.59,18.77,18.77,0,0,1-2.38-2.41l2.91-3.92C15.67,42.73,18.11,44,20.72,44a5.34,5.34,0,0,0,3.46-1,3.53,3.53,0,0,0,1.34-2.69,3.43,3.43,0,0,0-.35-1.91,3.51,3.51,0,0,0-1.5-1.48,8.23,8.23,0,0,0-3-.86,23.78,23.78,0,0,0-4.66-.1V30.77a31.78,31.78,0,0,0,4.42.05,8,8,0,0,0,2.73-.6A3,3,0,0,0,24.62,29,4,4,0,0,0,25,27.05a3.2,3.2,0,0,0-1.28-2.44,5.06,5.06,0,0,0-3.17-.92,7.38,7.38,0,0,0-3.12.69,12.6,12.6,0,0,0-3.17,2.23l-2.46-4.16q3.3-4,10.16-3.95a12.63,12.63,0,0,1,3.88.55,8.82,8.82,0,0,1,3,1.58,6.94,6.94,0,0,1,1.89,2.45,7.55,7.55,0,0,1,.66,3.21,6.69,6.69,0,0,1-1.27,4.24,10,10,0,0,1-4.23,2.84,8.24,8.24,0,0,1,4.87,2.48A7.35,7.35,0,0,1,32.43,40.91Z"/><path class="cls-1" d="M57.86,33.32q0,8.4-2.89,12.14T46.4,49.21q-5.68,0-8.58-3.77T34.94,33.87q0-7.74,2.88-11.56T46.4,18.5Q57.86,18.5,57.86,33.32ZM51,33.57c-.08-3.37-.47-5.78-1.15-7.23a3.48,3.48,0,0,0-3.36-2.17A3.71,3.71,0,0,0,43,26.52Q42,28.8,41.84,34.29A19.05,19.05,0,0,0,43,41.16a3.66,3.66,0,0,0,3.45,2.37,3.49,3.49,0,0,0,3.3-2.29C50.46,39.72,50.87,37.16,51,33.57Z"/></svg>