<svg id="Layer_1" data-name="Layer 1" xmlns="http://www.w3.org/2000/svg" viewBox="0 0 69.71 64.98"><defs><style>.cls-1{fill:#fff;stroke:#040421;}</style></defs><path class="cls-1" d="M26.57,48.89h-6.2v-8.6H7.52V13.94h6.4V34.69h6.45V26.24h6.15v8.45H31v5.55h-4.4Z"/><path class="cls-1" d="M58.07,40.09a7.6,7.6,0,0,1-3.13,6.47c-2.09,1.56-5,2.33-8.73,2.33a19.11,19.11,0,0,1-5.2-.66,12.9,12.9,0,0,1-4-1.84,8.3,8.3,0,0,1-2.6-2.85,7.55,7.55,0,0,1-.93-3.74,7.53,7.53,0,0,1,1.68-5,14,14,0,0,1,5.57-3.53c-1.37-.85-2.47-1.6-3.3-2.24A9.3,9.3,0,0,1,35.5,27.1a5.72,5.72,0,0,1-.93-2,10.26,10.26,0,0,1-.25-2.45,7.69,7.69,0,0,1,2.9-6.43c1.93-1.5,4.9-2.26,8.9-2.26a17.86,17.86,0,0,1,4.73.59,11.52,11.52,0,0,1,3.62,1.67,7.24,7.24,0,0,1,3.1,6.1A7.78,7.78,0,0,1,56.1,27.1a14.58,14.58,0,0,1-4.88,3.8,12.56,12.56,0,0,1,5.22,3.77A8.87,8.87,0,0,1,58.07,40.09Zm-6.65-.64a3.42,3.42,0,0,0-.4-1.72,3.87,3.87,0,0,0-1.17-1.26,11,11,0,0,0-1.85-1q-1.08-.48-2.43-1a10.37,10.37,0,0,0-3.65,1.87,3.32,3.32,0,0,0-1.05,2.55,3.57,3.57,0,0,0,1.5,3A6.66,6.66,0,0,0,46.42,43a6.17,6.17,0,0,0,3.65-1A3,3,0,0,0,51.42,39.45Zm-1-15.86a3.24,3.24,0,0,0-1.32-2.67,5.58,5.58,0,0,0-3.48-1,4.8,4.8,0,0,0-3.1,1,3,3,0,0,0-1.2,2.46q0,2.63,4.8,4.68a7.54,7.54,0,0,0,3.35-1.89A3.76,3.76,0,0,0,50.47,23.59Z"/></svg>