<svg id="Layer_1" data-name="Layer 1" xmlns="http://www.w3.org/2000/svg" viewBox="0 0 69.71 64.98"><defs><style>.cls-1{fill:#022749;}</style></defs><path class="cls-1" d="M31.46,38.12a6.68,6.68,0,0,1-2.76,5.7Q26,45.88,21,45.87a16.73,16.73,0,0,1-4.58-.58,11.37,11.37,0,0,1-3.53-1.61,7.58,7.58,0,0,1-2.29-2.51,6.75,6.75,0,0,1-.81-3.3,6.64,6.64,0,0,1,1.47-4.44,12.33,12.33,0,0,1,4.91-3.11,33.93,33.93,0,0,1-2.91-2,8.09,8.09,0,0,1-1.69-1.66A4.9,4.9,0,0,1,10.78,25a9.55,9.55,0,0,1-.22-2.15,6.73,6.73,0,0,1,2.56-5.66q2.55-2,7.83-2a15.43,15.43,0,0,1,4.16.52,10.21,10.21,0,0,1,3.19,1.47,6.57,6.57,0,0,1,2,2.32,6.5,6.5,0,0,1,.7,3.05,6.85,6.85,0,0,1-1.29,4.17A12.71,12.71,0,0,1,25.44,30,11.05,11.05,0,0,1,30,33.36,7.79,7.79,0,0,1,31.46,38.12Zm-5.85-.55a3.1,3.1,0,0,0-.35-1.52,3.48,3.48,0,0,0-1-1.11A9.18,9.18,0,0,0,22.6,34c-.63-.29-1.34-.58-2.14-.87a9,9,0,0,0-3.21,1.64A3,3,0,0,0,16.33,37a3.14,3.14,0,0,0,1.32,2.67,5.87,5.87,0,0,0,3.56,1,5.38,5.38,0,0,0,3.21-.85A2.62,2.62,0,0,0,25.61,37.57Zm-.83-14a2.84,2.84,0,0,0-1.17-2.35,4.88,4.88,0,0,0-3.06-.91,4.28,4.28,0,0,0-2.73.85,2.64,2.64,0,0,0-1.05,2.16q0,2.31,4.22,4.12a6.54,6.54,0,0,0,3-1.67A3.26,3.26,0,0,0,24.78,23.61Z"/><path class="cls-1" d="M34.41,45.87l.05-3.45c.9-1.07,1.87-2.12,2.88-3.17l3-3.13c1-1,1.95-2.06,2.86-3a26.72,26.72,0,0,0,2.4-3,16.81,16.81,0,0,0,1.65-3,7.65,7.65,0,0,0,.62-3,3.3,3.3,0,0,0-1.15-2.59,4.14,4.14,0,0,0-2.81-1,4.78,4.78,0,0,0-2.14.47,5.66,5.66,0,0,0-1.63,1.22A8.83,8.83,0,0,0,39,23.87a13.38,13.38,0,0,0-.86,1.8L33.88,22.6c.3-.66.66-1.42,1.1-2.27a8.67,8.67,0,0,1,1.92-2.42A10.58,10.58,0,0,1,40.15,16a14.09,14.09,0,0,1,5.13-.8,12.29,12.29,0,0,1,3.88.58,8.87,8.87,0,0,1,3,1.65A7.2,7.2,0,0,1,54.11,20a8.3,8.3,0,0,1,.67,3.41,11.57,11.57,0,0,1-1.29,5.23,27.73,27.73,0,0,1-3.15,4.87,36.64,36.64,0,0,1-3.87,4.14c-1.35,1.23-2.5,2.24-3.43,3h12v5.19Z"/></svg>