<svg id="Layer_1" data-name="Layer 1" xmlns="http://www.w3.org/2000/svg" viewBox="0 0 69.71 64.98"><defs><style>.cls-1{fill:#868687;}</style></defs><path class="cls-1" d="M32.77,36.16a9.25,9.25,0,0,1-2.84,7.24Q27.08,46,22,46a15,15,0,0,1-5.84-1.12,12.91,12.91,0,0,1-4.64-3.3l2.47-4.34c2.61,2.38,5.16,3.56,7.65,3.56a5.87,5.87,0,0,0,3.83-1.2,3.79,3.79,0,0,0,1.5-3.1,4.29,4.29,0,0,0-1.26-3.35A5.2,5.2,0,0,0,22,32a5.16,5.16,0,0,0-2.31.51A9.46,9.46,0,0,0,17.55,34l-3.79-2.15.44-16.64H31.8l.05,5.2h-12l-.22,7.21c.43-.2.8-.37,1.12-.5a7.17,7.17,0,0,1,.91-.33,4.8,4.8,0,0,1,1-.18c.35,0,.73,0,1.16,0a9.48,9.48,0,0,1,3.67.69,8.11,8.11,0,0,1,2.84,1.94,9.05,9.05,0,0,1,1.84,3A11.18,11.18,0,0,1,32.77,36.16Z"/><path class="cls-1" d="M46,46H39.33L50.85,20.43H37v-5.2H57.76V19.8Z"/></svg>