<svg id="Layer_1" data-name="Layer 1" xmlns="http://www.w3.org/2000/svg" viewBox="0 0 69.71 64.98"><defs><style>.cls-1{fill:#868687;}</style></defs><path class="cls-1" d="M12.59,49.21l0-3.46c.91-1.06,1.88-2.12,2.89-3.17l3-3.13c1-1,1.95-2.05,2.86-3a28.65,28.65,0,0,0,2.4-3,16.81,16.81,0,0,0,1.65-3,7.64,7.64,0,0,0,.61-3,3.26,3.26,0,0,0-1.14-2.59,4.15,4.15,0,0,0-2.81-1,4.65,4.65,0,0,0-2.14.48,5.49,5.49,0,0,0-1.63,1.22,9.37,9.37,0,0,0-1.19,1.65,14.62,14.62,0,0,0-.85,1.8l-4.23-3.07c.3-.67.66-1.42,1.1-2.27a8.7,8.7,0,0,1,1.92-2.43,10.57,10.57,0,0,1,3.25-1.94,13.88,13.88,0,0,1,5.13-.8,12.29,12.29,0,0,1,3.88.58,8.64,8.64,0,0,1,3,1.65,7.16,7.16,0,0,1,1.93,2.59A8.34,8.34,0,0,1,33,26.73,11.54,11.54,0,0,1,31.67,32a27.73,27.73,0,0,1-3.15,4.87A36.64,36.64,0,0,1,24.65,41q-2,1.85-3.44,3.05h12v5.19Z"/><path class="cls-1" d="M54.39,49.21H48.94V41.64H37.63V18.45h5.63V36.71h5.68V29.28h5.41v7.43h3.91V41.6H54.39Z"/></svg>