<svg id="Layer_1" data-name="Layer 1" xmlns="http://www.w3.org/2000/svg" viewBox="0 0 69.71 64.98"><defs><style>.cls-1{fill:#868687;}</style></defs><path class="cls-1" d="M33.27,37.74a10.93,10.93,0,0,1-.74,4.1,9,9,0,0,1-2,3.11,9.21,9.21,0,0,1-3.19,2,11.86,11.86,0,0,1-4.2.7,11.72,11.72,0,0,1-4.4-.79,9.51,9.51,0,0,1-3.38-2.29A10.45,10.45,0,0,1,13.14,41a12.77,12.77,0,0,1-.77-4.59A16.56,16.56,0,0,1,13.3,31a28.3,28.3,0,0,1,2.44-5.21A37.18,37.18,0,0,1,19.11,21a44.23,44.23,0,0,1,3.78-4.08h7.43a46.13,46.13,0,0,0-5.45,5.9,47.69,47.69,0,0,0-4.45,6.82c.46-.27.88-.49,1.25-.66a7.74,7.74,0,0,1,1.06-.42,5.87,5.87,0,0,1,1-.22,10.23,10.23,0,0,1,1.17-.07,8.14,8.14,0,0,1,3.38.69,7.57,7.57,0,0,1,2.63,1.95,9.55,9.55,0,0,1,1.72,3A11.06,11.06,0,0,1,33.27,37.74Zm-5.86.12a4.34,4.34,0,0,0-1-3.07,3.61,3.61,0,0,0-2.79-1.13,5.84,5.84,0,0,0-4.09,1.73c-.08.44-.14.77-.17,1a6.78,6.78,0,0,0,0,.86,4.88,4.88,0,0,0,1.19,3.42A4,4,0,0,0,23.58,42a3.64,3.64,0,0,0,2.79-1.13A4.22,4.22,0,0,0,27.41,37.86Z"/><path class="cls-1" d="M57.2,39.35a7.62,7.62,0,0,1-.74,3.35,7.22,7.22,0,0,1-2.16,2.62A10.42,10.42,0,0,1,50.87,47a15.43,15.43,0,0,1-4.49.61A19.57,19.57,0,0,1,43,47.38a12.86,12.86,0,0,1-2.84-.87,11,11,0,0,1-2.51-1.59,18.73,18.73,0,0,1-2.37-2.41l2.9-3.92q3.43,3.87,7.35,3.87a5.37,5.37,0,0,0,3.45-1,3.52,3.52,0,0,0,1.34-2.7A3.44,3.44,0,0,0,50,36.84a3.66,3.66,0,0,0-1.5-1.47,8.56,8.56,0,0,0-3-.87,23.21,23.21,0,0,0-4.67-.09V29.22a33.57,33.57,0,0,0,4.43.05,8,8,0,0,0,2.72-.6,3,3,0,0,0,1.41-1.25,4,4,0,0,0,.42-1.93,3.15,3.15,0,0,0-1.28-2.43,5,5,0,0,0-3.16-.93,7.4,7.4,0,0,0-3.13.69,12.93,12.93,0,0,0-3.17,2.24l-2.46-4.17q3.3-3.94,10.16-3.95a12.57,12.57,0,0,1,3.88.56,8.71,8.71,0,0,1,3,1.57,7,7,0,0,1,1.89,2.45,7.48,7.48,0,0,1,.66,3.22A6.71,6.71,0,0,1,54.89,29a9.94,9.94,0,0,1-4.23,2.83,8.26,8.26,0,0,1,4.87,2.48A7.34,7.34,0,0,1,57.2,39.35Z"/></svg>