<svg id="Layer_1" data-name="Layer 1" xmlns="http://www.w3.org/2000/svg" viewBox="0 0 69.71 64.98"><defs><style>.cls-1{fill:#b7b6b6;stroke:#040421;}</style></defs><path class="cls-1" d="M32.2,37.75C32.2,41.3,31.13,44,29,46s-5.17,2.9-9.06,2.9a16.9,16.9,0,0,1-6.64-1.27A14.89,14.89,0,0,1,8,43.85l2.8-4.93q4.45,4,8.7,4a6.72,6.72,0,0,0,4.35-1.37,4.29,4.29,0,0,0,1.7-3.52,4.89,4.89,0,0,0-1.42-3.81A5.91,5.91,0,0,0,20,33a5.92,5.92,0,0,0-2.62.57,10.84,10.84,0,0,0-2.48,1.78l-4.3-2.45L11.1,14h20l0,5.9H17.5l-.25,8.2c.49-.24.91-.43,1.26-.58a10.2,10.2,0,0,1,1-.37,5.27,5.27,0,0,1,1.09-.2c.39,0,.83-.05,1.31-.05a10.92,10.92,0,0,1,4.18.78,9.12,9.12,0,0,1,3.22,2.21,10.12,10.12,0,0,1,2.09,3.45A12.61,12.61,0,0,1,32.2,37.75Z"/><path class="cls-1" d="M61.7,30.82q0,9.52-3.28,13.79t-9.74,4.26q-6.47,0-9.75-4.29T35.65,31.44q0-8.81,3.28-13.14T48.68,14Q61.7,14,61.7,30.82Zm-7.85.28c-.09-3.84-.53-6.57-1.3-8.22a4,4,0,0,0-3.82-2.46,4.19,4.19,0,0,0-3.87,2.67q-1.22,2.58-1.36,8.83a21.54,21.54,0,0,0,1.31,7.81,4.17,4.17,0,0,0,3.92,2.69,4,4,0,0,0,3.74-2.6C53.3,38.08,53.76,35.18,53.85,31.1Z"/></svg>