<svg id="Layer_1" data-name="Layer 1" xmlns="http://www.w3.org/2000/svg" viewBox="0 0 69.71 64.98"><defs><style>.cls-1{fill:#868687;}</style></defs><path class="cls-1" d="M29.57,48.59H24.11V41H12.81V17.83h5.63V36.09h5.67V28.66h5.42v7.43h3.91V41H29.57Z"/><path class="cls-1" d="M56.76,40.29A7.65,7.65,0,0,1,56,43.64a7.31,7.31,0,0,1-2.16,2.62A10.32,10.32,0,0,1,50.43,48a15.43,15.43,0,0,1-4.49.61,18.59,18.59,0,0,1-3.41-.28,11.88,11.88,0,0,1-2.84-.87,11,11,0,0,1-2.51-1.58,18.85,18.85,0,0,1-2.37-2.42l2.9-3.91q3.43,3.87,7.35,3.87a5.31,5.31,0,0,0,3.45-1,3.5,3.5,0,0,0,1.34-2.69,3.43,3.43,0,0,0-.34-1.91A3.62,3.62,0,0,0,48,36.3a8.58,8.58,0,0,0-2.95-.86,23.21,23.21,0,0,0-4.67-.09v-5.2a31.92,31.92,0,0,0,4.43.05,7.52,7.52,0,0,0,2.72-.6A3,3,0,0,0,49,28.35a4,4,0,0,0,.42-1.92A3.18,3.18,0,0,0,48.09,24a5,5,0,0,0-3.16-.92,7.4,7.4,0,0,0-3.13.69A13,13,0,0,0,38.63,26l-2.46-4.16q3.3-3.94,10.17-3.95a12.67,12.67,0,0,1,3.88.55,8.77,8.77,0,0,1,3,1.58,7,7,0,0,1,1.9,2.45,7.56,7.56,0,0,1,.66,3.22,6.73,6.73,0,0,1-1.28,4.24,10.06,10.06,0,0,1-4.22,2.83,8.26,8.26,0,0,1,4.86,2.48A7.3,7.3,0,0,1,56.76,40.29Z"/></svg>