<svg id="Layer_1" data-name="Layer 1" xmlns="http://www.w3.org/2000/svg" viewBox="0 0 69.71 64.98"><defs><style>.cls-1{fill:#ffe8d9;stroke:#2d1606;stroke-miterlimit:10;}</style></defs><path class="cls-1" d="M34,44.36A14.81,14.81,0,0,1,33,50a12.05,12.05,0,0,1-2.79,4.24,12.25,12.25,0,0,1-4.35,2.73,16.17,16.17,0,0,1-5.73,1,15.81,15.81,0,0,1-6-1.09,12.74,12.74,0,0,1-4.61-3.11,14.22,14.22,0,0,1-3-4.83,17.45,17.45,0,0,1-1.06-6.26,22.39,22.39,0,0,1,1.28-7.38,38.27,38.27,0,0,1,3.32-7.12,51.82,51.82,0,0,1,4.59-6.53A62.24,62.24,0,0,1,19.83,16H30a63.92,63.92,0,0,0-7.43,8.05,64.79,64.79,0,0,0-6.06,9.29c.63-.36,1.19-.66,1.71-.9a10.62,10.62,0,0,1,1.43-.57,8.08,8.08,0,0,1,1.38-.3,12.65,12.65,0,0,1,1.59-.09,11,11,0,0,1,4.61.94,10.15,10.15,0,0,1,3.59,2.66,12.79,12.79,0,0,1,2.35,4.1A15.17,15.17,0,0,1,34,44.36Zm-8,.17a5.92,5.92,0,0,0-1.42-4.18,4.93,4.93,0,0,0-3.8-1.55,8,8,0,0,0-5.58,2.36q-.18.9-.24,1.35a9.26,9.26,0,0,0-.06,1.18,6.65,6.65,0,0,0,1.63,4.66,5.47,5.47,0,0,0,4.24,1.79,4.93,4.93,0,0,0,3.81-1.54A5.77,5.77,0,0,0,26,44.53Z"/><path class="cls-1" d="M65.9,44.54q0,6.39-3.88,9.86T51.15,57.88a20.47,20.47,0,0,1-8-1.52,17.63,17.63,0,0,1-6.32-4.5l3.36-5.92q5.34,4.86,10.44,4.86a8,8,0,0,0,5.22-1.64,5.17,5.17,0,0,0,2-4.23,5.89,5.89,0,0,0-1.71-4.57,7.1,7.1,0,0,0-5-1.56,7.07,7.07,0,0,0-3.15.69,12.78,12.78,0,0,0-3,2.13L40,38.68,40.58,16h24l.06,7.08H48.26L48,32.92c.58-.28,1.09-.51,1.52-.69a11.09,11.09,0,0,1,1.25-.45A6.62,6.62,0,0,1,52,31.54c.46,0,1-.06,1.57-.06a13.07,13.07,0,0,1,5,.94,11.12,11.12,0,0,1,3.87,2.65A12.12,12.12,0,0,1,65,39.21,15.17,15.17,0,0,1,65.9,44.54Z"/></svg>