<svg id="Layer_1" data-name="Layer 1" xmlns="http://www.w3.org/2000/svg" viewBox="0 0 69.71 64.98"><defs><style>.cls-1{fill:#ffe8d9;stroke:#2d1606;stroke-miterlimit:10;}</style></defs><path class="cls-1" d="M33.22,44.36a14.81,14.81,0,0,1-1,5.59,12,12,0,0,1-7.14,7,16.17,16.17,0,0,1-5.73,1,15.81,15.81,0,0,1-6-1.09,12.87,12.87,0,0,1-4.62-3.11,14.35,14.35,0,0,1-3-4.83,17.45,17.45,0,0,1-1.06-6.26A22.38,22.38,0,0,1,6,35.21a38.93,38.93,0,0,1,3.32-7.12,53,53,0,0,1,4.6-6.53A63.69,63.69,0,0,1,19.06,16H29.2a63.18,63.18,0,0,0-7.43,8.05,64.79,64.79,0,0,0-6.06,9.29c.62-.36,1.19-.66,1.7-.9a11.27,11.27,0,0,1,1.44-.57,8.08,8.08,0,0,1,1.38-.3,12.65,12.65,0,0,1,1.59-.09,11,11,0,0,1,4.61.94A10.24,10.24,0,0,1,30,35.08a12.79,12.79,0,0,1,2.35,4.1A15.17,15.17,0,0,1,33.22,44.36Zm-8,.17a5.92,5.92,0,0,0-1.42-4.18A4.94,4.94,0,0,0,20,38.8a7.93,7.93,0,0,0-5.57,2.36q-.18.9-.24,1.35a9.26,9.26,0,0,0-.06,1.18,6.65,6.65,0,0,0,1.63,4.66A5.47,5.47,0,0,0,20,50.14a4.93,4.93,0,0,0,3.81-1.54A5.81,5.81,0,0,0,25.24,44.53Z"/><path class="cls-1" d="M37.66,57.88l.06-4.71q1.86-2.18,3.93-4.33l4.11-4.26q2-2.13,3.9-4.15a37.14,37.14,0,0,0,3.27-4.1,22.63,22.63,0,0,0,2.25-4.06A10.4,10.4,0,0,0,56,28.21a4.45,4.45,0,0,0-1.56-3.53,5.62,5.62,0,0,0-3.84-1.36,6.42,6.42,0,0,0-2.91.65,7.51,7.51,0,0,0-2.22,1.66,12.15,12.15,0,0,0-1.62,2.25,19.58,19.58,0,0,0-1.17,2.46l-5.76-4.19c.4-.91.9-1.94,1.5-3.1a11.92,11.92,0,0,1,2.61-3.3,14.57,14.57,0,0,1,4.44-2.66,19.2,19.2,0,0,1,7-1.09,17.11,17.11,0,0,1,5.29.79A12.12,12.12,0,0,1,61.89,19a9.89,9.89,0,0,1,2.63,3.54,11.45,11.45,0,0,1,.92,4.65,15.7,15.7,0,0,1-1.77,7.14A37.59,37.59,0,0,1,59.38,41a51,51,0,0,1-5.28,5.64q-2.76,2.52-4.68,4.15H65.8v7.08Z"/></svg>