<svg id="Layer_1" data-name="Layer 1" xmlns="http://www.w3.org/2000/svg" viewBox="0 0 69.71 64.98"><defs><style>.cls-1{fill:#022749;}</style></defs><path class="cls-1" d="M28,47h-5.9l.36-13A8.08,8.08,0,0,1,20,35.52,8.9,8.9,0,0,1,17,36a9.24,9.24,0,0,1-3.67-.71,7.93,7.93,0,0,1-2.84-2,9,9,0,0,1-1.83-3.1,12.2,12.2,0,0,1-.64-4,12,12,0,0,1,.77-4.38,9.05,9.05,0,0,1,5.64-5.41A13.62,13.62,0,0,1,19,15.59a9.64,9.64,0,0,1,7.13,2.55,9.2,9.2,0,0,1,2.42,7.08Zm-5.59-22.4a3.48,3.48,0,0,0-.28-1.43,3.7,3.7,0,0,0-.8-1.12,3.54,3.54,0,0,0-1.21-.75A4.32,4.32,0,0,0,18.65,21a4,4,0,0,0-3.21,1.36,5.47,5.47,0,0,0-1.19,3.74,4.85,4.85,0,0,0,1,3.3,3.63,3.63,0,0,0,2.88,1.19,4,4,0,0,0,3-1.19,4.88,4.88,0,0,0,1.23-3.3Z"/><path class="cls-1" d="M53.89,39.21a6.71,6.71,0,0,1-2.76,5.7C49.29,46.27,46.73,47,43.46,47a16.68,16.68,0,0,1-4.58-.58,11.5,11.5,0,0,1-3.53-1.62,7.39,7.39,0,0,1-2.29-2.51,7.23,7.23,0,0,1,.66-7.73,12.36,12.36,0,0,1,4.9-3.12c-1.2-.74-2.17-1.4-2.9-2A8.34,8.34,0,0,1,34,27.78a5,5,0,0,1-.82-1.73A9.09,9.09,0,0,1,33,23.89a6.76,6.76,0,0,1,2.55-5.66c1.7-1.32,4.32-2,7.84-2a15.31,15.31,0,0,1,4.15.52,9.68,9.68,0,0,1,3.19,1.47,6.49,6.49,0,0,1,2,2.31,6.55,6.55,0,0,1,.7,3.05,6.8,6.8,0,0,1-1.3,4.18,12.76,12.76,0,0,1-4.29,3.35,11,11,0,0,1,4.6,3.31A7.87,7.87,0,0,1,53.89,39.21ZM48,38.65a3.06,3.06,0,0,0-.35-1.51,3.54,3.54,0,0,0-1-1.12A10.06,10.06,0,0,0,45,35.11c-.64-.28-1.35-.57-2.14-.87a9.21,9.21,0,0,0-3.21,1.64,2.93,2.93,0,0,0-.92,2.25,3.14,3.14,0,0,0,1.32,2.67,5.92,5.92,0,0,0,3.56,1,5.46,5.46,0,0,0,3.21-.85A2.66,2.66,0,0,0,48,38.65Zm-.84-14A2.83,2.83,0,0,0,46,22.35,4.82,4.82,0,0,0,43,21.44a4.26,4.26,0,0,0-2.73.84,2.68,2.68,0,0,0-1,2.17c0,1.53,1.4,2.91,4.22,4.12a6.73,6.73,0,0,0,2.95-1.67A3.32,3.32,0,0,0,47.2,24.69Z"/></svg>