<svg id="Layer_1" data-name="Layer 1" xmlns="http://www.w3.org/2000/svg" viewBox="0 0 69.71 64.98"><defs><style>.cls-1{fill:#022749;}</style></defs><path class="cls-1" d="M29.34,47h-5.9l.35-13a8,8,0,0,1-2.5,1.54,8.94,8.94,0,0,1-2.95.44,9.29,9.29,0,0,1-3.68-.71,7.89,7.89,0,0,1-2.83-2A8.73,8.73,0,0,1,10,30.15a12.2,12.2,0,0,1-.64-4,12,12,0,0,1,.77-4.38,9.41,9.41,0,0,1,2.18-3.32,9.5,9.5,0,0,1,3.45-2.09,13.72,13.72,0,0,1,4.56-.72,9.64,9.64,0,0,1,7.13,2.55,9.2,9.2,0,0,1,2.42,7.08Zm-5.59-22.4a3.32,3.32,0,0,0-.29-1.43,3.5,3.5,0,0,0-2-1.87A4.36,4.36,0,0,0,20,21a4.06,4.06,0,0,0-3.22,1.36,5.52,5.52,0,0,0-1.18,3.74,4.85,4.85,0,0,0,1,3.3,3.63,3.63,0,0,0,2.88,1.19,4,4,0,0,0,3-1.19,4.84,4.84,0,0,0,1.24-3.3Z"/><path class="cls-1" d="M53.49,47H47.6L48,34a8.08,8.08,0,0,1-2.51,1.54,8.86,8.86,0,0,1-2.95.44,9.24,9.24,0,0,1-3.67-.71,7.93,7.93,0,0,1-2.84-2,8.86,8.86,0,0,1-1.82-3.1,12,12,0,0,1-.64-4,11.78,11.78,0,0,1,.77-4.38,9.27,9.27,0,0,1,2.18-3.32,9.42,9.42,0,0,1,3.45-2.09,13.62,13.62,0,0,1,4.55-.72,9.64,9.64,0,0,1,7.13,2.55A9.16,9.16,0,0,1,54,25.22Zm-5.58-22.4A3.44,3.44,0,0,0,46.83,22a3.64,3.64,0,0,0-1.21-.75,4.38,4.38,0,0,0-1.5-.26,4,4,0,0,0-3.21,1.36,5.52,5.52,0,0,0-1.19,3.74,4.85,4.85,0,0,0,1,3.3,3.61,3.61,0,0,0,2.88,1.19,4,4,0,0,0,3-1.19,4.88,4.88,0,0,0,1.23-3.3Z"/></svg>