<svg id="Layer_1" data-name="Layer 1" xmlns="http://www.w3.org/2000/svg" viewBox="0 0 69.71 64.98"><defs><style>.cls-1{fill:#87786f;stroke:#2d1606;stroke-miterlimit:10;}</style></defs><path class="cls-1" d="M32.62,44.36a14.81,14.81,0,0,1-1,5.59,12.05,12.05,0,0,1-2.79,4.24,12.25,12.25,0,0,1-4.35,2.73,16.17,16.17,0,0,1-5.73,1,15.81,15.81,0,0,1-6-1.09,12.74,12.74,0,0,1-4.61-3.11,14.22,14.22,0,0,1-3-4.83,17.45,17.45,0,0,1-1.06-6.26A22.39,22.39,0,0,1,5.4,35.21a38.23,38.23,0,0,1,3.31-7.12,53,53,0,0,1,4.6-6.53A62.24,62.24,0,0,1,18.47,16H28.6a63.92,63.92,0,0,0-7.43,8.05,64.79,64.79,0,0,0-6.06,9.29c.63-.36,1.19-.66,1.7-.9a11.27,11.27,0,0,1,1.44-.57,8.08,8.08,0,0,1,1.38-.3,12.65,12.65,0,0,1,1.59-.09,11,11,0,0,1,4.61.94,10.15,10.15,0,0,1,3.59,2.66,12.79,12.79,0,0,1,2.35,4.1A15.17,15.17,0,0,1,32.62,44.36Zm-8,.17a5.92,5.92,0,0,0-1.42-4.18,4.93,4.93,0,0,0-3.8-1.55,8,8,0,0,0-5.58,2.36q-.18.9-.24,1.35a9.26,9.26,0,0,0-.06,1.18,6.65,6.65,0,0,0,1.63,4.66,5.47,5.47,0,0,0,4.24,1.79,4.93,4.93,0,0,0,3.81-1.54A5.77,5.77,0,0,0,24.64,44.53Z"/><path class="cls-1" d="M66,47.32a9.14,9.14,0,0,1-3.76,7.77q-3.77,2.79-10.47,2.79a22.94,22.94,0,0,1-6.25-.79,15.91,15.91,0,0,1-4.81-2.2,10.28,10.28,0,0,1-3.12-3.43A9.11,9.11,0,0,1,36.46,47a9.08,9.08,0,0,1,2-6.06,17,17,0,0,1,6.69-4.24q-2.46-1.53-4-2.68a11.31,11.31,0,0,1-2.31-2.26,6.78,6.78,0,0,1-1.11-2.36,12.61,12.61,0,0,1-.3-2.94A9.21,9.21,0,0,1,41,18.71Q44.44,16,51.64,16a21.25,21.25,0,0,1,5.67.71,13.44,13.44,0,0,1,4.35,2,8.83,8.83,0,0,1,2.76,3.15,8.94,8.94,0,0,1,1,4.16,9.34,9.34,0,0,1-1.77,5.7,17.46,17.46,0,0,1-5.85,4.57A14.86,14.86,0,0,1,64,40.82,10.61,10.61,0,0,1,66,47.32Zm-8-.77a4.16,4.16,0,0,0-.48-2.06A4.7,4.7,0,0,0,56.11,43a12.72,12.72,0,0,0-2.22-1.24C53,41.34,52.06,41,51,40.54a12.31,12.31,0,0,0-4.38,2.24,4,4,0,0,0-1.26,3.06,4.27,4.27,0,0,0,1.8,3.64A8,8,0,0,0,52,50.8a7.34,7.34,0,0,0,4.38-1.16A3.61,3.61,0,0,0,58,46.55Zm-1.14-19a3.86,3.86,0,0,0-1.59-3.2,6.57,6.57,0,0,0-4.17-1.24,5.82,5.82,0,0,0-3.72,1.15,3.63,3.63,0,0,0-1.44,2.95q0,3.15,5.76,5.62a9,9,0,0,0,4-2.27A4.49,4.49,0,0,0,56.86,27.52Z"/></svg>