<svg id="Layer_1" data-name="Layer 1" xmlns="http://www.w3.org/2000/svg" viewBox="0 0 69.71 64.98"><defs><style>.cls-1{fill:#022749;}</style></defs><path class="cls-1" d="M9.2,43.44l0-3.45q1.37-1.6,2.89-3.18l3-3.13c1-1,1.95-2.05,2.86-3a26.72,26.72,0,0,0,2.4-3,16.81,16.81,0,0,0,1.65-3,7.64,7.64,0,0,0,.61-3,3.28,3.28,0,0,0-1.14-2.59,4.15,4.15,0,0,0-2.82-1,4.63,4.63,0,0,0-2.13.47,5.36,5.36,0,0,0-1.63,1.22,9.37,9.37,0,0,0-1.19,1.65,16.35,16.35,0,0,0-.86,1.8L8.67,20.17c.29-.66.66-1.42,1.1-2.27a8.81,8.81,0,0,1,1.91-2.42,10.56,10.56,0,0,1,3.26-2,14.05,14.05,0,0,1,5.13-.8,12.33,12.33,0,0,1,3.88.58A8.72,8.72,0,0,1,27,15a7.16,7.16,0,0,1,1.93,2.59A8.37,8.37,0,0,1,29.57,21a11.47,11.47,0,0,1-1.3,5.24,27.47,27.47,0,0,1-3.14,4.87,36.64,36.64,0,0,1-3.88,4.13c-1.34,1.23-2.49,2.25-3.43,3h12v5.19Z"/><path class="cls-1" d="M55.31,27.56q0,8.39-2.89,12.13t-8.57,3.75q-5.68,0-8.58-3.77T32.39,28.11q0-7.75,2.88-11.57t8.58-3.81Q55.31,12.73,55.31,27.56Zm-6.91.24c-.08-3.37-.47-5.78-1.15-7.23a3.48,3.48,0,0,0-3.36-2.17,3.71,3.71,0,0,0-3.4,2.35q-1.07,2.28-1.2,7.78a19.14,19.14,0,0,0,1.15,6.87,3.69,3.69,0,0,0,3.45,2.37,3.51,3.51,0,0,0,3.3-2.29C47.91,34,48.32,31.39,48.4,27.8Z"/></svg>