<svg id="Layer_1" data-name="Layer 1" xmlns="http://www.w3.org/2000/svg" viewBox="0 0 69.71 64.98"><defs><style>.cls-1{fill:#b7b6b6;stroke:#040421;}</style></defs><path class="cls-1" d="M34.27,39.43a12.32,12.32,0,0,1-.83,4.66,9.88,9.88,0,0,1-5.95,5.8,13.33,13.33,0,0,1-4.77.81,13.17,13.17,0,0,1-5-.91,10.58,10.58,0,0,1-3.84-2.6,11.72,11.72,0,0,1-2.47-4A14.58,14.58,0,0,1,10.52,38a18.61,18.61,0,0,1,1.07-6.15,32.15,32.15,0,0,1,2.76-5.93,42.94,42.94,0,0,1,3.83-5.44,51.17,51.17,0,0,1,4.3-4.63h8.45a52.51,52.51,0,0,0-6.2,6.7,54.36,54.36,0,0,0-5.05,7.75c.52-.3,1-.55,1.42-.75A10.69,10.69,0,0,1,22.3,29a7.61,7.61,0,0,1,1.15-.25,10.52,10.52,0,0,1,1.32-.07,9.3,9.3,0,0,1,3.85.78,8.47,8.47,0,0,1,3,2.22,10.5,10.5,0,0,1,2,3.41A12.55,12.55,0,0,1,34.27,39.43Zm-6.65.14a5,5,0,0,0-1.18-3.49,4.13,4.13,0,0,0-3.17-1.28,6.62,6.62,0,0,0-4.65,2c-.1.5-.16.88-.2,1.12a8.5,8.5,0,0,0-.05,1,5.58,5.58,0,0,0,1.36,3.88,4.54,4.54,0,0,0,3.54,1.5A4.1,4.1,0,0,0,26.44,43,4.81,4.81,0,0,0,27.62,39.57Z"/><path class="cls-1" d="M61.47,41.26a8.65,8.65,0,0,1-.84,3.81,8.42,8.42,0,0,1-2.45,3,12,12,0,0,1-3.91,2,17.33,17.33,0,0,1-5.1.7,21.62,21.62,0,0,1-3.87-.32,13.49,13.49,0,0,1-3.23-1,12.39,12.39,0,0,1-2.85-1.8,21.29,21.29,0,0,1-2.7-2.74l3.3-4.45q3.9,4.4,8.35,4.4a6.07,6.07,0,0,0,3.93-1.16,4.48,4.48,0,0,0,1.13-5.23,4.19,4.19,0,0,0-1.71-1.68,9.63,9.63,0,0,0-3.35-1,26.4,26.4,0,0,0-5.3-.1v-5.9a37.46,37.46,0,0,0,5,.05,8.93,8.93,0,0,0,3.1-.68,3.41,3.41,0,0,0,1.6-1.42,4.55,4.55,0,0,0,.47-2.19,3.61,3.61,0,0,0-1.45-2.77,5.77,5.77,0,0,0-3.6-1,8.45,8.45,0,0,0-3.55.78A14.62,14.62,0,0,0,40.87,25l-2.8-4.73q3.75-4.5,11.55-4.49a14.32,14.32,0,0,1,4.41.63,9.82,9.82,0,0,1,3.36,1.79A7.76,7.76,0,0,1,59.54,21a8.65,8.65,0,0,1,.75,3.66,7.62,7.62,0,0,1-1.45,4.82A11.32,11.32,0,0,1,54,32.7a9.47,9.47,0,0,1,5.54,2.81A8.39,8.39,0,0,1,61.47,41.26Z"/></svg>