<svg id="Layer_1" data-name="Layer 1" xmlns="http://www.w3.org/2000/svg" viewBox="0 0 69.71 64.98"><defs><style>.cls-1{fill:#fff;stroke:#040421;}</style></defs><path class="cls-1" d="M29,48.89h-6.2v-8.6H10V13.94h6.4V34.69h6.45V26.24H29v8.45h4.45v5.55H29Z"/><path class="cls-1" d="M59.93,39.46a8.44,8.44,0,0,1-.85,3.8,8.34,8.34,0,0,1-2.45,3,12.09,12.09,0,0,1-3.9,2,17.77,17.77,0,0,1-5.1.69,21.71,21.71,0,0,1-3.88-.31,13.88,13.88,0,0,1-3.22-1,12.39,12.39,0,0,1-2.85-1.8A21.29,21.29,0,0,1,35,43.05l3.3-4.46Q42.18,43,46.63,43a6.06,6.06,0,0,0,3.92-1.15,4,4,0,0,0,1.53-3.06,4,4,0,0,0-.4-2.17A4,4,0,0,0,50,34.93a9.69,9.69,0,0,0-3.35-1,26.33,26.33,0,0,0-5.3-.11v-5.9a37.55,37.55,0,0,0,5,.06,8.85,8.85,0,0,0,3.1-.69,3.39,3.39,0,0,0,1.6-1.41,4.55,4.55,0,0,0,.48-2.19,3.63,3.63,0,0,0-1.45-2.77,5.71,5.71,0,0,0-3.6-1.05,8.25,8.25,0,0,0-3.55.79,14.19,14.19,0,0,0-3.6,2.53l-2.8-4.73Q40.28,14,48.08,14a14.41,14.41,0,0,1,4.41.63,10.18,10.18,0,0,1,3.36,1.79A8,8,0,0,1,58,19.2a8.6,8.6,0,0,1,.75,3.65,7.66,7.66,0,0,1-1.45,4.82,11.27,11.27,0,0,1-4.8,3.22A9.39,9.39,0,0,1,58,33.71,8.38,8.38,0,0,1,59.93,39.46Z"/></svg>