<svg id="Layer_1" data-name="Layer 1" xmlns="http://www.w3.org/2000/svg" viewBox="0 0 69.71 64.98"><defs><style>.cls-1{fill:#87786f;stroke:#2d1606;stroke-miterlimit:10;}</style></defs><path class="cls-1" d="M33,42.48a9.12,9.12,0,0,1-3.76,7.77c-2.51,1.87-6,2.8-10.47,2.8a23.26,23.26,0,0,1-6.24-.79,15.87,15.87,0,0,1-4.82-2.21,10.15,10.15,0,0,1-3.12-3.42,9.15,9.15,0,0,1-1.11-4.5,9,9,0,0,1,2-6.05,16.84,16.84,0,0,1,6.69-4.24c-1.64-1-3-1.92-4-2.68A11.33,11.33,0,0,1,6,26.89a6.65,6.65,0,0,1-1.11-2.35,12.7,12.7,0,0,1-.3-2.95A9.18,9.18,0,0,1,8,13.88q3.48-2.72,10.68-2.71a20.85,20.85,0,0,1,5.67.71,13.64,13.64,0,0,1,4.35,2,8.71,8.71,0,0,1,3.72,7.32,9.29,9.29,0,0,1-1.77,5.69,17.33,17.33,0,0,1-5.85,4.57A15,15,0,0,1,31.09,36,10.69,10.69,0,0,1,33,42.48Zm-8-.76a4.17,4.17,0,0,0-.48-2.07,4.67,4.67,0,0,0-1.41-1.51A13.4,13.4,0,0,0,21,36.89c-.86-.38-1.83-.78-2.91-1.18a12.32,12.32,0,0,0-4.38,2.23A4,4,0,0,0,12.4,41a4.29,4.29,0,0,0,1.8,3.65A8,8,0,0,0,19.06,46a7.41,7.41,0,0,0,4.38-1.16A3.61,3.61,0,0,0,25.06,41.72Zm-1.14-19a3.86,3.86,0,0,0-1.59-3.2,6.57,6.57,0,0,0-4.17-1.24,5.76,5.76,0,0,0-3.72,1.15,3.61,3.61,0,0,0-1.44,3Q13,25.5,18.76,28a9.08,9.08,0,0,0,4-2.28A4.46,4.46,0,0,0,23.92,22.69Z"/><path class="cls-1" d="M65.26,41.73a10.17,10.17,0,0,1-1,4.56,10,10,0,0,1-2.94,3.58,14.32,14.32,0,0,1-4.69,2.34,21,21,0,0,1-6.12.84,26.19,26.19,0,0,1-4.65-.38A16.15,16.15,0,0,1,42,51.48a14.87,14.87,0,0,1-3.42-2.16A25.32,25.32,0,0,1,35.32,46l4-5.34Q44,46,49.3,46A7.24,7.24,0,0,0,54,44.58a4.82,4.82,0,0,0,1.83-3.67,4.72,4.72,0,0,0-.47-2.61,5,5,0,0,0-2-2,11.82,11.82,0,0,0-4-1.18A32.3,32.3,0,0,0,42.94,35V27.91A44.2,44.2,0,0,0,49,28a10.48,10.48,0,0,0,3.72-.82,4,4,0,0,0,1.92-1.7,5.49,5.49,0,0,0,.57-2.62,4.35,4.35,0,0,0-1.74-3.33,6.91,6.91,0,0,0-4.32-1.25,10,10,0,0,0-4.26.94,17.29,17.29,0,0,0-4.32,3l-3.36-5.67q4.5-5.4,13.86-5.39a17.44,17.44,0,0,1,5.3.75,12.32,12.32,0,0,1,4,2.15A9.46,9.46,0,0,1,63,17.42a10.3,10.3,0,0,1,.9,4.38,9.12,9.12,0,0,1-1.74,5.78,13.57,13.57,0,0,1-5.76,3.87A11.26,11.26,0,0,1,63,34.83,10.05,10.05,0,0,1,65.26,41.73Z"/></svg>