<svg id="Layer_1" data-name="Layer 1" xmlns="http://www.w3.org/2000/svg" viewBox="0 0 69.71 64.98"><defs><style>.cls-1{fill:#ffe8d9;stroke:#2d1606;stroke-miterlimit:10;}</style></defs><path class="cls-1" d="M32,40.92q0,6.39-3.88,9.87T17.28,54.27a20.26,20.26,0,0,1-8-1.53A17.46,17.46,0,0,1,3,48.24l3.35-5.91q5.34,4.86,10.44,4.86A8.09,8.09,0,0,0,22,45.55a5.19,5.19,0,0,0,2-4.23,5.84,5.84,0,0,0-1.71-4.57,7.08,7.08,0,0,0-4.95-1.56,7,7,0,0,0-3.14.69,12.38,12.38,0,0,0-3,2.13L6.11,35.06,6.7,12.39h24l.07,7.08H14.38l-.3,9.84c.59-.28,1.09-.51,1.52-.69a11.85,11.85,0,0,1,1.25-.45,6.76,6.76,0,0,1,1.31-.24c.47,0,1-.06,1.58-.06a12.87,12.87,0,0,1,5,.94,10.9,10.9,0,0,1,3.88,2.65,12.15,12.15,0,0,1,2.5,4.13A15.21,15.21,0,0,1,32,40.92Z"/><path class="cls-1" d="M64.06,54.27H56l.48-17.7a11,11,0,0,1-3.42,2.1,12,12,0,0,1-4,.6,12.64,12.64,0,0,1-5-1,11.07,11.07,0,0,1-3.87-2.73,12.21,12.21,0,0,1-2.49-4.23,16.48,16.48,0,0,1-.87-5.52,16.19,16.19,0,0,1,1-6,12.66,12.66,0,0,1,3-4.53,12.82,12.82,0,0,1,4.71-2.85,18.47,18.47,0,0,1,6.21-1q6.24,0,9.72,3.48t3.3,9.66ZM56.44,23.73a4.72,4.72,0,0,0-.39-1.95A4.83,4.83,0,0,0,55,20.25a4.79,4.79,0,0,0-1.65-1,5.76,5.76,0,0,0-2-.36,5.51,5.51,0,0,0-4.38,1.86,7.5,7.5,0,0,0-1.62,5.1,6.63,6.63,0,0,0,1.41,4.5A4.93,4.93,0,0,0,50.62,32a5.41,5.41,0,0,0,4.08-1.62,6.64,6.64,0,0,0,1.68-4.5Z"/></svg>