<svg id="Layer_1" data-name="Layer 1" xmlns="http://www.w3.org/2000/svg" viewBox="0 0 69.71 64.98"><defs><style>.cls-1{fill:#b7b6b6;stroke:#040421;}</style></defs><path class="cls-1" d="M33.82,48.65h-6.7l.4-14.75a9,9,0,0,1-2.85,1.75,9.85,9.85,0,0,1-3.35.5,10.6,10.6,0,0,1-4.18-.8,9.19,9.19,0,0,1-3.22-2.27,10.19,10.19,0,0,1-2.08-3.53,13.83,13.83,0,0,1-.72-4.6A13.54,13.54,0,0,1,12,20a10.5,10.5,0,0,1,2.48-3.78,10.65,10.65,0,0,1,3.92-2.37A15.42,15.42,0,0,1,23.57,13q5.19,0,8.1,2.9c1.93,1.93,2.85,4.62,2.75,8ZM27.47,23.2a3.84,3.84,0,0,0-.33-1.62,4.12,4.12,0,0,0-.9-1.28,3.92,3.92,0,0,0-1.37-.85,4.83,4.83,0,0,0-1.7-.3,4.59,4.59,0,0,0-3.65,1.55A6.26,6.26,0,0,0,18.17,25a5.54,5.54,0,0,0,1.17,3.75,4.12,4.12,0,0,0,3.28,1.35A4.51,4.51,0,0,0,26,28.7,5.58,5.58,0,0,0,27.42,25Z"/><path class="cls-1" d="M62,37.53q0,5.32-3.24,8.22c-2.15,1.94-5.17,2.9-9.06,2.9a16.9,16.9,0,0,1-6.64-1.27,14.61,14.61,0,0,1-5.26-3.75l2.8-4.93q4.44,4,8.7,4a6.75,6.75,0,0,0,4.35-1.36,4.33,4.33,0,0,0,1.7-3.53,4.91,4.91,0,0,0-1.43-3.81,5.89,5.89,0,0,0-4.12-1.3,5.81,5.81,0,0,0-2.63.58,10.44,10.44,0,0,0-2.47,1.77l-4.3-2.45.5-18.9h20l0,5.9H47.32l-.25,8.2q.72-.34,1.26-.57a9.39,9.39,0,0,1,1-.38,6.19,6.19,0,0,1,1.09-.2c.39,0,.83-.05,1.32-.05a10.65,10.65,0,0,1,4.17.79,9.16,9.16,0,0,1,3.23,2.21,10,10,0,0,1,2.08,3.44A12.47,12.47,0,0,1,62,37.53Z"/></svg>