<svg id="Layer_1" data-name="Layer 1" xmlns="http://www.w3.org/2000/svg" viewBox="0 0 69.71 64.98"><defs><style>.cls-1{fill:#87786f;stroke:#2d1606;stroke-miterlimit:10;}</style></defs><path class="cls-1" d="M33.86,42.81a10.3,10.3,0,0,1-1,4.56A10.19,10.19,0,0,1,29.91,51a14,14,0,0,1-4.69,2.34,21,21,0,0,1-6.12.84,26.25,26.25,0,0,1-4.65-.37,17.1,17.1,0,0,1-3.87-1.19A15.26,15.26,0,0,1,7.16,50.4a24.7,24.7,0,0,1-3.24-3.29l4-5.34q4.68,5.28,10,5.28a7.3,7.3,0,0,0,4.71-1.38A4.85,4.85,0,0,0,24.44,42a4.59,4.59,0,0,0-2.52-4.62,11.39,11.39,0,0,0-4-1.18,31.45,31.45,0,0,0-6.36-.13V29a46.14,46.14,0,0,0,6,.07,10.71,10.71,0,0,0,3.72-.82,4.06,4.06,0,0,0,1.92-1.71,5.46,5.46,0,0,0,.57-2.62A4.33,4.33,0,0,0,22,20.59a6.85,6.85,0,0,0-4.32-1.26,10.17,10.17,0,0,0-4.26.94,17.35,17.35,0,0,0-4.32,3.05L5.78,17.64q4.5-5.38,13.86-5.39a17.07,17.07,0,0,1,5.29.76,11.86,11.86,0,0,1,4,2.15,9.43,9.43,0,0,1,2.58,3.34,10.35,10.35,0,0,1,.9,4.39,9.14,9.14,0,0,1-1.74,5.78,13.56,13.56,0,0,1-5.76,3.86,11.32,11.32,0,0,1,6.64,3.38A10,10,0,0,1,33.86,42.81Z"/><path class="cls-1" d="M51.38,54.13V21.42q-1.2,1.38-2.28,2.49t-2.34,2.37l-4-5.4q1.8-1.56,3.48-3.12c1-.87,1.94-1.81,2.94-2.81a36,36,0,0,0,2.47-2.7h7.67V54.13Z"/></svg>