<svg id="Layer_1" data-name="Layer 1" xmlns="http://www.w3.org/2000/svg" viewBox="0 0 69.71 64.98"><defs><style>.cls-1{fill:#ffe8d9;stroke:#2d1606;stroke-miterlimit:10;}</style></defs><path class="cls-1" d="M29.23,54.13H21.79V43.81H6.37V12.19h7.68v24.9h7.74V27h7.38V37.09h5.34v6.66H29.23Z"/><path class="cls-1" d="M68.05,32.47q0,11.45-3.94,16.55T52.42,54.13q-7.76,0-11.69-5.14T36.79,33.22q0-10.57,3.94-15.77t11.69-5.2Q68.05,12.25,68.05,32.47Zm-9.42.34q-.18-6.9-1.57-9.86a4.74,4.74,0,0,0-4.58-3,5,5,0,0,0-4.65,3.21q-1.44,3.09-1.62,10.59.18,6.26,1.57,9.37a5,5,0,0,0,4.7,3.23A4.76,4.76,0,0,0,57,43.27Q58.46,40.15,58.63,32.81Z"/></svg>