<svg id="Layer_1" data-name="Layer 1" xmlns="http://www.w3.org/2000/svg" viewBox="0 0 69.71 64.98"><defs><style>.cls-1{fill:#b7b6b6;stroke:#040421;}</style></defs><path class="cls-1" d="M19.38,49.94H11.83l13.1-29H9.23V15H32.78v5.19Z"/><path class="cls-1" d="M60.48,41.13a7.63,7.63,0,0,1-3.14,6.48c-2.09,1.55-5,2.33-8.72,2.33a19.19,19.19,0,0,1-5.21-.66,13.11,13.11,0,0,1-4-1.84,8.5,8.5,0,0,1-2.6-2.85,7.71,7.71,0,0,1-.92-3.75,7.57,7.57,0,0,1,1.67-5,14.12,14.12,0,0,1,5.58-3.54c-1.37-.85-2.47-1.59-3.3-2.23a9.39,9.39,0,0,1-1.93-1.89,5.4,5.4,0,0,1-.92-2,10.41,10.41,0,0,1-.25-2.46,7.63,7.63,0,0,1,2.9-6.42Q42.53,15,48.53,15a17.72,17.72,0,0,1,4.72.59,11.26,11.26,0,0,1,3.63,1.67A7.24,7.24,0,0,1,60,23.4a7.71,7.71,0,0,1-1.48,4.74A14.41,14.41,0,0,1,53.63,32a12.47,12.47,0,0,1,5.22,3.77A8.91,8.91,0,0,1,60.48,41.13Zm-6.65-.63a3.53,3.53,0,0,0-.4-1.72,3.93,3.93,0,0,0-1.18-1.27,10.24,10.24,0,0,0-1.85-1c-.71-.32-1.52-.65-2.42-1a10.13,10.13,0,0,0-3.65,1.86,3.35,3.35,0,0,0-1,2.55,3.57,3.57,0,0,0,1.5,3,6.73,6.73,0,0,0,4,1.1,6.12,6.12,0,0,0,3.65-1A3,3,0,0,0,53.83,40.5Zm-.95-15.86A3.22,3.22,0,0,0,51.55,22a5.47,5.47,0,0,0-3.47-1,4.8,4.8,0,0,0-3.1,1,3,3,0,0,0-1.2,2.46c0,1.74,1.6,3.31,4.8,4.68a7.51,7.51,0,0,0,3.35-1.9A3.74,3.74,0,0,0,52.88,24.64Z"/></svg>