<svg id="Layer_1" data-name="Layer 1" xmlns="http://www.w3.org/2000/svg" viewBox="0 0 69.71 64.98"><defs><style>.cls-1{fill:#87786f;stroke:#2d1606;stroke-miterlimit:10;}</style></defs><path class="cls-1" d="M31.61,40.92q0,6.39-3.88,9.87T16.86,54.27a20.26,20.26,0,0,1-8-1.53,17.63,17.63,0,0,1-6.32-4.5l3.36-5.91q5.34,4.86,10.44,4.86a8.09,8.09,0,0,0,5.22-1.64,5.19,5.19,0,0,0,2-4.23,5.87,5.87,0,0,0-1.71-4.57,7.1,7.1,0,0,0-5-1.56,7.07,7.07,0,0,0-3.15.69,12.78,12.78,0,0,0-3,2.13L5.69,35.06l.6-22.67h24l.06,7.08H14l-.3,9.84c.58-.28,1.09-.51,1.52-.69a11.09,11.09,0,0,1,1.25-.45,6.62,6.62,0,0,1,1.31-.24c.46,0,1-.06,1.57-.06a12.89,12.89,0,0,1,5,.94,10.86,10.86,0,0,1,3.87,2.65,12.17,12.17,0,0,1,2.51,4.13A15.21,15.21,0,0,1,31.61,40.92Z"/><path class="cls-1" d="M49.61,54.27H40.55l15.72-34.8H37.43V12.39H65.69v6.23Z"/></svg>