<svg id="Layer_1" data-name="Layer 1" xmlns="http://www.w3.org/2000/svg" viewBox="0 0 69.71 64.98"><defs><style>.cls-1{fill:#ffe8d9;stroke:#2d1606;stroke-miterlimit:10;}</style></defs><path class="cls-1" d="M4.72,53.22l.06-4.71c1.24-1.45,2.55-2.9,3.93-4.33l4.11-4.27q2-2.11,3.9-4.15A37.06,37.06,0,0,0,20,31.67a23,23,0,0,0,2.25-4.06,10.45,10.45,0,0,0,.84-4.07A4.45,4.45,0,0,0,21.52,20a5.66,5.66,0,0,0-3.84-1.35,6.42,6.42,0,0,0-2.91.64A7.54,7.54,0,0,0,12.55,21a12.15,12.15,0,0,0-1.62,2.25,19.47,19.47,0,0,0-1.17,2.45L4,21.48q.6-1.35,1.5-3.09a12.1,12.1,0,0,1,2.61-3.31,14.56,14.56,0,0,1,4.44-2.65,19,19,0,0,1,7-1.09,16.82,16.82,0,0,1,5.29.79A11.79,11.79,0,0,1,29,14.38a9.72,9.72,0,0,1,2.63,3.54,11.38,11.38,0,0,1,.92,4.65,15.69,15.69,0,0,1-1.77,7.13,37.23,37.23,0,0,1-4.29,6.64A49.32,49.32,0,0,1,21.16,42q-2.76,2.52-4.68,4.16H32.86v7.08Z"/><path class="cls-1" d="M37.66,53.22l.06-4.71c1.24-1.45,2.55-2.9,3.93-4.33l4.11-4.27q2-2.11,3.9-4.15a37.06,37.06,0,0,0,3.27-4.09,23,23,0,0,0,2.25-4.06A10.45,10.45,0,0,0,56,23.54,4.45,4.45,0,0,0,54.46,20a5.66,5.66,0,0,0-3.84-1.35,6.42,6.42,0,0,0-2.91.64A7.54,7.54,0,0,0,45.49,21a12.15,12.15,0,0,0-1.62,2.25,19.47,19.47,0,0,0-1.17,2.45l-5.76-4.19q.6-1.35,1.5-3.09a12.1,12.1,0,0,1,2.61-3.31,14.56,14.56,0,0,1,4.44-2.65,19,19,0,0,1,7-1.09,16.82,16.82,0,0,1,5.29.79,11.88,11.88,0,0,1,4.12,2.25,9.72,9.72,0,0,1,2.63,3.54,11.38,11.38,0,0,1,.92,4.65,15.69,15.69,0,0,1-1.77,7.13,37.23,37.23,0,0,1-4.29,6.64A49.32,49.32,0,0,1,54.1,42q-2.76,2.52-4.68,4.16H65.8v7.08Z"/></svg>