<svg id="Layer_1" data-name="Layer 1" xmlns="http://www.w3.org/2000/svg" viewBox="0 0 69.71 64.98"><defs><style>.cls-1{fill:#022749;}</style></defs><path class="cls-1" d="M10.54,47l0-3.46q1.37-1.59,2.89-3.17l3-3.13c1-1,1.95-2,2.86-3a26.72,26.72,0,0,0,2.4-3,16.46,16.46,0,0,0,1.65-3,7.6,7.6,0,0,0,.61-3,3.29,3.29,0,0,0-1.14-2.59,4.15,4.15,0,0,0-2.82-1,4.76,4.76,0,0,0-2.13.47,5.69,5.69,0,0,0-1.63,1.23A9.29,9.29,0,0,0,15.09,25a15.34,15.34,0,0,0-.85,1.8L10,23.7c.29-.66.66-1.42,1.1-2.27A9,9,0,0,1,13,19a11,11,0,0,1,3.26-2,14.05,14.05,0,0,1,5.13-.8,12.63,12.63,0,0,1,3.88.58,9.07,9.07,0,0,1,3,1.65,7.2,7.2,0,0,1,1.93,2.6,8.3,8.3,0,0,1,.67,3.41,11.43,11.43,0,0,1-1.3,5.23,27.12,27.12,0,0,1-3.14,4.87,37.57,37.57,0,0,1-3.87,4.14q-2,1.84-3.44,3h12V47Z"/><path class="cls-1" d="M55.6,37.06a10.89,10.89,0,0,1-.74,4.1,8.77,8.77,0,0,1-5.23,5.11,11.86,11.86,0,0,1-4.2.71,11.72,11.72,0,0,1-4.4-.8,9.38,9.38,0,0,1-3.38-2.29,10.45,10.45,0,0,1-2.18-3.54,12.77,12.77,0,0,1-.78-4.59,16.47,16.47,0,0,1,.94-5.41,28,28,0,0,1,2.43-5.22,38.93,38.93,0,0,1,3.37-4.79,47.18,47.18,0,0,1,3.78-4.08h7.44a46.07,46.07,0,0,0-5.45,5.9A48.26,48.26,0,0,0,42.75,29c.46-.26.88-.49,1.25-.66a7.74,7.74,0,0,1,1.06-.42,7,7,0,0,1,1-.22,10.19,10.19,0,0,1,1.16-.06,8.15,8.15,0,0,1,3.39.68,7.56,7.56,0,0,1,2.63,2,9.38,9.38,0,0,1,1.72,3A11.1,11.1,0,0,1,55.6,37.06Zm-5.86.12a4.3,4.3,0,0,0-1-3.06A3.61,3.61,0,0,0,45.91,33a5.84,5.84,0,0,0-4.09,1.73c-.09.44-.14.77-.17,1a6.58,6.58,0,0,0,0,.87A4.88,4.88,0,0,0,42.8,40a4,4,0,0,0,3.11,1.32,3.64,3.64,0,0,0,2.79-1.13A4.27,4.27,0,0,0,49.74,37.18Z"/></svg>