<svg id="Layer_1" data-name="Layer 1" xmlns="http://www.w3.org/2000/svg" viewBox="0 0 69.71 64.98"><defs><style>.cls-1{fill:#868687;}</style></defs><path class="cls-1" d="M33.1,41a7.62,7.62,0,0,1-.74,3.35A7.52,7.52,0,0,1,30.2,47a10.38,10.38,0,0,1-3.44,1.72,15.36,15.36,0,0,1-4.48.61,19.49,19.49,0,0,1-3.41-.27A12.22,12.22,0,0,1,16,48.19a10.66,10.66,0,0,1-2.51-1.58,19.44,19.44,0,0,1-2.38-2.41l2.91-3.92q3.42,3.87,7.35,3.87a5.33,5.33,0,0,0,3.45-1,3.52,3.52,0,0,0,1.34-2.69,3.45,3.45,0,0,0-.35-1.91,3.49,3.49,0,0,0-1.5-1.47,8.43,8.43,0,0,0-2.94-.87,23.24,23.24,0,0,0-4.67-.09V30.91a33.17,33.17,0,0,0,4.42,0,7.58,7.58,0,0,0,2.73-.6,3,3,0,0,0,1.41-1.24,4,4,0,0,0,.42-1.93,3.21,3.21,0,0,0-1.28-2.44,5.06,5.06,0,0,0-3.17-.92,7.38,7.38,0,0,0-3.12.69A12.86,12.86,0,0,0,15,26.74l-2.46-4.16q3.3-3.94,10.16-3.95a12.94,12.94,0,0,1,3.88.55,8.82,8.82,0,0,1,3,1.58,6.94,6.94,0,0,1,1.89,2.45,7.6,7.6,0,0,1,.66,3.22,6.71,6.71,0,0,1-1.27,4.24,10,10,0,0,1-4.23,2.83A8.29,8.29,0,0,1,31.43,36,7.37,7.37,0,0,1,33.1,41Z"/><path class="cls-1" d="M56.07,49.34h-5.9l.35-13A7.79,7.79,0,0,1,48,37.9a8.59,8.59,0,0,1-2.94.44,9.29,9.29,0,0,1-3.68-.7,8.14,8.14,0,0,1-2.83-2,8.82,8.82,0,0,1-1.83-3.1,12,12,0,0,1-.64-4.05,11.91,11.91,0,0,1,.77-4.38A9.19,9.19,0,0,1,39,20.79a9.37,9.37,0,0,1,3.45-2.09A13.46,13.46,0,0,1,47.05,18a9.62,9.62,0,0,1,7.12,2.55,9.15,9.15,0,0,1,2.42,7.09ZM50.48,27a3.45,3.45,0,0,0-.29-1.43,3.55,3.55,0,0,0-.79-1.13,3.46,3.46,0,0,0-1.21-.74,4.14,4.14,0,0,0-1.49-.27,4.07,4.07,0,0,0-3.22,1.37,5.5,5.5,0,0,0-1.18,3.74,4.87,4.87,0,0,0,1,3.3A3.62,3.62,0,0,0,46.21,33a4,4,0,0,0,3-1.18,4.8,4.8,0,0,0,1.23-3.3Z"/></svg>