<svg id="Layer_1" data-name="Layer 1" xmlns="http://www.w3.org/2000/svg" viewBox="0 0 69.71 64.98"><defs><style>.cls-1{fill:#868687;}</style></defs><path class="cls-1" d="M33.23,37.76a10.89,10.89,0,0,1-.74,4.1,8.9,8.9,0,0,1-2,3.11,9.06,9.06,0,0,1-3.19,2,11.86,11.86,0,0,1-4.2.71,11.72,11.72,0,0,1-4.4-.8,9.38,9.38,0,0,1-3.38-2.29,10.61,10.61,0,0,1-2.18-3.54,13,13,0,0,1-.77-4.59,16.46,16.46,0,0,1,.93-5.41,28.09,28.09,0,0,1,2.44-5.22A37.88,37.88,0,0,1,19.07,21,44.23,44.23,0,0,1,22.85,17h7.43a46.81,46.81,0,0,0-5.45,5.9,48.26,48.26,0,0,0-4.45,6.82c.46-.26.88-.48,1.25-.66a9.27,9.27,0,0,1,1.06-.42,7,7,0,0,1,1-.22,10.37,10.37,0,0,1,1.17-.06,8.13,8.13,0,0,1,3.38.68,7.47,7.47,0,0,1,2.63,2,9.2,9.2,0,0,1,1.72,3A11.1,11.1,0,0,1,33.23,37.76Zm-5.86.12a4.3,4.3,0,0,0-1-3.06,3.58,3.58,0,0,0-2.79-1.14,5.82,5.82,0,0,0-4.08,1.73q-.13.66-.18,1a6.85,6.85,0,0,0,0,.87,4.86,4.86,0,0,0,1.19,3.41A4,4,0,0,0,23.54,42a3.64,3.64,0,0,0,2.79-1.13A4.22,4.22,0,0,0,27.37,37.88Z"/><path class="cls-1" d="M54.13,47.68H48.67V40.11H37.36V16.92H43V35.18h5.67V27.74h5.41v7.44H58v4.88H54.13Z"/></svg>