<svg id="Layer_1" data-name="Layer 1" xmlns="http://www.w3.org/2000/svg" viewBox="0 0 69.71 64.98"><defs><style>.cls-1{fill:#ffe8d9;stroke:#2d1606;stroke-miterlimit:10;}</style></defs><path class="cls-1" d="M32.75,42.81a10.3,10.3,0,0,1-1,4.56A10.19,10.19,0,0,1,28.8,51a14,14,0,0,1-4.69,2.34,21,21,0,0,1-6.12.84,25.28,25.28,0,0,1-4.65-.38,16.6,16.6,0,0,1-3.87-1.18A15.26,15.26,0,0,1,6.05,50.4a24.7,24.7,0,0,1-3.24-3.29l4-5.34q4.68,5.28,10,5.28a7.24,7.24,0,0,0,4.71-1.39,4.92,4.92,0,0,0-.69-8.28,11.39,11.39,0,0,0-4-1.18,31.45,31.45,0,0,0-6.36-.13V29a46.14,46.14,0,0,0,6,.07,10.71,10.71,0,0,0,3.72-.82,4.06,4.06,0,0,0,1.92-1.71,5.46,5.46,0,0,0,.57-2.62,4.33,4.33,0,0,0-1.74-3.32,6.85,6.85,0,0,0-4.32-1.26,10.17,10.17,0,0,0-4.26.94A17.35,17.35,0,0,0,8,23.32L4.67,17.64q4.5-5.38,13.86-5.39a17.07,17.07,0,0,1,5.29.76,11.86,11.86,0,0,1,4,2.15,9.43,9.43,0,0,1,2.58,3.34,10.35,10.35,0,0,1,.9,4.39,9.14,9.14,0,0,1-1.74,5.78,13.56,13.56,0,0,1-5.76,3.86,11.32,11.32,0,0,1,6.64,3.38A10,10,0,0,1,32.75,42.81Z"/><path class="cls-1" d="M50,54.13H41l15.72-34.8H37.85V12.25H66.11v6.23Z"/></svg>