<svg id="Layer_1" data-name="Layer 1" xmlns="http://www.w3.org/2000/svg" viewBox="0 0 69.71 64.98"><defs><style>.cls-1{fill:#ffe8d9;stroke:#2d1606;stroke-miterlimit:10;}</style></defs><path class="cls-1" d="M32.2,39.34q0,6.38-3.88,9.86T17.45,52.68a20.43,20.43,0,0,1-8-1.52,17.78,17.78,0,0,1-6.32-4.51l3.36-5.91Q11.86,45.6,17,45.6A8.09,8.09,0,0,0,22.18,44a5.17,5.17,0,0,0,2-4.23,5.87,5.87,0,0,0-1.71-4.57,7.1,7.1,0,0,0-5-1.56,7.07,7.07,0,0,0-3.15.69,12.78,12.78,0,0,0-3,2.13L6.28,33.48l.6-22.68h24l.06,7.08H14.56l-.3,9.84c.58-.28,1.09-.51,1.51-.69A12,12,0,0,1,17,26.58a6.49,6.49,0,0,1,1.31-.24c.46,0,1-.06,1.57-.06a13,13,0,0,1,5,.94,11.08,11.08,0,0,1,3.87,2.65A12.33,12.33,0,0,1,31.3,34,15.27,15.27,0,0,1,32.2,39.34Z"/><path class="cls-1" d="M37.66,52.68,37.72,48c1.24-1.45,2.55-2.9,3.93-4.33l4.11-4.27c1.36-1.41,2.66-2.8,3.9-4.15a37.06,37.06,0,0,0,3.27-4.09,23,23,0,0,0,2.25-4.06A10.45,10.45,0,0,0,56,23a4.46,4.46,0,0,0-1.56-3.53,5.66,5.66,0,0,0-3.84-1.35,6.42,6.42,0,0,0-2.91.64,7.37,7.37,0,0,0-2.22,1.67,12.15,12.15,0,0,0-1.62,2.25,18.83,18.83,0,0,0-1.17,2.45l-5.76-4.19q.6-1.35,1.5-3.09a12.1,12.1,0,0,1,2.61-3.31,14.56,14.56,0,0,1,4.44-2.65,19,19,0,0,1,7-1.09,16.82,16.82,0,0,1,5.29.79,11.88,11.88,0,0,1,4.12,2.25,9.72,9.72,0,0,1,2.63,3.54A11.38,11.38,0,0,1,65.44,22a15.69,15.69,0,0,1-1.77,7.13,37.59,37.59,0,0,1-4.29,6.64,50.29,50.29,0,0,1-5.28,5.65c-1.84,1.67-3.4,3.06-4.68,4.15H65.8v7.08Z"/></svg>