<svg id="Layer_1" data-name="Layer 1" xmlns="http://www.w3.org/2000/svg" viewBox="0 0 69.71 64.98"><defs><style>.cls-1{fill:#ffe8d9;stroke:#2d1606;stroke-miterlimit:10;}</style></defs><path class="cls-1" d="M32.74,42.81a10,10,0,0,1-4,8.15,14.16,14.16,0,0,1-4.68,2.33,21.06,21.06,0,0,1-6.12.84,26.28,26.28,0,0,1-4.66-.37,17.1,17.1,0,0,1-3.87-1.19A15.49,15.49,0,0,1,6,50.4a24.07,24.07,0,0,1-3.23-3.29l4-5.34q4.67,5.28,10,5.28a7.28,7.28,0,0,0,4.71-1.38A4.85,4.85,0,0,0,23.32,42a4.69,4.69,0,0,0-.47-2.61,4.82,4.82,0,0,0-2-2,11.51,11.51,0,0,0-4-1.18,31.43,31.43,0,0,0-6.36-.13V29a46.14,46.14,0,0,0,6,.07,10.65,10.65,0,0,0,3.72-.82,4.1,4.1,0,0,0,1.92-1.7,5.53,5.53,0,0,0,.57-2.63,4.33,4.33,0,0,0-1.74-3.32,6.84,6.84,0,0,0-4.31-1.26,10.18,10.18,0,0,0-4.27.94A17.32,17.32,0,0,0,8,23.32L4.66,17.64q4.5-5.38,13.87-5.39a17.11,17.11,0,0,1,5.29.76,11.86,11.86,0,0,1,4,2.15,9.43,9.43,0,0,1,2.58,3.34,10.35,10.35,0,0,1,.9,4.39,9.14,9.14,0,0,1-1.74,5.78,13.56,13.56,0,0,1-5.76,3.86,11.32,11.32,0,0,1,6.64,3.38A10,10,0,0,1,32.74,42.81Z"/><path class="cls-1" d="M64.06,54.13H56l.48-17.7a11,11,0,0,1-3.42,2.1,12,12,0,0,1-4,.6,12.64,12.64,0,0,1-5-1,11.07,11.07,0,0,1-3.87-2.73,12.21,12.21,0,0,1-2.49-4.23,16.48,16.48,0,0,1-.87-5.52,16.19,16.19,0,0,1,1-6,12.66,12.66,0,0,1,3-4.53,12.82,12.82,0,0,1,4.71-2.85,18.47,18.47,0,0,1,6.21-1q6.24,0,9.72,3.48t3.3,9.66ZM56.44,23.59a4.72,4.72,0,0,0-.39-1.95A4.83,4.83,0,0,0,55,20.11a4.79,4.79,0,0,0-1.65-1,5.76,5.76,0,0,0-2-.36,5.51,5.51,0,0,0-4.38,1.86,7.5,7.5,0,0,0-1.62,5.1,6.63,6.63,0,0,0,1.41,4.5,4.93,4.93,0,0,0,3.93,1.62,5.41,5.41,0,0,0,4.08-1.62,6.64,6.64,0,0,0,1.68-4.5Z"/></svg>