<svg id="Layer_1" data-name="Layer 1" xmlns="http://www.w3.org/2000/svg" viewBox="0 0 69.71 64.98"><defs><style>.cls-1{fill:#868687;}</style></defs><path class="cls-1" d="M11.38,45.67l0-3.45q1.37-1.59,2.88-3.17l3-3.13c1-1,1.95-2.05,2.86-3.05a27.77,27.77,0,0,0,2.39-3,16.81,16.81,0,0,0,1.65-3,7.65,7.65,0,0,0,.62-3,3.29,3.29,0,0,0-1.14-2.59,4.18,4.18,0,0,0-2.82-1,4.84,4.84,0,0,0-2.14.47A5.49,5.49,0,0,0,17.12,22a8.88,8.88,0,0,0-1.19,1.65,14.71,14.71,0,0,0-.86,1.8L10.85,22.4c.29-.66.66-1.42,1.1-2.27a8.81,8.81,0,0,1,1.91-2.42,10.64,10.64,0,0,1,3.26-2,14,14,0,0,1,5.12-.8,12.58,12.58,0,0,1,3.88.58,9,9,0,0,1,3,1.65,7.17,7.17,0,0,1,1.92,2.6,8.3,8.3,0,0,1,.68,3.41,11.59,11.59,0,0,1-1.3,5.23A27.17,27.17,0,0,1,27.3,33.3a36.64,36.64,0,0,1-3.87,4.14q-2,1.85-3.43,3H32v5.19Z"/><path class="cls-1" d="M57.49,29.79q0,8.39-2.89,12.13T46,45.67c-3.8,0-6.65-1.25-8.58-3.77s-2.89-6.37-2.89-11.56,1-9,2.89-11.57S42.23,15,46,15Q57.49,15,57.49,29.79ZM50.58,30q-.13-5.07-1.15-7.23a3.46,3.46,0,0,0-3.36-2.17A3.71,3.71,0,0,0,42.66,23c-.71,1.51-1.1,4.1-1.19,7.77a19.14,19.14,0,0,0,1.15,6.87A3.69,3.69,0,0,0,46.07,40a3.53,3.53,0,0,0,3.3-2.29Q50.45,35.42,50.58,30Z"/></svg>