<svg id="Layer_1" data-name="Layer 1" xmlns="http://www.w3.org/2000/svg" viewBox="0 0 69.71 64.98"><defs><style>.cls-1{fill:#868687;}</style></defs><path class="cls-1" d="M33.47,40.36a6.71,6.71,0,0,1-2.76,5.7c-1.84,1.36-4.39,2-7.67,2a17.13,17.13,0,0,1-4.58-.58,11.61,11.61,0,0,1-3.53-1.62,7.39,7.39,0,0,1-2.29-2.51,6.72,6.72,0,0,1-.81-3.3,6.64,6.64,0,0,1,1.47-4.44,12.44,12.44,0,0,1,4.91-3.11c-1.21-.75-2.17-1.4-2.91-2a8.11,8.11,0,0,1-1.69-1.67,4.86,4.86,0,0,1-.82-1.72A9.71,9.71,0,0,1,12.57,25a6.75,6.75,0,0,1,2.55-5.66c1.71-1.32,4.32-2,7.84-2a15.84,15.84,0,0,1,4.16.52,10.21,10.21,0,0,1,3.19,1.47A6.39,6.39,0,0,1,33,24.75a6.83,6.83,0,0,1-1.29,4.17,12.85,12.85,0,0,1-4.29,3.36A11,11,0,0,1,32,35.59,7.8,7.8,0,0,1,33.47,40.36Zm-5.85-.56a3.13,3.13,0,0,0-.35-1.52,3.37,3.37,0,0,0-1-1.11,9.86,9.86,0,0,0-1.63-.91c-.63-.28-1.34-.57-2.14-.87A9,9,0,0,0,19.26,37a3,3,0,0,0-.92,2.24,3.12,3.12,0,0,0,1.32,2.67,5.87,5.87,0,0,0,3.56,1,5.46,5.46,0,0,0,3.21-.84A2.65,2.65,0,0,0,27.62,39.8Zm-.83-14a2.85,2.85,0,0,0-1.17-2.35,4.88,4.88,0,0,0-3.06-.9,4.28,4.28,0,0,0-2.73.84,2.66,2.66,0,0,0-1,2.16c0,1.54,1.41,2.92,4.22,4.12A6.63,6.63,0,0,0,26,28.05,3.3,3.3,0,0,0,26.79,25.84Z"/><path class="cls-1" d="M45.62,48.11H39L50.5,22.59H36.69v-5.2H57.41V22Z"/></svg>