<svg id="Layer_1" data-name="Layer 1" xmlns="http://www.w3.org/2000/svg" viewBox="0 0 69.71 64.98"><defs><style>.cls-1{fill:#022749;}</style></defs><path class="cls-1" d="M29.6,38.48a7.51,7.51,0,0,1-.74,3.35,7.38,7.38,0,0,1-2.15,2.62,10.47,10.47,0,0,1-3.44,1.72,15.43,15.43,0,0,1-4.49.61,18.59,18.59,0,0,1-3.41-.28,11.88,11.88,0,0,1-2.84-.87A11,11,0,0,1,10,44.05a18.85,18.85,0,0,1-2.37-2.42l2.9-3.91Q14,41.59,17.9,41.59a5.29,5.29,0,0,0,3.45-1,3.91,3.91,0,0,0,1-4.6,3.62,3.62,0,0,0-1.5-1.48,8.58,8.58,0,0,0-3-.86,23.21,23.21,0,0,0-4.67-.09v-5.2a31.92,31.92,0,0,0,4.43.05,7.52,7.52,0,0,0,2.72-.6,2.91,2.91,0,0,0,1.41-1.25,4,4,0,0,0,.42-1.92,3.2,3.2,0,0,0-1.27-2.44,5.08,5.08,0,0,0-3.17-.92,7.4,7.4,0,0,0-3.13.69,13,13,0,0,0-3.17,2.23L9,20q3.3-3.94,10.17-3.95a12.67,12.67,0,0,1,3.88.55,8.77,8.77,0,0,1,3,1.58,7,7,0,0,1,1.9,2.45,7.56,7.56,0,0,1,.66,3.22,6.73,6.73,0,0,1-1.28,4.24,10.06,10.06,0,0,1-4.22,2.83,8.26,8.26,0,0,1,4.86,2.48A7.3,7.3,0,0,1,29.6,38.48Z"/><path class="cls-1" d="M54.29,39a6.71,6.71,0,0,1-2.76,5.7q-2.76,2.06-7.68,2.05a16.73,16.73,0,0,1-4.58-.58,11.61,11.61,0,0,1-3.53-1.62,7.59,7.59,0,0,1-2.29-2.51,6.71,6.71,0,0,1-.81-3.29,6.64,6.64,0,0,1,1.47-4.44A12.4,12.4,0,0,1,39,31.23c-1.2-.75-2.17-1.41-2.9-2a8.16,8.16,0,0,1-1.7-1.66,4.87,4.87,0,0,1-.81-1.73,9,9,0,0,1-.22-2.16,6.76,6.76,0,0,1,2.55-5.66q2.55-2,7.83-2a15.38,15.38,0,0,1,4.16.52,9.68,9.68,0,0,1,3.19,1.47,6.46,6.46,0,0,1,2,2.31,6.56,6.56,0,0,1,.71,3.05,6.86,6.86,0,0,1-1.3,4.18A12.84,12.84,0,0,1,48.26,31a11,11,0,0,1,4.59,3.32A7.76,7.76,0,0,1,54.29,39Zm-5.86-.56A3,3,0,0,0,48.08,37a3.5,3.5,0,0,0-1-1.12,10.64,10.64,0,0,0-1.63-.91q-.95-.42-2.13-.87a9.18,9.18,0,0,0-3.22,1.64A3,3,0,0,0,39.15,38a3.14,3.14,0,0,0,1.32,2.67,5.88,5.88,0,0,0,3.57,1,5.4,5.4,0,0,0,3.21-.85A2.65,2.65,0,0,0,48.43,38.47ZM47.6,24.52a2.82,2.82,0,0,0-1.17-2.35,4.77,4.77,0,0,0-3-.91,4.18,4.18,0,0,0-2.73.85,2.63,2.63,0,0,0-1.06,2.16q0,2.31,4.22,4.12a6.57,6.57,0,0,0,2.95-1.67A3.28,3.28,0,0,0,47.6,24.52Z"/></svg>