<svg id="Layer_1" data-name="Layer 1" xmlns="http://www.w3.org/2000/svg" viewBox="0 0 69.71 64.98"><defs><style>.cls-1{fill:#fff;stroke:#040421;}</style></defs><path class="cls-1" d="M36.73,50.43H29.36l.44-16.22a9.89,9.89,0,0,1-3.13,1.92,11,11,0,0,1-3.69.55,11.56,11.56,0,0,1-4.59-.88,10.13,10.13,0,0,1-3.55-2.5,11.1,11.1,0,0,1-2.28-3.88,15.13,15.13,0,0,1-.8-5.06,14.68,14.68,0,0,1,1-5.47,11.29,11.29,0,0,1,7-6.76,16.77,16.77,0,0,1,5.69-.91q5.71,0,8.91,3.19t3,8.85Zm-7-28a4.3,4.3,0,0,0-.36-1.79,4.41,4.41,0,0,0-2.5-2.34A5.29,5.29,0,0,0,25,18a5.05,5.05,0,0,0-4,1.71,6.87,6.87,0,0,0-1.48,4.67,6.1,6.1,0,0,0,1.29,4.13A4.51,4.51,0,0,0,24.41,30a5,5,0,0,0,3.74-1.48,6.05,6.05,0,0,0,1.54-4.13Z"/><path class="cls-1" d="M54.28,50.43v-30c-.74.84-1.43,1.6-2.09,2.28S50.81,24.13,50,24.9L46.41,20c1.1-.95,2.17-1.9,3.19-2.85s1.78-1.67,2.7-2.58S54,12.78,54.57,12h7V50.43Z"/></svg>