<svg id="Layer_1" data-name="Layer 1" xmlns="http://www.w3.org/2000/svg" viewBox="0 0 69.71 64.98"><defs><style>.cls-1{fill:#022749;}</style></defs><path class="cls-1" d="M18.11,43.44v-24c-.59.68-1.15,1.28-1.67,1.83L14.72,23l-2.9-4c.87-.77,1.73-1.53,2.55-2.29s1.42-1.33,2.15-2.06a26.66,26.66,0,0,0,1.82-2H24V43.44Z"/><path class="cls-1" d="M53.79,33.53a10.84,10.84,0,0,1-.73,4.09,8.75,8.75,0,0,1-5.24,5.11,11.64,11.64,0,0,1-4.2.71,11.48,11.48,0,0,1-4.39-.8,9.39,9.39,0,0,1-3.39-2.28,10.52,10.52,0,0,1-2.17-3.54,12.85,12.85,0,0,1-.78-4.59,16.28,16.28,0,0,1,.94-5.42,28.65,28.65,0,0,1,2.43-5.22,37.78,37.78,0,0,1,3.37-4.78,45.66,45.66,0,0,1,3.78-4.08h7.44a46.19,46.19,0,0,0-5.46,5.9A47.53,47.53,0,0,0,41,25.44c.46-.26.88-.48,1.25-.66a8.36,8.36,0,0,1,1-.41,5,5,0,0,1,1-.22,8.86,8.86,0,0,1,4.54.62,7.57,7.57,0,0,1,2.63,1.95,9.38,9.38,0,0,1,1.73,3A11.3,11.3,0,0,1,53.79,33.53Zm-5.85.12a4.39,4.39,0,0,0-1-3.07,3.64,3.64,0,0,0-2.79-1.13A5.82,5.82,0,0,0,40,31.18q-.14.66-.18,1a6.68,6.68,0,0,0,0,.86A4.93,4.93,0,0,0,41,36.45a4,4,0,0,0,3.11,1.32,3.62,3.62,0,0,0,2.8-1.14A4.24,4.24,0,0,0,47.94,33.65Z"/></svg>