<svg id="Layer_1" data-name="Layer 1" xmlns="http://www.w3.org/2000/svg" viewBox="0 0 69.71 64.98"><defs><style>.cls-1{fill:#022749;}</style></defs><path class="cls-1" d="M26.14,46.8H20.68V39.23H9.38V16.05H15V34.31h5.67V26.87h5.41v7.44H30v4.88H26.14Z"/><path class="cls-1" d="M54.61,30.92q0,8.38-2.89,12.13T43.15,46.8c-3.8,0-6.65-1.25-8.58-3.77s-2.89-6.37-2.89-11.56,1-9,2.89-11.57,4.78-3.81,8.58-3.81Q54.61,16.09,54.61,30.92Zm-6.91.25q-.14-5.07-1.15-7.23a3.46,3.46,0,0,0-3.36-2.17,3.69,3.69,0,0,0-3.41,2.35c-.71,1.51-1.1,4.1-1.19,7.77a19.14,19.14,0,0,0,1.15,6.87,3.69,3.69,0,0,0,3.45,2.37,3.53,3.53,0,0,0,3.3-2.29Q47.57,36.55,47.7,31.17Z"/></svg>