<svg id="Layer_1" data-name="Layer 1" xmlns="http://www.w3.org/2000/svg" viewBox="0 0 69.71 64.98"><defs><style>.cls-1{fill:#87786f;stroke:#2d1606;stroke-miterlimit:10;}</style></defs><path class="cls-1" d="M32.8,44.36a14.81,14.81,0,0,1-1,5.59A12.05,12.05,0,0,1,29,54.19a12.25,12.25,0,0,1-4.35,2.73,16.17,16.17,0,0,1-5.73,1,15.81,15.81,0,0,1-6-1.09,12.74,12.74,0,0,1-4.61-3.11,14.22,14.22,0,0,1-3-4.83A17.45,17.45,0,0,1,4.3,42.59a22.39,22.39,0,0,1,1.28-7.38A38.27,38.27,0,0,1,8.9,28.09a51.82,51.82,0,0,1,4.59-6.53A62.24,62.24,0,0,1,18.65,16H28.78a63.92,63.92,0,0,0-7.43,8.05,64.79,64.79,0,0,0-6.06,9.29c.63-.36,1.19-.66,1.71-.9a10.62,10.62,0,0,1,1.43-.57,8.08,8.08,0,0,1,1.38-.3,12.77,12.77,0,0,1,1.59-.09,11,11,0,0,1,4.61.94,10.15,10.15,0,0,1,3.59,2.66A12.79,12.79,0,0,1,32,39.18,15.17,15.17,0,0,1,32.8,44.36Zm-8,.17a5.92,5.92,0,0,0-1.42-4.18,4.93,4.93,0,0,0-3.8-1.55A8,8,0,0,0,14,41.16q-.18.9-.24,1.35a9.26,9.26,0,0,0-.06,1.18,6.65,6.65,0,0,0,1.63,4.66,5.47,5.47,0,0,0,4.24,1.79A4.93,4.93,0,0,0,23.4,48.6,5.77,5.77,0,0,0,24.82,44.53Z"/><path class="cls-1" d="M37.24,57.88l.06-4.71q1.86-2.18,3.93-4.33l4.11-4.26q2-2.13,3.9-4.15a37.14,37.14,0,0,0,3.27-4.1,22.63,22.63,0,0,0,2.25-4.06,10.4,10.4,0,0,0,.84-4.06A4.45,4.45,0,0,0,54,24.68a5.62,5.62,0,0,0-3.84-1.36,6.42,6.42,0,0,0-2.91.65,7.51,7.51,0,0,0-2.22,1.66,12.15,12.15,0,0,0-1.62,2.25,19.58,19.58,0,0,0-1.17,2.46l-5.76-4.19c.4-.91.9-1.94,1.5-3.1a11.92,11.92,0,0,1,2.61-3.3,14.57,14.57,0,0,1,4.44-2.66,19.2,19.2,0,0,1,7-1.09,17.11,17.11,0,0,1,5.29.79A12.12,12.12,0,0,1,61.47,19a9.77,9.77,0,0,1,2.63,3.54A11.29,11.29,0,0,1,65,27.23a15.7,15.7,0,0,1-1.77,7.14A37.59,37.59,0,0,1,59,41a51,51,0,0,1-5.28,5.64Q50.92,49.17,49,50.8H65.38v7.08Z"/></svg>