<svg id="Layer_1" data-name="Layer 1" xmlns="http://www.w3.org/2000/svg" viewBox="0 0 69.71 64.98"><defs><style>.cls-1{fill:#fff;stroke:#040421;}</style></defs><path class="cls-1" d="M35.8,39a8.57,8.57,0,0,1-.84,3.8,8.45,8.45,0,0,1-2.45,3,12,12,0,0,1-3.91,1.95,17.67,17.67,0,0,1-5.1.69,21.67,21.67,0,0,1-3.87-.31,14,14,0,0,1-3.23-1,12.39,12.39,0,0,1-2.85-1.8,21.29,21.29,0,0,1-2.7-2.74l3.3-4.45q3.9,4.4,8.35,4.39a6.07,6.07,0,0,0,3.93-1.15,4.49,4.49,0,0,0,1.13-5.23,4.13,4.13,0,0,0-1.71-1.68,9.63,9.63,0,0,0-3.35-1,26.4,26.4,0,0,0-5.3-.1V27.46a36.07,36.07,0,0,0,5,.06,9.11,9.11,0,0,0,3.1-.68,3.41,3.41,0,0,0,1.6-1.42,4.55,4.55,0,0,0,.47-2.19A3.6,3.6,0,0,0,26,20.46a5.71,5.71,0,0,0-3.6-1.05,8.46,8.46,0,0,0-3.55.79,14.55,14.55,0,0,0-3.6,2.53L12.4,18Q16.15,13.52,24,13.51a14.63,14.63,0,0,1,4.41.63,10,10,0,0,1,3.36,1.8,7.76,7.76,0,0,1,2.15,2.78,8.61,8.61,0,0,1,.75,3.66,7.57,7.57,0,0,1-1.45,4.81,11.15,11.15,0,0,1-4.8,3.22,9.42,9.42,0,0,1,5.54,2.82A8.39,8.39,0,0,1,35.8,39Z"/><path class="cls-1" d="M63.25,39a8.57,8.57,0,0,1-.84,3.8,8.45,8.45,0,0,1-2.45,3,12,12,0,0,1-3.91,1.95,17.67,17.67,0,0,1-5.1.69,21.67,21.67,0,0,1-3.87-.31,14,14,0,0,1-3.23-1A12.39,12.39,0,0,1,41,45.31a21.29,21.29,0,0,1-2.7-2.74l3.3-4.45q3.9,4.4,8.35,4.39a6.07,6.07,0,0,0,3.93-1.15A4.49,4.49,0,0,0,55,36.13a4.13,4.13,0,0,0-1.71-1.68,9.63,9.63,0,0,0-3.35-1,26.4,26.4,0,0,0-5.3-.1V27.46a36.07,36.07,0,0,0,5,.06,9.16,9.16,0,0,0,3.1-.68,3.41,3.41,0,0,0,1.6-1.42,4.67,4.67,0,0,0,.47-2.19,3.6,3.6,0,0,0-1.45-2.77,5.71,5.71,0,0,0-3.6-1.05,8.46,8.46,0,0,0-3.55.79,14.55,14.55,0,0,0-3.6,2.53L39.85,18q3.75-4.48,11.55-4.49a14.63,14.63,0,0,1,4.41.63,10,10,0,0,1,3.36,1.8,7.76,7.76,0,0,1,2.15,2.78,8.61,8.61,0,0,1,.75,3.66,7.57,7.57,0,0,1-1.45,4.81,11.15,11.15,0,0,1-4.8,3.22,9.42,9.42,0,0,1,5.54,2.82A8.39,8.39,0,0,1,63.25,39Z"/></svg>