<svg id="Layer_1" data-name="Layer 1" xmlns="http://www.w3.org/2000/svg" viewBox="0 0 69.71 64.98"><defs><style>.cls-1{fill:#b7b6b6;stroke:#040421;}</style></defs><path class="cls-1" d="M32.88,39.72a8.31,8.31,0,0,1-3.29,6.79,12.24,12.24,0,0,1-3.91,2,17.76,17.76,0,0,1-5.1.7,21.66,21.66,0,0,1-3.88-.32,13.88,13.88,0,0,1-3.22-1,12.39,12.39,0,0,1-2.85-1.8,21.29,21.29,0,0,1-2.7-2.74l3.3-4.45q3.9,4.39,8.35,4.4A6.06,6.06,0,0,0,23.5,42.1,4,4,0,0,0,25,39a3.9,3.9,0,0,0-.4-2.17,4.1,4.1,0,0,0-1.7-1.68,9.69,9.69,0,0,0-3.35-1,26.42,26.42,0,0,0-5.3-.1v-5.9a37.31,37.31,0,0,0,5,.05,8.87,8.87,0,0,0,3.1-.68A3.36,3.36,0,0,0,24,26.16,4.55,4.55,0,0,0,24.48,24,3.63,3.63,0,0,0,23,21.2a5.77,5.77,0,0,0-3.6-1,8.39,8.39,0,0,0-3.55.78,14,14,0,0,0-3.6,2.54l-2.8-4.73q3.75-4.5,11.55-4.49a14.41,14.41,0,0,1,4.41.63,9.82,9.82,0,0,1,3.36,1.79A7.87,7.87,0,0,1,31,19.46a8.61,8.61,0,0,1,.75,3.66,7.62,7.62,0,0,1-1.45,4.82,11.45,11.45,0,0,1-4.8,3.22A9.38,9.38,0,0,1,31,34,8.35,8.35,0,0,1,32.88,39.72Z"/><path class="cls-1" d="M61.78,31.1q0,9.54-3.28,13.8t-9.75,4.26q-6.45,0-9.74-4.29c-2.19-2.85-3.28-7.24-3.28-13.14S36.82,21.48,39,18.59s5.44-4.33,9.74-4.33Q61.79,14.26,61.78,31.1Zm-7.85.29q-.15-5.76-1.31-8.22a3.94,3.94,0,0,0-3.82-2.46,4.21,4.21,0,0,0-3.87,2.67c-.8,1.72-1.26,4.66-1.35,8.83a21.47,21.47,0,0,0,1.3,7.8,4.18,4.18,0,0,0,3.92,2.7,4,4,0,0,0,3.75-2.61C53.37,38.37,53.83,35.46,53.93,31.39Z"/></svg>