<svg id="Layer_1" data-name="Layer 1" xmlns="http://www.w3.org/2000/svg" viewBox="0 0 69.71 64.98"><defs><style>.cls-1{fill:#868687;}</style></defs><path class="cls-1" d="M33.77,40.71A7.62,7.62,0,0,1,33,44.06a7.52,7.52,0,0,1-2.16,2.62,10.38,10.38,0,0,1-3.44,1.72,15.38,15.38,0,0,1-4.49.61,19.45,19.45,0,0,1-3.4-.27,12.22,12.22,0,0,1-2.84-.88,10.66,10.66,0,0,1-2.51-1.58,19.44,19.44,0,0,1-2.38-2.41L14.72,40c2.29,2.58,4.73,3.87,7.35,3.87a5.33,5.33,0,0,0,3.45-1,3.52,3.52,0,0,0,1.34-2.69,3.45,3.45,0,0,0-.35-1.91A3.49,3.49,0,0,0,25,36.73a8.43,8.43,0,0,0-2.94-.87,23.24,23.24,0,0,0-4.67-.09V30.58a33.17,33.17,0,0,0,4.42,0,7.58,7.58,0,0,0,2.73-.6A3,3,0,0,0,26,28.78a4,4,0,0,0,.42-1.93,3.21,3.21,0,0,0-1.28-2.44,5.06,5.06,0,0,0-3.17-.92,7.38,7.38,0,0,0-3.12.69,12.86,12.86,0,0,0-3.17,2.23l-2.46-4.16q3.3-3.94,10.16-3.95a12.94,12.94,0,0,1,3.88.55,8.82,8.82,0,0,1,3,1.58,6.94,6.94,0,0,1,1.89,2.45,7.6,7.6,0,0,1,.66,3.22,6.71,6.71,0,0,1-1.27,4.24,9.94,9.94,0,0,1-4.23,2.83,8.29,8.29,0,0,1,4.87,2.48A7.37,7.37,0,0,1,33.77,40.71Z"/><path class="cls-1" d="M58.15,39.1a10.93,10.93,0,0,1-.74,4.1,9.14,9.14,0,0,1-2,3.11,9,9,0,0,1-3.19,2,12.71,12.71,0,0,1-8.6-.08,9.51,9.51,0,0,1-3.38-2.29A10.45,10.45,0,0,1,38,42.39a12.81,12.81,0,0,1-.77-4.59,16.56,16.56,0,0,1,.93-5.42,28.25,28.25,0,0,1,2.43-5.21A38.19,38.19,0,0,1,44,22.38a45.72,45.72,0,0,1,3.79-4.08H55.2a45.42,45.42,0,0,0-5.45,5.9A47.69,47.69,0,0,0,45.3,31c.46-.27.88-.49,1.25-.66a7.74,7.74,0,0,1,1.06-.42,5.87,5.87,0,0,1,1-.22,8.9,8.9,0,0,1,4.55.62,7.66,7.66,0,0,1,2.63,1.95,9.55,9.55,0,0,1,1.72,3A11.06,11.06,0,0,1,58.15,39.1Zm-5.86.12a4.39,4.39,0,0,0-1-3.07A3.64,3.64,0,0,0,48.46,35a5.84,5.84,0,0,0-4.09,1.73c-.09.44-.14.77-.17,1a6.52,6.52,0,0,0-.05.86A4.89,4.89,0,0,0,45.35,42a4,4,0,0,0,3.11,1.32,3.64,3.64,0,0,0,2.79-1.13A4.27,4.27,0,0,0,52.29,39.22Z"/></svg>