<svg id="Layer_1" data-name="Layer 1" xmlns="http://www.w3.org/2000/svg" viewBox="0 0 69.71 64.98"><defs><style>.cls-1{fill:#ffe8d9;stroke:#2d1606;stroke-miterlimit:10;}</style></defs><path class="cls-1" d="M31.12,57.92h-8l.48-17.7a11,11,0,0,1-3.42,2.1,12,12,0,0,1-4,.6,12.64,12.64,0,0,1-5-1,11.07,11.07,0,0,1-3.87-2.73A12.21,12.21,0,0,1,4.75,35a16.48,16.48,0,0,1-.87-5.52,16.19,16.19,0,0,1,1-6A12.66,12.66,0,0,1,7.9,19a12.82,12.82,0,0,1,4.71-2.85,18.47,18.47,0,0,1,6.21-1q6.24,0,9.72,3.48t3.3,9.66ZM23.5,27.38a4.72,4.72,0,0,0-.39-1.95A4.83,4.83,0,0,0,22,23.9a4.79,4.79,0,0,0-1.65-1,5.76,5.76,0,0,0-2-.36A5.51,5.51,0,0,0,14,24.38a7.5,7.5,0,0,0-1.62,5.1A6.63,6.63,0,0,0,13.75,34a4.93,4.93,0,0,0,3.93,1.62A5.41,5.41,0,0,0,21.76,34a6.64,6.64,0,0,0,1.68-4.5Z"/><path class="cls-1" d="M66.4,47.35a9.14,9.14,0,0,1-3.76,7.77q-3.77,2.81-10.47,2.8a23.28,23.28,0,0,1-6.25-.79,15.81,15.81,0,0,1-4.81-2.21A10.15,10.15,0,0,1,38,51.5,9.15,9.15,0,0,1,36.88,47a9,9,0,0,1,2-6,16.84,16.84,0,0,1,6.69-4.24c-1.64-1-3-1.92-4-2.68a11.33,11.33,0,0,1-2.31-2.27A6.7,6.7,0,0,1,38.2,29.4a12.55,12.55,0,0,1-.3-2.94,9.18,9.18,0,0,1,3.48-7.71Q44.86,16,52.06,16a21.27,21.27,0,0,1,5.67.7,13.87,13.87,0,0,1,4.35,2,8.71,8.71,0,0,1,3.72,7.32A9.29,9.29,0,0,1,64,31.76a17.33,17.33,0,0,1-5.85,4.57,14.86,14.86,0,0,1,6.26,4.52A10.63,10.63,0,0,1,66.4,47.35Zm-8-.76a4.17,4.17,0,0,0-.48-2.07A4.8,4.8,0,0,0,56.53,43a13.4,13.4,0,0,0-2.22-1.24c-.86-.38-1.83-.78-2.91-1.18A12.32,12.32,0,0,0,47,42.81a4,4,0,0,0-1.26,3.06,4.26,4.26,0,0,0,1.8,3.64,8,8,0,0,0,4.86,1.33,7.41,7.41,0,0,0,4.38-1.16A3.61,3.61,0,0,0,58.42,46.59Zm-1.14-19a3.9,3.9,0,0,0-1.59-3.21,6.63,6.63,0,0,0-4.17-1.23,5.76,5.76,0,0,0-3.72,1.15,3.61,3.61,0,0,0-1.44,2.95q0,3.15,5.76,5.62a9.08,9.08,0,0,0,4-2.28A4.46,4.46,0,0,0,57.28,27.56Z"/></svg>