<svg id="Layer_1" data-name="Layer 1" xmlns="http://www.w3.org/2000/svg" viewBox="0 0 69.71 64.98"><defs><style>.cls-1{fill:#b7b6b6;stroke:#040421;}</style></defs><path class="cls-1" d="M31.63,41.16a7.61,7.61,0,0,1-3.14,6.47C26.4,49.19,23.5,50,19.77,50a19.19,19.19,0,0,1-5.21-.66,13.34,13.34,0,0,1-4-1.83A8.63,8.63,0,0,1,8,44.61a8.3,8.3,0,0,1,.75-8.79,14.12,14.12,0,0,1,5.58-3.53c-1.37-.85-2.47-1.6-3.3-2.23a9.39,9.39,0,0,1-1.93-1.89,5.52,5.52,0,0,1-.92-2,10.26,10.26,0,0,1-.25-2.45,7.66,7.66,0,0,1,2.9-6.43c1.93-1.5,4.9-2.26,8.9-2.26a17.72,17.72,0,0,1,4.72.59A11.48,11.48,0,0,1,28,17.32a7.24,7.24,0,0,1,3.1,6.1,7.72,7.72,0,0,1-1.48,4.75A14.66,14.66,0,0,1,24.78,32,12.46,12.46,0,0,1,30,35.74,8.94,8.94,0,0,1,31.63,41.16ZM25,40.52a3.53,3.53,0,0,0-.4-1.72,3.8,3.8,0,0,0-1.18-1.26,10.24,10.24,0,0,0-1.85-1c-.71-.32-1.52-.65-2.42-1a10.28,10.28,0,0,0-3.65,1.87,3.32,3.32,0,0,0-1.05,2.55,3.56,3.56,0,0,0,1.5,3A6.66,6.66,0,0,0,20,44.06a6.19,6.19,0,0,0,3.65-1A3,3,0,0,0,25,40.52ZM24,24.66A3.22,3.22,0,0,0,22.7,22a5.53,5.53,0,0,0-3.47-1,4.8,4.8,0,0,0-3.1,1,3,3,0,0,0-1.2,2.46q0,2.63,4.8,4.68a7.6,7.6,0,0,0,3.35-1.89A3.76,3.76,0,0,0,24,24.66Z"/><path class="cls-1" d="M59.93,31.91q0,9.54-3.28,13.79T46.9,50q-6.45,0-9.74-4.28T33.88,32.54q0-8.82,3.28-13.14t9.74-4.34Q59.94,15.06,59.93,31.91Zm-7.85.28q-.15-5.74-1.31-8.21A4,4,0,0,0,47,21.51a4.23,4.23,0,0,0-3.87,2.67c-.8,1.72-1.26,4.67-1.35,8.84a21.51,21.51,0,0,0,1.3,7.8A4.17,4.17,0,0,0,47,43.51a4,4,0,0,0,3.75-2.6Q51.93,38.32,52.08,32.19Z"/></svg>