<svg id="Layer_1" data-name="Layer 1" xmlns="http://www.w3.org/2000/svg" viewBox="0 0 69.71 64.98"><defs><style>.cls-1{fill:#022749;}</style></defs><path class="cls-1" d="M29.19,35.51a10.84,10.84,0,0,1-.74,4.09,8.69,8.69,0,0,1-5.23,5.11,11.64,11.64,0,0,1-4.2.71,11.53,11.53,0,0,1-4.4-.8,9.35,9.35,0,0,1-3.38-2.28A10.45,10.45,0,0,1,9.06,38.8a12.85,12.85,0,0,1-.78-4.59,16.53,16.53,0,0,1,.94-5.42,28.65,28.65,0,0,1,2.43-5.22A38.82,38.82,0,0,1,15,18.79a45.72,45.72,0,0,1,3.79-4.08h7.43a46.13,46.13,0,0,0-5.45,5.9,47.14,47.14,0,0,0-4.45,6.82c.46-.27.88-.49,1.25-.67a9.1,9.1,0,0,1,1.06-.41,5.06,5.06,0,0,1,1-.22,8.27,8.27,0,0,1,1.17-.07,8.14,8.14,0,0,1,3.38.69,7.66,7.66,0,0,1,2.63,1.95,9.55,9.55,0,0,1,1.72,3A11.06,11.06,0,0,1,29.19,35.51Zm-5.86.12a4.34,4.34,0,0,0-1-3.07,3.64,3.64,0,0,0-2.79-1.13,5.84,5.84,0,0,0-4.09,1.73c-.08.44-.14.77-.17,1a6.41,6.41,0,0,0-.05.86,4.89,4.89,0,0,0,1.2,3.42,4,4,0,0,0,3.11,1.32,3.61,3.61,0,0,0,2.79-1.14A4.2,4.2,0,0,0,23.33,35.63Z"/><path class="cls-1" d="M53.65,37.67a6.71,6.71,0,0,1-2.76,5.7q-2.76,2.06-7.68,2.05a16.73,16.73,0,0,1-4.58-.58,11.48,11.48,0,0,1-3.53-1.62,7.36,7.36,0,0,1-2.28-2.51A7.23,7.23,0,0,1,33.48,33a12.28,12.28,0,0,1,4.9-3.11c-1.2-.75-2.17-1.41-2.9-2a8.16,8.16,0,0,1-1.7-1.66A4.87,4.87,0,0,1,33,24.51a9,9,0,0,1-.22-2.16A6.74,6.74,0,0,1,35.3,16.7q2.55-2,7.83-2a15.38,15.38,0,0,1,4.16.52,9.68,9.68,0,0,1,3.19,1.47,6.57,6.57,0,0,1,2,2.31,6.68,6.68,0,0,1,.7,3,6.8,6.8,0,0,1-1.3,4.18,12.74,12.74,0,0,1-4.29,3.35,10.84,10.84,0,0,1,4.59,3.32A7.78,7.78,0,0,1,53.65,37.67Zm-5.85-.56a3.09,3.09,0,0,0-.35-1.51,3.65,3.65,0,0,0-1-1.12,10.18,10.18,0,0,0-1.63-.91c-.63-.28-1.34-.57-2.13-.86a8.87,8.87,0,0,0-3.21,1.63,2.94,2.94,0,0,0-.93,2.25,3.14,3.14,0,0,0,1.32,2.67,5.88,5.88,0,0,0,3.57,1,5.38,5.38,0,0,0,3.21-.85A2.66,2.66,0,0,0,47.8,37.11ZM47,23.16a2.84,2.84,0,0,0-1.17-2.35,4.77,4.77,0,0,0-3-.91,4.18,4.18,0,0,0-2.73.85A2.65,2.65,0,0,0,39,22.91q0,2.31,4.23,4.12a6.53,6.53,0,0,0,2.94-1.67A3.26,3.26,0,0,0,47,23.16Z"/></svg>