<svg id="Layer_1" data-name="Layer 1" xmlns="http://www.w3.org/2000/svg" viewBox="0 0 69.71 64.98"><defs><style>.cls-1{fill:#fff;stroke:#040421;}</style></defs><path class="cls-1" d="M18.28,47.54V20.28c-.67.77-1.3,1.46-1.9,2.08l-1.95,2-3.3-4.5c1-.86,2-1.73,2.9-2.59s1.61-1.52,2.45-2.35a29.15,29.15,0,0,0,2.06-2.25h6.39v34.9Z"/><path class="cls-1" d="M58.58,38.11a8.44,8.44,0,0,1-.85,3.8,8.34,8.34,0,0,1-2.45,3,11.88,11.88,0,0,1-3.9,1.94,17.42,17.42,0,0,1-5.1.7,21.71,21.71,0,0,1-3.88-.31,13.88,13.88,0,0,1-3.22-1,13.11,13.11,0,0,1-2.85-1.8,21.41,21.41,0,0,1-2.7-2.75l3.3-4.45q3.9,4.41,8.35,4.4a6.06,6.06,0,0,0,3.92-1.15,4,4,0,0,0,1.53-3.06,3.93,3.93,0,0,0-.4-2.18,4.09,4.09,0,0,0-1.7-1.67,9.69,9.69,0,0,0-3.35-1,26.33,26.33,0,0,0-5.3-.11v-5.9a37.55,37.55,0,0,0,5,.06A8.85,8.85,0,0,0,48.1,26a3.31,3.31,0,0,0,1.6-1.42,4.48,4.48,0,0,0,.48-2.18,3.63,3.63,0,0,0-1.45-2.77,5.71,5.71,0,0,0-3.6-1.05,8.25,8.25,0,0,0-3.55.79A14.19,14.19,0,0,0,38,21.86l-2.8-4.73q3.75-4.48,11.55-4.49a14.41,14.41,0,0,1,4.41.63,10.09,10.09,0,0,1,3.36,1.79,8,8,0,0,1,2.15,2.79,8.6,8.6,0,0,1,.75,3.65A7.6,7.6,0,0,1,56,26.32a11.36,11.36,0,0,1-4.8,3.22,9.39,9.39,0,0,1,5.53,2.82A8.38,8.38,0,0,1,58.58,38.11Z"/></svg>