<svg id="Layer_1" data-name="Layer 1" xmlns="http://www.w3.org/2000/svg" viewBox="0 0 69.71 64.98"><defs><style>.cls-1{fill:#b7b6b6;stroke:#040421;}</style></defs><path class="cls-1" d="M13.33,49.16l.05-3.93q1.56-1.81,3.28-3.61l3.42-3.55q1.71-1.77,3.25-3.46a31.6,31.6,0,0,0,2.73-3.41,18.83,18.83,0,0,0,1.87-3.39,8.6,8.6,0,0,0,.7-3.38,3.69,3.69,0,0,0-1.3-2.94,4.66,4.66,0,0,0-3.2-1.13,5.41,5.41,0,0,0-2.42.53,6.12,6.12,0,0,0-1.85,1.39,9.75,9.75,0,0,0-1.35,1.88,15.8,15.8,0,0,0-1,2l-4.8-3.49c.34-.75.75-1.61,1.25-2.58a10,10,0,0,1,2.18-2.75,11.87,11.87,0,0,1,3.7-2.21,15.76,15.76,0,0,1,5.82-.91,14.37,14.37,0,0,1,4.41.65,10.1,10.1,0,0,1,3.44,1.88,8.2,8.2,0,0,1,2.19,2.95,9.45,9.45,0,0,1,.76,3.87A13.11,13.11,0,0,1,35,29.56a31.65,31.65,0,0,1-3.58,5.53A41.46,41.46,0,0,1,27,39.8c-1.53,1.39-2.83,2.55-3.9,3.46H36.78v5.9Z"/><path class="cls-1" d="M64.53,37.89a12.52,12.52,0,0,1-.83,4.66,10,10,0,0,1-6,5.8,14.32,14.32,0,0,1-9.77-.1,10.58,10.58,0,0,1-3.84-2.6,12.1,12.1,0,0,1-2.48-4,14.8,14.8,0,0,1-.88-5.22,18.85,18.85,0,0,1,1.06-6.15,32.2,32.2,0,0,1,2.77-5.93,42.94,42.94,0,0,1,3.83-5.44,51.17,51.17,0,0,1,4.3-4.63h8.44A53.18,53.18,0,0,0,55,21a53.81,53.81,0,0,0-5.05,7.75c.52-.3,1-.55,1.42-.75a9.37,9.37,0,0,1,1.2-.48,7.35,7.35,0,0,1,1.15-.25A10.52,10.52,0,0,1,55,27.16a9.3,9.3,0,0,1,3.85.78,8.47,8.47,0,0,1,3,2.22,10.4,10.4,0,0,1,2,3.41A12.55,12.55,0,0,1,64.53,37.89ZM57.88,38a5,5,0,0,0-1.18-3.49,4.13,4.13,0,0,0-3.17-1.28,6.62,6.62,0,0,0-4.65,2c-.1.5-.16.87-.2,1.12a8.5,8.5,0,0,0,0,1A5.53,5.53,0,0,0,50,41.21a4.53,4.53,0,0,0,3.53,1.5,4.11,4.11,0,0,0,3.18-1.29A4.81,4.81,0,0,0,57.88,38Z"/></svg>