<svg id="Layer_1" data-name="Layer 1" xmlns="http://www.w3.org/2000/svg" viewBox="0 0 69.71 64.98"><defs><style>.cls-1{fill:#ffe8d9;stroke:#2d1606;stroke-miterlimit:10;}</style></defs><path class="cls-1" d="M18.05,54.29V21.58c-.81.92-1.57,1.75-2.29,2.49s-1.5,1.53-2.34,2.37L9.47,21q1.78-1.56,3.48-3.12c1-.87,1.94-1.81,2.94-2.81a36,36,0,0,0,2.47-2.7H26V54.29Z"/><path class="cls-1" d="M66.7,40.77a15,15,0,0,1-1,5.59,12,12,0,0,1-7.15,7,16.15,16.15,0,0,1-5.72,1,15.83,15.83,0,0,1-6-1.09,12.74,12.74,0,0,1-4.61-3.11,14.54,14.54,0,0,1-3-4.83A17.68,17.68,0,0,1,38.2,39a22.39,22.39,0,0,1,1.28-7.38A38.27,38.27,0,0,1,42.8,24.5,51.82,51.82,0,0,1,47.39,18a62.24,62.24,0,0,1,5.16-5.56H62.69a63.24,63.24,0,0,0-7.44,8.05,64.79,64.79,0,0,0-6.06,9.29q.95-.54,1.71-.9a11.27,11.27,0,0,1,1.44-.57,8.08,8.08,0,0,1,1.38-.3,12.65,12.65,0,0,1,1.59-.09,11,11,0,0,1,4.61.94,10.2,10.2,0,0,1,3.58,2.66,12.79,12.79,0,0,1,2.35,4.1A15.17,15.17,0,0,1,66.7,40.77Zm-8,.17a5.9,5.9,0,0,0-1.42-4.18,4.93,4.93,0,0,0-3.8-1.55,8,8,0,0,0-5.58,2.36c-.11.6-.2,1-.24,1.35a9.26,9.26,0,0,0-.06,1.18,6.72,6.72,0,0,0,1.63,4.66,5.48,5.48,0,0,0,4.24,1.79A4.93,4.93,0,0,0,57.3,45,5.77,5.77,0,0,0,58.72,40.94Z"/></svg>