<svg id="Layer_1" data-name="Layer 1" xmlns="http://www.w3.org/2000/svg" viewBox="0 0 69.71 64.98"><defs><style>.cls-1{fill:#868687;}</style></defs><path class="cls-1" d="M31.52,49.19h-5.9l.35-13a8.08,8.08,0,0,1-2.51,1.54,8.84,8.84,0,0,1-2.94.44,9.29,9.29,0,0,1-3.68-.7,8.18,8.18,0,0,1-2.84-2,8.9,8.9,0,0,1-1.82-3.11,12,12,0,0,1-.64-4.05A11.69,11.69,0,0,1,12.31,24a9.1,9.1,0,0,1,2.18-3.32,9.52,9.52,0,0,1,3.45-2.1,13.62,13.62,0,0,1,4.55-.72,9.64,9.64,0,0,1,7.13,2.55A9.16,9.16,0,0,1,32,27.45Zm-5.59-22.4a3.51,3.51,0,0,0-.29-1.43,3.5,3.5,0,0,0-2-1.87,4.38,4.38,0,0,0-1.5-.26,4,4,0,0,0-3.21,1.37,5.48,5.48,0,0,0-1.19,3.73,4.9,4.9,0,0,0,1,3.31,3.62,3.62,0,0,0,2.88,1.18,4,4,0,0,0,3-1.18,4.93,4.93,0,0,0,1.23-3.31Z"/><path class="cls-1" d="M55.67,49.19H49.78l.35-13a8.08,8.08,0,0,1-2.51,1.54,8.9,8.9,0,0,1-2.95.44,9.24,9.24,0,0,1-3.67-.7,8.18,8.18,0,0,1-2.84-2,9.08,9.08,0,0,1-1.83-3.11,12.21,12.21,0,0,1-.63-4.05A11.89,11.89,0,0,1,36.46,24a9.23,9.23,0,0,1,2.18-3.32,9.48,9.48,0,0,1,3.46-2.1,13.62,13.62,0,0,1,4.55-.72,9.64,9.64,0,0,1,7.13,2.55,9.16,9.16,0,0,1,2.42,7.08Zm-5.59-22.4a3.51,3.51,0,0,0-.28-1.43,3.65,3.65,0,0,0-.8-1.12,3.54,3.54,0,0,0-1.21-.75,4.32,4.32,0,0,0-1.49-.26,4,4,0,0,0-3.21,1.37,5.43,5.43,0,0,0-1.19,3.73,4.9,4.9,0,0,0,1,3.31,3.62,3.62,0,0,0,2.88,1.18,4,4,0,0,0,3-1.18A4.93,4.93,0,0,0,50,28.33Z"/></svg>