<svg id="Layer_1" data-name="Layer 1" xmlns="http://www.w3.org/2000/svg" viewBox="0 0 69.71 64.98"><defs><style>.cls-1{fill:#fff;stroke:#040421;}</style></defs><path class="cls-1" d="M9.62,49.16l.05-3.93q1.56-1.81,3.28-3.61l3.42-3.55q1.71-1.77,3.25-3.46a30.42,30.42,0,0,0,2.73-3.41,18.83,18.83,0,0,0,1.87-3.39,8.6,8.6,0,0,0,.7-3.38,3.69,3.69,0,0,0-1.3-2.94,4.66,4.66,0,0,0-3.2-1.13,5.44,5.44,0,0,0-2.42.53,6.25,6.25,0,0,0-1.85,1.39,9.75,9.75,0,0,0-1.35,1.88,17.23,17.23,0,0,0-1,2L9,22.71c.34-.75.75-1.61,1.25-2.58a10,10,0,0,1,2.18-2.75,11.87,11.87,0,0,1,3.7-2.21A15.79,15.79,0,0,1,22,14.26a14.37,14.37,0,0,1,4.41.65,10.1,10.1,0,0,1,3.44,1.88A8.2,8.2,0,0,1,32,19.74a9.45,9.45,0,0,1,.76,3.87,13.11,13.11,0,0,1-1.47,5.95,31.08,31.08,0,0,1-3.58,5.53,41.46,41.46,0,0,1-4.4,4.71c-1.53,1.39-2.83,2.55-3.9,3.46H33.07v5.9Z"/><path class="cls-1" d="M37.07,49.16l0-3.93q1.56-1.81,3.28-3.61l3.42-3.55q1.71-1.77,3.25-3.46A30.42,30.42,0,0,0,49.8,31.2a18.83,18.83,0,0,0,1.87-3.39,8.6,8.6,0,0,0,.7-3.38,3.69,3.69,0,0,0-1.3-2.94,4.66,4.66,0,0,0-3.2-1.13,5.44,5.44,0,0,0-2.42.53,6.25,6.25,0,0,0-1.85,1.39,9.75,9.75,0,0,0-1.35,1.88,17.23,17.23,0,0,0-1,2l-4.8-3.49c.34-.75.75-1.61,1.25-2.58a10,10,0,0,1,2.18-2.75,11.87,11.87,0,0,1,3.7-2.21,15.79,15.79,0,0,1,5.82-.91,14.37,14.37,0,0,1,4.41.65,10.1,10.1,0,0,1,3.44,1.88,8.2,8.2,0,0,1,2.19,2.95,9.45,9.45,0,0,1,.76,3.87,13.11,13.11,0,0,1-1.47,5.95,31.08,31.08,0,0,1-3.58,5.53,41.46,41.46,0,0,1-4.4,4.71c-1.53,1.39-2.83,2.55-3.9,3.46H60.52v5.9Z"/></svg>