<svg id="Layer_1" data-name="Layer 1" xmlns="http://www.w3.org/2000/svg" viewBox="0 0 69.71 64.98"><defs><style>.cls-1{fill:#b7b6b6;stroke:#040421;}</style></defs><path class="cls-1" d="M31.35,36.75q0,5.32-3.23,8.22c-2.16,1.94-5.18,2.9-9.06,2.9a16.87,16.87,0,0,1-6.64-1.27,14.56,14.56,0,0,1-5.27-3.75L10,37.92q4.44,4,8.7,4A6.73,6.73,0,0,0,23,40.61a4.33,4.33,0,0,0,1.7-3.53,4.91,4.91,0,0,0-1.43-3.81A5.89,5.89,0,0,0,19.15,32a5.84,5.84,0,0,0-2.63.58,10.44,10.44,0,0,0-2.47,1.77l-4.3-2.45.5-18.9h20l.05,5.9H16.65l-.25,8.2q.72-.34,1.26-.57a10.19,10.19,0,0,1,1-.38,6.14,6.14,0,0,1,1.1-.2c.38,0,.82-.05,1.31-.05a10.65,10.65,0,0,1,4.17.79,9.16,9.16,0,0,1,3.23,2.21,10.24,10.24,0,0,1,2.09,3.44A12.69,12.69,0,0,1,31.35,36.75Z"/><path class="cls-1" d="M59.65,36.6a12.48,12.48,0,0,1-.83,4.66,10.44,10.44,0,0,1-2.33,3.54,10.32,10.32,0,0,1-3.62,2.27,13.61,13.61,0,0,1-4.78.8,13.31,13.31,0,0,1-5-.9,10.88,10.88,0,0,1-3.85-2.6,12.07,12.07,0,0,1-2.47-4,14.58,14.58,0,0,1-.88-5.22A18.59,18.59,0,0,1,37,29a31.9,31.9,0,0,1,2.77-5.93,42.05,42.05,0,0,1,3.83-5.45A51,51,0,0,1,47.85,13H56.3A55.06,55.06,0,0,0,45.06,27.42c.52-.3,1-.55,1.42-.75a8.35,8.35,0,0,1,1.19-.47A6.47,6.47,0,0,1,48.83,26a10.4,10.4,0,0,1,1.32-.08,9.28,9.28,0,0,1,3.84.78,8.51,8.51,0,0,1,3,2.22,10.81,10.81,0,0,1,2,3.42A12.69,12.69,0,0,1,59.65,36.6ZM53,36.74a5,5,0,0,0-1.19-3.48A4.09,4.09,0,0,0,48.64,32a6.61,6.61,0,0,0-4.64,2c-.1.5-.17.87-.2,1.12a6.67,6.67,0,0,0,0,1,5.56,5.56,0,0,0,1.35,3.88,4.57,4.57,0,0,0,3.54,1.5,4.13,4.13,0,0,0,3.17-1.28A4.83,4.83,0,0,0,53,36.74Z"/></svg>