<svg id="Layer_1" data-name="Layer 1" xmlns="http://www.w3.org/2000/svg" viewBox="0 0 69.71 64.98"><defs><style>.cls-1{fill:#87786f;stroke:#2d1606;stroke-miterlimit:10;}</style></defs><path class="cls-1" d="M31.64,57.92h-8l.48-17.7a11,11,0,0,1-3.42,2.1,12,12,0,0,1-4,.6,12.59,12.59,0,0,1-5-1,11.11,11.11,0,0,1-3.88-2.73A12.21,12.21,0,0,1,5.27,35a16.48,16.48,0,0,1-.87-5.52,16,16,0,0,1,1.06-6,12.51,12.51,0,0,1,3-4.53,12.78,12.78,0,0,1,4.72-2.85,18.37,18.37,0,0,1,6.2-1q6.24,0,9.72,3.48t3.3,9.66ZM24,27.38a4.88,4.88,0,0,0-.38-1.95,5,5,0,0,0-1.09-1.53,4.79,4.79,0,0,0-1.65-1,5.76,5.76,0,0,0-2-.36,5.51,5.51,0,0,0-4.38,1.86,7.5,7.5,0,0,0-1.62,5.1A6.63,6.63,0,0,0,14.27,34a4.94,4.94,0,0,0,3.94,1.62A5.42,5.42,0,0,0,22.29,34,6.74,6.74,0,0,0,24,29.48Z"/><path class="cls-1" d="M65.48,44.57q0,6.39-3.87,9.87T50.73,57.92a20.47,20.47,0,0,1-8-1.52,17.78,17.78,0,0,1-6.32-4.51L39.8,46q5.34,4.86,10.44,4.86a8.09,8.09,0,0,0,5.22-1.64,5.17,5.17,0,0,0,2-4.23,5.87,5.87,0,0,0-1.71-4.57,7.1,7.1,0,0,0-4.95-1.56,7.07,7.07,0,0,0-3.15.69,12.78,12.78,0,0,0-3,2.13l-5.16-2.95L40.16,16h24l.06,7.08H47.84L47.54,33c.59-.28,1.09-.51,1.52-.69a11.09,11.09,0,0,1,1.25-.45,6.62,6.62,0,0,1,1.31-.24c.47,0,1-.06,1.57-.06a12.89,12.89,0,0,1,5,.94,11,11,0,0,1,3.88,2.65,12.31,12.31,0,0,1,2.5,4.13A15.25,15.25,0,0,1,65.48,44.57Z"/></svg>