<svg id="Layer_1" data-name="Layer 1" xmlns="http://www.w3.org/2000/svg" viewBox="0 0 69.71 64.98"><defs><style>.cls-1{fill:#022749;}</style></defs><path class="cls-1" d="M30.5,35.84a10.84,10.84,0,0,1-.73,4.09A8.76,8.76,0,0,1,24.54,45a11.69,11.69,0,0,1-4.21.71,11.51,11.51,0,0,1-4.39-.8,9.35,9.35,0,0,1-3.38-2.28,10.45,10.45,0,0,1-2.18-3.54,12.85,12.85,0,0,1-.78-4.59,16.53,16.53,0,0,1,.94-5.42A28.65,28.65,0,0,1,13,23.9a38.82,38.82,0,0,1,3.37-4.78A45.72,45.72,0,0,1,20.13,15h7.43a45.42,45.42,0,0,0-5.45,5.9,47.14,47.14,0,0,0-4.45,6.82c.46-.27.88-.49,1.25-.66A7.74,7.74,0,0,1,20,26.68a5.06,5.06,0,0,1,1-.22,8.9,8.9,0,0,1,4.55.62,7.66,7.66,0,0,1,2.63,2,9.55,9.55,0,0,1,1.72,3A11.06,11.06,0,0,1,30.5,35.84ZM24.65,36a4.39,4.39,0,0,0-1-3.07,3.64,3.64,0,0,0-2.79-1.13,5.84,5.84,0,0,0-4.09,1.73c-.09.44-.14.77-.17,1a6.41,6.41,0,0,0,0,.86,4.89,4.89,0,0,0,1.2,3.42,4,4,0,0,0,3.11,1.32,3.61,3.61,0,0,0,2.79-1.14A4.24,4.24,0,0,0,24.65,36Z"/><path class="cls-1" d="M53.25,45.75H47.36l.35-13a7.89,7.89,0,0,1-2.51,1.54,8.86,8.86,0,0,1-3,.44,9.24,9.24,0,0,1-3.67-.7,8.18,8.18,0,0,1-2.84-2,9.08,9.08,0,0,1-1.83-3.11,12.21,12.21,0,0,1-.63-4.05,11.69,11.69,0,0,1,.77-4.37,9.21,9.21,0,0,1,2.17-3.32,9.48,9.48,0,0,1,3.46-2.1,13.62,13.62,0,0,1,4.55-.72,9.64,9.64,0,0,1,7.13,2.55A9.16,9.16,0,0,1,53.78,24Zm-5.59-22.4a3.43,3.43,0,0,0-.28-1.42,3.72,3.72,0,0,0-.79-1.13,3.46,3.46,0,0,0-1.21-.74,4.16,4.16,0,0,0-1.5-.27,4,4,0,0,0-3.21,1.37,5.48,5.48,0,0,0-1.19,3.73,4.9,4.9,0,0,0,1,3.31,3.63,3.63,0,0,0,2.89,1.18,4,4,0,0,0,3-1.18,4.93,4.93,0,0,0,1.23-3.31Z"/></svg>