<svg id="Layer_1" data-name="Layer 1" xmlns="http://www.w3.org/2000/svg" viewBox="0 0 99.82 70"><defs><style>.cls-1{fill:#ffe8d9;stroke:#2d1606;stroke-miterlimit:10;}</style></defs><path class="cls-1" d="M12.44,55.09V22.38q-1.2,1.38-2.28,2.49T7.82,27.24l-4-5.4q1.8-1.56,3.48-3.11,1.44-1.32,2.94-2.82a36.38,36.38,0,0,0,2.48-2.7h7.66V55.09Z"/><path class="cls-1" d="M62.54,33.43q0,11.45-3.94,16.55T46.91,55.09q-7.75,0-11.69-5.14T31.28,34.18q0-10.56,3.94-15.77t11.69-5.2Q62.54,13.21,62.54,33.43Zm-9.42.34q-.18-6.9-1.57-9.86A4.73,4.73,0,0,0,47,21a5.05,5.05,0,0,0-4.64,3.21q-1.45,3.09-1.63,10.6.18,6.24,1.57,9.36A5,5,0,0,0,47,47.35a4.78,4.78,0,0,0,4.5-3.12Q52.94,41.11,53.12,33.77Z"/><path class="cls-1" d="M95.48,33.43q0,11.45-3.94,16.55T79.85,55.09q-7.75,0-11.69-5.14T64.22,34.18q0-10.56,3.94-15.77t11.69-5.2Q95.48,13.21,95.48,33.43Zm-9.42.34c-.11-4.6-.64-7.89-1.57-9.86a4.72,4.72,0,0,0-4.58-3,5.05,5.05,0,0,0-4.64,3.21q-1.45,3.09-1.63,10.6.18,6.24,1.57,9.36a5,5,0,0,0,4.7,3.23,4.78,4.78,0,0,0,4.5-3.12C85.39,42.15,86,38.66,86.06,33.77Z"/></svg>