<svg id="Layer_1" data-name="Layer 1" xmlns="http://www.w3.org/2000/svg" viewBox="0 0 69.71 64.98"><defs><style>.cls-1{fill:#87786f;stroke:#2d1606;stroke-miterlimit:10;}</style></defs><path class="cls-1" d="M34.58,43.27A9.15,9.15,0,0,1,30.81,51q-3.75,2.79-10.46,2.79A22.89,22.89,0,0,1,14.1,53a15.8,15.8,0,0,1-4.81-2.2,10.28,10.28,0,0,1-3.12-3.43,9.11,9.11,0,0,1-1.11-4.49,9.08,9.08,0,0,1,2-6.06,17,17,0,0,1,6.69-4.24q-2.46-1.53-4-2.68a11.31,11.31,0,0,1-2.31-2.26,6.7,6.7,0,0,1-1.11-2.36,12.55,12.55,0,0,1-.3-2.94,9.21,9.21,0,0,1,3.48-7.72Q13,12,20.24,12a21.25,21.25,0,0,1,5.67.71,13.44,13.44,0,0,1,4.35,2A8.83,8.83,0,0,1,33,17.82,8.94,8.94,0,0,1,34,22a9.32,9.32,0,0,1-1.77,5.7,17.46,17.46,0,0,1-5.85,4.57,14.93,14.93,0,0,1,6.26,4.52A10.67,10.67,0,0,1,34.58,43.27Zm-8-.76a4.17,4.17,0,0,0-.48-2.07,4.7,4.7,0,0,0-1.41-1.52,13.4,13.4,0,0,0-2.22-1.24c-.86-.39-1.83-.78-2.91-1.19a12.31,12.31,0,0,0-4.38,2.24,4,4,0,0,0-1.26,3.06,4.27,4.27,0,0,0,1.8,3.64,8,8,0,0,0,4.86,1.32A7.41,7.41,0,0,0,25,45.6,3.64,3.64,0,0,0,26.6,42.51Zm-1.14-19a3.86,3.86,0,0,0-1.59-3.2A6.63,6.63,0,0,0,19.7,19,5.76,5.76,0,0,0,16,20.19a3.6,3.6,0,0,0-1.44,2.94c0,2.1,1.92,4,5.76,5.62a9,9,0,0,0,4-2.27A4.47,4.47,0,0,0,25.46,23.47Z"/><path class="cls-1" d="M51.38,53.83V21.12q-1.2,1.38-2.28,2.49T46.76,26l-4-5.4q1.8-1.56,3.48-3.11,1.44-1.32,2.94-2.82A36,36,0,0,0,51.69,12h7.67V53.83Z"/></svg>