<svg id="Layer_1" data-name="Layer 1" xmlns="http://www.w3.org/2000/svg" viewBox="0 0 69.71 64.98"><defs><style>.cls-1{fill:#868687;}</style></defs><path class="cls-1" d="M20.32,45.67v-24c-.58.68-1.14,1.29-1.67,1.83l-1.72,1.74-2.9-4c.88-.76,1.73-1.52,2.55-2.29s1.43-1.33,2.16-2.06a24.49,24.49,0,0,0,1.81-2h5.62V45.67Z"/><path class="cls-1" d="M55.26,35.89a9.2,9.2,0,0,1-2.85,7.23q-2.83,2.55-8,2.55a15,15,0,0,1-5.84-1.11A13.16,13.16,0,0,1,34,41.26l2.47-4.34q3.91,3.55,7.65,3.56a5.93,5.93,0,0,0,3.83-1.2,3.79,3.79,0,0,0,1.5-3.1,4.29,4.29,0,0,0-1.26-3.35,6,6,0,0,0-5.94-.64A9.72,9.72,0,0,0,40,33.75l-3.78-2.16L36.69,15h17.6l0,5.19h-12l-.22,7.22c.43-.21.8-.37,1.11-.51s.62-.24.92-.33a5.64,5.64,0,0,1,1-.17c.34,0,.73-.05,1.16-.05a9.52,9.52,0,0,1,3.67.69A8,8,0,0,1,52.76,29a9,9,0,0,1,1.84,3A11.14,11.14,0,0,1,55.26,35.89Z"/></svg>