<svg id="Layer_1" data-name="Layer 1" xmlns="http://www.w3.org/2000/svg" viewBox="0 0 69.71 64.98"><defs><style>.cls-1{fill:#87786f;stroke:#2d1606;stroke-miterlimit:10;}</style></defs><path class="cls-1" d="M32.63,44.36a14.81,14.81,0,0,1-1,5.59,12,12,0,0,1-7.14,7,16.17,16.17,0,0,1-5.73,1,15.81,15.81,0,0,1-6-1.09,12.74,12.74,0,0,1-4.61-3.11,14.22,14.22,0,0,1-3-4.83,17.45,17.45,0,0,1-1.06-6.26,22.39,22.39,0,0,1,1.28-7.38,38.23,38.23,0,0,1,3.31-7.12,53,53,0,0,1,4.6-6.53A62.24,62.24,0,0,1,18.48,16H28.61a63.92,63.92,0,0,0-7.43,8.05,64.79,64.79,0,0,0-6.06,9.29c.63-.36,1.19-.66,1.7-.9a11.27,11.27,0,0,1,1.44-.57,8.08,8.08,0,0,1,1.38-.3,12.65,12.65,0,0,1,1.59-.09,11,11,0,0,1,4.61.94,10.15,10.15,0,0,1,3.59,2.66,12.79,12.79,0,0,1,2.35,4.1A15.17,15.17,0,0,1,32.63,44.36Zm-8,.17a5.92,5.92,0,0,0-1.42-4.18,4.94,4.94,0,0,0-3.81-1.55,7.93,7.93,0,0,0-5.57,2.36q-.18.9-.24,1.35a9.26,9.26,0,0,0-.06,1.18,6.65,6.65,0,0,0,1.63,4.66,5.47,5.47,0,0,0,4.24,1.79,4.93,4.93,0,0,0,3.81-1.54A5.81,5.81,0,0,0,24.65,44.53Z"/><path class="cls-1" d="M49.61,57.88H40.55l15.72-34.8H37.43V16H65.69v6.23Z"/></svg>