<svg id="Layer_1" data-name="Layer 1" xmlns="http://www.w3.org/2000/svg" viewBox="0 0 69.71 64.98"><defs><style>.cls-1{fill:#ffe8d9;stroke:#2d1606;stroke-miterlimit:10;}</style></defs><path class="cls-1" d="M33.46,42.48a9.12,9.12,0,0,1-3.76,7.77q-3.76,2.8-10.47,2.8A23.2,23.2,0,0,1,13,52.26a15.87,15.87,0,0,1-4.82-2.21,10.15,10.15,0,0,1-3.12-3.42,9.15,9.15,0,0,1-1.11-4.5,9,9,0,0,1,2-6.05,16.84,16.84,0,0,1,6.69-4.24c-1.64-1-3-1.92-4-2.68a11.33,11.33,0,0,1-2.31-2.27,6.65,6.65,0,0,1-1.11-2.35A12.7,12.7,0,0,1,5,21.59a9.18,9.18,0,0,1,3.48-7.71q3.48-2.72,10.68-2.71a20.85,20.85,0,0,1,5.67.71,13.64,13.64,0,0,1,4.35,2,8.71,8.71,0,0,1,3.72,7.32,9.29,9.29,0,0,1-1.77,5.69,17.33,17.33,0,0,1-5.85,4.57A15,15,0,0,1,31.5,36,10.63,10.63,0,0,1,33.46,42.48Zm-8-.76A4.17,4.17,0,0,0,25,39.65a4.67,4.67,0,0,0-1.41-1.51,13.4,13.4,0,0,0-2.22-1.25c-.86-.38-1.83-.78-2.91-1.18a12.32,12.32,0,0,0-4.38,2.23A4,4,0,0,0,12.82,41a4.29,4.29,0,0,0,1.8,3.65A8,8,0,0,0,19.48,46a7.41,7.41,0,0,0,4.38-1.16A3.61,3.61,0,0,0,25.48,41.72Zm-1.14-19a3.86,3.86,0,0,0-1.59-3.2,6.57,6.57,0,0,0-4.17-1.24,5.76,5.76,0,0,0-3.72,1.15,3.61,3.61,0,0,0-1.44,3q0,3.15,5.76,5.62a9.08,9.08,0,0,0,4-2.28A4.46,4.46,0,0,0,24.34,22.69Z"/><path class="cls-1" d="M65.68,41.73a10.3,10.3,0,0,1-1,4.56,10.19,10.19,0,0,1-2.94,3.58A14.42,14.42,0,0,1,57,52.21a21,21,0,0,1-6.12.84,26.19,26.19,0,0,1-4.65-.38,16.15,16.15,0,0,1-3.87-1.19A14.87,14.87,0,0,1,39,49.32,25.32,25.32,0,0,1,35.74,46l4-5.34Q44.38,46,49.72,46a7.24,7.24,0,0,0,4.71-1.39,4.82,4.82,0,0,0,1.83-3.67,4.72,4.72,0,0,0-.48-2.61,4.94,4.94,0,0,0-2-2,11.82,11.82,0,0,0-4-1.18A32.3,32.3,0,0,0,43.36,35V27.91a44.2,44.2,0,0,0,6,.06,10.48,10.48,0,0,0,3.72-.82A4,4,0,0,0,55,25.45a5.49,5.49,0,0,0,.57-2.62,4.35,4.35,0,0,0-1.74-3.33,6.91,6.91,0,0,0-4.32-1.25,10,10,0,0,0-4.26.94,17.29,17.29,0,0,0-4.32,3L37.6,16.56q4.5-5.4,13.86-5.39a17.38,17.38,0,0,1,5.29.75,12.27,12.27,0,0,1,4,2.15,9.46,9.46,0,0,1,2.58,3.35,10.3,10.3,0,0,1,.9,4.38,9.12,9.12,0,0,1-1.74,5.78,13.57,13.57,0,0,1-5.76,3.87,11.24,11.24,0,0,1,6.63,3.38A10,10,0,0,1,65.68,41.73Z"/></svg>