<svg id="Layer_1" data-name="Layer 1" xmlns="http://www.w3.org/2000/svg" viewBox="0 0 69.71 64.98"><defs><style>.cls-1{fill:#868687;}</style></defs><path class="cls-1" d="M45.29,40.82a9.23,9.23,0,0,1-2.84,7.23q-2.85,2.55-8,2.55a14.84,14.84,0,0,1-5.85-1.12A12.87,12.87,0,0,1,24,46.18l2.46-4.34q3.91,3.57,7.66,3.57a5.9,5.9,0,0,0,3.82-1.2,3.8,3.8,0,0,0,1.5-3.11,4.32,4.32,0,0,0-1.25-3.35,5.23,5.23,0,0,0-3.63-1.14,5.29,5.29,0,0,0-2.31.5,9.27,9.27,0,0,0-2.18,1.57l-3.79-2.16.44-16.63H44.33l0,5.19h-12l-.22,7.22q.63-.31,1.11-.51a9.29,9.29,0,0,1,.92-.33,4.67,4.67,0,0,1,1-.18c.34,0,.72,0,1.15,0a9.48,9.48,0,0,1,3.67.69,8.11,8.11,0,0,1,2.84,1.94,8.84,8.84,0,0,1,1.84,3A11.1,11.1,0,0,1,45.29,40.82Z"/></svg>