<svg id="Layer_1" data-name="Layer 1" xmlns="http://www.w3.org/2000/svg" viewBox="0 0 69.71 64.98"><defs><style>.cls-1{fill:#fff;stroke:#040421;}</style></defs><path class="cls-1" d="M7.73,49.16l0-3.93q1.55-1.81,3.27-3.61l3.43-3.55q1.69-1.77,3.25-3.46a31.46,31.46,0,0,0,2.72-3.41,19.55,19.55,0,0,0,1.88-3.39,8.78,8.78,0,0,0,.7-3.38,3.72,3.72,0,0,0-1.3-2.94,4.69,4.69,0,0,0-3.2-1.13,5.49,5.49,0,0,0-2.43.53,6.25,6.25,0,0,0-1.85,1.39,9.75,9.75,0,0,0-1.35,1.88,15.71,15.71,0,0,0-1,2l-4.8-3.49c.33-.75.75-1.61,1.25-2.58a9.91,9.91,0,0,1,2.17-2.75,11.87,11.87,0,0,1,3.7-2.21,15.81,15.81,0,0,1,5.83-.91,14.26,14.26,0,0,1,4.4.65,10.1,10.1,0,0,1,3.44,1.88,8.2,8.2,0,0,1,2.19,2.95,9.45,9.45,0,0,1,.77,3.87,13.12,13.12,0,0,1-1.48,5.95,31,31,0,0,1-3.57,5.53,42.38,42.38,0,0,1-4.4,4.71c-1.54,1.39-2.84,2.55-3.9,3.46H31.18v5.9Z"/><path class="cls-1" d="M45.63,49.16H38.08l13.1-29H35.48v-5.9H59v5.19Z"/></svg>