<svg id="Layer_1" data-name="Layer 1" xmlns="http://www.w3.org/2000/svg" viewBox="0 0 69.71 64.98"><defs><style>.cls-1{fill:#b7b6b6;stroke:#040421;}</style></defs><path class="cls-1" d="M22.82,47.54V20.28c-.67.77-1.3,1.46-1.9,2.08l-2,2-3.3-4.5c1-.86,2-1.73,2.9-2.59s1.62-1.52,2.45-2.35a29.15,29.15,0,0,0,2.06-2.25h6.39v34.9Z"/><path class="cls-1" d="M62.52,36.42q0,5.32-3.23,8.22c-2.16,1.94-5.18,2.9-9.06,2.9a16.87,16.87,0,0,1-6.64-1.27,14.65,14.65,0,0,1-5.27-3.75l2.8-4.93q4.46,4,8.7,4a6.71,6.71,0,0,0,4.35-1.36,4.33,4.33,0,0,0,1.7-3.53,4.91,4.91,0,0,0-1.42-3.81,5.91,5.91,0,0,0-4.13-1.3,5.76,5.76,0,0,0-2.62.58A10.47,10.47,0,0,0,45.22,34l-4.3-2.45.5-18.9h20l0,5.9H47.82l-.25,8.2,1.26-.57a10.34,10.34,0,0,1,1.05-.38,6,6,0,0,1,1.09-.2c.39,0,.82-.05,1.31-.05a10.65,10.65,0,0,1,4.17.79,9.16,9.16,0,0,1,3.23,2.21A10.08,10.08,0,0,1,61.77,32,12.69,12.69,0,0,1,62.52,36.42Z"/></svg>