<svg id="Layer_1" data-name="Layer 1" xmlns="http://www.w3.org/2000/svg" viewBox="0 0 69.71 64.98"><defs><style>.cls-1{fill:#868687;}</style></defs><path class="cls-1" d="M10.73,49.21l0-3.46q1.37-1.59,2.88-3.17l3-3.13c1-1,1.95-2.05,2.86-3a29.87,29.87,0,0,0,2.39-3,16.81,16.81,0,0,0,1.65-3,7.65,7.65,0,0,0,.62-3,3.26,3.26,0,0,0-1.14-2.59,4.19,4.19,0,0,0-2.82-1,4.64,4.64,0,0,0-2.13.48,5.24,5.24,0,0,0-1.63,1.22,8.88,8.88,0,0,0-1.19,1.65,14.71,14.71,0,0,0-.86,1.8L10.2,25.94c.29-.67.66-1.42,1.1-2.27a8.66,8.66,0,0,1,1.91-2.43,10.63,10.63,0,0,1,3.26-1.94,13.79,13.79,0,0,1,5.12-.8,12.29,12.29,0,0,1,3.88.58,8.68,8.68,0,0,1,3,1.65,7.14,7.14,0,0,1,1.92,2.59,8.34,8.34,0,0,1,.68,3.41A11.56,11.56,0,0,1,29.8,32a27.17,27.17,0,0,1-3.15,4.87A36.64,36.64,0,0,1,22.78,41q-2,1.85-3.43,3.05h12v5.19Z"/><path class="cls-1" d="M56.09,41.46a6.71,6.71,0,0,1-2.76,5.7c-1.84,1.36-4.4,2.05-7.68,2.05a17.18,17.18,0,0,1-4.58-.58A11.72,11.72,0,0,1,37.54,47a7.46,7.46,0,0,1-2.28-2.51,7.25,7.25,0,0,1,.66-7.74,12.39,12.39,0,0,1,4.9-3.11c-1.2-.74-2.17-1.4-2.9-2A8.42,8.42,0,0,1,36.22,30a5.14,5.14,0,0,1-.81-1.73,9.15,9.15,0,0,1-.22-2.16,6.76,6.76,0,0,1,2.55-5.66q2.55-2,7.83-2a15.8,15.8,0,0,1,4.16.51,9.9,9.9,0,0,1,3.19,1.48,6.49,6.49,0,0,1,2,2.31,6.68,6.68,0,0,1,.7,3.05A6.8,6.8,0,0,1,54.35,30a12.76,12.76,0,0,1-4.29,3.35,10.91,10.91,0,0,1,4.59,3.31A7.81,7.81,0,0,1,56.09,41.46Zm-5.85-.56a3,3,0,0,0-.36-1.52,3.46,3.46,0,0,0-1-1.11,9.46,9.46,0,0,0-1.63-.91q-.94-.42-2.13-.87a8.86,8.86,0,0,0-3.21,1.64A2.94,2.94,0,0,0,41,40.38,3.11,3.11,0,0,0,42.27,43a5.88,5.88,0,0,0,3.57,1,5.46,5.46,0,0,0,3.21-.85A2.66,2.66,0,0,0,50.24,40.9Zm-.84-14a2.87,2.87,0,0,0-1.16-2.35,4.88,4.88,0,0,0-3.06-.9,4.24,4.24,0,0,0-2.73.84,2.68,2.68,0,0,0-1.06,2.17c0,1.53,1.41,2.91,4.23,4.12a6.73,6.73,0,0,0,3-1.67A3.32,3.32,0,0,0,49.4,26.94Z"/></svg>