<svg id="Layer_1" data-name="Layer 1" xmlns="http://www.w3.org/2000/svg" viewBox="0 0 69.71 64.98"><defs><style>.cls-1{fill:#868687;}</style></defs><path class="cls-1" d="M30.84,48.44H25l.35-13A8.27,8.27,0,0,1,22.79,37a8.86,8.86,0,0,1-2.95.44,9.27,9.27,0,0,1-3.67-.71,8.14,8.14,0,0,1-2.84-2,9,9,0,0,1-1.82-3.1,12,12,0,0,1-.64-4.05,12,12,0,0,1,.77-4.38,9.27,9.27,0,0,1,2.18-3.32,9.37,9.37,0,0,1,3.45-2.09,13.61,13.61,0,0,1,4.55-.73A9.63,9.63,0,0,1,29,19.62a9.16,9.16,0,0,1,2.42,7.08ZM25.26,26a3.44,3.44,0,0,0-1.08-2.55A3.64,3.64,0,0,0,23,22.74a4.15,4.15,0,0,0-1.5-.26,4,4,0,0,0-3.21,1.36,5.52,5.52,0,0,0-1.19,3.74,4.85,4.85,0,0,0,1,3.3A3.63,3.63,0,0,0,21,32.07a4,4,0,0,0,3-1.19,4.88,4.88,0,0,0,1.23-3.3Z"/><path class="cls-1" d="M57.46,32.55q0,8.39-2.88,12.14T46,48.44q-5.69,0-8.57-3.77T34.54,33.1q0-7.76,2.89-11.56T46,17.72Q57.46,17.72,57.46,32.55Zm-6.9.25q-.14-5.05-1.15-7.23a3.46,3.46,0,0,0-3.36-2.17,3.7,3.7,0,0,0-3.41,2.35Q41.58,28,41.45,33.52a18.92,18.92,0,0,0,1.15,6.87,3.66,3.66,0,0,0,3.45,2.37,3.49,3.49,0,0,0,3.29-2.29C50.07,38.94,50.47,36.39,50.56,32.8Z"/></svg>