<svg id="Layer_1" data-name="Layer 1" xmlns="http://www.w3.org/2000/svg" viewBox="0 0 69.71 64.98"><defs><style>.cls-1{fill:#fff;stroke:#040421;}</style></defs><path class="cls-1" d="M19.05,49.94H11.5l13.1-29H8.9V15H32.45v5.19Z"/><path class="cls-1" d="M59.8,38.67A12.52,12.52,0,0,1,59,43.33,10,10,0,0,1,53,49.13a13.33,13.33,0,0,1-4.77.81,13.17,13.17,0,0,1-5-.91,10.58,10.58,0,0,1-3.84-2.6,11.9,11.9,0,0,1-2.48-4,14.8,14.8,0,0,1-.88-5.22A18.9,18.9,0,0,1,37.11,31a32.86,32.86,0,0,1,2.77-5.93,43.67,43.67,0,0,1,3.83-5.44A52.54,52.54,0,0,1,48,15h8.44a53.18,53.18,0,0,0-6.19,6.7,54.36,54.36,0,0,0-5,7.75c.52-.3,1-.55,1.42-.75a9.37,9.37,0,0,1,1.2-.48A7.35,7.35,0,0,1,49,28a10.52,10.52,0,0,1,1.32-.07,9.3,9.3,0,0,1,3.85.78,8.47,8.47,0,0,1,3,2.22,10.5,10.5,0,0,1,2,3.41A12.55,12.55,0,0,1,59.8,38.67Zm-6.65.14A4.91,4.91,0,0,0,52,35.33,4.1,4.1,0,0,0,48.8,34a6.62,6.62,0,0,0-4.65,2c-.1.5-.16.88-.2,1.13a8.31,8.31,0,0,0-.05,1A5.53,5.53,0,0,0,45.26,42a4.53,4.53,0,0,0,3.53,1.5A4.11,4.11,0,0,0,52,42.2,4.81,4.81,0,0,0,53.15,38.81Z"/></svg>