<svg id="Layer_1" data-name="Layer 1" xmlns="http://www.w3.org/2000/svg" viewBox="0 0 69.71 64.98"><defs><style>.cls-1{fill:#022749;}</style></defs><path class="cls-1" d="M10.3,47l0-3.46q1.37-1.59,2.89-3.17l3-3.13c1-1,2-2,2.86-3a26.72,26.72,0,0,0,2.4-3,16.46,16.46,0,0,0,1.65-3,7.6,7.6,0,0,0,.61-3,3.29,3.29,0,0,0-1.14-2.59,4.15,4.15,0,0,0-2.82-1,4.76,4.76,0,0,0-2.13.47A5.69,5.69,0,0,0,16,23.33,9.29,9.29,0,0,0,14.85,25a15.34,15.34,0,0,0-.85,1.8L9.77,23.7c.29-.66.66-1.42,1.1-2.27A8.81,8.81,0,0,1,12.79,19a10.78,10.78,0,0,1,3.25-2,14.05,14.05,0,0,1,5.13-.8,12.58,12.58,0,0,1,3.88.58,9,9,0,0,1,3,1.65A7.2,7.2,0,0,1,30,21.09a8.3,8.3,0,0,1,.67,3.41,11.43,11.43,0,0,1-1.3,5.23,27.12,27.12,0,0,1-3.14,4.87,37.57,37.57,0,0,1-3.87,4.14q-2,1.84-3.44,3h12V47Z"/><path class="cls-1" d="M34.46,47l0-3.46q1.36-1.59,2.88-3.17l3-3.13c1-1,2-2,2.87-3a27.77,27.77,0,0,0,2.39-3,16.46,16.46,0,0,0,1.65-3,7.62,7.62,0,0,0,.62-3,3.29,3.29,0,0,0-1.14-2.59,4.18,4.18,0,0,0-2.82-1,4.76,4.76,0,0,0-2.13.47,5.43,5.43,0,0,0-1.63,1.23A8.81,8.81,0,0,0,39,25a15.45,15.45,0,0,0-.86,1.8L33.93,23.7c.29-.66.66-1.42,1.1-2.27A9,9,0,0,1,36.94,19a10.84,10.84,0,0,1,3.26-2,14,14,0,0,1,5.12-.8,12.58,12.58,0,0,1,3.88.58,9,9,0,0,1,3,1.65,7.17,7.17,0,0,1,1.92,2.6,8.3,8.3,0,0,1,.68,3.41,11.56,11.56,0,0,1-1.3,5.23,27.17,27.17,0,0,1-3.15,4.87,36.64,36.64,0,0,1-3.87,4.14q-2,1.84-3.43,3h12V47Z"/></svg>