<svg id="Layer_1" data-name="Layer 1" xmlns="http://www.w3.org/2000/svg" viewBox="0 0 69.71 64.98"><defs><style>.cls-1{fill:#868687;}</style></defs><path class="cls-1" d="M32.1,49.19H26.2l.36-13a8.08,8.08,0,0,1-2.51,1.54,8.86,8.86,0,0,1-2.95.44,9.24,9.24,0,0,1-3.67-.7,8.18,8.18,0,0,1-2.84-2,9.08,9.08,0,0,1-1.83-3.11,12.2,12.2,0,0,1-.64-4.05A11.69,11.69,0,0,1,12.9,24a9.08,9.08,0,0,1,2.17-3.32,9.48,9.48,0,0,1,3.46-2.1,13.62,13.62,0,0,1,4.55-.72,9.64,9.64,0,0,1,7.13,2.55,9.16,9.16,0,0,1,2.42,7.08Zm-5.59-22.4a3.51,3.51,0,0,0-.28-1.43,3.8,3.8,0,0,0-.79-1.12,3.74,3.74,0,0,0-1.21-.75,4.38,4.38,0,0,0-1.5-.26,4,4,0,0,0-3.21,1.37,5.48,5.48,0,0,0-1.19,3.73,4.9,4.9,0,0,0,1,3.31,3.63,3.63,0,0,0,2.89,1.18,4,4,0,0,0,3-1.18,4.93,4.93,0,0,0,1.23-3.31Z"/><path class="cls-1" d="M57.45,40.89a7.52,7.52,0,0,1-.75,3.35,7.38,7.38,0,0,1-2.15,2.62,10.47,10.47,0,0,1-3.44,1.72,15.43,15.43,0,0,1-4.49.61,19.57,19.57,0,0,1-3.41-.27A12.37,12.37,0,0,1,40.37,48a11.21,11.21,0,0,1-2.51-1.58,19.4,19.4,0,0,1-2.37-2.41l2.9-3.92Q41.83,44,45.74,44a5.34,5.34,0,0,0,3.46-1,3.92,3.92,0,0,0,1-4.6,3.62,3.62,0,0,0-1.5-1.48A8.73,8.73,0,0,0,45.74,36,23.11,23.11,0,0,0,41.08,36V30.76a33.17,33.17,0,0,0,4.42,0,7.58,7.58,0,0,0,2.73-.6A2.89,2.89,0,0,0,49.63,29,4,4,0,0,0,50.05,27a3.2,3.2,0,0,0-1.27-2.44,5.06,5.06,0,0,0-3.17-.92,7.32,7.32,0,0,0-3.12.69,12.68,12.68,0,0,0-3.17,2.23l-2.47-4.16q3.3-3.94,10.17-3.95A12.67,12.67,0,0,1,50.9,19a8.92,8.92,0,0,1,3,1.58,6.94,6.94,0,0,1,1.89,2.45,7.56,7.56,0,0,1,.66,3.22,6.73,6.73,0,0,1-1.28,4.24,10,10,0,0,1-4.22,2.83,8.32,8.32,0,0,1,4.87,2.48A7.37,7.37,0,0,1,57.45,40.89Z"/></svg>