<svg id="Layer_1" data-name="Layer 1" xmlns="http://www.w3.org/2000/svg" viewBox="0 0 69.71 64.98"><defs><style>.cls-1{fill:#ffe8d9;stroke:#2d1606;stroke-miterlimit:10;}</style></defs><path class="cls-1" d="M46.59,55.18h-8L39,37.48a11.11,11.11,0,0,1-3.42,2.1,12.09,12.09,0,0,1-4,.6,12.64,12.64,0,0,1-5-1,11,11,0,0,1-3.86-2.73,12.21,12.21,0,0,1-2.49-4.23,16.47,16.47,0,0,1-.88-5.52,16.4,16.4,0,0,1,1-6,12.55,12.55,0,0,1,3-4.53,12.78,12.78,0,0,1,4.7-2.85,18.53,18.53,0,0,1,6.22-1q6.24,0,9.71,3.48t3.31,9.66ZM39,24.64a4.72,4.72,0,0,0-.4-1.95,4.83,4.83,0,0,0-1.08-1.53,4.69,4.69,0,0,0-1.65-1,5.67,5.67,0,0,0-2-.36,5.53,5.53,0,0,0-4.39,1.86,7.5,7.5,0,0,0-1.61,5.1,6.58,6.58,0,0,0,1.41,4.5,4.91,4.91,0,0,0,3.92,1.62,5.45,5.45,0,0,0,4.09-1.62,6.68,6.68,0,0,0,1.67-4.5Z"/></svg>