<svg id="Layer_1" data-name="Layer 1" xmlns="http://www.w3.org/2000/svg" viewBox="0 0 69.71 64.98"><defs><style>.cls-1{fill:#022749;}</style></defs><path class="cls-1" d="M18,45.42H11.35L22.88,19.9H9.07V14.71H29.79v4.57Z"/><path class="cls-1" d="M54.91,29.54q0,8.39-2.88,12.13t-8.58,3.75q-5.69,0-8.57-3.77T32,30.09q0-7.75,2.89-11.57t8.57-3.81Q54.91,14.71,54.91,29.54Zm-6.9.24q-.13-5.05-1.15-7.23a3.47,3.47,0,0,0-3.37-2.16,3.69,3.69,0,0,0-3.4,2.34Q39,25,38.9,30.51a18.92,18.92,0,0,0,1.15,6.87,3.69,3.69,0,0,0,3.44,2.37,3.51,3.51,0,0,0,3.3-2.29C47.52,35.93,47.92,33.37,48,29.78Z"/></svg>