<svg id="Layer_1" data-name="Layer 1" xmlns="http://www.w3.org/2000/svg" viewBox="0 0 69.71 64.98"><defs><style>.cls-1{fill:#ffe8d9;stroke:#2d1606;stroke-miterlimit:10;}</style></defs><path class="cls-1" d="M49.77,40.66q0,6.39-3.87,9.86T35,54a20.42,20.42,0,0,1-8-1.52A17.7,17.7,0,0,1,20.74,48l3.36-5.92q5.34,4.86,10.43,4.86a8.06,8.06,0,0,0,5.23-1.64,5.19,5.19,0,0,0,2-4.23,5.87,5.87,0,0,0-1.7-4.57,7.14,7.14,0,0,0-5-1.56,7,7,0,0,0-3.14.69,12.38,12.38,0,0,0-3,2.13L23.86,34.8l.59-22.68h24l.07,7.08H32.13L31.84,29c.58-.28,1.08-.51,1.51-.69a11.85,11.85,0,0,1,1.25-.45,6.76,6.76,0,0,1,1.31-.24c.47,0,1-.06,1.58-.06a12.87,12.87,0,0,1,5,.94,11,11,0,0,1,3.88,2.65,12.1,12.1,0,0,1,2.5,4.14A15.17,15.17,0,0,1,49.77,40.66Z"/></svg>