<svg id="Layer_1" data-name="Layer 1" xmlns="http://www.w3.org/2000/svg" viewBox="0 0 69.71 64.98"><defs><style>.cls-1{fill:#868687;}</style></defs><path class="cls-1" d="M20.28,45.67v-24c-.58.68-1.14,1.29-1.67,1.83L16.9,25.25l-2.91-4c.88-.76,1.73-1.52,2.55-2.29S18,17.67,18.7,16.94a24.49,24.49,0,0,0,1.81-2h5.63V45.67Z"/><path class="cls-1" d="M56,35.76a10.93,10.93,0,0,1-.74,4.1,9,9,0,0,1-2,3.11A9.21,9.21,0,0,1,50,45a11.86,11.86,0,0,1-4.2.7,11.72,11.72,0,0,1-4.4-.79A9.51,9.51,0,0,1,38,42.59a10.61,10.61,0,0,1-2.18-3.54,13,13,0,0,1-.77-4.59A16.56,16.56,0,0,1,36,29a29,29,0,0,1,2.44-5.21A37.18,37.18,0,0,1,41.81,19,44.23,44.23,0,0,1,45.59,15H53a46.13,46.13,0,0,0-5.45,5.9,46.77,46.77,0,0,0-4.44,6.82A13,13,0,0,1,44.38,27a7.17,7.17,0,0,1,1-.42,5.87,5.87,0,0,1,1-.22,10.23,10.23,0,0,1,1.17-.07A8.14,8.14,0,0,1,51,27,7.57,7.57,0,0,1,53.62,29a9.36,9.36,0,0,1,1.72,3A11.06,11.06,0,0,1,56,35.76Zm-5.85.12a4.35,4.35,0,0,0-1-3.07,3.61,3.61,0,0,0-2.79-1.13,5.82,5.82,0,0,0-4.08,1.73q-.14.66-.18,1a6.78,6.78,0,0,0,0,.86,4.88,4.88,0,0,0,1.19,3.42A4,4,0,0,0,46.28,40a3.62,3.62,0,0,0,2.79-1.13A4.23,4.23,0,0,0,50.12,35.88Z"/></svg>