<svg id="Layer_1" data-name="Layer 1" xmlns="http://www.w3.org/2000/svg" viewBox="0 0 97.12 64.98"><defs><style>.cls-1{fill:#87786f;stroke:#2d1606;stroke-miterlimit:10;}</style></defs><path class="cls-1" d="M9.94,55.09V22.38c-.81.92-1.56,1.75-2.28,2.49s-1.5,1.53-2.34,2.37l-4-5.4c1.2-1,2.35-2.08,3.48-3.11q1.44-1.32,2.94-2.82a36,36,0,0,0,2.47-2.7h7.67V55.09Z"/><path class="cls-1" d="M60,33.43Q60,44.88,56.1,50T44.41,55.09q-7.75,0-11.7-5.14T28.78,34.18q0-10.56,3.93-15.77t11.7-5.2Q60,13.21,60,33.43Zm-9.41.34q-.18-6.9-1.57-9.86a4.74,4.74,0,0,0-4.59-3,5.06,5.06,0,0,0-4.64,3.21q-1.45,3.09-1.62,10.6.16,6.24,1.56,9.36a5,5,0,0,0,4.7,3.23A4.78,4.78,0,0,0,49,44.23Q50.45,41.11,50.62,33.77Z"/><path class="cls-1" d="M93,33.43Q93,44.88,89,50T77.35,55.09q-7.75,0-11.7-5.14T61.72,34.18q0-10.56,3.93-15.77t11.7-5.2Q93,13.21,93,33.43Zm-9.42.34q-.18-6.9-1.57-9.86a4.74,4.74,0,0,0-4.59-3,5.07,5.07,0,0,0-4.64,3.21q-1.45,3.09-1.62,10.6.17,6.24,1.56,9.36a5,5,0,0,0,4.7,3.23,4.78,4.78,0,0,0,4.5-3.12Q83.39,41.11,83.56,33.77Z"/></svg>