<svg id="Layer_1" data-name="Layer 1" xmlns="http://www.w3.org/2000/svg" viewBox="0 0 69.71 64.98"><defs><style>.cls-1{fill:#ffe8d9;stroke:#2d1606;stroke-miterlimit:10;}</style></defs><path class="cls-1" d="M33.76,44.36a15,15,0,0,1-1,5.59,12.08,12.08,0,0,1-7.14,7,16.24,16.24,0,0,1-5.73,1,15.86,15.86,0,0,1-6-1.09,12.74,12.74,0,0,1-4.61-3.11,14.54,14.54,0,0,1-3-4.83,17.68,17.68,0,0,1-1.06-6.26,22.39,22.39,0,0,1,1.28-7.38,38.27,38.27,0,0,1,3.32-7.12,51.82,51.82,0,0,1,4.59-6.53A62.24,62.24,0,0,1,19.61,16H29.75a63.24,63.24,0,0,0-7.44,8.05,64.79,64.79,0,0,0-6.06,9.29q.95-.54,1.71-.9a11.27,11.27,0,0,1,1.44-.57,8.08,8.08,0,0,1,1.38-.3,12.65,12.65,0,0,1,1.59-.09,11,11,0,0,1,4.61.94,10.2,10.2,0,0,1,3.58,2.66,12.79,12.79,0,0,1,2.35,4.1A15.17,15.17,0,0,1,33.76,44.36Zm-8,.17a5.92,5.92,0,0,0-1.43-4.18,4.93,4.93,0,0,0-3.8-1.55A8,8,0,0,0,15,41.16c-.11.6-.2,1.05-.24,1.35a11.59,11.59,0,0,0-.06,1.18,6.7,6.7,0,0,0,1.63,4.66,5.49,5.49,0,0,0,4.25,1.79,4.92,4.92,0,0,0,3.8-1.54A5.77,5.77,0,0,0,25.79,44.53Z"/><path class="cls-1" d="M66.7,44.36a15,15,0,0,1-1,5.59,12.06,12.06,0,0,1-7.15,7,16.15,16.15,0,0,1-5.72,1,15.83,15.83,0,0,1-6-1.09,12.74,12.74,0,0,1-4.61-3.11,14.54,14.54,0,0,1-3-4.83,17.68,17.68,0,0,1-1.06-6.26,22.39,22.39,0,0,1,1.28-7.38,38.27,38.27,0,0,1,3.32-7.12,51.82,51.82,0,0,1,4.59-6.53A62.24,62.24,0,0,1,52.55,16H62.69a63.24,63.24,0,0,0-7.44,8.05,64.79,64.79,0,0,0-6.06,9.29q.95-.54,1.71-.9a11.27,11.27,0,0,1,1.44-.57,8.08,8.08,0,0,1,1.38-.3,12.65,12.65,0,0,1,1.59-.09,11,11,0,0,1,4.61.94,10.2,10.2,0,0,1,3.58,2.66,12.79,12.79,0,0,1,2.35,4.1A15.17,15.17,0,0,1,66.7,44.36Zm-8,.17a5.92,5.92,0,0,0-1.42-4.18,4.93,4.93,0,0,0-3.8-1.55,8,8,0,0,0-5.58,2.36c-.11.6-.2,1.05-.24,1.35a9.26,9.26,0,0,0-.06,1.18,6.7,6.7,0,0,0,1.63,4.66,5.48,5.48,0,0,0,4.24,1.79A4.93,4.93,0,0,0,57.3,48.6,5.77,5.77,0,0,0,58.72,44.53Z"/></svg>