<svg id="Layer_1" data-name="Layer 1" xmlns="http://www.w3.org/2000/svg" viewBox="0 0 69.71 64.98"><defs><style>.cls-1{fill:#868687;}</style></defs><path class="cls-1" d="M35.31,40.71a7.48,7.48,0,0,1-.74,3.35,7.38,7.38,0,0,1-2.15,2.62A10.47,10.47,0,0,1,29,48.4a15.43,15.43,0,0,1-4.49.61,19.57,19.57,0,0,1-3.41-.27,12.37,12.37,0,0,1-2.84-.88,10.66,10.66,0,0,1-2.51-1.58,18.73,18.73,0,0,1-2.37-2.41L16.26,40q3.43,3.87,7.35,3.87a5.29,5.29,0,0,0,3.45-1,3.91,3.91,0,0,0,1-4.6,3.61,3.61,0,0,0-1.5-1.47,8.56,8.56,0,0,0-2.95-.87,23.21,23.21,0,0,0-4.67-.09V30.58a33.32,33.32,0,0,0,4.43,0,7.52,7.52,0,0,0,2.72-.6,3,3,0,0,0,1.41-1.24,4,4,0,0,0,.42-1.93,3.2,3.2,0,0,0-1.27-2.44,5.08,5.08,0,0,0-3.17-.92,7.4,7.4,0,0,0-3.13.69,13,13,0,0,0-3.17,2.23l-2.46-4.16Q18,18.31,24.88,18.3a13,13,0,0,1,3.89.55,8.77,8.77,0,0,1,2.95,1.58,7.08,7.08,0,0,1,1.9,2.45,7.6,7.6,0,0,1,.66,3.22A6.71,6.71,0,0,1,33,30.34a10,10,0,0,1-4.22,2.83,8.26,8.26,0,0,1,4.86,2.48A7.32,7.32,0,0,1,35.31,40.71Z"/><path class="cls-1" d="M48.16,49V25c-.59.68-1.14,1.29-1.67,1.83l-1.72,1.74-2.9-4c.88-.76,1.73-1.53,2.55-2.29s1.42-1.33,2.16-2.06a24.49,24.49,0,0,0,1.81-2H54V49Z"/></svg>