<svg id="Layer_1" data-name="Layer 1" xmlns="http://www.w3.org/2000/svg" viewBox="0 0 69.71 64.98"><defs><style>.cls-1{fill:#87786f;stroke:#2d1606;stroke-miterlimit:10;}</style></defs><path class="cls-1" d="M30.71,57.92h-8l.48-17.7a11,11,0,0,1-3.42,2.1,12,12,0,0,1-4,.6,12.64,12.64,0,0,1-5-1,11.07,11.07,0,0,1-3.87-2.73A12.21,12.21,0,0,1,4.34,35a16.48,16.48,0,0,1-.87-5.52,16.19,16.19,0,0,1,1-6,12.66,12.66,0,0,1,3-4.53,12.82,12.82,0,0,1,4.71-2.85,18.47,18.47,0,0,1,6.21-1q6.24,0,9.72,3.48t3.3,9.66ZM23.09,27.38a4.72,4.72,0,0,0-.39-1.95,4.83,4.83,0,0,0-1.08-1.53,4.79,4.79,0,0,0-1.65-1,5.76,5.76,0,0,0-2-.36,5.51,5.51,0,0,0-4.38,1.86,7.5,7.5,0,0,0-1.62,5.1A6.63,6.63,0,0,0,13.34,34a4.93,4.93,0,0,0,3.93,1.62A5.41,5.41,0,0,0,21.35,34,6.64,6.64,0,0,0,23,29.48Z"/><path class="cls-1" d="M49.61,57.92H40.55l15.72-34.8H37.43V16H65.69v6.23Z"/></svg>