<svg id="Layer_1" data-name="Layer 1" xmlns="http://www.w3.org/2000/svg" viewBox="0 0 69.71 64.98"><defs><style>.cls-1{fill:#b7b6b6;stroke:#040421;}</style></defs><path class="cls-1" d="M32.61,48.65h-6.7l.4-14.75a9,9,0,0,1-2.85,1.75,9.81,9.81,0,0,1-3.35.5,10.63,10.63,0,0,1-4.18-.8,9.19,9.19,0,0,1-3.22-2.27,10.34,10.34,0,0,1-2.08-3.53A13.83,13.83,0,0,1,9.91,25a13.54,13.54,0,0,1,.87-5,10.28,10.28,0,0,1,6.4-6.15A15.42,15.42,0,0,1,22.36,13q5.2,0,8.1,2.9c1.93,1.93,2.85,4.62,2.75,8ZM26.26,23.2A3.93,3.93,0,0,0,25,20.3a3.92,3.92,0,0,0-1.37-.85,4.79,4.79,0,0,0-1.7-.3,4.61,4.61,0,0,0-3.65,1.55A6.26,6.26,0,0,0,17,25a5.54,5.54,0,0,0,1.17,3.75,4.13,4.13,0,0,0,3.28,1.35,4.51,4.51,0,0,0,3.4-1.35A5.53,5.53,0,0,0,26.21,25Z"/><path class="cls-1" d="M48.36,48.65H40.81l13.1-29H38.21v-5.9H61.76v5.19Z"/></svg>