<svg id="Layer_1" data-name="Layer 1" xmlns="http://www.w3.org/2000/svg" viewBox="0 0 69.71 64.98"><defs><style>.cls-1{fill:#87786f;stroke:#2d1606;stroke-miterlimit:10;}</style></defs><path class="cls-1" d="M33.77,45A9.14,9.14,0,0,1,30,52.78q-3.77,2.8-10.47,2.8a22.89,22.89,0,0,1-6.25-.79,15.58,15.58,0,0,1-4.81-2.21,10.15,10.15,0,0,1-3.12-3.42,9.15,9.15,0,0,1-1.11-4.5,9.05,9.05,0,0,1,2-6A17,17,0,0,1,13,34.37q-2.46-1.53-4-2.68a11.08,11.08,0,0,1-2.31-2.27,6.65,6.65,0,0,1-1.11-2.35,12.7,12.7,0,0,1-.3-2.95,9.21,9.21,0,0,1,3.48-7.71q3.48-2.71,10.68-2.71a21.25,21.25,0,0,1,5.67.71,13.64,13.64,0,0,1,4.35,2,8.71,8.71,0,0,1,3.72,7.32,9.29,9.29,0,0,1-1.77,5.69A17.21,17.21,0,0,1,25.55,34a14.87,14.87,0,0,1,6.26,4.53A10.66,10.66,0,0,1,33.77,45Zm-8-.76a4.2,4.2,0,0,0-.48-2.07,4.67,4.67,0,0,0-1.41-1.51,12.72,12.72,0,0,0-2.22-1.24c-.86-.39-1.83-.78-2.91-1.19a12.32,12.32,0,0,0-4.38,2.23,4,4,0,0,0-1.26,3.07,4.29,4.29,0,0,0,1.8,3.64,8,8,0,0,0,4.86,1.32,7.41,7.41,0,0,0,4.38-1.16A3.61,3.61,0,0,0,25.79,44.25Zm-1.14-19A3.86,3.86,0,0,0,23.06,22a6.57,6.57,0,0,0-4.17-1.24,5.76,5.76,0,0,0-3.72,1.15,3.61,3.61,0,0,0-1.44,2.95q0,3.15,5.76,5.62a9.08,9.08,0,0,0,4-2.27A4.51,4.51,0,0,0,24.65,25.22Z"/><path class="cls-1" d="M66.29,42.06a15,15,0,0,1-1,5.59,12,12,0,0,1-7.14,7,17.23,17.23,0,0,1-11.73-.12,12.64,12.64,0,0,1-4.61-3.12,14.49,14.49,0,0,1-3-4.82,17.68,17.68,0,0,1-1.05-6.26,22.48,22.48,0,0,1,1.27-7.39,38.84,38.84,0,0,1,3.32-7.11A52.13,52.13,0,0,1,47,19.26a62.24,62.24,0,0,1,5.16-5.56H62.27a62.46,62.46,0,0,0-7.43,8.05A65.17,65.17,0,0,0,48.77,31q.94-.54,1.71-.9a11.27,11.27,0,0,1,1.44-.57,8.08,8.08,0,0,1,1.38-.3,12.65,12.65,0,0,1,1.59-.09,11,11,0,0,1,4.61.94,10.11,10.11,0,0,1,3.58,2.66,12.6,12.6,0,0,1,2.35,4.1A15.17,15.17,0,0,1,66.29,42.06Zm-8,.17A6,6,0,0,0,56.88,38a4.94,4.94,0,0,0-3.8-1.54,7.93,7.93,0,0,0-5.57,2.36q-.18.9-.24,1.35a9.19,9.19,0,0,0-.06,1.17A6.68,6.68,0,0,0,48.83,46a5.47,5.47,0,0,0,4.25,1.8,4.92,4.92,0,0,0,3.8-1.54A5.77,5.77,0,0,0,58.31,42.23Z"/></svg>