<svg id="Layer_1" data-name="Layer 1" xmlns="http://www.w3.org/2000/svg" viewBox="0 0 69.71 64.98"><defs><style>.cls-1{fill:#868687;}</style></defs><path class="cls-1" d="M32.19,49.19h-5.9l.35-13a8.08,8.08,0,0,1-2.51,1.54,8.84,8.84,0,0,1-2.94.44,9.29,9.29,0,0,1-3.68-.7,8.27,8.27,0,0,1-2.84-2,8.9,8.9,0,0,1-1.82-3.11,12,12,0,0,1-.64-4.05A11.89,11.89,0,0,1,13,24a9.1,9.1,0,0,1,2.18-3.32,9.52,9.52,0,0,1,3.45-2.1,13.68,13.68,0,0,1,4.56-.72,9.62,9.62,0,0,1,7.12,2.55,9.16,9.16,0,0,1,2.42,7.08ZM26.6,26.79a3.51,3.51,0,0,0-.29-1.43,3.5,3.5,0,0,0-2-1.87,4.38,4.38,0,0,0-1.5-.26A4,4,0,0,0,19.6,24.6a5.48,5.48,0,0,0-1.19,3.73,4.9,4.9,0,0,0,1,3.31,3.62,3.62,0,0,0,2.88,1.18,4,4,0,0,0,3-1.18,4.93,4.93,0,0,0,1.23-3.31Z"/><path class="cls-1" d="M57.75,39.28A10.84,10.84,0,0,1,57,43.37a8.75,8.75,0,0,1-5.24,5.11,12.63,12.63,0,0,1-8.6-.09,9.35,9.35,0,0,1-3.38-2.28,10.71,10.71,0,0,1-2.18-3.54A13.07,13.07,0,0,1,36.85,38a16.52,16.52,0,0,1,.93-5.42,29.38,29.38,0,0,1,2.44-5.22,37.78,37.78,0,0,1,3.37-4.78,44.23,44.23,0,0,1,3.78-4.08H54.8a48.16,48.16,0,0,0-9.89,12.71c.46-.26.87-.48,1.25-.66a8.36,8.36,0,0,1,1.05-.41,5,5,0,0,1,1-.22,8.86,8.86,0,0,1,4.54.62,7.57,7.57,0,0,1,2.63,1.95,9.36,9.36,0,0,1,1.72,3A11.06,11.06,0,0,1,57.75,39.28Zm-5.85.12a4.35,4.35,0,0,0-1-3.07,3.6,3.6,0,0,0-2.78-1.13A5.82,5.82,0,0,0,44,36.93q-.13.66-.18,1a6.68,6.68,0,0,0,0,.86A4.93,4.93,0,0,0,45,42.2a4,4,0,0,0,3.11,1.32,3.58,3.58,0,0,0,2.79-1.14A4.2,4.2,0,0,0,51.9,39.4Z"/></svg>