<svg id="Layer_1" data-name="Layer 1" xmlns="http://www.w3.org/2000/svg" viewBox="0 0 69.71 64.98"><defs><style>.cls-1{fill:#87786f;stroke:#2d1606;stroke-miterlimit:10;}</style></defs><path class="cls-1" d="M28.18,55.8H20.74V45.48H5.32V13.86H13v24.9h7.74V28.62h7.38V38.76h5.34v6.66H28.18Z"/><path class="cls-1" d="M65.26,44.48a10.17,10.17,0,0,1-1,4.56,10,10,0,0,1-2.94,3.58A14.13,14.13,0,0,1,56.62,55a21,21,0,0,1-6.12.84,25.28,25.28,0,0,1-4.65-.38A16.15,16.15,0,0,1,42,54.23a14.87,14.87,0,0,1-3.42-2.16,25.32,25.32,0,0,1-3.24-3.29l4-5.34q4.68,5.28,10,5.28A7.24,7.24,0,0,0,54,47.33a4.82,4.82,0,0,0,1.83-3.66,4.69,4.69,0,0,0-.47-2.61,4.91,4.91,0,0,0-2-2,11.58,11.58,0,0,0-4-1.19,32.3,32.3,0,0,0-6.36-.12V30.66a44.2,44.2,0,0,0,6,.06,10.73,10.73,0,0,0,3.72-.81,4.06,4.06,0,0,0,1.92-1.71,5.46,5.46,0,0,0,.57-2.62,4.32,4.32,0,0,0-1.74-3.32A6.85,6.85,0,0,0,49.12,21a10,10,0,0,0-4.26.94,17.29,17.29,0,0,0-4.32,3l-3.36-5.67q4.5-5.38,13.86-5.39a17.13,17.13,0,0,1,5.3.76,12,12,0,0,1,4,2.15A9.43,9.43,0,0,1,63,20.17a10.33,10.33,0,0,1,.9,4.38,9.17,9.17,0,0,1-1.74,5.79,13.56,13.56,0,0,1-5.76,3.86A11.32,11.32,0,0,1,63,37.58,10.05,10.05,0,0,1,65.26,44.48Z"/></svg>