<svg id="Layer_1" data-name="Layer 1" xmlns="http://www.w3.org/2000/svg" viewBox="0 0 69.71 64.98"><defs><style>.cls-1{fill:#ffe8d9;stroke:#2d1606;stroke-miterlimit:10;}</style></defs><path class="cls-1" d="M32,40.92q0,6.39-3.88,9.87T17.27,54.27a20.26,20.26,0,0,1-8-1.53A17.63,17.63,0,0,1,3,48.24l3.36-5.91q5.34,4.86,10.44,4.86A8.09,8.09,0,0,0,22,45.55a5.19,5.19,0,0,0,2-4.23,5.87,5.87,0,0,0-1.71-4.57,7.1,7.1,0,0,0-4.95-1.56,7.07,7.07,0,0,0-3.15.69,12.78,12.78,0,0,0-3,2.13L6.1,35.06l.6-22.67h24l.06,7.08H14.38l-.3,9.84c.58-.28,1.09-.51,1.52-.69a11.09,11.09,0,0,1,1.25-.45,6.62,6.62,0,0,1,1.31-.24c.46,0,1-.06,1.57-.06a12.89,12.89,0,0,1,5,.94,10.86,10.86,0,0,1,3.87,2.65,12.17,12.17,0,0,1,2.51,4.13A15.21,15.21,0,0,1,32,40.92Z"/><path class="cls-1" d="M65.68,43a10,10,0,0,1-4,8.14A14.42,14.42,0,0,1,57,53.43a21,21,0,0,1-6.12.84,26.19,26.19,0,0,1-4.65-.38A16.61,16.61,0,0,1,42.4,52.7,14.87,14.87,0,0,1,39,50.54a26,26,0,0,1-3.24-3.29l4-5.34q4.68,5.28,10,5.28a7.3,7.3,0,0,0,4.71-1.39,4.84,4.84,0,0,0,1.83-3.67,4.72,4.72,0,0,0-.48-2.61,4.82,4.82,0,0,0-2-2,11.6,11.6,0,0,0-4-1.18,32.3,32.3,0,0,0-6.36-.12V29.13a44.2,44.2,0,0,0,6,.06,10.71,10.71,0,0,0,3.72-.82A4,4,0,0,0,55,26.67,5.5,5.5,0,0,0,55.6,24a4.35,4.35,0,0,0-1.74-3.32,6.85,6.85,0,0,0-4.32-1.25,10,10,0,0,0-4.26.94,17.29,17.29,0,0,0-4.32,3L37.6,17.77q4.5-5.38,13.86-5.38a17.38,17.38,0,0,1,5.29.75,12.09,12.09,0,0,1,4,2.15,9.52,9.52,0,0,1,2.58,3.34,10.35,10.35,0,0,1,.9,4.39,9.14,9.14,0,0,1-1.74,5.78,13.66,13.66,0,0,1-5.76,3.87A11.23,11.23,0,0,1,63.4,36,10.05,10.05,0,0,1,65.68,43Z"/></svg>