<svg id="Layer_1" data-name="Layer 1" xmlns="http://www.w3.org/2000/svg" viewBox="0 0 69.71 64.98"><defs><style>.cls-1{font-size:12px;font-family:MyriadPro-Regular, Myriad Pro;}.cls-2{fill:#868687;}</style></defs><text class="cls-1" transform="translate(25.08 29.89)">TI_G2_001</text><path class="cls-2" d="M33.09,36.16a9.25,9.25,0,0,1-2.84,7.24Q27.4,46,22.27,46a15,15,0,0,1-5.84-1.12,12.91,12.91,0,0,1-4.64-3.3l2.47-4.34c2.61,2.38,5.16,3.56,7.65,3.56a5.85,5.85,0,0,0,3.83-1.2,3.79,3.79,0,0,0,1.5-3.1A4.29,4.29,0,0,0,26,33.1,5.19,5.19,0,0,0,22.36,32a5.17,5.17,0,0,0-2.32.51A9.68,9.68,0,0,0,17.87,34l-3.79-2.15.44-16.64h17.6l.05,5.2h-12l-.21,7.21c.42-.2.79-.37,1.1-.5a7.9,7.9,0,0,1,.92-.33,4.8,4.8,0,0,1,1-.18c.35,0,.73,0,1.16,0a9.48,9.48,0,0,1,3.67.69,8.11,8.11,0,0,1,2.84,1.94,9.05,9.05,0,0,1,1.84,3A11.18,11.18,0,0,1,33.09,36.16Z"/><path class="cls-2" d="M57.78,37.65a7.41,7.41,0,0,1-2.9,6,10.66,10.66,0,0,1-3.44,1.71A15.42,15.42,0,0,1,47,46a18.59,18.59,0,0,1-3.41-.28,11.88,11.88,0,0,1-2.84-.87,11,11,0,0,1-2.5-1.59,18.14,18.14,0,0,1-2.38-2.41l2.9-3.92q3.44,3.87,7.35,3.87a5.34,5.34,0,0,0,3.46-1,3.93,3.93,0,0,0,1-4.61A3.66,3.66,0,0,0,49,33.66a8.56,8.56,0,0,0-3-.87,24.71,24.71,0,0,0-4.66-.09V27.51a33.42,33.42,0,0,0,4.42,0,8,8,0,0,0,2.73-.6A2.94,2.94,0,0,0,50,25.71a4,4,0,0,0,.42-1.93,3.17,3.17,0,0,0-1.27-2.43,5,5,0,0,0-3.17-.92,7.4,7.4,0,0,0-3.13.69,12.56,12.56,0,0,0-3.16,2.23l-2.47-4.16q3.3-4,10.17-4a12.66,12.66,0,0,1,3.88.56,8.74,8.74,0,0,1,3,1.58,6.85,6.85,0,0,1,1.89,2.45A7.55,7.55,0,0,1,56.74,23a6.69,6.69,0,0,1-1.28,4.24,10,10,0,0,1-4.22,2.84,8.31,8.31,0,0,1,4.87,2.47A7.4,7.4,0,0,1,57.78,37.65Z"/></svg>