<svg id="Layer_1" data-name="Layer 1" xmlns="http://www.w3.org/2000/svg" viewBox="0 0 69.71 64.98"><defs><style>.cls-1{fill:#87786f;stroke:#2d1606;stroke-miterlimit:10;}</style></defs><path class="cls-1" d="M31.47,40.92q0,6.39-3.88,9.87T16.72,54.27a20.26,20.26,0,0,1-8-1.53,17.54,17.54,0,0,1-6.32-4.5l3.36-5.91q5.34,4.86,10.44,4.86a8.09,8.09,0,0,0,5.22-1.64,5.19,5.19,0,0,0,2-4.23,5.87,5.87,0,0,0-1.71-4.57,7.1,7.1,0,0,0-5-1.56,7.07,7.07,0,0,0-3.15.69,12.78,12.78,0,0,0-3,2.13L5.55,35.06l.6-22.67h24l.06,7.08H13.83l-.3,9.84c.58-.28,1.08-.51,1.51-.69a12.71,12.71,0,0,1,1.25-.45,6.76,6.76,0,0,1,1.31-.24c.47,0,1-.06,1.58-.06a13,13,0,0,1,5,.94,11,11,0,0,1,3.87,2.65,12.15,12.15,0,0,1,2.5,4.13A15,15,0,0,1,31.47,40.92Z"/><path class="cls-1" d="M61,54.27H53.55V44H38.13V12.33h7.68v24.9h7.74V27.09h7.38V37.23h5.34v6.66H61Z"/></svg>