<svg id="Layer_1" data-name="Layer 1" xmlns="http://www.w3.org/2000/svg" viewBox="0 0 69.71 64.98"><defs><style>.cls-1{fill:#ffe8d9;stroke:#2d1606;stroke-miterlimit:10;}</style></defs><path class="cls-1" d="M18,54.9H9L24.68,20.1H5.84V13H34.1v6.23Z"/><path class="cls-1" d="M65.9,41.56Q65.9,48,62,51.42T51.15,54.9a20.47,20.47,0,0,1-8-1.52,17.88,17.88,0,0,1-6.32-4.5L40.22,43q5.34,4.86,10.44,4.86a8.09,8.09,0,0,0,5.22-1.64,5.17,5.17,0,0,0,2-4.23,5.87,5.87,0,0,0-1.71-4.57,7.1,7.1,0,0,0-5-1.56,7.07,7.07,0,0,0-3.15.69,12.78,12.78,0,0,0-3,2.13L40,35.7,40.58,13h24l.06,7.08H48.26L48,29.94c.58-.28,1.09-.51,1.52-.69a11.09,11.09,0,0,1,1.25-.45A6.62,6.62,0,0,1,52,28.56c.46,0,1-.06,1.57-.06a12.89,12.89,0,0,1,5,.94,10.9,10.9,0,0,1,3.87,2.65A12.12,12.12,0,0,1,65,36.23,15.17,15.17,0,0,1,65.9,41.56Z"/></svg>