<svg id="Layer_1" data-name="Layer 1" xmlns="http://www.w3.org/2000/svg" viewBox="0 0 69.71 64.98"><defs><style>.cls-1{fill:#b7b6b6;stroke:#040421;}</style></defs><path class="cls-1" d="M33.63,39a8.35,8.35,0,0,1-3.29,6.79,12.24,12.24,0,0,1-3.91,1.95,17.77,17.77,0,0,1-5.1.69,21.71,21.71,0,0,1-3.88-.31,13.88,13.88,0,0,1-3.22-1,12.39,12.39,0,0,1-2.85-1.8,21.29,21.29,0,0,1-2.7-2.74L12,38.12q3.9,4.4,8.35,4.39a6.06,6.06,0,0,0,3.92-1.15,4,4,0,0,0,1.53-3.06,3.9,3.9,0,0,0-.4-2.17,4,4,0,0,0-1.7-1.68,9.69,9.69,0,0,0-3.35-1,26.42,26.42,0,0,0-5.3-.1V27.46a35.93,35.93,0,0,0,5,.06,9.11,9.11,0,0,0,3.1-.68,3.36,3.36,0,0,0,1.6-1.42,4.55,4.55,0,0,0,.48-2.19,3.63,3.63,0,0,0-1.45-2.77,5.71,5.71,0,0,0-3.6-1.05,8.4,8.4,0,0,0-3.55.79A14.19,14.19,0,0,0,13,22.73L10.23,18Q14,13.52,21.78,13.51a14.72,14.72,0,0,1,4.41.63,10,10,0,0,1,3.36,1.8,7.87,7.87,0,0,1,2.15,2.78,8.61,8.61,0,0,1,.75,3.66A7.57,7.57,0,0,1,31,27.19a11.27,11.27,0,0,1-4.8,3.22,9.39,9.39,0,0,1,5.53,2.82A8.35,8.35,0,0,1,33.63,39Z"/><path class="cls-1" d="M37.58,48.41l.05-3.92q1.54-1.82,3.27-3.61l3.43-3.55q1.7-1.77,3.25-3.46a31.46,31.46,0,0,0,2.72-3.41,18.91,18.91,0,0,0,1.88-3.39,8.78,8.78,0,0,0,.7-3.38,3.76,3.76,0,0,0-1.3-3,4.73,4.73,0,0,0-3.2-1.12,5.35,5.35,0,0,0-2.43.53,6.38,6.38,0,0,0-1.85,1.39,11,11,0,0,0-1.35,1.87,16.47,16.47,0,0,0-1,2.05L37,22c.33-.75.75-1.61,1.25-2.58a9.91,9.91,0,0,1,2.17-2.75,12.2,12.2,0,0,1,3.7-2.22,16,16,0,0,1,5.83-.91,14.07,14.07,0,0,1,4.41.66,10.14,10.14,0,0,1,3.43,1.88A8.2,8.2,0,0,1,60,19a9.45,9.45,0,0,1,.77,3.87,13,13,0,0,1-1.48,5.95,31,31,0,0,1-3.57,5.53,41.4,41.4,0,0,1-4.4,4.7c-1.54,1.4-2.84,2.56-3.9,3.46H61v5.9Z"/></svg>