<svg id="Layer_1" data-name="Layer 1" xmlns="http://www.w3.org/2000/svg" viewBox="0 0 69.71 64.98"><defs><style>.cls-1{fill:#022749;}</style></defs><path class="cls-1" d="M31.18,35.51a10.84,10.84,0,0,1-.74,4.09,8.69,8.69,0,0,1-5.23,5.11,11.64,11.64,0,0,1-4.2.71,11.53,11.53,0,0,1-4.4-.8,9.35,9.35,0,0,1-3.38-2.28,10.45,10.45,0,0,1-2.18-3.54,12.85,12.85,0,0,1-.77-4.59,16.52,16.52,0,0,1,.93-5.42,29.33,29.33,0,0,1,2.43-5.22A38.82,38.82,0,0,1,17,18.79a45.72,45.72,0,0,1,3.79-4.08h7.43a45.42,45.42,0,0,0-5.45,5.9,47.14,47.14,0,0,0-4.45,6.82c.46-.27.88-.49,1.25-.67a9.1,9.1,0,0,1,1.06-.41,5.06,5.06,0,0,1,1-.22,8.9,8.9,0,0,1,4.55.62,7.66,7.66,0,0,1,2.63,1.95,9.55,9.55,0,0,1,1.72,3A11.06,11.06,0,0,1,31.18,35.51Zm-5.86.12a4.34,4.34,0,0,0-1-3.07,3.64,3.64,0,0,0-2.79-1.13,5.84,5.84,0,0,0-4.09,1.73c-.09.44-.14.77-.17,1a6.41,6.41,0,0,0-.05.86,4.89,4.89,0,0,0,1.2,3.42,4,4,0,0,0,3.11,1.32,3.61,3.61,0,0,0,2.79-1.14A4.2,4.2,0,0,0,25.32,35.63Z"/><path class="cls-1" d="M55.33,35.51a10.84,10.84,0,0,1-.73,4.09,8.75,8.75,0,0,1-5.24,5.11,11.64,11.64,0,0,1-4.2.71,11.48,11.48,0,0,1-4.39-.8,9.39,9.39,0,0,1-3.39-2.28,10.42,10.42,0,0,1-2.17-3.54,12.85,12.85,0,0,1-.78-4.59,16.28,16.28,0,0,1,.94-5.42,28.65,28.65,0,0,1,2.43-5.22,37.78,37.78,0,0,1,3.37-4.78A45.66,45.66,0,0,1,45,14.71h7.44a46.19,46.19,0,0,0-5.46,5.9,47.07,47.07,0,0,0-4.44,6.82c.46-.27.88-.49,1.25-.67a8.36,8.36,0,0,1,1-.41,5,5,0,0,1,1-.22,8.86,8.86,0,0,1,4.54.62A7.57,7.57,0,0,1,53,28.7a9.38,9.38,0,0,1,1.73,3A11.3,11.3,0,0,1,55.33,35.51Zm-5.85.12a4.39,4.39,0,0,0-1-3.07,3.64,3.64,0,0,0-2.79-1.13,5.82,5.82,0,0,0-4.09,1.73q-.14.66-.18,1a6.68,6.68,0,0,0,0,.86,4.93,4.93,0,0,0,1.19,3.42,4,4,0,0,0,3.11,1.32,3.62,3.62,0,0,0,2.8-1.14A4.24,4.24,0,0,0,49.48,35.63Z"/></svg>