<svg id="Layer_1" data-name="Layer 1" xmlns="http://www.w3.org/2000/svg" viewBox="0 0 69.71 64.98"><defs><style>.cls-1{fill:#868687;}</style></defs><path class="cls-1" d="M33.36,40.71a7.48,7.48,0,0,1-.74,3.35,7.38,7.38,0,0,1-2.15,2.62A10.47,10.47,0,0,1,27,48.4a15.43,15.43,0,0,1-4.49.61,19.57,19.57,0,0,1-3.41-.27,12.37,12.37,0,0,1-2.84-.88,10.86,10.86,0,0,1-2.51-1.58,18.73,18.73,0,0,1-2.37-2.41L14.31,40q3.44,3.87,7.35,3.87a5.29,5.29,0,0,0,3.45-1,3.91,3.91,0,0,0,1-4.6,3.61,3.61,0,0,0-1.5-1.47,8.56,8.56,0,0,0-2.95-.87A23.13,23.13,0,0,0,17,35.77V30.58a33.17,33.17,0,0,0,4.42,0,7.58,7.58,0,0,0,2.73-.6,3,3,0,0,0,1.4-1.24A4,4,0,0,0,26,26.85a3.2,3.2,0,0,0-1.27-2.44,5.08,5.08,0,0,0-3.17-.92,7.4,7.4,0,0,0-3.13.69,12.83,12.83,0,0,0-3.16,2.23l-2.47-4.16q3.3-3.94,10.17-3.95a13,13,0,0,1,3.88.55,8.77,8.77,0,0,1,2.95,1.58,6.85,6.85,0,0,1,1.9,2.45,7.6,7.6,0,0,1,.66,3.22,6.71,6.71,0,0,1-1.28,4.24,10,10,0,0,1-4.22,2.83,8.26,8.26,0,0,1,4.86,2.48A7.32,7.32,0,0,1,33.36,40.71Z"/><path class="cls-1" d="M46,49H39.39L50.92,23.49H37.1V18.3H57.83v4.57Z"/></svg>