<svg id="Layer_1" data-name="Layer 1" xmlns="http://www.w3.org/2000/svg" viewBox="0 0 69.71 64.98"><defs><style>.cls-1{fill:#868687;}</style></defs><path class="cls-1" d="M19.61,46V22c-.58.68-1.14,1.29-1.67,1.83l-1.72,1.74-2.9-4c.88-.76,1.73-1.52,2.55-2.29S17.3,18,18,17.27a24.49,24.49,0,0,0,1.81-2h5.62V46Z"/><path class="cls-1" d="M53.89,46H48l.35-13a7.86,7.86,0,0,1-2.5,1.54,8.69,8.69,0,0,1-3,.44,9.29,9.29,0,0,1-3.68-.7,8.14,8.14,0,0,1-2.83-2,9,9,0,0,1-1.83-3.1,12,12,0,0,1-.64-4.05,12,12,0,0,1,.77-4.38,9.07,9.07,0,0,1,5.63-5.41,13.46,13.46,0,0,1,4.56-.73A9.66,9.66,0,0,1,52,17.18a9.24,9.24,0,0,1,2.42,7.09ZM48.3,23.61A3.45,3.45,0,0,0,48,22.18a3.4,3.4,0,0,0-.79-1.12A3.34,3.34,0,0,0,46,20.31,4.14,4.14,0,0,0,44.52,20a4.07,4.07,0,0,0-3.22,1.37,5.5,5.5,0,0,0-1.18,3.74,4.85,4.85,0,0,0,1,3.3A3.63,3.63,0,0,0,44,29.64a4,4,0,0,0,3-1.19,4.84,4.84,0,0,0,1.24-3.3Z"/></svg>