<svg id="Layer_1" data-name="Layer 1" xmlns="http://www.w3.org/2000/svg" viewBox="0 0 69.71 64.98"><defs><style>.cls-1{fill:#fff;stroke:#040421;}</style></defs><path class="cls-1" d="M35.84,39a8.42,8.42,0,0,1-3.29,6.79,12.24,12.24,0,0,1-3.91,1.95,17.77,17.77,0,0,1-5.1.69,21.71,21.71,0,0,1-3.88-.31,13.88,13.88,0,0,1-3.22-1,12.39,12.39,0,0,1-2.85-1.8,21.29,21.29,0,0,1-2.7-2.74l3.3-4.45q3.9,4.4,8.35,4.39a6.06,6.06,0,0,0,3.92-1.15A4,4,0,0,0,28,38.3a3.9,3.9,0,0,0-.4-2.17,4,4,0,0,0-1.7-1.68,9.69,9.69,0,0,0-3.35-1,26.42,26.42,0,0,0-5.3-.1V27.46a35.93,35.93,0,0,0,5,.06,9.11,9.11,0,0,0,3.1-.68A3.36,3.36,0,0,0,27,25.42a4.55,4.55,0,0,0,.48-2.19A3.63,3.63,0,0,0,26,20.46a5.71,5.71,0,0,0-3.6-1.05,8.4,8.4,0,0,0-3.55.79,14.19,14.19,0,0,0-3.6,2.53L12.44,18Q16.19,13.52,24,13.51a14.72,14.72,0,0,1,4.41.63,10,10,0,0,1,3.36,1.8,7.87,7.87,0,0,1,2.15,2.78,8.61,8.61,0,0,1,.75,3.66,7.57,7.57,0,0,1-1.45,4.81,11.27,11.27,0,0,1-4.8,3.22,9.39,9.39,0,0,1,5.53,2.82A8.35,8.35,0,0,1,35.84,39Z"/><path class="cls-1" d="M50.44,48.41V21.15c-.67.77-1.3,1.46-1.9,2.08s-1.25,1.27-1.95,2l-3.3-4.5c1-.86,2-1.73,2.9-2.59s1.61-1.52,2.45-2.35a29.15,29.15,0,0,0,2.06-2.25h6.39v34.9Z"/></svg>