<svg id="Layer_1" data-name="Layer 1" xmlns="http://www.w3.org/2000/svg" viewBox="0 0 69.71 64.98"><defs><style>.cls-1{fill:#022749;}</style></defs><path class="cls-1" d="M30.94,35.51a10.84,10.84,0,0,1-.74,4.09,8.94,8.94,0,0,1-2,3.12,9,9,0,0,1-3.19,2,11.64,11.64,0,0,1-4.2.71,11.53,11.53,0,0,1-4.4-.8A9.35,9.35,0,0,1,13,42.34a10.45,10.45,0,0,1-2.18-3.54A12.85,12.85,0,0,1,10,34.21,16.52,16.52,0,0,1,11,28.79a29.33,29.33,0,0,1,2.43-5.22,38.82,38.82,0,0,1,3.37-4.78,45.72,45.72,0,0,1,3.79-4.08H28a46.13,46.13,0,0,0-5.45,5.9,47.14,47.14,0,0,0-4.45,6.82c.46-.27.88-.49,1.25-.67a9.1,9.1,0,0,1,1.06-.41,5.06,5.06,0,0,1,1-.22,8.27,8.27,0,0,1,1.17-.07,8.14,8.14,0,0,1,3.38.69,7.66,7.66,0,0,1,2.63,1.95,9.55,9.55,0,0,1,1.72,3A11.06,11.06,0,0,1,30.94,35.51Zm-5.86.12a4.34,4.34,0,0,0-1-3.07,3.61,3.61,0,0,0-2.79-1.13,5.84,5.84,0,0,0-4.09,1.73c-.08.44-.14.77-.17,1a6.41,6.41,0,0,0,0,.86,4.89,4.89,0,0,0,1.2,3.42,4,4,0,0,0,3.11,1.32A3.61,3.61,0,0,0,24,38.61,4.2,4.2,0,0,0,25.08,35.63Z"/><path class="cls-1" d="M34.19,45.42,34.24,42c.9-1.07,1.87-2.13,2.88-3.18l3-3.13c1-1,1.95-2,2.86-3a26.72,26.72,0,0,0,2.4-3,16.81,16.81,0,0,0,1.65-3,7.65,7.65,0,0,0,.62-3,3.28,3.28,0,0,0-1.15-2.59,4.14,4.14,0,0,0-2.81-1,4.65,4.65,0,0,0-2.14.47,5.49,5.49,0,0,0-1.63,1.22,8.83,8.83,0,0,0-1.18,1.65,13.38,13.38,0,0,0-.86,1.8l-4.23-3.07c.3-.66.66-1.42,1.1-2.27a8.67,8.67,0,0,1,1.92-2.42,10.39,10.39,0,0,1,3.25-2,14.09,14.09,0,0,1,5.13-.8,12.29,12.29,0,0,1,3.88.58,8.64,8.64,0,0,1,3,1.65,7.16,7.16,0,0,1,1.93,2.59,8.37,8.37,0,0,1,.67,3.41,11.58,11.58,0,0,1-1.29,5.24,28.1,28.1,0,0,1-3.15,4.87,35.69,35.69,0,0,1-3.87,4.13c-1.35,1.23-2.5,2.25-3.43,3h12v5.19Z"/></svg>