<svg id="Layer_1" data-name="Layer 1" xmlns="http://www.w3.org/2000/svg" viewBox="0 0 69.71 64.98"><defs><style>.cls-1{fill:#022749;}</style></defs><path class="cls-1" d="M43.59,40.07a7.41,7.41,0,0,1-2.9,6,10.66,10.66,0,0,1-3.44,1.71,15.42,15.42,0,0,1-4.49.62,19.51,19.51,0,0,1-3.41-.28,12,12,0,0,1-2.84-.87A11,11,0,0,1,24,45.63a18.14,18.14,0,0,1-2.38-2.41l2.9-3.92q3.43,3.87,7.35,3.87a5.34,5.34,0,0,0,3.46-1,3.93,3.93,0,0,0,1-4.61,3.66,3.66,0,0,0-1.5-1.47,8.49,8.49,0,0,0-2.95-.87,24.69,24.69,0,0,0-4.66-.09V29.93a33.42,33.42,0,0,0,4.42.05,8,8,0,0,0,2.73-.6,3,3,0,0,0,1.41-1.25,4,4,0,0,0,.41-1.93,3.14,3.14,0,0,0-1.27-2.43,5,5,0,0,0-3.17-.92,7.32,7.32,0,0,0-3.12.69,12.42,12.42,0,0,0-3.17,2.23L23,21.61q3.3-4,10.17-4a12.62,12.62,0,0,1,3.88.56,8.65,8.65,0,0,1,3,1.58,6.85,6.85,0,0,1,1.89,2.45,7.55,7.55,0,0,1,.66,3.21,6.69,6.69,0,0,1-1.28,4.24,10,10,0,0,1-4.22,2.84A8.31,8.31,0,0,1,41.92,35,7.4,7.4,0,0,1,43.59,40.07Z"/></svg>