<svg id="Layer_1" data-name="Layer 1" xmlns="http://www.w3.org/2000/svg" viewBox="0 0 69.71 64.98"><defs><style>.cls-1{fill:#ffe8d9;stroke:#2d1606;stroke-miterlimit:10;}</style></defs><path class="cls-1" d="M33,44.36a15,15,0,0,1-1,5.59,12.08,12.08,0,0,1-7.14,7,16.24,16.24,0,0,1-5.73,1,15.86,15.86,0,0,1-6-1.09,12.74,12.74,0,0,1-4.61-3.11,14.54,14.54,0,0,1-3-4.83,17.68,17.68,0,0,1-1.06-6.26,22.39,22.39,0,0,1,1.28-7.38,38.93,38.93,0,0,1,3.32-7.12,51.82,51.82,0,0,1,4.59-6.53A62.24,62.24,0,0,1,18.89,16H29a63.24,63.24,0,0,0-7.44,8.05,64.79,64.79,0,0,0-6.06,9.29q.95-.54,1.71-.9a11.27,11.27,0,0,1,1.44-.57,8.08,8.08,0,0,1,1.38-.3,12.65,12.65,0,0,1,1.59-.09,11,11,0,0,1,4.61.94,10.2,10.2,0,0,1,3.58,2.66,12.79,12.79,0,0,1,2.35,4.1A15.17,15.17,0,0,1,33,44.36Zm-8,.17a5.92,5.92,0,0,0-1.43-4.18,4.91,4.91,0,0,0-3.8-1.55,7.93,7.93,0,0,0-5.57,2.36c-.12.6-.21,1.05-.24,1.35A9,9,0,0,0,14,43.69a6.72,6.72,0,0,0,1.63,4.66,5.48,5.48,0,0,0,4.24,1.79,4.93,4.93,0,0,0,3.81-1.54A5.77,5.77,0,0,0,25.07,44.53Z"/><path class="cls-1" d="M64.06,57.88H56l.48-17.7a11,11,0,0,1-3.42,2.1,12,12,0,0,1-4,.6,12.64,12.64,0,0,1-5-1,11.07,11.07,0,0,1-3.87-2.73A12.21,12.21,0,0,1,37.69,35a16.48,16.48,0,0,1-.87-5.52,16.19,16.19,0,0,1,1-6,12.66,12.66,0,0,1,3-4.53,12.82,12.82,0,0,1,4.71-2.85,18.47,18.47,0,0,1,6.21-1q6.24,0,9.72,3.48t3.3,9.66ZM56.44,27.34a4.72,4.72,0,0,0-.39-1.95A4.83,4.83,0,0,0,55,23.86a4.79,4.79,0,0,0-1.65-1,5.76,5.76,0,0,0-2-.36,5.51,5.51,0,0,0-4.38,1.86,7.5,7.5,0,0,0-1.62,5.1,6.63,6.63,0,0,0,1.41,4.5,4.93,4.93,0,0,0,3.93,1.62,5.41,5.41,0,0,0,4.08-1.62,6.64,6.64,0,0,0,1.68-4.5Z"/></svg>