<svg id="Layer_1" data-name="Layer 1" xmlns="http://www.w3.org/2000/svg" viewBox="0 0 69.71 64.98"><defs><style>.cls-1{fill:#87786f;stroke:#2d1606;stroke-miterlimit:10;}</style></defs><path class="cls-1" d="M17.63,54.29V21.58q-1.2,1.38-2.28,2.49T13,26.44l-4-5.4q1.8-1.56,3.48-3.12c1-.87,1.94-1.81,2.94-2.81a36,36,0,0,0,2.47-2.7h7.67V54.29Z"/><path class="cls-1" d="M66.29,40.77a15,15,0,0,1-1,5.59,11.94,11.94,0,0,1-7.14,7,16.24,16.24,0,0,1-5.73,1,15.9,15.9,0,0,1-6-1.09,12.83,12.83,0,0,1-4.61-3.11,14.54,14.54,0,0,1-3-4.83A17.68,17.68,0,0,1,37.79,39a22.38,22.38,0,0,1,1.27-7.38,38.93,38.93,0,0,1,3.32-7.12A51.9,51.9,0,0,1,47,18a60.74,60.74,0,0,1,5.15-5.56H62.27a63.18,63.18,0,0,0-7.43,8.05,65.73,65.73,0,0,0-6.07,9.29q.94-.54,1.71-.9a11.27,11.27,0,0,1,1.44-.57A8.08,8.08,0,0,1,53.3,28a12.65,12.65,0,0,1,1.59-.09,11,11,0,0,1,4.61.94,10.24,10.24,0,0,1,3.59,2.66,12.77,12.77,0,0,1,2.34,4.1A15.17,15.17,0,0,1,66.29,40.77Zm-8,.17a5.9,5.9,0,0,0-1.43-4.18,4.91,4.91,0,0,0-3.8-1.55,7.93,7.93,0,0,0-5.57,2.36q-.18.9-.24,1.35a9.26,9.26,0,0,0-.06,1.18,6.71,6.71,0,0,0,1.62,4.66,5.49,5.49,0,0,0,4.25,1.79A4.91,4.91,0,0,0,56.88,45,5.77,5.77,0,0,0,58.31,40.94Z"/></svg>