<svg id="Layer_1" data-name="Layer 1" xmlns="http://www.w3.org/2000/svg" viewBox="0 0 69.71 64.98"><defs><style>.cls-1{fill:#022749;}</style></defs><path class="cls-1" d="M31.62,38.12a6.68,6.68,0,0,1-2.76,5.7q-2.76,2.05-7.68,2a16.73,16.73,0,0,1-4.58-.58,11.47,11.47,0,0,1-3.53-1.61,7.69,7.69,0,0,1-2.29-2.51,6.75,6.75,0,0,1-.81-3.3,6.64,6.64,0,0,1,1.47-4.44,12.4,12.4,0,0,1,4.91-3.11c-1.2-.75-2.17-1.4-2.9-2a8.16,8.16,0,0,1-1.7-1.66A5.05,5.05,0,0,1,10.94,25a9,9,0,0,1-.22-2.15,6.75,6.75,0,0,1,2.55-5.66q2.55-2,7.83-2a15.38,15.38,0,0,1,4.16.52,10.11,10.11,0,0,1,3.19,1.47,6.43,6.43,0,0,1,2.73,5.37,6.79,6.79,0,0,1-1.3,4.17A12.51,12.51,0,0,1,25.59,30a10.92,10.92,0,0,1,4.59,3.32A7.8,7.8,0,0,1,31.62,38.12Zm-5.85-.55a3,3,0,0,0-.36-1.52,3.27,3.27,0,0,0-1-1.11A8.84,8.84,0,0,0,22.75,34q-.95-.44-2.13-.87a8.86,8.86,0,0,0-3.21,1.64A2.92,2.92,0,0,0,16.48,37a3.14,3.14,0,0,0,1.32,2.67,5.88,5.88,0,0,0,3.57,1,5.38,5.38,0,0,0,3.21-.85A2.65,2.65,0,0,0,25.77,37.57Zm-.84-14a2.85,2.85,0,0,0-1.16-2.35,4.88,4.88,0,0,0-3.06-.91A4.24,4.24,0,0,0,18,21.2a2.65,2.65,0,0,0-1.06,2.16q0,2.31,4.23,4.12a6.6,6.6,0,0,0,3-1.67A3.3,3.3,0,0,0,24.93,23.61Z"/><path class="cls-1" d="M55.25,37.57a7.62,7.62,0,0,1-.74,3.35,7.43,7.43,0,0,1-2.16,2.62,10.38,10.38,0,0,1-3.44,1.72,15.38,15.38,0,0,1-4.49.61A19.65,19.65,0,0,1,41,45.6a12.86,12.86,0,0,1-2.84-.87,11,11,0,0,1-2.5-1.59,18.14,18.14,0,0,1-2.38-2.41l2.9-3.92q3.44,3.87,7.35,3.87a5.4,5.4,0,0,0,3.46-1A3.59,3.59,0,0,0,48.34,37,3.54,3.54,0,0,0,48,35.06a3.61,3.61,0,0,0-1.5-1.47,8.49,8.49,0,0,0-3-.87,23.11,23.11,0,0,0-4.66-.09V27.44a31.55,31.55,0,0,0,4.42,0A7.82,7.82,0,0,0,46,26.89a3.06,3.06,0,0,0,1.41-1.25,4.14,4.14,0,0,0,.42-1.93,3.21,3.21,0,0,0-1.28-2.44,5.06,5.06,0,0,0-3.17-.92,7.32,7.32,0,0,0-3.12.69,13,13,0,0,0-3.17,2.23l-2.47-4.16c2.21-2.63,5.59-3.95,10.17-3.95a12.62,12.62,0,0,1,3.88.56,8.8,8.8,0,0,1,3,1.57,7,7,0,0,1,1.89,2.45A7.6,7.6,0,0,1,54.21,23a6.71,6.71,0,0,1-1.28,4.24A10,10,0,0,1,48.71,30a8.32,8.32,0,0,1,4.87,2.48A7.39,7.39,0,0,1,55.25,37.57Z"/></svg>