<svg id="Layer_1" data-name="Layer 1" xmlns="http://www.w3.org/2000/svg" viewBox="0 0 69.71 64.98"><defs><style>.cls-1{fill:#87786f;stroke:#2d1606;stroke-miterlimit:10;}</style></defs><path class="cls-1" d="M49.36,40.66q0,6.39-3.88,9.86T34.61,54a20.43,20.43,0,0,1-8-1.52A17.79,17.79,0,0,1,20.32,48l3.36-5.92Q29,46.92,34.12,46.92a8,8,0,0,0,5.22-1.64,5.17,5.17,0,0,0,2-4.23,5.87,5.87,0,0,0-1.71-4.57,7.1,7.1,0,0,0-5-1.56,7.07,7.07,0,0,0-3.15.69,12.78,12.78,0,0,0-3,2.13L23.44,34.8,24,12.12H48l.06,7.08H31.72L31.42,29c.58-.28,1.08-.51,1.51-.69a12.71,12.71,0,0,1,1.25-.45,6.76,6.76,0,0,1,1.31-.24c.47,0,1-.06,1.58-.06a13,13,0,0,1,5,.94A11.08,11.08,0,0,1,46,31.19a12.28,12.28,0,0,1,2.51,4.14A15.17,15.17,0,0,1,49.36,40.66Z"/></svg>