<svg id="Layer_1" data-name="Layer 1" xmlns="http://www.w3.org/2000/svg" viewBox="0 0 69.71 64.98"><defs><style>.cls-1{fill:#ffe8d9;stroke:#2d1606;stroke-miterlimit:10;}</style></defs><path class="cls-1" d="M50.85,42.68a10.3,10.3,0,0,1-1,4.56,10.19,10.19,0,0,1-2.94,3.58,14.42,14.42,0,0,1-4.69,2.34,21,21,0,0,1-6.12.84,25.28,25.28,0,0,1-4.65-.38,16.15,16.15,0,0,1-3.87-1.19,14.87,14.87,0,0,1-3.42-2.16A25.32,25.32,0,0,1,20.91,47l4-5.34q4.68,5.28,10,5.28a7.24,7.24,0,0,0,4.71-1.39,4.82,4.82,0,0,0,1.83-3.67,4.76,4.76,0,0,0-.48-2.6,4.9,4.9,0,0,0-2-2,11.82,11.82,0,0,0-4-1.18,32.3,32.3,0,0,0-6.36-.12V28.86a44.2,44.2,0,0,0,6,.06,10.73,10.73,0,0,0,3.72-.81A4.06,4.06,0,0,0,40.2,26.4a5.46,5.46,0,0,0,.57-2.62A4.32,4.32,0,0,0,39,20.46a6.85,6.85,0,0,0-4.32-1.26,10,10,0,0,0-4.26.94,17.29,17.29,0,0,0-4.32,3l-3.36-5.67q4.5-5.39,13.86-5.39a17.07,17.07,0,0,1,5.29.76A11.86,11.86,0,0,1,46,15a9.43,9.43,0,0,1,2.58,3.34,10.3,10.3,0,0,1,.9,4.38,9.17,9.17,0,0,1-1.74,5.79,13.65,13.65,0,0,1-5.76,3.86,11.23,11.23,0,0,1,6.64,3.38A10,10,0,0,1,50.85,42.68Z"/></svg>