<svg id="Layer_1" data-name="Layer 1" xmlns="http://www.w3.org/2000/svg" viewBox="0 0 69.71 64.98"><defs><style>.cls-1{fill:#022749;}</style></defs><path class="cls-1" d="M32.54,33.93a9.23,9.23,0,0,1-2.84,7.23q-2.85,2.55-8,2.55a15,15,0,0,1-5.85-1.11,13.12,13.12,0,0,1-4.63-3.3L13.71,35q3.91,3.56,7.66,3.56a5.9,5.9,0,0,0,3.82-1.2,3.79,3.79,0,0,0,1.5-3.1,4.32,4.32,0,0,0-1.25-3.35,5.19,5.19,0,0,0-3.63-1.15,5.16,5.16,0,0,0-2.31.51,9.5,9.5,0,0,0-2.18,1.56l-3.79-2.16L14,13h17.6l.05,5.19h-12l-.22,7.22,1.11-.51c.31-.13.62-.24.91-.33a5.59,5.59,0,0,1,1-.17c.34,0,.72,0,1.15,0A9.48,9.48,0,0,1,27.2,25,8,8,0,0,1,30,27a8.8,8.8,0,0,1,1.84,3A11.18,11.18,0,0,1,32.54,33.93Z"/><path class="cls-1" d="M45.92,43.71v-24c-.59.68-1.15,1.29-1.67,1.83l-1.72,1.74-2.9-4c.88-.76,1.73-1.52,2.55-2.29S43.6,15.71,44.33,15a24.81,24.81,0,0,0,1.82-2h5.62V43.71Z"/></svg>