<svg id="Layer_1" data-name="Layer 1" xmlns="http://www.w3.org/2000/svg" viewBox="0 0 69.71 64.98"><defs><style>.cls-1{fill:#022749;}</style></defs><path class="cls-1" d="M31.7,38.12a6.68,6.68,0,0,1-2.76,5.7c-1.84,1.37-4.39,2-7.67,2a16.68,16.68,0,0,1-4.58-.58,11.37,11.37,0,0,1-3.53-1.61,7.48,7.48,0,0,1-2.29-2.51,6.75,6.75,0,0,1-.81-3.3,6.64,6.64,0,0,1,1.47-4.44,12.35,12.35,0,0,1,4.9-3.11c-1.2-.75-2.17-1.4-2.9-2a8.09,8.09,0,0,1-1.69-1.66A4.9,4.9,0,0,1,11,25a9.55,9.55,0,0,1-.22-2.15,6.75,6.75,0,0,1,2.55-5.66q2.57-2,7.84-2a15.31,15.31,0,0,1,4.15.52,10.16,10.16,0,0,1,3.2,1.47,6.57,6.57,0,0,1,2,2.32,6.5,6.5,0,0,1,.7,3.05A6.85,6.85,0,0,1,30,26.69,12.66,12.66,0,0,1,25.67,30a11,11,0,0,1,4.6,3.32A7.86,7.86,0,0,1,31.7,38.12Zm-5.85-.55a3.1,3.1,0,0,0-.35-1.52,3.48,3.48,0,0,0-1-1.11A9.18,9.18,0,0,0,22.84,34c-.63-.29-1.34-.58-2.14-.87a9,9,0,0,0-3.21,1.64A3,3,0,0,0,16.57,37a3.14,3.14,0,0,0,1.32,2.67,5.87,5.87,0,0,0,3.56,1,5.38,5.38,0,0,0,3.21-.85A2.62,2.62,0,0,0,25.85,37.57Zm-.84-14a2.83,2.83,0,0,0-1.16-2.35,4.88,4.88,0,0,0-3.06-.91,4.28,4.28,0,0,0-2.73.85,2.64,2.64,0,0,0-1,2.16q0,2.31,4.22,4.12a6.54,6.54,0,0,0,2.95-1.67A3.25,3.25,0,0,0,25,23.61Z"/><path class="cls-1" d="M55.55,36a10.93,10.93,0,0,1-.73,4.1,9,9,0,0,1-2,3.11,9.11,9.11,0,0,1-3.19,2,11.86,11.86,0,0,1-4.2.7A11.67,11.67,0,0,1,41,45.08a9.55,9.55,0,0,1-3.39-2.29,10.42,10.42,0,0,1-2.17-3.54,12.81,12.81,0,0,1-.78-4.59,16.56,16.56,0,0,1,.93-5.42A29,29,0,0,1,38,24a37.18,37.18,0,0,1,3.37-4.79,45.66,45.66,0,0,1,3.78-4.08H52.6a46.86,46.86,0,0,0-5.45,5.9,47.62,47.62,0,0,0-4.44,6.82A13,13,0,0,1,44,27.22a7.17,7.17,0,0,1,1-.42,5.78,5.78,0,0,1,1-.22,9.9,9.9,0,0,1,1.16-.07,8.11,8.11,0,0,1,3.38.69,7.57,7.57,0,0,1,2.63,1.95,9.57,9.57,0,0,1,1.73,3A11.3,11.3,0,0,1,55.55,36Zm-5.85.12a4.39,4.39,0,0,0-1-3.07,3.64,3.64,0,0,0-2.79-1.13,5.82,5.82,0,0,0-4.09,1.73q-.14.66-.18,1a6.78,6.78,0,0,0,0,.86,4.93,4.93,0,0,0,1.19,3.42,4,4,0,0,0,3.11,1.32,3.65,3.65,0,0,0,2.8-1.13A4.27,4.27,0,0,0,49.7,36.08Z"/></svg>