<svg id="Layer_1" data-name="Layer 1" xmlns="http://www.w3.org/2000/svg" viewBox="0 0 69.71 64.98"><defs><style>.cls-1{fill:#868687;}</style></defs><path class="cls-1" d="M31.36,37.74a10.93,10.93,0,0,1-.73,4.1A9,9,0,0,1,28.58,45a9.11,9.11,0,0,1-3.19,2,11.86,11.86,0,0,1-4.2.7,11.67,11.67,0,0,1-4.39-.79,9.55,9.55,0,0,1-3.39-2.29A10.42,10.42,0,0,1,11.24,41a12.77,12.77,0,0,1-.78-4.59A16.32,16.32,0,0,1,11.4,31a28.25,28.25,0,0,1,2.43-5.21A37.18,37.18,0,0,1,17.2,21,47.18,47.18,0,0,1,21,16.94h7.44A46.19,46.19,0,0,0,23,22.84a47.62,47.62,0,0,0-4.44,6.82c.46-.27.88-.49,1.25-.66a7.17,7.17,0,0,1,1.05-.42,5.78,5.78,0,0,1,1-.22A9.9,9.9,0,0,1,23,28.29a8.11,8.11,0,0,1,3.38.69A7.57,7.57,0,0,1,29,30.93a9.38,9.38,0,0,1,1.73,3A11.3,11.3,0,0,1,31.36,37.74Zm-5.85.12a4.39,4.39,0,0,0-1-3.07,3.64,3.64,0,0,0-2.79-1.13,5.82,5.82,0,0,0-4.09,1.73q-.14.66-.18,1a6.78,6.78,0,0,0,0,.86,4.93,4.93,0,0,0,1.19,3.42A4,4,0,0,0,21.67,42a3.65,3.65,0,0,0,2.8-1.13A4.27,4.27,0,0,0,25.51,37.86Z"/><path class="cls-1" d="M55.83,39.9a6.68,6.68,0,0,1-2.76,5.7q-2.76,2.05-7.68,2a16.73,16.73,0,0,1-4.58-.58,11.37,11.37,0,0,1-3.53-1.61A7.58,7.58,0,0,1,35,43a6.75,6.75,0,0,1-.81-3.3,6.64,6.64,0,0,1,1.47-4.44,12.33,12.33,0,0,1,4.91-3.11c-1.21-.75-2.17-1.4-2.91-2A8.63,8.63,0,0,1,36,28.47a4.82,4.82,0,0,1-.82-1.73,9.6,9.6,0,0,1-.21-2.15,6.75,6.75,0,0,1,2.55-5.66c1.7-1.32,4.31-2,7.83-2a15.43,15.43,0,0,1,4.16.52,10.21,10.21,0,0,1,3.19,1.47,6.57,6.57,0,0,1,2,2.32,6.5,6.5,0,0,1,.71,3.05,6.85,6.85,0,0,1-1.3,4.17,12.71,12.71,0,0,1-4.29,3.35,11.05,11.05,0,0,1,4.59,3.32A7.8,7.8,0,0,1,55.83,39.9ZM50,39.35a3,3,0,0,0-.35-1.52,3.37,3.37,0,0,0-1-1.11A9.86,9.86,0,0,0,47,35.81q-.95-.44-2.13-.87a9,9,0,0,0-3.22,1.64,3,3,0,0,0-.92,2.24A3.14,3.14,0,0,0,42,41.49a5.87,5.87,0,0,0,3.56,1,5.44,5.44,0,0,0,3.22-.85A2.64,2.64,0,0,0,50,39.35Zm-.83-14A2.85,2.85,0,0,0,48,23a4.88,4.88,0,0,0-3.06-.91,4.23,4.23,0,0,0-2.72.85,2.63,2.63,0,0,0-1.06,2.16q0,2.31,4.22,4.12a6.54,6.54,0,0,0,2.95-1.67A3.26,3.26,0,0,0,49.14,25.39Z"/></svg>