<svg id="Layer_1" data-name="Layer 1" xmlns="http://www.w3.org/2000/svg" viewBox="0 0 69.71 64.98"><defs><style>.cls-1{fill:#022749;}</style></defs><path class="cls-1" d="M30.59,33.93a9.19,9.19,0,0,1-2.84,7.23c-1.9,1.7-4.55,2.55-8,2.55a15,15,0,0,1-5.85-1.11A13.12,13.12,0,0,1,9.3,39.3L11.76,35q3.91,3.56,7.66,3.56a6,6,0,0,0,3.83-1.2,3.8,3.8,0,0,0,1.49-3.1,4.32,4.32,0,0,0-1.25-3.35,5.19,5.19,0,0,0-3.63-1.15,5.16,5.16,0,0,0-2.31.51,9.5,9.5,0,0,0-2.18,1.56l-3.78-2.16L12,13h17.6l0,5.19h-12l-.22,7.22,1.11-.51a9.29,9.29,0,0,1,.92-.33,5.64,5.64,0,0,1,1-.17c.34,0,.72,0,1.15,0a9.48,9.48,0,0,1,3.67.69A7.92,7.92,0,0,1,28.09,27a8.8,8.8,0,0,1,1.84,3A11.18,11.18,0,0,1,30.59,33.93Z"/><path class="cls-1" d="M43.79,43.71H37.15L48.68,18.19H34.86V13H55.59v4.57Z"/></svg>