<svg id="Layer_1" data-name="Layer 1" xmlns="http://www.w3.org/2000/svg" viewBox="0 0 69.71 64.98"><defs><style>.cls-1{fill:#868687;}</style></defs><path class="cls-1" d="M20.17,47.65H13.53L25.06,22.13H11.24V16.94H32v4.57Z"/><path class="cls-1" d="M57.09,31.77q0,8.39-2.89,12.13t-8.57,3.75q-5.68,0-8.58-3.77T34.17,32.32q0-7.76,2.88-11.57t8.58-3.81Q57.09,16.94,57.09,31.77ZM50.18,32c-.08-3.38-.47-5.79-1.15-7.23a3.46,3.46,0,0,0-3.36-2.17A3.69,3.69,0,0,0,42.27,25q-1.07,2.27-1.2,7.77a19.14,19.14,0,0,0,1.15,6.87A3.69,3.69,0,0,0,45.67,42,3.51,3.51,0,0,0,49,39.69C49.69,38.16,50.1,35.61,50.18,32Z"/></svg>