<svg id="Layer_1" data-name="Layer 1" xmlns="http://www.w3.org/2000/svg" viewBox="0 0 69.71 64.98"><defs><style>.cls-1{fill:#022749;}</style></defs><path class="cls-1" d="M10.13,47l0-3.46q1.37-1.59,2.88-3.17l3-3.13c1-1,1.95-2,2.86-3a26.72,26.72,0,0,0,2.4-3,16.46,16.46,0,0,0,1.65-3,7.62,7.62,0,0,0,.62-3,3.27,3.27,0,0,0-1.15-2.59,4.14,4.14,0,0,0-2.81-1,4.81,4.81,0,0,0-2.14.47,5.51,5.51,0,0,0-1.62,1.23A8.38,8.38,0,0,0,14.69,25a14,14,0,0,0-.86,1.8L9.61,23.7c.29-.66.66-1.42,1.1-2.27A8.77,8.77,0,0,1,12.62,19a10.84,10.84,0,0,1,3.26-2,14,14,0,0,1,5.12-.8,12.58,12.58,0,0,1,3.88.58,8.87,8.87,0,0,1,3,1.65,7.08,7.08,0,0,1,1.93,2.6,8.3,8.3,0,0,1,.68,3.41,11.56,11.56,0,0,1-1.3,5.23,27.73,27.73,0,0,1-3.15,4.87,36.64,36.64,0,0,1-3.87,4.14q-2,1.84-3.43,3h12V47Z"/><path class="cls-1" d="M43.49,47H36.84L48.37,21.46H34.55v-5.2H55.28v4.57Z"/></svg>