<svg id="Layer_1" data-name="Layer 1" xmlns="http://www.w3.org/2000/svg" viewBox="0 0 69.71 64.98"><defs><style>.cls-1{fill:#ffe8d9;stroke:#2d1606;stroke-miterlimit:10;}</style></defs><path class="cls-1" d="M33,43a14.81,14.81,0,0,1-1,5.59,12.05,12.05,0,0,1-2.79,4.24A12.23,12.23,0,0,1,24.9,55.5a15.94,15.94,0,0,1-5.73,1,15.81,15.81,0,0,1-6-1.09,12.64,12.64,0,0,1-4.61-3.12,14.17,14.17,0,0,1-3-4.82,17.45,17.45,0,0,1-1.06-6.26A22.39,22.39,0,0,1,5.82,33.8a38.57,38.57,0,0,1,3.31-7.12,52.2,52.2,0,0,1,4.6-6.53,62.24,62.24,0,0,1,5.16-5.56H29A65.94,65.94,0,0,0,15.53,31.93c.63-.36,1.19-.66,1.7-.9a11.27,11.27,0,0,1,1.44-.57,8.08,8.08,0,0,1,1.38-.3,12.65,12.65,0,0,1,1.59-.09,11,11,0,0,1,4.61.94,10.15,10.15,0,0,1,3.59,2.66,12.79,12.79,0,0,1,2.35,4.1A15.17,15.17,0,0,1,33,43Zm-8,.17a5.94,5.94,0,0,0-1.42-4.19,4.92,4.92,0,0,0-3.8-1.54,8,8,0,0,0-5.58,2.36q-.18.9-.24,1.35A9.19,9.19,0,0,0,14,42.27a6.64,6.64,0,0,0,1.63,4.66,5.44,5.44,0,0,0,4.24,1.8,4.93,4.93,0,0,0,3.81-1.54A5.77,5.77,0,0,0,25.06,43.12Z"/><path class="cls-1" d="M65.68,45.15a10.3,10.3,0,0,1-1,4.56,10.19,10.19,0,0,1-2.94,3.58A14.22,14.22,0,0,1,57,55.63a21,21,0,0,1-6.12.84,25.28,25.28,0,0,1-4.65-.38A16.15,16.15,0,0,1,42.4,54.9,14.87,14.87,0,0,1,39,52.74a25.32,25.32,0,0,1-3.24-3.29l4-5.34q4.68,5.28,10,5.28A7.24,7.24,0,0,0,54.43,48a4.82,4.82,0,0,0,1.83-3.66,4.69,4.69,0,0,0-.48-2.61,4.82,4.82,0,0,0-2-2,11.58,11.58,0,0,0-4-1.19,32.3,32.3,0,0,0-6.36-.12V31.33a46.14,46.14,0,0,0,6,.07,10.94,10.94,0,0,0,3.72-.82A4.06,4.06,0,0,0,55,28.87a5.46,5.46,0,0,0,.57-2.62,4.32,4.32,0,0,0-1.74-3.32,6.85,6.85,0,0,0-4.32-1.26,10,10,0,0,0-4.26.94,17.29,17.29,0,0,0-4.32,3L37.6,20q4.5-5.38,13.86-5.39a17.07,17.07,0,0,1,5.29.76,11.91,11.91,0,0,1,4,2.15,9.43,9.43,0,0,1,2.58,3.34,10.33,10.33,0,0,1,.9,4.38A9.15,9.15,0,0,1,62.53,31a13.56,13.56,0,0,1-5.76,3.86,11.29,11.29,0,0,1,6.63,3.38A10,10,0,0,1,65.68,45.15Z"/></svg>