<svg id="Layer_1" data-name="Layer 1" xmlns="http://www.w3.org/2000/svg" viewBox="0 0 75.35 64.98"><defs><style>.cls-1{fill:#022749;}</style></defs><path class="cls-1" d="M10.51,46.63v-24c-.58.67-1.14,1.28-1.67,1.82s-1.1,1.13-1.72,1.74l-2.9-4Q5.54,21.1,6.77,20c.71-.65,1.43-1.33,2.16-2.07a26.36,26.36,0,0,0,1.81-2h5.62V46.63Z"/><path class="cls-1" d="M47.25,30.74q0,8.4-2.89,12.14t-8.57,3.75q-5.68,0-8.57-3.77T24.33,31.29q0-7.74,2.89-11.56t8.57-3.81Q47.25,15.92,47.25,30.74ZM40.34,31q-.12-5.05-1.15-7.23a3.48,3.48,0,0,0-3.36-2.17,3.71,3.71,0,0,0-3.4,2.35q-1.07,2.28-1.19,7.77a18.62,18.62,0,0,0,1.15,6.87A3.66,3.66,0,0,0,35.83,41a3.49,3.49,0,0,0,3.3-2.29C39.85,37.14,40.26,34.58,40.34,31Z"/><path class="cls-1" d="M71.41,30.74q0,8.4-2.89,12.14T60,46.63q-5.69,0-8.58-3.77T48.48,31.29q0-7.74,2.89-11.56T60,15.92Q71.41,15.92,71.41,30.74ZM64.5,31q-.14-5.05-1.15-7.23A3.48,3.48,0,0,0,60,21.59a3.72,3.72,0,0,0-3.41,2.35c-.71,1.52-1.1,4.11-1.19,7.77a19.05,19.05,0,0,0,1.15,6.87A3.66,3.66,0,0,0,60,41a3.51,3.51,0,0,0,3.3-2.29Q64.37,36.38,64.5,31Z"/></svg>