<svg id="Layer_1" data-name="Layer 1" xmlns="http://www.w3.org/2000/svg" viewBox="0 0 69.71 64.98"><defs><style>.cls-1{fill:#87786f;stroke:#2d1606;stroke-miterlimit:10;}</style></defs><path class="cls-1" d="M32.33,40.92q0,6.39-3.88,9.87T17.58,54.27a20.26,20.26,0,0,1-8-1.53,17.54,17.54,0,0,1-6.32-4.5l3.36-5.91Q12,47.19,17.09,47.19a8.09,8.09,0,0,0,5.22-1.64,5.19,5.19,0,0,0,2-4.23,5.87,5.87,0,0,0-1.71-4.57,7.1,7.1,0,0,0-4.95-1.56,7.07,7.07,0,0,0-3.15.69,12.78,12.78,0,0,0-3,2.13L6.41,35.06,7,12.39H31l.06,7.08H14.69l-.3,9.84c.58-.28,1.08-.51,1.51-.69a12.71,12.71,0,0,1,1.25-.45,6.76,6.76,0,0,1,1.31-.24c.47,0,1-.06,1.58-.06a13,13,0,0,1,5,.94,11,11,0,0,1,3.87,2.65,12.15,12.15,0,0,1,2.5,4.13A15,15,0,0,1,32.33,40.92Z"/><path class="cls-1" d="M66.29,40.74a15,15,0,0,1-1,5.59,11.94,11.94,0,0,1-7.14,7,17.23,17.23,0,0,1-11.73-.12,13,13,0,0,1-4.61-3.12,14.49,14.49,0,0,1-3-4.82A17.73,17.73,0,0,1,37.79,39a22.38,22.38,0,0,1,1.27-7.38,39.24,39.24,0,0,1,3.32-7.12A51.9,51.9,0,0,1,47,17.94a59.3,59.3,0,0,1,5.15-5.55H62.27a62.41,62.41,0,0,0-7.43,8,65.26,65.26,0,0,0-6.07,9.3q.94-.54,1.71-.9a11.27,11.27,0,0,1,1.44-.57A8.08,8.08,0,0,1,53.3,28a12.65,12.65,0,0,1,1.59-.09,11.2,11.2,0,0,1,4.61.93,10.26,10.26,0,0,1,3.59,2.67,12.72,12.72,0,0,1,2.34,4.09A15.17,15.17,0,0,1,66.29,40.74Zm-8,.17a5.92,5.92,0,0,0-1.43-4.18,4.91,4.91,0,0,0-3.8-1.54,7.92,7.92,0,0,0-5.57,2.35q-.18.9-.24,1.35a9.26,9.26,0,0,0-.06,1.18,6.69,6.69,0,0,0,1.62,4.66,5.47,5.47,0,0,0,4.25,1.8A4.91,4.91,0,0,0,56.88,45,5.76,5.76,0,0,0,58.31,40.91Z"/></svg>