<svg id="Layer_1" data-name="Layer 1" xmlns="http://www.w3.org/2000/svg" viewBox="0 0 69.71 64.98"><defs><style>.cls-1{fill:#022749;}</style></defs><path class="cls-1" d="M31.74,38.12A6.68,6.68,0,0,1,29,43.82q-2.75,2.05-7.67,2a16.73,16.73,0,0,1-4.58-.58,11.37,11.37,0,0,1-3.53-1.61,7.48,7.48,0,0,1-2.29-2.51,6.76,6.76,0,0,1-.82-3.3,6.65,6.65,0,0,1,1.48-4.44,12.33,12.33,0,0,1,4.91-3.11,33.93,33.93,0,0,1-2.91-2,8.09,8.09,0,0,1-1.69-1.66A4.9,4.9,0,0,1,11.06,25a9.55,9.55,0,0,1-.22-2.15,6.73,6.73,0,0,1,2.56-5.66q2.55-2,7.83-2a15.43,15.43,0,0,1,4.16.52,10.15,10.15,0,0,1,3.18,1.47,6.6,6.6,0,0,1,2,2.32,6.5,6.5,0,0,1,.7,3.05A6.79,6.79,0,0,1,30,26.69,12.56,12.56,0,0,1,25.72,30a11.05,11.05,0,0,1,4.59,3.32A7.86,7.86,0,0,1,31.74,38.12Zm-5.85-.55a3.1,3.1,0,0,0-.35-1.52,3.41,3.41,0,0,0-1-1.11A8.73,8.73,0,0,0,22.88,34c-.63-.29-1.35-.58-2.14-.87a9,9,0,0,0-3.21,1.64A2.91,2.91,0,0,0,16.61,37a3.14,3.14,0,0,0,1.32,2.67,5.85,5.85,0,0,0,3.56,1,5.38,5.38,0,0,0,3.21-.85A2.65,2.65,0,0,0,25.89,37.57Zm-.83-14a2.84,2.84,0,0,0-1.17-2.35,4.88,4.88,0,0,0-3.06-.91,4.28,4.28,0,0,0-2.73.85,2.64,2.64,0,0,0-1.05,2.16c0,1.54,1.4,2.91,4.22,4.12a6.54,6.54,0,0,0,2.95-1.67A3.26,3.26,0,0,0,25.06,23.61Z"/><path class="cls-1" d="M54.84,36.09A9.19,9.19,0,0,1,52,43.32q-2.85,2.55-8,2.55a15,15,0,0,1-5.85-1.11,13.12,13.12,0,0,1-4.63-3.3L36,37.12q3.91,3.56,7.66,3.56a5.9,5.9,0,0,0,3.82-1.2,3.8,3.8,0,0,0,1.5-3.1A4.32,4.32,0,0,0,47.74,33a5.19,5.19,0,0,0-3.63-1.15,5.12,5.12,0,0,0-2.31.51A9.5,9.5,0,0,0,39.62,34l-3.79-2.16.44-16.63h17.6l.05,5.19h-12l-.22,7.22c.42-.21.79-.37,1.11-.51a9.29,9.29,0,0,1,.92-.33,5.31,5.31,0,0,1,1-.17c.34,0,.72,0,1.15,0a9.48,9.48,0,0,1,3.67.69,8,8,0,0,1,2.84,1.95,8.7,8.7,0,0,1,1.84,3A11.14,11.14,0,0,1,54.84,36.09Z"/></svg>