<svg id="Layer_1" data-name="Layer 1" xmlns="http://www.w3.org/2000/svg" viewBox="0 0 69.71 64.98"><defs><style>.cls-1{fill:#87786f;stroke:#2d1606;stroke-miterlimit:10;}</style></defs><path class="cls-1" d="M33,44.13a9.12,9.12,0,0,1-3.76,7.77q-3.77,2.81-10.47,2.8a23.2,23.2,0,0,1-6.24-.79A15.87,15.87,0,0,1,7.75,51.7a10.15,10.15,0,0,1-3.12-3.42,9.15,9.15,0,0,1-1.11-4.5,9,9,0,0,1,2-6.05,16.84,16.84,0,0,1,6.69-4.24c-1.64-1-3-1.92-4-2.68A11.33,11.33,0,0,1,6,28.54a6.65,6.65,0,0,1-1.11-2.35,12.7,12.7,0,0,1-.3-3A9.18,9.18,0,0,1,8,15.53q3.48-2.71,10.68-2.71a20.85,20.85,0,0,1,5.67.71,13.64,13.64,0,0,1,4.35,2,8.71,8.71,0,0,1,3.72,7.32,9.29,9.29,0,0,1-1.77,5.69,17.33,17.33,0,0,1-5.85,4.57,14.86,14.86,0,0,1,6.26,4.52A10.63,10.63,0,0,1,33,44.13Zm-8-.76a4.17,4.17,0,0,0-.48-2.07,4.8,4.8,0,0,0-1.41-1.52A13.4,13.4,0,0,0,21,38.54c-.86-.38-1.83-.78-2.91-1.18a12.32,12.32,0,0,0-4.38,2.23,4,4,0,0,0-1.26,3.06,4.26,4.26,0,0,0,1.8,3.64,8,8,0,0,0,4.86,1.33,7.41,7.41,0,0,0,4.38-1.16A3.61,3.61,0,0,0,25.06,43.37Zm-1.14-19a3.9,3.9,0,0,0-1.59-3.21,6.63,6.63,0,0,0-4.17-1.23,5.76,5.76,0,0,0-3.72,1.15A3.61,3.61,0,0,0,13,24q0,3.15,5.76,5.62a9.08,9.08,0,0,0,4-2.28A4.46,4.46,0,0,0,23.92,24.34Z"/><path class="cls-1" d="M66,44.13a9.12,9.12,0,0,1-3.76,7.77q-3.77,2.81-10.47,2.8a23.33,23.33,0,0,1-6.25-.79,15.92,15.92,0,0,1-4.81-2.21,10.15,10.15,0,0,1-3.12-3.42,9.15,9.15,0,0,1-1.11-4.5,9,9,0,0,1,2-6.05,16.84,16.84,0,0,1,6.69-4.24c-1.64-1-3-1.92-4-2.68a11.33,11.33,0,0,1-2.31-2.27,6.65,6.65,0,0,1-1.11-2.35,12.7,12.7,0,0,1-.3-3A9.18,9.18,0,0,1,41,15.53q3.48-2.71,10.68-2.71a20.85,20.85,0,0,1,5.67.71,13.64,13.64,0,0,1,4.35,2,8.71,8.71,0,0,1,3.72,7.32,9.29,9.29,0,0,1-1.77,5.69,17.33,17.33,0,0,1-5.85,4.57A14.86,14.86,0,0,1,64,37.63,10.63,10.63,0,0,1,66,44.13Zm-8-.76a4.17,4.17,0,0,0-.48-2.07,4.8,4.8,0,0,0-1.41-1.52,13.4,13.4,0,0,0-2.22-1.24c-.86-.38-1.83-.78-2.91-1.18a12.32,12.32,0,0,0-4.38,2.23,4,4,0,0,0-1.26,3.06,4.26,4.26,0,0,0,1.8,3.64A8,8,0,0,0,52,47.62a7.41,7.41,0,0,0,4.38-1.16A3.61,3.61,0,0,0,58,43.37Zm-1.14-19a3.9,3.9,0,0,0-1.59-3.21A6.63,6.63,0,0,0,51.1,19.9a5.76,5.76,0,0,0-3.72,1.15A3.61,3.61,0,0,0,45.94,24q0,3.15,5.76,5.62a9.08,9.08,0,0,0,4-2.28A4.46,4.46,0,0,0,56.86,24.34Z"/></svg>