<svg id="Layer_1" data-name="Layer 1" xmlns="http://www.w3.org/2000/svg" viewBox="0 0 69.71 64.98"><defs><style>.cls-1{fill:#022749;}</style></defs><path class="cls-1" d="M29.84,33.8a10.93,10.93,0,0,1-.74,4.1A8.77,8.77,0,0,1,23.87,43a11.86,11.86,0,0,1-4.2.7,11.72,11.72,0,0,1-4.4-.79,9.51,9.51,0,0,1-3.38-2.29,10.45,10.45,0,0,1-2.18-3.54,12.77,12.77,0,0,1-.77-4.59,16.46,16.46,0,0,1,.93-5.41,28,28,0,0,1,2.43-5.22,38.19,38.19,0,0,1,3.37-4.79A47.18,47.18,0,0,1,19.45,13h7.44a46.13,46.13,0,0,0-5.45,5.9A48.26,48.26,0,0,0,17,25.72c.46-.27.88-.49,1.25-.66a7.74,7.74,0,0,1,1.06-.42,5.87,5.87,0,0,1,1-.22,10.08,10.08,0,0,1,1.17-.07,8.14,8.14,0,0,1,3.38.69A7.66,7.66,0,0,1,27.49,27a9.55,9.55,0,0,1,1.72,3A11.1,11.1,0,0,1,29.84,33.8ZM24,33.92a4.34,4.34,0,0,0-1-3.07,3.64,3.64,0,0,0-2.79-1.13,5.84,5.84,0,0,0-4.09,1.73c-.08.44-.14.77-.17,1a6.52,6.52,0,0,0-.05.86A4.89,4.89,0,0,0,17,36.72,4,4,0,0,0,20.15,38a3.64,3.64,0,0,0,2.79-1.13A4.27,4.27,0,0,0,24,33.92Z"/><path class="cls-1" d="M55.05,27.83q0,8.39-2.89,12.14t-8.57,3.74c-3.8,0-6.65-1.25-8.58-3.77s-2.89-6.36-2.89-11.56,1-9,2.89-11.57S39.79,13,43.59,13Q55.05,13,55.05,27.83Zm-6.91.25Q48,23,47,20.85a3.46,3.46,0,0,0-3.36-2.17A3.71,3.71,0,0,0,40.22,21c-.71,1.51-1.1,4.1-1.19,7.77a19.14,19.14,0,0,0,1.15,6.87A3.69,3.69,0,0,0,43.63,38a3.53,3.53,0,0,0,3.3-2.29C47.65,34.22,48.05,31.67,48.14,28.08Z"/></svg>