<svg id="Layer_1" data-name="Layer 1" xmlns="http://www.w3.org/2000/svg" viewBox="0 0 69.71 64.98"><defs><style>.cls-1{fill:#022749;}</style></defs><path class="cls-1" d="M30.76,33.93a9.23,9.23,0,0,1-2.84,7.23q-2.85,2.55-8,2.55A15,15,0,0,1,14.1,42.6a13.16,13.16,0,0,1-4.64-3.3L11.93,35q3.91,3.56,7.65,3.56a5.93,5.93,0,0,0,3.83-1.2,3.79,3.79,0,0,0,1.5-3.1,4.29,4.29,0,0,0-1.26-3.35A5.15,5.15,0,0,0,20,29.72a5.16,5.16,0,0,0-2.31.51,9.46,9.46,0,0,0-2.17,1.56l-3.79-2.16L12.19,13h17.6l.05,5.19h-12l-.22,7.22,1.11-.51c.32-.13.62-.24.92-.33a5.64,5.64,0,0,1,1-.17c.35,0,.73,0,1.16,0a9.48,9.48,0,0,1,3.67.69A8,8,0,0,1,28.26,27a9,9,0,0,1,1.84,3A11.18,11.18,0,0,1,30.76,33.93Z"/><path class="cls-1" d="M34.76,43.71l.05-3.45q1.36-1.59,2.88-3.17l3-3.13c1-1,1.95-2.05,2.86-3.05a26.72,26.72,0,0,0,2.4-3,16.81,16.81,0,0,0,1.65-3,7.65,7.65,0,0,0,.62-3,3.27,3.27,0,0,0-1.15-2.59,4.14,4.14,0,0,0-2.81-1,4.81,4.81,0,0,0-2.14.47,5.49,5.49,0,0,0-1.62,1.22,8.45,8.45,0,0,0-1.19,1.65,13.38,13.38,0,0,0-.86,1.8l-4.22-3.07c.29-.66.66-1.42,1.1-2.27a8.62,8.62,0,0,1,1.91-2.42,10.64,10.64,0,0,1,3.26-1.95,14,14,0,0,1,5.12-.8,12.58,12.58,0,0,1,3.88.58,8.87,8.87,0,0,1,3,1.65,7.08,7.08,0,0,1,1.93,2.6,8.3,8.3,0,0,1,.68,3.41,11.59,11.59,0,0,1-1.3,5.23,27.73,27.73,0,0,1-3.15,4.87,36.64,36.64,0,0,1-3.87,4.14q-2,1.85-3.43,3h12v5.19Z"/></svg>