<svg id="Layer_1" data-name="Layer 1" xmlns="http://www.w3.org/2000/svg" viewBox="0 0 69.71 64.98"><defs><style>.cls-1{fill:#ffe8d9;stroke:#2d1606;stroke-miterlimit:10;}</style></defs><path class="cls-1" d="M33.68,42.81a10.3,10.3,0,0,1-1,4.56A10,10,0,0,1,29.73,51,14,14,0,0,1,25,53.29a21,21,0,0,1-6.12.84,26.25,26.25,0,0,1-4.65-.37,17.1,17.1,0,0,1-3.87-1.19A15.26,15.26,0,0,1,7,50.4a24.7,24.7,0,0,1-3.24-3.29l4-5.34q4.68,5.28,10,5.28a7.3,7.3,0,0,0,4.71-1.38A4.85,4.85,0,0,0,24.26,42a4.6,4.6,0,0,0-.48-2.61,4.82,4.82,0,0,0-2-2,11.39,11.39,0,0,0-4-1.18,31.45,31.45,0,0,0-6.36-.13V29a46.14,46.14,0,0,0,6,.07,10.71,10.71,0,0,0,3.72-.82A4.06,4.06,0,0,0,23,26.53a5.46,5.46,0,0,0,.57-2.62,4.33,4.33,0,0,0-1.74-3.32,6.85,6.85,0,0,0-4.32-1.26,10.17,10.17,0,0,0-4.26.94A17.35,17.35,0,0,0,9,23.32L5.6,17.64q4.5-5.38,13.86-5.39a17,17,0,0,1,5.29.76,11.91,11.91,0,0,1,4,2.15,9.43,9.43,0,0,1,2.58,3.34,10.35,10.35,0,0,1,.9,4.39,9.14,9.14,0,0,1-1.74,5.78,13.56,13.56,0,0,1-5.76,3.86,11.32,11.32,0,0,1,6.64,3.38A10.05,10.05,0,0,1,33.68,42.81Z"/><path class="cls-1" d="M65.9,40.79q0,6.39-3.88,9.86T51.15,54.13a20.47,20.47,0,0,1-8-1.52,17.75,17.75,0,0,1-6.32-4.5l3.36-5.92q5.34,4.86,10.44,4.86a8,8,0,0,0,5.22-1.64,5.17,5.17,0,0,0,2-4.23,5.89,5.89,0,0,0-1.71-4.57,7.1,7.1,0,0,0-5-1.56,7.07,7.07,0,0,0-3.15.69,12.78,12.78,0,0,0-3,2.13L40,34.93l.6-22.68h24l.06,7.08H48.26L48,29.17c.58-.28,1.09-.51,1.52-.69A11.09,11.09,0,0,1,50.73,28,6.62,6.62,0,0,1,52,27.79c.46,0,1-.06,1.57-.06a13.07,13.07,0,0,1,5,.94,10.9,10.9,0,0,1,3.87,2.65A12.12,12.12,0,0,1,65,35.46,15.17,15.17,0,0,1,65.9,40.79Z"/></svg>