<svg id="Layer_1" data-name="Layer 1" xmlns="http://www.w3.org/2000/svg" viewBox="0 0 69.71 64.98"><defs><style>.cls-1{fill:#868687;}</style></defs><path class="cls-1" d="M12.63,49.21l0-3.46c.9-1.06,1.87-2.12,2.88-3.17l3-3.13c1-1,1.95-2.05,2.86-3a28.65,28.65,0,0,0,2.4-3,16.81,16.81,0,0,0,1.65-3,7.64,7.64,0,0,0,.61-3A3.26,3.26,0,0,0,25,24.86a4.16,4.16,0,0,0-2.82-1,4.64,4.64,0,0,0-2.13.48,5.49,5.49,0,0,0-1.63,1.22,9.37,9.37,0,0,0-1.19,1.65,14.62,14.62,0,0,0-.85,1.8L12.1,25.94c.3-.67.66-1.42,1.1-2.27a8.7,8.7,0,0,1,1.92-2.43,10.57,10.57,0,0,1,3.25-1.94,13.88,13.88,0,0,1,5.13-.8,12.29,12.29,0,0,1,3.88.58,8.64,8.64,0,0,1,3,1.65,7.16,7.16,0,0,1,1.93,2.59A8.34,8.34,0,0,1,33,26.73,11.54,11.54,0,0,1,31.71,32a27.73,27.73,0,0,1-3.15,4.87A36.64,36.64,0,0,1,24.69,41c-1.35,1.23-2.5,2.25-3.43,3.05h12v5.19Z"/><path class="cls-1" d="M57.47,40.91a7.33,7.33,0,0,1-2.9,6,10.56,10.56,0,0,1-3.44,1.71,15.37,15.37,0,0,1-4.49.62,18.66,18.66,0,0,1-3.41-.28,11.88,11.88,0,0,1-2.84-.87,11,11,0,0,1-2.5-1.59,17.55,17.55,0,0,1-2.38-2.41l2.91-3.92Q41.84,44,45.76,44a5.34,5.34,0,0,0,3.46-1,3.57,3.57,0,0,0,1.34-2.69,3.52,3.52,0,0,0-.35-1.91,3.57,3.57,0,0,0-1.5-1.48,8.3,8.3,0,0,0-3-.86A23.78,23.78,0,0,0,41.1,36V30.77a31.78,31.78,0,0,0,4.42.05,8,8,0,0,0,2.73-.6A3,3,0,0,0,49.66,29a4.13,4.13,0,0,0,.42-1.92,3.2,3.2,0,0,0-1.28-2.44,5.06,5.06,0,0,0-3.17-.92,7.35,7.35,0,0,0-3.12.69,12.42,12.42,0,0,0-3.17,2.23l-2.47-4.16C39.08,19.81,42.46,18.5,47,18.5a12.63,12.63,0,0,1,3.88.55,8.82,8.82,0,0,1,3,1.58,6.94,6.94,0,0,1,1.89,2.45,7.55,7.55,0,0,1,.66,3.21,6.69,6.69,0,0,1-1.28,4.24,10,10,0,0,1-4.22,2.84,8.27,8.27,0,0,1,4.87,2.48A7.35,7.35,0,0,1,57.47,40.91Z"/></svg>