<svg id="Layer_1" data-name="Layer 1" xmlns="http://www.w3.org/2000/svg" viewBox="0 0 69.71 64.98"><defs><style>.cls-1{fill:#87786f;stroke:#2d1606;stroke-miterlimit:10;}</style></defs><path class="cls-1" d="M32.5,41.62a10.3,10.3,0,0,1-1,4.56,10,10,0,0,1-2.94,3.58,14.42,14.42,0,0,1-4.69,2.34,21,21,0,0,1-6.12.84,25.28,25.28,0,0,1-4.65-.38,16.15,16.15,0,0,1-3.87-1.19A14.87,14.87,0,0,1,5.8,49.21a25.32,25.32,0,0,1-3.24-3.29l4-5.34q4.68,5.28,10,5.28a7.24,7.24,0,0,0,4.71-1.39,4.82,4.82,0,0,0,1.83-3.67,4.59,4.59,0,0,0-.48-2.6,4.9,4.9,0,0,0-2-2,11.82,11.82,0,0,0-4-1.18,32.3,32.3,0,0,0-6.36-.12V27.8a44.2,44.2,0,0,0,6,.06,10.73,10.73,0,0,0,3.72-.81,4.06,4.06,0,0,0,1.92-1.71,5.46,5.46,0,0,0,.57-2.62,4.32,4.32,0,0,0-1.74-3.32,6.85,6.85,0,0,0-4.32-1.26,10,10,0,0,0-4.26.94,17.29,17.29,0,0,0-4.32,3L4.42,16.45q4.5-5.38,13.86-5.39a17,17,0,0,1,5.29.76,11.91,11.91,0,0,1,4,2.15,9.43,9.43,0,0,1,2.58,3.34,10.3,10.3,0,0,1,.9,4.38,9.17,9.17,0,0,1-1.74,5.79,13.65,13.65,0,0,1-5.76,3.86,11.29,11.29,0,0,1,6.64,3.38A10.05,10.05,0,0,1,32.5,41.62Z"/><path class="cls-1" d="M37.24,52.94l.06-4.71c1.24-1.45,2.55-2.9,3.93-4.33l4.11-4.27q2-2.12,3.9-4.15a36.15,36.15,0,0,0,3.27-4.09,23,23,0,0,0,2.25-4.06,10.44,10.44,0,0,0,.84-4.06A4.47,4.47,0,0,0,54,19.73a5.66,5.66,0,0,0-3.84-1.35,6.42,6.42,0,0,0-2.91.64,7.54,7.54,0,0,0-2.22,1.67,12.15,12.15,0,0,0-1.62,2.25,20.15,20.15,0,0,0-1.17,2.45L36.52,21.2q.6-1.35,1.5-3.09a11.92,11.92,0,0,1,2.61-3.3,14.38,14.38,0,0,1,4.44-2.66,19,19,0,0,1,7-1.09,16.82,16.82,0,0,1,5.29.79,12.12,12.12,0,0,1,4.12,2.25,9.77,9.77,0,0,1,2.63,3.54A11.38,11.38,0,0,1,65,22.29a15.73,15.73,0,0,1-1.77,7.14A37.16,37.16,0,0,1,59,36.06a50.29,50.29,0,0,1-5.28,5.65c-1.84,1.67-3.4,3.06-4.68,4.15H65.38v7.08Z"/></svg>