<svg id="Layer_1" data-name="Layer 1" xmlns="http://www.w3.org/2000/svg" viewBox="0 0 69.71 64.98"><defs><style>.cls-1{fill:#fff;stroke:#040421;}</style></defs><path class="cls-1" d="M20.94,49.94H13.39l13.1-29H10.79V15H34.34v5.19Z"/><path class="cls-1" d="M60.84,38.82q0,5.32-3.23,8.22t-9.06,2.9a16.87,16.87,0,0,1-6.64-1.27,14.77,14.77,0,0,1-5.27-3.75L39.44,40q4.45,4,8.7,4a6.72,6.72,0,0,0,4.35-1.37,4.32,4.32,0,0,0,1.7-3.52,4.91,4.91,0,0,0-1.42-3.81A5.91,5.91,0,0,0,48.64,34a5.89,5.89,0,0,0-2.62.57,10.84,10.84,0,0,0-2.48,1.78l-4.3-2.45.5-18.9h20l0,5.9H46.14l-.25,8.2c.49-.23.91-.43,1.26-.58a10.2,10.2,0,0,1,1.05-.37,5.27,5.27,0,0,1,1.09-.2c.39,0,.82,0,1.31,0a10.83,10.83,0,0,1,4.17.78A9.2,9.2,0,0,1,58,30.93a10.12,10.12,0,0,1,2.09,3.45A12.61,12.61,0,0,1,60.84,38.82Z"/></svg>