<svg id="Layer_1" data-name="Layer 1" xmlns="http://www.w3.org/2000/svg" viewBox="0 0 69.71 64.98"><defs><style>.cls-1{fill:#022749;}</style></defs><path class="cls-1" d="M29.6,47H23.71l.35-13a8.08,8.08,0,0,1-2.51,1.54A8.86,8.86,0,0,1,18.6,36a9.24,9.24,0,0,1-3.67-.71,7.93,7.93,0,0,1-2.84-2,8.86,8.86,0,0,1-1.82-3.1,12,12,0,0,1-.64-4,11.78,11.78,0,0,1,.77-4.38,9.27,9.27,0,0,1,2.18-3.32A9.42,9.42,0,0,1,16,16.31a13.62,13.62,0,0,1,4.55-.72,9.64,9.64,0,0,1,7.13,2.55,9.16,9.16,0,0,1,2.42,7.08ZM24,24.56A3.44,3.44,0,0,0,22.94,22a3.64,3.64,0,0,0-1.21-.75,4.38,4.38,0,0,0-1.5-.26A4,4,0,0,0,17,22.36a5.52,5.52,0,0,0-1.19,3.74,4.85,4.85,0,0,0,1,3.3,3.61,3.61,0,0,0,2.88,1.19,4,4,0,0,0,3-1.19A4.88,4.88,0,0,0,24,26.1Z"/><path class="cls-1" d="M43.46,47H36.82L48.35,21.44H34.53V16.25H55.26v4.57Z"/></svg>