<svg id="Layer_1" data-name="Layer 1" xmlns="http://www.w3.org/2000/svg" viewBox="0 0 69.71 64.98"><defs><style>.cls-1{fill:#ffe8d9;stroke:#2d1606;stroke-miterlimit:10;}</style></defs><path class="cls-1" d="M28.78,55.8H21.34V45.48H5.92V13.86H13.6v24.9h7.74V28.62h7.38V38.76h5.34v6.66H28.78Z"/><path class="cls-1" d="M37.66,55.8l.06-4.71q1.86-2.18,3.93-4.33l4.11-4.27q2-2.12,3.9-4.15a36.15,36.15,0,0,0,3.27-4.09,23,23,0,0,0,2.25-4.06A10.44,10.44,0,0,0,56,26.13a4.48,4.48,0,0,0-1.56-3.54,5.66,5.66,0,0,0-3.84-1.35,6.55,6.55,0,0,0-2.91.64,7.54,7.54,0,0,0-2.22,1.67,12.15,12.15,0,0,0-1.62,2.25,20.15,20.15,0,0,0-1.17,2.45l-5.76-4.18c.4-.91.9-1.94,1.5-3.1a11.92,11.92,0,0,1,2.61-3.3A14.38,14.38,0,0,1,45.49,15a19,19,0,0,1,7-1.09,16.82,16.82,0,0,1,5.29.79A12.21,12.21,0,0,1,61.89,17a9.89,9.89,0,0,1,2.63,3.54,11.38,11.38,0,0,1,.92,4.65,15.7,15.7,0,0,1-1.77,7.14,37.16,37.16,0,0,1-4.29,6.63,50.29,50.29,0,0,1-5.28,5.65c-1.84,1.67-3.4,3.06-4.68,4.15H65.8V55.8Z"/></svg>