<svg id="Layer_1" data-name="Layer 1" xmlns="http://www.w3.org/2000/svg" viewBox="0 0 69.71 64.98"><defs><style>.cls-1{fill:#fff;stroke:#040421;}</style></defs><path class="cls-1" d="M21.35,49.94H13.8l13.1-29H11.2V15H34.75v5.19Z"/><path class="cls-1" d="M61.85,40.51a8.31,8.31,0,0,1-3.29,6.78,11.85,11.85,0,0,1-3.91,2,17.42,17.42,0,0,1-5.1.7,22.68,22.68,0,0,1-3.88-.31,13.43,13.43,0,0,1-3.22-1,12.39,12.39,0,0,1-2.85-1.8,21.29,21.29,0,0,1-2.7-2.74l3.3-4.45Q44.1,44,48.55,44a6.06,6.06,0,0,0,3.92-1.16A4,4,0,0,0,54,39.83a3.93,3.93,0,0,0-.4-2.18A4,4,0,0,0,51.9,36a9.68,9.68,0,0,0-3.35-1,27.19,27.19,0,0,0-5.3-.1V29a37.31,37.31,0,0,0,5,.05,8.87,8.87,0,0,0,3.1-.68A3.36,3.36,0,0,0,53,26.94a4.55,4.55,0,0,0,.48-2.19A3.61,3.61,0,0,0,52,22a5.71,5.71,0,0,0-3.6-1,8.39,8.39,0,0,0-3.55.78,14.26,14.26,0,0,0-3.6,2.54l-2.8-4.73Q42.2,15,50,15a14.41,14.41,0,0,1,4.41.63,10,10,0,0,1,3.36,1.79,7.9,7.9,0,0,1,2.15,2.79,8.57,8.57,0,0,1,.75,3.65,7.6,7.6,0,0,1-1.45,4.82,11.45,11.45,0,0,1-4.8,3.22A9.44,9.44,0,0,1,60,34.75,8.36,8.36,0,0,1,61.85,40.51Z"/></svg>