<svg id="Layer_1" data-name="Layer 1" xmlns="http://www.w3.org/2000/svg" viewBox="0 0 69.71 64.98"><defs><style>.cls-1{fill:#b7b6b6;stroke:#040421;}</style></defs><path class="cls-1" d="M23.35,49.37l0-3.92q1.55-1.81,3.27-3.61l3.43-3.55c1.13-1.18,2.22-2.34,3.25-3.46a31.46,31.46,0,0,0,2.72-3.41A19.25,19.25,0,0,0,38,28a8.61,8.61,0,0,0,.7-3.39,3.71,3.71,0,0,0-1.3-2.94,4.72,4.72,0,0,0-3.2-1.13,5.36,5.36,0,0,0-2.43.54,6.38,6.38,0,0,0-1.85,1.39,11,11,0,0,0-1.35,1.87,18,18,0,0,0-1,2.05l-4.8-3.49c.33-.75.75-1.62,1.25-2.58a9.77,9.77,0,0,1,2.17-2.75,12.2,12.2,0,0,1,3.7-2.22,16,16,0,0,1,5.83-.91,14.07,14.07,0,0,1,4.41.66A10,10,0,0,1,43.54,17,8.11,8.11,0,0,1,45.73,20a9.45,9.45,0,0,1,.77,3.87,13,13,0,0,1-1.48,6,31,31,0,0,1-3.57,5.53,41.4,41.4,0,0,1-4.4,4.7q-2.29,2.1-3.9,3.46H46.8v5.9Z"/></svg>