<svg id="Layer_1" data-name="Layer 1" xmlns="http://www.w3.org/2000/svg" viewBox="0 0 69.71 64.98"><defs><style>.cls-1{fill:#b7b6b6;stroke:#040421;}</style></defs><path class="cls-1" d="M34.43,40.59a7.61,7.61,0,0,1-3.14,6.47c-2.09,1.56-5,2.33-8.72,2.33a19.19,19.19,0,0,1-5.21-.66,13.11,13.11,0,0,1-4-1.84A8.4,8.4,0,0,1,10.75,44a7.54,7.54,0,0,1-.92-3.74,7.52,7.52,0,0,1,1.67-5,14.12,14.12,0,0,1,5.58-3.53c-1.37-.85-2.47-1.6-3.3-2.24a9.12,9.12,0,0,1-1.93-1.88,5.52,5.52,0,0,1-.92-2,10.26,10.26,0,0,1-.25-2.45,7.66,7.66,0,0,1,2.9-6.43c1.93-1.5,4.9-2.26,8.9-2.26a17.78,17.78,0,0,1,4.72.59,11.48,11.48,0,0,1,3.63,1.67,7.24,7.24,0,0,1,3.1,6.1,7.74,7.74,0,0,1-1.48,4.74,14.41,14.41,0,0,1-4.87,3.81,12.56,12.56,0,0,1,5.22,3.77A8.94,8.94,0,0,1,34.43,40.59ZM27.78,40a3.53,3.53,0,0,0-.4-1.72A3.93,3.93,0,0,0,26.2,37a11.29,11.29,0,0,0-1.85-1c-.72-.32-1.52-.65-2.42-1a10.46,10.46,0,0,0-3.65,1.86,3.35,3.35,0,0,0-1.05,2.56,3.57,3.57,0,0,0,1.5,3,6.66,6.66,0,0,0,4.05,1.1,6.19,6.19,0,0,0,3.65-1A3,3,0,0,0,27.78,40Zm-1-15.86a3.25,3.25,0,0,0-1.33-2.67,5.53,5.53,0,0,0-3.47-1,4.8,4.8,0,0,0-3.1,1,3,3,0,0,0-1.2,2.46q0,2.63,4.8,4.68a7.6,7.6,0,0,0,3.35-1.89A3.76,3.76,0,0,0,26.83,24.09Z"/><path class="cls-1" d="M59.93,49.39h-6.7l.4-14.75a9,9,0,0,1-2.85,1.75,9.85,9.85,0,0,1-3.35.5,10.42,10.42,0,0,1-4.18-.8A9.19,9.19,0,0,1,40,33.82,10.1,10.1,0,0,1,38,30.29a13.79,13.79,0,0,1-.72-4.6,13.54,13.54,0,0,1,.87-5,10.5,10.5,0,0,1,2.48-3.78,10.65,10.65,0,0,1,3.92-2.37,15.42,15.42,0,0,1,5.18-.83q5.19,0,8.1,2.9t2.75,8.05ZM53.58,23.94a3.84,3.84,0,0,0-.33-1.62,4.24,4.24,0,0,0-.9-1.28A4.07,4.07,0,0,0,51,20.19a4.83,4.83,0,0,0-1.7-.3,4.59,4.59,0,0,0-3.65,1.55,6.26,6.26,0,0,0-1.35,4.25,5.54,5.54,0,0,0,1.17,3.75,4.12,4.12,0,0,0,3.28,1.35,4.51,4.51,0,0,0,3.4-1.35,5.58,5.58,0,0,0,1.4-3.75Z"/></svg>