<svg id="Layer_1" data-name="Layer 1" xmlns="http://www.w3.org/2000/svg" viewBox="0 0 69.71 64.98"><defs><style>.cls-1{fill:#b7b6b6;stroke:#040421;}</style></defs><path class="cls-1" d="M45.18,38.11a12.47,12.47,0,0,1-.83,4.65A10.07,10.07,0,0,1,42,46.3a10.23,10.23,0,0,1-3.62,2.27,13.33,13.33,0,0,1-4.77.8,13.37,13.37,0,0,1-5-.9,10.71,10.71,0,0,1-3.84-2.6,12.1,12.1,0,0,1-2.48-4,14.8,14.8,0,0,1-.88-5.22,18.85,18.85,0,0,1,1.06-6.15,32.55,32.55,0,0,1,2.77-5.93,42.94,42.94,0,0,1,3.83-5.44,52.71,52.71,0,0,1,4.3-4.64h8.44a53.28,53.28,0,0,0-6.19,6.71,54.27,54.27,0,0,0-5.05,7.74c.52-.3,1-.55,1.42-.75a9.24,9.24,0,0,1,1.2-.47,6.37,6.37,0,0,1,1.15-.25,10.4,10.4,0,0,1,1.32-.08,9.3,9.3,0,0,1,3.85.78,8.47,8.47,0,0,1,3,2.22,10.45,10.45,0,0,1,2,3.42A12.51,12.51,0,0,1,45.18,38.11Zm-6.65.14a5,5,0,0,0-1.18-3.49,4.1,4.1,0,0,0-3.17-1.29,6.63,6.63,0,0,0-4.65,2c-.1.5-.16.87-.2,1.12a8.43,8.43,0,0,0,0,1,5.56,5.56,0,0,0,1.36,3.89,4.52,4.52,0,0,0,3.53,1.49,4.1,4.1,0,0,0,3.18-1.28A4.81,4.81,0,0,0,38.53,38.25Z"/></svg>