<svg id="Layer_1" data-name="Layer 1" xmlns="http://www.w3.org/2000/svg" viewBox="0 0 69.71 64.98"><defs><style>.cls-1{fill:#87786f;stroke:#2d1606;stroke-miterlimit:10;}</style></defs><path class="cls-1" d="M31.27,40.74a14.81,14.81,0,0,1-1,5.59,12.09,12.09,0,0,1-2.79,4.25,12.23,12.23,0,0,1-4.35,2.72,16.17,16.17,0,0,1-5.73,1,16,16,0,0,1-6-1.08A12.89,12.89,0,0,1,6.8,50.06a14.17,14.17,0,0,1-3-4.82A17.51,17.51,0,0,1,2.77,39a22.39,22.39,0,0,1,1.28-7.38,38.57,38.57,0,0,1,3.32-7.12A51.82,51.82,0,0,1,12,17.94a62.24,62.24,0,0,1,5.16-5.56H27.25a63.92,63.92,0,0,0-7.43,8,64.79,64.79,0,0,0-6.06,9.29c.63-.35,1.19-.66,1.71-.89a10.62,10.62,0,0,1,1.43-.57,7.23,7.23,0,0,1,1.38-.3,11.1,11.1,0,0,1,1.59-.09,11.25,11.25,0,0,1,4.62.93,10.32,10.32,0,0,1,3.58,2.66,12.89,12.89,0,0,1,2.35,4.1A15.17,15.17,0,0,1,31.27,40.74Zm-8,.17a5.92,5.92,0,0,0-1.42-4.18,4.93,4.93,0,0,0-3.8-1.55,8,8,0,0,0-5.58,2.36q-.18.9-.24,1.35a9.26,9.26,0,0,0-.06,1.18,6.65,6.65,0,0,0,1.63,4.66,5.44,5.44,0,0,0,4.24,1.79A4.93,4.93,0,0,0,21.87,45,5.75,5.75,0,0,0,23.29,40.91Z"/><path class="cls-1" d="M65.65,32.6q0,11.44-3.94,16.55T50,54.26q-7.76,0-11.69-5.14T34.39,33.35q0-10.56,3.94-15.77T50,12.38Q65.65,12.38,65.65,32.6Zm-9.42.34c-.11-4.6-.64-7.88-1.57-9.86a4.71,4.71,0,0,0-4.58-2.95,5,5,0,0,0-4.64,3.2Q44,26.42,43.81,33.93q.18,6.24,1.57,9.36a5,5,0,0,0,4.7,3.23,4.78,4.78,0,0,0,4.5-3.12C55.56,41.32,56.12,37.84,56.23,32.94Z"/></svg>