<svg id="Layer_1" data-name="Layer 1" xmlns="http://www.w3.org/2000/svg" viewBox="0 0 69.71 64.98"><defs><style>.cls-1{fill:#022749;}</style></defs><path class="cls-1" d="M30.36,37.68a6.68,6.68,0,0,1-2.76,5.69c-1.84,1.37-4.39,2.05-7.67,2.05a16.73,16.73,0,0,1-4.58-.58,11.37,11.37,0,0,1-3.53-1.61,7.48,7.48,0,0,1-2.29-2.51,6.76,6.76,0,0,1-.82-3.3A6.65,6.65,0,0,1,10.19,33a12.35,12.35,0,0,1,4.9-3.11c-1.2-.75-2.17-1.4-2.9-2a8.36,8.36,0,0,1-1.69-1.67,4.86,4.86,0,0,1-.82-1.72,9.71,9.71,0,0,1-.22-2.16A6.75,6.75,0,0,1,12,16.7c1.71-1.32,4.32-2,7.84-2a15.71,15.71,0,0,1,4.15.52,10.27,10.27,0,0,1,3.2,1.47,6.67,6.67,0,0,1,2,2.32,6.53,6.53,0,0,1,.7,3.05,6.85,6.85,0,0,1-1.29,4.17,12.66,12.66,0,0,1-4.3,3.35,11,11,0,0,1,4.6,3.32A7.87,7.87,0,0,1,30.36,37.68Zm-5.85-.56a3.1,3.1,0,0,0-.35-1.52,3.48,3.48,0,0,0-1-1.11,9.86,9.86,0,0,0-1.63-.91c-.63-.29-1.35-.57-2.14-.87a9,9,0,0,0-3.21,1.64,3,3,0,0,0-.92,2.24,3.13,3.13,0,0,0,1.32,2.67,5.87,5.87,0,0,0,3.56,1,5.38,5.38,0,0,0,3.21-.85A2.62,2.62,0,0,0,24.51,37.12Zm-.84-14a2.84,2.84,0,0,0-1.16-2.35,4.88,4.88,0,0,0-3.06-.91,4.28,4.28,0,0,0-2.73.85,2.64,2.64,0,0,0-1,2.16c0,1.54,1.4,2.91,4.22,4.12a6.54,6.54,0,0,0,2.95-1.67A3.25,3.25,0,0,0,23.67,23.16Z"/><path class="cls-1" d="M55.27,29.54q0,8.39-2.89,12.14c-1.93,2.5-4.78,3.74-8.58,3.74s-6.64-1.25-8.57-3.77-2.89-6.36-2.89-11.56,1-9,2.89-11.57S40,14.71,43.8,14.71Q55.28,14.71,55.27,29.54Zm-6.91.25q-.13-5.07-1.15-7.23a3.46,3.46,0,0,0-3.36-2.17,3.71,3.71,0,0,0-3.41,2.35c-.71,1.51-1.1,4.1-1.19,7.77a19.14,19.14,0,0,0,1.15,6.87,3.69,3.69,0,0,0,3.45,2.37,3.5,3.5,0,0,0,3.29-2.29C47.87,35.93,48.27,33.38,48.36,29.79Z"/></svg>