<svg id="Layer_1" data-name="Layer 1" xmlns="http://www.w3.org/2000/svg" viewBox="0 0 69.71 64.98"><defs><style>.cls-1{fill:#87786f;stroke:#2d1606;stroke-miterlimit:10;}</style></defs><path class="cls-1" d="M33.05,42.81a10.3,10.3,0,0,1-1,4.56A10.19,10.19,0,0,1,29.1,51a14,14,0,0,1-4.69,2.34,21,21,0,0,1-6.12.84,26.25,26.25,0,0,1-4.65-.37,17.1,17.1,0,0,1-3.87-1.19A15.26,15.26,0,0,1,6.35,50.4a24.7,24.7,0,0,1-3.24-3.29l4-5.34q4.68,5.28,10,5.28a7.3,7.3,0,0,0,4.71-1.38A4.85,4.85,0,0,0,23.63,42a4.59,4.59,0,0,0-2.52-4.62,11.39,11.39,0,0,0-4-1.18,31.45,31.45,0,0,0-6.36-.13V29a46.14,46.14,0,0,0,6,.07,10.71,10.71,0,0,0,3.72-.82,4.06,4.06,0,0,0,1.92-1.71A5.46,5.46,0,0,0,23,23.91a4.33,4.33,0,0,0-1.74-3.32,6.85,6.85,0,0,0-4.32-1.26,10.17,10.17,0,0,0-4.26.94,17.35,17.35,0,0,0-4.32,3.05L5,17.64q4.5-5.38,13.86-5.39a17.07,17.07,0,0,1,5.29.76,11.86,11.86,0,0,1,4,2.15,9.43,9.43,0,0,1,2.58,3.34,10.35,10.35,0,0,1,.9,4.39,9.14,9.14,0,0,1-1.74,5.78,13.56,13.56,0,0,1-5.76,3.86,11.32,11.32,0,0,1,6.64,3.38A10,10,0,0,1,33.05,42.81Z"/><path class="cls-1" d="M66.29,40.61a15,15,0,0,1-1,5.59,12,12,0,0,1-7.14,7,16.24,16.24,0,0,1-5.73,1,15.86,15.86,0,0,1-6-1.09,12.74,12.74,0,0,1-4.61-3.11,14.54,14.54,0,0,1-3-4.83,17.68,17.68,0,0,1-1.05-6.26,22.38,22.38,0,0,1,1.27-7.38,38.93,38.93,0,0,1,3.32-7.12A52.87,52.87,0,0,1,47,17.81a62.24,62.24,0,0,1,5.16-5.56H62.27a62.46,62.46,0,0,0-7.43,8.05,65.73,65.73,0,0,0-6.07,9.29q.94-.54,1.71-.9a11.27,11.27,0,0,1,1.44-.57,8.08,8.08,0,0,1,1.38-.3,12.65,12.65,0,0,1,1.59-.09,11,11,0,0,1,4.61.94,10.11,10.11,0,0,1,3.58,2.66,12.6,12.6,0,0,1,2.35,4.1A15.17,15.17,0,0,1,66.29,40.61Zm-8,.17a5.9,5.9,0,0,0-1.43-4.18,4.91,4.91,0,0,0-3.8-1.55,7.93,7.93,0,0,0-5.57,2.36q-.18.9-.24,1.35a9.26,9.26,0,0,0-.06,1.18,6.71,6.71,0,0,0,1.62,4.66,5.49,5.49,0,0,0,4.25,1.79,4.92,4.92,0,0,0,3.8-1.54A5.77,5.77,0,0,0,58.31,40.78Z"/></svg>