<svg id="Layer_1" data-name="Layer 1" xmlns="http://www.w3.org/2000/svg" viewBox="0 0 75.62 64.98"><defs><style>.cls-1{fill:#868687;}</style></defs><path class="cls-1" d="M9.87,48.86v-24c-.59.68-1.15,1.28-1.68,1.83s-1.1,1.12-1.71,1.74l-2.91-4c.88-.77,1.73-1.53,2.56-2.29s1.42-1.33,2.15-2.06,1.34-1.39,1.82-2h5.62V48.86Z"/><path class="cls-1" d="M46.61,33q0,8.39-2.89,12.13t-8.58,3.75q-5.68,0-8.57-3.77T23.68,33.53q0-7.76,2.89-11.57t8.57-3.81Q46.6,18.15,46.61,33Zm-6.91.24q-.14-5.05-1.15-7.23a3.48,3.48,0,0,0-3.36-2.17,3.72,3.72,0,0,0-3.41,2.35Q30.72,28.45,30.59,34a18.92,18.92,0,0,0,1.15,6.87,3.69,3.69,0,0,0,3.45,2.37,3.5,3.5,0,0,0,3.29-2.29C39.21,39.37,39.61,36.81,39.7,33.22Z"/><path class="cls-1" d="M70.76,33q0,8.39-2.89,12.13T59.3,48.86q-5.69,0-8.58-3.77T47.84,33.53q0-7.76,2.88-11.57t8.58-3.81Q70.76,18.15,70.76,33Zm-6.91.24c-.08-3.37-.47-5.78-1.15-7.23a3.48,3.48,0,0,0-3.36-2.17,3.71,3.71,0,0,0-3.4,2.35q-1.06,2.28-1.2,7.78a19.14,19.14,0,0,0,1.15,6.87,3.69,3.69,0,0,0,3.45,2.37,3.51,3.51,0,0,0,3.3-2.29C63.36,39.37,63.77,36.81,63.85,33.22Z"/></svg>