<svg id="Layer_1" data-name="Layer 1" xmlns="http://www.w3.org/2000/svg" viewBox="0 0 69.71 64.98"><defs><style>.cls-1{fill:#b7b6b6;stroke:#040421;}</style></defs><path class="cls-1" d="M34.8,40.21a7.63,7.63,0,0,1-3.13,6.48Q28.53,49,22.94,49a19.11,19.11,0,0,1-5.2-.66,12.9,12.9,0,0,1-4-1.84,8.48,8.48,0,0,1-2.6-2.85,7.61,7.61,0,0,1-.93-3.75,7.52,7.52,0,0,1,1.68-5,14,14,0,0,1,5.57-3.54c-1.36-.85-2.46-1.59-3.3-2.23a9.58,9.58,0,0,1-1.92-1.89,5.6,5.6,0,0,1-.93-2,11,11,0,0,1-.25-2.46A7.66,7.66,0,0,1,14,16.38c1.94-1.51,4.9-2.26,8.9-2.26a17.4,17.4,0,0,1,4.73.59,11.31,11.31,0,0,1,3.62,1.67,7.24,7.24,0,0,1,3.1,6.1,7.77,7.77,0,0,1-1.47,4.74A14.47,14.47,0,0,1,28,31a12.41,12.41,0,0,1,5.22,3.77A8.84,8.84,0,0,1,34.8,40.21Zm-6.65-.63a3.46,3.46,0,0,0-.4-1.73,4,4,0,0,0-1.17-1.26,11,11,0,0,0-1.85-1c-.72-.33-1.53-.65-2.43-1a10.22,10.22,0,0,0-3.65,1.86,3.35,3.35,0,0,0-1,2.55,3.54,3.54,0,0,0,1.5,3,6.66,6.66,0,0,0,4,1.11,6.1,6.1,0,0,0,3.65-1A3,3,0,0,0,28.15,39.58ZM27.2,23.72a3.23,3.23,0,0,0-1.32-2.67,5.5,5.5,0,0,0-3.48-1,4.82,4.82,0,0,0-3.1,1,3,3,0,0,0-1.2,2.46q0,2.61,4.8,4.68a7.45,7.45,0,0,0,3.35-1.9A3.69,3.69,0,0,0,27.2,23.72Z"/><path class="cls-1" d="M61.9,37.75a12.52,12.52,0,0,1-.83,4.66,10,10,0,0,1-6,5.8,13.33,13.33,0,0,1-4.77.81,13.17,13.17,0,0,1-5-.91,10.58,10.58,0,0,1-3.84-2.6,11.9,11.9,0,0,1-2.48-4,14.8,14.8,0,0,1-.88-5.22,18.85,18.85,0,0,1,1.06-6.15A32.2,32.2,0,0,1,42,24.19a42.94,42.94,0,0,1,3.83-5.44,51.17,51.17,0,0,1,4.3-4.63h8.44a53.18,53.18,0,0,0-6.19,6.7,54.36,54.36,0,0,0-5,7.75c.52-.3,1-.55,1.42-.75a9.37,9.37,0,0,1,1.2-.48,7.35,7.35,0,0,1,1.15-.25A10.52,10.52,0,0,1,52.4,27a9.3,9.3,0,0,1,3.85.78,8.47,8.47,0,0,1,3,2.22,10.5,10.5,0,0,1,2,3.41A12.55,12.55,0,0,1,61.9,37.75Zm-6.65.14a5,5,0,0,0-1.18-3.49,4.13,4.13,0,0,0-3.17-1.28,6.62,6.62,0,0,0-4.65,2c-.1.5-.16.88-.2,1.13a8.31,8.31,0,0,0,0,1,5.53,5.53,0,0,0,1.36,3.88,4.53,4.53,0,0,0,3.53,1.5,4.11,4.11,0,0,0,3.18-1.29A4.81,4.81,0,0,0,55.25,37.89Z"/></svg>