<svg id="Layer_1" data-name="Layer 1" xmlns="http://www.w3.org/2000/svg" viewBox="0 0 69.71 64.98"><defs><style>.cls-1{fill:#ffe8d9;stroke:#2d1606;stroke-miterlimit:10;}</style></defs><path class="cls-1" d="M18.26,54.29V21.58Q17.06,23,16,24.07t-2.34,2.37l-4-5.4q1.8-1.56,3.48-3.12c1-.87,1.94-1.81,2.94-2.81a36.38,36.38,0,0,0,2.48-2.7h7.66V54.29Z"/><path class="cls-1" d="M65.9,41q0,6.39-3.88,9.86T51.15,54.29a20.47,20.47,0,0,1-8-1.52,17.63,17.63,0,0,1-6.32-4.5l3.36-5.92q5.34,4.86,10.44,4.86a8,8,0,0,0,5.22-1.64,5.17,5.17,0,0,0,2-4.23,5.89,5.89,0,0,0-1.71-4.57,7.1,7.1,0,0,0-5-1.56,7.07,7.07,0,0,0-3.15.69,12.78,12.78,0,0,0-3,2.13L40,35.09l.6-22.68h24l.06,7.08H48.26L48,29.33c.58-.28,1.09-.51,1.52-.69a11.09,11.09,0,0,1,1.25-.45A6.62,6.62,0,0,1,52,28c.46,0,1-.06,1.57-.06a13.07,13.07,0,0,1,5,.94,11.12,11.12,0,0,1,3.87,2.65A12.12,12.12,0,0,1,65,35.62,15.17,15.17,0,0,1,65.9,41Z"/></svg>