<svg id="Layer_1" data-name="Layer 1" xmlns="http://www.w3.org/2000/svg" viewBox="0 0 69.71 64.98"><defs><style>.cls-1{fill:#022749;}</style></defs><path class="cls-1" d="M27.4,46.36H21.94V38.79H10.63V15.6h5.63V33.86h5.68V26.43h5.41v7.43h3.92v4.89H27.4Z"/><path class="cls-1" d="M54.59,38.06a7.41,7.41,0,0,1-2.9,6,10.66,10.66,0,0,1-3.44,1.71,15.42,15.42,0,0,1-4.49.62,18.59,18.59,0,0,1-3.41-.28,12,12,0,0,1-2.84-.87A11,11,0,0,1,35,43.62a17.55,17.55,0,0,1-2.38-2.41l2.9-3.92q3.44,3.89,7.35,3.88a5.34,5.34,0,0,0,3.46-1,3.57,3.57,0,0,0,1.34-2.69,3.52,3.52,0,0,0-.35-1.91,3.62,3.62,0,0,0-1.5-1.48,8.3,8.3,0,0,0-2.95-.86,23.78,23.78,0,0,0-4.66-.1V27.92a33.42,33.42,0,0,0,4.42,0,8,8,0,0,0,2.73-.6,3,3,0,0,0,1.41-1.25,4,4,0,0,0,.41-1.92,3.16,3.16,0,0,0-1.27-2.44,5,5,0,0,0-3.17-.92,7.32,7.32,0,0,0-3.12.69,12.42,12.42,0,0,0-3.17,2.23L34,19.6q3.3-4,10.17-4A12.63,12.63,0,0,1,48,16.2a8.65,8.65,0,0,1,3,1.58,6.94,6.94,0,0,1,1.89,2.45,7.55,7.55,0,0,1,.66,3.21,6.69,6.69,0,0,1-1.28,4.24,10,10,0,0,1-4.22,2.84A8.27,8.27,0,0,1,52.92,33,7.35,7.35,0,0,1,54.59,38.06Z"/></svg>