<svg id="Layer_1" data-name="Layer 1" xmlns="http://www.w3.org/2000/svg" viewBox="0 0 69.71 64.98"><defs><style>.cls-1{fill:#fff;stroke:#040421;}</style></defs><path class="cls-1" d="M13.72,49.53l0-3.92c1-1.21,2.13-2.42,3.28-3.61l3.42-3.56c1.14-1.17,2.22-2.33,3.25-3.46a29.76,29.76,0,0,0,2.73-3.41,18.76,18.76,0,0,0,1.87-3.38A8.61,8.61,0,0,0,29,24.8a3.69,3.69,0,0,0-1.3-2.94,4.7,4.7,0,0,0-3.2-1.13,5.29,5.29,0,0,0-2.42.54,6,6,0,0,0-1.85,1.39,9.68,9.68,0,0,0-1.35,1.87,15.3,15.3,0,0,0-1,2l-4.8-3.49c.34-.76.75-1.62,1.25-2.58a10,10,0,0,1,2.18-2.76,12.06,12.06,0,0,1,3.7-2.21,15.76,15.76,0,0,1,5.82-.91,14.07,14.07,0,0,1,4.41.66,9.93,9.93,0,0,1,3.44,1.88,8.11,8.11,0,0,1,2.19,2.95A9.45,9.45,0,0,1,36.87,24a13.14,13.14,0,0,1-1.47,6,31.65,31.65,0,0,1-3.58,5.53,41.35,41.35,0,0,1-4.4,4.7q-2.3,2.1-3.9,3.46H37.17v5.9Z"/><path class="cls-1" d="M63.32,49.53h-6.7L57,34.78a8.83,8.83,0,0,1-2.85,1.75,9.81,9.81,0,0,1-3.35.5,10.58,10.58,0,0,1-4.17-.8A9.23,9.23,0,0,1,43.42,34a10.17,10.17,0,0,1-2.07-3.53,13.58,13.58,0,0,1-.73-4.6,13.33,13.33,0,0,1,.88-5A10.61,10.61,0,0,1,44,17.08a10.77,10.77,0,0,1,3.93-2.37,15.36,15.36,0,0,1,5.17-.83q5.2,0,8.1,2.9c1.94,1.93,2.85,4.62,2.75,8ZM57,24.08a4,4,0,0,0-.32-1.62,4.12,4.12,0,0,0-.9-1.28,4,4,0,0,0-1.38-.85,4.79,4.79,0,0,0-1.7-.3A4.61,4.61,0,0,0,49,21.58a6.26,6.26,0,0,0-1.35,4.25,5.49,5.49,0,0,0,1.18,3.75,4.1,4.1,0,0,0,3.27,1.35,4.5,4.5,0,0,0,3.4-1.35,5.49,5.49,0,0,0,1.4-3.75Z"/></svg>