<svg id="Layer_1" data-name="Layer 1" xmlns="http://www.w3.org/2000/svg" viewBox="0 0 69.71 64.98"><defs><style>.cls-1{fill:#868687;}</style></defs><path class="cls-1" d="M33.18,36.16a9.22,9.22,0,0,1-2.85,7.24Q27.5,46,22.36,46a14.94,14.94,0,0,1-5.84-1.12,12.82,12.82,0,0,1-4.64-3.3l2.46-4.34C17,39.57,19.51,40.75,22,40.75a5.89,5.89,0,0,0,3.83-1.2,3.8,3.8,0,0,0,1.49-3.1,4.29,4.29,0,0,0-1.25-3.35A5.23,5.23,0,0,0,22.44,32a5.16,5.16,0,0,0-2.31.51A9.5,9.5,0,0,0,18,34l-3.78-2.15.44-16.64h17.6l0,5.2h-12L20,27.64l1.11-.5a7.29,7.29,0,0,1,.92-.33,4.8,4.8,0,0,1,1-.18c.34,0,.73,0,1.15,0a9.53,9.53,0,0,1,3.68.69,8.2,8.2,0,0,1,2.84,1.94,9,9,0,0,1,1.83,3A11.18,11.18,0,0,1,33.18,36.16Z"/><path class="cls-1" d="M58.08,36a11.09,11.09,0,0,1-.73,4.1,8.93,8.93,0,0,1-2.05,3.11,9.06,9.06,0,0,1-3.19,2,12.63,12.63,0,0,1-8.6-.09,9.25,9.25,0,0,1-3.38-2.29A10.66,10.66,0,0,1,38,39.33a13.09,13.09,0,0,1-.77-4.6,16.5,16.5,0,0,1,.93-5.41,28.74,28.74,0,0,1,2.44-5.22,37.88,37.88,0,0,1,3.37-4.79,44.23,44.23,0,0,1,3.78-4.08h7.43A48.42,48.42,0,0,0,45.24,28c.46-.26.87-.48,1.25-.66a8.5,8.5,0,0,1,1-.42,6.85,6.85,0,0,1,1-.22,10.06,10.06,0,0,1,1.16-.06,8.3,8.3,0,0,1,3.38.68,7.47,7.47,0,0,1,2.63,2,9.2,9.2,0,0,1,1.72,3A11.1,11.1,0,0,1,58.08,36Zm-5.85.12a4.31,4.31,0,0,0-1-3.06A3.58,3.58,0,0,0,48.4,32a5.82,5.82,0,0,0-4.09,1.73q-.14.66-.18,1a6.85,6.85,0,0,0,0,.87A4.84,4.84,0,0,0,45.28,39a4,4,0,0,0,3.11,1.32,3.61,3.61,0,0,0,2.79-1.13A4.23,4.23,0,0,0,52.23,36.15Z"/></svg>