<svg id="Layer_1" data-name="Layer 1" xmlns="http://www.w3.org/2000/svg" viewBox="0 0 69.71 64.98"><defs><style>.cls-1{fill:#868687;}</style></defs><path class="cls-1" d="M33,37.74a10.93,10.93,0,0,1-.74,4.1,9,9,0,0,1-2,3.11A9.21,9.21,0,0,1,27,47a11.86,11.86,0,0,1-4.2.7,11.72,11.72,0,0,1-4.4-.79A9.51,9.51,0,0,1,15,44.57,10.45,10.45,0,0,1,12.82,41a13,13,0,0,1-.77-4.59A16.56,16.56,0,0,1,13,31a28.25,28.25,0,0,1,2.43-5.21A38.19,38.19,0,0,1,18.78,21a45.72,45.72,0,0,1,3.79-4.08H30a46.13,46.13,0,0,0-5.45,5.9,47.69,47.69,0,0,0-4.45,6.82c.46-.27.88-.49,1.25-.66a7.74,7.74,0,0,1,1.06-.42,5.87,5.87,0,0,1,1-.22,10.23,10.23,0,0,1,1.17-.07A8.14,8.14,0,0,1,28,29a7.57,7.57,0,0,1,2.63,1.95,9.36,9.36,0,0,1,1.72,3A11.06,11.06,0,0,1,33,37.74Zm-5.86.12a4.34,4.34,0,0,0-1-3.07,3.62,3.62,0,0,0-2.79-1.13,5.84,5.84,0,0,0-4.09,1.73c-.08.44-.14.77-.17,1a6.52,6.52,0,0,0-.05.86,4.89,4.89,0,0,0,1.2,3.42A4,4,0,0,0,23.26,42a3.64,3.64,0,0,0,2.79-1.13A4.22,4.22,0,0,0,27.09,37.86Z"/><path class="cls-1" d="M45.4,47.65H38.75L50.28,22.13H36.47V16.94H57.19v4.57Z"/></svg>