<svg id="Layer_1" data-name="Layer 1" xmlns="http://www.w3.org/2000/svg" viewBox="0 0 69.71 64.98"><defs><style>.cls-1{fill:#ffe8d9;stroke:#2d1606;stroke-miterlimit:10;}</style></defs><path class="cls-1" d="M28.61,55.8H21.16V45.48H5.74V13.86h7.68v24.9h7.74V28.62h7.38V38.76h5.34v6.66H28.61Z"/><path class="cls-1" d="M64.06,55.8H56l.48-17.7a11,11,0,0,1-3.42,2.1,12,12,0,0,1-4,.6,12.64,12.64,0,0,1-5-1,11.07,11.07,0,0,1-3.87-2.73,12.21,12.21,0,0,1-2.49-4.23,16.48,16.48,0,0,1-.87-5.52,16.19,16.19,0,0,1,1-6,12.66,12.66,0,0,1,3-4.53A12.82,12.82,0,0,1,45.55,14a18.47,18.47,0,0,1,6.21-1Q58,13,61.48,16.5t3.3,9.66ZM56.44,25.26a4.72,4.72,0,0,0-.39-2A4.83,4.83,0,0,0,55,21.78a4.79,4.79,0,0,0-1.65-1,5.76,5.76,0,0,0-2-.36,5.51,5.51,0,0,0-4.38,1.86,7.5,7.5,0,0,0-1.62,5.1,6.63,6.63,0,0,0,1.41,4.5,4.93,4.93,0,0,0,3.93,1.62,5.41,5.41,0,0,0,4.08-1.62,6.64,6.64,0,0,0,1.68-4.5Z"/></svg>