<svg id="Layer_1" data-name="Layer 1" xmlns="http://www.w3.org/2000/svg" viewBox="0 0 69.71 64.98"><defs><style>.cls-1{fill:#ffe8d9;stroke:#2d1606;stroke-miterlimit:10;}</style></defs><path class="cls-1" d="M15,55.18V22.46c-.8.93-1.56,1.75-2.28,2.49s-1.5,1.53-2.34,2.37l-4-5.39q1.8-1.56,3.48-3.12,1.44-1.32,2.94-2.82a36.08,36.08,0,0,0,2.47-2.69H23V55.18Z"/><path class="cls-1" d="M65.1,33.51q0,11.45-3.94,16.55T49.47,55.18q-7.76,0-11.69-5.14T33.84,34.27q0-10.58,3.94-15.77t11.69-5.2Q65.1,13.3,65.1,33.51Zm-9.42.34C55.56,29.25,55,26,54.11,24A4.72,4.72,0,0,0,49.53,21a5.05,5.05,0,0,0-4.65,3.2q-1.44,3.11-1.62,10.6.18,6.24,1.57,9.37a5,5,0,0,0,4.7,3.23A4.76,4.76,0,0,0,54,44.31Q55.51,41.19,55.68,33.85Z"/></svg>