<svg id="Layer_1" data-name="Layer 1" xmlns="http://www.w3.org/2000/svg" viewBox="0 0 69.71 64.98"><defs><style>.cls-1{fill:#868687;}</style></defs><path class="cls-1" d="M33.35,37.74a10.93,10.93,0,0,1-.73,4.1,9,9,0,0,1-2,3.11,9.11,9.11,0,0,1-3.19,2,11.86,11.86,0,0,1-4.2.7,11.67,11.67,0,0,1-4.39-.79,9.55,9.55,0,0,1-3.39-2.29A10.42,10.42,0,0,1,13.23,41a12.77,12.77,0,0,1-.78-4.59A16.32,16.32,0,0,1,13.39,31a28.25,28.25,0,0,1,2.43-5.21A37.18,37.18,0,0,1,19.19,21,47.18,47.18,0,0,1,23,16.94h7.44A46.19,46.19,0,0,0,25,22.84a47.62,47.62,0,0,0-4.44,6.82c.46-.27.88-.49,1.25-.66a7.26,7.26,0,0,1,1.06-.42,5.68,5.68,0,0,1,1-.22A9.9,9.9,0,0,1,25,28.29a8.11,8.11,0,0,1,3.38.69A7.57,7.57,0,0,1,31,30.93a9.38,9.38,0,0,1,1.73,3A11.3,11.3,0,0,1,33.35,37.74Zm-5.85.12a4.39,4.39,0,0,0-1-3.07,3.64,3.64,0,0,0-2.79-1.13,5.82,5.82,0,0,0-4.09,1.73q-.13.66-.18,1a6.78,6.78,0,0,0,0,.86,4.93,4.93,0,0,0,1.19,3.42A4,4,0,0,0,23.66,42a3.65,3.65,0,0,0,2.8-1.13A4.27,4.27,0,0,0,27.5,37.86Z"/><path class="cls-1" d="M57.51,37.74a10.93,10.93,0,0,1-.74,4.1,9,9,0,0,1-2,3.11,9.21,9.21,0,0,1-3.19,2,11.86,11.86,0,0,1-4.2.7,11.72,11.72,0,0,1-4.4-.79,9.51,9.51,0,0,1-3.38-2.29A10.61,10.61,0,0,1,37.38,41a13,13,0,0,1-.77-4.59A16.56,16.56,0,0,1,37.54,31,29,29,0,0,1,40,25.81,37.18,37.18,0,0,1,43.35,21a44.23,44.23,0,0,1,3.78-4.08h7.43a46.13,46.13,0,0,0-5.45,5.9,46.77,46.77,0,0,0-4.44,6.82A13,13,0,0,1,45.92,29a7.17,7.17,0,0,1,1-.42,5.87,5.87,0,0,1,1-.22,10.23,10.23,0,0,1,1.17-.07,8.14,8.14,0,0,1,3.38.69,7.57,7.57,0,0,1,2.63,1.95,9.36,9.36,0,0,1,1.72,3A11.06,11.06,0,0,1,57.51,37.74Zm-5.85.12a4.35,4.35,0,0,0-1-3.07,3.61,3.61,0,0,0-2.79-1.13,5.82,5.82,0,0,0-4.08,1.73q-.14.66-.18,1a6.78,6.78,0,0,0,0,.86,4.88,4.88,0,0,0,1.19,3.42A4,4,0,0,0,47.82,42a3.62,3.62,0,0,0,2.79-1.13A4.23,4.23,0,0,0,51.66,37.86Z"/></svg>