<svg id="Layer_1" data-name="Layer 1" xmlns="http://www.w3.org/2000/svg" viewBox="0 0 69.71 64.98"><defs><style>.cls-1{fill:#87786f;stroke:#2d1606;stroke-miterlimit:10;}</style></defs><path class="cls-1" d="M32.55,40.92q0,6.39-3.88,9.87T17.8,54.27a20.31,20.31,0,0,1-8-1.53,17.63,17.63,0,0,1-6.32-4.5l3.36-5.91c3.56,3.23,7,4.86,10.44,4.86a8.09,8.09,0,0,0,5.22-1.64,5.19,5.19,0,0,0,2-4.23,5.87,5.87,0,0,0-1.71-4.57,7.08,7.08,0,0,0-5-1.56,7.07,7.07,0,0,0-3.15.69,12.54,12.54,0,0,0-3,2.13L6.63,35.06l.59-22.68h24l.07,7.08H14.9l-.3,9.84c.59-.27,1.09-.5,1.52-.68a11.85,11.85,0,0,1,1.25-.45,6.08,6.08,0,0,1,1.31-.24c.47,0,1-.06,1.57-.06a12.89,12.89,0,0,1,5,.94,10.9,10.9,0,0,1,3.88,2.65,12.15,12.15,0,0,1,2.5,4.13A15.21,15.21,0,0,1,32.55,40.92Z"/><path class="cls-1" d="M65.48,40.92q0,6.39-3.87,9.87T50.73,54.27a20.29,20.29,0,0,1-8-1.53,17.63,17.63,0,0,1-6.32-4.5l3.36-5.91c3.56,3.23,7,4.86,10.44,4.86a8.09,8.09,0,0,0,5.22-1.64,5.19,5.19,0,0,0,2-4.23,5.87,5.87,0,0,0-1.71-4.57,7.1,7.1,0,0,0-4.95-1.56,7.07,7.07,0,0,0-3.15.69,12.78,12.78,0,0,0-3,2.13l-5.16-2.95.6-22.68h24l.06,7.08H47.84l-.3,9.84c.59-.27,1.09-.5,1.52-.68a11.09,11.09,0,0,1,1.25-.45,6,6,0,0,1,1.31-.24c.47,0,1-.06,1.57-.06a12.89,12.89,0,0,1,5,.94,10.9,10.9,0,0,1,3.88,2.65,12.31,12.31,0,0,1,2.5,4.13A15.21,15.21,0,0,1,65.48,40.92Z"/></svg>