<svg id="Layer_1" data-name="Layer 1" xmlns="http://www.w3.org/2000/svg" viewBox="0 0 69.71 64.98"><defs><style>.cls-1{fill:#868687;}</style></defs><path class="cls-1" d="M14.26,49.21l0-3.46q1.37-1.59,2.89-3.17l3-3.13c1-1,1.95-2.05,2.86-3a28.65,28.65,0,0,0,2.4-3,16.81,16.81,0,0,0,1.65-3,7.64,7.64,0,0,0,.61-3,3.26,3.26,0,0,0-1.14-2.59,4.16,4.16,0,0,0-2.82-1,4.64,4.64,0,0,0-2.13.48A5.36,5.36,0,0,0,20,25.56a9.37,9.37,0,0,0-1.19,1.65A16.35,16.35,0,0,0,18,29l-4.22-3.07c.29-.67.66-1.42,1.1-2.27a8.84,8.84,0,0,1,1.91-2.43A10.75,10.75,0,0,1,20,19.3a13.84,13.84,0,0,1,5.13-.8,12.33,12.33,0,0,1,3.88.58,8.72,8.72,0,0,1,3,1.65A7.16,7.16,0,0,1,34,23.32a8.34,8.34,0,0,1,.67,3.41A11.43,11.43,0,0,1,33.33,32a27.12,27.12,0,0,1-3.14,4.87A38.56,38.56,0,0,1,26.32,41q-2,1.85-3.44,3.05h12v5.19Z"/><path class="cls-1" d="M47.79,49.21v-24c-.59.67-1.15,1.28-1.68,1.82S45,28.17,44.4,28.78l-2.91-4c.88-.76,1.74-1.52,2.56-2.28s1.42-1.33,2.15-2.07a26.73,26.73,0,0,0,1.82-2h5.62V49.21Z"/></svg>