<svg id="Layer_1" data-name="Layer 1" xmlns="http://www.w3.org/2000/svg" viewBox="0 0 69.71 64.98"><defs><style>.cls-1{fill:#022749;}</style></defs><path class="cls-1" d="M27.24,46.36H21.78V38.79H10.48V15.6h5.63V33.86h5.67V26.43H27.2v7.43h3.91v4.89H27.24Z"/><path class="cls-1" d="M33.75,46.36l0-3.46q1.37-1.59,2.88-3.17l3-3.13c1-1,2-2.05,2.86-3a28.65,28.65,0,0,0,2.4-3,16.81,16.81,0,0,0,1.65-3,7.69,7.69,0,0,0,.62-3A3.27,3.27,0,0,0,46.07,22a4.1,4.1,0,0,0-2.81-1,4.65,4.65,0,0,0-2.14.48,5.49,5.49,0,0,0-1.63,1.22,8.83,8.83,0,0,0-1.18,1.65,13.38,13.38,0,0,0-.86,1.8l-4.23-3.07c.3-.67.66-1.42,1.1-2.28a8.81,8.81,0,0,1,1.92-2.42,10.57,10.57,0,0,1,3.25-1.94,13.88,13.88,0,0,1,5.13-.8,12.59,12.59,0,0,1,3.88.57,8.72,8.72,0,0,1,3,1.66,7.16,7.16,0,0,1,1.93,2.59,8.34,8.34,0,0,1,.67,3.41,11.54,11.54,0,0,1-1.29,5.23A27.73,27.73,0,0,1,49.68,34a36.64,36.64,0,0,1-3.87,4.14c-1.35,1.23-2.5,2.25-3.43,3.05h12v5.19Z"/></svg>