<svg id="Layer_1" data-name="Layer 1" xmlns="http://www.w3.org/2000/svg" viewBox="0 0 69.71 64.98"><defs><style>.cls-1{fill:#fff;stroke:#040421;}</style></defs><path class="cls-1" d="M5.81,47.54l.05-3.92C6.89,42.41,8,41.2,9.13,40l3.43-3.56c1.13-1.17,2.21-2.33,3.25-3.46a29.64,29.64,0,0,0,2.72-3.41,18.84,18.84,0,0,0,1.88-3.38,8.79,8.79,0,0,0,.7-3.39,3.72,3.72,0,0,0-1.3-2.94,4.74,4.74,0,0,0-3.2-1.13,5.36,5.36,0,0,0-2.43.54,6.38,6.38,0,0,0-1.85,1.39A10.61,10.61,0,0,0,11,22.54a15.82,15.82,0,0,0-1,2.05L5.21,21.1c.33-.76.75-1.62,1.25-2.58a10,10,0,0,1,2.17-2.76,12.39,12.39,0,0,1,3.7-2.21,16,16,0,0,1,5.83-.91,14.07,14.07,0,0,1,4.41.66A9.88,9.88,0,0,1,26,15.18a8.11,8.11,0,0,1,2.19,2.95A9.45,9.45,0,0,1,29,22,13,13,0,0,1,27.48,28a31,31,0,0,1-3.57,5.53,42.27,42.27,0,0,1-4.4,4.7q-2.31,2.1-3.9,3.46H29.26v5.9Z"/><path class="cls-1" d="M58.21,29.49q0,9.53-3.28,13.79t-9.75,4.26q-6.45,0-9.74-4.28T32.16,30.12q0-8.82,3.28-13.15t9.74-4.33Q58.22,12.64,58.21,29.49Zm-7.85.28c-.1-3.83-.53-6.57-1.31-8.21a3.94,3.94,0,0,0-3.82-2.47,4.21,4.21,0,0,0-3.87,2.67c-.8,1.72-1.26,4.67-1.35,8.83a21.57,21.57,0,0,0,1.3,7.81,4.18,4.18,0,0,0,3.92,2.69A4,4,0,0,0,49,38.49Q50.21,35.89,50.36,29.77Z"/></svg>