<svg id="Layer_1" data-name="Layer 1" xmlns="http://www.w3.org/2000/svg" viewBox="0 0 69.71 64.98"><defs><style>.cls-1{fill:#022749;}</style></defs><path class="cls-1" d="M31.35,38.48a7.51,7.51,0,0,1-.74,3.35,7.38,7.38,0,0,1-2.15,2.62A10.47,10.47,0,0,1,25,46.17a15.43,15.43,0,0,1-4.49.61,18.59,18.59,0,0,1-3.41-.28,11.88,11.88,0,0,1-2.84-.87,11.21,11.21,0,0,1-2.51-1.58A18.85,18.85,0,0,1,9.4,41.63l2.9-3.91q3.43,3.87,7.35,3.87a5.29,5.29,0,0,0,3.45-1,3.91,3.91,0,0,0,1-4.6,3.62,3.62,0,0,0-1.5-1.48,8.58,8.58,0,0,0-3-.86A23.13,23.13,0,0,0,15,33.54v-5.2a31.78,31.78,0,0,0,4.42.05,7.58,7.58,0,0,0,2.73-.6,2.93,2.93,0,0,0,1.4-1.25A4,4,0,0,0,24,24.62a3.2,3.2,0,0,0-1.27-2.44,5.08,5.08,0,0,0-3.17-.92,7.4,7.4,0,0,0-3.13.69,12.83,12.83,0,0,0-3.16,2.23L10.76,20q3.3-3.94,10.17-3.95a12.67,12.67,0,0,1,3.88.55,8.77,8.77,0,0,1,3,1.58,6.85,6.85,0,0,1,1.9,2.45,7.56,7.56,0,0,1,.66,3.22A6.73,6.73,0,0,1,29,28.11a10.06,10.06,0,0,1-4.22,2.83,8.26,8.26,0,0,1,4.86,2.48A7.3,7.3,0,0,1,31.35,38.48Z"/><path class="cls-1" d="M34.83,46.78l0-3.45q1.37-1.61,2.89-3.18l3-3.13c1-1,1.95-2.05,2.86-3A26.72,26.72,0,0,0,46,31a16.81,16.81,0,0,0,1.65-3,7.64,7.64,0,0,0,.61-3,3.28,3.28,0,0,0-1.14-2.59,4.15,4.15,0,0,0-2.82-1,4.63,4.63,0,0,0-2.13.47,5.49,5.49,0,0,0-1.63,1.22,9.37,9.37,0,0,0-1.19,1.65,14.62,14.62,0,0,0-.85,1.8L34.3,23.51c.29-.66.66-1.42,1.1-2.27a8.67,8.67,0,0,1,1.92-2.42,10.39,10.39,0,0,1,3.25-1.95,13.88,13.88,0,0,1,5.13-.8,12.29,12.29,0,0,1,3.88.58,8.72,8.72,0,0,1,3,1.65,7.16,7.16,0,0,1,1.93,2.59,8.34,8.34,0,0,1,.67,3.41,11.47,11.47,0,0,1-1.3,5.24,27.4,27.4,0,0,1-3.14,4.86,36.64,36.64,0,0,1-3.87,4.14q-2,1.85-3.44,3.05h12v5.19Z"/></svg>