<svg id="Layer_1" data-name="Layer 1" xmlns="http://www.w3.org/2000/svg" viewBox="0 0 69.71 64.98"><defs><style>.cls-1{fill:#022749;}</style></defs><path class="cls-1" d="M30.91,33.93a9.19,9.19,0,0,1-2.84,7.23c-1.9,1.7-4.55,2.55-8,2.55a15,15,0,0,1-5.85-1.11,13.12,13.12,0,0,1-4.63-3.3L12.08,35c2.61,2.37,5.17,3.56,7.66,3.56a6,6,0,0,0,3.83-1.2,3.8,3.8,0,0,0,1.49-3.1,4.32,4.32,0,0,0-1.25-3.35,5.19,5.19,0,0,0-3.63-1.15,5.16,5.16,0,0,0-2.31.51,9.5,9.5,0,0,0-2.18,1.56l-3.78-2.16L12.35,13H30l0,5.19H18l-.22,7.22,1.11-.51a9.29,9.29,0,0,1,.92-.33,5.64,5.64,0,0,1,1-.17c.34,0,.72,0,1.15,0a9.57,9.57,0,0,1,3.68.69A8.09,8.09,0,0,1,28.42,27a8.93,8.93,0,0,1,1.83,3A11.18,11.18,0,0,1,30.91,33.93Z"/><path class="cls-1" d="M55.6,35.41a7.33,7.33,0,0,1-2.9,6,10.56,10.56,0,0,1-3.44,1.71,15.38,15.38,0,0,1-4.49.61,19.65,19.65,0,0,1-3.41-.27,12.27,12.27,0,0,1-2.83-.87A11,11,0,0,1,36,41a18.77,18.77,0,0,1-2.38-2.41l2.91-3.92q3.42,3.87,7.34,3.87a5.4,5.4,0,0,0,3.46-1,3.59,3.59,0,0,0,1.34-2.7,3.45,3.45,0,0,0-.35-1.91,3.55,3.55,0,0,0-1.5-1.47,8.42,8.42,0,0,0-3-.87,23.11,23.11,0,0,0-4.66-.09V25.28a33.42,33.42,0,0,0,4.42,0,8,8,0,0,0,2.73-.6,3,3,0,0,0,1.41-1.25,4,4,0,0,0,.42-1.93,3.18,3.18,0,0,0-1.28-2.43,5,5,0,0,0-3.17-.93,7.22,7.22,0,0,0-3.12.7,12.6,12.6,0,0,0-3.17,2.23L35,17Q38.31,13,45.17,13a12.62,12.62,0,0,1,3.88.56,8.8,8.8,0,0,1,3,1.57,7,7,0,0,1,1.89,2.45,7.63,7.63,0,0,1,.66,3.22A6.65,6.65,0,0,1,53.28,25a9.9,9.9,0,0,1-4.22,2.83,8.35,8.35,0,0,1,4.87,2.48A7.39,7.39,0,0,1,55.6,35.41Z"/></svg>