<svg id="Layer_1" data-name="Layer 1" xmlns="http://www.w3.org/2000/svg" viewBox="0 0 69.71 64.98"><defs><style>.cls-1{fill:#fff;stroke:#040421;}</style></defs><path class="cls-1" d="M43.08,40.57A7.61,7.61,0,0,1,39.94,47c-2.09,1.56-5,2.33-8.72,2.33A19.19,19.19,0,0,1,26,48.71a13.34,13.34,0,0,1-4-1.83A8.63,8.63,0,0,1,19.4,44a8.3,8.3,0,0,1,.75-8.79,14.12,14.12,0,0,1,5.58-3.53c-1.37-.85-2.47-1.6-3.3-2.23a9.39,9.39,0,0,1-1.93-1.89,5.52,5.52,0,0,1-.92-2,10.26,10.26,0,0,1-.25-2.45,7.66,7.66,0,0,1,2.9-6.43c1.93-1.5,4.9-2.26,8.9-2.26a17.72,17.72,0,0,1,4.72.59,11.48,11.48,0,0,1,3.63,1.67,7.24,7.24,0,0,1,3.1,6.1,7.72,7.72,0,0,1-1.48,4.75,14.66,14.66,0,0,1-4.87,3.81,12.46,12.46,0,0,1,5.22,3.76A8.94,8.94,0,0,1,43.08,40.57Zm-6.65-.64a3.53,3.53,0,0,0-.4-1.72A3.8,3.8,0,0,0,34.85,37a10.24,10.24,0,0,0-1.85-1c-.71-.32-1.52-.65-2.42-1a10.28,10.28,0,0,0-3.65,1.87,3.32,3.32,0,0,0-1.05,2.55,3.56,3.56,0,0,0,1.5,3,6.66,6.66,0,0,0,4.05,1.1,6.19,6.19,0,0,0,3.65-1A3,3,0,0,0,36.43,39.93Zm-1-15.86a3.22,3.22,0,0,0-1.33-2.67,5.53,5.53,0,0,0-3.47-1,4.8,4.8,0,0,0-3.1,1,3,3,0,0,0-1.2,2.46q0,2.63,4.8,4.68a7.6,7.6,0,0,0,3.35-1.89A3.76,3.76,0,0,0,35.48,24.07Z"/></svg>