<svg id="Layer_1" data-name="Layer 1" xmlns="http://www.w3.org/2000/svg" viewBox="0 0 69.71 64.98"><defs><style>.cls-1{fill:#ffe8d9;stroke:#2d1606;stroke-miterlimit:10;}</style></defs><path class="cls-1" d="M34.18,45a9.12,9.12,0,0,1-3.76,7.77c-2.51,1.87-6,2.8-10.47,2.8a22.86,22.86,0,0,1-6.24-.79,15.64,15.64,0,0,1-4.82-2.21,10.15,10.15,0,0,1-3.12-3.42,9.15,9.15,0,0,1-1.11-4.5,9.05,9.05,0,0,1,2-6,17,17,0,0,1,6.69-4.24q-2.46-1.53-4-2.68a11.08,11.08,0,0,1-2.31-2.27A6.65,6.65,0,0,1,6,27.07a12.7,12.7,0,0,1-.3-2.95,9.21,9.21,0,0,1,3.48-7.71q3.48-2.71,10.68-2.71a21.25,21.25,0,0,1,5.67.71,13.64,13.64,0,0,1,4.35,2,8.71,8.71,0,0,1,3.72,7.32,9.29,9.29,0,0,1-1.77,5.69A17.21,17.21,0,0,1,26,34a14.91,14.91,0,0,1,6.27,4.53A10.66,10.66,0,0,1,34.18,45Zm-8-.76a4.2,4.2,0,0,0-.48-2.07,4.67,4.67,0,0,0-1.41-1.51,12.72,12.72,0,0,0-2.22-1.24c-.86-.39-1.83-.78-2.91-1.19a12.32,12.32,0,0,0-4.38,2.23,4,4,0,0,0-1.26,3.07,4.29,4.29,0,0,0,1.8,3.64A8,8,0,0,0,20.2,48.5a7.41,7.41,0,0,0,4.38-1.16A3.61,3.61,0,0,0,26.2,44.25Zm-1.14-19A3.86,3.86,0,0,0,23.47,22a6.57,6.57,0,0,0-4.17-1.24,5.76,5.76,0,0,0-3.72,1.15,3.61,3.61,0,0,0-1.44,2.95q0,3.15,5.76,5.62a9.08,9.08,0,0,0,4-2.27A4.51,4.51,0,0,0,25.06,25.22Z"/><path class="cls-1" d="M66.7,42.06a14.81,14.81,0,0,1-1,5.59,12.05,12.05,0,0,1-2.79,4.24,12.23,12.23,0,0,1-4.35,2.72,17.2,17.2,0,0,1-11.72-.12,12.64,12.64,0,0,1-4.61-3.12,14.49,14.49,0,0,1-3-4.82,17.68,17.68,0,0,1-1.06-6.26,22.5,22.5,0,0,1,1.28-7.39,38.19,38.19,0,0,1,3.32-7.11,51.11,51.11,0,0,1,4.59-6.53,62.24,62.24,0,0,1,5.16-5.56H62.69a63.24,63.24,0,0,0-7.44,8.05A64.24,64.24,0,0,0,49.19,31q.95-.54,1.71-.9a11.27,11.27,0,0,1,1.44-.57,8.08,8.08,0,0,1,1.38-.3,12.6,12.6,0,0,1,1.58-.09,11.09,11.09,0,0,1,4.62.94,10.2,10.2,0,0,1,3.58,2.66,12.79,12.79,0,0,1,2.35,4.1A15.17,15.17,0,0,1,66.7,42.06Zm-8,.17A5.94,5.94,0,0,0,57.3,38a5,5,0,0,0-3.8-1.54,8,8,0,0,0-5.58,2.36q-.18.9-.24,1.35a9.19,9.19,0,0,0-.06,1.17A6.68,6.68,0,0,0,49.25,46a5.46,5.46,0,0,0,4.24,1.8A4.93,4.93,0,0,0,57.3,46.3,5.77,5.77,0,0,0,58.72,42.23Z"/></svg>