<svg id="Layer_1" data-name="Layer 1" xmlns="http://www.w3.org/2000/svg" viewBox="0 0 69.71 64.98"><defs><style>.cls-1{fill:#fff;stroke:#040421;}</style></defs><path class="cls-1" d="M34.45,40.21a7.63,7.63,0,0,1-3.13,6.48Q28.19,49,22.59,49a19.11,19.11,0,0,1-5.2-.66,12.9,12.9,0,0,1-4-1.84,8.48,8.48,0,0,1-2.6-2.85,7.61,7.61,0,0,1-.93-3.75,7.52,7.52,0,0,1,1.68-5,14,14,0,0,1,5.57-3.54c-1.36-.85-2.46-1.59-3.3-2.23a9.58,9.58,0,0,1-1.92-1.89,5.6,5.6,0,0,1-.93-2,11,11,0,0,1-.25-2.46,7.66,7.66,0,0,1,2.9-6.42c1.94-1.51,4.9-2.26,8.9-2.26a17.4,17.4,0,0,1,4.73.59,11.31,11.31,0,0,1,3.62,1.67,7.24,7.24,0,0,1,3.1,6.1,7.77,7.77,0,0,1-1.47,4.74A14.47,14.47,0,0,1,27.6,31a12.41,12.41,0,0,1,5.22,3.77A8.84,8.84,0,0,1,34.45,40.21Zm-6.65-.63a3.46,3.46,0,0,0-.4-1.73,4,4,0,0,0-1.17-1.26,11,11,0,0,0-1.85-1c-.72-.33-1.53-.65-2.43-1a10.22,10.22,0,0,0-3.65,1.86A3.35,3.35,0,0,0,17.25,39a3.54,3.54,0,0,0,1.5,3,6.66,6.66,0,0,0,4.05,1.11,6.1,6.1,0,0,0,3.65-1A3,3,0,0,0,27.8,39.58Zm-.95-15.86a3.23,3.23,0,0,0-1.32-2.67,5.5,5.5,0,0,0-3.48-1A4.82,4.82,0,0,0,19,21a3,3,0,0,0-1.2,2.46q0,2.61,4.8,4.68a7.45,7.45,0,0,0,3.35-1.9A3.69,3.69,0,0,0,26.85,23.72Z"/><path class="cls-1" d="M61.9,40.21a7.63,7.63,0,0,1-3.13,6.48Q55.64,49,50,49a19.11,19.11,0,0,1-5.2-.66,12.9,12.9,0,0,1-4-1.84,8.48,8.48,0,0,1-2.6-2.85,7.61,7.61,0,0,1-.93-3.75,7.52,7.52,0,0,1,1.68-5,14,14,0,0,1,5.57-3.54c-1.36-.85-2.46-1.59-3.3-2.23a9.58,9.58,0,0,1-1.92-1.89,5.6,5.6,0,0,1-.93-2,11,11,0,0,1-.25-2.46,7.66,7.66,0,0,1,2.9-6.42C43,14.87,46,14.12,50,14.12a17.4,17.4,0,0,1,4.73.59,11.31,11.31,0,0,1,3.62,1.67,7.24,7.24,0,0,1,3.1,6.1,7.77,7.77,0,0,1-1.47,4.74A14.47,14.47,0,0,1,55.05,31a12.47,12.47,0,0,1,5.22,3.77A8.84,8.84,0,0,1,61.9,40.21Zm-6.65-.63a3.46,3.46,0,0,0-.4-1.73,4,4,0,0,0-1.17-1.26,11,11,0,0,0-1.85-1c-.72-.33-1.53-.65-2.43-1a10.22,10.22,0,0,0-3.65,1.86,3.35,3.35,0,0,0-1,2.55,3.54,3.54,0,0,0,1.5,3,6.66,6.66,0,0,0,4,1.11,6.1,6.1,0,0,0,3.65-1A3,3,0,0,0,55.25,39.58Zm-1-15.86A3.23,3.23,0,0,0,53,21.05a5.5,5.5,0,0,0-3.48-1,4.82,4.82,0,0,0-3.1,1,3,3,0,0,0-1.2,2.46q0,2.61,4.8,4.68a7.45,7.45,0,0,0,3.35-1.9A3.69,3.69,0,0,0,54.3,23.72Z"/></svg>