<svg id="Layer_1" data-name="Layer 1" xmlns="http://www.w3.org/2000/svg" xmlns:xlink="http://www.w3.org/1999/xlink" width="363.09" height="550.59" viewBox="0 0 363.09 550.59">
  <defs>
    <style>
      .cls-1, .cls-26 {
        fill: none;
      }

      .cls-2 {
        opacity: 0.32;
      }

      .cls-3 {
        fill: #1d4482;
        stroke: #12224f;
      }

      .cls-10, .cls-13, .cls-25, .cls-26, .cls-3, .cls-5, .cls-6, .cls-8, .cls-9 {
        stroke-miterlimit: 10;
      }

      .cls-4 {
        fill: #162f75;
      }

      .cls-16, .cls-5 {
        fill: #f9d1c6;
      }

      .cls-5 {
        stroke: #6d4b2c;
      }

      .cls-6 {
        fill: #d81f25;
        stroke: #6d0c18;
      }

      .cls-7 {
        fill: #c11623;
      }

      .cls-13, .cls-8 {
        fill: #fecb4b;
      }

      .cls-8 {
        stroke: #72530e;
      }

      .cls-9 {
        fill: #6bcdf2;
        stroke: #3f2d09;
      }

      .cls-10 {
        fill: #fbaa10;
        stroke: #49301f;
      }

      .cls-11 {
        fill: #fecc51;
      }

      .cls-12 {
        fill: #4c2c17;
      }

      .cls-13 {
        stroke: #563c09;
      }

      .cls-14 {
        fill: #db9d8e;
      }

      .cls-15 {
        fill: #342517;
      }

      .cls-17 {
        fill: #6d4b2c;
      }

      .cls-18, .cls-27 {
        fill: #fff;
      }

      .cls-19 {
        fill: #3d2e17;
      }

      .cls-20 {
        fill: #2d2b21;
      }

      .cls-21 {
        fill: #6d2925;
      }

      .cls-22 {
        fill: #d26653;
      }

      .cls-23 {
        fill: #f9988f;
      }

      .cls-24 {
        fill: #ea827d;
      }

      .cls-25 {
        fill: #1044a0;
        stroke: #143d84;
        opacity: 0.25;
      }

      .cls-26 {
        stroke: #700418;
      }

      .cls-27 {
        opacity: 0.35;
      }

      .cls-28 {
        clip-path: url(#clip-path);
      }

      .cls-29 {
        clip-path: url(#clip-path-2);
      }

      .cls-30 {
        opacity: 0.57;
      }

      .cls-31 {
        opacity: 0.8;
      }

      .cls-32 {
        fill: #f4edf9;
      }

      .cls-33 {
        opacity: 0.7;
      }

      .cls-34 {
        fill: #a0e6f9;
      }

      .cls-35 {
        fill: #f9e9aa;
      }
    </style>
    <clipPath id="clip-path">
      <rect class="cls-1" x="2639.35" y="-1853.12" width="1600" height="900"/>
    </clipPath>
    <clipPath id="clip-path-2">
      <rect class="cls-1" x="-6337.48" y="-2087.81" width="10800" height="2050"/>
    </clipPath>
  </defs>
  <ellipse class="cls-2" cx="167.45" cy="512.38" rx="108.84" ry="18.56"/>
  <g>
    <g>
      <path class="cls-3" d="M124.05,250.68s-33.6,91.68-29,153.18c0,0,.57,22.78,28.47,10.82s48.4-4.55,60.93,3.42,37,12,56.38-12.53,35.87,1.14,53-14.23,26.77-30.76,16.52-43.28c0,0-22.78-1.71-77.45-84.28S124.05,250.68,124.05,250.68Z"/>
      <path class="cls-4" d="M255.59,394.18S219.72,342.36,209.47,270c0,0,25.05,101.36,53,123Z"/>
      <path class="cls-4" d="M220.86,421s-28.48-62.64-41-175.39c0,0,6.84,104.77,37,177.66Z"/>
      <path class="cls-4" d="M130.88,411.84s17.09-45,16.52-135c0,0-6.84,105.34-23.92,137.8Z"/>
      <path class="cls-4" d="M306.84,376s-41-21.64-69.47-92.25C237.37,283.71,268.69,375.39,306.84,376Z"/>
    </g>
    <path class="cls-5" d="M125.2,209.26s5.89-3.93,18.66-6.55v-10.8l39,3.27,3,7.2L201,206.51S184.13,235.46,125.2,209.26Z"/>
    <g>
      <path class="cls-5" d="M87.3,333.71s-3.82-5.78,5.11-6.55a33.64,33.64,0,0,1,15.52,2.25l-3.78,6.79-8.57,3.21L88.49,338l-2-6.14"/>
      <path class="cls-5" d="M77.83,337.1l-3.63-4.76s1.79-7,8.81-3.61l5.87,4.41,13.3,2,5.75-5.72-8.62,11.72-10.58,3.16Z"/>
      <path class="cls-5" d="M70,338.11s-6.32-4.23-.22-6.9,10.43,1.29,15.4,6.09,17.71-3.37,17.71-3.37l3.65,3.95-8.74,8.28L83.71,348Z"/>
      <path class="cls-5" d="M93.6,325l6.86,8.1S88.34,336,84.76,343.17c0,0-8.61-9.16-14.94-6.49S73,349.54,85.65,349.89,113.73,343,118,334.55s3.9-23.62-9.09-28.23S93.6,325,93.6,325Z"/>
    </g>
    <path class="cls-6" d="M109.89,306.14a37.28,37.28,0,0,1-13.41,18.28l-2,1.46s-3-1.56-7.65-4.21c-16.93-9.72-55.13-34.11-42.78-50C59,252.45,105.63,215,105.63,215l1.31,3,1.31,39.34L80.09,275.81l23.34,23.75Z"/>
    <path class="cls-6" d="M295.47,253.05l-1,23.4a67.34,67.34,0,0,1-8,2.67c-10.22,2.81-28.69,5.88-46.05-1.6l-24.12-18.81,7.1-42.22s1.49.15,6.38,5.9c5,5.9,13.65,17.6,28,32.42l25.28-1.18Z"/>
    <g>
      <g>
        <path class="cls-6" d="M226.05,217.91l-.63,2.52-6.58,26.51L213,310.13l-2,7v1.15l1.53.94L214,321l.22,2.28c-.56,30,3.27,107.45,3.27,138.91l-9.17,1.07-21.44,2.49-14-85.8-1.83-11.21-.71-3.33-2.86.35-1.72.22-.44,2.57L150.08,482.92l-30.45-16.51-3.6-142,2.62-1.14v-5.7l-2-5.69L106.09,244l-.73-8.24-1.78-20.08s9.9-6.52,30.29-11.09c1.59-.35,3.24-.7,5-1,2.61,7.22,14.57,14.58,28.93,14.58,13.53,0,24.92-6.74,28.38-13.34a29.38,29.38,0,0,1,4.89,1.36c2.62,1.19,5.51,1.21,9.9,2.78,3.46,1.24,7.85,3.45,13.77,8C225.14,217.2,225.59,217.54,226.05,217.91Z"/>
        <path class="cls-7" d="M211,317.15v1.15l1.53.94L214,321l.22,2.28c-.56,30,3.27,107.45,3.27,138.91l-9.17,1.07-5.89-111.52L172.92,379.9l-1.83-11.21-.71-3.33-2.86.35-1.07-12.31L193.3,305c4.41-60.3,11.89-85.56,17.63-96.11,3.46,1.24,7.85,3.45,13.77,8l.72,3.56-6.58,26.51L213,310.13Z"/>
        <path class="cls-8" d="M213.82,360c-49.31,33.3-39.89,35-44,33.53-.62.06-1.24.09-1.85.09a16.33,16.33,0,0,1-1.84-.1c-.52-.05.1.65-2.44-1.72-4.43-4.13-16.42-14.05-46.62-34.42v-.23L116.19,335v0c16.75,4.11,56.59,11.36,98.23.41Z"/>
        <path class="cls-9" d="M115.37,326.59s49.88,10.7,99.76-.43l.48,1.65a23.37,23.37,0,0,1-1.07,15.95h0s-43.19,12.52-99.6-1.23h0a24.79,24.79,0,0,1,.12-15Z"/>
        <rect class="cls-8" x="165.58" y="329.27" width="5.89" height="21.12"/>
        <rect class="cls-8" x="137.09" y="329.3" width="5.89" height="21.12"/>
        <rect class="cls-8" x="192.59" y="329.02" width="5.89" height="21.12"/>
      </g>
      <path class="cls-10" d="M201,206.51c-1.49,10.17-15.93,18.14-33.51,18.14-18.58,0-33.65-8.9-33.65-19.89v-.06c1.59-.41,3.24-.81,5-1.18,2.61,8.31,14.57,14.58,28.93,14.58,13.53,0,24.92-5.56,28.38-13.15C197.74,205.42,199.38,205.94,201,206.51Z"/>
      <path class="cls-11" d="M200.67,251.66c0-6.51-8.14-11.78-18.17-11.78-7.05,0-13.16,2.6-16.17,6.41-3.14-3.54-9-5.92-15.76-5.92-10,0-18.17,5.28-18.17,11.79,0,5.54,5.9,10.19,13.85,11.45,2.22,5.82,10.57,10.16,20.53,10.16,10.31,0,18.89-4.64,20.74-10.78C195.11,261.58,200.67,257,200.67,251.66Z"/>
      <path class="cls-6" d="M194.4,254.11c0-4.88-6.64-8.83-14.83-8.83-5.76,0-10.74,1.95-13.2,4.8-2.56-2.65-7.36-4.43-12.87-4.43-8.19,0-14.83,3.95-14.83,8.82,0,4.15,4.81,7.63,11.3,8.58,1.82,4.36,8.63,7.61,16.77,7.61,8.41,0,15.42-3.48,16.93-8.07C189.87,261.53,194.4,258.13,194.4,254.11Z"/>
    </g>
    <g>
      <g>
        <path class="cls-12" d="M119.9,453.7l3,39s-24.16,2.15-23.84,15.7,36.25,14.14,46.87,4l1.31-.52c3.13-1.23,7.53-2.3,7.43-5.31-.17-4.55-3.5-12.93-7.14-17.84-6-8.14-.08-32-.08-32S126.71,439.64,119.9,453.7Z"/>
        <path class="cls-13" d="M116.68,422.29l4.26,62.34c.18,2.3-.19,3.7-2.74,4.2-7,1.37-19.61,5.2-19.38,15,.32,13.55,36.25,14.14,46.87,4l3.89-1.19a5.74,5.74,0,0,0,4.37-6,96.29,96.29,0,0,1-.27-17.49,278.92,278.92,0,0,0,.66-29S123.49,408.23,116.68,422.29Z"/>
      </g>
      <path class="cls-13" d="M102.93,495.16s7.86-10.67,38.8-6"/>
      <path class="cls-12" d="M117.19,429.76a143.7,143.7,0,0,1,24.7,23.06h0c1.65,1.91,3.34,3.94,5.05,6.09h0q3,3.76,6.09,8.06l.23.21,0,.32-.18,2.42-.1,1.33v.13c-1.62-2.36-3.88-5.49-6.68-9.06-3-3.89-6.72-8.29-10.93-12.77a141.63,141.63,0,0,0-17.9-16.22Z"/>
    </g>
    <g>
      <g>
        <path class="cls-12" d="M217.56,451.26l-3.1,39s24.75,2.14,24.4,15.69-37.13,14.17-48,4l-1.35-.52c-3.2-1.23-5.72-4-5.12-7,1.71-8.7,1.58-16.32,5.31-21.22,6.19-8.15-.35-27-.35-27S210.61,437.2,217.56,451.26Z"/>
        <path class="cls-13" d="M221.24,419.84,217,482.18c-.18,2.3.18,3.71,2.74,4.21,7,1.36,19.61,5.19,19.37,15-.32,13.55-36.24,14.14-46.86,4l-5.69-1.59s.64,2.23-.67-20.78c-1-17.23-2.29-31.32-2.29-31.32S214.44,405.78,221.24,419.84Z"/>
      </g>
      <path class="cls-13" d="M235,492.72s-7.85-10.68-38.8-6"/>
      <path class="cls-12" d="M220.49,430.9a140.14,140.14,0,0,0-17.9,16.21c-4.22,4.49-7.9,8.89-10.94,12.77-2.8,3.57-5.05,6.71-6.68,9.06v-.13l-.1-1.33-.18-2.42,0-.32.24-.21q3.07-4.29,6.08-8.06h0q2.58-3.22,5.05-6.09h0a143.38,143.38,0,0,1,24.69-23.06Z"/>
    </g>
    <path class="cls-13" d="M186,484.16s-7.22,11.42.53,19.66c0,0,1.21-.5,7.33,2.73"/>
    <path class="cls-6" d="M80.09,275.81s-6.22-7.52-21.94-.07"/>
    <path class="cls-6" d="M257.78,254.81s-11.43-2.73-16.34,8.67"/>
    <g>
      <g>
        <path class="cls-5" d="M229.54,148c-5,10.74-15.69,15.53-24.52,11.91s-5.7-9.62-.71-20.36,5.25-9.53,13.87-13.9C237.06,116,234.52,137.21,229.54,148Z"/>
        <path class="cls-14" d="M221.52,130a4.79,4.79,0,0,1,4.11.2c1.56,1,1.82,3.12,1.71,5-.39,6.42-3.51,12.56-7.87,17.54a7.65,7.65,0,0,1-2.46,2.07,3,3,0,0,1-3.09-.15,3.1,3.1,0,0,1-.78-3.24c.74-2.91,3.43-4.92,5.61-7.09a5.79,5.79,0,0,0,1.47-2,2.18,2.18,0,0,0-.36-2.28,3.07,3.07,0,0,0-1.8-.71,17.52,17.52,0,0,0-4,.15c-.63-1.9,1-3.79,2.11-5.19A12.46,12.46,0,0,1,221.52,130Z"/>
      </g>
      <path class="cls-5" d="M205.31,81.08C170,62.69,215,35.19,169,37.82c-44.6,2.55-69.63,26.18-69,65,.29,18,6.87,36.5,6.81,37.47C104.21,186,149.92,206.92,177,205.36c11.81-.68,16.84-6.93,26.93-15.65,12.33-10.65,21.56-26.41,20.18-58.27C224,130.47,234.74,96.41,205.31,81.08Z"/>
      <path class="cls-14" d="M127,82.91s10.14,12.76,60.22,10l-1.68-6.56s3.41,9.11,32.75,12.64l6.14,35.25,4.8-74.49-106-2.94L107.69,74l1.67,19.81s-8.33,40.26-6,53.65l1.57-2.31a73.31,73.31,0,0,0,11.73-29.1h0S127,119.76,127,82.91Z"/>
      <path class="cls-15" d="M122.5,73.22S118,89,185.25,89.29c0,0-1.77-.71-8.28-16,8.43,18.77,25.85,18.4,38.77,21.74l4.58-19.83,4.07,59s5.6-17.5,7-24.86c0,0,5.26-20.62,1.49-33.61a68,68,0,0,1,4.53,12.38s16-32.1-27.19-56.36c0,0,2.45-2.74,12.91,1.83,0,0-20-20.87-59.59-20.49-20.73.2-36.4.24-45,20.62,0,0-25.11-16-35.16,15.18,0,0,17.24-9.74,22.48-2.88,0,0-20.52,3.62-24.52,33.2-3.77,28,4.31,47.62,19.89,67.68,0,0,14.94-17.52,10.6-42.1L117.9,114S128.65,106,122.5,73.22Z"/>
      <g>
        <path class="cls-16" d="M171.75,149.86s-.6,4.56,6.71,3.95c13.37-1.12,4.42-9,4.42-9"/>
        <path class="cls-17" d="M171.75,149.86c.61,4.53,6.35,3.6,9.64,3s5.32-2.42,3.29-5.76a13.71,13.71,0,0,0-1.8-2.37c1.53,1.3,3.1,2.91,3.23,5.08-.19,3.57-4.77,4.08-7.54,4.43s-7.53-.68-6.82-4.43Z"/>
      </g>
      <g>
        <path class="cls-5" d="M107.29,145.75a20.83,20.83,0,0,0-12.52-12.83c-16.3-8.29-13.67,12.69-9.19,23.08s15.44,17.06,24.74,8"/>
        <path class="cls-14" d="M92,137.53a3.58,3.58,0,0,0-3.49.47c-1.31,1.12-1.48,3.24-1.35,5.06a30.86,30.86,0,0,0,7.09,17,6.37,6.37,0,0,0,2.15,1.9,2.32,2.32,0,0,0,2.62-.35,3.6,3.6,0,0,0,.59-3.3c-.69-2.85-3-4.69-4.93-6.7a5.43,5.43,0,0,1-1.29-1.9,2.49,2.49,0,0,1,.25-2.3,2.6,2.6,0,0,1,1.52-.82,12.41,12.41,0,0,1,3.44-.13c.49-1.94-.93-3.72-1.91-5A10.26,10.26,0,0,0,92,137.53Z"/>
      </g>
      <g>
        <g>
          <ellipse class="cls-18" cx="148.93" cy="131.77" rx="12.19" ry="12.82" transform="translate(-11.83 14.72) rotate(-5.44)"/>
          <path class="cls-19" d="M150.15,144.59C139,145.7,132.23,132,138.78,123.22a12.4,12.4,0,0,1,18.5-1.76c8.08,7.38,4,22.11-7.13,23.13Zm0-.1c10.9-1.1,14.56-15.41,6.57-22.38a11.77,11.77,0,0,0-17.24,1.64c-6.54,8.36-.25,21.72,10.67,20.74Z"/>
        </g>
        <ellipse class="cls-20" cx="148.33" cy="131.69" rx="7.56" ry="7.08" transform="matrix(0.04, -1, 1, 0.04, 10.82, 274.65)"/>
        <ellipse class="cls-18" cx="152.69" cy="128.18" rx="2.13" ry="2.27" transform="translate(-24.95 37.69) rotate(-13.02)"/>
      </g>
      <g>
        <g>
          <ellipse class="cls-18" cx="198.53" cy="132.73" rx="11.92" ry="12.82" transform="translate(-11.69 19.43) rotate(-5.44)"/>
          <path class="cls-19" d="M199.75,145.54c-11,1.08-17.5-12.72-11.23-21.32a12,12,0,0,1,18.22-1.73c7.78,7.27,4,22-7,23Zm0-.1c10.74-1.1,14.12-15.46,6.42-22.32a11.35,11.35,0,0,0-16.95,1.62c-6.26,8.19-.23,21.65,10.53,20.7Z"/>
        </g>
        <ellipse class="cls-20" cx="197.87" cy="131.57" rx="7.08" ry="7.56" transform="translate(-24.55 47.95) rotate(-13.02)"/>
        <ellipse class="cls-18" cx="202.13" cy="128.71" rx="2.13" ry="2.27" transform="translate(-23.8 48.83) rotate(-13.02)"/>
      </g>
      <path class="cls-20" d="M212.32,113s-17.54-12.54-24-1.64c0,0,1.51-16.82,17.54-4.93Z"/>
      <path class="cls-20" d="M132.78,114.89s16-14.75,23.87-4.79c0,0-2.1-16.31-18-2.59Z"/>
      <g>
        <path class="cls-21" d="M149.42,165c3,4.94,12.8,20.5,26.13,21.46,8.06.59,11.6-6.23,15.11-11.21.91-1.29,1.76-2.64,2.61-4h0c.43-.69.86-1.37,1.3-2a40.44,40.44,0,0,1,3.75-5h0c.33-.37.66-.72,1-1.06.14-.15.28-.28.42-.41s-11.37,7.52-46.71,1.56l-2.93-.72-1.17-.29-.65-.16S148.69,163.86,149.42,165Z"/>
        <path class="cls-22" d="M186.92,178.24a9,9,0,0,0-7.88-1.42,17.77,17.77,0,0,0-12.68,2.79S177.85,186.44,186.92,178.24Z"/>
        <path class="cls-18" d="M149,163.29c16.51,13.32,31,12.8,38.89,10,3.36-1.22,2.91-7.24,8.48-7.8a16.07,16.07,0,0,0,3-2.3c.14-.15.28-.28.42-.41s-11.37,7.52-46.71,1.56l-2.93-.72Z"/>
        <path class="cls-23" d="M149.42,165c3,4.94,15.71,24.59,28.19,22.53,14.26-2.34,15.89-16.77,19.4-21.75C182.88,191.65,167.21,184.67,149.42,165Z"/>
        <path class="cls-24" d="M150.13,163.58c26.94,11.35,42.42,4.48,48.19.64h0l.13-.08c.3-.36.6-.69.89-1s.28-.28.42-.41-11.37,7.52-46.71,1.56Z"/>
        <path class="cls-22" d="M150,160.74s-4.21.81-2.14,5.25C147.84,166,144.74,160.24,150,160.74Z"/>
        <path class="cls-22" d="M198.88,161.27s2.58.57,1.09,4.17C200,165.44,202.73,161.79,198.88,161.27Z"/>
      </g>
    </g>
    <g>
      <path class="cls-25" d="M224.52,138.2c-5.08,7.74-17.86,16.7-28.39,13.91a14.69,14.69,0,0,1-3.83-1.62,16.55,16.55,0,0,1-4-3.44c-10.92-12.78-17.43-2.73-17.43-2.73-35.82,16.36-64.18,0-64.18,0l-3.75-8.08C135.68,104.8,161,115.61,169.43,122s16.87-.5,16.87-.5c10.27-5.43,19.4-5,26.09-3a35.15,35.15,0,0,1,5,1.87,30.29,30.29,0,0,1,6.65,4.07Z"/>
      <path class="cls-26" d="M224.52,138.2c-5.08,7.74-17.86,16.7-28.39,13.91a14.69,14.69,0,0,1-3.83-1.62,16.55,16.55,0,0,1-4-3.44c-10.92-12.78-17.43-2.73-17.43-2.73-35.82,16.36-64.18,0-64.18,0l-3.75-8.08C135.68,104.8,161,115.61,169.43,122s16.87-.5,16.87-.5c10.27-5.43,19.4-5,26.09-3a35.15,35.15,0,0,1,5,1.87,30.29,30.29,0,0,1,6.65,4.07Z"/>
      <polygon class="cls-27" points="119.91 149.12 141.31 115.07 147.71 114.85 123.88 150.43 119.91 149.12"/>
      <path class="cls-27" d="M217.37,120.38l-21.24,31.73a14.69,14.69,0,0,1-3.83-1.62l20.09-32A35.15,35.15,0,0,1,217.37,120.38Z"/>
    </g>
    <path class="cls-10" d="M109.89,306.14a37.28,37.28,0,0,1-13.41,18.28l-2,1.46s-3-1.56-7.65-4.21c10.48-6.2,14.91-16.66,16.58-22.11Z"/>
    <path class="cls-10" d="M295.47,253.05l-1,23.4a67.34,67.34,0,0,1-8,2.67c-8.48-11.71-6.61-20.28-3.44-25.49Z"/>
    <g>
      <path class="cls-5" d="M287.63,267c.25,8.17,9.11,12,9.11,12,28.12,9.23,40.72-5,45.17-13.93a15.28,15.28,0,0,0,1.26-3.47c.35-5.39-2.13-5.82-2.13-5.82l.61-1.59a5.85,5.85,0,0,0-.11-2.72s0,0,0,0a5.36,5.36,0,0,0-7.16-1.38c-7,3.68-18.31,3.75-24.75,1.54s-3.34-10.94-3.34-10.94c3.26-9.69-4.57-16.48-10.37-15.43s-6.75,7.41-4.44,12.3.71,6.85.71,6.85a21.46,21.46,0,0,0-5.31,10.52"/>
      <path class="cls-5" d="M319.73,270.92c1.83,4.55,23.85-13.22,20.27-2.55"/>
      <path class="cls-5" d="M321.22,262c.74.16,11.78-2.38,15.57-4.75,5.52-3.45,6.81.8,5.65,6.65"/>
      <path class="cls-5" d="M310,271.36c5.69-1.3,15.26-4.09,16.89-1.77,0,0,3.93,8.42-13,10.68"/>
      <path class="cls-5" d="M305.74,248.83a17.11,17.11,0,0,1,4.47,9.12c.5,3,.07,6.51-2,8.62"/>
      <path class="cls-5" d="M340.56,250.46a4.64,4.64,0,0,1-.17,5.55"/>
    </g>
    <polygon class="cls-8" points="96.82 222.47 107.95 258.49 104.24 215.26 96.82 222.47"/>
    <path class="cls-8" d="M224.7,216.87s-9.79,15.2-7.38,43.58c0,0,2.62-27.07,10.47-40.6Z"/>
  </g>
  <g class="cls-28">
    <g class="cls-29">
      <g class="cls-30">
        <g>
          <g class="cls-31">
            <path class="cls-32" d="M326.54-8l5.1,12.68a4.38,4.38,0,0,0,4.43,2.73l13.62-1.14L337,11.35a4.38,4.38,0,0,0-2.73,4.43l1.14,13.62-5.1-12.68A4.38,4.38,0,0,0,325.89,14l-13.62,1.14L325,10a4.38,4.38,0,0,0,2.73-4.43Z"/>
          </g>
          <g class="cls-33">
            <path class="cls-34" d="M109.27,84.17a1.91,1.91,0,1,1-1.9-1.9A1.9,1.9,0,0,1,109.27,84.17Z"/>
            <path class="cls-35" d="M159.69,159.63a1.91,1.91,0,1,1-1.9-1.9A1.9,1.9,0,0,1,159.69,159.63Z"/>
            <path class="cls-34" d="M212.74,165a1.91,1.91,0,1,1-1.91-1.91A1.92,1.92,0,0,1,212.74,165Z"/>
          </g>
        </g>
      </g>
    </g>
  </g>
</svg>
