<svg id="Layer_1" data-name="Layer 1" xmlns="http://www.w3.org/2000/svg" xmlns:xlink="http://www.w3.org/1999/xlink" width="903.53" height="290.82" viewBox="0 0 903.53 290.82">
  <defs>
    <style>
      .cls-1 {
        fill: url(#radial-gradient);
      }

      .cls-2 {
        opacity: 0.05;
      }

      .cls-3 {
        fill: #fff;
        opacity: 0.8;
      }

      .cls-4 {
        fill: url(#radial-gradient-2);
      }

      .cls-5 {
        fill: url(#radial-gradient-3);
      }

      .cls-6 {
        fill: url(#radial-gradient-4);
      }

      .cls-7 {
        fill: url(#radial-gradient-5);
      }

      .cls-8 {
        fill: #0e2748;
      }
    </style>
    <radialGradient id="radial-gradient" cx="385.05" cy="437.91" r="73.2" gradientTransform="matrix(0.97, 0, 0, 0.95, -272.57, -309.43)" gradientUnits="userSpaceOnUse">
      <stop offset="0" stop-color="#fbed21"/>
      <stop offset="0.37" stop-color="#fbed21"/>
      <stop offset="0.84" stop-color="#fcb415"/>
      <stop offset="0.9" stop-color="#f9af17"/>
      <stop offset="0.97" stop-color="#f2a11d"/>
      <stop offset="1" stop-color="#ec9722"/>
    </radialGradient>
    <radialGradient id="radial-gradient-2" cx="533.59" cy="499.12" r="73.2" xlink:href="#radial-gradient"/>
    <radialGradient id="radial-gradient-3" cx="715.41" cy="523.48" r="73.2" xlink:href="#radial-gradient"/>
    <radialGradient id="radial-gradient-4" cx="906.54" cy="509.02" r="73.2" xlink:href="#radial-gradient"/>
    <radialGradient id="radial-gradient-5" cx="1095.3" cy="465.34" r="73.2" xlink:href="#radial-gradient"/>
  </defs>
  <g>
    <g>
      <path class="cls-1" d="M144.13,167.93C138,172.23,107,145.7,99.47,145.65S60.59,171.78,54.53,167.4s10-41.58,7.77-48.61S25,90.54,27.37,83.53s43.35-3.46,49.46-7.77,15.83-43.59,23.34-43.54S116.92,71.66,123,76s47.08,1.31,49.36,8.35-33,27.84-35.37,34.84S150.23,163.62,144.13,167.93Z"/>
      <path class="cls-2" d="M136.59,78.49C133.24,115.6,98.91,145.21,56,147.7c-2.49,9.36-4.16,17.77-1.47,19.71,6,4.37,37.42-21.8,44.94-21.76s38.55,26.58,44.66,22.28-9.54-41.7-7.18-48.71,37.66-27.81,35.38-34.84C170.76,79.54,150.83,79.48,136.59,78.49Z"/>
      <path class="cls-3" d="M99.33,35c-.28,0-3.11,5.91-4.28,8.67C91.53,52,88.47,60.56,85.24,69c-1.07,2.8-2.19,5.56-4.2,7.52a13.83,13.83,0,0,1-6.52,3.31,43.48,43.48,0,0,1-7.65.87c-7.42.4-15,.33-22.37.53a40.13,40.13,0,0,0-9.73,1.52c-1.64.46-5.08,2.39-5.08,2.67s4-.78,5.51-1.21a39.15,39.15,0,0,1,9.46-1c7.44-.2,14.79.33,22.21-.07a71,71,0,0,0,10.11-1,15.21,15.21,0,0,0,7.25-3.71c2.31-2.25,3.59-5.49,4.41-8.38,3.18-11.08,4.06-14,7.84-25.8C97.39,41.41,99.61,35,99.33,35Z"/>
    </g>
    <g>
      <path class="cls-4" d="M288.48,225.64c-6.11,4.31-37.15-22.23-44.67-22.27s-38.88,26.13-44.93,21.75,10.05-41.58,7.77-48.61-37.3-28.25-34.94-35.26,43.36-3.47,49.47-7.77S237,89.89,244.52,89.94s16.75,39.43,22.8,43.81,47.08,1.31,49.36,8.34-33,27.84-35.37,34.85S294.58,221.34,288.48,225.64Z"/>
      <path class="cls-2" d="M280.94,136.21c-3.35,37.1-37.68,66.72-80.59,69.21-2.49,9.36-4.16,17.76-1.47,19.7,6.05,4.38,37.42-21.79,44.93-21.75s38.56,26.58,44.66,22.27-9.54-41.69-7.17-48.7S319,149.13,316.68,142.1C315.11,137.26,295.18,137.2,280.94,136.21Z"/>
      <path class="cls-3" d="M243.68,92.7c-.28,0-3.11,5.91-4.28,8.67-3.52,8.37-6.59,16.91-9.81,25.35-1.07,2.79-2.2,5.56-4.2,7.52a13.88,13.88,0,0,1-6.52,3.31,43.6,43.6,0,0,1-7.66.87c-7.42.39-15,.32-22.36.53a39.18,39.18,0,0,0-9.73,1.52c-1.64.46-5.08,2.39-5.08,2.66s4-.78,5.51-1.2a39.15,39.15,0,0,1,9.46-1c7.44-.21,14.79.33,22.21-.07a70.82,70.82,0,0,0,10.1-1,15.34,15.34,0,0,0,7.26-3.71c2.31-2.26,3.58-5.49,4.41-8.38,3.17-11.09,4.06-14,7.84-25.81C241.74,99.13,244,92.68,243.68,92.7Z"/>
    </g>
    <g>
      <path class="cls-5" d="M465,248.1c-6.11,4.31-37.15-22.23-44.66-22.27S381.41,252,375.36,247.58s10-41.58,7.77-48.61-37.31-28.26-34.94-35.26,43.36-3.47,49.46-7.77,15.83-43.59,23.34-43.55,16.75,39.44,22.8,43.82,47.09,1.31,49.36,8.34-33,27.84-35.37,34.85S471.05,243.8,465,248.1Z"/>
      <path class="cls-2" d="M457.41,158.67c-3.35,37.1-37.68,66.72-80.58,69.21-2.5,9.36-4.16,17.76-1.48,19.7,6,4.38,37.43-21.79,44.94-21.75S458.84,252.41,465,248.1s-9.54-41.7-7.18-48.7,37.66-27.81,35.38-34.84C491.59,159.72,471.65,159.66,457.41,158.67Z"/>
      <path class="cls-3" d="M420.15,115.16c-.28,0-3.11,5.91-4.27,8.67-3.53,8.37-6.59,16.9-9.82,25.35-1.07,2.79-2.19,5.56-4.2,7.51a13.76,13.76,0,0,1-6.52,3.32,43.48,43.48,0,0,1-7.65.86c-7.42.4-14.95.33-22.37.54a39.25,39.25,0,0,0-9.73,1.52c-1.64.46-5.08,2.39-5.08,2.66s4-.78,5.51-1.2a38.66,38.66,0,0,1,9.46-1c7.45-.21,14.79.33,22.21-.07a71,71,0,0,0,10.11-1,15.39,15.39,0,0,0,7.25-3.71c2.31-2.26,3.59-5.49,4.42-8.38,3.17-11.09,4-14,7.83-25.81C418.21,121.59,420.43,115.14,420.15,115.16Z"/>
    </g>
    <g>
      <path class="cls-6" d="M650.31,233.54c-6.1,4.3-37.15-22.24-44.66-22.28S566.77,237.39,560.72,233s10-41.58,7.77-48.61-37.31-28.25-34.94-35.26,43.36-3.47,49.46-7.77,15.83-43.59,23.34-43.54,16.75,39.44,22.8,43.81S676.24,143,678.51,150s-33,27.84-35.37,34.84S656.42,229.23,650.31,233.54Z"/>
      <path class="cls-2" d="M642.77,144.1c-3.35,37.11-37.68,66.72-80.58,69.21-2.5,9.36-4.16,17.77-1.48,19.71,6,4.37,37.43-21.8,44.94-21.76s38.55,26.58,44.66,22.28-9.54-41.7-7.18-48.71S680.79,157,678.51,150C677,145.15,657,145.09,642.77,144.1Z"/>
      <path class="cls-3" d="M605.51,100.6c-.28,0-3.11,5.9-4.27,8.67-3.53,8.37-6.59,16.9-9.82,25.34-1.07,2.79-2.19,5.56-4.2,7.52a13.83,13.83,0,0,1-6.52,3.31,43.48,43.48,0,0,1-7.65.87c-7.42.4-14.95.33-22.37.53a40,40,0,0,0-9.72,1.52c-1.65.46-5.09,2.39-5.09,2.67s4-.78,5.51-1.21a39.15,39.15,0,0,1,9.46-1c7.45-.2,14.79.33,22.21-.07a71,71,0,0,0,10.11-1,15.21,15.21,0,0,0,7.25-3.71c2.32-2.25,3.59-5.49,4.42-8.38,3.17-11.08,4-14,7.84-25.81C603.57,107,605.79,100.57,605.51,100.6Z"/>
    </g>
    <g>
      <path class="cls-7" d="M833.24,191.12c-6.11,4.3-37.15-22.23-44.66-22.28S749.7,195,743.64,190.59,753.69,149,751.41,142s-37.3-28.25-34.93-35.26,43.35-3.46,49.46-7.77,15.83-43.59,23.34-43.54S806,94.85,812.08,99.22s47.08,1.31,49.36,8.35-33,27.84-35.37,34.84S839.34,186.81,833.24,191.12Z"/>
      <path class="cls-2" d="M825.7,101.68c-3.35,37.11-37.68,66.72-80.59,69.21-2.49,9.36-4.15,17.77-1.47,19.71,6.05,4.37,37.42-21.8,44.94-21.76s38.55,26.58,44.66,22.28-9.54-41.7-7.18-48.71,37.66-27.81,35.38-34.84C859.87,102.73,839.94,102.67,825.7,101.68Z"/>
      <path class="cls-3" d="M788.44,58.18c-.28,0-3.11,5.91-4.28,8.67-3.52,8.37-6.58,16.9-9.81,25.34-1.07,2.8-2.19,5.56-4.2,7.52a13.83,13.83,0,0,1-6.52,3.31,43.48,43.48,0,0,1-7.65.87c-7.42.4-15,.33-22.37.53a40.13,40.13,0,0,0-9.73,1.52c-1.64.46-5.08,2.39-5.08,2.67s4-.78,5.51-1.21a39.15,39.15,0,0,1,9.46-1c7.44-.2,14.79.33,22.21-.07a71,71,0,0,0,10.11-1,15.21,15.21,0,0,0,7.25-3.71c2.31-2.25,3.59-5.49,4.41-8.38,3.18-11.08,4.06-14,7.84-25.8C786.5,64.6,788.72,58.15,788.44,58.18Z"/>
    </g>
    <path class="cls-8" d="M100.1,131.15l-.16-35.8c-.87,1-1.7,1.92-2.48,2.74l-2.55,2.6L90.55,94.8q2-1.71,3.79-3.42,1.57-1.45,3.21-3.1a37.7,37.7,0,0,0,2.69-3l8.39,0,.2,45.83Z"/>
    <path class="cls-8" d="M229.12,190.54l0-5.16c1.35-1.59,2.78-3.18,4.28-4.75l4.48-4.69q2.22-2.33,4.25-4.56a42.61,42.61,0,0,0,3.56-4.49,25.69,25.69,0,0,0,2.44-4.46,11.27,11.27,0,0,0,.9-4.45,4.9,4.9,0,0,0-1.72-3.86,6.21,6.21,0,0,0-4.21-1.46,6.89,6.89,0,0,0-3.18.72,8,8,0,0,0-2.42,1.83,13.21,13.21,0,0,0-1.77,2.47,20.32,20.32,0,0,0-1.26,2.69l-6.33-4.56c.44-1,1-2.12,1.63-3.39a13.22,13.22,0,0,1,2.84-3.63,15.82,15.82,0,0,1,4.85-2.92,20.59,20.59,0,0,1,7.64-1.23,18.42,18.42,0,0,1,5.79.84,13.17,13.17,0,0,1,4.52,2.44,10.81,10.81,0,0,1,2.9,3.86,12.47,12.47,0,0,1,1,5.09,17,17,0,0,1-1.9,7.81,40.74,40.74,0,0,1-4.66,7.29,55.41,55.41,0,0,1-5.75,6.2q-3,2.76-5.11,4.56l17.93-.07,0,7.75Z"/>
    <path class="cls-8" d="M436.91,197.23a11.13,11.13,0,0,1-1.09,5,11,11,0,0,1-3.2,3.93,15.69,15.69,0,0,1-5.12,2.58,23,23,0,0,1-6.69.94,28.24,28.24,0,0,1-5.09-.39,17.7,17.7,0,0,1-4.24-1.28,16.41,16.41,0,0,1-3.75-2.35,28,28,0,0,1-3.56-3.58l4.31-5.87q5.14,5.76,11,5.73a7.94,7.94,0,0,0,5.14-1.54,5.25,5.25,0,0,0,2-4,5.11,5.11,0,0,0-.54-2.85,5.32,5.32,0,0,0-2.24-2.19,12.69,12.69,0,0,0-4.41-1.28,35.45,35.45,0,0,0-7-.1l0-7.75a48.83,48.83,0,0,0,6.6,0,11.69,11.69,0,0,0,4.07-.91,4.44,4.44,0,0,0,2.09-1.87,6,6,0,0,0,.61-2.88,4.74,4.74,0,0,0-1.92-3.63,7.49,7.49,0,0,0-4.73-1.35,11.12,11.12,0,0,0-4.66,1,18.73,18.73,0,0,0-4.71,3.35l-3.71-6.2q4.9-5.91,15.15-6a18.67,18.67,0,0,1,5.79.81,13,13,0,0,1,4.42,2.33,10.35,10.35,0,0,1,2.84,3.64,11.26,11.26,0,0,1,1,4.8,10,10,0,0,1-1.88,6.33,14.88,14.88,0,0,1-6.28,4.26,12.38,12.38,0,0,1,7.28,3.67A11,11,0,0,1,436.91,197.23Z"/>
    <path class="cls-8" d="M618.27,195.63l-8.14,0,0-11.29-16.88.07-.14-34.6,8.4,0,.12,27.25,8.47,0,0-11.09,8.07,0,0,11.1,5.85,0,0,7.28-5.78,0Z"/>
    <path class="cls-8" d="M803.55,136.54q0,7-4.19,10.81t-11.88,3.86a22.29,22.29,0,0,1-8.73-1.63,19.32,19.32,0,0,1-6.94-4.9l3.65-6.49q5.87,5.3,11.45,5.27a8.82,8.82,0,0,0,5.7-1.81,5.68,5.68,0,0,0,2.21-4.64,6.42,6.42,0,0,0-1.89-5,9,9,0,0,0-8.87-.91,14.47,14.47,0,0,0-3.24,2.34l-5.66-3.19.55-24.82,26.27-.11.1,7.75-17.93.07-.28,10.77c.63-.31,1.19-.56,1.65-.76a12.78,12.78,0,0,1,1.37-.5,7.88,7.88,0,0,1,1.43-.27c.51,0,1.09-.07,1.73-.07a14.15,14.15,0,0,1,5.48,1,11.9,11.9,0,0,1,4.25,2.88,13.16,13.16,0,0,1,2.76,4.51A16.33,16.33,0,0,1,803.55,136.54Z"/>
  </g>
</svg>
