<svg id="Layer_1" data-name="Layer 1" xmlns="http://www.w3.org/2000/svg" xmlns:xlink="http://www.w3.org/1999/xlink" width="333.96" height="479.27" viewBox="0 0 333.96 479.27">
  <defs>
    <style>
      .cls-1, .cls-8 {
        fill: none;
      }

      .cls-2 {
        opacity: 0.21;
      }

      .cls-12, .cls-3 {
        fill: #f9d1c6;
      }

      .cls-3 {
        stroke: #6d4b2c;
      }

      .cls-11, .cls-14, .cls-16, .cls-3, .cls-4, .cls-5, .cls-7, .cls-8, .cls-9 {
        stroke-miterlimit: 10;
      }

      .cls-14, .cls-4 {
        fill: #87e7ff;
      }

      .cls-4 {
        stroke: #2d7a8c;
      }

      .cls-5 {
        fill: #066696;
        stroke: #06455e;
      }

      .cls-6 {
        fill: #043c5b;
      }

      .cls-7 {
        fill: #1181a8;
        stroke: #063651;
      }

      .cls-8 {
        stroke: #2c3581;
      }

      .cls-9 {
        fill: #7c4b2a;
      }

      .cls-11, .cls-9 {
        stroke: #56321a;
      }

      .cls-10 {
        fill: #512e17;
      }

      .cls-11 {
        fill: #683d1f;
      }

      .cls-13 {
        fill: #6d4b2c;
      }

      .cls-14 {
        stroke: #295799;
      }

      .cls-15 {
        fill: #ff8798;
      }

      .cls-16 {
        fill: #2fc8ef;
        stroke: #0f5f72;
      }

      .cls-17 {
        fill: #e8a89a;
      }

      .cls-18 {
        fill: #db9d8e;
      }

      .cls-19 {
        fill: #342517;
      }

      .cls-20 {
        fill: #fff;
      }

      .cls-21 {
        fill: #3d2e17;
      }

      .cls-22 {
        fill: #2d2b21;
      }

      .cls-23 {
        fill: #6d2925;
      }

      .cls-24 {
        fill: #d26653;
      }

      .cls-25 {
        fill: #f9988f;
      }

      .cls-26 {
        fill: #ea827d;
      }

      .cls-27 {
        clip-path: url(#clip-path);
      }

      .cls-28 {
        clip-path: url(#clip-path-2);
      }

      .cls-29 {
        opacity: 0.8;
      }

      .cls-30 {
        opacity: 0.7;
      }

      .cls-31 {
        fill: #a0e6f9;
      }

      .cls-32 {
        fill: #f9e9aa;
      }
    </style>
    <clipPath id="clip-path">
      <rect class="cls-1" x="4232.69" y="-1890.76" width="1600" height="900"/>
    </clipPath>
    <clipPath id="clip-path-2">
      <rect class="cls-1" x="-4744.15" y="-2125.45" width="10800" height="2050"/>
    </clipPath>
  </defs>
  <ellipse class="cls-2" cx="137.26" cy="434.64" rx="90.81" ry="23.08"/>
  <g>
    <g>
      <g>
        <path class="cls-3" d="M127.69,374.72s-2.65,6.4-5.78,14.61c0,.12-.09.24-.14.37-.6,1.58-1.22,3.22-1.84,4.9l-1.17,3.21-.06.14c-2.24,6.21-4.38,12.55-5.66,17.46,0,0-6.18,16-15.47,12.38s-7.48-17.74-7.48-17.74l5.35-17.4.94-3,1.48-4.81,4.6-15Z"/>
        <path class="cls-4" d="M119.93,394.6l-1.17,3.21-.06.14c-2.24,6.21-4.38,12.55-5.66,17.46,0,0-6.18,16-15.47,12.38s-7.48-17.74-7.48-17.74l5.35-17.4.94-3Z"/>
      </g>
      <g>
        <polygon class="cls-3" points="175.72 423.23 148.53 412.16 148.67 393.53 148.69 390.47 148.73 386.1 148.85 370.49 175.06 369.68 173.88 386.16 173.63 389.63 173.36 393.25 172.62 403.54 175.72 423.23"/>
        <path class="cls-4" d="M175.72,423.23l-27.19-11.07.14-18.63,0-3.06c4.47,1.65,13.33,3.55,24.94-.84l-.27,3.62-.74,10.29Z"/>
        <path class="cls-4" d="M173.43,386.64l.45-.48c-9.07,4.4-19.12,2-24.8,0l-.06,7.63c12.68,5.14,20.31,2.82,23.93.67Z"/>
      </g>
      <g>
        <path class="cls-5" d="M203.87,430.39c-19.69,9.77-51-.81-51-.81-12.27-.65-13.17-2.74-11.12-7.06l0-.1c2.12-4.4,1.47-9,1.79-13.68a5.35,5.35,0,0,1,4.89-5.05l.65,4.4-2.12-1a19.2,19.2,0,0,0,1.65,1.61c6.2,5.28,14.79,5.56,14.79,5.56l2.6,1.78a10,10,0,0,1-1-12.2c4.23-6.84,9.77-1.31,9.77-1.31,2.23,4.67,3.71,6.6,5.7,7.68a9.09,9.09,0,0,0,1.45.64c.72.25,1.5.46,2.41.69.66.17,1.4.35,2.2.57.3.07.6.16.91.25.66.18,1.37.38,2.13.63,1.3.41,2.75.92,4.4,1.59,6.71,2.72,9.08,6.9,9.81,10.27A12.26,12.26,0,0,1,203.87,430.39Z"/>
        <g>
          <path class="cls-6" d="M182.05,410.87c-5.93,3.49-5.88,7.57-5.88,7.57l-1.46-.69c.6-3.77,3.77-6.25,5.89-7.52A9.09,9.09,0,0,0,182.05,410.87Z"/>
          <path class="cls-6" d="M186.66,412.13a11.78,11.78,0,0,0-7.26,7.23l-1.62-.54a12.7,12.7,0,0,1,6.68-7.26C185.12,411.73,185.86,411.91,186.66,412.13Z"/>
          <path class="cls-6" d="M189.7,413a11.43,11.43,0,0,0-6.24,7l-1.84-.15c2.27-4.55,4.35-6.59,5.95-7.44C188.23,412.56,188.94,412.76,189.7,413Z"/>
        </g>
        <path class="cls-7" d="M203.87,430.39c-19.69,9.77-51-.81-51-.81-12.27-.65-13.17-2.74-11.12-7.06,1.55,1.18,4.81,2.61,11.61,3.31a111.14,111.14,0,0,0,37,4.24c9.28-.56,12.6-2.86,13.47-5.2A12.26,12.26,0,0,1,203.87,430.39Z"/>
      </g>
      <g>
        <path class="cls-5" d="M115.82,431.41q-.07.93-.18,1.92s.65,1.62-5.69,2.27-.69,6.27-14,10-28.78.24-30.24-8.71a7,7,0,0,1,.28-3.31c1.52-4.6,7.33-8.41,11.44-10.61.7-.38,1.36-.71,1.93-1,1.39-.67,2.31-1,2.31-1l.09,0a7.47,7.47,0,0,0,1.72-1,9.93,9.93,0,0,0,1.29-1.2,9.08,9.08,0,0,0,1-1.24,11.92,11.92,0,0,0,1.29-2.5c1.79-4.73,4.71-10.26,11.07-8.79s4.55,15,4.55,15l-4.06,4.4L114,414.28l1.14-5.54S118.27,404.86,115.82,431.41Z"/>
        <g>
          <path class="cls-6" d="M89.76,427.3l-1.1.85A22.78,22.78,0,0,0,78.08,423c.7-.38,1.36-.71,1.94-1C87.4,424.09,89.76,427.3,89.76,427.3Z"/>
          <path class="cls-6" d="M94,425.22l-1.1.85a22.78,22.78,0,0,0-10.53-5.16,7.47,7.47,0,0,0,1.72-1C91.65,422,94,425.22,94,425.22Z"/>
          <path class="cls-6" d="M96.72,422.91l-1.1.85a22.48,22.48,0,0,0-10.19-5.09,9.89,9.89,0,0,0,1-1.24C94.24,419.53,96.72,422.91,96.72,422.91Z"/>
        </g>
        <path class="cls-7" d="M115.64,433.33s.65,1.62-5.69,2.27-.69,6.27-14,10-28.78.24-30.24-8.71a7,7,0,0,1,.28-3.31c1.11,3.55,4.38,8.45,13.84,9.58,15.27,1.83,23.08-2.93,27.72-9.52,0,0-.21-1.44,8.31-2.24Q115.75,432.34,115.64,433.33Z"/>
      </g>
    </g>
    <g>
      <path class="cls-5" d="M111.74,304.89s6.67-20-12.86,64.46c0,0,9.12,10.09,30,9.93,0,0,14.65-.65,16.93-8.95l1.14-3.26.49,3.42s7.49,9.11,27.51,6.84,18.56-8.14,18.56-8.14,7.16-46.72,1.14-72.6-77.16.65-77.16.65S111.09,298.86,111.74,304.89Z"/>
      <g>
        <path class="cls-8" d="M145.84,369.43a59,59,0,0,0,3.42-18.8"/>
        <path class="cls-8" d="M145.72,351.61s11.11-1.23,17.21-10.5"/>
        <path class="cls-8" d="M123.74,316.69s-3.41,12.82-16.23,15.14"/>
      </g>
    </g>
    <g>
      <g>
        <g>
          <path class="cls-9" d="M110.8,342.08a36.58,36.58,0,0,1-2.55,12.19c-.16.4-.33.8-.49,1.22a35.3,35.3,0,0,1-4.85,8.13c-.44.56-.9,1.1-1.39,1.64A32.16,32.16,0,0,1,99,367.78h0c-.23.22-.48.42-.73.63h0a35.68,35.68,0,0,1-7.32,4.69l-.78.36a48.74,48.74,0,0,1-4.92,1.94c-1.43.48-2.88.88-4.33,1.22h0a52.59,52.59,0,0,1-9.14,1.32l-.25,0a58,58,0,0,1-10.88-.47l-.24,0a58.07,58.07,0,0,1-11.28-2.73l-.34-.12c-1.28-.45-2.52-.94-3.74-1.48a51,51,0,0,1-4.9-2.47c-.72-.41-1.43-.83-2.11-1.28-.12-.07-.24-.14-.35-.22a42,42,0,0,1-4.95-3.75,27.12,27.12,0,0,1-5.15-6.2c-.48-.78-.92-1.58-1.33-2.39A43.44,43.44,0,0,1,22.71,347c-.14-.56-.25-1.1-.36-1.63a59,59,0,0,1-1.16-12.66L31,333h.26l9.72.36,49.37,6.13,1.54-2.22,12,3.9,1,.13Z"/>
          <path class="cls-10" d="M63.39,306s-12.53-6.19-16.93,6.35-2.76,17.25-2.76,17.25l-12.37.16s-4.56-20.67,19.2-38.09Z"/>
          <g>
            <path class="cls-10" d="M38,369.37l.36.81-.22-.06c-.17-.32-.33-.65-.49-1-1.26-2.55-2.32-5-3.21-7.29-.25-.66-.48-1.29-.71-1.93a65.82,65.82,0,0,1-2.4-8.4c-.15-.66-.27-1.3-.38-1.93C29.37,341,30.39,335.32,31,333a8.09,8.09,0,0,1,.34-1.13c0,.38-.06.77-.08,1.14a74,74,0,0,0,.94,17.08c.11.64.23,1.27.35,1.89a83.69,83.69,0,0,0,2,8.22c.2.64.4,1.25.6,1.86C36.11,364.9,37.08,367.35,38,369.37Z"/>
            <path class="cls-10" d="M48.65,373.73l.41,1-.34-.12-.44-.92c-.21-.45-.41-.9-.61-1.34a75.36,75.36,0,0,1-3.07-7.88c-.16-.5-.32-1-.47-1.47a63.79,63.79,0,0,1-1.89-8c-.08-.53-.16-1-.23-1.54-1.32-9.87.79-15.28.79-15.28a73.91,73.91,0,0,0,.47,15.61c.07.51.13,1,.22,1.5a79.24,79.24,0,0,0,1.65,8c.13.48.26,1,.38,1.42.82,2.91,1.72,5.52,2.6,7.78Z"/>
          </g>
          <g>
            <path class="cls-10" d="M90.13,334.35s6.55,16.28-10.21,43.87C79.92,378.22,92.15,359.22,90.13,334.35Z"/>
            <path class="cls-10" d="M78.85,357.41c-.07.42-.14.86-.23,1.3a61.65,61.65,0,0,1-1.93,7.39c-.13.42-.27.84-.42,1.27-.77,2.22-1.71,4.58-2.85,7.05-.18.4-.37.82-.57,1.23-.35.75-.73,1.52-1.14,2.29l-.25,0c.33-.71.66-1.49,1-2.31.16-.4.33-.8.49-1.23.83-2.08,1.67-4.44,2.43-7.05.11-.41.24-.83.35-1.26.64-2.3,1.21-4.78,1.67-7.41l.21-1.26a71.86,71.86,0,0,0,.66-16.86S80.69,346.56,78.85,357.41Z"/>
          </g>
          <path class="cls-10" d="M103.41,355.11c-.11.48-.24,1-.37,1.46a70.28,70.28,0,0,1-2.48,7.43c-.2.52-.41,1-.64,1.56q-.45,1.1-1,2.22h0c-.23.22-.48.42-.73.63.35-.86.7-1.77,1-2.73l.54-1.56a74.38,74.38,0,0,0,2.09-7.32c.12-.49.23-1,.33-1.49a74,74,0,0,0,1.67-14.09c0-2.27-.58,1.42-.78-1,0,0,1.57-3.55,1.79,1.1A47.89,47.89,0,0,1,103.41,355.11Z"/>
          <path class="cls-10" d="M61,342.7l-.17,14.1v1.08l-.09,7.71v1.07L60.62,374v1.07l0,2.42-.24,0-.06-2.4,0-1.08-.2-7.36,0-1.09-.21-7.73,0-1.1-.37-14Z"/>
          <path class="cls-10" d="M108.25,354.27c-.16.4-.33.8-.49,1.22-1.37.36-2.94.73-4.72,1.08l-1.15.23A112.55,112.55,0,0,1,89,358.37h0l-1,.07c-2.86.17-6,.27-9.35.27H77.41c-4.32,0-9-.22-14.22-.62l-2.38-.2-1-.09a134.22,134.22,0,0,1-16.32-2.54L42.24,355a78.43,78.43,0,0,1-9.7-2.94c-.43-.16-.84-.32-1.24-.49A41.13,41.13,0,0,1,22.71,347c-.14-.56-.25-1.1-.36-1.63a71.93,71.93,0,0,0,8.57,4.26c.42.19.84.36,1.27.53A89.11,89.11,0,0,0,42,353.42l1.26.33a113.5,113.5,0,0,0,16.51,2.94l1,.11a148.6,148.6,0,0,0,16.8.64l1.23,0c3.3-.07,6.48-.25,9.49-.49l1.11-.09c4.76-.4,9.08-.95,12.77-1.52l1.19-.2C105.19,354.83,106.82,354.54,108.25,354.27Z"/>
          <path class="cls-10" d="M102.91,363.62c-.44.56-.9,1.1-1.39,1.64l-1.6.3-.66.12a117.33,117.33,0,0,1-13.52,1.47l-.54,0c-2.76.14-5.73.22-8.93.2h-.88c-4.17,0-8.72-.24-13.67-.63l-1-.08-.66-.05a143.55,143.55,0,0,1-14.53-2c-.31-.05-.61-.12-.92-.18a90.28,90.28,0,0,1-9.42-2.36l-.77-.24a60.34,60.34,0,0,1-6.89-2.66c-.48-.78-.92-1.58-1.33-2.39a79.22,79.22,0,0,0,7.51,3.12l.88.31A94.43,94.43,0,0,0,44.13,363l1,.23A115.31,115.31,0,0,0,60,365.52l.7.07a148.18,148.18,0,0,0,15,.52h1c3.14-.07,6.18-.21,9.07-.42l.63-.06c5-.37,9.52-.92,13.41-1.5l.76-.12C101.37,363.88,102.15,363.76,102.91,363.62Z"/>
          <path class="cls-10" d="M90.12,373.46a48.74,48.74,0,0,1-4.92,1.94q-1.8.11-3.72.18h0c-2.67.09-5.52.12-8.58.07h-.38c-3.67-.07-7.61-.25-11.86-.58l-.33,0h0c-4.25-.34-8.11-.79-11.61-1.32l-.37-.05c-1.13-.18-2.23-.36-3.3-.56a51,51,0,0,1-4.9-2.47c2.51.67,5.05,1.22,7.59,1.69l.45.08A121.94,121.94,0,0,0,60.25,374c.12,0,.24,0,.37,0,4.21.33,8.35.45,12.34.42h.46c3,0,6-.13,8.75-.3h.12C85,374,87.65,373.72,90.12,373.46Z"/>
          <path class="cls-11" d="M21.92,333.9S29,346,75.76,346.48c0,0,6.6-7.82,13.56-9s14.28,8.67,14.28,8.67,7.57-.36,7.2-4S87.73,328,49,327.19a26.93,26.93,0,0,0-11.23-5s-3.54-.49-8.67,5S19.48,332.19,21.92,333.9Z"/>
          <g>
            <path class="cls-9" d="M67.1,306.07s17.45,7.2,17.58,43.95c0,0,6.71,2.68,11.72-.61,0,0,.24-26.13-13.07-47.74S67.1,306.07,67.1,306.07Z"/>
            <ellipse class="cls-10" cx="90.74" cy="345.79" rx="1.71" ry="2.24"/>
          </g>
          <ellipse class="cls-10" cx="38.08" cy="326.54" rx="1.55" ry="1.95"/>
        </g>
        <g>
          <path class="cls-3" d="M102.5,249.18a83.56,83.56,0,0,0-8.06,9.76s-.24,4.64-7,11.72c0,0-6.59,8.43-8,15.14a72.78,72.78,0,0,1,7,10.62,85.44,85.44,0,0,1,.73,11.72s-3.3-7.32-8.91-8.79c0,0-7,1.22-7.82,7.21,0,0,0,5.49,4.15,7.08,0,0,3.42,2.68-1.1,3.9s-8.79-3.66-8.79-3.66-4,2.08-7.08-3.66c0,0-3.17,2.56-6.34-3.79l-1-3.05s-2.57,1.83-3.66-5,4.27-13.07,12.69-19.9c0,0,4.76-29.79,23.69-47C83,231.47,105.19,241.73,102.5,249.18Z"/>
          <g>
            <g>
              <line class="cls-12" x1="93.83" y1="261.14" x2="94.81" y2="254.06"/>
              <polygon class="cls-13" points="93.34 261.07 94.81 254.06 94.33 261.21 93.34 261.07 93.34 261.07"/>
            </g>
            <g>
              <line class="cls-12" x1="81.26" y1="288" x2="76.38" y2="283.12"/>
              <polygon class="cls-13" points="80.91 288.35 76.38 283.12 81.61 287.64 80.91 288.35 80.91 288.35"/>
            </g>
          </g>
          <g>
            <g>
              <path class="cls-12" d="M66.12,315.1s-4.76-1.46-2.2-13.31"/>
              <path class="cls-13" d="M66,315.58c-3.58-2-3.17-6.8-2.76-10.26.17-1.19.44-2.36.71-3.53-.19,1.19-.37,2.37-.46,3.56-.15,3.12-.28,7.56,2.81,9.27l-.3,1Z"/>
            </g>
            <g>
              <path class="cls-12" d="M58.06,311.32s-2.93-4-.73-11.72"/>
              <path class="cls-13" d="M57.66,311.61c-2-3.71-1.56-8.14-.33-12-.86,3.72-1,8.13,1.14,11.42l-.81.59Z"/>
            </g>
            <g>
              <path class="cls-12" d="M51.23,306.43A14,14,0,0,1,51.35,294"/>
              <path class="cls-13" d="M50.79,306.68a14.53,14.53,0,0,1,.56-12.7,14.07,14.07,0,0,0,.31,12.2l-.87.5Z"/>
            </g>
          </g>
        </g>
        <g>
          <path class="cls-3" d="M220.31,233.67l5.13,6.84s25.88,1.71,38.58-2,12.21-9.27,25.64-6.1a19.42,19.42,0,0,0,10,.49s4.64,5.37-2.44,7.57S287,241,287,241s6.11,8.79,21.12,13.67a2.65,2.65,0,0,1,1.1,4.15,2.42,2.42,0,0,1-2.44,1.46,3.55,3.55,0,0,1,1.83,5.5,5.07,5.07,0,0,1-4.51,1.83s1.09,1.71-1.35,3.66-8.42-.24-8.42-.24,1.59,3.29-1.95,4.27-15.14-2.32-25.89-18.8c0,0-10.25,10.26-49.56,10.5,0,0-5.13,0-13.56-8.67Z"/>
          <path class="cls-3" d="M286.24,240.63s-1.46,8.06-12.82,8.3"/>
          <path class="cls-3" d="M307.24,260.53a32,32,0,0,1-15.5-7.45"/>
          <path class="cls-3" d="M305,267.61s-8.79-1.59-17.21-10"/>
          <path class="cls-3" d="M295.89,271.76s-8.92-3.3-14-9.89"/>
          <path class="cls-3" d="M293.44,250a35.67,35.67,0,0,1-18.55,16.48"/>
        </g>
        <path class="cls-14" d="M200,269.47c-.06,5.65-.07,14.38.25,22.1a89.76,89.76,0,0,0,1.3,13.64S188.82,324.74,155.36,324s-46.88-18.56-46.88-18.56L110.6,290l2.75-20.11,4.17-30.38-9.28,9.77S91.39,253,80.65,229c0,0,4-5,10.12-11.29A155.41,155.41,0,0,1,103.3,206a92.2,92.2,0,0,1,8.11-6.05c5.18-3.39,12.09-5.9,19.88-7.39,1.28-.24,2.57-.46,3.89-.65a19.12,19.12,0,0,0-.54,4.5c0,11,9.6,19.91,21.46,19.91s21.46-8.92,21.46-19.91c0-.27,0-.54,0-.81,1.25.42,2.49.88,3.7,1.38l.74.29A59.21,59.21,0,0,1,201.51,211c4.4,4.63,10.06,10.85,14.8,16.11.15.18.31.34.46.51h0c5,5.6,8.92,10,8.92,10s-11.23,25.16-25.64,25.89C200.05,263.46,200,265.83,200,269.47Z"/>
        <path class="cls-3" d="M177.56,196.43c-3.93,22.34-22.92,20.39-22.92,20.39-22.23-3.42-19.3-22.22-19.3-22.22a13,13,0,0,0,2.15-2.77,8.72,8.72,0,0,0,.78-7.73l1-.49s37.6-5.37,35.89,3.67c-.61,3.24-.48,5.33,0,6.68C175.86,196.38,177.56,196.43,177.56,196.43Z"/>
        <path class="cls-15" d="M216.41,229.19l.49-1.14s-.33.65-.33.66c-.15.62-3.63,14-16.64,26.33l-.37-7.7s-5.74,7-41.76,8.3-41.38-7.56-41.38-7.56l1.1-8.55S102.33,237,91.23,218a158.47,158.47,0,0,1,12.7-11.56,40.66,40.66,0,0,0,14.81,14.33l.25,5s9.88,8.42,40.77,7,39.44-5.5,39.44-5.5l.11,6s8.18-9,8.31-14.73l9.28,9.6Z"/>
        <path class="cls-15" d="M199.89,291.57c-5.16,3.07-17.66,8.5-42.51,9.37-23.11.81-38.51-6.12-46.29-10.92l2.73-20.11a85.85,85.85,0,0,0,43.32,8.81c21.53-1.29,36.45-6.67,42.49-9.25C199.58,275.12,199.57,283.85,199.89,291.57Z"/>
        <path class="cls-16" d="M175.66,195.3c0,.24,0,.49,0,.74,0,10-8.77,18.15-19.58,18.15s-19.58-8.13-19.58-18.15a17.39,17.39,0,0,1,.5-4.11c-1.21.17-2.39.37-3.55.6a19.34,19.34,0,0,0-.31,3.51c0,11.75,10,23.47,22.69,23.47,12.49,0,22.89-11.44,23.19-23C177.92,196.1,176.8,195.68,175.66,195.3Z"/>
        <path class="cls-14" d="M199.68,269.81s-.53-38.91-.53-52.82"/>
        <path class="cls-14" d="M116.05,250.15s3-22.1,2.85-39.51"/>
        <path class="cls-17" d="M174.68,188.74c-.61,3.25-.47,5.34-.05,6.69-14.63,5.68-29.57,1-37-2.13a8.81,8.81,0,0,0,.77-7.73l1-.49S176.36,179.71,174.68,188.74Z"/>
      </g>
      <g>
        <g>
          <path class="cls-3" d="M215.85,128.31c-3,11.09-12.51,17.42-21.55,15.39s-7-8.28-4-19.38,3.48-10,11-15.57C217.85,96.52,218.87,117.21,215.85,128.31Z"/>
          <path class="cls-18" d="M205.24,112.41a4.65,4.65,0,0,1,4-.48c1.66.72,2.25,2.7,2.44,4.47.68,6.22-1.32,12.61-4.68,18.09a7.48,7.48,0,0,1-2,2.38,3,3,0,0,1-3,.36,3,3,0,0,1-1.27-3c.23-2.91,2.48-5.28,4.22-7.7A5.79,5.79,0,0,0,206,124.4a2.11,2.11,0,0,0-.71-2.13,3,3,0,0,0-1.84-.38,16.82,16.82,0,0,0-3.84.8c-.9-1.72.33-3.79,1.18-5.32A12.12,12.12,0,0,1,205.24,112.41Z"/>
        </g>
        <path class="cls-3" d="M181.75,68.21C145,56.35,183.55,22.68,140,32.68c-42.3,9.71-62.42,36.42-55.48,73.51C87.68,123.34,97,140,97.1,141c4.91,44.17,52.1,56.79,77.74,50.89,11.21-2.58,15-9.39,23.25-19.38,10.07-12.21,16.35-28.8,9.83-59.09C207.72,112.46,212.43,78.1,181.75,68.21Z"/>
        <path class="cls-18" d="M107,82.71s11.79,10.58,59.31-.22l-2.69-6s4.75,8.17,33.43,6.77L208.68,116l-7.53-72.12-102,14.45-12,19L91.94,96s-1.42,39.92,3,52.36l1.13-2.47a71.36,71.36,0,0,0,6.5-29.78h0S113.05,118,107,82.71Z"/>
        <path class="cls-19" d="M101.16,74.16S99.46,90,163.87,79.33c0,0-1.8-.38-10.52-13.92C164.48,82,181.1,78.82,194,79.92l1.16-19.74L208.68,116s2.51-17.67,2.67-25c0,0,4-17.34-1.78-29.17,0,0,.68.3,3.18,6.11,0,0,11-31.6-34.3-47.8,0,0,1.9-3,12.66-.35,0,0-22.52-16.73-60.41-9.92C110.88,13.49,95.88,16.09,91,37c0,0-26.66-11.25-31.21,20.27,0,0,14.92-12.14,21.07-6.43,0,0-19.07,6.81-18.08,35.79.94,27.38,11.88,44.9,30.07,61.58,0,0,11.45-19.21,3.29-42l7.3,7.76S112.38,104.52,101.16,74.16Z"/>
        <g>
          <path class="cls-12" d="M160.81,139.54s.17,4.46,7.07,2.69c12.62-3.25,2.76-9.37,2.76-9.37"/>
          <path class="cls-13" d="M160.81,139.54c1.33,4.23,6.66,2.4,9.73,1.34s4.68-3.16,2.21-6a13.73,13.73,0,0,0-2.11-2c1.69,1,3.45,2.28,3.93,4.34.41,3.46-3.9,4.7-6.51,5.48s-7.34.58-7.25-3.14Z"/>
        </g>
        <g>
          <path class="cls-3" d="M104.29,163.11c-7.44,10.16-19,5.58-25-3.65s-11.91-28.9,5-23.61A20.3,20.3,0,0,1,98.41,146.1"/>
          <path class="cls-18" d="M82.44,140.72a3.46,3.46,0,0,0-3.27,1c-1.07,1.28-.89,3.34-.47,5.07a30,30,0,0,0,9.56,15.13,6.4,6.4,0,0,0,2.36,1.47,2.25,2.25,0,0,0,2.46-.77,3.46,3.46,0,0,0,0-3.25c-1.12-2.62-3.66-4-5.82-5.62a5.35,5.35,0,0,1-1.54-1.6,2.43,2.43,0,0,1-.13-2.25,2.47,2.47,0,0,1,1.31-1,12.06,12.06,0,0,1,3.28-.68c.15-1.94-1.49-3.41-2.65-4.52A9.92,9.92,0,0,0,82.44,140.72Z"/>
        </g>
        <g>
          <g>
            <ellipse class="cls-20" cx="136.01" cy="125.94" rx="11.84" ry="12.46" transform="translate(-28.1 39.76) rotate(-15.09)"/>
            <path class="cls-21" d="M139.26,138c-10.51,2.89-19.23-9.14-14.38-18.62a12.05,12.05,0,0,1,17.46-4.71c8.94,5.77,7.47,20.54-3.08,23.33Zm0-.09c10.26-2.84,11.43-17.13,2.64-22.51a11.45,11.45,0,0,0-16.24,4.38c-4.9,9.07,3.3,20.84,13.6,18.13Z"/>
          </g>
          <ellipse class="cls-22" cx="135.42" cy="125.96" rx="6.88" ry="7.34" transform="translate(-15.02 18.39) rotate(-7.36)"/>
          <ellipse class="cls-20" cx="139.03" cy="121.89" rx="2.07" ry="2.21" transform="translate(-36.23 62.99) rotate(-22.67)"/>
        </g>
        <g>
          <g>
            <ellipse class="cls-20" cx="183.66" cy="118.77" rx="11.58" ry="12.46" transform="translate(-24.59 51.92) rotate(-15.09)"/>
            <path class="cls-21" d="M186.92,130.85c-10.36,2.83-18.85-9.33-14.25-18.6a11.66,11.66,0,0,1,17.21-4.64c8.63,5.71,7.42,20.47-3,23.24Zm0-.1c10.11-2.8,11-17.1,2.52-22.42a11,11,0,0,0-16,4.31c-4.67,8.86,3.29,20.77,13.44,18.11Z"/>
          </g>
          <ellipse class="cls-22" cx="182.84" cy="117.77" rx="6.88" ry="7.34" transform="translate(-31.26 79.56) rotate(-22.67)"/>
          <ellipse class="cls-20" cx="186.46" cy="114.34" rx="2.07" ry="2.21" transform="translate(-29.66 80.69) rotate(-22.67)"/>
        </g>
        <path class="cls-22" d="M193.66,97.65s-18.84-9.16-23.28,2.33c0,0-1.29-16.35,16-7.57Z"/>
        <path class="cls-22" d="M117.79,112.39s13-16.73,22.09-8.47c0,0-4.67-15.28-17.69.45Z"/>
        <g>
          <path class="cls-23" d="M141.89,157.72c3.69,4.23,15.6,17.54,28.53,16.29,7.81-.75,10.09-7.85,12.64-13.19.66-1.38,1.25-2.81,1.85-4.24h0c.3-.73.61-1.45.91-2.16a40.83,40.83,0,0,1,2.77-5.44h0c.25-.41.52-.8.8-1.19l.34-.45s-9.66,9.05-44.47,9.1l-2.94-.22-1.16-.09-.65,0S141,156.71,141.89,157.72Z"/>
          <path class="cls-24" d="M180,164.25a8.76,8.76,0,0,0-7.78-.07,17.27,17.27,0,0,0-11.69,4.73S172.6,173.58,180,164.25Z"/>
          <path class="cls-20" d="M141.17,156.11c18,10.08,31.82,7.21,38.87,3.21,3-1.72,1.6-7.41,6.85-8.85a15,15,0,0,0,2.51-2.7l.34-.45s-9.66,9.05-44.47,9.1l-2.94-.22Z"/>
          <path class="cls-25" d="M141.89,157.72c3.69,4.23,19.05,21,30.67,17,13.28-4.57,12.49-18.65,15-24C178.27,177.75,162.13,173.62,141.89,157.72Z"/>
          <path class="cls-26" d="M142.33,156.2c27.66,6.49,41.36-2.62,46.26-7.23h0l.11-.1c.23-.4.47-.76.69-1.09l.34-.45s-9.66,9.05-44.47,9.1Z"/>
          <path class="cls-24" d="M141.73,153.5s-3.9,1.47-1.19,5.38C140.54,158.88,136.63,153.88,141.73,153.5Z"/>
          <path class="cls-24" d="M188.65,146.05s2.56.13,1.73,3.82C190.38,149.87,192.42,145.92,188.65,146.05Z"/>
        </g>
      </g>
    </g>
    <path class="cls-4" d="M121.49,389.33c0,.12,0-.12,0,0l-3.18,8.79s-1.2.25-1.22.31c-5.22.36-14.61.17-21.36-5.5l2.5-7.93C102.83,388,110.3,391.49,121.49,389.33Z"/>
  </g>
  <g class="cls-27">
    <g class="cls-28">
      <g class="cls-30">
        <path class="cls-31" d="M81.9,46.53A1.91,1.91,0,1,1,80,44.62,1.9,1.9,0,0,1,81.9,46.53Z"/>
        <path class="cls-32" d="M132.32,122a1.91,1.91,0,1,1-1.9-1.91A1.91,1.91,0,0,1,132.32,122Z"/>
        <path class="cls-31" d="M185.37,127.34a1.91,1.91,0,1,1-1.91-1.91A1.92,1.92,0,0,1,185.37,127.34Z"/>
      </g>
    </g>
  </g>
</svg>
