<svg id="Layer_1" data-name="Layer 1" xmlns="http://www.w3.org/2000/svg" xmlns:xlink="http://www.w3.org/1999/xlink" width="782.49" height="471.53" viewBox="0 0 782.49 471.53">
  <defs>
    <style>
      .cls-1 {
        fill: none;
      }

      .cls-2 {
        fill: #fffbe6;
      }

      .cls-3 {
        fill: #e0892b;
      }

      .cls-4 {
        fill: #ffe0b3;
      }

      .cls-5 {
        opacity: 0.5;
      }

      .cls-6 {
        fill: #520e6b;
      }

      .cls-7 {
        fill: #c92fd1;
      }

      .cls-8 {
        clip-path: url(#clip-path);
      }

      .cls-9 {
        clip-path: url(#clip-path-2);
      }

      .cls-10 {
        fill: #191c3f;
      }

      .cls-11 {
        opacity: 0.57;
      }

      .cls-12 {
        opacity: 0.8;
      }

      .cls-13 {
        opacity: 0.76;
      }

      .cls-14 {
        fill: #f4edf9;
      }

      .cls-15 {
        opacity: 0.78;
      }

      .cls-16 {
        opacity: 0.7;
      }

      .cls-17 {
        fill: #f9e9aa;
      }

      .cls-18 {
        fill: #a0e6f9;
      }

      .cls-19 {
        fill: #f9f0bd;
      }

      .cls-20 {
        clip-path: url(#clip-path-3);
      }

      .cls-21 {
        clip-path: url(#clip-path-5);
      }
    </style>
    <clipPath id="clip-path">
      <rect class="cls-1" x="-274.53" y="-1076.65" width="1600" height="900"/>
    </clipPath>
    <clipPath id="clip-path-2">
      <rect class="cls-1" x="-9251.37" y="-1311.34" width="10800" height="2050"/>
    </clipPath>
    <clipPath id="clip-path-3">
      <rect class="cls-1" x="-274.53" y="-2059.24" width="1600" height="900"/>
    </clipPath>
    <clipPath id="clip-path-5">
      <rect class="cls-1" x="-9251.37" y="-2293.92" width="10800" height="2050"/>
    </clipPath>
  </defs>
  <g>
    <path class="cls-2" d="M735.57,137.36a23.28,23.28,0,0,0,2-9.54,99,99,0,0,1,1.53-14.92,23.32,23.32,0,0,0-9.76-23.51A23.29,23.29,0,0,0,707.31,63c-.51,0-12.52-.54-24.58-.72h-.35A23.29,23.29,0,0,0,660.05,79q-1.74,5.92-3.2,11.89a44.94,44.94,0,0,0-11-3.17l-.32,0a52.75,52.75,0,0,0-7.28-.52,48.16,48.16,0,0,0-7.62.6,23.14,23.14,0,0,0-9.16-1.88,23.44,23.44,0,0,0-8,1.41,40.19,40.19,0,0,1-7,1.64,23.29,23.29,0,0,0-19.2-3.06c-3.17.89-8.91,1.44-15,1.44-1.1,0-1.81,0-1.93,0h-.86A23.24,23.24,0,0,0,559,89.74c-4.59-.84-10.46-1.9-16.17-3a23.09,23.09,0,0,0-4.27-.4,23.35,23.35,0,0,0-17.58,8,47.21,47.21,0,0,0-25.6-7.49h-.45a46.54,46.54,0,0,0-15.25,2.68c-3.18-13.45-10.53-28.11-27.56-36.52a59.45,59.45,0,0,0-26.8-6.38A62.68,62.68,0,0,0,394.55,55c-23.92,13.3-36.84,42.34-34.86,78-5.58-27.28-25.38-45.53-50.9-45.53l-1.16,0c-1.28,0-2.55.11-3.81.23a23.28,23.28,0,0,0-12.36-3.56,22.24,22.24,0,0,0-3.15.22l-3.81.54c-.15-.76-.31-1.53-.5-2.3,0-.12-.07-.24-.1-.36-4.06-14.78-17.8-24.71-34.19-24.71a41.66,41.66,0,0,0-16.85,3.63A37.2,37.2,0,0,0,211,86.75l-2.32-.4c.52-8.93,1.18-17.5,2-25.35a23.29,23.29,0,0,0-23.17-25.58,23.82,23.82,0,0,0-3.26.23C169,37.8,155,40.43,154.36,40.54A23.26,23.26,0,0,0,137.82,53a67.67,67.67,0,0,0-31.44-7.62c-1.73,0-3.48.06-5.23.19C67.24,48,50.29,74.67,51.07,99.66a51.54,51.54,0,0,0,14.7,35.27c-3.9,5.32-9,12.59-13.16,19.52a23.3,23.3,0,0,0,.82,25.15c14.55,21.13,36.92,32.77,63,32.77A64.78,64.78,0,0,0,143,206.7a23.25,23.25,0,0,0,20.53,5.91,145.52,145.52,0,0,1,21.6-2.51,23,23,0,0,0,4.58,3.34,23.3,23.3,0,0,0,21.63.54,77.72,77.72,0,0,1,13.2-4.62,23.32,23.32,0,0,0,12.28,3.53,22.73,22.73,0,0,0,3.58-.28l4.8-.72q-.25,3.38-.56,6.55A135.21,135.21,0,0,0,217.83,223a23.3,23.3,0,0,0-16.71,26.79c6.21,32.83,5.6,78.6,1.17,99.13a23.28,23.28,0,0,0,15,26.86c13.63,4.84,27.69,5.85,37.09,5.85a118,118,0,0,0,21.09-1.83,23.26,23.26,0,0,0,7.92,26.07c.49.37,12.05,9.17,24.18,18a23.28,23.28,0,0,0,13.67,4.43,22.62,22.62,0,0,0,4.09-.37,23.29,23.29,0,0,0,15.25-9.95c14.26-21.27,24.23-54.85,33.87-87.34,4.64-15.64,9-30.42,13.39-42,.13.27.25.56.4.82a23.21,23.21,0,0,0,14.14,11.25c2.47.7,5,1.57,7.34,2.51-12.1,13.94-23.79,33.08-23.47,60.85A23.28,23.28,0,0,0,415,386.4,156.42,156.42,0,0,1,452.74,382c10.05,0,20,.82,28,1.48.65.05,1.29.08,1.92.08a23.28,23.28,0,0,0,23-27c-1.29-7.93.88-18.84,1.72-22a23.3,23.3,0,0,0-9-25.24,57,57,0,0,0,11-36.55c-.91-24.82-17.87-51.08-53.74-53.88h-.17c-1.61-.12-3.23-.18-4.82-.18-29.09,0-53.29,19.35-63.62,50.65q-.3-.6-.63-1.17A23.27,23.27,0,0,0,370,256.85c-11.48-1.89-24.67-4.14-24.8-4.16a22.68,22.68,0,0,0-3.93-.34A23.24,23.24,0,0,0,327,257.22a22.36,22.36,0,0,0-2.56,2.29,23.2,23.2,0,0,0-2.91-.18l-.9,0c-2.15.08-4.28.2-6.37.35a54.31,54.31,0,0,0-2.92-8.85,23.28,23.28,0,0,0,5.33-19c-1.07-6.51-2-14.17-2.79-22.52a49.33,49.33,0,0,0,30.72-15.5c10.6-11.3,16.66-28.22,16.6-46,4.36,27.94,16.44,46.89,36.79,57.76A58.71,58.71,0,0,0,425,212c13,0,25.2-4.09,34.49-11.52.51-.4,1-.82,1.48-1.23a52.79,52.79,0,0,0,34.73,13.16c1.15,0,2.29,0,3.48-.12a51.87,51.87,0,0,0,29.23-11.18,42.55,42.55,0,0,0,20.22,8.25,57.85,57.85,0,0,0,7.38.48,52.48,52.48,0,0,0,6.77-.43,23.35,23.35,0,0,0,10.33,2.41,23,23,0,0,0,4.93-.53A75.37,75.37,0,0,1,588.29,210a23.31,23.31,0,0,0,12.42,3.62h.68c1.64-.05,3.4-.08,5.25-.08,8.66,0,16.6.53,16.89.55.54,0,1.08.06,1.61.06a23.35,23.35,0,0,0,13.92-4.61c4.49.66,10,1.53,15.22,2.48a23.15,23.15,0,0,0,20.63-6.42,44.35,44.35,0,0,0,15.68,6.08,49,49,0,0,0,8.75.8c19.8,0,44.41-13.59,48.6-51.89A23.3,23.3,0,0,0,735.57,137.36Z"/>
    <path class="cls-3" d="M736.73,149a23.32,23.32,0,0,0,2-9.54,99.44,99.44,0,0,1,1.52-14.93,23.27,23.27,0,0,0-9.76-23.5,23.28,23.28,0,0,0-22.07-26.37c-.5,0-12.51-.55-24.58-.72h-.34a23.27,23.27,0,0,0-22.33,16.69c-1.17,4-2.23,7.91-3.21,11.89a44.81,44.81,0,0,0-11-3.17l-.32,0a51.2,51.2,0,0,0-7.27-.52,49.49,49.49,0,0,0-7.63.59,23.22,23.22,0,0,0-17.15-.46,41,41,0,0,1-7,1.64,23.19,23.19,0,0,0-19.21-3.06c-3.16.89-8.91,1.44-15,1.44-1.09,0-1.81,0-1.92,0l-.87,0a23.2,23.2,0,0,0-10.45,2.48c-4.59-.83-10.47-1.9-16.18-3a23,23,0,0,0-4.27-.39,23.31,23.31,0,0,0-17.57,8,47.24,47.24,0,0,0-25.6-7.5h-.45a46.56,46.56,0,0,0-15.26,2.69c-3.17-13.46-10.52-28.12-27.55-36.53a59.45,59.45,0,0,0-26.81-6.37,62.63,62.63,0,0,0-30.78,8.29c-23.92,13.3-36.84,42.33-34.86,78-5.58-27.29-25.37-45.53-50.89-45.53h-1.17c-1.28,0-2.54.11-3.8.23a23.3,23.3,0,0,0-12.37-3.55,24,24,0,0,0-3.15.21l-3.81.54c-.15-.76-.3-1.52-.5-2.29,0-.12-.06-.24-.1-.36C281,79.08,267.27,69.15,250.88,69.15A41.5,41.5,0,0,0,234,72.78a37.15,37.15,0,0,0-21.86,25.61c-.83-.13-1.62-.27-2.33-.4.53-8.92,1.18-17.5,2-25.35a23.29,23.29,0,0,0-23.18-25.57,22.43,22.43,0,0,0-3.26.23c-15.18,2.14-29.24,4.77-29.83,4.88A23.23,23.23,0,0,0,139,64.69a67.75,67.75,0,0,0-31.45-7.63c-1.72,0-3.48.07-5.22.19-33.91,2.4-50.86,29.06-50.08,54.05a51.59,51.59,0,0,0,14.7,35.28c-3.91,5.32-9,12.59-13.16,19.52a23.27,23.27,0,0,0,.82,25.14c14.55,21.13,36.92,32.77,63,32.77a64.94,64.94,0,0,0,26.61-5.66,23.35,23.35,0,0,0,20.52,5.91,142.85,142.85,0,0,1,21.6-2.51,23.88,23.88,0,0,0,4.59,3.34,23.32,23.32,0,0,0,21.62.53,77.72,77.72,0,0,1,13.2-4.62A23.26,23.26,0,0,0,238,224.53a24.2,24.2,0,0,0,3.59-.27c1.61-.26,3.22-.5,4.8-.73-.18,2.25-.36,4.44-.56,6.55A134.4,134.4,0,0,0,219,234.64a23.28,23.28,0,0,0-16.71,26.78c6.21,32.84,5.59,78.6,1.16,99.14a23.3,23.3,0,0,0,15,26.86c13.64,4.83,27.7,5.85,37.09,5.85a117.87,117.87,0,0,0,21.09-1.83,23.3,23.3,0,0,0,7.93,26.07c.48.37,12,9.16,24.18,17.95a23.28,23.28,0,0,0,13.66,4.43,23.55,23.55,0,0,0,4.09-.36,23.26,23.26,0,0,0,15.25-10C356,408.31,366,374.72,375.59,342.24c4.64-15.64,9-30.42,13.39-42,.14.27.25.55.4.82a23.3,23.3,0,0,0,14.14,11.25,73.7,73.7,0,0,1,7.34,2.5c-12.1,13.94-23.78,33.08-23.46,60.85a23.31,23.31,0,0,0,28.77,22.37,156,156,0,0,1,37.74-4.4c10,0,20,.83,28,1.49.64.05,1.28.07,1.92.07a23.28,23.28,0,0,0,23-27c-1.29-7.93.88-18.85,1.72-22a23.26,23.26,0,0,0-3.74-20.12,23,23,0,0,0-5.22-5.11,57.06,57.06,0,0,0,11-36.55c-.91-24.82-17.87-51.09-53.74-53.89h-.17c-1.61-.11-3.24-.17-4.83-.17-29.08,0-53.28,19.35-63.62,50.64-.2-.39-.4-.78-.62-1.16a23.31,23.31,0,0,0-16.42-11.37c-11.47-1.88-24.66-4.14-24.8-4.16a23.35,23.35,0,0,0-18.17,4.53,23.32,23.32,0,0,0-2.55,2.3,23.44,23.44,0,0,0-2.91-.18h-.91c-2.14.09-4.28.21-6.36.36a54,54,0,0,0-2.93-8.85,23.31,23.31,0,0,0,5.33-19c-1.07-6.5-2-14.17-2.79-22.51a49.29,49.29,0,0,0,30.73-15.51c10.59-11.3,16.66-28.22,16.59-46,4.37,27.95,16.45,46.9,36.8,57.77a58.79,58.79,0,0,0,27,6.36c13,0,25.2-4.08,34.5-11.51.51-.4,1-.82,1.47-1.23a52.85,52.85,0,0,0,34.74,13.15c1.14,0,2.29,0,3.48-.12a51.84,51.84,0,0,0,29.23-11.17A42.4,42.4,0,0,0,549.82,221a57.88,57.88,0,0,0,7.38.49,52.25,52.25,0,0,0,6.77-.44,23.26,23.26,0,0,0,10.33,2.42,23.54,23.54,0,0,0,4.93-.53,73.78,73.78,0,0,1,10.23-1.35,23.25,23.25,0,0,0,12.41,3.62h.69c1.63-.05,3.39-.07,5.24-.07,8.67,0,16.6.53,16.89.55.54,0,1.08.05,1.62.05a23.23,23.23,0,0,0,13.91-4.61c4.5.67,10,1.53,15.23,2.49a23.24,23.24,0,0,0,20.62-6.43,44.42,44.42,0,0,0,15.68,6.08,49.11,49.11,0,0,0,8.75.8c19.81,0,44.42-13.59,48.61-51.89A23.29,23.29,0,0,0,736.73,149Z"/>
    <path class="cls-4" d="M736.73,142a23.29,23.29,0,0,0,2-9.54,99.28,99.28,0,0,1,1.52-14.92,23.32,23.32,0,0,0-9.76-23.51,23.29,23.29,0,0,0-22.07-26.37c-.5,0-12.51-.54-24.58-.72h-.34a23.27,23.27,0,0,0-22.33,16.69C660.05,87.6,659,91.57,658,95.54a44.81,44.81,0,0,0-11-3.17l-.32-.05a51.2,51.2,0,0,0-7.27-.52,49.49,49.49,0,0,0-7.63.59,23.36,23.36,0,0,0-17.15-.46,40.06,40.06,0,0,1-7,1.64,23.19,23.19,0,0,0-19.21-3.06c-3.16.89-8.91,1.44-15,1.44-1.09,0-1.81,0-1.92,0l-.87,0a23.33,23.33,0,0,0-10.45,2.48c-4.59-.83-10.47-1.9-16.18-3a23.88,23.88,0,0,0-4.27-.39,23.35,23.35,0,0,0-17.57,8,47.24,47.24,0,0,0-25.6-7.5h-.45a46.55,46.55,0,0,0-15.26,2.68c-3.17-13.46-10.52-28.12-27.55-36.53a59.45,59.45,0,0,0-26.81-6.37,62.74,62.74,0,0,0-30.78,8.29c-23.92,13.3-36.84,42.34-34.86,78-5.58-27.29-25.37-45.53-50.89-45.53l-1.17,0c-1.28,0-2.54.1-3.8.23a23.31,23.31,0,0,0-12.37-3.56,22.45,22.45,0,0,0-3.15.22c-.16,0-1.59.21-3.81.54-.15-.77-.3-1.53-.5-2.3,0-.12-.06-.24-.1-.36C281,72.09,267.27,62.16,250.88,62.16A41.67,41.67,0,0,0,234,65.79,37.17,37.17,0,0,0,212.16,91.4c-.83-.13-1.62-.26-2.33-.39.53-8.93,1.18-17.5,2-25.35a23.29,23.29,0,0,0-23.18-25.58,23.93,23.93,0,0,0-3.26.23c-15.18,2.14-29.24,4.77-29.83,4.88A23.26,23.26,0,0,0,139,57.7a67.74,67.74,0,0,0-31.45-7.62c-1.72,0-3.48.06-5.22.18-33.91,2.41-50.86,29.06-50.08,54.06a51.54,51.54,0,0,0,14.7,35.27c-3.91,5.32-9,12.59-13.16,19.52a23.28,23.28,0,0,0,.82,25.15c14.55,21.13,36.92,32.76,63,32.76a64.77,64.77,0,0,0,26.61-5.66,23.23,23.23,0,0,0,20.52,5.91,145.52,145.52,0,0,1,21.6-2.51A23.35,23.35,0,0,0,202.22,221a23.2,23.2,0,0,0,10.3-2.41,79.28,79.28,0,0,1,13.2-4.61A23.35,23.35,0,0,0,238,217.55a24.22,24.22,0,0,0,3.59-.28l4.8-.72c-.18,2.25-.36,4.43-.56,6.54A135.12,135.12,0,0,0,219,227.65a23.28,23.28,0,0,0-16.71,26.78c6.21,32.84,5.59,78.61,1.16,99.14a23.29,23.29,0,0,0,15,26.86c13.64,4.84,27.7,5.85,37.09,5.85a117.87,117.87,0,0,0,21.09-1.83,23.3,23.3,0,0,0,7.93,26.07c.48.37,12,9.17,24.18,18a23.28,23.28,0,0,0,13.66,4.43,23.55,23.55,0,0,0,4.09-.36,23.29,23.29,0,0,0,15.25-10C356,401.32,366,367.73,375.59,335.25c4.64-15.64,9-30.42,13.39-42,.14.27.25.55.4.82a23.3,23.3,0,0,0,14.14,11.25,76.36,76.36,0,0,1,7.34,2.5c-12.1,14-23.78,33.09-23.46,60.86a23.27,23.27,0,0,0,28.77,22.36,156,156,0,0,1,37.74-4.39c10,0,20,.82,28,1.48.64.05,1.28.08,1.92.08a23.28,23.28,0,0,0,23-27c-1.29-7.93.88-18.84,1.72-21.95a23.27,23.27,0,0,0-3.74-20.13,23,23,0,0,0-5.22-5.11,57.06,57.06,0,0,0,11-36.55c-.91-24.82-17.87-51.08-53.74-53.89h-.17c-1.61-.11-3.24-.17-4.83-.17-29.08,0-53.28,19.35-63.62,50.64-.2-.39-.4-.78-.62-1.16a23.29,23.29,0,0,0-16.42-11.36c-11.47-1.89-24.66-4.14-24.8-4.17a23.57,23.57,0,0,0-3.92-.33,23.29,23.29,0,0,0-14.25,4.87,22.26,22.26,0,0,0-2.55,2.29,23.44,23.44,0,0,0-2.91-.18l-.91,0c-2.14.08-4.28.2-6.36.35a54,54,0,0,0-2.93-8.85,23.31,23.31,0,0,0,5.33-19c-1.07-6.5-2-14.16-2.79-22.51a49.33,49.33,0,0,0,30.73-15.5c10.59-11.3,16.66-28.22,16.59-46,4.37,27.94,16.45,46.89,36.8,57.76a58.67,58.67,0,0,0,27,6.37c13,0,25.2-4.09,34.5-11.52.51-.4,1-.82,1.47-1.23a52.8,52.8,0,0,0,34.74,13.15c1.14,0,2.29,0,3.48-.11a51.92,51.92,0,0,0,29.23-11.18A42.4,42.4,0,0,0,549.82,214a56.11,56.11,0,0,0,7.38.49,52.25,52.25,0,0,0,6.77-.44,23.26,23.26,0,0,0,10.33,2.42,22.89,22.89,0,0,0,4.93-.53,75.32,75.32,0,0,1,10.23-1.35,23.25,23.25,0,0,0,12.41,3.62h.69c1.63,0,3.39-.07,5.24-.07,8.67,0,16.6.53,16.89.55q.81.06,1.62.06a23.3,23.3,0,0,0,13.91-4.61c4.5.66,10,1.53,15.23,2.48a23.11,23.11,0,0,0,20.62-6.43,44,44,0,0,0,15.68,6.08,48.22,48.22,0,0,0,8.75.81c19.81,0,44.42-13.59,48.61-51.9A23.3,23.3,0,0,0,736.73,142Z"/>
    <g class="cls-5">
      <path class="cls-3" d="M123.27,197.52c-17,0-32.16-6.61-42.93-21.45a2.28,2.28,0,0,1-.1-2.53c5-8.11,11.35-16.71,14.59-21a2.28,2.28,0,0,1,3.73.13c8.75,13.56,26,19.57,32,12.7,5.23-5.76,0-15-16.76-22.69C98,135.39,81.73,126.84,81.21,107.47c-.35-11.17,6.28-28.62,28.44-30.19C130.91,75.77,146.55,87.76,155,104a2.29,2.29,0,0,1-1,3.12,185.09,185.09,0,0,0-20.29,12.48,2.29,2.29,0,0,1-3.36-.84c-3.08-6.21-8.9-10.58-14.3-10.58-4.89,0-7.33,3.49-6.81,7.5.7,7.51,8,10.12,20.6,14.84,18.67,6.63,29.49,18.32,29.84,32.8C160.09,186.35,140.89,197.52,123.27,197.52Z"/>
      <path class="cls-3" d="M207.54,198.47c-1.7-12.26-6.33-23.35-12.49-29.32a2.3,2.3,0,0,0-3.89,1.76c.34,8,.86,15.34,1.49,21.88a2.28,2.28,0,0,1-2.2,2.5,164.77,164.77,0,0,0-21.52,2.36,2.28,2.28,0,0,1-2.66-2.54c4.35-33.75,4-87.07-.47-121.07a2.27,2.27,0,0,1,1.85-2.56c4.09-.74,13.5-2.4,23.75-3.91A2.3,2.3,0,0,1,194,70.06c-2,21.51-3.25,48.76-3.23,74.23a2.3,2.3,0,0,0,3.68,1.83c6.29-4.79,11-14.06,12.49-26.77a2.28,2.28,0,0,1,2.69-2c4.51.86,14.39,2.54,22.46,2.42a2.31,2.31,0,0,1,2.32,2.77c-2.88,14-10.37,26.28-22.39,34.07a2.27,2.27,0,0,0,.16,3.91,47.58,47.58,0,0,1,23.07,30.27,2.29,2.29,0,0,1-1.88,2.83,98.52,98.52,0,0,0-22.68,6.61A2.29,2.29,0,0,1,207.54,198.47Z"/>
      <path class="cls-3" d="M259.05,112.88c-8,2.62-16.58,0-18.33-6.63-1.74-6.11,1.4-12.39,8.38-15.36,8-3.66,17.28-1,19.19,5.94C269.87,102.93,267.77,109.91,259.05,112.88ZM244.13,195c2.81-21,1.61-50.09-1.16-70.52a2.28,2.28,0,0,1,2.05-2.58,180.37,180.37,0,0,0,19.45-3,2.31,2.31,0,0,1,2.77,2.37c-1,19.4.35,52.6,2.52,71a2.28,2.28,0,0,1-2,2.54c-3.86.45-12.1,1.44-21,2.77A2.29,2.29,0,0,1,244.13,195Z"/>
      <path class="cls-3" d="M314.54,194.9a24.66,24.66,0,0,1-15.16-4.68,2.3,2.3,0,0,0-3.66,1.94A477.2,477.2,0,0,0,300,240.52a2.28,2.28,0,0,1-2.89,2.53A99.69,99.69,0,0,0,276,240a2.29,2.29,0,0,1-2.19-2.55c3.69-31.41,4.66-82.66,2.62-116.07a2.3,2.3,0,0,1,1.89-2.4c6.47-1.14,13-2.13,16.8-2.67a2.28,2.28,0,0,1,2.59,2.62c-.11.71-.22,1.45-.32,2.21a2.3,2.3,0,0,0,3.49,2.24,27.91,27.91,0,0,1,14.16-4.21c16.93-.35,28.45,14.49,29.67,34.56C345.78,172.39,336.88,194.73,314.54,194.9ZM303.9,139.06c-7.33,2.79-9.25,13.78-6.29,22.51,2.8,8,10.82,11.34,17.1,7.5,5.59-3.31,6.46-13.43,4-20.76C316.46,141.68,310.35,136.61,303.9,139.06Z"/>
      <path class="cls-3" d="M451.89,190.71c-10.65,8.55-26.88,7.68-36.13,2.8-12.74-6.81-23.56-19.9-25.83-51.14-2.44-32.28,9.6-51.3,22.87-58.63,11.34-6.46,24.25-7.16,35.77-1.4,13.58,6.71,16.85,20.66,17.09,38.77a2.29,2.29,0,0,1-2.2,2.31,142.14,142.14,0,0,0-23.14,2.82,2.28,2.28,0,0,1-2.76-2c-1-10.84-4.06-16.52-9.23-16.2-5.41.18-14.83,10.82-14.49,32.81.35,23.39,7.68,30.89,12.57,32.11,5.87,1.31,11.29-3.95,12-12.49a2.29,2.29,0,0,1,2-2.1,182.6,182.6,0,0,1,25.19-1.67A2.31,2.31,0,0,1,467.8,159C467.67,172.65,462,182.78,451.89,190.71Z"/>
      <path class="cls-3" d="M504.42,197.52c-10.3.7-26.7-4.36-31.06-25.48-5.06-24.26,6.8-53.23,28.62-53.4,15.71-.18,29.31,15.18,30.71,39.27C533.92,178.85,524.14,196.12,504.42,197.52Zm-2.79-53.05c-7.51.7-12,12.91-10.12,23.91,1.39,9.25,6.28,13.08,11,12.56,7-.7,10.65-9.77,10-19C511.58,150.92,506.86,144.12,501.63,144.47Z"/>
      <path class="cls-3" d="M580.17,194.05l0-.58a2.3,2.3,0,0,0-3.47-2.07,28.37,28.37,0,0,1-18.21,3.33c-20.95-2.75-26.35-34.41-13.7-74.68a2.3,2.3,0,0,1,2.61-1.56c8.2,1.51,16.32,3,20.35,3.7a2.29,2.29,0,0,1,1.76,3c-7.69,23.66-7.42,47.79.68,49.14,3.44.65,6.73-.54,9.57-3.86a2.27,2.27,0,0,0,.52-1.54c-.52-16.2-1.92-32.94-3.66-47.31a2.28,2.28,0,0,1,2.26-2.57,99.19,99.19,0,0,0,18.42-1.57,2.29,2.29,0,0,1,2.77,2.44c-2.19,24.47-1.85,50.35,1.16,72.41a2.29,2.29,0,0,1-2.21,2.61,112.31,112.31,0,0,0-16.19,1.52A2.3,2.3,0,0,1,580.17,194.05Z"/>
      <path class="cls-3" d="M642.06,193.87a2.28,2.28,0,0,1-1.88-2.94c7.53-23.72,5.17-49-1.9-51-3.29-1-6.42.2-9.26,3.7a2.25,2.25,0,0,0-.48,1.5c.66,18.41,1.91,37.91,3.19,51.48a2.28,2.28,0,0,1-2.4,2.5c-3.9-.22-11.54-.55-19.27-.43a2.27,2.27,0,0,1-2.31-2.44,460.46,460.46,0,0,0-.65-72.46,2.28,2.28,0,0,1,2.08-2.5,88,88,0,0,0,16.25-2.75,2.28,2.28,0,0,1,2.9,2.21h0a2.29,2.29,0,0,0,3.49,2,25.13,25.13,0,0,1,17.28-3.53c20.77,3.27,26.18,32.37,16.71,76.19a2.31,2.31,0,0,1-2.66,1.78C654.8,195.65,646.28,194.45,642.06,193.87Z"/>
      <path class="cls-3" d="M701.63,197.17C682,193.61,678,166.37,680.77,137a2.31,2.31,0,0,0-2.4-2.53l-1.24.07a2.29,2.29,0,0,1-2.41-2.43c.28-4.43.73-8.43,1-10.69a2.28,2.28,0,0,1,2.16-2l3.6-.17a2.29,2.29,0,0,0,2.14-1.88c1.41-7.62,3.19-15,5.12-21.66A2.3,2.3,0,0,1,691,94.06c7.52.13,14.87.39,18.93.54A2.28,2.28,0,0,1,712,97.69a150.2,150.2,0,0,0-5.43,17.23,2.3,2.3,0,0,0,2.33,2.87l11.38-.58a2.29,2.29,0,0,1,2.38,2.64,125.66,125.66,0,0,0-1.41,13.82,2.3,2.3,0,0,1-2.64,2.19c-4.74-.68-9.54-1.09-14.18-1.39A2.3,2.3,0,0,0,702,136.4c-3.26,20.82-2.16,36.91,1.56,38.26,3.43,1.4,5.47-5.29,5.74-14a2.29,2.29,0,0,1,3.07-2.07c7.82,2.82,14.75,5.81,17.74,7.13a2.28,2.28,0,0,1,1.34,2.38C728.4,190.81,715.6,199.73,701.63,197.17Z"/>
      <path class="cls-3" d="M285.13,363.66c-13.73,4.19-35.19,4.36-51.24-.73a2.28,2.28,0,0,1-1.58-2.62c4.75-24.36,5-70.36-1.07-104.34a2.29,2.29,0,0,1,1.67-2.62c27.6-7,61.93-5,66.18,23.23,1.79,11.74-3.64,21.58-12.4,27.58a2.29,2.29,0,0,0,.64,4.09c9.21,2.81,16.23,8.68,18.57,20.68C309.39,347.26,299.27,359.3,285.13,363.66Zm-29.89-83.54C256,286,256.59,292.43,257,299a2.3,2.3,0,0,0,2.76,2.1c8.48-1.86,14.73-5.92,15.21-12.43.49-8.22-6.3-13-17.89-11.08A2.3,2.3,0,0,0,255.24,280.12ZM258,321.44c.23,7.08.24,13.74,0,19.26a2.29,2.29,0,0,0,2.17,2.37c14.64.81,21.24-5.12,20.24-13.26-.82-6.91-7.84-11-20.17-10.75A2.32,2.32,0,0,0,258,321.44Z"/>
      <path class="cls-3" d="M326.1,412c-8.35-6.08-16.23-12-19.79-14.69A2.3,2.3,0,0,1,306,394c8.74-10,16.55-22.89,22.89-37.15a2.29,2.29,0,0,0,0-2c-13.62-26.78-23.31-50.54-26.38-58.31a2.28,2.28,0,0,1,1.79-3.1c4.33-.64,13.07-1.8,22.18-2.26a2.28,2.28,0,0,1,2.36,1.89,210.55,210.55,0,0,0,7.72,30.44,2.3,2.3,0,0,0,4.39-.12,217.45,217.45,0,0,0,7.06-36.83,2.29,2.29,0,0,1,2.65-2c3.91.66,11.94,2,19.78,3.32a2.28,2.28,0,0,1,1.78,3c-12.92,35.2-25.05,92.24-42.72,120.48A2.29,2.29,0,0,1,326.1,412Z"/>
      <path class="cls-3" d="M450.78,342.57a143.77,143.77,0,0,1,38-5.8,2.3,2.3,0,0,1,2.27,2.79c-1.11,5-3.09,15.88-2,26.41a2.28,2.28,0,0,1-2.46,2.52c-19.66-1.59-41.22-2.86-67.45,3.06a2.31,2.31,0,0,1-2.82-2.32c1.35-43.2,42.8-57.33,46.22-77.29,1.05-7.16-2.27-11.17-6.63-10.82-5,.63-9.5,6.08-11.74,14.81a2.3,2.3,0,0,1-3.32,1.49,134.55,134.55,0,0,0-23.22-10.06,2.31,2.31,0,0,1-1.47-2.95c7.34-21.55,23.05-35.35,44.46-33.83,22.34,1.74,31.76,16.58,32.29,31.59,1.25,28.81-30.58,39.87-44.64,56.75A2.29,2.29,0,0,0,450.78,342.57Z"/>
    </g>
    <g>
      <path class="cls-6" d="M116,192.27c-17,0-32.16-6.61-42.93-21.45a2.27,2.27,0,0,1-.09-2.52c5-8.12,11.35-16.72,14.58-21a2.28,2.28,0,0,1,3.73.14c8.76,13.56,26,19.56,32,12.69,5.23-5.75,0-15-16.75-22.68-15.88-7.33-32.11-15.88-32.64-35.25C73.55,91.06,80.18,73.61,102.35,72c21.26-1.51,36.9,10.47,45.38,26.7a2.32,2.32,0,0,1-1,3.13,186.78,186.78,0,0,0-20.3,12.47,2.28,2.28,0,0,1-3.36-.84c-3.08-6.2-8.89-10.58-14.3-10.58-4.88,0-7.33,3.49-6.8,7.51.7,7.5,8,10.12,20.59,14.83,18.67,6.63,29.5,18.33,29.84,32.81C152.78,181.11,133.58,192.27,116,192.27Z"/>
      <path class="cls-6" d="M200.24,193.23c-1.71-12.26-6.33-23.36-12.5-29.33a2.3,2.3,0,0,0-3.88,1.77c.33,7.94.85,15.34,1.49,21.87a2.29,2.29,0,0,1-2.21,2.5,164.32,164.32,0,0,0-21.51,2.37,2.28,2.28,0,0,1-2.66-2.54c4.34-33.76,4-87.07-.48-121.08a2.29,2.29,0,0,1,1.86-2.56c4.08-.74,13.49-2.4,23.74-3.9a2.29,2.29,0,0,1,2.62,2.49c-2,21.51-3.25,48.75-3.22,74.22a2.29,2.29,0,0,0,3.67,1.83c6.3-4.78,11-14.06,12.49-26.76a2.29,2.29,0,0,1,2.7-2c4.5.87,14.39,2.55,22.46,2.43a2.31,2.31,0,0,1,2.32,2.76c-2.88,14-10.38,26.29-22.39,34.07a2.28,2.28,0,0,0,.16,3.92A47.57,47.57,0,0,1,228,185.59a2.3,2.3,0,0,1-1.87,2.83A98,98,0,0,0,203.4,195,2.29,2.29,0,0,1,200.24,193.23Z"/>
      <path class="cls-6" d="M251.74,107.64c-8,2.61-16.58,0-18.32-6.64-1.75-6.1,1.39-12.39,8.37-15.35,8-3.67,17.28-1.05,19.2,5.93C262.56,97.69,260.46,104.67,251.74,107.64Zm-14.92,82.13c2.81-21,1.62-50.09-1.15-70.52a2.27,2.27,0,0,1,2-2.57,183,183,0,0,0,19.45-3,2.29,2.29,0,0,1,2.77,2.36c-1,19.4.36,52.61,2.52,71a2.29,2.29,0,0,1-2,2.54c-3.85.44-12.1,1.43-21,2.76A2.29,2.29,0,0,1,236.82,189.77Z"/>
      <path class="cls-6" d="M307.23,189.66A24.63,24.63,0,0,1,292.08,185a2.3,2.3,0,0,0-3.67,1.94,477.56,477.56,0,0,0,4.3,48.36,2.29,2.29,0,0,1-2.9,2.53,99.69,99.69,0,0,0-21.1-3.06,2.29,2.29,0,0,1-2.18-2.55c3.68-31.42,4.66-82.67,2.61-116.07a2.29,2.29,0,0,1,1.89-2.4c6.48-1.15,13-2.13,16.8-2.68a2.28,2.28,0,0,1,2.59,2.62c-.11.71-.21,1.46-.31,2.22a2.29,2.29,0,0,0,3.49,2.23,27.94,27.94,0,0,1,14.16-4.2c16.93-.35,28.44,14.48,29.67,34.55C338.47,167.14,329.57,189.48,307.23,189.66Zm-10.64-55.85c-7.33,2.8-9.25,13.79-6.28,22.52,2.79,8,10.82,11.34,17.1,7.5,5.59-3.32,6.45-13.44,4-20.77C309.15,136.43,303.05,131.37,296.59,133.81Z"/>
      <path class="cls-6" d="M444.58,185.47c-10.64,8.55-26.87,7.68-36.12,2.79-12.74-6.8-23.56-19.89-25.83-51.13-2.44-32.29,9.6-51.31,22.86-58.64,11.34-6.45,24.26-7.15,35.78-1.39,13.58,6.7,16.85,20.66,17.08,38.77a2.28,2.28,0,0,1-2.19,2.3A143.44,143.44,0,0,0,433,121a2.31,2.31,0,0,1-2.77-2c-1-10.85-4.05-16.52-9.23-16.2-5.41.17-14.83,10.82-14.48,32.81.35,23.38,7.68,30.89,12.56,32.11,5.88,1.3,11.3-3.95,12-12.49a2.3,2.3,0,0,1,2-2.1,182.46,182.46,0,0,1,25.19-1.67,2.28,2.28,0,0,1,2.26,2.33C460.37,167.4,454.67,177.53,444.58,185.47Z"/>
      <path class="cls-6" d="M497.12,192.27c-10.3.7-26.71-4.36-31.07-25.47-5.06-24.26,6.81-53.23,28.62-53.4,15.71-.18,29.32,15.18,30.72,39.26C526.61,173.6,516.84,190.88,497.12,192.27Zm-2.8-53.05c-7.5.7-12,12.92-10.12,23.91,1.4,9.25,6.28,13.09,11,12.57,7-.7,10.65-9.78,9.95-19C504.27,145.68,499.56,138.87,494.32,139.22Z"/>
      <path class="cls-6" d="M572.87,188.8l0-.57a2.3,2.3,0,0,0-3.47-2.07,28.3,28.3,0,0,1-18.21,3.32c-21-2.75-26.36-34.41-13.71-74.67a2.3,2.3,0,0,1,2.61-1.57c8.21,1.52,16.33,3,20.35,3.7a2.29,2.29,0,0,1,1.76,3c-7.69,23.66-7.41,47.79.68,49.13,3.44.66,6.73-.53,9.58-3.86a2.29,2.29,0,0,0,.52-1.53c-.52-16.2-1.93-32.94-3.67-47.32a2.28,2.28,0,0,1,2.27-2.57A97.49,97.49,0,0,0,590,112.21a2.3,2.3,0,0,1,2.77,2.45c-2.2,24.46-1.86,50.34,1.15,72.41a2.28,2.28,0,0,1-2.21,2.61,110.71,110.71,0,0,0-16.19,1.51A2.28,2.28,0,0,1,572.87,188.8Z"/>
      <path class="cls-6" d="M634.75,188.62a2.27,2.27,0,0,1-1.87-2.94c7.52-23.72,5.16-49-1.91-51-3.29-1-6.42.19-9.25,3.69a2.26,2.26,0,0,0-.49,1.5c.66,18.42,1.91,37.92,3.2,51.48a2.28,2.28,0,0,1-2.4,2.5c-3.9-.21-11.54-.54-19.28-.42a2.29,2.29,0,0,1-2.31-2.45,459.28,459.28,0,0,0-.65-72.46,2.29,2.29,0,0,1,2.09-2.5,87.87,87.87,0,0,0,16.25-2.74,2.28,2.28,0,0,1,2.9,2.21h0a2.28,2.28,0,0,0,3.48,2,25.1,25.1,0,0,1,17.28-3.53c20.78,3.26,26.18,32.37,16.71,76.19a2.29,2.29,0,0,1-2.65,1.77C647.49,190.41,639,189.2,634.75,188.62Z"/>
      <path class="cls-6" d="M694.32,191.93c-19.65-3.56-23.68-30.81-20.86-60.18a2.3,2.3,0,0,0-2.4-2.52l-1.24.06a2.28,2.28,0,0,1-2.41-2.42c.28-4.43.73-8.44,1-10.69a2.28,2.28,0,0,1,2.17-2l3.59-.18a2.28,2.28,0,0,0,2.14-1.87c1.42-7.62,3.2-14.95,5.12-21.66a2.29,2.29,0,0,1,2.25-1.65c7.52.13,14.87.38,18.92.54a2.29,2.29,0,0,1,2.06,3.09,148.33,148.33,0,0,0-5.44,17.23,2.3,2.3,0,0,0,2.34,2.86l11.37-.57a2.29,2.29,0,0,1,2.39,2.63,123.24,123.24,0,0,0-1.41,13.82,2.3,2.3,0,0,1-2.64,2.2c-4.75-.68-9.55-1.1-14.19-1.39a2.28,2.28,0,0,0-2.4,1.92c-3.26,20.83-2.16,36.91,1.55,38.26,3.44,1.41,5.48-5.28,5.74-14a2.29,2.29,0,0,1,3.08-2.06c7.81,2.82,14.75,5.81,17.73,7.13a2.29,2.29,0,0,1,1.35,2.38C721.1,185.56,708.29,194.48,694.32,191.93Z"/>
      <path class="cls-6" d="M277.83,358.42c-13.74,4.19-35.19,4.35-51.25-.73a2.31,2.31,0,0,1-1.58-2.62c4.75-24.36,5-70.36-1.06-104.34a2.27,2.27,0,0,1,1.66-2.62c27.6-7.05,61.93-5,66.19,23.23,1.78,11.73-3.65,21.57-12.41,27.58A2.29,2.29,0,0,0,280,303c9.21,2.82,16.22,8.68,18.57,20.69C302.08,342,292,354.06,277.83,358.42Zm-29.9-83.55c.79,5.86,1.36,12.31,1.8,18.84a2.29,2.29,0,0,0,2.76,2.09c8.49-1.86,14.74-5.91,15.21-12.42.5-8.22-6.29-13-17.88-11.08A2.3,2.3,0,0,0,247.93,274.87Zm2.76,41.33c.23,7.07.23,13.73,0,19.25a2.3,2.3,0,0,0,2.16,2.38c14.64.8,21.24-5.12,20.25-13.27-.83-6.9-7.84-11-20.18-10.74A2.3,2.3,0,0,0,250.69,316.2Z"/>
      <path class="cls-6" d="M318.8,406.73c-8.36-6.08-16.23-12-19.79-14.7a2.28,2.28,0,0,1-.36-3.31c8.73-10,16.55-22.9,22.89-37.15a2.29,2.29,0,0,0-.06-2c-13.61-26.79-23.3-50.55-26.38-58.31a2.29,2.29,0,0,1,1.79-3.11c4.34-.64,13.07-1.8,22.19-2.26a2.29,2.29,0,0,1,2.36,1.89,208.88,208.88,0,0,0,7.72,30.44,2.3,2.3,0,0,0,4.39-.11,217.58,217.58,0,0,0,7.05-36.83,2.28,2.28,0,0,1,2.66-2c3.9.66,11.93,2,19.78,3.32a2.29,2.29,0,0,1,1.78,3c-12.92,35.19-25.05,92.24-42.72,120.47A2.3,2.3,0,0,1,318.8,406.73Z"/>
      <path class="cls-6" d="M443.47,337.32a144.67,144.67,0,0,1,38-5.8,2.3,2.3,0,0,1,2.26,2.8c-1.11,5-3.08,15.87-2,26.4a2.3,2.3,0,0,1-2.46,2.53c-19.65-1.6-41.22-2.86-67.44,3.05A2.3,2.3,0,0,1,409.1,364c1.34-43.2,42.8-57.33,46.21-77.3,1.05-7.15-2.26-11.16-6.63-10.82-5,.63-9.5,6.08-11.74,14.82a2.29,2.29,0,0,1-3.32,1.48,135.17,135.17,0,0,0-23.21-10.06,2.29,2.29,0,0,1-1.47-2.95c7.33-21.55,23-35.34,44.45-33.83,22.34,1.75,31.77,16.58,32.29,31.59,1.26,28.81-30.58,39.87-44.64,56.75A2.29,2.29,0,0,0,443.47,337.32Z"/>
    </g>
    <g>
      <path class="cls-7" d="M111.76,189.08c-17.46,0-33-7-43.81-22.69a281.14,281.14,0,0,1,17.45-25c8,15.54,27.23,22.87,33.69,15.54,5.23-5.76,0-15-16.76-22.69C86.45,127,70.22,118.4,69.7,99,69.35,87.86,76,70.41,98.14,68.84s38.22,11.51,46.42,28.79A180.93,180.93,0,0,0,120,112.81c-2.62-7.5-9.25-13.08-15.36-13.08-4.89,0-7.33,3.49-6.81,7.5.7,7.5,8,10.12,20.6,14.83,18.67,6.63,29.49,18.33,29.84,32.81C148.58,177.91,129.38,189.08,111.76,189.08Z"/>
      <path class="cls-7" d="M196.4,193.09c-1.57-16.06-8.2-30.71-16.93-35.43.35,10.82,1.05,20.77,1.92,29.15-12.22,0-27,3-27,3,4.89-34.2,4.54-91.44-.35-126.34,0,0,14-2.62,28.8-4.72-2.27,23-3.67,53.41-3.49,81.15,8.55-3.84,15-15,16.4-31.41,0,0,16.75,3.67,27.75,2.79-2.62,16.58-11.52,31.07-26.53,39.09,12.74,5.24,24.09,17.8,27.4,34.56A96.91,96.91,0,0,0,196.4,193.09Z"/>
      <path class="cls-7" d="M247.54,104.44c-8,2.61-16.58,0-18.33-6.63-1.74-6.11,1.4-12.39,8.38-15.36,8-3.67,17.28-1,19.19,5.93C258.36,94.49,256.26,101.47,247.54,104.44ZM232.18,189.6c3.49-22,2.09-54.45-1.05-75.91a178.51,178.51,0,0,0,24.78-3.84c-1.39,19.54.18,57.59,2.62,76.26C258.53,186.11,245.62,187.51,232.18,189.6Z"/>
      <path class="cls-7" d="M303,186.46a25.17,25.17,0,0,1-19-8c.7,20.59,2.44,41.36,5.06,57.24-12.22-4.19-27.05-4.19-27.05-4.19,4-31.76,5.06-86.38,2.79-120.59,10.47-1.92,22-3.49,22-3.49-.7,3-1.05,6.64-1.57,10.65a28.1,28.1,0,0,1,18.32-7.33c16.93-.35,28.45,14.48,29.67,34.55C334.27,164,325.37,186.28,303,186.46Zm-10.64-55.85c-7.33,2.8-9.25,13.79-6.29,22.52,2.8,8,10.82,11.34,17.1,7.5,5.59-3.32,6.46-13.44,4-20.77C305,133.23,298.84,128.17,292.39,130.61Z"/>
      <path class="cls-7" d="M440.38,182.27c-10.65,8.55-26.88,7.68-36.13,2.79-12.74-6.8-23.56-19.89-25.83-51.13C376,101.65,388,82.62,401.29,75.29c11.34-6.45,24.25-7.15,35.77-1.39,14.14,7,17.1,21.81,17.1,41a139.45,139.45,0,0,0-27.92,3.49c-.7-12.57-3.84-19.2-9.42-18.85-5.41.18-14.83,10.82-14.49,32.81.35,23.38,7.68,30.89,12.57,32.11,6.28,1.4,12-4.71,12-14.31a178.41,178.41,0,0,1,29.32-1.92C456.78,163.07,451,173.89,440.38,182.27Z"/>
      <path class="cls-7" d="M492.91,189.08c-10.3.69-26.7-4.37-31.06-25.48-5.06-24.26,6.8-53.23,28.62-53.4,15.71-.18,29.31,15.18,30.71,39.26C522.41,170.4,512.63,187.68,492.91,189.08ZM490.12,136c-7.51.7-12,12.92-10.12,23.91,1.39,9.25,6.28,13.09,11,12.57,7-.7,10.65-9.78,9.95-19C500.07,142.48,495.35,135.67,490.12,136Z"/>
      <path class="cls-7" d="M568.48,188.55c.17-2.62.35-5.41.35-8A28.09,28.09,0,0,1,547,186.28c-21.29-2.79-26.52-35.42-13.08-76.61,12.21,2.27,25,4.54,25,4.54-8.55,24.43-8.55,50.26-.17,51.66,3.66.69,7.15-.7,10.12-4.54-.53-17.45-2.1-35.6-4-50.79,0,0,14.14.53,24.08-2.26-2.61,26.35-2.26,54.62,1.23,78.18A109.11,109.11,0,0,0,568.48,188.55Z"/>
      <path class="cls-7" d="M627.82,185.06c8.55-24.43,6.28-51.48-1.05-53.57-3.49-1.05-6.81.35-9.77,4.36.69,19.89,2.09,41.18,3.48,55,0,0-12.56-.87-24.43-.52a457,457,0,0,0-.69-77.31s12.39-.53,21.46-3.84v7.68a25.27,25.27,0,0,1,20.77-6.11c21.11,3.32,26.35,33.33,16.23,78.36C641.43,186.81,627.82,185.06,627.82,185.06Z"/>
      <path class="cls-7" d="M690.12,188.73c-20.24-3.67-23.91-32.46-20.59-62.83-4,.18-6.46.35-6.46.35.35-7.85,1.39-15.18,1.39-15.18l7.34-.35a231.11,231.11,0,0,1,5.93-25.13c11.87.17,23.91.7,23.91.7a148.15,148.15,0,0,0-7.33,23.21l17.28-.87a122.93,122.93,0,0,0-1.93,19.19,176.39,176.39,0,0,0-18.84-1.92c-3.67,21.82-2.62,38.92,1.22,40.32,3.84,1.57,5.93-7,5.76-17.11,11.69,4,22.34,8.9,22.34,8.9C717.52,181.92,704.43,191.34,690.12,188.73Z"/>
      <path class="cls-7" d="M273.62,355.22c-14.31,4.36-37,4.36-53.22-1.4,5.23-24.25,5.58-73.29-1.05-108.37,27.92-7.68,63.87-6.28,68.24,22.69,2.09,13.78-5.77,24.95-17.28,30.36,11.86,2.1,21.29,7.68,24.08,22C297.88,338.82,287.76,350.86,273.62,355.22Zm-30.19-85.69c1,7.16,1.75,15.36,2.27,23.56,9.77-1.57,17.28-5.76,17.8-12.91C264,271.45,256.34,266.57,243.43,269.53Zm3,41.19c.35,8.9.35,17.28,0,23.73,16.23,1.57,23.56-4.53,22.51-13.09C268,314,260.18,309.85,246.4,310.72Z"/>
      <path class="cls-7" d="M316.56,405c-12.05-8.73-23.74-17.63-23.74-17.63,9.6-10.47,18.15-24.43,25-40-16.93-33.16-27.92-62-27.92-62a243.61,243.61,0,0,1,27-2.79s3.15,20.77,10.48,38.92a218.09,218.09,0,0,0,9.24-45.9s13.27,2.27,25,4.19C348,315.61,335.41,376.86,316.56,405Z"/>
      <path class="cls-7" d="M433,336.2a140.71,140.71,0,0,1,47.29-7.85s-4.71,16.92-2.27,31.93c-21.11-1.74-44.32-3.49-73.12,3.49-.52-45.55,42.76-59.86,46.25-80.27,1.05-7.16-2.27-11.17-6.63-10.83-5.59.7-10.47,7.33-12.39,17.81,0,0-13.79-8.21-28.1-12.22,7-22.86,23-37.69,45.2-36.12,22.34,1.74,31.76,16.57,32.29,31.58C482.87,305.66,443.61,315.78,433,336.2Z"/>
    </g>
  </g>
  <g class="cls-8">
    <g class="cls-9">
      <rect class="cls-10" x="-3851.37" y="-1311.34" width="5400" height="2050" transform="translate(-2302.73 -572.67) rotate(-180)"/>
      <g class="cls-11">
        <g>
          <g class="cls-12">
            <g class="cls-13">
              <path class="cls-14" d="M314.76,339.73l.59,6a1.94,1.94,0,0,0,1.54,1.7l5.93,1.21-6,.59a2,2,0,0,0-1.71,1.54l-1.2,5.93-.6-6a1.93,1.93,0,0,0-1.54-1.71l-5.93-1.21,6-.59a1.92,1.92,0,0,0,1.7-1.54Z"/>
            </g>
            <path class="cls-14" d="M731.81,384.31l-2.22,5.59a1.91,1.91,0,0,0,.58,2.21l4.68,3.77-5.59-2.22a1.93,1.93,0,0,0-2.21.58l-3.77,4.68,2.22-5.58a1.92,1.92,0,0,0-.58-2.22l-4.68-3.77,5.59,2.23A1.94,1.94,0,0,0,728,389Z"/>
            <path class="cls-14" d="M531.94,211.64l-1,8.76a2.83,2.83,0,0,0,1.66,2.92l8.07,3.58-8.77-1a2.8,2.8,0,0,0-2.91,1.66l-3.58,8.07,1-8.77a2.84,2.84,0,0,0-1.66-2.92l-8.07-3.57,8.77,1a2.83,2.83,0,0,0,2.91-1.66Z"/>
            <g class="cls-15">
              <path class="cls-14" d="M542,468.74l1.75,6.83a2.23,2.23,0,0,0,2.07,1.69l7,.34-6.83,1.75a2.27,2.27,0,0,0-1.7,2.08l-.34,7.05-1.75-6.84a2.26,2.26,0,0,0-2.08-1.69l-7-.34,6.83-1.75a2.27,2.27,0,0,0,1.7-2.08Z"/>
            </g>
            <path class="cls-14" d="M606.9,364.89l1.36,5.86a1.94,1.94,0,0,0,1.74,1.48l6,.43L610.14,374a1.92,1.92,0,0,0-1.48,1.74l-.43,6-1.36-5.86a1.93,1.93,0,0,0-1.73-1.49l-6-.42,5.85-1.36a1.92,1.92,0,0,0,1.49-1.74Z"/>
          </g>
          <g class="cls-16">
            <path class="cls-14" d="M41.58,436.72a1.91,1.91,0,1,1-1.91-1.91A1.9,1.9,0,0,1,41.58,436.72Z"/>
            <path class="cls-17" d="M20,292.56a1.91,1.91,0,1,1-1.91-1.91A1.91,1.91,0,0,1,20,292.56Z"/>
            <path class="cls-14" d="M205.57,227a1.91,1.91,0,1,1-1.91-1.91A1.92,1.92,0,0,1,205.57,227Z"/>
            <path class="cls-14" d="M409.75,334.62a1.91,1.91,0,1,1-1.9-1.91A1.9,1.9,0,0,1,409.75,334.62Z"/>
            <path class="cls-14" d="M229.4,467a1.91,1.91,0,1,1-1.91-1.91A1.91,1.91,0,0,1,229.4,467Z"/>
            <path class="cls-14" d="M460.53,372.45a1.91,1.91,0,1,1-1.91-1.91A1.91,1.91,0,0,1,460.53,372.45Z"/>
            <path class="cls-14" d="M559.13,245.39a1.91,1.91,0,1,1-1.91-1.9A1.91,1.91,0,0,1,559.13,245.39Z"/>
            <path class="cls-14" d="M681.61,270.13a1.91,1.91,0,1,1-1.91-1.9A1.91,1.91,0,0,1,681.61,270.13Z"/>
            <path class="cls-14" d="M714,334.86a1.91,1.91,0,1,1-1.91-1.91A1.92,1.92,0,0,1,714,334.86Z"/>
            <path class="cls-14" d="M718.18,438a1.91,1.91,0,1,1-1.9-1.9A1.9,1.9,0,0,1,718.18,438Z"/>
            <path class="cls-17" d="M753.64,167a1.91,1.91,0,1,1-1.9-1.91A1.9,1.9,0,0,1,753.64,167Z"/>
            <path class="cls-14" d="M357.27,205.49a1.91,1.91,0,1,1-1.9-1.91A1.9,1.9,0,0,1,357.27,205.49Z"/>
            <path class="cls-18" d="M279.83,261.6a1.91,1.91,0,1,1-1.9-1.91A1.9,1.9,0,0,1,279.83,261.6Z"/>
          </g>
        </g>
        <g>
          <g class="cls-12">
            <path class="cls-19" d="M697.87,68.4l-1.57,5.81a1.91,1.91,0,0,0,.83,2.13l5.08,3.21L696.4,78a1.92,1.92,0,0,0-2.13.83l-3.21,5.08,1.57-5.8A1.91,1.91,0,0,0,691.8,76l-5.08-3.22,5.8,1.58a2,2,0,0,0,2.14-.83Z"/>
          </g>
          <g class="cls-16">
            <path class="cls-14" d="M30.8,56a1.91,1.91,0,1,1-1.91-1.91A1.91,1.91,0,0,1,30.8,56Z"/>
            <path class="cls-14" d="M168.27,28.88A1.91,1.91,0,1,1,166.36,27,1.92,1.92,0,0,1,168.27,28.88Z"/>
            <path class="cls-17" d="M386.16,51.59a1.91,1.91,0,1,1-1.91-1.91A1.92,1.92,0,0,1,386.16,51.59Z"/>
            <path class="cls-18" d="M439.2,56.94A1.91,1.91,0,1,1,437.3,55,1.9,1.9,0,0,1,439.2,56.94Z"/>
            <path class="cls-14" d="M636.47,26.67a1.91,1.91,0,1,1-1.91-1.91A1.92,1.92,0,0,1,636.47,26.67Z"/>
            <circle class="cls-14" cx="186.78" cy="112.99" r="1.91"/>
            <path class="cls-14" d="M717,122.37a1.91,1.91,0,1,1-1.91-1.91A1.92,1.92,0,0,1,717,122.37Z"/>
          </g>
        </g>
      </g>
    </g>
  </g>
  <g class="cls-20">
    <g class="cls-20">
      <g class="cls-21">
        <g class="cls-11">
          <g class="cls-16">
            <circle class="cls-14" cx="186.78" cy="14.92" r="1.91"/>
            <path class="cls-14" d="M717,24.3a1.91,1.91,0,1,1-1.91-1.91A1.92,1.92,0,0,1,717,24.3Z"/>
          </g>
        </g>
      </g>
    </g>
  </g>
</svg>
