<svg id="Layer_1" data-name="Layer 1" xmlns="http://www.w3.org/2000/svg" xmlns:xlink="http://www.w3.org/1999/xlink" width="488.64" height="530.82" viewBox="0 0 488.64 530.82">
  <defs>
    <style>
      .cls-1, .cls-14, .cls-19, .cls-6 {
        fill: none;
      }

      .cls-2, .cls-20 {
        fill: #22b0ff;
      }

      .cls-16, .cls-3 {
        fill: #1fffff;
      }

      .cls-4 {
        fill: #1a4e99;
      }

      .cls-5 {
        fill: #a5cf47;
      }

      .cls-6 {
        stroke: #1a4e99;
      }

      .cls-14, .cls-15, .cls-16, .cls-19, .cls-20, .cls-6 {
        stroke-miterlimit: 10;
      }

      .cls-7 {
        fill: #1c2077;
      }

      .cls-8 {
        fill: #3a9ec1;
      }

      .cls-9 {
        fill: #fff3df;
      }

      .cls-10, .cls-15 {
        fill: #f7f5f2;
      }

      .cls-11 {
        opacity: 0.28;
      }

      .cls-12 {
        fill: #1a3f6b;
      }

      .cls-13 {
        fill: #130101;
      }

      .cls-14, .cls-15 {
        stroke: #2d6eb5;
      }

      .cls-16 {
        stroke: #1a5bba;
      }

      .cls-17 {
        opacity: 0.54;
      }

      .cls-18 {
        fill: #fff;
      }

      .cls-19, .cls-20 {
        stroke: #2369af;
      }

      .cls-21 {
        fill: #1fe5e0;
      }

      .cls-22 {
        opacity: 0.56;
      }

      .cls-23 {
        clip-path: url(#clip-path);
      }

      .cls-24 {
        clip-path: url(#clip-path-2);
      }

      .cls-25 {
        fill: #191c3f;
      }

      .cls-26 {
        opacity: 0.57;
      }

      .cls-27 {
        opacity: 0.8;
      }

      .cls-28 {
        fill: #f4edf9;
      }

      .cls-29 {
        fill: #a0e6f9;
      }

      .cls-30 {
        opacity: 0.89;
      }

      .cls-31 {
        opacity: 0.7;
      }

      .cls-32 {
        fill: #f9e9aa;
      }
    </style>
    <clipPath id="clip-path">
      <rect class="cls-1" x="-392.97" y="-1720.41" width="1600" height="900"/>
    </clipPath>
    <clipPath id="clip-path-2">
      <rect class="cls-1" x="-9369.81" y="-1955.1" width="10800" height="2050"/>
    </clipPath>
  </defs>
  <g>
    <g>
      <path class="cls-2" d="M138.38,473.17c.16.33,1,1.65,3.46,2.31A92.12,92.12,0,0,0,160,478a88,88,0,0,0,21.28-1.82c21.94-4.45,21.77-12.86,39.42-15,10.73-1.32,18.81.66,21.45-4.12,2.14-3.8,1.15-11.71,1.15-11.71a8.28,8.28,0,0,1-.16-2c-1.82-17.16.33-39.26,13-65.49-23.42-5.78-46.68-11.55-46.68-11.39a138.08,138.08,0,0,1,6.59,13.2c3.47,7.75,7.43,17.82,9.57,27.38s4.62,21.12-1.65,27.06a11.09,11.09,0,0,1-3.13,2c-44.05-4.79-67.31-3.14-70,5.28a7.58,7.58,0,0,0,.5,5.28c-5.44,3.63-14.68,10.55-13.2,14.35.33,1,1.49,2,4.62,2.47h0C138.54,466.41,137.06,470.7,138.38,473.17Z"/>
      <path class="cls-3" d="M243,440.37a105,105,0,0,1,0-15.86c-4.3-2.86-9.66-5.41-15.08-5.44.48,5,.08,9.78-2.34,13.26C232.25,432.85,238.67,436.89,243,440.37Z"/>
      <path class="cls-2" d="M209.48,366.61a135.64,135.64,0,0,1,6.59,13.19c1,2.31,2.15,4.95,3.3,7.59a146.13,146.13,0,0,0,30,6.76A130.81,130.81,0,0,1,256.16,378C232.57,372.05,209.48,366.28,209.48,366.61Z"/>
      <path class="cls-4" d="M142.72,464.27a51.75,51.75,0,0,1,20.95-6.44,55.84,55.84,0,0,1,7.42-.33c-2.47-.16-5-.16-7.42-.16a52.53,52.53,0,0,0-21.78,5.44l.83,1.49Z"/>
      <path class="cls-5" d="M310.76,455.36a49.36,49.36,0,0,1,.66,4.95"/>
      <path class="cls-5" d="M323.8,456.84c-.17,2.81-.33,4.46-.33,5"/>
      <path class="cls-2" d="M282.22,483.9c25.24,18.47,74.73,6.6,73.41-3-1.15-8.09-23.42-20.46-32-24.09,2.14-23.92,14-123.72,14-124.71S285,370.4,285,370.4s19.13,44.21,25.57,85C292.62,462.62,280.58,479.28,282.22,483.9Z"/>
      <path class="cls-3" d="M306.12,437.06c1.21,5,2.31,10,3.25,15.08a82.65,82.65,0,0,1,14.84-.55c.45-4.31,1-9.49,1.64-15.23A85,85,0,0,0,306.12,437.06Z"/>
      <path class="cls-2" d="M285.19,374s3.8,8.91,8.75,22.6a150.89,150.89,0,0,0,37.44-11.38c2.81-24.42,5.28-45.86,5.61-49C330.23,340.54,285.19,374,285.19,374Z"/>
      <polygon class="cls-4" points="220.38 437.24 235.07 438.06 220.55 435.59 220.38 437.24"/>
      <path class="cls-4" d="M151.43,447.88a28.33,28.33,0,0,1,18.64-3.63,28.84,28.84,0,0,0-19.63,2.31c.16-.17,1,1.32,1,1.32Z"/>
      <path class="cls-3" d="M219.07,386.45a153,153,0,0,1,5.5,15.82c7.92.76,15.5,4.54,20.79,7.87A123.85,123.85,0,0,1,249,397C243.21,392.76,231,385.32,219.07,386.45Z"/>
      <path class="cls-3" d="M292,391.69c2.28,6.32,4.86,13.81,7.37,21.93,9.32-5.1,20.8-4.56,28.45-3.32,1-8.52,2-17.33,3-25.83C322.38,382.59,303.5,380.05,292,391.69Z"/>
      <path class="cls-6" d="M138.38,473.17c.16.33,1,1.65,3.46,2.31A92.12,92.12,0,0,0,160,478a88,88,0,0,0,21.28-1.82c21.94-4.45,21.77-12.86,39.42-15,10.73-1.32,18.81.66,21.45-4.12,2.14-3.8,1.15-11.71,1.15-11.71a8.28,8.28,0,0,1-.16-2c-1.82-17.16.33-39.26,13-65.49-23.42-5.78-46.68-11.55-46.68-11.39a138.08,138.08,0,0,1,6.59,13.2c3.47,7.75,7.43,17.82,9.57,27.38s4.62,21.12-1.65,27.06a11.09,11.09,0,0,1-3.13,2c-44.05-4.79-67.31-3.14-70,5.28a7.58,7.58,0,0,0,.5,5.28c-5.44,3.63-14.68,10.55-13.2,14.35.33,1,1.49,2,4.62,2.47h0C138.54,466.41,137.06,470.7,138.38,473.17Z"/>
      <path class="cls-6" d="M281.56,483.9c25.24,18.47,74.73,6.6,73.41-3-1.15-8.09-23.42-20.46-32-24.09,2.14-23.92,14-123.72,14-124.71s-52.62,38.27-52.62,38.27,19,44.21,25.57,85C291.79,462.62,279.75,479.28,281.56,483.9Z"/>
    </g>
    <g>
      <path class="cls-2" d="M87.15,258.53c-6.43-5.28-20.12-15-26.23-8.08-7.75,9.07-8.74,16-2.47,22.43.49.17-6.43,4.95,1.32,14.19-.17.66-3.8,14.85,14.19,19,18.8,4.29,18.14-3.63,18.14-3.63a21.79,21.79,0,0,0,19.8-5.77c.49.16,44,3.63,50.48-.83,6.43-4.29,12.86-24.25,12.86-24.25V199s-16.33,47-21.61,52.29-36.78,35.47-46.35,30.52l2-.16s11.87-12.54-3.14-22.93c-15-10.56-20.78-2.31-21.77,9.23-.83,11.55-.17,20.79,6.1,21.28s9.57-12,3.14-13.85"/>
      <path class="cls-3" d="M116.59,297.3c3.47.25,8.73.58,14.49.82a26.76,26.76,0,0,0,.3-26.57,94,94,0,0,1-12,8,27,27,0,0,1,.48,4.62A26.62,26.62,0,0,1,116.59,297.3Z"/>
      <path class="cls-3" d="M150.83,297.46c5.77-.16,10.23-.82,12-2,6.43-4.29,12.87-24.25,12.87-24.25V230.82c-1.49-6.44-3.8-11.22-6.77-13.36-5.11,13.69-11.71,30.51-14.84,33.48L153,252.1C154.46,265,154.79,281.46,150.83,297.46Z"/>
      <path class="cls-6" d="M87.15,258.53c-6.43-5.28-20.12-15-26.23-8.08-7.75,9.07-8.74,16-2.47,22.43.49.17-6.43,4.95,1.32,14.19-.17.66-3.8,14.85,14.19,19,18.8,4.29,18.14-3.63,18.14-3.63a21.79,21.79,0,0,0,19.8-5.77c.49.16,44,3.63,50.48-.83,6.43-4.29,12.86-24.25,12.86-24.25V199s-16.33,47-21.61,52.29-36.78,35.47-46.35,30.52l2-.16s11.87-12.54-3.14-22.93c-15-10.56-20.78-2.31-21.77,9.23-.83,11.55-.17,20.79,6.1,21.28s9.57-12,3.14-13.85"/>
      <path class="cls-4" d="M58.12,273.71a28,28,0,0,0,21.28,1.48,28.56,28.56,0,0,1-20.46-2.8l-.82,1.32Z"/>
      <path class="cls-4" d="M59.27,287.73a28,28,0,0,0,21.28,1.48,28.53,28.53,0,0,1-20.45-2.8l-.83,1.32Z"/>
      <path class="cls-4" d="M92.27,302.58c-3.63-6.77-12.21-8.42-19.3-7.76-1,.17-2.15.33-3.14.5h.5c.33.16.16.16.16.16-.49-1.65-.82-4.45,1.32-5.11v-.17a2,2,0,0,0-1.81.66A6.35,6.35,0,0,0,69,296a1,1,0,0,0,.82.82c4-.49,8.25-1.32,12.21-.49,4.12,1,7.92,2.8,10.23,6.27Z"/>
    </g>
    <path class="cls-3" d="M145,334.9c-1,.15,9.68,12.35,26.08,10.81,1.13.26-4,7.47-13.3,5.07,0,.22,18.52,11.24,41.19,6.65-.48,1-6.65,11.87-28.1,8.26.58,0,19.88,18,48.38,8.95.18.51-11.87,16.32-31.14,10.48.46.14,27.71,22.33,59.44-6.28.21.54,20.18,28.84,60.14,16.85,1.12-1-22.47-9.87-24.18-23.42a5.83,5.83,0,0,1-.09-.84,2.66,2.66,0,0,0,.8.77c4.71,3.7,29.25,17.84,52.7,11-1-.26-20.62-10-24.07-18a6.27,6.27,0,0,1-.37-1.05,14.72,14.72,0,0,0,1.69.54c7.77,2.17,39.65,9.64,47.22,6.33-1.2,0-15.76-15-23.29-17.83.39-.34,26.77,7.36,30.8,6.33s-4.4-14.9-2.3-23.8,8.8-25,11.09-32.89c1.17-4,1.94-13.47,2.44-21.71,0,0,0,0,0-.06a177.13,177.13,0,0,0,.43-23.54c-2.94-85.47-74.8-192.91-153.35-191-40.28,1-85.51,30.76-86.34,55.67-.6,18.15,21.86,48.64,17.33,64.6-.66,2.32-2.48,7,.32,10.79,3,3.83,8.91,4.51,11.22,9.83a12.45,12.45,0,0,1,.83,2.74c4,26.63,1,52,1,52-1.09,10-2,17.62-2.39,23.84v0c-2,5-6.31,10.14-15.43,10.88.21.39,4.66,3.56,15.36,2.46.1,1.21.27,2.37.47,3.5a46.92,46.92,0,0,0,1.32,5.32,36,36,0,0,1-17.14,7c.54,0,10.22,4.95,21.73,3.88a32,32,0,0,0,8.28-1.86c-.26.2-2.27,3-5.63,6.38C171.38,330.44,159.17,339.63,145,334.9Z"/>
    <path class="cls-6" d="M145,334.9c-1,.15,9.68,12.35,26.08,10.81,1.13.26-4,7.47-13.3,5.07,0,.22,18.52,11.24,41.19,6.65-.48,1-6.65,11.87-28.1,8.26.58,0,19.88,18,48.38,8.95.18.51-11.87,16.32-31.14,10.48.46.14,27.71,22.33,59.44-6.28.21.54,20.18,28.84,60.14,16.85,1.12-1-22.47-9.87-24.18-23.42a5.83,5.83,0,0,1-.09-.84,2.66,2.66,0,0,0,.8.77c4.71,3.7,29.25,17.84,52.7,11-1-.26-20.62-10-24.07-18a6.27,6.27,0,0,1-.37-1.05,14.72,14.72,0,0,0,1.69.54c7.77,2.17,39.65,9.64,47.22,6.33-1.2,0-15.76-15-23.29-17.83.39-.34,26.77,7.36,30.8,6.33s-4.4-14.9-2.3-23.8,8.8-25,11.09-32.89c1.17-4,1.94-13.47,2.44-21.71,0,0,0,0,0-.06a177.13,177.13,0,0,0,.43-23.54c-2.94-85.47-74.8-192.91-153.35-191-40.28,1-85.51,30.76-86.34,55.67-.6,18.15,21.86,48.64,17.33,64.6-.66,2.32-2.48,7,.32,10.79,3,3.83,8.91,4.51,11.22,9.83a12.45,12.45,0,0,1,.83,2.74c4,26.63,1,52,1,52-1.09,10-2,17.62-2.39,23.84v0c-2,5-6.31,10.14-15.43,10.88.21.39,4.66,3.56,15.36,2.46.1,1.21.27,2.37.47,3.5a46.92,46.92,0,0,0,1.32,5.32,36,36,0,0,1-17.14,7c.54,0,10.22,4.95,21.73,3.88a32,32,0,0,0,8.28-1.86c-.26.2-2.27,3-5.63,6.38C171.38,330.44,159.17,339.63,145,334.9Z"/>
    <g>
      <path class="cls-7" d="M190.17,229a30.86,30.86,0,0,1-.52,7.49q-.09.51-.21,1-.21,1-.48,1.95a46.65,46.65,0,0,1-1.87,5.4.11.11,0,0,1,0,0c-.59,1.36-1.17,2.61-1.73,3.74s-1.24,2.37-1.72,3.27a12.53,12.53,0,0,0-1.29,2.63s0,.06,0,.07A14.55,14.55,0,0,0,186.16,266a24.64,24.64,0,0,0,6,4.75q1.8,1,3.84,1.92a55.86,55.86,0,0,0,6.63,2.34c1.57.44,3.22.84,4.92,1.19s3.44.64,5.25.9h0c2.69.37,5.49.64,8.35.8h0a50.93,50.93,0,0,0,5.1.13,115.11,115.11,0,0,0,35.17-5.41c1.49-.51,3-1,4.47-1.63.2-.06.4-.15.6-.23,2.71-1.18,5.42-2.34,8-3.68L285,259.86a35.67,35.67,0,0,0,8-9.45,27.48,27.48,0,0,0,2-4,15.94,15.94,0,0,0,.6-1.67c.6-1.72,1.12-3.4,1.61-5.08a105.7,105.7,0,0,0,2.71-12.18c.35-2.24.61-4.45.81-6.6,2.73-29.93-8.77-51.6-9.67-52l-.05,0c-.69,1.67-1.41,3.27-2.15,4.82a92.78,92.78,0,0,1-15.65,23.41c-1,1-2,2-3,3-.58.58-1.2,1.13-1.79,1.66l-.44.38a67,67,0,0,1-10.55,7.63A68.33,68.33,0,0,1,244,215.77c-1,.34-2,.65-3,.92l-.52.15a18.72,18.72,0,0,1-2.86.66,87.58,87.58,0,0,1-24.77,1.92c-.69,0-1.37-.09-2-.14-3.23-.23-6.37-.59-9.41-1-3.77-.62-7.42-1.41-10.82-2.26-2.21-.56-4.33-1.13-6.31-1.71l.18.23A25.41,25.41,0,0,1,190.17,229Z"/>
      <path class="cls-8" d="M182.26,254.58a.68.68,0,0,0,0,.24,14.35,14.35,0,0,0,3.82,11.29c6.36,7.13,19.69,11.21,35,11.92,1.65.09,3.31.19,5.12.12a115.78,115.78,0,0,0,35.17-5.42c1.69-.58,3.38-1.14,5.07-1.86,2.87-1.17,5.42-2.34,8-3.68L284.9,260a35.6,35.6,0,0,0,8-9.45,25.77,25.77,0,0,0,2.64-5.63c.61-1.76,1.16-3.52,1.65-5.25h0c-17.79-3.22-52-6-68.73,15.38-.26.1-25.44-15.82-44.81-3.15l0,0A13,13,0,0,0,182.26,254.58Z"/>
      <path class="cls-9" d="M263.11,257.89a25.62,25.62,0,0,0,2.81,13.05c.2-.06.39-.15.59-.23,2.71-1.18,5.42-2.34,8-3.68L285,259.86a35.3,35.3,0,0,0,8-9.45,26.55,26.55,0,0,0,2-4c-6.71-6.45-15.86-8.27-22.16-5.35C267.4,243.75,263.54,250.31,263.11,257.89Z"/>
      <path class="cls-9" d="M226.28,278a115.28,115.28,0,0,0,35.18-5.43c1.68-.56,3.37-1.12,5.06-1.85a26.18,26.18,0,0,0-8.39-12.22c-6.48-5.16-14.65-6.78-20.76-4C230.08,257.88,225.06,267.51,226.28,278Z"/>
      <path class="cls-9" d="M186.16,266c6.37,7.13,19.69,11,35,11.91a26.52,26.52,0,0,0-4.41-15.45c-.92-1.21-8.71-12.4-18.73-10.49-3.5.62-7.95,3.18-9.81,6.87A37.18,37.18,0,0,0,186.16,266Z"/>
      <path class="cls-9" d="M270.24,200.05c6.24,3,13.05,2.76,17.37-.44,6.42-4.76,8.15-16.75,1.24-26a92.45,92.45,0,0,1-15.65,23.4C272.23,198.1,271.25,199.1,270.24,200.05Z"/>
      <path class="cls-9" d="M257.45,209.71A68.51,68.51,0,0,1,244,215.77c1.6,2.58,3.93,5.7,7.62,7.44,4,1.87,9.34,2.07,12.86-.27,4.87-3.23,6.84-11.72,3.51-20.86A66.05,66.05,0,0,1,257.45,209.71Z"/>
      <path class="cls-9" d="M237.67,217.5a88,88,0,0,1-24.78,1.93,49.87,49.87,0,0,0,6.71,8.46c3.4,3.41,6.43,6.36,10.5,6.17,4.3-.19,7.85-3.79,9.52-7A17.81,17.81,0,0,0,241,216.69l-.51.15A19,19,0,0,1,237.67,217.5Z"/>
      <path class="cls-9" d="M190.63,216c1.86,12.31,7.46,20.17,12.74,20.25,2.69,0,5.58-1.91,7.13-4.42,2.35-3.84,1.46-8.82.36-12.54-3.23-.23-6.38-.59-9.41-1C197.67,217.63,194,216.84,190.63,216Z"/>
    </g>
    <path class="cls-6" d="M183.64,251.85a20.69,20.69,0,0,0-1.33,2.65.68.68,0,0,0,0,.24A14.31,14.31,0,0,0,186.12,266c6.36,7.13,19.69,11.21,35,11.92,1.65.09,3.31.19,5.12.13a115.79,115.79,0,0,0,35.17-5.43c1.69-.58,3.38-1.14,5.07-1.86,2.87-1.17,5.42-2.34,8-3.68l10.5-7.17a35.45,35.45,0,0,0,8-9.45,25.77,25.77,0,0,0,2.64-5.63c.61-1.75,1.16-3.52,1.65-5.25a99.25,99.25,0,0,0,2.68-12.19c.35-2.23.61-4.44.81-6.6,2.71-30.33-9.19-52.14-9.73-51.91-.69,1.62-1.39,3.2-2.12,4.71a99.46,99.46,0,0,1-6.13,11.12,88.63,88.63,0,0,1-9.55,12.4c-.94,1-1.88,2-2.84,2.87-.76.74-1.53,1.44-2.32,2.11a67.78,67.78,0,0,1-23.93,13.72c-1,.33-2,.64-3,.92l-.57.16c-1,.27-1.83.39-2.84.67a86.89,86.89,0,0,1-24.61,2l-2.12-.15c-3.25-.23-6.43-.62-9.49-1.11-3.76-.62-7.39-1.41-10.78-2.26-2.16-.53-4.22-1.09-6.16-1.64l-.19-.05A24.94,24.94,0,0,1,190.13,229a30.26,30.26,0,0,1-.51,7.48c-.05.34-.13.68-.21,1-.14.67-.3,1.32-.49,2a40.51,40.51,0,0,1-1.86,5.39.08.08,0,0,1,0,.06c-.55,1.36-1.15,2.61-1.72,3.74S184.13,251,183.64,251.85Z"/>
    <path class="cls-4" d="M185.13,213.92c-6.64-2.36-13.43-4.9-18.79-9.5,5,5.08,11.6,8.1,18.21,11l.58-1.46Z"/>
    <path class="cls-10" d="M161,176.36c2.85,7.76,7,19,17.63,24.27,1.75.83,8.18,4,15.62,2.08a21.21,21.21,0,0,0,6.83-3.17,23.88,23.88,0,0,0,8.77-10.07,17.74,17.74,0,0,0,1.12-3.08,46.53,46.53,0,0,0,.22-22.66c-3.58-13.07-18.7-32.76-34.47-28.88-11.49,2.81-19,17-18.91,28.49C158,167.88,159.13,171.08,161,176.36Z"/>
    <path class="cls-11" d="M164.81,143.1c3.15-4.27,7.33-7.52,12.21-8.7,15.76-3.79,31,15.92,34.46,29a46.64,46.64,0,0,1-.23,22.66,32.65,32.65,0,0,1-1.11,3.09,23.91,23.91,0,0,1-8.78,10.06,22.68,22.68,0,0,1-6.83,3.18c-.5.12-1.11.23-1.62.36a20.25,20.25,0,0,0,5.68-.58,24.86,24.86,0,0,0,7.24-3.31,27,27,0,0,0,9.34-10.58,21,21,0,0,0,1.24-3.27c1.83-6,2.26-16.18.2-23.93-3.77-13.79-19.72-34.58-36.49-30.54C173.54,131.94,168.32,136.91,164.81,143.1Z"/>
    <ellipse class="cls-12" cx="188.59" cy="177.77" rx="11.48" ry="14.98" transform="translate(-37.33 50.78) rotate(-13.97)"/>
    <ellipse class="cls-13" cx="188.49" cy="177.01" rx="6.13" ry="7.98" transform="translate(-37.15 50.73) rotate(-13.97)"/>
    <ellipse class="cls-10" cx="192.33" cy="173.34" rx="2.24" ry="2.92" transform="translate(-36.15 51.55) rotate(-13.97)"/>
    <path class="cls-14" d="M161,176.36c2.85,7.76,7,19,17.63,24.27,1.75.83,8.18,4,15.62,2.08a21.21,21.21,0,0,0,6.83-3.17,23.88,23.88,0,0,0,8.77-10.07,17.74,17.74,0,0,0,1.12-3.08,46.53,46.53,0,0,0,.22-22.66c-3.58-13.07-18.7-32.76-34.47-28.88-11.49,2.81-19,17-18.91,28.49C158,167.88,159.13,171.08,161,176.36Z"/>
    <path class="cls-15" d="M216.68,152.83c3.82,8.76,9.36,21.5,22,26.79,2.07.84,9.72,4,18.17,1.33a24.6,24.6,0,0,0,7.66-4.14A27.61,27.61,0,0,0,274,164.58a19.76,19.76,0,0,0,1.08-3.63c1.55-6.76,1.52-17.82-1.31-26.17-5-14.84-23.85-36.53-41.78-30.95-13.07,4-20.72,20.92-19.86,34.19C212.59,143.25,214.11,146.87,216.68,152.83Z"/>
    <path class="cls-11" d="M218.73,114.17c3.34-5.15,8-9.18,13.5-10.89,17.92-5.46,36.85,16.24,41.77,31.07,2.83,8.35,2.86,19.41,1.31,26.17-.17.66-.5,2-1.08,3.63a27.61,27.61,0,0,1-9.43,12.23,26,26,0,0,1-7.66,4.13c-.58.18-1.27.36-1.85.54a23.37,23.37,0,0,0,6.52-1.07,28.94,28.94,0,0,0,8.13-4.32,31.13,31.13,0,0,0,10-12.86,25.42,25.42,0,0,0,1.21-3.85c1.69-7.09,1.49-18.84-1.42-27.64-5.31-15.65-25.16-38.55-44.23-32.73C228,100.69,222.36,106.79,218.73,114.17Z"/>
    <ellipse class="cls-12" cx="246.9" cy="151.59" rx="13.27" ry="17.32" transform="translate(-34.03 80.75) rotate(-17.4)"/>
    <ellipse class="cls-13" cx="246.73" cy="150.73" rx="7.09" ry="9.22" transform="translate(-33.78 80.66) rotate(-17.4)"/>
    <ellipse class="cls-10" cx="250.9" cy="146.22" rx="2.59" ry="3.37" transform="translate(-32.24 81.7) rotate(-17.4)"/>
    <path class="cls-14" d="M216.68,152.83c3.82,8.76,9.36,21.5,22,26.79,2.07.84,9.72,4,18.17,1.33a24.6,24.6,0,0,0,7.66-4.14A27.61,27.61,0,0,0,274,164.58a19.76,19.76,0,0,0,1.08-3.63c1.55-6.76,1.52-17.82-1.31-26.17-5-14.84-23.85-36.53-41.78-30.95-13.07,4-20.72,20.92-19.86,34.19C212.59,143.25,214.11,146.87,216.68,152.83Z"/>
    <path class="cls-2" d="M226,77.53c.29-.19,10.8-9.44,13.84-8.29s5,4.67.65,8.29c0,.1,15.64-5.34,15.26,3.53.19-.38,12.69-.57,7.06,6.87.48-.19,10.2,3.72,7.06,9.72-16.62-10-24.77-10.89-29.15-9.64a42.74,42.74,0,0,1-7.57,1.35c-4.86.43-9,.8-10.49-1.34S222.54,81.5,226,77.53Z"/>
    <path class="cls-2" d="M174.27,107.69c-.23,0-9.37-3.5-11.07-2s-2.14,4.29,1.61,5.57c0,.06-11.51.37-9.08,6.06-.22-.2-8.42,2.75-2.91,6.21-.36,0-5.75,4.94-2.21,8.09,8.38-10.6,13.47-13.21,16.64-13.47a30,30,0,0,0,5.27-1c3.28-.92,6.06-1.69,6.51-3.46S177.48,109.44,174.27,107.69Z"/>
    <g>
      <path class="cls-16" d="M197.34,73.73c-1.19-1.42-9.62-8.56-2.19-17.65-.27.1-13.82,6.79-6.59,20.68-.48-.43-14.24-11.61-2-23.69.07.29-17,3.48-5.84,26.75-.52.28-11.14-2.63-12.59-13.36-.33.76-5.72,9.66,2.56,21"/>
      <path class="cls-16" d="M197.34,74.33c-1.19-1.42-9.62-8.56-2.19-17.65-.27.1-13.82,6.79-6.59,20.68-.48-.43-14.24-11.61-2-23.69.07.29-17,3.48-5.84,26.75-.52.28-11.14-2.63-12.59-13.36-.33.76-5.72,9.66,2.56,21"/>
    </g>
    <g class="cls-17">
      <ellipse class="cls-18" cx="290.98" cy="111.33" rx="7.79" ry="15.57" transform="translate(15.57 256.99) rotate(-48.81)"/>
      <ellipse class="cls-18" cx="319.99" cy="145.41" rx="12.44" ry="24.2" transform="translate(-31.38 154.03) rotate(-25.84)"/>
    </g>
    <path class="cls-2" d="M212.84,70.11c-1.17-1.91-11.79-41.17,24-54.75,15.34-2.55,27.33,29.07-3.44,24.83-9.76-2.76-9.23-4.46-9.23-4.46s-20.48,21.44.21,35.87"/>
    <path class="cls-19" d="M213.21,70.11c-1.17-1.91-11.79-41.17,24-54.75,15.34-2.55,27.33,29.07-3.45,24.83-9.76-2.76-9.23-4.46-9.23-4.46s-20.48,21.44.22,35.87"/>
    <ellipse class="cls-3" cx="242.36" cy="29.27" rx="9.73" ry="4.75" transform="translate(156.84 257.93) rotate(-76.38)"/>
    <path class="cls-20" d="M160.3,95.54C136.59,86.09,133,58.74,133.63,58.7c12.64,1.19,27.6-7,29.4-18.94-2.08-13.34-39.19-17.59-39.52,9.39,2.34,44.53,33.07,52.5,33.07,52.5"/>
    <ellipse class="cls-3" cx="152.16" cy="44.55" rx="9.73" ry="4.75" transform="translate(37.57 154.12) rotate(-60.04)"/>
    <path class="cls-21" d="M339.41,209.25a94.63,94.63,0,0,1,21.44,27.22A101,101,0,0,1,367,249.83c5.77,14.68,9.9,33.49,10.06,57.24a15,15,0,0,1,1-1.65l.17-.16c0-.17.16-.17.16-.33a212.67,212.67,0,0,0,2.31-25.08q.25-6.68,0-13.85c0-1.82-.16-3.47-.16-5.28-.17-3.47-.33-6.93-.66-10.4a305.06,305.06,0,0,0-4.29-31.67c-10.23-5.11-21.78-9.9-30.69-10.06h-.66A32.84,32.84,0,0,0,339.41,209.25Z"/>
    <g class="cls-22">
      <path class="cls-4" d="M303.1,168.55a16.08,16.08,0,0,0-22.15,0c5.43-7.3,16.73-7.15,22.15,0Z"/>
    </g>
    <g class="cls-22">
      <path class="cls-4" d="M269.65,190.72c-15.95,17.44-32.55,25.68-56.44,22.62a166.14,166.14,0,0,1-20.82-3.44c6.92,1.17,13.89,2.14,20.89,2.68,24.05,2.6,39.49-5.32,56.37-21.86Z"/>
    </g>
    <g class="cls-22">
      <path class="cls-4" d="M311.55,221.8a61.07,61.07,0,0,1-22,47.05,62,62,0,0,1-15.14,9.32,71.28,71.28,0,0,0,14.64-9.91,66.41,66.41,0,0,0,22.5-46.46Z"/>
    </g>
    <g>
      <path class="cls-2" d="M342.4,210.72c17.81-5.45,60.21,22.93,59.55,22.93,5.61,8.08,5.28,51.3,5.11,70.11-7.92-.33-22.27-.5-25.4,3-4.13,4.46-10.56,34,2.31,39.76,7.09,3.63,12,1.65,13.36-8.41a2,2,0,0,1,.17-1h0c-.17.16-.17.49-.17,1,.33,3,4.12,11.71,7.59,11.54,2.64-.16,6.1-5.27,6.1-12.86,1.49,8.08,5.61,13.69,9.57,13.85,5.44.17,9.07-10.88,9.73-13,4.13-13-.66-25.57-4-32.49.33-11.22.66-20.13.83-25.24,1.15-32.17,1.81-42.07-4.62-53-.5-.66-3.3-4.12-9.07-11-13-15.51-19.47-23.42-25.74-29.69a155.39,155.39,0,0,0-34.31-26.07A32.23,32.23,0,0,0,342.89,172a34.07,34.07,0,0,0-3.13,19.47"/>
      <path class="cls-3" d="M406.48,288.67c0,4.25,0,8.37,0,12.14,6.89-1,14,1.28,19.46,4,.19-5.85.36-10.75.47-14.45C420.47,287.88,413.22,286.35,406.48,288.67Z"/>
      <path class="cls-3" d="M365.82,214.56a121.32,121.32,0,0,1,14.82,6.25c0-11.07,6.56-20.71,13.35-27.67-1.3-1.43-2.55-2.73-3.78-4-2.61-2.66-5.77-5.64-9.56-8.81C372.32,188.31,363.38,200.46,365.82,214.56Z"/>
      <path class="cls-4" d="M396.73,336.93a74.92,74.92,0,0,0,.53-9c-.14-2.92,0-6.2-1.8-8.68,1.94,2.39,2,5.73,2.3,8.66a74.68,74.68,0,0,1,0,9.1l-1-.09Z"/>
      <path class="cls-4" d="M410.28,337.35a76.76,76.76,0,0,0,.54-9c-.14-2.92,0-6.2-1.81-8.68,1.94,2.39,2,5.73,2.31,8.66a76.75,76.75,0,0,1,0,9.1l-1-.1Z"/>
      <path class="cls-3" d="M402.27,235c2,3.56,3.18,11.82,3.88,21.73,5.92-6.09,14-9.76,21.44-12-.58-7.07-2-12-5-17.07-.15-.2-.52-.66-1.12-1.41A57.07,57.07,0,0,0,402.27,235Z"/>
      <path class="cls-11" d="M341.15,202.57l1,7.59c18-5.45,60.21,22.93,59.55,22.93,5.61,8.08,5.28,51.47,4.95,70.11-7.92-.33-22.27-.5-25.4,3-2.48,2.8-5.77,14.68-5.28,24.91.66-9.41,3.63-18.48,5.77-21,3.63-3.79,19.8-3.79,28.71-3.29.16-20.95.66-69.12-5.78-78C405.65,228.8,362.93,200.59,341.15,202.57Z"/>
      <path class="cls-4" d="M342.05,210.67c13.21-3.48,34.22,7.88,45.85,14.22a155.81,155.81,0,0,1,13.8,8.6s0,0,.07.11,0,.17-.15.19l.12-.23a14.52,14.52,0,0,1,1.72,4.11,80.3,80.3,0,0,1,2.14,13.09c1.6,17.61,1.47,35.33,1.38,53V304h-.26a119.19,119.19,0,0,0-16.69.28c-3.38.53-7.86.63-9.51,4.17a49.55,49.55,0,0,0-3.64,27.09c.67,3.54,2,7.23,5,9.47,2.82,1.88,6.77,3.72,10.1,2.26,3.55-1.72,4.21-6.46,4.82-9.8a1,1,0,0,0,0-.37l.6.22c-.37,2.77,4.12,12.5,7.44,11.86,4.26-1.65,5.4-8.34,5.46-12.44l.76-.07c1.08,7.37,8.12,20.24,14.82,9.19,7.74-12.71,6.13-27.69-.29-40.59l-.05-.1v-.12c.17-13.83,2.12-45.89,1.36-59.27-.28-6.45-1.77-13.24-5.07-18.61-4.54-5.41-10.81-13.37-15.37-18.66-5.18-6.19-10.29-12.44-15.72-18.39A156.14,156.14,0,0,0,353,160.28h.25a32.18,32.18,0,0,0-6.65,5.95,31.08,31.08,0,0,0-7.1,16.21c-.5,3.2-.15,6.07-.12,9a37.72,37.72,0,0,1-.07-9A31.64,31.64,0,0,1,353,159.88l.12-.09.13.08a171.8,171.8,0,0,1,20.18,13.4c16.17,12.27,28.42,28.65,41.5,44l7.72,9.36c3.54,5.72,4.93,12.5,5.27,19.14.68,13.28-1.11,45.64-1.4,59.36a54.48,54.48,0,0,1,5.12,16.21,37.28,37.28,0,0,1-1.46,17.13c-1.89,6-7.36,17.63-14.54,10.16-3-3.21-4.49-7.54-5.32-11.77l.77-.07c-.08,4.47-1.34,11.47-6.09,13.17-4.22.57-7.77-8.39-8.34-11.81,0-.49-.1-.8.27-1.28l.51-.58.09.79c.06.38-.16.77-.17,1.07-1.27,10.3-7.1,13.26-15.9,7.42-8.21-6.81-6-22.9-3.45-32.08,1.12-3.53,2.25-7.84,6.44-8.68,7.27-1.88,14.88-1.45,22.3-1.27l-.26.25c.14-17.65.32-35.35-1.23-53-.73-5.73-.93-11.91-3.75-17.06l.12-.23c-.17,0-.15.22-.14.17s0,.05,0,0h0l0,0c-4.35-3.14-9-5.88-13.67-8.57-12.07-6.64-32.09-17.47-45.73-14.43Z"/>
    </g>
  </g>
  <g class="cls-23">
    <g class="cls-24">
      <rect class="cls-25" x="-3969.81" y="-1955.1" width="5400" height="2050" transform="translate(-2539.62 -1860.2) rotate(-180)"/>
      <g class="cls-26">
        <g>
          <g class="cls-27">
            <path class="cls-28" d="M434.56,124.68l5.1,12.69a4.38,4.38,0,0,0,4.43,2.73L457.71,139,445,144.06a4.37,4.37,0,0,0-2.73,4.42l1.14,13.63-5.1-12.69a4.38,4.38,0,0,0-4.43-2.72l-13.62,1.14L433,142.73a4.37,4.37,0,0,0,2.73-4.42Z"/>
            <path class="cls-29" d="M142.94,14l-2.22,5.58a1.94,1.94,0,0,0,.58,2.22L146,25.57l-5.58-2.23a2,2,0,0,0-2.22.58l-3.77,4.69L136.64,23a1.94,1.94,0,0,0-.58-2.21L131.37,17,137,19.26a1.93,1.93,0,0,0,2.21-.58Z"/>
            <g class="cls-30">
              <path class="cls-28" d="M120.85,101.79l1.4,8a2.62,2.62,0,0,0,2.24,2.14l8.08,1-8,1.4a2.61,2.61,0,0,0-2.14,2.24l-1,8.07-1.39-8a2.61,2.61,0,0,0-2.24-2.14l-8.08-1,8-1.4a2.6,2.6,0,0,0,2.14-2.23Z"/>
            </g>
          </g>
          <g class="cls-31">
            <path class="cls-28" d="M435.46,28.69a1.91,1.91,0,1,1-1.91-1.91A1.91,1.91,0,0,1,435.46,28.69Z"/>
            <path class="cls-29" d="M217.29,216.88a1.91,1.91,0,1,1-1.9-1.91A1.91,1.91,0,0,1,217.29,216.88Z"/>
            <path class="cls-28" d="M46.69,126.53a1.91,1.91,0,1,1-1.91-1.9A1.9,1.9,0,0,1,46.69,126.53Z"/>
            <path class="cls-28" d="M49.82,269.63a1.91,1.91,0,1,1-1.91-1.91A1.9,1.9,0,0,1,49.82,269.63Z"/>
            <path class="cls-32" d="M267.71,292.34a1.91,1.91,0,1,1-1.9-1.91A1.91,1.91,0,0,1,267.71,292.34Z"/>
            <path class="cls-29" d="M320.76,297.69a1.91,1.91,0,1,1-1.91-1.91A1.91,1.91,0,0,1,320.76,297.69Z"/>
            <path class="cls-28" d="M255,114.67a1.91,1.91,0,1,1-1.91-1.91A1.92,1.92,0,0,1,255,114.67Z"/>
            <path class="cls-28" d="M314,23.27a1.91,1.91,0,1,1-1.91-1.9A1.91,1.91,0,0,1,314,23.27Z"/>
            <circle class="cls-28" cx="68.33" cy="353.74" r="1.91"/>
          </g>
        </g>
      </g>
    </g>
  </g>
</svg>
