<svg id="Layer_1" data-name="Layer 1" xmlns="http://www.w3.org/2000/svg" xmlns:xlink="http://www.w3.org/1999/xlink" width="798.86" height="415.06" viewBox="0 0 798.86 415.06">
  <defs>
    <style>
      .cls-1 {
        fill: none;
      }

      .cls-2 {
        clip-path: url(#clip-path);
      }

      .cls-3 {
        fill: #3f164f;
      }

      .cls-3, .cls-4, .cls-5, .cls-6 {
        fill-rule: evenodd;
      }

      .cls-4 {
        fill: #673c96;
      }

      .cls-5 {
        fill: #4d1e5d;
      }

      .cls-6 {
        fill: #541e5d;
      }
    </style>
    <clipPath id="clip-path">
      <rect class="cls-1" x="-863.3" y="-538.19" width="1600" height="900"/>
    </clipPath>
  </defs>
  <g class="cls-2">
    <g>
      <path class="cls-3" d="M729.25,77.39s14,109.38,12.38,135.47S708.46,297,708.46,297s-33.31,113.6-43.88,169.14S618,592.33,618,592.33s-215.7,53-274.65,53-88.67-43.75-88.67-43.75-83.19-228.87-90.47-240.23-48.73-34.9-48.73-34.9S48.06,133.61,42.75,82.79L230.21,95.07Z"/>
      <path class="cls-4" d="M729.25,77.39l-88.6-17.65L589.17,45.87q-65.31.48-130.62,1.32Q363.79,48.41,269,50.37L154.41,59.74,42.75,82.79s51,28.12,90.28,26.93l-37.46,20a70.57,70.57,0,0,0,23.65,18.81c14.87,7.13,126.57,12.36,179.59,11.43s85.47-20.6,85.47-20.6l11.65-11.29,28.64-5.39s41.57,11.1,74.7,12.79,75.61-11.14,75.61-11.14l3.18-17.86S668,98.44,729.25,77.39Z"/>
      <path class="cls-5" d="M599,104.16v76.32L648,193.64s2.15,1.52,7.53,23.42,30.3,76,30.3,76L708.46,297l-18.14,64.38s-26.17.42-36.57,10.65-33.47,40.8-33.47,40.8l-13.84,60.09S592.6,361.79,591.67,344.24s-14.37-93-12.27-105.71-.82-62.43-.82-62.43l-3.7-51.79S504,139.54,496.62,143.92,486,195.1,486,195.1l-24.16,88.22,27.06,128.82L478.42,521.4l-3.3,82.18-38.49,65.27H406.18s-24.92-213.49-26.77-226.64S386,398.35,386,398.35L373.87,264.2,395.4,129.54l1.23-1.14L425.28,123s44.19,8.07,59.09,10.26,90.69-20,90.69-20L529.61,95.68Z"/>
      <path class="cls-5" d="M210.33,160,149.62,176.1l9.68,36.76,26.31,100.68,31.75,47.83L253,382.26l27.68,30.56h-24l1.84,40.75,12.88,97,.64,69.08-16.28-3.53s-65-186.48-91.57-254.79c0,0-44.15-21.62-48.73-34.9s-67-198.09-72.71-243.68L133,109.72l-37.46,20s26.37,18.61,43.91,23S210.33,160,210.33,160Z"/>
      <polygon class="cls-6" points="599.04 180.48 578.58 256.51 575.06 113.23 529.61 95.68 599.04 104.16 599.04 180.48"/>
      <path class="cls-3" d="M133,109.72l-37.46,20,16.18,185.86s-50.37-152.09-69-232.77Z"/>
      <polygon class="cls-3" points="484.37 133.27 436.63 206.66 407.1 256.51 401.08 299.16 374.62 272.43 394.38 129.54 403.25 129.47 431.89 124.09 484.37 133.27"/>
    </g>
  </g>
</svg>
