<svg id="Layer_1" data-name="Layer 1" xmlns="http://www.w3.org/2000/svg" xmlns:xlink="http://www.w3.org/1999/xlink" width="1104" height="262.59" viewBox="0 0 1104 262.59">
  <defs>
    <style>
      .cls-1, .cls-8 {
        fill: none;
      }

      .cls-2 {
        clip-path: url(#clip-path);
      }

      .cls-10, .cls-11, .cls-12, .cls-13, .cls-14, .cls-15, .cls-17, .cls-18, .cls-3, .cls-9 {
        opacity: 0.43;
      }

      .cls-3 {
        fill: url(#linear-gradient);
      }

      .cls-4 {
        fill: #5e3a17;
      }

      .cls-5 {
        fill: #49280d;
      }

      .cls-6 {
        fill: #ffd3b6;
      }

      .cls-7 {
        fill: #eaae81;
      }

      .cls-8 {
        stroke: #3f1d06;
        stroke-width: 2px;
      }

      .cls-16, .cls-8 {
        stroke-miterlimit: 10;
      }

      .cls-9 {
        fill: url(#linear-gradient-2);
      }

      .cls-10 {
        fill: url(#linear-gradient-3);
      }

      .cls-11 {
        fill: url(#linear-gradient-4);
      }

      .cls-12 {
        fill: url(#linear-gradient-5);
      }

      .cls-13 {
        fill: url(#linear-gradient-6);
      }

      .cls-14 {
        fill: url(#linear-gradient-7);
      }

      .cls-15 {
        fill: url(#linear-gradient-8);
      }

      .cls-16 {
        fill: #ffe8d9;
        stroke: #2d1606;
      }

      .cls-17 {
        fill: url(#linear-gradient-9);
      }

      .cls-18 {
        fill: url(#linear-gradient-10);
      }

      .cls-19 {
        fill: lime;
      }

      .cls-20 {
        opacity: 0.5;
      }

      .cls-21 {
        fill: #fff;
      }
    </style>
    <clipPath id="clip-path">
      <rect class="cls-1" x="-553.38" y="-557.98" width="1600" height="900"/>
    </clipPath>
    <linearGradient id="linear-gradient" x1="223.35" y1="206.7" x2="223.35" y2="104.44" gradientUnits="userSpaceOnUse">
      <stop offset="0" stop-color="#7dc0ff" stop-opacity="0"/>
      <stop offset="0.49" stop-color="#334961" stop-opacity="0.55"/>
      <stop offset="0.88" stop-color="#060000"/>
    </linearGradient>
    <linearGradient id="linear-gradient-2" x1="347.78" y1="246.27" x2="347.78" y2="144.02" xlink:href="#linear-gradient"/>
    <linearGradient id="linear-gradient-3" x1="460.31" y1="206.82" x2="460.31" y2="104.57" xlink:href="#linear-gradient"/>
    <linearGradient id="linear-gradient-4" x1="574.88" y1="230.28" x2="574.88" y2="128.02" xlink:href="#linear-gradient"/>
    <linearGradient id="linear-gradient-5" x1="690.02" y1="201.44" x2="690.02" y2="99.18" xlink:href="#linear-gradient"/>
    <linearGradient id="linear-gradient-6" x1="803.87" y1="236.71" x2="803.87" y2="134.45" xlink:href="#linear-gradient"/>
    <linearGradient id="linear-gradient-7" x1="919.72" y1="198.72" x2="919.72" y2="96.46" xlink:href="#linear-gradient"/>
    <linearGradient id="linear-gradient-8" x1="124.84" y1="256.1" x2="124.84" y2="153.85" xlink:href="#linear-gradient"/>
    <linearGradient id="linear-gradient-9" x1="1033.57" y1="248.71" x2="1033.57" y2="146.46" xlink:href="#linear-gradient"/>
    <linearGradient id="linear-gradient-10" x1="1152.99" y1="195.77" x2="1152.99" y2="93.52" xlink:href="#linear-gradient"/>
  </defs>
  <g class="cls-2">
    <g>
      <g>
        <path class="cls-3" d="M277.62,177.55c-27.14,38-73.74,37-108.53,7.85l1.11-81c20.67,48.75,93.74,35.11,106.36,0Z"/>
        <g>
          <path class="cls-4" d="M276.53,121.53c-10.48,22.2-98.37,20.88-106.36,0V56H276.53Z"/>
          <ellipse class="cls-5" cx="223.35" cy="56" rx="53.18" ry="11.33"/>
          <ellipse class="cls-6" cx="223.35" cy="55.74" rx="50.18" ry="10.29"/>
          <ellipse class="cls-7" cx="224.06" cy="55.74" rx="48.29" ry="9.63"/>
          <polygon class="cls-5" points="174.31 60.39 174.31 99.43 178.29 63.19 180.51 62.72 174.31 60.39"/>
          <polygon class="cls-5" points="253.32 65.36 255.81 66.03 257.43 125.56 259.06 65.36 258.18 63.88 253.32 65.36"/>
          <polygon class="cls-5" points="207.83 66.81 205.54 67.24 208.62 94.13 211.45 68.35 214.78 67.19 207.83 66.81"/>
        </g>
        <path class="cls-8" d="M223.35,44.67c-29.37,0-53.18,5.07-53.18,11.33v65.53c8,20.88,95.88,22.2,106.36,0V56C276.53,49.74,252.72,44.67,223.35,44.67Z"/>
      </g>
      <g>
        <path class="cls-9" d="M402,217.12c-27.13,38-73.74,37-108.52,7.86l1.1-81c20.67,48.75,93.75,35.1,106.37,0Z"/>
        <g>
          <path class="cls-4" d="M401,161.1c-10.49,22.21-98.37,20.88-106.36,0V95.57H401Z"/>
          <ellipse class="cls-5" cx="347.78" cy="95.57" rx="53.18" ry="11.33"/>
          <ellipse class="cls-6" cx="347.78" cy="95.31" rx="50.18" ry="10.29"/>
          <ellipse class="cls-7" cx="348.49" cy="95.31" rx="48.29" ry="9.63"/>
          <polygon class="cls-5" points="298.74 99.96 298.74 139 302.71 102.76 304.94 102.29 298.74 99.96"/>
          <polygon class="cls-5" points="377.75 104.94 380.24 105.6 381.86 165.14 383.48 104.94 382.61 103.46 377.75 104.94"/>
          <polygon class="cls-5" points="332.25 106.39 329.97 106.82 333.05 133.7 335.88 107.92 339.21 106.76 332.25 106.39"/>
        </g>
        <path class="cls-8" d="M347.78,84.24c-29.37,0-53.18,5.08-53.18,11.33V161.1c8,20.88,95.87,22.21,106.36,0V95.57C401,89.32,377.15,84.24,347.78,84.24Z"/>
      </g>
      <g>
        <path class="cls-10" d="M514.58,177.67c-27.14,38-73.74,37-108.53,7.86l1.11-81c20.67,48.74,93.74,35.1,106.36,0Z"/>
        <g>
          <path class="cls-4" d="M513.49,121.65c-10.48,22.21-98.37,20.88-106.36,0V56.12H513.49Z"/>
          <ellipse class="cls-5" cx="460.31" cy="56.12" rx="53.18" ry="11.33"/>
          <ellipse class="cls-6" cx="460.31" cy="55.86" rx="50.18" ry="10.29"/>
          <ellipse class="cls-7" cx="461.02" cy="55.86" rx="48.29" ry="9.63"/>
          <polygon class="cls-5" points="411.27 60.51 411.27 99.55 415.25 63.31 417.47 62.84 411.27 60.51"/>
          <polygon class="cls-5" points="490.28 65.48 492.77 66.15 494.39 125.68 496.02 65.48 495.14 64.01 490.28 65.48"/>
          <polygon class="cls-5" points="444.79 66.94 442.5 67.37 445.58 94.25 448.41 68.47 451.74 67.31 444.79 66.94"/>
        </g>
        <path class="cls-8" d="M460.31,44.79c-29.37,0-53.18,5.08-53.18,11.33v65.53c8,20.88,95.88,22.21,106.36,0V56.12C513.49,49.87,489.68,44.79,460.31,44.79Z"/>
      </g>
      <g>
        <path class="cls-11" d="M629.14,201.13c-27.13,38-73.74,37-108.53,7.85l1.11-81c20.67,48.75,93.74,35.11,106.36,0Z"/>
        <g>
          <path class="cls-4" d="M628.06,145.11c-10.49,22.2-98.38,20.88-106.36,0V79.58H628.06Z"/>
          <ellipse class="cls-5" cx="574.88" cy="79.58" rx="53.18" ry="11.33"/>
          <ellipse class="cls-6" cx="574.88" cy="79.31" rx="50.18" ry="10.29"/>
          <ellipse class="cls-7" cx="575.58" cy="79.31" rx="48.29" ry="9.63"/>
          <polygon class="cls-5" points="525.83 83.97 525.83 123.01 529.81 86.77 532.03 86.29 525.83 83.97"/>
          <polygon class="cls-5" points="604.84 88.94 607.33 89.6 608.96 149.14 610.58 88.94 609.71 87.46 604.84 88.94"/>
          <polygon class="cls-5" points="559.35 90.39 557.07 90.82 560.14 117.7 562.98 91.93 566.3 90.76 559.35 90.39"/>
        </g>
        <path class="cls-8" d="M574.88,68.25c-29.37,0-53.18,5.07-53.18,11.33v65.53c8,20.88,95.87,22.2,106.36,0V79.58C628.06,73.32,604.25,68.25,574.88,68.25Z"/>
      </g>
      <g>
        <path class="cls-12" d="M744.28,172.29c-27.13,38-73.73,37-108.52,7.85l1.11-81c20.67,48.75,93.74,35.11,106.36,0Z"/>
        <g>
          <path class="cls-4" d="M743.2,116.27c-10.49,22.2-98.37,20.88-106.36,0V50.74H743.2Z"/>
          <ellipse class="cls-5" cx="690.02" cy="50.74" rx="53.18" ry="11.33"/>
          <ellipse class="cls-6" cx="690.02" cy="50.47" rx="50.18" ry="10.29"/>
          <ellipse class="cls-7" cx="690.73" cy="50.47" rx="48.29" ry="9.63"/>
          <polygon class="cls-5" points="640.98 55.13 640.98 94.17 644.95 57.93 647.18 57.45 640.98 55.13"/>
          <polygon class="cls-5" points="719.99 60.1 722.48 60.76 724.1 120.3 725.72 60.1 724.85 58.62 719.99 60.1"/>
          <polygon class="cls-5" points="674.5 61.55 672.21 61.98 675.29 88.86 678.12 63.09 681.45 61.92 674.5 61.55"/>
        </g>
        <path class="cls-8" d="M690,39.41c-29.37,0-53.18,5.07-53.18,11.33v65.53c8,20.88,95.87,22.2,106.36,0V50.74C743.2,44.48,719.39,39.41,690,39.41Z"/>
      </g>
      <g>
        <path class="cls-13" d="M858.13,207.56c-27.13,38-73.73,37-108.52,7.85l1.11-81c20.67,48.75,93.74,35.11,106.36,0Z"/>
        <g>
          <path class="cls-4" d="M857.05,151.54c-10.48,22.2-98.37,20.88-106.36,0V86H857.05Z"/>
          <ellipse class="cls-5" cx="803.87" cy="86.01" rx="53.18" ry="11.33"/>
          <ellipse class="cls-6" cx="803.87" cy="85.74" rx="50.18" ry="10.29"/>
          <ellipse class="cls-7" cx="804.58" cy="85.74" rx="48.29" ry="9.63"/>
          <polygon class="cls-5" points="754.83 90.4 754.83 129.44 758.81 93.2 761.03 92.72 754.83 90.4"/>
          <polygon class="cls-5" points="833.84 95.37 836.33 96.03 837.95 155.57 839.58 95.37 838.7 93.89 833.84 95.37"/>
          <polygon class="cls-5" points="788.35 96.82 786.06 97.25 789.14 124.14 791.97 98.36 795.3 97.19 788.35 96.82"/>
        </g>
        <g>
          <path class="cls-4" d="M857.76,151.54c-10.49,22.2-98.37,20.88-106.36,0V86H857.76Z"/>
          <ellipse class="cls-5" cx="804.58" cy="86.01" rx="53.18" ry="11.33"/>
          <ellipse class="cls-6" cx="804.58" cy="85.74" rx="50.18" ry="10.29"/>
          <ellipse class="cls-7" cx="805.29" cy="85.74" rx="48.29" ry="9.63"/>
          <polygon class="cls-5" points="755.54 90.4 755.54 129.44 759.51 93.2 761.74 92.72 755.54 90.4"/>
          <polygon class="cls-5" points="834.55 95.37 837.04 96.03 838.66 155.57 840.28 95.37 839.41 93.89 834.55 95.37"/>
          <polygon class="cls-5" points="789.05 96.82 786.77 97.25 789.85 124.14 792.68 98.36 796.01 97.19 789.05 96.82"/>
        </g>
        <path class="cls-8" d="M803.87,74.68c-29.37,0-53.18,5.07-53.18,11.33v65.53c8,20.88,95.88,22.2,106.36,0V86C857.05,79.75,833.24,74.68,803.87,74.68Z"/>
      </g>
      <g>
        <path class="cls-14" d="M974,169.57c-27.13,38-73.73,37-108.52,7.85l1.11-81c20.67,48.75,93.74,35.11,106.36,0Z"/>
        <g>
          <path class="cls-4" d="M972.9,113.55c-10.49,22.2-98.37,20.88-106.36,0V48H972.9Z"/>
          <ellipse class="cls-5" cx="919.72" cy="48.02" rx="53.18" ry="11.33"/>
          <ellipse class="cls-6" cx="919.72" cy="47.76" rx="50.18" ry="10.29"/>
          <ellipse class="cls-7" cx="920.43" cy="47.76" rx="48.29" ry="9.63"/>
          <polygon class="cls-5" points="870.68 52.41 870.68 91.45 874.65 55.21 876.88 54.73 870.68 52.41"/>
          <polygon class="cls-5" points="949.69 57.38 952.18 58.05 953.8 117.58 955.42 57.38 954.55 55.9 949.69 57.38"/>
          <polygon class="cls-5" points="904.2 58.83 901.91 59.26 904.99 86.14 907.82 60.37 911.15 59.2 904.2 58.83"/>
        </g>
        <path class="cls-8" d="M919.72,36.69c-29.37,0-53.18,5.07-53.18,11.33v65.53c8,20.88,95.87,22.2,106.36,0V48C972.9,41.76,949.09,36.69,919.72,36.69Z"/>
      </g>
      <g>
        <path class="cls-15" d="M179.1,227c-27.13,38-73.74,37-108.53,7.86l1.11-81c20.67,48.75,93.74,35.1,106.36,0Z"/>
        <g>
          <path class="cls-4" d="M178,170.93c-10.49,22.21-98.37,20.88-106.36,0V105.4H178Z"/>
          <ellipse class="cls-5" cx="124.84" cy="105.4" rx="53.18" ry="11.33"/>
          <ellipse class="cls-6" cx="124.84" cy="105.14" rx="50.18" ry="10.29"/>
          <ellipse class="cls-7" cx="125.54" cy="105.14" rx="48.29" ry="9.63"/>
          <polygon class="cls-5" points="75.79 109.79 75.79 148.84 79.77 112.59 81.99 112.12 75.79 109.79"/>
          <polygon class="cls-5" points="154.8 114.77 157.29 115.43 158.92 174.97 160.54 114.77 159.66 113.29 154.8 114.77"/>
          <polygon class="cls-5" points="109.31 116.22 107.03 116.65 110.11 143.53 112.94 117.75 116.27 116.59 109.31 116.22"/>
        </g>
        <path class="cls-8" d="M124.84,94.07c-29.37,0-53.18,5.08-53.18,11.33v65.53c8,20.88,95.87,22.21,106.36,0V105.4C178,99.15,154.21,94.07,124.84,94.07Z"/>
      </g>
      <path class="cls-16" d="M119.78,170.78V136.49q-1.14,1.45-2.16,2.61t-2.22,2.49l-3.75-5.66q1.69-1.63,3.3-3.27c.91-.92,1.84-1.9,2.78-2.95s1.73-2,2.35-2.82h7.27v43.89Z"/>
      <path class="cls-16" d="M208.39,121.13l.06-4.94q1.77-2.28,3.73-4.53l3.89-4.48c1.29-1.48,2.53-2.93,3.7-4.35a37.87,37.87,0,0,0,3.1-4.29A24.19,24.19,0,0,0,225,94.29,11.94,11.94,0,0,0,225.8,90a4.9,4.9,0,0,0-1.47-3.7,5.08,5.08,0,0,0-3.65-1.43,5.64,5.64,0,0,0-2.76.68,7.22,7.22,0,0,0-2.1,1.75,13.05,13.05,0,0,0-1.54,2.35,23.87,23.87,0,0,0-1.11,2.58l-5.46-4.39c.38-1,.85-2,1.42-3.25a12.55,12.55,0,0,1,2.48-3.46,13.47,13.47,0,0,1,4.21-2.78,16.33,16.33,0,0,1,6.63-1.15,14.63,14.63,0,0,1,5,.83,11.06,11.06,0,0,1,3.91,2.36,10.18,10.18,0,0,1,2.5,3.71,13,13,0,0,1,.87,4.87,17.81,17.81,0,0,1-1.68,7.48,39.71,39.71,0,0,1-4.07,7,50.18,50.18,0,0,1-5,5.92c-1.74,1.75-3.22,3.21-4.43,4.35h15.53v7.42Z"/>
      <path class="cls-16" d="M362.68,149.09a11.7,11.7,0,0,1-1,4.78,10.51,10.51,0,0,1-2.78,3.76,13.26,13.26,0,0,1-4.45,2.45,18.34,18.34,0,0,1-5.8.87,22.6,22.6,0,0,1-4.41-.39,14.07,14.07,0,0,1-6.92-3.51,25.45,25.45,0,0,1-3.07-3.45L338,148q4.44,5.53,9.51,5.53a6.44,6.44,0,0,0,4.46-1.45,5.29,5.29,0,0,0,1.74-3.84,5.46,5.46,0,0,0-.45-2.74,4.88,4.88,0,0,0-1.94-2.11,10.31,10.31,0,0,0-3.81-1.24,28.28,28.28,0,0,0-6-.13V134.6a38.43,38.43,0,0,0,5.71.07,9.24,9.24,0,0,0,3.53-.86,4,4,0,0,0,1.82-1.78,6.27,6.27,0,0,0,.54-2.75,4.68,4.68,0,0,0-1.65-3.49,6.1,6.1,0,0,0-4.09-1.31,8.85,8.85,0,0,0-4,1,16.65,16.65,0,0,0-4.1,3.19l-3.19-6q4.27-5.64,13.15-5.64a14.9,14.9,0,0,1,5,.79A11.17,11.17,0,0,1,358,120.1a9.94,9.94,0,0,1,2.45,3.5,11.82,11.82,0,0,1,.85,4.6,10.29,10.29,0,0,1-1.65,6.06,12.83,12.83,0,0,1-5.46,4.05,10.4,10.4,0,0,1,6.29,3.55A11.21,11.21,0,0,1,362.68,149.09Z"/>
      <path class="cls-16" d="M473.42,125.44h-7.05V114.62H451.74V81.48H459v26.1h7.34V97h7v10.63h5.06v7h-5Z"/>
      <path class="cls-16" d="M589.35,133.65q0,6.69-3.68,10.34t-10.3,3.64a17.78,17.78,0,0,1-7.56-1.59,17,17,0,0,1-6-4.72l3.19-6.2q5.07,5.08,9.9,5.09a7.16,7.16,0,0,0,5-1.72,5.65,5.65,0,0,0,1.94-4.43,6.54,6.54,0,0,0-1.63-4.79,6.31,6.31,0,0,0-4.69-1.64,6.21,6.21,0,0,0-3,.73,11.93,11.93,0,0,0-2.81,2.23l-4.9-3.08.57-23.78H588.1l.06,7.43H572.62l-.28,10.31q.82-.43,1.44-.72a9.34,9.34,0,0,1,1.18-.47,6,6,0,0,1,1.25-.26c.44,0,.94-.06,1.49-.06a11.25,11.25,0,0,1,4.75,1,10.46,10.46,0,0,1,3.67,2.78,13.09,13.09,0,0,1,2.38,4.33A17.43,17.43,0,0,1,589.35,133.65Z"/>
      <path class="cls-16" d="M704.24,103.09a16.91,16.91,0,0,1-1,5.86,13,13,0,0,1-2.64,4.44,11.73,11.73,0,0,1-4.13,2.86,14,14,0,0,1-5.43,1,13.79,13.79,0,0,1-5.68-1.14,12.18,12.18,0,0,1-4.38-3.27,15.33,15.33,0,0,1-2.81-5.06,20.12,20.12,0,0,1-1-6.56,25.93,25.93,0,0,1,1.21-7.74A43.43,43.43,0,0,1,681.57,86a54.33,54.33,0,0,1,4.36-6.84,62.87,62.87,0,0,1,4.89-5.83h9.61a64.46,64.46,0,0,0-7,8.43,70,70,0,0,0-5.75,9.75c.6-.38,1.14-.7,1.62-1a9.12,9.12,0,0,1,1.37-.59,6.43,6.43,0,0,1,1.31-.32,11.2,11.2,0,0,1,1.5-.09,9.65,9.65,0,0,1,4.38,1,9.75,9.75,0,0,1,3.39,2.79,13.79,13.79,0,0,1,2.23,4.3A17.37,17.37,0,0,1,704.24,103.09Zm-7.57.17a6.63,6.63,0,0,0-1.35-4.38,4.45,4.45,0,0,0-3.6-1.62,7.18,7.18,0,0,0-5.29,2.47c-.11.63-.19,1.1-.23,1.41s-.05.73-.05,1.24a7.43,7.43,0,0,0,1.54,4.88,5,5,0,0,0,4,1.89,4.46,4.46,0,0,0,3.61-1.62A6.45,6.45,0,0,0,696.67,103.26Z"/>
      <path class="cls-16" d="M802,155.14h-8.59l14.91-36.48H790.47v-7.42h26.8v6.53Z"/>
      <path class="cls-16" d="M932.72,105a10,10,0,0,1-3.57,8.15q-3.57,2.93-9.93,2.93a19.93,19.93,0,0,1-5.92-.83,14.18,14.18,0,0,1-4.56-2.31,10.22,10.22,0,0,1-4-8.3,10.16,10.16,0,0,1,1.91-6.35A15.91,15.91,0,0,1,913,93.89q-2.33-1.61-3.75-2.81A11,11,0,0,1,907,88.7a7.34,7.34,0,0,1-1-2.47,14.45,14.45,0,0,1-.29-3.08q0-5.25,3.3-8.09t10.13-2.84a18.51,18.51,0,0,1,5.38.74,12.42,12.42,0,0,1,4.12,2.11,9.12,9.12,0,0,1,2.62,3.3,10.16,10.16,0,0,1,.91,4.36,10.47,10.47,0,0,1-1.68,6,16.81,16.81,0,0,1-5.55,4.79,14.41,14.41,0,0,1,5.94,4.74A12,12,0,0,1,932.72,105Zm-7.57-.79a4.38,4.38,0,0,0-1.79-3.76,11.92,11.92,0,0,0-2.11-1.3c-.81-.41-1.73-.82-2.76-1.25a11.44,11.44,0,0,0-4.15,2.35,4.4,4.4,0,0,0-1.19,3.2,4.64,4.64,0,0,0,1.7,3.82,7.08,7.08,0,0,0,4.61,1.39,6.55,6.55,0,0,0,4.15-1.21A3.91,3.91,0,0,0,925.15,104.25Zm-1.08-20a4.2,4.2,0,0,0-1.51-3.36,5.81,5.81,0,0,0-3.95-1.3,5.16,5.16,0,0,0-3.53,1.21,3.94,3.94,0,0,0-1.37,3.09q0,3.3,5.47,5.89A8.47,8.47,0,0,0,923,87.45,5,5,0,0,0,924.07,84.3Z"/>
      <g>
        <path class="cls-17" d="M1087.83,219.56c-27.13,38-73.73,37-108.52,7.86l1.11-81c20.67,48.74,93.74,35.1,106.36,0Z"/>
        <g>
          <g>
            <path class="cls-4" d="M1086.75,163.54c-10.48,22.21-98.37,20.88-106.36,0V98h106.36Z"/>
            <ellipse class="cls-5" cx="1033.57" cy="98.01" rx="53.18" ry="11.33"/>
            <ellipse class="cls-6" cx="1033.57" cy="97.75" rx="50.18" ry="10.29"/>
            <ellipse class="cls-7" cx="1034.28" cy="97.75" rx="48.29" ry="9.63"/>
            <polygon class="cls-5" points="984.53 102.4 984.53 141.44 988.5 105.2 990.73 104.73 984.53 102.4"/>
            <polygon class="cls-5" points="1063.54 107.38 1066.03 108.04 1067.65 167.57 1069.27 107.38 1068.4 105.9 1063.54 107.38"/>
            <polygon class="cls-5" points="1018.05 108.83 1015.76 109.26 1018.84 136.14 1021.67 110.36 1025 109.2 1018.05 108.83"/>
          </g>
          <g>
            <path class="cls-4" d="M1087.46,163.54c-10.49,22.21-98.37,20.88-106.36,0V98h106.36Z"/>
            <ellipse class="cls-5" cx="1034.28" cy="98.01" rx="53.18" ry="11.33"/>
            <ellipse class="cls-6" cx="1034.28" cy="97.75" rx="50.18" ry="10.29"/>
            <ellipse class="cls-7" cx="1034.99" cy="97.75" rx="48.29" ry="9.63"/>
            <polygon class="cls-5" points="985.24 102.4 985.24 141.44 989.21 105.2 991.44 104.73 985.24 102.4"/>
            <polygon class="cls-5" points="1064.24 107.38 1066.74 108.04 1068.36 167.57 1069.98 107.38 1069.11 105.9 1064.24 107.38"/>
            <polygon class="cls-5" points="1018.75 108.83 1016.47 109.26 1019.55 136.14 1022.38 110.36 1025.71 109.2 1018.75 108.83"/>
          </g>
        </g>
        <path class="cls-8" d="M1033.57,86.68c-29.37,0-53.18,5.08-53.18,11.33v65.53c8,20.88,95.88,22.21,106.36,0V98C1086.75,91.76,1062.94,86.68,1033.57,86.68Z"/>
      </g>
      <g>
        <path class="cls-18" d="M1207.25,166.62c-27.13,38-73.74,37-108.53,7.86l1.11-81c20.67,48.75,93.74,35.1,106.36,0Z"/>
        <g>
          <g>
            <path class="cls-4" d="M1206.17,110.6c-10.49,22.21-98.37,20.88-106.36,0V45.07h106.36Z"/>
            <ellipse class="cls-5" cx="1152.99" cy="45.07" rx="53.18" ry="11.33"/>
            <ellipse class="cls-6" cx="1152.99" cy="44.81" rx="50.18" ry="10.29"/>
            <polygon class="cls-5" points="1103.94 49.46 1103.94 88.5 1107.92 52.26 1110.14 51.79 1103.94 49.46"/>
          </g>
          <g>
            <path class="cls-4" d="M1206.87,110.6c-10.48,22.21-98.37,20.88-106.36,0V45.07h106.36Z"/>
            <ellipse class="cls-5" cx="1153.69" cy="45.07" rx="53.18" ry="11.33"/>
            <ellipse class="cls-6" cx="1153.69" cy="44.81" rx="50.18" ry="10.29"/>
          </g>
        </g>
        <path class="cls-19" d="M1193.38,27.28c-10.71-2.28-24.8-3.54-39.69-3.54h-.7c-14.89,0-29,1.26-39.69,3.54-6.43,1.37-23.49,5-23.49,17.79V110.6a9.91,9.91,0,0,0,.66,3.57c8,20.83,49.67,22.56,62.21,22.59h1.2c12.13,0,52.45-1.58,62-21.89a10,10,0,0,0,.95-4.27V45.07C1216.87,32.29,1199.81,28.65,1193.38,27.28Zm13.49,83.32c-5.24,11.1-29.84,16.32-54.12,16.16-24.52-.06-48.91-5.62-52.94-16.16V45.07c0-6.25,23.81-11.33,53.18-11.33h.7c29.37,0,53.18,5.08,53.18,11.33Z"/>
        <path class="cls-8" d="M1153,33.74c-29.37,0-53.18,5.08-53.18,11.33V110.6c8,20.88,95.87,22.21,106.36,0V45.07C1206.17,38.82,1182.36,33.74,1153,33.74Z"/>
      </g>
      <path class="cls-16" d="M1042.3,167.07h-7.62l.45-18.56a9.06,9.06,0,0,1-7.05,2.83,11.06,11.06,0,0,1-4.76-1,10.5,10.5,0,0,1-3.66-2.87,13,13,0,0,1-2.37-4.43,19,19,0,0,1-.82-5.79,18.63,18.63,0,0,1,1-6.25,13.6,13.6,0,0,1,2.82-4.75,11.93,11.93,0,0,1,4.47-3,16,16,0,0,1,5.89-1q5.91,0,9.21,3.65T1043,136Zm-7.23-32a5.33,5.33,0,0,0-.37-2,4.86,4.86,0,0,0-1-1.6,4.44,4.44,0,0,0-1.56-1.07,4.9,4.9,0,0,0-1.94-.38,5,5,0,0,0-4.15,1.95,8.38,8.38,0,0,0-1.54,5.34,7.45,7.45,0,0,0,1.34,4.72,4.48,4.48,0,0,0,3.73,1.7,4.87,4.87,0,0,0,3.86-1.7,7.38,7.38,0,0,0,1.6-4.72Z"/>
    </g>
    <g>
      <g>
        <g class="cls-20">
          <path class="cls-21" d="M64.93,175.83c2.81,8.72,18.42,13.72,26.54,16.21,24.52,6.69,55.46,8.54,78.17-4.47a46.37,46.37,0,0,0,12.23-10.33,44,44,0,0,1-11.71,11.16C147.28,202.76,116,201,91,193.53c-8.18-2.7-23.86-8.58-26.08-17.7Z"/>
        </g>
        <g class="cls-20">
          <path class="cls-21" d="M71.45,194.44c4.67,6.1,17.73,9.08,25.13,10.8,18.11,3.64,37.08,4.5,55.2.55,9-2.09,17.82-5.54,25.14-11.35a48.43,48.43,0,0,1-11.54,8c-21.37,10.18-46.5,9.49-69.15,4.35-7.52-2-20.44-5.59-24.78-12.31Z"/>
        </g>
      </g>
      <g>
        <g class="cls-20">
          <path class="cls-21" d="M184.72,136.14c2.61,4.47,15.06,6.05,21.52,6.82,19.49,1.86,43.76.68,60.89-7.87a36.23,36.23,0,0,0,9.06-6.39,32.31,32.31,0,0,1-8.61,6.8c-17.2,9.29-41.72,10.56-61.62,8.29-6.53-.87-19.07-2.92-21.24-7.65Z"/>
        </g>
        <g class="cls-20">
          <path class="cls-21" d="M190.7,145.65c4,2.93,14.31,3.62,20.17,4,14.33.69,29.19-.18,43.17-3.57,7-1.75,13.67-4.21,19.11-7.83a42.14,42.14,0,0,1-8.64,5.07c-16.22,6.94-35.89,8.33-53.84,7.17-6-.53-16.25-1.56-20-4.85Z"/>
        </g>
      </g>
      <g>
        <g class="cls-20">
          <path class="cls-21" d="M290.79,166.52c2.81,8.72,18.42,13.72,26.53,16.21,24.53,6.69,55.47,8.54,78.18-4.47a46.37,46.37,0,0,0,12.23-10.33A43.83,43.83,0,0,1,396,179.09c-22.88,14.36-54.14,12.65-79.15,5.13-8.18-2.7-23.86-8.58-26.08-17.7Z"/>
        </g>
        <g class="cls-20">
          <path class="cls-21" d="M297.3,185.14c4.68,6.09,17.74,9.08,25.14,10.79,18.1,3.64,37.07,4.5,55.2.55,9-2.09,17.82-5.54,25.14-11.34a48.58,48.58,0,0,1-11.55,8c-21.37,10.18-46.49,9.48-69.14,4.34-7.52-2-20.44-5.59-24.79-12.3Z"/>
        </g>
      </g>
      <g>
        <g class="cls-20">
          <path class="cls-21" d="M409.84,129.7c2.46,6.92,16.08,10.9,23.17,12.88,21.41,5.31,48.42,6.78,68.25-3.55a39.84,39.84,0,0,0,10.67-8.21,37.13,37.13,0,0,1-10.22,8.87c-20,11.4-47.26,10-69.1,4.07-7.14-2.14-20.83-6.82-22.77-14.06Z"/>
        </g>
        <g class="cls-20">
          <path class="cls-21" d="M415.53,144.49c4.08,4.84,15.49,7.21,21.94,8.57,15.81,2.89,32.37,3.58,48.19.44,7.88-1.66,15.56-4.4,21.95-9a42.55,42.55,0,0,1-10.08,6.32c-18.65,8.08-40.59,7.53-60.36,3.45-6.57-1.57-17.85-4.44-21.64-9.77Z"/>
        </g>
      </g>
      <g>
        <g class="cls-20">
          <path class="cls-21" d="M521.43,153.27c2.49,6.66,16.34,10.48,23.54,12.38,21.75,5.12,49.2,6.52,69.35-3.41a40.18,40.18,0,0,0,10.85-7.89,37,37,0,0,1-10.39,8.52c-20.3,11-48,9.66-70.21,3.92-7.26-2.06-21.18-6.56-23.14-13.52Z"/>
        </g>
        <g class="cls-20">
          <path class="cls-21" d="M527.21,167.49c4.14,4.65,15.73,6.94,22.29,8.24,16.07,2.79,32.9,3.45,49,.42,8-1.59,15.82-4.22,22.31-8.66a43.78,43.78,0,0,1-10.24,6.08c-19,7.78-41.25,7.24-61.34,3.32-6.68-1.51-18.14-4.27-22-9.4Z"/>
        </g>
      </g>
      <g>
        <g class="cls-20">
          <path class="cls-21" d="M636.35,122.58c2.52,8.72,16.55,13.73,23.85,16.22,22,6.69,49.87,8.54,70.29-4.47a43.2,43.2,0,0,0,11-10.33A41.84,41.84,0,0,1,731,135.16c-20.57,14.36-48.67,12.64-71.15,5.13-7.36-2.7-21.46-8.59-23.45-17.71Z"/>
        </g>
        <g class="cls-20">
          <path class="cls-21" d="M642.2,141.2c4.2,6.1,15.95,9.08,22.6,10.79,16.28,3.65,33.33,4.51,49.63.56,8.11-2.09,16-5.54,22.6-11.35a43.75,43.75,0,0,1-10.38,8c-19.21,10.18-41.8,9.49-62.16,4.35-6.77-2-18.38-5.6-22.29-12.31Z"/>
        </g>
      </g>
      <g>
        <g class="cls-20">
          <path class="cls-21" d="M753.38,157.16c2.54,7.38,16.69,11.62,24,13.73,22.22,5.67,50.26,7.23,70.84-3.78a41.46,41.46,0,0,0,11.08-8.75,39,39,0,0,1-10.61,9.45C828,180,799.67,178.51,777,172.15c-7.41-2.28-21.62-7.27-23.63-15Z"/>
        </g>
        <g class="cls-20">
          <path class="cls-21" d="M759.28,172.92c4.24,5.16,16.07,7.69,22.78,9.14,16.4,3.09,33.59,3.82,50,.47,8.18-1.77,16.16-4.69,22.79-9.61a44.06,44.06,0,0,1-10.46,6.74c-19.37,8.62-42.14,8-62.66,3.68-6.82-1.67-18.52-4.73-22.46-10.42Z"/>
        </g>
      </g>
      <g>
        <g class="cls-20">
          <path class="cls-21" d="M866.74,118.55c2.54,7.39,16.69,11.62,24,13.73C913,138,941,139.51,961.62,128.5a41.26,41.26,0,0,0,11.08-8.75,38.69,38.69,0,0,1-10.61,9.45c-20.73,12.16-49.06,10.71-71.72,4.34-7.42-2.28-21.62-7.26-23.63-15Z"/>
        </g>
        <g class="cls-20">
          <path class="cls-21" d="M872.64,134.32c4.23,5.16,16.07,7.68,22.77,9.13,16.41,3.09,33.6,3.82,50,.47,8.18-1.77,16.16-4.69,22.79-9.6a44.58,44.58,0,0,1-10.46,6.74c-19.37,8.61-42.14,8-62.66,3.68-6.82-1.67-18.52-4.74-22.46-10.42Z"/>
        </g>
      </g>
      <g>
        <g class="cls-20">
          <path class="cls-21" d="M980.59,167.7c2.54,7.38,16.69,11.61,24,13.72,22.22,5.67,50.26,7.23,70.84-3.78a41.26,41.26,0,0,0,11.08-8.75,38.69,38.69,0,0,1-10.61,9.45c-20.73,12.16-49.06,10.71-71.72,4.34-7.41-2.28-21.62-7.26-23.63-15Z"/>
        </g>
        <g class="cls-20">
          <path class="cls-21" d="M986.49,183.46c4.24,5.16,16.07,7.69,22.78,9.14,16.4,3.08,33.59,3.81,50,.46,8.18-1.76,16.16-4.68,22.79-9.6a44.06,44.06,0,0,1-10.46,6.74c-19.37,8.62-42.14,8-62.66,3.68-6.82-1.67-18.52-4.74-22.46-10.42Z"/>
        </g>
      </g>
    </g>
  </g>
</svg>
