<svg id="Layer_1" data-name="Layer 1" xmlns="http://www.w3.org/2000/svg" xmlns:xlink="http://www.w3.org/1999/xlink" width="765.18" height="461.5" viewBox="0 0 765.18 461.5">
  <defs>
    <style>
      .cls-1 {
        fill: none;
      }

      .cls-2 {
        opacity: 0.4;
      }

      .cls-3 {
        fill: #e6e6fc;
      }

      .cls-4 {
        fill: #2f2f5b;
      }

      .cls-5 {
        fill: #3e3eaf;
      }

      .cls-6 {
        fill: #ff40bb;
      }

      .cls-7 {
        clip-path: url(#clip-path);
      }

      .cls-8 {
        clip-path: url(#clip-path-2);
      }

      .cls-9 {
        fill: #191c3f;
      }

      .cls-10 {
        opacity: 0.8;
      }

      .cls-11 {
        opacity: 0.76;
      }

      .cls-12 {
        fill: #f4edf9;
      }

      .cls-13 {
        fill: #f9f0bd;
      }

      .cls-14 {
        opacity: 0.78;
      }

      .cls-15 {
        opacity: 0.7;
      }

      .cls-16 {
        fill: #f9e9aa;
      }

      .cls-17 {
        fill: #a0e6f9;
      }

      .cls-18 {
        opacity: 0.3;
      }

      .cls-19 {
        fill: #100e33;
      }

      .cls-20 {
        fill: #c8c2ff;
        opacity: 0.5;
      }

      .cls-21 {
        clip-path: url(#clip-path-3);
      }

      .cls-22 {
        clip-path: url(#clip-path-5);
      }
    </style>
    <clipPath id="clip-path">
      <rect class="cls-1" x="4412.53" y="-1133.12" width="1600" height="900"/>
    </clipPath>
    <clipPath id="clip-path-2">
      <rect class="cls-1" x="-4564.31" y="-1367.81" width="10800" height="2050"/>
    </clipPath>
    <clipPath id="clip-path-3">
      <rect class="cls-1" x="4412.53" y="-2115.71" width="1600" height="900"/>
    </clipPath>
    <clipPath id="clip-path-5">
      <rect class="cls-1" x="-4564.31" y="-2350.4" width="10800" height="2050"/>
    </clipPath>
  </defs>
  <g>
    <path class="cls-2" d="M741.48,183.86c0-.25,0-.5.08-.75a19.39,19.39,0,0,0-6.7-16.86,19.3,19.3,0,0,0-3.35-11.81A112.64,112.64,0,0,1,733,141.9a19.39,19.39,0,0,0,.12-6.4,19.39,19.39,0,0,0-4.59-15.6,18.68,18.68,0,0,0-2-2,19.36,19.36,0,0,0-3.62-12.19,19.21,19.21,0,0,0-6.12-9.69A19.37,19.37,0,0,0,698.24,75.8c-.5,0-12.2-.52-24-.69H674A19.39,19.39,0,0,0,663.77,78a19.39,19.39,0,0,0-12.21,12.82c-1.2,4.06-2.29,8.16-3.28,12.27a40.56,40.56,0,0,0-10.54-3.18l-.27,0a46.42,46.42,0,0,0-6.63-.48,44.41,44.41,0,0,0-7.94.71,19.38,19.38,0,0,0-15.15-.78,47,47,0,0,1-8.89,2,19.41,19.41,0,0,0-11.78-4,19.21,19.21,0,0,0-5.24.73c-3.37.94-9.35,1.53-15.6,1.53-1.15,0-1.89,0-2,0l-.72,0a19.34,19.34,0,0,0-9.67,2.59c-4.65-.84-10.92-2-17-3.11a18.69,18.69,0,0,0-3.55-.33,19.35,19.35,0,0,0-10.21,2.91,19.48,19.48,0,0,0-7.79,5.09A42.89,42.89,0,0,0,491,99.18h-.41a42.1,42.1,0,0,0-15.73,3.17,47.45,47.45,0,0,0-2.95-5.21C468.79,85.29,462,73,447.19,65.71a54.69,54.69,0,0,0-24.68-5.87A57.81,57.81,0,0,0,396,66.44a63.47,63.47,0,0,0-5.84,2.9C367.38,82,355.34,110.3,358,145a55.89,55.89,0,0,0-4.06-7.81c-6.26-22.65-23.54-37.49-45.43-37.49H307.4c-1.57,0-3.12.15-4.66.34a19.38,19.38,0,0,0-13.87-3.41c-.22,0-2.74.37-6.42.93-.24-.31-.49-.6-.74-.89a34.67,34.67,0,0,0-.8-4.28c0-.1-.06-.2-.08-.3-3.57-13-15.69-21.68-30.18-21.68a37.37,37.37,0,0,0-15.13,3.26c-1,.46-2.07,1-3.06,1.5l-.77.34A34,34,0,0,0,215.9,89.17a17.53,17.53,0,0,0-.19-2.41c0-.35.07-.69.1-1a19.36,19.36,0,0,0-5.88-15.9c-.27-.26-.55-.49-.84-.73a19.39,19.39,0,0,0-19.36-20.3A20.72,20.72,0,0,0,187,49c-14.77,2.09-28.46,4.65-29,4.76a19.22,19.22,0,0,0-6.67,2.59,19.37,19.37,0,0,0-11,9.72,62.75,62.75,0,0,0-29.91-7.48c-1.61,0-3.25.06-4.88.18a52.27,52.27,0,0,0-21.11,5.87C64,73.29,55.32,93.55,55.84,110a49.89,49.89,0,0,0,1.89,12.47,46.85,46.85,0,0,0,10.66,25.76c-3.59,4.94-7.94,11.21-11.52,17.22a19.37,19.37,0,0,0-1.06,17.81A19.36,19.36,0,0,0,59.2,195.2a74.94,74.94,0,0,0,4.59,6c.17.29.35.58.54.86A74.06,74.06,0,0,0,75,214.4c13.39,14.44,31.35,22.07,52,22.07a59.82,59.82,0,0,0,26.81-6.27,18,18,0,0,0,1.52,1.64,19.43,19.43,0,0,0,17.12,4.94c1-.2,2.67-.5,4.68-.82a19.37,19.37,0,0,0-.68,9.77c6.15,32.54,5.53,78,1.12,98.36a19.3,19.3,0,0,0,1.25,12,19.39,19.39,0,0,0,6.81,15.68,19.42,19.42,0,0,0,6,7.57,19.3,19.3,0,0,0,9,6.61c12.88,4.58,26.23,5.54,35.16,5.54a116.78,116.78,0,0,0,13.84-.81c0,.28,0,.55.05.83a19.43,19.43,0,0,0,6.77,13.06,19.37,19.37,0,0,0,5.94,7.48l.09.07a19.45,19.45,0,0,0,3.75,3.78c.48.36,11.77,8.94,23.6,17.52a19.38,19.38,0,0,0,27.48-4.9c13.67-20.38,23.35-53,32.71-84.54,4.63-15.59,9-30.31,13.37-41.81a19.33,19.33,0,0,0,1.26-7.33A19.69,19.69,0,0,0,367,298.2c.31.36.65.69,1,1-.87,18.72-2.94,39.26-5.58,53.2a19.33,19.33,0,0,0,1.34,11.49,19.43,19.43,0,0,0,6.77,15.67l0,0a19.35,19.35,0,0,0,5.09,6.79c.3.27.62.52.93.76a19.75,19.75,0,0,0,2.91,3.09,19.39,19.39,0,0,0,19.15,3.51c8.21-2.95,20.63-3.63,24.7-3.65A19.39,19.39,0,0,0,438,383.44l.17-.21a60.2,60.2,0,0,0,30.92,10.12h.14c.71,0,1.43,0,2.15,0h0a61.38,61.38,0,0,0,43.75-18.9c9.35-9.67,20.29-27.09,19.54-55.3a104.39,104.39,0,0,0-.49-13.63c-1.61-16.09-5.88-29.32-11.78-39.87-4-12.38-10-22.25-16.95-29.73A46.42,46.42,0,0,0,530,224.42a37.93,37.93,0,0,0,20.34,9.16,53.67,53.67,0,0,0,6.77.44,48.38,48.38,0,0,0,7.26-.54A19.37,19.37,0,0,0,573.9,236a19.71,19.71,0,0,0,4.1-.44,78.34,78.34,0,0,1,11.63-1.46,19.42,19.42,0,0,0,11.24,3.61h.57c1.63,0,3.39-.07,5.23-.07,8.63,0,16.52.53,16.77.54.45,0,.9.05,1.34.05a19.4,19.4,0,0,0,12.65-4.69c4.66.67,10.73,1.61,16.48,2.66a18.26,18.26,0,0,0,3.51.32,19.43,19.43,0,0,0,15.52-7.79,39,39,0,0,0,16.48,7.13,44,44,0,0,0,8,.73h0c18,0,40.33-12.5,44.19-47.75A19.79,19.79,0,0,0,741.48,183.86ZM378,206.1a60.11,60.11,0,0,0,9.87,11.67c.69.75,1.4,1.47,2.12,2.19a33.46,33.46,0,0,0-16.39,10.71,299.07,299.07,0,0,0-16.4,31.51,19.33,19.33,0,0,0-1.14,3.5c-.23-.48-.47-1-.74-1.42a19.39,19.39,0,0,0-13.66-9.46c-8.76-1.44-18.54-3.1-22.49-3.77-.79-5.19-1.5-11-2.11-17.22a45.1,45.1,0,0,0,30.76-14.36c9.87-10.52,15.47-26.39,15.32-43C366.28,188.46,371.21,198.28,378,206.1Z"/>
    <g>
      <path class="cls-3" d="M722.22,152.39c0-.25.06-.5.08-.76a19.38,19.38,0,0,0-11.16-19.72,19.33,19.33,0,0,0,1-6.25,100.69,100.69,0,0,1,1.55-15.23,19.12,19.12,0,0,0,.11-6.4,19.4,19.4,0,0,0-9.53-19.66,18.17,18.17,0,0,0-.2-2.2A19.39,19.39,0,0,0,685.77,60c-.5,0-12.2-.53-24-.7h-.28a19.38,19.38,0,0,0-10.23,2.91A19.41,19.41,0,0,0,639.09,75c-1.2,4.06-2.29,8.17-3.28,12.28a40.56,40.56,0,0,0-10.54-3.18L625,84a47.9,47.9,0,0,0-6.63-.47,44.41,44.41,0,0,0-7.94.7,19.38,19.38,0,0,0-15.15-.78,46.93,46.93,0,0,1-8.89,2,19.34,19.34,0,0,0-17-3.29c-3.37.95-9.35,1.54-15.6,1.54-1.15,0-1.89,0-2,0h-.72a19.43,19.43,0,0,0-9.67,2.58c-4.65-.84-10.92-2-17-3.11a19.3,19.3,0,0,0-13.76,2.59,19.35,19.35,0,0,0-7.79,5.08,42.88,42.88,0,0,0-24.25-7.48h-.41a41.8,41.8,0,0,0-17.37,3.88C458.4,73.74,452,58.39,434.72,49.86A54.82,54.82,0,0,0,410,44a57.69,57.69,0,0,0-26.49,6.61,61,61,0,0,0-5.84,2.9c-22.81,12.67-34.85,41-32.22,75.7,1.88,26,9.46,44.65,23.16,57.1a60,60,0,0,0,16.24,12.52,50,50,0,0,0,12.67,4.52c-1.78-.06-3.55-.1-5.28-.1-4.11,0-8.14.17-12.32.52a19.31,19.31,0,0,0-8.61,2.84,19.41,19.41,0,0,0-10.19,8.22,299.78,299.78,0,0,0-16.4,31.52,19.49,19.49,0,0,0-1.14,3.49c-.23-.48-.47-1-.74-1.41A19.4,19.4,0,0,0,329.22,239c-11.25-1.84-24.17-4-24.3-4.07a18.92,18.92,0,0,0-3.27-.28c-.44,0-.88,0-1.32.05a19.28,19.28,0,0,0,.1-6.3,19.42,19.42,0,0,0-.05-6c-1-5.87-1.83-12.64-2.55-20A45.15,45.15,0,0,0,328.59,188c10.33-11,16-27.88,15.28-45.3.09-2.27.07-4.53-.06-6.8-1.87-30.64-21.53-52-47.82-52l-1.06,0c-1.57,0-3.12.15-4.66.34a19.57,19.57,0,0,0-13.87-3.42c-.23,0-3,.42-7,1a35,35,0,0,0-.91-5.25c0-.1-.06-.2-.08-.3-3.57-13-15.69-21.68-30.18-21.68a37.2,37.2,0,0,0-15.13,3.26c-1,.45-2.07,1-3.06,1.5l-.77.33A33,33,0,0,0,199.6,83.11c-1.94-.32-3.62-.63-4.8-.87.49-7.89,1.08-15.44,1.76-22.3a20.14,20.14,0,0,0-.1-4.66l.09-1A19.39,19.39,0,0,0,177.26,33a19.13,19.13,0,0,0-2.72.19c-14.77,2.09-28.46,4.65-29,4.75a19.42,19.42,0,0,0-6.67,2.59,19.41,19.41,0,0,0-11,9.72,62.86,62.86,0,0,0-29.91-7.47c-1.61,0-3.25.06-4.88.17A52.43,52.43,0,0,0,72,48.78C51.51,57.45,42.85,77.7,43.37,94.16c.36,13.38,5.55,24.91,15.43,34.33-3.89,5.2-9.79,13.39-14.4,21.13a19.37,19.37,0,0,0,.68,20.94,73.54,73.54,0,0,0,10.67,12.37C69.14,197.37,87.1,205,107.76,205a59.82,59.82,0,0,0,26.81-6.28,16.78,16.78,0,0,0,1.52,1.64,19.41,19.41,0,0,0,17.12,4.95c3.55-.71,14.53-2.53,22.68-2.53h.48a19.44,19.44,0,0,0,4.16,3.37,18.68,18.68,0,0,0-3.88,1.84A19.4,19.4,0,0,0,164,229.89c6.15,32.54,5.53,77.95,1.12,98.35a19.43,19.43,0,0,0,7.31,19.61,19.36,19.36,0,0,0,9,6.61C194.33,359,207.67,360,216.6,360a111.93,111.93,0,0,0,20.22-1.76,19.4,19.4,0,0,0,6.38,22.33l.09.07a19.18,19.18,0,0,0,3.76,3.77c.47.36,11.76,9,23.59,17.52a19.4,19.4,0,0,0,27.49-4.9c13.66-20.38,23.34-53,32.7-84.53,4.63-15.59,9-30.31,13.37-41.82a19.45,19.45,0,0,0,1.27-7.32,19,19,0,0,0,2.32,3.38,19.16,19.16,0,0,0,3.08,2.9c.24.32.5.63.76.94a19.41,19.41,0,0,0,4.25,3.71c-.54,20.84-2.84,46.05-5.92,62.3a19.39,19.39,0,0,0,6.46,18.36c.3.26.62.51.94.75a19.39,19.39,0,0,0,22.05,6.6c8.21-2.94,20.64-3.63,24.7-3.64A19.42,19.42,0,0,0,418.76,352l.17-.21a60.29,60.29,0,0,0,30.92,10.12H450c.71,0,1.43,0,2.15,0h0A61.36,61.36,0,0,0,495.89,343c9.36-9.67,20.3-27.1,19.54-55.3a104.6,104.6,0,0,0-.49-13.64C510,225,480.36,202.26,455,202h-.84A53.47,53.47,0,0,0,429,208.25a57.51,57.51,0,0,0-9.08,5,19.85,19.85,0,0,0-1.81-2.6,19.45,19.45,0,0,0-8.91-6h.52c11.91,0,23.15-3.74,31.64-10.53,1.26-1,2.45-2,3.61-3.06a47.51,47.51,0,0,0,33.93,14h0c1,0,2.08,0,3.16-.11a46.89,46.89,0,0,0,28.71-12,37.84,37.84,0,0,0,20.34,9.15,52,52,0,0,0,6.77.45,48.38,48.38,0,0,0,7.26-.54,19.48,19.48,0,0,0,9.49,2.48,19.8,19.8,0,0,0,4.11-.44,78,78,0,0,1,11.62-1.46,19.44,19.44,0,0,0,11.25,3.6h.57c1.62,0,3.38-.07,5.22-.07,8.63,0,16.52.53,16.77.55.45,0,.9.05,1.35.05a19.35,19.35,0,0,0,12.64-4.7c4.66.68,10.73,1.62,16.48,2.67a19.1,19.1,0,0,0,3.51.32,19.43,19.43,0,0,0,15.52-7.79,39.11,39.11,0,0,0,16.49,7.13,44.71,44.71,0,0,0,8,.73h0c18,0,40.33-12.51,44.19-47.75A19.79,19.79,0,0,0,722.22,152.39Z"/>
      <path class="cls-4" d="M729,168c0-.25,0-.5.08-.76a19.39,19.39,0,0,0-11.16-19.72,19.32,19.32,0,0,0,1-6.25,101.72,101.72,0,0,1,1.55-15.23,19.45,19.45,0,0,0,.12-6.41A19.44,19.44,0,0,0,711.1,100a20.2,20.2,0,0,0-.2-2.2,19.41,19.41,0,0,0-18.35-22.21c-.49,0-12.19-.53-23.95-.7h-.29a19.37,19.37,0,0,0-10.22,2.91,19.43,19.43,0,0,0-12.22,12.82c-1.2,4.06-2.28,8.17-3.27,12.28a40.69,40.69,0,0,0-10.55-3.19l-.26,0a48.12,48.12,0,0,0-6.63-.47,44.41,44.41,0,0,0-7.94.7,19.38,19.38,0,0,0-15.15-.78,47.11,47.11,0,0,1-8.89,2,19.36,19.36,0,0,0-11.78-4,19.59,19.59,0,0,0-5.24.72c-3.37,1-9.35,1.54-15.6,1.54-1.15,0-1.9,0-2,0h-.71a19.33,19.33,0,0,0-9.67,2.58c-4.65-.84-10.92-2-17-3.11a19.32,19.32,0,0,0-13.77,2.59,19.39,19.39,0,0,0-7.78,5.08A42.88,42.88,0,0,0,485.35,99h-.41a41.8,41.8,0,0,0-17.37,3.88c-2.38-13.48-8.78-28.83-26.06-37.36a54.82,54.82,0,0,0-24.68-5.87,57.77,57.77,0,0,0-26.5,6.61,62,62,0,0,0-5.83,2.9c-22.81,12.67-34.85,41-32.23,75.7,1.89,25.95,9.47,44.65,23.16,57.09a60,60,0,0,0,16.25,12.53A49.77,49.77,0,0,0,404.34,219c-1.78-.06-3.54-.1-5.28-.1-4.11,0-8.14.17-12.32.52A31,31,0,0,0,368,230.45,297.65,297.65,0,0,0,351.55,262a19.49,19.49,0,0,0-1.14,3.49c-.23-.48-.47-.95-.74-1.41A19.4,19.4,0,0,0,336,254.58c-11.24-1.84-24.16-4.05-24.29-4.07a19,19,0,0,0-3.27-.28c-.44,0-.88,0-1.32.05a19.56,19.56,0,0,0,.1-6.3,19.42,19.42,0,0,0-.05-6c-1-5.87-1.83-12.64-2.55-20a45.12,45.12,0,0,0,30.76-14.37c10.33-11,16-27.87,15.28-45.29q.12-3.41-.06-6.8c-1.87-30.64-21.53-52-47.82-52l-1.06,0a44.82,44.82,0,0,0-4.66.34,19.34,19.34,0,0,0-13.87-3.42c-.23,0-3,.42-7.05,1a35,35,0,0,0-.91-5.25l-.09-.3c-3.56-13-15.69-21.68-30.17-21.68a37.2,37.2,0,0,0-15.13,3.26,33.34,33.34,0,0,0-3.06,1.5l-.78.33a33,33,0,0,0-19.61,23.45c-1.94-.32-3.62-.63-4.8-.87.49-7.89,1.08-15.44,1.76-22.3a19.6,19.6,0,0,0-.11-4.66c0-.34.07-.69.1-1A19.39,19.39,0,0,0,184,48.59a19.1,19.1,0,0,0-2.71.19c-14.78,2.09-28.46,4.64-29,4.75a19.42,19.42,0,0,0-6.67,2.59,19.37,19.37,0,0,0-11,9.72,62.75,62.75,0,0,0-29.92-7.47c-1.6,0-3.24.06-4.87.17a52.39,52.39,0,0,0-21.11,5.87c-20.44,8.67-29.1,28.92-28.58,45.38a47.74,47.74,0,0,0,15.42,34.33c-3.88,5.2-9.78,13.39-14.4,21.13a19.39,19.39,0,0,0,.68,20.94,74.46,74.46,0,0,0,10.68,12.37c13.39,14.44,31.35,22.07,52,22.07a59.82,59.82,0,0,0,26.81-6.28,16.78,16.78,0,0,0,1.52,1.64A19.41,19.41,0,0,0,160,220.94c3.54-.71,14.53-2.53,22.68-2.53h.48a19.44,19.44,0,0,0,4.16,3.37,18.68,18.68,0,0,0-3.88,1.84,19.39,19.39,0,0,0-12.65,21.91c6.15,32.53,5.53,78,1.12,98.35a19.41,19.41,0,0,0,7.31,19.61,19.36,19.36,0,0,0,9,6.61c12.88,4.57,26.23,5.53,35.16,5.53a111.93,111.93,0,0,0,20.22-1.76A19.4,19.4,0,0,0,250,396.19l.09.07a19.41,19.41,0,0,0,3.75,3.77c.48.36,11.77,9,23.6,17.52a19.38,19.38,0,0,0,27.48-4.9c13.67-20.38,23.35-53,32.71-84.53,4.63-15.59,9-30.31,13.37-41.82a19.24,19.24,0,0,0,1.26-7.32,20.08,20.08,0,0,0,2.32,3.38,19.65,19.65,0,0,0,3.09,2.9c.24.32.49.63.76.94a19.59,19.59,0,0,0,4.24,3.71c-.53,20.84-2.83,46-5.91,62.3a19.37,19.37,0,0,0,6.46,18.36c.3.26.62.51.94.75a19.72,19.72,0,0,0,2.9,3.1,19.41,19.41,0,0,0,19.15,3.5c8.21-2.94,20.63-3.63,24.7-3.64a19.42,19.42,0,0,0,14.65-6.68l.17-.21a60.19,60.19,0,0,0,30.92,10.11h.14c.71,0,1.43,0,2.15,0h0a61.41,61.41,0,0,0,43.75-18.89c9.35-9.67,20.29-27.1,19.54-55.3a104.6,104.6,0,0,0-.49-13.64c-4.92-49.14-34.59-71.83-60-72.11h-.84a53.44,53.44,0,0,0-25.12,6.27,57.51,57.51,0,0,0-9.08,5A19,19,0,0,0,416,220.27l.52,0c11.91,0,23.14-3.74,31.64-10.53,1.26-1,2.45-2,3.6-3.06a47.55,47.55,0,0,0,33.94,14h0c1,0,2.09,0,3.17-.11a46.84,46.84,0,0,0,28.71-12,37.78,37.78,0,0,0,20.34,9.16,51.89,51.89,0,0,0,6.77.45,48.38,48.38,0,0,0,7.26-.54,19.47,19.47,0,0,0,9.49,2.47,19.06,19.06,0,0,0,4.1-.44,79.66,79.66,0,0,1,11.63-1.45,19.41,19.41,0,0,0,11.24,3.6H589c1.63,0,3.39-.07,5.23-.07,8.63,0,16.52.53,16.77.55.45,0,.9,0,1.34,0A19.35,19.35,0,0,0,625,217.64c4.66.68,10.73,1.62,16.48,2.67a19.1,19.1,0,0,0,3.51.32,19.43,19.43,0,0,0,15.52-7.79A39.07,39.07,0,0,0,677,220a44.9,44.9,0,0,0,8,.73h0c18,0,40.33-12.51,44.19-47.75A19.79,19.79,0,0,0,729,168Z"/>
      <path class="cls-5" d="M723.87,161.19l.09-.76A19.41,19.41,0,0,0,712.8,140.7a19.53,19.53,0,0,0,1-6.24,100.71,100.71,0,0,1,1.55-15.24,19.39,19.39,0,0,0,.12-6.4A19.37,19.37,0,0,0,706,93.17a18.15,18.15,0,0,0-.2-2.21,19.39,19.39,0,0,0-18.34-22.21c-.49,0-12.2-.52-23.95-.69h-.29A19.36,19.36,0,0,0,653,71a19.38,19.38,0,0,0-12.22,12.82c-1.2,4.06-2.28,8.16-3.27,12.27a40.73,40.73,0,0,0-10.55-3.18l-.27,0a46.38,46.38,0,0,0-6.62-.48,44.41,44.41,0,0,0-7.94.71,19.4,19.4,0,0,0-15.16-.78,47,47,0,0,1-8.88,2,19.43,19.43,0,0,0-11.78-4A19.21,19.21,0,0,0,571,91c-3.38.94-9.36,1.53-15.6,1.53-1.16,0-1.9,0-2,0l-.72,0A19.39,19.39,0,0,0,543,95.06c-4.64-.84-10.92-2-17-3.11a18.72,18.72,0,0,0-3.56-.33,19.38,19.38,0,0,0-10.21,2.91,19.55,19.55,0,0,0-7.79,5.09,42.86,42.86,0,0,0-24.24-7.49h-.42A42,42,0,0,0,462.43,96c-2.37-13.48-8.78-28.82-26.05-37.35a54.73,54.73,0,0,0-24.69-5.87,57.81,57.81,0,0,0-26.49,6.6,62,62,0,0,0-5.83,2.9c-22.81,12.68-34.86,41-32.23,75.7,1.89,26,9.46,44.66,23.16,57.1a60.55,60.55,0,0,0,16.24,12.53,50,50,0,0,0,12.67,4.51c-1.78-.06-3.55-.1-5.28-.1-4.11,0-8.14.17-12.32.52A19.33,19.33,0,0,0,373,215.4a19.35,19.35,0,0,0-10.18,8.22,298.14,298.14,0,0,0-16.41,31.51,20.14,20.14,0,0,0-1.14,3.5c-.22-.48-.47-1-.73-1.42a19.43,19.43,0,0,0-13.67-9.46c-11.24-1.85-24.16-4.06-24.29-4.08a20.05,20.05,0,0,0-3.27-.28c-.44,0-.89,0-1.33.05a19.22,19.22,0,0,0,.11-6.29,19.42,19.42,0,0,0,0-6c-1-5.87-1.83-12.65-2.56-20a45.12,45.12,0,0,0,30.77-14.37c10.32-11,16-27.88,15.27-45.3.09-2.27.07-4.53-.06-6.8-1.86-30.63-21.52-52-47.81-52h-1.06c-1.57,0-3.13.15-4.67.34a19.35,19.35,0,0,0-13.86-3.41c-.23,0-3,.41-7.05,1a34.09,34.09,0,0,0-.92-5.26c0-.1,0-.2-.08-.3-3.56-13-15.69-21.68-30.18-21.68a37.32,37.32,0,0,0-15.12,3.26c-1.05.46-2.07,1-3.07,1.5l-.77.34a33,33,0,0,0-19.61,23.45c-1.95-.32-3.63-.64-4.8-.88.49-7.89,1.08-15.43,1.75-22.3a19,19,0,0,0-.1-4.65c0-.35.07-.69.1-1a19.4,19.4,0,0,0-19.3-21.3,20.57,20.57,0,0,0-2.71.19c-14.78,2.09-28.47,4.65-29,4.76a19.14,19.14,0,0,0-6.67,2.59,19.34,19.34,0,0,0-11,9.72,62.79,62.79,0,0,0-29.92-7.48c-1.61,0-3.25.06-4.87.18a52.18,52.18,0,0,0-21.11,5.87C53.17,66.24,44.51,86.5,45,103a47.76,47.76,0,0,0,15.43,34.33c-3.89,5.19-9.78,13.38-14.4,21.12a19.39,19.39,0,0,0,.68,20.94,74.06,74.06,0,0,0,10.68,12.37c13.39,14.45,31.35,22.07,52,22.07a59.79,59.79,0,0,0,26.81-6.27,21.38,21.38,0,0,0,1.52,1.64,19.45,19.45,0,0,0,17.13,4.94c3.54-.7,14.52-2.53,22.68-2.53H178a19.16,19.16,0,0,0,4.16,3.36,19.75,19.75,0,0,0-3.88,1.84,19.41,19.41,0,0,0-12.66,21.91c6.15,32.54,5.53,77.95,1.13,98.36a19.39,19.39,0,0,0,7.3,19.6,19.31,19.31,0,0,0,9,6.61c12.88,4.58,26.23,5.54,35.16,5.54A111.73,111.73,0,0,0,238.47,367a19.39,19.39,0,0,0,6.38,22.32l.1.07a19.45,19.45,0,0,0,3.75,3.78c.48.36,11.76,8.94,23.59,17.52a19.39,19.39,0,0,0,27.49-4.9c13.67-20.38,23.35-53,32.71-84.54,4.62-15.59,9-30.31,13.37-41.81a19.5,19.5,0,0,0,1.26-7.32,19.06,19.06,0,0,0,2.32,3.37,19.59,19.59,0,0,0,3.08,2.9c.25.32.5.64.77.95a19.05,19.05,0,0,0,4.24,3.7c-.53,20.84-2.84,46.06-5.92,62.3a19.4,19.4,0,0,0,6.46,18.37c.31.26.62.51.94.75a19.45,19.45,0,0,0,15.51,7.74,19.55,19.55,0,0,0,6.55-1.14c8.2-2.95,20.63-3.63,24.7-3.64a19.36,19.36,0,0,0,14.64-6.69,1.73,1.73,0,0,0,.17-.21,60.2,60.2,0,0,0,30.92,10.12h.14c.72,0,1.44,0,2.15,0h0a61.35,61.35,0,0,0,43.74-18.9c9.36-9.67,20.3-27.09,19.55-55.3a104.41,104.41,0,0,0-.5-13.63c-4.91-49.15-34.58-71.83-60-72.11h-.83a53.37,53.37,0,0,0-25.13,6.28,56.62,56.62,0,0,0-9.07,5,18.66,18.66,0,0,0-1.82-2.6,19.29,19.29,0,0,0-8.91-6h.53c11.91,0,23.14-3.73,31.64-10.52,1.26-1,2.44-2,3.6-3.07a47.53,47.53,0,0,0,33.94,14h0c1,0,2.08,0,3.16-.11a46.89,46.89,0,0,0,28.71-12,38,38,0,0,0,20.35,9.16,53.63,53.63,0,0,0,6.76.44,48.51,48.51,0,0,0,7.27-.54,19.3,19.3,0,0,0,9.48,2.48,19.08,19.08,0,0,0,4.11-.44A78.17,78.17,0,0,1,572,211.38,19.32,19.32,0,0,0,583.27,215h.57c1.63,0,3.39-.07,5.23-.07,8.63,0,16.51.53,16.76.54.45,0,.9.05,1.35.05a19.44,19.44,0,0,0,12.65-4.69c4.65.67,10.73,1.61,16.47,2.67a20.12,20.12,0,0,0,3.52.32,19.41,19.41,0,0,0,15.51-7.8,39,39,0,0,0,16.49,7.13,44.81,44.81,0,0,0,7.95.74h0c18,0,40.32-12.51,44.18-47.76A19.24,19.24,0,0,0,723.87,161.19Z"/>
      <g>
        <g>
          <path class="cls-4" d="M108,192.15c-17.07,0-32.27-6.83-42.86-22.2a274.1,274.1,0,0,1,17.08-24.42c7.85,15.19,26.64,22.37,33,15.19,5.12-5.63,0-14.68-16.4-22.2C83.19,131.35,67.31,123,66.8,104,66.45,93.1,73,76,94.63,74.48s37.4,11.28,45.43,28.18A176.67,176.67,0,0,0,116,117.52c-2.56-7.34-9-12.81-15-12.81-4.78,0-7.17,3.42-6.66,7.34.68,7.35,7.86,9.91,20.15,14.52,18.28,6.49,28.86,17.93,29.2,32.11C144,181.22,125.2,192.15,108,192.15Z"/>
          <path class="cls-4" d="M190.77,196.07c-1.53-15.71-8-30-16.56-34.66.34,10.59,1,20.32,1.88,28.52-12,0-26.47,2.9-26.47,2.9,4.78-33.47,4.44-89.49-.35-123.64,0,0,13.67-2.56,28.18-4.61-2.22,22.54-3.58,52.26-3.41,79.41,8.36-3.76,14.68-14.69,16.05-30.74,0,0,16.39,3.59,27.15,2.73-2.56,16.23-11.27,30.4-26,38.26,12.47,5.12,23.57,17.41,26.82,33.81A95.18,95.18,0,0,0,190.77,196.07Z"/>
          <path class="cls-4" d="M240.8,109.32c-7.85,2.56-16.22,0-17.93-6.49-1.71-6,1.37-12.12,8.2-15,7.85-3.58,16.91-1,18.78,5.81C251.39,99.59,249.34,106.42,240.8,109.32Zm-15,83.34c3.41-21.52,2.05-53.28-1-74.29A173.36,173.36,0,0,0,249,114.62c-1.37,19.12.17,56.35,2.56,74.62C251.56,189.24,238.92,190.61,225.78,192.66Z"/>
          <path class="cls-4" d="M295.11,189.59a24.62,24.62,0,0,1-18.62-7.86c.68,20.15,2.39,40.47,4.95,56-11.95-4.1-26.47-4.1-26.47-4.1,3.93-31.08,5-84.53,2.74-118,10.24-1.88,21.51-3.42,21.51-3.42-.68,2.91-1,6.49-1.53,10.42a27.53,27.53,0,0,1,17.93-7.17c16.56-.34,27.83,14.17,29,33.81C325.67,167.56,317,189.41,295.11,189.59Zm-10.42-54.65c-7.17,2.73-9.05,13.49-6.15,22,2.73,7.85,10.59,11.1,16.74,7.34,5.46-3.24,6.31-13.15,3.93-20.32C297,137.5,291,132.55,284.69,134.94Z"/>
          <path class="cls-4" d="M429.5,185.49c-10.42,8.36-26.3,7.51-35.35,2.73-12.47-6.66-23.06-19.47-25.28-50-2.39-31.59,9.39-50.2,22.37-57.38,11.1-6.32,23.74-7,35-1.36C440.08,86.27,443,100.78,443,119.57A137.07,137.07,0,0,0,415.66,123c-.68-12.29-3.75-18.78-9.22-18.44-5.29.17-14.51,10.59-14.17,32.11.34,22.88,7.51,30.22,12.29,31.42,6.15,1.36,11.79-4.61,11.79-14A174.15,174.15,0,0,1,445,152.19C445.55,166.7,439.91,177.29,429.5,185.49Z"/>
          <path class="cls-4" d="M480.89,192.15c-10.07.68-26.12-4.27-30.39-24.94-5-23.73,6.66-52.08,28-52.25,15.37-.17,28.69,14.85,30.06,38.42C509.76,173.87,500.19,190.78,480.89,192.15Zm-2.73-51.92c-7.34.69-11.78,12.64-9.9,23.4,1.36,9.05,6.15,12.81,10.76,12.29,6.83-.68,10.41-9.56,9.73-18.61C487.9,146.55,483.29,139.89,478.16,140.23Z"/>
          <path class="cls-4" d="M554.83,191.63c.17-2.56.34-5.29.34-7.85a27.45,27.45,0,0,1-21.34,5.63c-20.84-2.73-26-34.66-12.81-75,12,2.22,24.42,4.44,24.42,4.44-8.37,23.9-8.37,49.18-.17,50.54,3.59.69,7-.68,9.9-4.44-.51-17.07-2-34.83-3.92-49.69,0,0,13.83.51,23.56-2.22-2.56,25.79-2.22,53.45,1.2,76.51A106.72,106.72,0,0,0,554.83,191.63Z"/>
          <path class="cls-4" d="M612.89,188.22c8.37-23.91,6.15-50.38-1-52.43-3.42-1-6.66.34-9.57,4.27.69,19.47,2.05,40.3,3.42,53.79,0,0-12.3-.85-23.91-.51a446.78,446.78,0,0,0-.68-75.65s12.12-.51,21-3.76v7.52a24.72,24.72,0,0,1,20.32-6c20.67,3.24,25.79,32.62,15.89,76.68C626.21,189.93,612.89,188.22,612.89,188.22Z"/>
          <path class="cls-4" d="M673.85,191.81C654,188.22,650.46,160,653.7,130.33c-3.93.17-6.32.34-6.32.34.34-7.69,1.37-14.86,1.37-14.86l7.17-.34a226.92,226.92,0,0,1,5.81-24.59c11.61.17,23.39.68,23.39.68A146.33,146.33,0,0,0,678,114.27l16.91-.85A121,121,0,0,0,693,132.21a171.42,171.42,0,0,0-18.45-1.88c-3.58,21.34-2.56,38.08,1.2,39.45,3.76,1.53,5.81-6.83,5.63-16.74,11.45,3.93,21.86,8.71,21.86,8.71C700.66,185.14,687.85,194.37,673.85,191.81Z"/>
          <path class="cls-4" d="M240.21,344.09c-14,4.27-36.21,4.27-52.09-1.36,5.13-23.74,5.47-71.73-1-106,27.32-7.52,62.5-6.15,66.77,22.2,2,13.49-5.64,24.42-16.91,29.71,11.62,2.05,20.84,7.51,23.57,21.52C264,328,254,339.82,240.21,344.09Zm-29.55-83.85c1,7,1.71,15,2.22,23.06,9.57-1.54,16.91-5.64,17.42-12.64C230.82,262.12,223.3,257.34,210.66,260.24Zm2.91,40.31c.34,8.7.34,16.9,0,23.22,15.88,1.54,23.05-4.44,22-12.81C234.74,303.79,227.06,299.69,213.57,300.55Z"/>
          <path class="cls-4" d="M282.21,392.76C270.43,384.22,259,375.51,259,375.51c9.39-10.24,17.76-23.9,24.42-39.1-16.57-32.45-27.33-60.63-27.33-60.63a236.66,236.66,0,0,1,26.47-2.73s3.08,20.32,10.25,38.08a213.56,213.56,0,0,0,9.05-44.91s13,2.22,24.42,4.1C313,305.33,300.66,365.27,282.21,392.76Z"/>
          <path class="cls-4" d="M373.05,350.58c4.44-23.39,7.52-65.06,6-88.8,0,0-6,1-12.47,2.73a281.4,281.4,0,0,1,15.2-29.2,131.11,131.11,0,0,1,21.69,0c-3.07,32.62-3.07,82.82.86,110.49C404.31,345.8,386.37,345.8,373.05,350.58Z"/>
          <path class="cls-4" d="M450.93,349c-22.55-1-45.09-20.49-41-60.11,3.59-35,23.06-55.67,44.91-55.33,15.54.17,37.06,15.37,41,54.65C500.11,330.43,473.3,349.9,450.93,349Zm2-90.5c-8.71.34-17.59,14.68-18.44,29.88-1,18.1,5,32.62,17.76,33.13,14,.68,20.49-13.83,19.47-33C471.08,273.22,463.39,258.19,453,258.54Z"/>
        </g>
        <g>
          <path class="cls-3" d="M108,186.46c-17.08,0-32.28-6.83-42.86-22.2a275,275,0,0,1,17.07-24.42c7.86,15.2,26.64,22.37,33,15.2,5.13-5.63,0-14.68-16.39-22.2-15.54-7.17-31.42-15.54-31.94-34.49-.34-10.93,6.15-28,27.84-29.55S132,80.07,140.05,97A176.16,176.16,0,0,0,116,111.84C113.41,104.49,106.92,99,101,99c-4.78,0-7.17,3.41-6.66,7.34.68,7.35,7.85,9.91,20.15,14.52,18.27,6.49,28.86,17.93,29.2,32.1C144,175.54,125.2,186.46,108,186.46Z"/>
          <path class="cls-3" d="M190.77,190.39c-1.54-15.71-8-30-16.56-34.67.34,10.59,1,20.33,1.87,28.52-12,0-26.47,2.91-26.47,2.91,4.78-33.47,4.44-89.49-.34-123.64,0,0,13.66-2.56,28.18-4.61-2.22,22.54-3.59,52.25-3.42,79.41,8.37-3.76,14.69-14.69,16.06-30.74,0,0,16.39,3.58,27.15,2.73-2.56,16.22-11.27,30.4-26,38.25,12.47,5.13,23.57,17.42,26.81,33.82A94.82,94.82,0,0,0,190.77,190.39Z"/>
          <path class="cls-3" d="M240.8,103.64c-7.85,2.56-16.22,0-17.93-6.49-1.71-6,1.37-12.12,8.2-15,7.85-3.58,16.9-1,18.78,5.81C251.39,93.91,249.34,100.74,240.8,103.64Zm-15,83.34c3.42-21.52,2-53.28-1-74.29A172.76,172.76,0,0,0,249,108.93c-1.37,19.13.17,56.36,2.56,74.63C251.56,183.56,238.92,184.93,225.77,187Z"/>
          <path class="cls-3" d="M295.1,183.9a24.61,24.61,0,0,1-18.61-7.85c.68,20.15,2.39,40.47,4.95,56C269.49,228,255,228,255,228c3.93-31.08,5-84.53,2.73-118,10.25-1.88,21.52-3.42,21.52-3.42-.68,2.91-1,6.49-1.54,10.42a27.56,27.56,0,0,1,17.94-7.17c16.56-.34,27.83,14.17,29,33.81C325.67,161.87,317,183.73,295.1,183.9Zm-10.41-54.64c-7.18,2.73-9.06,13.49-6.15,22,2.73,7.86,10.59,11.11,16.73,7.35,5.47-3.25,6.32-13.15,3.93-20.32C297,131.82,291,126.86,284.69,129.26Z"/>
          <path class="cls-3" d="M429.49,179.8c-10.42,8.37-26.3,7.52-35.35,2.74-12.46-6.66-23.05-19.47-25.27-50-2.39-31.59,9.39-50.21,22.37-57.38,11.1-6.32,23.74-7,35-1.37C440.08,80.59,443,95.1,443,113.89a137,137,0,0,0-27.32,3.41C415,105,411.9,98.52,406.44,98.86c-5.3.17-14.52,10.59-14.18,32.1.34,22.89,7.52,30.23,12.3,31.43,6.15,1.36,11.78-4.62,11.78-14A174.77,174.77,0,0,1,445,146.5C445.54,161,439.91,171.61,429.49,179.8Z"/>
          <path class="cls-3" d="M480.89,186.46c-10.07.69-26.13-4.27-30.4-24.93-4.95-23.74,6.66-52.08,28-52.26,15.37-.17,28.69,14.86,30.06,38.43C509.75,168.19,500.19,185.1,480.89,186.46Zm-2.73-51.91c-7.34.68-11.78,12.64-9.91,23.4,1.37,9.05,6.15,12.8,10.76,12.29,6.83-.68,10.42-9.56,9.74-18.61C487.89,140.87,483.28,134.21,478.16,134.55Z"/>
          <path class="cls-3" d="M554.83,186c.17-2.56.34-5.29.34-7.85a27.46,27.46,0,0,1-21.34,5.63c-20.84-2.73-26-34.66-12.81-75,12,2.22,24.42,4.44,24.42,4.44-8.37,23.91-8.37,49.19-.17,50.55,3.58.68,7-.68,9.9-4.44-.51-17.08-2-34.84-3.93-49.69,0,0,13.84.51,23.57-2.22-2.56,25.78-2.22,53.45,1.2,76.5A107.15,107.15,0,0,0,554.83,186Z"/>
          <path class="cls-3" d="M612.89,182.54c8.37-23.91,6.15-50.38-1-52.43-3.41-1-6.66.34-9.56,4.27.68,19.47,2.05,40.3,3.42,53.79,0,0-12.3-.85-23.91-.51a446.77,446.77,0,0,0-.68-75.65s12.12-.51,21-3.76v7.51a24.71,24.71,0,0,1,20.32-6c20.67,3.24,25.79,32.62,15.88,76.67C626.21,184.24,612.89,182.54,612.89,182.54Z"/>
          <path class="cls-3" d="M673.85,186.12c-19.81-3.58-23.4-31.76-20.15-61.47-3.93.17-6.32.34-6.32.34.34-7.69,1.36-14.86,1.36-14.86l7.18-.34a224.64,224.64,0,0,1,5.8-24.59c11.62.17,23.4.68,23.4.68A144.93,144.93,0,0,0,678,108.59l16.9-.85A120.84,120.84,0,0,0,693,126.52a173.51,173.51,0,0,0-18.44-1.87c-3.59,21.34-2.56,38.08,1.2,39.44,3.75,1.54,5.8-6.83,5.63-16.73,11.44,3.92,21.86,8.71,21.86,8.71C700.66,179.46,687.85,188.68,673.85,186.12Z"/>
          <path class="cls-3" d="M240.2,338.41c-14,4.27-36.2,4.27-52.08-1.37,5.12-23.73,5.46-71.72-1-106,27.33-7.51,62.51-6.14,66.78,22.2,2,13.49-5.64,24.42-16.91,29.72,11.61,2,20.83,7.51,23.57,21.52C263.94,322.36,254,334.14,240.2,338.41Zm-29.54-83.85c1,7,1.71,15,2.22,23.05,9.56-1.53,16.91-5.63,17.42-12.63C230.81,256.44,223.3,251.66,210.66,254.56Zm2.9,40.3c.35,8.71.35,16.91,0,23.23,15.89,1.53,23.06-4.44,22-12.81C234.74,298.11,227.06,294,213.56,294.86Z"/>
          <path class="cls-3" d="M282.21,387.08C270.43,378.54,259,369.83,259,369.83c9.4-10.24,17.77-23.91,24.43-39.11-16.57-32.44-27.33-60.62-27.33-60.62a236.32,236.32,0,0,1,26.47-2.73s3.08,20.32,10.25,38.08a214.2,214.2,0,0,0,9.05-44.91s13,2.22,24.42,4.1C313,299.64,300.65,359.59,282.21,387.08Z"/>
          <path class="cls-3" d="M373.05,344.9c4.44-23.4,7.51-65.07,6-88.8,0,0-6,1-12.47,2.73a279.19,279.19,0,0,1,15.2-29.2,130,130,0,0,1,21.69,0c-3.08,32.61-3.08,82.82.85,110.49C404.3,340.12,386.37,340.12,373.05,344.9Z"/>
          <path class="cls-3" d="M450.92,343.36c-22.54-1-45.08-20.49-41-60.11,3.58-35,23.05-55.67,44.91-55.33,15.54.17,37.06,15.37,41,54.65C500.1,324.75,473.29,344.22,450.92,343.36ZM453,252.85c-8.71.34-17.59,14.69-18.44,29.89-1,18.1,5,32.62,17.76,33.13,14,.68,20.49-13.83,19.47-33C471.07,267.54,463.39,252.51,453,252.85Z"/>
        </g>
        <g>
          <path class="cls-6" d="M104.11,188.3c-17.08,0-32.28-6.83-42.87-22.2a274.1,274.1,0,0,1,17.08-24.42c7.85,15.2,26.64,22.37,33,15.2,5.12-5.64,0-14.69-16.4-22.2-15.54-7.17-31.42-15.54-31.93-34.5-.34-10.93,6.15-28,27.84-29.54s37.39,11.27,45.42,28.18a177.22,177.22,0,0,0-24.08,14.85c-2.56-7.34-9-12.8-15-12.8-4.78,0-7.17,3.41-6.66,7.34.69,7.34,7.86,9.9,20.15,14.51,18.28,6.49,28.87,17.94,29.21,32.11C140.14,177.37,121.35,188.3,104.11,188.3Z"/>
          <path class="cls-6" d="M186.93,192.23c-1.54-15.71-8-30.06-16.57-34.67.34,10.59,1,20.32,1.88,28.52-12,0-26.47,2.9-26.47,2.9,4.78-33.47,4.44-89.48-.34-123.64,0,0,13.66-2.56,28.18-4.61-2.22,22.55-3.59,52.26-3.42,79.41,8.37-3.75,14.69-14.68,16.05-30.74,0,0,16.4,3.59,27.16,2.74-2.57,16.22-11.28,30.39-26,38.25,12.47,5.12,23.56,17.42,26.81,33.81A94.89,94.89,0,0,0,186.93,192.23Z"/>
          <path class="cls-6" d="M237,105.48c-7.86,2.56-16.23,0-17.93-6.49-1.71-6,1.36-12.13,8.19-15,7.86-3.59,16.91-1,18.79,5.8C247.55,95.74,245.5,102.57,237,105.48Zm-15,83.33c3.41-21.51,2-53.28-1-74.28a174.25,174.25,0,0,0,24.24-3.76c-1.36,19.13.18,56.35,2.57,74.63C247.72,185.4,235.08,186.76,221.93,188.81Z"/>
          <path class="cls-6" d="M291.26,185.74a24.58,24.58,0,0,1-18.61-7.86c.68,20.15,2.39,40.48,5,56-12-4.1-26.47-4.1-26.47-4.1,3.93-31.08,4.95-84.53,2.73-118,10.25-1.87,21.52-3.41,21.52-3.41-.69,2.9-1,6.49-1.54,10.42a27.54,27.54,0,0,1,17.93-7.18c16.57-.34,27.84,14.18,29,33.82C321.83,163.71,313.12,185.57,291.26,185.74Zm-10.42-54.65c-7.17,2.73-9,13.49-6.15,22,2.74,7.86,10.59,11.1,16.74,7.34,5.46-3.24,6.32-13.14,3.93-20.32C293.14,133.65,287.16,128.7,280.84,131.09Z"/>
          <path class="cls-6" d="M425.65,181.64c-10.42,8.37-26.3,7.51-35.35,2.73-12.47-6.66-23.06-19.47-25.28-50-2.39-31.6,9.4-50.21,22.38-57.38,11.09-6.32,23.73-7,35-1.37,13.84,6.83,16.74,21.35,16.74,40.13a136.51,136.51,0,0,0-27.32,3.42c-.69-12.3-3.76-18.79-9.23-18.45-5.29.18-14.51,10.59-14.17,32.11.34,22.88,7.51,30.23,12.3,31.42,6.14,1.37,11.78-4.61,11.78-14a174.77,174.77,0,0,1,28.69-1.88C441.7,162.86,436.07,173.44,425.65,181.64Z"/>
          <path class="cls-6" d="M477.05,188.3c-10.08.68-26.13-4.27-30.4-24.93-4.95-23.74,6.66-52.09,28-52.26,15.37-.17,28.69,14.86,30,38.43C505.91,170,496.34,186.93,477.05,188.3Zm-2.73-51.91c-7.35.68-11.79,12.63-9.91,23.39,1.37,9.05,6.15,12.81,10.76,12.3,6.83-.69,10.42-9.57,9.73-18.62C484.05,142.7,479.44,136,474.32,136.39Z"/>
          <path class="cls-6" d="M551,187.79c.17-2.56.34-5.3.34-7.86A27.52,27.52,0,0,1,530,185.57c-20.83-2.73-26-34.67-12.81-75,12,2.22,24.42,4.44,24.42,4.44-8.36,23.91-8.36,49.18-.17,50.55,3.59.68,7-.69,9.91-4.44-.51-17.08-2.05-34.84-3.93-49.7,0,0,13.83.51,23.57-2.22-2.56,25.79-2.22,53.45,1.19,76.51A107,107,0,0,0,551,187.79Z"/>
          <path class="cls-6" d="M609,184.37c8.37-23.91,6.15-50.38-1-52.42-3.41-1-6.66.34-9.56,4.27.68,19.46,2,40.3,3.41,53.79,0,0-12.29-.86-23.9-.51a447.93,447.93,0,0,0-.69-75.66s12.13-.51,21-3.75v7.51a24.76,24.76,0,0,1,20.32-6c20.66,3.25,25.79,32.62,15.88,76.68C622.37,186.08,609,184.37,609,184.37Z"/>
          <path class="cls-6" d="M670,188c-19.81-3.59-23.39-31.76-20.15-61.48-3.92.17-6.32.34-6.32.34.35-7.68,1.37-14.86,1.37-14.86l7.17-.34A227.48,227.48,0,0,1,657.88,87c11.61.17,23.4.69,23.4.69a144.65,144.65,0,0,0-7.18,22.71l16.91-.86a121,121,0,0,0-1.88,18.79,174.09,174.09,0,0,0-18.44-1.88c-3.59,21.35-2.56,38.08,1.19,39.45,3.76,1.54,5.81-6.83,5.64-16.74,11.44,3.93,21.86,8.71,21.86,8.71C696.82,181.3,684,190.52,670,188Z"/>
          <path class="cls-6" d="M236.36,340.25c-14,4.27-36.2,4.27-52.09-1.37,5.13-23.74,5.47-71.72-1-106,27.32-7.51,62.5-6.15,66.77,22.2,2,13.49-5.63,24.42-16.9,29.72,11.61,2,20.83,7.51,23.56,21.51C260.1,324.19,250.19,336,236.36,340.25ZM206.82,256.4c1,7,1.7,15,2.22,23.05,9.56-1.54,16.9-5.63,17.42-12.64C227,258.28,219.45,253.49,206.82,256.4Zm2.9,40.3c.34,8.71.34,16.91,0,23.22,15.88,1.54,23.06-4.44,22-12.8C230.9,299.94,223.21,295.84,209.72,296.7Z"/>
          <path class="cls-6" d="M278.37,388.92c-11.79-8.54-23.23-17.25-23.23-17.25,9.39-10.25,17.76-23.91,24.42-39.11-16.56-32.45-27.32-60.62-27.32-60.62a237.71,237.71,0,0,1,26.47-2.74s3.07,20.33,10.25,38.09A214.16,214.16,0,0,0,298,262.37s13,2.22,24.42,4.1C309.11,301.48,296.81,361.42,278.37,388.92Z"/>
          <path class="cls-6" d="M369.21,346.74c4.44-23.4,7.51-65.07,6-88.81,0,0-6,1-12.47,2.74a279.94,279.94,0,0,1,15.2-29.21,131.11,131.11,0,0,1,21.69,0c-3.08,32.62-3.08,82.83.85,110.49C400.46,342,382.53,342,369.21,346.74Z"/>
          <path class="cls-6" d="M447.08,345.2c-22.54-1-45.08-20.49-41-60.11,3.59-35,23.06-55.68,44.92-55.33,15.54.17,37.06,15.37,41,54.64C496.26,326.58,469.45,346.05,447.08,345.2Zm2.05-90.51c-8.71.34-17.59,14.69-18.45,29.88-1,18.11,5,32.62,17.76,33.13,14,.69,20.5-13.83,19.47-32.95C467.23,269.38,459.55,254.35,449.13,254.69Z"/>
        </g>
      </g>
    </g>
  </g>
  <g class="cls-7">
    <g class="cls-8">
      <rect class="cls-9" x="-4564.31" y="-1367.81" width="5400" height="2050"/>
      <g>
        <g>
          <g class="cls-10">
            <g class="cls-11">
              <path class="cls-12" d="M240.77,283.26l.59,6A1.92,1.92,0,0,0,242.9,291l5.93,1.21-6,.59a1.94,1.94,0,0,0-1.7,1.54l-1.21,5.93-.59-6a1.94,1.94,0,0,0-1.54-1.71l-5.93-1.21,6-.59a1.94,1.94,0,0,0,1.71-1.54Z"/>
            </g>
            <path class="cls-12" d="M657.81,327.84l-2.22,5.59a1.93,1.93,0,0,0,.58,2.21l4.68,3.77-5.58-2.22a1.92,1.92,0,0,0-2.22.58l-3.77,4.68,2.23-5.59a1.94,1.94,0,0,0-.58-2.21l-4.69-3.77,5.59,2.23a1.94,1.94,0,0,0,2.21-.58Z"/>
            <path class="cls-12" d="M457.94,155.17l-1,8.76a2.84,2.84,0,0,0,1.66,2.92l8.07,3.58-8.76-1a2.82,2.82,0,0,0-2.92,1.66l-3.58,8.07,1-8.77a2.82,2.82,0,0,0-1.66-2.92l-8.07-3.58,8.77,1.05a2.85,2.85,0,0,0,2.92-1.66Z"/>
            <path class="cls-13" d="M761.1,152.15l1.82,5.74a2,2,0,0,0,1.86,1.34l6-.06L765.06,161a1.9,1.9,0,0,0-1.34,1.85l0,6L762,163.13a1.93,1.93,0,0,0-1.85-1.34l-6,.05,5.73-1.82a1.92,1.92,0,0,0,1.34-1.85Z"/>
            <path class="cls-12" d="M765.26,318.93l-4.82,6.43a2.55,2.55,0,0,0,0,3.05l4.72,6.5-6.43-4.82a2.55,2.55,0,0,0-3.05,0l-6.51,4.72,4.83-6.43a2.58,2.58,0,0,0,0-3.05l-4.72-6.5,6.43,4.82a2.58,2.58,0,0,0,3,0Z"/>
            <g class="cls-14">
              <path class="cls-12" d="M468,412.27l1.75,6.83a2.24,2.24,0,0,0,2.08,1.69l7,.34-6.83,1.75a2.25,2.25,0,0,0-1.69,2.08L470,432l-1.75-6.84a2.26,2.26,0,0,0-2.08-1.69l-7.05-.34,6.83-1.75a2.27,2.27,0,0,0,1.7-2.08Z"/>
            </g>
            <path class="cls-12" d="M567.46,456.66l-2.42,5.5a1.92,1.92,0,0,0,.5,2.23l4.54,3.94-5.5-2.42a1.91,1.91,0,0,0-2.23.5L558.41,471l2.43-5.5a1.93,1.93,0,0,0-.51-2.23l-4.54-3.94,5.5,2.42a1.92,1.92,0,0,0,2.23-.5Z"/>
            <path class="cls-12" d="M532.91,308.42l1.36,5.86a1.92,1.92,0,0,0,1.74,1.48l6,.43-5.86,1.36a1.93,1.93,0,0,0-1.49,1.74l-.42,6-1.36-5.86a1.92,1.92,0,0,0-1.74-1.49l-6-.42,5.86-1.36a1.93,1.93,0,0,0,1.48-1.74Z"/>
          </g>
          <g class="cls-15">
            <path class="cls-12" d="M131.57,170.56a1.91,1.91,0,1,1-1.91-1.91A1.91,1.91,0,0,1,131.57,170.56Z"/>
            <path class="cls-12" d="M335.76,278.15a1.91,1.91,0,1,1-1.91-1.91A1.91,1.91,0,0,1,335.76,278.15Z"/>
            <path class="cls-12" d="M155.41,410.48a1.91,1.91,0,1,1-1.91-1.91A1.92,1.92,0,0,1,155.41,410.48Z"/>
            <path class="cls-12" d="M386.53,316a1.91,1.91,0,1,1-1.91-1.91A1.91,1.91,0,0,1,386.53,316Z"/>
            <path class="cls-12" d="M485.13,188.92a1.91,1.91,0,1,1-1.91-1.91A1.9,1.9,0,0,1,485.13,188.92Z"/>
            <path class="cls-12" d="M607.61,213.66a1.91,1.91,0,1,1-1.91-1.9A1.9,1.9,0,0,1,607.61,213.66Z"/>
            <path class="cls-12" d="M640,278.39a1.91,1.91,0,1,1-1.91-1.91A1.92,1.92,0,0,1,640,278.39Z"/>
            <path class="cls-12" d="M644.19,381.56a1.91,1.91,0,1,1-1.91-1.9A1.91,1.91,0,0,1,644.19,381.56Z"/>
            <path class="cls-12" d="M703.5,433.21a1.91,1.91,0,1,1-1.9-1.91A1.9,1.9,0,0,1,703.5,433.21Z"/>
            <path class="cls-16" d="M679.65,110.54a1.91,1.91,0,1,1-1.91-1.91A1.91,1.91,0,0,1,679.65,110.54Z"/>
            <path class="cls-12" d="M283.28,149a1.91,1.91,0,1,1-1.91-1.91A1.91,1.91,0,0,1,283.28,149Z"/>
            <path class="cls-17" d="M205.84,205.12a1.91,1.91,0,1,1-1.91-1.9A1.91,1.91,0,0,1,205.84,205.12Z"/>
          </g>
        </g>
        <g>
          <g class="cls-10">
            <path class="cls-13" d="M623.87,11.93l-1.57,5.81a1.92,1.92,0,0,0,.83,2.13l5.08,3.21-5.8-1.57a1.91,1.91,0,0,0-2.13.83l-3.21,5.08,1.57-5.8a2,2,0,0,0-.83-2.14l-5.09-3.21,5.81,1.57a1.91,1.91,0,0,0,2.13-.83Z"/>
          </g>
          <g class="cls-15">
            <path class="cls-17" d="M365.21.46a1.91,1.91,0,1,1-3.82,0,1.91,1.91,0,0,1,3.82,0Z"/>
            <circle class="cls-12" cx="112.78" cy="56.52" r="1.91"/>
            <path class="cls-12" d="M643,65.9A1.91,1.91,0,1,1,641.1,64,1.91,1.91,0,0,1,643,65.9Z"/>
          </g>
        </g>
      </g>
      <g class="cls-18">
        <path class="cls-19" d="M994.62,91.17c-58.08,35.34-101.1,90.94-156.7,130.06-29.4,20.68-65.55,37-100.55,28.82S677.11,211.37,644,197.47c-21.27-8.94-44.93-10.63-68-9.55a304.59,304.59,0,0,0-189.82,79c-6.39-12.73,3.16-27.5,13-37.78,15.23-15.88,32.4-29.78,49.77-43.29C533.34,120.27,624.46,62.46,723.5,22.41s206.39-62,313-55c27.62,1.81,148.5,8.86,113.39,62.62-13.42,20.56-48,19.37-69.44,25.24C1050.45,63.49,1021.24,75,994.62,91.17Z"/>
      </g>
      <g>
        <path class="cls-20" d="M147.12,428.57c2.46,2.4-72.44,82.94-76.78,87.37S60.49,522,58,519.63s-.92-7.94,3.42-12.38S144.67,426.17,147.12,428.57Z"/>
        <path class="cls-20" d="M812.4,31.13c2.46,2.4-72.44,82.94-76.78,87.37s-9.85,6.09-12.31,3.69-.92-7.94,3.42-12.38S810,28.73,812.4,31.13Z"/>
      </g>
    </g>
  </g>
</svg>
