<svg id="Layer_1" data-name="Layer 1" xmlns="http://www.w3.org/2000/svg" xmlns:xlink="http://www.w3.org/1999/xlink" width="703.06" height="389.24" viewBox="0 0 703.06 389.24">
  <defs>
    <style>
      .cls-1 {
        fill: none;
      }

      .cls-2 {
        fill: #0b245e;
      }

      .cls-3 {
        fill: #1a43b7;
        stroke: #113fa5;
        stroke-miterlimit: 10;
        stroke-width: 5px;
      }

      .cls-4 {
        fill: #fff;
      }

      .cls-5 {
        fill: #ffe315;
      }

      .cls-6 {
        clip-path: url(#clip-path);
      }

      .cls-7 {
        clip-path: url(#clip-path-2);
      }

      .cls-8 {
        fill: #191c3f;
      }

      .cls-9 {
        opacity: 0.57;
      }

      .cls-10 {
        opacity: 0.8;
      }

      .cls-11 {
        opacity: 0.76;
      }

      .cls-12 {
        fill: #f4edf9;
      }

      .cls-13 {
        opacity: 0.78;
      }

      .cls-14 {
        opacity: 0.7;
      }

      .cls-15 {
        fill: #a0e6f9;
      }

      .cls-16 {
        fill: #c8c2ff;
        opacity: 0.5;
      }
    </style>
    <clipPath id="clip-path">
      <rect class="cls-1" x="2769.24" y="-1257.76" width="1600" height="900"/>
    </clipPath>
    <clipPath id="clip-path-2">
      <rect class="cls-1" x="-6207.6" y="-1492.45" width="10800" height="2050"/>
    </clipPath>
  </defs>
  <g>
    <path class="cls-2" d="M664.18,108.39c8.93-9.54,8.75-40.33-6-45.15A19.77,19.77,0,0,0,655,48.55c-3.92-5.72-4.62-5.78-16.75-5.95h-.33c-9.89,0-18.62,6.08-21.43,15q-1.89,6-3.44,12l-.4.24A46.41,46.41,0,0,0,601,66.51l-.31,0a54.46,54.46,0,0,0-7.18-.48,52.08,52.08,0,0,0-7.82.59,23.77,23.77,0,0,0-16.74-.53,45.64,45.64,0,0,1-7.7,1.65A23.46,23.46,0,0,0,548.45,64a23.89,23.89,0,0,0-6,.78c-3.28.86-9.18,1.39-15.41,1.39-1.13,0-1.86,0-2,0h-.82a23.61,23.61,0,0,0-10.36,2.38c-4.68-.79-10.76-1.83-16.67-2.85a23.75,23.75,0,0,0-4.1-.36,23,23,0,0,0-17.46,7.9,48.87,48.87,0,0,0-26-7.4h-.44a48.64,48.64,0,0,0-16.07,2.84C430.15,55.83,423,41.86,405.54,33.79A62.18,62.18,0,0,0,379,27.9a65.39,65.39,0,0,0-30.46,7.68c-15.11,7.85-25.78,21.64-31,39.19a50.06,50.06,0,0,0-27.83-8.13h-1.15c-1.39,0-2.76.12-4.13.25a23.77,23.77,0,0,0-15.2-3.18c-.19,0-2.05.26-4.89.65a30.52,30.52,0,0,0-.68-3.06l-.09-.34c-4-13.46-17.37-22.5-33.36-22.5a43.11,43.11,0,0,0-16.53,3.33c-11.62,4.71-19.4,13.91-21.61,24.35-1.63-.24-3.13-.49-4.36-.7.54-8.75,1.22-17.16,2-24.83A20.16,20.16,0,0,0,183,23.49a23.44,23.44,0,0,0-18.58-5.6c-15.27,2-29.4,4.48-30,4.58A22.12,22.12,0,0,0,118,34.66a70.74,70.74,0,0,0-32.17-7.57c-1.71,0-3.45.06-5.18.17C47.22,29.48,30.5,54.05,31.27,77.09c.42,14.59,6.87,25.26,15.16,33.15-4,5-9.42,12.2-13.77,19a19.76,19.76,0,0,0,.79,22.56c14.44,19.61,36.65,30.4,62.52,30.4a67.9,67.9,0,0,0,27-5.53l.49.46a23.23,23.23,0,0,0,15.38,5.73,24.7,24.7,0,0,0,4.35-.4l.61-.11A20.26,20.26,0,0,0,135,203.14c6.28,31,5.66,74.32,1.17,93.75-2.37,10.27,3.78,20.58,14.37,24.1,13.58,4.5,27.61,5.45,37,5.45a122.85,122.85,0,0,0,23-2.07,19.75,19.75,0,0,0-1.84,10.34,20.57,20.57,0,0,0,8.72,14.76c.49.35,12.12,8.63,24.32,16.89a23.58,23.58,0,0,0,17,3.65,22.49,22.49,0,0,0,14.63-8.93C283.79,346.61,291.92,326,299.31,304c9.78,15.36,27.65,24.42,50.48,24.42l2,0C371.05,328,388,320.69,399.64,308c10.76-11.81,16.41-27.91,15.92-45.35,0,0,0-.08,0-.12a55.72,55.72,0,0,0-10.17-31.06,19.77,19.77,0,0,0,2.44-10.12c-.19-6.19,2.05-18.27,3.52-24.41a19.93,19.93,0,0,0-4.75-18,21.63,21.63,0,0,0-2.87-2.63,49.77,49.77,0,0,0,9.06-5.35c.76-.56,1.49-1.14,2.21-1.72a54.11,54.11,0,0,0,34.95,12.72c1.12,0,2.25,0,3.43-.11A53,53,0,0,0,482.85,171,43.16,43.16,0,0,0,503.38,179a60.18,60.18,0,0,0,7.29.45,54.3,54.3,0,0,0,7-.45,23.82,23.82,0,0,0,14.94,1.84,82.89,82.89,0,0,1,10.81-1.32A23.46,23.46,0,0,0,555.66,183h.66c1.65-.05,3.44-.07,5.32-.07,8.78,0,16.8.5,17.08.52.52,0,1,.05,1.55.05a23.37,23.37,0,0,0,13.71-4.4c4.62.64,10.38,1.48,15.83,2.41a23.37,23.37,0,0,0,20.42-6.36c5.88,3.63,4.74,1.91,7.58,1.91,19.49,0,35.06-12,39.21-47.4C678.06,120.7,672.89,112.16,664.18,108.39Z"/>
    <path class="cls-3" d="M647,108.66a20,20,0,0,0,2.17-9.06A91.26,91.26,0,0,1,650.53,86a20,20,0,0,0-8.89-20.52,20,20,0,0,0-18.87-23.26c-.45,0-11.26-.48-22.12-.64h-.3a20,20,0,0,0-19.18,14.34c-1.12,3.81-2.15,7.65-3.07,11.49l-.36.23a39.19,39.19,0,0,0-10.46-3.16l-.28,0a44.92,44.92,0,0,0-6.42-.46,42.84,42.84,0,0,0-7,.57,19.94,19.94,0,0,0-15-.51,39.74,39.74,0,0,1-6.88,1.58,19.94,19.94,0,0,0-16.83-2.84,58.88,58.88,0,0,1-13.79,1.33c-1,0-1.67,0-1.77,0h-.74a19.89,19.89,0,0,0-9.27,2.28c-4.19-.76-9.63-1.75-14.92-2.73a19.94,19.94,0,0,0-19.3,7.22,41.63,41.63,0,0,0-23.28-7.09h-.4A41,41,0,0,0,417,66.43c-2.62-12.23-9-25.6-24.65-33.32a52.54,52.54,0,0,0-23.72-5.65,55.57,55.57,0,0,0-27.26,7.35c-13.52,7.52-23.07,20.73-27.78,37.52a42.69,42.69,0,0,0-24.91-7.78h-1q-1.86,0-3.69.24a20,20,0,0,0-10.9-3.23,20.67,20.67,0,0,0-2.71.18c-.17,0-1.84.25-4.37.63-.17-1-.36-2-.61-2.94l-.09-.32c-3.54-12.88-15.54-21.54-29.85-21.54a36.42,36.42,0,0,0-14.8,3.19,32.46,32.46,0,0,0-19.33,23.31c-1.46-.23-2.8-.46-3.91-.67.48-8.37,1.09-16.42,1.82-23.77a20,20,0,0,0-22.7-21.76c-13.66,1.93-26.32,4.29-26.85,4.39a20,20,0,0,0-14.63,11.67,60,60,0,0,0-28.8-7.25c-1.53,0-3.09,0-4.63.16C71.68,29,56.72,52.5,57.41,74.56A45.56,45.56,0,0,0,71,106.28c-3.56,4.83-8.42,11.68-12.32,18.2a20,20,0,0,0,.71,21.6c12.93,18.77,32.8,29.11,56,29.11a57.39,57.39,0,0,0,24.2-5.3c.14.15.28.3.43.44a20,20,0,0,0,13.77,5.48,19.8,19.8,0,0,0,3.89-.38l.55-.11a20,20,0,0,0-7.91,19.9c5.62,29.71,5.06,71.15,1,89.75A20,20,0,0,0,164.15,308c12.15,4.31,24.7,5.21,33.1,5.21a104,104,0,0,0,20.6-2,20,20,0,0,0,6.15,24c.44.34,10.85,8.26,21.77,16.17a20,20,0,0,0,11.74,3.81A20.81,20.81,0,0,0,261,355a20.05,20.05,0,0,0,13.1-8.55c9.29-13.86,16.57-33.62,23.18-54.62,8.76,14.7,24.75,23.38,45.18,23.38l1.8,0c17.23-.45,32.44-7.41,42.82-19.59,9.63-11.3,14.69-26.72,14.24-43.41v-.11c-.37-11.49-3.63-21.63-9.1-29.73a20,20,0,0,0,2.18-9.7c-.17-5.92,1.84-17.48,3.15-23.37A20,20,0,0,0,393.32,172a19.71,19.71,0,0,0-2.57-2.52,44.27,44.27,0,0,0,8.11-5.12c.68-.54,1.33-1.09,2-1.65a46.55,46.55,0,0,0,31.28,12.18c1,0,2,0,3.06-.1a45.66,45.66,0,0,0,26.4-10.36A37.26,37.26,0,0,0,480,172.13a49.8,49.8,0,0,0,6.52.43,45.17,45.17,0,0,0,6.28-.43,20,20,0,0,0,9.13,2.21,20.37,20.37,0,0,0,4.24-.45,69.51,69.51,0,0,1,9.67-1.26,20,20,0,0,0,11,3.29h.59c1.48,0,3.08-.07,4.76-.07,7.86,0,15,.48,15.29.5.46,0,.92,0,1.38,0A20,20,0,0,0,561,172.18c4.14.61,9.3,1.41,14.17,2.31a20.42,20.42,0,0,0,3.63.33,20,20,0,0,0,14.65-6.43,38.75,38.75,0,0,0,14.44,5.78,43.06,43.06,0,0,0,7.72.71c17.43,0,39.11-12,42.82-45.89A20,20,0,0,0,647,108.66Z"/>
    <g>
      <g>
        <path class="cls-2" d="M119.43,165.53c-15.73,0-29.73-6.29-39.49-20.45a255.74,255.74,0,0,1,15.73-22.49c7.24,14,24.54,20.61,30.36,14,4.72-5.19,0-13.53-15.1-20.45C96.62,109.53,82,101.83,81.52,84.37c-.32-10.07,5.66-25.8,25.64-27.22s34.45,10.38,41.84,26a162.68,162.68,0,0,0-22.18,13.68C124.46,90,118.48,85,113,85c-4.41,0-6.61,3.14-6.14,6.76.63,6.76,7.24,9.12,18.56,13.37,16.84,6,26.59,16.52,26.9,29.57C152.62,155.47,135.31,165.53,119.43,165.53Z"/>
        <path class="cls-2" d="M195.72,169.15c-1.42-14.47-7.39-27.68-15.26-31.93.32,9.75.94,18.72,1.73,26.27-11,0-24.38,2.67-24.38,2.67,4.4-30.83,4.09-82.42-.32-113.88,0,0,12.59-2.36,26-4.25-2,20.76-3.3,48.13-3.15,73.15,7.71-3.47,13.53-13.53,14.79-28.32,0,0,15.1,3.3,25,2.52-2.36,14.94-10.38,28-23.91,35.23,11.48,4.72,21.71,16,24.7,31.15A87.45,87.45,0,0,0,195.72,169.15Z"/>
        <path class="cls-2" d="M241.81,89.24c-7.24,2.36-14.94,0-16.52-6-1.57-5.51,1.26-11.17,7.55-13.85,7.24-3.3,15.58-.94,17.31,5.35C251.56,80.28,249.68,86.57,241.81,89.24ZM228,166c3.14-19.82,1.89-49.08-.95-68.43a160.43,160.43,0,0,0,22.34-3.46c-1.26,17.62.16,51.91,2.36,68.74C251.72,162.86,240.08,164.12,228,166Z"/>
        <path class="cls-2" d="M291.83,163.17a22.64,22.64,0,0,1-17.14-7.23c.63,18.56,2.2,37.28,4.56,51.59-11-3.77-24.39-3.77-24.39-3.77,3.62-28.63,4.57-77.87,2.52-108.7,9.44-1.73,19.82-3.14,19.82-3.14-.63,2.67-.94,6-1.41,9.59a25.31,25.31,0,0,1,16.51-6.6c15.26-.32,25.64,13,26.74,31.14C320,142.88,312,163,291.83,163.17Zm-9.59-50.33c-6.61,2.51-8.34,12.43-5.67,20.29,2.52,7.24,9.76,10.22,15.42,6.76,5-3,5.82-12.11,3.62-18.71C293.56,115.2,288.06,110.64,282.24,112.84Z"/>
      </g>
      <g>
        <path class="cls-2" d="M390.54,159c-9.6,7.71-24.23,6.92-32.56,2.52-11.49-6.14-21.24-17.94-23.28-46.09-2.21-29.11,8.65-46.25,20.6-52.86,10.23-5.82,21.87-6.45,32.25-1.26C400.29,67.64,403,81,403,98.31a126.09,126.09,0,0,0-25.17,3.15c-.63-11.33-3.46-17.31-8.5-17-4.87.15-13.37,9.75-13.05,29.57.31,21.08,6.92,27.84,11.32,28.94,5.67,1.26,10.86-4.24,10.86-12.9a161.4,161.4,0,0,1,26.42-1.73C405.33,141.72,400.13,151.48,390.54,159Z"/>
        <path class="cls-2" d="M437.89,165.16c-9.28.63-24.07-3.93-28-23-4.56-21.87,6.13-48,25.8-48.14,14.15-.16,26.42,13.69,27.68,35.4C464.47,148.33,455.66,163.9,437.89,165.16Zm-2.52-47.82c-6.76.63-10.85,11.64-9.12,21.55,1.26,8.34,5.66,11.8,9.91,11.33,6.29-.63,9.59-8.81,9-17.15C444.34,123.16,440.09,117,435.37,117.34Z"/>
        <path class="cls-2" d="M506,164.69c.16-2.36.32-4.88.32-7.23a25.35,25.35,0,0,1-19.67,5.19c-19.19-2.52-23.91-31.94-11.8-69.06,11,2,22.5,4.09,22.5,4.09-7.71,22-7.71,45.3-.16,46.56,3.31.63,6.45-.63,9.13-4.09-.48-15.73-1.89-32.09-3.62-45.77,0,0,12.74.47,21.71-2-2.36,23.75-2,49.24,1.1,70.47A99.2,99.2,0,0,0,506,164.69Z"/>
        <path class="cls-2" d="M559.49,161.55c7.7-22,5.66-46.41-1-48.3-3.14-.94-6.13.32-8.81,3.94.63,17.93,1.89,37.12,3.15,49.55,0,0-11.33-.79-22-.48a411.84,411.84,0,0,0-.63-69.68s11.17-.47,19.35-3.46V100a22.76,22.76,0,0,1,18.71-5.51c19,3,23.76,30.05,14.63,70.63C571.75,163.12,559.49,161.55,559.49,161.55Z"/>
        <path class="cls-2" d="M615.64,164.85c-18.25-3.3-21.55-29.26-18.56-56.63-3.62.16-5.82.31-5.82.31.31-7.07,1.26-13.68,1.26-13.68l6.6-.32a210.83,210.83,0,0,1,5.35-22.65c10.7.16,21.55.63,21.55.63a133.69,133.69,0,0,0-6.6,20.92L635,92.65a111.49,111.49,0,0,0-1.73,17.3,159.07,159.07,0,0,0-17-1.73c-3.3,19.66-2.36,35.08,1.1,36.34,3.46,1.41,5.35-6.3,5.19-15.42,10.54,3.62,20.14,8,20.14,8C640.34,158.71,628.54,167.21,615.64,164.85Z"/>
      </g>
      <g>
        <path class="cls-2" d="M222.93,300.79c-12.9,3.94-33.35,3.94-48-1.26,4.72-21.86,5-66.06-.94-97.68,25.17-6.92,57.57-5.66,61.5,20.45,1.89,12.43-5.19,22.49-15.57,27.37,10.7,1.89,19.19,6.92,21.71,19.82C244.79,286,235.67,296.86,222.93,300.79Zm-27.21-77.23c.94,6.45,1.57,13.84,2,21.23,8.81-1.41,15.57-5.19,16.05-11.64C214.28,225.29,207.36,220.88,195.72,223.56Zm2.67,37.12c.31,8,.31,15.57,0,21.39,14.63,1.42,21.24-4.09,20.29-11.79C217.9,263.67,210.82,259.89,198.39,260.68Z"/>
        <path class="cls-2" d="M261.63,345.62c-10.86-7.86-21.4-15.88-21.4-15.88,8.66-9.44,16.36-22,22.5-36-15.26-29.88-25.17-55.84-25.17-55.84a218.27,218.27,0,0,1,24.38-2.51s2.83,18.71,9.44,35.07a197.12,197.12,0,0,0,8.34-41.37s11.95,2.05,22.49,3.78C289.94,265.09,278.62,320.3,261.63,345.62Z"/>
        <path class="cls-2" d="M347.87,305.51c-20.45.47-32.87-10.38-33.82-30a190.42,190.42,0,0,1,26.59-8.18c-1.42,18.72,22.65,16.2,20.29-3.93-2-19-29.42-10.86-42.63-1.74-1.1-19.5-.31-40.11.63-57.88,18.4-5.19,45.46-7.55,63.24-8.5,0,0-3.94,17.62-3.62,28.32-11.48-2.52-29.42-2.52-41.06.31-.94,7.4-1.1,13.37-1.1,13.37,28.94-13.21,48.29,1.42,49.08,25.8C386.1,286.79,372.1,304.88,347.87,305.51Z"/>
      </g>
    </g>
    <g>
      <g>
        <path class="cls-4" d="M115.55,156.77c-15.74,0-29.74-6.29-39.49-20.45a251.71,251.71,0,0,1,15.73-22.49c7.24,14,24.54,20.6,30.36,14,4.72-5.19,0-13.53-15.1-20.45C92.74,100.77,78.11,93.06,77.63,75.6c-.31-10.07,5.67-25.8,25.64-27.21s34.45,10.38,41.85,26A163.29,163.29,0,0,0,122.94,88c-2.36-6.77-8.34-11.8-13.85-11.8-4.4,0-6.6,3.15-6.13,6.76.63,6.77,7.24,9.13,18.56,13.38,16.83,6,26.59,16.51,26.9,29.57C148.74,146.7,131.43,156.77,115.55,156.77Z"/>
        <path class="cls-4" d="M191.84,160.39c-1.42-14.47-7.4-27.69-15.26-31.94.31,9.76.94,18.72,1.73,26.27-11,0-24.38,2.68-24.38,2.68,4.4-30.83,4.09-82.43-.32-113.89,0,0,12.59-2.36,26-4.25-2,20.77-3.31,48.14-3.15,73.15C184.13,109,190,98.88,191.21,84.1c0,0,15.1,3.3,25,2.51-2.36,15-10.38,28-23.91,35.24,11.48,4.72,21.71,16,24.7,31.14A87.52,87.52,0,0,0,191.84,160.39Z"/>
        <path class="cls-4" d="M237.93,80.48c-7.24,2.36-15,0-16.52-6C219.84,69,222.67,63.33,229,60.66c7.24-3.31,15.58-.95,17.31,5.35C247.68,71.51,245.79,77.8,237.93,80.48Zm-13.84,76.76c3.14-19.82,1.88-49.08-1-68.43a158.92,158.92,0,0,0,22.34-3.46c-1.26,17.62.16,51.91,2.36,68.75C247.84,154.1,236.2,155.35,224.09,157.24Z"/>
        <path class="cls-4" d="M288,154.41a22.65,22.65,0,0,1-17.15-7.24c.63,18.57,2.21,37.28,4.57,51.6C264.35,195,251,195,251,195c3.62-28.62,4.57-77.86,2.52-108.69,9.44-1.73,19.82-3.15,19.82-3.15-.63,2.68-.94,6-1.42,9.6a25.42,25.42,0,0,1,16.52-6.61c15.26-.31,25.64,13.06,26.74,31.15C316.11,134.12,308.08,154.25,288,154.41Zm-9.6-50.34c-6.6,2.52-8.33,12.43-5.66,20.3,2.52,7.23,9.75,10.22,15.42,6.76,5-3,5.82-12.11,3.61-18.72C289.68,106.43,284.17,101.87,278.35,104.07Z"/>
      </g>
      <g>
        <path class="cls-4" d="M386.66,150.26c-9.6,7.71-24.23,6.92-32.56,2.52-11.49-6.13-21.24-17.93-23.29-46.09-2.2-29.1,8.66-46.25,20.61-52.85,10.23-5.82,21.87-6.45,32.25-1.26,12.74,6.29,15.41,19.66,15.41,37a126,126,0,0,0-25.16,3.15c-.63-11.33-3.47-17.3-8.5-17-4.88.16-13.37,9.75-13.06,29.58.32,21.07,6.93,27.84,11.33,28.94,5.66,1.26,10.85-4.25,10.85-12.9A161.59,161.59,0,0,1,401,119.59C401.44,133,396.25,142.71,386.66,150.26Z"/>
        <path class="cls-4" d="M434,156.4c-9.28.63-24.07-3.93-28-23-4.57-21.86,6.13-48,25.8-48.13C446,85.14,458.23,99,459.49,120.69,460.59,139.57,451.78,155.14,434,156.4Zm-2.52-47.82c-6.76.63-10.85,11.64-9.12,21.55,1.25,8.34,5.66,11.8,9.91,11.32,6.29-.62,9.59-8.8,9-17.14C440.46,114.4,436.21,108.26,431.49,108.58Z"/>
        <path class="cls-4" d="M502.12,155.93c.16-2.36.31-4.88.31-7.24a25.29,25.29,0,0,1-19.66,5.19c-19.19-2.52-23.91-31.93-11.8-69,11,2,22.5,4.09,22.5,4.09-7.71,22-7.71,45.3-.16,46.56,3.3.63,6.45-.63,9.12-4.09-.47-15.73-1.88-32.09-3.62-45.78,0,0,12.75.47,21.71-2-2.36,23.75-2,49.23,1.1,70.47A98.25,98.25,0,0,0,502.12,155.93Z"/>
        <path class="cls-4" d="M555.6,152.78c7.71-22,5.67-46.4-.94-48.29-3.15-.95-6.14.31-8.81,3.93.63,17.93,1.89,37.12,3.15,49.55,0,0-11.33-.79-22-.47a410.91,410.91,0,0,0-.63-69.69s11.17-.47,19.35-3.46v6.93a22.79,22.79,0,0,1,18.72-5.51c19,3,23.75,30,14.63,70.63C567.87,154.35,555.6,152.78,555.6,152.78Z"/>
        <path class="cls-4" d="M611.76,156.08c-18.25-3.3-21.55-29.25-18.56-56.63-3.62.16-5.82.32-5.82.32.31-7.08,1.26-13.69,1.26-13.69l6.6-.31a210.83,210.83,0,0,1,5.35-22.65c10.7.16,21.55.63,21.55.63a134.81,134.81,0,0,0-6.61,20.92l15.58-.79a111.52,111.52,0,0,0-1.73,17.31,159.65,159.65,0,0,0-17-1.74c-3.31,19.67-2.36,35.08,1.1,36.34,3.46,1.42,5.35-6.29,5.19-15.41,10.54,3.61,20.13,8,20.13,8C636.46,150,624.66,158.44,611.76,156.08Z"/>
      </g>
      <g>
        <path class="cls-4" d="M219.05,292c-12.9,3.93-33.35,3.93-48-1.26,4.72-21.86,5-66.07-.94-97.68,25.16-6.93,57.57-5.67,61.5,20.44,1.89,12.43-5.19,22.5-15.57,27.38,10.69,1.88,19.19,6.92,21.71,19.82C240.91,277.24,231.79,288.1,219.05,292Zm-27.22-77.24c.95,6.45,1.58,13.85,2,21.24,8.81-1.42,15.57-5.19,16-11.64C210.4,216.52,203.47,212.12,191.83,214.79Zm2.68,37.13c.31,8,.31,15.57,0,21.39,14.63,1.42,21.23-4.09,20.29-11.8C214,254.91,206.93,251.13,194.51,251.92Z"/>
        <path class="cls-4" d="M257.74,336.86C246.89,329,236.35,321,236.35,321c8.65-9.44,16.36-22,22.5-36-15.26-29.89-25.17-55.84-25.17-55.84a216.93,216.93,0,0,1,24.38-2.52s2.83,18.72,9.44,35.08a197.08,197.08,0,0,0,8.33-41.37s12,2,22.5,3.77C286.06,256.32,274.73,311.53,257.74,336.86Z"/>
        <path class="cls-4" d="M344,296.75c-20.45.47-32.87-10.38-33.82-30.05a190.42,190.42,0,0,1,26.59-8.18c-1.42,18.72,22.65,16.21,20.29-3.93-2.05-19-29.42-10.85-42.63-1.73-1.1-19.51-.32-40.11.63-57.89,18.4-5.19,45.46-7.55,63.23-8.49,0,0-3.93,17.62-3.61,28.31-11.49-2.51-29.42-2.51-41.06.32-.94,7.39-1.1,13.37-1.1,13.37,28.94-13.22,48.29,1.41,49.08,25.8C382.22,278,368.22,296.12,344,296.75Z"/>
      </g>
    </g>
    <g>
      <g>
        <path class="cls-5" d="M114.55,159.77c-15.74,0-29.74-6.29-39.49-20.45a251.71,251.71,0,0,1,15.73-22.49c7.24,14,24.54,20.6,30.36,14,4.72-5.19,0-13.53-15.1-20.45C91.74,103.77,77.11,96.06,76.63,78.6c-.31-10.07,5.67-25.8,25.64-27.21s34.45,10.38,41.85,26A163.29,163.29,0,0,0,121.94,91c-2.36-6.77-8.34-11.8-13.85-11.8-4.4,0-6.6,3.15-6.13,6.76.63,6.77,7.24,9.13,18.56,13.38,16.83,6,26.59,16.51,26.9,29.57C147.74,149.7,130.43,159.77,114.55,159.77Z"/>
        <path class="cls-5" d="M190.84,163.39c-1.42-14.47-7.4-27.69-15.26-31.94.31,9.76.94,18.72,1.73,26.27-11,0-24.38,2.68-24.38,2.68,4.4-30.83,4.09-82.43-.32-113.89,0,0,12.59-2.36,26-4.25-2,20.77-3.31,48.14-3.15,73.15C183.13,112,189,101.88,190.21,87.1c0,0,15.1,3.3,25,2.51-2.36,15-10.38,28-23.91,35.24,11.48,4.72,21.71,16,24.7,31.14A87.52,87.52,0,0,0,190.84,163.39Z"/>
        <path class="cls-5" d="M236.93,83.48c-7.24,2.36-15,0-16.52-6C218.84,72,221.67,66.33,228,63.66c7.24-3.31,15.58-.95,17.31,5.35C246.68,74.51,244.79,80.8,236.93,83.48Zm-13.84,76.76c3.14-19.82,1.88-49.08-1-68.43a158.92,158.92,0,0,0,22.34-3.46c-1.26,17.62.16,51.91,2.36,68.75C246.84,157.1,235.2,158.35,223.09,160.24Z"/>
        <path class="cls-5" d="M287,157.41a22.65,22.65,0,0,1-17.15-7.24c.63,18.57,2.21,37.28,4.57,51.6C263.35,198,250,198,250,198c3.62-28.62,4.57-77.86,2.52-108.69,9.44-1.73,19.82-3.15,19.82-3.15-.63,2.68-.94,6-1.42,9.6a25.42,25.42,0,0,1,16.52-6.61c15.26-.31,25.64,13.06,26.74,31.15C315.11,137.12,307.08,157.25,287,157.41Zm-9.6-50.34c-6.6,2.52-8.33,12.43-5.66,20.3,2.52,7.23,9.75,10.22,15.42,6.76,5-3,5.82-12.11,3.61-18.72C288.68,109.43,283.17,104.87,277.35,107.07Z"/>
      </g>
      <g>
        <path class="cls-5" d="M385.66,153.26c-9.6,7.71-24.23,6.92-32.56,2.52-11.49-6.13-21.24-17.93-23.29-46.09-2.2-29.1,8.66-46.25,20.61-52.85,10.23-5.82,21.87-6.45,32.25-1.26,12.74,6.29,15.41,19.66,15.41,37a126,126,0,0,0-25.16,3.15c-.63-11.33-3.47-17.3-8.5-17-4.88.16-13.37,9.75-13.06,29.58.32,21.07,6.93,27.84,11.33,28.94,5.66,1.26,10.85-4.25,10.85-12.9A161.59,161.59,0,0,1,400,122.59C400.44,136,395.25,145.71,385.66,153.26Z"/>
        <path class="cls-5" d="M433,159.4c-9.28.63-24.07-3.93-28-23-4.57-21.86,6.13-48,25.8-48.13,14.15-.16,26.42,13.68,27.68,35.39C459.59,142.57,450.78,158.14,433,159.4Zm-2.52-47.82c-6.76.63-10.85,11.64-9.12,21.55,1.25,8.34,5.66,11.8,9.91,11.32,6.29-.62,9.59-8.8,9-17.14C439.46,117.4,435.21,111.26,430.49,111.58Z"/>
        <path class="cls-5" d="M501.12,158.93c.16-2.36.31-4.88.31-7.24a25.29,25.29,0,0,1-19.66,5.19c-19.19-2.52-23.91-31.93-11.8-69,11,2,22.5,4.09,22.5,4.09-7.71,22-7.71,45.3-.16,46.56,3.3.63,6.45-.63,9.12-4.09-.47-15.73-1.88-32.09-3.62-45.78,0,0,12.75.47,21.71-2-2.36,23.75-2,49.23,1.1,70.47A98.25,98.25,0,0,0,501.12,158.93Z"/>
        <path class="cls-5" d="M554.6,155.78c7.71-22,5.67-46.4-.94-48.29-3.15-.95-6.14.31-8.81,3.93.63,17.93,1.89,37.12,3.15,49.55,0,0-11.33-.79-22-.47a410.91,410.91,0,0,0-.63-69.69s11.17-.47,19.35-3.46v6.93a22.79,22.79,0,0,1,18.72-5.51c19,3,23.75,30,14.63,70.63C566.87,157.35,554.6,155.78,554.6,155.78Z"/>
        <path class="cls-5" d="M610.76,159.08c-18.25-3.3-21.55-29.25-18.56-56.63-3.62.16-5.82.32-5.82.32.31-7.08,1.26-13.69,1.26-13.69l6.6-.31a210.83,210.83,0,0,1,5.35-22.65c10.7.16,21.55.63,21.55.63a134.81,134.81,0,0,0-6.61,20.92l15.58-.79a111.52,111.52,0,0,0-1.73,17.31,159.65,159.65,0,0,0-17-1.74c-3.31,19.67-2.36,35.08,1.1,36.34,3.46,1.42,5.35-6.29,5.19-15.41,10.54,3.61,20.13,8,20.13,8C635.46,153,623.66,161.44,610.76,159.08Z"/>
      </g>
      <g>
        <path class="cls-5" d="M218.05,295c-12.9,3.93-33.35,3.93-48-1.26,4.72-21.86,5-66.07-.94-97.68,25.16-6.93,57.57-5.67,61.5,20.44,1.89,12.43-5.19,22.5-15.57,27.38,10.69,1.88,19.19,6.92,21.71,19.82C239.91,280.24,230.79,291.1,218.05,295Zm-27.22-77.24c.95,6.45,1.58,13.85,2,21.24,8.81-1.42,15.57-5.19,16-11.64C209.4,219.52,202.47,215.12,190.83,217.79Zm2.68,37.13c.31,8,.31,15.57,0,21.39,14.63,1.42,21.23-4.09,20.29-11.8C213,257.91,205.93,254.13,193.51,254.92Z"/>
        <path class="cls-5" d="M256.74,339.86C245.89,332,235.35,324,235.35,324c8.65-9.44,16.36-22,22.5-36-15.26-29.89-25.17-55.84-25.17-55.84a216.93,216.93,0,0,1,24.38-2.52s2.83,18.72,9.44,35.08a197.08,197.08,0,0,0,8.33-41.37s12,2,22.5,3.77C285.06,259.32,273.73,314.53,256.74,339.86Z"/>
        <path class="cls-5" d="M343,299.75c-20.45.47-32.87-10.38-33.82-30.05a190.42,190.42,0,0,1,26.59-8.18c-1.42,18.72,22.65,16.21,20.29-3.93-2.05-19-29.42-10.85-42.63-1.73-1.1-19.51-.32-40.11.63-57.89,18.4-5.19,45.46-7.55,63.23-8.49,0,0-3.93,17.62-3.61,28.31-11.49-2.51-29.42-2.51-41.06.32-.94,7.39-1.1,13.37-1.1,13.37,28.94-13.22,48.29,1.41,49.08,25.8C381.22,281,367.22,299.12,343,299.75Z"/>
      </g>
    </g>
  </g>
  <g class="cls-6">
    <g class="cls-7">
      <rect class="cls-8" x="-807.6" y="-1492.45" width="5400" height="2050" transform="translate(3784.8 -934.9) rotate(-180)"/>
      <g class="cls-9">
        <g>
          <g class="cls-10">
            <g class="cls-11">
              <path class="cls-12" d="M218.18,158.62l.59,6a1.93,1.93,0,0,0,1.54,1.71l5.93,1.21-6,.59a1.93,1.93,0,0,0-1.71,1.54l-1.21,5.93-.59-6a1.93,1.93,0,0,0-1.54-1.71l-5.93-1.21,6-.59a1.94,1.94,0,0,0,1.71-1.54Z"/>
            </g>
            <path class="cls-12" d="M417.79,386.39l-.16,6a1.93,1.93,0,0,0,1.31,1.87l5.69,1.93-6-.16a1.93,1.93,0,0,0-1.88,1.3l-1.92,5.7.16-6a1.93,1.93,0,0,0-1.31-1.88L408,393.23l6,.17a2,2,0,0,0,1.88-1.31Z"/>
            <path class="cls-12" d="M635.23,203.2,633,208.78a2,2,0,0,0,.58,2.22l4.69,3.77-5.59-2.23a1.94,1.94,0,0,0-2.21.58l-3.77,4.69,2.22-5.59a1.93,1.93,0,0,0-.58-2.21l-4.68-3.77,5.58,2.22a1.94,1.94,0,0,0,2.22-.58Z"/>
            <path class="cls-12" d="M435.36,30.52l-1,8.77A2.8,2.8,0,0,0,436,42.2l8.07,3.58-8.77-1a2.82,2.82,0,0,0-2.91,1.66l-3.58,8.07,1-8.76a2.82,2.82,0,0,0-1.66-2.92l-8.07-3.58,8.76,1a2.81,2.81,0,0,0,2.92-1.66Z"/>
            <g class="cls-13">
              <path class="cls-12" d="M445.42,287.62l1.75,6.84a2.27,2.27,0,0,0,2.08,1.69l7.05.34-6.84,1.75a2.26,2.26,0,0,0-1.69,2.08l-.34,7-1.75-6.83a2.25,2.25,0,0,0-2.08-1.69l-7-.34,6.83-1.75a2.25,2.25,0,0,0,1.69-2.08Z"/>
            </g>
            <path class="cls-12" d="M544.88,332l-2.43,5.51a1.93,1.93,0,0,0,.5,2.23l4.55,3.93L542,341.26a1.93,1.93,0,0,0-2.23.5l-3.93,4.55,2.42-5.51a1.93,1.93,0,0,0-.5-2.23l-4.55-3.94,5.51,2.43a1.93,1.93,0,0,0,2.23-.5Z"/>
            <path class="cls-12" d="M510.32,183.77l1.36,5.86a1.92,1.92,0,0,0,1.74,1.49l6,.42-5.86,1.36a1.93,1.93,0,0,0-1.48,1.74l-.43,6-1.36-5.86a1.92,1.92,0,0,0-1.74-1.48l-6-.43,5.86-1.36a1.93,1.93,0,0,0,1.49-1.74Z"/>
          </g>
          <g class="cls-14">
            <path class="cls-12" d="M109,45.91a1.91,1.91,0,1,1-1.91-1.9A1.91,1.91,0,0,1,109,45.91Z"/>
            <path class="cls-12" d="M313.17,153.51a1.91,1.91,0,1,1-1.91-1.91A1.9,1.9,0,0,1,313.17,153.51Z"/>
            <path class="cls-12" d="M132.82,285.83a1.91,1.91,0,1,1-1.91-1.9A1.9,1.9,0,0,1,132.82,285.83Z"/>
            <path class="cls-12" d="M274.54,344a1.91,1.91,0,1,1-1.91-1.91A1.92,1.92,0,0,1,274.54,344Z"/>
            <path class="cls-12" d="M374.66,350.39a1.91,1.91,0,1,1-1.91-1.91A1.91,1.91,0,0,1,374.66,350.39Z"/>
            <path class="cls-12" d="M363.94,191.34a1.91,1.91,0,1,1-1.9-1.91A1.9,1.9,0,0,1,363.94,191.34Z"/>
            <path class="cls-12" d="M462.55,64.28a1.91,1.91,0,1,1-1.91-1.91A1.92,1.92,0,0,1,462.55,64.28Z"/>
            <path class="cls-12" d="M585,89a1.91,1.91,0,1,1-1.91-1.91A1.92,1.92,0,0,1,585,89Z"/>
            <path class="cls-12" d="M617.41,153.75a1.91,1.91,0,1,1-1.9-1.91A1.9,1.9,0,0,1,617.41,153.75Z"/>
            <path class="cls-12" d="M621.6,256.92a1.91,1.91,0,1,1-1.91-1.91A1.91,1.91,0,0,1,621.6,256.92Z"/>
            <path class="cls-12" d="M680.92,308.56a1.91,1.91,0,1,1-1.91-1.91A1.91,1.91,0,0,1,680.92,308.56Z"/>
            <path class="cls-12" d="M260.69,24.37a1.91,1.91,0,1,1-1.91-1.91A1.91,1.91,0,0,1,260.69,24.37Z"/>
            <path class="cls-15" d="M183.25,80.48a1.91,1.91,0,1,1-1.91-1.91A1.91,1.91,0,0,1,183.25,80.48Z"/>
          </g>
        </g>
      </g>
      <path class="cls-16" d="M685.43-11.43C687.88-9,613,71.5,608.64,75.94s-9.85,6.09-12.3,3.69-.92-7.94,3.42-12.38S683-13.83,685.43-11.43Z"/>
    </g>
  </g>
</svg>
