<svg id="Layer_1" data-name="Layer 1" xmlns="http://www.w3.org/2000/svg" xmlns:xlink="http://www.w3.org/1999/xlink" width="1600" height="900" viewBox="0 0 1600 900">
  <defs>
    <style>
      .cls-1 {
        fill: none;
      }

      .cls-2 {
        clip-path: url(#clip-path);
      }

      .cls-3 {
        fill: #073f20;
      }

      .cls-4 {
        fill: url(#radial-gradient);
      }

      .cls-5 {
        clip-path: url(#clip-path-2);
      }

      .cls-6 {
        clip-path: url(#clip-path-3);
      }

      .cls-7 {
        fill: #191c3f;
      }

      .cls-8 {
        clip-path: url(#clip-path-4);
      }

      .cls-9 {
        clip-path: url(#clip-path-5);
      }

      .cls-10 {
        fill: url(#linear-gradient);
      }
    </style>
    <clipPath id="clip-path">
      <rect class="cls-1" x="172.71" y="-883.29" width="1280" height="720"/>
    </clipPath>
    <radialGradient id="radial-gradient" cx="800" cy="450" r="649.04" gradientUnits="userSpaceOnUse">
      <stop offset="0" stop-color="#61dfff"/>
      <stop offset="0.08" stop-color="#60deff"/>
      <stop offset="0.25" stop-color="#56d6ff"/>
      <stop offset="0.54" stop-color="#3abfff"/>
      <stop offset="0.91" stop-color="#0c9bff"/>
      <stop offset="1" stop-color="#0091ff"/>
    </radialGradient>
    <clipPath id="clip-path-2">
      <rect class="cls-1" y="1019.02" width="1600" height="900"/>
    </clipPath>
    <clipPath id="clip-path-3">
      <rect class="cls-1" x="-5159.06" y="-109.48" width="10800" height="2050"/>
    </clipPath>
    <clipPath id="clip-path-4">
      <rect class="cls-1" x="199.58" y="3191.38" width="1280" height="720"/>
    </clipPath>
    <clipPath id="clip-path-5">
      <rect class="cls-1" x="39.58" y="3101.38" width="1600" height="900"/>
    </clipPath>
    <linearGradient id="linear-gradient" x1="-4777.42" y1="5203.35" x2="-4777.42" y2="-1780.49" gradientUnits="userSpaceOnUse">
      <stop offset="0" stop-color="#a4f2ff"/>
      <stop offset="0.23" stop-color="#69e3ff"/>
      <stop offset="0.45" stop-color="#34d5ff"/>
      <stop offset="0.57" stop-color="#1fd0ff"/>
      <stop offset="0.65" stop-color="#25c3ff"/>
      <stop offset="0.81" stop-color="#36a2ff"/>
      <stop offset="1" stop-color="#4d73ff"/>
    </linearGradient>
  </defs>
  <g class="cls-2">
    <path class="cls-3" d="M1475.81-52.7c21.56-4.92,45.29-12.77,51.56-16.85-13.06-.66-37.18,3.6-57.18,8.19l4.53-1.83c11.4-3.62,20.61-7.11,21.56-8.61,13.68-5.39,24.91-9.68,26.66-10-7.51.32-26.75,4.92-44.75,11.06q-2.84.43-5.69.92c24.52-12.38,51.76-26.6,54.25-29.9-5.2,0-25.5,8.14-46.42,17.69,11-7.53,21.29-15.09,26.35-19.52-5.13,1.63-11.23,3.87-17.63,6.51,5.47-4.91,10.93-9.84,16.19-14.5-1.5-1.21-6.77,1-13.84,5,9.49-9.87,16.1-18.07,15.57-20.77-9.6,7.49-20,15.39-29.87,23.13,6.56-6.67,12.75-13.41,17.67-19a172.62,172.62,0,0,0-17.57,10.74c11.76-16.06,21.37-30.41,22.87-35.16-2.7,1.23-15.61,16.35-29.78,33.58,2.12-3.6,4.17-7.18,6.08-10.63,5.36-6.14,9.88-11.27,12.91-14.59q-4.07,2.58-7.88,5.22a139.47,139.47,0,0,0,7.23-15.74c-.71,1.54-6,9.54-13.1,19.92q-6.4,4.71-12.1,9.49c3-7.77,5.59-15.42,7.59-22.31,1.74-2,3.52-4,5.34-6q-2.37,1.72-4.63,3.5a105.51,105.51,0,0,0,2.43-10.84,169.64,169.64,0,0,0-9.68,16.75c-4.78,4.07-9.22,8.21-13.32,12.37a68.36,68.36,0,0,0-.54-7.28s-.63,1.1-1.66,3c.44-3.33.84-6.68,1.2-10,4.24-11.78,8-23,10.79-32.38-3.16,3.93-6.25,8.17-9.26,12.64.21-4.71.3-9.31.24-13.73-2.2,7-4.54,15.24-6.89,24.17-5.06,8.38-9.82,17.25-14.18,26.17-.52-12.68-1.55-26.2-3.18-39.77,0-7.84-.41-14-1.08-17.32-.31.86-.61,1.78-.9,2.73-.49-3.19-1-6.37-1.57-9.52.06,4.77.11,9.63.15,14.52-4.36,16.71-7.88,42.49-10.07,64.77-.08-2.06-.15-4.14-.23-6.25.43-15.3.21-27.91-1-29.7-.55-18.81-.86-34.2-.53-36.44-2.4,9.2-4.68,34.38-4.94,58.73-.39,2.4-.77,4.83-1.12,7.27-3.76-34.88-8.41-73.83-10.88-78.25-1.86,6.29-.94,34.25,1.23,63.58-3.69-16.53-7.69-32.14-10.39-40.14-.2,6.9-.12,15.21.26,24.06-3-8.7-6.09-17.4-9-25.73-1.67,1.21-1.5,7.66-.16,16.9l-.12,1c-6.48-15.17-12.28-26.17-15.17-26.68,4.17,14.78,8.49,30.68,12.81,45.92-4.44-10.76-9.09-21.11-13-29.41.43,4.37,1.48,10.61,2.92,17.81-.07,1.62-.12,3.23-.15,4.82-11.43-19.64-21.73-35.82-25.82-39.47.28,3.79,11,25.83,23.52,50.29-11.87-16.76-23.89-31.75-29.88-37.4,1,1.18,5.06,7.44,10.62,16.31a220.84,220.84,0,0,0,5.41,21.85c-10.11-9.82-19.9-18.35-27.7-23.38,4.11,7.08,18.91,26.18,35,44.75.38,1,.76,2,1.15,3a92.79,92.79,0,0,0-8.57-4.82c-12.18-12.67-24.13-23.58-29.09-26.41,3.27,6.31,9.1,14.64,15.92,23.43-7.47-4.45-15-8.65-22.5-12.4-.4-.39-.68-.69-.83-.87l.44.67c-6.35-3.18-12.62-6-18.67-8.46,10.36,9.21,24.17,20.39,38.69,31.6,3.87,4,8,8,12.18,12q1.86,2.4,3.77,4.79c-22.92-16.46-48.77-34.53-52.72-35.18,2.62,4.5,18.1,17.79,35.55,31.48-1.41-.49-2.83-1-4.26-1.46-9-4.72-17.18-8.67-22.07-10.6,1.74,1.7,3.68,3.51,5.75,5.38-13.35-4-27.18-7.54-40.82-10.21,10,4,20.32,8.21,30.6,12.45,1.75,2.06,5.41,4.82,10.26,7.93-12.92-3.85-23-5.87-24.86-4,11.09,5.13,22.91,10.77,34.35,16.05-8.81-2.74-17.49-5.09-24.52-6.87a180.33,180.33,0,0,0,17.91,10.86c-19.07-2.86-35.64-4.6-40.22-3.62,2.42,1.87,21.35,6.28,42.64,10.79-16.35-.72-31.71-.35-38.27.83,3-.2,31.85,3.14,56.66,6.22-19.76,2-41.6,5.36-54,10.24,7,1,29.5.82,51-.86a67.85,67.85,0,0,0-21,11.72s1.2,0,3.26,0a254.31,254.31,0,0,0-36.27,18.86c19.45-4.14,48.25-12.6,72.1-20.5,1.21-.15,2.39-.31,3.55-.49a412.23,412.23,0,0,0-71.65,53.36c43.09-27.72,95.23-59.15,105.31-65.21.34.38.67.72,1,1,.49-1,2.38-4.41,2.88-5.39h0c.41-.75.85-1.55,1.07-2a10.71,10.71,0,0,0-1.52-.35c-.11-.25-.22-.53-.35-.84,6.94,3,12.08,5.24,14.79,6.43-.06.61-.1,1.19-.11,1.72,1.2-.23,5.49-.87,6.69-1.09h0l2.48-.4a15.91,15.91,0,0,0-.87-1.77c.36-.82.83-1.87,1.41-3.14q1.2-2.28,2.57-5.09c2.09-1.84,4.52-4.16,7.2-6.84-.06,4.63-.1,8.11-.13,10.18-.47.11-.91.23-1.31.35.54,1,2.33,4.54,2.86,5.53h0c.39.77.82,1.6,1,2a10.11,10.11,0,0,0,1-1.21l2.75.4c1.37.3,2.88.6,4.53.91,16.82,11.22,66,34.46,80.81,42.22a210.57,210.57,0,0,0-54.39-36.24,303,303,0,0,1,57.38,22.54,179.06,179.06,0,0,0-36-22.51c17.8,1.6,36.09,2.68,49.54,2.61-16.66-7.4-37.3-12.28-56.34-15.05M1455.71-99l-.18.26s0-.07,0-.11l.14-.15m2.49-25.87c-2.89,5.86-5.86,12.13-8.68,18.38.53-2.75.93-5.53,1.22-8.34q3.55-5,7.46-10m-100.8-2c2.85,4.64,5.77,9.41,8.66,14.15.11,1,.24,2,.37,3-.41-.44-.82-.88-1.24-1.31-2.57-5.35-5.19-10.69-7.79-15.86"/>
    <path class="cls-3" d="M1686.09-44.93c17-3.88,35.69-10.07,40.63-13.28-10.29-.53-29.3,2.83-45.06,6.45l3.57-1.44c9-2.86,16.25-5.61,17-6.79,10.78-4.25,19.64-7.63,21-7.86-5.92.25-21.09,3.87-35.28,8.71-1.48.23-3,.47-4.49.73,19.33-9.76,40.81-21,42.77-23.57-4.1,0-20.1,6.41-36.59,13.94,8.7-5.93,16.78-11.89,20.77-15.38-4.05,1.28-8.85,3-13.9,5.13,4.32-3.87,8.62-7.75,12.76-11.43-1.18-1-5.33.76-10.91,4,7.48-7.78,12.69-14.24,12.28-16.37-7.57,5.9-15.75,12.13-23.55,18.23,5.18-5.26,10.06-10.57,13.93-14.94a136.51,136.51,0,0,0-13.85,8.46c9.27-12.65,16.85-24,18-27.71-2.13,1-12.31,12.88-23.48,26.46,1.68-2.83,3.29-5.65,4.8-8.37,4.23-4.84,7.78-8.89,10.18-11.5-2.14,1.35-4.21,2.73-6.22,4.11a108.13,108.13,0,0,0,5.7-12.4c-.56,1.21-4.75,7.51-10.32,15.7q-5.05,3.7-9.54,7.48c2.33-6.13,4.41-12.16,6-17.59,1.37-1.58,2.77-3.17,4.21-4.75q-1.86,1.37-3.65,2.76a83.88,83.88,0,0,0,1.92-8.55,131.28,131.28,0,0,0-7.63,13.21c-3.77,3.2-7.27,6.47-10.5,9.75a55.21,55.21,0,0,0-.43-5.74l-1.31,2.35c.35-2.63.67-5.27.95-7.89,3.34-9.29,6.31-18.11,8.5-25.52-2.49,3.09-4.92,6.44-7.3,10,.17-3.71.24-7.34.19-10.83-1.73,5.49-3.57,12-5.43,19.06-4,6.6-7.74,13.59-11.17,20.63-.41-10-1.22-20.66-2.51-31.35a84.61,84.61,0,0,0-.85-13.66c-.24.68-.48,1.4-.71,2.16q-.58-3.78-1.24-7.51.08,5.65.12,11.45c-3.43,13.17-6.21,33.49-7.94,51.05-.06-1.62-.12-3.27-.18-4.92.34-12.06.17-22-.76-23.42-.44-14.82-.68-26.95-.42-28.72-1.89,7.26-3.69,27.1-3.9,46.29-.3,1.9-.6,3.81-.88,5.74-3-27.5-6.63-58.2-8.57-61.68-1.47,4.95-.74,27,1,50.11-2.91-13-6.07-25.33-8.19-31.64-.16,5.44-.1,12,.2,19-2.39-6.86-4.8-13.72-7-20.28-1.32,1-1.19,6-.13,13.31l-.09.78c-5.11-12-9.68-20.63-12-21,3.29,11.65,6.69,24.18,10.09,36.2-3.49-8.49-7.16-16.65-10.22-23.19.34,3.45,1.17,8.36,2.31,14-.06,1.28-.1,2.55-.12,3.8-9-15.48-17.13-28.24-20.36-31.11.23,3,8.71,20.36,18.54,39.64-9.36-13.21-18.83-25-23.55-29.48.81.93,4,5.87,8.37,12.85a173.76,173.76,0,0,0,4.27,17.23c-8-7.74-15.69-14.47-21.84-18.43,3.24,5.58,14.91,20.63,27.58,35.27.3.79.6,1.57.91,2.35a71.5,71.5,0,0,0-6.76-3.8c-9.6-10-19-18.58-22.93-20.82,2.58,5,7.18,11.54,12.55,18.47-5.89-3.51-11.85-6.82-17.73-9.77a8,8,0,0,1-.65-.69c.1.17.22.35.34.53-5-2.51-9.95-4.76-14.71-6.67,8.16,7.26,19,16.07,30.49,24.91,3,3.14,6.31,6.35,9.6,9.43q1.47,1.89,3,3.78c-18.08-13-38.45-27.21-41.56-27.73,2.07,3.55,14.26,14,28,24.81l-3.35-1.15c-7.12-3.72-13.55-6.83-17.41-8.35,1.38,1.33,2.9,2.76,4.54,4.24-10.53-3.16-21.42-5.94-32.18-8,7.88,3.16,16,6.47,24.12,9.81,1.38,1.63,4.26,3.81,8.09,6.26-10.19-3-18.12-4.64-19.59-3.19,8.73,4,18,8.49,27.07,12.66-7-2.17-13.78-4-19.33-5.43a141.17,141.17,0,0,0,14.12,8.57c-15-2.26-28.09-3.63-31.7-2.86,1.91,1.48,16.83,5,33.6,8.51-12.88-.57-25-.28-30.16.65,2.34-.16,25.1,2.48,44.67,4.9-15.58,1.56-32.8,4.23-42.54,8.07,5.54.82,23.25.65,40.18-.67a53.29,53.29,0,0,0-16.57,9.24l2.57,0a200.61,200.61,0,0,0-28.59,14.86c15.33-3.26,38-9.93,56.83-16.15,1-.12,1.89-.25,2.8-.39a324.68,324.68,0,0,0-56.48,42.05c34-21.85,75.07-46.62,83-51.4.27.3.52.58.77.82.38-.78,1.87-3.48,2.27-4.25h0c.32-.59.67-1.23.84-1.57a8.41,8.41,0,0,0-1.19-.27c-.09-.2-.18-.42-.28-.66,5.47,2.36,9.52,4.13,11.66,5.06,0,.48-.08.94-.09,1.36.94-.19,4.33-.69,5.28-.86h0c.73-.12,1.53-.24,1.95-.32a12.75,12.75,0,0,0-.69-1.39c.29-.65.65-1.48,1.11-2.48.64-1.2,1.31-2.54,2-4,1.65-1.45,3.56-3.28,5.67-5.39,0,3.65-.08,6.39-.1,8-.37.09-.72.18-1,.28.43.77,1.84,3.58,2.26,4.36h0l.83,1.61a8.31,8.31,0,0,0,.82-1l2.16.32c1.08.24,2.27.47,3.57.71,13.26,8.85,52,27.16,63.7,33.28a166.11,166.11,0,0,0-42.88-28.56,239.33,239.33,0,0,1,45.23,17.76,141,141,0,0,0-28.33-17.74c14,1.27,28.45,2.11,39,2.06-13.14-5.83-29.4-9.68-44.41-11.86M1670.24-81.4c0,.07-.09.14-.14.21a.2.2,0,0,1,0-.08,1.47,1.47,0,0,1,.1-.13m2-20.39c-2.28,4.62-4.62,9.56-6.84,14.49q.62-3.26,1-6.57c1.88-2.61,3.84-5.26,5.89-7.92m-79.46-1.59c2.25,3.66,4.55,7.42,6.83,11.15.09.81.19,1.6.29,2.38l-1-1c-2-4.22-4.09-8.42-6.15-12.5"/>
  </g>
  <rect class="cls-4" width="1600" height="900"/>
  <g class="cls-5">
    <g class="cls-6">
      <g>
        <rect class="cls-7" x="-5159.06" y="-109.48" width="5400" height="2050"/>
        <rect class="cls-7" x="240.94" y="-109.48" width="5400" height="2050" transform="translate(5881.87 1831.05) rotate(-180)"/>
      </g>
    </g>
  </g>
  <g class="cls-8">
    <g class="cls-9">
      <rect class="cls-10" x="-11373.27" y="-601.02" width="13191.7" height="5525.81"/>
    </g>
  </g>
</svg>
