<svg id="Layer_1" data-name="Layer 1" xmlns="http://www.w3.org/2000/svg" xmlns:xlink="http://www.w3.org/1999/xlink" width="1600" height="900" viewBox="0 0 1600 900">
  <defs>
    <style>
      .cls-1 {
        mask: url(#mask);
        filter: url(#luminosity-noclip-2);
      }

      .cls-2 {
        mix-blend-mode: multiply;
        fill: url(#radial-gradient);
      }

      .cls-3 {
        fill: none;
      }

      .cls-4 {
        clip-path: url(#clip-path);
      }

      .cls-5 {
        clip-path: url(#clip-path-2);
      }

      .cls-6 {
        fill: #191c3f;
      }

      .cls-7 {
        opacity: 0.57;
      }

      .cls-8 {
        opacity: 0.8;
      }

      .cls-9 {
        fill: #f4edf9;
      }

      .cls-10 {
        opacity: 0.57;
      }

      .cls-11 {
        opacity: 0.79;
      }

      .cls-12 {
        opacity: 0.8;
      }

      .cls-13 {
        opacity: 0.7;
      }

      .cls-14 {
        fill: #a0e6f9;
      }

      .cls-15 {
        fill: #f9e9aa;
      }

      .cls-16 {
        opacity: 0.77;
      }

      .cls-17 {
        opacity: 0.76;
      }

      .cls-18 {
        fill: #f9f0bd;
      }

      .cls-19 {
        opacity: 0.78;
      }

      .cls-20 {
        opacity: 0.92;
      }

      .cls-21 {
        fill: #b8e9f4;
      }

      .cls-22 {
        opacity: 1;
      }

      .cls-23 {
        opacity: 0.77;
      }

      .cls-24 {
        opacity: 0.9;
      }

      .cls-25 {
        opacity: 0.81;
      }

      .cls-26 {
        opacity: 0.88;
      }

      .cls-27 {
        opacity: 0.89;
      }

      .cls-28 {
        fill: #090921;
      }

      .cls-28, .cls-29 {
        opacity: 0.3;
      }

      .cls-30 {
        fill: #4254c1;
      }

      .cls-30, .cls-57 {
        opacity: 0.5;
      }

      .cls-31, .cls-33 {
        opacity: 0.51;
      }

      .cls-32, .cls-37 {
        fill: #241165;
      }

      .cls-33, .cls-41 {
        fill: #e3299d;
      }

      .cls-34 {
        fill: #99a1ff;
      }

      .cls-35 {
        fill: #3c2be2;
      }

      .cls-36 {
        fill: #342be2;
      }

      .cls-37, .cls-61 {
        opacity: 0.35;
      }

      .cls-38 {
        fill: #e1d2ff;
        opacity: 0.47;
      }

      .cls-39 {
        fill: #c097ff;
      }

      .cls-40, .cls-52, .cls-53 {
        fill: #fff;
      }

      .cls-42 {
        fill: #2b6de2;
      }

      .cls-43 {
        fill: #99f;
      }

      .cls-44 {
        fill: #7241c3;
      }

      .cls-45 {
        opacity: 0.4;
      }

      .cls-46 {
        fill: #4bbbff;
      }

      .cls-47 {
        fill: #4faecf;
      }

      .cls-48 {
        fill: #1a5dad;
      }

      .cls-49 {
        fill: #75d2ff;
      }

      .cls-50 {
        fill: #3c9fe1;
      }

      .cls-51 {
        fill: #a8daff;
      }

      .cls-52 {
        opacity: 0.24;
      }

      .cls-53 {
        opacity: 0.15;
      }

      .cls-54 {
        mask: url(#mask-2);
      }

      .cls-55 {
        opacity: 0.39;
        fill: url(#Áåçûìÿííûé_ãðàäèåíò_886);
      }

      .cls-56 {
        fill: url(#Áåçûìÿííûé_ãðàäèåíò_885);
      }

      .cls-57 {
        fill: #c8c2ff;
      }

      .cls-58 {
        clip-path: url(#clip-path-3);
      }

      .cls-59 {
        fill: #6de2fe;
      }

      .cls-60 {
        fill: #b3c661;
      }

      .cls-61 {
        fill: url(#linear-gradient);
      }

      .cls-62 {
        clip-path: url(#clip-path-4);
      }

      .cls-63 {
        clip-path: url(#clip-path-6);
      }

      .cls-64 {
        fill: #3f164f;
      }

      .cls-64, .cls-65 {
        fill-rule: evenodd;
      }

      .cls-65 {
        fill: #4d1e5d;
      }

      .cls-66 {
        filter: url(#luminosity-noclip);
      }
    </style>
    <filter id="luminosity-noclip" x="307.61" y="-9102" width="62.39" height="32766" filterUnits="userSpaceOnUse" color-interpolation-filters="sRGB">
      <feFlood flood-color="#fff" result="bg"/>
      <feBlend in="SourceGraphic" in2="bg"/>
    </filter>
    <mask id="mask" x="307.61" y="-9102" width="62.39" height="32766" maskUnits="userSpaceOnUse">
      <g class="cls-66"/>
    </mask>
    <radialGradient id="radial-gradient" cx="-2911.64" cy="4332.38" r="54.39" gradientTransform="matrix(0.15, 0.87, 0.93, 0.03, -3237.51, 3074.17)" gradientUnits="userSpaceOnUse">
      <stop offset="0.23" stop-color="#f4f4f4"/>
      <stop offset="1"/>
    </radialGradient>
    <clipPath id="clip-path">
      <rect class="cls-3" width="1600" height="900"/>
    </clipPath>
    <clipPath id="clip-path-2">
      <rect class="cls-3" x="-8976.84" y="-234.69" width="10800" height="2050"/>
    </clipPath>
    <filter id="luminosity-noclip-2" x="307.61" y="632.32" width="62.39" height="56.16" filterUnits="userSpaceOnUse" color-interpolation-filters="sRGB">
      <feFlood flood-color="#fff" result="bg"/>
      <feBlend in="SourceGraphic" in2="bg"/>
    </filter>
    <mask id="mask-2" x="307.61" y="632.32" width="62.39" height="56.16" maskUnits="userSpaceOnUse">
      <g class="cls-1">
        <path class="cls-2" d="M323.21,681.25c14.23,10.25,34.57,9.74,43.53-2.52s-2-20.63-16.05-33.81c-11.57-10.82-29.93-18.63-38.89-6.37S309,671,323.21,681.25Z"/>
      </g>
    </mask>
    <radialGradient id="Áåçûìÿííûé_ãðàäèåíò_886" data-name="Áåçûìÿííûé ãðàäèåíò 886" cx="-2911.64" cy="4332.38" r="54.39" gradientTransform="matrix(0.15, 0.87, 0.93, 0.03, -3237.51, 3074.17)" gradientUnits="userSpaceOnUse">
      <stop offset="0.23" stop-color="#fff"/>
      <stop offset="1" stop-color="#f3f9f7"/>
    </radialGradient>
    <linearGradient id="Áåçûìÿííûé_ãðàäèåíò_885" data-name="Áåçûìÿííûé ãðàäèåíò 885" x1="112.12" y1="-91.2" x2="138.66" y2="-72.34" gradientTransform="matrix(0.99, -0.14, -0.14, -0.99, 220.57, 575.88)" gradientUnits="userSpaceOnUse">
      <stop offset="0" stop-color="#6a7cc0"/>
      <stop offset="1" stop-color="#fff"/>
    </linearGradient>
    <clipPath id="clip-path-3">
      <rect class="cls-3" x="-4811.29" width="1600" height="900"/>
    </clipPath>
    <linearGradient id="linear-gradient" x1="1221.32" y1="-99.24" x2="1221.32" y2="1512.55" gradientUnits="userSpaceOnUse">
      <stop offset="0.04" stop-color="#08f"/>
      <stop offset="0.14" stop-color="#259ae6"/>
      <stop offset="0.43" stop-color="#97d09a"/>
      <stop offset="0.63" stop-color="#dff26b"/>
      <stop offset="0.72" stop-color="#fbff58"/>
    </linearGradient>
    <clipPath id="clip-path-4">
      <rect class="cls-3" y="-982.59" width="1600" height="900"/>
    </clipPath>
    <clipPath id="clip-path-6">
      <rect class="cls-3" x="-8976.84" y="-1217.28" width="10800" height="2050"/>
    </clipPath>
  </defs>
  <g class="cls-4">
    <g class="cls-5">
      <rect class="cls-6" x="-3576.84" y="-234.69" width="5400" height="2050" transform="translate(-1753.68 1580.62) rotate(-180)"/>
      <g class="cls-7">
        <g>
          <g>
            <g class="cls-8">
              <path class="cls-9" d="M1275.63,628l-1.07,5.92a1.93,1.93,0,0,0,1,2.05l5.34,2.77-5.92-1.07a1.93,1.93,0,0,0-2,1l-2.77,5.33,1.07-5.91a1.94,1.94,0,0,0-1-2.06l-5.34-2.76,5.92,1.07a1.92,1.92,0,0,0,2-1Z"/>
              <g class="cls-10">
                <path class="cls-9" d="M1591.65,378l-.2,7.2a2.31,2.31,0,0,0,1.57,2.24l6.81,2.31-7.19-.2a2.29,2.29,0,0,0-2.24,1.57l-2.31,6.81.2-7.19a2.33,2.33,0,0,0-1.57-2.25l-6.81-2.3,7.19.19a2.28,2.28,0,0,0,2.24-1.56Z"/>
              </g>
              <g class="cls-11">
                <path class="cls-9" d="M1568,730.34l1,5.94a1.94,1.94,0,0,0,1.64,1.59l6,.81-5.93,1a1.92,1.92,0,0,0-1.59,1.64l-.81,6-1-5.93a1.94,1.94,0,0,0-1.64-1.6l-6-.81,5.93-1a1.92,1.92,0,0,0,1.59-1.64Z"/>
              </g>
              <g class="cls-12">
                <path class="cls-9" d="M1227.7,849.74l-.29,10.41a3.33,3.33,0,0,0,2.27,3.24l9.86,3.34-10.41-.28a3.33,3.33,0,0,0-3.25,2.26l-3.33,9.86.28-10.41a3.32,3.32,0,0,0-2.26-3.24l-9.86-3.34,10.4.28a3.32,3.32,0,0,0,3.25-2.26Z"/>
              </g>
              <path class="cls-9" d="M1576.37,876.38l-.16,6a1.91,1.91,0,0,0,1.3,1.87l5.7,1.93-6-.17a1.93,1.93,0,0,0-1.88,1.31l-1.93,5.7.17-6a1.93,1.93,0,0,0-1.31-1.88l-5.7-1.93,6,.17a1.93,1.93,0,0,0,1.87-1.31Z"/>
            </g>
            <g class="cls-13">
              <circle class="cls-9" cx="1300.35" cy="388.04" r="1.91"/>
              <path class="cls-9" d="M1431.86,418.15a1.91,1.91,0,1,1-1.9-1.91A1.91,1.91,0,0,1,1431.86,418.15Z"/>
              <path class="cls-9" d="M1486.61,545a1.91,1.91,0,1,1-1.91-1.91A1.91,1.91,0,0,1,1486.61,545Z"/>
              <path class="cls-14" d="M1403.68,626.8a1.91,1.91,0,1,1-1.91-1.9A1.91,1.91,0,0,1,1403.68,626.8Z"/>
              <path class="cls-9" d="M1288.48,717.08a1.91,1.91,0,1,1-1.91-1.91A1.91,1.91,0,0,1,1288.48,717.08Z"/>
              <path class="cls-9" d="M1378.94,791.22a1.91,1.91,0,1,1-1.9-1.91A1.9,1.9,0,0,1,1378.94,791.22Z"/>
              <path class="cls-15" d="M1506.93,823.59a1.91,1.91,0,1,1-1.91-1.91A1.9,1.9,0,0,1,1506.93,823.59Z"/>
              <path class="cls-9" d="M1540.22,689.08a1.91,1.91,0,1,1-1.91-1.9A1.9,1.9,0,0,1,1540.22,689.08Z"/>
              <path class="cls-9" d="M1214.52,456.05a1.91,1.91,0,1,1-1.9-1.91A1.91,1.91,0,0,1,1214.52,456.05Z"/>
            </g>
          </g>
          <g>
            <g class="cls-8">
              <g class="cls-16">
                <path class="cls-9" d="M371.8,781l-.17,6a1.93,1.93,0,0,0,1.31,1.88l5.69,1.93-6-.17a1.93,1.93,0,0,0-1.87,1.31l-1.93,5.7.16-6a1.91,1.91,0,0,0-1.3-1.87l-5.7-1.93,6,.16a1.91,1.91,0,0,0,1.88-1.3Z"/>
              </g>
              <path class="cls-9" d="M169.11,713.88l1.08,5.92a1.93,1.93,0,0,0,1.67,1.56l6,.71-5.91,1.08a1.94,1.94,0,0,0-1.57,1.67l-.7,6-1.09-5.91a1.93,1.93,0,0,0-1.67-1.57l-6-.7,5.92-1.09a1.91,1.91,0,0,0,1.56-1.66Z"/>
              <g class="cls-17">
                <path class="cls-9" d="M589.29,531.86l.59,6a1.94,1.94,0,0,0,1.54,1.7l5.93,1.21-6,.59a2,2,0,0,0-1.71,1.54l-1.21,5.93-.59-6a1.94,1.94,0,0,0-1.54-1.71l-5.93-1.2,6-.6a1.92,1.92,0,0,0,1.7-1.54Z"/>
              </g>
              <path class="cls-9" d="M788.9,759.64l-.16,6a1.93,1.93,0,0,0,1.31,1.88l5.69,1.93-6-.17a1.93,1.93,0,0,0-1.87,1.31l-1.93,5.7.16-6a1.91,1.91,0,0,0-1.3-1.87l-5.7-1.93,6,.16a1.91,1.91,0,0,0,1.88-1.3Z"/>
              <path class="cls-9" d="M1006.34,576.44l-2.23,5.59a1.93,1.93,0,0,0,.59,2.21l4.68,3.77-5.59-2.22a1.93,1.93,0,0,0-2.21.58l-3.77,4.68,2.22-5.58a1.92,1.92,0,0,0-.58-2.22l-4.68-3.77,5.59,2.23a1.94,1.94,0,0,0,2.21-.58Z"/>
              <path class="cls-9" d="M806.47,403.77l-1,8.76a2.82,2.82,0,0,0,1.66,2.92l8.07,3.58-8.77-1a2.8,2.8,0,0,0-2.91,1.66l-3.58,8.07,1-8.77a2.84,2.84,0,0,0-1.66-2.92l-8.07-3.57,8.77,1a2.83,2.83,0,0,0,2.91-1.66Z"/>
              <path class="cls-18" d="M1109.63,400.76l1.82,5.73a1.93,1.93,0,0,0,1.85,1.34l6-.05-5.74,1.82a1.93,1.93,0,0,0-1.34,1.85l.06,6-1.83-5.73a1.91,1.91,0,0,0-1.85-1.34l-6,.05,5.73-1.82a1.92,1.92,0,0,0,1.34-1.85Z"/>
              <path class="cls-9" d="M173.08,495.94l-.47,6a1.93,1.93,0,0,0,1.21,1.94l5.6,2.22-6-.47a1.93,1.93,0,0,0-1.94,1.21l-2.21,5.59.47-6a1.94,1.94,0,0,0-1.21-1.94l-5.6-2.21,6,.46a1.91,1.91,0,0,0,1.94-1.21Z"/>
              <path class="cls-9" d="M905.11,830.75l-.17,6a1.93,1.93,0,0,0,1.31,1.87l5.7,1.93-6-.16a1.91,1.91,0,0,0-1.88,1.3l-1.93,5.7.17-6a1.93,1.93,0,0,0-1.31-1.88l-5.7-1.93,6,.17a1.93,1.93,0,0,0,1.88-1.31Z"/>
              <path class="cls-9" d="M1113.79,567.53,1109,574a2.57,2.57,0,0,0,0,3l4.72,6.5-6.42-4.82a2.58,2.58,0,0,0-3.06,0l-6.5,4.72,4.82-6.43a2.57,2.57,0,0,0,0-3.05l-4.73-6.5,6.43,4.82a2.57,2.57,0,0,0,3.06,0Z"/>
              <g class="cls-19">
                <path class="cls-9" d="M816.53,660.87l1.76,6.83a2.25,2.25,0,0,0,2.07,1.7l7,.33-6.83,1.76a2.25,2.25,0,0,0-1.7,2.07l-.34,7.05-1.75-6.83a2.26,2.26,0,0,0-2.08-1.7l-7-.34L814.5,670a2.26,2.26,0,0,0,1.7-2.08Z"/>
              </g>
              <path class="cls-9" d="M916,705.26l-2.43,5.5a1.93,1.93,0,0,0,.5,2.23l4.55,3.94-5.5-2.42a1.92,1.92,0,0,0-2.23.5l-3.94,4.54,2.42-5.5a1.92,1.92,0,0,0-.5-2.23l-4.55-3.94,5.51,2.43a1.93,1.93,0,0,0,2.23-.51Z"/>
              <path class="cls-14" d="M535.92,849.89l-2.23,5.59a1.94,1.94,0,0,0,.58,2.21l4.69,3.77-5.59-2.22a1.93,1.93,0,0,0-2.21.58l-3.77,4.68,2.22-5.58a1.94,1.94,0,0,0-.58-2.22l-4.68-3.77,5.58,2.23a2,2,0,0,0,2.22-.58Z"/>
              <path class="cls-9" d="M117.87,837.75l1.49,5.82a1.93,1.93,0,0,0,1.77,1.45l6,.29-5.82,1.49a1.93,1.93,0,0,0-1.45,1.77l-.29,6-1.49-5.82a1.93,1.93,0,0,0-1.77-1.45l-6-.29,5.83-1.49a1.93,1.93,0,0,0,1.44-1.77Z"/>
              <g class="cls-20">
                <path class="cls-21" d="M188.12,896.17l-.16,6a1.91,1.91,0,0,0,1.3,1.87L195,906l-6-.16a1.91,1.91,0,0,0-1.88,1.3l-1.93,5.7.17-6a1.93,1.93,0,0,0-1.31-1.88L178.31,903l6,.17a1.93,1.93,0,0,0,1.87-1.31Z"/>
              </g>
              <path class="cls-9" d="M881.43,557l1.36,5.86a1.94,1.94,0,0,0,1.74,1.48l6,.43-5.86,1.36a1.93,1.93,0,0,0-1.48,1.74l-.43,6L881.4,568a1.93,1.93,0,0,0-1.74-1.49l-6-.42,5.85-1.36A1.92,1.92,0,0,0,881,563Z"/>
              <path class="cls-9" d="M1161.08,354l-1.67,5.78a1.92,1.92,0,0,0,.79,2.14l5,3.3-5.78-1.67a1.93,1.93,0,0,0-2.14.79l-3.3,5,1.67-5.77a1.93,1.93,0,0,0-.79-2.15l-5-3.3,5.78,1.67a1.9,1.9,0,0,0,2.14-.79Z"/>
            </g>
            <g class="cls-13">
              <path class="cls-9" d="M66.69,666.39a1.91,1.91,0,1,1-1.91-1.9A1.9,1.9,0,0,1,66.69,666.39Z"/>
              <path class="cls-9" d="M175.24,580.47a1.91,1.91,0,1,1-1.91-1.91A1.91,1.91,0,0,1,175.24,580.47Z"/>
              <path class="cls-9" d="M137.63,475a1.91,1.91,0,1,1-1.91-1.9A1.9,1.9,0,0,1,137.63,475Z"/>
              <path class="cls-9" d="M261.22,716a1.91,1.91,0,1,1-1.91-1.91A1.91,1.91,0,0,1,261.22,716Z"/>
              <path class="cls-9" d="M316.11,628.85a1.91,1.91,0,1,1-1.91-1.91A1.9,1.9,0,0,1,316.11,628.85Z"/>
              <path class="cls-15" d="M294.54,484.69a1.91,1.91,0,1,1-1.9-1.91A1.9,1.9,0,0,1,294.54,484.69Z"/>
              <path class="cls-9" d="M480.1,419.16a1.91,1.91,0,1,1-1.91-1.91A1.92,1.92,0,0,1,480.1,419.16Z"/>
              <path class="cls-9" d="M684.28,526.75a1.91,1.91,0,1,1-1.9-1.9A1.9,1.9,0,0,1,684.28,526.75Z"/>
              <path class="cls-9" d="M503.93,659.08a1.91,1.91,0,1,1-1.91-1.91A1.91,1.91,0,0,1,503.93,659.08Z"/>
              <path class="cls-9" d="M645.65,717.2a1.91,1.91,0,1,1-1.91-1.91A1.91,1.91,0,0,1,645.65,717.2Z"/>
              <path class="cls-9" d="M745.77,723.64a1.91,1.91,0,1,1-1.91-1.91A1.9,1.9,0,0,1,745.77,723.64Z"/>
              <path class="cls-9" d="M735.05,564.58a1.91,1.91,0,1,1-1.9-1.9A1.9,1.9,0,0,1,735.05,564.58Z"/>
              <path class="cls-9" d="M833.66,437.52a1.91,1.91,0,1,1-1.91-1.9A1.91,1.91,0,0,1,833.66,437.52Z"/>
              <path class="cls-9" d="M956.14,462.26a1.91,1.91,0,1,1-1.91-1.9A1.91,1.91,0,0,1,956.14,462.26Z"/>
              <path class="cls-9" d="M988.52,527a1.91,1.91,0,1,1-1.9-1.91A1.9,1.9,0,0,1,988.52,527Z"/>
              <path class="cls-9" d="M992.71,630.17a1.91,1.91,0,1,1-1.91-1.91A1.9,1.9,0,0,1,992.71,630.17Z"/>
              <path class="cls-9" d="M1052,681.81a1.91,1.91,0,1,1-1.91-1.91A1.91,1.91,0,0,1,1052,681.81Z"/>
              <path class="cls-15" d="M949.83,837.63a1.91,1.91,0,1,1-1.91-1.91A1.92,1.92,0,0,1,949.83,837.63Z"/>
              <path class="cls-9" d="M828.44,864.59a1.91,1.91,0,1,1-1.91-1.91A1.91,1.91,0,0,1,828.44,864.59Z"/>
              <circle class="cls-9" cx="383.05" cy="857.98" r="1.91"/>
              <path class="cls-9" d="M296.67,841.82a1.91,1.91,0,1,1-1.91-1.91A1.91,1.91,0,0,1,296.67,841.82Z"/>
              <path class="cls-9" d="M707,859.17a1.91,1.91,0,1,1-1.9-1.91A1.91,1.91,0,0,1,707,859.17Z"/>
              <path class="cls-9" d="M1142.4,754.85a1.91,1.91,0,1,1-1.91-1.91A1.91,1.91,0,0,1,1142.4,754.85Z"/>
              <path class="cls-15" d="M1028.17,359.14a1.91,1.91,0,1,1-1.9-1.91A1.91,1.91,0,0,1,1028.17,359.14Z"/>
              <path class="cls-9" d="M79.58,391.17a1.91,1.91,0,1,1-1.91-1.91A1.9,1.9,0,0,1,79.58,391.17Z"/>
              <path class="cls-9" d="M1129.36,477.55a1.91,1.91,0,1,1-1.91-1.91A1.92,1.92,0,0,1,1129.36,477.55Z"/>
              <path class="cls-9" d="M631.8,397.62a1.91,1.91,0,1,1-1.91-1.91A1.9,1.9,0,0,1,631.8,397.62Z"/>
              <path class="cls-14" d="M554.36,453.73a1.91,1.91,0,1,1-1.91-1.91A1.9,1.9,0,0,1,554.36,453.73Z"/>
              <circle class="cls-14" cx="68.04" cy="749.42" r="1.91"/>
              <path class="cls-14" d="M1090.7,834.51a1.91,1.91,0,1,1-1.9-1.9A1.9,1.9,0,0,1,1090.7,834.51Z"/>
            </g>
          </g>
        </g>
        <g>
          <g>
            <g class="cls-8">
              <path class="cls-9" d="M1407.43,32.67l4.08,4.41a1.93,1.93,0,0,0,2.25.43l5.42-2.6L1414.77,39a1.91,1.91,0,0,0-.43,2.24l2.6,5.42-4.09-4.41a1.91,1.91,0,0,0-2.24-.43l-5.42,2.6,4.41-4.08a1.93,1.93,0,0,0,.43-2.25Z"/>
              <g class="cls-23">
                <path class="cls-9" d="M1324.57,258.14l.24,6a1.94,1.94,0,0,0,1.43,1.78l5.82,1.54-6,.24a1.92,1.92,0,0,0-1.79,1.43l-1.54,5.81-.24-6a1.92,1.92,0,0,0-1.43-1.78l-5.81-1.54,6-.24A1.91,1.91,0,0,0,1323,264Z"/>
              </g>
              <path class="cls-9" d="M1579.3,118l4.36,11.83a4,4,0,0,0,4,2.63l12.59-.68-11.83,4.36a4,4,0,0,0-2.63,4l.68,12.59-4.36-11.83a4,4,0,0,0-4-2.64l-12.59.68,11.83-4.36a4,4,0,0,0,2.64-4Z"/>
              <path class="cls-9" d="M1576.37-8.13l-.16,6a1.91,1.91,0,0,0,1.3,1.87l5.7,1.93-6-.16a1.93,1.93,0,0,0-1.88,1.31l-1.93,5.69.17-6a2,2,0,0,0-1.31-1.88l-5.7-1.92,6,.16a1.93,1.93,0,0,0,1.87-1.31Z"/>
              <g class="cls-24">
                <path class="cls-9" d="M1507.24,179.67l-.08,6a1.94,1.94,0,0,0,1.34,1.86l5.73,1.84-6-.07a1.92,1.92,0,0,0-1.85,1.33l-1.84,5.73.07-6a1.92,1.92,0,0,0-1.34-1.86l-5.72-1.84,6,.07a1.93,1.93,0,0,0,1.86-1.33Z"/>
              </g>
              <path class="cls-14" d="M1250.42,325.71l2.33,5.55a1.92,1.92,0,0,0,2,1.17l6-.59-5.54,2.33a1.9,1.9,0,0,0-1.17,2l.58,6-2.32-5.54a1.91,1.91,0,0,0-2-1.17l-6,.58,5.55-2.32a1.92,1.92,0,0,0,1.17-2Z"/>
            </g>
            <g class="cls-13">
              <path class="cls-9" d="M1443.63,189.82a1.91,1.91,0,1,1-1.91-1.9A1.9,1.9,0,0,1,1443.63,189.82Z"/>
              <path class="cls-9" d="M1413.56,97.19a1.91,1.91,0,1,1-1.91-1.9A1.9,1.9,0,0,1,1413.56,97.19Z"/>
              <path class="cls-9" d="M1344.78,23.83a1.91,1.91,0,1,1-1.91-1.91A1.91,1.91,0,0,1,1344.78,23.83Z"/>
              <path class="cls-9" d="M1298,31.28a1.91,1.91,0,1,1-1.9-1.91A1.9,1.9,0,0,1,1298,31.28Z"/>
              <circle class="cls-9" cx="1277.85" cy="81.14" r="1.91"/>
              <path class="cls-15" d="M1302.68,177a1.91,1.91,0,1,1-1.91-1.91A1.92,1.92,0,0,1,1302.68,177Z"/>
              <path class="cls-9" d="M1400.55,268.54a1.91,1.91,0,1,1-1.91-1.91A1.91,1.91,0,0,1,1400.55,268.54Z"/>
              <path class="cls-9" d="M1539.24,253.44a1.91,1.91,0,1,1-1.91-1.91A1.9,1.9,0,0,1,1539.24,253.44Z"/>
              <path class="cls-9" d="M1235,323.09a1.91,1.91,0,1,1-1.9-1.91A1.9,1.9,0,0,1,1235,323.09Z"/>
              <path class="cls-14" d="M1223.9,173.6a1.91,1.91,0,1,1-1.91-1.91A1.91,1.91,0,0,1,1223.9,173.6Z"/>
            </g>
          </g>
          <g>
            <g class="cls-8">
              <g class="cls-25">
                <path class="cls-9" d="M54.31,179.22l-.17,6a1.93,1.93,0,0,0,1.31,1.88L61.14,189l-6-.17a1.93,1.93,0,0,0-1.87,1.31l-1.93,5.7.16-6a1.91,1.91,0,0,0-1.3-1.88l-5.7-1.93,6,.17a1.93,1.93,0,0,0,1.88-1.31Z"/>
              </g>
              <g class="cls-26">
                <path class="cls-9" d="M1137.94,59.09l.43,6.23a2,2,0,0,0,1.54,1.81l6.08,1.43-6.23.42a2,2,0,0,0-1.81,1.54l-1.43,6.08-.43-6.23a2,2,0,0,0-1.54-1.81l-6.08-1.43,6.23-.42a2,2,0,0,0,1.81-1.54Z"/>
              </g>
              <path class="cls-9" d="M206.45,276.3l-.27,9.69a3.09,3.09,0,0,0,2.11,3l9.18,3.11-9.69-.26a3.08,3.08,0,0,0-3,2.1l-3.11,9.18.27-9.69a3.11,3.11,0,0,0-2.11-3l-9.18-3.11,9.69.27a3.1,3.1,0,0,0,3-2.11Z"/>
              <path class="cls-18" d="M972.4,260.53l-1.58,5.81a1.93,1.93,0,0,0,.83,2.13l5.09,3.21-5.81-1.57a1.92,1.92,0,0,0-2.13.83L965.59,276l1.57-5.8a1.91,1.91,0,0,0-.83-2.13l-5.08-3.22,5.8,1.58a1.93,1.93,0,0,0,2.13-.83Z"/>
              <path class="cls-9" d="M827.53,76.06l5.11,12.69a4.37,4.37,0,0,0,4.42,2.73l13.63-1.14L838,95.44a4.38,4.38,0,0,0-2.73,4.42l1.14,13.63-5.1-12.69a4.37,4.37,0,0,0-4.42-2.72l-13.63,1.13L826,94.11a4.36,4.36,0,0,0,2.72-4.42Z"/>
              <g class="cls-20">
                <path class="cls-21" d="M188.12,11.66l-.16,6a1.92,1.92,0,0,0,1.3,1.88l5.7,1.92-6-.16a1.93,1.93,0,0,0-1.88,1.31l-1.93,5.69.17-6A1.93,1.93,0,0,0,184,20.43l-5.69-1.93,6,.16a1.93,1.93,0,0,0,1.87-1.31Z"/>
              </g>
              <path class="cls-9" d="M35.88,310.25l-.17,6A1.93,1.93,0,0,0,37,318.13l5.7,1.93-6-.16a1.93,1.93,0,0,0-1.88,1.31L32.9,326.9l.17-6A2,2,0,0,0,31.76,319l-5.7-1.92,6,.16A1.93,1.93,0,0,0,34,315.94Z"/>
              <g class="cls-27">
                <path class="cls-9" d="M513.83,53.17l1.4,8a2.6,2.6,0,0,0,2.24,2.14l8.07,1-8,1.4A2.62,2.62,0,0,0,515.38,68l-1,8.07L513,68a2.6,2.6,0,0,0-2.24-2.13l-8.07-1,8-1.4a2.59,2.59,0,0,0,2.13-2.23Z"/>
              </g>
            </g>
            <g class="cls-13">
              <path class="cls-14" d="M610.27,168.26a1.91,1.91,0,1,1-1.91-1.91A1.92,1.92,0,0,1,610.27,168.26Z"/>
              <path class="cls-9" d="M439.67,77.91A1.91,1.91,0,1,1,437.76,76,1.91,1.91,0,0,1,439.67,77.91Z"/>
              <path class="cls-9" d="M271,77.92A1.91,1.91,0,1,1,269.13,76,1.92,1.92,0,0,1,271,77.92Z"/>
              <path class="cls-9" d="M159.32,88.59a1.91,1.91,0,1,1-1.9-1.9A1.9,1.9,0,0,1,159.32,88.59Z"/>
              <path class="cls-9" d="M87.25,37.86A1.91,1.91,0,1,1,85.35,36,1.9,1.9,0,0,1,87.25,37.86Z"/>
              <path class="cls-9" d="M37.36,43.37a1.91,1.91,0,1,1-1.91-1.91A1.9,1.9,0,0,1,37.36,43.37Z"/>
              <path class="cls-9" d="M24.72,187.83a1.91,1.91,0,1,1-1.91-1.91A1.92,1.92,0,0,1,24.72,187.83Z"/>
              <path class="cls-9" d="M106.44,138.38a1.91,1.91,0,1,1-1.91-1.91A1.9,1.9,0,0,1,106.44,138.38Z"/>
              <path class="cls-9" d="M209.74,190a1.91,1.91,0,1,1-1.9-1.91A1.91,1.91,0,0,1,209.74,190Z"/>
              <path class="cls-9" d="M305.33,248.11a1.91,1.91,0,1,1-1.91-1.91A1.91,1.91,0,0,1,305.33,248.11Z"/>
              <path class="cls-9" d="M442.79,221a1.91,1.91,0,1,1-1.9-1.91A1.91,1.91,0,0,1,442.79,221Z"/>
              <path class="cls-15" d="M660.69,243.72a1.91,1.91,0,1,1-1.91-1.91A1.92,1.92,0,0,1,660.69,243.72Z"/>
              <path class="cls-14" d="M713.73,249.07a1.91,1.91,0,1,1-1.9-1.91A1.9,1.9,0,0,1,713.73,249.07Z"/>
              <path class="cls-9" d="M911,218.8a1.91,1.91,0,1,1-1.91-1.91A1.92,1.92,0,0,1,911,218.8Z"/>
              <path class="cls-9" d="M973.37,93A1.91,1.91,0,1,1,971.46,91,1.91,1.91,0,0,1,973.37,93Z"/>
              <path class="cls-9" d="M1061.75,100.44a1.91,1.91,0,1,1-1.91-1.91A1.9,1.9,0,0,1,1061.75,100.44Z"/>
              <path class="cls-9" d="M1099.21,237.94a1.91,1.91,0,1,1-1.9-1.91A1.9,1.9,0,0,1,1099.21,237.94Z"/>
              <path class="cls-9" d="M647.92,66.05A1.91,1.91,0,1,1,646,64.14,1.91,1.91,0,0,1,647.92,66.05Z"/>
              <path class="cls-9" d="M1119.54,337a1.91,1.91,0,1,1-1.91-1.91A1.9,1.9,0,0,1,1119.54,337Z"/>
              <circle class="cls-9" cx="461.31" cy="305.12" r="1.91"/>
              <path class="cls-9" d="M104.38,311.59a1.91,1.91,0,1,1-1.91-1.91A1.9,1.9,0,0,1,104.38,311.59Z"/>
              <path class="cls-9" d="M991.54,314.5a1.91,1.91,0,1,1-1.91-1.91A1.91,1.91,0,0,1,991.54,314.5Z"/>
            </g>
          </g>
        </g>
      </g>
      <path class="cls-28" d="M-69.6,292c-27.83-13.62-41.74-20.43-47-26.23C-150.65,228.57-63.95,153.64-89,87.1-113.36,22.64-228.15,4.5-240.34,2.71c-40.5-6-48.48,4.22-117-2.7-56-5.65-84.48-8.88-107.53-28.73-28.41-24.46-16.16-48.42-46.45-86.19-21-26.23-47.41-40.14-66.11-47.75a62.77,62.77,0,0,1,9.53,27.79,61.13,61.13,0,0,1-2.59,22.65c-2.42,8.58-19.75,68.74,3.81,102.36C-559.8,0-551.1,5.32-544.64,9.26-512.38,29-489.47,14.85-464,25c33.52,13.38,55,62.07,52.48,100.57-3.37,50.82-47.24,62.12-44.59,111.25,1.91,35.26,26.12,59.38,29.5,62.66C-399.07,326.16-361.69,328-294,331.26c62.82,3.06,74.28-5.6,95.29,8.74,14.31,9.77,27,26.06,58.26,40.07,5.67,2.54,12.46,6.29,22,8.17,35.81,7.1,53.46-11.41,92.23-1.25,26,6.82,103.8,59.53,115.64,71.81-1-18-5.49-46.07-23.79-73.55-9.82-14.74-79.27-61.41-82.08-63.89C-32.06,307.59-44.73,304.19-69.6,292Z"/>
      <g class="cls-29">
        <path class="cls-30" d="M30.3,926.9C37,918.27,49.46,797.42,142.19,701.21c86.93-90.19,75.57-94.62,135.62-152.94s158.52-79.82,254.42-125.45,248.47-69.2,418.6-37.91S1165.64,409.5,1259.88,467s128.32,153.94,166.53,188.1,126,128.35,129,261.49Z"/>
        <g class="cls-31">
          <path class="cls-32" d="M424.18,896.1S408,871.23,447.33,844.23c28-19.23,51.62-44.91,66.74-63.79s57-60.07,80.13-70.31c75.19-33.25,97.28-48,120.4-59.64S822.4,627,823.83,636.21c2,12.95-63.15,14.64-63.09,25.08s49.4-3.69,78.73-11.17,69.51-2,96.75,6.22,44,21.4,65.77,23.37,33.74,5,49,19.58,22.08,8.34,42.82,21.8,55.65,32.91,45.92,43.51-48.07-38.27-61.06-28.8,63.33,46.65,84.18,80,10.06,48,.26,46-25.33-56.26-59.18-80.1-58.2-35.93-89.84-54.56-39.59-31.9-84.19-32.7-55.72-16.37-141.83.21c-48,9.24-78.3,11.29-111.94,23S611.81,749.82,592.35,772s-14.12,35.69,14.86,21.58c29.46-14.35,57.23-45,111.56-52.64s25.07,9.26-2.07,17.76S672.23,780.85,678.78,784,752.53,748,823.21,747.64s102.34,19.29,122,32.76,36,28,61.11,38.31,38.07.84,72,41.39,25.16,34.59,25.16,34.59Z"/>
          <path class="cls-33" d="M540.52,895.85s22.14-28,52.89-32.24,72.05-24.86,111.26-36.29,79.64,5.68,102,21.87,24.51,17.19,66.95,14.92,115.57-23,136.05,31.4Z"/>
          <path class="cls-34" d="M430.23,707C419.82,693.77,297.7,842.63,283.42,838.8,266,834.12,312,770.3,365.11,725.58s121.61-97.48,150-106.75,59.12-31.08,113.54-56.44,132.74-15.53,178.93-26,74.6-20.91,123.33-.68,98.49,9.72,144.74,9.46,114.15,51.77,145.25,99.44,56.27,43.49,107.22,117.34c65.39,94.78,75.76,131.44,75.76,131.44l-154.31.85c-.33-58.91-47.15-159.54-75.55-190.14S1075,627.15,1016.8,621.77s-126-56.26-198.25-36.5-82.95,11.85-184.81,36.32S420.13,749.2,420.13,749.2s-28.39,25.16-33.45,17.88S437.81,716.63,430.23,707Z"/>
          <path class="cls-35" d="M370.94,896.38S387.6,858.47,427.46,811c29.84-35.54-17.13-9-50.29,32.34s-31.29,53.18-31.29,53.18Z"/>
          <path class="cls-32" d="M200.51,904S240.38,735,420,632.46c142.14-81.13,204.51-118.79,265.21-129.12s217.35-14,227.44-19.66c22.54-12.54-73.87-18.44-181.31-3.94-51.87,7-59.56-15.39,67.8-28.73s297.76,46.53,304.8,29c5.91-14.72-151.64-57.75-297.13-53.68S619.19,482.85,520.4,507.22C421,531.74,306,614.35,267.29,657.63s-58.59,74.44-93.08,112.31S114,840,105.28,904.55Z"/>
          <path class="cls-36" d="M488.35,750s37.46-35.58,82.34-59.41,64.48-33.37,66.07-40.45-44.14,9.67-100.42,44.57S462.26,766.66,488.35,750Z"/>
          <path class="cls-36" d="M956.16,752.23s49.25,17.93,90.44,47.24,58.37,42.46,65.74,40.91-27.48-34.55-83.89-69.21S929.55,736.35,956.16,752.23Z"/>
          <path class="cls-35" d="M1195,522.39s53,32.48,89.29,100.65c52.86,99.31,131,135.09,152.36,270.13l45.53-.25s9.73-65.66-60.48-148.12c-67.19-78.93-48.84-37.33-91.38-100.08-55.07-81.25-111.86-133-144.85-144.68S1195,522.39,1195,522.39Z"/>
        </g>
        <path class="cls-37" d="M1024,894.85s1.08-27.49-37.64-40.24-91.4,1.09-117.2-4.07,34.24-20.22,69.85-15.7,69.9-6.87,91.44,6c20.35,12.13,39.64,30,45.93,46.38.37,1,.69,1.91,1,2.85C1082.31,907.11,1024,894.85,1024,894.85Z"/>
        <path class="cls-37" d="M746.4,684.62s4-11.24,27.33-11.37,40.48-7.55,64-12,33.34-11.82,60.77-5.07S948,671,964.6,674.79s31.51,12.34,31.52,15.79-19.75.11-39.55-6.69-35.08-9.48-62-11-28.31-4.5-68.23,5.64S739.39,691.59,746.4,684.62Z"/>
        <path class="cls-37" d="M433,891.07s4.84-25.73,28-39.35,47.83-32.39,62.44-51.1,31.86-46.5,40.64-31.1-27.84,45.81-6.39,53.4,73.39-35.1,88.15-27.47,16.8,12.76,48.18,1.66,52.14-6.06,50.19,3.58-58.8,12.53-81.48,23.58-46.7,23.39-80.12,29.36-50,22.76-58,36.94Z"/>
        <path class="cls-38" d="M848.16,562.3s49-2.93,91.62,16.35,62.06,33.92,111.92,34.69,122.08,32.46,157.5,92.5,39.92,37.8,33.32,13-58.46-50-78-82.36S1102.3,578.64,1058,578s-68.32,2.15-112.72-11.8-121-14.66-162.54-3.67S848.16,562.3,848.16,562.3Z"/>
        <path class="cls-37" d="M250.24,763c1.83-2.76,42.72-80.19,139.49-132.81s163.5-81.25,179-100.19-48.65,11.4-79.1,27-112.08,43.34-143.6,63.36-58.54,62.52-75.86,85.4S222.57,804.66,250.24,763Z"/>
        <g>
          <path class="cls-39" d="M469.19,770a8.6,8.6,0,1,1-8.65-8.21A8.45,8.45,0,0,1,469.19,770Z"/>
          <path class="cls-40" d="M362.19,816.4a4.82,4.82,0,1,1-4.84-4.6A4.73,4.73,0,0,1,362.19,816.4Z"/>
          <path class="cls-41" d="M265.22,859.64c0,7.66-6.39,13.91-14.36,14s-14.48-6.13-14.52-13.79,6.39-13.91,14.36-13.95S265.18,852,265.22,859.64Z"/>
          <path class="cls-42" d="M206.53,694.38a8.95,8.95,0,1,1-9-8.53A8.78,8.78,0,0,1,206.53,694.38Z"/>
          <path class="cls-42" d="M820.62,721.18a8.26,8.26,0,1,1-8.3-7.88A8.08,8.08,0,0,1,820.62,721.18Z"/>
          <path class="cls-39" d="M849,707.82a5.5,5.5,0,1,1-5.53-5.26A5.39,5.39,0,0,1,849,707.82Z"/>
          <path class="cls-40" d="M869.56,617.43A10.55,10.55,0,1,1,859,607.35,10.34,10.34,0,0,1,869.56,617.43Z"/>
          <path class="cls-39" d="M734.1,622.68a4.7,4.7,0,1,1-4.72-4.49A4.61,4.61,0,0,1,734.1,622.68Z"/>
          <path class="cls-39" d="M1197,788.7a11,11,0,1,1-11.07-10.51A10.8,10.8,0,0,1,1197,788.7Z"/>
          <path class="cls-42" d="M1260.25,624.09a12.39,12.39,0,1,1-12.45-11.82A12.15,12.15,0,0,1,1260.25,624.09Z"/>
          <path class="cls-43" d="M1006.53,513.63a7.8,7.8,0,1,1-7.83-7.45A7.64,7.64,0,0,1,1006.53,513.63Z"/>
          <path class="cls-43" d="M977.06,490.45a9.18,9.18,0,1,1-9.22-8.76A9,9,0,0,1,977.06,490.45Z"/>
          <ellipse class="cls-43" cx="1135.11" cy="465.36" rx="16.05" ry="15.41" transform="translate(-1.96 4.82) rotate(-0.24)"/>
          <ellipse class="cls-40" cx="1136.29" cy="512.91" rx="7.79" ry="7.49" transform="matrix(1, 0, 0, 1, -2.19, 4.87)"/>
          <path class="cls-40" d="M720.76,409.06a8.26,8.26,0,1,1-8.3-7.88A8.09,8.09,0,0,1,720.76,409.06Z"/>
          <path class="cls-39" d="M568.35,458.56A10.32,10.32,0,1,1,558,448.71,10.11,10.11,0,0,1,568.35,458.56Z"/>
          <ellipse class="cls-42" cx="598.08" cy="445.85" rx="7.34" ry="7.05" transform="translate(-1.9 2.57) rotate(-0.25)"/>
          <path class="cls-41" d="M1292.84,808.13a9.79,9.79,0,1,1-9.84-9.33A9.6,9.6,0,0,1,1292.84,808.13Z"/>
          <path class="cls-40" d="M1353.83,747.28a6.87,6.87,0,1,1-6.9-6.55A6.73,6.73,0,0,1,1353.83,747.28Z"/>
          <path class="cls-40" d="M1367,610.23a13.84,13.84,0,1,1-13.9-13.2A13.56,13.56,0,0,1,1367,610.23Z"/>
          <ellipse class="cls-41" cx="1501.29" cy="802.59" rx="5.2" ry="4.99" transform="translate(-3.42 6.44) rotate(-0.25)"/>
          <path class="cls-44" d="M1106.12,391a8.41,8.41,0,1,1-8.45-8A8.25,8.25,0,0,1,1106.12,391Z"/>
          <path class="cls-40" d="M456.5,432.8a7.06,7.06,0,1,1-7.1-6.73A6.92,6.92,0,0,1,456.5,432.8Z"/>
          <path class="cls-44" d="M234.65,556.57a6.45,6.45,0,1,1-6.48-6.15A6.32,6.32,0,0,1,234.65,556.57Z"/>
        </g>
      </g>
      <g>
        <g class="cls-45">
          <circle class="cls-46" cx="352.43" cy="643.1" r="50.15" transform="translate(-375.63 555.27) rotate(-54.4)"/>
          <path class="cls-47" d="M319.62,681a41.37,41.37,0,1,0-3.11-2.93,50.27,50.27,0,1,1,3.11,2.93Z"/>
          <path class="cls-48" d="M313.84,611.09l.23-.28a50.15,50.15,0,0,1,86.37,46.83l-.3.92c-.1.33-.22.65-.33,1a50.78,50.78,0,0,1-8.42,15.08c-.19.24-.3,0-.5.28a52,52,0,0,0-77.05-63.81Z"/>
          <path class="cls-49" d="M320.14,681.47a49.85,49.85,0,0,1-12.41-15.62,65.92,65.92,0,0,1,47.61,27.3A49.93,49.93,0,0,1,320.14,681.47Z"/>
          <path class="cls-49" d="M368.21,690.71a34.65,34.65,0,0,0-9-10c-5-3.84-10.61-6.74-16-10.06-11.17-6.94-21.46-16-34.15-19.37a22.5,22.5,0,0,0-6.22-.85,50.65,50.65,0,0,1-.53-8.7c6.18.55,12.24,3.36,17.44,6.92,7.1,4.87,13.17,11.13,20.33,15.92,6.46,4.31,13.68,7.36,20.26,11.47,5.18,3.24,10.08,7.35,13.19,12.52A49.44,49.44,0,0,1,368.21,690.71Z"/>
          <path class="cls-49" d="M393.31,672.14c-.79,1.11-1.62,2.2-2.51,3.26l-.52.59a216.35,216.35,0,0,0-34.77-26.13,7.46,7.46,0,0,0-3.07-1.27,2.61,2.61,0,0,0-2.73,1.48c-.68,1.91,1.79,3.64,1.7,5.66-.07,1.82-2.29,2.91-4.07,2.53s-3.19-1.7-4.52-2.94a93.34,93.34,0,0,0-39.63-21.68,49.26,49.26,0,0,1,3.66-11.43,170.84,170.84,0,0,1,27.06,16.68,12.9,12.9,0,0,1-.86-4.41,4.35,4.35,0,0,1,2.11-3.76c1.91-1,4.18.15,6,1.24C360.16,643.22,379.7,655,393.31,672.14Z"/>
          <path class="cls-49" d="M386.68,679.72a49.08,49.08,0,0,1-4.16,3.5,192.4,192.4,0,0,0-28.09-20.65,4.65,4.65,0,0,1-1.65-1.39,1.56,1.56,0,0,1,.15-2c.62-.51,1.54-.25,2.28,0A94.78,94.78,0,0,1,386.68,679.72Z"/>
          <path class="cls-50" d="M358.9,601.64c-1.21-.83-3.13-1.54-3.91-.29-.57.9.05,2.07.68,2.93a59.3,59.3,0,0,0,8.12,9,15.11,15.11,0,0,1,3.77,4.21c.85,1.69.83,4-.58,5.25-1.94,1.72-5,.55-7.25-.67l-24.05-12.92A83,83,0,0,0,322.33,603a50,50,0,0,1,17.09-8.32,46.17,46.17,0,0,1,10.46,1.44c7.95,2,15.32,5.86,22.3,10.18a169.33,169.33,0,0,1,28.11,21.85,50.16,50.16,0,0,1,2.1,10.63A277.72,277.72,0,0,0,358.9,601.64Z"/>
          <path class="cls-49" d="M364.69,691.72c-.38.1-.76.2-1.15.28-5.11-6.86-13-11.32-20-16.4-7.88-5.72-15.29-12.72-24.7-15.2a37.33,37.33,0,0,0-13.74-.72c-.29-.83-.56-1.66-.8-2.5a40,40,0,0,1,18.25,3.73,80.17,80.17,0,0,1,11.66,7.22l15.87,11.14a92.38,92.38,0,0,1,11.36,8.9A39.08,39.08,0,0,1,364.69,691.72Z"/>
          <path class="cls-49" d="M377.52,683.28a8.79,8.79,0,0,1,1.42,2.4l-1,.58c-2.54-4.26-6.57-7.59-10.84-10.21-5.12-3.13-10.7-5.43-15.8-8.59-1.62-1-3.2-2.09-4.77-3.17a2.38,2.38,0,0,1-1-1c-.17-.46.08-1.1.57-1.13a1.2,1.2,0,0,1,.71.27l25.94,17.09A20.77,20.77,0,0,1,377.52,683.28Z"/>
          <path class="cls-50" d="M402.58,643.36c-4.19-5.84-10.33-10.28-16.13-14.69Q375,620,364.31,610.27a15.67,15.67,0,0,1-4.22-5.24.7.7,0,0,1,1.08-.8c12.73,10.45,25.44,20.94,37.29,32.38a35.64,35.64,0,0,1,4.08,4.5C402.57,641.86,402.58,642.61,402.58,643.36Z"/>
          <path class="cls-49" d="M350.74,613.64a132.41,132.41,0,0,0-26-12.44A50.39,50.39,0,0,1,342,594.06c-.65,2.4,1.3,5,3.1,6.8l8.49,8.36a7.14,7.14,0,0,1,1.79,2.34,2.42,2.42,0,0,1-.51,2.72C353.69,615.22,352,614.43,350.74,613.64Z"/>
          <path class="cls-49" d="M328.43,626.22a6.27,6.27,0,0,1-5.53.15,25.3,25.3,0,0,1-4.88-3,45.09,45.09,0,0,0-9.26-4.9,50.3,50.3,0,0,1,3.44-5.29C318.13,617,324.23,620.71,328.43,626.22Z"/>
          <path class="cls-50" d="M380.34,632.81c-2.63-2.07-5.63-4.66-5.35-8l26.45,20.32c.36.27.71.55,1.06.83a50.47,50.47,0,0,1-1,7.52A138.34,138.34,0,0,0,380.34,632.81Z"/>
          <path class="cls-49" d="M372.37,641c-6.51-3.56-13.87-5.2-20.79-7.89a73.32,73.32,0,0,1-27.45-18.81,1,1,0,0,1,1.13-1.61c5.25,2.08,9.82,5.86,14.64,9,9.75,6.23,20.94,9.78,31.31,14.9S391.66,649,396,659.69a26.94,26.94,0,0,1,1.54,5.31q-.92,1.86-2,3.66C390.48,657.39,383.13,646.86,372.37,641Z"/>
          <path class="cls-49" d="M361.77,626.41a123.92,123.92,0,0,1-25.31-12.18l-2.57-1.65c-4.57-2.94-9.24-6-14.22-7.44.28-.25.57-.48.86-.72,4.86,1.58,9.42,4.5,13.87,7.37l2.56,1.65a122.73,122.73,0,0,0,25.11,12.08c1.21.42,5.22,1.6,6.47-.78l.83.44C368.29,627.23,365.45,627.69,361.77,626.41Z"/>
          <path class="cls-51" d="M365.13,621.7c-1,.91-2.54.46-3.76-.07A88.48,88.48,0,0,1,349,615.12c2.48,1,5.24,2.07,7.77,1.17a5.58,5.58,0,0,0,3.43-3.68,12.9,12.9,0,0,1,5,5.43C365.78,619.22,366.09,620.81,365.13,621.7Z"/>
          <g>
            <path class="cls-51" d="M376,661.4c-6.34-4.55-13-8.64-19-13.7-.69-.59-1.39-1.68-.71-2.27.45-.39,1.13-.19,1.67,0,13.32,5.62,24.32,15.65,33.82,26.55.29.34.57.68.84,1-.55.74-1.12,1.46-1.71,2.17C386.87,669.79,381.52,665.37,376,661.4Z"/>
            <path class="cls-51" d="M304.84,627.3a15,15,0,0,1,5.51,1.47c10.26,4.4,19,11.66,27.19,19.26a77.23,77.23,0,0,0-34-16.23Q304.11,629.52,304.84,627.3Z"/>
            <path class="cls-51" d="M355.12,608.73a2.4,2.4,0,0,1-.74,2.49,2.78,2.78,0,0,1-2.42-.07c-2.75-1-5.17-2.79-7.71-4.27a45.67,45.67,0,0,0-18.91-6A49.81,49.81,0,0,1,338,595.1c1.72,1.17,3.11,2.77,4.8,4,2.2,1.57,4.84,2.41,7.22,3.71S354.63,606.06,355.12,608.73Z"/>
            <path class="cls-51" d="M360.29,677.06c4.42,3,8.5,6.63,11,11.31.18.31.34.64.49,1-.82.35-1.66.67-2.5,1a35,35,0,0,0-5.05-7.15c-7.75-8.45-19-12.55-28.6-18.82a72,72,0,0,1-15.82-14.09,140.14,140.14,0,0,0,26.52,19C351,671.79,355.86,674.1,360.29,677.06Z"/>
            <path class="cls-51" d="M377.16,673.43c-3.48-2.27-7.21-4.24-10.16-7.16a70,70,0,0,1,19.63,13.5c-.51.48-1,.94-1.54,1.39C383.31,677.92,380.28,675.47,377.16,673.43Z"/>
            <path class="cls-51" d="M345.6,687.45a60.46,60.46,0,0,0-12.9-7.81,28,28,0,0,0-14.77-2.18l14.15,7.4q-5.32-1-10.6-2.32c-.45-.35-.9-.7-1.34-1.07a50.82,50.82,0,0,1-7.56-7.92A42.26,42.26,0,0,1,345.6,687.45Z"/>
          </g>
          <path class="cls-51" d="M361,634.88a14.11,14.11,0,0,0-10.43-5.94,8.46,8.46,0,0,0,4.72,3.71A41.2,41.2,0,0,1,361,634.88Z"/>
          <path class="cls-51" d="M360.29,643a1.77,1.77,0,0,1,2.34,1.29c.15.55-.52.93-1,.76l-1.84-.68c-.86-.32-.32-1.64.54-1.32l1.83.68-1,.76a.36.36,0,0,0-.36-.19C360,644.54,359.41,643.23,360.29,643Z"/>
          <path class="cls-51" d="M363.88,665.51l-1.76-1c-.5-.29-.28-1,.14-1.22a1.54,1.54,0,0,1,2.1.77.71.71,0,0,1-1.31.57c-.07-.15-.15-.07-.22,0l.14-1.23,1.76,1a.72.72,0,0,1,.15,1A.74.74,0,0,1,363.88,665.51Z"/>
          <path class="cls-51" d="M369.31,670.12a2.83,2.83,0,0,1,2,1.09.71.71,0,0,1-.65,1.15,3.5,3.5,0,0,1-2-1.09c-.63-.67.49-1.55,1.12-.89a1.78,1.78,0,0,0,1,.56l-.65,1.15a1.45,1.45,0,0,0-1-.56A.71.71,0,0,1,369.31,670.12Z"/>
          <path class="cls-51" d="M331.65,639.85a3.81,3.81,0,0,1,1.83,1.51.72.72,0,0,1-.46,1.15,1.53,1.53,0,0,1-1.51-.55c-.61-.7.52-1.58,1.12-.89.06.08.06.06.19,0-.16.38-.31.76-.46,1.15a2.49,2.49,0,0,0-1.25-1.08A.71.71,0,0,1,331.65,639.85Z"/>
          <path class="cls-51" d="M339,647.08l1.26.85c.77.51-.09,1.65-.86,1.14l-1.26-.85C337.33,647.71,338.19,646.57,339,647.08Z"/>
          <path class="cls-51" d="M343.09,650.75l.51.44c.71.59-.15,1.73-.85,1.14l-.51-.44C341.53,651.3,342.39,650.16,343.09,650.75Z"/>
          <path class="cls-51" d="M326.86,612.48l1.09.27c.88.21.71,1.63-.18,1.41l-1.1-.26C325.79,613.68,326,612.27,326.86,612.48Z"/>
          <path class="cls-51" d="M332.79,615.85a1.9,1.9,0,0,1,1.76.79c.54.75-.58,1.63-1.11.88a.5.5,0,0,0-.45-.26C332.08,617.33,331.87,615.92,332.79,615.85Z"/>
          <path class="cls-51" d="M338.46,619l.26.22c.7.59-.15,1.73-.86,1.14l-.26-.22C336.9,619.56,337.76,618.42,338.46,619Z"/>
          <path class="cls-51" d="M375.28,625l.26.21c.7.59-.15,1.74-.86,1.14l-.26-.21C373.72,625.57,374.58,624.42,375.28,625Z"/>
          <path class="cls-51" d="M381.08,633.2l.63.29c.83.38.3,1.7-.54,1.32l-.62-.29C379.71,634.14,380.25,632.81,381.08,633.2Z"/>
          <path class="cls-51" d="M384.71,641.37l.73.17c.89.2.71,1.62-.18,1.42l-.73-.17C383.64,642.59,383.81,641.17,384.71,641.37Z"/>
          <path class="cls-51" d="M384.56,642.52a1.29,1.29,0,0,1-.69-1.61.72.72,0,0,1,1.09-.3l.89.76c.7.59-.15,1.73-.86,1.14l-.89-.76,1.09-.3-.09-.25C385.91,641.61,385.38,642.93,384.56,642.52Z"/>
          <path class="cls-51" d="M387.07,644.57l.49.2a.71.71,0,0,1-.54,1.32l-.49-.2A.71.71,0,0,1,387.07,644.57Z"/>
          <path class="cls-51" d="M387.36,645.05l.25.21c.71.59-.15,1.74-.85,1.14l-.26-.21C385.8,645.6,386.65,644.45,387.36,645.05Z"/>
          <path class="cls-51" d="M390.29,647.83a.71.71,0,0,1,.2,1.41A.71.71,0,0,1,390.29,647.83Z"/>
          <path class="cls-51" d="M345.31,599.16l.88.52a.72.72,0,0,1,.14,1,.74.74,0,0,1-1,.15l-.88-.53a.71.71,0,0,1-.14-1A.74.74,0,0,1,345.31,599.16Z"/>
          <path class="cls-51" d="M350.06,600.79l.75.42a.73.73,0,0,1,.39.93.71.71,0,0,1-.93.39l-.75-.41a.73.73,0,0,1-.39-.93A.72.72,0,0,1,350.06,600.79Z"/>
          <path class="cls-51" d="M353.91,603.52l.65.54c.7.59-.16,1.73-.86,1.14l-.64-.54C352.36,604.07,353.21,602.93,353.91,603.52Z"/>
          <path class="cls-51" d="M324.23,654.7l.32.93c.3.86-1,1.43-1.31.57l-.32-.93C322.63,654.4,323.93,653.83,324.23,654.7Z"/>
          <path class="cls-51" d="M316.76,650.74l.86.29c.87.3.33,1.62-.54,1.32l-.86-.29C315.35,651.77,315.9,650.45,316.76,650.74Z"/>
          <path class="cls-51" d="M327.53,658l.51.43c.7.59-.15,1.74-.85,1.14l-.52-.43C326,658.59,326.82,657.45,327.53,658Z"/>
          <path class="cls-51" d="M311.76,651l.63.27c.84.37.31,1.7-.54,1.33l-.63-.28C310.38,651.94,310.91,650.62,311.76,651Z"/>
          <path class="cls-51" d="M337.92,679.29l.52.43c.7.59-.15,1.74-.86,1.14l-.51-.43C336.37,679.84,337.22,678.7,337.92,679.29Z"/>
          <path class="cls-51" d="M341.93,681.56l.13.11c.7.59-.15,1.74-.86,1.14l-.13-.11C340.37,682.11,341.22,681,341.93,681.56Z"/>
          <path class="cls-51" d="M345.39,684.48l.39.32c.7.59-.15,1.74-.86,1.14l-.38-.32C343.84,685,344.69,683.89,345.39,684.48Z"/>
          <path class="cls-51" d="M353.59,655.21l.52.43c.7.59-.16,1.73-.86,1.14l-.51-.43C352,655.76,352.89,654.61,353.59,655.21Z"/>
          <path class="cls-52" d="M384.73,604.74a50.14,50.14,0,0,1-26.07,88.12A49.56,49.56,0,1,0,313.14,612c.31-.39.61-.78.93-1.16A50.14,50.14,0,0,1,384.73,604.74Z"/>
          <path class="cls-53" d="M356.09,637.36c15.88,12.68,23.72,31.56,19.83,50a50.15,50.15,0,0,1-71.58-58.54C321.48,621.67,340.56,625,356.09,637.36Z"/>
          <g class="cls-54">
            <path class="cls-55" d="M323.21,681.25c14.23,10.25,34.57,9.74,43.53-2.52s-2-20.63-16.05-33.81c-11.57-10.82-29.93-18.63-38.89-6.37S309,671,323.21,681.25Z"/>
          </g>
          <path class="cls-56" d="M409.57,696.32a42.62,42.62,0,0,1-6-2,126,126,0,0,1-15.34-7.83c-1.8-1.06-3.66-2.2-5.57-3.4l.79-.59c1.77,1.12,3.5,2.19,5.17,3.18a111.05,111.05,0,0,0,15.16,7.77,43,43,0,0,0,5.81,1.92c7.16,1.66,9.14-1.2,6.35-7.63a39.59,39.59,0,0,0-2.94-5.35,112.47,112.47,0,0,0-10.41-13.45c-1.44-1.62-3-3.3-4.57-5-3.31-3.53-7-7.23-10.94-11.06-5.92-5.67-12.52-11.65-19.64-17.8s-14.8-12.46-22.94-18.7c-6.48-5-13.28-10-20.4-14.66q-2.69-1.77-5.43-3.47a119.39,119.39,0,0,0-14.11-7.63,41.19,41.19,0,0,0-7.39-2.6,15,15,0,0,0-3.64-.41c-4.16.11-4.11,3.84-2.53,7.67a42,42,0,0,0,3.73,6.9,118.78,118.78,0,0,0,9.77,12.76c1.24,1.45,2.52,2.88,3.8,4.29-.16.29-.3.59-.45.88-1.38-1.53-2.74-3.07-4.08-4.64-1.74-2.06-3.46-4.15-5.1-6.3s-3.27-4.34-4.74-6.61a43.88,43.88,0,0,1-3.87-7.08c-1.88-4.55-1.71-8.73,3.19-9a15.21,15.21,0,0,1,4,.38,46,46,0,0,1,7.68,2.51c2.51,1,5,2.22,7.38,3.45s4.8,2.52,7.15,3.86c2.17,1.25,4.32,2.53,6.43,3.84,7,4.34,13.75,9,20.19,13.66,8.34,6.15,16.13,12.44,23.29,18.7s13.69,12.43,19.48,18.34q5.46,5.57,10.05,10.75c1.8,2,3.5,4,5.09,6a125.64,125.64,0,0,1,10.16,13.94,45.83,45.83,0,0,1,2.93,5.6C420.34,695.39,416.87,698,409.57,696.32Z"/>
        </g>
        <path class="cls-57" d="M192.83,421.21c2.46,2.4-72.44,82.93-76.78,87.37s-9.85,6.09-12.31,3.69-.92-7.94,3.43-12.38S190.38,418.81,192.83,421.21Z"/>
        <path class="cls-57" d="M879.71,257.05c2.46,2.4-72.44,82.93-76.78,87.37s-9.85,6.09-12.31,3.69-.92-7.94,3.43-12.38S877.26,254.65,879.71,257.05Z"/>
        <path class="cls-57" d="M1437,157.69c2.46,2.4-72.44,82.93-76.78,87.37s-9.85,6.09-12.31,3.69-.92-7.94,3.43-12.38S1434.54,155.29,1437,157.69Z"/>
        <path class="cls-57" d="M1558,524.89c2.46,2.4-72.44,82.93-76.78,87.37s-9.85,6.09-12.31,3.69-.92-7.94,3.43-12.38S1555.5,522.49,1558,524.89Z"/>
      </g>
    </g>
  </g>
  <rect class="cls-3" width="1600" height="900"/>
  <g class="cls-58">
    <path class="cls-59" d="M7241.41,729.38l0-92.72V606.29l-.1-458.67,0-147.62L-4861.33.31l.05,186.17h0l0,129.29v105l0,63.92v1.62c.94.11,1.38,3.94,1.53,9.52.15,5.81,0,13.52-.32,20.88s-.64,14.12-.89,18.58h0c-.14,2.48-.27,4.21-.29,4.84v0a1.22,1.22,0,0,0,0,.23s0,0,.05.05c.32.58,4.07,6.79,6.09,7.15l0,89,0,59.93c3.39,15.44,5.07,30.06,1.82,46.16-.59,2.92-1.19,5.82-1.81,8.73l0,140.52v8h184l11643.34-.29h263l0-163.8h6.13Z"/>
    <rect class="cls-3" x="-4811.29" width="7096.47" height="900"/>
    <path class="cls-60" d="M7241.41,496.39c-1052,31.09-7416.65,6.84-12111,0V651.65c6.92,9,13.43,18.81,15.89,28.3,5.81,22.43,10.57,41.68,6.12,63.74-4.51,22.41-9.85,44.54-17.24,66.64-1.59,4.76-3.21,9.51-4.77,14.28v76.18h12111Z"/>
    <rect class="cls-61" x="-4811.29" width="12065.24" height="507.67"/>
  </g>
  <g class="cls-62">
    <g class="cls-62">
      <g class="cls-63">
        <rect class="cls-6" x="-3576.84" y="-1217.28" width="5400" height="2050" transform="translate(-1753.68 -384.56) rotate(-180)"/>
        <g class="cls-7">
          <g>
            <g>
              <g class="cls-8">
                <path class="cls-9" d="M1407.43,819.11l4.08,4.42a1.94,1.94,0,0,0,2.25.43l5.42-2.6-4.41,4.08a1.92,1.92,0,0,0-.43,2.25l2.6,5.42-4.09-4.42a1.92,1.92,0,0,0-2.24-.43l-5.42,2.6,4.41-4.08a1.92,1.92,0,0,0,.43-2.25Z"/>
                <path class="cls-9" d="M1275.63,529.94l-1.07,5.92a1.93,1.93,0,0,0,1,2l5.34,2.77-5.92-1.07a1.91,1.91,0,0,0-2,1l-2.77,5.34,1.07-5.92a1.93,1.93,0,0,0-1-2l-5.34-2.77,5.92,1.08a1.92,1.92,0,0,0,2-1Z"/>
                <g class="cls-10">
                  <path class="cls-9" d="M1591.65,279.92l-.2,7.19a2.31,2.31,0,0,0,1.57,2.25l6.81,2.31-7.19-.2a2.3,2.3,0,0,0-2.24,1.56l-2.31,6.82.2-7.19a2.33,2.33,0,0,0-1.57-2.25l-6.81-2.31,7.19.2a2.3,2.3,0,0,0,2.24-1.56Z"/>
                </g>
                <g class="cls-11">
                  <path class="cls-9" d="M1568,632.27l1,5.93a1.94,1.94,0,0,0,1.64,1.6l6,.81-5.93,1a1.92,1.92,0,0,0-1.59,1.64l-.81,6-1-5.94a1.93,1.93,0,0,0-1.64-1.59l-6-.81,5.93-1a1.92,1.92,0,0,0,1.59-1.64Z"/>
                </g>
                <g class="cls-12">
                  <path class="cls-9" d="M1227.7,751.67l-.29,10.4a3.33,3.33,0,0,0,2.27,3.25l9.86,3.34-10.41-.29a3.34,3.34,0,0,0-3.25,2.27l-3.33,9.86.28-10.41a3.34,3.34,0,0,0-2.26-3.25l-9.86-3.33,10.4.28a3.33,3.33,0,0,0,3.25-2.26Z"/>
                </g>
                <path class="cls-9" d="M1576.37,778.31l-.16,6a1.91,1.91,0,0,0,1.3,1.88l5.7,1.93-6-.17a1.93,1.93,0,0,0-1.88,1.31l-1.93,5.7.17-6a1.93,1.93,0,0,0-1.31-1.87l-5.7-1.93,6,.16a1.91,1.91,0,0,0,1.87-1.3Z"/>
              </g>
              <g class="cls-13">
                <circle class="cls-9" cx="1300.35" cy="289.97" r="1.91"/>
                <path class="cls-9" d="M1431.86,320.08a1.91,1.91,0,1,1-1.9-1.91A1.9,1.9,0,0,1,1431.86,320.08Z"/>
                <path class="cls-9" d="M1486.61,446.91a1.91,1.91,0,1,1-1.91-1.91A1.91,1.91,0,0,1,1486.61,446.91Z"/>
                <path class="cls-14" d="M1403.68,528.73a1.91,1.91,0,1,1-1.91-1.91A1.91,1.91,0,0,1,1403.68,528.73Z"/>
                <path class="cls-9" d="M1288.48,619a1.91,1.91,0,1,1-1.91-1.91A1.91,1.91,0,0,1,1288.48,619Z"/>
                <path class="cls-9" d="M1378.94,693.14a1.91,1.91,0,1,1-1.9-1.9A1.9,1.9,0,0,1,1378.94,693.14Z"/>
                <path class="cls-15" d="M1506.93,725.51a1.91,1.91,0,1,1-1.91-1.9A1.9,1.9,0,0,1,1506.93,725.51Z"/>
                <path class="cls-9" d="M1540.22,591a1.91,1.91,0,1,1-1.91-1.9A1.9,1.9,0,0,1,1540.22,591Z"/>
                <path class="cls-9" d="M1413.56,883.64a1.91,1.91,0,1,1-1.91-1.91A1.91,1.91,0,0,1,1413.56,883.64Z"/>
                <path class="cls-9" d="M1344.78,810.27a1.91,1.91,0,1,1-1.91-1.9A1.9,1.9,0,0,1,1344.78,810.27Z"/>
                <path class="cls-9" d="M1298,817.73a1.91,1.91,0,1,1-1.9-1.91A1.9,1.9,0,0,1,1298,817.73Z"/>
                <circle class="cls-9" cx="1277.85" cy="867.58" r="1.91"/>
                <path class="cls-9" d="M1214.52,358a1.91,1.91,0,1,1-1.9-1.91A1.9,1.9,0,0,1,1214.52,358Z"/>
              </g>
            </g>
            <g>
              <g class="cls-8">
                <g class="cls-16">
                  <path class="cls-9" d="M371.8,682.92l-.17,6a1.93,1.93,0,0,0,1.31,1.88l5.69,1.93-6-.17a1.93,1.93,0,0,0-1.87,1.31l-1.93,5.69.16-6a1.91,1.91,0,0,0-1.3-1.87l-5.7-1.93,6,.16a1.91,1.91,0,0,0,1.88-1.3Z"/>
                </g>
                <path class="cls-9" d="M169.11,615.81l1.08,5.92a1.93,1.93,0,0,0,1.67,1.56l6,.71-5.91,1.08a1.94,1.94,0,0,0-1.57,1.67l-.7,6-1.09-5.91a1.93,1.93,0,0,0-1.67-1.57l-6-.7,5.92-1.09a1.92,1.92,0,0,0,1.56-1.67Z"/>
                <g class="cls-17">
                  <path class="cls-9" d="M589.29,433.79l.59,6a1.94,1.94,0,0,0,1.54,1.71l5.93,1.21-6,.59a2,2,0,0,0-1.71,1.54l-1.21,5.93-.59-6a1.93,1.93,0,0,0-1.54-1.71l-5.93-1.21,6-.59a1.93,1.93,0,0,0,1.7-1.54Z"/>
                </g>
                <path class="cls-9" d="M788.9,661.57l-.16,6a1.93,1.93,0,0,0,1.31,1.88l5.69,1.92-6-.16a1.93,1.93,0,0,0-1.87,1.31l-1.93,5.69.16-6a1.91,1.91,0,0,0-1.3-1.87l-5.7-1.93,6,.16a1.91,1.91,0,0,0,1.88-1.3Z"/>
                <path class="cls-9" d="M1006.34,478.37l-2.23,5.59a1.93,1.93,0,0,0,.59,2.21l4.68,3.77-5.59-2.22a1.91,1.91,0,0,0-2.21.58L997.81,493l2.22-5.59a1.91,1.91,0,0,0-.58-2.21l-4.68-3.77,5.59,2.23a1.93,1.93,0,0,0,2.21-.59Z"/>
                <path class="cls-9" d="M806.47,305.69l-1,8.77a2.83,2.83,0,0,0,1.66,2.92l8.07,3.58-8.77-1a2.82,2.82,0,0,0-2.91,1.67l-3.58,8.07,1-8.77a2.84,2.84,0,0,0-1.66-2.92l-8.07-3.58,8.77,1.05a2.83,2.83,0,0,0,2.91-1.66Z"/>
                <g class="cls-26">
                  <path class="cls-9" d="M1137.94,845.53l.43,6.23a2,2,0,0,0,1.54,1.81L1146,855l-6.23.43A2,2,0,0,0,1138,857l-1.43,6.09-.43-6.24a2,2,0,0,0-1.54-1.81l-6.08-1.42,6.23-.43a2,2,0,0,0,1.81-1.54Z"/>
                </g>
                <path class="cls-18" d="M1109.63,302.68l1.82,5.74a2,2,0,0,0,1.85,1.34l6-.06-5.74,1.83a1.93,1.93,0,0,0-1.34,1.85l.06,6-1.83-5.73a1.91,1.91,0,0,0-1.85-1.34l-6,.05,5.73-1.82a1.93,1.93,0,0,0,1.34-1.85Z"/>
                <path class="cls-9" d="M827.53,862.51l5.11,12.68a4.37,4.37,0,0,0,4.42,2.73l13.63-1.14L838,881.88a4.38,4.38,0,0,0-2.73,4.43l1.14,13.62-5.1-12.68a4.38,4.38,0,0,0-4.42-2.73l-13.63,1.14,12.69-5.1a4.38,4.38,0,0,0,2.72-4.43Z"/>
                <path class="cls-9" d="M173.08,397.87l-.47,6a1.94,1.94,0,0,0,1.21,1.94l5.6,2.21-6-.46a1.91,1.91,0,0,0-1.94,1.21l-2.21,5.59.47-6a1.93,1.93,0,0,0-1.21-1.94l-5.6-2.21,6,.46a1.91,1.91,0,0,0,1.94-1.21Z"/>
                <path class="cls-9" d="M905.11,732.68l-.17,6a1.93,1.93,0,0,0,1.31,1.88l5.7,1.93-6-.17a1.93,1.93,0,0,0-1.88,1.31l-1.93,5.7.17-6a1.93,1.93,0,0,0-1.31-1.88l-5.7-1.93,6,.17a1.93,1.93,0,0,0,1.88-1.31Z"/>
                <path class="cls-9" d="M1113.79,469.46l-4.82,6.43a2.57,2.57,0,0,0,0,3.05l4.72,6.5-6.42-4.82a2.57,2.57,0,0,0-3.06,0l-6.5,4.72,4.82-6.43a2.57,2.57,0,0,0,0-3.05l-4.73-6.51,6.43,4.83a2.6,2.6,0,0,0,3.06,0Z"/>
                <g class="cls-19">
                  <path class="cls-9" d="M816.53,562.8l1.76,6.83a2.23,2.23,0,0,0,2.07,1.69l7,.34-6.83,1.75a2.27,2.27,0,0,0-1.7,2.08l-.34,7-1.75-6.83a2.25,2.25,0,0,0-2.08-1.69l-7-.34,6.83-1.75a2.27,2.27,0,0,0,1.7-2.08Z"/>
                </g>
                <path class="cls-9" d="M916,607.19l-2.43,5.5a1.94,1.94,0,0,0,.5,2.23l4.55,3.94-5.5-2.43a1.92,1.92,0,0,0-2.23.51l-3.94,4.54,2.42-5.5a1.92,1.92,0,0,0-.5-2.23l-4.55-3.94,5.51,2.42a1.92,1.92,0,0,0,2.23-.5Z"/>
                <path class="cls-14" d="M535.92,751.82l-2.23,5.59a1.94,1.94,0,0,0,.58,2.21l4.69,3.77-5.59-2.22a1.91,1.91,0,0,0-2.21.58l-3.77,4.68,2.22-5.59a1.93,1.93,0,0,0-.58-2.21l-4.68-3.77,5.58,2.22a1.92,1.92,0,0,0,2.22-.58Z"/>
                <path class="cls-9" d="M117.87,739.68l1.49,5.82a1.93,1.93,0,0,0,1.77,1.45l6,.29-5.82,1.49a1.93,1.93,0,0,0-1.45,1.77l-.29,6-1.49-5.83a1.93,1.93,0,0,0-1.77-1.44l-6-.29,5.83-1.49a1.93,1.93,0,0,0,1.44-1.78Z"/>
                <g class="cls-20">
                  <path class="cls-21" d="M188.12,798.1l-.16,6a1.91,1.91,0,0,0,1.3,1.88l5.7,1.93-6-.17a1.93,1.93,0,0,0-1.88,1.31l-1.93,5.7.17-6a1.93,1.93,0,0,0-1.31-1.88l-5.69-1.93,6,.17a1.93,1.93,0,0,0,1.87-1.31Z"/>
                </g>
                <g class="cls-27">
                  <path class="cls-9" d="M513.83,839.61l1.4,8a2.59,2.59,0,0,0,2.24,2.14l8.07,1-8,1.39a2.63,2.63,0,0,0-2.14,2.24l-1,8.08-1.4-8a2.61,2.61,0,0,0-2.24-2.14l-8.07-1,8-1.4a2.61,2.61,0,0,0,2.13-2.24Z"/>
                </g>
                <path class="cls-9" d="M881.43,459l1.36,5.86a1.94,1.94,0,0,0,1.74,1.48l6,.43-5.86,1.36a1.92,1.92,0,0,0-1.48,1.74l-.43,6L881.4,470a1.91,1.91,0,0,0-1.74-1.49l-6-.42,5.85-1.36A1.92,1.92,0,0,0,881,465Z"/>
                <path class="cls-9" d="M1161.08,255.92l-1.67,5.78a1.92,1.92,0,0,0,.79,2.14l5,3.3-5.78-1.67a1.92,1.92,0,0,0-2.14.79l-3.3,5,1.67-5.78a1.92,1.92,0,0,0-.79-2.14l-5-3.3,5.78,1.67a1.92,1.92,0,0,0,2.14-.79Z"/>
              </g>
              <g class="cls-13">
                <path class="cls-9" d="M66.69,568.32a1.91,1.91,0,1,1-1.91-1.91A1.9,1.9,0,0,1,66.69,568.32Z"/>
                <path class="cls-9" d="M175.24,482.4a1.91,1.91,0,1,1-1.91-1.91A1.91,1.91,0,0,1,175.24,482.4Z"/>
                <path class="cls-9" d="M137.63,377a1.91,1.91,0,1,1-1.91-1.91A1.9,1.9,0,0,1,137.63,377Z"/>
                <path class="cls-9" d="M261.22,618a1.91,1.91,0,1,1-1.91-1.91A1.92,1.92,0,0,1,261.22,618Z"/>
                <path class="cls-9" d="M316.11,530.77a1.91,1.91,0,1,1-1.91-1.9A1.9,1.9,0,0,1,316.11,530.77Z"/>
                <path class="cls-15" d="M294.54,386.61a1.91,1.91,0,1,1-1.9-1.9A1.9,1.9,0,0,1,294.54,386.61Z"/>
                <path class="cls-9" d="M480.1,321.09a1.91,1.91,0,1,1-1.91-1.91A1.92,1.92,0,0,1,480.1,321.09Z"/>
                <path class="cls-9" d="M684.28,428.68a1.91,1.91,0,1,1-1.9-1.91A1.91,1.91,0,0,1,684.28,428.68Z"/>
                <path class="cls-9" d="M503.93,561A1.91,1.91,0,1,1,502,559.1,1.91,1.91,0,0,1,503.93,561Z"/>
                <path class="cls-9" d="M645.65,619.12a1.91,1.91,0,1,1-1.91-1.9A1.91,1.91,0,0,1,645.65,619.12Z"/>
                <path class="cls-9" d="M745.77,625.57a1.91,1.91,0,1,1-1.91-1.91A1.9,1.9,0,0,1,745.77,625.57Z"/>
                <path class="cls-9" d="M735.05,466.51a1.91,1.91,0,1,1-1.9-1.91A1.91,1.91,0,0,1,735.05,466.51Z"/>
                <path class="cls-9" d="M833.66,339.45a1.91,1.91,0,1,1-1.91-1.91A1.91,1.91,0,0,1,833.66,339.45Z"/>
                <path class="cls-9" d="M956.14,364.19a1.91,1.91,0,1,1-1.91-1.91A1.91,1.91,0,0,1,956.14,364.19Z"/>
                <path class="cls-9" d="M988.52,428.92a1.91,1.91,0,1,1-1.9-1.91A1.91,1.91,0,0,1,988.52,428.92Z"/>
                <path class="cls-9" d="M992.71,532.09a1.91,1.91,0,1,1-1.91-1.9A1.9,1.9,0,0,1,992.71,532.09Z"/>
                <path class="cls-9" d="M1052,583.74a1.91,1.91,0,1,1-1.91-1.91A1.9,1.9,0,0,1,1052,583.74Z"/>
                <path class="cls-15" d="M949.83,739.56a1.91,1.91,0,1,1-1.91-1.91A1.91,1.91,0,0,1,949.83,739.56Z"/>
                <path class="cls-9" d="M828.44,766.51a1.91,1.91,0,1,1-1.91-1.9A1.91,1.91,0,0,1,828.44,766.51Z"/>
                <path class="cls-9" d="M439.67,864.36a1.91,1.91,0,1,1-1.91-1.91A1.91,1.91,0,0,1,439.67,864.36Z"/>
                <circle class="cls-9" cx="383.05" cy="759.9" r="1.91"/>
                <path class="cls-9" d="M296.67,743.75a1.91,1.91,0,1,1-1.91-1.91A1.91,1.91,0,0,1,296.67,743.75Z"/>
                <path class="cls-9" d="M271,864.36a1.91,1.91,0,1,1-1.91-1.91A1.91,1.91,0,0,1,271,864.36Z"/>
                <path class="cls-9" d="M159.32,875a1.91,1.91,0,1,1-1.9-1.91A1.91,1.91,0,0,1,159.32,875Z"/>
                <path class="cls-9" d="M87.25,824.31a1.91,1.91,0,1,1-1.9-1.91A1.9,1.9,0,0,1,87.25,824.31Z"/>
                <path class="cls-9" d="M37.36,829.82a1.91,1.91,0,1,1-1.91-1.91A1.9,1.9,0,0,1,37.36,829.82Z"/>
                <path class="cls-9" d="M973.37,879.39a1.91,1.91,0,1,1-1.91-1.91A1.9,1.9,0,0,1,973.37,879.39Z"/>
                <path class="cls-9" d="M1061.75,886.88a1.91,1.91,0,1,1-1.91-1.91A1.91,1.91,0,0,1,1061.75,886.88Z"/>
                <path class="cls-9" d="M647.92,852.49a1.91,1.91,0,1,1-1.91-1.9A1.9,1.9,0,0,1,647.92,852.49Z"/>
                <path class="cls-9" d="M707,761.1a1.91,1.91,0,1,1-1.9-1.91A1.9,1.9,0,0,1,707,761.1Z"/>
                <path class="cls-9" d="M1142.4,656.78a1.91,1.91,0,1,1-1.91-1.91A1.91,1.91,0,0,1,1142.4,656.78Z"/>
                <path class="cls-15" d="M1028.17,261.07a1.91,1.91,0,1,1-1.9-1.91A1.9,1.9,0,0,1,1028.17,261.07Z"/>
                <path class="cls-9" d="M79.58,293.09a1.91,1.91,0,1,1-1.91-1.9A1.9,1.9,0,0,1,79.58,293.09Z"/>
                <path class="cls-9" d="M1129.36,379.48a1.91,1.91,0,1,1-1.91-1.91A1.91,1.91,0,0,1,1129.36,379.48Z"/>
                <path class="cls-9" d="M631.8,299.55a1.91,1.91,0,1,1-1.91-1.91A1.9,1.9,0,0,1,631.8,299.55Z"/>
                <path class="cls-14" d="M554.36,355.65a1.91,1.91,0,1,1-1.91-1.9A1.9,1.9,0,0,1,554.36,355.65Z"/>
                <circle class="cls-14" cx="68.04" cy="651.34" r="1.91"/>
                <path class="cls-14" d="M1090.7,736.44a1.91,1.91,0,1,1-1.9-1.91A1.9,1.9,0,0,1,1090.7,736.44Z"/>
              </g>
            </g>
          </g>
          <g>
            <g>
              <g class="cls-8">
                <g class="cls-23">
                  <path class="cls-9" d="M1324.57,160.06l.24,6a2,2,0,0,0,1.43,1.79l5.82,1.54-6,.24a1.92,1.92,0,0,0-1.79,1.43l-1.54,5.81-.24-6a1.91,1.91,0,0,0-1.43-1.78l-5.81-1.54,6-.24a1.93,1.93,0,0,0,1.78-1.43Z"/>
                </g>
                <path class="cls-9" d="M1579.3,19.91l4.36,11.84a4,4,0,0,0,4,2.63l12.59-.68-11.83,4.36a4,4,0,0,0-2.63,4l.68,12.6-4.36-11.84a4,4,0,0,0-4-2.63l-12.59.68,11.83-4.36a4,4,0,0,0,2.64-4Z"/>
                <g class="cls-24">
                  <path class="cls-9" d="M1507.24,81.6l-.08,6a1.94,1.94,0,0,0,1.34,1.86l5.73,1.84-6-.07a1.92,1.92,0,0,0-1.85,1.33l-1.84,5.73.07-6a1.92,1.92,0,0,0-1.34-1.85l-5.72-1.84,6,.07a1.92,1.92,0,0,0,1.86-1.34Z"/>
                </g>
                <path class="cls-14" d="M1250.42,227.64l2.33,5.54a1.92,1.92,0,0,0,2,1.18l6-.59-5.54,2.32a1.92,1.92,0,0,0-1.17,2l.58,6-2.32-5.54a1.93,1.93,0,0,0-2-1.18l-6,.59,5.55-2.32a1.94,1.94,0,0,0,1.17-2Z"/>
              </g>
              <g class="cls-13">
                <path class="cls-9" d="M1443.63,91.75a1.91,1.91,0,1,1-1.91-1.91A1.91,1.91,0,0,1,1443.63,91.75Z"/>
                <path class="cls-9" d="M1413.56-.88A1.91,1.91,0,0,1,1411.65,1a1.91,1.91,0,0,1-1.9-1.91,1.91,1.91,0,0,1,1.9-1.91A1.91,1.91,0,0,1,1413.56-.88Z"/>
                <path class="cls-15" d="M1302.68,78.9a1.91,1.91,0,1,1-1.91-1.91A1.92,1.92,0,0,1,1302.68,78.9Z"/>
                <path class="cls-9" d="M1400.55,170.47a1.91,1.91,0,1,1-1.91-1.91A1.92,1.92,0,0,1,1400.55,170.47Z"/>
                <path class="cls-9" d="M1539.24,155.37a1.91,1.91,0,1,1-1.91-1.91A1.91,1.91,0,0,1,1539.24,155.37Z"/>
                <path class="cls-9" d="M1235,225a1.91,1.91,0,1,1-1.9-1.91A1.91,1.91,0,0,1,1235,225Z"/>
                <path class="cls-14" d="M1223.9,75.53a1.91,1.91,0,1,1-1.91-1.91A1.9,1.9,0,0,1,1223.9,75.53Z"/>
              </g>
            </g>
            <g>
              <g class="cls-8">
                <g class="cls-25">
                  <path class="cls-9" d="M54.31,81.15l-.17,6A1.93,1.93,0,0,0,55.45,89L61.14,91l-6-.17a1.93,1.93,0,0,0-1.87,1.31l-1.93,5.7.16-6a1.91,1.91,0,0,0-1.3-1.87L44.49,88l6,.16a1.91,1.91,0,0,0,1.88-1.3Z"/>
                </g>
                <path class="cls-9" d="M206.45,178.23l-.27,9.69a3.09,3.09,0,0,0,2.11,3l9.18,3.11-9.69-.27a3.1,3.1,0,0,0-3,2.11l-3.11,9.18.27-9.69a3.11,3.11,0,0,0-2.11-3l-9.18-3.11,9.69.27a3.11,3.11,0,0,0,3-2.11Z"/>
                <path class="cls-18" d="M972.4,162.46l-1.58,5.8a2,2,0,0,0,.83,2.14l5.09,3.21L970.93,172a1.91,1.91,0,0,0-2.13.83L965.59,178l1.57-5.81a1.92,1.92,0,0,0-.83-2.13l-5.08-3.21,5.8,1.57a1.91,1.91,0,0,0,2.13-.83Z"/>
                <path class="cls-9" d="M827.53-22l5.11,12.69a4.36,4.36,0,0,0,4.42,2.72l13.63-1.14L838-2.63a4.37,4.37,0,0,0-2.73,4.42l1.14,13.63-5.1-12.69A4.38,4.38,0,0,0,826.89,0L813.26,1.14,826-4a4.37,4.37,0,0,0,2.72-4.42Z"/>
                <path class="cls-9" d="M35.88,212.17l-.17,6A1.93,1.93,0,0,0,37,220.06l5.7,1.93-6-.16a1.91,1.91,0,0,0-1.88,1.3l-1.93,5.7.17-6a1.93,1.93,0,0,0-1.31-1.88L26.06,219l6,.17A1.93,1.93,0,0,0,34,217.87Z"/>
              </g>
              <g class="cls-13">
                <path class="cls-14" d="M610.27,70.19a1.91,1.91,0,1,1-1.91-1.91A1.92,1.92,0,0,1,610.27,70.19Z"/>
                <path class="cls-9" d="M24.72,89.76a1.91,1.91,0,1,1-1.91-1.91A1.91,1.91,0,0,1,24.72,89.76Z"/>
                <path class="cls-9" d="M106.44,40.3a1.91,1.91,0,1,1-1.91-1.9A1.9,1.9,0,0,1,106.44,40.3Z"/>
                <path class="cls-9" d="M209.74,92a1.91,1.91,0,1,1-1.9-1.91A1.9,1.9,0,0,1,209.74,92Z"/>
                <path class="cls-9" d="M305.33,150a1.91,1.91,0,1,1-1.91-1.9A1.91,1.91,0,0,1,305.33,150Z"/>
                <path class="cls-9" d="M442.79,122.94a1.91,1.91,0,1,1-1.9-1.91A1.91,1.91,0,0,1,442.79,122.94Z"/>
                <path class="cls-15" d="M660.69,145.65a1.91,1.91,0,1,1-1.91-1.91A1.91,1.91,0,0,1,660.69,145.65Z"/>
                <path class="cls-14" d="M713.73,151a1.91,1.91,0,1,1-1.9-1.9A1.9,1.9,0,0,1,713.73,151Z"/>
                <path class="cls-9" d="M911,120.73a1.91,1.91,0,1,1-1.91-1.91A1.92,1.92,0,0,1,911,120.73Z"/>
                <path class="cls-9" d="M1061.75,2.37a1.91,1.91,0,1,1-1.91-1.91A1.9,1.9,0,0,1,1061.75,2.37Z"/>
                <path class="cls-9" d="M1099.21,139.87a1.91,1.91,0,1,1-1.9-1.91A1.91,1.91,0,0,1,1099.21,139.87Z"/>
                <path class="cls-9" d="M1119.54,238.89a1.91,1.91,0,1,1-1.91-1.9A1.9,1.9,0,0,1,1119.54,238.89Z"/>
                <circle class="cls-9" cx="461.31" cy="207.05" r="1.91"/>
                <path class="cls-9" d="M104.38,213.52a1.91,1.91,0,1,1-1.91-1.91A1.91,1.91,0,0,1,104.38,213.52Z"/>
                <path class="cls-9" d="M991.54,216.43a1.91,1.91,0,1,1-1.91-1.91A1.92,1.92,0,0,1,991.54,216.43Z"/>
              </g>
            </g>
          </g>
        </g>
        <path class="cls-57" d="M581.63-64.58c2.46,2.4-72.44,82.93-76.78,87.37s-9.85,6.09-12.31,3.69-.92-7.94,3.43-12.38S579.18-67,581.63-64.58Z"/>
      </g>
    </g>
    <g>
      <path class="cls-64" d="M1592.54-367s14,109.38,12.39,135.47-33.17,84.14-33.17,84.14-33.31,113.59-43.88,169.13-46.6,126.21-46.6,126.21-215.7,53-274.65,53S1118,157.2,1118,157.2,1034.77-71.67,1027.49-83s-48.73-34.9-48.73-34.9-67.4-192.86-72.71-243.68l187.46,12.28Z"/>
      <path class="cls-65" d="M1462.33-340.24v76.32l48.93,13.16s2.15,1.52,7.53,23.42,30.3,76,30.3,76l22.67,3.93L1553.62-83s-26.18.42-36.57,10.65-33.47,40.8-33.47,40.8l-13.84,60.09S1455.9-82.61,1455-100.16s-14.37-93-12.27-105.71-.83-62.43-.83-62.43l-3.69-51.78s-70.88,15.22-78.26,19.6-10.6,51.18-10.6,51.18l-24.16,88.22,27.06,128.82L1341.72,77l-3.3,82.17-38.49,65.27h-30.45S1244.56,11,1242.71-2.19,1249.29-46,1249.29-46l-12.12-134.14,21.53-134.67,1.23-1.14,28.65-5.39s44.18,8.08,59.09,10.26,90.69-20,90.69-20l-45.45-17.55Z"/>
      <path class="cls-65" d="M1073.63-284.36l-60.71,16.06,9.68,36.76,26.31,100.68L1080.65-83l35.63,20.89L1144-31.58h-24l1.85,40.75,12.88,97,.64,69.08-16.28-3.53s-65-186.48-91.57-254.79c0,0-44.15-21.62-48.73-34.9s-67-198.09-72.71-243.68l90.28,26.93-37.46,20s26.37,18.61,43.91,23S1073.63-284.36,1073.63-284.36Z"/>
    </g>
  </g>
</svg>
