<svg id="Layer_1" data-name="Layer 1" xmlns="http://www.w3.org/2000/svg" xmlns:xlink="http://www.w3.org/1999/xlink" width="13191.7" height="5521.55" viewBox="0 0 13191.7 5521.55">
  <defs>
    <style>
      .cls-1 {
        fill: url(#linear-gradient);
      }

      .cls-2 {
        fill: #cfeaff;
      }

      .cls-3 {
        fill: #e1f3ff;
      }

      .cls-4 {
        fill: #bddcf2;
      }

      .cls-5 {
        fill: #c8e7fc;
      }

      .cls-6 {
        opacity: 0.3;
      }

      .cls-7 {
        fill: #e6f5ff;
      }

      .cls-8 {
        fill: #e3f3ff;
      }

      .cls-9 {
        fill: #e6f6ff;
      }

      .cls-10 {
        opacity: 0.4;
      }
    </style>
    <linearGradient id="linear-gradient" x1="6605.31" y1="5793.16" x2="6605.31" y2="-1190.68" gradientUnits="userSpaceOnUse">
      <stop offset="0" stop-color="#a4f2ff"/>
      <stop offset="0.23" stop-color="#69e3ff"/>
      <stop offset="0.45" stop-color="#34d5ff"/>
      <stop offset="0.57" stop-color="#1fd0ff"/>
      <stop offset="0.65" stop-color="#25c3ff"/>
      <stop offset="0.81" stop-color="#36a2ff"/>
      <stop offset="1" stop-color="#4d73ff"/>
    </linearGradient>
  </defs>
  <g>
    <rect class="cls-1" x="9.46" y="-11.21" width="13191.7" height="5525.81"/>
    <g>
      <path class="cls-2" d="M5948.34,1662.61c-24.89,13-41,9.9-59.2-11.53-23.85,19.09-39.07,21.65-67.82,11.37-19.55,17.3-40.49,12.53-50.6-11.52-21.46,20.43-29.72,22.07-57.33,11.38-31.87,18.28-46.6,16.32-72.58-9.63-21-2.17-17.55-21.86-7.45-30.73,6.72-5.93,16.4-7,23.72,5-.45-23.83,55.92-28.31,59.22-4.71-2.39-24.59,9.77-37.36,34.43-36.25a77.77,77.77,0,0,1-7.58-21.44c-11.31-59.32,59.77-103.27,109.88-54.83,47.58-20.44,95.47,12.45,98.08,58.93a75,75,0,0,1-2.68,24.29c26.88-11.72,44.06-1.75,51.59,14.29v0C6013.41,1635.77,5996.14,1683.58,5948.34,1662.61Z"/>
      <path class="cls-3" d="M5951.11,1568.62c-4.77-9.38-7.19-31.17-35.4-43.21-48.61-20.75-100.76,20.68-117.77,44.91,5.37-23.28,33-48.93,44.2-53.78-88.19-43.25-99,48-99,48h0c-11.31-59.32,59.77-103.27,109.88-54.83C5900.61,1489.25,5948.5,1522.14,5951.11,1568.62Z"/>
      <path class="cls-4" d="M5948.34,1662.61c-24.89,13-41,9.9-59.2-11.53-23.85,19.09-39.07,21.65-67.82,11.37-19.55,17.3-40.49,12.53-50.6-11.52-21.46,20.43-29.72,22.07-57.33,11.38-31.87,18.28-46.6,16.32-72.58-9.63-21-2.17-17.55-21.86-7.45-30.73,0,0-11.75,26.56,14.91,25,25.82-1.48,37.43-12.81,38.13-13.5-5.24,8.35-20.27,18.94-28.21,23.44,7.83,5.76,25.59,14.15,54.88-4.11,15.7,2.63,39.22-3.61,57.53-18.22-17.27,2.59-37.09-15.2-38.64-22,24,11.53,50.67,17.83,105.57-.39-17.79,11-41,26.28-59.64,28.15,3.66,16.21,24.53,27.21,41.28,12.07,15.68,7.34,40.77,11.55,68-10.89,17.74,12,44.38,21.49,58.51,5.3-13.06,0-44.92-6.85-55.86-30.38,21.93,14.66,57.61,8.9,85-13.25-1.93,12.31-9.77,23.8-17.61,28,9.4,5.24,44.31-.43,42.83-24C6013.41,1635.77,5996.14,1683.58,5948.34,1662.61Z"/>
      <path class="cls-5" d="M5815.51,1574.8c-1-3.78,5.2-12.9,9.09-15.19,4.43-2.61,12.46-1.28,14.51,4.1-.48-7.75,3-13.83,9.64-17.34,4-2.09,14.74-6.47,16,1.36,0-6.47,16.61-12.26,22-13.15,4.6-.75,16.71,2.2,11.95,8.88,2.49-.08,4.84-1.38,7.36-1.8a26.45,26.45,0,0,1,12.57,1.23c4.19,1.35,9.81,3.53,9.11,8.76-.21,1.59-2.78,3.76-2.29,5.41.3,1,1.71.34,2.18,1.06,2.73,4.19,4.11,7.53,2.43,12.78-2.71,8.46-14.29,17-23.53,12.94-4-1.74-5.22-9.26-7.9-13.15-4.2,10.64-19.38,7.37-27.38,4.54-4.56-1.62-7.89-6-12.89-5.31-4.5.6-9.58,5.09-11.47,9.17-5.05-1.42-9.82-5-15.22-4.63-6.47.42-7.39,4.77-11.92,7.81-3.1,2.08-1.28.19-3.94-1.68s-6.55-1-9.39-1.8a9.25,9.25,0,0,1,1.6-.07Z"/>
      <path class="cls-5" d="M5755.83,1549.72c.55-6.62,2.73-5.46,7.59-7.46,4.26-1.75,6.51-7.62,10.18-11,2.16-2,11.69-4.59,9.48,1.12.27-8.72,17.16-16.1,24.39-12.1,4.07,2.26,4.2,7.12,1.48,10.3-3.68-2.33-11.95-2.35-15,1-3.36,3.66-.7,5.45-5.31,6.77s-6.69.33-9.93,4.3c-3.67,4.48-.71,6-1.7,10.49-4.44-1-8-.84-10.14,3.76-1.48,3.23-.18,4.38,0,7.83.17,2.9-.68,5,.83,7.78,1.29,2.35,3.42,4,4.2,6.63-5.08,1.34-11.9-6.76-13.5-10.72A40,40,0,0,1,5755.83,1549.72Z"/>
    </g>
    <g class="cls-6">
      <path class="cls-2" d="M8201.29,2786.23a91.54,91.54,0,0,1-19.77,24.58c-25.46,22.81-63.76,33.85-102,31.05l-20.76-1.52-3.84,4c-33.58,34.53-89.6,51.38-143,41-16.37-3.18-33.57-7-48.07-14-13.19-6.36-27-17.54-27.82-30.45-3.42,5-10.28,10.41-13.7,13.13-29.5,23.41-62.19,22.68-100.12,20.42-41.35-2.45-87.23-20.37-88.36-57.56-.07-2.18-.24-3.81-.58-7.51-18.54,9.33-31.8,19.5-54.79,22.95-19.32,2.91-40.39,1.55-58-4.37-14.87-5-27.82-13.68-36.83-24.29a58.69,58.69,0,0,1-11.24-18.87,44.18,44.18,0,0,1-2.3-21.48c3.94-27,30.6-54.7,64.45-50.68-13.09-25.23,2.43-51.82,27.41-70.56s61.47-30.91,92.51-19.17c3.53-42.52,52.87-73.11,106.28-77.32s107.93,25.58,122,66.72c73.56-27.24,172.92,12.75,188.68,75.94,50.5-22.76,121.46,6.8,135.54,50.88a49.67,49.67,0,0,1,2.06,9C8210.78,2761.24,8207.83,2774.26,8201.29,2786.23Z"/>
      <g>
        <path class="cls-7" d="M8206.94,2739c-16-27.93-52.73-43.67-83.08-45.52-44.54-2.72-61.67,13.59-61.67,13.59-3.43-35.34-24-68-89.09-84.29s-99.36,10.88-99.36,10.88c-3.24-25.72-22.11-47.52-48.53-62-30.08-16.49-72.83-17-105.44-5-35.4,13-46.89,39.2-44.75,69.78-13.71-5.44-33.6-4.71-36.8-5-29.06-2.5-58.63,10.91-76.78,28.26-8.56,8.18-15.06,17.92-17.22,28.5-.81,4,.6,24.35,7.45,32.51-24,0-41.11,8.16-41.11,8.16-34.26,13.59-38.27,54.68-38.17,55.84a44.18,44.18,0,0,1-2.3-21.48c3.94-27,30.6-54.7,64.45-50.68-13.09-25.23,2.43-51.82,27.41-70.56s61.47-30.91,92.51-19.17c3.53-42.52,52.87-73.11,106.28-77.32s107.93,25.58,122,66.72c73.56-27.24,172.92,12.75,188.68,75.94C8121.9,2665.39,8192.86,2695,8206.94,2739Z"/>
        <path class="cls-7" d="M7777.63,2649.33s88.32-65.95,178.16,1.35C7955.79,2650.68,7878,2617.93,7777.63,2649.33Z"/>
        <path class="cls-7" d="M7644,2719.77s103.73-84.53,209.08,1.58C7853,2721.35,7761.83,2679.48,7644,2719.77Z"/>
        <path class="cls-7" d="M7993.67,2720s71.18-53.15,143.59,1.09C8137.26,2721.09,8074.6,2694.69,7993.67,2720Z"/>
        <path class="cls-8" d="M7558.53,2647.29c65.09-35.35,143.6-2.33,143.6-2.33C7629.72,2590.71,7558.53,2647.29,7558.53,2647.29Z"/>
      </g>
      <g>
        <path class="cls-4" d="M8201.29,2786.23a91.54,91.54,0,0,1-19.77,24.58c-25.46,22.81-63.76,33.85-102,31.05l-20.76-1.52-3.84,4c-33.58,34.53-89.6,51.38-143,41-16.37-3.18-33.57-7-48.07-14-13.19-6.36-27-17.54-27.82-30.45-3.42,5-10.28,10.41-13.7,13.13-29.5,23.41-62.19,22.68-100.12,20.42-41.35-2.45-87.23-20.37-88.36-57.56-.07-2.18-.24-3.81-.58-7.51-18.54,9.33-31.8,19.5-54.79,22.95-19.32,2.91-40.39,1.55-58-4.37-14.87-5-27.82-13.68-36.83-24.29,33.54,5.31,114.95,21.29,157.13-12.18-2.81,2.23,21.1,22.16,23,23.52,24.8,18.22,59.1,24.28,92.09,22.87a257.19,257.19,0,0,0,50.2-7.34c3.29-.82,16.31-3.7,33.44-14.58,17.13,24.48,72.84,40.57,140.47,24.48,0,0,48-10.88,65.1-40.79C8045.05,2799.55,8137,2819.4,8201.29,2786.23Z"/>
        <path class="cls-4" d="M7990.23,2777.8s70.62,45.19,150.36,0C8140.59,2777.8,8067.69,2862.77,7990.23,2777.8Z"/>
        <path class="cls-4" d="M7563.66,2778.24s61.16,27.87,130.2,0C7693.86,2778.24,7630.74,2830.63,7563.66,2778.24Z"/>
        <path class="cls-4" d="M7741.83,2788.67s95.75,55.72,203.86,0C7945.69,2788.67,7846.85,2893.41,7741.83,2788.67Z"/>
      </g>
    </g>
    <g>
      <path class="cls-2" d="M7922.32,2837.92c-25.77,13.54-42.48,10.32-61.35-11.87-24.69,19.82-40.45,22.49-70.26,11.87-20.23,18-41.93,13-52.44-11.87-22.21,21.2-30.77,22.91-59.39,11.87-33,19-48.26,17-75.21-9.88-21.8-2.23-18.21-22.62-7.76-31.83,7-6.16,17-7.32,24.59,5.11-.51-24.69,57.9-29.4,61.35-5-2.51-25.47,10.07-38.73,35.62-37.6a81.06,81.06,0,0,1-7.88-22.21c-11.8-61.45,61.79-107.08,113.77-57,49.28-21.24,98.94,12.78,101.71,60.93a77.64,77.64,0,0,1-2.75,25.17c27.84-12.17,45.65-1.86,53.47,14.74v0C7989.71,2810,7971.88,2859.59,7922.32,2837.92Z"/>
      <path class="cls-3" d="M7925.07,2740.53c-4.95-9.71-7.5-32.28-36.74-44.72-50.4-21.43-104.37,21.56-122,46.69,5.54-24.13,34.18-50.74,45.73-55.78-91.43-44.71-102.48,49.84-102.48,49.84h0c-11.8-61.45,61.79-107.08,113.77-57C7872.64,2658.36,7922.3,2692.38,7925.07,2740.53Z"/>
      <path class="cls-4" d="M7922.32,2837.92c-25.77,13.54-42.48,10.32-61.35-11.87-24.69,19.82-40.45,22.49-70.26,11.87-20.23,18-41.93,13-52.44-11.87-22.21,21.2-30.77,22.91-59.39,11.87-33,19-48.26,17-75.21-9.88-21.8-2.23-18.21-22.62-7.76-31.83,0,0-12.14,27.53,15.48,25.91,26.75-1.56,38.77-13.32,39.49-14-5.42,8.66-21,19.66-29.2,24.33,8.12,6,26.53,14.62,56.86-4.33,16.26,2.7,40.63-3.79,59.59-18.95-17.9,2.7-38.45-15.71-40.08-22.75,24.91,11.91,52.53,18.41,109.39-.54-18.41,11.37-42.44,27.28-61.75,29.24,3.81,16.79,25.45,28.16,42.78,12.46,16.26,7.58,42.26,11.91,70.41-11.38,18.4,12.46,46,22.21,60.64,5.42-13.54,0-46.55-7-57.93-31.41,22.75,15.16,59.71,9.15,88.07-13.84-2,12.76-10.09,24.67-18.21,29,9.75,5.42,45.91-.5,44.34-24.87C7989.71,2810,7971.88,2859.59,7922.32,2837.92Z"/>
      <path class="cls-5" d="M7784.58,2747.12c-1.09-3.92,5.37-13.38,9.4-15.76,4.58-2.71,12.91-1.34,15,4.23-.5-8,3.06-14.33,10-18,4.13-2.17,15.26-6.72,16.56,1.39,0-6.71,17.2-12.73,22.79-13.65,4.76-.78,17.31,2.25,12.39,9.18,2.58-.08,5-1.43,7.63-1.88a27.37,27.37,0,0,1,13,1.27c4.34,1.39,10.16,3.64,9.44,9.06-.22,1.65-2.87,3.9-2.37,5.61.32,1,1.78.34,2.26,1.09,2.84,4.34,4.28,7.8,2.54,13.25-2.8,8.76-14.78,17.6-24.36,13.43-4.13-1.79-5.42-9.59-8.2-13.62-4.34,11-20.08,7.67-28.37,4.74-4.73-1.66-8.18-6.17-13.36-5.48-4.66.63-9.92,5.29-11.87,9.52-5.23-1.47-10.18-5.15-15.78-4.78-6.71.44-7.65,5-12.34,8.11-3.21,2.16-1.33.2-4.08-1.73s-6.79-1-9.74-1.86a11.2,11.2,0,0,1,1.66-.08Z"/>
      <path class="cls-5" d="M7722.71,2721.21c.56-6.86,2.82-5.67,7.85-7.74,4.42-1.82,6.74-7.9,10.54-11.4,2.23-2.06,12.1-4.78,9.82,1.14.27-9,17.76-16.7,25.25-12.56,4.23,2.33,4.36,7.36,1.55,10.66-3.81-2.41-12.39-2.42-15.57,1.06-3.47,3.8-.72,5.65-5.5,7s-6.92.35-10.28,4.46c-3.8,4.65-.73,6.22-1.74,10.88-4.6-1.06-8.32-.87-10.5,3.91-1.53,3.34-.19,4.53,0,8.1.18,3-.7,5.2.87,8.07,1.33,2.43,3.55,4.11,4.35,6.85-5.25,1.4-12.34-7-14-11.08A41.25,41.25,0,0,1,7722.71,2721.21Z"/>
    </g>
    <g class="cls-6">
      <path class="cls-2" d="M5026,1890.8a91.54,91.54,0,0,1-19.77,24.58c-25.46,22.81-63.76,33.85-102,31l-20.76-1.52-3.84,4c-33.58,34.53-89.6,51.39-143,41-16.37-3.18-33.57-7-48.07-14-13.19-6.36-27-17.53-27.82-30.45-3.42,5-10.28,10.42-13.7,13.13-29.5,23.42-62.19,22.68-100.12,20.42-41.35-2.44-87.23-20.36-88.36-57.56-.07-2.17-.24-3.8-.58-7.5-18.54,9.32-31.8,19.49-54.79,23-19.32,2.91-40.4,1.55-58-4.38-14.87-5-27.82-13.68-36.83-24.28a58.69,58.69,0,0,1-11.24-18.87,44.18,44.18,0,0,1-2.3-21.48c3.94-27,30.6-54.71,64.45-50.68-13.09-25.24,2.43-51.83,27.41-70.56s61.47-30.92,92.51-19.17c3.53-42.53,52.87-73.11,106.28-77.33s107.93,25.59,122,66.73c73.56-27.25,172.92,12.75,188.68,75.94,50.5-22.76,121.46,6.79,135.54,50.87a50.07,50.07,0,0,1,2.06,9C5035.53,1865.81,5032.58,1878.84,5026,1890.8Z"/>
      <g>
        <path class="cls-7" d="M5031.69,1843.6c-16-27.92-52.73-43.67-83.08-45.52-44.54-2.72-61.68,13.6-61.68,13.6-3.42-35.35-24-68-89.08-84.29s-99.36,10.88-99.36,10.88c-3.24-25.73-22.11-47.52-48.53-62-30.08-16.5-72.83-17-105.45-5-35.39,13-46.88,39.19-44.74,69.77-13.71-5.43-33.61-4.7-36.8-5-29.06-2.5-58.63,10.92-76.78,28.26-8.56,8.18-15.06,17.92-17.22,28.5-.81,4,.6,24.36,7.45,32.51-24,0-41.11,8.16-41.11,8.16-34.27,13.6-38.27,54.68-38.17,55.85a44.18,44.18,0,0,1-2.3-21.48c3.94-27,30.6-54.71,64.45-50.68-13.09-25.24,2.43-51.83,27.41-70.56s61.47-30.92,92.51-19.17c3.53-42.53,52.87-73.11,106.28-77.33s107.93,25.59,122,66.73c73.56-27.25,172.92,12.75,188.68,75.94C4946.65,1770,5017.61,1799.52,5031.69,1843.6Z"/>
        <path class="cls-7" d="M4602.38,1753.91s88.31-66,178.16,1.34C4780.54,1755.25,4702.78,1722.5,4602.38,1753.91Z"/>
        <path class="cls-7" d="M4468.71,1824.35s103.73-84.53,209.08,1.57C4677.79,1825.92,4586.58,1784.05,4468.71,1824.35Z"/>
        <path class="cls-7" d="M4818.42,1824.58s71.18-53.16,143.59,1.08C4962,1825.66,4899.34,1799.27,4818.42,1824.58Z"/>
        <path class="cls-8" d="M4383.27,1751.86c65.1-35.35,143.61-2.33,143.61-2.33C4454.47,1695.29,4383.27,1751.86,4383.27,1751.86Z"/>
      </g>
      <g>
        <path class="cls-4" d="M5026,1890.8a91.54,91.54,0,0,1-19.77,24.58c-25.46,22.81-63.76,33.85-102,31l-20.76-1.52-3.84,4c-33.58,34.53-89.6,51.39-143,41-16.37-3.18-33.57-7-48.07-14-13.19-6.36-27-17.53-27.82-30.45-3.42,5-10.28,10.42-13.7,13.13-29.5,23.42-62.19,22.68-100.12,20.42-41.35-2.44-87.23-20.36-88.36-57.56-.07-2.17-.24-3.8-.58-7.5-18.54,9.32-31.8,19.49-54.79,23-19.32,2.91-40.4,1.55-58-4.38-14.87-5-27.82-13.68-36.83-24.28,33.54,5.3,114.95,21.29,157.12-12.18-2.8,2.23,21.11,22.16,23,23.52,24.8,18.21,59.1,24.28,92.09,22.86a257.19,257.19,0,0,0,50.2-7.34c3.29-.81,16.31-3.7,33.44-14.57,17.13,24.47,72.84,40.57,140.47,24.47,0,0,48-10.88,65.1-40.79C4869.8,1904.12,4961.76,1924,5026,1890.8Z"/>
        <path class="cls-4" d="M4815,1882.37s70.62,45.2,150.36,0C4965.34,1882.37,4892.44,1967.34,4815,1882.37Z"/>
        <path class="cls-4" d="M4388.41,1882.82s61.16,27.86,130.2,0C4518.61,1882.82,4455.49,1935.2,4388.41,1882.82Z"/>
        <path class="cls-4" d="M4566.58,1893.25s95.75,55.71,203.86,0C4770.44,1893.25,4671.6,1998,4566.58,1893.25Z"/>
      </g>
    </g>
    <g>
      <path class="cls-2" d="M4747.07,1942.5c-25.77,13.54-42.48,10.31-61.35-11.87-24.69,19.81-40.45,22.48-70.26,11.87-20.24,18-41.93,13-52.44-11.87-22.21,21.2-30.77,22.9-59.39,11.87-33,19-48.26,17-75.21-9.89-21.81-2.22-18.22-22.62-7.77-31.83,7-6.15,17-7.32,24.59,5.12-.5-24.69,57.91-29.41,61.36-5-2.51-25.48,10.06-38.74,35.62-37.61a81.37,81.37,0,0,1-7.89-22.2c-11.79-61.46,61.8-107.09,113.78-57,49.28-21.24,98.94,12.77,101.71,60.92a77.73,77.73,0,0,1-2.75,25.18c27.84-12.18,45.65-1.87,53.47,14.74v0C4814.46,1914.6,4796.63,1964.16,4747.07,1942.5Z"/>
      <path class="cls-3" d="M4749.82,1845.1c-4.95-9.7-7.5-32.28-36.74-44.72-50.4-21.43-104.38,21.56-122,46.69,5.54-24.13,34.18-50.74,45.73-55.78-91.43-44.7-102.49,49.85-102.49,49.85h0c-11.79-61.46,61.8-107.09,113.78-57C4697.39,1762.94,4747.05,1797,4749.82,1845.1Z"/>
      <path class="cls-4" d="M4747.07,1942.5c-25.77,13.54-42.48,10.31-61.35-11.87-24.69,19.81-40.45,22.48-70.26,11.87-20.24,18-41.93,13-52.44-11.87-22.21,21.2-30.77,22.9-59.39,11.87-33,19-48.26,17-75.21-9.89-21.81-2.22-18.22-22.62-7.77-31.83,0,0-12.13,27.54,15.49,25.92,26.75-1.57,38.77-13.32,39.49-14-5.42,8.66-21,19.65-29.2,24.32,8.12,6,26.53,14.63,56.86-4.33,16.26,2.71,40.63-3.79,59.58-19-17.89,2.71-38.44-15.7-40.07-22.74,24.91,11.91,52.53,18.41,109.39-.54-18.41,11.37-42.44,27.27-61.75,29.23,3.81,16.79,25.45,28.16,42.78,12.46,16.26,7.58,42.25,11.91,70.41-11.37,18.4,12.45,46,22.2,60.64,5.41-13.54,0-46.56-7-57.93-31.41,22.75,15.17,59.71,9.15,88.07-13.83-2,12.75-10.09,24.67-18.21,29,9.74,5.42,45.91-.5,44.34-24.87C4814.46,1914.6,4796.63,1964.16,4747.07,1942.5Z"/>
      <path class="cls-5" d="M4609.33,1851.69c-1.09-3.92,5.37-13.38,9.4-15.76,4.58-2.71,12.91-1.34,15,4.24-.5-8,3.06-14.33,10-18,4.13-2.18,15.26-6.73,16.56,1.38,0-6.7,17.2-12.72,22.79-13.65,4.76-.78,17.31,2.26,12.39,9.19,2.58-.09,5-1.44,7.63-1.88a27.49,27.49,0,0,1,13,1.26c4.34,1.4,10.16,3.64,9.44,9.07-.22,1.64-2.87,3.9-2.37,5.6.32,1.06,1.78.35,2.26,1.1,2.84,4.34,4.28,7.79,2.54,13.24-2.8,8.76-14.78,17.61-24.36,13.44-4.13-1.8-5.42-9.59-8.2-13.62-4.34,11-20.08,7.66-28.37,4.74-4.73-1.67-8.18-6.18-13.36-5.48-4.66.62-9.92,5.29-11.87,9.52-5.24-1.48-10.18-5.15-15.78-4.79-6.71.45-7.65,5-12.34,8.11-3.21,2.16-1.33.2-4.09-1.73s-6.78-1-9.73-1.85a9.93,9.93,0,0,1,1.66-.08Z"/>
      <path class="cls-5" d="M4547.46,1825.78c.55-6.85,2.82-5.66,7.85-7.74,4.41-1.81,6.74-7.9,10.54-11.4,2.23-2.06,12.1-4.77,9.82,1.14.27-9,17.75-16.7,25.25-12.56,4.23,2.33,4.36,7.37,1.55,10.67-3.82-2.41-12.39-2.42-15.57,1-3.47,3.8-.72,5.65-5.5,7s-6.92.35-10.28,4.46c-3.8,4.66-.73,6.22-1.74,10.88-4.6-1.06-8.32-.86-10.5,3.91-1.54,3.34-.19,4.53,0,8.1.17,3-.7,5.21.87,8.07,1.33,2.44,3.54,4.11,4.35,6.86-5.26,1.4-12.34-7-14-11.09A41.23,41.23,0,0,1,4547.46,1825.78Z"/>
    </g>
    <g>
      <path class="cls-2" d="M426.78,769.63a44.06,44.06,0,0,1-9.54,11.86c-12.28,11-30.77,16.34-49.22,15l-10-.74-1.86,1.92c-16.2,16.66-43.23,24.79-69,19.77-7.9-1.54-16.2-3.4-23.2-6.77-6.36-3.07-13-8.46-13.42-14.7-1.65,2.41-5,5-6.61,6.34-14.24,11.3-30,10.94-48.31,9.85-19.95-1.18-42.09-9.82-42.63-27.77,0-1-.12-1.84-.28-3.62-8.95,4.5-15.35,9.41-26.44,11.07a61.65,61.65,0,0,1-28-2.11A40.25,40.25,0,0,1,80.5,778a28.28,28.28,0,0,1-5.42-9.1A21.28,21.28,0,0,1,74,758.54c1.9-13,14.76-26.4,31.09-24.46-6.31-12.17,1.17-25,13.23-34s29.65-14.92,44.63-9.25c1.7-20.52,25.51-35.28,51.28-37.31s52.08,12.34,58.86,32.19c35.49-13.14,83.43,6.15,91,36.64,24.36-11,58.6,3.28,65.4,24.55a24.49,24.49,0,0,1,1,4.33A29.79,29.79,0,0,1,426.78,769.63Z"/>
      <g>
        <path class="cls-7" d="M429.51,746.86c-7.72-13.47-25.45-21.07-40.09-22-21.49-1.31-29.76,6.56-29.76,6.56-1.65-17.06-11.57-32.8-43-40.67S268.73,696,268.73,696c-1.56-12.42-10.66-22.93-23.41-29.92-14.52-8-35.14-8.2-50.88-2.44-17.08,6.25-22.62,18.91-21.59,33.67-6.61-2.63-16.21-2.27-17.76-2.41-14-1.2-28.28,5.27-37,13.64-4.13,3.95-7.27,8.65-8.31,13.75-.39,1.93.29,11.75,3.6,15.69A50.45,50.45,0,0,0,93.5,742C77,748.51,75,768.34,75.08,768.9A21.28,21.28,0,0,1,74,758.54c1.9-13,14.76-26.4,31.09-24.46-6.31-12.17,1.17-25,13.23-34s29.65-14.92,44.63-9.25c1.7-20.52,25.51-35.28,51.28-37.31s52.08,12.34,58.86,32.19c35.49-13.14,83.43,6.15,91,36.64C388.47,711.33,422.71,725.59,429.51,746.86Z"/>
        <path class="cls-7" d="M222.36,703.58s42.61-31.82,86,.65C308.32,704.23,270.81,688.43,222.36,703.58Z"/>
        <path class="cls-7" d="M157.87,737.57s50-40.79,100.88.76C258.75,738.33,214.74,718.13,157.87,737.57Z"/>
        <path class="cls-7" d="M326.6,737.68S361,712,395.89,738.2C395.89,738.2,365.65,725.47,326.6,737.68Z"/>
        <path class="cls-8" d="M116.64,702.6c31.41-17.06,69.29-1.13,69.29-1.13C151,675.3,116.64,702.6,116.64,702.6Z"/>
      </g>
      <g>
        <path class="cls-4" d="M426.78,769.63a44.06,44.06,0,0,1-9.54,11.86c-12.28,11-30.77,16.34-49.22,15l-10-.74-1.86,1.92c-16.2,16.66-43.23,24.79-69,19.77-7.9-1.54-16.2-3.4-23.2-6.77-6.36-3.07-13-8.46-13.42-14.7-1.65,2.41-5,5-6.61,6.34-14.24,11.3-30,10.94-48.31,9.85-19.95-1.18-42.09-9.82-42.63-27.77,0-1-.12-1.84-.28-3.62-8.95,4.5-15.35,9.41-26.44,11.07a61.65,61.65,0,0,1-28-2.11A40.25,40.25,0,0,1,80.5,778c16.19,2.56,55.47,10.28,75.82-5.87-1.36,1.07,10.18,10.69,11.09,11.35,12,8.79,28.52,11.71,44.44,11A125.34,125.34,0,0,0,236.07,791a51.68,51.68,0,0,0,16.13-7c8.27,11.81,35.15,19.58,67.78,11.81,0,0,23.15-5.25,31.41-19.68C351.39,776.06,395.76,785.64,426.78,769.63Z"/>
        <path class="cls-4" d="M324.94,765.57s34.08,21.8,72.55,0C397.49,765.57,362.31,806.56,324.94,765.57Z"/>
        <path class="cls-4" d="M119.12,765.78s29.51,13.45,62.82,0C181.94,765.78,151.49,791.06,119.12,765.78Z"/>
        <path class="cls-4" d="M205.09,770.82s46.2,26.88,98.36,0C303.45,770.82,255.76,821.35,205.09,770.82Z"/>
      </g>
    </g>
    <g>
      <path class="cls-2" d="M4664.33,1353.62a35.08,35.08,0,0,1-7.56,9.4c-9.74,8.72-24.39,12.94-39,11.87l-7.94-.58-1.47,1.52c-12.84,13.2-34.26,19.65-54.67,15.67-6.27-1.22-12.84-2.7-18.39-5.37-5-2.43-10.31-6.71-10.63-11.64a28.31,28.31,0,0,1-5.25,5c-11.28,9-23.78,8.67-38.28,7.81-15.82-.94-33.36-7.79-33.79-22,0-.83-.09-1.45-.22-2.87-7.09,3.57-12.16,7.46-21,8.78a49.06,49.06,0,0,1-22.19-1.67,32,32,0,0,1-14.09-9.29,22.52,22.52,0,0,1-4.29-7.21,16.83,16.83,0,0,1-.88-8.22c1.5-10.31,11.7-20.92,24.64-19.38-5-9.65.93-19.82,10.49-27s23.5-11.83,35.37-7.33c1.35-16.27,20.22-28,40.65-29.58s41.27,9.79,46.64,25.52c28.13-10.42,66.13,4.88,72.16,29,19.31-8.7,46.45,2.6,51.83,19.46a19,19,0,0,1,.79,3.43A23.69,23.69,0,0,1,4664.33,1353.62Z"/>
      <g>
        <path class="cls-7" d="M4666.49,1335.57c-6.12-10.68-20.16-16.7-31.77-17.41-17-1-23.59,5.2-23.59,5.2-1.31-13.52-9.17-26-34.06-32.23s-38,4.16-38,4.16c-1.24-9.84-8.46-18.18-18.56-23.72-11.5-6.3-27.85-6.5-40.32-1.93-13.54,5-17.93,15-17.12,26.68-5.24-2.07-12.85-1.79-14.07-1.9-11.11-1-22.42,4.17-29.36,10.81-3.27,3.13-5.76,6.85-6.58,10.89-.32,1.53.22,9.32,2.85,12.44a40,40,0,0,0-15.73,3.12c-13.1,5.2-14.63,20.91-14.59,21.36a16.83,16.83,0,0,1-.88-8.22c1.5-10.31,11.7-20.92,24.64-19.38-5-9.65.93-19.82,10.49-27s23.5-11.83,35.37-7.33c1.35-16.27,20.22-28,40.65-29.58s41.27,9.79,46.64,25.52c28.13-10.42,66.13,4.88,72.16,29C4634,1307.41,4661.11,1318.71,4666.49,1335.57Z"/>
        <path class="cls-7" d="M4502.32,1301.27s33.77-25.22,68.13.51C4570.45,1301.78,4540.71,1289.26,4502.32,1301.27Z"/>
        <path class="cls-7" d="M4451.2,1328.2s39.66-32.32,79.95.61C4531.15,1328.81,4496.27,1312.79,4451.2,1328.2Z"/>
        <path class="cls-7" d="M4584.93,1328.29s27.22-20.33,54.91.42C4639.84,1328.71,4615.88,1318.61,4584.93,1328.29Z"/>
        <path class="cls-8" d="M4418.53,1300.48c24.89-13.51,54.91-.89,54.91-.89C4445.75,1278.85,4418.53,1300.48,4418.53,1300.48Z"/>
      </g>
      <g>
        <path class="cls-4" d="M4664.33,1353.62a35.08,35.08,0,0,1-7.56,9.4c-9.74,8.72-24.39,12.94-39,11.87l-7.94-.58-1.47,1.52c-12.84,13.2-34.26,19.65-54.67,15.67-6.27-1.22-12.84-2.7-18.39-5.37-5-2.43-10.31-6.71-10.63-11.64a28.31,28.31,0,0,1-5.25,5c-11.28,9-23.78,8.67-38.28,7.81-15.82-.94-33.36-7.79-33.79-22,0-.83-.09-1.45-.22-2.87-7.09,3.57-12.16,7.46-21,8.78a49.06,49.06,0,0,1-22.19-1.67,32,32,0,0,1-14.09-9.29c12.83,2,44,8.14,60.09-4.66-1.07.86,8.07,8.48,8.79,9,9.49,7,22.61,9.28,35.22,8.74a98.5,98.5,0,0,0,19.2-2.81A40.8,40.8,0,0,0,4526,1365c6.55,9.36,27.85,15.51,53.72,9.36,0,0,18.34-4.16,24.89-15.6C4604.58,1358.71,4639.75,1366.3,4664.33,1353.62Z"/>
        <path class="cls-4" d="M4583.62,1350.39s27,17.29,57.49,0C4641.11,1350.39,4613.24,1382.89,4583.62,1350.39Z"/>
        <path class="cls-4" d="M4420.49,1350.56a68,68,0,0,0,49.79,0S4446.14,1370.6,4420.49,1350.56Z"/>
        <path class="cls-4" d="M4488.62,1354.55s36.62,21.31,78,0C4566.58,1354.55,4528.78,1394.61,4488.62,1354.55Z"/>
      </g>
    </g>
    <g>
      <path class="cls-2" d="M4151.1,1677.23c-24.89,13-41,9.9-59.2-11.53-23.85,19.09-39.07,21.65-67.82,11.37-19.56,17.3-40.49,12.53-50.6-11.52-21.46,20.43-29.73,22.06-57.34,11.38-31.86,18.28-46.59,16.32-72.57-9.63-21-2.18-17.55-21.86-7.45-30.73,6.72-5.93,16.4-7,23.72,5-.45-23.83,55.92-28.3,59.22-4.7-2.39-24.59,9.76-37.37,34.42-36.25a78.55,78.55,0,0,1-7.58-21.44c-11.3-59.32,59.77-103.27,109.88-54.83,47.59-20.44,95.48,12.45,98.09,58.93a75.28,75.28,0,0,1-2.68,24.29c26.88-11.72,44.06-1.75,51.58,14.29v0C4216.17,1650.39,4198.9,1698.2,4151.1,1677.23Z"/>
      <path class="cls-3" d="M4153.87,1583.24c-4.77-9.38-7.2-31.17-35.4-43.21-48.62-20.75-100.77,20.68-117.77,44.91,5.37-23.28,33-48.93,44.2-53.78-88.2-43.25-99,48-99,48h0c-11.3-59.32,59.77-103.27,109.88-54.83C4103.37,1503.87,4151.26,1536.76,4153.87,1583.24Z"/>
      <path class="cls-4" d="M4151.1,1677.23c-24.89,13-41,9.9-59.2-11.53-23.85,19.09-39.07,21.65-67.82,11.37-19.56,17.3-40.49,12.53-50.6-11.52-21.46,20.43-29.73,22.06-57.34,11.38-31.86,18.28-46.59,16.32-72.57-9.63-21-2.18-17.55-21.86-7.45-30.73,0,0-11.75,26.56,14.91,25,25.82-1.48,37.43-12.81,38.13-13.5-5.24,8.35-20.27,18.94-28.21,23.44,7.83,5.76,25.59,14.14,54.88-4.11,15.69,2.63,39.22-3.61,57.53-18.22-17.27,2.59-37.09-15.2-38.65-22,24,11.53,50.68,17.83,105.58-.39-17.79,11-41,26.27-59.64,28.15,3.66,16.2,24.53,27.21,41.27,12.07,15.69,7.34,40.77,11.55,68-10.89,17.73,12,44.38,21.49,58.51,5.3-13.07,0-44.92-6.85-55.87-30.38,21.94,14.66,57.62,8.9,85-13.25-1.93,12.31-9.77,23.79-17.61,28,9.4,5.24,44.3-.43,42.82-24C4216.17,1650.39,4198.9,1698.2,4151.1,1677.23Z"/>
      <path class="cls-5" d="M4018.27,1589.42c-1-3.78,5.2-12.91,9.09-15.2,4.43-2.61,12.46-1.27,14.5,4.11-.47-7.75,3-13.83,9.65-17.34,4-2.09,14.73-6.47,16,1.35,0-6.46,16.61-12.25,22-13.14,4.59-.75,16.71,2.19,11.95,8.88,2.49-.08,4.84-1.38,7.36-1.8a26.34,26.34,0,0,1,12.57,1.23c4.19,1.35,9.8,3.53,9.11,8.76-.22,1.59-2.78,3.76-2.3,5.41.31,1,1.72.33,2.19,1.06,2.72,4.19,4.11,7.53,2.43,12.78-2.71,8.46-14.29,17-23.53,12.94-4-1.74-5.22-9.26-7.9-13.15-4.2,10.64-19.39,7.37-27.38,4.53-4.56-1.61-7.89-6-12.89-5.3-4.5.59-9.59,5.09-11.47,9.17-5-1.43-9.82-5-15.23-4.63-6.47.42-7.38,4.77-11.91,7.81-3.11,2.08-1.29.19-3.94-1.68s-6.55-1-9.39-1.8a10.33,10.33,0,0,1,1.6-.08Z"/>
      <path class="cls-5" d="M3958.59,1564.34c.54-6.62,2.73-5.47,7.58-7.46,4.27-1.75,6.52-7.62,10.19-11,2.16-2,11.68-4.6,9.48,1.11.27-8.71,17.15-16.09,24.39-12.09,4.07,2.26,4.19,7.11,1.48,10.3-3.68-2.34-12-2.35-15,1-3.36,3.66-.7,5.45-5.32,6.77s-6.68.33-9.92,4.29c-3.68,4.49-.71,6-1.7,10.5-4.44-1-8-.84-10.14,3.76-1.48,3.22-.18,4.38,0,7.82.17,2.91-.68,5,.83,7.79,1.29,2.35,3.42,4,4.2,6.62-5.08,1.35-11.91-6.75-13.5-10.71A40,40,0,0,1,3958.59,1564.34Z"/>
    </g>
    <g>
      <path class="cls-2" d="M9198.47,3244.82c-24.89,13-41,9.9-59.19-11.53-23.86,19.09-39.07,21.65-67.82,11.37-19.56,17.3-40.5,12.53-50.61-11.52-21.45,20.43-29.72,22.06-57.33,11.38-31.87,18.28-46.59,16.32-72.58-9.63-21-2.18-17.54-21.86-7.45-30.73,6.73-5.93,16.41-7,23.73,5-.46-23.83,55.92-28.31,59.22-4.71-2.39-24.59,9.76-37.37,34.42-36.25a78.55,78.55,0,0,1-7.58-21.44c-11.31-59.32,59.77-103.27,109.88-54.83,47.59-20.44,95.47,12.45,98.08,58.93a74.73,74.73,0,0,1-2.68,24.29c26.89-11.72,44.06-1.75,51.59,14.29v0C9263.55,3218,9246.28,3265.79,9198.47,3244.82Z"/>
      <path class="cls-3" d="M9201.24,3150.83c-4.76-9.38-7.19-31.17-35.4-43.21-48.61-20.75-100.76,20.68-117.77,44.91,5.37-23.28,33.05-48.93,44.2-53.78-88.19-43.25-99,48-99,48h0c-11.31-59.32,59.77-103.27,109.88-54.83C9150.75,3071.46,9198.63,3104.35,9201.24,3150.83Z"/>
      <path class="cls-4" d="M9198.47,3244.82c-24.89,13-41,9.9-59.19-11.53-23.86,19.09-39.07,21.65-67.82,11.37-19.56,17.3-40.5,12.53-50.61-11.52-21.45,20.43-29.72,22.06-57.33,11.38-31.87,18.28-46.59,16.32-72.58-9.63-21-2.18-17.54-21.86-7.45-30.73,0,0-11.74,26.56,14.91,25,25.83-1.48,37.44-12.81,38.13-13.5-5.23,8.35-20.27,18.94-28.21,23.44,7.83,5.76,25.59,14.15,54.88-4.11,15.7,2.63,39.22-3.61,57.54-18.22-17.27,2.59-37.09-15.2-38.65-22,24,11.53,50.67,17.83,105.57-.39-17.78,11-41,26.28-59.63,28.15,3.65,16.2,24.53,27.21,41.27,12.07,15.69,7.34,40.77,11.55,68-10.89,17.74,12,44.38,21.49,58.51,5.3-13.06,0-44.91-6.85-55.86-30.38,21.93,14.66,57.61,8.9,85-13.25-1.93,12.31-9.76,23.8-17.61,28,9.4,5.24,44.31-.43,42.83-24C9263.55,3218,9246.28,3265.79,9198.47,3244.82Z"/>
      <path class="cls-5" d="M9065.65,3157c-1-3.78,5.2-12.9,9.08-15.19,4.44-2.62,12.47-1.28,14.51,4.1-.48-7.75,3-13.83,9.65-17.34,4-2.09,14.73-6.47,16,1.35,0-6.46,16.61-12.25,22-13.14,4.59-.75,16.7,2.2,11.94,8.88,2.49-.08,4.85-1.38,7.37-1.8a26.47,26.47,0,0,1,12.57,1.23c4.19,1.35,9.8,3.53,9.1,8.76-.21,1.59-2.78,3.76-2.29,5.41.3,1,1.71.33,2.18,1.06,2.73,4.19,4.11,7.53,2.43,12.78-2.71,8.46-14.28,17-23.52,12.94-4-1.74-5.23-9.26-7.9-13.15-4.2,10.64-19.39,7.37-27.39,4.54-4.56-1.62-7.88-6-12.89-5.31-4.5.6-9.58,5.09-11.46,9.17-5.05-1.43-9.82-5-15.23-4.63-6.47.42-7.39,4.77-11.91,7.81-3.11,2.08-1.29.19-3.95-1.68s-6.55-1-9.39-1.8a10.46,10.46,0,0,1,1.61-.08Z"/>
      <path class="cls-5" d="M9006,3131.93c.55-6.62,2.73-5.46,7.59-7.46,4.26-1.75,6.52-7.62,10.19-11,2.16-2,11.68-4.59,9.47,1.11.28-8.71,17.16-16.09,24.39-12.09,4.07,2.26,4.2,7.11,1.48,10.3-3.68-2.34-12-2.35-15,1-3.36,3.66-.71,5.45-5.32,6.77s-6.68.33-9.93,4.3c-3.67,4.48-.71,6-1.7,10.49-4.43-1-8-.84-10.13,3.76-1.49,3.23-.19,4.38,0,7.82.17,2.91-.68,5,.84,7.79,1.28,2.35,3.41,4,4.19,6.62-5.08,1.35-11.9-6.75-13.5-10.71A40.1,40.1,0,0,1,9006,3131.93Z"/>
    </g>
    <g class="cls-6">
      <path class="cls-2" d="M3369.1,1651.18a91.54,91.54,0,0,1-19.77,24.58c-25.46,22.81-63.76,33.85-102,31l-20.76-1.52-3.84,4c-33.58,34.53-89.59,51.39-143,41-16.37-3.18-33.57-7-48.07-14-13.19-6.36-27-17.53-27.82-30.45-3.42,5-10.28,10.42-13.7,13.13-29.5,23.42-62.19,22.68-100.12,20.42-41.35-2.44-87.23-20.36-88.36-57.56-.07-2.17-.24-3.8-.58-7.5-18.54,9.33-31.8,19.49-54.79,23-19.32,2.91-40.39,1.55-58-4.38-14.87-5-27.82-13.68-36.83-24.28a58.69,58.69,0,0,1-11.24-18.87,44.18,44.18,0,0,1-2.3-21.48c3.94-27,30.6-54.71,64.45-50.68-13.09-25.24,2.43-51.83,27.41-70.56s61.47-30.92,92.51-19.17c3.53-42.53,52.87-73.11,106.28-77.33s107.93,25.59,122,66.73c73.56-27.25,172.92,12.75,188.68,75.94,50.51-22.76,121.46,6.79,135.54,50.87a50.07,50.07,0,0,1,2.06,9C3378.59,1626.19,3375.65,1639.22,3369.1,1651.18Z"/>
      <g>
        <path class="cls-7" d="M3374.75,1604c-16-27.92-52.73-43.67-83.08-45.52-44.54-2.72-61.67,13.6-61.67,13.6-3.43-35.35-24-68-89.09-84.29s-99.36,10.88-99.36,10.88c-3.24-25.73-22.1-47.52-48.53-62-30.08-16.5-72.82-17-105.44-5.05-35.4,13-46.89,39.19-44.75,69.77-13.71-5.43-33.6-4.7-36.8-5-29.06-2.5-58.63,10.92-76.78,28.26-8.56,8.18-15.06,17.92-17.22,28.5-.81,4,.6,24.36,7.45,32.51-24,0-41.11,8.16-41.11,8.16-34.26,13.6-38.27,54.68-38.17,55.85a44.18,44.18,0,0,1-2.3-21.48c3.94-27,30.6-54.71,64.45-50.68-13.09-25.24,2.43-51.83,27.41-70.56s61.47-30.92,92.51-19.17c3.53-42.53,52.87-73.11,106.28-77.33s107.93,25.59,122,66.73c73.56-27.25,172.92,12.75,188.68,75.94C3289.72,1530.35,3360.67,1559.9,3374.75,1604Z"/>
        <path class="cls-7" d="M2945.44,1514.29s88.32-66,178.16,1.34C3123.6,1515.63,3045.85,1482.88,2945.44,1514.29Z"/>
        <path class="cls-7" d="M2811.77,1584.73s103.73-84.53,209.08,1.57C3020.85,1586.3,2929.64,1544.43,2811.77,1584.73Z"/>
        <path class="cls-7" d="M3161.48,1585s71.18-53.16,143.6,1.08C3305.08,1586,3242.41,1559.65,3161.48,1585Z"/>
        <path class="cls-8" d="M2726.34,1512.24c65.09-35.35,143.6-2.33,143.6-2.33C2797.53,1455.67,2726.34,1512.24,2726.34,1512.24Z"/>
      </g>
      <g>
        <path class="cls-4" d="M3369.1,1651.18a91.54,91.54,0,0,1-19.77,24.58c-25.46,22.81-63.76,33.85-102,31l-20.76-1.52-3.84,4c-33.58,34.53-89.59,51.39-143,41-16.37-3.18-33.57-7-48.07-14-13.19-6.36-27-17.53-27.82-30.45-3.42,5-10.28,10.42-13.7,13.13-29.5,23.42-62.19,22.68-100.12,20.42-41.35-2.44-87.23-20.36-88.36-57.56-.07-2.17-.24-3.8-.58-7.5-18.54,9.33-31.8,19.49-54.79,23-19.32,2.91-40.39,1.55-58-4.38-14.87-5-27.82-13.68-36.83-24.28,33.54,5.3,114.95,21.29,157.13-12.18-2.81,2.23,21.1,22.16,23,23.52,24.8,18.21,59.1,24.28,92.09,22.86a257.19,257.19,0,0,0,50.2-7.34c3.29-.81,16.31-3.7,33.44-14.57,17.13,24.47,72.84,40.57,140.48,24.47,0,0,48-10.88,65.09-40.79C3212.86,1664.5,3304.82,1684.35,3369.1,1651.18Z"/>
        <path class="cls-4" d="M3158,1642.75s70.62,45.2,150.36,0C3308.4,1642.75,3235.5,1727.72,3158,1642.75Z"/>
        <path class="cls-4" d="M2731.48,1643.2s61.15,27.86,130.19,0C2861.67,1643.2,2798.55,1695.58,2731.48,1643.2Z"/>
        <path class="cls-4" d="M2909.64,1653.63s95.75,55.71,203.86,0C3113.5,1653.63,3014.66,1758.37,2909.64,1653.63Z"/>
      </g>
    </g>
    <g>
      <path class="cls-2" d="M3090.13,1702.88c-25.77,13.54-42.48,10.31-61.35-11.87-24.69,19.81-40.45,22.48-70.26,11.87-20.23,17.95-41.93,13-52.44-11.87-22.21,21.2-30.77,22.9-59.39,11.87-33,19-48.26,17-75.21-9.89-21.8-2.22-18.21-22.62-7.76-31.83,7-6.15,17-7.32,24.59,5.12-.51-24.69,57.9-29.41,61.35-5-2.51-25.48,10.07-38.73,35.62-37.61a81,81,0,0,1-7.88-22.2c-11.8-61.46,61.79-107.09,113.78-57,49.27-21.24,98.93,12.77,101.7,60.92a77.73,77.73,0,0,1-2.75,25.18c27.84-12.18,45.65-1.87,53.47,14.74v0C3157.52,1675,3139.69,1724.54,3090.13,1702.88Z"/>
      <path class="cls-3" d="M3092.88,1605.48c-5-9.7-7.49-32.28-36.74-44.72-50.39-21.43-104.37,21.56-122,46.69,5.53-24.13,34.17-50.74,45.72-55.78-91.43-44.7-102.48,49.85-102.48,49.85h0c-11.8-61.46,61.79-107.09,113.78-57C3040.45,1523.32,3090.11,1557.33,3092.88,1605.48Z"/>
      <path class="cls-4" d="M3090.13,1702.88c-25.77,13.54-42.48,10.31-61.35-11.87-24.69,19.81-40.45,22.48-70.26,11.87-20.23,17.95-41.93,13-52.44-11.87-22.21,21.2-30.77,22.9-59.39,11.87-33,19-48.26,17-75.21-9.89-21.8-2.22-18.21-22.62-7.76-31.83,0,0-12.14,27.54,15.48,25.92,26.76-1.57,38.77-13.32,39.49-14-5.42,8.66-21,19.65-29.2,24.32,8.12,6,26.53,14.63,56.86-4.33,16.26,2.71,40.63-3.79,59.59-19-17.89,2.71-38.45-15.7-40.08-22.74,24.91,11.91,52.53,18.41,109.39-.54-18.41,11.37-42.44,27.27-61.75,29.23,3.81,16.79,25.45,28.17,42.78,12.46,16.26,7.58,42.26,11.91,70.41-11.37,18.4,12.45,46,22.2,60.64,5.41-13.54,0-46.55-7-57.93-31.41,22.75,15.17,59.71,9.15,88.07-13.83-2,12.75-10.09,24.67-18.21,29,9.75,5.42,45.91-.5,44.34-24.87C3157.52,1675,3139.69,1724.54,3090.13,1702.88Z"/>
      <path class="cls-5" d="M2952.39,1612.07c-1.08-3.92,5.37-13.38,9.4-15.76,4.58-2.71,12.91-1.34,15,4.24-.5-8,3.06-14.33,10-18,4.13-2.18,15.26-6.73,16.56,1.38,0-6.7,17.2-12.72,22.79-13.65,4.76-.78,17.31,2.26,12.39,9.19,2.58-.09,5-1.44,7.63-1.88a27.49,27.49,0,0,1,13,1.26c4.34,1.4,10.16,3.64,9.44,9.07-.22,1.64-2.87,3.9-2.37,5.6.32,1.06,1.78.35,2.27,1.1,2.83,4.34,4.27,7.79,2.53,13.24-2.8,8.76-14.78,17.61-24.36,13.44-4.13-1.8-5.42-9.59-8.2-13.62-4.34,11-20.08,7.66-28.37,4.74-4.73-1.67-8.18-6.18-13.36-5.48-4.66.62-9.92,5.29-11.87,9.52-5.23-1.48-10.18-5.15-15.78-4.79-6.71.45-7.65,5-12.34,8.11-3.21,2.16-1.33.2-4.08-1.73s-6.79-1-9.73-1.85a9.81,9.81,0,0,1,1.65-.08Z"/>
      <path class="cls-5" d="M2890.52,1586.16c.56-6.85,2.82-5.66,7.85-7.74,4.42-1.81,6.74-7.9,10.54-11.4,2.23-2.06,12.1-4.77,9.82,1.14.27-9,17.76-16.7,25.25-12.56,4.23,2.33,4.36,7.37,1.55,10.67-3.81-2.41-12.39-2.42-15.57,1-3.47,3.8-.72,5.65-5.5,7s-6.92.35-10.28,4.46c-3.8,4.66-.73,6.22-1.74,10.88-4.6-1.06-8.32-.86-10.5,3.91-1.53,3.34-.19,4.53,0,8.1.18,3-.7,5.21.87,8.07,1.33,2.44,3.55,4.11,4.35,6.86-5.25,1.4-12.34-7-14-11.09A41.23,41.23,0,0,1,2890.52,1586.16Z"/>
    </g>
    <g class="cls-6">
      <path class="cls-2" d="M2149.56,1020.32a55.76,55.76,0,0,1-12.08,15c-15.54,13.93-38.93,20.67-62.27,19l-12.68-.93-2.34,2.42c-20.5,21.09-54.7,31.38-87.3,25-10-1.94-20.5-4.3-29.34-8.57-8.06-3.88-16.47-10.7-17-18.59-2.09,3-6.28,6.36-8.37,8-18,14.29-38,13.84-61.12,12.47-25.25-1.5-53.26-12.44-54-35.15,0-1.33-.15-2.32-.36-4.58-11.32,5.7-19.41,11.9-33.45,14-11.8,1.78-24.66.95-35.44-2.67a51,51,0,0,1-22.48-14.83,35.64,35.64,0,0,1-6.86-11.52,27,27,0,0,1-1.41-13.11c2.41-16.47,18.68-33.4,39.35-30.94-8-15.41,1.49-31.65,16.74-43.08s37.53-18.88,56.48-11.71c2.15-26,32.28-44.64,64.89-47.21s65.89,15.62,74.47,40.74c44.91-16.64,105.58,7.78,115.2,46.36,30.84-13.89,74.16,4.15,82.76,31.06a31.08,31.08,0,0,1,1.25,5.48A37.75,37.75,0,0,1,2149.56,1020.32Z"/>
      <g>
        <path class="cls-7" d="M2153,991.5c-9.77-17-32.2-26.66-50.73-27.79-27.2-1.66-37.66,8.3-37.66,8.3-2.09-21.58-14.64-41.5-54.39-51.46s-60.66,6.64-60.66,6.64c-2-15.7-13.5-29-29.63-37.86-18.37-10.07-44.46-10.37-64.38-3.08-21.61,7.91-28.63,23.93-27.32,42.6-8.37-3.32-20.52-2.87-22.47-3-17.74-1.52-35.79,6.67-46.87,17.25-5.23,5-9.2,11-10.52,17.4-.5,2.45.37,14.88,4.55,19.86a63.8,63.8,0,0,0-25.1,5c-20.92,8.3-23.37,33.38-23.3,34.09a27,27,0,0,1-1.41-13.11c2.41-16.47,18.68-33.4,39.35-30.94-8-15.41,1.49-31.65,16.74-43.08s37.53-18.88,56.48-11.71c2.15-26,32.28-44.64,64.89-47.21s65.89,15.62,74.47,40.74c44.91-16.64,105.58,7.78,115.2,46.36C2101.09,946.55,2144.41,964.59,2153,991.5Z"/>
        <path class="cls-7" d="M1890.89,936.74s53.92-40.26,108.77.82C1999.66,937.56,1952.19,917.57,1890.89,936.74Z"/>
        <path class="cls-7" d="M1809.28,979.75s63.33-51.61,127.65,1C1936.93,980.71,1881.24,955.15,1809.28,979.75Z"/>
        <path class="cls-7" d="M2022.79,979.89s43.46-32.45,87.67.66C2110.46,980.55,2072.2,964.44,2022.79,979.89Z"/>
        <path class="cls-8" d="M1757.12,935.49c39.74-21.58,87.67-1.42,87.67-1.42C1800.58,901,1757.12,935.49,1757.12,935.49Z"/>
      </g>
      <g>
        <path class="cls-4" d="M2149.56,1020.32a55.76,55.76,0,0,1-12.08,15c-15.54,13.93-38.93,20.67-62.27,19l-12.68-.93-2.34,2.42c-20.5,21.09-54.7,31.38-87.3,25-10-1.94-20.5-4.3-29.34-8.57-8.06-3.88-16.47-10.7-17-18.59-2.09,3-6.28,6.36-8.37,8-18,14.29-38,13.84-61.12,12.47-25.25-1.5-53.26-12.44-54-35.15,0-1.33-.15-2.32-.36-4.58-11.32,5.7-19.41,11.9-33.45,14-11.8,1.78-24.66.95-35.44-2.67a51,51,0,0,1-22.48-14.83c20.48,3.24,70.18,13,95.93-7.43-1.71,1.36,12.89,13.53,14,14.36,15.14,11.12,36.08,14.82,56.23,14a157.4,157.4,0,0,0,30.64-4.48,65.3,65.3,0,0,0,20.42-8.9c10.46,14.94,44.47,24.77,85.77,14.94,0,0,29.29-6.64,39.74-24.9C2054.16,1028.46,2110.31,1040.58,2149.56,1020.32Z"/>
        <path class="cls-4" d="M2020.69,1015.18s43.12,27.59,91.8,0C2112.49,1015.18,2068,1067.05,2020.69,1015.18Z"/>
        <path class="cls-4" d="M1760.25,1015.45s37.34,17,79.5,0C1839.75,1015.45,1801.2,1047.43,1760.25,1015.45Z"/>
        <path class="cls-4" d="M1869,1021.82s58.46,34,124.47,0C1993.5,1021.82,1933.15,1085.77,1869,1021.82Z"/>
      </g>
    </g>
    <g class="cls-6">
      <path class="cls-2" d="M2787.35,1237.13a55.72,55.72,0,0,1-12.07,15c-15.55,13.93-38.93,20.67-62.28,19l-12.67-.93-2.35,2.43c-20.5,21.08-54.7,31.37-87.29,25-10-1.94-20.5-4.3-29.35-8.56-8.06-3.89-16.47-10.71-17-18.6-2.09,3-6.27,6.36-8.37,8-18,14.3-38,13.85-61.12,12.47-25.25-1.49-53.26-12.43-54-35.14,0-1.33-.15-2.33-.36-4.59-11.31,5.7-19.41,11.91-33.45,14-11.79,1.77-24.66.94-35.43-2.68a51,51,0,0,1-22.49-14.82,35.86,35.86,0,0,1-6.86-11.52,26.93,26.93,0,0,1-1.4-13.12c2.4-16.47,18.68-33.4,39.35-30.94-8-15.41,1.48-31.64,16.73-43.08s37.53-18.88,56.48-11.7c2.16-26,32.28-44.64,64.89-47.22s65.9,15.62,74.47,40.74c44.92-16.63,105.58,7.79,115.2,46.37,30.84-13.9,74.16,4.15,82.76,31.06a30,30,0,0,1,1.25,5.48A37.78,37.78,0,0,1,2787.35,1237.13Z"/>
      <g>
        <path class="cls-7" d="M2790.8,1208.31c-9.77-17-32.19-26.66-50.73-27.79-27.19-1.66-37.65,8.3-37.65,8.3-2.09-21.58-14.65-41.5-54.39-51.46s-60.67,6.64-60.67,6.64c-2-15.71-13.49-29-29.63-37.86-18.36-10.07-44.46-10.38-64.38-3.09-21.61,7.91-28.62,23.94-27.32,42.61-8.36-3.32-20.51-2.88-22.47-3.05-17.74-1.52-35.79,6.67-46.87,17.26-5.23,5-9.2,10.94-10.51,17.4-.5,2.44.36,14.87,4.54,19.85a63.8,63.8,0,0,0-25.1,5c-20.92,8.3-23.36,33.38-23.3,34.1a26.93,26.93,0,0,1-1.4-13.12c2.4-16.47,18.68-33.4,39.35-30.94-8-15.41,1.48-31.64,16.73-43.08s37.53-18.88,56.48-11.7c2.16-26,32.28-44.64,64.89-47.22s65.9,15.62,74.47,40.74c44.92-16.63,105.58,7.79,115.2,46.37C2738.88,1163.35,2782.2,1181.4,2790.8,1208.31Z"/>
        <path class="cls-7" d="M2528.68,1153.55s53.92-40.27,108.78.82C2637.46,1154.37,2590,1134.37,2528.68,1153.55Z"/>
        <path class="cls-7" d="M2447.07,1196.55s63.33-51.61,127.66,1C2574.73,1197.51,2519,1172,2447.07,1196.55Z"/>
        <path class="cls-7" d="M2660.59,1196.69s43.46-32.45,87.67.67C2748.26,1197.36,2710,1181.24,2660.59,1196.69Z"/>
        <path class="cls-8" d="M2394.91,1152.3c39.74-21.58,87.68-1.43,87.68-1.43C2438.37,1117.76,2394.91,1152.3,2394.91,1152.3Z"/>
      </g>
      <g>
        <path class="cls-4" d="M2787.35,1237.13a55.72,55.72,0,0,1-12.07,15c-15.55,13.93-38.93,20.67-62.28,19l-12.67-.93-2.35,2.43c-20.5,21.08-54.7,31.37-87.29,25-10-1.94-20.5-4.3-29.35-8.56-8.06-3.89-16.47-10.71-17-18.6-2.09,3-6.27,6.36-8.37,8-18,14.3-38,13.85-61.12,12.47-25.25-1.49-53.26-12.43-54-35.14,0-1.33-.15-2.33-.36-4.59-11.31,5.7-19.41,11.91-33.45,14-11.79,1.77-24.66.94-35.43-2.68a51,51,0,0,1-22.49-14.82c20.48,3.24,70.18,13,95.93-7.44-1.71,1.36,12.89,13.53,14,14.36,15.15,11.12,36.09,14.83,56.23,14a157.5,157.5,0,0,0,30.65-4.48,65.3,65.3,0,0,0,20.41-8.9c10.46,14.94,44.48,24.77,85.77,14.94,0,0,29.29-6.64,39.75-24.9C2692,1245.26,2748.1,1257.38,2787.35,1237.13Z"/>
        <path class="cls-4" d="M2658.49,1232s43.11,27.59,91.8,0C2750.29,1232,2705.78,1283.86,2658.49,1232Z"/>
        <path class="cls-4" d="M2398.05,1232.25s37.33,17,79.49,0C2477.54,1232.25,2439,1264.24,2398.05,1232.25Z"/>
        <path class="cls-4" d="M2506.82,1238.62s58.47,34,124.47,0C2631.29,1238.62,2570.94,1302.57,2506.82,1238.62Z"/>
      </g>
    </g>
    <g>
      <path class="cls-2" d="M2841,1246.52a35.08,35.08,0,0,1-7.56,9.4c-9.74,8.72-24.38,12.94-39,11.87l-7.94-.58-1.46,1.52c-12.84,13.2-34.27,19.65-54.68,15.67-6.26-1.22-12.84-2.69-18.38-5.37-5.05-2.43-10.31-6.7-10.64-11.64a28.28,28.28,0,0,1-5.24,5c-11.28,8.95-23.78,8.67-38.29,7.81-15.81-.94-33.36-7.79-33.79-22,0-.84-.09-1.46-.22-2.87-7.09,3.56-12.16,7.45-20.95,8.77a49.1,49.1,0,0,1-22.2-1.67,31.89,31.89,0,0,1-14.08-9.29,22.38,22.38,0,0,1-4.3-7.21,16.81,16.81,0,0,1-.88-8.22c1.51-10.31,11.7-20.92,24.65-19.38-5-9.65.93-19.82,10.48-27s23.5-11.82,35.37-7.33c1.35-16.26,20.22-28,40.65-29.57s41.27,9.78,46.64,25.51c28.13-10.42,66.13,4.88,72.16,29,19.31-8.7,46.45,2.6,51.83,19.46a19.17,19.17,0,0,1,.79,3.43A23.69,23.69,0,0,1,2841,1246.52Z"/>
      <g>
        <path class="cls-7" d="M2843.11,1228.47c-6.12-10.68-20.16-16.7-31.77-17.41-17-1-23.59,5.2-23.59,5.2-1.31-13.52-9.17-26-34.06-32.23s-38,4.16-38,4.16c-1.24-9.84-8.45-18.17-18.56-23.72-11.5-6.3-27.85-6.49-40.32-1.93-13.54,5-17.93,15-17.11,26.69-5.25-2.08-12.85-1.8-14.08-1.91-11.11-1-22.42,4.18-29.36,10.81-3.27,3.13-5.76,6.85-6.58,10.9-.31,1.53.23,9.31,2.85,12.43a40,40,0,0,0-15.73,3.12c-13.1,5.2-14.63,20.91-14.59,21.36a16.81,16.81,0,0,1-.88-8.22c1.51-10.31,11.7-20.92,24.65-19.38-5-9.65.93-19.82,10.48-27s23.5-11.82,35.37-7.33c1.35-16.26,20.22-28,40.65-29.57s41.27,9.78,46.64,25.51c28.13-10.42,66.13,4.88,72.16,29C2810.59,1200.31,2837.73,1211.61,2843.11,1228.47Z"/>
        <path class="cls-7" d="M2678.94,1194.17s33.77-25.22,68.13.51C2747.07,1194.68,2717.33,1182.16,2678.94,1194.17Z"/>
        <path class="cls-7" d="M2627.82,1221.11s39.67-32.33,79.95.6C2707.77,1221.71,2672.9,1205.7,2627.82,1221.11Z"/>
        <path class="cls-7" d="M2761.55,1221.19s27.22-20.32,54.92.42C2816.47,1221.61,2792.5,1211.52,2761.55,1221.19Z"/>
        <path class="cls-8" d="M2595.15,1193.39c24.89-13.52,54.91-.9,54.91-.9C2622.37,1171.75,2595.15,1193.39,2595.15,1193.39Z"/>
      </g>
      <g>
        <path class="cls-4" d="M2841,1246.52a35.08,35.08,0,0,1-7.56,9.4c-9.74,8.72-24.38,12.94-39,11.87l-7.94-.58-1.46,1.52c-12.84,13.2-34.27,19.65-54.68,15.67-6.26-1.22-12.84-2.69-18.38-5.37-5.05-2.43-10.31-6.7-10.64-11.64a28.28,28.28,0,0,1-5.24,5c-11.28,8.95-23.78,8.67-38.29,7.81-15.81-.94-33.36-7.79-33.79-22,0-.84-.09-1.46-.22-2.87-7.09,3.56-12.16,7.45-20.95,8.77a49.1,49.1,0,0,1-22.2-1.67,31.89,31.89,0,0,1-14.08-9.29c12.82,2,43.95,8.14,60.08-4.66-1.07.86,8.07,8.48,8.8,9,9.48,7,22.6,9.28,35.21,8.74a99,99,0,0,0,19.2-2.8,41.11,41.11,0,0,0,12.79-5.58c6.55,9.36,27.85,15.52,53.72,9.36,0,0,18.34-4.16,24.89-15.6C2781.2,1251.61,2816.37,1259.2,2841,1246.52Z"/>
        <path class="cls-4" d="M2760.24,1243.3s27,17.28,57.5,0C2817.74,1243.3,2789.86,1275.79,2760.24,1243.3Z"/>
        <path class="cls-4" d="M2597.11,1243.47a68,68,0,0,0,49.79,0S2622.76,1263.5,2597.11,1243.47Z"/>
        <path class="cls-4" d="M2665.25,1247.45s36.61,21.31,78,0C2743.21,1247.45,2705.41,1287.51,2665.25,1247.45Z"/>
      </g>
    </g>
    <g>
      <path class="cls-2" d="M2883,747.24c-32.51,17.08-53.59,13-77.41-15-31.15,25-51,28.37-88.64,15-25.54,22.65-52.91,16.45-66.17-15-28,26.74-38.82,28.89-74.94,15-41.62,23.94-60.88,21.41-94.89-12.48-27.51-2.81-23-28.54-9.8-40.16,8.79-7.77,21.44-9.23,31,6.45-.63-31.15,73.06-37.09,77.41-6.24-3.16-32.14,12.7-48.87,44.94-47.45a102.09,102.09,0,0,1-9.94-28c-14.88-77.53,78-135.1,143.56-71.86,62.17-26.8,124.83,16.11,128.32,76.87a97.88,97.88,0,0,1-3.47,31.76c35.13-15.36,57.6-2.35,67.47,18.6v0C2968.07,712,2945.57,774.57,2883,747.24Z"/>
      <path class="cls-3" d="M2886.51,624.35c-6.25-12.25-9.46-40.73-46.35-56.42-63.59-27-131.7,27.2-153.89,58.9,7-30.44,43.12-64,57.69-70.37-115.36-56.41-129.31,62.88-129.31,62.88h0c-14.88-77.53,78-135.1,143.56-71.86C2820.36,520.68,2883,563.59,2886.51,624.35Z"/>
      <path class="cls-4" d="M2883,747.24c-32.51,17.08-53.59,13-77.41-15-31.15,25-51,28.37-88.64,15-25.54,22.65-52.91,16.45-66.17-15-28,26.74-38.82,28.89-74.94,15-41.62,23.94-60.88,21.41-94.89-12.48-27.51-2.81-23-28.54-9.8-40.16,0,0-15.3,34.74,19.54,32.7,33.76-2,48.92-16.81,49.83-17.72-6.84,10.93-26.47,24.8-36.85,30.7,10.25,7.52,33.48,18.45,71.74-5.47,20.53,3.42,51.27-4.78,75.19-23.91-22.58,3.41-48.51-19.81-50.56-28.7,31.43,15,66.27,23.23,138-.68-23.23,14.35-53.54,34.42-77.91,36.89,4.81,21.19,32.11,35.53,54,15.72,20.52,9.56,53.31,15,88.84-14.35,23.21,15.71,58.05,28,76.5,6.83-17.08,0-58.73-8.88-73.08-39.63,28.7,19.13,75.33,11.54,111.12-17.45-2.51,16.09-12.73,31.12-23,36.58,12.3,6.84,57.92-.63,56-31.38C2968.07,712,2945.57,774.57,2883,747.24Z"/>
      <path class="cls-5" d="M2709.25,632.66c-1.37-4.94,6.78-16.88,11.86-19.88,5.78-3.42,16.29-1.69,19,5.34-.64-10.13,3.85-18.08,12.58-22.68,5.2-2.75,19.25-8.49,20.89,1.74,0-8.45,21.7-16,28.76-17.22,6-1,21.84,2.84,15.63,11.59,3.25-.11,6.33-1.81,9.62-2.37a34.55,34.55,0,0,1,16.44,1.6c5.48,1.75,12.82,4.59,11.91,11.43-.27,2.07-3.62,4.92-3,7.08.39,1.33,2.24.43,2.85,1.38,3.57,5.47,5.39,9.83,3.2,16.71-3.53,11-18.65,22.21-30.74,17-5.21-2.27-6.84-12.1-10.34-17.19-5.48,13.92-25.34,9.67-35.79,6-6-2.1-10.32-7.79-16.87-6.91-5.88.79-12.52,6.67-15,12-6.61-1.86-12.85-6.5-19.92-6-8.45.55-9.65,6.25-15.56,10.23-4.05,2.72-1.68.25-5.15-2.19-3.32-2.32-8.57-1.24-12.28-2.34a14.08,14.08,0,0,1,2.09-.1Z"/>
      <path class="cls-5" d="M2631.18,600c.71-8.65,3.56-7.15,9.91-9.76,5.57-2.3,8.51-10,13.3-14.38,2.82-2.6,15.27-6,12.39,1.43.34-11.39,22.4-21.07,31.86-15.85,5.33,2.94,5.5,9.3,2,13.46-4.82-3-15.63-3-19.65,1.33-4.38,4.8-.91,7.13-6.94,8.87s-8.73.44-13,5.63c-4.79,5.87-.92,7.85-2.2,13.72-5.8-1.33-10.49-1.08-13.25,4.94-1.93,4.21-.23,5.71,0,10.22.23,3.8-.88,6.57,1.1,10.18,1.69,3.07,4.48,5.19,5.5,8.65-6.64,1.77-15.58-8.81-17.67-14A52.47,52.47,0,0,1,2631.18,600Z"/>
    </g>
    <g class="cls-6">
      <path class="cls-2" d="M7248.3,2023.56a56.87,56.87,0,0,1-12.27,15.26c-15.81,14.17-39.6,21-63.34,19.29l-12.9-1-2.38,2.47c-20.85,21.44-55.64,31.91-88.79,25.44-10.17-2-20.85-4.37-29.85-8.71-8.19-4-16.74-10.89-17.27-18.91-2.13,3.09-6.39,6.46-8.52,8.15-18.31,14.54-38.61,14.08-62.16,12.68-25.69-1.52-54.17-12.64-54.88-35.74,0-1.35-.15-2.36-.36-4.66-11.51,5.79-19.74,12.11-34,14.25-12,1.81-25.08,1-36-2.72a51.77,51.77,0,0,1-22.87-15.08,36.48,36.48,0,0,1-7-11.71,27.35,27.35,0,0,1-1.43-13.34c2.45-16.75,19-34,40-31.48-8.12-15.67,1.51-32.18,17-43.81s38.17-19.2,57.45-11.91c2.19-26.4,32.83-45.4,66-48s67,15.89,75.74,41.44c45.68-16.92,107.39,7.92,117.17,47.16,31.36-14.13,75.43,4.22,84.17,31.59a31.24,31.24,0,0,1,1.28,5.57A38.33,38.33,0,0,1,7248.3,2023.56Z"/>
      <g>
        <path class="cls-7" d="M7251.81,1994.25c-9.93-17.34-32.74-27.12-51.59-28.27-27.66-1.68-38.3,8.45-38.3,8.45-2.13-22-14.89-42.21-55.32-52.35s-61.7,6.76-61.7,6.76c-2-16-13.73-29.51-30.14-38.51-18.68-10.24-45.22-10.55-65.48-3.13-22,8-29.11,24.34-27.78,43.33-8.51-3.38-20.87-2.93-22.86-3.1-18-1.55-36.4,6.78-47.67,17.55-5.32,5.08-9.36,11.13-10.7,17.7-.5,2.48.38,15.12,4.63,20.19a65,65,0,0,0-25.53,5.06c-21.28,8.45-23.77,34-23.7,34.69a27.35,27.35,0,0,1-1.43-13.34c2.45-16.75,19-34,40-31.48-8.12-15.67,1.51-32.18,17-43.81s38.17-19.2,57.45-11.91c2.19-26.4,32.83-45.4,66-48s67,15.89,75.74,41.44c45.68-16.92,107.39,7.92,117.17,47.16C7199,1948.53,7243.07,1966.88,7251.81,1994.25Z"/>
        <path class="cls-7" d="M6985.22,1938.55s54.84-41,110.63.84C7095.85,1939.39,7047.57,1919.05,6985.22,1938.55Z"/>
        <path class="cls-7" d="M6902.21,1982.29s64.41-52.49,129.84,1C7032.05,1983.27,6975.41,1957.27,6902.21,1982.29Z"/>
        <path class="cls-7" d="M7119.37,1982.44s44.21-33,89.17.67C7208.54,1983.11,7169.63,1966.72,7119.37,1982.44Z"/>
        <path class="cls-8" d="M6849.16,1937.28c40.42-22,89.17-1.45,89.17-1.45C6893.37,1902.15,6849.16,1937.28,6849.16,1937.28Z"/>
      </g>
      <g>
        <path class="cls-4" d="M7248.3,2023.56a56.87,56.87,0,0,1-12.27,15.26c-15.81,14.17-39.6,21-63.34,19.29l-12.9-1-2.38,2.47c-20.85,21.44-55.64,31.91-88.79,25.44-10.17-2-20.85-4.37-29.85-8.71-8.19-4-16.74-10.89-17.27-18.91-2.13,3.09-6.39,6.46-8.52,8.15-18.31,14.54-38.61,14.08-62.16,12.68-25.69-1.52-54.17-12.64-54.88-35.74,0-1.35-.15-2.36-.36-4.66-11.51,5.79-19.74,12.11-34,14.25-12,1.81-25.08,1-36-2.72a51.77,51.77,0,0,1-22.87-15.08c20.83,3.3,71.38,13.22,97.57-7.56-1.75,1.38,13.11,13.76,14.28,14.6,15.4,11.32,36.7,15.08,57.19,14.2a159,159,0,0,0,31.17-4.56c2-.5,10.12-2.29,20.76-9.05,10.64,15.2,45.24,25.2,87.24,15.2,0,0,29.78-6.75,40.42-25.33C7151.28,2031.83,7208.39,2044.16,7248.3,2023.56Z"/>
        <path class="cls-4" d="M7117.24,2018.33s43.85,28.06,93.37,0C7210.61,2018.33,7165.34,2071.09,7117.24,2018.33Z"/>
        <path class="cls-4" d="M6852.35,2018.6s38,17.31,80.85,0C6933.2,2018.6,6894,2051.13,6852.35,2018.6Z"/>
        <path class="cls-4" d="M6963,2025.08s59.46,34.6,126.59,0C7089.58,2025.08,7028.2,2090.12,6963,2025.08Z"/>
      </g>
    </g>
    <g class="cls-6">
      <path class="cls-2" d="M7199.39,2637.57a52.65,52.65,0,0,1-11.38,14.15c-14.66,13.14-36.72,19.5-58.73,17.88l-12-.87-2.21,2.28c-19.33,19.89-51.59,29.59-82.32,23.6-9.43-1.84-19.34-4.06-27.68-8.08-7.6-3.67-15.53-10.1-16-17.54-2,2.87-5.92,6-7.89,7.56-17,13.48-35.81,13.06-57.65,11.76-23.81-1.41-50.23-11.72-50.88-33.14,0-1.25-.14-2.19-.33-4.32-10.68,5.37-18.31,11.22-31.55,13.21-11.13,1.68-23.26.89-33.42-2.52a48.07,48.07,0,0,1-21.21-14,33.74,33.74,0,0,1-6.47-10.87,25.41,25.41,0,0,1-1.32-12.36c2.27-15.53,17.62-31.5,37.11-29.19-7.54-14.52,1.4-29.84,15.78-40.62s35.39-17.8,53.27-11c2-24.49,30.44-42.1,61.2-44.53s62.14,14.74,70.23,38.42c42.35-15.68,99.57,7.35,108.64,43.73,29.08-13.1,69.94,3.91,78,29.29a29.56,29.56,0,0,1,1.18,5.17A35.56,35.56,0,0,1,7199.39,2637.57Z"/>
      <g>
        <path class="cls-7" d="M7202.65,2610.39c-9.22-16.08-30.36-25.14-47.84-26.21-25.65-1.56-35.51,7.83-35.51,7.83-2-20.35-13.81-39.14-51.3-48.53s-57.21,6.26-57.21,6.26c-1.87-14.81-12.73-27.36-27.94-35.7-17.33-9.5-41.94-9.79-60.72-2.91-20.38,7.46-27,22.57-25.76,40.18-7.9-3.13-19.35-2.71-21.2-2.87-16.73-1.44-33.75,6.28-44.2,16.27-4.93,4.71-8.68,10.32-9.92,16.41-.47,2.3.35,14,4.29,18.72a60.1,60.1,0,0,0-23.67,4.7c-19.73,7.83-22,31.48-22,32.15a25.41,25.41,0,0,1-1.32-12.36c2.27-15.53,17.62-31.5,37.11-29.19-7.54-14.52,1.4-29.84,15.78-40.62s35.39-17.8,53.27-11c2-24.49,30.44-42.1,61.2-44.53s62.14,14.74,70.23,38.42c42.35-15.68,99.57,7.35,108.64,43.73C7153.68,2568,7194.54,2585,7202.65,2610.39Z"/>
        <path class="cls-7" d="M6955.45,2558.75s50.85-38,102.58.77C7058,2559.52,7013.26,2540.67,6955.45,2558.75Z"/>
        <path class="cls-7" d="M6878.48,2599.31s59.73-48.67,120.39.9C6998.87,2600.21,6946.35,2576.1,6878.48,2599.31Z"/>
        <path class="cls-7" d="M7079.85,2599.44s41-30.61,82.68.62C7162.53,2600.06,7126.44,2584.87,7079.85,2599.44Z"/>
        <path class="cls-8" d="M6829.29,2557.57c37.48-20.35,82.69-1.34,82.69-1.34C6870.28,2525,6829.29,2557.57,6829.29,2557.57Z"/>
      </g>
      <g>
        <path class="cls-4" d="M7199.39,2637.57a52.65,52.65,0,0,1-11.38,14.15c-14.66,13.14-36.72,19.5-58.73,17.88l-12-.87-2.21,2.28c-19.33,19.89-51.59,29.59-82.32,23.6-9.43-1.84-19.34-4.06-27.68-8.08-7.6-3.67-15.53-10.1-16-17.54-2,2.87-5.92,6-7.89,7.56-17,13.48-35.81,13.06-57.65,11.76-23.81-1.41-50.23-11.72-50.88-33.14,0-1.25-.14-2.19-.33-4.32-10.68,5.37-18.31,11.22-31.55,13.21-11.13,1.68-23.26.89-33.42-2.52a48.07,48.07,0,0,1-21.21-14c19.32,3.05,66.19,12.26,90.48-7-1.62,1.28,12.15,12.76,13.23,13.54,14.29,10.49,34,14,53,13.17a149,149,0,0,0,28.91-4.23,61.55,61.55,0,0,0,19.25-8.39c9.87,14.09,41.94,23.36,80.89,14.09,0,0,27.62-6.27,37.48-23.49C7109.43,2645.24,7162.38,2656.67,7199.39,2637.57Z"/>
        <path class="cls-4" d="M7077.87,2632.72s40.66,26,86.57,0C7164.44,2632.72,7122.46,2681.64,7077.87,2632.72Z"/>
        <path class="cls-4" d="M6832.25,2633s35.21,16.05,75,0C6907.22,2633,6870.87,2663.14,6832.25,2633Z"/>
        <path class="cls-4" d="M6934.84,2639s55.13,32.08,117.38,0C7052.22,2639,6995.31,2699.29,6934.84,2639Z"/>
      </g>
    </g>
    <g>
      <path class="cls-2" d="M7117.87,2644.05a42,42,0,0,1-58.81,9.94c-20.49,14.06-38.51,12.18-55.64-5.83-25.3,18.62-48.42-4.5-44.09-25.14v0a24.92,24.92,0,0,1,6.07-11.68,34.13,34.13,0,0,1,12.21-8.36c-23.89-62.74,79.19-100.35,101.3-37,32.27-37.92,96.18,1.2,81.29,45.85v0c-.32,1-.69,1.95-1.09,2.92s-.7,1.65-1.08,2.46a17.91,17.91,0,0,1,5.37,7.41s0,0,0,0C7170.92,2645.52,7126.8,2671.3,7117.87,2644.05Z"/>
      <path class="cls-7" d="M7160.2,2611.84c-.74-3.63-3.39-11.2-10.41-26.57-15.95-34.95-70.08-13.6-75.05-7.2-24.25-28.47-77.39-23.18-84.78,12,32.31,2.84,46.78,17.36,51.27,30.08-46.63-27.39-75.83-8.84-75.83-8.84a34.13,34.13,0,0,1,12.21-8.36c-23.89-62.74,79.19-100.35,101.3-37C7111.18,2528.07,7175.09,2567.19,7160.2,2611.84Z"/>
      <path class="cls-9" d="M7160.13,2615c-.39.31-1-.2-1-.2Z"/>
      <path class="cls-4" d="M7117.87,2644.05a42,42,0,0,1-58.81,9.94c-20.49,14.06-38.51,12.18-55.64-5.83-25.3,18.62-48.42-4.5-44.09-25.14.91,18.8,35.14,13.43,43.62,8,10.15,20,36.13,5.91,47.88,1.83-9.52,9,14.18,19.23,32.35,11.91s10.68-34.22,1.7-47.26c18,14.53,31.76,18.23,53.79,19.09-19.37-.63-28.88,20.62-.06,22.82,28.08,2.15,25-13.92,24.8-14.76C7170.92,2645.52,7126.8,2671.3,7117.87,2644.05Z"/>
    </g>
    <g>
      <path class="cls-2" d="M6069.7,2768.43c-23.27,33.58-70.91,41.66-103.93,17.57-36.22,24.85-68.07,21.53-98.34-10.31-44.71,32.92-85.56-8-77.92-44.42v0a44.11,44.11,0,0,1,10.72-20.64c5.19-5.76,12.31-10.82,21.59-14.77-42.24-110.89,139.93-177.34,179-65.34,57-67,170,2.12,143.67,81v0c-.56,1.74-1.22,3.46-1.93,5.17-.6,1.46-1.23,2.91-1.91,4.34a31.67,31.67,0,0,1,9.49,13.1.08.08,0,0,0,0,.07C6163.46,2771,6085.48,2816.59,6069.7,2768.43Z"/>
      <path class="cls-7" d="M6144.51,2711.51c-1.31-6.41-6-19.78-18.39-47-28.19-61.77-123.85-24-132.65-12.73-42.85-50.31-136.77-41-149.82,21.23,57.1,5,82.67,30.68,90.6,53.16-82.41-48.41-134-15.63-134-15.63,5.19-5.76,12.31-10.82,21.59-14.77-42.24-110.89,139.93-177.34,179-65.34C6057.88,2563.47,6170.83,2632.6,6144.51,2711.51Z"/>
      <path class="cls-9" d="M6144.39,2717.07c-.69.54-1.81-.36-1.81-.36Z"/>
      <path class="cls-4" d="M6069.7,2768.43c-23.27,33.58-70.91,41.66-103.93,17.57-36.22,24.85-68.07,21.53-98.34-10.31-44.71,32.92-85.56-8-77.92-44.42,1.62,33.22,62.11,23.74,77.09,14.22,17.95,35.41,63.86,10.44,84.62,3.22-16.82,16,25.06,34,57.18,21.06s18.88-60.48,3-83.52c31.84,25.67,56.13,32.2,95.06,33.73-34.23-1.12-51,36.44-.1,40.33,49.62,3.8,44.14-24.61,43.82-26.09C6163.46,2771,6085.48,2816.59,6069.7,2768.43Z"/>
    </g>
    <g>
      <path class="cls-2" d="M6588.44,2455.37c-18.57,9.73-30.59,7.39-44.16-8.6-17.79,14.24-29.15,16.15-50.59,8.48-14.59,12.91-30.21,9.35-37.75-8.59-16,15.24-22.17,16.46-42.77,8.49-23.77,13.63-34.76,12.17-54.14-7.19-15.69-1.62-13.09-16.3-5.56-22.92,5-4.43,12.24-5.25,17.7,3.7-.34-17.77,41.71-21.11,44.18-3.5-1.79-18.35,7.28-27.88,25.67-27a58.38,58.38,0,0,1-5.65-16c-8.43-44.25,44.59-77,82-40.91,35.5-15.24,71.22,9.29,73.17,44a56,56,0,0,1-2,18.12c20.05-8.74,32.86-1.3,38.48,10.67h0C6637,2435.35,6624.1,2471,6588.44,2455.37Z"/>
      <path class="cls-3" d="M6590.51,2385.25c-3.56-7-5.37-23.24-26.41-32.23-36.27-15.47-75.17,15.43-87.86,33.5,4-17.36,24.66-36.49,33-40.11-65.79-32.27-73.84,35.79-73.84,35.79h0c-8.43-44.25,44.59-77,82-40.91C6552.84,2326.05,6588.56,2350.58,6590.51,2385.25Z"/>
      <path class="cls-4" d="M6588.44,2455.37c-18.57,9.73-30.59,7.39-44.16-8.6-17.79,14.24-29.15,16.15-50.59,8.48-14.59,12.91-30.21,9.35-37.75-8.59-16,15.24-22.17,16.46-42.77,8.49-23.77,13.63-34.76,12.17-54.14-7.19-15.69-1.62-13.09-16.3-5.56-22.92,0,0-8.76,19.81,11.13,18.67,19.26-1.1,27.92-9.55,28.44-10.07-3.91,6.23-15.12,14.13-21.05,17.49,5.85,4.29,19.09,10.55,40.94-3.07,11.71,2,29.26-2.69,42.92-13.59-12.88,1.93-27.67-11.34-28.83-16.41,17.93,8.6,37.8,13.3,78.76-.29-13.27,8.17-30.58,19.6-44.49,21,2.73,12.09,18.3,20.3,30.79,9,11.7,5.47,30.41,8.62,50.71-8.12,13.23,9,33.1,16,43.64,3.95-9.74,0-33.5-5.11-41.67-22.67,16.36,10.94,43,6.64,63.42-9.88-1.44,9.18-7.29,17.75-13.14,20.87,7,3.9,33.05-.32,31.95-17.87C6637,2435.35,6624.1,2471,6588.44,2455.37Z"/>
      <path class="cls-5" d="M6489.35,2389.87c-.77-2.82,3.88-9.63,6.78-11.34,3.31-2,9.3-1,10.82,3.06a13,13,0,0,1,7.2-12.93c3-1.56,11-4.83,11.92,1,0-4.83,12.39-9.15,16.42-9.81,3.43-.56,12.46,1.64,8.91,6.63,1.86-.06,3.62-1,5.49-1.35a19.69,19.69,0,0,1,9.38.93c3.13,1,7.32,2.62,6.79,6.53-.15,1.18-2.07,2.8-1.71,4,.23.76,1.28.25,1.63.79,2,3.13,3.07,5.62,1.81,9.54-2,6.31-10.65,12.66-17.55,9.65-3-1.3-3.89-6.91-5.89-9.81-3.13,7.94-14.46,5.5-20.42,3.38-3.41-1.2-5.89-4.45-9.62-3.95-3.36.44-7.15,3.8-8.56,6.84-3.76-1.07-7.32-3.72-11.35-3.46-4.83.31-5.51,3.56-8.89,5.83-2.32,1.55-1,.14-2.94-1.25s-4.89-.72-7-1.35a7.81,7.81,0,0,1,1.2-.05Z"/>
      <path class="cls-5" d="M6444.83,2371.16c.41-4.94,2-4.08,5.66-5.57,3.18-1.3,4.86-5.68,7.6-8.19,1.61-1.48,8.72-3.43,7.07.83.2-6.51,12.8-12,18.19-9,3,1.69,3.13,5.31,1.11,7.69-2.75-1.74-8.92-1.76-11.21.74-2.51,2.73-.53,4.07-4,5s-5,.25-7.4,3.21c-2.74,3.34-.53,4.48-1.27,7.83-3.31-.77-6-.63-7.56,2.8-1.11,2.41-.14,3.27,0,5.84.13,2.17-.51,3.74.62,5.81,1,1.75,2.55,3,3.13,4.94-3.79,1-8.88-5-10.07-8A29.83,29.83,0,0,1,6444.83,2371.16Z"/>
    </g>
    <g class="cls-6">
      <path class="cls-2" d="M9389.31,3267.63a91.34,91.34,0,0,1-19.77,24.58c-25.45,22.82-63.76,33.85-102,31.05l-20.76-1.52-3.84,4c-33.57,34.53-89.59,51.39-143,41-16.37-3.18-33.57-7.05-48.07-14-13.19-6.37-27-17.54-27.82-30.46-3.42,5-10.28,10.42-13.7,13.14-29.5,23.41-62.19,22.67-100.12,20.42-41.35-2.45-87.23-20.37-88.36-57.57-.07-2.17-.24-3.8-.58-7.5-18.54,9.33-31.8,19.5-54.79,22.95-19.32,2.91-40.39,1.55-58-4.38-14.87-5-27.82-13.68-36.83-24.28a58.69,58.69,0,0,1-11.24-18.87,44.06,44.06,0,0,1-2.29-21.48c3.94-27,30.59-54.71,64.44-50.68-13.09-25.23,2.44-51.83,27.41-70.56s61.47-30.92,92.51-19.17c3.53-42.52,52.87-73.11,106.28-77.33s107.93,25.59,122,66.73c73.56-27.25,172.92,12.75,188.68,75.94,50.51-22.76,121.46,6.8,135.55,50.87a50.92,50.92,0,0,1,2.05,9C9398.8,3242.65,9395.86,3255.67,9389.31,3267.63Z"/>
      <g>
        <path class="cls-7" d="M9395,3220.43c-16-27.92-52.73-43.67-83.09-45.51-44.54-2.72-61.67,13.59-61.67,13.59-3.43-35.35-24-68-89.09-84.29s-99.36,10.88-99.36,10.88c-3.24-25.73-22.1-47.52-48.53-62-30.08-16.49-72.82-17-105.44-5.05-35.4,13-46.89,39.2-44.75,69.77-13.71-5.43-33.6-4.7-36.8-5-29.06-2.49-58.63,10.92-76.77,28.26-8.57,8.18-15.07,17.92-17.23,28.5-.81,4,.6,24.36,7.45,32.52-24,0-41.11,8.15-41.11,8.15-34.26,13.6-38.27,54.68-38.17,55.85a44.06,44.06,0,0,1-2.29-21.48c3.94-27,30.59-54.71,64.44-50.68-13.09-25.23,2.44-51.83,27.41-70.56s61.47-30.92,92.51-19.17c3.53-42.52,52.87-73.11,106.28-77.33s107.93,25.59,122,66.73c73.56-27.25,172.92,12.75,188.68,75.94C9309.93,3146.8,9380.88,3176.36,9395,3220.43Z"/>
        <path class="cls-7" d="M8965.65,3130.74s88.32-65.95,178.16,1.34C9143.81,3132.08,9066.06,3099.33,8965.65,3130.74Z"/>
        <path class="cls-7" d="M8832,3201.18s103.73-84.53,209.08,1.57C9041.06,3202.75,8949.85,3160.88,8832,3201.18Z"/>
        <path class="cls-7" d="M9181.69,3201.41s71.18-53.16,143.6,1.08C9325.29,3202.49,9262.62,3176.1,9181.69,3201.41Z"/>
        <path class="cls-8" d="M8746.55,3128.69c65.1-35.35,143.6-2.33,143.6-2.33C8817.74,3072.12,8746.55,3128.69,8746.55,3128.69Z"/>
      </g>
      <g>
        <path class="cls-4" d="M9389.31,3267.63a91.34,91.34,0,0,1-19.77,24.58c-25.45,22.82-63.76,33.85-102,31.05l-20.76-1.52-3.84,4c-33.57,34.53-89.59,51.39-143,41-16.37-3.18-33.57-7.05-48.07-14-13.19-6.37-27-17.54-27.82-30.46-3.42,5-10.28,10.42-13.7,13.14-29.5,23.41-62.19,22.67-100.12,20.42-41.35-2.45-87.23-20.37-88.36-57.57-.07-2.17-.24-3.8-.58-7.5-18.54,9.33-31.8,19.5-54.79,22.95-19.32,2.91-40.39,1.55-58-4.38-14.87-5-27.82-13.68-36.83-24.28,33.54,5.3,115,21.29,157.13-12.18-2.81,2.23,21.1,22.16,23,23.52,24.8,18.22,59.1,24.28,92.09,22.87a258,258,0,0,0,50.2-7.35c3.29-.81,16.31-3.69,33.44-14.57,17.13,24.47,72.84,40.57,140.48,24.47,0,0,48-10.87,65.09-40.78C9233.07,3281,9325,3300.81,9389.31,3267.63Z"/>
        <path class="cls-4" d="M9178.25,3259.2s70.63,45.2,150.36,0C9328.61,3259.2,9255.71,3344.17,9178.25,3259.2Z"/>
        <path class="cls-4" d="M8751.69,3259.65s61.15,27.86,130.19,0C8881.88,3259.65,8818.76,3312,8751.69,3259.65Z"/>
        <path class="cls-4" d="M8929.85,3270.08s95.75,55.71,203.86,0C9133.71,3270.08,9034.87,3374.82,8929.85,3270.08Z"/>
      </g>
    </g>
    <g>
      <path class="cls-2" d="M13097.3,4376.07a57.31,57.31,0,0,1-12.44,15.47c-16,14.35-40.11,21.3-64.17,19.53l-13.07-.95-2.41,2.49c-21.13,21.73-56.37,32.34-90,25.78-10.3-2-21.12-4.43-30.24-8.82-8.3-4-17-11-17.51-19.16-2.15,3.13-6.46,6.55-8.62,8.26-18.56,14.73-39.13,14.27-63,12.85-26-1.54-54.88-12.82-55.6-36.22,0-1.37-.15-2.39-.36-4.72-11.66,5.87-20,12.27-34.47,14.44-12.16,1.83-25.42,1-36.52-2.76a52.45,52.45,0,0,1-23.17-15.27,37,37,0,0,1-7.07-11.88,27.66,27.66,0,0,1-1.45-13.51c2.48-17,19.25-34.42,40.55-31.89-8.23-15.87,1.53-32.6,17.25-44.39s38.67-19.45,58.2-12.06c2.22-26.76,33.26-46,66.87-48.66s67.91,16.1,76.74,42c46.29-17.15,108.8,8,118.72,47.78,31.77-14.32,76.42,4.27,85.28,32a31.92,31.92,0,0,1,1.29,5.65A38.87,38.87,0,0,1,13097.3,4376.07Z"/>
      <g>
        <path class="cls-7" d="M13100.86,4346.37c-10.07-17.56-33.18-27.47-52.28-28.63-28-1.71-38.8,8.55-38.8,8.55-2.16-22.24-15.09-42.77-56.05-53s-62.51,6.84-62.51,6.84c-2-16.19-13.91-29.9-30.54-39-18.93-10.38-45.82-10.69-66.34-3.18-22.27,8.15-29.5,24.66-28.16,43.9-8.62-3.42-21.14-3-23.15-3.13-18.28-1.58-36.89,6.86-48.3,17.78-5.39,5.14-9.48,11.27-10.84,17.93-.51,2.51.38,15.32,4.69,20.45a65.68,65.68,0,0,0-25.87,5.14c-21.56,8.55-24.08,34.4-24,35.13a27.66,27.66,0,0,1-1.45-13.51c2.48-17,19.25-34.42,40.55-31.89-8.23-15.87,1.53-32.6,17.25-44.39s38.67-19.45,58.2-12.06c2.22-26.76,33.26-46,66.87-48.66s67.91,16.1,76.74,42c46.29-17.15,108.8,8,118.72,47.78C13047.35,4300.05,13092,4318.64,13100.86,4346.37Z"/>
        <path class="cls-7" d="M12830.75,4289.94s55.56-41.49,112.09.85C12942.84,4290.79,12893.92,4270.18,12830.75,4289.94Z"/>
        <path class="cls-7" d="M12746.64,4334.26s65.27-53.18,131.55,1C12878.19,4335.25,12820.81,4308.91,12746.64,4334.26Z"/>
        <path class="cls-7" d="M12966.67,4334.41s44.79-33.45,90.35.68C13057,4335.09,13017.59,4318.48,12966.67,4334.41Z"/>
        <path class="cls-8" d="M12692.89,4288.65c41-22.24,90.35-1.46,90.35-1.46C12737.68,4253.06,12692.89,4288.65,12692.89,4288.65Z"/>
      </g>
      <g>
        <path class="cls-4" d="M13097.3,4376.07a57.31,57.31,0,0,1-12.44,15.47c-16,14.35-40.11,21.3-64.17,19.53l-13.07-.95-2.41,2.49c-21.13,21.73-56.37,32.34-90,25.78-10.3-2-21.12-4.43-30.24-8.82-8.3-4-17-11-17.51-19.16-2.15,3.13-6.46,6.55-8.62,8.26-18.56,14.73-39.13,14.27-63,12.85-26-1.54-54.88-12.82-55.6-36.22,0-1.37-.15-2.39-.36-4.72-11.66,5.87-20,12.27-34.47,14.44-12.16,1.83-25.42,1-36.52-2.76a52.45,52.45,0,0,1-23.17-15.27c21.1,3.33,72.32,13.39,98.86-7.67-1.77,1.41,13.28,14,14.46,14.8,15.61,11.46,37.19,15.28,58,14.39a162.35,162.35,0,0,0,31.58-4.62c2.07-.51,10.26-2.33,21-9.17,10.78,15.4,45.83,25.52,88.38,15.4,0,0,30.18-6.85,41-25.66C12999,4384.46,13056.86,4396.94,13097.3,4376.07Z"/>
        <path class="cls-4" d="M12964.51,4370.77s44.43,28.44,94.6,0C13059.11,4370.77,13013.24,4424.23,12964.51,4370.77Z"/>
        <path class="cls-4" d="M12696.12,4371.05s38.48,17.53,81.92,0C12778,4371.05,12738.32,4404,12696.12,4371.05Z"/>
        <path class="cls-4" d="M12808.22,4377.61s60.25,35.05,128.27,0C12936.49,4377.61,12874.3,4443.51,12808.22,4377.61Z"/>
      </g>
    </g>
    <g>
      <path class="cls-2" d="M10482.14,3679.85a34.89,34.89,0,0,1-7.56,9.4c-9.73,8.72-24.38,12.94-39,11.87l-7.94-.58-1.47,1.52c-12.84,13.2-34.26,19.65-54.68,15.67-6.26-1.22-12.84-2.7-18.38-5.37-5-2.43-10.31-6.71-10.64-11.65a28,28,0,0,1-5.24,5c-11.28,9-23.78,8.67-38.29,7.81-15.81-.94-33.35-7.79-33.79-22,0-.83-.09-1.45-.22-2.87-7.09,3.57-12.16,7.46-21,8.78a49,49,0,0,1-22.2-1.68,32,32,0,0,1-14.08-9.28,22.6,22.6,0,0,1-4.3-7.22,17,17,0,0,1-.88-8.21c1.51-10.32,11.7-20.92,24.65-19.38-5-9.65.93-19.82,10.48-27s23.51-11.83,35.38-7.34c1.35-16.26,20.22-28,40.64-29.57s41.27,9.79,46.65,25.52c28.13-10.42,66.13,4.88,72.15,29,19.32-8.7,46.45,2.6,51.84,19.46a19.84,19.84,0,0,1,.78,3.43A23.62,23.62,0,0,1,10482.14,3679.85Z"/>
      <g>
        <path class="cls-7" d="M10484.31,3661.8c-6.12-10.68-20.17-16.7-31.78-17.41-17-1-23.58,5.2-23.58,5.2-1.31-13.52-9.17-26-34.07-32.24s-38,4.16-38,4.16c-1.24-9.83-8.45-18.17-18.55-23.71-11.51-6.31-27.85-6.5-40.33-1.93-13.53,5-17.93,15-17.11,26.68-5.24-2.08-12.85-1.8-14.07-1.9-11.12-1-22.42,4.17-29.36,10.8a21.53,21.53,0,0,0-6.59,10.9c-.31,1.53.23,9.32,2.85,12.44a39.94,39.94,0,0,0-15.72,3.12c-13.1,5.2-14.64,20.91-14.6,21.35a17,17,0,0,1-.88-8.21c1.51-10.32,11.7-20.92,24.65-19.38-5-9.65.93-19.82,10.48-27s23.51-11.83,35.38-7.34c1.35-16.26,20.22-28,40.64-29.57s41.27,9.79,46.65,25.52c28.13-10.42,66.13,4.88,72.15,29C10451.79,3633.64,10478.92,3644.94,10484.31,3661.8Z"/>
        <path class="cls-7" d="M10320.13,3627.5s33.77-25.23,68.13.51C10388.26,3628,10358.53,3615.49,10320.13,3627.5Z"/>
        <path class="cls-7" d="M10269,3654.43s39.67-32.32,80,.61C10349,3655,10314.09,3639,10269,3654.43Z"/>
        <path class="cls-7" d="M10402.75,3654.52s27.22-20.33,54.91.42C10457.66,3654.94,10433.69,3644.84,10402.75,3654.52Z"/>
        <path class="cls-8" d="M10236.34,3626.71c24.9-13.51,54.92-.89,54.92-.89C10263.57,3605.08,10236.34,3626.71,10236.34,3626.71Z"/>
      </g>
      <g>
        <path class="cls-4" d="M10482.14,3679.85a34.89,34.89,0,0,1-7.56,9.4c-9.73,8.72-24.38,12.94-39,11.87l-7.94-.58-1.47,1.52c-12.84,13.2-34.26,19.65-54.68,15.67-6.26-1.22-12.84-2.7-18.38-5.37-5-2.43-10.31-6.71-10.64-11.65a28,28,0,0,1-5.24,5c-11.28,9-23.78,8.67-38.29,7.81-15.81-.94-33.35-7.79-33.79-22,0-.83-.09-1.45-.22-2.87-7.09,3.57-12.16,7.46-21,8.78a49,49,0,0,1-22.2-1.68,32,32,0,0,1-14.08-9.28c12.83,2,44,8.14,60.09-4.66-1.08.85,8.07,8.48,8.79,9,9.49,7,22.6,9.28,35.22,8.74a98.28,98.28,0,0,0,19.19-2.81,40.7,40.7,0,0,0,12.79-5.57c6.55,9.36,27.86,15.51,53.72,9.36,0,0,18.35-4.16,24.9-15.6C10422.4,3684.94,10457.56,3692.53,10482.14,3679.85Z"/>
        <path class="cls-4" d="M10401.43,3676.62s27,17.29,57.5,0C10458.93,3676.62,10431.05,3709.12,10401.43,3676.62Z"/>
        <path class="cls-4" d="M10238.31,3676.79a68,68,0,0,0,49.79,0S10264,3696.83,10238.31,3676.79Z"/>
        <path class="cls-4" d="M10306.44,3680.78s36.62,21.31,78,0C10384.4,3680.78,10346.6,3720.83,10306.44,3680.78Z"/>
      </g>
    </g>
    <g class="cls-6">
      <path class="cls-2" d="M10570.62,4092.73c-22.07,27.06-78.11,35.87-122.25,19.18-39.27,21.06-78.29,20.26-120.5-2.54-48.07,27.73-104.66-1.42-102-29.85v0c.56-5.66,3.46-11.29,9.25-16.44,5.23-4.71,12.92-9,23.41-12.53-70.79-82.83,137.13-143.84,204.31-60,56.84-54.58,205.49-7.68,187.84,54.36v0a35,35,0,0,1-1.4,4.07c-.46,1.16-1,2.31-1.53,3.45,6.49,2.88,11,6.12,13.79,9.53,0,0,0,0,0,.05C10684.22,4089.6,10598.27,4128.85,10570.62,4092.73Z"/>
      <path class="cls-7" d="M10650.71,4044.93c-2.73-4.85-10.77-14.87-30.59-35-45.06-45.89-153.73-11.68-162.33-2.52-60.7-36.29-172.35-24-177,24.5,69.79.74,105.24,19,118.82,35.87-108.09-32.67-164.49-4.67-164.49-4.67,5.23-4.71,12.92-9,23.41-12.53-70.79-82.83,137.13-143.84,204.31-60C10519.71,3936,10668.36,3982.89,10650.71,4044.93Z"/>
      <path class="cls-9" d="M10651.56,4049.2c-.74.46-2.25-.18-2.25-.18Z"/>
      <path class="cls-4" d="M10570.62,4092.73c-22.07,27.06-78.11,35.87-122.25,19.18-39.27,21.06-78.29,20.26-120.5-2.54-48.07,27.73-104.66-1.42-102-29.85,7.9,25.43,79.18,14.83,95.56,6.7,28,26.21,78.92,4.53,102.68-2.15-17.44,13.18,36.31,24.72,72.76,13s12-47.47-11.32-64.3c43,18,73.48,21.66,120.73,20.7-41.5,1-55.06,30.78,7.09,31,60.55.21,48.86-21.31,48.21-22.43C10684.22,4089.6,10598.27,4128.85,10570.62,4092.73Z"/>
    </g>
    <g class="cls-6">
      <path class="cls-2" d="M11335.61,4031.86c-52.45,64.3-185.61,85.23-290.51,45.57-93.3,50.06-186,48.14-286.33-6-114.23,65.87-248.72-3.38-242.31-70.94v-.06c1.33-13.44,8.22-26.82,22-39.06,12.44-11.19,30.7-21.35,55.62-29.77-168.21-196.84,325.87-341.8,485.52-142.49,135.06-129.7,488.29-18.24,446.36,129.17v.06a82,82,0,0,1-3.32,9.68c-1.11,2.74-2.29,5.47-3.65,8.18,15.43,6.86,26.1,14.56,32.78,22.66,0,0,0,0,.08.12C11605.55,4024.42,11401.31,4117.68,11335.61,4031.86Z"/>
      <path class="cls-7" d="M11525.93,3918.26c-6.49-11.52-25.6-35.32-72.69-83.28-107.08-109.06-365.32-27.76-385.73-6-144.27-86.24-409.58-57-420.55,58.21,165.84,1.75,250.07,45.24,282.36,85.23-256.86-77.62-390.89-11.09-390.89-11.09,12.44-11.19,30.7-21.35,55.62-29.77-168.21-196.84,325.87-341.8,485.52-142.49C11214.63,3659.39,11567.86,3770.85,11525.93,3918.26Z"/>
      <path class="cls-9" d="M11528,3928.42c-1.76,1.08-5.34-.42-5.34-.42Z"/>
      <path class="cls-4" d="M11335.61,4031.86c-52.45,64.3-185.61,85.23-290.51,45.57-93.3,50.06-186,48.14-286.33-6-114.23,65.87-248.72-3.38-242.31-70.94,18.76,60.42,188.16,35.25,227.07,15.93,66.52,62.27,187.54,10.75,244-5.13-41.46,31.34,86.28,58.76,172.88,31s28.42-112.82-26.89-152.8c102.2,42.7,174.62,51.47,286.89,49.19-98.61,2.42-130.85,73.13,16.84,73.6,143.9.5,116.11-50.64,114.56-53.3C11605.55,4024.42,11401.31,4117.68,11335.61,4031.86Z"/>
    </g>
    <g>
      <path class="cls-2" d="M11058.55,4080a67.17,67.17,0,0,1-14.5,18c-18.67,16.73-46.76,24.82-74.8,22.77l-15.23-1.12-2.81,2.91c-24.63,25.33-65.71,37.69-104.86,30.05-12-2.33-24.62-5.16-35.25-10.29-9.68-4.66-19.78-12.86-20.41-22.33-2.51,3.65-7.53,7.64-10.05,9.63-21.63,17.17-45.6,16.63-73.42,15-30.33-1.8-64-14.94-64.8-42.22,0-1.59-.18-2.79-.43-5.5-13.59,6.84-23.32,14.3-40.18,16.83-14.17,2.13-29.62,1.14-42.56-3.21a61.15,61.15,0,0,1-27-17.81,43.06,43.06,0,0,1-8.25-13.84,32.39,32.39,0,0,1-1.68-15.75c2.89-19.78,22.44-40.12,47.27-37.17-9.6-18.5,1.78-38,20.1-51.74s45.07-22.68,67.84-14.06c2.59-31.19,38.77-53.62,77.94-56.71s79.16,18.76,89.46,48.93c54-20,126.81,9.35,138.37,55.7,37-16.69,89.08,5,99.41,37.3a37.11,37.11,0,0,1,1.5,6.58C11065.51,4061.71,11063.35,4071.26,11058.55,4080Z"/>
      <g>
        <path class="cls-7" d="M11062.7,4045.41c-11.74-20.47-38.68-32-60.94-33.38-32.66-2-45.23,10-45.23,10-2.51-25.92-17.59-49.85-65.33-61.81s-72.87,8-72.87,8c-2.37-18.86-16.21-34.84-35.59-45.47-22.06-12.1-53.4-12.46-77.33-3.7-26,9.5-34.38,28.74-32.81,51.17-10.05-4-24.65-3.45-27-3.65-21.31-1.84-43,8-56.31,20.72-6.28,6-11,13.14-12.63,20.9-.59,2.93.44,17.86,5.47,23.84a76.52,76.52,0,0,0-30.15,6c-25.13,10-28.07,40.1-28,40.95a32.39,32.39,0,0,1-1.68-15.75c2.89-19.78,22.44-40.12,47.27-37.17-9.6-18.5,1.78-38,20.1-51.74s45.07-22.68,67.84-14.06c2.59-31.19,38.77-53.62,77.94-56.71s79.16,18.76,89.46,48.93c54-20,126.81,9.35,138.37,55.7C11000.33,3991.42,11052.37,4013.09,11062.7,4045.41Z"/>
        <path class="cls-7" d="M10747.85,3979.64s64.77-48.37,130.66,1C10878.51,3980.62,10821.48,3956.61,10747.85,3979.64Z"/>
        <path class="cls-7" d="M10649.82,4031.29s76.07-62,153.33,1.16C10803.15,4032.45,10736.26,4001.74,10649.82,4031.29Z"/>
        <path class="cls-7" d="M10906.29,4031.46s52.2-39,105.3.8C11011.59,4032.26,10965.64,4012.9,10906.29,4031.46Z"/>
        <path class="cls-8" d="M10587.16,3978.14c47.75-25.93,105.32-1.71,105.32-1.71C10639.37,3936.65,10587.16,3978.14,10587.16,3978.14Z"/>
      </g>
      <g>
        <path class="cls-4" d="M11058.55,4080a67.17,67.17,0,0,1-14.5,18c-18.67,16.73-46.76,24.82-74.8,22.77l-15.23-1.12-2.81,2.91c-24.63,25.33-65.71,37.69-104.86,30.05-12-2.33-24.62-5.16-35.25-10.29-9.68-4.66-19.78-12.86-20.41-22.33-2.51,3.65-7.53,7.64-10.05,9.63-21.63,17.17-45.6,16.63-73.42,15-30.33-1.8-64-14.94-64.8-42.22,0-1.59-.18-2.79-.43-5.5-13.59,6.84-23.32,14.3-40.18,16.83-14.17,2.13-29.62,1.14-42.56-3.21a61.15,61.15,0,0,1-27-17.81c24.6,3.89,84.3,15.62,115.23-8.93-2.06,1.63,15.48,16.25,16.86,17.25,18.19,13.36,43.34,17.8,67.54,16.77a189.07,189.07,0,0,0,36.81-5.39c2.42-.59,12-2.71,24.53-10.68,12.56,17.94,53.42,29.75,103,17.94,0,0,35.18-8,47.74-29.91C10944,4089.8,11011.41,4104.36,11058.55,4080Z"/>
        <path class="cls-4" d="M10903.77,4073.85s51.79,33.14,110.26,0C11014,4073.85,10960.57,4136.16,10903.77,4073.85Z"/>
        <path class="cls-4" d="M10590.93,4074.17s44.85,20.44,95.49,0C10686.42,4074.17,10640.12,4112.59,10590.93,4074.17Z"/>
        <path class="cls-4" d="M10721.59,4081.83s70.23,40.85,149.51,0C10871.1,4081.83,10798.61,4158.64,10721.59,4081.83Z"/>
      </g>
    </g>
    <g>
      <path class="cls-2" d="M12478.92,3776.21c-32.69,17.12-53.86,13-77.75-15.15-31.33,25.08-51.32,28.44-89.09,14.94-25.68,22.72-53.18,16.46-66.47-15.14-28.18,26.84-39,29-75.3,15-41.86,24-61.21,21.43-95.34-12.66-27.63-2.85-23-28.71-9.78-40.36,8.83-7.79,21.55-9.25,31.16,6.52-.59-31.3,73.45-37.18,77.79-6.18-3.14-32.29,12.82-49.08,45.21-47.61a102.74,102.74,0,0,1-10-28.16c-14.85-77.93,78.5-135.65,144.33-72,62.5-26.85,125.4,16.35,128.83,77.4a98.3,98.3,0,0,1-3.52,31.91c35.31-15.39,57.87-2.29,67.76,18.77v0C12564.4,3741,12541.72,3803.75,12478.92,3776.21Z"/>
      <path class="cls-3" d="M12482.56,3652.74c-6.26-12.31-9.45-40.93-46.5-56.75-63.85-27.25-132.35,27.16-154.69,59,7-30.57,43.4-64.27,58.06-70.64-115.85-56.81-130,63-130,63h0c-14.85-77.93,78.5-135.65,144.33-72C12416.23,3548.49,12479.13,3591.69,12482.56,3652.74Z"/>
      <path class="cls-4" d="M12478.92,3776.21c-32.69,17.12-53.86,13-77.75-15.15-31.33,25.08-51.32,28.44-89.09,14.94-25.68,22.72-53.18,16.46-66.47-15.14-28.18,26.84-39,29-75.3,15-41.86,24-61.21,21.43-95.34-12.66-27.63-2.85-23-28.71-9.78-40.36,0,0-15.43,34.89,19.58,32.88,33.92-1.95,49.17-16.83,50.09-17.74-6.88,11-26.63,24.88-37.06,30.79,10.29,7.57,33.62,18.58,72.09-5.4,20.62,3.46,51.52-4.73,75.57-23.93-22.68,3.41-48.72-20-50.76-28.89,31.56,15.14,66.56,23.42,138.67-.51-23.36,14.38-53.84,34.51-78.33,37,4.8,21.29,32.22,35.74,54.21,15.86,20.61,9.64,53.55,15.17,89.29-14.3,23.29,15.82,58.29,28.22,76.85,7-17.16,0-59-9-73.38-39.91,28.81,19.26,75.68,11.69,111.67-17.4-2.54,16.17-12.83,31.26-23.13,36.74,12.34,6.88,58.2-.57,56.25-31.46C12564.4,3741,12541.72,3803.75,12478.92,3776.21Z"/>
      <path class="cls-5" d="M12304.45,3660.87c-1.37-5,6.83-16.95,11.94-20,5.82-3.43,16.37-1.68,19.05,5.39-.62-10.19,3.9-18.17,12.67-22.78,5.24-2.75,19.36-8.5,21,1.78,0-8.49,21.82-16.1,28.92-17.26,6-1,21.94,2.88,15.69,11.66,3.27-.1,6.36-1.81,9.67-2.37a34.59,34.59,0,0,1,16.51,1.63c5.5,1.77,12.88,4.63,12,11.5-.28,2.08-3.65,4.94-3,7.1.4,1.34,2.25.44,2.87,1.39,3.58,5.51,5.4,9.89,3.19,16.8-3.56,11.1-18.77,22.29-30.91,17-5.23-2.28-6.86-12.16-10.37-17.28-5.52,14-25.46,9.68-36,6-6-2.12-10.36-7.84-16.93-7-5.91.78-12.59,6.68-15.06,12-6.64-1.87-12.9-6.54-20-6.08-8.5.55-9.71,6.27-15.65,10.26-4.08,2.73-1.69.25-5.18-2.21-3.33-2.33-8.6-1.26-12.33-2.36a14.22,14.22,0,0,1,2.1-.1Z"/>
      <path class="cls-5" d="M12226.05,3627.93c.72-8.7,3.59-7.18,10-9.8,5.6-2.3,8.56-10,13.38-14.44,2.84-2.61,15.35-6,12.45,1.46.36-11.45,22.54-21.14,32-15.88,5.35,3,5.52,9.34,2,13.52-4.83-3.06-15.7-3.09-19.74,1.31-4.41,4.82-.92,7.16-7,8.9s-8.78.44-13,5.64c-4.83,5.9-.93,7.89-2.23,13.79-5.83-1.35-10.54-1.1-13.32,4.94-2,4.23-.24,5.75,0,10.28.22,3.81-.9,6.59,1.09,10.23,1.69,3.08,4.49,5.21,5.51,8.69-6.67,1.77-15.64-8.87-17.73-14.07A52.56,52.56,0,0,1,12226.05,3627.93Z"/>
    </g>
    <g class="cls-6">
      <path class="cls-2" d="M12321.35,3721.92c-28.78,35.28-101.84,46.76-159.4,25-51.2,27.47-102.07,26.42-157.11-3.3-62.68,36.14-136.47-1.86-133-38.92v0c.73-7.37,4.51-14.72,12.06-21.43,6.82-6.14,16.85-11.72,30.52-16.33-92.3-108,178.8-187.55,266.4-78.19,74.11-71.17,267.93-10,244.92,70.88v0a43.27,43.27,0,0,1-1.82,5.31c-.61,1.5-1.26,3-2,4.49,8.46,3.76,14.32,8,18,12.43,0,0,0,0,0,.07C12469.47,3717.83,12357.41,3769,12321.35,3721.92Z"/>
      <path class="cls-7" d="M12425.78,3659.59c-3.56-6.32-14-19.38-39.88-45.7-58.76-59.84-200.46-15.23-211.66-3.28-79.15-47.32-224.73-31.27-230.75,31.94,91,1,137.21,24.82,154.93,46.76-140.94-42.59-214.48-6.08-214.48-6.08,6.82-6.14,16.85-11.72,30.52-16.33-92.3-108,178.8-187.55,266.4-78.19C12255,3517.54,12448.79,3578.7,12425.78,3659.59Z"/>
      <path class="cls-9" d="M12426.89,3665.16c-1,.59-2.93-.23-2.93-.23Z"/>
      <path class="cls-4" d="M12321.35,3721.92c-28.78,35.28-101.84,46.76-159.4,25-51.2,27.47-102.07,26.42-157.11-3.3-62.68,36.14-136.47-1.86-133-38.92,10.3,33.15,103.25,19.33,124.6,8.73,36.5,34.18,102.9,5.9,133.89-2.81-22.75,17.19,47.34,32.24,94.86,17s15.59-61.9-14.76-83.84c56.08,23.43,95.82,28.24,157.42,27-54.11,1.33-71.8,40.13,9.24,40.38,79,.28,63.71-27.78,62.86-29.24C12469.47,3717.83,12357.41,3769,12321.35,3721.92Z"/>
    </g>
    <g class="cls-10">
      <path class="cls-2" d="M12861.77,4497.33a128.81,128.81,0,0,1-27.82,34.59c-35.83,32.11-89.74,47.64-143.54,43.7l-29.22-2.14-5.4,5.58c-47.26,48.6-126.09,72.32-201.21,57.67-23-4.48-47.25-9.91-67.65-19.75-18.56-8.95-38-24.68-39.15-42.85-4.82,7-14.47,14.65-19.29,18.48-41.51,32.94-87.51,31.91-140.89,28.74-58.19-3.45-122.76-28.66-124.35-81-.09-3.06-.33-5.36-.82-10.56-26.08,13.12-44.74,27.44-77.09,32.29-27.2,4.1-56.85,2.19-81.68-6.16-20.93-7-39.16-19.24-51.84-34.16a83.16,83.16,0,0,1-15.81-26.56,62.07,62.07,0,0,1-3.23-30.23c5.54-38,43.06-77,90.69-71.32-18.42-35.51,3.43-72.93,38.58-99.3s86.5-43.5,130.18-27c5-59.85,74.4-102.89,149.57-108.82s151.88,36,171.65,93.9c103.52-38.34,243.35,17.94,265.53,106.87,71.07-32,170.93,9.56,190.74,71.59a70.63,70.63,0,0,1,2.9,12.62C12875.12,4462.17,12871,4480.5,12861.77,4497.33Z"/>
      <g>
        <path class="cls-7" d="M12869.72,4430.91c-22.51-39.3-74.2-61.45-116.92-64.06C12690.12,4363,12666,4386,12666,4386c-4.82-49.75-33.75-95.66-125.37-118.62s-139.82,15.3-139.82,15.3c-4.57-36.2-31.11-66.87-68.3-87.26-42.33-23.21-102.48-23.91-148.39-7.1-49.81,18.23-66,55.16-63,98.19-19.29-7.65-47.29-6.62-51.79-7-40.89-3.52-82.5,15.36-108,39.76-12,11.52-21.2,25.23-24.23,40.11-1.15,5.63.84,34.28,10.48,45.76-33.75,0-57.86,11.48-57.86,11.48-48.21,19.13-53.86,76.94-53.71,78.59a62.07,62.07,0,0,1-3.23-30.23c5.54-38,43.06-77,90.69-71.32-18.42-35.51,3.43-72.93,38.58-99.3s86.5-43.5,130.18-27c5-59.85,74.4-102.89,149.57-108.82s151.88,36,171.65,93.9c103.52-38.34,243.35,17.94,265.53,106.87C12750.05,4327.29,12849.91,4368.88,12869.72,4430.91Z"/>
        <path class="cls-7" d="M12265.57,4304.69s124.28-92.82,250.71,1.89C12516.28,4306.58,12406.86,4260.49,12265.57,4304.69Z"/>
        <path class="cls-7" d="M12077.46,4403.81s146-119,294.23,2.22C12371.69,4406,12243.33,4347.11,12077.46,4403.81Z"/>
        <path class="cls-7" d="M12569.59,4404.14s100.17-74.81,202.08,1.52C12771.67,4405.66,12683.47,4368.52,12569.59,4404.14Z"/>
        <path class="cls-8" d="M11957.22,4301.81c91.62-49.75,202.1-3.28,202.1-3.28C12057.41,4222.19,11957.22,4301.81,11957.22,4301.81Z"/>
      </g>
      <g>
        <path class="cls-4" d="M12861.77,4497.33a128.81,128.81,0,0,1-27.82,34.59c-35.83,32.11-89.74,47.64-143.54,43.7l-29.22-2.14-5.4,5.58c-47.26,48.6-126.09,72.32-201.21,57.67-23-4.48-47.25-9.91-67.65-19.75-18.56-8.95-38-24.68-39.15-42.85-4.82,7-14.47,14.65-19.29,18.48-41.51,32.94-87.51,31.91-140.89,28.74-58.19-3.45-122.76-28.66-124.35-81-.09-3.06-.33-5.36-.82-10.56-26.08,13.12-44.74,27.44-77.09,32.29-27.2,4.1-56.85,2.19-81.68-6.16-20.93-7-39.16-19.24-51.84-34.16,47.21,7.46,161.77,30,221.12-17.15-4,3.14,29.71,31.19,32.36,33.1,34.91,25.64,83.17,34.17,129.6,32.18a362.61,362.61,0,0,0,70.64-10.33c4.63-1.15,22.95-5.2,47.06-20.51,24.11,34.44,102.51,57.09,197.69,34.44,0,0,67.5-15.31,91.61-57.4C12641.9,4516.08,12771.31,4544,12861.77,4497.33Z"/>
        <path class="cls-4" d="M12564.75,4485.47s99.39,63.6,211.59,0C12776.34,4485.47,12673.75,4605,12564.75,4485.47Z"/>
        <path class="cls-4" d="M11964.46,4486.09s86.06,39.22,183.22,0C12147.68,4486.09,12058.84,4559.82,11964.46,4486.09Z"/>
        <path class="cls-4" d="M12215.18,4500.78s134.75,78.4,286.89,0C12502.07,4500.78,12363,4648.17,12215.18,4500.78Z"/>
      </g>
    </g>
    <g class="cls-10">
      <path class="cls-2" d="M11978.46,4368a65.75,65.75,0,0,1-14.22,17.69c-18.32,16.41-45.89,24.36-73.4,22.34l-14.94-1.09-2.77,2.85c-24.16,24.85-64.47,37-102.88,29.49-11.79-2.29-24.17-5.07-34.59-10.1-9.5-4.58-19.41-12.62-20-21.91-2.47,3.58-7.4,7.49-9.87,9.45-21.23,16.85-44.75,16.32-72,14.69-29.76-1.76-62.77-14.65-63.59-41.42,0-1.56-.17-2.74-.42-5.4-13.33,6.71-22.88,14-39.42,16.52-13.91,2.09-29.07,1.11-41.77-3.15a60.08,60.08,0,0,1-26.5-17.48,42.09,42.09,0,0,1-8.09-13.58,31.8,31.8,0,0,1-1.65-15.45c2.84-19.41,22-39.37,46.38-36.47-9.42-18.16,1.75-37.3,19.72-50.78s44.23-22.25,66.57-13.79c2.54-30.6,38-52.62,76.48-55.65s77.67,18.41,87.78,48c52.93-19.61,124.43,9.17,135.77,54.64,36.35-16.37,87.41,4.9,97.54,36.61a36.65,36.65,0,0,1,1.48,6.46C11985.29,4350,11983.17,4359.36,11978.46,4368Z"/>
      <g>
        <path class="cls-7" d="M11982.53,4334c-11.51-20.09-37.94-31.42-59.79-32.75-32-2-44.38,9.78-44.38,9.78-2.46-25.43-17.26-48.91-64.1-60.65s-71.5,7.82-71.5,7.82c-2.34-18.51-15.91-34.19-34.93-44.62-21.64-11.87-52.4-12.22-75.88-3.63-25.47,9.32-33.74,28.21-32.2,50.21-9.86-3.91-24.18-3.39-26.48-3.58-20.91-1.8-42.19,7.85-55.24,20.33-6.17,5.89-10.85,12.9-12.4,20.51-.58,2.88.43,17.53,5.36,23.4a75.19,75.19,0,0,0-29.58,5.87c-24.66,9.78-27.54,39.34-27.47,40.18a31.8,31.8,0,0,1-1.65-15.45c2.84-19.41,22-39.37,46.38-36.47-9.42-18.16,1.75-37.3,19.72-50.78s44.23-22.25,66.57-13.79c2.54-30.6,38-52.62,76.48-55.65s77.67,18.41,87.78,48c52.93-19.61,124.43,9.17,135.77,54.64C11921.34,4281,11972.4,4302.29,11982.53,4334Z"/>
        <path class="cls-7" d="M11673.6,4269.46s63.55-47.46,128.2,1C11801.8,4270.43,11745.85,4246.86,11673.6,4269.46Z"/>
        <path class="cls-7" d="M11577.41,4320.15s74.64-60.83,150.45,1.13C11727.86,4321.28,11662.23,4291.15,11577.41,4320.15Z"/>
        <path class="cls-7" d="M11829.06,4320.32s51.22-38.26,103.33.77C11932.39,4321.09,11887.29,4302.1,11829.06,4320.32Z"/>
        <path class="cls-8" d="M11515.93,4268c46.84-25.44,103.33-1.68,103.33-1.68C11567.16,4227.28,11515.93,4268,11515.93,4268Z"/>
      </g>
      <g>
        <path class="cls-4" d="M11978.46,4368a65.75,65.75,0,0,1-14.22,17.69c-18.32,16.41-45.89,24.36-73.4,22.34l-14.94-1.09-2.77,2.85c-24.16,24.85-64.47,37-102.88,29.49-11.79-2.29-24.17-5.07-34.59-10.1-9.5-4.58-19.41-12.62-20-21.91-2.47,3.58-7.4,7.49-9.87,9.45-21.23,16.85-44.75,16.32-72,14.69-29.76-1.76-62.77-14.65-63.59-41.42,0-1.56-.17-2.74-.42-5.4-13.33,6.71-22.88,14-39.42,16.52-13.91,2.09-29.07,1.11-41.77-3.15a60.08,60.08,0,0,1-26.5-17.48c24.14,3.82,82.72,15.32,113.07-8.76-2,1.6,15.19,15.94,16.54,16.92,17.85,13.11,42.53,17.47,66.28,16.46a185.27,185.27,0,0,0,36.12-5.29c2.36-.58,11.73-2.66,24.06-10.48,12.33,17.61,52.42,29.19,101.09,17.61,0,0,34.52-7.83,46.84-29.35C11866,4377.56,11932.21,4391.84,11978.46,4368Z"/>
        <path class="cls-4" d="M11826.59,4361.9s50.81,32.53,108.19,0C11934.78,4361.9,11882.32,4423.05,11826.59,4361.9Z"/>
        <path class="cls-4" d="M11519.62,4362.22s44,20.06,93.69,0C11613.31,4362.22,11567.89,4399.92,11519.62,4362.22Z"/>
        <path class="cls-4" d="M11647.83,4369.73s68.91,40.09,146.7,0C11794.53,4369.73,11723.41,4445.1,11647.83,4369.73Z"/>
      </g>
    </g>
    <g>
      <path class="cls-2" d="M11991.92,4377a29.16,29.16,0,0,1-6.36,7.91c-8.19,7.34-20.51,10.89-32.81,10l-6.68-.49-1.24,1.28c-10.8,11.11-28.82,16.53-46,13.18-5.27-1-10.8-2.26-15.46-4.51-4.25-2.05-8.68-5.64-9-9.8a23.93,23.93,0,0,1-4.4,4.23c-9.5,7.53-20,7.29-32.21,6.57-13.31-.79-28.07-6.56-28.43-18.52,0-.7-.08-1.23-.19-2.42-6,3-10.23,6.28-17.63,7.39a41.36,41.36,0,0,1-18.67-1.41,26.91,26.91,0,0,1-11.85-7.81,19,19,0,0,1-3.62-6.07,14.32,14.32,0,0,1-.74-6.92c1.27-8.67,9.85-17.6,20.74-16.3-4.21-8.12.78-16.67,8.82-22.7s19.77-9.95,29.76-6.17c1.14-13.68,17-23.52,34.2-24.88s34.72,8.23,39.24,21.47c23.66-8.77,55.63,4.1,60.7,24.43,16.25-7.32,39.08,2.19,43.61,16.37a15.73,15.73,0,0,1,.66,2.89A19.77,19.77,0,0,1,11991.92,4377Z"/>
      <g>
        <path class="cls-7" d="M11993.74,4361.85c-5.15-9-17-14.05-26.73-14.65-14.33-.87-19.84,4.38-19.84,4.38-1.1-11.37-7.72-21.87-28.66-27.12s-32,3.5-32,3.5c-1-8.28-7.11-15.29-15.61-19.95-9.68-5.31-23.43-5.47-33.93-1.62-11.39,4.16-15.08,12.61-14.39,22.44-4.41-1.75-10.82-1.51-11.85-1.6-9.34-.8-18.86,3.51-24.7,9.09a18.2,18.2,0,0,0-5.54,9.17c-.26,1.29.2,7.84,2.4,10.46a33.61,33.61,0,0,0-13.23,2.63c-11,4.37-12.31,17.59-12.28,18a14.32,14.32,0,0,1-.74-6.92c1.27-8.67,9.85-17.6,20.74-16.3-4.21-8.12.78-16.67,8.82-22.7s19.77-9.95,29.76-6.17c1.14-13.68,17-23.52,34.2-24.88s34.72,8.23,39.24,21.47c23.66-8.77,55.63,4.1,60.7,24.43C11966.38,4338.16,11989.21,4347.67,11993.74,4361.85Z"/>
        <path class="cls-7" d="M11855.62,4333s28.41-21.22,57.32.43C11912.94,4333.42,11887.92,4322.89,11855.62,4333Z"/>
        <path class="cls-7" d="M11812.61,4355.65s33.38-27.19,67.27.51C11879.88,4356.16,11850.54,4342.69,11812.61,4355.65Z"/>
        <path class="cls-7" d="M11925.13,4355.73s22.9-17.1,46.19.35C11971.32,4356.08,11951.16,4347.59,11925.13,4355.73Z"/>
        <path class="cls-8" d="M11785.13,4332.33c20.94-11.37,46.2-.75,46.2-.75C11808,4314.13,11785.13,4332.33,11785.13,4332.33Z"/>
      </g>
      <g>
        <path class="cls-4" d="M11991.92,4377a29.16,29.16,0,0,1-6.36,7.91c-8.19,7.34-20.51,10.89-32.81,10l-6.68-.49-1.24,1.28c-10.8,11.11-28.82,16.53-46,13.18-5.27-1-10.8-2.26-15.46-4.51-4.25-2.05-8.68-5.64-9-9.8a23.93,23.93,0,0,1-4.4,4.23c-9.5,7.53-20,7.29-32.21,6.57-13.31-.79-28.07-6.56-28.43-18.52,0-.7-.08-1.23-.19-2.42-6,3-10.23,6.28-17.63,7.39a41.36,41.36,0,0,1-18.67-1.41,26.91,26.91,0,0,1-11.85-7.81c10.79,1.7,37,6.85,50.55-3.92-.9.71,6.79,7.13,7.4,7.56,8,5.86,19,7.82,29.63,7.36a83.67,83.67,0,0,0,16.15-2.36,34.27,34.27,0,0,0,10.76-4.69c5.51,7.87,23.43,13.05,45.19,7.87,0,0,15.43-3.5,21-13.12C11941.66,4381.32,11971.24,4387.71,11991.92,4377Z"/>
        <path class="cls-4" d="M11924,4374.32s22.72,14.54,48.37,0C11972.39,4374.32,11948.94,4401.66,11924,4374.32Z"/>
        <path class="cls-4" d="M11786.78,4374.47a57.24,57.24,0,0,0,41.89,0S11808.36,4391.32,11786.78,4374.47Z"/>
        <path class="cls-4" d="M11844.1,4377.82s30.81,17.93,65.59,0C11909.69,4377.82,11877.89,4411.52,11844.1,4377.82Z"/>
      </g>
    </g>
  </g>
</svg>
