<?xml version="1.0" encoding="utf-8"?>
<!-- Generator: Adobe Illustrator 25.2.3, SVG Export Plug-In . SVG Version: 6.00 Build 0)  -->
<svg version="1.1" id="Layer_1" xmlns="http://www.w3.org/2000/svg" xmlns:xlink="http://www.w3.org/1999/xlink" x="0px" y="0px"
	 viewBox="0 0 1600 900" style="enable-background:new 0 0 1600 900;" xml:space="preserve">
<style type="text/css">
	.st0{clip-path:url(#SVGID_2_);}
	.st1{fill:#002691;}
	.st2{fill:#6D5A2C;}
	.st3{fill:#7F5E00;}
	.st4{fill:url(#SVGID_3_);}
	.st5{fill:#EDEDED;}
	.st6{fill:#9C2EB7;}
	.st7{fill:#D43AF9;}
	.st8{fill:#D264ED;}
	.st9{fill:#87640C;}
	.st10{fill:#E2D100;}
	.st11{opacity:0.5;enable-background:new    ;}
	.st12{font-family:'CoopHeavy';}
	.st13{font-size:250px;}
	.st14{letter-spacing:7;}
	.st15{letter-spacing:5;}
	.st16{letter-spacing:12;}
	.st17{letter-spacing:-10;}
	.st18{letter-spacing:10;}
	.st19{fill:#E22BBF;}
	.st20{fill:#FF7DE7;}
</style>
<g>
	<defs>
		<rect id="SVGID_1_" width="1600" height="900"/>
	</defs>
	<clipPath id="SVGID_2_">
		<use xlink:href="#SVGID_1_"  style="overflow:visible;"/>
	</clipPath>
	<g class="st0">
		<rect class="st1" width="1600" height="900"/>
		<polygon class="st2" points="684,112.8 716.2,211.7 678.7,114.7 		"/>
		<polygon class="st2" points="476.5,201.2 570.1,275.2 473.1,205.7 		"/>
		<polygon class="st3" points="473.1,691.5 570.2,622.1 476.6,696.1 		"/>
		
			<linearGradient id="SVGID_3_" gradientUnits="userSpaceOnUse" x1="562.8712" y1="6.7989" x2="1456.3312" y2="1036.599" gradientTransform="matrix(1 0 0 -1 0 900)">
			<stop  offset="0" style="stop-color:#532416"/>
			<stop  offset="0.1" style="stop-color:#6A3C19"/>
			<stop  offset="0.3" style="stop-color:#A57922"/>
			<stop  offset="0.34" style="stop-color:#AE8323"/>
			<stop  offset="0.55" style="stop-color:#EAC954"/>
			<stop  offset="0.79" style="stop-color:#FFFA8A"/>
			<stop  offset="0.85" style="stop-color:#FEF787"/>
			<stop  offset="0.9" style="stop-color:#FAEE7D"/>
			<stop  offset="0.95" style="stop-color:#F3DF6C"/>
			<stop  offset="1" style="stop-color:#EAC954"/>
		</linearGradient>
		<polygon class="st4" points="678.7,782.6 716.2,685.5 684,784.5 		"/>
		<polygon class="st2" points="917.1,784.5 884.9,685.5 922.4,782.6 		"/>
		<polygon class="st2" points="1124.6,696.1 1031,622.1 1128,691.5 		"/>
		<polygon class="st2" points="1127.9,205.7 1030.9,275.2 1124.5,201.2 		"/>
		<polygon class="st3" points="922.4,114.7 884.9,211.7 917.1,112.8 		"/>
		<polygon class="st5" points="804.9,215.4 789.4,207.6 778.8,221.3 781.4,204.2 765.1,198.3 782.2,195.5 782.7,178.2 790.7,193.5 
			807.3,188.7 795.2,201.1 		"/>
		<polygon class="st5" points="493.7,454.9 482.1,455.4 480.3,466.9 476.2,456 464.7,457.9 473.8,450.6 468.5,440.3 478.2,446.7 
			486.4,438.4 483.3,449.6 		"/>
		<polygon class="st5" points="580.3,766.1 582.3,751.3 568.2,746.4 582.9,743.7 583.2,728.8 590.3,742 604.5,737.6 594.2,748.4 
			602.8,760.6 589.3,754.2 		"/>
		<polygon class="st5" points="1073.3,773.6 1061.6,764 1049.9,773.7 1055.3,759.6 1042.6,751.5 1057.7,752.3 1061.4,737.6 
			1065.3,752.2 1080.4,751.3 1067.7,759.5 		"/>
		<polygon class="st5" points="599.6,309.5 593,303.6 586,308.9 589.5,300.9 582.3,295.8 591,296.7 593.6,288.3 595.5,296.9 
			604.3,296.7 596.7,301.1 		"/>
		<path class="st5" d="M801.7,289.1c0,3-2.4,5.4-5.3,5.4s-5.4-2.4-5.4-5.3c0-3,2.4-5.4,5.3-5.4c0,0,0,0,0,0
			C799.3,283.8,801.7,286.2,801.7,289.1C801.7,289.1,801.7,289.1,801.7,289.1z"/>
		<path class="st5" d="M1079.1,330.2c0,1.8-1.4,3.2-3.2,3.2c-1.8,0-3.2-1.4-3.2-3.2c0-1.8,1.4-3.2,3.2-3.2l0,0
			C1077.6,327,1079.1,328.4,1079.1,330.2z"/>
		<path class="st5" d="M1212.3,636.2c0,1.5-1.2,2.7-2.7,2.7c-1.5,0-2.7-1.2-2.7-2.7c0-1.5,1.2-2.7,2.7-2.7c0,0,0,0,0,0
			C1211.1,633.5,1212.3,634.7,1212.3,636.2z"/>
		<path class="st5" d="M862.6,654.3c0,1.5-1.2,2.7-2.7,2.7c-1.5,0-2.7-1.2-2.7-2.7c0-1.5,1.2-2.7,2.7-2.7c0,0,0,0,0,0
			C861.4,651.7,862.6,652.9,862.6,654.3z"/>
		<path class="st5" d="M457.3,750.6c0,3.2-2.6,5.9-5.9,5.9c-3.2,0-5.9-2.6-5.9-5.9c0-3.2,2.6-5.9,5.9-5.9
			C454.7,744.7,457.3,747.3,457.3,750.6C457.3,750.6,457.3,750.6,457.3,750.6z"/>
		<circle class="st5" cx="503.9" cy="153.3" r="4.8"/>
		<circle class="st5" cx="656.3" cy="204.7" r="5.3"/>
		<path class="st5" d="M954.6,279.5c0,1.8-1.4,3.2-3.2,3.2c-1.8,0-3.2-1.4-3.2-3.2s1.4-3.2,3.2-3.2S954.6,277.7,954.6,279.5
			L954.6,279.5z"/>
		<polygon class="st6" points="468,254.9 446.9,257.5 445.3,278.8 436.3,259.5 415.5,264.5 431.1,249.9 419.9,231.8 438.6,242.1 
			452.4,225.9 448.3,246.8 		"/>
		<polygon class="st6" points="1168.5,294.9 1158.3,294.2 1155.6,304.1 1153.1,294.2 1142.8,294.7 1151.5,289.2 1147.8,279.6 
			1155.7,286.2 1163.7,279.7 1159.9,289.3 		"/>
		<polygon class="st6" points="1123.6,619.6 1134.3,612.6 1129.6,600.6 1139.6,608.7 1149.4,600.5 1144.9,612.5 1155.7,619.3 
			1142.9,618.7 1139.7,631.1 1136.4,618.7 		"/>
		<polygon class="st7" points="810.2,680 800.9,676.5 795.7,685 796.1,675.1 786.5,672.7 796,670.1 795.3,660.2 800.8,668.4 
			810,664.7 803.8,672.4 		"/>
		<polygon class="st8" points="469.1,638.8 464.5,627.5 452.4,629.8 461.8,621.8 455.8,611.1 466.3,617.5 474.7,608.5 471.8,620.5 
			482.9,625.7 470.6,626.6 		"/>
		<polygon class="st6" points="1007,199.3 994.5,190 982.9,200.4 987.9,185.6 974.4,177.8 990,178 993.2,162.8 997.9,177.7 
			1013.4,176 1000.7,185.1 		"/>
		<path class="st6" d="M520.4,611c0,2.4-1.9,4.3-4.3,4.3s-4.3-1.9-4.3-4.3c0-2.4,1.9-4.3,4.3-4.3c0,0,0,0,0,0
			C518.5,606.7,520.4,608.6,520.4,611z"/>
		<path class="st6" d="M656.3,643.1c0,2.4-1.9,4.3-4.3,4.3s-4.3-1.9-4.3-4.3c0-2.4,1.9-4.3,4.3-4.3c0,0,0,0,0,0
			C654.3,638.8,656.2,640.7,656.3,643.1z"/>
		<path class="st6" d="M578.2,677.3c0,2.4-1.9,4.3-4.3,4.3c-2.4,0-4.3-1.9-4.3-4.3c0-2.4,1.9-4.3,4.3-4.3c0,0,0,0,0,0
			C576.3,673,578.2,675,578.2,677.3C578.2,677.3,578.2,677.3,578.2,677.3z"/>
		<path class="st6" d="M987.8,649.5c0,3.5-2.9,6.4-6.4,6.4c-3.5,0-6.4-2.9-6.4-6.4c0-3.5,2.9-6.4,6.4-6.4c0,0,0,0,0,0
			C984.9,643.1,987.8,646,987.8,649.5z"/>
		<circle class="st6" cx="1244.4" cy="392.9" r="4.3"/>
		<path class="st6" d="M1171.7,221.2c0,2.7-2.2,4.8-4.8,4.8c-2.7,0-4.8-2.2-4.8-4.8c0-2.7,2.2-4.8,4.8-4.8
			S1171.7,218.6,1171.7,221.2C1171.7,221.2,1171.7,221.2,1171.7,221.2z"/>
		<path class="st6" d="M1015.5,239.4c0,3.2-2.6,5.9-5.9,5.9c-3.2,0-5.9-2.6-5.9-5.9c0-3.2,2.6-5.9,5.9-5.9
			S1015.5,236.2,1015.5,239.4C1015.5,239.4,1015.5,239.4,1015.5,239.4z"/>
		<path class="st6" d="M547.2,192.4c0,2.1,1.7,3.8,3.7,3.8c2.1,0,3.8-1.7,3.8-3.7c0-2.1-1.7-3.8-3.7-3.8c0,0,0,0,0,0
			C548.8,188.6,547.2,190.3,547.2,192.4z"/>
		<polygon class="st9" points="1000.9,1015.6 946.5,848.6 1009.9,1012.4 		"/>
		<polygon class="st9" points="1351.1,866.3 1193.1,741.4 1356.8,858.7 		"/>
		<polygon class="st9" points="1554.3,604.8 1335.4,555.8 1556.2,595.5 		"/>
		<polygon class="st9" points="1556.2,301.8 1335.4,341.5 1554.3,292.5 		"/>
		<polygon class="st9" points="1356.8,38.6 1193.1,155.8 1351.1,30.9 		"/>
		<polygon class="st9" points="1009.9,-115.2 946.5,48.7 1000.9,-118.4 		"/>
		<polygon class="st9" points="607.4,-118.3 661.7,48.7 598.4,-115.2 		"/>
		<polygon class="st9" points="257.1,30.9 415.1,155.9 251.4,38.6 		"/>
		<polygon class="st9" points="53.9,292.5 272.8,341.5 52,301.8 		"/>
		<polygon class="st9" points="52.1,595.5 272.8,555.8 54,604.8 		"/>
		<polygon class="st9" points="251.4,858.7 415.2,741.4 257.1,866.3 		"/>
		<polygon class="st9" points="598.4,1012.4 661.8,848.6 607.4,1015.6 		"/>
		<polygon class="st5" points="794.6,829.5 820.7,842.5 838.6,819.5 834.3,848.3 861.8,858.3 833,863.1 832,892.2 818.6,866.3 
			790.6,874.5 811,853.7 		"/>
		<polygon class="st5" points="336.4,457.9 324.2,465.4 329.1,478.9 318.2,469.5 307,478.4 312.5,465.1 300.6,457.1 314.9,458.3 
			318.8,444.5 322.1,458.4 		"/>
		<polygon class="st5" points="1359.9,438.7 1379.5,437.8 1382.5,418.4 1389.4,436.8 1408.8,433.6 1393.4,445.9 1402.4,463.3 
			1386,452.5 1372.2,466.5 1377.4,447.5 		"/>
		<polygon class="st5" points="1143.4,683.6 1154.5,693.5 1166.4,684.5 1160.4,698.1 1172.6,706.6 1157.8,705.2 1153.5,719.4 
			1150.3,704.9 1135.5,705.1 1148.3,697.6 		"/>
		<path class="st5" d="M802.2,717.9c0-5,4-9,9-9s9,4,9,9s-4,9-9,9l0,0C806.2,726.9,802.2,722.9,802.2,717.9z"/>
		<path class="st5" d="M323.8,627.6c0-3,2.4-5.4,5.4-5.4c3,0,5.4,2.4,5.4,5.4c0,3-2.4,5.4-5.4,5.4l0,0
			C326.2,633.1,323.8,630.6,323.8,627.6z"/>
		<path class="st5" d="M109,132.1c0-2.5,2-4.5,4.5-4.5s4.5,2,4.5,4.5c0,2.5-2,4.5-4.5,4.5S109,134.6,109,132.1L109,132.1z"/>
		<path class="st5" d="M699.3,101.4c0-2.5,2-4.5,4.5-4.5c2.5,0,4.5,2,4.5,4.5s-2,4.5-4.5,4.5C701.3,105.9,699.3,103.9,699.3,101.4
			C699.3,101.4,699.3,101.4,699.3,101.4z"/>
		<path class="st5" d="M1259,486.8c0-2,1.6-3.6,3.6-3.6c2,0,3.6,1.6,3.6,3.6c0,2-1.6,3.6-3.6,3.6
			C1260.6,490.4,1259,488.8,1259,486.8C1259,486.8,1259,486.8,1259,486.8z"/>
		<path class="st5" d="M1038.7,860.5c0-5,4-9,9-9s9,4,9,9s-4,9-9,9S1038.7,865.5,1038.7,860.5L1038.7,860.5z"/>
		<path class="st5" d="M544,734.2c0-3,2.4-5.4,5.4-5.4c3,0,5.4,2.4,5.4,5.4c0,3-2.4,5.4-5.4,5.4c0,0,0,0,0,0
			C546.5,739.6,544.1,737.1,544,734.2z"/>
		<path class="st5" d="M551.3,446.2c0-2.5,2-4.5,4.5-4.5c2.5,0,4.5,2,4.5,4.5c0,2.5-2,4.5-4.5,4.5
			C553.3,450.7,551.3,448.7,551.3,446.2C551.3,446.2,551.3,446.2,551.3,446.2z"/>
		<polygon class="st10" points="1365.5,775.7 1401.2,771.3 1403.9,735.4 1419.1,768 1454.1,759.5 1427.8,784.1 1446.7,814.7 
			1415.2,797.3 1391.9,824.7 1398.8,789.4 		"/>
		<polygon class="st10" points="226.3,694.4 243.6,695.6 248.1,678.8 252.4,695.6 269.8,694.8 255.1,704 261.3,720.2 247.9,709.1 
			234.4,720 240.9,703.9 		"/>
		<polygon class="st10" points="258.8,160.1 240.6,171.9 248.7,192.1 231.8,178.4 215.1,192.3 222.9,172 204.5,160.5 226.2,161.6 
			231.5,140.5 237.2,161.5 		"/>
		<polygon class="st10" points="787.8,58 803.5,63.9 812.3,49.6 811.6,66.3 827.9,70.3 811.7,74.8 813,91.5 803.7,77.6 788.2,84 
			798.6,70.8 		"/>
		<polygon class="st10" points="1363.7,127.6 1371.5,146.8 1391.9,142.8 1376.1,156.3 1386.1,174.4 1368.5,163.5 1354.3,178.7 
			1359.2,158.5 1340.4,149.7 1361.1,148.2 		"/>
		<polygon class="st10" points="455.6,869.6 476.7,885.3 496.3,867.7 487.9,892.6 510.7,905.8 484.4,905.5 478.9,931.3 471,906.1 
			444.8,908.9 466.3,893.6 		"/>
		<path class="st10" d="M1511.7,471.5c0-2.5,2-4.5,4.5-4.5c2.5,0,4.5,2,4.5,4.5c0,2.5-2,4.5-4.5,4.5S1511.7,474,1511.7,471.5
			C1511.7,471.5,1511.7,471.5,1511.7,471.5z"/>
		<path class="st10" d="M1277,174.5c0-4,3.2-7.2,7.2-7.2c4,0,7.2,3.2,7.2,7.2c0,4-3.2,7.2-7.2,7.2l0,0
			C1280.2,181.7,1277,178.5,1277,174.5z"/>
		<path class="st10" d="M1047.7,120.3c0-4,3.2-7.2,7.2-7.2c4,0,7.2,3.2,7.2,7.2c0,4-3.2,7.2-7.2,7.2c0,0,0,0,0,0
			C1051,127.6,1047.7,124.3,1047.7,120.3z"/>
		<path class="st10" d="M1179.5,62.6c0-4,3.2-7.2,7.2-7.2c4,0,7.2,3.2,7.2,7.2s-3.2,7.2-7.2,7.2c0,0,0,0,0,0
			C1182.8,69.8,1179.5,66.6,1179.5,62.6z"/>
		<path class="st10" d="M488.1,109.5c0-6,4.8-10.8,10.8-10.8c6,0,10.8,4.8,10.8,10.8c0,6-4.8,10.8-10.8,10.8l0,0
			C492.9,120.3,488.1,115.5,488.1,109.5z"/>
		<path class="st10" d="M244.4,392c0-2.5,2-4.5,4.5-4.5s4.5,2,4.5,4.5c0,2.5-2,4.5-4.5,4.5C246.4,396.5,244.4,394.5,244.4,392
			C244.4,392,244.4,392,244.4,392z"/>
		<path class="st10" d="M47.6,542.8c0-4,3.2-7.2,7.2-7.2s7.2,3.2,7.2,7.2c0,4-3.2,7.2-7.2,7.2c0,0,0,0,0,0
			C50.8,550,47.6,546.8,47.6,542.8z"/>
		<circle class="st10" cx="185.7" cy="832.5" r="8.1"/>
		<path class="st10" d="M441.1,801.9c0-5.5,4.4-9.9,9.9-9.9s9.9,4.4,9.9,9.9c0,5.5-4.4,9.9-9.9,9.9l0,0
			C445.6,811.8,441.2,807.4,441.1,801.9C441.1,801.9,441.1,801.9,441.1,801.9z"/>
		<path class="st10" d="M1231.9,881.3c0-3.5-2.8-6.3-6.3-6.3c-3.5,0-6.3,2.8-6.3,6.3c0,3.5,2.8,6.3,6.3,6.3l0,0
			C1229.1,887.6,1231.9,884.8,1231.9,881.3z"/>
		<text transform="matrix(1 0 0 1 264.13 529.44)" class="st11 st12 st13 st14">T</text>
		<text transform="matrix(1 0 0 1 388.88 529.44)" class="st12 st13">H</text>
		<text transform="matrix(1 0 0 1 516.38 529.44)" class="st12 st13 st15">A</text>
		<text transform="matrix(1 0 0 1 645.88 529.44)" class="st12 st13 st14">N</text>
		<text transform="matrix(1 0 0 1 777.63 529.44)" class="st12 st13 st16">K </text>
		<text transform="matrix(1 0 0 1 978.63 529.44)" class="st12 st13 st17">Y</text>
		<text transform="matrix(1 0 0 1 1089.37 529.44)" class="st12 st13 st18">O</text>
		<text transform="matrix(1 0 0 1 1220.87 529.44)" class="st12 st13 st16">U</text>
		<text transform="matrix(1 0 0 1 254.13 519.44)" class="st19 st12 st13 st14">T</text>
		<text transform="matrix(1 0 0 1 378.88 519.44)" class="st19 st12 st13">H</text>
		<text transform="matrix(1 0 0 1 506.38 519.44)" class="st19 st12 st13 st15">A</text>
		<text transform="matrix(1 0 0 1 635.88 519.44)" class="st19 st12 st13 st14">N</text>
		<text transform="matrix(1 0 0 1 767.63 519.44)" class="st19 st12 st13 st16">K </text>
		<text transform="matrix(1 0 0 1 968.63 519.44)" class="st19 st12 st13 st17">Y</text>
		<text transform="matrix(1 0 0 1 1079.37 519.44)" class="st19 st12 st13 st18">O</text>
		<text transform="matrix(1 0 0 1 1210.87 519.44)" class="st19 st12 st13 st16">U</text>
		<text transform="matrix(1 0 0 1 254.13 519.44)" class="st20 st12 st13 st14">T</text>
		<text transform="matrix(1 0 0 1 378.88 519.44)" class="st20 st12 st13">H</text>
		<text transform="matrix(1 0 0 1 506.38 519.44)" class="st20 st12 st13 st15">A</text>
		<text transform="matrix(1 0 0 1 635.88 519.44)" class="st20 st12 st13 st14">N</text>
		<text transform="matrix(1 0 0 1 767.63 519.44)" class="st20 st12 st13 st16">K </text>
		<text transform="matrix(1 0 0 1 968.63 519.44)" class="st20 st12 st13 st17">Y</text>
		<text transform="matrix(1 0 0 1 1079.37 519.44)" class="st20 st12 st13 st18">O</text>
		<text transform="matrix(1 0 0 1 1210.87 519.44)" class="st20 st12 st13 st16">U</text>
	</g>
</g>
</svg>
