<svg id="Layer_1" data-name="Layer 1" xmlns="http://www.w3.org/2000/svg" viewBox="0 0 1280 720"><defs><style>.cls-1,.cls-8{fill:#fbd3c7;}.cls-1,.cls-15,.cls-16,.cls-17,.cls-18{stroke:#453323;}.cls-1,.cls-11,.cls-13,.cls-14,.cls-15,.cls-16,.cls-17,.cls-18,.cls-19,.cls-2,.cls-20,.cls-22,.cls-3,.cls-4{stroke-miterlimit:10;}.cls-1,.cls-14,.cls-15,.cls-16,.cls-17,.cls-18,.cls-19{stroke-width:0.5px;}.cls-2,.cls-3{fill:#87e7ff;}.cls-2{stroke:#295799;}.cls-3{stroke:#2d7a8c;}.cls-4{fill:#f7edeb;stroke:#bf9b82;}.cls-5{fill:#2d2b21;}.cls-6{fill:#fff;}.cls-7{fill:#3d2e17;}.cls-9{fill:#453323;}.cls-10{fill:#ef8d7d;}.cls-11{fill:#066696;}.cls-11,.cls-20{stroke:#06455e;}.cls-12,.cls-13{fill:#ff8798;}.cls-13{stroke:#871a2f;}.cls-14{fill:#7c4b2a;}.cls-14,.cls-19{stroke:#512e16;}.cls-15{fill:#a0412b;}.cls-16{fill:#631f16;}.cls-17{fill:#7a2a1c;}.cls-18{fill:#822e21;}.cls-19{fill:none;}.cls-20{fill:#075370;}.cls-21{fill:#043c5b;}.cls-22{fill:#1181a8;stroke:#063651;}</style></defs><path class="cls-1" d="M211.79,392.65s-12.95.65-18.13,11-20.73-17.81-20.73-17.81l6.15-31.09h21.7Z"/><path class="cls-1" d="M147.23,371.92s-23.56-1.55-58.53,9.72c0,0-23.07,2.53-26.72,10.49,0,0-2.91,5.83-.73,6.81,0,0-1.21,8.55,5.1,8.74,0,0-1.21,5.44,2.92,6.61s8.26,2.72,6.8-3.5,1.94-9.72,8.26-10.11-2.92,5.64,5.34,7.19,5.72-11.6,1.21-14.18c-1.7-1-1,0-1,0s9.47-4.47,56.1-5.05C146,388.64,148.93,382.22,147.23,371.92Z"/><path class="cls-1" d="M66,409.72A13.87,13.87,0,0,1,70.85,401"/><path class="cls-1" d="M62.1,405.15s-2.79-5.63,8-10"/><path class="cls-1" d="M61,399.91a10.77,10.77,0,0,1,6.19-9.33"/><path class="cls-2" d="M174.43,402.24c-12-6-32.22-7-32.22-7,4.21-8.55,4.53-24.61,4.53-24.61a156.82,156.82,0,0,1,28.81,1.29"/><path class="cls-1" d="M171.72,503.31c-1,3.91-2,7.93-3,11.68-2.44,9.33-4.54,17-4.54,17-5.1,9.47-18,3.89-18,3.89-.78-4.08-.47-12.23.18-20.55,1-12.49,2.73-25.36,2.73-25.36s24.77-12.62,25.74-7.77S175.12,489.71,171.72,503.31Z"/><path class="cls-1" d="M139.61,523.83l-6,16.32s2.6,7.77-8.41,7S114,542.58,114,542.58L116.81,518l1.4-12.2c4.53-18.94,33.19-13.92,33.19-13.92Z"/><path class="cls-3" d="M133.58,540.15s5.85,17.09-5.16,16.27S114,542.58,114,542.58L116.81,518c6.08,2.36,17,6.21,22.8,5.81Z"/><path class="cls-4" d="M226.24,369.11s5.8,6.09,14.06,6.64c0,0,1.47.34,1.47-3.76S224.37,363.68,226.24,369.11Z"/><path class="cls-1" d="M251.82,360.54c-3.1,1.47-5.46-.45-6,5.61-.22,2.15-.43,3.65-.61,4.69a8.08,8.08,0,0,1-.58,2.26,25.44,25.44,0,0,1-18.31-5l.34.52c.21.3.51.72.89,1.21,2.09,2.73,6.74,7.88,12.94,9.49,0,0,2.22.82,1.33,2.22a5.43,5.43,0,0,1-2.21,1.62c-4.88,2.36-3,8.27-7.39,13.45s-16.69,5-26.74.74-23.79-13.3-29.69-29.11S179,314.59,179,314.59l12.12-12,13.59-4,34.2,3.44s12.93,14.59,10.12,26.41-5.76,16.69,0,23.19S254.92,359.06,251.82,360.54Z"/><path class="cls-5" d="M158.3,281.79s3.1-17.73,28.37-20.09,39.15,6.35,39.15,6.35l-14,2.51s24.53,4.73,40.19,21.72-2.88,35.49-2.88,35.49a29.6,29.6,0,0,0-2.74-13.18,31.5,31.5,0,0,0-9.6-10.93s10.93,14.77-2.81,12.7a58.06,58.06,0,0,1-23-8.72s6.79,19.51-11.09,31.33l-3.54-14.48a55,55,0,0,1-18.91,29.69l1,14-1.77,18.32s-13.74-.15-31.47-29.7-13.89-56,8.86-63.82c0,0-6.35-6.65-18.76,1.77C135.25,294.79,138.21,280.31,158.3,281.79Z"/><ellipse class="cls-6" cx="234.83" cy="347.31" rx="9.39" ry="5.5" transform="translate(-162.65 480.67) rotate(-74.48)"/><path class="cls-7" d="M240.17,348.8a14.2,14.2,0,0,1-2.59,5.36,8.69,8.69,0,0,1-2.24,2.07,4.38,4.38,0,0,1-3.15.59,4.55,4.55,0,0,1-2.66-2,8.15,8.15,0,0,1-1.18-3,14.8,14.8,0,0,1,.32-6.25,15.07,15.07,0,0,1,3-5.52,8.44,8.44,0,0,1,2.56-2,4.61,4.61,0,0,1,3.29-.31,4.4,4.4,0,0,1,2.39,2.13,8.88,8.88,0,0,1,.86,2.93A14.32,14.32,0,0,1,240.17,348.8Zm-.09,0a14.15,14.15,0,0,0,.4-5.86,7.93,7.93,0,0,0-.95-2.77,3.9,3.9,0,0,0-2.21-1.8,3.94,3.94,0,0,0-2.81.41,7.93,7.93,0,0,0-2.23,1.89,13.93,13.93,0,0,0-2.65,5.23,14.12,14.12,0,0,0-.43,5.85,7.93,7.93,0,0,0,.94,2.76,3.52,3.52,0,0,0,5,1.4A7.77,7.77,0,0,0,237.4,354,14.07,14.07,0,0,0,240.08,348.77Z"/><ellipse class="cls-5" cx="237.2" cy="348.48" rx="6.15" ry="2.95" transform="translate(-162.03 483.81) rotate(-74.48)"/><ellipse class="cls-6" cx="238.57" cy="344.27" rx="1.57" ry="1" transform="translate(-156.97 482.05) rotate(-74.48)"/><path class="cls-5" d="M243,329.51s-6.21-10.49-18.18,4.58c0,0,4.29-10,15.66-10.93C240.44,323.16,247.24,323.9,243,329.51Z"/><path class="cls-1" d="M180.31,353.59s-3.1-8.57-9.16-10.49-11.82,9-6.35,19.8,12.26,14.48,18.32,2.22"/><path class="cls-1" d="M177.51,357.88s-5.91-13.3-11.53-5.76"/><path class="cls-8" d="M174.4,353.59a7.11,7.11,0,0,0-3,8.72"/><path class="cls-9" d="M174.41,353.61a12.09,12.09,0,0,0-.86.9,9.78,9.78,0,0,0-.75.95,7.11,7.11,0,0,0-1.06,2.09,6.6,6.6,0,0,0-.42,2.3,15.87,15.87,0,0,0,.15,2.45l-.05,0a9,9,0,0,1-.49-2.45,6.32,6.32,0,0,1,.34-2.48,7.34,7.34,0,0,1,3.12-3.82Z"/><path class="cls-8" d="M227.26,365s-.33,4.1-5.32,4.21"/><path class="cls-9" d="M227.28,365a3.46,3.46,0,0,1-.31,1.92,4.45,4.45,0,0,1-1.26,1.57,4.75,4.75,0,0,1-1.84.78,6.36,6.36,0,0,1-1,.09,7.4,7.4,0,0,1-1-.13v-.05l.92-.08a9,9,0,0,0,.9-.2,5.08,5.08,0,0,0,1.65-.81,4.69,4.69,0,0,0,1.82-3.1Z"/><path class="cls-10" d="M245.16,370.84a8.08,8.08,0,0,1-.58,2.26,25.44,25.44,0,0,1-18.31-5l.34.52a8.35,8.35,0,0,1-.64-.82,34.66,34.66,0,0,0,15.8,3.32c4.44-.44,3.33-.3,3.33-.3Z"/><path class="cls-10" d="M226.26,368.55s.12.28.37.76l-.37-.21Z"/><path class="cls-10" d="M241.77,381.52a18.65,18.65,0,0,1-5.42-2.11,24.2,24.2,0,0,1-9.72-10.1l.87.5c2.09,2.73,6.74,7.88,12.94,9.49C240.44,379.3,242.66,380.12,241.77,381.52Z"/><path class="cls-11" d="M71.9,451.91s-2.27,17.16,17.49,34.65,25.9,5.18,28.82,22.34c0,0,12-15.22,41.12-14.25l-1.47-3.54-1.77-4.23,2.92,4.53s19.43-3.88,24.61-10.68c0,0-2.59-5.18-29.79-14.58L134.4,455.47Z"/><path class="cls-11" d="M156.42,487.85a229.75,229.75,0,0,0-21-21.37"/><path class="cls-2" d="M195.26,404.36c-.56,2.09-1.36,4.23-2.17,6.42A27.11,27.11,0,0,1,188.6,418c-.41.5-.85,1-1.29,1.51-5.47,6.2-13.14,12.3-17.69,15.7l-1.46,1.08c-1.46,1.07-2.36,1.68-2.36,1.68-1.61,6.16-14.57,8.75-14.57,8.75a8.37,8.37,0,0,1,1.18,1.22,6.05,6.05,0,0,1,1,1.79c2.2,6-8,11.24-8,11.24-2.92,3.56-26.23,1.29-26.23,1.29-53.76-4.21-49.87-9.39-49.87-9.39q2.23-4.69,4.76-9,2.07-3.57,4.31-6.91T83,430.44c.9-1.19,1.81-2.36,2.73-3.49,2.82-3.49,5.73-6.72,8.64-9.71s5.85-5.76,8.72-8.27c3.1-2.72,6.14-5.16,9-7.34l2.38-1.76a126.64,126.64,0,0,1,19.25-11.75S146.7,374.51,173.9,382C195.84,388,197.61,395.66,195.26,404.36Z"/><path class="cls-12" d="M192.81,411.93c-.56,2.09-9.5,10.14-10.31,12.34s2-2.48,0,0c-.41.5.45-.51,0,0-17.36,4.69-45.9,6.24-67.94-6.76A55.88,55.88,0,0,1,103.1,409c3.1-2.72,6.14-5.16,9-7.34l2.38-1.76c-.47,2.67.8,5.5,5.64,8C134.84,415.48,180.73,422.11,192.81,411.93Z"/><path class="cls-12" d="M168.16,436.3c-1.46,1.07-2.36,1.68-2.36,1.68-1.61,6.16-14.57,8.75-14.57,8.75a8.37,8.37,0,0,1,1.18,1.22c-23,2.5-64.76,4.66-74-11q2.25-3.37,4.63-6.49c.9-1.19,1.81-2.36,2.73-3.49,2.86,4.57,12.25,9.75,39.47,10.84C144.1,438.54,158.07,437.68,168.16,436.3Z"/><path class="cls-2" d="M170.5,434.1s-6.64,7.44-34.16,3.56"/><path class="cls-13" d="M154.8,445.43s-3.56,2.91-14.25,0"/><path class="cls-14" d="M63.35,425.4c9.15,30,0,28.24-12.69,33.89s-30.25-2.53-35.56-11.43c-8.84-14.79-1.76-34.33,11-40,4-1.76,11.24-5.8,15.9-5.22C52.21,403.94,59.93,414.16,63.35,425.4Z"/><path class="cls-15" d="M60.38,455.16a10.08,10.08,0,0,1-4.65.47c-7.63-.9-16.42-9.33-21.36-21.27-4.63-11.18-4.53-22.17-.39-28a9.78,9.78,0,0,1,4.7-3.66c8.38-3,20,6.32,26,20.8S68.75,452.17,60.38,455.16Z"/><path class="cls-16" d="M55.73,455.63c-7.76.2-16.52-8.52-21.36-21.27-4.3-11.31-4.53-22.17-.39-28,7.63.89,16.42,9.32,21.36,21.27C60,438.83,59.88,449.82,55.73,455.63Z"/><path class="cls-17" d="M60.73,392.32S50,391,44.46,402.44h0a8.21,8.21,0,0,0-7.17.25l-1.82,1S41.3,385.28,60.73,392.32Z"/><path class="cls-18" d="M35.47,403.66s7-15.22,19.67-11.34,15.55,32.79,2.92,48.33L49,452.92l-3.44,3.52a11.61,11.61,0,0,0,10.85.81c5.83-2.67,25.74-31.9,17.48-52.78L68,394l-11.57-3.31s-10.77-5.59-22.91,13.35Z"/><path class="cls-1" d="M136.5,371.44S112.94,369.5,78,383.58c0,0-23.07,3.16-26.71,13.12,0,0-2.92,7.28-.73,8.5,0,0-1.22,10.68,5.1,10.93,0,0-1.22,6.8,2.91,8.25s8.26,3.4,6.8-4.37,2-12.14,8.26-12.63-2.91,7.05,5.34,9,5.73-14.51,1.22-17.73c-1.7-1.22-1,0-1,0s9.47-5.59,56.1-6.32C135.29,392.32,138.2,384.31,136.5,371.44Z"/><path class="cls-1" d="M55.26,418.68s.49-6.56,4.86-10.93"/><path class="cls-1" d="M51.38,413s-2.79-7.05,8-12.51"/><path class="cls-1" d="M50.29,406.41s0-8.14,6.19-11.66"/><path class="cls-14" d="M33,431.67s-12.3,5.18-20.72,8.58"/><path class="cls-14" d="M30.78,421.79a59.36,59.36,0,0,0-19.43,8.26"/><path class="cls-14" d="M31.91,410.78a42.78,42.78,0,0,0-16.84,7.45"/><path class="cls-14" d="M37.58,440.74s-11.18,8.09-20.89,9.71"/><path class="cls-14" d="M47.94,453.69s-6.32,6-14.25,6.31"/><path class="cls-14" d="M41.62,447.86S32.88,456,25,456.76"/><path class="cls-19" d="M31.1,405.12s-19.59,25.74,14.41,51.32"/><path class="cls-19" d="M23.17,409.16s-9.07,12.15,1.61,32.38,24.61,18.62,24.61,18.62"/><path class="cls-19" d="M13.45,421.47S10.05,446.73,33,460"/><path class="cls-2" d="M163.7,409.32a47,47,0,0,0-10-4.49,90.55,90.55,0,0,0-12.4-3c-5.64-1-9.77-1.24-9.77-1.24,4.21-10.68,4.54-30.76,4.54-30.76a69.85,69.85,0,0,1,11.65,1.65,113.06,113.06,0,0,1,11.88,3.21,132,132,0,0,1,23.1,10.19"/><path class="cls-12" d="M159.72,375a79.84,79.84,0,0,1-5.9,29.47,91.34,91.34,0,0,0-12.41-2.94,109.74,109.74,0,0,0,6.43-29.67A113.42,113.42,0,0,1,159.72,375Z"/><path class="cls-20" d="M159.65,495.3s.33,3.4-11.65,6.64l1.78-6.64A27.55,27.55,0,0,1,159.65,495.3Z"/><path class="cls-3" d="M168.73,515c-2.44,9.33-4.82,24.2-4.82,24.2-5.1,9.47-17.69-3.33-17.69-3.33-.78-4.08-.47-12.23.18-20.55C148.74,515.64,156.54,516.49,168.73,515Z"/><path class="cls-3" d="M139.66,526.27c-3.83.65-11.84.73-23.17-5.72a1,1,0,0,1-.49-.93c.18-1.52.36-3.07.55-4.61a.92.92,0,0,1,1.42-.65,37.13,37.13,0,0,0,22.23,5.27,1,1,0,0,1,1,1.1l-.82,4.8A.93.93,0,0,1,139.66,526.27Z"/><path class="cls-3" d="M167.42,520.7c-3.59.78-11.06,1.16-21.38-4.75a.87.87,0,0,1-.42-.9c.22-1.5.45-3,.67-4.54a.9.9,0,0,1,1.35-.68,31.6,31.6,0,0,0,20.53,4.35.84.84,0,0,1,.92,1l-.94,4.74A1,1,0,0,1,167.42,520.7Z"/><path class="cls-11" d="M73.5,461.62s10.64,8.11,17.74,1.52l-2.53-4.06"/><path class="cls-11" d="M200.09,554.31c-19.57,9.71-50.62-.81-50.62-.81-12.2-.64-13.08-2.71-11.05-7a.47.47,0,0,1,.05-.1c2.1-4.37,1.46-8.9,1.78-13.59a5.29,5.29,0,0,1,4.85-5l.65,4.36-2.11-1a19.06,19.06,0,0,0,1.65,1.6C151.45,538,160,538.3,160,538.3l2.58,1.77a10,10,0,0,1-1-12.12c4.21-6.8,9.7-1.3,9.7-1.3,2.22,4.64,3.7,6.56,5.67,7.63a8.14,8.14,0,0,0,1.44.63c.71.25,1.49.46,2.39.69.66.17,1.39.35,2.19.57l.91.24c.65.18,1.35.39,2.11.63,1.29.41,2.73.92,4.38,1.59,6.66,2.69,9,6.84,9.74,10.2A12.25,12.25,0,0,1,200.09,554.31Z"/><path class="cls-21" d="M178.41,534.91c-5.9,3.47-5.84,7.52-5.84,7.52l-1.45-.68c.6-3.74,3.75-6.21,5.85-7.47A8.14,8.14,0,0,0,178.41,534.91Z"/><path class="cls-21" d="M183,536.17a11.71,11.71,0,0,0-7.22,7.18l-1.6-.53a12.61,12.61,0,0,1,6.63-7.22C181.46,535.77,182.19,536,183,536.17Z"/><path class="cls-21" d="M186,537a11.36,11.36,0,0,0-6.2,6.92l-1.82-.15c2.24-4.52,4.31-6.54,5.91-7.4C184.55,536.59,185.25,536.8,186,537Z"/><path class="cls-22" d="M200.09,554.31c-19.57,9.71-50.62-.81-50.62-.81-12.2-.64-13.08-2.71-11.05-7,1.54,1.17,4.78,2.6,11.53,3.29a110.24,110.24,0,0,0,36.8,4.21c9.22-.55,12.52-2.84,13.38-5.16A12.25,12.25,0,0,1,200.09,554.31Z"/><path class="cls-11" d="M175.73,567.86c-22.49,10.43-57.39-2.42-57.39-2.42-13.81-1.09-14.76-3.47-12.32-8.28l.06-.12c2.51-4.89,1.91-10,2.42-15.35a6,6,0,0,1,5.65-5.55l.61,5L112.4,540a19.93,19.93,0,0,0,1.81,1.86c6.83,6.14,16.51,6.7,16.51,6.7l2.87,2.09a11.32,11.32,0,0,1-.73-13.78c5-7.58,11-1.18,11-1.18,2.38,5.33,4,7.55,6.2,8.82a10.52,10.52,0,0,0,1.62.76c.79.3,1.68.57,2.69.85.74.22,1.56.44,2.46.71l1,.3c.74.22,1.53.48,2.38.77,1.45.51,3.07,1.13,4.92,1.94,7.47,3.25,10,8,10.74,11.85A13.94,13.94,0,0,1,175.73,567.86Z"/><path class="cls-21" d="M151.72,545.22c-6.79,3.75-6.85,8.35-6.85,8.35l-1.63-.82c.79-4.22,4.44-6.93,6.86-8.29A10.52,10.52,0,0,0,151.72,545.22Z"/><path class="cls-21" d="M156.87,546.78a13.27,13.27,0,0,0-8.4,7.93l-1.8-.65a14.32,14.32,0,0,1,7.74-8C155.15,546.29,156,546.51,156.87,546.78Z"/><path class="cls-21" d="M160.27,547.85a12.88,12.88,0,0,0-7.23,7.67l-2.07-.23c2.68-5.06,5.09-7.29,6.92-8.21C158.63,547.3,159.42,547.56,160.27,547.85Z"/><path class="cls-22" d="M175.73,567.86c-22.49,10.43-57.39-2.42-57.39-2.42-13.81-1.09-14.76-3.47-12.32-8.28,1.71,1.37,5.34,3.09,13,4.07a125.06,125.06,0,0,0,41.61,5.87c10.47-.35,14.28-2.85,15.32-5.46A13.94,13.94,0,0,1,175.73,567.86Z"/></svg>