<svg id="Layer_1" data-name="Layer 1" xmlns="http://www.w3.org/2000/svg" viewBox="0 0 1280 720"><defs><style>.cls-1{fill:#1181a8;stroke:#063651;}.cls-1,.cls-10,.cls-17,.cls-18,.cls-19,.cls-2,.cls-20,.cls-3,.cls-4,.cls-5,.cls-7,.cls-9{stroke-miterlimit:10;}.cls-2{fill:#066696;stroke:#06455e;}.cls-14,.cls-3{fill:#fbd3c7;}.cls-17,.cls-19,.cls-20,.cls-3{stroke:#453323;}.cls-17,.cls-18,.cls-19,.cls-20,.cls-3{stroke-width:0.5px;}.cls-4,.cls-7{fill:#87e7ff;}.cls-4{stroke:#2d7a8c;}.cls-5{fill:#3096d2;stroke:#2c3581;}.cls-6{fill:#043c5b;}.cls-7,.cls-9{stroke:#295799;}.cls-8{fill:#ff8798;}.cls-20,.cls-9{fill:none;}.cls-10{fill:#f7edeb;stroke:#bf9b82;}.cls-11{fill:#2d2b21;}.cls-12{fill:#fff;}.cls-13{fill:#3d2e17;}.cls-15{fill:#453323;}.cls-16{fill:#ef8d7d;}.cls-17{fill:#631f16;}.cls-18{fill:#7c4b2a;stroke:#512e16;}.cls-19{fill:#a0412b;}</style></defs><path class="cls-1" d="M703.61,327.64s5.56,5.85,12.58,6.4,14.19-5.16,21.73,1.42-8,14.17-18.07,14.2-19.68,2.8-28.24,6.16-15.69-.19-12.87-16.59S703.61,327.64,703.61,327.64Z"/><path class="cls-2" d="M701.78,324.64a29.76,29.76,0,0,0,12.53,4.14c7,.55,14.23-2.91,21.77,3.67s-8,14.17-18.07,14.2-19.67,2.8-28.23,6.17-15.69-.19-12.87-16.6S701.78,324.64,701.78,324.64Z"/><path class="cls-3" d="M698,320.3c-2.46,12.07-17,8.75-17,8.75-9.82-10.7-16.15-23.75-20.16-34.91a200.22,200.22,0,0,1-7.44-27.07l24.27-13.67a352,352,0,0,1,10.37,34.75c.32,1.38.63,2.76.91,4.13C692.8,310.51,698,320.3,698,320.3Z"/><path class="cls-4" d="M697.68,320.37c-2.38,12.05-16.63,8.67-16.63,8.67-9.68-10.72-15.94-23.78-19.92-35a51.13,51.13,0,0,0,26.67-5.88c.32,1.38.63,2.76.92,4.13C692.52,310.57,697.68,320.37,697.68,320.37Z"/><path class="cls-4" d="M658.8,290.87s17.16,3,28.6-7.32c0,0,2.87,5.06,1.59,8.73,0,0-13.84,8.55-27.08,5.88C661.91,298.16,658.21,297.79,658.8,290.87Z"/><line class="cls-5" x1="677.34" y1="292.21" x2="674.24" y2="260.94"/><path class="cls-6" d="M709.71,328.66c-6.05,5.41-5,10.11-5,10.11l-1.84-.46c-.18-4.48,2.9-8.09,5-10.05A10.4,10.4,0,0,0,709.71,328.66Z"/><path class="cls-6" d="M715.32,329a14,14,0,0,0-6.71,10l-2-.24a14.94,14.94,0,0,1,6-9.94Z"/><path class="cls-6" d="M719,329.35a13.46,13.46,0,0,0-5.57,9.5l-2.17.25c1.56-5.78,3.49-8.62,5.14-10C717.24,329.17,718.1,329.25,719,329.35Z"/><path class="cls-2" d="M705,324.85l-7.3-8.24s-5.19-3.07-6.6,3.53-.24,9.66-.24,9.66"/><path class="cls-3" d="M662.13,324.36c-11.32,4.84-16.85-9-16.85-9,3.21-14.16,10.34-26.78,17.24-36.43a129.87,129.87,0,0,1,16.78-19.33l20.49,10.17a89.26,89.26,0,0,1-16.87,28.12C682,299,681,300,680.05,301,667.22,314.5,662.13,324.36,662.13,324.36Z"/><path class="cls-4" d="M662,324.22c-11.27,4.89-16.66-8.8-16.66-8.8,3.29-14.09,5.75-19.07,12.67-28.7,3.4,5.5,7.76,13.53,18.22,19-1,1.05,4.68-5.8,3.72-4.79C667.11,314.39,662,324.22,662,324.22Z"/><path class="cls-4" d="M659.06,283.45s7.31,15.81,22.3,19.35c0,0-2.53,5.24-6.27,6.28,0,0-14.91-6.52-20.25-18.93C654.84,290.15,653,286.9,659.06,283.45Z"/><path class="cls-2" d="M686.46,367.7C660.68,365.1,636.13,335,636.13,335c-11.85-8.34-11.43-11-6.67-14a.67.67,0,0,0,.11-.07c4.87-3.06,7.08-8,10.36-12.52a6.28,6.28,0,0,1,8-2l-2.11,4.79-1.5-2.3a20.77,20.77,0,0,0,.65,2.64c2.87,9.16,11.27,14.82,11.27,14.82l1.47,3.4a11.82,11.82,0,0,1,6.68-12.78c8.52-4.17,10.57,4.82,10.57,4.82-.7,6.06-.43,8.92.87,11.24a11.35,11.35,0,0,0,1,1.54c.56.7,1.21,1.41,2,2.2.56.59,1.18,1.23,1.84,1.95l.76.82c.54.59,1.12,1.24,1.72,2,1,1.23,2.17,2.65,3.4,4.36,5,6.9,4.74,12.56,3.34,16.39A14.44,14.44,0,0,1,686.46,367.7Z"/><path class="cls-6" d="M676.92,334.54c-8.1-.24-10.61,3.87-10.61,3.87l-1-1.61c3-3.38,7.68-3.87,10.58-3.8A11.35,11.35,0,0,0,676.92,334.54Z"/><path class="cls-6" d="M680.73,338.69A13.89,13.89,0,0,0,669,341.35l-1.27-1.54a15,15,0,0,1,11.21-3.07C679.45,337.33,680.07,338,680.73,338.69Z"/><path class="cls-6" d="M683.21,341.47a13.44,13.44,0,0,0-10.58,3l-1.75-1.3c5.12-3.13,8.47-3.85,10.61-3.7C682,340.1,682.61,340.75,683.21,341.47Z"/><path class="cls-1" d="M686.46,367.7C660.68,365.1,636.13,335,636.13,335c-11.85-8.34-11.43-11-6.67-14,.81,2.15,3.16,5.63,9.5,10.59A130.94,130.94,0,0,0,673.26,359c9.61,5.26,14.37,5.05,16.69,3.26A14.44,14.44,0,0,1,686.46,367.7Z"/><path class="cls-2" d="M611.53,242.73s6.93,22.14,52.39,27.72l-3.72,2.37L692,291.41s21.63-12.85,15.55-29.75-48-36.16-48-36.16Z"/><path class="cls-3" d="M650.73,105.17a133.78,133.78,0,0,1-11.83,40.22c-8.45,18,20.58,9.25,20.58,9.25l20.1-21.88-4.14-22.47Z"/><path class="cls-7" d="M675.82,189.4c.67-.94,6.17-11.09,7-11.9l-29-34.85s-14.19-11-25.43,7c-5.83,9.34-10.23,22.09-13.61,34-1.22,4.28-2.3,8.46-3.27,12.33-1.52,6.09-2.77,11.42-3.81,15.21A54.89,54.89,0,0,0,606,221.59a56.62,56.62,0,0,0,1,15.71c1.22,6-2.16-.52,1.36,4.84,0,0,32.55,8.77,53.54-.51s15.38-9,15.38-9-.6-1.4-1.41-3.73a89.58,89.58,0,0,1-3.12-11.45,58.26,58.26,0,0,1-1.22-13.83Z"/><path class="cls-8" d="M670.67,211.38l2.59,9.42c-8.48,4.95-32.74,9.19-66.67-3.53.94-4.07,1.75-6.28,2.92-10.79C620.91,210.77,650.83,218.39,670.67,211.38Z"/><path class="cls-8" d="M671.22,205.22c-22.1,2.09-45.09-7.44-58.42-14.34a36.93,36.93,0,0,1,3.69-11.31c4.34,3.24,10.39,5.78,19,9.1,21.2,8.17,32,7.79,36.41,6.92A68.21,68.21,0,0,0,671.22,205.22Z"/><path class="cls-9" d="M671.6,207.57s-7.1,12.71-27.2,9.75"/><path class="cls-9" d="M671.78,215.38s-2.67,9.76-24.25,12.13"/><path class="cls-3" d="M748,169.57a20.09,20.09,0,0,0,17.74,7.25c11.09,8.28,9.61.74,9.61.74l-.59-7.69s-3.55-17.15-13.9-17.59a21.44,21.44,0,0,0-10.2,2.07,150.45,150.45,0,0,1-50,3.25l-13,18.33s23.66,4.88,39.92.15S748,169.57,748,169.57Z"/><path class="cls-3" d="M780.89,175.37s-1.1,8.07-7.23,2.33-8.29-9.26-5.89-10.3,10.63,5.22,10.63,5.22Z"/><path class="cls-3" d="M782.25,171.29a4,4,0,0,1-.37,5.11c-1.17,1.17-3,1.55-5.55-1.61-5.13-6.33-3.63-9-1.18-9.82s6.42,5.32,6.42,5.32Z"/><path class="cls-3" d="M764.73,153.76s3.4-.59,10.5,1.62,12,10.5,12,13.31-3.54,5.32-7.53-.15c0,0-.89-4-11.24-6.65"/><path class="cls-3" d="M754.39,153s7.39-3.4,11.82.74,2.52,8.42,8.28,10.64,3.4,8-4.58,5.17-7.54-6.5-7.54-6.5-5.47.74-7.39-2.66"/><path class="cls-7" d="M684.46,147s10.94,8.42,18.33,10.94l-13,19.51-17.59-21.14-12.12-7,7.09-9.16Z"/><path class="cls-10" d="M693.16,125.24s4.12,7.34,12,9.92c0,0,1.35.68,2.36-3.29S692.69,119.51,693.16,125.24Z"/><path class="cls-3" d="M720.08,123.25c-3.38.66-5.19-1.78-7.26,4-.74,2-1.31,3.43-1.75,4.39a7.82,7.82,0,0,1-1.12,2,25.43,25.43,0,0,1-16.51-9.39s.08.25.21.59.31.82.56,1.39c1.35,3.16,4.59,9.31,10.2,12.4,0,0,2,1.35.74,2.48a5.31,5.31,0,0,1-2.55,1c-5.31,1.08-4.9,7.29-10.48,11.21s-17.43.75-26.11-5.89-19.78-18.77-21.6-35.56S660.8,60.7,660.8,60.7l14.71-8.61,14.16-.51L722,63.36s8.93,17.34,3.28,28.11-9.7,14.77-5.73,22.49S723.45,122.58,720.08,123.25Z"/><path class="cls-11" d="M648.85,23.79s7.39-16.42,32.47-12.48,36.39,15.84,36.39,15.84l-14.23-1s22.61,10.65,33.6,31-11.56,33.71-11.56,33.71a29.77,29.77,0,0,0,.61-13.46,31.7,31.7,0,0,0-6.61-13s7,17-5.86,11.63a58.09,58.09,0,0,1-20.2-14.15S695.23,82.44,675,89.49l.14-14.92a55,55,0,0,1-25.67,24.12l1.17,16.39-7.43,18.48s-14.71-1-24.6-34-.67-64,23.33-65.95c0,0-4.52-8-18.63-2.92C623.29,30.7,629.73,17.39,648.85,23.79Z"/><ellipse class="cls-12" cx="706.87" cy="106.23" rx="9.4" ry="5.5" transform="translate(263.31 666.77) rotate(-60.19)"/><path class="cls-13" d="M711.69,109a14.25,14.25,0,0,1-3.84,4.55,8.45,8.45,0,0,1-2.69,1.46,4.4,4.4,0,0,1-3.2-.2,4.58,4.58,0,0,1-2.09-2.57,8.17,8.17,0,0,1-.41-3.2,14.39,14.39,0,0,1,6.08-10.6,8.21,8.21,0,0,1,3-1.27,4.53,4.53,0,0,1,3.27.51,4.36,4.36,0,0,1,1.79,2.65,8.77,8.77,0,0,1,.1,3.06A14.28,14.28,0,0,1,711.69,109Zm-.09,0a14.09,14.09,0,0,0,1.84-5.59,8,8,0,0,0-.24-2.92,4,4,0,0,0-1.7-2.29,3.9,3.9,0,0,0-2.83-.29A7.94,7.94,0,0,0,706,99.13a14.34,14.34,0,0,0-3.86,4.41,14,14,0,0,0-1.85,5.57,7.93,7.93,0,0,0,.22,2.91,3.53,3.53,0,0,0,4.52,2.6,7.77,7.77,0,0,0,2.64-1.27A14,14,0,0,0,711.6,108.94Z"/><ellipse class="cls-11" cx="708.88" cy="107.94" rx="6.16" ry="2.95" transform="translate(262.83 669.37) rotate(-60.19)"/><ellipse class="cls-12" cx="711.25" cy="104.2" rx="1.57" ry="1" transform="translate(267.27 669.55) rotate(-60.19)"/><path class="cls-11" d="M719.15,91s-3.43-11.7-18.76,0c0,0,6.64-8.69,17.89-6.74C718.28,84.19,724.69,86.59,719.15,91Z"/><path class="cls-3" d="M652.46,98.85s-.89-9.07-6.29-12.43-13.69,5.82-11,17.62,8.31,17.07,17.21,6.68"/><path class="cls-3" d="M648.68,102.31s-2.45-14.35-9.75-8.43"/><path class="cls-14" d="M646.73,97.39a7.11,7.11,0,0,0-5,7.72"/><path class="cls-15" d="M646.73,97.42a10.22,10.22,0,0,0-1.05.65,8.78,8.78,0,0,0-1,.73,7.38,7.38,0,0,0-1.54,1.77,6.78,6.78,0,0,0-1,2.13,16.33,16.33,0,0,0-.46,2.41h-.05a9.5,9.5,0,0,1,.13-2.5,6.28,6.28,0,0,1,.94-2.32,7.34,7.34,0,0,1,4-2.93Z"/><path class="cls-14" d="M695.16,121.51s-1.34,3.9-6.2,2.77"/><path class="cls-15" d="M695.18,121.52a3.56,3.56,0,0,1-.78,1.79,4.39,4.39,0,0,1-1.61,1.21,4.79,4.79,0,0,1-2,.31c-.33,0-.65-.11-1-.16a8.88,8.88,0,0,1-.9-.36l0,0,.91.15a7.23,7.23,0,0,0,.93,0,5,5,0,0,0,1.79-.38,4.68,4.68,0,0,0,2.53-2.55Z"/><path class="cls-16" d="M711.07,131.59a7.82,7.82,0,0,1-1.12,2,25.43,25.43,0,0,1-16.51-9.39s.08.25.21.59a10,10,0,0,1-.43-1A34.57,34.57,0,0,0,707.73,131c4.4.66,3.3.53,3.3.53Z"/><path class="cls-16" d="M693.32,124.71s0,.3.16.82l-.3-.29Z"/><path class="cls-16" d="M705.15,141.11a19,19,0,0,1-4.74-3.38,24.33,24.33,0,0,1-6.93-12.2l.73.7c1.35,3.16,4.59,9.31,10.2,12.4C704.41,138.63,706.36,140,705.15,141.11Z"/><path class="cls-17" d="M736.13,113.88s-10.93,2.9-10.1,36.68l15.73-6.34s-11.59-22.88,10.44-25.91Z"/><path class="cls-18" d="M779.25,165.44c-2.16,13.21-14,24.94-32.72,25.84s-31.58-9.66-35-22.59c-1-3.57-3.08-14.59.43-19,5.85-7.4,20.83-8.52,32.53-9.08,12.56-.61,27.19.39,33.32,8C780.77,152.37,780.1,160.25,779.25,165.44Z"/><ellipse class="cls-19" cx="744.22" cy="151.44" rx="33.92" ry="11.65" transform="matrix(1, -0.05, 0.05, 1, -6.4, 35.84)"/><path class="cls-19" d="M775.81,149.48c.11,2.16-1.83,4.27-5.22,6.1-5.58,3-15.11,5.27-26,5.8-12,.57-22.47-1.09-28-4-2.6-1.37-4.11-3-4.2-4.83-.28-5.73,13.7-11.06,31.23-11.9S775.54,143.74,775.81,149.48Z"/><path class="cls-17" d="M770.59,155.58c-5.58,3-15.11,5.27-26,5.8-12,.57-22.47-1.09-28-4,5.58-3,15.11-5.27,26-5.79C754.51,151,765,152.65,770.59,155.58Z"/><path class="cls-15" d="M745.8,163.38c.2,1.15.39,2.3.56,3.45l.41,3.48c.24,2.32.37,4.65.49,7s.08,4.67,0,7c-.07,1.16-.12,2.33-.24,3.49s-.29,2.32-.45,3.48h0a108.24,108.24,0,0,0,.25-14q-.25-7-1-13.94Z"/><path class="cls-15" d="M756.19,162.13c.34,1.14.63,2.31.88,3.49s.39,2.36.55,3.55a52.57,52.57,0,0,1,.28,7.21,44.33,44.33,0,0,1-.88,7.16,34.17,34.17,0,0,1-2.22,6.84l0,0a42.31,42.31,0,0,0,1.88-6.89,48.59,48.59,0,0,0,.76-7.11,56.91,56.91,0,0,0-.17-7.15,52.48,52.48,0,0,0-1.09-7.07Z"/><path class="cls-15" d="M766.05,159.65c.23,1.1.42,2.2.58,3.31s.25,2.23.34,3.35a62.75,62.75,0,0,1,.08,6.72,47,47,0,0,1-.89,6.69,32.46,32.46,0,0,1-.93,3.24,28.31,28.31,0,0,1-1.35,3.09l0,0a31.74,31.74,0,0,0,1.94-6.38,53.16,53.16,0,0,0,.77-6.64c.12-2.23.11-4.46,0-6.69s-.27-4.45-.58-6.66Z"/><path class="cls-15" d="M773.66,156.43c.24.89.45,1.78.65,2.68s.32,1.82.45,2.73c.26,1.82.38,3.66.46,5.51a46.52,46.52,0,0,1-.25,5.53c-.15.91-.26,1.83-.49,2.73a27,27,0,0,1-.8,2.65h0a37.66,37.66,0,0,0,1.08-10.89,71.41,71.41,0,0,0-1.11-10.92Z"/><path class="cls-15" d="M735.3,163.21c.1,1.18.22,2.34.34,3.51l.34,3.5c.24,2.33.46,4.67.76,7s.57,4.65.88,7c.15,1.16.32,2.32.5,3.48s.35,2.32.52,3.48h0c-.5-2.29-1-4.59-1.35-6.91s-.72-4.64-1-7c-.53-4.67-.88-9.36-1-14.05Z"/><path class="cls-15" d="M724.58,161.94c-.07,1.15-.06,2.3,0,3.44s.07,2.29.17,3.43a57.25,57.25,0,0,0,.85,6.79c.16,1.13.43,2.24.66,3.35s.56,2.22.89,3.31.67,2.18,1,3.26.8,2.15,1.2,3.23l0,0a47.69,47.69,0,0,1-2.58-6.39,46.87,46.87,0,0,1-1.67-6.7,50.71,50.71,0,0,1-.75-6.85,44.17,44.17,0,0,1,.19-6.9Z"/><path class="cls-15" d="M715.85,159.08c.07,1,.18,2.06.31,3.09s.21,2.05.35,3.06c.27,2,.55,4.08,1,6.09s.85,4,1.39,6c.3,1,.57,2,.95,2.92s.74,1.92,1.13,2.88l0,0a35.68,35.68,0,0,1-2.41-5.7,57,57,0,0,1-1.51-6,72.82,72.82,0,0,1-1.17-12.33Z"/><path class="cls-20" d="M709.78,159.7s8.54,12.15,37.32,9.67,32.82-14.14,32.82-14.14"/><path class="cls-20" d="M712,170.15s13.57,8.56,34.69,6.9,32.73-12.64,32.73-12.64"/><path class="cls-20" d="M717.55,180.91s28.77,11.83,57.2-4.09"/><path class="cls-3" d="M684.82,177.18s14.85,4.16,29.31-10.57,29.06-35.21,29.06-35.21l-16.62-10.64s-17,17.5-29.9,29.87l-18.16.59Z"/><path class="cls-7" d="M646.77,140.62l41.76,10,2.8,31.44a204.66,204.66,0,0,1-52.43-12.26"/><path class="cls-8" d="M659.49,144.56S656,175.45,655.78,176L670.64,178a69,69,0,0,0,.19-30.19Z"/><path class="cls-3" d="M725.27,123.19l2.36-13s6.9-7.07,7.33-12.73c0,0,6.6,1.28,2.73,10.7s6.87,7.59,11.62-2.32c2.34-4.88,2.65-7.43,2.36-8.75A1.08,1.08,0,0,1,753,95.85c2.31.54,5.16,2.4,3.73,8.58,0,0,6-1.17,3,6,0,0,4.78.91.1,7.21,0,0,2.33,11.85-22.78,20.41"/><path class="cls-17" d="M739.52,114s11.85,12.78,6.57,51.58l14.46-2s.59-35.21-12.69-54.92c0,0,.12-2.38-10.23,3.38C735.21,113.39,739.52,114,739.52,114Z"/><path class="cls-3" d="M756.67,103.87a25.55,25.55,0,0,1-5.06,10.48"/><path class="cls-3" d="M760.07,109.35s-2.29,7-6,10.08"/><path class="cls-3" d="M760,117.25s-1.58,5.15-5.11,6.88"/></svg>