<svg id="Layer_1" data-name="Layer 1" xmlns="http://www.w3.org/2000/svg" viewBox="0 0 1280 720"><defs><style>.cls-1{fill:#631f16;}.cls-1,.cls-2,.cls-4,.cls-6{stroke:#453323;}.cls-1,.cls-10,.cls-11,.cls-12,.cls-2,.cls-3,.cls-4,.cls-6,.cls-7,.cls-8{stroke-miterlimit:10;}.cls-1,.cls-2,.cls-3,.cls-4,.cls-6{stroke-width:0.5px;}.cls-16,.cls-2{fill:#fbd3c7;}.cls-3{fill:#7c4b2a;stroke:#512e16;}.cls-4{fill:#a0412b;}.cls-5{fill:#453323;}.cls-6{fill:none;}.cls-11,.cls-7{fill:#87e7ff;}.cls-7{stroke:#2d7a8c;}.cls-8{fill:#066696;stroke:#06455e;}.cls-9{fill:#043c5b;}.cls-10{fill:#1181a8;stroke:#063651;}.cls-11{stroke:#295799;}.cls-12{fill:#f7edeb;stroke:#bf9b82;}.cls-13{fill:#2d2b21;}.cls-14{fill:#fff;}.cls-15{fill:#3d2e17;}.cls-17{fill:#ef8d7d;}.cls-18{fill:#ff8798;}</style></defs><path class="cls-1" d="M904.22,288.84s-26.93-6.31-44.17,22.76l16.22-3.38s18.93-16.23,39.21-7.1Z"/><path class="cls-2" d="M895.88,300.78a83.33,83.33,0,0,1,2.36-17.57"/><line class="cls-2" x1="889.46" y1="296.39" x2="891.48" y2="280.16"/><line class="cls-2" x1="883.37" y1="293.68" x2="885.85" y2="278.36"/><path class="cls-2" d="M909.06,279.83A67.93,67.93,0,0,0,904.33,295"/><path class="cls-3" d="M913.38,355.42c-8.85,10.05-25.12,13.7-41.45,4.53s-21.63-25-17.69-37.75c1.08-3.53,5.14-14,10.46-15.9,8.89-3.17,22.18,3.84,32.39,9.58,11,6.16,22.83,14.77,24,24.51C921.61,345.16,916.86,351.48,913.38,355.42Z"/><ellipse class="cls-4" cx="891.13" cy="324.96" rx="11.65" ry="33.92" transform="translate(171.31 942.68) rotate(-60.67)"/><path class="cls-4" d="M918.94,340.07c-1.06,1.9-3.82,2.65-7.67,2.41-6.32-.41-15.6-3.56-25.11-8.91-10.44-5.86-18.47-12.85-21.62-18.3-1.47-2.53-1.88-4.73-1-6.32,2.81-5,17.49-2.09,32.79,6.5S921.76,335.07,918.94,340.07Z"/><path class="cls-1" d="M911.27,342.48c-6.32-.41-15.6-3.56-25.11-8.91-10.44-5.86-18.47-12.85-21.62-18.3,6.33.42,15.6,3.56,25.11,8.91C900.09,330,908.12,337,911.27,342.48Z"/><path class="cls-5" d="M886.13,335.91c-.44,1.09-.89,2.16-1.36,3.23l-1.5,3.16c-1,2.1-2.16,4.14-3.3,6.18s-2.41,4-3.73,5.94c-.68.95-1.34,1.91-2.06,2.84s-1.48,1.81-2.23,2.7l0,0a108.67,108.67,0,0,0,7.63-11.7c2.32-4,4.52-8.14,6.54-12.34Z"/><path class="cls-5" d="M895.59,340.37c-.31,1.16-.69,2.3-1.11,3.42s-.92,2.22-1.42,3.31a51,51,0,0,1-3.59,6.25,42.9,42.9,0,0,1-4.54,5.6,33.67,33.67,0,0,1-5.51,4.62l0,0a42.19,42.19,0,0,0,5.25-4.84,46.11,46.11,0,0,0,4.42-5.62,55.91,55.91,0,0,0,3.65-6.15,52.16,52.16,0,0,0,2.84-6.56Z"/><path class="cls-5" d="M905.27,343.51c-.39,1.05-.82,2.09-1.27,3.11s-1,2-1.49,3a64.74,64.74,0,0,1-3.51,5.74,46.44,46.44,0,0,1-4.3,5.19,33.46,33.46,0,0,1-2.51,2.26,29,29,0,0,1-2.78,1.9l0,0a31.3,31.3,0,0,0,5-4.38,51.1,51.1,0,0,0,4.18-5.22c1.29-1.82,2.47-3.71,3.58-5.65s2.14-3.91,3.05-5.95Z"/><path class="cls-5" d="M913.43,344.82c-.27.88-.57,1.76-.88,2.62s-.69,1.71-1.06,2.55c-.76,1.68-1.63,3.31-2.54,4.91a43.4,43.4,0,0,1-3.16,4.55c-.61.7-1.19,1.42-1.86,2.06a27.36,27.36,0,0,1-2.08,1.82l0,0a38,38,0,0,0,6.7-8.65,72.5,72.5,0,0,0,4.86-9.84Z"/><path class="cls-5" d="M877.32,330.2c-.54,1.05-1.06,2.1-1.57,3.16l-1.58,3.14c-1,2.1-2.09,4.2-3.06,6.32s-2,4.24-3,6.37c-.49,1.07-1,2.14-1.42,3.22s-.94,2.15-1.41,3.23l-.05,0c.79-2.21,1.6-4.41,2.52-6.58s1.86-4.31,2.87-6.43c2-4.24,4.22-8.4,6.62-12.43Z"/><path class="cls-5" d="M868.91,323.43a33.75,33.75,0,0,0-1.84,2.9c-.59,1-1.16,2-1.68,3a55.27,55.27,0,0,0-2.88,6.2c-.47,1-.83,2.13-1.23,3.19s-.7,2.17-1,3.28-.59,2.2-.85,3.32-.45,2.25-.69,3.38h0A49.68,49.68,0,0,1,862,335.34a51.49,51.49,0,0,1,3-6.21,43,43,0,0,1,3.82-5.74Z"/><path class="cls-5" d="M863,316.37c-.49.91-.94,1.84-1.38,2.78s-.9,1.85-1.33,2.78c-.85,1.87-1.7,3.75-2.42,5.67s-1.41,3.84-2,5.81c-.26,1-.56,2-.74,3s-.4,2-.57,3h-.05a36.13,36.13,0,0,1,1-6.12,58,58,0,0,1,1.92-5.9A73,73,0,0,1,863,316.34Z"/><path class="cls-6" d="M857.56,313.67s.78,14.83,26.49,28,35.31,5.45,35.31,5.45"/><path class="cls-6" d="M853.91,323.72s7,14.46,25.73,24.26,34.44,6.67,34.44,6.67"/><path class="cls-6" d="M852.88,335.77s18.1,25.3,50.64,26.91"/><path class="cls-1" d="M897.23,295.71s21.29,8.79,13.86,51.72c0,0,9.12,1.69,11.15-7.44,0,0,6.76-34.81-16.22-51Z"/><path class="cls-7" d="M1031.16,337.37c4,4.57,7.26,11.55,9.7,18.39a98.62,98.62,0,0,0,9.68,19.45l4.88,3.85c7.13,6.11-9.11,11.93-15.33,11.31a6.94,6.94,0,0,1-5.56-4.31,77.14,77.14,0,0,0-7.4-12.47c-1.46-2-2.75-3.79-3.86-5.41-3.07-4.49-4.77-7.43-4.77-7.43S1020.78,325.63,1031.16,337.37Z"/><path class="cls-7" d="M1025.84,372.3l.45-.12c2-.57,11-3.3,16.71-10.71l-2.43-6.09s-7.08,10.23-17.56,12.37Z"/><path class="cls-8" d="M1100.15,365.72c-10.33,23.32-46.06,37.06-46.06,37.06-11.43,8.52-13.77,7.32-15.15,2,0-.05,0-.09,0-.13-1.37-5.49-5.33-9.08-8.54-13.53s1.71-9.37,1.71-9.37l3,5.5-2.84-.12a20.27,20.27,0,0,0,2.67.21c9.45.12,17.32-6,17.32-6l3.63-.34a11.62,11.62,0,0,1-9.91-10.16c-1.29-9.24,7.75-8.41,7.75-8.41,5.45,2.51,8.21,3.14,10.78,2.63a11.62,11.62,0,0,0,1.77-.51c.82-.31,1.68-.7,2.66-1.17l2.38-1.13,1-.45c.72-.33,1.5-.67,2.36-1,1.47-.59,3.14-1.21,5.12-1.84,8-2.55,13.2-.58,16.36,1.89A14.36,14.36,0,0,1,1100.15,365.72Z"/><path class="cls-9" d="M1066.21,364.49c-2.71,7.51.36,11.11.36,11.11l-1.81.46c-2.26-3.8-1.27-8.36-.32-11.06A11.62,11.62,0,0,0,1066.21,364.49Z"/><path class="cls-9" d="M1071.25,362.19a13.7,13.7,0,0,0-1.12,11.84l-1.83.72a14.68,14.68,0,0,1,.57-11.43Z"/><path class="cls-9" d="M1074.61,360.72a13.24,13.24,0,0,0-.39,10.84l-1.76,1.23c-1.36-5.74-1-9.1-.21-11.05C1073,361.41,1073.75,361.07,1074.61,360.72Z"/><path class="cls-10" d="M1100.15,365.72c-10.33,23.32-46.06,37.06-46.06,37.06-11.43,8.52-13.77,7.32-15.15,2,2.25-.1,6.22-1.24,12.81-5.66a128.8,128.8,0,0,0,36.18-23.68c7.86-7.37,9.12-11.89,8.16-14.62A14.36,14.36,0,0,1,1100.15,365.72Z"/><path class="cls-2" d="M1023.27,302.84l7.68,22.25a178.7,178.7,0,0,0,9.91,30.67s-3.26,3.08-7.84,6.83c-2.87,2.36-8.72,6.43-10,5.16-2.48-2.44-11.16-18.64-11.16-18.64l-22-29.52Z"/><path class="cls-7" d="M1031,352.94c4.18,4.42,7.66,11.29,10.33,18a98.87,98.87,0,0,0,10.36,19.1l5,3.68c7.33,5.85-8.69,12.24-14.93,11.84a7,7,0,0,1-5.71-4.11,76.62,76.62,0,0,0-7.84-12.21c-1.52-1.91-2.87-3.69-4-5.27-3.23-4.38-5-7.26-5-7.26S1020.25,341.56,1031,352.94Z"/><path class="cls-7" d="M1027,388l.43-.14c2-.64,10.85-3.68,16.34-11.28l-2.65-6s-6.71,10.48-17.11,13Z"/><path class="cls-8" d="M1101,378.86c-9.51,23.66-44.74,38.64-44.74,38.64-11.12,8.92-13.51,7.8-15.07,2.48a.93.93,0,0,1,0-.13c-1.56-5.44-5.65-8.88-9-13.22s1.38-9.43,1.38-9.43l3.15,5.4-2.83,0a20,20,0,0,0,2.67.11c9.45-.21,17.1-6.61,17.1-6.61l3.62-.46a11.63,11.63,0,0,1-10.26-9.81c-1.62-9.19,7.45-8.68,7.45-8.68,5.54,2.32,8.31,2.85,10.86,2.25a10.19,10.19,0,0,0,1.75-.57c.81-.34,1.66-.76,2.62-1.26.71-.37,1.48-.78,2.34-1.21.32-.17.65-.33,1-.49.7-.35,1.47-.72,2.32-1.1,1.45-.64,3.1-1.32,5-2,7.9-2.83,13.18-1,16.41,1.32A14.3,14.3,0,0,1,1101,378.86Z"/><path class="cls-9" d="M1067,378.81c-2.44,7.6.76,11.09.76,11.09l-1.8.53c-2.39-3.72-1.56-8.32-.71-11.05A10.19,10.19,0,0,0,1067,378.81Z"/><path class="cls-9" d="M1072,376.34a13.71,13.71,0,0,0-.7,11.87l-1.81.78a14.7,14.7,0,0,1,.17-11.44C1070.34,377.18,1071.11,376.77,1072,376.34Z"/><path class="cls-9" d="M1075.28,374.75a13.27,13.27,0,0,0,0,10.85l-1.71,1.29c-1.55-5.69-1.32-9.06-.59-11C1073.66,375.5,1074.43,375.13,1075.28,374.75Z"/><path class="cls-10" d="M1101,378.86c-9.51,23.66-44.74,38.64-44.74,38.64-11.12,8.92-13.51,7.8-15.07,2.48,2.25-.18,6.18-1.45,12.6-6.1A128.81,128.81,0,0,0,1089.1,389c7.61-7.65,8.7-12.21,7.64-14.9A14.3,14.3,0,0,1,1101,378.86Z"/><path class="cls-2" d="M1022,318.7l8.45,22a178.91,178.91,0,0,0,11,30.3s-3.15,3.19-7.59,7.1c-2.79,2.46-8.49,6.74-9.82,5.51-2.57-2.35-11.81-18.24-11.81-18.24l-23-28.73Z"/><path class="cls-8" d="M948.27,281.69s8.11,27.37,24.84,42.58,14.7,15.21,14.7,15.21,25.69,1.69,35.83-18.08l-1.86-6.25s8.11-.51,10.14-9.64l-29.4-33.46-52.22,8.11"/><path class="cls-2" d="M910.19,263.94s-.45,21.18,12,29.52l10.7-11L925.62,262s-8.45-11.61-10.93-25.92-3.15-14.64-3.15-14.64l20.73-16.12L914.69,189l-22.3,25.46S894.86,247.72,910.19,263.94Z"/><path class="cls-2" d="M918.27,284.39s2.7,10.82,5.18,11.27,4.28-2.71,4.28-2.71,3.16,4.28,6.31-.45c0,0,4.28.23,5-3.6,0,0,4.51,1.35.45-6.31s-8.79-7.66-8.56-3.83c0,0-4.06-3.16-5.18,1.8,0,0-4.74-3.61-4.29.9C921.42,281.46,917.37,280.11,918.27,284.39Z"/><path class="cls-2" d="M930.89,278.76s3.72,2.31,8.11,10.14"/><path class="cls-2" d="M926,280.33a34.62,34.62,0,0,1,8,12.17"/><path class="cls-2" d="M921.42,281.46s3.22,3.94,5.75,11.72"/><path class="cls-2" d="M921.76,270.19s.17,6.93,9.47,8.62l1,2.2s-5.75.84-7.6,6.08c0,0-.51,3.89,5.91,1.36a22.56,22.56,0,0,1,7.61-4.57l.61-9.41a9.37,9.37,0,0,0-4.93-8.87c-2.83-1.52-6.51-3.6-10.39-6.05"/><path class="cls-2" d="M975.65,170.31a16.69,16.69,0,0,0-8.79,15.21L938.8,173s14.2-21.3,12.85-42.59S975.65,170.31,975.65,170.31Z"/><path class="cls-11" d="M920.89,203.1s20.62,20.28,24.34,40.22-4.74,29.75,2,45c0,0,49.69,6.76,57.13-12.85,0,0,0-6.08-4.74-22,0,0-6.08-58.81-33.8-76.05s-27-12.5-39.2,0S920.89,203.1,920.89,203.1Z"/><path class="cls-2" d="M900.61,192s-13.86,6.76-14.87,27.37S887.43,265,887.43,265l21.63,2s2-29.4.34-47.32l13.18-12.5Z"/><path class="cls-11" d="M953.34,194l-37.86,20.28-23-21.63a204.79,204.79,0,0,1,47.32-25.69"/><path class="cls-2" d="M907.6,259.66a33.47,33.47,0,0,1,10.59,20.84c1.35,13.18-3.72,16.23-3.72,16.23l-4.73-7.1s-3.72-5.75-4.74,1.69a34.88,34.88,0,0,0,.34,12.5s-6.08,4.4-9.12-4.05c0,0-4.4,4.73-6.76-3.38,0,0-3.38,4.39-6.09-2.71,0,0-4.73,2.37-1.35-14.53s6.42-17.91,6.42-17.91"/><path class="cls-12" d="M1000,154.65s2,8,8.88,12.48c0,0,1.1,1,3.08-2.52S1001,149.08,1000,154.65Z"/><path class="cls-2" d="M1026.07,159.61c-3.37-.23-4.47-3-7.9,1.91-1.22,1.74-2.13,2.92-2.78,3.73a7.7,7.7,0,0,1-1.59,1.66,25,25,0,0,1-13.31-13.13s0,.26,0,.61.08.86.18,1.47c.48,3.35,2,10,6.54,14.39,0,0,1.51,1.77.07,2.54a5.28,5.28,0,0,1-2.68.33c-5.32-.32-6.52,5.69-12.82,8s-16.77-3.73-23.33-12.25S954.47,146,957,129.56,985.63,85,985.63,85l16.18-4.44,13.59,3.12,27.73,19.43s4.08,18.76-4,27.56-13,11.57-11.18,19.93S1029.45,159.83,1026.07,159.61Z"/><path class="cls-13" d="M983.66,46.9s11.21-13.74,34.05-3.6,30.58,24.32,30.58,24.32L1035,63s18.79,15.87,24.06,38-19.57,29.1-19.57,29.1a29.21,29.21,0,0,0,4-12.64,31.09,31.09,0,0,0-3-14s2.28,18-8.53,9.56a57.25,57.25,0,0,1-15.61-18.59s-3.55,20-24.6,21.57l3.92-14.14a54.19,54.19,0,0,1-30.55,16.4l-5.87,12.56L955.71,134a31.74,31.74,0,0,1-20.92,7.86h0s4.28-.43,3.2-10.48c-.87-8.15-2.11-10.26-2.4-20.08-1-33.93,15.66-61,39-56.78,0,0-2.25-8.77-17-7.51C957.6,47,967.11,36,983.66,46.9Z"/><ellipse class="cls-14" cx="1017.85" cy="140.06" rx="9.25" ry="5.42" transform="translate(201.3 763.67) rotate(-45.2)"/><path class="cls-15" d="M1021.73,143.91a14.22,14.22,0,0,1-4.81,3.36,8.5,8.5,0,0,1-2.93.7,4.36,4.36,0,0,1-3-1,4.56,4.56,0,0,1-1.34-3,8.1,8.1,0,0,1,.43-3.15,14.11,14.11,0,0,1,8.49-8.55,8.28,8.28,0,0,1,3.14-.45,4.56,4.56,0,0,1,3,1.32,4.34,4.34,0,0,1,1,3,8.47,8.47,0,0,1-.67,2.93A14,14,0,0,1,1021.73,143.91Zm-.07-.07a14.07,14.07,0,0,0,3.17-4.84,7.67,7.67,0,0,0,.51-2.84,3.86,3.86,0,0,0-1-2.61,3.91,3.91,0,0,0-2.62-1,7.82,7.82,0,0,0-2.82.55,14.77,14.77,0,0,0-8,8,7.88,7.88,0,0,0-.52,2.83,3.89,3.89,0,0,0,1,2.61,3.82,3.82,0,0,0,2.62,1,7.9,7.9,0,0,0,2.84-.53A14,14,0,0,0,1021.66,143.84Z"/><ellipse class="cls-13" cx="1019.33" cy="142.2" rx="6.06" ry="2.91" transform="translate(200.22 765.35) rotate(-45.2)"/><ellipse class="cls-14" cx="1022.53" cy="139.25" rx="1.55" ry="0.98" transform="translate(203.27 766.76) rotate(-45.2)"/><path class="cls-13" d="M1033.41,128.68s-.28-12-17.82-4.82c0,0,8.52-6.56,18.72-1.85C1034.31,122,1039.79,125.92,1033.41,128.68Z"/><path class="cls-2" d="M968,119.2s1.47-8.86-2.81-13.43-14.5,2-15,14,3.56,18.35,14.68,10.73"/><path class="cls-2" d="M963.51,121.52s1.33-14.27-7.13-10.5"/><path class="cls-16" d="M962.91,116.35a7,7,0,0,0-6.74,6.06"/><path class="cls-5" d="M962.91,116.37a10.62,10.62,0,0,0-1.17.36,9.9,9.9,0,0,0-1.11.45,7.21,7.21,0,0,0-1.91,1.29,6.46,6.46,0,0,0-1.47,1.77,16.33,16.33,0,0,0-1.06,2.18h0a8.76,8.76,0,0,1,.75-2.34,6.38,6.38,0,0,1,1.48-2,7.35,7.35,0,0,1,4.53-1.78Z"/><path class="cls-16" d="M1002.82,151.62s-2.26,3.36-6.6,1"/><path class="cls-5" d="M1002.84,151.63a3.48,3.48,0,0,1-1.19,1.5,4.25,4.25,0,0,1-1.84.75,4.76,4.76,0,0,1-2-.21,8.76,8.76,0,0,1-.88-.4,7.25,7.25,0,0,1-.76-.58l0,0,.84.38a8.7,8.7,0,0,0,.87.26,5.19,5.19,0,0,0,1.8.1,4.63,4.63,0,0,0,3.06-1.79Z"/><path class="cls-17" d="M1015.39,165.25a7.7,7.7,0,0,1-1.59,1.66,25,25,0,0,1-13.31-13.13s0,.26,0,.61a7,7,0,0,1-.16-1,34,34,0,0,0,12,10.46c4,1.76,3,1.35,3,1.35Z"/><path class="cls-17" d="M1000.26,154.18s0,.3-.06.83c-.13-.23-.21-.35-.21-.35Z"/><path class="cls-17" d="M1007.33,172.79a18.17,18.17,0,0,1-3.64-4.42A23.93,23.93,0,0,1,1000.2,155c.13.2.3.49.52.85.48,3.35,2,10,6.54,14.39C1007.26,170.25,1008.77,172,1007.33,172.79Z"/><line class="cls-8" x1="1004.38" y1="284.22" x2="1021.78" y2="315.15"/><path class="cls-18" d="M914.3,179.27s17.78,25.49,18,26.08L944.72,197A69.1,69.1,0,0,0,925,174.2Z"/><path class="cls-18" d="M935.42,220.68s9.47,7.43,29.41.33,23.32-14.19,23.32-14.19l2.37,9.12s-5.41,10.48-29.75,14.54-20.61-.68-20.61-.68Z"/><path class="cls-18" d="M995.93,233.52s-1.36,23.66-50,22.65l-.34,9.8s47.66-.34,52.06-21Z"/></svg>