<svg id="Layer_1" data-name="Layer 1" xmlns="http://www.w3.org/2000/svg" viewBox="0 0 1280 720"><defs><style>.cls-1,.cls-11{fill:#87e7ff;}.cls-1{stroke:#2d7a8c;}.cls-1,.cls-10,.cls-11,.cls-12,.cls-2,.cls-3,.cls-4,.cls-6,.cls-7,.cls-8{stroke-miterlimit:10;}.cls-16,.cls-2{fill:#fbd3c7;}.cls-10,.cls-2,.cls-6,.cls-8{stroke:#453323;}.cls-10,.cls-2,.cls-6,.cls-7,.cls-8{stroke-width:0.5px;}.cls-3{fill:#1181a8;stroke:#063651;}.cls-4{fill:#066696;stroke:#06455e;}.cls-5{fill:#043c5b;}.cls-6{fill:#631f16;}.cls-7{fill:#7c4b2a;stroke:#512e16;}.cls-8{fill:#a0412b;}.cls-9{fill:#453323;}.cls-10{fill:none;}.cls-11{stroke:#295799;}.cls-12{fill:#f7edeb;stroke:#bf9b82;}.cls-13{fill:#2d2b21;}.cls-14{fill:#fff;}.cls-15{fill:#3d2e17;}.cls-17{fill:#ef8d7d;}.cls-18{fill:#ff8798;}</style></defs><path class="cls-1" d="M312.66,411c-4.43,4.18-11.31,7.65-18.06,10.31a99,99,0,0,0-19.11,10.32l-3.69,5C265.93,444,259.57,428,260,421.72a7,7,0,0,1,4.12-5.7,76.18,76.18,0,0,0,12.23-7.81c1.91-1.52,3.69-2.87,5.28-4,4.38-3.22,7.26-5,7.26-5S324.05,400.27,312.66,411Z"/><path class="cls-1" d="M277.57,406.88s0,.16.13.44c.64,2,3.67,10.86,11.26,16.35l6-2.64s-10.46-6.73-13-17.13Z"/><path class="cls-2" d="M346.91,402l-22,8.41a178.68,178.68,0,0,0-30.33,10.92s-3.18-3.16-7.08-7.61c-2.46-2.79-6.72-8.5-5.5-9.83,2.36-2.56,18.26-11.78,18.26-11.78l28.77-22.93Z"/><path class="cls-3" d="M265.85,411.67s-12.44,1.4-7.74,23c0,0,.16,14.38,8.73,2,0,0-8.3,23.15-12.09,42.46-.72,3.68-7.6,2.26-11.38.73-3.46-1.4-7.15-5-9-13.68a40.74,40.74,0,0,1,.81-20.29,176.65,176.65,0,0,0,5.1-24.52C243.57,399,260.76,407.52,265.85,411.67Z"/><path class="cls-4" d="M270.65,412.17s-12.45,1.39-7.74,23c0,0,.16,14.38,8.73,2,0,0-11,19.62-14.81,38.92a6.28,6.28,0,0,1-8.66,4.27c-3.46-1.4-7.16-5-9-13.68a40.74,40.74,0,0,1,.81-20.29,176.65,176.65,0,0,0,5.1-24.52C248.37,399.5,265.56,408,270.65,412.17Z"/><path class="cls-4" d="M261.08,438.83s5.76-11.9,14.35-9.92-3,8.52-8.1,16"/><polygon class="cls-5" points="266.2 445.19 262.4 442.61 260.86 445.33 265.83 447.55 266.2 445.19"/><polygon class="cls-5" points="265.33 449.79 261.52 447.21 259.99 449.92 264.96 452.15 265.33 449.79"/><polygon class="cls-5" points="263.49 454.35 259.69 451.77 258.15 454.48 263.12 456.71 263.49 454.35"/><path class="cls-1" d="M298.94,413.89c-4,4.57-10.56,8.65-17,11.91a99.11,99.11,0,0,0-18.1,12l-3.22,5.33c-5.17,7.83-13-7.56-13.12-13.81a6.94,6.94,0,0,1,3.58-6,76.6,76.6,0,0,0,11.46-8.9c1.77-1.69,3.42-3.2,4.89-4.5,4.07-3.6,6.78-5.65,6.78-5.65S309.3,402.14,298.94,413.89Z"/><path class="cls-1" d="M263.62,413s.05.15.17.42c.82,1.95,4.64,10.48,12.7,15.26l5.74-3.17s-11-5.75-14.45-15.89Z"/><path class="cls-2" d="M332.23,401.78,311.1,412.16a178.86,178.86,0,0,0-29.2,13.64s-3.46-2.85-7.75-6.92c-2.7-2.57-7.47-7.86-6.37-9.3,2.12-2.77,17.11-13.39,17.11-13.39l26.56-25.46Z"/><path class="cls-3" d="M252.38,418.8s-12.26,2.52-5.61,23.6c0,0,1.47,14.31,8.88,1.23,0,0-6.15,23.81-8.17,43.38-.38,3.73-7.36,2.95-11.26,1.77-3.58-1.08-7.59-4.37-10.24-12.8a40.62,40.62,0,0,1-1-20.28,177.6,177.6,0,0,0,2.84-24.88C229,408.22,246.94,415.12,252.38,418.8Z"/><path class="cls-4" d="M257.21,418.85s-12.27,2.53-5.61,23.6c0,0,1.46,14.32,8.87,1.23,0,0-9.18,20.54-11.19,40.11a6.29,6.29,0,0,1-8.24,5c-3.58-1.08-7.59-4.36-10.24-12.8a40.62,40.62,0,0,1-1-20.28,177.6,177.6,0,0,0,2.84-24.88C233.86,408.27,251.76,415.18,257.21,418.85Z"/><path class="cls-4" d="M250.11,446.27s4.65-12.37,13.38-11.18-2.17,8.76-6.6,16.73"/><polygon class="cls-5" points="255.79 452.14 251.76 449.93 250.48 452.76 255.64 454.53 255.79 452.14"/><polygon class="cls-5" points="255.34 456.8 251.31 454.58 250.03 457.42 255.19 459.18 255.34 456.8"/><polygon class="cls-5" points="253.92 461.51 249.9 459.29 248.62 462.13 253.77 463.89 253.92 461.51"/><path class="cls-2" d="M466.2,286.54s21.18.56,29.59-11.9l-11-10.76-20.44,7.21s-11.65,8.39-26,10.79S423.73,285,423.73,285l-16-20.82-16.43,17.48,25.33,22.45S449.89,301.77,466.2,286.54Z"/><path class="cls-2" d="M486.7,278.57s10.83-2.65,11.29-5.12-2.68-4.3-2.68-4.3,4.3-3.13-.42-6.31c0,0,.25-4.28-3.57-5,0,0,1.37-4.5-6.31-.49s-7.71,8.75-3.88,8.55c0,0-3.17,4,1.78,5.19,0,0-3.64,4.71.87,4.28C483.78,275.39,482.41,279.44,486.7,278.57Z"/><path class="cls-2" d="M481.13,265.92s2.33-3.71,10.19-8.06"/><path class="cls-2" d="M482.68,270.83a34.54,34.54,0,0,1,12.21-8"/><path class="cls-2" d="M483.78,275.39s4-3.18,11.75-5.68"/><path class="cls-2" d="M472.52,275s6.93-.13,8.67-9.41l2.2-1s.82,5.75,6,7.63c0,0,3.89.53,1.39-5.9a22.71,22.71,0,0,1-4.52-7.63l-9.41-.67a9.38,9.38,0,0,0-8.9,4.88c-1.54,2.82-3.64,6.5-6.11,10.36"/><path class="cls-6" d="M483.94,227.67s-10.92,2.9-10.09,36.68L489.58,258S478,235.13,500,232.1Z"/><path class="cls-7" d="M527.07,279.23c-2.17,13.21-14,24.94-32.72,25.84s-31.58-9.66-35-22.59c-.95-3.57-3.08-14.59.42-19,5.85-7.4,20.84-8.52,32.54-9.08,12.56-.61,27.19.4,33.32,8C528.59,266.16,527.92,274,527.07,279.23Z"/><ellipse class="cls-8" cx="492.04" cy="265.23" rx="33.92" ry="11.65" transform="translate(-12.14 23.88) rotate(-2.75)"/><path class="cls-8" d="M523.63,263.27c.1,2.16-1.83,4.27-5.22,6.1-5.58,3-15.11,5.27-26,5.8-12,.57-22.47-1.09-28-4-2.59-1.37-4.1-3-4.2-4.83-.27-5.73,13.71-11.06,31.24-11.9S523.36,257.53,523.63,263.27Z"/><path class="cls-6" d="M518.41,269.37c-5.58,3-15.11,5.27-26,5.8-12,.57-22.47-1.09-28-4,5.58-3,15.11-5.27,26-5.79C502.33,264.78,512.84,266.44,518.41,269.37Z"/><path class="cls-9" d="M493.62,277.17c.2,1.15.39,2.3.56,3.45l.41,3.48c.24,2.32.36,4.66.49,7s.08,4.67,0,7c-.08,1.16-.12,2.33-.24,3.49s-.29,2.33-.45,3.48h-.05a110.23,110.23,0,0,0,.25-14c-.18-4.66-.5-9.31-1-13.94Z"/><path class="cls-9" d="M504,275.92c.35,1.15.63,2.31.88,3.49s.4,2.36.55,3.55a51,51,0,0,1,.28,7.21,42.2,42.2,0,0,1-.88,7.16,34.14,34.14,0,0,1-2.21,6.84l-.05,0a41.32,41.32,0,0,0,1.88-6.89,46,46,0,0,0,.76-7.11A56.91,56.91,0,0,0,505,283a52.46,52.46,0,0,0-1.08-7.07Z"/><path class="cls-9" d="M513.87,273.44c.23,1.1.41,2.2.58,3.31s.25,2.23.33,3.35a60.39,60.39,0,0,1,.08,6.73,47,47,0,0,1-.89,6.68,30.84,30.84,0,0,1-.93,3.25,29,29,0,0,1-1.34,3.08l-.05,0a31.74,31.74,0,0,0,1.94-6.38,53.16,53.16,0,0,0,.77-6.64c.12-2.23.12-4.46,0-6.69s-.26-4.45-.57-6.66Z"/><path class="cls-9" d="M521.48,270.22c.24.89.45,1.78.65,2.68s.32,1.82.45,2.73c.25,1.82.38,3.66.46,5.51a44.51,44.51,0,0,1-.26,5.53c-.15.91-.26,1.83-.48,2.73s-.52,1.78-.8,2.65h0a38,38,0,0,0,1.09-10.89,72.69,72.69,0,0,0-1.11-10.92Z"/><path class="cls-9" d="M483.12,277c.09,1.17.21,2.34.34,3.5l.34,3.5c.24,2.34.46,4.67.76,7s.56,4.65.87,7q.22,1.74.51,3.48c.14,1.16.35,2.32.52,3.48h0c-.51-2.29-1-4.59-1.36-6.91s-.72-4.64-1-7c-.53-4.67-.88-9.36-1-14.05Z"/><path class="cls-9" d="M472.39,275.73c-.06,1.15-.05,2.3,0,3.44s.07,2.29.16,3.43a57.27,57.27,0,0,0,.86,6.79c.16,1.13.43,2.24.66,3.35s.55,2.22.88,3.31.67,2.18,1.05,3.26.81,2.15,1.21,3.23l-.05,0a50.5,50.5,0,0,1-2.58-6.39,48.21,48.21,0,0,1-1.66-6.7,50.72,50.72,0,0,1-.76-6.85,44.17,44.17,0,0,1,.19-6.9Z"/><path class="cls-9" d="M463.67,272.87q.1,1.54.3,3.09c.1,1,.22,2.05.36,3.07.26,2,.55,4.07.95,6.08s.85,4,1.38,6c.31,1,.58,2,1,2.92a30.68,30.68,0,0,0,1.13,2.88l-.05,0a37.14,37.14,0,0,1-2.41-5.71,56.92,56.92,0,0,1-1.5-6,71.71,71.71,0,0,1-1.17-12.33Z"/><path class="cls-10" d="M457.6,273.49s8.54,12.15,37.32,9.67S527.74,269,527.74,269"/><path class="cls-10" d="M459.84,283.94s13.57,8.57,34.69,6.9,32.73-12.64,32.73-12.64"/><path class="cls-10" d="M465.36,294.7s28.78,11.83,57.21-4.09"/><path class="cls-4" d="M339.79,329.29s-24.33,14.94-34.68,35-10.87,18.15-10.87,18.15,5,25.24,26.76,29.9l5.56-3.42s2.59,7.71,11.93,7.3l24.69-37.08-21.39-48.33"/><path class="cls-2" d="M421.24,256.69a16.7,16.7,0,0,0-3.78,17.16l-30.52-3.44s7.09-24.59-.63-44.48S421.24,256.69,421.24,256.69Z"/><path class="cls-11" d="M371.1,265.28s-3,28.77-16.19,44.14-26.17,14.9-33.82,29.68c0,0,25.78,43,45.73,36.56,0,0,4.75-3.8,14.19-17.43,0,0,42.11-41.51,38.24-73.92s-7.14-28.92-24.51-30.6S371.1,265.28,371.1,265.28Z"/><path class="cls-12" d="M433.77,238.22s4.38,7,12.24,9.21c0,0,1.35.62,2.17-3.34S433.05,232.61,433.77,238.22Z"/><path class="cls-2" d="M460.15,235.05c-3.29.81-5.18-1.52-7,4.21-.63,2-1.14,3.44-1.52,4.4a7.48,7.48,0,0,1-1,2.06A25,25,0,0,1,434,237.23s.09.24.23.58.34.79.61,1.34c1.48,3,4.94,8.95,10.59,11.73,0,0,2,1.24.84,2.41a5.19,5.19,0,0,1-2.46,1.12c-5.17,1.31-4.49,7.39-9.8,11.5s-17.1,1.52-25.94-4.62-20.29-17.57-22.84-34,13.82-51.08,13.82-51.08l14.08-9.13,13.9-1.14,32.31,10.14s9.56,16.65,4.5,27.49-8.89,15-4.63,22.37S463.44,234.24,460.15,235.05Z"/><path class="cls-13" d="M385.64,140.45S392.17,124,417,126.72s36.5,13.94,36.5,13.94l-14-.38s22.71,9.45,34.43,29-9.85,33.67-9.85,33.67a29.21,29.21,0,0,0,0-13.27A31.16,31.16,0,0,0,457,177.18s7.6,16.43-5.24,11.7a57.25,57.25,0,0,1-20.5-13s2.67,20.17-16.93,28l-.54-14.68a54.23,54.23,0,0,1-24.16,24.88l-1.8,13.74-2.46,4.07a31.82,31.82,0,0,1-17.57,13.81h0s3.95-1.71-.11-11c-3.3-7.5-5.12-9.14-8.37-18.41-11.21-32-3.52-62.89,20-65.91,0,0-4.8-7.68-18.45-2C360.82,148.39,366.56,135,385.64,140.45Z"/><ellipse class="cls-14" cx="446.4" cy="218.91" rx="9.25" ry="5.42" transform="translate(47.68 515.92) rotate(-62.81)"/><path class="cls-15" d="M451.26,221.41a14.06,14.06,0,0,1-3.57,4.65,8.41,8.41,0,0,1-2.58,1.55,4.27,4.27,0,0,1-3.16-.05,4.54,4.54,0,0,1-2.18-2.43,8.26,8.26,0,0,1-.54-3.13,14.11,14.11,0,0,1,5.5-10.71,8,8,0,0,1,2.87-1.38,4.51,4.51,0,0,1,3.24.35,4.28,4.28,0,0,1,1.88,2.54,8.49,8.49,0,0,1,.25,3A14.1,14.1,0,0,1,451.26,221.41Zm-.09,0a13.8,13.8,0,0,0,1.56-5.57,7.67,7.67,0,0,0-.37-2.86,3.47,3.47,0,0,0-4.56-2.34,7.71,7.71,0,0,0-2.53,1.38A14.66,14.66,0,0,0,440.09,222a7.87,7.87,0,0,0,.36,2.86,3.47,3.47,0,0,0,4.56,2.35,7.91,7.91,0,0,0,2.54-1.36A14,14,0,0,0,451.17,221.36Z"/><ellipse class="cls-13" cx="448.46" cy="220.5" rx="6.06" ry="2.91" transform="translate(47.38 518.61) rotate(-62.81)"/><ellipse class="cls-14" cx="450.62" cy="216.72" rx="1.55" ry="0.98" transform="translate(51.92 518.48) rotate(-62.81)"/><path class="cls-13" d="M457.79,203.36s-3.9-11.36-18.44.79c0,0,6.13-8.83,17.28-7.42C456.63,196.73,463,198.8,457.79,203.36Z"/><path class="cls-2" d="M392.56,214.1s-1.28-8.89-6.74-11.95-13.2,6.34-10.08,17.83,8.94,16.41,17.23,5.79"/><path class="cls-2" d="M389,217.67s-3.05-14-10-7.85"/><path class="cls-16" d="M386.86,212.92a7,7,0,0,0-4.59,7.82"/><path class="cls-9" d="M386.87,212.94a10.62,10.62,0,0,0-1,.7,7.48,7.48,0,0,0-.91.76,6.92,6.92,0,0,0-1.44,1.81,6.65,6.65,0,0,0-.87,2.13,15.08,15.08,0,0,0-.34,2.4h-.05a8.45,8.45,0,0,1,0-2.46,6.31,6.31,0,0,1,.82-2.33,7.23,7.23,0,0,1,3.77-3Z"/><path class="cls-16" d="M435.57,234.47s-1.14,3.89-6,3"/><path class="cls-9" d="M435.59,234.47a3.44,3.44,0,0,1-.68,1.8,4.4,4.4,0,0,1-1.53,1.27,4.65,4.65,0,0,1-1.93.38,7.62,7.62,0,0,1-1-.11,8.7,8.7,0,0,1-.9-.32v-.05l.91.11c.3,0,.61,0,.91,0a5.26,5.26,0,0,0,1.75-.45,4.61,4.61,0,0,0,2.37-2.63Z"/><path class="cls-17" d="M451.67,243.66a7.48,7.48,0,0,1-1,2.06A25,25,0,0,1,434,237.23s.09.24.23.58a9.33,9.33,0,0,1-.46-.93,34,34,0,0,0,14.58,6.36c4.37.46,3.27.38,3.27.38Z"/><path class="cls-17" d="M433.9,237.69s.06.29.2.8l-.31-.27Z"/><path class="cls-17" d="M446.27,253.29a18.82,18.82,0,0,1-4.81-3.11,24,24,0,0,1-7.36-11.69l.74.66c1.48,3,4.94,8.95,10.59,11.73C445.43,250.88,447.41,252.12,446.27,253.29Z"/><line class="cls-4" x1="351.91" y1="384.14" x2="326.56" y2="408.97"/><path class="cls-18" d="M366.46,287.61s.11,12,18.12,23.17,25.66,9.33,25.66,9.33l-5.65,7.55S393,330,374.66,313.53,362.3,297,362.3,297Z"/><path class="cls-18" d="M394.25,342.87S374.94,356.6,345.31,318l-7.86,5.87s30.05,37,48.89,27.53Z"/><path class="cls-2" d="M432.63,291s14.85,4.16,29.31-10.57S491,245.19,491,245.19l-16.62-10.64s-17,17.5-29.9,29.87l-18.16.59Z"/><path class="cls-11" d="M394.59,254.41l41.76,10,2.79,31.44a204.63,204.63,0,0,1-52.42-12.26"/><path class="cls-18" d="M408.15,258.18s-4.47,30.55-4.72,31.11l15.21,3.38s4.61-15.45,1-32.11Z"/><path class="cls-2" d="M473.08,237l2.36-13s6.91-7.07,7.33-12.73c0,0,6.6,1.29,2.73,10.7s6.88,7.59,11.63-2.32c2.34-4.88,2.65-7.42,2.36-8.75a1.07,1.07,0,0,1,1.28-1.28c2.31.54,5.17,2.4,3.74,8.58,0,0,6-1.17,3,6,0,0,4.78.91.09,7.21,0,0,2.33,11.85-22.78,20.41"/><path class="cls-6" d="M487.34,227.78s11.84,12.78,6.57,51.58l14.46-2s.58-35.21-12.7-54.92c0,0,.12-2.38-10.22,3.38C483,227.18,487.34,227.78,487.34,227.78Z"/><path class="cls-2" d="M504.48,217.66a25.4,25.4,0,0,1-5.06,10.48"/><path class="cls-2" d="M507.88,223.15s-2.28,7-6,10.07"/><path class="cls-2" d="M507.78,231s-1.57,5.15-5.11,6.88"/></svg>