<svg id="Layer_1" data-name="Layer 1" xmlns="http://www.w3.org/2000/svg" viewBox="0 0 1280 720"><defs><style>.cls-1,.cls-6{fill:#87e7ff;}.cls-1{stroke:#2d7a8c;}.cls-1,.cls-15,.cls-16,.cls-17,.cls-18,.cls-2,.cls-4,.cls-5,.cls-6,.cls-7{stroke-miterlimit:10;}.cls-2{fill:#066696;stroke:#06455e;}.cls-3{fill:#043c5b;}.cls-4{fill:#1181a8;stroke:#063651;}.cls-11,.cls-5{fill:#fbd3c7;}.cls-15,.cls-17,.cls-18,.cls-5{stroke:#453323;}.cls-15,.cls-16,.cls-17,.cls-18,.cls-5{stroke-width:0.5px;}.cls-6{stroke:#295799;}.cls-7{fill:#f7edeb;stroke:#bf9b82;}.cls-8{fill:#2d2b21;}.cls-9{fill:#fff;}.cls-10{fill:#3d2e17;}.cls-12{fill:#453323;}.cls-13{fill:#ef8d7d;}.cls-14{fill:#ff8798;}.cls-15{fill:#631f16;}.cls-16{fill:#7c4b2a;stroke:#512e16;}.cls-17{fill:#a0412b;}.cls-18{fill:none;}</style></defs><path class="cls-1" d="M1168.16,452.2a99.7,99.7,0,0,0-3.64,21.42l1.68,6c2.17,9.14-14.39,4.27-19,.11a6.93,6.93,0,0,1-2-6.76,76.93,76.93,0,0,0,1.36-14.44c0-2.44,0-4.68.07-6.65.16-5.43.53-8.8.53-8.8"/><path class="cls-1" d="M1146.28,456.72l.43.17c2,.73,10.81,3.79,19.82,1.19l1.62-6.35s-11.74,4.1-21.48-.35Z"/><path class="cls-2" d="M1210.2,500.19c-22.09,12.75-59,2.8-59,2.8-14.26.16-15.44-2.2-13.39-7.35,0,0,0-.09,0-.13,2.13-5.24,1-10.47,1.07-16s6.9-6.57,6.9-6.57l-.85,6.2-2.22-1.77a21.87,21.87,0,0,0,2,1.74c7.56,5.66,17.53,5.35,17.53,5.35l3.13,1.87a11.64,11.64,0,0,1-2-14.05c4.39-8.23,11.21-2.23,11.21-2.23,2.93,5.24,4.79,7.37,7.16,8.47a11,11,0,0,0,1.73.63c.85.23,1.77.43,2.84.62l2.59.5c.35.06.71.14,1.07.22.78.16,1.61.35,2.51.57,1.54.39,3.26.87,5.22,1.53,8,2.64,11,7.31,12.1,11.16A14.24,14.24,0,0,1,1210.2,500.19Z"/><path class="cls-3" d="M1183.5,479.19c-6.61,4.47-6.25,9.19-6.25,9.19l-1.74-.69c.42-4.4,3.91-7.51,6.26-9.13A11,11,0,0,0,1183.5,479.19Z"/><path class="cls-3" d="M1188.93,480.31a13.67,13.67,0,0,0-7.88,8.9l-1.9-.5a14.7,14.7,0,0,1,7.19-8.9Z"/><path class="cls-3" d="M1192.51,481.1a13.25,13.25,0,0,0-6.7,8.53l-2.15-.05c2.29-5.43,4.55-7.94,6.34-9.05C1190.78,480.69,1191.61,480.88,1192.51,481.1Z"/><path class="cls-4" d="M1210.2,500.19c-22.09,12.75-59,2.8-59,2.8-14.26.16-15.44-2.2-13.39-7.35,1.88,1.24,5.76,2.67,13.68,3a128.93,128.93,0,0,0,43.19,2.18c10.7-1.33,14.37-4.24,15.2-7A14.24,14.24,0,0,1,1210.2,500.19Z"/><path class="cls-5" d="M1178.41,398.55l-4.58,23.09a178.57,178.57,0,0,0-6.9,31.48s-4.37,1-10.21,2c-3.67.58-10.78,1.15-11.25-.59-.92-3.36-.25-21.73-.25-21.73l-4.09-36.56Z"/><path class="cls-1" d="M1159.87,445.74c1.39,5.93.93,13.61-.16,20.78a99,99,0,0,0-.69,21.72l2.48,5.71c3.39,8.75-13.67,6.19-18.85,2.7a6.93,6.93,0,0,1-2.86-6.43,77.07,77.07,0,0,0-.62-14.49c-.35-2.42-.62-4.64-.84-6.6-.58-5.4-.68-8.79-.68-8.79S1156.29,430.48,1159.87,445.74Z"/><path class="cls-1" d="M1138.65,474l.45.1c2.06.46,11.22,2.29,19.79-1.52l.74-6.52s-11.07,5.67-21.32,2.59Z"/><path class="cls-2" d="M1205.59,509.28c-22.33,12.33-59.1,1.66-59.1,1.66-14.25-.12-15.39-2.49-13.24-7.61,0,0,0-.08,0-.12,2.23-5.2,1.24-10.45,1.38-15.94s7-6.43,7-6.43l-1,6.17-2.19-1.8a22,22,0,0,0,2,1.77c7.46,5.81,17.43,5.69,17.43,5.69l3.1,1.93a11.63,11.63,0,0,1-1.75-14.09c4.56-8.14,11.25-2,11.25-2,2.83,5.3,4.65,7.46,7,8.61a11,11,0,0,0,1.72.66c.84.25,1.76.46,2.83.68l2.57.54,1.08.24c.77.18,1.59.38,2.49.63,1.53.41,3.24.93,5.19,1.62,7.91,2.8,10.87,7.52,11.88,11.4A14.27,14.27,0,0,1,1205.59,509.28Z"/><path class="cls-3" d="M1179.3,487.77c-6.7,4.34-6.43,9.07-6.43,9.07l-1.72-.73c.5-4.39,4-7.43,6.43-9A11,11,0,0,0,1179.3,487.77Z"/><path class="cls-3" d="M1184.7,489a13.72,13.72,0,0,0-8,8.75l-1.9-.53a14.69,14.69,0,0,1,7.37-8.76Z"/><path class="cls-3" d="M1188.27,489.86a13.26,13.26,0,0,0-6.87,8.39l-2.14-.08c2.39-5.39,4.7-7.86,6.52-8.94C1186.55,489.41,1187.37,489.61,1188.27,489.86Z"/><path class="cls-4" d="M1205.59,509.28c-22.33,12.33-59.1,1.66-59.1,1.66-14.25-.12-15.39-2.49-13.24-7.61,1.86,1.29,5.71,2.79,13.62,3.25a128.88,128.88,0,0,0,43.14,3c10.72-1.12,14.45-4,15.33-6.71A14.27,14.27,0,0,1,1205.59,509.28Z"/><path class="cls-5" d="M1169.28,411.59l-3.78,23.23a178.71,178.71,0,0,0-5.79,31.7s-4.33,1.17-10.14,2.31c-3.65.72-10.73,1.54-11.26-.19-1-3.33-1-21.71-1-21.71l-5.37-36.4Z"/><path class="cls-2" d="M1124.29,342.48s-6.79,27.74,0,49.31,5,20.54,5,20.54,21.33,14.41,40.06,2.44l1.54-6.33s7.26,3.65,13.61-3.21L1176,361.5l-49.19-19.31"/><path class="cls-5" d="M1183.41,329.75s10.14,18.61,25.14,19.62l3.79-14.9-16.49-14.05s-13.1-5.87-22.36-17.05-10-11.14-10-11.14l10-24.29-23.37-5.44-6.7,33.19S1162.05,323.29,1183.41,329.75Z"/><path class="cls-5" d="M1200.59,343.48s7.72,8,10.1,7.2,2.37-4.48,2.37-4.48,4.86,2.15,5.25-3.52c0,0,3.83-1.94,2.51-5.6,0,0,4.58-1.06-2.75-5.7s-11.43-2.27-9.33.94c0,0-5.09-.72-3.6,4.14,0,0-5.9-.78-3.27,2.91C1201.87,339.37,1197.68,340.21,1200.59,343.48Z"/><path class="cls-5" d="M1208.74,332.32s4.37.15,12.08,4.76"/><path class="cls-5" d="M1205.27,336.12a34.62,34.62,0,0,1,13,6.56"/><path class="cls-5" d="M1201.87,339.37s4.75,1.82,10.81,7.31"/><path class="cls-5" d="M1196.56,329.42s3.6,5.93,12.5,2.78l2,1.4s-4.56,3.59-3.57,9.06c0,0,1.49,3.62,5.8-1.77a22.78,22.78,0,0,1,4.33-7.74l-4.14-8.47a9.39,9.39,0,0,0-8.69-5.25c-3.21.09-7.44.12-12-.08"/><path class="cls-5" d="M1170.07,245.4a25.45,25.45,0,0,0,2,18.42l-39.32,1.36s8.77-23.77-1.66-42.39S1170.07,245.4,1170.07,245.4Z"/><path class="cls-6" d="M1126.32,269s4.92,21.59,1.51,41.58-8.14,35.16-7.06,51.77c0,0,41.93,19.12,55.69,3.3,0,0,2.11-5.71,3.16-22.25,0,0,14.79-57.4-5.39-83.05-7.13-9.06-15.22-17.37-31.93-13.47C1125.31,250.85,1126.32,269,1126.32,269Z"/><path class="cls-7" d="M1186.77,217.23s6.47,5.18,14.6,4.63c0,0,1.48.13.94-3.87S1184.22,212.18,1186.77,217.23Z"/><path class="cls-5" d="M1210.59,205.48c-2.83,1.85-5.39.29-5.16,6.28.08,2.13.07,3.62,0,4.66a7.8,7.8,0,0,1-.27,2.28,25,25,0,0,1-18.53-2.47l.4.46c.25.27.59.63,1,1.06,2.4,2.39,7.62,6.8,13.89,7.55,0,0,2.27.51,1.58,2a5.1,5.1,0,0,1-1.94,1.88c-4.44,3-1.78,8.46-5.42,14.1s-15.63,7.12-26,4.27-25-9.83-32.84-24.48-3.94-52.77-3.94-52.77L1143.65,157l12.74-5.69,33.84-1.18s14.55,12.52,13.37,24.43-3.4,17.06,3.08,22.64S1213.43,203.62,1210.59,205.48Z"/><path class="cls-8" d="M1108.88,141s.68-17.72,25-23.37,39.06,1,39.06,1L1159.59,123s24.56,1.36,42.1,15.87,1.9,35,1.9,35a29.28,29.28,0,0,0-4.42-12.51,31.18,31.18,0,0,0-10.82-9.4s12.63,13-1.06,12.77a57.16,57.16,0,0,1-23.65-5.45s9.22,18.13-6.66,32l-5.38-13.66a54.25,54.25,0,0,1-14.52,31.49l2.87,13.56-1,4.65a31.84,31.84,0,0,1-12,18.87h0s3.15-2.92-3.75-10.3c-5.61-6-7.87-6.92-14-14.59-21.22-26.49-24.22-58.14-3.06-68.8,0,0-7.08-5.64-18.07,4.22C1088.11,156.76,1089.07,142.24,1108.88,141Z"/><ellipse class="cls-9" cx="1192.26" cy="194.83" rx="9.25" ry="5.42" transform="matrix(0.14, -0.99, 0.99, 0.14, 837.79, 1349.72)"/><path class="cls-10" d="M1197.67,195.57a14.06,14.06,0,0,1-1.81,5.57,8.68,8.68,0,0,1-1.92,2.32,4.28,4.28,0,0,1-3,1,4.48,4.48,0,0,1-2.86-1.57,8.11,8.11,0,0,1-1.56-2.77,14.08,14.08,0,0,1,1.64-11.93,8,8,0,0,1,2.24-2.25,4.5,4.5,0,0,1,3.18-.75,4.31,4.31,0,0,1,2.61,1.77,8.58,8.58,0,0,1,1.23,2.75A14,14,0,0,1,1197.67,195.57Zm-.09,0a14,14,0,0,0-.39-5.77,7.56,7.56,0,0,0-1.3-2.58,3.48,3.48,0,0,0-5.08-.69,7.89,7.89,0,0,0-1.93,2.14,14.69,14.69,0,0,0-1.53,11.22,7.84,7.84,0,0,0,1.28,2.57,3.88,3.88,0,0,0,2.39,1.48,3.93,3.93,0,0,0,2.7-.77,7.94,7.94,0,0,0,1.94-2.14A13.94,13.94,0,0,0,1197.58,195.55Z"/><ellipse class="cls-8" cx="1194.73" cy="195.65" rx="6.06" ry="2.91" transform="translate(839.11 1352.88) rotate(-82.22)"/><ellipse class="cls-9" cx="1195.51" cy="191.36" rx="1.55" ry="0.98" transform="translate(844.03 1349.94) rotate(-82.22)"/><path class="cls-8" d="M1197.83,176.37s-7.45-9.41-17.13,6.88c0,0,2.85-10.37,13.84-12.75C1194.54,170.5,1201.27,170.32,1197.83,176.37Z"/><path class="cls-5" d="M1139.88,208.18s-4.16-8-10.33-9-10.34,10.36-3.58,20.16,13.89,12.51,18.18-.26"/><path class="cls-5" d="M1137.71,212.73s-7.53-12.19-12-4.09"/><path class="cls-11" d="M1134.11,209a7,7,0,0,0-1.72,8.9"/><path class="cls-12" d="M1134.13,209a9.69,9.69,0,0,0-.72,1,8.09,8.09,0,0,0-.61,1,7.26,7.26,0,0,0-.76,2.18,6.57,6.57,0,0,0-.1,2.3,14.82,14.82,0,0,0,.47,2.37l-.05,0a8.93,8.93,0,0,1-.8-2.33,6.42,6.42,0,0,1,0-2.47,7.29,7.29,0,0,1,2.55-4.14Z"/><path class="cls-11" d="M1187.21,213.1s.22,4-4.63,4.81"/><path class="cls-12" d="M1187.24,213.1a3.49,3.49,0,0,1,0,1.92,4.37,4.37,0,0,1-1,1.7,4.88,4.88,0,0,1-1.69,1,7.93,7.93,0,0,1-.94.21,7.53,7.53,0,0,1-1,0v-.05l.89-.2a8.71,8.71,0,0,0,.85-.32,4.89,4.89,0,0,0,1.5-1,4.63,4.63,0,0,0,1.37-3.26Z"/><path class="cls-13" d="M1205.46,216.42a7.8,7.8,0,0,1-.27,2.28,25,25,0,0,1-18.53-2.47l.4.46c-.49-.44-.74-.72-.74-.72a34.08,34.08,0,0,0,15.87,1.15c4.27-1,3.21-.73,3.21-.73Z"/><path class="cls-13" d="M1186.71,216.69s.16.26.46.69l-.38-.15Z"/><path class="cls-13" d="M1203.56,227.29A18.48,18.48,0,0,1,1198,226a23.87,23.87,0,0,1-10.83-8.57l.92.37c2.4,2.39,7.62,6.8,13.89,7.55C1202,225.3,1204.25,225.81,1203.56,227.29Z"/><line class="cls-2" x1="1171.47" y1="372.95" x2="1170.92" y2="408.44"/><path class="cls-14" d="M1130.72,290.42s6.3,10.26,27.47,10.5,25.17-4.45,25.17-4.45l.68,8.58s-8.7,8-32.93,3.34-19.11-7.77-19.11-7.77Z"/><path class="cls-14" d="M1183,323.41s-12.49,21.21-57.8,3.42l-1.88,9.64s46,16.13,57.29-1.69Z"/><path class="cls-15" d="M1215,350.06s-18.79,20.29-2,49.64l5.08-15.78s-4.76-24.47,13.2-37.59Z"/><path class="cls-16" d="M1277.45,375c4.36,12.65-.5,28.6-16.54,38.26s-32.39,6.48-41.57-3.26c-2.53-2.69-9.63-11.39-8.65-16.95,1.64-9.3,14.3-17.39,24.33-23.43,10.77-6.49,24.13-12.55,33.15-8.72C1272.59,362.76,1275.74,370,1277.45,375Z"/><ellipse class="cls-17" cx="1239.97" cy="379.28" rx="33.92" ry="11.65" transform="translate(-17.89 694.17) rotate(-31.06)"/><path class="cls-17" d="M1266.85,362.57c1.12,1.85.42,4.62-1.7,7.85-3.48,5.3-10.8,11.8-20.15,17.44-10.25,6.17-20.3,9.7-26.59,9.75-2.93,0-5-.7-6-2.26-3-4.92,6.82-16.24,21.85-25.3S1263.89,357.65,1266.85,362.57Z"/><path class="cls-15" d="M1265.15,370.42c-3.48,5.3-10.8,11.8-20.15,17.44-10.25,6.17-20.3,9.7-26.59,9.75,3.49-5.3,10.81-11.81,20.16-17.43C1248.82,374,1258.86,370.47,1265.15,370.42Z"/><path class="cls-12" d="M1247,389c.72.91,1.43,1.84,2.13,2.77l2,2.87c1.31,1.93,2.53,3.93,3.74,5.92s2.29,4.08,3.32,6.18c.49,1.06,1,2.11,1.45,3.19s.84,2.18,1.25,3.27l0,0a108.59,108.59,0,0,0-6.4-12.41c-2.36-4-4.85-8-7.49-11.78Z"/><path class="cls-12" d="M1255.58,383c.85.85,1.65,1.74,2.42,2.66s1.48,1.89,2.18,2.87a50.82,50.82,0,0,1,3.66,6.21,42.15,42.15,0,0,1,2.62,6.72,34,34,0,0,1,1.3,7.07h0a41.48,41.48,0,0,0-1.62-7,45.61,45.61,0,0,0-2.7-6.61,57.89,57.89,0,0,0-3.54-6.22,50.73,50.73,0,0,0-4.31-5.7Z"/><path class="cls-12" d="M1263.09,376.15c.72.86,1.41,1.74,2.08,2.64s1.27,1.84,1.88,2.79a62.35,62.35,0,0,1,3.26,5.88,49,49,0,0,1,2.39,6.31c.26,1.1.57,2.18.72,3.3a29.1,29.1,0,0,1,.28,3.35h0a31.61,31.61,0,0,0-1.32-6.54,52.8,52.8,0,0,0-2.47-6.21c-.95-2-2-4-3.15-5.9s-2.35-3.8-3.66-5.6Z"/><path class="cls-12" d="M1268.26,369.71c.63.67,1.24,1.35,1.84,2.05s1.14,1.45,1.69,2.19a54.88,54.88,0,0,1,3,4.63,44,44,0,0,1,2.4,5c.3.88.64,1.74.87,2.64s.39,1.8.55,2.71h-.05a37.94,37.94,0,0,0-4.2-10.11,72.45,72.45,0,0,0-6.16-9.08Z"/><path class="cls-12" d="M1237.71,393.87c.64,1,1.29,2,2,2.93l2,2.92c1.31,1.94,2.62,3.89,4,5.79s2.7,3.83,4.08,5.72c.68,1,1.38,1.89,2.09,2.83s1.41,1.87,2.11,2.82l0,0c-1.53-1.78-3-3.57-4.47-5.44s-2.83-3.75-4.18-5.67c-2.68-3.86-5.21-7.82-7.54-11.9Z"/><path class="cls-12" d="M1227.66,397.84c.49,1,1,2.05,1.62,3s1.15,2,1.77,2.94a57.38,57.38,0,0,0,4,5.57c.68.92,1.44,1.77,2.17,2.64s1.54,1.68,2.35,2.49,1.63,1.6,2.47,2.37,1.73,1.51,2.6,2.27l0,0a47.5,47.5,0,0,1-5.31-4.4,48.73,48.73,0,0,1-4.64-5.1,51.1,51.1,0,0,1-3.91-5.68,44.43,44.43,0,0,1-3.11-6.16Z"/><path class="cls-12" d="M1218.62,399.46c.55.88,1.13,1.73,1.73,2.57s1.16,1.71,1.77,2.54c1.2,1.67,2.42,3.32,3.73,4.9a61.25,61.25,0,0,0,4.06,4.62c.73.71,1.44,1.46,2.22,2.12s1.56,1.34,2.36,2l0,0a35.38,35.38,0,0,1-4.83-3.88,56.58,56.58,0,0,1-4.18-4.58,73,73,0,0,1-6.88-10.3Z"/><path class="cls-18" d="M1213.57,402.89s13.28,6.64,37.44-9.19,22.19-28,22.19-28"/><path class="cls-18" d="M1220.5,411s16,1.11,33.81-10.38S1277.13,374,1277.13,374"/><path class="cls-18" d="M1230.47,417.87s30.94-3.23,48.42-30.73"/><path class="cls-15" d="M1217.56,359.52s18.16-14.17,51.81,13.51c0,0,6-7.1-1-13.38,0,0-26.93-23.07-52.39-11.11Z"/><path class="cls-5" d="M1129,305.32s-1,15.39,16.46,26.46,40.5,21.07,40.5,21.07l6.54-19.83s-18.65-14.27-35.06-21.65l-4.36-17.64Z"/><path class="cls-6" d="M1156.82,260.48l-1.07,42.93-30.16,9.3a261.81,261.81,0,0,1,2.55-54.43"/><path class="cls-5" d="M1190.66,333.37s10.14-2.86,22.26,2.47,14,9.2,14,9.2l-8.51.61s-6.84.39-.87,4.94a34.75,34.75,0,0,0,11,5.89s.81,7.46-8,5.93c0,0,2,6.16-6.28,4.21,0,0,2.15,5.11-5.35,3.95,0,0-.28,5.28-13.31-6s-12.4-14.44-12.4-14.44"/><path class="cls-5" d="M1221.3,363.2a83,83,0,0,1-14.11-10.74"/><line class="cls-5" x1="1214.3" y1="366.62" x2="1201.2" y2="356.84"/><line class="cls-5" x1="1208.95" y1="370.57" x2="1196.85" y2="360.85"/><path class="cls-14" d="M1126,285.88s28.78-1.89,29.37-1.76l.88-14.29a67.81,67.81,0,0,0-29.62,4.85Z"/><path class="cls-5" d="M1217.58,350.59s-.48-.28-6.88-5.74"/></svg>