<svg id="Layer_1" data-name="Layer 1" xmlns="http://www.w3.org/2000/svg" viewBox="0 0 1280 720"><defs><style>.cls-1,.cls-6{fill:#87e7ff;}.cls-1{stroke:#2d7a8c;}.cls-1,.cls-15,.cls-16,.cls-17,.cls-18,.cls-2,.cls-4,.cls-5,.cls-6,.cls-7{stroke-miterlimit:10;}.cls-2{fill:#066696;stroke:#06455e;}.cls-3{fill:#043c5b;}.cls-4{fill:#1181a8;stroke:#063651;}.cls-11,.cls-5{fill:#fbd3c7;}.cls-15,.cls-17,.cls-18,.cls-5{stroke:#453323;}.cls-15,.cls-16,.cls-17,.cls-18,.cls-5{stroke-width:0.5px;}.cls-6{stroke:#295799;}.cls-7{fill:#f7edeb;stroke:#bf9b82;}.cls-8{fill:#2d2b21;}.cls-9{fill:#fff;}.cls-10{fill:#3d2e17;}.cls-12{fill:#453323;}.cls-13{fill:#ef8d7d;}.cls-14{fill:#ff8798;}.cls-15{fill:#631f16;}.cls-16{fill:#7c4b2a;stroke:#512e16;}.cls-17{fill:#a0412b;}.cls-18{fill:none;}</style></defs><path class="cls-1" d="M146.6,511.05A99,99,0,0,0,143,532.47l1.68,6c2.16,9.14-14.39,4.27-19,.11a7,7,0,0,1-2-6.76A76.12,76.12,0,0,0,125,517.37c0-2.44,0-4.68.07-6.65.16-5.43.52-8.8.52-8.8"/><path class="cls-1" d="M124.72,515.57l.43.17c2,.73,10.81,3.79,19.82,1.19l1.62-6.35s-11.75,4.09-21.48-.35Z"/><path class="cls-2" d="M188.64,559c-22.09,12.75-59,2.8-59,2.8-14.26.16-15.45-2.2-13.39-7.35a.5.5,0,0,1,0-.13c2.12-5.24,1-10.47,1.06-16s6.91-6.57,6.91-6.57l-.85,6.2-2.22-1.77a20.55,20.55,0,0,0,2,1.74c7.57,5.66,17.54,5.35,17.54,5.35l3.13,1.87a11.63,11.63,0,0,1-2-14.05c4.4-8.23,11.22-2.23,11.22-2.23,2.93,5.24,4.78,7.37,7.16,8.47a11,11,0,0,0,1.73.63c.84.23,1.77.42,2.84.62l2.59.5c.35.06.7.14,1.07.22.78.16,1.61.35,2.51.57,1.53.39,3.25.87,5.22,1.53,8,2.64,11,7.31,12.1,11.16A14.42,14.42,0,0,1,188.64,559Z"/><path class="cls-3" d="M161.94,538c-6.62,4.47-6.25,9.19-6.25,9.19l-1.74-.69c.42-4.4,3.9-7.51,6.26-9.13A11,11,0,0,0,161.94,538Z"/><path class="cls-3" d="M167.37,539.16a13.64,13.64,0,0,0-7.88,8.9l-1.91-.5a14.74,14.74,0,0,1,7.2-8.9Z"/><path class="cls-3" d="M171,540a13.28,13.28,0,0,0-6.71,8.53l-2.14-.05c2.28-5.43,4.55-7.94,6.34-9C169.22,539.54,170.05,539.73,171,540Z"/><path class="cls-4" d="M188.64,559c-22.09,12.75-59,2.8-59,2.8-14.26.16-15.45-2.2-13.39-7.35,1.88,1.24,5.76,2.67,13.68,3a128.93,128.93,0,0,0,43.19,2.18c10.7-1.33,14.37-4.24,15.2-7A14.42,14.42,0,0,1,188.64,559Z"/><path class="cls-5" d="M156.85,457.4l-4.58,23.09a177.54,177.54,0,0,0-6.9,31.48s-4.37,1-10.22,2c-3.67.58-10.77,1.15-11.25-.59-.91-3.36-.24-21.73-.24-21.73l-4.1-36.56Z"/><path class="cls-1" d="M138.31,504.59c1.38,5.93.92,13.61-.16,20.78a99,99,0,0,0-.69,21.72l2.48,5.71c3.39,8.75-13.67,6.19-18.86,2.7a7,7,0,0,1-2.86-6.43,76.24,76.24,0,0,0-.61-14.49c-.36-2.42-.63-4.64-.84-6.6-.58-5.4-.68-8.79-.68-8.79S134.72,489.33,138.31,504.59Z"/><path class="cls-1" d="M117.09,532.84l.44.1c2.06.46,11.23,2.29,19.8-1.52l.74-6.52s-11.08,5.67-21.33,2.59Z"/><path class="cls-2" d="M184,568.13c-22.32,12.33-59.09,1.66-59.09,1.66-14.25-.12-15.4-2.49-13.24-7.61a.61.61,0,0,1,0-.12c2.23-5.2,1.24-10.45,1.37-15.94s7-6.43,7-6.43l-1,6.17-2.19-1.8a22,22,0,0,0,2,1.77c7.45,5.81,17.43,5.69,17.43,5.69l3.09,1.93a11.62,11.62,0,0,1-1.74-14.09c4.55-8.14,11.25-2,11.25-2,2.83,5.3,4.64,7.46,7,8.61a10.59,10.59,0,0,0,1.72.66c.84.25,1.76.46,2.82.68l2.58.54,1.07.24c.77.18,1.6.38,2.5.63,1.52.41,3.23.93,5.18,1.62,7.91,2.8,10.88,7.52,11.89,11.4A14.18,14.18,0,0,1,184,568.13Z"/><path class="cls-3" d="M157.74,546.62c-6.7,4.34-6.43,9.07-6.43,9.07l-1.73-.73c.51-4.39,4-7.43,6.44-9A10.59,10.59,0,0,0,157.74,546.62Z"/><path class="cls-3" d="M163.14,547.84a13.7,13.7,0,0,0-8,8.75l-1.89-.53a14.7,14.7,0,0,1,7.36-8.76Z"/><path class="cls-3" d="M166.71,548.71a13.26,13.26,0,0,0-6.87,8.39L157.7,557c2.39-5.4,4.7-7.86,6.51-8.94C165,548.26,165.81,548.46,166.71,548.71Z"/><path class="cls-4" d="M184,568.13c-22.32,12.33-59.09,1.66-59.09,1.66-14.25-.12-15.4-2.49-13.24-7.61,1.85,1.28,5.7,2.79,13.62,3.25a128.84,128.84,0,0,0,43.13,3c10.73-1.12,14.46-4,15.34-6.71A14.18,14.18,0,0,1,184,568.13Z"/><path class="cls-5" d="M147.71,470.44l-3.77,23.23a178.71,178.71,0,0,0-5.79,31.7s-4.34,1.17-10.14,2.31c-3.65.72-10.73,1.54-11.27-.19-1-3.33-1-21.71-1-21.71l-5.37-36.4Z"/><path class="cls-2" d="M102.73,401.33s-6.8,27.74,0,49.31,5,20.54,5,20.54,21.34,14.41,40.06,2.44l1.55-6.34s7.26,3.66,13.61-3.21l-8.53-43.72L105.24,401"/><path class="cls-5" d="M161.85,388.6S172,407.21,187,408.22l3.8-14.9-16.49-14.05s-13.1-5.87-22.37-17-10-11.14-10-11.14l10-24.29-23.37-5.44-6.7,33.19S140.49,382.14,161.85,388.6Z"/><path class="cls-5" d="M179,402.33s7.72,8,10.09,7.2,2.38-4.48,2.38-4.48,4.86,2.15,5.25-3.52c0,0,3.82-1.94,2.51-5.6,0,0,4.58-1.06-2.75-5.7s-11.43-2.27-9.33.94c0,0-5.09-.72-3.6,4.14,0,0-5.9-.78-3.27,2.91C180.31,398.22,176.12,399.06,179,402.33Z"/><path class="cls-5" d="M187.18,391.17s4.37.15,12.08,4.76"/><path class="cls-5" d="M183.71,395a34.69,34.69,0,0,1,13,6.56"/><path class="cls-5" d="M180.31,398.22s4.74,1.82,10.81,7.31"/><path class="cls-5" d="M175,388.27s3.59,5.93,12.5,2.78l2,1.4s-4.57,3.59-3.58,9.06c0,0,1.5,3.62,5.81-1.77A22.78,22.78,0,0,1,196,392l-4.15-8.47a9.37,9.37,0,0,0-8.68-5.25c-3.21.09-7.45.12-12-.08"/><path class="cls-5" d="M148.51,304.25a25.45,25.45,0,0,0,2,18.42L111.21,324s8.76-23.77-1.66-42.39S148.51,304.25,148.51,304.25Z"/><path class="cls-6" d="M104.76,327.86s4.92,21.59,1.51,41.58-8.14,35.16-7.06,51.77c0,0,41.93,19.12,55.69,3.3,0,0,2.1-5.71,3.16-22.25,0,0,14.79-57.4-5.4-83.05-7.13-9.06-15.22-17.37-31.92-13.47C103.74,309.7,104.76,327.86,104.76,327.86Z"/><path class="cls-7" d="M165.2,276.08s6.47,5.18,14.6,4.63c0,0,1.49.13.94-3.87S162.66,271,165.2,276.08Z"/><path class="cls-5" d="M189,264.33c-2.83,1.85-5.39.29-5.16,6.28.07,2.13.06,3.62,0,4.65a7.74,7.74,0,0,1-.26,2.29,25,25,0,0,1-18.54-2.47l.41.46c.24.27.58.63,1,1.06,2.41,2.39,7.63,6.8,13.89,7.55,0,0,2.28.51,1.59,2a5.26,5.26,0,0,1-1.94,1.88c-4.44,3-1.79,8.46-5.43,14.1s-15.63,7.12-26,4.27-25-9.83-32.84-24.48-3.94-52.77-3.94-52.77l10.24-13.29,12.73-5.69L168.66,209S183.21,221.5,182,233.41s-3.41,17.06,3.08,22.64S191.86,262.47,189,264.33Z"/><path class="cls-8" d="M87.31,199.87s.68-17.72,25-23.37,39,1,39,1L138,181.82s24.56,1.36,42.1,15.87,1.89,35,1.89,35a29.19,29.19,0,0,0-4.41-12.51,31.17,31.17,0,0,0-10.83-9.4s12.63,13-1.05,12.77a57.1,57.1,0,0,1-23.65-5.45s9.22,18.13-6.67,32L130,236.51A54.17,54.17,0,0,1,115.51,268l2.87,13.56-1,4.65a31.81,31.81,0,0,1-12,18.87h0s3.16-2.92-3.75-10.3c-5.6-6-7.86-6.92-14-14.59-21.22-26.49-24.22-58.14-3-68.8,0,0-7.08-5.64-18.08,4.22C66.54,215.61,67.51,201.09,87.31,199.87Z"/><ellipse class="cls-9" cx="170.7" cy="253.68" rx="9.25" ry="5.42" transform="translate(-103.76 388.45) rotate(-82.22)"/><path class="cls-10" d="M176.11,254.42a13.91,13.91,0,0,1-1.82,5.57,8.46,8.46,0,0,1-1.91,2.32,4.28,4.28,0,0,1-3,1,4.48,4.48,0,0,1-2.87-1.57A8.08,8.08,0,0,1,165,259,14.12,14.12,0,0,1,166.59,247a8.27,8.27,0,0,1,2.24-2.25A4.52,4.52,0,0,1,172,244a4.29,4.29,0,0,1,2.62,1.77,8.34,8.34,0,0,1,1.22,2.75A14,14,0,0,1,176.11,254.42Zm-.1,0a13.88,13.88,0,0,0-.38-5.77,7.94,7.94,0,0,0-1.3-2.58,3.48,3.48,0,0,0-5.08-.69,7.89,7.89,0,0,0-1.93,2.14,14.69,14.69,0,0,0-1.53,11.22,7.65,7.65,0,0,0,1.28,2.57,3.86,3.86,0,0,0,2.38,1.48,3.92,3.92,0,0,0,2.7-.77,7.78,7.78,0,0,0,1.94-2.14A13.94,13.94,0,0,0,176,254.4Z"/><ellipse class="cls-8" cx="173.16" cy="254.49" rx="6.06" ry="2.91" transform="translate(-102.43 391.6) rotate(-82.22)"/><ellipse class="cls-9" cx="173.95" cy="250.21" rx="1.55" ry="0.98" transform="translate(-97.51 388.67) rotate(-82.22)"/><path class="cls-8" d="M176.27,235.22s-7.45-9.41-17.13,6.88c0,0,2.85-10.37,13.83-12.75C173,229.35,179.71,229.17,176.27,235.22Z"/><path class="cls-5" d="M118.32,267s-4.17-7.95-10.33-9-10.34,10.36-3.58,20.16,13.89,12.51,18.18-.26"/><path class="cls-5" d="M116.15,271.58s-7.53-12.19-12-4.09"/><path class="cls-11" d="M112.55,267.81a7,7,0,0,0-1.73,8.9"/><path class="cls-12" d="M112.57,267.83a8.39,8.39,0,0,0-.72,1,8.09,8.09,0,0,0-.61,1,7,7,0,0,0-.76,2.18,6.56,6.56,0,0,0-.1,2.3,16.21,16.21,0,0,0,.46,2.37l0,0a9.14,9.14,0,0,1-.81-2.32,6.42,6.42,0,0,1,0-2.47,7.29,7.29,0,0,1,2.55-4.14Z"/><path class="cls-11" d="M165.65,272s.22,4-4.63,4.81"/><path class="cls-12" d="M165.68,272a3.49,3.49,0,0,1-.05,1.92,4.37,4.37,0,0,1-1,1.7,5,5,0,0,1-1.69,1,8.4,8.4,0,0,1-.94.21,7.69,7.69,0,0,1-1,0v-.05l.89-.2a8,8,0,0,0,.86-.32,4.89,4.89,0,0,0,1.5-1,4.63,4.63,0,0,0,1.37-3.26Z"/><path class="cls-13" d="M183.89,275.26a7.74,7.74,0,0,1-.26,2.29,25,25,0,0,1-18.54-2.47l.41.46a8.18,8.18,0,0,1-.74-.72A34.07,34.07,0,0,0,180.63,276c4.26-1,3.2-.73,3.2-.73Z"/><path class="cls-13" d="M165.15,275.54s.15.26.46.69l-.39-.15Z"/><path class="cls-13" d="M182,286.14a18.59,18.59,0,0,1-5.57-1.34,23.82,23.82,0,0,1-10.82-8.57l.91.37c2.41,2.39,7.63,6.8,13.89,7.55C180.41,284.15,182.69,284.66,182,286.14Z"/><line class="cls-2" x1="149.91" y1="431.8" x2="149.36" y2="467.28"/><path class="cls-14" d="M109.15,349.27s6.31,10.26,27.48,10.5,25.16-4.45,25.16-4.45l.69,8.58s-8.7,8-32.94,3.34-19.11-7.77-19.11-7.77Z"/><path class="cls-14" d="M161.47,382.26s-12.48,21.21-57.79,3.42l-1.89,9.64s46,16.13,57.29-1.69Z"/><path class="cls-15" d="M193.47,408.91s-18.79,20.29-2,49.64l5.07-15.78s-4.75-24.47,13.2-37.59Z"/><path class="cls-16" d="M255.89,433.84c4.36,12.65-.5,28.6-16.55,38.26s-32.38,6.48-41.56-3.26c-2.53-2.69-9.63-11.39-8.65-16.95,1.63-9.3,14.29-17.39,24.33-23.43,10.77-6.49,24.12-12.55,33.15-8.72C251,421.61,254.17,428.86,255.89,433.84Z"/><ellipse class="cls-17" cx="218.41" cy="438.13" rx="33.92" ry="11.65" transform="translate(-194.74 175.52) rotate(-31.06)"/><path class="cls-17" d="M245.29,421.42c1.12,1.85.42,4.62-1.7,7.85-3.48,5.3-10.8,11.8-20.15,17.44-10.25,6.17-20.3,9.7-26.59,9.75-2.93,0-5-.7-6-2.26-3-4.92,6.82-16.24,21.85-25.3S242.33,416.5,245.29,421.42Z"/><path class="cls-15" d="M243.59,429.27c-3.48,5.3-10.8,11.8-20.15,17.44-10.25,6.17-20.3,9.7-26.59,9.75,3.49-5.3,10.8-11.81,20.15-17.43C227.25,432.85,237.3,429.32,243.59,429.27Z"/><path class="cls-12" d="M225.46,447.89c.73.91,1.44,1.84,2.14,2.77l2,2.87c1.32,1.93,2.53,3.93,3.75,5.92s2.29,4.08,3.31,6.18c.49,1.06,1,2.11,1.46,3.19s.84,2.18,1.25,3.27l-.05,0a111.9,111.9,0,0,0-6.4-12.41c-2.36-4-4.85-7.95-7.5-11.78Z"/><path class="cls-12" d="M234,441.86c.85.85,1.66,1.74,2.43,2.66s1.47,1.89,2.17,2.87a52.21,52.21,0,0,1,3.67,6.21,42.15,42.15,0,0,1,2.62,6.72,33.34,33.34,0,0,1,1.29,7.07h-.05a41.45,41.45,0,0,0-1.61-7,48,48,0,0,0-2.7-6.61,56.94,56.94,0,0,0-3.54-6.22,53.25,53.25,0,0,0-4.31-5.7Z"/><path class="cls-12" d="M241.53,435q1.07,1.29,2.07,2.64c.65.91,1.28,1.84,1.88,2.79a60.26,60.26,0,0,1,3.27,5.88,47.51,47.51,0,0,1,2.38,6.31,31.36,31.36,0,0,1,.73,3.3,29.08,29.08,0,0,1,.27,3.35h0a31,31,0,0,0-1.32-6.54,49.55,49.55,0,0,0-2.47-6.21c-.95-2-2-4-3.14-5.9s-2.35-3.8-3.66-5.6Z"/><path class="cls-12" d="M246.7,428.56c.63.67,1.24,1.35,1.84,2.05s1.14,1.45,1.69,2.19c1.09,1.48,2.07,3,3,4.63a45.68,45.68,0,0,1,2.39,5c.31.88.65,1.74.87,2.63a25.73,25.73,0,0,1,.56,2.72H257a38,38,0,0,0-4.21-10.11,72.38,72.38,0,0,0-6.15-9.08Z"/><path class="cls-12" d="M216.14,452.72c.64,1,1.3,2,2,2.93l2,2.92c1.31,1.94,2.61,3.89,4,5.79s2.7,3.83,4.07,5.72c.69,1,1.39,1.89,2.1,2.83s1.41,1.87,2.11,2.82l0,0c-1.53-1.78-3-3.58-4.47-5.44s-2.84-3.75-4.18-5.67c-2.68-3.86-5.21-7.82-7.54-11.9Z"/><path class="cls-12" d="M206.1,456.69c.48,1,1,2.05,1.62,3s1.14,2,1.77,2.94a57.38,57.38,0,0,0,4,5.57c.67.92,1.44,1.77,2.17,2.64s1.54,1.68,2.35,2.49,1.62,1.6,2.47,2.37,1.73,1.51,2.59,2.27l0,0a48.31,48.31,0,0,1-5.3-4.4,46.62,46.62,0,0,1-4.64-5.1,51.18,51.18,0,0,1-3.92-5.68,44.37,44.37,0,0,1-3.1-6.16Z"/><path class="cls-12" d="M197.06,458.31c.55.88,1.13,1.73,1.73,2.57s1.16,1.71,1.77,2.54c1.2,1.67,2.41,3.32,3.72,4.9s2.65,3.13,4.06,4.62c.73.71,1.44,1.46,2.23,2.12s1.55,1.34,2.36,2l0,0a36,36,0,0,1-4.83-3.88,58.48,58.48,0,0,1-4.18-4.58,73.89,73.89,0,0,1-6.88-10.3Z"/><path class="cls-18" d="M192,461.74s13.28,6.64,37.44-9.19,22.18-28,22.18-28"/><path class="cls-18" d="M198.94,469.87s16,1.11,33.81-10.38,22.81-26.65,22.81-26.65"/><path class="cls-18" d="M208.9,476.72s30.95-3.23,48.43-30.73"/><path class="cls-15" d="M196,418.37s18.17-14.17,51.81,13.51c0,0,6-7.1-1-13.38,0,0-26.93-23.07-52.39-11.11Z"/><path class="cls-5" d="M107.45,364.17s-1,15.39,16.45,26.46,40.51,21.07,40.51,21.07L171,391.87s-18.65-14.27-35.06-21.65l-4.36-17.64Z"/><path class="cls-6" d="M135.26,319.33l-1.07,42.93L104,371.56a261,261,0,0,1,2.55-54.43"/><path class="cls-5" d="M169.1,392.22s10.13-2.86,22.26,2.47,14,9.2,14,9.2l-8.51.61s-6.83.39-.87,4.94a34.87,34.87,0,0,0,11,5.89s.82,7.46-8,5.93c0,0,1.94,6.16-6.28,4.21,0,0,2.15,5.11-5.36,3.95,0,0-.28,5.28-13.3-6S161.68,409,161.68,409"/><path class="cls-5" d="M199.73,422.05a83.49,83.49,0,0,1-14.11-10.74"/><line class="cls-5" x1="192.74" y1="425.47" x2="179.64" y2="415.69"/><line class="cls-5" x1="187.38" y1="429.42" x2="175.29" y2="419.7"/><path class="cls-14" d="M104.42,344.73s28.78-1.89,29.37-1.76l.89-14.29a67.86,67.86,0,0,0-29.63,4.85Z"/><path class="cls-5" d="M196,409.44s-.47-.28-6.87-5.74"/></svg>