<svg id="Layer_1" data-name="Layer 1" xmlns="http://www.w3.org/2000/svg" viewBox="0 0 440 380"><defs><style>.cls-1{fill:#ffe578;}</style></defs><path class="cls-1" d="M273,12.72s2.5.79,2.56.77,1.48-2,1.53-2,.22,0,.23.11.16,2.59.16,2.59,2.41.85,2.43.9,0,.19-.16.25-2.26.9-2.26.9-.12,2.46-.13,2.51a.22.22,0,0,1-.33.07c-.15-.12-1.52-2-1.6-2s-2.29.62-2.4.59a.22.22,0,0,1-.18-.25c0-.1,1.34-2,1.34-2s-1.27-2-1.3-2.19A.22.22,0,0,1,273,12.72Z"/><path class="cls-1" d="M415.72,190.92s2.49.79,2.55.77,1.48-2,1.53-2,.22,0,.23.11.16,2.59.16,2.59,2.41.85,2.43.9,0,.19-.16.25-2.26.9-2.26.9-.12,2.47-.12,2.51a.23.23,0,0,1-.34.07c-.15-.12-1.52-2-1.6-2s-2.28.62-2.39.59-.19-.07-.18-.24,1.33-2,1.33-2-1.27-2-1.3-2.19A.23.23,0,0,1,415.72,190.92Z"/><path class="cls-1" d="M37.4,140.9s2.5.79,2.56.77,1.48-2,1.52-2,.22,0,.24.11.15,2.59.15,2.59,2.42.85,2.44.9,0,.19-.16.25-2.26.9-2.26.9-.12,2.47-.13,2.51a.22.22,0,0,1-.33.07c-.16-.12-1.53-2-1.6-2s-2.29.62-2.4.59-.19-.07-.18-.24,1.34-2,1.34-2-1.27-2.05-1.3-2.19A.22.22,0,0,1,37.4,140.9Z"/><path class="cls-1" d="M244.49,2.73s2.5.79,2.56.77,1.48-2,1.53-2,.22,0,.23.11S249,4.2,249,4.2s2.41.86,2.43.91,0,.19-.16.25-2.26.9-2.26.9-.12,2.46-.13,2.51a.22.22,0,0,1-.33.07c-.15-.12-1.52-2-1.6-2s-2.28.62-2.39.58-.19-.07-.18-.24,1.33-2,1.33-2-1.27-2-1.3-2.18A.22.22,0,0,1,244.49,2.73Z"/><path class="cls-1" d="M180.75,15.14s14.53,4.6,14.88,4.47S204.26,8.17,204.54,8s1.27.15,1.35.66.91,15,.91,15,14,5,14.17,5.28.11,1.08-.94,1.44-13.14,5.26-13.14,5.26-.72,14.33-.75,14.62a1.31,1.31,0,0,1-1.94.4C203.31,50,195.34,39,194.89,39s-13.3,3.62-13.95,3.42-1.09-.41-1-1.4c0-.62,7.77-11.63,7.77-11.63s-7.4-11.92-7.56-12.73A1.25,1.25,0,0,1,180.75,15.14Z"/><path class="cls-1" d="M276.86,41.53s10.81-3,11-3.17.77-10.51.88-10.71.85-.42,1.1-.13,6.56,8.93,6.56,8.93,10.66-2.52,10.85-2.39.51.62,0,1.26-6,8.5-6,8.5,5.27,9.14,5.36,9.33a1,1,0,0,1-1,1c-.84-.08-10.17-3.73-10.41-3.49s-6.78,7.53-7.26,7.67a.86.86,0,0,1-1.2-.45c-.22-.4.17-10.29.17-10.29s-9.32-4.41-9.75-4.85A.92.92,0,0,1,276.86,41.53Z"/><path class="cls-1" d="M68.67,274.61s10.82-2.94,11-3.16.77-10.51.88-10.72.85-.42,1.1-.13,6.56,8.93,6.56,8.93,10.67-2.52,10.86-2.39a.86.86,0,0,1,0,1.27c-.51.64-6,8.49-6,8.49s5.27,9.14,5.37,9.33a1,1,0,0,1-1,1c-.83-.08-10.17-3.73-10.41-3.5s-6.78,7.54-7.25,7.68a.86.86,0,0,1-1.2-.46c-.23-.39.16-10.28.16-10.28s-9.32-4.42-9.74-4.85A.93.93,0,0,1,68.67,274.61Z"/><path class="cls-1" d="M389,120.06s10.82-3,11-3.17.77-10.5.88-10.71.85-.42,1.1-.13,6.56,8.93,6.56,8.93,10.67-2.52,10.85-2.39a.84.84,0,0,1,0,1.26c-.51.64-6,8.5-6,8.5s5.27,9.14,5.36,9.33a1,1,0,0,1-1,1c-.83-.09-10.17-3.74-10.41-3.5s-6.78,7.53-7.25,7.67a.86.86,0,0,1-1.2-.45c-.23-.4.16-10.29.16-10.29s-9.32-4.41-9.74-4.85A.91.91,0,0,1,389,120.06Z"/><path class="cls-1" d="M133.05,347.27s10.82-2.94,11-3.17.77-10.5.88-10.71.85-.42,1.1-.13,6.56,8.93,6.56,8.93,10.66-2.52,10.85-2.39a.85.85,0,0,1,0,1.27c-.51.64-6,8.49-6,8.49s5.27,9.14,5.36,9.33a1,1,0,0,1-1,1c-.84-.08-10.17-3.73-10.41-3.5s-6.78,7.54-7.26,7.68a.85.85,0,0,1-1.19-.46c-.23-.39.16-10.28.16-10.28s-9.32-4.42-9.74-4.85A.93.93,0,0,1,133.05,347.27Z"/><path class="cls-1" d="M62.69,148.75s10.81-2.94,11-3.17.77-10.5.89-10.71.84-.42,1.1-.13,6.56,8.93,6.56,8.93,10.66-2.52,10.85-2.39a.86.86,0,0,1,0,1.27c-.51.64-6,8.49-6,8.49s5.27,9.14,5.36,9.33a1,1,0,0,1-1,1c-.84-.08-10.17-3.73-10.41-3.5s-6.78,7.54-7.26,7.68a.86.86,0,0,1-1.2-.46c-.22-.39.17-10.28.17-10.28s-9.32-4.42-9.75-4.85A.94.94,0,0,1,62.69,148.75Z"/><path class="cls-1" d="M333.47,39.15s5.38,4.1,5.54,4.09,5.31-3.48,5.45-3.5.51.25.47.48-1.87,6.41-1.87,6.41,5.12,4.18,5.13,4.32-.12.47-.61.46-6.28.23-6.28.23-2.44,5.88-2.5,6a.57.57,0,0,1-.86-.12c-.27-.43-1.95-6.23-2.15-6.26s-6.09-.48-6.33-.66a.52.52,0,0,1-.23-.74c.11-.26,5-3.7,5-3.7s-1.31-6.08-1.26-6.44A.57.57,0,0,1,333.47,39.15Z"/><path class="cls-1" d="M143.77,17s5.66-1.54,5.75-1.65.4-5.51.46-5.61.44-.22.57-.07S154,14.3,154,14.3s5.58-1.31,5.68-1.25a.45.45,0,0,1,0,.66c-.27.34-3.16,4.45-3.16,4.45s2.76,4.79,2.81,4.89a.5.5,0,0,1-.54.53c-.44,0-5.32-1.95-5.45-1.83s-3.55,3.94-3.8,4a.46.46,0,0,1-.63-.24c-.11-.21.09-5.39.09-5.39s-4.88-2.31-5.1-2.53A.49.49,0,0,1,143.77,17Z"/><path class="cls-1" d="M243.51,31.26s5.66-1.54,5.74-1.66.41-5.5.46-5.61.45-.22.58-.06,3.43,4.67,3.43,4.67,5.59-1.32,5.69-1.25.26.33,0,.66-3.15,4.45-3.15,4.45,2.76,4.79,2.81,4.89a.51.51,0,0,1-.55.53c-.43-.05-5.32-2-5.44-1.83s-3.55,3.94-3.8,4a.44.44,0,0,1-.63-.23c-.12-.21.09-5.39.09-5.39s-4.88-2.31-5.11-2.54A.48.48,0,0,1,243.51,31.26Z"/><path class="cls-1" d="M141.52,56.76s5.66-1.55,5.74-1.66.41-5.5.47-5.61.44-.22.57-.07,3.44,4.68,3.44,4.68,5.58-1.32,5.68-1.25.26.32,0,.66S154.26,58,154.26,58s2.76,4.79,2.81,4.89a.5.5,0,0,1-.54.53c-.44,0-5.33-1.95-5.45-1.83s-3.55,3.95-3.8,4a.46.46,0,0,1-.63-.24c-.12-.21.09-5.38.09-5.38s-4.88-2.32-5.11-2.54A.48.48,0,0,1,141.52,56.76Z"/><path class="cls-1" d="M328.19,283.56s-.77,5.81-.69,5.94,4.91,2.5,5,2.59,0,.5-.16.56-5.64,1.36-5.64,1.36-.95,5.66-1.05,5.72-.4.12-.61-.26-2.88-4.63-2.88-4.63l-5.59.7a.49.49,0,0,1-.28-.7c.21-.39,3.86-4.16,3.8-4.32s-2.27-4.8-2.24-5.06.09-.44.47-.49,4.93,2.17,4.93,2.17,4-3.61,4.31-3.72A.49.49,0,0,1,328.19,283.56Z"/><path class="cls-1" d="M108.17,303.92s-.77,5.82-.69,5.95,4.91,2.5,5,2.59,0,.5-.16.56-5.64,1.36-5.64,1.36-1,5.66-1,5.72-.4.12-.61-.26-2.88-4.63-2.88-4.63l-5.59.7a.51.51,0,0,1-.28-.71c.21-.38,3.86-4.15,3.8-4.31s-2.26-4.8-2.23-5.06.08-.44.46-.49c.23,0,4.93,2.17,4.93,2.17s4-3.61,4.31-3.73A.5.5,0,0,1,108.17,303.92Z"/><path class="cls-1" d="M275,322.69s2.54,5.29,2.67,5.35,5.48-.6,5.6-.56.3.4.17.55-4,4.23-4,4.23,2.31,5.25,2.26,5.36-.27.32-.65.12-5-2.3-5-2.3l-4.29,3.65a.5.5,0,0,1-.62-.44c0-.43.95-5.58.81-5.69s-4.53-2.77-4.64-3-.18-.42.12-.66,5.31-.9,5.31-.9,1.39-5.22,1.57-5.47A.49.49,0,0,1,275,322.69Z"/><path class="cls-1" d="M382.31,226s2.55,5.29,2.68,5.35,5.48-.6,5.6-.56.29.39.17.55-4,4.22-4,4.22,2.31,5.26,2.27,5.37-.28.31-.66.11-4.94-2.29-4.94-2.29l-4.3,3.65a.51.51,0,0,1-.62-.44c0-.44,1-5.59.81-5.69s-4.52-2.77-4.64-3a.46.46,0,0,1,.12-.66c.18-.15,5.31-.89,5.31-.89s1.39-5.22,1.57-5.48A.49.49,0,0,1,382.31,226Z"/><path class="cls-1" d="M362.49,74.85s11.75-.15,13,.67c.6.39-5.93,9-5.93,9l7.2-7.63c.66.14,7.19,16.37,7.19,16.37s-5.49-16.8-5.32-17,9.52.93,9.52.93L378.82,75l11.73-9.08S378.41,74.05,378.2,74s3-5,3-5-3.7,4.53-3.85,4.68-7-18.24-7-18.24,5.9,18,5.77,18.16a46.29,46.29,0,0,1-4.22-2.66s3.83,3.36,3.74,3.49S362.49,74.85,362.49,74.85Z"/><path class="cls-1" d="M95.57,54.25s-4.3,30.41-6.94,33.36c-1.24,1.39-21-18.93-21-18.93L84.5,90.34C83.88,92,39.32,102.4,39.32,102.4s45.61-7.51,46-7-6.19,24.22-6.19,24.22L88.7,96.38l18.78,33.93s-16.2-34.6-15.89-35.13S103.37,105,103.37,105,93.15,93.62,92.81,93.17s49.92-10.8,49.92-10.8-48.94,8.07-49.22,7.68,8.55-9.84,8.55-9.84-10.21,8.56-10.51,8.28S95.57,54.25,95.57,54.25Z"/><path class="cls-1" d="M74.77,185S56,209.31,52.23,210.57c-1.76.59-8.87-26.84-8.87-26.84l3.94,27.16C45.94,212,2.07,199,2.07,199s43.35,16,43.43,16.67-17.36,18-17.36,18L48,218.22,47.49,257s3-38.09,3.58-38.4S56.44,233,56.44,233s-3.25-14.94-3.32-15.5,48.73,15.32,48.73,15.32-46.53-17.2-46.58-17.68,12.29-4.32,12.29-4.32-13.09,2.38-13.22,2S74.77,185,74.77,185Z"/><path class="cls-1" d="M417.24,145.6s2.63,11.45,2.09,12.86c-.25.67-10.09-3.88-10.09-3.88l9,5.42c0,.68-14.47,10.5-14.47,10.5s15.25-8.93,15.46-8.8,1.11,9.5,1.11,9.5l.23-9.62,11.36,9.54S421.39,161,421.43,160.76s5.55,1.89,5.55,1.89-5.21-2.66-5.39-2.78,16.34-10.7,16.34-10.7-16.36,9.59-16.52,9.49a44.82,44.82,0,0,1,1.7-4.68s-2.47,4.45-2.61,4.4S417.24,145.6,417.24,145.6Z"/><path class="cls-1" d="M98.07,31.21s11.75-.15,13,.68c.6.39-5.93,9-5.93,9l7.2-7.64c.67.14,7.2,16.38,7.2,16.38s-5.5-16.81-5.33-17,9.52.92,9.52.92l-9.35-2.26,11.74-9.07s-12.14,8.14-12.36,8,3-5,3-5-3.71,4.53-3.86,4.68-7-18.24-7-18.24,5.9,18,5.77,18.16a46.29,46.29,0,0,1-4.22-2.66s3.83,3.36,3.75,3.49S98.07,31.21,98.07,31.21Z"/><path class="cls-1" d="M232.31,358.67s-11.72.72-13-.05c-.61-.35,5.49-9.31,5.49-9.31l-6.82,8c-.67-.11-8-16-8-16s6.3,16.52,6.14,16.7-9.55-.47-9.55-.47l9.44,1.81L204.72,369s11.73-8.71,11.95-8.64-2.78,5.17-2.78,5.17,3.49-4.7,3.63-4.86,7.86,17.88,7.86,17.88-6.76-17.72-6.64-17.86a44.59,44.59,0,0,1,4.34,2.45s-4-3.17-3.9-3.3S232.31,358.67,232.31,358.67Z"/></svg>