<svg id="Layer_1" data-name="Layer 1" xmlns="http://www.w3.org/2000/svg" viewBox="0 0 190 190"><defs><style>.cls-1{fill:#ffe578;}</style></defs><path class="cls-1" d="M13,56.25s4.42,1.4,4.53,1.36,2.62-3.48,2.71-3.53.38,0,.41.2.28,4.58.28,4.58,4.27,1.51,4.31,1.6,0,.33-.29.44-4,1.6-4,1.6-.22,4.36-.23,4.45a.39.39,0,0,1-.59.12c-.27-.21-2.69-3.58-2.83-3.55s-4,1.1-4.25,1-.33-.12-.31-.42,2.36-3.54,2.36-3.54-2.25-3.63-2.3-3.88A.38.38,0,0,1,13,56.25Z"/><path class="cls-1" d="M164.5,111.45s6.4,2,6.55,2,3.8-5,3.92-5.1.56.06.6.29.4,6.62.4,6.62,6.18,2.19,6.23,2.32.05.48-.41.63-5.79,2.32-5.79,2.32-.31,6.31-.33,6.44a.57.57,0,0,1-.85.17c-.39-.31-3.9-5.17-4.1-5.13s-5.85,1.59-6.14,1.5-.48-.18-.45-.61c0-.28,3.42-5.12,3.42-5.12s-3.26-5.25-3.33-5.6A.56.56,0,0,1,164.5,111.45Z"/><path class="cls-1" d="M39.35,147.93s9.78,3.1,10,3,5.8-7.71,6-7.81.86.1.91.45.62,10.12.62,10.12,9.45,3.36,9.53,3.55.08.73-.63,1-8.85,3.54-8.85,3.54-.48,9.65-.5,9.84a.88.88,0,0,1-1.3.27c-.6-.48-6-7.91-6.27-7.85s-9,2.43-9.39,2.3-.74-.27-.7-.94c0-.42,5.23-7.83,5.23-7.83s-5-8-5.09-8.57A.84.84,0,0,1,39.35,147.93Z"/><path class="cls-1" d="M127.43,42.79s5,1.58,5.11,1.53,3-3.93,3.06-4,.44,0,.46.23.32,5.16.32,5.16,4.82,1.71,4.86,1.81,0,.37-.32.5-4.51,1.81-4.51,1.81-.25,4.92-.26,5a.45.45,0,0,1-.66.13c-.31-.24-3.05-4-3.2-4s-4.57,1.24-4.79,1.17-.38-.14-.36-.48,2.67-4,2.67-4-2.54-4.09-2.6-4.37A.42.42,0,0,1,127.43,42.79Z"/><path class="cls-1" d="M43.92,33.49s5,1.58,5.11,1.54,3-3.93,3.06-4,.44.05.46.22.32,5.17.32,5.17,4.82,1.71,4.86,1.81,0,.37-.32.49-4.51,1.81-4.51,1.81-.25,4.92-.26,5a.45.45,0,0,1-.66.14c-.31-.25-3-4-3.2-4S44.21,42.94,44,42.88s-.38-.14-.36-.49,2.67-4,2.67-4S43.76,34.31,43.7,34A.44.44,0,0,1,43.92,33.49Z"/><path class="cls-1" d="M14.19,96.44S19.18,98,19.3,98s3-3.93,3.06-4,.44.05.46.23.32,5.17.32,5.17S28,101.1,28,101.2s0,.37-.32.49-4.51,1.81-4.51,1.81-.25,4.92-.26,5a.45.45,0,0,1-.66.14c-.31-.25-3.05-4-3.2-4s-4.57,1.24-4.79,1.17-.38-.14-.36-.48,2.67-4,2.67-4S14,97.26,14,97A.44.44,0,0,1,14.19,96.44Z"/><path class="cls-1" d="M83.89,178.68s2.5.79,2.56.77,1.48-2,1.53-2,.22,0,.23.11.16,2.58.16,2.58,2.41.86,2.43.91,0,.19-.16.25-2.26.9-2.26.9-.12,2.46-.13,2.51a.22.22,0,0,1-.33.07c-.15-.12-1.52-2-1.6-2s-2.28.62-2.4.59a.21.21,0,0,1-.17-.25c0-.1,1.33-2,1.33-2s-1.27-2-1.3-2.19A.22.22,0,0,1,83.89,178.68Z"/><path class="cls-1" d="M7.92,145.19s2.5.79,2.56.77S12,144,12,144s.22,0,.24.11.15,2.59.15,2.59,2.42.85,2.44.9,0,.19-.16.25-2.26.9-2.26.9-.12,2.46-.13,2.51a.22.22,0,0,1-.33.07c-.16-.12-1.53-2-1.6-2s-2.29.62-2.4.59-.19-.07-.18-.25,1.34-2,1.34-2-1.27-2.05-1.3-2.19A.22.22,0,0,1,7.92,145.19Z"/><path class="cls-1" d="M157.75,76.74s2.5.79,2.56.77,1.48-2,1.53-2,.22,0,.23.11.16,2.59.16,2.59,2.41.85,2.43.9,0,.19-.16.25-2.26.9-2.26.9-.12,2.46-.13,2.51a.22.22,0,0,1-.33.07c-.15-.12-1.52-2-1.6-2s-2.28.62-2.39.59-.19-.07-.18-.25,1.33-2,1.33-2-1.27-2-1.3-2.19A.22.22,0,0,1,157.75,76.74Z"/><path class="cls-1" d="M120.72,160.24s5,1.59,5.11,1.54,3-3.93,3.06-4,.44,0,.46.23.32,5.16.32,5.16,4.82,1.71,4.86,1.81,0,.37-.32.5-4.51,1.8-4.51,1.8-.25,4.92-.26,5a.45.45,0,0,1-.66.14c-.31-.24-3-4-3.2-4s-4.57,1.25-4.79,1.18-.38-.14-.36-.48,2.67-4,2.67-4-2.54-4.09-2.6-4.37A.44.44,0,0,1,120.72,160.24Z"/><path class="cls-1" d="M124,22.56s-11.72.71-13,0c-.61-.36,5.49-9.31,5.49-9.31l-6.82,8c-.67-.11-8-16-8-16s6.3,16.52,6.14,16.7-9.55-.46-9.55-.46l9.44,1.81L96.44,32.84s11.73-8.72,12-8.64-2.78,5.16-2.78,5.16,3.48-4.7,3.63-4.86,7.86,17.88,7.86,17.88-6.76-17.72-6.64-17.86A46.85,46.85,0,0,1,114.8,27s-4-3.17-3.9-3.31S124,22.56,124,22.56Z"/></svg>