<svg id="Layer_1" data-name="Layer 1" xmlns="http://www.w3.org/2000/svg" viewBox="0 0 310 280"><defs><style>.cls-1{fill:#ffe578;}</style></defs><path class="cls-1" d="M62.07,27.27s2.71,2.06,2.79,2.06,2.68-1.76,2.75-1.77.26.13.23.24S66.9,31,66.9,31s2.58,2.11,2.58,2.18-.06.23-.3.23-3.16.12-3.16.12-1.23,2.95-1.26,3a.3.3,0,0,1-.44-.06c-.13-.22-1-3.14-1.08-3.15s-3.06-.25-3.19-.34a.26.26,0,0,1-.11-.37c.06-.13,2.51-1.86,2.51-1.86s-.66-3.06-.63-3.24S61.92,27.3,62.07,27.27Z"/><path class="cls-1" d="M49.13,93.34s8.19,2.59,8.39,2.52,4.86-6.45,5-6.54.72.08.76.37.52,8.48.52,8.48,7.91,2.81,8,3,.07.61-.53.82-7.41,3-7.41,3-.4,8.07-.42,8.24a.74.74,0,0,1-1.09.22c-.5-.4-5-6.63-5.25-6.58s-7.5,2-7.87,1.93-.61-.23-.58-.79c0-.35,4.38-6.56,4.38-6.56s-4.17-6.72-4.27-7.17A.7.7,0,0,1,49.13,93.34Z"/><path class="cls-1" d="M293.28,97.28s2.5.79,2.56.77,1.48-2,1.53-2,.22,0,.23.11.16,2.58.16,2.58,2.41.86,2.43.91,0,.19-.16.25-2.26.9-2.26.9-.12,2.46-.13,2.51a.22.22,0,0,1-.33.07c-.15-.12-1.52-2-1.6-2s-2.29.62-2.4.58-.19-.07-.18-.24,1.34-2,1.34-2-1.27-2-1.3-2.19A.22.22,0,0,1,293.28,97.28Z"/><path class="cls-1" d="M300.43,159.36s2.5.79,2.56.77,1.48-2,1.53-2,.22,0,.23.11.16,2.59.16,2.59,2.41.85,2.43.9,0,.19-.16.25-2.26.9-2.26.9-.12,2.46-.13,2.51a.22.22,0,0,1-.33.07c-.15-.12-1.52-2-1.6-2s-2.28.62-2.4.59-.18-.07-.17-.25,1.33-2,1.33-2-1.27-2-1.3-2.19A.22.22,0,0,1,300.43,159.36Z"/><path class="cls-1" d="M45.6,124.9s2.5.79,2.56.77,1.48-2,1.53-2a.21.21,0,0,1,.23.11c0,.09.16,2.58.16,2.58s2.41.86,2.43.91,0,.18-.16.25-2.26.9-2.26.9-.12,2.46-.13,2.51a.22.22,0,0,1-.33.07c-.16-.12-1.52-2-1.6-2s-2.29.62-2.4.58-.19-.07-.18-.24,1.34-2,1.34-2-1.27-2-1.3-2.18A.22.22,0,0,1,45.6,124.9Z"/><path class="cls-1" d="M53.27,64s2.49.79,2.55.77,1.48-2,1.53-2,.22,0,.24.11.15,2.58.15,2.58,2.42.86,2.44.91,0,.18-.16.24l-2.26.91s-.13,2.46-.13,2.51a.22.22,0,0,1-.33.07c-.16-.12-1.53-2-1.6-2s-2.29.62-2.4.58-.19-.07-.18-.24,1.34-2,1.34-2-1.28-2-1.3-2.18A.22.22,0,0,1,53.27,64Z"/><path class="cls-1" d="M191.49,33.39s2.49.79,2.55.76,1.48-2,1.53-2,.22,0,.23.12.16,2.58.16,2.58,2.41.86,2.44.91,0,.18-.17.24-2.25.91-2.25.91-.13,2.46-.13,2.51a.22.22,0,0,1-.33.07c-.16-.12-1.53-2-1.61-2s-2.28.62-2.39.59-.19-.07-.18-.24,1.34-2,1.34-2-1.28-2-1.3-2.18A.21.21,0,0,1,191.49,33.39Z"/><path class="cls-1" d="M38.89,191.6s2.5.79,2.56.77,1.48-2,1.53-2,.22,0,.23.12.16,2.58.16,2.58,2.41.86,2.43.91,0,.18-.16.24-2.26.91-2.26.91-.12,2.46-.13,2.51a.22.22,0,0,1-.33.07c-.15-.12-1.52-2-1.6-2s-2.28.62-2.4.59-.18-.07-.17-.24,1.33-2,1.33-2-1.27-2-1.3-2.18A.22.22,0,0,1,38.89,191.6Z"/><path class="cls-1" d="M112.89,31.07s2.49.8,2.55.77,1.48-2,1.53-2,.22,0,.23.12.16,2.58.16,2.58,2.41.85,2.44.9,0,.19-.17.25-2.25.91-2.25.91-.13,2.46-.13,2.51a.22.22,0,0,1-.33.07c-.16-.13-1.53-2-1.61-2s-2.28.62-2.39.59-.19-.07-.18-.24,1.34-2,1.34-2-1.28-2.05-1.3-2.19A.21.21,0,0,1,112.89,31.07Z"/><path class="cls-1" d="M57.36,252.87s2.49.79,2.55.77,1.48-2,1.53-2,.22,0,.23.11.16,2.59.16,2.59,2.41.85,2.43.9,0,.19-.16.25-2.26.91-2.26.91-.12,2.46-.12,2.51a.23.23,0,0,1-.34.06c-.15-.12-1.52-2-1.6-2s-2.28.62-2.39.59-.19-.07-.18-.24,1.33-2,1.33-2-1.27-2.05-1.3-2.19A.23.23,0,0,1,57.36,252.87Z"/><path class="cls-1" d="M138.54,36.88s10.68,3.39,10.94,3.29,6.34-8.42,6.55-8.53.94.11,1,.49.67,11.06.67,11.06,10.33,3.66,10.42,3.87.08.8-.69,1.06S157.75,52,157.75,52s-.52,10.53-.55,10.74a1,1,0,0,1-1.42.3c-.66-.52-6.52-8.65-6.85-8.58s-9.78,2.66-10.26,2.51-.8-.3-.76-1c0-.45,5.72-8.55,5.72-8.55s-5.45-8.76-5.57-9.36A.93.93,0,0,1,138.54,36.88Z"/><path class="cls-1" d="M213.12,42.07s10.82-3,11-3.17.77-10.5.88-10.71.85-.42,1.1-.13S232.64,37,232.64,37s10.66-2.52,10.85-2.39a.84.84,0,0,1,0,1.26c-.51.64-6,8.5-6,8.5s5.27,9.14,5.36,9.33a1,1,0,0,1-1,1c-.84-.08-10.17-3.74-10.41-3.5s-6.78,7.53-7.26,7.67a.86.86,0,0,1-1.2-.45c-.22-.39.17-10.29.17-10.29s-9.32-4.41-9.75-4.84A.94.94,0,0,1,213.12,42.07Z"/><path class="cls-1" d="M273.44,129.11s10.82-3,11-3.17.77-10.5.88-10.71.85-.42,1.1-.13S293,124,293,124s10.66-2.52,10.85-2.39a.85.85,0,0,1,0,1.27c-.51.63-6,8.49-6,8.49s5.27,9.14,5.36,9.33a1,1,0,0,1-1,1c-.84-.08-10.17-3.73-10.41-3.5s-6.78,7.54-7.26,7.67a.84.84,0,0,1-1.19-.45c-.23-.39.16-10.29.16-10.29s-9.32-4.41-9.74-4.84A.93.93,0,0,1,273.44,129.11Z"/><path class="cls-1" d="M178.09,251.68s5.38,4.1,5.54,4.09,5.32-3.48,5.46-3.5.51.25.46.47-1.87,6.42-1.87,6.42,5.12,4.18,5.13,4.32-.12.47-.61.46-6.28.23-6.28.23-2.44,5.88-2.5,6a.56.56,0,0,1-.86-.12c-.27-.43-1.94-6.24-2.14-6.27s-6.1-.48-6.34-.65a.53.53,0,0,1-.22-.75c.1-.25,5-3.69,5-3.69s-1.3-6.08-1.25-6.44A.57.57,0,0,1,178.09,251.68Z"/><path class="cls-1" d="M150.85,4.51s5.37,4.1,5.54,4.09,5.31-3.48,5.45-3.5.51.25.47.48S160.44,12,160.44,12s5.12,4.18,5.12,4.32-.11.47-.6.46-6.28.23-6.28.23-2.44,5.88-2.5,6a.58.58,0,0,1-.87-.12c-.26-.43-1.94-6.23-2.14-6.26s-6.09-.48-6.33-.66a.51.51,0,0,1-.23-.74c.11-.26,5-3.7,5-3.7s-1.31-6.08-1.26-6.44A.57.57,0,0,1,150.85,4.51Z"/><path class="cls-1" d="M51.39,218s10.81-2.95,11-3.17.77-10.51.88-10.71.85-.42,1.1-.13S70.91,213,70.91,213s10.66-2.52,10.85-2.39.5.62,0,1.26-6,8.5-6,8.5,5.27,9.14,5.36,9.33a1,1,0,0,1-1,1c-.84-.08-10.17-3.73-10.41-3.49s-6.78,7.53-7.26,7.67a.86.86,0,0,1-1.2-.45c-.22-.4.17-10.29.17-10.29s-9.32-4.41-9.75-4.85A.92.92,0,0,1,51.39,218Z"/><path class="cls-1" d="M91.55,256.05s2.55,5.29,2.67,5.35,5.49-.6,5.6-.56.3.4.18.55-4,4.23-4,4.23,2.31,5.25,2.26,5.36-.27.32-.65.12-4.94-2.3-4.94-2.3-4.21,3.59-4.3,3.65a.5.5,0,0,1-.62-.43c0-.44,1-5.59.81-5.69s-4.52-2.78-4.64-3a.45.45,0,0,1,.12-.66c.18-.16,5.31-.89,5.31-.89s1.39-5.22,1.57-5.48A.5.5,0,0,1,91.55,256.05Z"/><path class="cls-1" d="M76.87,58.58s11.74-.15,13,.68c.6.39-5.93,9-5.93,9l7.2-7.64c.67.14,7.2,16.38,7.2,16.38s-5.5-16.81-5.33-17,9.52.93,9.52.93l-9.35-2.27,11.74-9.07S92.79,57.79,92.57,57.7s3-5,3-5-3.71,4.52-3.86,4.68-7-18.25-7-18.25,5.9,18,5.77,18.16a44.13,44.13,0,0,1-4.22-2.65S90.13,58,90,58.1,76.87,58.58,76.87,58.58Z"/><path class="cls-1" d="M21.43,104.23s0,11.74-.88,13c-.39.59-8.94-6.07-8.94-6.07l7.52,7.32c-.15.66-16.48,6.94-16.48,6.94s16.89-5.24,17.06-5.06-1.07,9.5-1.07,9.5l2.4-9.31,8.9,11.87s-8-12.26-7.87-12.48,5,3.1,5,3.1-4.47-3.77-4.62-3.93,18.35-6.71,18.35-6.71S22.66,118,22.53,117.9a44.77,44.77,0,0,1,2.72-4.18s-3.41,3.78-3.54,3.69S21.43,104.23,21.43,104.23Z"/><path class="cls-1" d="M151.13,255.66s-11.72.72-13,0c-.62-.36,5.49-9.31,5.49-9.31l-6.83,8c-.67-.1-8-16-8-16s6.3,16.52,6.13,16.71-9.55-.47-9.55-.47l9.45,1.81-11.28,9.63s11.73-8.72,12-8.64-2.78,5.16-2.78,5.16,3.48-4.7,3.62-4.86,7.87,17.89,7.87,17.89-6.77-17.73-6.64-17.86a45.8,45.8,0,0,1,4.34,2.45s-4-3.17-3.91-3.31S151.13,255.66,151.13,255.66Z"/><path class="cls-1" d="M243.79,231s-11.72.71-13-.05c-.62-.36,5.49-9.31,5.49-9.31l-6.83,8c-.67-.11-8-16-8-16s6.3,16.52,6.13,16.7-9.55-.46-9.55-.46l9.45,1.81L216.2,241.3s11.73-8.72,12-8.64-2.78,5.16-2.78,5.16,3.48-4.7,3.63-4.86,7.86,17.88,7.86,17.88-6.76-17.72-6.64-17.86a48.19,48.19,0,0,1,4.34,2.46s-4-3.17-3.91-3.31S243.79,231,243.79,231Z"/><path class="cls-1" d="M246.34,93.37s8.39-8.22,9.88-8.5c.7-.13,1.95,10.63,1.95,10.63L258.1,85c.58-.36,16.52,6.87,16.52,6.87S259,83.52,259,83.27s7.52-5.9,7.52-5.9l-8.32,4.82,2.21-14.67s-3.15,14.27-3.37,14.36-1.28-5.72-1.28-5.72.45,5.83.44,6-17.66-8.36-17.66-8.36,16.73,9,16.73,9.14a45.07,45.07,0,0,1-4.89,1s5.09-.21,5.12-.06S246.34,93.37,246.34,93.37Z"/><path class="cls-1" d="M299,184.2s-11.72.71-13,0c-.61-.36,5.49-9.32,5.49-9.32l-6.82,8c-.68-.11-8-16-8-16s6.3,16.52,6.14,16.7-9.55-.47-9.55-.47l9.44,1.81-11.28,9.63s11.73-8.71,12-8.64-2.78,5.17-2.78,5.17,3.48-4.7,3.63-4.86S292.06,204,292.06,204s-6.76-17.72-6.64-17.86a45.8,45.8,0,0,1,4.34,2.45s-4-3.17-3.9-3.3S299,184.2,299,184.2Z"/><path class="cls-1" d="M61.92,163s-11.73.72-13-.05c-.62-.36,5.49-9.31,5.49-9.31l-6.83,8c-.67-.1-8-16-8-16s6.3,16.52,6.13,16.71-9.55-.47-9.55-.47l9.45,1.81-11.28,9.63s11.73-8.72,12-8.64-2.78,5.16-2.78,5.16,3.48-4.7,3.62-4.86S55,182.83,55,182.83,48.22,165.1,48.35,165a45.8,45.8,0,0,1,4.34,2.45s-4-3.17-3.91-3.31S61.92,163,61.92,163Z"/></svg>