<svg id="Layer_1" data-name="Layer 1" xmlns="http://www.w3.org/2000/svg" viewBox="0 0 163.09 146.57"><defs><style>.cls-1{fill:#0dff00;}</style></defs><path class="cls-1" d="M156.72,56.37c-3.21-10.06-15.89-10.8-33.43-11.83-4.26-.25-10.32-.6-13.44-1.11-1.39-2.78-3.47-8.32-4.93-12.21C98.82,15,94.42,3.22,83.81,3.11h-.12c-10.53,0-15.16,11.61-21.58,27.67-1.54,3.86-3.73,9.36-5.18,12.11-3.13.45-9.2.68-13.46.85-17.56.67-30.25,1.15-33.67,11.14S16.2,73,29.87,84c3.24,2.61,7.84,6.32,10.08,8.54-.56,3.07-2.16,8.66-3.3,12.6C31.84,121.9,28.36,134,37,140.33a12.6,12.6,0,0,0,7.52,2.36h0c6.72,0,14.42-4.62,26.43-12.16,3.61-2.27,8.75-5.5,11.57-6.87,2.79,1.43,7.86,4.76,11.42,7.1,12,7.87,19.68,12.7,26.47,12.7a12.7,12.7,0,0,0,7.28-2.21c8.79-6.14,5.56-18.31,1.1-35.16-1-4-2.54-9.59-3-12.67,2.29-2.17,7-5.79,10.26-8.34C149.94,74.33,160,66.56,156.72,56.37ZM115.85,90c-2.12,6.17,11.55,39.23,6.14,43s-32.7-19.76-39.33-19.83-34.42,22.91-39.74,19,9-36.66,7-42.88S17.14,64.3,19.26,58.12s38.28-2.89,43.68-6.67S77.07,13,83.71,13.11s14.63,34.87,20,38.75,41.55,1.34,43.54,7.56S118,83.86,115.85,90Z"/></svg>