<svg id="Layer_1" data-name="Layer 1" xmlns="http://www.w3.org/2000/svg" viewBox="0 0 163.09 146.57"><defs><style>.cls-1{fill:red;}</style></defs><path class="cls-1" d="M154.45,55.43C151.23,45.37,138.56,44.63,121,43.6c-4.26-.25-10.32-.6-13.44-1.11-1.39-2.78-3.47-8.32-4.93-12.21C96.54,14,92.14,2.27,81.53,2.17h-.12c-10.53,0-15.16,11.6-21.58,27.67C58.29,33.7,56.1,39.2,54.65,42c-3.13.45-9.2.68-13.46.84C23.63,43.47,10.94,44,7.52,53.94S13.92,72,27.59,83.06c3.24,2.62,7.84,6.33,10.08,8.55-.56,3.07-2.16,8.66-3.3,12.6-4.81,16.75-8.29,28.86.38,35.18a12.69,12.69,0,0,0,7.52,2.36h0c6.72,0,14.43-4.62,26.43-12.16,3.61-2.27,8.75-5.5,11.57-6.87,2.79,1.43,7.86,4.76,11.42,7.1,12,7.87,19.68,12.7,26.47,12.7a12.67,12.67,0,0,0,7.28-2.21c8.79-6.14,5.57-18.32,1.1-35.16-1.05-4-2.54-9.59-3-12.67,2.29-2.17,7-5.79,10.26-8.34C147.66,73.39,157.7,65.62,154.45,55.43ZM113.57,89.1c-2.11,6.17,11.55,39.23,6.14,43S87,112.35,80.38,112.28s-34.42,22.91-39.74,19,9-36.66,7-42.88S14.86,63.36,17,57.18s38.28-2.89,43.68-6.67S74.8,12.1,81.43,12.17,96.06,47,101.38,50.92s41.56,1.34,43.54,7.55S115.68,82.92,113.57,89.1Z"/></svg>