<svg id="Layer_1" data-name="Layer 1" xmlns="http://www.w3.org/2000/svg" xmlns:xlink="http://www.w3.org/1999/xlink" viewBox="0 0 137.96 123.98"><defs><style>.cls-1{fill:url(#radial-gradient);}.cls-2{opacity:0.05;}.cls-3{fill:#fff;opacity:0.8;}</style><radialGradient id="radial-gradient" cx="216.07" cy="182.95" r="63.21" gradientTransform="translate(-143.85 -111) scale(0.99 0.97)" gradientUnits="userSpaceOnUse"><stop offset="0" stop-color="#fff200"/><stop offset="0.37" stop-color="#fff200"/><stop offset="0.84" stop-color="#ffb600"/><stop offset="0.9" stop-color="#fcb102"/><stop offset="0.96" stop-color="#f4a309"/><stop offset="1" stop-color="#ed970f"/></radialGradient></defs><path class="cls-1" d="M106.68,121.76c-5.4,3.77-32.7-19.77-39.33-19.83s-34.42,22.91-39.74,19,9-36.66,7-42.88S1.83,53,4,46.83s38.28-2.9,43.68-6.67S61.76,1.75,68.4,1.81,83,36.69,88.35,40.57s41.55,1.34,43.54,7.55-29.24,24.45-31.35,30.62S112.08,118,106.68,121.76Z"/><path class="cls-2" d="M100.36,42.79C97.27,75.53,66.86,101.54,29,103.57c-2.24,8.25-3.74,15.67-1.38,17.39,5.33,3.88,33.12-19.1,39.75-19s33.92,23.6,39.33,19.83-8.26-36.84-6.15-43,33.34-24.4,31.36-30.61C130.52,43.85,112.93,43.72,100.36,42.79Z"/><path class="cls-3" d="M67.65,4.25c-.25,0-2.77,5.21-3.81,7.64C60.69,19.26,58,26.78,55.08,34.22c-.95,2.46-2,4.9-3.74,6.62a12.13,12.13,0,0,1-5.76,2.9,38.33,38.33,0,0,1-6.76.74c-6.55.32-13.2.23-19.74.38a35.08,35.08,0,0,0-8.59,1.31A15.62,15.62,0,0,0,6,48.5c0,.24,3.53-.67,4.87-1a34.16,34.16,0,0,1,8.35-.84c6.57-.15,13,.35,19.6,0a63,63,0,0,0,8.93-.85,13.47,13.47,0,0,0,6.41-3.25,16.63,16.63,0,0,0,3.93-7.38c2.84-9.77,3.63-12.33,7-22.74C65.91,9.92,67.89,4.23,67.65,4.25Z"/></svg>