<svg xmlns="http://www.w3.org/2000/svg" viewBox="0 0 118.23 89.97"><defs><style>.cls-1{isolation:isolate;}.cls-2{fill:#cdba97;}.cls-3{fill:#b79f88;}.cls-4{fill:#8e7250;}.cls-5{fill:#a8916f;}.cls-6{fill:#a38a73;}.cls-32,.cls-7{opacity:0.4;}.cls-8{fill:#a38e72;}.cls-9{fill:#c1a68c;}.cls-10,.cls-29,.cls-33{opacity:0.5;}.cls-11{fill:#9a836c;}.cls-12{fill:#a38671;}.cls-13,.cls-30,.cls-32,.cls-36,.cls-39{mix-blend-mode:multiply;}.cls-14{fill:#c4b29d;}.cls-15{fill:#7d7e81;}.cls-16{fill:#72737c;}.cls-17{fill:#a7a9ac;}.cls-18{fill:#9d9fa5;}.cls-19{fill:#bec0c2;}.cls-20{fill:#b4b4b4;}.cls-21{fill:#d8d9da;}.cls-22{fill:#c7c8ca;}.cls-23{fill:#77777d;}.cls-24{fill:#707377;}.cls-25{fill:#58595b;}.cls-26{fill:#6e6c70;}.cls-27{fill:#b9c0b4;}.cls-28{fill:#d6d3ce;}.cls-29{fill:#593611;}.cls-30{opacity:0.6;}.cls-31{fill:#beaa8c;}.cls-33{mix-blend-mode:screen;}.cls-34{fill:#937e67;}.cls-35{fill:#e4d3aa;}.cls-36{opacity:0.2;}.cls-37{fill:#a38973;}.cls-38{fill:#ad9577;}.cls-39,.cls-41{opacity:0.3;}.cls-40{fill:#513a2d;}.cls-41{fill:#fff;}</style></defs><g class="cls-1"><g id="Layer_1" data-name="Layer 1"><path class="cls-2" d="M13.64,5.46c4.22-1.31,12.88.36,13.14.23C32.39,3,50.39,2.94,53.41,2.82S63.18,4.37,63.65,4c1.25-.94,8.62-1.56,10.67-1.77a60.74,60.74,0,0,1,11.82-.53c2.39.23,4.79.48,7.19.7.88.08,3.94.73,4.29.61a38.48,38.48,0,0,1,9.06-1.37,29.87,29.87,0,0,1,8,1C116,4,115.85,8.69,116,10.15c-.15.29-.31.58-.48.86a20.3,20.3,0,0,1-2.5,3.65c-3.61,3.53-5.35,3.76-5.32,4-.09,3,.38,6.17-.84,9-1.53,3.79-12.49,14-16.33,16.23a12,12,0,0,0-3.28,2.3c-.56.64-1.55,1.45-1.56,2.32,0,2.36-3.14,5.55-5,8a56.25,56.25,0,0,1-6.28,6.73c-2.92,2.79-6.65,4.82-10.13,6.87-.79.47-1.63.92-2.47,1.36a24.59,24.59,0,0,1-4.19-.11,42.34,42.34,0,0,1-7.35-1.78C48.5,69.12,46.74,68.55,45,68c-.71-.9-1.53-1.74-2.08-2.46a60.89,60.89,0,0,1-5.31-8.75,64.7,64.7,0,0,0-3.22-6.11,10.07,10.07,0,0,0-2.25-2.53c-1.42-1-3.1-1.73-4.6-2.67-4.22-2.66-7.93-6.05-12-8.94-.88-.63-1.76-1.32-2.65-2-1.6-1.71-4.94-11-6-14.34A28.85,28.85,0,0,1,5.67,10.11c0-.3.06-.6.1-.9C8,7.14,10.74,6.37,13.64,5.46Z"/><path class="cls-3" d="M111.76,5.81C112.61,7,114.2,9.57,116,10c-.12-1.57,0-6-1.27-7.4a44.25,44.25,0,0,0-5.56-.91q.48.7.93,1.44C110.62,4.06,111.15,5,111.76,5.81Z"/><path class="cls-4" d="M99.75,9a2,2,0,0,1-.19.43A21.41,21.41,0,0,0,101.27,12c1.93,2.57,3.91,5.1,6.85,6.35A19.74,19.74,0,0,0,113,14.66,20.3,20.3,0,0,0,115.5,11c.1-.16.19-.32.28-.49-1.5-.21-2.88-1.92-3.66-3.1s-1.5-2.54-2.24-3.81c-.38-.66-.82-1.29-1.25-1.93a14.18,14.18,0,0,0-1.95,0c-1.62.12-3.34.24-5,.48a37.69,37.69,0,0,1-1.09,4.52C100.3,7.44,100,8.22,99.75,9Z"/><path class="cls-5" d="M102.12,24.43a42.47,42.47,0,0,1-5.91-7.33c-.75-1.24-1.63-2.47-2.29-3.77,0,2.35-.33,4.72-.5,7.06-.19,2.62-.31,5.24-.43,7.86-.2,4.51.45,9,.7,13.42,4.52-3.65,11.06-10.08,12.85-13.34a8,8,0,0,1-1.61-1.17C104,26.29,103,25.37,102.12,24.43Z"/><path class="cls-4" d="M75.81,7c-.75,2.95-1.92,5.77-2.65,8.72-1.65,6.62.46,13.42.47,20.13.37.42.73.84,1.1,1.25a62.84,62.84,0,0,0,7,6.89,9.12,9.12,0,0,0,3.48,2,14.67,14.67,0,0,0,2,.31h0A12,12,0,0,1,90.51,44a25.67,25.67,0,0,0,2.83-2,106.09,106.09,0,0,1-1-13.32c0-2.89.17-5.78.39-8.67.1-1.37.22-2.74.35-4.12a21.5,21.5,0,0,1,.45-3.49,19.81,19.81,0,0,1-.78-3.1c-.47-2.35-1.18-4.67-1.56-7l-5-.49A48.64,48.64,0,0,0,76.88,2c0,.14-.07.28-.1.42C76.45,3.94,76.19,5.48,75.81,7Z"/><path class="cls-6" d="M99.19,8.67c.07-.17.15-.33.19-.45.28-.8.6-1.58.87-2.37.41-1.21.75-2.44,1.12-3.66a21.91,21.91,0,0,0-3.58.8,16.71,16.71,0,0,0,.61,3.72A13.38,13.38,0,0,0,99.19,8.67Z"/><path class="cls-4" d="M37.34,39.88c1-1.58,1.84-3.3,2.75-5a14.57,14.57,0,0,1,1.4-2.71l-.77-.62a.8.8,0,0,1-.41-.33A40.64,40.64,0,0,1,35,26.6,38.77,38.77,0,0,1,32.23,23c-.8-1.16-1.72-2.29-2.42-3.52-1.26-2.21-1.65-4.85-2.12-7.32-.26-1.33-.64-2.65-.82-4a12.07,12.07,0,0,1-2.35,1.7c-1.13.74-2.39,1.29-3.57,1.94s-2.57,1.35-3.8,2.11c-.61.37-1.32,1.19-2,1.35,0,1.63,0,3.26-.15,4.88-.19,2.88-.32,5.78-.64,8.65a35.84,35.84,0,0,1-.65,4.13c-.14.59-.27,1.22-.46,1.82.78.61,1.55,1.2,2.33,1.76,4.06,2.89,7.77,6.28,12,8.94.95.59,2,1.09,3,1.64A32.81,32.81,0,0,0,37.34,39.88Z"/><g class="cls-7"><path class="cls-3" d="M46.36,53.62c.16-3.62.49-7.22.6-10.84a35.54,35.54,0,0,0-.07-5A11.58,11.58,0,0,1,46.83,34a21.1,21.1,0,0,1-3.67-1.14,7.32,7.32,0,0,1-.78-.41c-1,1.29-1.63,2.75-2.5,4.11s-1.94,3-2.93,4.53c-1.56,2.38-3.44,4.86-6,6.31a12.2,12.2,0,0,1,1.13.74,10.07,10.07,0,0,1,2.25,2.53,64.7,64.7,0,0,1,3.22,6.11,60.89,60.89,0,0,0,5.31,8.75c.5.65,1.21,1.4,1.87,2.2.14-1.51.42-3,.62-4.49C45.83,60.05,46.22,56.82,46.36,53.62Z"/></g><path class="cls-4" d="M74.46,37.79a84,84,0,0,1-6.72-8.32c-.95-1.34-1.9-2.69-2.78-4.08A11.54,11.54,0,0,1,63.27,22c-.06-.16-.11-.31-.16-.47l0,0s0,.05,0,.08a.28.28,0,0,1-.12.14c-.35.22-.67,1.63-.87,2a10.53,10.53,0,0,1-1.1,1.78,27.51,27.51,0,0,1-3.39,3.52,43,43,0,0,1-4.06,3.18l-.65.47c-.61.52-1.26,1-1.87,1.5s-.51.51-1.09.38c-.76-.18-1.53-.34-2.29-.51l-.34-.08a34.1,34.1,0,0,0,.18,4.74c.09,1.57,0,3.15,0,4.72,0,2.57.06,5.15-.16,7.71v0a1.79,1.79,0,0,0,0,.23,13.81,13.81,0,0,0,1.33,2.1c.75,1,1.61,1.92,2.35,2.93,1.39,1.91,2.41,4,3.85,5.91a92,92,0,0,0,7.29,9c.77-.4,1.54-.81,2.26-1.24,3.48-2.05,7.21-4.08,10.13-6.87a56.25,56.25,0,0,0,6.28-6.73c1.83-2.45,4.93-5.64,5-8,0-.76.78-1.48,1.34-2.08a8.22,8.22,0,0,1-4.81-1.45A51.62,51.62,0,0,1,74.46,37.79Z"/><path class="cls-8" d="M53.88,62.26c-1.62-2.44-2.89-5.07-4.78-7.34a27.32,27.32,0,0,1-2-2.42q-.08.59-.18,1.17c-.54,3.06-.74,6.19-1.17,9.27-.22,1.67-.53,3.36-.66,5.06q2.58.87,5.19,1.65a42.34,42.34,0,0,0,7.35,1.78,22.65,22.65,0,0,0,3.57.13C58.24,69,56,65.48,53.88,62.26Z"/><g class="cls-7"><path class="cls-9" d="M94.38,12.61c.61,1.19,1.37,2.33,2.05,3.47a46.78,46.78,0,0,0,5.75,7.81A18.93,18.93,0,0,0,106.7,28c0-.1.1-.2.14-.3,1.22-2.86.75-6,.84-9,0,0,0-.06.06-.1-2.86-1.16-5.17-3.88-7-6.21a17.26,17.26,0,0,1-2.88-5.23,12,12,0,0,1-.38-4.11c-.67,0-3.35-.55-4.17-.62l-1.82-.18c.51,2.09,1.15,4.15,1.6,6.26A16.67,16.67,0,0,0,94.38,12.61Z"/></g><path class="cls-8" d="M36.41,8.56a50.39,50.39,0,0,0,.33,8c.21,1.32.56,2.62.77,3.95s.41,2.89.7,4.31c.37,1.73.57,3.76,1.46,5.34a20.52,20.52,0,0,0,4,2.14,24.17,24.17,0,0,0,3.4,1l1.92.46c.8.18,1.16.33,1.86-.15l.27-.19A16.25,16.25,0,0,1,53,32c1.32-1.05,2.63-2.11,3.89-3.24,2.26-2,4.47-4.17,5.1-7.22.1-.52.19-1,.28-1.58s.27-.85.31-1.3a14.13,14.13,0,0,0-.1-1.46c0-.57,0-1.14,0-1.71,0-1.09,0-2.18,0-3.27,0-2,.1-4.1.28-6.13.07-.69.14-1.39.25-2.08-1.88-.18-7-1.34-9.54-1.23-1.94.07-10.08.12-17.13.86A33.37,33.37,0,0,1,36.41,8.56Z"/><g class="cls-10"><path class="cls-6" d="M70.14,17.77a15.1,15.1,0,0,0,1.62,2.74,19.32,19.32,0,0,1,.8-4.25c.86-3.24,2.17-6.36,2.93-9.63.33-1.45.55-3,.87-4.58l-2,.21A72.73,72.73,0,0,0,64.6,3.62c.56,3,2,5.75,3,8.59A55.56,55.56,0,0,0,70.14,17.77Z"/></g><g class="cls-10"><path class="cls-11" d="M28.29,11.45c.49,2.5.83,5.14,2,7.43.17.33.35.64.55,1a10,10,0,0,1,1-1.24c.61-.81,1.22-1.63,1.76-2.49s.92-1.48,1.35-2.25c.24-.44.47-.94.73-1.41-.05-.84-.08-1.68-.07-2.52,0-1.37.06-2.75,0-4.12a17,17,0,0,0-.2-2,34.38,34.38,0,0,0-8.11,1.69c.06.74.12,1.49.22,2.23C27.7,9,28,10.19,28.29,11.45Z"/></g><g class="cls-7"><path class="cls-3" d="M36,27a24.55,24.55,0,0,0,3.18,2.78,15.77,15.77,0,0,1-1.06-4c-.31-1.38-.49-2.77-.75-4.16-.23-1.2-.58-2.36-.84-3.55a37.64,37.64,0,0,1-.68-4.32,17.7,17.7,0,0,1-1.31,2.12c-.59.83-1.21,1.64-1.82,2.44s-.95,1.4-1.47,2c.56.86,1.18,1.68,1.73,2.54A25.79,25.79,0,0,0,36,27Z"/></g><path class="cls-3" d="M6.93,20.17c1,3.32,4.27,12.38,5.9,14.26a19.55,19.55,0,0,0,.65-2.53,38.37,38.37,0,0,0,.42-4.15c.13-2.66.27-5.33.41-8a67.63,67.63,0,0,0,0-8.66c-.13-1.92-.23-3.81-.45-5.69l-.19,0c-2.9.91-5.6,1.68-7.87,3.75,0,.3-.07.6-.1.9A28.85,28.85,0,0,0,6.93,20.17Z"/><g class="cls-10"><path class="cls-12" d="M14.93,10.72c.1,1.36.16,2.72.17,4.09.73-.54,1.73-.89,2.49-1.34l3.51-2A40.06,40.06,0,0,0,24.69,9a14.17,14.17,0,0,1,2.1-1.63c-.05-.55-.07-1.09-.07-1.64-.78,0-8.51-1.41-12.69-.35.08.47.16.93.25,1.4A38.18,38.18,0,0,1,14.93,10.72Z"/></g><path class="cls-3" d="M63.22,7.76a53.44,53.44,0,0,0,0,9.55,16.78,16.78,0,0,0,.6,4.3,15.78,15.78,0,0,0,2.08,4c.87,1.28,1.74,2.56,2.65,3.82,1.54,2.12,3.16,4.18,4.86,6.16-.36-3.07-.67-6.15-1.08-9.23-.21-1.56-.48-3.17-.54-4.76A26,26,0,0,1,69.85,18c-.9-2-2.07-3.91-2.8-6-.63-1.77-1.41-3.48-2.07-5.24a13.33,13.33,0,0,1-.79-2.91.76.76,0,0,1,0-.15,2.34,2.34,0,0,0-.53.27h0c0,.18,0,.32,0,.39C63.49,5.55,63.35,6.65,63.22,7.76Z"/><g class="cls-13"><path class="cls-14" d="M6.93,20.17c1,3.36,4.36,12.63,6,14.34l.37.28c.08-.22.17-.44.24-.66a22.87,22.87,0,0,0,1.57-6.65c.08-1.89,0-3.81.22-5.69.13-.94.3-2.51,1.25-3,2-1.09,4.83,1.42,6.22,2.53C25,23.07,27,25.13,29.11,27.05c2.9,2.61,7.71,4.82,8.59,9,.48,2.27-1.21,4.34-2.42,6.06a27.52,27.52,0,0,1-4.64,5.06,14.45,14.45,0,0,1,1.49.95,10.07,10.07,0,0,1,2.25,2.53,64.7,64.7,0,0,1,3.22,6.11,60.89,60.89,0,0,0,5.31,8.75c.55.72,1.37,1.56,2.08,2.46l.18.06c.19-.66.4-1.31.61-2,.43-1.34,1-2.67,1.34-4a4.08,4.08,0,0,1,.76-2c.46-.43,1.15-.07,1.62.11a9.63,9.63,0,0,1,2.79,1.7c1.63,1.38,3,3.06,4.62,4.45-1.55-4.7-4.84-8.61-6.59-13.24-.68-1.81-1.06-3.64-.2-5.47a13.66,13.66,0,0,1,3.63-4.27c1.71-1.46,3.37-3,5.11-4.42,1.29-1,2.8-2,4.52-1.58a9.72,9.72,0,0,1,3,1.42c1.21.79,2.44,1.53,3.69,2.24Q74,43.16,78,45.25a17.85,17.85,0,0,1,5.13,3.38,4.64,4.64,0,0,1,1.26,2.17,4.42,4.42,0,0,1,.05,1,6.61,6.61,0,0,0,1.27-3.18c0-.87,1-1.68,1.56-2.32l.06-.06a9.37,9.37,0,0,1-2.7-.11,10.55,10.55,0,0,1-5.91-4.32,26.21,26.21,0,0,1-4.27-13.08c-.08-1.17-.07-2.33-.06-3.5a8.48,8.48,0,0,1,.3-2.61,2.51,2.51,0,0,1,2.89-1.92A28.65,28.65,0,0,1,85,23.29c1.26.57,2.55,1.09,3.81,1.67a6,6,0,0,1,1.89,1.19C91.92,27.41,92,29.38,92.3,31c.17.94.33,1.88.47,2.82V33c0-2.39.06-5.19,1.2-7.36s3.54-2.21,5.69-1.29a32.11,32.11,0,0,1,3.86,2.11,32.94,32.94,0,0,0,2.87,2.14,7.39,7.39,0,0,0,.45-.88c1.22-2.86.75-6,.84-9,0-.08.15-.17.47-.34a12,12,0,0,1-4.36-3.69,11.91,11.91,0,0,1-2.22-3.73,2.73,2.73,0,0,1,.82-2.56c.81-1,1.54-2,2.82-2.41a5.6,5.6,0,0,1,3.69.62c2.37,1.11,4.4,3,6.84,4l.24-.45c-.13-1.46,0-6.13-1.27-7.52a29.87,29.87,0,0,0-8-1A38.48,38.48,0,0,0,97.62,3c-.35.12-3.41-.53-4.29-.61-2.4-.22-4.8-.47-7.19-.7a60.74,60.74,0,0,0-11.82.53c-2,.21-9.42.83-10.67,1.77-.47.34-7.13-1.34-10.24-1.21S32.39,3,26.78,5.69c-.26.13-8.92-1.54-13.14-.23-2.9.91-5.6,1.68-7.87,3.75,0,.3-.07.6-.1.9A28.85,28.85,0,0,0,6.93,20.17Zm31.6,1.18a26.3,26.3,0,0,1,.67-5.6,4.2,4.2,0,0,1,2.54-3.21c1.85-.54,4,.12,5.72.73a37.09,37.09,0,0,1,7.06,3.42c1.81,1.11,4,2.3,5.2,4.13s1.65,2.2.66,4a20.48,20.48,0,0,1-5.13,5.45c-1.1.79-3.18,1.94-3.84,3.14,0,0,.14.62-.39.69a7.39,7.39,0,0,1-1.88.07,21.69,21.69,0,0,1-3-.77A12.35,12.35,0,0,1,41,31C38.41,28.62,38.35,24.63,38.53,21.35Z"/></g><polygon class="cls-15" points="51.48 86.68 50.41 86.5 45.04 68.05 45.04 63.04 57.58 66.8 51.48 86.68"/><path class="cls-16" d="M45,66.77l4.57,1A2.43,2.43,0,0,0,50.87,70a6.44,6.44,0,0,0,2.55.75.89.89,0,0,1,.67.29.93.93,0,0,1,0,.68l-2.85,14.6a3.79,3.79,0,0,0,.4-.3l5.74-18.75a2.23,2.23,0,0,0-.45-.65l-2.83-.85a12.63,12.63,0,0,1-1.39-.1,8.91,8.91,0,0,1-3.08-1.24L45,63Z"/><path class="cls-17" d="M57.57,66.8l-6.08-.54L45,63,35,47.1a22,22,0,0,1,9.86,0,55.52,55.52,0,0,0,9.48,1.42l1.25,2.33Z"/><path class="cls-18" d="M44.4,47.38c1.36.47,2.42,1.58,3.76,2.12,1,.42,2.16.48,3.22.81a3.07,3.07,0,0,1,2.29,2.17c0,.3,0,.65.25.86s.52.2.73.37a1.19,1.19,0,0,1,.31.71c.75,4,1.49,8.21.84,12.24a3.69,3.69,0,0,1,1.15,0,6.94,6.94,0,0,0,0-.79,81.91,81.91,0,0,0-1-12,7.43,7.43,0,0,0-1.8-4.15,7.06,7.06,0,0,0-2.36-1.37,30.25,30.25,0,0,0-14.61-2C39.18,47.78,42.07,46.58,44.4,47.38Z"/><path class="cls-19" d="M51.49,86.63s4.29-.35,5.37-1.07,6.8-10,8.6-13.43,5.37-10.75,5.37-10.75L72.08,58l1.61-5.55.18-5.38-.18-2.15,3.77-3,1.61-1.79.36-2.87.35-2.68,2.33-3.77.18-2L62.77,13.38v5.2l.36,2.68L64,25.38,57.4,46.87l-1.62,4.66.54,3.58,1.25,11.64-1.72,5.64Z"/><path class="cls-20" d="M63.88,26.22c.81.3,1.47-.74,1.52-1.6s0-1.87.64-2.4a2.15,2.15,0,0,1,2.21.1,9.71,9.71,0,0,1,4.48,4.6,3.24,3.24,0,0,0,.74,1.19c.72.6,1.78.32,2.66,0A3.12,3.12,0,0,1,77.94,31c.11,1.18-.11,2.38.09,3.55.32,1.89,1.69,3.83.81,5.54a8.09,8.09,0,0,1-.65,1l.88-1,.36-2.87.35-2.68,2.33-3.77.18-2-4.66-3.67c-.39-.16-.78-.32-1.14-.51-2-1.05-3.48-2.86-5.11-4.42l0,0-3.74-2.95a25.79,25.79,0,0,0-4.85-2.48V15a76.16,76.16,0,0,1,1,9.39l.22,1-.15.5C63.87,26,63.88,26.1,63.88,26.22Z"/><path class="cls-15" d="M35,47.1a25.9,25.9,0,0,1,1.43-4.84c.9-2,2.69-7.7,2.69-7.7L39.84,29s7.53-4.66,10.75-5.2a58.18,58.18,0,0,1,7.7-.53L64,25.43,55.78,51.57c.71-.74-.35-2.08-1.23-2.62a4.35,4.35,0,0,0-3-.63C50.28,48.53,40.55,45.23,35,47.1Z"/><path class="cls-17" d="M62.77,16.3c.08.24.16.47.25.69,1.85-.73,4,.05,5.53,1.29s2.73,2.87,4.19,4.21a10.61,10.61,0,0,1,.7,7.84A7.09,7.09,0,0,0,74.5,25a14.6,14.6,0,0,1,5.41,2.81L81.59,29a3.32,3.32,0,0,1,.63.55l.07-.74L63.14,13.72a1.92,1.92,0,0,0-.37.48Z"/><path class="cls-21" d="M56.86,85.56c1-.69,6.39-9.35,8.38-13a45.23,45.23,0,0,1-4.59,6.57,16.24,16.24,0,0,1-7,4.86,2.28,2.28,0,0,0-.89.42,2.13,2.13,0,0,0-.43.63l-.85,1.62C51.75,86.61,55.82,86.25,56.86,85.56Z"/><path class="cls-22" d="M54.82,50.06a1.25,1.25,0,0,0-1-1A9,9,0,0,0,52.36,49a8.22,8.22,0,0,1-1.2-.24l-4.79-1.2a18.91,18.91,0,0,1,7.81,1.13,1.88,1.88,0,0,1,.38.18A1,1,0,0,1,54.82,50.06Z"/><path class="cls-21" d="M53.25,82.06a10.34,10.34,0,0,1-1,3.35,8.47,8.47,0,0,1,2.24-1.25l3.15-1.36a3.22,3.22,0,0,0-1.79.62,1.36,1.36,0,0,1-.52.3c-.4.09-.76-.24-1-.53Z"/><path class="cls-18" d="M49.64,61.91a.71.71,0,0,0-.53.86,1.84,1.84,0,0,0,.6.93,6.57,6.57,0,0,0,3.14,1.88.91.91,0,0,0,.67,0,.36.36,0,0,0,.07-.57c-.39,0-.69-.37-.84-.74a4.11,4.11,0,0,0-.45-1.1c-.44-.58-1.29-.62-1.93-.95A1.38,1.38,0,0,0,49.64,61.91Z"/><path class="cls-18" d="M43.56,60.59a5.14,5.14,0,0,0,1.11,1.57,1.83,1.83,0,0,0,1.8.43,10.43,10.43,0,0,1-.76-3,3.58,3.58,0,0,1,.19-1.81c.68-1.47,2.86-1.79,3.49-3.29A3.72,3.72,0,0,0,49,51.66a7.74,7.74,0,0,0-3.12-3.85A9.44,9.44,0,0,0,42.54,47a23.08,23.08,0,0,0-6.89-.12c.52,1.09,1,2.17,1.55,3.25a16.32,16.32,0,0,0,1.41,2.56c.5.69,1.11,1.3,1.62,2a17.65,17.65,0,0,1,1.23,2.05Z"/><path class="cls-23" d="M44.77,47.2A20,20,0,0,0,35,47.1c5.14-3.47,11.76-3.82,18-3.5,0-3.5,1.66-6.75,3.17-9.92S59,27,58.37,23.61c-.11-.57-.39-1.24-1-1.32A21.08,21.08,0,0,0,63.75,25a41,41,0,0,1-2.17,8.83Q58.94,42,56.31,50.08c-1.53-1.16-3.57-1.24-5.46-1.53C48.8,48.23,46.8,47.62,44.77,47.2Z"/><polygon class="cls-24" points="64.02 25.43 63.13 21.31 62.95 17.9 62.77 16.11 62.77 13.43 50.95 17.55 43.6 20.41 40.2 22.74 38.59 24.17 38.77 27.4 39.84 29.01 50.59 23.81 58.29 23.28 64.02 25.43"/><path class="cls-25" d="M38.59,24.17l.18,3.23.55.82.15.06a4.81,4.81,0,0,0,.6-3.36,1.86,1.86,0,0,1,0-.81,1.44,1.44,0,0,1,.61-.73A22.11,22.11,0,0,1,47.19,20a8.11,8.11,0,0,1,1.24,3.45c.48-.68.38-1.6.69-2.37a3.83,3.83,0,0,1,3-2,22.14,22.14,0,0,0,3.64-.73c1.82-.72,3.43-2.56,5.34-2.1a.78.78,0,0,1,.36.16,1,1,0,0,1,.22.69,23.07,23.07,0,0,0,1.9,7.78c-.11-1-.19-1.93-.27-2.89l-.13-.61L63,17.9l-.18-1.79V13.43L51,17.55,43.6,20.41l-3.4,2.33Z"/><path class="cls-20" d="M64.67,56.51C63.24,55,62,53.08,62,51a8.3,8.3,0,0,1,2-4.73,23.18,23.18,0,0,1,4-4,92.9,92.9,0,0,0-4.3-11.42q-3.74,8.34-6.66,17a3.4,3.4,0,0,0-.26,1.66,3.16,3.16,0,0,0,.46,1.07A14.13,14.13,0,0,0,64.67,56.51Z"/><path class="cls-23" d="M55.52,43.42A1.89,1.89,0,0,1,55,44.75a1.94,1.94,0,0,1-.91.34L47.67,46.3A1.76,1.76,0,0,0,47.41,45a23.45,23.45,0,0,0,5.1-4.18l3.63-3.61C55.93,39.27,55.73,41.34,55.52,43.42Z"/><path class="cls-26" d="M48.83,47.44c-2,.6-3.78-1.83-6.24-.64,3.44.62,6.86,1.44,10.3,2.06a4.81,4.81,0,0,1,3.16,1.44q2.34-6,4.69-12a20.2,20.2,0,0,0,1.47-5.06c.17-1.56,0-3.3,1-4.54a18.26,18.26,0,0,0-2.77,5.14c-.46,1.35-.75,2.75-1.31,4.05-1.66,3.88-5.34,6.43-8.84,8.77A5.53,5.53,0,0,1,48.83,47.44Z"/><path class="cls-23" d="M46.4,72.57c1.61,2.73,1.51,6.16,2.86,9l1.2-5.68a.79.79,0,0,0,0-.48.83.83,0,0,0-.19-.23A15.08,15.08,0,0,0,46.4,72.57Z"/><path class="cls-27" d="M55.13,50.51a3.07,3.07,0,0,0-1.94-1.2,80.11,80.11,0,0,0-12.72-2.67c3.18-.44,6.89,1.42,10.09,1.61a12.13,12.13,0,0,1,2.83.26A2.29,2.29,0,0,1,55.13,50.51Z"/><path class="cls-20" d="M61.46,58.58a21.27,21.27,0,0,1-4.36-4.06c0,2.09-.09,4.18-.08,6.27a6.14,6.14,0,0,0,.49,2.92,7.12,7.12,0,0,0,2.71,2.35,5.79,5.79,0,0,1,2.54,2.69c.09.25.15.5.23.75a1.9,1.9,0,0,0,.21.4,1.18,1.18,0,0,0,1.46.22A2,2,0,0,0,65.44,68a6.49,6.49,0,0,0-1.15-2.17,8.92,8.92,0,0,1-1.85-4.67,3.44,3.44,0,0,0-.31-2A2.86,2.86,0,0,0,61.46,58.58Z"/><path class="cls-20" d="M69.33,59.31a3.19,3.19,0,0,0-1.27-2.13,21.75,21.75,0,0,0-2.15-1.37,11.93,11.93,0,0,1-4.2-4.55,2,2,0,0,0-.67-.87.62.62,0,0,0-.91.26,5.12,5.12,0,0,0,1.34,3.87A10.24,10.24,0,0,0,64,56.33Z"/><path class="cls-28" d="M72.24,42.48a1,1,0,0,0,.34.59A3.21,3.21,0,0,1,72.24,42.48Z"/><path class="cls-28" d="M72,38.61a.66.66,0,0,1-.26.16.94.94,0,0,1,.23.1Z"/><path class="cls-28" d="M72.24,42.48a4.07,4.07,0,0,1,.17-1.75A1.87,1.87,0,0,0,72,38.87,6.75,6.75,0,0,0,72.24,42.48Z"/><path class="cls-28" d="M69.66,34.84a1.07,1.07,0,0,0-.33-.11,2.09,2.09,0,0,1,.08.23A.64.64,0,0,1,69.66,34.84Z"/><path class="cls-28" d="M70.34,35.6c.19.7,0,1.47.1,2.18s.81,1.16,1.32,1a.43.43,0,0,0-.17,0c0-.25,0-.5,0-.76-.44.07-.72-.48-.67-.92a6.38,6.38,0,0,0,.23-1.28,1.17,1.17,0,0,0-1.48-.93A1.27,1.27,0,0,1,70.34,35.6Z"/><path class="cls-28" d="M55.38,73.56c-1.22,4.12-2.75,7.71-3,12Q55.28,76,58.23,66.36c0-.24.09-.49.13-.74a6.74,6.74,0,0,0,.63.46l1.62,1a4,4,0,0,1,1.23,1.05,17,17,0,0,1,.7,1.71c.28.56.9,1,1.48.82a4.63,4.63,0,0,1-1.66-2.37,4.89,4.89,0,0,0-.34-1,3.26,3.26,0,0,0-1.28-1.13L58.1,64.56a5.41,5.41,0,0,1-.75-2.1c-.36-3.24-.85-6.71-1.21-9.94h0c0-.16.27-.47.26-.62-.09-.38.27-.29.32-.66,0-.06,0-.12,0-.17a5.52,5.52,0,0,1,1.46,1.47c.74,1.12,1.22,2.64,2.5,3,.46.13.95.09,1.42.18a5.17,5.17,0,0,1,1.68.79,27.5,27.5,0,0,1,3.57,2.55c1,.86,2.06,1.93,3.31,1.63l-2.23-1.46-2.1-1.37L64,56.33,63,55.62a15.9,15.9,0,0,1-3.61-3,12.12,12.12,0,0,0-1.56-1.85,2.6,2.6,0,0,0-1-.52,7.29,7.29,0,0,1,.42-1.7l4.14-11.76a46.6,46.6,0,0,0,2.44-8.71c.08-.55.13-1.09.18-1.63A3.45,3.45,0,0,0,66,28a1.19,1.19,0,0,1,.64.27c.27.28.13.74,0,1.1-.59,1.36-1.18,2.73-1.78,4.1a2.31,2.31,0,0,1,2.39-.36A2.64,2.64,0,0,1,68.72,35a.6.6,0,0,1,.61-.27,4.61,4.61,0,0,0-1.57-2.26c-.46-.35-1-.65-1.22-1.2s.4-1.31.88-1l.18-3.11A4.63,4.63,0,0,1,64,24.88a60.46,60.46,0,0,0-1.32-11.65c-.79,3.56.56,7.22.72,10.86.18,4.15-1.2,8.2-2.57,12.13Q58.46,43.14,56.05,50l-1.32-.65C56.81,57.22,57.7,65.8,55.38,73.56Z"/><path class="cls-29" d="M82.29,28.78,62.77,13.38v0h-.05l0-.21c0,.08,0,.16,0,.24L51,17.55,43.6,20.41l-3.4,2.33-1.61,1.43.18,3.23L39.84,29l-.71,5.55s-1.79,5.73-2.69,7.7A25.9,25.9,0,0,0,35,47.1L45,63v5L50.41,86.5l1.08.18v-.05h.18l.2,0h0l.28,0h0l.31,0h0l.34,0h.05l.36,0h.06l.37-.06h.08l.36,0,.1,0,.36-.06.09,0,.35-.07.1,0,.32-.07.11,0,.28-.08.11,0,.25-.08.11,0,.21-.09.08,0,.24-.13.11-.09.05,0a.75.75,0,0,0,.09-.09l.06-.07.1-.11.07-.09.11-.13.09-.11.11-.15a1.47,1.47,0,0,0,.1-.13l.12-.16.11-.15.13-.18.12-.16a2.43,2.43,0,0,1,.14-.2l.12-.17.15-.22a2.14,2.14,0,0,1,.13-.19,1.43,1.43,0,0,1,.15-.22c0-.07.09-.14.14-.21l.15-.23a1.64,1.64,0,0,0,.14-.22c.06-.08.11-.16.16-.24l.15-.22.16-.25.16-.24c.05-.08.1-.17.16-.25l.16-.26c.05-.08.1-.16.16-.24s.11-.18.17-.27l.15-.24.18-.28.15-.24.18-.29.14-.23.2-.31.12-.2.21-.34.11-.18c.07-.12.14-.24.22-.36l.08-.13.24-.4.06-.1.26-.43,0,0c1-1.72,1.95-3.31,2.5-4.35,1.79-3.41,5.37-10.75,5.37-10.75L72.08,58l1.61-5.55.18-5.38-.18-2.15,3.77-3,.73-.82h0l.88-1,.36-2.87.35-2.68,2.33-3.77.11-1.18h0l.07-.74h0ZM55.41,49.69l0,.05-.51-.26s0,0,0,0C55.09,49.51,55.25,49.59,55.41,49.69ZM37.67,46.62l.08,0h-.06a5.63,5.63,0,0,0-.58,0Zm-2,.32h0l-.09,0Z"/><g class="cls-30"><path class="cls-31" d="M32.13,48.12a10.07,10.07,0,0,1,2.25,2.53,60.42,60.42,0,0,1,3.14,6c-.27-1.47-.57-2.94-.73-4.4-.17-1.66.8-2.88,1.67-4.2a20.75,20.75,0,0,1,3.13-3.86c.56-.51,1.67-1.5,2.52-1a3.47,3.47,0,0,1,1.23,2.37c.31,1.55.48,3.11.76,4.66.24,1.38.49,2.75.69,4.14a83,83,0,0,0,.58-12.51c0-2.2,0-4.39-.1-6.58,0-.5,0-1,0-1.52l-1-.31A16.4,16.4,0,0,1,42.32,32c-2,3.22-4,6.44-6,9.59a44.21,44.21,0,0,1-3.78,4.21,12.06,12.06,0,0,1-1.67,1.52A12.69,12.69,0,0,1,32.13,48.12Z"/></g><g class="cls-32"><path class="cls-31" d="M7.09,9.08c1.45-.33,3.47-.55,4.8.26s1.6,2.78,1.92,4.08a30.73,30.73,0,0,1,.87,5.29,2.91,2.91,0,0,1,1.52-2.44c2-1.06,4.33-1.38,6.44-2.23,1.22-.49,2.55-1,3.7,0s1.87,2.53,2.83,3.76a14.08,14.08,0,0,1-.47-1.86,10.64,10.64,0,0,1-.25-2.76c.09-1.6.19-4,1.32-5.29,1.42-1.61,3.13,1.66,3.53,2.69,1.17,3-.25,5.79-1.58,8.46,1.08-1.27,1.87-2.84,3.37-3.66.47-.26.56-.46.95-.08a1.74,1.74,0,0,1,.3.37c-.07-1.09-.16-2.17-.24-3.26-.14-1.9-.59-4.31,0-6.18s2.14-2,3.84-1.92c2.72.2,5.4.79,8.12,1s5.64-.1,8.16.86a5,5,0,0,1,2.93,3.77A61.39,61.39,0,0,0,60.83,16c.74,2,1.74,4.42,1.12,6.57a11.31,11.31,0,0,1-3.74,5.08,22.3,22.3,0,0,1-3,2.64c-.5.36-1.19.79-1.86,1.26.49-.24,1-.48,1.47-.74A16,16,0,0,1,59,29.16a4.11,4.11,0,0,1,3.4.74c2.52,1.65,4.72,3.72,7.22,5.41,1.16.78,2.4,1.48,3.63,2.16a12.45,12.45,0,0,0,2.66,1.18c-3.25-2.87-5.73-6.68-8.28-10.14A37.28,37.28,0,0,1,63.9,23c-.4-.84-1.14-2.28-.83-3.31a25.2,25.2,0,0,1-.38-6.21c.05-.71.14-4.53,1.75-3.77a4.26,4.26,0,0,1,1.67,2.19A23.62,23.62,0,0,0,68,15.46c1,1.51,2.14,3,3.1,4.51.34.55.76,1.06,1.14,1.61a17.61,17.61,0,0,1,1.28-5.79c1-2.34,2.22-4.58,3.28-6.88A24.06,24.06,0,0,1,78.54,5.7,4.81,4.81,0,0,1,80.1,4a4.18,4.18,0,0,1,3.51,0c3,1.21,5.38,3.6,7.69,5.76C94,12.37,95.43,16,98,18.67c-.16-.33-.31-.67-.46-1A21.52,21.52,0,0,1,95.75,13c-.1-.5-.63-2.69.11-3a.86.86,0,0,1,.84.23,18.44,18.44,0,0,1,2,1.76c1.25,1.29,2.33,2.71,3.5,4.05s2.56,2.36,3.71,3.66c1.57,1.77,1.65,4.24,1.43,6.6.59-2.44.29-5,.36-7.52A8.9,8.9,0,0,1,105.4,17a36.57,36.57,0,0,1-3.78-4.37A12.65,12.65,0,0,1,99.08,8c-.18-.82-.22-1.68-.42-2.49A2.18,2.18,0,0,1,98.6,4a4.56,4.56,0,0,1,1.34-1.59A19.75,19.75,0,0,0,97.62,3c-.35.12-3.41-.53-4.29-.61-2.4-.22-4.8-.47-7.19-.7a60.74,60.74,0,0,0-11.82.53c-2,.21-9.42.83-10.67,1.77-.47.34-7.13-1.34-10.24-1.21S32.39,3,26.78,5.69c-.26.13-8.92-1.54-13.14-.23-2.9.91-5.6,1.68-7.87,3.75,0,.12,0,.25,0,.37A6.26,6.26,0,0,1,7.09,9.08Z"/></g><g class="cls-30"><path class="cls-31" d="M108,18.46l.17-.1a9.76,9.76,0,0,1-2.5-1.67A7.47,7.47,0,0,0,108,18.46Z"/></g><g class="cls-30"><path class="cls-31" d="M106,1.81a5.6,5.6,0,0,1,2.21,1.4c1.35,1.27,2.59,2.66,3.9,4a5,5,0,0,1-.88-3.27.2.2,0,0,1,.23-.15c1.2.13,2.94.16,3.75,1.23a4.2,4.2,0,0,1,.46.75,6.13,6.13,0,0,0-1-3.12,29.87,29.87,0,0,0-8-1l-.9.07Z"/></g><g class="cls-33"><path class="cls-34" d="M74.41,28.69a26.21,26.21,0,0,0,4.27,13.08,10.55,10.55,0,0,0,5.91,4.32,7.4,7.4,0,0,0,1.76.16l-.79-.13a8.25,8.25,0,0,1-2.94-1.45c-2-1.4-2.43-3.58-2.37-5.9a23.75,23.75,0,0,1,1-6.32c.5-1.61,1.22-3.33,2.77-4.18a5.8,5.8,0,0,1,4.79-.2c2,.87,2.54,3,3.12,4.93a30.62,30.62,0,0,1,1,4.72c.12.86.24,1.74.42,2.59a5.41,5.41,0,0,0,.36,1.31l0,0a41.37,41.37,0,0,1-.43-6.38,40.86,40.86,0,0,1,.41-4.14,10.49,10.49,0,0,1,.89-3.39c1.15-2.22,3.18-2.63,5.48-2a27.59,27.59,0,0,1,4.25,1.44,7.54,7.54,0,0,0-.87-.65,32.11,32.11,0,0,0-3.86-2.11c-2.15-.92-4.49-1-5.69,1.29s-1.16,5-1.2,7.36v.81c-.14-.94-.3-1.88-.47-2.82-.28-1.62-.38-3.59-1.57-4.85A6,6,0,0,0,88.84,25c-1.26-.58-2.55-1.1-3.81-1.67a28.65,28.65,0,0,0-7.49-2.63,2.51,2.51,0,0,0-2.89,1.92,8.48,8.48,0,0,0-.3,2.61C74.34,26.36,74.33,27.52,74.41,28.69Z"/><g class="cls-30"><path class="cls-35" d="M14.2,35.52l-.06-.22c-.14-.7.89-1.08,1.23-1.49a19.53,19.53,0,0,0,1.86-3c1-1.82,2.41-3.29,4.63-3.27s4.27,1.33,6.11,2.3a40.21,40.21,0,0,1,5,2.84c1.39,1,2.94,2.38,3.12,4.21.22,2.22-.88,4.35-2.15,6.09-.75,1-1.48,2-2.16,3.07,0,.07-.09.14-.14.21a26.59,26.59,0,0,0,3.6-4.12c1.21-1.72,2.9-3.79,2.42-6.06-.88-4.18-5.69-6.39-8.59-9-2.12-1.92-4.11-4-6.35-5.77-1.39-1.11-4.26-3.62-6.22-2.53-.95.53-1.12,2.1-1.25,3-.25,1.88-.14,3.8-.22,5.69a22.87,22.87,0,0,1-1.57,6.65c-.07.22-.16.44-.24.66l-.37-.28Z"/></g><g class="cls-30"><path class="cls-35" d="M55.24,62.42c-.46-1.46-.94-2.92-1.55-4.35-.89-2.07-2-4.55-1.32-6.84a7.82,7.82,0,0,1,1.77-2.64c.85-1,1.72-2,2.66-2.92,1.72-1.67,3.68-3.29,6.14-3.59s5,.4,7.41,1a27.36,27.36,0,0,1,7.45,3.21c1.15.67,2.31,1.3,3.46,2A8,8,0,0,1,83.57,50a4.34,4.34,0,0,1,.71,2l.12-.18a4.33,4.33,0,0,0-.05-1,4.64,4.64,0,0,0-1.26-2.17A17.85,17.85,0,0,0,78,45.25q-4-2.09-7.85-4.3c-1.25-.71-2.48-1.45-3.69-2.24a9.72,9.72,0,0,0-3-1.42c-1.72-.4-3.23.54-4.52,1.58-1.74,1.41-3.4,3-5.11,4.42a13.66,13.66,0,0,0-3.63,4.27c-.86,1.83-.48,3.66.2,5.47C51.57,56.34,53.61,59.29,55.24,62.42Z"/></g><g class="cls-30"><path class="cls-35" d="M41,31a12.35,12.35,0,0,0,5.18,2.42,21.69,21.69,0,0,0,3,.77c.22,0,.43,0,.65,0a16.54,16.54,0,0,1-3.15-1.17c-1.83-.88-4-2-5.15-3.69a7.82,7.82,0,0,1-1-5.1,14.44,14.44,0,0,1,1.6-6.33c1-1.7,2.95-2.14,4.81-2,4.5.46,9.55,1.8,12.48,5.5a4,4,0,0,1,.85,3.68c.06-.11.13-.22.18-.32,1-1.83.42-2.32-.66-4s-3.39-3-5.2-4.13a37.09,37.09,0,0,0-7.06-3.42c-1.75-.61-3.87-1.27-5.72-.73a4.2,4.2,0,0,0-2.54,3.21,26.3,26.3,0,0,0-.67,5.6C38.35,24.63,38.41,28.62,41,31Z"/></g><g class="cls-30"><path class="cls-35" d="M101.57,10.94a11.91,11.91,0,0,0,2.22,3.73,14.88,14.88,0,0,0,1,1.16,17.21,17.21,0,0,1-1.13-2.37c-.64-1.54-1.77-3.81.07-5s4-.48,5.8.25a37.47,37.47,0,0,0,3.68,1.45,10.17,10.17,0,0,0,2.39.42c-2.37-1-4.37-2.86-6.69-3.95A5.6,5.6,0,0,0,105.21,6c-1.28.37-2,1.43-2.82,2.41A2.73,2.73,0,0,0,101.57,10.94Z"/></g></g><g class="cls-36"><path class="cls-37" d="M87.43,22c.39.79,2.42,2.27,3.3,1.58a3.67,3.67,0,0,0,1.35-3c-.3-4-6.17-1.69-4.65,1.42C87.88,22.86,87.13,21.34,87.43,22Z"/><path class="cls-37" d="M83.8,20.42c.57,2.11,2.4.14,2.67-1,1.45-2.52-3.91-.58-2.67,1Z"/><path class="cls-37" d="M55,39.08c1.63-.12,6.71-5,3.61-5.94a3.18,3.18,0,0,0-3.85,1.55c-.34.71-1.3,4.5.24,4.39Z"/><path class="cls-37" d="M51.54,43.17a3.38,3.38,0,0,0,2.13-1.92c.34-.76-.22-2.79-1.27-2.79-1.44,0-2.34,4.95-.86,4.71Z"/><path class="cls-37" d="M61.77,34.43c-.22,1.89,2.83,1.65,2.2.09-.41-1-2.79-1.53-2.2-.09C61.74,34.68,61.66,34.17,61.77,34.43Z"/><path class="cls-37" d="M66.74,25.31c1.08,1.57,2.72-2.72,1.34-4.06-.49-.47-2.53-1-2.67.09a5.86,5.86,0,0,0,1.33,4Z"/><path class="cls-37" d="M69,27.46c0,1.34,1.49,2.58,1.65.61.13-1.74-1.62-2.76-1.65-.61C69,27.57,69,27.21,69,27.46Z"/><path class="cls-37" d="M53.93,13.79c.26,1.67,2.22,2.48,3.71,2.6s1.44-1.79,1.24-2.73c-.27-1.23-.92-3.06-2.37-3.3-1.77-.3-2.82,2-2.58,3.43Z"/><path class="cls-37" d="M50.42,11.91c.54,2.28,2.58,1.39,2.78-.5.25-2.26-3.17-1.19-2.78.5C50.61,12.68,50.16,10.77,50.42,11.91Z"/><path class="cls-37" d="M46.36,11.71c.46.14,2.76,0,1.67-1-1.52-1.38-2.94.64-1.67,1Z"/><path class="cls-37" d="M33.39,21.5c.21,2,2.23,2.5,2.42.14.24-2.84-2.66-2.39-2.42-.14C33.46,22.23,33.35,21.18,33.39,21.5Z"/><path class="cls-37" d="M35.88,24.46c-.69,1.21,1.3,1.74,1.12.6.34-1.26-.48-1.73-1.12-.6C35.71,24.74,35.88,24.45,35.88,24.46Z"/><path class="cls-37" d="M40.15,56c1.42,1,2.91-6,.48-6.4-1.37-.2-2.25,1.76-2.41,2.81A3.89,3.89,0,0,0,40.15,56Z"/><path class="cls-37" d="M36.73,48.87c-.12,1.17,4.63.09,3.08-2.29-1.27-2-5.12.72-3.08,2.29C36.69,49.23,36.05,48.35,36.73,48.87Z"/><path class="cls-37" d="M39,44.82a1.51,1.51,0,0,0,1.32-2.56c-1.54-1.77-3,2.35-1.32,2.56Z"/><path class="cls-37" d="M41,41.46c.54-.3,1-2.05,0-2.11s-.9,2.61,0,2.11Z"/><path class="cls-37" d="M43.32,62.91c.7,1.74,2.73-.87,2.06-2.28,0-.63-.88-2-1.4-.94-.4.84-1,2.27-.66,3.22C43.52,63.41,43.12,62.39,43.32,62.91Z"/><path class="cls-37" d="M43.92,57.79c.56,1.08,1.95-.29,1.46-1.22-.71-1.33-1.91.36-1.46,1.22C44,58,43.81,57.59,43.92,57.79Z"/><path class="cls-37" d="M94,19a2.16,2.16,0,0,0,.41,1.81c.32.43,1.65.75,2,.15.45-.81-2.06-2.88-2.39-2C93.79,19.49,94.07,18.72,94,19Z"/><path class="cls-37" d="M96.72,27.86c-1-.72-1.82,1.08-.74,1.22.71.08,1.74-1.1.74-1.22C96.59,27.76,96.9,27.88,96.72,27.86Z"/><path class="cls-37" d="M73.79,46.6c-1,.49,2.51,3.54,3.47,2.29.55-.72-.29-1.83-.83-2.25a2.53,2.53,0,0,0-2.64,0Z"/><path class="cls-37" d="M78.87,46.89c-.62-.43-1.51,2.59.33,2.47,1.51-.11,1.2-3.13-.33-2.47C78.68,46.76,79.38,46.67,78.87,46.89Z"/><path class="cls-37" d="M80.45,49.44a1,1,0,0,0,1,1.55c1.49-.32-.38-2.44-1-1.55Z"/><path class="cls-37" d="M81.73,51.63c0,.39.85,1.18,1.19.66s-1.2-1.34-1.19-.66Z"/><path class="cls-37" d="M68.86,46.21c-1.21-.15-.37,1.81.64,1.88.35.21,1.42.13,1-.5s-1-1.3-1.61-1.38Z"/><path class="cls-37" d="M71.57,48.15c-.79,0-.45,1.2.23,1.21,1,0,.39-1.19-.23-1.21C71.41,48.15,71.72,48.16,71.57,48.15Z"/><path class="cls-37" d="M103.43,21c1.62-1.18.2-3.1-.94-4-.78-.62-2.61-2-2.69-.11-.06,1.55,1.46,5.72,3.63,4.12Z"/><path class="cls-37" d="M98.06,15.15c.15,1.6,1.89.79,2-.35a1.53,1.53,0,0,0-.91-1.48c-1-.53-1.1,1.35-1.06,1.83C98.09,15.46,98,15,98.06,15.15Z"/><path class="cls-37" d="M76.43,14.45c1.74.11,3.59-1.94,1.91-3.41-2.18-1.9-3.54,3.31-1.91,3.41C77.36,14.51,76.05,14.43,76.43,14.45Z"/><path class="cls-37" d="M76.8,8.7c0,1.32,2.53,1,2.22-.56A2.35,2.35,0,0,0,78,6.66c-1.17-.82-1.16,1.6-1.16,2Z"/><path class="cls-37" d="M20.43,17.26c.36,1.63,4.06,2.63,3.66.61A5,5,0,0,0,22.22,15c-1.14-.9-2,1.45-1.79,2.23Z"/><path class="cls-37" d="M25.21,21.19c.63-.08,1.32-.9,1-1.41-1.33-1.9-2.2,1.56-1,1.41Z"/><path class="cls-37" d="M11.22,20.06a1.14,1.14,0,0,0,2.17.27c.72-1.23,1.22-2.21.5-3.64-.36-.71-1.78-2.24-2.38-.85a6.72,6.72,0,0,0-.29,4.22C11.47,21,10.87,18.75,11.22,20.06Z"/><path class="cls-37" d="M11.09,23.94c.39,2,2,.46,2.32-.61.41-1.41-2.71-1.35-2.32.61C11.2,24.49,11,23.56,11.09,23.94Z"/><path class="cls-37" d="M9.35,17.06c.41,1.43,1.36-1.13,1.32-1.52-.07-.78-1-.59-1.31-.09a2.14,2.14,0,0,0,0,1.61C9.46,17.45,9.27,16.75,9.35,17.06Z"/><path class="cls-37" d="M10.47,11.67c1.77.12,3.1-3.09.85-3.51-1.85-.34-2.91,3.36-.85,3.51Z"/><path class="cls-37" d="M7.8,10.31c.57.39,1.54-.68,1.14-1.23C8.32,8.22,7,9.76,7.8,10.31Z"/><path class="cls-37" d="M86,15.21c.14,1.28,2.89.62,2.7-.9-.1-.82-.93-1.25-1.66-1.42-.94-.22-1.1,1.79-1,2.32C86.08,15.55,86,14.63,86,15.21Z"/><path class="cls-37" d="M61.11,28.6c.17.36,1.11,1,1.51.73A1.69,1.69,0,0,0,63.24,28c-.14-1.86-2.83-.78-2.13.65Z"/><path class="cls-37" d="M59.57,31.74c.25,1,1.1.06,1.22-.46.67-1.15-1.8-.26-1.22.46Z"/><path class="cls-37" d="M51.59,30.14c.5.72,1.25-1.25.62-1.87-.23-.21-1.17-.46-1.23,0a2.67,2.67,0,0,0,.61,1.83Z"/><path class="cls-37" d="M45.7,24.84c.12.77,1,1.14,1.7,1.2s.67-.83.58-1.25-.43-1.41-1.09-1.53c-.82-.13-1.3.9-1.19,1.58S45.61,24.32,45.7,24.84Z"/><path class="cls-37" d="M56.05,25.15c.8.05,1.65-.9.87-1.57-1-.87-1.62,1.52-.87,1.57Z"/><path class="cls-37" d="M56.22,22.5c0,.61,1.16.44,1-.25a1.12,1.12,0,0,0-.49-.69c-.54-.37-.53.74-.53.94Z"/><path class="cls-37" d="M81,18.32c.07.59,1.33.28,1.25-.42,0-.38-.43-.57-.77-.65s-.5.83-.48,1.07S81,18.05,81,18.32Z"/></g><path class="cls-38" d="M38.46,21.14a7.29,7.29,0,0,0,.26-.9,26,26,0,0,1,1.47-4.87c.75-1.89,3.54-1.41,5.14-1.06a40.71,40.71,0,0,1,11.59,4s0,0,0,0a20.54,20.54,0,0,0-6.22-3.47,30,30,0,0,0-6.89-2.45c-1.25-.19-2.93,0-3.62,1.15C38.87,15.71,38.51,18.78,38.46,21.14Z"/><g class="cls-39"><path class="cls-40" d="M93.49,12.35A21.5,21.5,0,0,0,93,15.84c-.13,1.38-.25,2.75-.35,4.12-.22,2.89-.38,5.78-.39,8.67a106.09,106.09,0,0,0,1,13.32l.35-.28c-.25-4.47-.9-8.91-.7-13.42.12-2.62.24-5.24.43-7.86.17-2.34.51-4.71.5-7.06.66,1.3,1.54,2.53,2.29,3.77a42.47,42.47,0,0,0,5.91,7.33c.9.94,1.85,1.86,2.81,2.73a8,8,0,0,0,1.61,1.17c.06-.1.11-.2.16-.3a18.93,18.93,0,0,1-4.52-4.14,46.78,46.78,0,0,1-5.75-7.81c-.68-1.14-1.44-2.28-2.05-3.47a16.67,16.67,0,0,1-1.27-4.1C92.66,6.4,92,4.34,91.51,2.25l-.36,0c.38,2.36,1.09,4.68,1.56,7A19.81,19.81,0,0,0,93.49,12.35Z"/><path class="cls-40" d="M97.88,7.16a17.26,17.26,0,0,0,2.88,5.23c1.81,2.33,4.12,5.05,7,6.21a3,3,0,0,1,.38-.22c-2.94-1.25-4.92-3.78-6.85-6.35a21.41,21.41,0,0,1-1.71-2.62A2,2,0,0,0,99.75,9c.29-.76.55-1.54.81-2.31a37.69,37.69,0,0,0,1.09-4.52l-.28,0c-.37,1.22-.71,2.45-1.12,3.66-.27.79-.59,1.57-.87,2.37,0,.12-.12.28-.19.45a13.38,13.38,0,0,1-.79-2A16.71,16.71,0,0,1,97.79,3l-.17,0H97.5A12,12,0,0,0,97.88,7.16Z"/><path class="cls-40" d="M112.12,7.42c.78,1.18,2.16,2.89,3.66,3.1l.2-.37V10c-1.78-.46-3.37-3-4.22-4.22-.61-.86-1.14-1.75-1.68-2.65q-.45-.74-.93-1.44l-.52,0c.43.64.87,1.27,1.25,1.93C110.62,4.88,111.3,6.19,112.12,7.42Z"/><path class="cls-40" d="M14.31,19.76c-.14,2.66-.28,5.33-.41,8a38.37,38.37,0,0,1-.42,4.15,19.55,19.55,0,0,1-.65,2.53l.06.08.32.24c.19-.6.32-1.23.46-1.82a35.84,35.84,0,0,0,.65-4.13c.32-2.87.45-5.77.64-8.65.1-1.62.15-3.25.15-4.88.72-.16,1.43-1,2-1.35,1.23-.76,2.53-1.41,3.8-2.11s2.44-1.2,3.57-1.94a12.07,12.07,0,0,0,2.35-1.7c.18,1.34.56,2.66.82,4,.47,2.47.86,5.11,2.12,7.32.7,1.23,1.62,2.36,2.42,3.52A38.77,38.77,0,0,0,35,26.6a40.64,40.64,0,0,0,5.3,4.66.8.8,0,0,0,.41.33l.77.62a14.57,14.57,0,0,0-1.4,2.71c-.91,1.66-1.71,3.38-2.75,5a32.81,32.81,0,0,1-6.85,7.21l.51.29c2.51-1.45,4.39-3.93,6-6.31,1-1.5,2-3,2.93-4.53s1.55-2.82,2.5-4.11a7.32,7.32,0,0,0,.78.41A21.1,21.1,0,0,0,46.83,34a11.58,11.58,0,0,0,.06,3.85,35.54,35.54,0,0,1,.07,5c-.11,3.62-.44,7.22-.6,10.84-.14,3.2-.53,6.43-1,9.6-.2,1.47-.48,3-.62,4.49L45,68l.1,0c.13-1.7.44-3.39.66-5.06.43-3.08.63-6.21,1.17-9.27q.11-.59.18-1.17a27.32,27.32,0,0,0,2,2.42c1.89,2.27,3.16,4.9,4.78,7.34C56,65.48,58.24,69,61.2,71.56l.62,0,.21-.12a92,92,0,0,1-7.29-9c-1.44-1.88-2.46-4-3.85-5.91-.74-1-1.6-1.93-2.35-2.93a13.81,13.81,0,0,1-1.33-2.1,1.79,1.79,0,0,1,0-.23v0c.22-2.56.14-5.14.16-7.71,0-1.57.12-3.15,0-4.72a34.1,34.1,0,0,1-.18-4.74l.34.08c.76.17,1.53.33,2.29.51.58.13.61,0,1.09-.38s1.26-1,1.87-1.5l.65-.47a43,43,0,0,0,4.06-3.18,27.51,27.51,0,0,0,3.39-3.52A10.53,10.53,0,0,0,62,23.83c.2-.4.52-1.81.87-2a.28.28,0,0,0,.12-.14s0-.05,0-.08l0,0c0,.16.1.31.16.47A11.54,11.54,0,0,0,65,25.39c.88,1.39,1.83,2.74,2.78,4.08a84,84,0,0,0,6.72,8.32,51.62,51.62,0,0,0,7.74,7.26A8.22,8.22,0,0,0,87,46.5l.22-.24a14.67,14.67,0,0,1-2-.31,9.12,9.12,0,0,1-3.48-2,62.84,62.84,0,0,1-7-6.89c-.37-.41-.73-.83-1.1-1.25,0-6.71-2.12-13.51-.47-20.13.73-3,1.9-5.77,2.65-8.72.38-1.52.64-3.06,1-4.59,0-.14.06-.28.1-.42l-.52.06c-.32,1.55-.54,3.13-.87,4.58-.76,3.27-2.07,6.39-2.93,9.63a19.32,19.32,0,0,0-.8,4.25,15.1,15.1,0,0,1-1.62-2.74,55.56,55.56,0,0,1-2.51-5.56c-1.06-2.84-2.47-5.6-3-8.59l-.42.14a.76.76,0,0,0,0,.15A13.33,13.33,0,0,0,65,6.82c.66,1.76,1.44,3.47,2.07,5.24.73,2,1.9,4,2.8,6a26,26,0,0,0,1.9,3.55c.06,1.59.33,3.2.54,4.76.41,3.08.72,6.16,1.08,9.23-1.7-2-3.32-4-4.86-6.16-.91-1.26-1.78-2.54-2.65-3.82a15.78,15.78,0,0,1-2.08-4,16.78,16.78,0,0,1-.6-4.3,53.44,53.44,0,0,1,0-9.55c.13-1.11.27-2.21.35-3.33,0-.07,0-.21,0-.39a1.86,1.86,0,0,1-.66,0c-.11.69-.18,1.39-.25,2.08-.18,2-.24,4.08-.28,6.13,0,1.09,0,2.18,0,3.27,0,.57,0,1.14,0,1.71a14.13,14.13,0,0,1,.1,1.46c0,.45-.23.86-.31,1.3s-.18,1.06-.28,1.58c-.63,3.05-2.84,5.21-5.1,7.22C55.59,29.93,54.28,31,53,32a16.25,16.25,0,0,0-1.8,1.46l-.27.19c-.7.48-1.06.33-1.86.15l-1.92-.46a24.17,24.17,0,0,1-3.4-1,20.52,20.52,0,0,1-4-2.14c-.89-1.58-1.09-3.61-1.46-5.34-.29-1.42-.47-2.87-.7-4.31s-.56-2.63-.77-3.95a50.39,50.39,0,0,1-.33-8,33.37,33.37,0,0,0-.13-4.88l-.85.09a17,17,0,0,1,.2,2c.06,1.37,0,2.75,0,4.12,0,.84,0,1.68.07,2.52-.26.47-.49,1-.73,1.41q-.64,1.16-1.35,2.25c-.54.86-1.15,1.68-1.76,2.49a10,10,0,0,0-1,1.24c-.2-.32-.38-.63-.55-1-1.18-2.29-1.52-4.93-2-7.43C28,10.19,27.7,9,27.54,7.69c-.1-.74-.16-1.49-.22-2.23-.19.07-.37.15-.54.23h-.06c0,.55,0,1.09.07,1.64A14.17,14.17,0,0,0,24.69,9a40.06,40.06,0,0,1-3.59,2.47l-3.51,2c-.76.45-1.76.8-2.49,1.34,0-1.37-.07-2.73-.17-4.09a38.18,38.18,0,0,0-.65-4c-.09-.47-.17-.93-.25-1.4l-.2.06c.22,1.88.32,3.77.45,5.69A67.63,67.63,0,0,1,14.31,19.76Zm18.37-1.39c.61-.8,1.23-1.61,1.82-2.44a17.7,17.7,0,0,0,1.31-2.12,37.64,37.64,0,0,0,.68,4.32c.26,1.19.61,2.35.84,3.55.26,1.39.44,2.78.75,4.16a15.77,15.77,0,0,0,1.06,4A24.55,24.55,0,0,1,36,27a25.79,25.79,0,0,1-3-4.1c-.55-.86-1.17-1.68-1.73-2.54C31.73,19.77,32.18,19,32.68,18.37Z"/></g><path class="cls-41" d="M115.78,6.39v0c0-.17,0-.34,0-.51V5.78l-.06-.46s0-.07,0-.1a2.87,2.87,0,0,0,0-.31l0-.15s0,0,0-.08,0-.14-.05-.22,0-.12,0-.18l0-.11s0-.09,0-.14,0-.14-.06-.21a.36.36,0,0,0,0-.11l0-.1-.09-.21s0-.08,0-.11l0-.06A2.12,2.12,0,0,0,115,3h0l0-.09,0,0a1.89,1.89,0,0,0-.2-.27l-1.47-.3-.38-.08-1-.18L111.49,2l-.95-.14-.28,0a22.45,22.45,0,0,0-2.61-.2h-.09c-.31,0-.61,0-.88,0-1.62.13-3.34.24-5,.48h0l-.16,0c-.52.08-1,.16-1.55.26h0l-.37.08h0l-.67.16-.1,0c-.38.1-.76.21-1.13.34H97.5a25.55,25.55,0,0,1-2.74-.4l-.48-.08-.09,0-.46-.07h0l-.36,0c-2.4-.22-4.8-.47-7.19-.7-.69-.06-1.38-.09-2.07-.11H83.6c-.67,0-1.35,0-2,0h-.25q-1,0-1.95.12L79,1.8c-.72.05-1.44.12-2.16.19h0l-.23,0-2.33.24L73,2.38H73l-.47,0-.19,0-.47,0-.21,0L70,2.71l-.35,0-.42,0-.36.05-.41,0L68.09,3,67.7,3l-.38.06L67,3.13l-.41.07-.42.07-.5.1-.27.06L65,3.51l-.24.07-.18,0-.1,0-.21.07-.11,0-.13.06-.13.05a1.13,1.13,0,0,0-.27.16l-.08,0-.17,0h-.1l-.28,0h-.15l-.21,0-.24,0-.26,0-.23,0c-.87-.13-2-.33-3.14-.53l-.12,0L58,3.25l-.1,0c-.53-.08-1-.16-1.56-.22l-.19,0-.54-.07-.24,0-.47,0-.24,0-.44,0H51.72l-.74,0h-.27l-.52,0H48.88L48,3h-.11l-1,0-.39,0L45.8,3l-.44,0-.81,0h-.33l-1.16.06-.31,0-.9,0-.41,0-.88.05-.37,0L39,3.43h0l-1.19.11-.36,0-.89.09-.21,0-.24,0-.37,0-.24,0-.24,0-.72.09-.4,0-.78.11-.3,0-1.06.17h0l-1,.18-.26.06L30,4.65l-.29.07-.61.16L28.83,5l-.61.19L28,5.19c-.25.09-.49.17-.72.27h0c-.19.07-.37.15-.54.23h-.23l-.15,0-.22,0-.21,0-.38,0-.4-.06-.47-.06-.32,0-.48,0-.37,0L23,5.26l-.38,0L22,5.16l-.35,0-1-.08h-.3l-.73,0-.42,0-.63,0h-1l-.45,0-.56,0L16.1,5l-.52,0-.42.06-.49.08-.39.08-.25,0-.2.06-.19,0c-2.9.91-5.6,1.68-7.87,3.75,0,.12,0,.25,0,.37h0l-.06.53A28.85,28.85,0,0,0,6.93,20.17q.09.31.21.69l.1.28c0,.18.11.35.17.54l.12.35c.06.18.12.35.18.54l.21.59.13.39.25.7.12.34c.1.27.2.55.31.83l.09.24c.1.27.2.55.31.83,0,.09.06.18.1.28l.33.86.09.23c.13.31.25.62.37.92l.06.16.36.86c0,.06.05.13.08.19l.35.81L11,31l.33.72.09.2.31.63.1.2c.09.19.19.36.28.52l.1.19c.09.15.17.29.25.41l.11.17c.08.12.15.21.22.3l.09.11.06.08L14.3,35.6c.42.31.83.62,1.24.91,4.06,2.89,7.77,6.28,12,8.94.46.28.93.54,1.4.8l1.18.63.7.39h0a12.69,12.69,0,0,1,1.31.84,10.07,10.07,0,0,1,2.25,2.53c.32.48.61,1,.89,1.47l.22.43c.2.37.39.73.58,1.11l.11.22,1,2.08.32.65h0s0,.11.08.16a60.89,60.89,0,0,0,5.31,8.75c.13.17.29.36.45.55l.11.12c.23.28.49.57.75.87l.07.08.33.39c.12.15.25.29.37.45h0v.07L50.41,86.5l1.08.18v-.05h.19l.18,0h0l.24,0h0l.28,0h.06l.34,0h.05l.37,0h.05l.39-.06h.05l.37,0h.09l.36-.06.11,0,.33-.07h0l.09,0h0l.33-.07.1,0,.29-.08.1,0,.25-.08.11,0,.21-.09h0l.08,0h0l.24-.13.11-.09.05,0,.07-.07,0,0h0l.05-.06.1-.11.07-.09.08-.09,0,0h0l0,0,.06-.07.11-.15a1.47,1.47,0,0,0,.1-.13l.07-.09,0-.06h0v0l0-.06,0-.07.13-.18.12-.16.06-.09.06-.09,0,0v0l.06-.09.05-.06.15-.22a2.14,2.14,0,0,1,.13-.19l0-.08.07-.11,0,0,0,0,.07-.1.05-.07.15-.23a1.64,1.64,0,0,0,.14-.22l0-.07.08-.12,0-.05,0,0,.07-.11,0-.06.16-.25.16-.24,0,0,.1-.15,0,0,0-.06.09-.14,0-.06c.05-.08.1-.16.16-.24s.11-.18.17-.27l0,0,.08-.13.05-.07.06-.1.09-.13,0-.05.15-.24.18-.29,0,0,.07-.12,0-.08.08-.12.09-.15,0,0,.12-.2.21-.34h0L62,78l0-.07.1-.16.1-.17,0,0,.08-.13.24-.4,0-.06,0,0,.16-.26.08-.14,0,0,0,0,.09-.15v0l.3-.51c.1-.15.18-.3.27-.45l.12-.2.19-.32.29-.51c0-.08.09-.16.14-.23s.07-.12.1-.19.18-.3.26-.45l.17-.31.12-.2.14-.27a1,1,0,0,0,.08-.14v0c.07-.14.16-.29.23-.42l.35-.68c.47-.9,1-2,1.56-3.08a39.44,39.44,0,0,0,7-5.06,56.25,56.25,0,0,0,6.28-6.73c1.08-1.46,2.62-3.18,3.7-4.82h0a11.1,11.1,0,0,0,.88-1.59l0-.08a5.28,5.28,0,0,0,.24-.7l0-.13a3.08,3.08,0,0,0,.09-.67,1.54,1.54,0,0,1,0-.3s0-.07,0-.11a1.08,1.08,0,0,1,.08-.19l.06-.13.1-.17.09-.12.12-.17.1-.11a2.09,2.09,0,0,1,.14-.17l.1-.11.18-.19a.46.46,0,0,1,.07-.07l.44-.48A12,12,0,0,1,90.51,44c.21-.12.46-.28.72-.45l.24-.17c.2-.13.4-.28.62-.44l.28-.2.84-.65.12-.09h0l.35-.28.06-.05h0l0,0h0l.35-.29.41-.33c.33-.27.66-.56,1-.85L96,39.7c.23-.19.45-.39.67-.59l.49-.45.75-.68.47-.44,1-.94.47-.46.66-.65L101,35l.71-.74.54-.56.74-.8.42-.47.52-.58.4-.47.53-.65c.16-.19.3-.38.44-.56l.44-.59.26-.38c.11-.16.21-.31.3-.46a1.19,1.19,0,0,0,.09-.15h0v0a1.19,1.19,0,0,0,.09-.15l0,0,0-.06a.25.25,0,0,0,0-.07l.09-.18,0,0c0-.1.1-.2.14-.3a9.46,9.46,0,0,0,.48-1.54v.07c0-.12.05-.25.07-.38s.07-.32.1-.48.05-.4.08-.61.06-.58.08-.87l0-.52c0-.19,0-.39,0-.59V21.69c0-.15,0-.31,0-.47,0-.34,0-.68,0-1v-.42c0-.36,0-.72,0-1.08a.12.12,0,0,1,.06-.09l0,0,.11-.08,0,0,.21-.11,0,0,.11-.06.24-.13.23-.13.16-.09.3-.19.14-.09.45-.3.19-.14.41-.3.19-.14.63-.51.17-.15c.19-.15.38-.32.58-.5l.22-.2c.27-.24.53-.49.82-.77A20.3,20.3,0,0,0,115.5,11l.24-.41h0l0,0,0,0,.2-.37V10C115.92,9.27,115.91,7.83,115.78,6.39Z"/></g></g></svg>