<svg id="Layer_1" data-name="Layer 1" xmlns="http://www.w3.org/2000/svg" xmlns:xlink="http://www.w3.org/1999/xlink" viewBox="0 0 118.24 104.47"><defs><style>.cls-1{fill:url(#radial-gradient);}.cls-2{opacity:0.05;}.cls-3{fill:#fff;opacity:0.8;}</style><radialGradient id="radial-gradient" cx="125.96" cy="107.85" r="49.06" gradientTransform="translate(-61.18 -47.9) scale(0.97 0.95)" gradientUnits="userSpaceOnUse"><stop offset="0" stop-color="#fff200"/><stop offset="0.37" stop-color="#fff200"/><stop offset="0.84" stop-color="#ffb600"/><stop offset="0.9" stop-color="#fcb102"/><stop offset="0.96" stop-color="#f4a309"/><stop offset="1" stop-color="#ed970f"/></radialGradient></defs><path class="cls-1" d="M88.56,96.29c-4.1,2.87-24.83-15-29.87-15.06S32.56,98.63,28.52,95.68s6.85-27.83,5.35-32.55S9,44.09,10.55,39.4s29.07-2.2,33.17-5.07S54.46,5.17,59.49,5.22,70.6,31.7,74.64,34.64s31.55,1,33.06,5.74S85.5,58.94,83.9,63.63,92.66,93.42,88.56,96.29Z"/><path class="cls-2" d="M83.76,36.33c-2.35,24.86-25.44,44.61-54.2,46.15-1.7,6.27-2.84,11.9-1,13.2,4,2.95,25.14-14.5,30.17-14.44S84.45,99.16,88.56,96.29s-6.27-28-4.67-32.66S109.21,45.1,107.7,40.38C106.66,37.13,93.31,37,83.76,36.33Z"/><path class="cls-3" d="M58.92,7.07A47.77,47.77,0,0,0,56,12.87c-2.39,5.6-4.46,11.31-6.65,17a13.68,13.68,0,0,1-2.84,5,9.26,9.26,0,0,1-4.37,2.2,28.79,28.79,0,0,1-5.14.56c-5,.25-10,.18-15,.29a26.83,26.83,0,0,0-6.52,1,11.84,11.84,0,0,0-3.41,1.78,19,19,0,0,0,3.69-.79,26,26,0,0,1,6.35-.64c5-.12,9.91.26,14.88,0a48.61,48.61,0,0,0,6.77-.65,10.28,10.28,0,0,0,4.88-2.47,12.67,12.67,0,0,0,3-5.6c2.16-7.42,2.76-9.36,5.33-17.27C57.6,11.37,59.11,7.06,58.92,7.07Z"/></svg>