<svg id="Layer_1" data-name="Layer 1" xmlns="http://www.w3.org/2000/svg" viewBox="0 0 136.24 111.53"><defs><style>.cls-1{fill:#0dff00;}</style></defs><path class="cls-1" d="M4.41,28.87a22.89,22.89,0,0,0,3.65,4.94c.37.37.73.7,1,1l.31.29.8.69.17.14c0,.18,0,.37,0,.61,0,.47.07.94.13,1.42s.08.69.14,1,.1.57.16.84.1.54.17.81.1.38.16.57a18.26,18.26,0,0,0,.81,2.4c.11.25.23.52.37.79,0,0,.06.14.1.21l.28.54.3.52,0,0,.25.4c.14.23.3.46.49.74s.25.37.37.54.42.58.63.85l.59.75c.23.28.45.56.68.83l.5.58.63.72.48.53.85.92.59.61c.26.28.53.55.82.84l.52.53,1.25,1.23c.36.35.73.69,1.07,1l1.35,1.26.36.32L26,59.68l1.1.93.85.71.74.59,1.05.8.35.26.87.62.38.26c.46.3.89.57,1.3.8l.54.31c.1.3.21.6.33.87l.14.34a20.65,20.65,0,0,0,1.67,3,47,47,0,0,0,2.95,3.94c.39.49.78,1,1.11,1.41a64,64,0,0,0,7.38,8A42.72,42.72,0,0,0,53,87.4l.73,1.39.18.35,1,1.8L56,92.79l1.44,2.37,2,3.23,1.7,2.58.79,1.11.69.92.36.45.13.16.31.35.33.35.17.18.37.35a11.52,11.52,0,0,0,1.3,1,12.18,12.18,0,0,0,1.55.87l.51.22.69.27.38.13.47.15.36.1.58.15.07-.27.13.06-.06.24.54.12.69.14.62.1.63.1.59.09,1.24.15a10.56,10.56,0,0,0,2,.19,10.18,10.18,0,0,0,1.64-.14l1.08-.18a10,10,0,0,0,8-7.06L92,84.86l.3-.34c.27-.32.53-.63.77-.94a71.4,71.4,0,0,0,6.23-10.21l.4-.79,1.22-2.48c.14-.28.29-.56.44-.84l.17-.33c.15-.27.3-.51.43-.71s.11-.17.16-.23l.56-.32,1.15-.61c.61-.33,1.28-.7,2-1.15A90.94,90.94,0,0,0,113.91,60c1.53-1.21,3-2.35,4.4-3.36l1.49-1.1,1.49-1.15a9.82,9.82,0,0,0,1.25-1.16l.32-.36c.13-.15.26-.33.4-.51s.37-.49.58-.79l.25-.39c.15-.25.31-.5.44-.73l.21-.38.42-.78.15-.31c.14-.26.27-.53.42-.84l.47-1,.53-1.21.5-1.21s.34-.86.46-1.15l.46-1.2.45-1.19L129,40l.77-2.17.58-1.75.31-1a38.61,38.61,0,0,0,1.66-13.69c0-.32-.06-.64-.1-.95s-.06-.56-.11-.84A10,10,0,0,0,129,13.84c-3.82-3.5-8-4.78-11.26-5.81l-.37-.11-.46-.13-.4-.11a7.18,7.18,0,0,0-.7-.16l-.65-.14-.85-.13-.12,0-.63-.08-.8-.08L112.08,7l-.78,0-.61,0h-1.41L108,7l-1,.06-.3,0-1.21.09-1.12.11-1.88.21-.57-.17-.38-.1c-.28-.08-.57-.15-.88-.22l-.38-.09-.89-.2-.34-.07-1.16-.21-.07,0-1.25-.2-.22,0,0,.09H96.2V6.16l-1-.14-1.51-.19-2.5-.25-2.68-.22-1.31-.08-1.42-.09-2.71-.13L80.62,5,75,4.82H73.87l-.35,0c-.24,0-.48,0-.71,0l-.31,0L71.4,5l-.93.11c-.6.08-1.21.16-1.82.26l-.89.14-2.13.37-.16-.05-1-.22-.77-.15-1.06-.19-.87-.13-1.36-.19-2.25-.27-3.44-.35L52.15,4Q51,3.92,49.81,3.83l-.35,0c-.76-.06-1.52-.11-2.27-.14h-.31c-.65,0-1.3,0-2,0H43.74c-1.05,0-1.94.08-2.78.16l-3,.29-4.18.4c-.23,0-.54,0-.88.1l-.66.11-1.12.19L30,4.62c-.67-.14-1.36-.25-2.05-.35l-.35,0c-1.77-.24-3.49-.37-5-.48l-.46,0c-.51,0-1.08-.06-1.67-.06h-.16a32.59,32.59,0,0,0-3.77.27l-.4,0L15,4.14l-.45.07-1.24.22-.44.08-1.67.35A10,10,0,0,0,6,7.83,11.68,11.68,0,0,0,4.8,9.38l-.21.33c-.1.16-.2.34-.3.52s-.2.36-.29.56-.11.23-.16.33-.16.36-.23.54-.13.32-.17.44-.11.29-.15.4l-.12.4c0,.12-.08.24-.11.35s-.1.36-.13.5-.19.8-.22.94-.06.31-.06.31l-.14.84c0,.24-.07.49-.1.74,0,0-.09.86-.09.87-.11,1.17-.16,2.27-.19,3.08,0,.29,0,.55,0,.75v.08a10,10,0,0,0,1.17,5.55l.36.66.41.7ZM12.07,22c.06-.76.07-2.21.2-3.65v0c0-.17,0-.34.05-.52v-.06l.06-.46a.34.34,0,0,0,0-.1l.06-.31,0-.15a.25.25,0,0,1,0-.08c0-.07,0-.14.05-.22s0-.12,0-.18l0-.11a.74.74,0,0,1,0-.14c0-.08,0-.14.06-.21a.36.36,0,0,1,0-.11l0-.1a1.8,1.8,0,0,0,.08-.21h0a.36.36,0,0,1,0-.11l0-.06a2.12,2.12,0,0,1,.11-.21h0l0-.09,0,0a1.89,1.89,0,0,1,.2-.27l1.46-.3.39-.08,1-.18.37-.06,1-.14.26,0a22.45,22.45,0,0,1,2.62-.2h.09c.31,0,.61,0,.88,0,1.62.13,3.33.24,5,.48h0l.17,0c.52.08,1,.16,1.55.26h0l.37.08h0l.67.16.09,0c.39.1.77.21,1.14.34h.12a23.92,23.92,0,0,0,2.76-.41l.45-.07.1,0,.46-.07h0l.37,0c2.4-.22,4.79-.47,7.19-.7.69-.06,1.38-.09,2.07-.11h.47c.67,0,1.35,0,2,0h.25l2,.12.33,0c.72,0,1.44.12,2.15.19h0l.17,0,2.39.25,1.18.11.24,0,.37,0,.28,0,.4,0,.3,0,.42.05.71.08.35,0,.41.05.4.05.39,0,.39.05L60,15l.39.06.39.06.36.06.43.07.35.07.55.1.26.06.34.08.24.07.18,0,.1,0,.21.07.11,0,.13.06.13,0a1.13,1.13,0,0,1,.27.16l.08,0,.17,0h.1l.28,0h.15l.22,0,.22,0,.27,0,.22,0c.87-.13,2-.34,3.17-.53l.08,0,.73-.11.09,0c.52-.08,1-.16,1.56-.22l.2,0,.53-.06.25,0,.45,0,.25,0,.44,0h1.87l1.7,0h1.75l.76,0h.36l.85,0,.38,0,.74,0h.4l.84,0h.32l1.16.06.31,0,.9.05.41,0,.87.05.37,0c.83.06,1.65.12,2.47.2l.33,0,.91.09.21,0,.23,0,.39.05.23,0,.23,0,.73.09.4,0,.79.11.29.05,1.06.17h0l1,.18.26.06.68.14.29.07.61.16.26.07.62.19.17.05c.26.09.5.17.73.27h0c.19.07.37.15.54.23h.23l.15,0,.22,0,.2,0,.77-.1h0l.5-.07.31,0,.49-.05.35-.05.54-.06.38,0,.64-.06.33,0,1-.08h.25l.78,0,.4,0,.65,0h1l.45,0,.56,0,.44,0,.53,0,.42.06.49.08.39.08.25.05.19.06.2.05c2.9.91,5.6,1.68,7.86,3.75,0,.12,0,.25,0,.37h0c0,.17,0,.35.07.53a29.09,29.09,0,0,1-1.26,10.06c-.06.21-.14.45-.22.7l0,.14-.22.66-.13.4-.18.51-.18.53-.15.44c-.09.24-.18.48-.26.73a2.83,2.83,0,0,0-.11.31c-.09.25-.19.5-.28.76l-.12.32-.33.87c0,.07-.05.15-.08.22-.11.3-.23.6-.35.9a1.67,1.67,0,0,1-.08.2c-.11.3-.23.59-.35.88a1.19,1.19,0,0,1-.08.2c-.11.28-.23.56-.34.83l-.09.22c-.12.28-.23.54-.35.79,0,.07-.05.14-.08.2l-.33.72-.09.2-.31.63-.1.2-.28.52-.1.19c-.09.15-.17.28-.26.41l-.1.17a2.71,2.71,0,0,1-.22.29l-.09.12-.06.08-1.41,1.08-1.24.92c-4.06,2.89-7.77,6.28-12,8.94-.46.28-.93.54-1.41.8l-1.17.63-.7.39h0a12.69,12.69,0,0,0-1.31.84,9.88,9.88,0,0,0-2.25,2.53c-.32.48-.61,1-.89,1.47-.08.14-.14.28-.22.42-.2.37-.4.74-.58,1.12a.91.91,0,0,0-.07.14L90.84,68c-.11.21-.21.42-.31.63h0a1.19,1.19,0,0,0-.08.16,60.89,60.89,0,0,1-5.31,8.75l-.45.55-.11.13-.75.86-.07.08-.33.39c-.12.15-.25.29-.37.45h0v.07L77.64,98.5l-1.08.18v-.05h-.17l-.5-.05h0l-.33,0h0l-.34,0h0l-.39,0h0l-.38-.06h-.08l-.37-.06H73.8l-.36-.06-.09,0L73,98.14l-.1,0-.32-.07-.11,0h0L72.19,98l-.12,0-.24-.08-.11,0-.21-.09h0l-.09,0h0l-.23-.13-.11-.09,0,0L71,97.35l0,0h0l-.05-.06-.1-.11-.07-.09L70.63,97l0,0h0l0,0-.06-.07-.11-.15a.64.64,0,0,1-.1-.13l-.07-.09,0-.06h0v0l0-.06-.05-.07-.13-.18-.12-.16-.06-.09-.06-.09,0,0,0,0,0-.07,0-.07-.15-.22a2.14,2.14,0,0,0-.13-.19l0-.08-.08-.11,0,0,0,0-.07-.1L69,94.68l-.15-.23-.15-.22,0-.07L68.57,94l0-.05,0,0-.07-.11,0-.06-.17-.25-.15-.24,0-.06L68,93.09l0-.06,0-.07-.07-.12,0-.07-.16-.24c0-.09-.11-.18-.17-.27l0,0-.09-.13,0-.07-.06-.1-.09-.13,0-.05-.15-.24-.18-.29,0,0-.07-.11,0-.09-.09-.14-.07-.12,0,0-.12-.2-.21-.34v0L66,90,66,90l-.1-.17a1.4,1.4,0,0,1-.1-.16l0,0-.08-.13-.24-.4,0,0,0-.05-.16-.26-.09-.14v0l0,0L65,88.37l0-.08-.27-.47-.28-.47-.13-.21-.18-.31c-.1-.17-.19-.34-.29-.5l-.14-.25-.1-.17-.26-.47c-.06-.1-.12-.2-.17-.3l-.12-.2-.15-.27-.07-.14v0l-.23-.42c-.53-1-1.21-2.36-1.92-3.76a39.72,39.72,0,0,1-7-5.06,56.25,56.25,0,0,1-6.28-6.73c-1.09-1.46-2.62-3.18-3.7-4.82h0a11.1,11.1,0,0,1-.88-1.59l0-.08a5.28,5.28,0,0,1-.24-.7l0-.13a3.17,3.17,0,0,1-.09-.67,1,1,0,0,0-.05-.3l0-.11c0-.07,0-.13-.08-.19l-.06-.13c0-.05-.07-.11-.11-.17a.83.83,0,0,0-.08-.12l-.12-.16a.63.63,0,0,0-.1-.12c0-.06-.09-.12-.14-.17l-.1-.1-.18-.2-.07-.07-.45-.48A12,12,0,0,0,37.54,56c-.22-.12-.46-.28-.72-.45l-.24-.17L36,54.91l-.28-.22-.84-.64L34.72,54h0l-.35-.28-.06-.05h0l0,0h0l-.35-.28L33.5,53c-.33-.27-.66-.56-1-.85L32,51.69l-.66-.58-.5-.45L30.13,50l-.48-.44-1-.94c-.17-.15-.32-.31-.48-.46l-.66-.65L27.06,47c-.25-.24-.48-.49-.72-.74l-.52-.54q-.39-.4-.75-.81l-.42-.47-.52-.58-.4-.47q-.29-.33-.54-.66l-.43-.54-.44-.6c-.1-.13-.18-.26-.27-.38l-.29-.46-.1-.15h0l0,0-.08-.15,0,0,0-.06a.25.25,0,0,1,0-.07l-.1-.18s0,0,0,0-.1-.2-.14-.3a9.46,9.46,0,0,1-.48-1.54v.07c0-.12-.05-.25-.08-.38s-.07-.32-.09-.48-.06-.4-.08-.6-.06-.59-.08-.88l0-.52c0-.19,0-.39,0-.59s0-.31,0-.47,0-.43,0-.64v-.49c0-.34,0-.67,0-1v-.42c0-.36,0-.72,0-1.08a.12.12,0,0,0-.06-.09l0,0a.35.35,0,0,0-.11-.07l0,0-.21-.11,0,0-.14-.08-.21-.11L19.31,30,19.15,30l-.3-.19-.14-.09-.46-.3-.19-.14-.4-.3-.19-.14-.64-.51-.16-.14-.58-.51-.23-.2c-.26-.24-.53-.49-.81-.77A19.8,19.8,0,0,1,12.55,23l-.24-.41h0l0,0,0,0-.21-.37A.49.49,0,0,0,12.07,22Z"/></svg>