<svg id="Layer_1" data-name="Layer 1" xmlns="http://www.w3.org/2000/svg" viewBox="0 0 140.71 96.94"><defs><style>.cls-1{fill:#0dff00;}</style></defs><path class="cls-1" d="M137,20v-.14c0-.2,0-.45,0-.75,0-.8-.08-1.9-.19-3.07h0c0-.26-.05-.51-.08-.76v-.08c0-.21-.05-.43-.09-.69,0-.06,0-.16,0-.22s-.09-.54-.09-.54-.09-.45-.1-.52l-.1-.46-.14-.58-.09-.33-.21-.68-.17-.48-.17-.42c-.06-.16-.13-.32-.19-.46l-.2-.43-.3-.57a.41.41,0,0,1-.05-.09l-.24-.42-.2-.32a12.36,12.36,0,0,0-1.21-1.55,10,10,0,0,0-5.2-3c-.59-.13-1.15-.24-1.68-.34L125.77,3l-1.22-.22-.43-.07-1.29-.19-.27,0a33.39,33.39,0,0,0-3.79-.27h-.18c-.57,0-1.12,0-1.63.06l-.54,0c-1.51.12-3.23.25-5,.49l-.28,0c-.69.1-1.37.21-2,.35l-1.14.25-1-.16-.84-.14c-.34-.05-.64-.08-.87-.1l-4.13-.4-3-.29c-.85-.08-1.73-.13-2.78-.16H94.18c-.65,0-1.3,0-2,0h-.29c-.75,0-1.51.08-2.3.14l-.34,0c-.78.06-1.55.13-2.33.21l-3.44.35-4,.43-1.75.23-1.34.21-1,.18-.82.16-.32.07-.76.19-1.92-.33L70.47,3.9l-1.89-.27-.92-.1-1-.09-.39,0-.73,0H64.07l-.93,0-1.77,0-4.94.15-2.84.13-1.3.08-1.75.11-2.67.22-1.36.13-1,.11-1.74.21-1.23.18L41.28,5l-1.22.22-.35.07-.85.19-.44.1-.87.22-.38.11L36.61,6l-1.49-.17L33.6,5.72l-1.2-.09-1.24-.07-1.35,0H28.45l-.62,0-.85,0-.65,0-.84.08-.71.09-.89.15-.63.13-.64.14-.42.12-.49.14-.38.12c-3.31,1-7.44,2.31-11.26,5.8A10,10,0,0,0,7,18.15c0,.29-.09.58-.11.84s-.08.62-.1.93A38.48,38.48,0,0,0,8.42,33.64c.07.26.16.54.26.84,0,0,.31.94.31.94l.32,1,.54,1.56.93,2.51.54,1.43.48,1.2s.32.78.48,1.15l.59,1.37.39.87.12.25c.14.3.27.57.41.83l.14.29c.14.28.28.53.42.78l.18.34.46.75c.1.17.21.33.28.43.2.3.38.55.56.79l.44.55.36.4A9.91,9.91,0,0,0,17.81,53l1.5,1.16c.49.37,1,.74,1.48,1.09,1.43,1,2.88,2.16,4.4,3.37a94.59,94.59,0,0,0,8.07,5.9c.73.45,1.42.83,2,1.14l1.14.62.56.31a2,2,0,0,1,.16.24,7.61,7.61,0,0,1,.44.71l.16.33.45.84S39.31,71,39.31,71l.48,1A69.81,69.81,0,0,0,46,82.14c.23.29.48.61.79,1l1,1.1.41.49A10,10,0,0,0,52.87,88l.19.06c2,.66,3.72,1.22,5.39,1.72l.33.1a49.81,49.81,0,0,0,8.72,2c.79.1,1.61.16,2.46.19h.28l1.12,0c.68,0,1.36,0,2-.06a9.91,9.91,0,0,0,4-1.1,2.65,2.65,0,0,1,.24-.12c.75-.4,1.74-.92,2.74-1.51l1.25-.74a55.72,55.72,0,0,0,10.69-7.51,64,64,0,0,0,7.38-8c.33-.45.71-.92,1.11-1.41a45.39,45.39,0,0,0,2.95-3.94,20.45,20.45,0,0,0,1.64-3c0-.06.12-.29.14-.32q.2-.48.36-1l.55-.31c.39-.23.84-.5,1.3-.81l.39-.27c.27-.18.54-.38.89-.63l.32-.24,1-.77L111,60l1-.82,1.12-1,1.28-1.13.54-.49,1.34-1.23c.36-.34.72-.68,1.07-1l.45-.44,1.34-1.32.81-.83.59-.63c.29-.3.58-.61.85-.91l.5-.55c.21-.24.42-.47.61-.7l.49-.57c.24-.29.47-.56.7-.85l.57-.73c.22-.29.44-.57.63-.84l.42-.61c.17-.25.32-.49.45-.69s.18-.28.26-.42l.36-.63.35-.67c.13-.27.25-.54.36-.8a17.48,17.48,0,0,0,.81-2.38c.06-.2.12-.4.17-.61s.11-.51.17-.79.11-.56.15-.8.1-.67.14-1.08.1-1,.13-1.49a4.84,4.84,0,0,0,0-.53l.18-.15.8-.7.28-.25c.35-.32.7-.64,1.07-1a23.14,23.14,0,0,0,3.65-4.94c.12-.21.25-.41.35-.58s.27-.44.39-.67l.43-.78A10,10,0,0,0,137,20Zm-10.18,1.11,0,0,0,0h0l-.24.41a19.8,19.8,0,0,1-2.5,3.65c-.28.28-.55.53-.82.77l-.22.21-.57.49-.18.15-.63.51-.19.14-.4.3-.2.14-.45.3-.14.09-.3.19-.16.09-.23.13-.19.1-.17.09,0,0L119,29l0,0-.11.07,0,0a.12.12,0,0,0-.06.09c0,.36,0,.71,0,1.07v.45c0,.33,0,.66,0,1v1.61c0,.2,0,.4,0,.59l0,.52c0,.29,0,.59-.08.88s-.05.4-.08.6l-.09.48c0,.13,0,.26-.08.38v-.07a9.46,9.46,0,0,1-.48,1.54c0,.1-.09.2-.14.3s0,0,0,.05l-.1.18a.25.25,0,0,1,0,.07l0,.06,0,0a1.19,1.19,0,0,1-.09.15v0h0a1.19,1.19,0,0,1-.09.15c-.09.15-.19.3-.3.46s-.16.25-.26.38l-.44.6-.43.54c-.18.22-.35.44-.54.66l-.4.47-.52.58-.42.47q-.36.4-.75.81l-.52.54-.72.74-.48.49-.66.65-.48.46-1,.94-.48.44-.74.68-.5.45-.66.59-.47.41c-.34.29-.67.58-1,.85l-.41.34-.35.28h0l0,0h0l-.06,0-.35.28h0l-.12.09-.84.64-.28.22-.62.43-.24.17c-.26.17-.51.33-.72.45a12,12,0,0,0-3.27,2.3l-.45.48-.07.07-.18.19-.1.11-.14.17-.1.11-.12.17-.09.12a1,1,0,0,1-.1.17l-.06.13c0,.06,0,.13-.08.19l0,.11a1,1,0,0,0,0,.3,3.08,3.08,0,0,1-.09.67l0,.13a5.28,5.28,0,0,1-.24.7l0,.08a11.74,11.74,0,0,1-.88,1.6h0c-1.08,1.64-2.61,3.36-3.7,4.82a56.25,56.25,0,0,1-6.28,6.73c-2.92,2.79-6.65,4.82-10.12,6.87-.73.43-1.5.84-2.27,1.24l-.21.12c-.77,0-1.55,0-2.33,0h-.15c-.57,0-1.13-.06-1.71-.13a42.34,42.34,0,0,1-7.35-1.78c-1.71-.51-3.41-1.06-5.11-1.62h0L56,78.52c-.12-.16-.25-.3-.37-.45l-.33-.39-.07-.08-.75-.87-.11-.12c-.16-.19-.32-.38-.45-.55a60.89,60.89,0,0,1-5.31-8.75,1.19,1.19,0,0,0-.08-.16h0c-.1-.21-.2-.42-.31-.63l-1.07-2.18s0-.09-.07-.14c-.19-.38-.38-.75-.58-1.12-.08-.14-.15-.28-.22-.42-.28-.5-.57-1-.89-1.47a9.88,9.88,0,0,0-2.25-2.53,12.69,12.69,0,0,0-1.31-.84h0l-.7-.39L40,56.8c-.47-.26-.94-.52-1.4-.8-4.22-2.66-7.93-6-12-8.94l-1.24-.92-1.41-1.08L23.88,45a1.25,1.25,0,0,1-.09-.12c-.07-.09-.14-.17-.22-.29l-.11-.17L23.21,44l-.1-.19c-.09-.17-.19-.33-.28-.52l-.1-.21-.3-.61-.11-.23c-.1-.23-.21-.45-.32-.69l-.09-.22-.34-.78-.09-.22c-.11-.27-.23-.54-.34-.83l-.09-.21c-.11-.29-.23-.57-.34-.87a2,2,0,0,1-.1-.26l-.33-.84-.1-.27c-.11-.28-.21-.55-.31-.82l-.12-.32c-.09-.26-.19-.51-.28-.76l-.12-.36c-.08-.23-.17-.45-.24-.67s-.13-.35-.19-.53l-.15-.45-.22-.63-.09-.27c-.08-.26-.16-.49-.23-.72l0-.09c-.08-.25-.16-.49-.22-.7a29.09,29.09,0,0,1-1.26-10.06l.06-.53h0c0-.12,0-.25,0-.37,2.26-2.07,5-2.84,7.86-3.75l.19-.05.2-.06.25-.05.39-.08.49-.08.42-.06.53-.05.44,0,.56,0,.45,0h1l.64,0,.41,0,.77,0h.26l1,.08.31,0,.67.06.35,0,.56.06.36.05.48.05.31,0,.5.07h0l.77.1.2,0,.22,0,.15,0h.23c.17-.08.35-.16.54-.23h0c.23-.1.47-.18.72-.27l.18-.05.62-.19.26-.07.61-.16.29-.07.68-.14L42,15l1-.18h0L44,14.65l.3-.05.78-.11.4-.05.73-.09.23,0,.24,0,.38-.05.23,0,.21,0,.91-.09.33,0c.82-.08,1.64-.14,2.47-.2l.37,0,.87,0,.41,0,.9,0,.31,0,1.16-.06h.32l.84,0h.4l.74,0,.38,0,.85,0h.36l.76,0h1.75l1.69,0h1.88l.44,0,.25,0,.45,0,.25,0,.53.06.2,0c.51.06,1,.14,1.56.22l.09,0,.73.11.08,0c1.18.19,2.3.4,3.17.53l.22,0,.27,0,.22,0,.22,0h.14l.29,0h.1l.17,0,.08,0a1.13,1.13,0,0,1,.27-.16l.13-.05.13-.06.11,0,.21-.07.1,0,.18,0,.24-.07.34-.08.26-.06.55-.1.34-.07.44-.07.36-.06.39-.06.38-.06.4-.05.39,0,.39-.05.4,0,.41-.05.35,0,.7-.08.43-.05.3,0,.4,0,.28,0L84,13l.23,0,1.19-.11,2.39-.25.17,0h0c.71-.07,1.43-.14,2.15-.19l.33,0q1-.08,2-.12h.25c.68,0,1.36,0,2,0h.47c.69,0,1.38.05,2.07.11,2.4.23,4.79.48,7.19.7l.36,0h0l.45.07.11,0,.45.07a23.92,23.92,0,0,0,2.76.41h.12c.37-.13.75-.24,1.14-.34l.09,0,.67-.16h0L111,13h0c.51-.1,1-.18,1.55-.26l.16,0h0c1.69-.24,3.4-.35,5-.48.27,0,.57,0,.88,0h.09a22.61,22.61,0,0,1,2.62.2l.26,0,1,.14.37.06,1,.18.38.08,1.47.3a1.89,1.89,0,0,1,.2.27l0,0,0,.09h0a2.12,2.12,0,0,1,.11.21l0,.06a.36.36,0,0,1,0,.11h0l.09.21,0,.1a.36.36,0,0,1,0,.11l.06.21c0,.05,0,.09,0,.14l0,.11c0,.06,0,.12,0,.18s0,.15,0,.22,0,.06,0,.08l0,.15a2.87,2.87,0,0,1,.05.31s0,.07,0,.1l.06.46v.06c0,.18,0,.35,0,.52v0c.13,1.44.14,2.89.2,3.65a.49.49,0,0,0,0,.12Z"/></svg>