<svg id="Layer_1" data-name="Layer 1" xmlns="http://www.w3.org/2000/svg" viewBox="0 0 133.35 99.53"><defs><style>.cls-1{fill:red;}</style></defs><path class="cls-1" d="M123.45,23.85c-.12-.18-.28-.44-.51-.81-2.65-5.15-7.3-14-7.35-14.1a10,10,0,0,0-6.69-5.12c-1.68-.37-3.89-.85-4.9-1-1.37-.2-2.74-.42-4.11-.63C98.92,2,98,1.88,97,1.74s-1.74-.23-2.81-.31l-.62,0c-.89-.06-1.73-.08-2.59-.08h-.28c-.76,0-1.52,0-2.24.05H88l-2.33.13L78.7,2l-1.31.11L76,2.24l-.9.11-1.07.16-.73.13-.49.09-.48.11-1.7-.41-1-.23c-.61-.14-1.23-.27-1.75-.37l-.35-.06-.92-.16-.75-.11-.41-.05-.72-.07-.39,0c-.44,0-.87,0-1.26,0L58,1.2H52.79l-1.33,0-1.75.05c-.89,0-1.78.06-2.64.11l-1.39.08-1,.07L43,1.69l-1.28.14L40.41,2h-.1l-1.2.2-.32,0L38,2.43l-.5.1-.92.22-.69.18-1.67-.29-1.11-.17-1.22-.16-.34,0-.84-.09-.53,0-.84-.07-.56,0-.87,0H26.4l-.68,0-.83,0-.79.07-.89.12-.7.13c-.24,0-.47.08-.67.13l-.48.12-.48.13-.38.12C17.3,3.82,12.92,5.11,9,8.79a10,10,0,0,0-3,5.41c0,.28-.09.55-.13.85s-.1.62-.13.92a45.47,45.47,0,0,0,.9,14.44c.06.27.13.56.21.88l.24,1,.48,1.86.71,2.62.39,1.35L9,39.47l.4,1.32.47,1.45.43,1.29.37,1,.07.18c.12.33.24.63.36.94l.11.28.35.84c.07.14.13.28.17.37.14.31.27.58.4.82l.22.44c.18.32.34.59.5.85l.31.47c.11.18.27.39.4.56a9.47,9.47,0,0,0,1,1.15L16,52.8l1.4,1.27c1.38,1.2,2.75,2.52,4.2,3.92l1.59,1.52.24.61c2.91,7.26,7.79,13,13.78,16.17a10,10,0,0,0,7.43,3.32l.58,0a11.5,11.5,0,0,0,1.19.77c2.34,1.93,4.26,5.8,6.16,10A10.8,10.8,0,0,0,63,96.82c.51,0,1,0,1.57-.08,1.25-.13,2.06-.26,2.54-.34l.2,0a5,5,0,0,1-.78,0c.08,0,8-.5,12.46-3.86.7-.4,2.55-1.33,4.11-2A10,10,0,0,0,87,87.25a27,27,0,0,1,3.89-4.32,35.24,35.24,0,0,0,6.24-6.83l.27-.37a16.34,16.34,0,0,0,3-5.25c.31-.55.59-1.11.83-1.65l.11-.24a12.68,12.68,0,0,0,.5-1.34l.69-.38c.4-.23.86-.52,1.37-.86l.35-.24c.29-.2.59-.41.91-.65l.36-.26,1-.81.63-.5,1-.86,1.16-1,1.29-1.15.56-.51,1.38-1.3,1.1-1.06,1.3-1.29.56-.57.82-.86.63-.67c.31-.32.6-.65.87-.94l.53-.59.64-.74.5-.6c.24-.28.47-.56.71-.86s.4-.51.59-.77.46-.6.64-.86l.44-.63.46-.71.24-.38.06-.1.28-.5.4-.75q.19-.41.36-.78a20.69,20.69,0,0,0,.85-2.38c.07-.2.13-.41.18-.61s.12-.48.19-.77l.18-.83c.07-.35.12-.7.17-1s.14-1,.19-1.46v-.13c0-.21,0-.43.07-.66s0-.58.06-.92l0-.59,0-1.34a9.71,9.71,0,0,0,.61-3.31A10,10,0,0,0,123.45,23.85Zm-7.52,7.29a.15.15,0,0,0-.07.1c0,.39,0,.79-.07,1.18,0,.16,0,.31,0,.47,0,.37,0,.74,0,1.11,0,.18,0,.36,0,.53l0,.71,0,.51c0,.22,0,.44,0,.65l-.06.56c0,.33-.07.65-.12,1s-.07.44-.11.65-.08.35-.12.53l-.09.42v-.08a11.13,11.13,0,0,1-.55,1.66c0,.11-.1.22-.16.33l0,.05-.1.19-.05.08,0,.07v0l-.1.17v0h0l-.1.16c-.09.16-.2.32-.31.49l-.28.41-.47.62-.46.59c-.18.23-.36.46-.56.69l-.42.5-.54.62-.44.49-.77.84-.55.59-.75.78-.5.51-.68.68-.5.49-1,1-.49.46-.77.72-.52.47c-.23.2-.45.41-.68.6l-.49.44-1,.88-.43.36-.35.3h0l0,0h0l-.07.06-.36.29h0l-.12.09-.86.67-.3.22-.62.45-.25.17c-.27.18-.52.34-.74.46a11.87,11.87,0,0,0-3.35,2.38c-.59.68-1.6,1.52-1.66,2.47,0,.09,0,.19,0,.28l0,0,0,.08c0,.12,0,.23-.08.35l0,.14a6.19,6.19,0,0,1-.27.75l0,.08a11.81,11.81,0,0,1-.79,1.47l-.09.22a8.52,8.52,0,0,1-1.34,2.66c-.74.73-2.4,3.69-5.35,6.08a38,38,0,0,0-5.72,6.28s-5.16,2.4-5.9,3.13-5.72,1.85-6.46,1.85-1.11.18-3,.37c-1.58.16-1.76-.33-1.78-.47h0C59.24,80.83,56.39,75,51.47,71.66a.56.56,0,0,1-.5-.34c-.35-.21-.7-.42-1.07-.61a48.42,48.42,0,0,0-5.36-2.1l.12,1c-.16-.37-.3-.75-.44-1.12a21.88,21.88,0,0,1-2-.89c-4.45-2.26-7.59-6.56-9.45-11.2q-.48-1.23-.87-2.49c-2.65-2.42-5.17-5-7.86-7.38-.39-.34-.79-.7-1.18-1.06l-1.34-1.26-.06-.09L21.33,44c-.06-.1-.13-.2-.2-.33L21,43.47c-.08-.14-.15-.29-.23-.46l-.09-.21c-.08-.19-.17-.38-.25-.59L20.38,42c-.09-.23-.18-.46-.27-.71L20,41.07l-.29-.82L19.67,40q-.15-.43-.3-.9a1.59,1.59,0,0,1-.07-.2c-.1-.32-.21-.64-.31-1l-.06-.19c-.1-.33-.21-.67-.31-1a1.87,1.87,0,0,0-.07-.22c-.1-.34-.2-.67-.29-1a2.17,2.17,0,0,1-.07-.24c-.1-.33-.19-.66-.28-1l-.08-.26c-.09-.31-.17-.63-.26-.94,0-.1-.05-.2-.08-.3-.08-.29-.16-.57-.23-.85l-.09-.36c-.07-.25-.13-.5-.19-.73s-.06-.23-.09-.35-.12-.45-.17-.66-.06-.26-.1-.39-.08-.35-.12-.5-.12-.54-.18-.77a35.39,35.39,0,0,1-.72-11.1l.09-.58h0c0-.14,0-.27.06-.4,2.34-2.18,5.05-2.9,8-3.75l.2-.06.2-.05.25,0,.38-.07.49-.07.42,0,.52,0,.44,0h1l.58,0,.44,0,.62,0,.41,0,.72.08.3,0,1,.13.37.06.58.09.39.06.51.09.37.07.45.08.34.06.45.09.23,0,.53.1.21,0,.21,0,.14,0h.24l.54-.24h0c.23-.09.47-.18.73-.26l.18-.05.61-.18.27-.06.61-.14.29-.07.68-.13.26,0,1-.16h0l1.05-.14.3,0,.78-.09.38,0,.74-.06.22,0,.23,0,.39,0,.23,0h.2l.9-.06h.34c.81,0,1.63-.08,2.44-.11h.37l.85,0h.42l.9,0h7.76l1.7,0H63.1l.57,0,.2,0,.44,0,.23,0,.46.07.24,0,.52.09.2,0,1.52.32.11,0,.7.15.07,0c1.15.27,2.25.55,3.11.74l.21,0L72,13l.22,0,.21,0,.14,0,.28,0h.1l.17,0,.08,0,.27-.16.13,0,.13-.05.11,0,.22-.07.1,0,.18,0,.24-.06.34-.07.25,0,.54-.1.37-.05.43-.07.35,0,.39-.05.38,0,.39,0,.39,0,.39,0,.39,0,.41,0,.62,0,.43,0,.44,0,.28,0,.41,0,.25,0,.4,0,.2,0,.64,0h.13l.43,0,2.28-.15.25,0h0l2.13-.12h.34c.64,0,1.28,0,1.92,0H91q1,0,2,.06l.46,0c.68,0,1.36.12,2,.22,2.35.36,4.7.74,7.06,1.09.87.13,4.21.88,4.21.88s4.81,9.17,7.45,14.29a11.4,11.4,0,0,0,2.15,3A2.42,2.42,0,0,0,115.93,31.14Z"/><path class="cls-1" d="M64.27,51.67s0,0,0,.07l0,.07a1,1,0,0,0,0-.18Z"/></svg>