<svg xmlns="http://www.w3.org/2000/svg" viewBox="0 0 118.59 85.65"><defs><style>.cls-1{isolation:isolate;}.cls-2{fill:#cdba97;}.cls-3{fill:#b79f88;}.cls-4{fill:#8e7250;}.cls-5{fill:#a8916f;}.cls-6{fill:#a38a73;}.cls-17,.cls-7{opacity:0.4;}.cls-8{fill:#a38e72;}.cls-9{fill:#c1a68c;}.cls-10,.cls-18{opacity:0.5;}.cls-11{fill:#9a836c;}.cls-12{fill:#a38671;}.cls-13,.cls-15,.cls-17,.cls-21,.cls-24{mix-blend-mode:multiply;}.cls-14{fill:#c4b29d;}.cls-15{opacity:0.6;}.cls-16{fill:#beaa8c;}.cls-18{mix-blend-mode:screen;}.cls-19{fill:#937e67;}.cls-20{fill:#e4d3aa;}.cls-21{opacity:0.2;}.cls-22{fill:#a38973;}.cls-23{fill:#ad9577;}.cls-24,.cls-26{opacity:0.3;}.cls-25{fill:#513a2d;}.cls-26{fill:#fff;}</style></defs><g class="cls-1"><g id="Layer_1" data-name="Layer 1"><path class="cls-2" d="M12.28,12.72c4.22-1.31,12.88.36,13.14.23C31,10.23,49,10.19,52.05,10.07s9.77,1.56,10.24,1.21C63.54,10.35,70.9,9.72,73,9.51A61.53,61.53,0,0,1,84.78,9c2.39.23,4.79.48,7.18.69.89.08,4,.73,4.3.62a37.9,37.9,0,0,1,9.06-1.37,29.76,29.76,0,0,1,8,1c1.28,1.39,1.15,6.06,1.28,7.52-.15.29-.31.58-.48.86a20.66,20.66,0,0,1-2.5,3.65c-3.61,3.53-5.35,3.76-5.32,4-.09,3,.38,6.16-.84,9C104,38.78,93,49,89.15,51.22a12,12,0,0,0-3.28,2.3c-.56.64-1.55,1.45-1.56,2.32,0,2.35-3.14,5.55-5,8a54.77,54.77,0,0,1-6.28,6.73c-2.92,2.79-6.65,4.82-10.13,6.88-.79.47-1.63.92-2.47,1.35a23.58,23.58,0,0,1-4.19-.1,44.24,44.24,0,0,1-7.35-1.78c-1.78-.53-3.54-1.1-5.29-1.69-.71-.89-1.53-1.73-2.08-2.46A60.24,60.24,0,0,1,36.24,64,62.34,62.34,0,0,0,33,57.91a10.07,10.07,0,0,0-2.25-2.53c-1.42-1.05-3.1-1.74-4.6-2.67-4.22-2.66-7.93-6.05-12-8.94-.88-.63-1.76-1.32-2.65-2-1.6-1.7-4.94-11-6-14.33A28.85,28.85,0,0,1,4.31,17.37c0-.31.06-.6.1-.9C6.68,14.39,9.38,13.62,12.28,12.72Z"/><path class="cls-3" d="M110.4,13.06c.85,1.18,2.44,3.77,4.22,4.23-.12-1.58,0-6-1.28-7.4A42.34,42.34,0,0,0,107.79,9c.32.48.63.95.93,1.44C109.26,11.31,109.79,12.21,110.4,13.06Z"/><path class="cls-4" d="M98.39,16.24a2,2,0,0,1-.19.43,22.2,22.2,0,0,0,1.71,2.62c1.93,2.57,3.91,5.09,6.85,6.35a19.74,19.74,0,0,0,4.88-3.72,20.66,20.66,0,0,0,2.5-3.65c.1-.16.19-.33.28-.49-1.5-.21-2.88-1.92-3.66-3.1s-1.5-2.54-2.24-3.81c-.38-.66-.82-1.3-1.25-1.93a12.75,12.75,0,0,0-2,0c-1.62.12-3.34.24-5,.47a37.39,37.39,0,0,1-1.09,4.53C98.94,14.7,98.68,15.48,98.39,16.24Z"/><path class="cls-5" d="M100.76,31.69a42.85,42.85,0,0,1-5.91-7.33c-.75-1.24-1.63-2.48-2.29-3.77,0,2.35-.33,4.72-.5,7.05-.19,2.62-.31,5.24-.43,7.87-.2,4.5.45,8.94.7,13.42,4.52-3.66,11.06-10.08,12.85-13.34a7.68,7.68,0,0,1-1.61-1.18C102.6,33.55,101.66,32.62,100.76,31.69Z"/><path class="cls-4" d="M74.45,14.26C73.7,17.2,72.53,20,71.8,23c-1.65,6.62.46,13.42.47,20.13l1.1,1.24a62.93,62.93,0,0,0,7,6.9,9.12,9.12,0,0,0,3.48,2,16.47,16.47,0,0,0,2,.31h0a12,12,0,0,1,3.28-2.3,27.11,27.11,0,0,0,2.83-2,106.24,106.24,0,0,1-1-13.32c0-2.89.17-5.78.39-8.67.1-1.37.22-2.75.35-4.12a21.36,21.36,0,0,1,.45-3.49,20.38,20.38,0,0,1-.78-3.1c-.47-2.35-1.18-4.67-1.56-7l-5-.49a47.83,47.83,0,0,0-9.26.26,3.06,3.06,0,0,0-.1.41C75.09,11.19,74.83,12.74,74.45,14.26Z"/><path class="cls-6" d="M97.82,15.93a4,4,0,0,0,.2-.46c.28-.79.6-1.57.87-2.36.4-1.22.75-2.44,1.12-3.67a23,23,0,0,0-3.58.81A16.9,16.9,0,0,0,97,14,15.68,15.68,0,0,0,97.82,15.93Z"/><path class="cls-4" d="M36,47.14c1-1.58,1.84-3.3,2.75-5a14.57,14.57,0,0,1,1.4-2.71l-.77-.63a.78.78,0,0,1-.41-.32,40.73,40.73,0,0,1-5.3-4.66,37.62,37.62,0,0,1-2.78-3.61c-.8-1.16-1.72-2.28-2.42-3.51-1.26-2.22-1.65-4.86-2.12-7.32-.26-1.33-.64-2.65-.82-4a11.74,11.74,0,0,1-2.35,1.71c-1.13.73-2.39,1.29-3.57,1.94s-2.57,1.35-3.8,2.11c-.61.37-1.32,1.19-2,1.34q0,2.44-.15,4.89c-.19,2.88-.32,5.78-.64,8.65a36.18,36.18,0,0,1-.65,4.13c-.14.58-.27,1.21-.46,1.82.78.6,1.55,1.2,2.33,1.76,4.06,2.89,7.77,6.28,12,8.94.95.59,2,1.08,3,1.63A32.54,32.54,0,0,0,36,47.14Z"/><g class="cls-7"><path class="cls-3" d="M45,60.88c.16-3.62.49-7.22.6-10.84a35.54,35.54,0,0,0-.07-4.95,11.58,11.58,0,0,1-.06-3.85A21.1,21.1,0,0,1,41.8,40.1c-.26-.12-.52-.26-.78-.41-1,1.29-1.63,2.75-2.5,4.11-1,1.51-1.94,3-2.93,4.53-1.56,2.38-3.44,4.86-6,6.3.39.24.77.48,1.13.75A10.07,10.07,0,0,1,33,57.91,62.34,62.34,0,0,1,36.24,64a60.24,60.24,0,0,0,5.31,8.74c.5.66,1.21,1.41,1.87,2.21.14-1.51.42-3,.62-4.49C44.47,67.3,44.86,64.08,45,60.88Z"/></g><path class="cls-4" d="M73.1,45.05a86.36,86.36,0,0,1-6.72-8.32c-.95-1.34-1.9-2.69-2.78-4.08a11.59,11.59,0,0,1-1.69-3.37c-.06-.15-.11-.3-.16-.46l0,0,0,.08a.3.3,0,0,1-.12.13c-.35.23-.67,1.64-.87,2a10.53,10.53,0,0,1-1.1,1.78,26.79,26.79,0,0,1-3.39,3.51,40,40,0,0,1-4.06,3.18l-.65.48c-.61.52-1.26,1-1.87,1.49s-.51.52-1.09.39c-.76-.18-1.53-.35-2.29-.51l-.34-.08a34.16,34.16,0,0,0,.18,4.74c.09,1.57,0,3.15,0,4.71,0,2.57.06,5.16-.16,7.72v0a1.64,1.64,0,0,0,0,.22,13.33,13.33,0,0,0,1.33,2.1c.75,1,1.61,1.93,2.35,2.94,1.39,1.91,2.41,4,3.85,5.91a93.18,93.18,0,0,0,7.29,9c.77-.4,1.54-.81,2.26-1.24,3.48-2.06,7.21-4.09,10.13-6.88a54.77,54.77,0,0,0,6.28-6.73c1.83-2.44,4.93-5.64,5-8,0-.77.78-1.48,1.34-2.08a8.22,8.22,0,0,1-4.81-1.45A51.62,51.62,0,0,1,73.1,45.05Z"/><path class="cls-8" d="M52.52,69.52c-1.62-2.45-2.89-5.08-4.78-7.34a27.32,27.32,0,0,1-2-2.42q-.08.59-.18,1.17C45,64,44.82,67.12,44.39,70.2c-.22,1.67-.53,3.36-.66,5.06,1.72.57,3.45,1.13,5.19,1.65a44.24,44.24,0,0,0,7.35,1.78,22.65,22.65,0,0,0,3.57.13C56.88,76.24,54.65,72.74,52.52,69.52Z"/><g class="cls-7"><path class="cls-9" d="M93,19.87c.61,1.19,1.37,2.32,2,3.47a47.2,47.2,0,0,0,5.75,7.81,19.14,19.14,0,0,0,4.52,4.14l.14-.3c1.22-2.87.75-6,.84-9a.12.12,0,0,1,.06-.1c-2.86-1.17-5.17-3.89-7-6.22a17.39,17.39,0,0,1-2.89-5.23,12.15,12.15,0,0,1-.37-4.1c-.67,0-3.35-.55-4.18-.63l-1.81-.17c.51,2.09,1.15,4.15,1.6,6.25A16.75,16.75,0,0,0,93,19.87Z"/></g><path class="cls-8" d="M35.05,15.82a50.22,50.22,0,0,0,.33,8c.21,1.33.56,2.63.77,4s.41,2.88.7,4.31c.37,1.73.57,3.76,1.46,5.33a20,20,0,0,0,4,2.15,27.14,27.14,0,0,0,3.4,1l1.92.45c.8.19,1.16.34,1.86-.15l.27-.18a16.39,16.39,0,0,1,1.8-1.47c1.32-1,2.63-2.1,3.89-3.23,2.26-2,4.47-4.17,5.1-7.22.1-.52.19-1.05.28-1.58s.27-.86.31-1.3a14.52,14.52,0,0,0-.1-1.47c0-.57,0-1.13,0-1.7,0-1.09,0-2.19,0-3.28,0-2,.1-4.09.28-6.13.07-.69.14-1.38.25-2.07-1.88-.19-7-1.34-9.54-1.24-1.94.08-10.08.12-17.13.87A33.37,33.37,0,0,1,35.05,15.82Z"/><g class="cls-10"><path class="cls-6" d="M68.78,25a14.68,14.68,0,0,0,1.62,2.73,19.54,19.54,0,0,1,.8-4.25c.86-3.24,2.17-6.35,2.93-9.62.33-1.45.55-3,.87-4.59l-2,.21a74.31,74.31,0,0,0-9.72,1.37c.56,3,2,5.75,3,8.59A56.6,56.6,0,0,0,68.78,25Z"/></g><g class="cls-10"><path class="cls-11" d="M26.93,18.71c.49,2.5.83,5.13,2,7.43.17.32.35.64.55.95a10.7,10.7,0,0,1,1-1.23c.61-.81,1.22-1.63,1.76-2.49s.92-1.49,1.34-2.25c.25-.44.48-.95.74-1.41-.05-.84-.08-1.68-.07-2.52,0-1.38.06-2.75,0-4.13a17,17,0,0,0-.2-2A33.88,33.88,0,0,0,26,12.72c.06.74.12,1.49.22,2.22C26.34,16.22,26.68,17.45,26.93,18.71Z"/></g><g class="cls-7"><path class="cls-3" d="M34.6,34.3a24.64,24.64,0,0,0,3.18,2.78,15.88,15.88,0,0,1-1.06-4c-.31-1.38-.49-2.77-.75-4.16-.23-1.2-.58-2.36-.84-3.55a38,38,0,0,1-.68-4.32,18.53,18.53,0,0,1-1.31,2.12c-.59.83-1.21,1.63-1.82,2.44-.5.65-.95,1.4-1.47,2,.56.85,1.18,1.68,1.73,2.53A25.42,25.42,0,0,0,34.6,34.3Z"/></g><path class="cls-3" d="M5.57,27.43c1,3.32,4.27,12.38,5.89,14.26a18.45,18.45,0,0,0,.66-2.53A38.89,38.89,0,0,0,12.54,35q.2-4,.41-8a67.8,67.8,0,0,0,0-8.67c-.13-1.91-.23-3.8-.45-5.68l-.19.05c-2.9.9-5.6,1.67-7.87,3.75,0,.3-.08.59-.1.9A28.85,28.85,0,0,0,5.57,27.43Z"/><g class="cls-10"><path class="cls-12" d="M13.57,18c.1,1.37.16,2.73.17,4.09.73-.54,1.73-.88,2.49-1.33l3.51-2a38,38,0,0,0,3.59-2.46,14.17,14.17,0,0,1,2.1-1.63c-.05-.55-.07-1.1-.07-1.64-.78,0-8.51-1.41-12.69-.35.08.47.16.93.25,1.4A38,38,0,0,1,13.57,18Z"/></g><path class="cls-3" d="M61.86,15a53.44,53.44,0,0,0,0,9.55,16.9,16.9,0,0,0,.6,4.3,16.08,16.08,0,0,0,2.07,4c.88,1.28,1.75,2.56,2.66,3.82,1.54,2.11,3.15,4.18,4.86,6.16-.36-3.08-.67-6.16-1.08-9.23-.21-1.56-.48-3.17-.54-4.76a26.65,26.65,0,0,1-1.9-3.55c-.9-2-2.07-3.91-2.8-5.95-.63-1.77-1.41-3.48-2.07-5.24a13.33,13.33,0,0,1-.79-2.91.76.76,0,0,1,0-.15,2.37,2.37,0,0,0-.53.26l0,0c0,.17,0,.32,0,.39C62.13,12.8,62,13.91,61.86,15Z"/><g class="cls-13"><path class="cls-14" d="M5.57,27.43c1,3.36,4.36,12.63,6,14.33l.37.29c.08-.22.17-.44.24-.66a22.86,22.86,0,0,0,1.57-6.66c.08-1.89,0-3.81.22-5.68.13-.94.3-2.51,1.25-3,2-1.09,4.83,1.42,6.22,2.53,2.24,1.79,4.23,3.84,6.35,5.76,2.9,2.62,7.71,4.83,8.59,9,.48,2.27-1.21,4.33-2.42,6.06a27.52,27.52,0,0,1-4.64,5.06,14.45,14.45,0,0,1,1.49,1A10.07,10.07,0,0,1,33,57.91,62.34,62.34,0,0,1,36.24,64a60.24,60.24,0,0,0,5.31,8.74c.55.73,1.37,1.57,2.08,2.46l.18.06c.19-.65.4-1.31.61-2,.43-1.34,1-2.68,1.34-4a4.15,4.15,0,0,1,.76-2c.46-.43,1.15-.06,1.62.12a9.6,9.6,0,0,1,2.79,1.69c1.63,1.39,3,3.07,4.62,4.46C54,68.83,50.71,64.92,49,60.28c-.68-1.8-1.06-3.63-.2-5.46a13.55,13.55,0,0,1,3.63-4.27c1.71-1.46,3.37-3,5.11-4.43,1.29-1,2.8-2,4.52-1.57a9.72,9.72,0,0,1,3,1.42c1.21.79,2.44,1.53,3.69,2.24,2.59,1.46,5.21,2.91,7.85,4.3a18,18,0,0,1,5.13,3.37A4.68,4.68,0,0,1,83,58.05,4.45,4.45,0,0,1,83,59a6.54,6.54,0,0,0,1.27-3.17c0-.87,1-1.68,1.56-2.32l.06-.06a9.37,9.37,0,0,1-2.7-.11A10.59,10.59,0,0,1,77.32,49,26.21,26.21,0,0,1,73.05,36C73,34.78,73,33.62,73,32.44a8.73,8.73,0,0,1,.29-2.6,2.51,2.51,0,0,1,2.9-1.92,29,29,0,0,1,7.49,2.62c1.26.58,2.55,1.09,3.81,1.68a6,6,0,0,1,1.89,1.19c1.19,1.26,1.29,3.23,1.57,4.84.17.94.33,1.88.47,2.83v-.81c0-2.39.06-5.19,1.2-7.36s3.54-2.22,5.69-1.29a33.5,33.5,0,0,1,3.86,2.1c.89.54,1.83,1.67,2.87,2.14a7.33,7.33,0,0,0,.45-.87c1.22-2.87.75-6,.84-9,0-.09.15-.17.47-.34a12.08,12.08,0,0,1-4.36-3.69,12,12,0,0,1-2.22-3.74,2.72,2.72,0,0,1,.82-2.55c.81-1,1.54-2.05,2.82-2.42a5.66,5.66,0,0,1,3.69.62c2.37,1.12,4.4,3,6.84,4l.24-.45c-.13-1.46,0-6.13-1.28-7.52a29.76,29.76,0,0,0-8-1,37.9,37.9,0,0,0-9.06,1.37c-.35.11-3.41-.54-4.3-.62-2.39-.21-4.79-.46-7.18-.69A61.53,61.53,0,0,0,73,9.51c-2.06.21-9.42.84-10.67,1.77-.47.35-7.13-1.33-10.24-1.21S31,10.23,25.42,13c-.26.13-8.92-1.54-13.14-.23-2.9.9-5.6,1.67-7.87,3.75,0,.3-.08.59-.1.9A28.85,28.85,0,0,0,5.57,27.43Zm31.6,1.18A26.47,26.47,0,0,1,37.84,23a4.19,4.19,0,0,1,2.54-3.2c1.85-.54,4,.12,5.72.73A36.5,36.5,0,0,1,53.16,24c1.81,1.11,4,2.29,5.2,4.13s1.65,2.19.66,4a20.63,20.63,0,0,1-5.13,5.45c-1.1.79-3.18,1.93-3.84,3.14,0,0,.14.61-.39.69a7,7,0,0,1-1.88.06,20.28,20.28,0,0,1-3-.76,12.35,12.35,0,0,1-5.18-2.42C37.05,35.88,37,31.89,37.17,28.61Z"/></g><g class="cls-15"><path class="cls-16" d="M30.77,55.38A10.07,10.07,0,0,1,33,57.91a60.26,60.26,0,0,1,3.14,6c-.27-1.46-.57-2.93-.73-4.4-.18-1.65.8-2.87,1.67-4.19a20.43,20.43,0,0,1,3.13-3.86c.56-.52,1.67-1.5,2.52-1A3.49,3.49,0,0,1,44,52.81c.31,1.54.48,3.11.76,4.66.24,1.37.49,2.75.69,4.13A82.89,82.89,0,0,0,46,49.09c0-2.19,0-4.38-.1-6.57,0-.51,0-1,0-1.52l-1-.31A16.26,16.26,0,0,1,41,39.21c-2,3.22-4,6.45-6.05,9.6A44.21,44.21,0,0,1,31.13,53a12.06,12.06,0,0,1-1.67,1.52A12.69,12.69,0,0,1,30.77,55.38Z"/></g><g class="cls-17"><path class="cls-16" d="M5.73,16.34c1.45-.34,3.46-.56,4.8.25s1.6,2.79,1.92,4.08a31,31,0,0,1,.87,5.3,3,3,0,0,1,1.51-2.45c2-1.05,4.34-1.37,6.45-2.22,1.22-.5,2.55-1,3.7-.05s1.87,2.53,2.83,3.76a14.48,14.48,0,0,1-.47-1.86,10.72,10.72,0,0,1-.25-2.76c.09-1.6.19-4,1.32-5.29,1.42-1.61,3.13,1.66,3.53,2.69,1.17,3-.25,5.78-1.58,8.46,1.08-1.28,1.87-2.84,3.37-3.66.47-.26.56-.47,1-.08a1.74,1.74,0,0,1,.3.37c-.07-1.09-.16-2.17-.24-3.26-.14-1.9-.59-4.32,0-6.18s2.14-2,3.84-1.92c2.72.19,5.4.79,8.12,1s5.64-.1,8.16.87a5,5,0,0,1,2.93,3.77,60.45,60.45,0,0,0,1.69,6.06c.74,2,1.74,4.43,1.12,6.58a11.36,11.36,0,0,1-3.74,5.08,23,23,0,0,1-3,2.64c-.5.35-1.19.78-1.86,1.26l1.47-.74a16.44,16.44,0,0,1,4.1-1.67,4.15,4.15,0,0,1,3.4.75c2.52,1.65,4.72,3.72,7.22,5.4,1.16.79,2.4,1.49,3.63,2.16a12,12,0,0,0,2.66,1.18c-3.25-2.87-5.74-6.67-8.28-10.14a36.76,36.76,0,0,1-3.69-5.48c-.4-.83-1.14-2.27-.83-3.3a25.26,25.26,0,0,1-.38-6.21c.05-.71.14-4.53,1.75-3.77a4.15,4.15,0,0,1,1.66,2.19,25.17,25.17,0,0,0,1.93,3.53c1,1.51,2.14,3,3.1,4.51.34.54.76,1.06,1.14,1.6A17.72,17.72,0,0,1,72.19,23c1-2.33,2.22-4.57,3.28-6.88A23.94,23.94,0,0,1,77.18,13a4.72,4.72,0,0,1,1.56-1.67,4.14,4.14,0,0,1,3.51,0c3,1.21,5.38,3.6,7.69,5.76,2.73,2.53,4.13,6.19,6.68,8.84-.16-.33-.31-.67-.46-1a22.28,22.28,0,0,1-1.78-4.7c-.09-.51-.62-2.69.12-3a.86.86,0,0,1,.84.23,17.41,17.41,0,0,1,2,1.76c1.24,1.29,2.33,2.7,3.5,4.05s2.56,2.36,3.71,3.66c1.57,1.77,1.65,4.24,1.43,6.6.59-2.44.29-5,.36-7.52A9.12,9.12,0,0,1,104,24.22a36.66,36.66,0,0,1-3.78-4.38,12.48,12.48,0,0,1-2.54-4.57c-.18-.81-.22-1.67-.42-2.48a2.19,2.19,0,0,1-.06-1.51,4.56,4.56,0,0,1,1.34-1.59,18,18,0,0,0-2.32.61c-.35.11-3.41-.54-4.3-.62-2.39-.21-4.79-.46-7.18-.69A61.53,61.53,0,0,0,73,9.51c-2.06.21-9.42.84-10.67,1.77-.47.35-7.13-1.33-10.24-1.21S31,10.23,25.42,13c-.26.13-8.92-1.54-13.14-.23-2.9.9-5.6,1.67-7.87,3.75,0,.12,0,.24,0,.37A5.23,5.23,0,0,1,5.73,16.34Z"/></g><g class="cls-15"><path class="cls-16" d="M106.62,25.71l.17-.09a10,10,0,0,1-2.5-1.67A7.29,7.29,0,0,0,106.62,25.71Z"/></g><g class="cls-15"><path class="cls-16" d="M104.68,9.07a5.69,5.69,0,0,1,2.21,1.39c1.35,1.28,2.59,2.67,3.9,4a5,5,0,0,1-.88-3.26.2.2,0,0,1,.23-.15c1.2.13,2.94.16,3.75,1.23a4.2,4.2,0,0,1,.46.75,6,6,0,0,0-1-3.12,29.76,29.76,0,0,0-8-1l-.9.07Z"/></g><g class="cls-18"><path class="cls-19" d="M73.05,36A26.21,26.21,0,0,0,77.32,49a10.59,10.59,0,0,0,5.91,4.32A7.39,7.39,0,0,0,85,53.5a7.22,7.22,0,0,1-.79-.13,8,8,0,0,1-2.94-1.44c-2-1.4-2.43-3.58-2.37-5.9a23.75,23.75,0,0,1,1-6.32c.5-1.61,1.22-3.33,2.77-4.18a5.78,5.78,0,0,1,4.78-.2c2,.87,2.55,3,3.13,4.93a30.37,30.37,0,0,1,1,4.72c.12.86.24,1.73.42,2.59a5.34,5.34,0,0,0,.36,1.3l0,0A41.42,41.42,0,0,1,92,42.45a41,41,0,0,1,.41-4.13,10.49,10.49,0,0,1,.89-3.39c1.15-2.23,3.18-2.63,5.48-2A27.59,27.59,0,0,1,103,34.38a7.69,7.69,0,0,0-.87-.66,33.5,33.5,0,0,0-3.86-2.1c-2.15-.93-4.49-1-5.69,1.29s-1.16,5-1.2,7.36v.81c-.14-.95-.3-1.89-.47-2.83-.28-1.61-.38-3.58-1.57-4.84a6,6,0,0,0-1.89-1.19c-1.26-.59-2.55-1.1-3.81-1.68a29,29,0,0,0-7.49-2.62,2.51,2.51,0,0,0-2.9,1.92,8.73,8.73,0,0,0-.29,2.6C73,33.62,73,34.78,73.05,36Z"/><g class="cls-15"><path class="cls-20" d="M12.84,42.77l-.06-.22c-.14-.69.89-1.07,1.23-1.48a19.63,19.63,0,0,0,1.86-3c1-1.81,2.41-3.28,4.63-3.26s4.27,1.33,6.11,2.29a40.27,40.27,0,0,1,5,2.85c1.39,1,2.94,2.38,3.12,4.21.22,2.22-.88,4.35-2.15,6.09-.75,1-1.48,2-2.16,3.07l-.14.21a27.13,27.13,0,0,0,3.6-4.12c1.21-1.73,2.9-3.79,2.42-6.06-.88-4.18-5.69-6.39-8.59-9-2.12-1.92-4.11-4-6.35-5.76C20,27.43,17.14,24.92,15.18,26c-.95.53-1.12,2.1-1.25,3-.25,1.87-.14,3.79-.22,5.68a22.86,22.86,0,0,1-1.57,6.66c-.07.22-.16.44-.24.66l-.37-.29Z"/></g><g class="cls-15"><path class="cls-20" d="M53.88,69.68a46,46,0,0,0-1.55-4.35c-.89-2.08-2-4.55-1.32-6.85a7.9,7.9,0,0,1,1.76-2.63c.86-1,1.73-2,2.67-2.92,1.72-1.67,3.68-3.3,6.14-3.6s5,.41,7.41,1a27.7,27.7,0,0,1,7.45,3.22l3.46,2a7.63,7.63,0,0,1,2.31,1.75,4.34,4.34,0,0,1,.71,1.95L83,59a4.42,4.42,0,0,0-.05-1,4.68,4.68,0,0,0-1.26-2.17,18,18,0,0,0-5.13-3.37c-2.64-1.39-5.26-2.84-7.85-4.3-1.25-.71-2.48-1.45-3.69-2.24a9.72,9.72,0,0,0-3-1.42c-1.72-.4-3.23.54-4.52,1.57-1.74,1.42-3.4,3-5.11,4.43a13.55,13.55,0,0,0-3.63,4.27c-.86,1.83-.48,3.66.2,5.46C50.21,63.6,52.25,66.55,53.88,69.68Z"/></g><g class="cls-15"><path class="cls-20" d="M39.65,38.27a12.35,12.35,0,0,0,5.18,2.42,20.28,20.28,0,0,0,3,.76,3.54,3.54,0,0,0,.65,0,15.86,15.86,0,0,1-3.15-1.16c-1.83-.88-4-2-5.15-3.7a7.77,7.77,0,0,1-1-5.09,14.41,14.41,0,0,1,1.6-6.33c1-1.7,2.94-2.14,4.81-1.95C50,23.71,55.06,25,58,28.74a4,4,0,0,1,.85,3.68l.18-.31c1-1.84.42-2.32-.66-4s-3.39-3-5.2-4.13a36.5,36.5,0,0,0-7.06-3.42c-1.75-.61-3.87-1.27-5.72-.73A4.19,4.19,0,0,0,37.84,23a26.47,26.47,0,0,0-.67,5.61C37,31.89,37.05,35.88,39.65,38.27Z"/></g><g class="cls-15"><path class="cls-20" d="M100.21,18.19a12,12,0,0,0,2.22,3.74,14.88,14.88,0,0,0,1,1.16,17.78,17.78,0,0,1-1.13-2.37c-.64-1.54-1.77-3.81.07-5s4-.48,5.8.26c1.21.48,2.42,1.09,3.68,1.45a10.71,10.71,0,0,0,2.39.42c-2.37-1-4.37-2.86-6.69-4a5.66,5.66,0,0,0-3.69-.62c-1.28.37-2,1.44-2.82,2.42A2.72,2.72,0,0,0,100.21,18.19Z"/></g></g><g class="cls-21"><path class="cls-22" d="M86.07,29.22c.39.79,2.42,2.27,3.3,1.57a3.66,3.66,0,0,0,1.35-3c-.3-4.05-6.17-1.69-4.65,1.42C86.52,30.12,85.77,28.59,86.07,29.22Z"/><path class="cls-22" d="M82.44,27.68c.57,2.11,2.4.14,2.67-1,1.45-2.52-3.91-.57-2.67,1Z"/><path class="cls-22" d="M53.61,46.34c1.62-.12,6.71-5,3.61-5.94A3.18,3.18,0,0,0,53.37,42c-.34.71-1.3,4.5.24,4.39C54.81,46.25,53.09,46.37,53.61,46.34Z"/><path class="cls-22" d="M50.17,50.43a3.39,3.39,0,0,0,2.14-1.93c.34-.75-.23-2.79-1.27-2.78-1.44,0-2.34,5-.87,4.71Z"/><path class="cls-22" d="M60.41,41.69c-.22,1.88,2.83,1.65,2.2.09-.41-1-2.79-1.53-2.2-.09C60.38,41.94,60.3,41.43,60.41,41.69Z"/><path class="cls-22" d="M65.38,32.57c1.08,1.57,2.72-2.72,1.34-4.06-.49-.47-2.53-1-2.67.08a5.87,5.87,0,0,0,1.33,4Z"/><path class="cls-22" d="M67.62,34.71c0,1.35,1.49,2.59,1.65.62.13-1.74-1.63-2.77-1.65-.62Z"/><path class="cls-22" d="M52.57,21.05c.26,1.66,2.22,2.48,3.71,2.59s1.44-1.79,1.24-2.72c-.27-1.23-.92-3.06-2.37-3.31-1.77-.3-2.82,1.95-2.58,3.44S52.39,19.9,52.57,21.05Z"/><path class="cls-22" d="M49.06,19.17c.54,2.28,2.58,1.39,2.78-.5.25-2.27-3.17-1.2-2.78.5C49.25,19.94,48.8,18,49.06,19.17Z"/><path class="cls-22" d="M45,19c.46.14,2.76,0,1.67-1-1.52-1.38-2.94.64-1.67,1Z"/><path class="cls-22" d="M32,28.76c.21,2,2.23,2.49,2.42.14.24-2.84-2.66-2.39-2.42-.14C32.1,29.49,32,28.44,32,28.76Z"/><path class="cls-22" d="M34.52,31.71c-.69,1.21,1.3,1.74,1.12.61.34-1.27-.48-1.73-1.12-.61C34.35,32,34.52,31.7,34.52,31.71Z"/><path class="cls-22" d="M38.78,63.21c1.43,1,2.91-6.05.49-6.4-1.37-.21-2.25,1.76-2.41,2.81a3.9,3.9,0,0,0,1.92,3.59C39.24,63.52,37.63,62.4,38.78,63.21Z"/><path class="cls-22" d="M35.37,56.12c-.12,1.18,4.63.1,3.08-2.29-1.27-2-5.12.73-3.08,2.29C35.33,56.49,34.69,55.61,35.37,56.12Z"/><path class="cls-22" d="M37.62,52.08a1.51,1.51,0,0,0,1.32-2.56c-1.54-1.77-3,2.35-1.32,2.56Z"/><path class="cls-22" d="M39.62,48.71c.54-.3,1-2.05,0-2.1s-.91,2.61,0,2.1Z"/><path class="cls-22" d="M42,70.16c.7,1.75,2.73-.86,2.06-2.27,0-.63-.88-2-1.4-.94-.4.83-1,2.27-.66,3.21Z"/><path class="cls-22" d="M42.56,65.05c.56,1.08,1.95-.29,1.46-1.22-.71-1.33-1.91.36-1.46,1.22C42.67,65.26,42.45,64.85,42.56,65.05Z"/><path class="cls-22" d="M92.62,26.24A2.18,2.18,0,0,0,93,28.06c.32.43,1.65.74,2,.15.44-.81-2.06-2.88-2.39-2C92.43,26.74,92.71,26,92.62,26.24Z"/><path class="cls-22" d="M95.36,35.11c-1-.71-1.82,1.09-.74,1.22.71.09,1.74-1.09.74-1.22C95.23,35,95.54,35.14,95.36,35.11Z"/><path class="cls-22" d="M72.43,53.86c-1,.49,2.51,3.54,3.47,2.28.55-.71-.29-1.82-.83-2.24a2.51,2.51,0,0,0-2.64,0Z"/><path class="cls-22" d="M77.51,54.15c-.62-.43-1.51,2.59.33,2.46,1.51-.1,1.2-3.12-.33-2.46C77.32,54,78,53.93,77.51,54.15Z"/><path class="cls-22" d="M79.09,56.7a1,1,0,0,0,1,1.55c1.49-.32-.38-2.45-1-1.55C78.93,56.91,79.23,56.5,79.09,56.7Z"/><path class="cls-22" d="M80.37,58.88c0,.4.85,1.19,1.19.67s-1.2-1.34-1.19-.67Z"/><path class="cls-22" d="M67.5,53.47c-1.21-.16-.37,1.81.64,1.87.35.21,1.42.14,1-.49s-1-1.3-1.61-1.38C67.16,53.42,67.85,53.51,67.5,53.47Z"/><path class="cls-22" d="M70.21,55.41c-.79,0-.45,1.2.23,1.21,1,0,.39-1.19-.23-1.21Z"/><path class="cls-22" d="M102.07,28.26c1.62-1.19.2-3.11-.94-4-.78-.62-2.61-2-2.69-.11-.06,1.55,1.46,5.72,3.63,4.12Z"/><path class="cls-22" d="M96.7,22.41c.15,1.6,1.89.79,2-.36a1.53,1.53,0,0,0-.91-1.47c-1-.54-1.1,1.35-1.06,1.83C96.73,22.72,96.68,22.23,96.7,22.41Z"/><path class="cls-22" d="M75.07,21.71c1.74.11,3.59-1.94,1.91-3.41-2.18-1.9-3.54,3.31-1.91,3.41C76,21.77,74.69,21.69,75.07,21.71Z"/><path class="cls-22" d="M75.44,16c0,1.31,2.53.94,2.22-.56a2.4,2.4,0,0,0-1.06-1.49c-1.17-.82-1.16,1.6-1.16,2.05Z"/><path class="cls-22" d="M19.07,24.52c.36,1.63,4.06,2.62,3.66.61a5,5,0,0,0-1.87-2.84c-1.14-.9-2,1.44-1.79,2.23Z"/><path class="cls-22" d="M23.85,28.45c.63-.08,1.32-.9,1-1.41-1.33-1.91-2.2,1.56-1,1.41Z"/><path class="cls-22" d="M9.86,27.32a1.14,1.14,0,0,0,2.17.26c.72-1.23,1.22-2.2.5-3.63-.36-.71-1.78-2.25-2.38-.85a6.71,6.71,0,0,0-.29,4.22C10.11,28.21,9.51,26,9.86,27.32Z"/><path class="cls-22" d="M9.73,31.2c.39,2,2,.46,2.32-.61.41-1.41-2.71-1.35-2.32.61C9.84,31.75,9.65,30.82,9.73,31.2Z"/><path class="cls-22" d="M8,24.32c.41,1.43,1.36-1.13,1.32-1.52-.07-.78-1-.59-1.31-.09a2.14,2.14,0,0,0,0,1.61C8.1,24.71,7.91,24,8,24.32Z"/><path class="cls-22" d="M9.11,18.92c1.76.13,3.1-3.08.85-3.5-1.85-.34-2.91,3.36-.85,3.5Z"/><path class="cls-22" d="M6.44,17.57C7,18,8,16.89,7.58,16.34,7,15.48,5.63,17,6.44,17.57Z"/><path class="cls-22" d="M84.68,22.46c.14,1.29,2.89.62,2.7-.89-.1-.83-.93-1.26-1.66-1.42-.94-.22-1.1,1.79-1,2.31C84.72,22.8,84.62,21.88,84.68,22.46Z"/><path class="cls-22" d="M59.75,35.86c.17.36,1.11,1,1.51.72a1.66,1.66,0,0,0,.62-1.37c-.14-1.87-2.83-.78-2.13.65Z"/><path class="cls-22" d="M58.2,39c.26,1,1.11.07,1.23-.45.67-1.16-1.8-.26-1.23.45Z"/><path class="cls-22" d="M50.23,37.4c.5.72,1.25-1.25.62-1.87-.23-.21-1.17-.46-1.23,0a2.67,2.67,0,0,0,.61,1.83Z"/><path class="cls-22" d="M44.34,32.1c.12.77,1,1.14,1.7,1.19s.67-.82.57-1.25-.42-1.41-1.08-1.52c-.82-.14-1.3.9-1.19,1.58S44.25,31.57,44.34,32.1Z"/><path class="cls-22" d="M54.69,32.4c.8.06,1.65-.89.87-1.56-1-.88-1.62,1.52-.87,1.56Z"/><path class="cls-22" d="M54.86,29.76c0,.6,1.16.44,1-.26a1.1,1.1,0,0,0-.49-.68c-.54-.38-.53.74-.53.94Z"/><path class="cls-22" d="M79.61,25.57c.07.59,1.33.29,1.25-.41,0-.38-.43-.57-.77-.65s-.5.82-.48,1.06S79.59,25.31,79.61,25.57Z"/></g><path class="cls-23" d="M37.1,28.39a7,7,0,0,0,.26-.89,26.34,26.34,0,0,1,1.47-4.88c.75-1.89,3.54-1.4,5.14-1.05a40.68,40.68,0,0,1,11.59,4s0,0,0,0a20.78,20.78,0,0,0-6.22-3.48,30.4,30.4,0,0,0-6.89-2.44c-1.25-.19-2.93,0-3.62,1.15C37.51,23,37.15,26,37.1,28.39Z"/><g class="cls-24"><path class="cls-25" d="M92.13,19.61a21.36,21.36,0,0,0-.45,3.49c-.13,1.37-.25,2.75-.35,4.12-.22,2.89-.38,5.78-.39,8.67a106.24,106.24,0,0,0,1,13.32l.35-.28c-.25-4.48-.9-8.92-.7-13.42.12-2.63.24-5.25.43-7.87.17-2.33.51-4.7.5-7,.66,1.29,1.54,2.53,2.29,3.77a42.85,42.85,0,0,0,5.91,7.33c.9.93,1.84,1.86,2.81,2.72a7.68,7.68,0,0,0,1.61,1.18c.06-.1.11-.2.16-.3a19.14,19.14,0,0,1-4.52-4.14,47.2,47.2,0,0,1-5.75-7.81c-.68-1.15-1.44-2.28-2-3.47a16.75,16.75,0,0,1-1.27-4.11c-.45-2.1-1.09-4.16-1.6-6.25l-.36,0c.38,2.36,1.09,4.68,1.56,7A20.38,20.38,0,0,0,92.13,19.61Z"/><path class="cls-25" d="M96.51,14.41a17.39,17.39,0,0,0,2.89,5.23c1.81,2.33,4.12,5.05,7,6.22a2.13,2.13,0,0,1,.38-.22c-2.94-1.26-4.92-3.78-6.85-6.35a22.2,22.2,0,0,1-1.71-2.62,2,2,0,0,0,.19-.43c.29-.76.55-1.54.81-2.31a37.39,37.39,0,0,0,1.09-4.53l-.28,0c-.37,1.23-.72,2.45-1.12,3.67-.27.79-.59,1.57-.87,2.36a4,4,0,0,1-.2.46A15.68,15.68,0,0,1,97,14a16.9,16.9,0,0,1-.61-3.72l-.17.05h-.12A12.15,12.15,0,0,0,96.51,14.41Z"/><path class="cls-25" d="M110.76,14.68c.78,1.18,2.16,2.89,3.66,3.1l.2-.37v-.12c-1.78-.46-3.37-3-4.22-4.23-.61-.85-1.14-1.75-1.68-2.65-.3-.49-.61-1-.93-1.44l-.52,0c.43.63.87,1.27,1.25,1.93C109.26,12.14,109.94,13.45,110.76,14.68Z"/><path class="cls-25" d="M13,27q-.21,4-.41,8a38.89,38.89,0,0,1-.42,4.15,18.45,18.45,0,0,1-.66,2.53l.07.07.32.25c.19-.61.32-1.24.46-1.82A36.18,36.18,0,0,0,13,36.06c.32-2.87.45-5.77.64-8.65q.15-2.44.15-4.89c.72-.15,1.43-1,2-1.34,1.23-.76,2.53-1.41,3.8-2.11s2.44-1.21,3.57-1.94a11.74,11.74,0,0,0,2.35-1.71c.18,1.35.56,2.67.82,4,.47,2.46.86,5.1,2.12,7.32.7,1.23,1.62,2.35,2.42,3.51a37.62,37.62,0,0,0,2.78,3.61A40.73,40.73,0,0,0,39,38.52a.78.78,0,0,0,.41.32l.77.63a14.57,14.57,0,0,0-1.4,2.71c-.91,1.66-1.71,3.38-2.75,5a32.54,32.54,0,0,1-6.85,7.2l.51.29c2.51-1.44,4.39-3.92,6-6.3,1-1.5,1.95-3,2.93-4.53.87-1.36,1.55-2.82,2.5-4.11.26.15.52.29.78.41a21.1,21.1,0,0,0,3.67,1.14,11.58,11.58,0,0,0,.06,3.85A35.54,35.54,0,0,1,45.6,50c-.11,3.62-.44,7.22-.6,10.84-.14,3.2-.53,6.42-1,9.6-.2,1.47-.48,3-.62,4.49l.21.25.1,0c.13-1.7.44-3.39.66-5.06.43-3.08.63-6.21,1.17-9.27q.11-.59.18-1.17a27.32,27.32,0,0,0,2,2.42c1.89,2.26,3.16,4.89,4.78,7.34,2.13,3.22,4.36,6.72,7.32,9.3l.62,0,.21-.11a93.18,93.18,0,0,1-7.29-9c-1.44-1.88-2.46-4-3.85-5.91-.74-1-1.6-1.93-2.35-2.94a13.33,13.33,0,0,1-1.33-2.1,1.64,1.64,0,0,1,0-.22v0c.22-2.56.14-5.15.16-7.72,0-1.56.12-3.14,0-4.71a34.16,34.16,0,0,1-.18-4.74l.34.08c.76.16,1.53.33,2.29.51.58.13.61,0,1.09-.39s1.26-1,1.87-1.49l.65-.48a40,40,0,0,0,4.06-3.18,26.79,26.79,0,0,0,3.39-3.51,10.53,10.53,0,0,0,1.1-1.78c.2-.4.52-1.81.87-2a.3.3,0,0,0,.12-.13l0-.08,0,0c0,.16.1.31.16.46a11.59,11.59,0,0,0,1.69,3.37c.88,1.39,1.83,2.74,2.78,4.08a86.36,86.36,0,0,0,6.72,8.32,51.62,51.62,0,0,0,7.74,7.26,8.22,8.22,0,0,0,4.81,1.45l.22-.24a16.47,16.47,0,0,1-2-.31,9.12,9.12,0,0,1-3.48-2,62.93,62.93,0,0,1-7-6.9l-1.1-1.24c0-6.71-2.12-13.51-.47-20.13.73-2.95,1.9-5.78,2.65-8.72.38-1.52.64-3.07,1-4.6a3.06,3.06,0,0,1,.1-.41L75,9.3c-.32,1.55-.54,3.14-.87,4.59-.76,3.27-2.07,6.38-2.93,9.62a19.54,19.54,0,0,0-.8,4.25A14.68,14.68,0,0,1,68.78,25a56.6,56.6,0,0,1-2.51-5.56c-1.06-2.84-2.47-5.6-3-8.59l-.42.14a.76.76,0,0,0,0,.15,13.33,13.33,0,0,0,.79,2.91c.66,1.76,1.44,3.47,2.07,5.24.73,2,1.9,4,2.8,5.95a26.65,26.65,0,0,0,1.9,3.55c.06,1.59.33,3.2.54,4.76.41,3.07.72,6.15,1.08,9.23-1.71-2-3.32-4.05-4.86-6.16-.91-1.26-1.78-2.54-2.66-3.82a16.08,16.08,0,0,1-2.07-4,16.9,16.9,0,0,1-.6-4.3,53.44,53.44,0,0,1,0-9.55c.13-1.11.27-2.22.35-3.33,0-.07,0-.22,0-.39a1.86,1.86,0,0,1-.66,0c-.11.69-.18,1.38-.25,2.07-.18,2-.24,4.09-.28,6.13,0,1.09,0,2.19,0,3.28,0,.57,0,1.13,0,1.7a14.52,14.52,0,0,1,.1,1.47c0,.44-.23.86-.31,1.3s-.18,1.06-.28,1.58c-.63,3.05-2.84,5.21-5.1,7.22-1.26,1.13-2.57,2.19-3.89,3.23a16.39,16.39,0,0,0-1.8,1.47l-.27.18c-.7.49-1.06.34-1.86.15l-1.92-.45a27.14,27.14,0,0,1-3.4-1,20,20,0,0,1-4-2.15c-.89-1.57-1.09-3.6-1.46-5.33-.29-1.43-.47-2.88-.7-4.31s-.56-2.63-.77-4a50.22,50.22,0,0,1-.33-8,33.37,33.37,0,0,0-.13-4.88l-.85.09a17,17,0,0,1,.2,2c.06,1.38,0,2.75,0,4.13,0,.84,0,1.68.07,2.52-.26.46-.49,1-.74,1.41-.42.76-.87,1.51-1.34,2.25s-1.15,1.68-1.76,2.49a10.7,10.7,0,0,0-1,1.23c-.2-.31-.38-.63-.55-.95-1.18-2.3-1.52-4.93-2-7.43-.25-1.26-.59-2.49-.75-3.77-.1-.73-.16-1.48-.22-2.22-.19.07-.37.15-.54.23h-.06c0,.54,0,1.09.07,1.64a14.17,14.17,0,0,0-2.1,1.63,38,38,0,0,1-3.59,2.46l-3.51,2c-.76.45-1.76.79-2.49,1.33,0-1.36-.07-2.72-.17-4.09a38,38,0,0,0-.65-4c-.09-.47-.17-.93-.25-1.4l-.2.06c.22,1.88.32,3.77.45,5.68A67.8,67.8,0,0,1,13,27Zm18.37-1.39c.61-.81,1.23-1.61,1.82-2.44a18.53,18.53,0,0,0,1.31-2.12,38,38,0,0,0,.68,4.32c.26,1.19.61,2.35.84,3.55.26,1.39.44,2.78.75,4.16a15.88,15.88,0,0,0,1.06,4A24.64,24.64,0,0,1,34.6,34.3a25.42,25.42,0,0,1-3-4.11c-.55-.85-1.17-1.68-1.73-2.53C30.37,27,30.82,26.28,31.32,25.63Z"/></g><path class="cls-26" d="M107.15,25.43l.23-.13.16-.1.3-.18.14-.09.45-.31.19-.13.41-.3.19-.15.63-.5.17-.15.58-.5.22-.2.82-.77a20.66,20.66,0,0,0,2.5-3.65l.24-.41h0l0-.05,0,0,.2-.37v-.12c-.06-.77-.07-2.21-.21-3.65v0c0-.18,0-.35,0-.52V13l-.06-.46s0-.07,0-.1,0-.21,0-.32l0-.14s0,0,0-.08,0-.15-.05-.22,0-.12,0-.19l0-.1s0-.1,0-.15l-.06-.2s0-.08,0-.12l0-.09-.09-.21h0s0-.08,0-.12l0,0a2.12,2.12,0,0,0-.11-.21h0l0-.09,0,0a1.39,1.39,0,0,0-.21-.27c-.5-.12-1-.21-1.46-.31l-.38-.07-1-.18-.37-.06-1-.14-.27,0a24.63,24.63,0,0,0-2.61-.19h-.09c-.31,0-.61,0-.88,0-1.62.12-3.34.24-5,.47h0l-.16,0c-.52.07-1,.16-1.55.26h0l-.37.08h0l-.67.16-.1,0c-.38.1-.76.21-1.13.34h-.12a24.33,24.33,0,0,1-2.77-.41l-.44-.08h-.11l-.45-.07h0L92,9.68c-2.39-.21-4.79-.46-7.18-.69-.69-.07-1.38-.1-2.07-.11h-.47c-.67,0-1.35,0-2,0l-.25,0L78,9l-.33,0-2.16.2h0l-.17,0L73,9.51l-1.19.12-.23,0-.37,0-.28,0-.4,0-.3,0-.43.05-.7.07-.35.05-.42,0-.39,0-.39,0-.39.06-.4.05-.38.06-.39.06-.36.05-.44.08-.34.06-.56.11-.25.06-.34.08-.24.06-.18.05-.1,0-.21.07-.11,0-.13.06-.13.05a1.63,1.63,0,0,0-.27.15l-.08,0a.65.65,0,0,1-.17,0h-.1l-.29,0h-.14l-.22,0-.22,0-.27,0-.22,0-3.17-.53-.09,0-.72-.12h-.09c-.52-.08-1-.16-1.56-.22l-.2,0-.53-.06-.25,0-.46,0-.24,0-.44,0h-.78l-.4,0H51l-1.69,0h-.83l-.5,0h-.42l-.76,0h-.36l-.85,0h-.38l-.74,0-.4,0-.84,0h-.32l-1.16.06-.31,0-.9.05-.41,0-.88.06-.37,0c-.82.05-1.64.12-2.46.19l-.33,0-.92.09-.2,0-.23,0-.38,0-.24,0-.24,0-.72.09-.4,0-.78.11-.3,0-1.06.17h0c-.34.05-.67.12-1,.18l-.26,0-.68.15-.29.07-.61.16-.27.07-.61.18-.18.06c-.25.08-.49.17-.72.26h0c-.19.07-.37.15-.54.23a.19.19,0,0,1-.11,0h-.13l-.14,0-.22,0-.2,0-.77-.1h0l-.5-.06-.31,0-.48-.06-.36,0-.56-.06-.35,0-.67-.06-.31,0-1-.08h-.26l-.77-.05h-.41l-.64,0H15.75l-.56,0-.45,0-.52.05-.42.06-.49.08-.39.08-.25,0-.2.06-.19.05c-2.9.9-5.6,1.67-7.87,3.75,0,.12,0,.24,0,.37h0l-.06.53A28.85,28.85,0,0,0,5.57,27.43c.06.21.13.44.22.7l0,.09c.07.23.15.46.23.71l.09.28.22.63.15.45c.06.17.12.34.19.52s.15.45.23.68a3.82,3.82,0,0,1,.13.36c.09.24.19.5.28.76l.12.32c.1.27.2.54.31.81a2.31,2.31,0,0,0,.1.28c.11.28.22.56.32.84l.11.26c.11.29.22.58.34.86l.09.22c.11.28.23.56.34.83l.09.22c.11.27.23.52.34.78l.09.21c.11.24.21.47.32.7l.1.22.31.62a2,2,0,0,0,.1.21c.09.18.18.35.28.51l.1.2.25.41a1.63,1.63,0,0,1,.11.17l.22.29.08.12.07.07,1.41,1.09,1.24.92c4.06,2.89,7.77,6.28,12,8.94.46.28.93.54,1.4.8l1.18.63.7.39h0a12.69,12.69,0,0,1,1.31.84A10.07,10.07,0,0,1,33,57.91c.31.48.61,1,.89,1.47.07.14.14.28.22.42.2.37.39.74.58,1.12l.07.14c.36.72.71,1.45,1.07,2.17l.31.63h0l.08.16a60.24,60.24,0,0,0,5.31,8.74c.13.18.29.37.45.56l.11.12.75.87.07.08.33.39.37.44.18.06h0c1.7.57,3.4,1.12,5.11,1.63a44.24,44.24,0,0,0,7.35,1.78c.58.07,1.14.11,1.71.13h.15a22.64,22.64,0,0,0,2.33,0l.21-.11c.77-.4,1.54-.81,2.26-1.24,3.48-2.06,7.21-4.09,10.13-6.88a54.77,54.77,0,0,0,6.28-6.73C80.42,62.38,82,60.66,83,59h0a10.67,10.67,0,0,0,.88-1.6l0-.07a5.28,5.28,0,0,0,.24-.7l0-.13a3.17,3.17,0,0,0,.09-.67,1.76,1.76,0,0,1,0-.31l0-.1a1.67,1.67,0,0,1,.08-.2l.06-.12.1-.17.09-.12.12-.17.1-.12.14-.16.1-.11.18-.19.07-.07.44-.48a12,12,0,0,1,3.28-2.3c.21-.13.46-.28.72-.46l.24-.16.61-.44L91,50l.84-.64.12-.09h0l.35-.28.06-.06h0l0,0h0l.35-.29.41-.33,1-.85.47-.42.66-.58.5-.45.74-.68.47-.45c.33-.3.66-.62,1-.93l.48-.47.66-.64.48-.49.72-.74c.18-.18.35-.37.52-.55l.75-.8.42-.47.52-.59.4-.46c.19-.23.36-.45.54-.66l.42-.55.45-.59.26-.38c.11-.16.21-.31.3-.46a1.19,1.19,0,0,0,.09-.15h0v0l.09-.15v0l0-.06a.3.3,0,0,0,0-.08l.09-.17,0-.05.14-.3a9.77,9.77,0,0,0,.48-1.54v.07c0-.13.05-.26.07-.38s.07-.32.1-.48.05-.4.08-.61.06-.58.08-.87l0-.52c0-.2,0-.39,0-.59V29c0-.16,0-.33,0-.49,0-.33,0-.66,0-1V27c0-.36,0-.72,0-1.07,0,0,0-.06.06-.1l0,0,.11-.07,0,0,.21-.11,0,0,.17-.09Z"/></g></g></svg>