<svg id="Layer_1" data-name="Layer 1" xmlns="http://www.w3.org/2000/svg" viewBox="0 0 123.29 100.24"><defs><style>.cls-1{fill:#0dff00;}</style></defs><path class="cls-1" d="M63.24,83a.52.52,0,0,0,0,.18l0-.07s0,0,0-.07Z"/><path class="cls-1" d="M60.44,97.8c.49.08,1.3.21,2.55.34.53,0,1.06.08,1.56.08a10.8,10.8,0,0,0,10.38-6.5c1.9-4.16,3.81-8,6.16-10A11.5,11.5,0,0,0,82.28,81l.57,0a10,10,0,0,0,7.44-3.32c6-3.18,10.87-8.9,13.78-16.17.08-.2.16-.4.23-.61l1.6-1.53c1.45-1.4,2.82-2.72,4.19-3.91.47-.41.94-.84,1.4-1.26s1-.89,1.43-1.35A9.44,9.44,0,0,0,114,51.61c.09-.11.29-.4.3-.41.11-.16.23-.35.35-.55s.32-.51.52-.88l.18-.35c.13-.27.27-.54.42-.86l.14-.34.38-.87.11-.29c.11-.29.23-.59.34-.9l.1-.26c.11-.32.23-.63.34-1,0,0,.32-.93.42-1.24,0,0,.32-1,.43-1.35l.39-1.25.4-1.35.38-1.34.35-1.27L119.9,36l.32-1.19.39-1.57s.27-1.12.33-1.39a45.35,45.35,0,0,0,.9-14.42c0-.3-.08-.6-.12-.9l0-.07c0-.28-.08-.56-.13-.83a10,10,0,0,0-3-5.39c-4-3.68-8.34-5-11.54-5.9l-.43-.13-.4-.11-.49-.12c-.23-.06-.47-.1-.72-.15l-.69-.12-.89-.12-.74-.07-.87-.05-.72,0H99.66l-.83,0-.6,0-1.34.11-1,.1-.32,0c-.4,0-.79.1-1.21.16l-1.59.25-1.15.2L91,4.16,91,4.41h-.1l.06-.28-.83-.19-.48-.11-1-.18-.28,0-1.21-.19-.1,0-1.23-.16-1.27-.14L83,3,82.3,2.9l-1.84-.12c-.88,0-1.77-.08-2.67-.11l-1.33,0-1.36,0H69.78l-5.43.1c-.37,0-.78,0-1.28,0l-.32,0-.68.07-.33,0L61,3l-1.33.23c-.6.11-1.21.24-1.83.38l-.9.21-1.81.43-.9-.19-.81-.14-1.08-.16L51,3.59l-1-.11-2.22-.19-6-.4L39.5,2.77h-.38c-.77,0-1.53,0-2.33,0h-.27c-.83,0-1.69,0-2.56.08l-.61,0c-1.06.08-2,.17-2.82.31l-2.94.45q-2,.33-4.08.63c-1,.16-3.22.63-4.9,1a10,10,0,0,0-6.69,5.12c-.05.09-4.7,9-7.35,14.1-.24.39-.41.66-.53.84A10.08,10.08,0,0,0,1.77,35.64l.06,1.48,0,.69c0,.27,0,.53,0,.77s0,.46.07.69v.11c0,.48.11,1,.2,1.53,0,.33.1.66.16,1s.12.56.2.89.11.51.18.76.1.36.16.54a18.88,18.88,0,0,0,.86,2.41c.11.24.23.51.36.77s.29.56.29.56l.37.66L5.1,49l.45.7c.14.21.28.42.44.64l.64.86.6.77c.23.29.46.58.71.87l.5.59.63.73s.53.59.53.59l.87,1,.63.67.83.86.55.56,1.29,1.28c.37.37.75.73,1.13,1.09l1.37,1.29.45.41.88.79.53.46c.39.35.78.69,1.16,1l.82.68s.78.64.78.64l1.05.81.4.3.95.68.33.22c.47.32.92.6,1.33.83l.69.4c.15.44.32.88.5,1.31,0,.07.08.17.11.25.25.55.52,1.11.84,1.67a16.34,16.34,0,0,0,3,5.25l.27.36a34.91,34.91,0,0,0,6.24,6.83,27.79,27.79,0,0,1,3.89,4.32,10,10,0,0,0,3.93,3.26c1.41.65,3.36,1.62,4.11,2C53.08,97.32,61,97.82,61,97.82a5,5,0,0,1-.78,0Zm.59-10c-.74,0-5.72-1.11-6.46-1.85s-5.9-3.13-5.9-3.13A38,38,0,0,0,43,76.56c-3-2.39-4.62-5.35-5.35-6.08a8.52,8.52,0,0,1-1.34-2.66l-.09-.22a10.62,10.62,0,0,1-.79-1.47.59.59,0,0,1,0-.08,6.19,6.19,0,0,1-.27-.75l0-.14c0-.12-.06-.23-.08-.35l0-.08,0,0a2.36,2.36,0,0,1,0-.28c-.06-1-1.08-1.79-1.66-2.47a11.87,11.87,0,0,0-3.35-2.38c-.22-.12-.47-.28-.74-.46l-.25-.17-.63-.45L28,58.27l-.87-.67L27,57.51h0l-.36-.29-.07-.06h0l0,0h0l-.36-.31-.42-.34c-.33-.29-.68-.58-1-.89l-.49-.43-.69-.61L23,54.07l-.77-.72-.49-.46-1-1c-.16-.17-.32-.33-.49-.49l-.68-.68-.5-.51-.75-.78-.55-.59L17,48l-.44-.49L16,46.91l-.42-.49-.56-.7c-.17-.2-.32-.39-.47-.59l-.46-.62-.28-.41c-.11-.17-.22-.33-.31-.49l-.11-.16h0l0,0-.09-.17,0,0a.16.16,0,0,0,0-.07l0-.08-.1-.19,0,0-.15-.33a11.18,11.18,0,0,1-.56-1.66.19.19,0,0,1,0,.08l-.09-.42c0-.18-.09-.35-.12-.53s-.08-.43-.11-.65-.09-.64-.12-1l-.06-.56c0-.21,0-.43,0-.65l0-.51,0-.71c0-.17,0-.35,0-.52,0-.38,0-.75,0-1.12,0-.16,0-.31,0-.47,0-.39,0-.79-.06-1.18,0,0,0-.06-.07-.1a3,3,0,0,0-.42-.25,11.34,11.34,0,0,0,2.16-3C16,24.16,20.77,15,20.77,15s3.34-.75,4.21-.87c2.36-.35,4.71-.74,7.06-1.1.68-.1,1.36-.17,2-.22l.46,0q1-.06,2-.06h.24c.64,0,1.29,0,1.93,0h.33c.71,0,1.43.07,2.14.12h0l.23,0,2.3.15.43,0h.13l.67,0h.14l.46,0,.17,0,.47,0h.24l.47,0h0l1,.08.39,0,.4,0,.37,0,.4,0,.38,0,.39,0,.38,0,.36,0,.43.07.37,0,.54.1.25,0L53,14l.24.06.18,0,.1,0,.21.07.11,0,.13,0,.13.05a1.74,1.74,0,0,1,.28.16l.08,0,.17,0h.09l.29,0,.14,0,.21,0,.22,0,.27-.06.21,0c.86-.19,1.94-.47,3.09-.73l.1,0,.7-.16.09,0L61.55,13l.19,0,.53-.09.24,0,.45-.07.24,0,.44,0,.19,0,.58,0h1.06l.85,0h8.62l.9,0h.4l.86,0h.38c.81,0,1.63.06,2.44.11h.34l.9.06h.2l.22,0,.39,0,.24,0,.22,0,.73.06.39,0,.78.09.3,0,1.05.14h0l1,.16.26,0,.68.13.29.07.61.14.27.07.61.17.18.05c.25.08.5.17.72.26h0l.54.24H91l.12,0,.15,0,.21,0,.21,0,.53-.1.23,0,.46-.09.32-.06.44-.08.39-.07.48-.08.42-.07.59-.09.36-.06,1-.13.27,0,.75-.08.4,0,.62-.05.44,0,.59,0h1l.43,0,.53,0,.42,0,.48.07.39.07.25,0,.2.05.19.06c2.91.85,5.61,1.58,8,3.75l.06.4h0c0,.19.06.38.08.58a34.8,34.8,0,0,1-.72,11.1l-.17.77c0,.14-.08.3-.12.45s-.06.29-.1.45-.11.41-.16.63-.06.24-.1.37-.12.46-.18.7-.07.26-.1.39-.15.56-.23.84l-.09.31c-.08.3-.16.61-.25.92,0,.09-.05.19-.08.29-.09.32-.19.65-.28,1,0,.08,0,.16-.07.24-.09.33-.19.65-.29,1,0,.08,0,.16-.07.25l-.31,1-.06.2c-.11.33-.21.65-.31,1,0,.06,0,.13-.07.2-.1.31-.2.6-.3.9l-.07.21c-.1.29-.2.55-.29.82a1.8,1.8,0,0,0-.08.21c-.09.25-.18.48-.27.71l-.09.22-.25.59-.09.21c-.08.17-.16.32-.23.46a1.74,1.74,0,0,1-.1.19,3.19,3.19,0,0,1-.2.33.57.57,0,0,1-.08.13l-.06.09c-.44.43-.89.85-1.34,1.26s-.78.72-1.17,1.06c-2.7,2.35-5.21,5-7.86,7.38-.27.84-.55,1.67-.88,2.49-1.85,4.64-5,8.94-9.44,11.2a21.88,21.88,0,0,1-2,.89c-.14.37-.29.75-.44,1.12L83,70a47.66,47.66,0,0,0-5.36,2.1c-.37.19-.73.4-1.07.61a.56.56,0,0,1-.5.34c-4.92,3.33-7.77,9.17-10.28,14.66h0c0,.15-.19.63-1.77.47C62.13,88,61.77,87.82,61,87.82Z"/></svg>