<svg xmlns="http://www.w3.org/2000/svg" viewBox="0 0 114.05 86.59"><defs><style>.cls-1{isolation:isolate;}.cls-2{fill:#cdba97;}.cls-3{fill:#a8916f;}.cls-4{fill:#8e7250;}.cls-20,.cls-5{opacity:0.4;}.cls-6{fill:#c1a68c;}.cls-7{fill:#a38e72;}.cls-21,.cls-8{opacity:0.5;}.cls-9{fill:#a38a73;}.cls-10{fill:#9a836c;}.cls-11{fill:#b79f88;}.cls-12{fill:#77777d;}.cls-13{fill:#937e67;}.cls-14{fill:#67676e;}.cls-15{fill:#a38671;}.cls-16,.cls-18,.cls-20,.cls-23,.cls-26{mix-blend-mode:multiply;}.cls-17{fill:#c4b29d;}.cls-18{opacity:0.6;}.cls-19{fill:#beaa8c;}.cls-21{mix-blend-mode:screen;}.cls-22{fill:#e4d3aa;}.cls-23{opacity:0.2;}.cls-24{fill:#a38973;}.cls-25{fill:#ad9577;}.cls-26,.cls-28{opacity:0.3;}.cls-27{fill:#513a2d;}.cls-28{fill:#fff;}</style></defs><g class="cls-1"><g id="Layer_1" data-name="Layer 1"><path class="cls-2" d="M14.25,6.48c4.23-1.24,12.7,1,13,.87,5.68-2.74,23.45-1.94,26.44-1.93s9.56,2.16,10,1.8c1.29-1,8.59-1.32,10.64-1.45,3.86-.26,7.85-.62,11.69,0,2.35.36,4.7.74,7.06,1.09.87.13,4.21.87,4.21.87s9.11,17.35,9.12,17.66c-.24,3.31.06,6.78-1.3,9.87-1.7,4.09-13,14.84-17,17.06a12,12,0,0,0-3.35,2.37c-.59.69-1.61,1.52-1.66,2.48-.16,2.58-3.39,5.94-5.32,8.55a58,58,0,0,1-6.55,7.09c-3,2.93-37.7-13.57-38.88-15.73a10.67,10.67,0,0,0-2.08-2.89c-1.35-1.21-3-2-4.41-3.14-4-3.12-7.52-7-11.37-10.37-.85-.73-1.68-1.53-2.52-2.32-1.49-1.95-4.31-12.28-5.15-16a35.39,35.39,0,0,1-.72-11.1c0-.33.09-.66.15-1C8.64,8.06,11.34,7.34,14.25,6.48Z"/><path class="cls-3" d="M100.62,31.39a47.16,47.16,0,0,1-5.45-8.32c-.68-1.39-1.48-2.79-2.06-4.24-.12,2.58-.58,5.16-.86,7.72-.32,2.87-.58,5.74-.83,8.61-.43,4.94,0,9.84,0,14.77,4.65-3.81,11.44-10.56,13.37-14a8,8,0,0,1-1.53-1.37C102.35,33.52,101.46,32.46,100.62,31.39Z"/><path class="cls-4" d="M75.55,11c-.89,3.2-2.19,6.25-3.07,9.45-2,7.19-.23,14.76-.56,22.12.34.48.67,1,1,1.42a66.15,66.15,0,0,0,6.6,7.89,8.75,8.75,0,0,0,3.34,2.31,14.18,14.18,0,0,0,1.93.44h0a12,12,0,0,1,3.35-2.37,24.32,24.32,0,0,0,2.9-2.07,133,133,0,0,1-.35-14.67c.17-3.18.47-6.34.84-9.5.17-1.5.35-3,.55-4.5a25.58,25.58,0,0,1,.63-3.82,24.25,24.25,0,0,1-.61-3.44c-.35-2.6-.93-5.17-1.18-7.79L86,5.74a42.48,42.48,0,0,0-9.16-.14l-.12.45C76.34,7.71,76,9.4,75.55,11Z"/><path class="cls-4" d="M35.88,45.36c1.11-1.69,2-3.54,3-5.32a18,18,0,0,1,1.52-2.91l-.72-.72a.78.78,0,0,1-.39-.37,42.4,42.4,0,0,1-5-5.37,43.62,43.62,0,0,1-2.55-4.08c-.74-1.31-1.59-2.59-2.21-4-1.13-2.49-1.38-5.41-1.72-8.13-.19-1.48-.49-2.94-.6-4.43a11.41,11.41,0,0,1-2.41,1.76c-1.16.76-2.42,1.31-3.62,2s-2.61,1.36-3.87,2.14c-.62.38-1.36,1.25-2.08,1.38-.08,1.79-.21,3.58-.4,5.36-.33,3.15-.61,6.33-1.07,9.46-.23,1.51-.48,3-.86,4.51-.16.63-.33,1.32-.54,2,.73.7,1.47,1.39,2.21,2C18.39,44,21.88,47.9,25.91,51c.91.69,1.9,1.28,2.84,1.93A34.87,34.87,0,0,0,35.88,45.36Z"/><g class="cls-5"><path class="cls-6" d="M93.6,18.06c.54,1.34,1.23,2.62,1.84,3.91a51.78,51.78,0,0,0,5.27,8.83c1.25,1.66,2.54,3.62,4.25,4.76a3.11,3.11,0,0,0,.15-.33c1.36-3.09,1.06-6.56,1.3-9.87,0,0,0-.07.07-.11-2.77-1.41-4.91-4.5-6.57-7.14a19.72,19.72,0,0,1-2.59-5.87,14.69,14.69,0,0,1-.15-4.53c-.66,0-3.29-.76-4.09-.88l-1.79-.27c.4,2.31.92,4.61,1.26,6.94A19.62,19.62,0,0,0,93.6,18.06Z"/></g><path class="cls-7" d="M36.57,10.93a60.82,60.82,0,0,0-.08,8.85c.14,1.47.42,2.91.56,4.38s.25,3.18.47,4.76c.27,1.92.36,4.15,1.16,5.92a19,19,0,0,0,3.88,2.55,23.74,23.74,0,0,0,3.3,1.29l1.88.58c.77.24,1.13.42,1.84-.08l.27-.19a17.22,17.22,0,0,1,1.85-1.52c1.37-1.09,2.71-2.19,4-3.37,2.33-2.1,4.62-4.38,5.39-7.69.14-.57.25-1.15.37-1.72s.3-.93.36-1.42a14.44,14.44,0,0,0,0-1.61c0-.62,0-1.25,0-1.87.05-1.2.11-2.4.19-3.6.15-2.24.31-4.48.6-6.71.09-.76.2-1.52.34-2.27-1.84-.29-6.78-1.79-9.35-1.79-1.92,0-10-.34-17,.15A39.68,39.68,0,0,1,36.57,10.93Z"/><g class="cls-8"><path class="cls-9" d="M69.39,22.61a17.78,17.78,0,0,0,1.46,3.07,24.53,24.53,0,0,1,1-4.63c1-3.51,2.47-6.87,3.39-10.43.4-1.57.7-3.3,1.1-5l-2,.14c-1.74.11-7.25.38-9.67,1.05.4,3.3,1.64,6.4,2.55,9.57C67.82,18.52,68.59,20.57,69.39,22.61Z"/></g><g class="cls-8"><path class="cls-10" d="M28.41,13.73C28.76,16.5,29,19.41,30,22c.15.37.32.72.49,1.08a11.4,11.4,0,0,1,1.07-1.31c.64-.86,1.28-1.74,1.86-2.65s1-1.59,1.44-2.41c.27-.48.52-1,.8-1.52,0-.92,0-1.84.07-2.77.08-1.5.19-3,.21-4.52,0-.77,0-1.51-.1-2.24a30.72,30.72,0,0,0-8.09,1.47c0,.82,0,1.64.1,2.46C28,11,28.23,12.34,28.41,13.73Z"/></g><g class="cls-5"><path class="cls-11" d="M35.18,31.2a25.32,25.32,0,0,0,3,3.2A19.79,19.79,0,0,1,37.33,30c-.23-1.53-.34-3.06-.53-4.6-.16-1.32-.44-2.62-.64-3.94q-.34-2.39-.45-4.77a19.42,19.42,0,0,1-1.4,2.27c-.62.88-1.28,1.74-1.93,2.59-.52.7-1,1.49-1.55,2.16.51,1,1.08,1.9,1.58,2.87A28.74,28.74,0,0,0,35.18,31.2Z"/></g><path class="cls-3" d="M83,54s2.77-1.84,2.95-3.69-.36-4.79.37-5.71a9.36,9.36,0,0,0,1.48-2.4c.18-.56.55-2.77.55-2.77S86.92,37,86,35.38a9.85,9.85,0,0,0-2-2.58s-10.34-3.14-14-3a22.73,22.73,0,0,1-6.45-.73h-3S53.89,22.28,53,21.36a9,9,0,0,0-3.32-1.48l1.47,15S60,45.34,62.19,47.56a27.61,27.61,0,0,1,2.59,2.76Z"/><path class="cls-3" d="M51.68,65.45c1.66,6.28,3.32,7.75,3.13,10.34a8,8,0,0,1-2.51,4.65c-2.77-6.06-5.94-12.54-11.85-15.61C38,63.55,35.2,63,32.72,61.72c-4.45-2.26-7.59-6.57-9.45-11.2S20.7,40.88,20,35.94c3.19.19,6.57,0,9.33-1.58,1.77-1,3.47-2.63,3.65-4.68a18,18,0,0,1,.07-2.08c.36-1.8,2.29-2.76,4-3.41s3.67-1.46,4.23-3.21a27,27,0,0,1,3.05,17.51l0,.58,1.29,5s-1.85,6.27-.55,8.12A42.93,42.93,0,0,1,51.68,65.45Z"/><path class="cls-3" d="M32.54,31.21a61.48,61.48,0,0,1,3.86,8.32l-6.14-3.05a3.82,3.82,0,0,0-1.78-.55c-1.49,0-2.41,1.65-3.77,2.27a10.7,10.7,0,0,0-1.68.67c-1,.69-1.12,2.09-1.15,3.31s-.06,2.48-.08,3.72a90.33,90.33,0,0,1-1.8-10c3.19.19,6.57,0,9.33-1.58A8,8,0,0,0,32.54,31.21Z"/><path class="cls-3" d="M54.32,75.55A15.37,15.37,0,0,0,52.8,70c-1.2-2.64-2.76-5.14-3.42-8A6.29,6.29,0,0,0,49,60.72a5.38,5.38,0,0,0-1-1.21c-2.91-3-5.7-6.94-4.72-11,.55-2.25,2.22-4.54,1.29-6.66a10.16,10.16,0,0,0-1.9-2.35C41.36,38,40.75,36,40,34.1c-1.3-3.11-3.49-6.17-6.41-7.63a7.42,7.42,0,0,1,3.51-2.28,11.94,11.94,0,0,0,4.25-3.12c.42,5.19,3.74,9.47,2.53,13.8a5.25,5.25,0,0,0-.36,1.9A4.11,4.11,0,0,0,44,38.15c.11.23.22.47.32.71v.21l1.29,5s-1.36,4.64-.92,7.11a3.73,3.73,0,0,0-.07,1.93,4.84,4.84,0,0,0,.94,1.61l2.67,3.46c.59.77,1.17,1.54,1.7,2.35a33.8,33.8,0,0,1,1.77,4.94c1.25,4.74,2.51,6.74,3,8.55A6.48,6.48,0,0,1,54.32,75.55Z"/><path class="cls-12" d="M82.94,54l-.2,0,.12-.12A.8.8,0,0,0,82.94,54Z"/><path class="cls-13" d="M52.5,36.18l5.88-2.11,1.81.76L73.45,44.92l6.93,8.55,2.75,4-1.34,3.09a8.3,8.3,0,0,1-1.33,2.65c-.74.74-2.4,3.69-5.35,6.09a38,38,0,0,0-5.72,6.28s-5.17,2.39-5.9,3.13S57.77,80.54,57,80.54s-1.11.18-3,.37-1.78-.51-1.78-.51,2.88-3.55,2.51-4.66-2.21-7-2.21-7l-1.66-5-2-3.69-2.58-4.43L45,52.12l-.19-2.58L45,47l.55-3Z"/><path class="cls-14" d="M53.89,37.6,53.62,37h0Z"/><path class="cls-13" d="M87.38,37.77c-1.19-1.11-2.34-2.17-3.85-1.9a2.53,2.53,0,0,1-.86.1c-.51-.09-.81-.61-1.12-1-1.22-1.59-3.43-1.94-5.42-2.18a70.25,70.25,0,0,1-1.34,7.89c-.17-1.69-.35-3.38-.53-5.07s-.45-3.63-1.78-4.74a4.93,4.93,0,0,0-2.72-1h.18c3.69-.18,14,3,14,3a9.85,9.85,0,0,1,2,2.58C86.41,36.12,86.93,37,87.38,37.77Z"/><path class="cls-11" d="M6.87,22.32C7.7,26,10.45,36.11,12,38.24a22.82,22.82,0,0,0,.78-2.75A45.69,45.69,0,0,0,13.37,31c.26-2.92.54-5.83.82-8.75a86.33,86.33,0,0,0,.41-9.51c0-2.11,0-4.19-.15-6.27l-.2.05c-2.91.86-5.61,1.58-7.95,3.76-.06.32-.11.65-.15,1A35.39,35.39,0,0,0,6.87,22.32Z"/><g class="cls-8"><path class="cls-15" d="M15.26,12.31c0,1.5,0,3,0,4.5a25.62,25.62,0,0,1,2.53-1.35l3.56-2.08A38,38,0,0,0,25,10.85a14.83,14.83,0,0,1,2.16-1.7c0-.6,0-1.2,0-1.8-.77,0-8.33-1.94-12.51-1,0,.52.11,1,.17,1.55C15,9.38,15.23,10.84,15.26,12.31Z"/></g><path class="cls-11" d="M63.08,11.3a66.68,66.68,0,0,0-.53,10.48,20.41,20.41,0,0,0,.37,4.75A18.68,18.68,0,0,0,64.77,31c.8,1.44,1.59,2.89,2.43,4.31,1.4,2.4,2.89,4.74,4.48,7-.2-3.39-.35-6.79-.6-10.18-.13-1.73-.31-3.5-.28-5.25a28.66,28.66,0,0,1-1.7-4c-.79-2.2-1.84-4.38-2.46-6.66-.53-2-1.22-3.88-1.77-5.84a15.35,15.35,0,0,1-.63-3.24c0-.05,0-.1,0-.16a2.25,2.25,0,0,0-.54.27h0c0,.19,0,.35-.06.43C63.46,8.88,63.27,10.09,63.08,11.3Z"/><g class="cls-16"><path class="cls-17" d="M6.87,22.32c.84,3.73,3.66,14.06,5.15,16l.35.33c.1-.24.19-.47.28-.71a28.1,28.1,0,0,0,1.89-7.24c.17-2.07.16-4.18.51-6.23.17-1,.42-2.73,1.39-3.27,2-1.11,4.69,1.77,6,3.05,2.13,2.07,4,4.42,6,6.63,2.73,3,7.36,5.65,8,10.28.35,2.52-1.42,4.7-2.71,6.54a29,29,0,0,1-4.84,5.34,12.72,12.72,0,0,1,1.43,1.11,10.67,10.67,0,0,1,2.08,2.89c1.18,2.16,16.32,12.26,17.11,13.07,1.54,1.6,2.8,3.51,4.33,5.11C52.55,70,49.51,65.55,48,60.39a8.15,8.15,0,0,1,.09-6,14.38,14.38,0,0,1,3.8-4.52c1.76-1.53,3.48-3.15,5.27-4.62,1.32-1.08,2.86-2,4.54-1.52a9.21,9.21,0,0,1,2.93,1.7Q66.38,46.8,68.18,48c2.48,1.73,5,3.44,7.53,5.09a17.75,17.75,0,0,1,4.89,3.94,4.38,4.38,0,0,1,1.13,3.5,7.73,7.73,0,0,0,1.42-3.43c0-1,1.07-1.79,1.66-2.48l.06-.06a7.9,7.9,0,0,1-2.66-.25,10.57,10.57,0,0,1-5.62-5,31,31,0,0,1-3.53-14.55c0-1.29,0-2.56.12-3.85a10.51,10.51,0,0,1,.42-2.85c.5-1.45,1.53-2.27,3-2a26.32,26.32,0,0,1,7.26,3.23c1.22.68,2.47,1.31,3.68,2a6.21,6.21,0,0,1,1.81,1.39c1.1,1.44,1.1,3.61,1.3,5.39.11,1,.22,2.08.31,3.13,0-.3,0-.59,0-.89.16-2.62.32-5.69,1.56-8s3.61-2.27,5.68-1.16a30.31,30.31,0,0,1,3.7,2.49c.85.63,1.73,1.91,2.72,2.48a6.13,6.13,0,0,0,.49-.94c1.36-3.09,1.06-6.56,1.3-9.87,0-.09.16-.18.48-.35-1.67-.94-9.6-17.31-9.6-17.31S94,7,93.08,6.83C90.72,6.48,88.37,6.1,86,5.74c-3.84-.59-7.83-.23-11.69,0-2,.13-9.35.48-10.64,1.45-.48.36-7-1.8-10-1.8S32.89,4.61,27.21,7.35c-.26.12-8.73-2.11-13-.87-2.91.86-5.61,1.58-7.95,3.76-.06.32-.11.65-.15,1A35.39,35.39,0,0,0,6.87,22.32ZM38,25.07A32.34,32.34,0,0,1,39,19c.45-1.46,1.23-3,2.68-3.4,1.85-.51,3.91.31,5.61,1.07A34.74,34.74,0,0,1,54,20.7C55.76,22,57.9,23.4,59,25.47s1.52,2.49.45,4.46a21.86,21.86,0,0,1-5.34,5.74c-1.13.82-3.24,2-4,3.27,0,0,.11.68-.41.74a6.44,6.44,0,0,1-1.86,0,18.4,18.4,0,0,1-2.88-1,11.85,11.85,0,0,1-5-2.9C37.52,33.05,37.66,28.66,38,25.07Z"/></g><g class="cls-18"><path class="cls-19" d="M30.32,54.16a10.67,10.67,0,0,1,2.08,2.89,65.2,65.2,0,0,1,2.8,6.67c-.19-1.61-.42-3.25-.49-4.86-.09-1.82.94-3.11,1.86-4.53a22.26,22.26,0,0,1,3.29-4.09c.58-.54,1.72-1.56,2.53-1A3.83,3.83,0,0,1,43.48,52c.23,1.71.32,3.44.52,5.15.17,1.52.35,3,.47,4.57A101.2,101.2,0,0,0,45.68,48c.12-2.42.22-4.82.24-7.23,0-.55,0-1.11,0-1.66-.34-.13-.67-.27-1-.39a15.57,15.57,0,0,1-3.75-1.8c-2.11,3.44-4.25,6.89-6.46,10.25a46.49,46.49,0,0,1-4,4.45,12.92,12.92,0,0,1-1.72,1.59A12.81,12.81,0,0,1,30.32,54.16Z"/></g><g class="cls-20"><path class="cls-19" d="M7.6,10.15c1.45-.3,3.45-.45,4.73.5s1.43,3.14,1.69,4.57a38.39,38.39,0,0,1,.58,5.86,3.27,3.27,0,0,1,1.62-2.62c2.05-1.07,4.35-1.31,6.47-2.15,1.24-.48,2.58-1,3.66.12s1.72,2.87,2.6,4.26c-.17-.68-.27-1.39-.37-2.06a13.46,13.46,0,0,1-.1-3c.17-1.76.39-4.4,1.57-5.75,1.49-1.7,3,2,3.35,3.12,1,3.35-.54,6.34-2,9.21,1.13-1.35,2-3,3.51-3.86.48-.26.58-.49.95,0a1.88,1.88,0,0,1,.27.42c0-1.19,0-2.39-.07-3.59,0-2.09-.36-4.76.31-6.78s2.22-2.14,3.89-1.93c2.68.34,5.29,1.12,8,1.52s5.57.15,8,1.32c1.62.78,2.36,2.44,2.7,4.28.43,2.29.72,4.5,1.36,6.74s1.49,4.93.77,7.26a12.55,12.55,0,0,1-4,5.41,24,24,0,0,1-3.06,2.76c-.51.37-1.22.81-1.91,1.29l1.49-.73a15.25,15.25,0,0,1,4.13-1.65,3.81,3.81,0,0,1,3.33,1c2.4,1.93,4.47,4.3,6.84,6.27a42.85,42.85,0,0,0,3.48,2.53A11.27,11.27,0,0,0,74,45.78c-3.06-3.3-5.32-7.59-7.65-11.51A41.41,41.41,0,0,1,63,28.09c-.35-.94-1-2.55-.65-3.67a30,30,0,0,1,0-6.83c.08-.78.36-5,1.91-4.06A4.63,4.63,0,0,1,65.72,16a27.82,27.82,0,0,0,1.71,4c.93,1.71,2,3.35,2.83,5.1.31.61.7,1.2,1,1.81a21.5,21.5,0,0,1,1.57-6.3c1.1-2.51,2.42-4.91,3.59-7.4a28.37,28.37,0,0,1,1.85-3.44A5,5,0,0,1,79.94,8a3.73,3.73,0,0,1,3.46.2c2.89,1.46,5.12,4.2,7.3,6.68,2.56,2.9,3.75,7,6.13,10l-.39-1.12a25.41,25.41,0,0,1-1.52-5.24c-.07-.56-.47-3,.27-3.3.3-.13.6.09.82.29a17.1,17.1,0,0,1,1.86,2C99,19,100,20.61,101.12,22.14s2.4,2.71,3.48,4.19c1.46,2,1.4,4.73,1.06,7.31.72-2.65.55-5.5.75-8.24a9.13,9.13,0,0,1-2.16-2,38.78,38.78,0,0,1-3.51-5,14.37,14.37,0,0,1-2.27-5.13c-.14-.91-.13-1.85-.29-2.75-.09-.54-.89-2.79-.89-2.79S94,7,93.08,6.83C90.72,6.48,88.37,6.1,86,5.74c-3.84-.59-7.83-.23-11.69,0-2,.13-9.35.48-10.64,1.45-.48.36-7-1.8-10-1.8S32.89,4.61,27.21,7.35c-.26.12-8.73-2.11-13-.87-2.91.86-5.61,1.58-7.95,3.76,0,.13,0,.26-.06.4A5.5,5.5,0,0,1,7.6,10.15Z"/></g><g class="cls-18"><path class="cls-19" d="M106.72,25.11l.17-.1a9.75,9.75,0,0,1-2.38-2A7.39,7.39,0,0,0,106.72,25.11Z"/></g><g class="cls-21"><path class="cls-13" d="M73.06,34.79a31,31,0,0,0,3.53,14.55,10.57,10.57,0,0,0,5.62,5,6.3,6.3,0,0,0,1.73.26c-.26,0-.52-.11-.77-.18a7.84,7.84,0,0,1-2.83-1.72c-1.87-1.63-2.22-4-2-6.59a29.23,29.23,0,0,1,1.3-6.89c.58-1.74,1.37-3.6,3-4.46a5.21,5.21,0,0,1,4.74,0c1.9,1,2.35,3.43,2.83,5.56a36.75,36.75,0,0,1,.79,5.22c.08,1,.15,1.92.29,2.87a5.67,5.67,0,0,0,.28,1.45l0,0a51.7,51.7,0,0,1-.09-7c.12-1.51.35-3,.61-4.51a12.76,12.76,0,0,1,1-3.68c1.25-2.4,3.28-2.74,5.52-1.94a26.4,26.4,0,0,1,4.12,1.78,7.08,7.08,0,0,0-.83-.76,30.31,30.31,0,0,0-3.7-2.49c-2.07-1.11-4.38-1.3-5.68,1.16s-1.4,5.4-1.56,8c0,.3,0,.59,0,.89-.09-1.05-.2-2.09-.31-3.13-.2-1.78-.2-4-1.3-5.39a6.21,6.21,0,0,0-1.81-1.39c-1.21-.7-2.46-1.33-3.68-2a26.32,26.32,0,0,0-7.26-3.23c-1.42-.3-2.45.52-3,2a10.51,10.51,0,0,0-.42,2.85C73.11,32.23,73,33.5,73.06,34.79Z"/><g class="cls-18"><path class="cls-22" d="M40,35.79a11.85,11.85,0,0,0,5,2.9,18.4,18.4,0,0,0,2.88,1,4.5,4.5,0,0,0,.63.07,15.39,15.39,0,0,1-3.05-1.43c-1.76-1-3.83-2.32-4.89-4.29a9.36,9.36,0,0,1-.75-5.64,17.34,17.34,0,0,1,1.9-6.88,4.48,4.48,0,0,1,4.85-1.91c4.42.71,9.33,2.41,12,6.6a4.76,4.76,0,0,1,.66,4.08l.19-.33c1.07-2,.53-2.53-.45-4.46S55.76,22,54,20.7a34.74,34.74,0,0,0-6.8-4.08c-1.7-.76-3.76-1.58-5.61-1.07C40.18,16,39.4,17.49,39,19A32.34,32.34,0,0,0,38,25.07C37.66,28.66,37.52,33.05,40,35.79Z"/></g></g><g class="cls-23"><path class="cls-24" d="M86.26,28c.34.89,2.27,2.61,3.17,1.89a4.27,4.27,0,0,0,1.49-3.23c-.09-4.46-6-2.14-4.66,1.34Z"/><path class="cls-24" d="M82.75,26.14c.45,2.34,2.36.27,2.68-.95,1.56-2.7-3.82-.82-2.68.95Z"/><path class="cls-24" d="M53.33,45.29c1.61,0,6.88-5.19,3.87-6.34a3,3,0,0,0-3.88,1.52c-.37.76-1.52,4.87,0,4.82Z"/><path class="cls-24" d="M49.73,49.62a3.49,3.49,0,0,0,2.2-2c.38-.81-.08-3.07-1.11-3.11-1.42-.06-2.57,5.32-1.09,5.12C50.54,49.52,49.29,49.68,49.73,49.62Z"/><path class="cls-24" d="M60.28,40.5c-.31,2.06,2.71,1.94,2.17.2-.36-1.14-2.68-1.8-2.17-.2C60.24,40.77,60.19,40.21,60.28,40.5Z"/><path class="cls-24" d="M65.66,30.72c1,1.78,2.82-2.86,1.53-4.39-.46-.54-2.45-1.23-2.64,0a6.91,6.91,0,0,0,1.11,4.42C65.91,31.19,64.91,29.37,65.66,30.72Z"/><path class="cls-24" d="M67.76,33.18c-.08,1.47,1.34,2.91,1.59.75.22-1.9-1.46-3.11-1.59-.75C67.75,33.31,67.77,32.91,67.76,33.18Z"/><path class="cls-24" d="M53.6,17.48c.17,1.85,2.06,2.83,3.53,3s1.51-1.9,1.36-2.93c-.2-1.37-.74-3.41-2.16-3.74-1.74-.42-2.89,2-2.73,3.64C53.77,19.31,53.48,16.22,53.6,17.48Z"/><path class="cls-24" d="M50.24,15.26c.41,2.53,2.47,1.64,2.76-.42.36-2.47-3.07-1.46-2.76.42Z"/><path class="cls-24" d="M46.23,14.85c.45.18,2.73.08,1.7-1-1.42-1.58-2.93.57-1.7,1C46.49,15,45.93,14.74,46.23,14.85Z"/><path class="cls-24" d="M32.93,25c.1,2.23,2.07,2.84,2.38.27.38-3.11-2.5-2.75-2.38-.27C33,25.8,32.91,24.65,32.93,25Z"/><path class="cls-24" d="M35.23,28.36c-.74,1.3,1.2,2,1.08.72.4-1.38-.39-1.93-1.08-.72C35.06,28.66,35.24,28.35,35.23,28.36Z"/><path class="cls-24" d="M37.83,63.13c1.35,1.16,3.18-6.5.81-7-1.35-.29-2.32,1.83-2.53,3a4.43,4.43,0,0,0,1.72,4Z"/><path class="cls-24" d="M34.81,55.19c-.17,1.28,4.57.32,3.17-2.37-1.16-2.22-5.1.56-3.17,2.37C34.76,55.59,34.18,54.59,34.81,55.19Z"/><path class="cls-24" d="M37.25,50.85a1.65,1.65,0,0,0,1.43-2.74c-1.43-2-3.09,2.44-1.43,2.74C37.66,50.93,36.89,50.79,37.25,50.85Z"/><path class="cls-24" d="M39.39,47.25c.55-.3,1.06-2.2.11-2.31s-1,2.83-.11,2.31C39.67,47.1,39.06,47.44,39.39,47.25Z"/><path class="cls-24" d="M41.45,65.32c.5,1.21,1.95-.23,1.51-1.27-.63-1.5-1.9.31-1.51,1.27C41.55,65.56,41.36,65.09,41.45,65.32Z"/><path class="cls-24" d="M92.87,25a2.59,2.59,0,0,0,.32,2c.29.48,1.58.9,1.94.26.48-.87-1.89-3.26-2.26-2.27C92.66,25.58,93,24.75,92.87,25Z"/><path class="cls-24" d="M95.12,34.9c-1-.83-1.86,1.11-.8,1.31.7.13,1.78-1.13.8-1.31C95,34.79,95.3,34.94,95.12,34.9Z"/><path class="cls-24" d="M71.52,54.41c-1,.5,2.29,4,3.31,2.68.57-.76-.19-2-.71-2.51a2.27,2.27,0,0,0-2.6-.17Z"/><path class="cls-24" d="M76.52,55c-.59-.5-1.62,2.77.2,2.72,1.5,0,1.34-3.37-.2-2.72C76.34,54.81,77,54.75,76.52,55Z"/><path class="cls-24" d="M78,57.84a1.06,1.06,0,0,0,.94,1.75c1.48-.28-.25-2.7-.94-1.75Z"/><path class="cls-24" d="M79.1,60.3c0,.44.78,1.34,1.14.78s-1.11-1.52-1.14-.78C79.09,60.52,79.11,60,79.1,60.3Z"/><path class="cls-24" d="M66.67,53.76c-1.18-.22-.45,2,.54,2.09.34.25,1.39.22,1-.5-.31-.55-.87-1.47-1.52-1.59Z"/><path class="cls-24" d="M69.25,56c-.78-.06-.51,1.29.16,1.34,1,.07.45-1.29-.16-1.34Z"/><path class="cls-24" d="M102.1,27.69c1.66-1.23.36-3.4-.72-4.45-.74-.72-2.48-2.35-2.66-.24-.14,1.7,1.15,6.34,3.38,4.69Z"/><path class="cls-24" d="M97.1,21c.06,1.76,1.82.95,2-.3a1.69,1.69,0,0,0-.83-1.66c-.93-.63-1.15,1.43-1.13,2C97.11,21.36,97.09,20.82,97.1,21Z"/><path class="cls-24" d="M75.78,19.25c1.71.2,3.64-2,2.06-3.65-2-2.19-3.66,3.46-2.06,3.65C76.7,19.36,75.41,19.21,75.78,19.25Z"/><path class="cls-24" d="M76.44,13c-.07,1.44,2.45,1.15,2.22-.52a2.58,2.58,0,0,0-1-1.67c-1.11-1-1.23,1.7-1.25,2.19C76.43,13.2,76.46,12.65,76.44,13Z"/><path class="cls-24" d="M20.35,19.75c.28,1.81,3.87,3.07,3.58.84a5.49,5.49,0,0,0-1.7-3.21c-1.08-1-2,1.5-1.88,2.37Z"/><path class="cls-24" d="M24.87,24.28c.63-.05,1.35-.92,1-1.5-1.22-2.15-2.25,1.61-1,1.5Z"/><path class="cls-24" d="M11.12,22.4a1.1,1.1,0,0,0,2.12.39c.78-1.32,1.32-2.37.68-4-.31-.79-1.63-2.55-2.3-1a8.1,8.1,0,0,0-.5,4.62C11.31,23.38,10.84,20.94,11.12,22.4Z"/><path class="cls-24" d="M10.78,26.65c.29,2.17,2,.59,2.33-.56.47-1.53-2.61-1.62-2.33.56C10.86,27.26,10.73,26.23,10.78,26.65Z"/><path class="cls-24" d="M9.43,19c.32,1.6,1.4-1.17,1.38-1.6,0-.86-1-.69-1.29-.16A2.54,2.54,0,0,0,9.43,19Z"/><path class="cls-24" d="M10.8,13.15c1.74.22,3.22-3.24,1-3.81-1.81-.46-3.05,3.55-1,3.81Z"/><path class="cls-24" d="M8.24,11.54c.54.45,1.56-.68,1.19-1.3-.57-1-2,.65-1.19,1.3C8.49,11.75,8.06,11.38,8.24,11.54Z"/><path class="cls-24" d="M85.23,20.52c.07,1.42,2.82.82,2.71-.86A2,2,0,0,0,86.38,18c-.92-.28-1.18,1.92-1.15,2.49C85.25,20.9,85.2,19.89,85.23,20.52Z"/><path class="cls-24" d="M59.92,34.07c.16.41,1,1.2,1.46.87a2,2,0,0,0,.69-1.48c0-2.05-2.76-1-2.15.61Z"/><path class="cls-24" d="M58.24,37.45c.21,1.07,1.08.12,1.23-.44.72-1.25-1.75-.38-1.23.44Z"/><path class="cls-24" d="M50.45,35.32c.45.82,1.3-1.31.71-2-.21-.24-1.13-.56-1.22,0a3.21,3.21,0,0,0,.51,2Z"/><path class="cls-24" d="M44.9,29.24a1.79,1.79,0,0,0,1.63,1.39c.67.08.7-.88.63-1.35-.1-.63-.35-1.57-1-1.72s-1.33.92-1.26,1.68S44.85,28.66,44.9,29.24Z"/><path class="cls-24" d="M55.11,30.05c.78.09,1.67-.91.94-1.68-.94-1-1.68,1.59-.94,1.68Z"/><path class="cls-24" d="M55.41,27.16c0,.66,1.13.53,1-.24a1.23,1.23,0,0,0-.44-.77c-.51-.44-.57.78-.58,1S55.42,27,55.41,27.16Z"/><path class="cls-24" d="M80.07,23.7c0,.66,1.29.38,1.24-.39a.89.89,0,0,0-.72-.75c-.42-.13-.54.88-.52,1.14S80.05,23.41,80.07,23.7Z"/></g><path class="cls-25" d="M38,24.83a7.89,7.89,0,0,0,.3-1A31.29,31.29,0,0,1,40,18.58c.84-2,3.56-1.38,5.12-.92a37.6,37.6,0,0,1,11.24,4.9s0,0,0,0a19.89,19.89,0,0,0-6-4.1,28.12,28.12,0,0,0-6.68-3c-1.22-.27-2.89-.13-3.63,1.09C38.64,18.9,38.13,22.25,38,24.83Z"/><g class="cls-26"><path class="cls-27" d="M92.73,17.73a25.58,25.58,0,0,0-.63,3.82c-.2,1.5-.38,3-.55,4.5-.37,3.16-.67,6.32-.84,9.5a133,133,0,0,0,.35,14.67,3.51,3.51,0,0,1,.36-.29c0-4.93-.43-9.83,0-14.77.25-2.87.51-5.74.83-8.61.28-2.56.74-5.14.86-7.72.58,1.45,1.38,2.85,2.06,4.24a47.16,47.16,0,0,0,5.45,8.32c.84,1.07,1.73,2.13,2.64,3.12a8,8,0,0,0,1.53,1.37l.17-.32c-1.71-1.14-3-3.1-4.25-4.76A51.78,51.78,0,0,1,95.44,22c-.61-1.29-1.3-2.57-1.84-3.91a19.62,19.62,0,0,1-1-4.56c-.34-2.33-.86-4.63-1.26-6.94l-.35-.06c.25,2.62.83,5.19,1.18,7.79A24.25,24.25,0,0,0,92.73,17.73Z"/><path class="cls-27" d="M44.64,60.93c.08-.42.16-.84.23-1.27a30.71,30.71,0,0,0,1.85,2.75c1.75,2.57,2.86,5.52,4.34,8.28C53,74.32,54.22,77.46,57,80.43h.61l.21-.11c-2.54-3.14-3.75-5.92-5.93-9.41-1.33-2.12-2.22-4.5-3.5-6.66-.67-1.15-1.48-2.2-2.17-3.33A16.1,16.1,0,0,1,45,58.55l0-.25h0c.35-2.81.41-5.65.56-8.47.09-1.72.28-3.44.27-5.17A43.11,43.11,0,0,1,46,39.44l.34.1,2.23.66c.57.18.6,0,1.1-.36s1.29-1,1.92-1.56l.67-.49a45.05,45.05,0,0,0,4.17-3.3,29.37,29.37,0,0,0,3.52-3.7,11.68,11.68,0,0,0,1.18-1.91c.22-.43.61-2,1-2.19a.33.33,0,0,0,.12-.14.41.41,0,0,1,0-.09l0,0c.05.17.09.35.14.52a13.49,13.49,0,0,0,1.49,3.77c.8,1.56,1.67,3.09,2.54,4.61a92.58,92.58,0,0,0,6.21,9.44A53.16,53.16,0,0,0,79.9,53.1a7.49,7.49,0,0,0,4.68,1.82l.23-.25a14.18,14.18,0,0,1-1.93-.44,8.75,8.75,0,0,1-3.34-2.31A66.15,66.15,0,0,1,72.94,44c-.35-.47-.68-.94-1-1.42.33-7.36-1.41-14.93.56-22.12.88-3.2,2.18-6.25,3.07-9.45.46-1.64.79-3.33,1.19-5l.12-.45-.51,0c-.4,1.69-.7,3.42-1.1,5-.92,3.56-2.37,6.92-3.39,10.43a24.53,24.53,0,0,0-1,4.63,17.78,17.78,0,0,1-1.46-3.07c-.8-2-1.57-4.09-2.18-6.22-.91-3.17-2.15-6.27-2.55-9.57L64.23,7c0,.06,0,.11,0,.16a15.35,15.35,0,0,0,.63,3.24c.55,2,1.24,3.87,1.77,5.84.62,2.28,1.67,4.46,2.46,6.66a28.66,28.66,0,0,0,1.7,4c0,1.75.15,3.52.28,5.25.25,3.39.4,6.79.6,10.18-1.59-2.25-3.08-4.59-4.48-7-.84-1.42-1.63-2.87-2.43-4.31a18.68,18.68,0,0,1-1.85-4.44,20.41,20.41,0,0,1-.37-4.75,66.68,66.68,0,0,1,.53-10.48c.19-1.21.38-2.42.52-3.64,0-.08,0-.24.06-.43a1.65,1.65,0,0,1-.66,0c-.14.75-.25,1.51-.34,2.27-.29,2.23-.45,4.47-.6,6.71-.08,1.2-.14,2.4-.19,3.6,0,.62,0,1.25,0,1.87a14.44,14.44,0,0,1,0,1.61c-.06.49-.27.94-.36,1.42s-.23,1.15-.37,1.72c-.77,3.31-3.06,5.59-5.39,7.69-1.31,1.18-2.65,2.28-4,3.37A17.22,17.22,0,0,0,49.85,39l-.27.19c-.71.5-1.07.32-1.84.08l-1.88-.58a23.74,23.74,0,0,1-3.3-1.29,19,19,0,0,1-3.88-2.55c-.8-1.77-.89-4-1.16-5.92-.22-1.58-.32-3.18-.47-4.76s-.42-2.91-.56-4.38a60.82,60.82,0,0,1,.08-8.85,39.68,39.68,0,0,0,.12-5.36l-.84.07c.06.73.11,1.47.1,2.24,0,1.51-.13,3-.21,4.52-.05.93-.07,1.85-.07,2.77-.28.5-.53,1-.8,1.52-.46.82-.94,1.62-1.44,2.41s-1.22,1.79-1.86,2.65a11.4,11.4,0,0,0-1.07,1.31c-.17-.36-.34-.71-.49-1.08-1-2.57-1.25-5.48-1.6-8.25-.18-1.39-.45-2.76-.55-4.16-.06-.82-.08-1.64-.1-2.46-.19.08-.37.15-.55.24h-.05c0,.6,0,1.2,0,1.8A14.83,14.83,0,0,0,25,10.85a38,38,0,0,1-3.67,2.53l-3.56,2.08a25.62,25.62,0,0,0-2.53,1.35c0-1.5.07-3,0-4.5S15,9.38,14.82,7.93c-.06-.52-.12-1-.17-1.55l-.2,0c.12,2.08.11,4.16.15,6.27a86.33,86.33,0,0,1-.41,9.51c-.28,2.92-.56,5.83-.82,8.75a45.69,45.69,0,0,1-.63,4.53A22.82,22.82,0,0,1,12,38.24l.06.09.31.28c.21-.65.38-1.34.54-2,.38-1.48.63-3,.86-4.51.46-3.13.74-6.31,1.07-9.46.19-1.78.32-3.57.4-5.36.72-.13,1.46-1,2.08-1.38,1.26-.78,2.58-1.43,3.87-2.14s2.46-1.21,3.62-2a11.41,11.41,0,0,0,2.41-1.76c.11,1.49.41,2.95.6,4.43.34,2.72.59,5.64,1.72,8.13.62,1.38,1.47,2.66,2.21,4a43.62,43.62,0,0,0,2.55,4.08,42.4,42.4,0,0,0,5,5.37.78.78,0,0,0,.39.37l.72.72A18,18,0,0,0,38.85,40c-1,1.78-1.86,3.63-3,5.32A34.87,34.87,0,0,1,28.75,53l.49.34c2.55-1.47,4.53-4.1,6.2-6.64,1.05-1.61,2.08-3.23,3.12-4.84.93-1.45,1.68-3,2.68-4.4a8,8,0,0,0,.75.49,20.17,20.17,0,0,0,3.56,1.42,14.6,14.6,0,0,0-.14,4.23A42.85,42.85,0,0,1,45.23,49c-.29,4-.81,7.91-1.15,11.88ZM32.38,21.53c.65-.85,1.31-1.71,1.93-2.59a19.42,19.42,0,0,0,1.4-2.27q.1,2.38.45,4.77c.2,1.32.48,2.62.64,3.94.19,1.54.3,3.07.53,4.6a19.79,19.79,0,0,0,.84,4.42,25.32,25.32,0,0,1-3-3.2,28.74,28.74,0,0,1-2.77-4.64c-.5-1-1.07-1.9-1.58-2.87C31.38,23,31.86,22.23,32.38,21.53Z"/></g><path class="cls-28" d="M104.74,22c-2.64-5.13-7.45-14.3-7.45-14.3S94,7,93.08,6.83C90.72,6.48,88.37,6.1,86,5.74c-.68-.1-1.36-.17-2-.22l-.46,0c-.67,0-1.34-.06-2-.07h-.25c-.64,0-1.28,0-1.92,0H79q-1.06,0-2.13.12h-.26l-2.28.16-.43,0h-.14l-.63,0h-.2l-.4,0-.25,0-.41,0-.29,0-.44,0-.42,0-.62,0-.41,0-.39,0-.39,0-.39,0-.39,0-.38,0-.39,0-.36,0-.42.06-.37.06-.54.09-.25,0-.34.08-.24.06-.18,0-.1,0-.22.07-.11,0L64.1,7l-.13,0a1.47,1.47,0,0,0-.28.16l-.07,0h-.27l-.28,0-.14,0-.22,0-.21,0-.27-.06L62,7c-.86-.19-2-.47-3.12-.74l-.07,0-.69-.16-.11,0c-.51-.12-1-.22-1.53-.32l-.19,0-.52-.1-.24,0-.46-.07-.23,0-.44,0-.2,0-.57,0H52.58l-1.7,0H43.11l-.89,0H41.8l-.85,0h-.37l-2.44.1-.34,0-.9.06h-.21l-.22,0-.39,0-.23,0-.22,0-.74.06-.39,0-.77.08-.31,0-1,.14h0l-1,.15-.26,0-.68.13-.3.06-.6.15-.27.06-.62.18-.17,0c-.26.08-.5.17-.73.26h0c-.19.08-.37.15-.55.24H27l-.14,0-.21,0-.21,0-.53-.1-.23,0L25.21,7l-.34-.06-.45-.09-.37-.06-.52-.09-.38-.06-.59-.09-.36-.06-1-.13-.3,0-.72-.08-.41,0-.62,0-.44,0-.58,0h-1l-.44,0c-.18,0-.35,0-.52,0l-.42,0-.49.06-.39.08-.24,0-.2,0-.2.05c-2.91.86-5.61,1.58-7.95,3.76,0,.13,0,.26-.06.4h0c0,.19-.07.38-.09.58a35.39,35.39,0,0,0,.72,11.1c0,.23.11.49.18.77s.08.33.12.5.06.25.1.39.11.43.16.66.06.22.09.35.13.48.19.73.07.23.1.36.15.56.23.84c0,.11.05.21.08.31.09.31.17.62.26.94a2.5,2.5,0,0,1,.07.26c.1.33.19.66.29,1l.06.23.3,1c0,.08.05.16.07.23.1.35.21.68.31,1l.06.19c.1.33.21.65.31,1l.06.2.31.9.07.21.29.82.08.21c.09.25.18.48.27.71l.09.22a6.31,6.31,0,0,0,.25.58l.09.22.23.46.09.19c.07.13.14.23.2.33l.08.13.06.09,1.34,1.26c.39.36.78.72,1.18,1.06,2.69,2.35,5.21,5,7.86,7.38.26.84.54,1.67.87,2.49,1.86,4.63,5,8.94,9.45,11.2a20.73,20.73,0,0,0,2.05.88c.14.38.28.75.43,1.12l-.12-1a47.87,47.87,0,0,1,5.37,2.11c.37.19.72.39,1.07.61a.56.56,0,0,0,.5.34c4.92,3.32,7.77,9.16,10.28,14.66h0c0,.14.2.62,1.78.47,1.84-.19,2.21-.37,3-.37s5.72-1.11,6.46-1.85,5.9-3.13,5.9-3.13a38,38,0,0,1,5.72-6.28c3-2.4,4.61-5.35,5.35-6.09a8.3,8.3,0,0,0,1.33-2.65l.1-.23a11.05,11.05,0,0,0,.79-1.46l0-.08A6.32,6.32,0,0,0,83,58a.65.65,0,0,0,0-.13c0-.12.06-.24.08-.35l0-.08,0,0c0-.09,0-.19,0-.28,0-1,1.07-1.79,1.66-2.48a12,12,0,0,1,3.35-2.37l.74-.46.24-.17.63-.45.29-.22c.28-.21.57-.43.87-.68l.12-.08h0a3.51,3.51,0,0,1,.36-.29l.06-.06h0l0,0h0l.36-.29.43-.36,1-.88.49-.44.68-.6.51-.47.77-.72.49-.46,1-1,.49-.49.69-.68L99,43l.74-.78.56-.59.77-.84.44-.5.54-.61.42-.5.56-.69.46-.59.47-.63.28-.41c.11-.16.21-.33.31-.48l.1-.16h0l0,0,.1-.17v0l0-.06,0-.08.11-.19,0,0a3.11,3.11,0,0,0,.15-.33,11.18,11.18,0,0,0,.56-1.66.17.17,0,0,1,0,.07c0-.13.07-.27.1-.41l.12-.53c0-.22.07-.43.11-.65s.09-.64.12-1c0-.18,0-.37,0-.56s0-.43,0-.65l0-.52,0-.7c0-.18,0-.35,0-.53l0-1.11c0-.16,0-.32,0-.47,0-.4,0-.79.07-1.18a.14.14,0,0,1,.06-.1,3.24,3.24,0,0,1,.42-.25A11.4,11.4,0,0,1,104.74,22ZM54.8,75.86s0,0,0-.07,0,0,0,0a.9.9,0,0,1,0,.18Z"/></g></g></svg>