<svg id="Layer_1" data-name="Layer 1" xmlns="http://www.w3.org/2000/svg" viewBox="0 0 130.12 99.53"><defs><style>.cls-1{fill:#0dff00;}</style></defs><path class="cls-1" d="M123.06,23.85c-.12-.18-.29-.44-.51-.81-2.65-5.15-7.3-14-7.35-14.1a10,10,0,0,0-6.69-5.12c-1.68-.37-3.89-.85-4.91-1-1.37-.2-2.73-.42-4.1-.63-1-.15-1.94-.31-2.91-.45s-1.74-.23-2.81-.31l-.62,0c-.89-.06-1.73-.08-2.59-.08h-.28c-.76,0-1.53,0-2.24.05h-.43l-2.33.13-7,.48L77,2.09l-1.36.15-.91.11-1.07.16-.72.13-.49.09L72,2.84l-1.7-.41-1-.23-1.75-.37-.35-.06-.93-.16-.74-.11-.42-.05-.71-.07-.4,0c-.43,0-.86,0-1.25,0l-5.07-.1H52.39l-1.32,0-1.75.05c-.89,0-1.78.06-2.64.11l-1.39.08-1,.07-1.74.16-1.28.14L40,2h-.11l-1.2.2-.31,0-.85.17-.49.1-.92.22-.7.18-1.66-.29-1.11-.17-1.22-.16-.34,0-.84-.09-.53,0-.85-.07-.55,0-.87,0H26l-.68,0-.83,0-.79.07-.89.12-.7.13c-.24,0-.47.08-.67.13L21,2.64l-.49.13-.38.12c-3.2.93-7.58,2.22-11.54,5.9a10,10,0,0,0-3,5.41c0,.28-.09.55-.13.85s-.1.62-.14.92a45.49,45.49,0,0,0,.91,14.44c.06.27.13.56.2.88l.25,1,.48,1.86.71,2.62.38,1.35.4,1.35L9,40.79l.47,1.45c.11.36.42,1.26.43,1.29l.37,1,.07.18c.12.33.23.63.36.94l.11.28.35.84.16.37.4.82.23.44c.18.32.34.59.5.85s.2.32.31.47.27.39.4.56a9.47,9.47,0,0,0,1,1.15l1.42,1.34c.47.43.93.86,1.4,1.27,1.38,1.2,2.75,2.52,4.2,3.92l1.59,1.52.24.61c2.91,7.26,7.79,13,13.78,16.17a10,10,0,0,0,7.43,3.32l.57,0a10.65,10.65,0,0,0,1.2.77c2.34,1.93,4.26,5.8,6.16,10a10.8,10.8,0,0,0,10.37,6.5c.51,0,1,0,1.57-.08,1.25-.13,2.06-.26,2.54-.34l.19,0a4.82,4.82,0,0,1-.77,0c.08,0,8-.5,12.46-3.86.7-.4,2.55-1.33,4.11-2a10,10,0,0,0,3.93-3.26,27.36,27.36,0,0,1,3.88-4.32,35.37,35.37,0,0,0,6.25-6.83l.26-.37a16.2,16.2,0,0,0,3-5.25c.31-.55.59-1.11.83-1.65l.11-.24c.18-.44.35-.88.5-1.34l.69-.38c.4-.23.86-.52,1.36-.86l.36-.24c.29-.2.59-.41.91-.65l.36-.26,1-.81.63-.5,1-.86,1.17-1,1.29-1.15.55-.51c.29-.26,1.39-1.3,1.39-1.3l1.1-1.06,1.3-1.29.56-.57L116,55l.63-.67.87-.94.53-.59.64-.74.5-.6c.24-.28.46-.56.7-.86s.41-.51.6-.77.46-.6.64-.86l.44-.63c.16-.24.31-.47.45-.71l.25-.38.06-.1.28-.5.4-.75q.19-.41.36-.78a20.69,20.69,0,0,0,.85-2.38c.07-.2.13-.41.18-.61s.12-.48.18-.77.13-.55.19-.83.12-.7.17-1,.14-1,.19-1.46v-.13q0-.32.06-.66c0-.29,0-.58.06-.92l0-.59,0-1.34a10,10,0,0,0-2.28-10.49Zm-7.53,7.29a.14.14,0,0,0-.06.1c0,.39,0,.79-.07,1.18,0,.16,0,.31,0,.47,0,.37,0,.74,0,1.11,0,.18,0,.36,0,.53l0,.71,0,.51c0,.22,0,.44,0,.65s0,.38,0,.56-.08.65-.12,1-.07.44-.11.65l-.12.53c0,.14-.06.28-.1.42a.25.25,0,0,0,0-.08,11.18,11.18,0,0,1-.56,1.66,2.41,2.41,0,0,1-.15.33l0,.05-.11.19a.3.3,0,0,1,0,.08.43.43,0,0,0,0,.07v0l-.1.17,0,0h0l-.1.16-.31.49-.28.41-.47.62-.46.59-.56.69-.42.5-.54.62-.44.49-.77.84-.56.59-.74.78-.5.51-.69.68-.49.49-1,1-.49.46-.77.72-.51.47c-.23.2-.45.41-.68.6l-.49.44-1,.88-.43.36-.36.3h0l0,0h0l-.06.06-.36.29h0l-.12.09-.87.67-.29.22-.63.45-.24.17c-.27.18-.52.34-.74.46a11.87,11.87,0,0,0-3.35,2.38c-.59.68-1.61,1.52-1.66,2.47,0,.09,0,.19,0,.28l0,0,0,.08c0,.12,0,.23-.08.35a1,1,0,0,1,0,.14,6.19,6.19,0,0,1-.27.75l0,.08A11.81,11.81,0,0,1,91,66.2l-.1.22a8.42,8.42,0,0,1-1.33,2.66c-.74.73-2.4,3.69-5.35,6.08a38,38,0,0,0-5.72,6.28s-5.17,2.4-5.9,3.13-5.72,1.85-6.46,1.85-1.11.18-3,.37c-1.58.16-1.76-.33-1.78-.47h0C58.85,80.83,56,75,51.08,71.66a.56.56,0,0,1-.5-.34c-.35-.21-.7-.42-1.07-.61a47.81,47.81,0,0,0-5.37-2.1l.12,1c-.15-.37-.29-.75-.43-1.12a20.79,20.79,0,0,1-2-.89c-4.45-2.26-7.59-6.56-9.45-11.2-.33-.82-.61-1.65-.87-2.49-2.65-2.42-5.17-5-7.86-7.38-.4-.34-.79-.7-1.18-1.06l-1.34-1.26L21,44.12,20.94,44c-.06-.1-.13-.2-.2-.33l-.09-.19c-.08-.14-.15-.29-.23-.46l-.09-.21c-.09-.19-.17-.38-.25-.59L20,42c-.09-.23-.18-.46-.27-.71l-.08-.21-.29-.82c0-.07-.05-.14-.07-.21l-.31-.9-.06-.2c-.1-.32-.21-.64-.31-1l-.06-.19c-.1-.33-.21-.67-.31-1l-.07-.22-.3-1-.06-.24c-.1-.33-.19-.66-.29-1a2.5,2.5,0,0,0-.07-.26c-.09-.31-.17-.63-.26-.94,0-.1-.05-.2-.08-.3-.08-.29-.16-.57-.23-.85,0-.12-.06-.24-.1-.36s-.13-.5-.19-.73l-.09-.35c0-.22-.11-.45-.16-.66s-.07-.26-.1-.39-.08-.35-.12-.5-.13-.54-.18-.77a35.39,35.39,0,0,1-.72-11.1c0-.2.06-.39.09-.58h0c0-.14,0-.27.06-.4,2.34-2.18,5-2.9,8-3.75l.2-.06.2-.05.24,0,.39-.07.49-.07.42,0,.52,0,.44,0h1l.58,0,.44,0,.62,0,.41,0,.72.08.3,0,1,.13.36.06.59.09.38.06.52.09.37.07.45.08.34.06.45.09L35,13l.53.1.21,0,.21,0,.14,0h.23l.55-.24h0c.23-.09.47-.18.73-.26l.17-.05.62-.18.27-.06.6-.14.3-.07.68-.13.26,0,1-.16h0l1-.14.31,0,.77-.09.39,0,.74-.06.22,0,.23,0,.39,0,.22,0H46l.9-.06h.34c.81,0,1.63-.08,2.44-.11H50l.85,0h.42l.89,0h7.77l1.7,0h1.07l.57,0,.2,0,.44,0,.23,0,.46.07.24,0,.52.09.19,0,1.53.32.11,0,.69.15.07,0c1.16.27,2.26.55,3.12.74l.21,0,.27.06.21,0,.22,0,.14,0,.28,0h.1l.17,0,.07,0a2.32,2.32,0,0,1,.28-.16l.13,0,.13-.05.11,0,.22-.07.1,0,.18,0,.24-.06.34-.07.25,0,.54-.1.37-.05.42-.07.36,0,.39-.05.38,0,.39,0,.39,0,.39,0,.39,0,.41,0,.62,0,.42,0,.44,0,.29,0,.41,0,.25,0,.4,0,.2,0,.63,0H83l.43,0,2.28-.15.25,0h0l2.13-.12h.34c.64,0,1.28,0,1.92,0h.25q1,0,2,.06l.46,0c.68,0,1.36.12,2,.22,2.35.36,4.7.74,7.06,1.09.87.13,4.21.88,4.21.88s4.81,9.17,7.45,14.29a11.4,11.4,0,0,0,2.15,3A3.24,3.24,0,0,0,115.53,31.14Z"/><path class="cls-1" d="M63.87,51.67s0,0,0,.07l0,.07a1,1,0,0,0,0-.18S63.88,51.65,63.87,51.67Z"/></svg>