<svg xmlns="http://www.w3.org/2000/svg" viewBox="0 0 118.22 78.59"><defs><style>.cls-1{isolation:isolate;}.cls-2{fill:#cdba97;}.cls-3{fill:#b79f88;}.cls-4{fill:#8e7250;}.cls-5{fill:#a8916f;}.cls-6{fill:#a38a73;}.cls-17,.cls-7{opacity:0.4;}.cls-8{fill:#a38e72;}.cls-9{fill:#c1a68c;}.cls-10,.cls-18{opacity:0.5;}.cls-11{fill:#9a836c;}.cls-12{fill:#a38671;}.cls-13,.cls-15,.cls-17,.cls-21,.cls-24{mix-blend-mode:multiply;}.cls-14{fill:#c4b29d;}.cls-15{opacity:0.6;}.cls-16{fill:#beaa8c;}.cls-18{mix-blend-mode:screen;}.cls-19{fill:#937e67;}.cls-20{fill:#e4d3aa;}.cls-21{opacity:0.2;}.cls-22{fill:#a38973;}.cls-23{fill:#ad9577;}.cls-24,.cls-26{opacity:0.3;}.cls-25{fill:#513a2d;}.cls-26{fill:#fff;}</style></defs><g class="cls-1"><g id="Layer_1" data-name="Layer 1"><path class="cls-2" d="M114.11,12.49c0,.3.08.6.1.9A28.84,28.84,0,0,1,113,23.45c-1,3.36-4.36,12.63-6,14.33-.88.69-1.76,1.38-2.65,2-4,2.89-7.76,6.28-12,8.94-1.49.93-3.18,1.62-4.6,2.67a10,10,0,0,0-2.24,2.53A63.59,63.59,0,0,0,82.28,60,60.18,60.18,0,0,1,77,68.78c-.56.73-1.38,1.57-2.08,2.46-1.76.59-3.52,1.16-5.29,1.69a43.61,43.61,0,0,1-7.36,1.78,24.44,24.44,0,0,1-4.18.11c-.85-.44-1.68-.89-2.48-1.36-3.47-2-7.2-4.09-10.12-6.88a54.63,54.63,0,0,1-6.28-6.72c-1.83-2.45-4.94-5.64-5-8,0-.87-1-1.68-1.57-2.32a12,12,0,0,0-3.27-2.3C25.54,45.05,14.58,34.8,13.05,31c-1.23-2.87-.75-6-.84-9,0-.28-1.71-.51-5.32-4a19.32,19.32,0,0,1-2.5-3.65c-.18-.28-.33-.57-.49-.86C4,12,3.9,7.3,5.18,5.91a29.83,29.83,0,0,1,8-1,37.81,37.81,0,0,1,9.05,1.37c.35.11,3.41-.53,4.3-.62,2.4-.21,4.79-.46,7.19-.69a61.46,61.46,0,0,1,11.81.52c2.06.21,9.42.84,10.68,1.77.47.35,7.13-1.33,10.24-1.21S87.5,6.25,93.1,9c.26.13,8.93-1.54,13.15-.23C109.15,9.64,111.84,10.42,114.11,12.49Z"/><path class="cls-3" d="M8.12,9.08c-.84,1.18-2.43,3.77-4.21,4.23.12-1.57,0-6,1.27-7.4A44.69,44.69,0,0,1,10.73,5c-.31.48-.63,1-.92,1.44C9.27,7.33,8.73,8.23,8.12,9.08Z"/><path class="cls-4" d="M20.14,12.26a2,2,0,0,0,.18.43,23.46,23.46,0,0,1-1.7,2.62c-1.94,2.57-3.91,5.09-6.85,6.35a19.74,19.74,0,0,1-4.88-3.72,19.32,19.32,0,0,1-2.5-3.65L4.1,13.8c1.5-.21,2.88-1.92,3.67-3.1S9.26,8.16,10,6.89c.39-.66.82-1.3,1.25-1.93a14.32,14.32,0,0,1,2,0c1.62.12,3.33.24,5,.47A37.41,37.41,0,0,0,19.33,10C19.58,10.72,19.84,11.5,20.14,12.26Z"/><path class="cls-5" d="M17.77,27.71a43.43,43.43,0,0,0,5.91-7.33c.74-1.24,1.62-2.48,2.28-3.77,0,2.35.34,4.72.5,7.05.19,2.62.31,5.24.43,7.87.21,4.5-.45,8.95-.69,13.42C21.67,41.3,15.13,34.87,13.34,31.61A7.43,7.43,0,0,0,15,30.43C15.92,29.57,16.87,28.64,17.77,27.71Z"/><path class="cls-4" d="M44.08,10.28c.75,3,1.91,5.77,2.65,8.72,1.65,6.62-.46,13.42-.48,20.13-.36.42-.72.84-1.1,1.24a62.84,62.84,0,0,1-7,6.9,9.12,9.12,0,0,1-3.48,2,16.32,16.32,0,0,1-2,.31h0a12,12,0,0,0-3.27-2.3,25.14,25.14,0,0,1-2.83-2,110.15,110.15,0,0,0,1-13.32c0-2.89-.17-5.78-.39-8.67-.11-1.37-.22-2.75-.35-4.12a22.67,22.67,0,0,0-.45-3.49,21.61,21.61,0,0,0,.77-3.1c.48-2.35,1.18-4.67,1.57-7l5-.49A47.85,47.85,0,0,1,43,5.27c0,.14.07.27.1.41C43.43,7.21,43.69,8.76,44.08,10.28Z"/><path class="cls-6" d="M20.7,12c-.07-.17-.16-.33-.2-.46-.27-.79-.6-1.57-.86-2.36-.41-1.22-.76-2.44-1.13-3.66a21.68,21.68,0,0,1,3.58.8,16.88,16.88,0,0,1-.6,3.72A15.74,15.74,0,0,1,20.7,12Z"/><path class="cls-4" d="M82.55,43.16c-1-1.58-1.85-3.3-2.75-5a15.89,15.89,0,0,0-1.4-2.71l.76-.63a.75.75,0,0,0,.41-.32,40.73,40.73,0,0,0,5.31-4.66,37,37,0,0,0,2.77-3.6c.81-1.17,1.73-2.29,2.42-3.52,1.26-2.22,1.65-4.85,2.13-7.32.26-1.33.63-2.65.81-4a12.43,12.43,0,0,0,2.36,1.7c1.13.74,2.38,1.29,3.56,1.94s2.58,1.35,3.81,2.11c.61.37,1.31,1.19,2,1.34,0,1.63,0,3.26.14,4.89.19,2.88.32,5.78.64,8.65a38.57,38.57,0,0,0,.66,4.13c.13.58.27,1.21.45,1.82-.77.6-1.55,1.2-2.33,1.76-4,2.89-7.76,6.28-12,8.94-.94.59-2,1.09-2.95,1.63A32.54,32.54,0,0,1,82.55,43.16Z"/><g class="cls-7"><path class="cls-3" d="M73.53,56.9c-.16-3.62-.5-7.22-.6-10.84a34.07,34.07,0,0,1,.07-5,11.86,11.86,0,0,0,.06-3.85,21.26,21.26,0,0,0,3.66-1.14,7.32,7.32,0,0,0,.78-.41c1,1.29,1.64,2.75,2.51,4.11s1.94,3,2.92,4.53c1.56,2.38,3.44,4.86,6,6.31-.39.23-.77.47-1.14.74a10,10,0,0,0-2.24,2.53A63.59,63.59,0,0,0,82.28,60,60.18,60.18,0,0,1,77,68.78c-.51.66-1.22,1.41-1.87,2.21-.14-1.51-.43-3-.63-4.49C74.05,63.32,73.67,60.1,73.53,56.9Z"/></g><path class="cls-4" d="M45.42,41.07a88,88,0,0,0,6.73-8.32c.94-1.34,1.9-2.69,2.78-4.08a11.82,11.82,0,0,0,1.68-3.37c.06-.15.11-.3.17-.46l0,0a.3.3,0,0,1,0,.08.38.38,0,0,0,.12.13c.35.23.67,1.64.87,2A10.59,10.59,0,0,0,59,28.89a26.16,26.16,0,0,0,3.39,3.51,41.44,41.44,0,0,0,4.05,3.19l.65.47c.61.52,1.26,1,1.87,1.49s.51.52,1.1.39c.76-.18,1.52-.35,2.29-.51l.34-.08a35.78,35.78,0,0,1-.18,4.74c-.1,1.57,0,3.15,0,4.72,0,2.57-.06,5.15.16,7.71v0l0,.23a14.47,14.47,0,0,1-1.33,2.09c-.75,1-1.62,1.93-2.35,2.94-1.4,1.91-2.41,4-3.86,5.91a91.7,91.7,0,0,1-7.29,9c-.77-.4-1.53-.81-2.26-1.24-3.47-2-7.2-4.09-10.12-6.88a54.63,54.63,0,0,1-6.28-6.72c-1.83-2.45-4.94-5.64-5-8,0-.77-.78-1.48-1.35-2.08a8.25,8.25,0,0,0,4.82-1.45A52,52,0,0,0,45.42,41.07Z"/><path class="cls-8" d="M66,65.54c1.62-2.45,2.88-5.08,4.78-7.34a31.33,31.33,0,0,0,2-2.42c0,.39.1.78.17,1.17.54,3.06.75,6.19,1.17,9.27.23,1.67.53,3.36.66,5.06-1.72.57-3.44,1.13-5.18,1.65a43.61,43.61,0,0,1-7.36,1.78,22.48,22.48,0,0,1-3.56.13C61.65,72.26,63.87,68.76,66,65.54Z"/><g class="cls-7"><path class="cls-9" d="M25.5,15.89c-.61,1.19-1.36,2.32-2.05,3.47a46.72,46.72,0,0,1-5.74,7.81c-1.35,1.45-2.74,3.18-4.52,4.14l-.14-.3c-1.23-2.87-.75-6-.84-9a.13.13,0,0,0-.07-.1c2.86-1.16,5.18-3.89,7-6.21A17.2,17.2,0,0,0,22,10.44a12.24,12.24,0,0,0,.37-4.11c.67,0,3.36-.55,4.18-.63l1.82-.17c-.52,2.09-1.15,4.15-1.6,6.25A16.77,16.77,0,0,1,25.5,15.89Z"/></g><path class="cls-8" d="M83.47,11.84a50.22,50.22,0,0,1-.32,8c-.22,1.33-.57,2.63-.78,4s-.4,2.88-.7,4.31c-.36,1.73-.56,3.76-1.46,5.33a20,20,0,0,1-4,2.15,26.79,26.79,0,0,1-3.41,1c-.64.16-1.28.3-1.92.45S69.69,37.45,69,37l-.26-.18a17.39,17.39,0,0,0-1.8-1.47c-1.33-1-2.64-2.1-3.9-3.23-2.26-2-4.46-4.17-5.09-7.22-.11-.52-.19-1.05-.29-1.58s-.26-.86-.3-1.3a12.1,12.1,0,0,1,.1-1.47c0-.57,0-1.13,0-1.7,0-1.09,0-2.18,0-3.28,0-2-.1-4.09-.29-6.13-.06-.69-.13-1.38-.24-2.07,1.87-.19,6.94-1.34,9.54-1.24,1.94.08,10.08.12,17.13.87A33.4,33.4,0,0,0,83.47,11.84Z"/><g class="cls-10"><path class="cls-6" d="M49.75,21.05a15.25,15.25,0,0,1-1.62,2.73,20.81,20.81,0,0,0-.8-4.25c-.87-3.24-2.17-6.35-2.93-9.62-.34-1.45-.55-3-.88-4.59l2,.21A74.08,74.08,0,0,1,55.28,6.9c-.56,3-2,5.75-3,8.59A56.52,56.52,0,0,1,49.75,21.05Z"/></g><g class="cls-10"><path class="cls-11" d="M91.6,14.73c-.49,2.5-.84,5.14-2,7.43-.16.32-.35.64-.54.95a10.75,10.75,0,0,0-1-1.23c-.61-.81-1.21-1.63-1.76-2.49s-.91-1.49-1.34-2.25c-.25-.44-.47-.94-.74-1.41.06-.84.08-1.68.07-2.52,0-1.38,0-2.75,0-4.13a19.38,19.38,0,0,1,.21-2,34,34,0,0,1,8.11,1.69c-.06.74-.12,1.49-.22,2.22C92.18,12.24,91.84,13.47,91.6,14.73Z"/></g><g class="cls-7"><path class="cls-3" d="M83.92,30.32a24.56,24.56,0,0,1-3.17,2.78,16.32,16.32,0,0,0,1.06-4c.3-1.38.49-2.77.75-4.16.23-1.2.57-2.36.83-3.55a40.41,40.41,0,0,0,.69-4.32,16.09,16.09,0,0,0,1.31,2.12c.58.83,1.2,1.63,1.82,2.44.5.65.94,1.4,1.47,2-.57.85-1.18,1.68-1.73,2.54A26.48,26.48,0,0,1,83.92,30.32Z"/></g><path class="cls-3" d="M113,23.45c-1,3.32-4.27,12.38-5.9,14.26a18.41,18.41,0,0,1-.65-2.53A36.25,36.25,0,0,1,106,31q-.2-4-.41-8a71.49,71.49,0,0,1,0-8.66c.14-1.92.23-3.81.45-5.69l.2.05c2.9.9,5.59,1.68,7.86,3.75,0,.3.08.6.1.9A28.84,28.84,0,0,1,113,23.45Z"/><g class="cls-10"><path class="cls-12" d="M105,14c-.1,1.36-.15,2.72-.17,4.08a27.06,27.06,0,0,0-2.49-1.33l-3.51-2a39.31,39.31,0,0,1-3.59-2.46,14.62,14.62,0,0,0-2.09-1.63c0-.55.06-1.1.06-1.64.78,0,8.51-1.41,12.69-.35l-.24,1.4A37.77,37.77,0,0,0,105,14Z"/></g><path class="cls-3" d="M56.67,11a54.39,54.39,0,0,1,0,9.55,16,16,0,0,1-.6,4.3,16.08,16.08,0,0,1-2.07,4c-.88,1.28-1.75,2.56-2.66,3.82-1.53,2.11-3.15,4.18-4.86,6.16.36-3.08.67-6.16,1.08-9.23a47.15,47.15,0,0,0,.54-4.76A25.54,25.54,0,0,0,50,21.29c.91-2,2.08-3.91,2.81-5.95.63-1.77,1.41-3.48,2.06-5.24a12.82,12.82,0,0,0,.8-2.91.76.76,0,0,1,0-.15,2.61,2.61,0,0,1,.53.26l0,0c0,.17,0,.32,0,.39C56.39,8.82,56.54,9.93,56.67,11Z"/><g class="cls-13"><path class="cls-14" d="M114.21,13.39c0-.3,0-.6-.1-.9-2.27-2.07-5-2.85-7.86-3.75C102,7.43,93.36,9.1,93.1,9,87.5,6.25,69.5,6.22,66.48,6.09S56.71,7.65,56.24,7.3C55,6.37,47.62,5.74,45.56,5.53A61.46,61.46,0,0,0,33.75,5c-2.4.23-4.79.48-7.19.69-.89.09-3.95.73-4.3.62a37.81,37.81,0,0,0-9-1.37,29.83,29.83,0,0,0-8,1C3.9,7.3,4,12,3.9,13.43c.08.15.16.3.25.45,2.44-1,4.46-2.9,6.84-4a5.64,5.64,0,0,1,3.68-.62c1.28.37,2,1.44,2.83,2.42a2.72,2.72,0,0,1,.82,2.55A11.87,11.87,0,0,1,16.09,18a12,12,0,0,1-4.36,3.69c.33.17.48.25.48.34.09,3-.39,6.16.84,9a6.08,6.08,0,0,0,.45.87c1-.47,2-1.6,2.87-2.14a33.37,33.37,0,0,1,3.85-2.1c2.15-.93,4.5-1,5.7,1.29s1.15,5,1.19,7.36c0,.27,0,.54,0,.81.14-.94.3-1.89.46-2.83.28-1.61.39-3.58,1.57-4.84a6.15,6.15,0,0,1,1.9-1.19c1.25-.59,2.55-1.1,3.81-1.68a28.87,28.87,0,0,1,7.49-2.62,2.51,2.51,0,0,1,2.89,1.92,8.45,8.45,0,0,1,.29,2.6c0,1.18,0,2.34-.06,3.51a26.2,26.2,0,0,1-4.26,13.08,10.65,10.65,0,0,1-5.92,4.32,9.31,9.31,0,0,1-2.69.11l0,.06c.56.64,1.55,1.45,1.57,2.32A6.35,6.35,0,0,0,35.49,55a3.92,3.92,0,0,1,0-1,4.67,4.67,0,0,1,1.25-2.17,18.32,18.32,0,0,1,5.13-3.37c2.64-1.39,5.26-2.84,7.86-4.3,1.25-.71,2.48-1.45,3.68-2.24a9.93,9.93,0,0,1,3-1.42c1.73-.4,3.24.54,4.52,1.57,1.75,1.42,3.4,3,5.11,4.43a13.3,13.3,0,0,1,3.63,4.27c.87,1.83.49,3.66-.2,5.46-1.74,4.64-5,8.55-6.58,13.25,1.62-1.39,3-3.07,4.62-4.46a9.55,9.55,0,0,1,2.78-1.69c.48-.18,1.17-.54,1.63-.12a4,4,0,0,1,.75,2c.33,1.37.91,2.71,1.34,4,.21.64.42,1.3.61,2l.19-.06c.7-.89,1.52-1.73,2.08-2.46A60.18,60.18,0,0,0,82.28,60a63.59,63.59,0,0,1,3.23-6.11,10,10,0,0,1,2.24-2.53,14.59,14.59,0,0,1,1.5-.95,27.17,27.17,0,0,1-4.64-5.06c-1.22-1.73-2.9-3.79-2.43-6.06.88-4.18,5.7-6.39,8.59-9,2.13-1.92,4.11-4,6.36-5.76,1.39-1.11,4.26-3.62,6.21-2.53,1,.53,1.13,2.1,1.25,3,.26,1.88.14,3.79.22,5.69a23.2,23.2,0,0,0,1.57,6.65l.24.66.37-.29c1.61-1.7,4.94-11,6-14.33A28.84,28.84,0,0,0,114.21,13.39ZM78.88,34.29a12.41,12.41,0,0,1-5.18,2.42,20.41,20.41,0,0,1-3,.76,7,7,0,0,1-1.88-.06c-.52-.07-.38-.69-.38-.69-.67-1.21-2.74-2.35-3.85-3.14a20.63,20.63,0,0,1-5.13-5.45c-1-1.83-.41-2.32.67-4s3.39-3,5.19-4.13a36.31,36.31,0,0,1,7.07-3.42c1.75-.61,3.87-1.27,5.71-.73A4.2,4.2,0,0,1,80.69,19a26.47,26.47,0,0,1,.67,5.61C81.54,27.91,81.47,31.9,78.88,34.29Z"/></g><g class="cls-15"><path class="cls-16" d="M87.75,51.4a10,10,0,0,0-2.24,2.53,59.36,59.36,0,0,0-3.15,6c.28-1.46.58-2.93.73-4.39.18-1.66-.8-2.88-1.67-4.2a20.37,20.37,0,0,0-3.12-3.86c-.56-.52-1.67-1.5-2.52-1a3.42,3.42,0,0,0-1.23,2.38c-.31,1.54-.49,3.11-.76,4.66-.25,1.37-.5,2.75-.7,4.14a84.41,84.41,0,0,1-.58-12.52c0-2.19,0-4.38.11-6.57,0-.51,0-1,0-1.52l1-.31a16.43,16.43,0,0,0,3.87-1.48c2,3.23,4,6.45,6,9.6A45.73,45.73,0,0,0,87.4,49a12,12,0,0,0,1.66,1.52A13.86,13.86,0,0,0,87.75,51.4Z"/></g><g class="cls-17"><path class="cls-16" d="M112.8,12.36c-1.46-.33-3.47-.56-4.81.25s-1.59,2.79-1.92,4.09a30.71,30.71,0,0,0-.86,5.29,3,3,0,0,0-1.52-2.45c-2-1.05-4.33-1.37-6.44-2.22-1.22-.5-2.56-1-3.7-.05S91.68,19.8,90.72,21a16.35,16.35,0,0,0,.47-1.86,11.17,11.17,0,0,0,.24-2.76c-.08-1.6-.18-4-1.31-5.29-1.43-1.61-3.14,1.66-3.54,2.69-1.16,3,.25,5.79,1.58,8.46C87.09,21,86.3,19.43,84.8,18.61c-.48-.26-.56-.47-1-.08a2.11,2.11,0,0,0-.3.37c.08-1.09.17-2.17.25-3.26.14-1.9.59-4.32,0-6.18s-2.13-2-3.84-1.92c-2.72.19-5.4.79-8.11,1s-5.64-.11-8.16.86a5.05,5.05,0,0,0-2.94,3.77c-.54,2.06-.94,4.06-1.68,6.06s-1.75,4.43-1.13,6.58a11.44,11.44,0,0,0,3.74,5.08,23.72,23.72,0,0,0,3,2.64c.5.35,1.19.78,1.87,1.26L65,34.1a16.59,16.59,0,0,0-4.1-1.67,4.18,4.18,0,0,0-3.41.75C55,34.83,52.8,36.9,50.31,38.59c-1.17.78-2.4,1.48-3.63,2.15A12.4,12.4,0,0,1,44,41.92c3.24-2.87,5.73-6.67,8.27-10.14A36.42,36.42,0,0,0,56,26.31c.4-.84,1.14-2.28.83-3.31a24.78,24.78,0,0,0,.38-6.21c0-.71-.13-4.53-1.75-3.77a4.29,4.29,0,0,0-1.66,2.19,26.18,26.18,0,0,1-1.92,3.53c-1,1.51-2.14,3-3.1,4.51-.34.54-.77,1.06-1.14,1.6a17.87,17.87,0,0,0-1.28-5.78c-1-2.34-2.22-4.58-3.28-6.88A23.52,23.52,0,0,0,41.34,9a4.63,4.63,0,0,0-1.56-1.67,4.15,4.15,0,0,0-3.51,0c-3,1.21-5.37,3.6-7.69,5.76-2.72,2.53-4.12,6.19-6.67,8.84l.45-1a21.55,21.55,0,0,0,1.78-4.7c.1-.51.62-2.69-.12-3a.87.87,0,0,0-.84.23,17.32,17.32,0,0,0-2,1.76c-1.25,1.29-2.33,2.71-3.51,4.05S15.15,21.64,14,22.94c-1.57,1.77-1.64,4.24-1.42,6.6-.6-2.44-.29-5-.36-7.52a9.05,9.05,0,0,0,2.27-1.78,35.86,35.86,0,0,0,3.79-4.38,12.48,12.48,0,0,0,2.54-4.57c.18-.81.21-1.67.42-2.48a2.24,2.24,0,0,0,.06-1.51A4.67,4.67,0,0,0,20,5.71a19.09,19.09,0,0,1,2.31.61c.35.11,3.41-.53,4.3-.62,2.4-.21,4.79-.46,7.19-.69a61.46,61.46,0,0,1,11.81.52c2.06.21,9.42.84,10.68,1.77.47.35,7.13-1.33,10.24-1.21S87.5,6.25,93.1,9c.26.13,8.93-1.54,13.15-.23,2.9.9,5.59,1.68,7.86,3.75,0,.12,0,.24,0,.37A5.3,5.3,0,0,0,112.8,12.36Z"/></g><g class="cls-15"><path class="cls-16" d="M11.91,21.73l-.18-.09A9.43,9.43,0,0,0,14.23,20,7.25,7.25,0,0,1,11.91,21.73Z"/></g><g class="cls-15"><path class="cls-16" d="M13.84,5.09a5.84,5.84,0,0,0-2.21,1.39c-1.35,1.28-2.59,2.67-3.9,4A4.91,4.91,0,0,0,8.61,7.2a.19.19,0,0,0-.22-.15c-1.21.13-2.94.16-3.76,1.23A4.81,4.81,0,0,0,4.18,9a6.13,6.13,0,0,1,1-3.12,29.83,29.83,0,0,1,8-1L14.1,5Z"/></g><g class="cls-18"><path class="cls-19" d="M45.47,32a26.2,26.2,0,0,1-4.26,13.08,10.65,10.65,0,0,1-5.92,4.32,7.35,7.35,0,0,1-1.76.15,6.85,6.85,0,0,0,.79-.13A8,8,0,0,0,37.26,48c2-1.4,2.44-3.58,2.37-5.9a23.34,23.34,0,0,0-1-6.32c-.5-1.61-1.22-3.33-2.77-4.18a5.81,5.81,0,0,0-4.79-.2c-2,.87-2.55,3-3.13,4.93a30.34,30.34,0,0,0-1,4.72c-.13.86-.24,1.73-.43,2.59a4.57,4.57,0,0,1-.36,1.3l0,0a41.42,41.42,0,0,0,.43-6.39,38.22,38.22,0,0,0-.4-4.13A10.76,10.76,0,0,0,25.23,31c-1.15-2.23-3.19-2.63-5.48-2A27.23,27.23,0,0,0,15.5,30.4a6.24,6.24,0,0,1,.87-.66,33.37,33.37,0,0,1,3.85-2.1c2.15-.93,4.5-1,5.7,1.29s1.15,5,1.19,7.36c0,.27,0,.54,0,.81.14-.94.3-1.89.46-2.83.28-1.61.39-3.58,1.57-4.84a6.15,6.15,0,0,1,1.9-1.19c1.25-.59,2.55-1.1,3.81-1.68a28.87,28.87,0,0,1,7.49-2.62,2.51,2.51,0,0,1,2.89,1.92,8.45,8.45,0,0,1,.29,2.6C45.54,29.64,45.56,30.8,45.47,32Z"/><g class="cls-15"><path class="cls-20" d="M105.69,38.79a1.42,1.42,0,0,0,0-.22c.15-.69-.88-1.07-1.22-1.48a19.63,19.63,0,0,1-1.86-3c-1-1.81-2.41-3.28-4.63-3.26s-4.27,1.33-6.11,2.29a41.7,41.7,0,0,0-5,2.85c-1.39,1-2.94,2.38-3.12,4.21-.22,2.22.88,4.35,2.16,6.09.74,1,1.48,2,2.15,3.07l.14.21a27.06,27.06,0,0,1-3.59-4.12c-1.22-1.73-2.9-3.79-2.43-6.06.88-4.18,5.7-6.39,8.59-9,2.13-1.92,4.11-4,6.36-5.76,1.39-1.11,4.26-3.62,6.21-2.53,1,.53,1.13,2.1,1.25,3,.26,1.88.14,3.79.22,5.69a23.2,23.2,0,0,0,1.57,6.65l.24.66.37-.29Z"/></g><g class="cls-15"><path class="cls-20" d="M64.65,65.7a43.34,43.34,0,0,1,1.55-4.35c.88-2.08,2-4.55,1.31-6.85a7.9,7.9,0,0,0-1.76-2.63c-.86-1-1.72-2-2.67-2.92-1.71-1.67-3.67-3.3-6.14-3.6s-5,.41-7.41,1a27.63,27.63,0,0,0-7.45,3.21c-1.14.67-2.31,1.3-3.46,2a7.89,7.89,0,0,0-2.31,1.75,4.33,4.33,0,0,0-.7,2,1.88,1.88,0,0,1-.12-.18,3.87,3.87,0,0,1,0-1,4.67,4.67,0,0,1,1.25-2.17,18.32,18.32,0,0,1,5.13-3.37c2.64-1.39,5.26-2.84,7.86-4.3,1.25-.71,2.48-1.45,3.68-2.24a9.93,9.93,0,0,1,3-1.42c1.73-.4,3.24.54,4.52,1.57,1.75,1.42,3.4,3,5.11,4.43a13.3,13.3,0,0,1,3.63,4.27c.87,1.83.49,3.66-.2,5.46C68.31,59.62,66.27,62.57,64.65,65.7Z"/></g><g class="cls-15"><path class="cls-20" d="M78.88,34.29a12.41,12.41,0,0,1-5.18,2.42,20.41,20.41,0,0,1-3,.76,4.58,4.58,0,0,1-.64,0,16.44,16.44,0,0,0,3.14-1.17c1.83-.88,4-2,5.15-3.7a7.71,7.71,0,0,0,1-5.09,14.53,14.53,0,0,0-1.59-6.33c-1-1.7-3-2.14-4.82-1.95-4.5.46-9.54,1.79-12.47,5.49a4,4,0,0,0-.85,3.68c-.07-.1-.13-.21-.19-.31-1-1.83-.41-2.32.67-4s3.39-3,5.19-4.13a36.31,36.31,0,0,1,7.07-3.42c1.75-.61,3.87-1.27,5.71-.73A4.2,4.2,0,0,1,80.69,19a26.47,26.47,0,0,1,.67,5.61C81.54,27.91,81.47,31.9,78.88,34.29Z"/></g><g class="cls-15"><path class="cls-20" d="M18.32,14.21A11.87,11.87,0,0,1,16.09,18c-.3.39-.63.78-1,1.16a19.06,19.06,0,0,0,1.12-2.37c.65-1.54,1.77-3.81-.07-5s-3.95-.48-5.79.26C9.15,12.43,8,13,6.68,13.4a10.17,10.17,0,0,1-2.39.42c2.38-1,4.37-2.86,6.7-4a5.64,5.64,0,0,1,3.68-.62c1.28.37,2,1.44,2.83,2.42A2.72,2.72,0,0,1,18.32,14.21Z"/></g></g><g class="cls-21"><path class="cls-22" d="M32.45,25.24c-.39.79-2.42,2.27-3.3,1.58a3.7,3.7,0,0,1-1.35-3c.3-4.05,6.17-1.69,4.65,1.42C32,26.14,32.75,24.61,32.45,25.24Z"/><path class="cls-22" d="M36.08,23.7c-.56,2.11-2.39.14-2.66-1-1.45-2.52,3.9-.57,2.66,1Z"/><path class="cls-22" d="M64.92,42.36c-1.63-.12-6.72-5-3.62-5.94A3.18,3.18,0,0,1,65.15,38c.34.71,1.31,4.5-.23,4.39C63.72,42.27,65.43,42.39,64.92,42.36Z"/><path class="cls-22" d="M68.35,46.45a3.41,3.41,0,0,1-2.14-1.93c-.34-.75.23-2.78,1.27-2.78,1.44,0,2.35,4.95.87,4.71Z"/><path class="cls-22" d="M58.12,37.71c.21,1.88-2.84,1.65-2.21.09.42-1,2.79-1.53,2.21-.09C58.15,38,58.22,37.45,58.12,37.71Z"/><path class="cls-22" d="M53.14,28.59c-1.07,1.57-2.72-2.72-1.34-4.06.49-.47,2.54-1,2.68.08a5.93,5.93,0,0,1-1.34,4Z"/><path class="cls-22" d="M50.9,30.74c0,1.34-1.49,2.58-1.64.61-.14-1.74,1.62-2.77,1.64-.61Z"/><path class="cls-22" d="M66,17.07c-.26,1.67-2.22,2.48-3.71,2.59S60.8,17.87,61,16.94c.27-1.23.91-3.06,2.36-3.31,1.78-.3,2.82,2,2.59,3.44C65.7,18.72,66.14,15.92,66,17.07Z"/><path class="cls-22" d="M69.46,15.19c-.54,2.28-2.57,1.39-2.78-.5-.24-2.27,3.18-1.2,2.78.5C69.28,16,69.73,14.05,69.46,15.19Z"/><path class="cls-22" d="M73.53,15c-.46.14-2.76,0-1.67-1,1.52-1.38,2.94.64,1.67,1Z"/><path class="cls-22" d="M86.5,24.78c-.21,2-2.23,2.49-2.43.14-.23-2.84,2.66-2.39,2.43-.14C86.42,25.51,86.53,24.46,86.5,24.78Z"/><path class="cls-22" d="M84,27.73c.69,1.21-1.31,1.74-1.13.61-.34-1.27.48-1.73,1.13-.61C84.17,28,84,27.72,84,27.73Z"/><path class="cls-22" d="M79.74,59.23c-1.43,1-2.91-6-.49-6.4,1.37-.21,2.25,1.76,2.41,2.81a3.88,3.88,0,0,1-1.92,3.59Z"/><path class="cls-22" d="M83.16,52.15c.11,1.17-4.64.09-3.09-2.3,1.28-2,5.13.73,3.09,2.3C83.19,52.51,83.83,51.63,83.16,52.15Z"/><path class="cls-22" d="M80.9,48.1a1.51,1.51,0,0,1-1.32-2.56c1.55-1.77,3,2.35,1.32,2.56Z"/><path class="cls-22" d="M78.91,44.73c-.54-.3-1-2,0-2.1s.91,2.61,0,2.1Z"/><path class="cls-22" d="M76.56,66.19c-.7,1.74-2.72-.87-2-2.28,0-.63.87-2,1.39-.94.4.83,1,2.27.66,3.22Z"/><path class="cls-22" d="M76,61.07c-.56,1.08-2-.29-1.46-1.22.7-1.33,1.91.36,1.46,1.22C75.86,61.28,76.07,60.87,76,61.07Z"/><path class="cls-22" d="M25.91,22.26a2.22,2.22,0,0,1-.42,1.82c-.32.43-1.65.74-2,.15-.45-.81,2.06-2.88,2.39-2C26.09,22.76,25.81,22,25.91,22.26Z"/><path class="cls-22" d="M23.16,31.13c1-.71,1.83,1.09.75,1.22-.71.09-1.74-1.09-.75-1.22C23.3,31,23,31.16,23.16,31.13Z"/><path class="cls-22" d="M46.09,49.88c1,.49-2.5,3.54-3.47,2.28-.54-.71.29-1.82.84-2.24a2.49,2.49,0,0,1,2.63,0Z"/><path class="cls-22" d="M41,50.17c.63-.43,1.51,2.59-.32,2.46-1.52-.1-1.2-3.12.32-2.46C41.21,50,40.51,50,41,50.17Z"/><path class="cls-22" d="M39.43,52.72a1,1,0,0,1-1,1.55c-1.48-.32.38-2.45,1-1.55C39.59,52.93,39.29,52.52,39.43,52.72Z"/><path class="cls-22" d="M38.16,54.9c0,.4-.86,1.19-1.19.67s1.19-1.34,1.19-.67Z"/><path class="cls-22" d="M51,49.49c1.21-.15.37,1.81-.64,1.87-.35.22-1.41.14-1-.49s.95-1.3,1.6-1.38C51.37,49.44,50.67,49.53,51,49.49Z"/><path class="cls-22" d="M48.32,51.43c.79,0,.45,1.2-.23,1.21-1,0-.4-1.19.23-1.21Z"/><path class="cls-22" d="M16.45,24.28c-1.61-1.19-.2-3.11.94-4,.78-.62,2.62-2,2.7-.11.06,1.55-1.46,5.72-3.64,4.12Z"/><path class="cls-22" d="M21.82,18.43c-.15,1.6-1.88.79-2-.36a1.5,1.5,0,0,1,.91-1.47c1-.54,1.1,1.35,1.05,1.83C21.8,18.74,21.84,18.25,21.82,18.43Z"/><path class="cls-22" d="M43.46,17.73c-1.75.11-3.59-1.94-1.92-3.41,2.18-1.9,3.54,3.31,1.92,3.41Z"/><path class="cls-22" d="M43.08,12c0,1.31-2.53.95-2.21-.56a2.39,2.39,0,0,1,1.05-1.49c1.17-.81,1.16,1.6,1.16,2.05Z"/><path class="cls-22" d="M99.45,20.54c-.36,1.63-4,2.62-3.65.61a4.9,4.9,0,0,1,1.86-2.84c1.15-.9,2,1.44,1.79,2.23Z"/><path class="cls-22" d="M94.67,24.47c-.63-.08-1.32-.9-1-1.41,1.32-1.91,2.19,1.56,1,1.41Z"/><path class="cls-22" d="M108.66,23.34a1.13,1.13,0,0,1-2.16.26c-.72-1.23-1.23-2.2-.5-3.63.35-.71,1.77-2.25,2.37-.85a6.57,6.57,0,0,1,.29,4.22C108.42,24.23,109,22,108.66,23.34Z"/><path class="cls-22" d="M108.8,27.22c-.39,2-2,.46-2.32-.61-.41-1.41,2.71-1.35,2.32.61C108.69,27.77,108.87,26.84,108.8,27.22Z"/><path class="cls-22" d="M110.53,20.34c-.4,1.43-1.36-1.13-1.32-1.52.08-.78,1-.59,1.31-.09a2.09,2.09,0,0,1,0,1.61C110.42,20.73,110.62,20,110.53,20.34Z"/><path class="cls-22" d="M109.42,14.94c-1.77.13-3.1-3.08-.86-3.5,1.85-.34,2.91,3.36.86,3.5Z"/><path class="cls-22" d="M112.08,13.59c-.56.39-1.54-.68-1.14-1.23.62-.86,2,.67,1.14,1.23Z"/><path class="cls-22" d="M33.84,18.48c-.14,1.29-2.88.62-2.7-.89.1-.83.94-1.25,1.66-1.42.94-.22,1.1,1.79,1,2.31C33.81,18.82,33.91,17.9,33.84,18.48Z"/><path class="cls-22" d="M58.78,31.88c-.18.36-1.11,1-1.52.72a1.69,1.69,0,0,1-.62-1.37c.14-1.86,2.84-.78,2.14.65Z"/><path class="cls-22" d="M60.32,35c-.26,1-1.1.07-1.23-.45-.66-1.16,1.8-.26,1.23.45C60.32,35,60.39,34.93,60.32,35Z"/><path class="cls-22" d="M68.29,33.42c-.49.72-1.25-1.25-.61-1.87.22-.21,1.16-.46,1.23,0a2.73,2.73,0,0,1-.62,1.83Z"/><path class="cls-22" d="M74.19,28.12c-.12.77-1,1.14-1.71,1.19s-.66-.82-.57-1.25.42-1.41,1.09-1.52,1.3.9,1.19,1.58S74.27,27.6,74.19,28.12Z"/><path class="cls-22" d="M63.84,28.43c-.8.05-1.65-.9-.88-1.57,1-.88,1.63,1.52.88,1.57C63.41,28.45,64,28.41,63.84,28.43Z"/><path class="cls-22" d="M63.67,25.78c0,.61-1.17.44-1-.26a1.08,1.08,0,0,1,.48-.68c.54-.38.54.74.54.94Z"/><path class="cls-22" d="M38.91,21.59c-.06.6-1.33.29-1.24-.41,0-.38.43-.57.76-.65s.51.82.48,1.06S38.94,21.33,38.91,21.59Z"/></g><path class="cls-23" d="M81.42,24.41c0,.11-.23-.79-.25-.89a27.16,27.16,0,0,0-1.48-4.88c-.75-1.89-3.53-1.4-5.13-1.05a40.68,40.68,0,0,0-11.59,4s0,0,0,0a20.78,20.78,0,0,1,6.22-3.48,30.65,30.65,0,0,1,6.9-2.44c1.24-.19,2.93,0,3.61,1.15C81,19,81.37,22.06,81.42,24.41Z"/><g class="cls-24"><path class="cls-25" d="M26.4,15.63a22.67,22.67,0,0,1,.45,3.49c.13,1.37.24,2.75.35,4.12.22,2.89.37,5.78.39,8.67a110.15,110.15,0,0,1-1,13.32L26.2,45c.24-4.47.9-8.92.69-13.42-.12-2.63-.24-5.25-.43-7.87-.16-2.33-.51-4.7-.5-7-.66,1.29-1.54,2.53-2.28,3.77a43.43,43.43,0,0,1-5.91,7.33c-.9.93-1.85,1.86-2.82,2.72a7.43,7.43,0,0,1-1.61,1.18c-.05-.1-.11-.2-.15-.3,1.78-1,3.17-2.69,4.52-4.14a46.72,46.72,0,0,0,5.74-7.81c.69-1.15,1.44-2.28,2.05-3.47a16.77,16.77,0,0,0,1.28-4.11c.45-2.1,1.08-4.16,1.6-6.25l.36,0c-.39,2.36-1.09,4.68-1.57,7A21.61,21.61,0,0,1,26.4,15.63Z"/><path class="cls-25" d="M22,10.44a17.2,17.2,0,0,1-2.89,5.23c-1.8,2.32-4.12,5-7,6.21a2,2,0,0,0-.37-.22c2.94-1.26,4.91-3.78,6.85-6.35a23.46,23.46,0,0,0,1.7-2.62,2,2,0,0,1-.18-.43c-.3-.76-.56-1.54-.81-2.31a37.41,37.41,0,0,1-1.1-4.53l.28,0c.37,1.22.72,2.44,1.13,3.66.26.79.59,1.57.86,2.36,0,.13.13.29.2.46a15.74,15.74,0,0,0,.79-2,16.88,16.88,0,0,0,.6-3.72l.17.05h.12A12.24,12.24,0,0,1,22,10.44Z"/><path class="cls-25" d="M7.77,10.7C7,11.88,5.6,13.59,4.1,13.8l-.2-.37s0-.09,0-.12c1.78-.46,3.37-3.05,4.21-4.23.61-.85,1.15-1.75,1.69-2.65.29-.49.61-1,.92-1.44l.52,0c-.43.63-.86,1.27-1.25,1.93C9.26,8.16,8.58,9.47,7.77,10.7Z"/><path class="cls-25" d="M105.6,14.38c.14-1.92.23-3.81.45-5.69l-.2-.06-.24,1.4a37.77,37.77,0,0,0-.66,4c-.1,1.36-.15,2.72-.17,4.08a27.06,27.06,0,0,0-2.49-1.33l-3.51-2a39.31,39.31,0,0,1-3.59-2.46,14.62,14.62,0,0,0-2.09-1.63c0-.55.06-1.1.06-1.64H93.1a5.27,5.27,0,0,0-.53-.23c-.06.74-.12,1.49-.22,2.22-.17,1.28-.51,2.51-.75,3.77-.49,2.5-.84,5.14-2,7.43-.16.32-.35.64-.54.95a10.75,10.75,0,0,0-1-1.23c-.61-.81-1.21-1.63-1.76-2.49s-.91-1.49-1.34-2.25c-.25-.44-.47-.94-.74-1.41.06-.84.08-1.68.07-2.52,0-1.38,0-2.75,0-4.13a19.38,19.38,0,0,1,.21-2L83.61,7a33.4,33.4,0,0,0-.14,4.88,50.22,50.22,0,0,1-.32,8c-.22,1.33-.57,2.63-.78,4s-.4,2.88-.7,4.31c-.36,1.73-.56,3.76-1.46,5.33a20,20,0,0,1-4,2.15,26.79,26.79,0,0,1-3.41,1c-.64.16-1.28.3-1.92.45S69.69,37.45,69,37l-.26-.18a17.39,17.39,0,0,0-1.8-1.47c-1.33-1-2.64-2.1-3.9-3.23-2.26-2-4.46-4.17-5.09-7.22-.11-.52-.19-1.05-.29-1.58s-.26-.86-.3-1.3a12.1,12.1,0,0,1,.1-1.47c0-.57,0-1.13,0-1.7,0-1.09,0-2.18,0-3.28,0-2-.1-4.09-.29-6.13-.06-.69-.13-1.38-.24-2.07a1.9,1.9,0,0,1-.67,0c0,.17,0,.32,0,.39.07,1.11.22,2.22.35,3.33a54.39,54.39,0,0,1,0,9.55,16,16,0,0,1-.6,4.3,16.08,16.08,0,0,1-2.07,4c-.88,1.28-1.75,2.56-2.66,3.82-1.53,2.11-3.15,4.18-4.86,6.16.36-3.08.67-6.16,1.08-9.23a47.15,47.15,0,0,0,.54-4.76A25.54,25.54,0,0,0,50,21.29c.91-2,2.08-3.91,2.81-5.95.63-1.77,1.41-3.48,2.06-5.24a12.82,12.82,0,0,0,.8-2.91.76.76,0,0,1,0-.15l-.43-.14c-.56,3-2,5.75-3,8.59a56.52,56.52,0,0,1-2.5,5.56,15.25,15.25,0,0,1-1.62,2.73,20.81,20.81,0,0,0-.8-4.25c-.87-3.24-2.17-6.35-2.93-9.62-.34-1.45-.55-3-.88-4.59L43,5.27c0,.14.07.27.1.41.32,1.53.58,3.08,1,4.6.75,3,1.91,5.77,2.65,8.72,1.65,6.62-.46,13.42-.48,20.13-.36.42-.72.84-1.1,1.24a62.84,62.84,0,0,1-7,6.9,9.12,9.12,0,0,1-3.48,2,16.32,16.32,0,0,1-2,.31l.22.24a8.25,8.25,0,0,0,4.82-1.45,52,52,0,0,0,7.73-7.26,88,88,0,0,0,6.73-8.32c.94-1.34,1.9-2.69,2.78-4.08a11.82,11.82,0,0,0,1.68-3.37c.06-.15.11-.3.17-.46l0,0a.3.3,0,0,1,0,.08.38.38,0,0,0,.12.13c.35.23.67,1.64.87,2A10.59,10.59,0,0,0,59,28.89a26.16,26.16,0,0,0,3.39,3.51,41.44,41.44,0,0,0,4.05,3.19l.65.47c.61.52,1.26,1,1.87,1.49s.51.52,1.1.39c.76-.18,1.52-.35,2.29-.51l.34-.08a35.78,35.78,0,0,1-.18,4.74c-.1,1.57,0,3.15,0,4.72,0,2.57-.06,5.15.16,7.71v0l0,.23a14.47,14.47,0,0,1-1.33,2.09c-.75,1-1.62,1.93-2.35,2.94-1.4,1.91-2.41,4-3.86,5.91a91.7,91.7,0,0,1-7.29,9l.22.12.62,0c3-2.58,5.18-6.08,7.32-9.3,1.62-2.45,2.88-5.08,4.78-7.34a31.33,31.33,0,0,0,2-2.42c0,.39.1.78.17,1.17.54,3.06.75,6.19,1.17,9.27.23,1.67.53,3.36.66,5.06l.11,0,.21-.25c-.14-1.51-.43-3-.63-4.49-.43-3.18-.81-6.4-1-9.6-.16-3.62-.5-7.22-.6-10.84a34.07,34.07,0,0,1,.07-5,11.86,11.86,0,0,0,.06-3.85,21.26,21.26,0,0,0,3.66-1.14,7.32,7.32,0,0,0,.78-.41c1,1.29,1.64,2.75,2.51,4.11s1.94,3,2.92,4.53c1.56,2.38,3.44,4.86,6,6.31l.51-.3a32.54,32.54,0,0,1-6.85-7.2c-1-1.58-1.85-3.3-2.75-5a15.89,15.89,0,0,0-1.4-2.71l.76-.63a.75.75,0,0,0,.41-.32,40.73,40.73,0,0,0,5.31-4.66,37,37,0,0,0,2.77-3.6c.81-1.17,1.73-2.29,2.42-3.52,1.26-2.22,1.65-4.85,2.13-7.32.26-1.33.63-2.65.81-4a12.43,12.43,0,0,0,2.36,1.7c1.13.74,2.38,1.29,3.56,1.94s2.58,1.35,3.81,2.11c.61.37,1.31,1.19,2,1.34,0,1.63,0,3.26.14,4.89.19,2.88.32,5.78.64,8.65a38.57,38.57,0,0,0,.66,4.13c.13.58.27,1.21.45,1.82a3.92,3.92,0,0,0,.32-.25l.07-.07a18.41,18.41,0,0,1-.65-2.53A36.25,36.25,0,0,1,106,31q-.2-4-.41-8A71.49,71.49,0,0,1,105.6,14.38Zm-16.92,9.3c-.57.85-1.18,1.68-1.73,2.54a26.48,26.48,0,0,1-3,4.1,24.56,24.56,0,0,1-3.17,2.78,16.32,16.32,0,0,0,1.06-4c.3-1.38.49-2.77.75-4.16.23-1.2.57-2.36.83-3.55a40.41,40.41,0,0,0,.69-4.32,16.09,16.09,0,0,0,1.31,2.12c.58.83,1.2,1.63,1.82,2.44C87.71,22.3,88.15,23.05,88.68,23.68Z"/></g><path class="cls-26" d="M114.15,12.86h0c0-.13,0-.25,0-.37-2.27-2.07-5-2.85-7.86-3.75l-.2-.05-.2-.06-.24-.05-.39-.08-.49-.08-.42-.06-.53,0-.44,0-.56,0h-1.49l-.64,0h-.4l-.75.05h-.29l-1,.08-.36,0-.62.06-.38,0-.53.06-.37,0-.47.06-.32,0-.47.06-.4,0-.38.05-.21,0-.22,0-.15,0H93.1a5.27,5.27,0,0,0-.53-.23h0c-.22-.09-.46-.18-.72-.26l-.18-.06-.61-.18-.27-.08L90.18,8l-.29-.07-.68-.15-.27,0-1-.18h0l-1-.18-.31,0-.78-.11-.39,0-.74-.09-.22,0-.24,0-.39,0-.22,0-.22,0-.89-.09-.35,0c-.82-.07-1.64-.14-2.47-.19l-.35,0-.89-.06-.39,0-.94-.06h-.27l-1.17-.06h-.33l-.82,0-.42,0-.76,0H73l-1,0h-.1l-.91,0h-.38l-.59,0h-.3l-.62,0h-.21l-.74,0-.59,0h-.7l-.4,0H65.7l-.45,0-.24,0-.46,0-.24,0-.55.06-.18,0c-.51.06-1,.14-1.57.22l-.1,0-.7.11-.11,0c-1.17.19-2.29.4-3.16.53l-.21,0-.27,0-.23,0-.22,0h-.14l-.29,0h-.09l-.18,0s-.06,0-.07,0A1.77,1.77,0,0,0,56,7.15l-.13-.05L55.71,7,55.6,7l-.22-.08-.1,0-.17-.05-.24-.06-.34-.08-.26-.06-.51-.1-.41-.07-.41-.08-.38-.05-.37-.06-.4-.06-.37-.05L51,6.12l-.38,0L50.22,6l-.35,0-1.6-.18-.21,0-.47,0-.2,0-.46,0h-.09l-1.28-.13L43.24,5.3l-.23,0h0l-2.15-.2-.34,0c-.65,0-1.29-.09-1.94-.12h-.26c-.67,0-1.35,0-2,0h-.46c-.69,0-1.39,0-2.07.11-2.4.23-4.79.48-7.19.69l-.37,0h0l-.46.07h-.1l-.45.08a24.33,24.33,0,0,1-2.77.41h-.12c-.37-.13-.75-.24-1.13-.34L21,6l-.67-.16h0L20,5.71h0c-.51-.1-1-.19-1.56-.26l-.16,0h0c-1.69-.23-3.4-.35-5-.47-.27,0-.57,0-.88,0h-.09a24.62,24.62,0,0,0-2.62.19l-.27,0-.95.14L8,5.35,7,5.53l-.39.07-1.46.31L5,6.18v0l0,.09h0l-.12.21,0,0,0,.12h0a1.8,1.8,0,0,0-.08.21L4.6,7l0,.12-.06.2s0,.1,0,.15,0,.07,0,.1a1.62,1.62,0,0,0,0,.19A2.25,2.25,0,0,0,4.35,8l0,.08a.77.77,0,0,0,0,.15l-.06.31s0,.06,0,.1,0,.3-.07.46v.06l-.06.52v0C4,11.11,4,12.55,3.91,13.31c0,0,0,.08,0,.12l.2.37,0,0,0,.05h0c.08.14.15.28.24.41a19.32,19.32,0,0,0,2.5,3.65c.28.28.55.53.81.77l.23.2.57.5.17.15.64.51.18.14.41.3.19.13c.16.12.32.22.47.32l.12.07.31.2.15.09.24.13.18.1.17.09h0l0,0h0l.2.11,0,0,.11.07,0,0s.06.07.06.1c0,.35,0,.71,0,1.07,0,.15,0,.29,0,.43,0,.34,0,.68,0,1,0,.16,0,.31,0,.47v.65c0,.15,0,.31,0,.47s0,.39,0,.59l0,.52c0,.29,0,.58.08.87a5.78,5.78,0,0,0,.08.6c0,.17.06.33.09.49s0,.25.08.38,0-.05,0-.07A9.82,9.82,0,0,0,13.05,31l.14.3a.17.17,0,0,0,0,.05l.09.18a.16.16,0,0,1,0,.07l0,.06v0l.09.15,0,0h0l.1.15c.09.15.18.3.29.45s.17.26.27.39.28.39.43.59L15,34c.17.21.34.43.53.65s.26.31.4.46l.51.59.43.47c.24.26.48.53.73.79l.55.57c.23.24.46.49.7.73l.49.49.65.64.48.47,1,.91.51.48.73.67.5.45.66.58.47.42,1,.84.42.35.34.28h0l0,0h0l.07.06.35.28h0l.11.09.84.64.29.21.61.44.25.16c.25.18.5.33.72.46a12,12,0,0,1,3.27,2.3c.13.15.29.31.45.48l.06.06.19.2.09.11.15.16.09.12.13.17.08.12.1.17a.75.75,0,0,1,.07.12,1.59,1.59,0,0,1,.07.2.42.42,0,0,1,0,.1,1.81,1.81,0,0,1,0,.31,3.17,3.17,0,0,0,.09.67l0,.13a7.13,7.13,0,0,0,.23.7l0,.07a9.84,9.84,0,0,0,.88,1.6h0c1.08,1.65,2.61,3.37,3.7,4.83a54.63,54.63,0,0,0,6.28,6.72c2.92,2.79,6.65,4.83,10.12,6.88.73.43,1.49.84,2.26,1.24l.22.12c.77,0,1.54.05,2.32,0h.16c.56,0,1.13-.06,1.7-.13a43.61,43.61,0,0,0,7.36-1.78c1.71-.51,3.41-1.06,5.1-1.63h0l.19-.06.37-.44.33-.39.05-.07.77-.88.11-.12.45-.56A60.18,60.18,0,0,0,82.28,60a1.19,1.19,0,0,0,.08-.16h0l.32-.64c.35-.69.69-1.39,1-2.09,0-.07.07-.15.11-.22.18-.37.38-.74.57-1.1l.23-.43c.28-.5.57-1,.89-1.47a10,10,0,0,1,2.24-2.53,13.86,13.86,0,0,1,1.31-.84h0l.69-.39L91,49.53c.48-.26,1-.52,1.4-.8,4.23-2.66,7.94-6,12-8.94.42-.3.83-.6,1.24-.92s.94-.72,1.41-1.09l.07-.07.09-.12.22-.29.1-.17.25-.41a1.74,1.74,0,0,0,.1-.19c.1-.16.19-.33.29-.52l.09-.2c.1-.2.21-.41.31-.63l.1-.2c.1-.24.21-.47.32-.72l.09-.19c.11-.26.23-.53.34-.8a1.54,1.54,0,0,0,.08-.19l.36-.86.06-.16c.13-.31.25-.62.37-.93a1.11,1.11,0,0,1,.07-.16l.36-.93.09-.26c.11-.28.22-.56.32-.84l.09-.25.3-.82c.05-.13.09-.24.13-.37l.24-.67.14-.4c.07-.19.14-.39.2-.58s.12-.36.18-.54.09-.24.12-.36.12-.36.18-.53l.09-.28.22-.69a28.84,28.84,0,0,0,1.25-10.06C114.2,13.21,114.17,13,114.15,12.86Z"/></g></g></svg>