<svg xmlns="http://www.w3.org/2000/svg" viewBox="0 0 120.47 92.71"><defs><style>.cls-1{isolation:isolate;}.cls-2{fill:#cdba97;}.cls-3{fill:#b79f88;}.cls-4{fill:#8e7250;}.cls-5{fill:#a8916f;}.cls-6{fill:#a38a73;}.cls-32,.cls-7{opacity:0.4;}.cls-8{fill:#a38e72;}.cls-9{fill:#c1a68c;}.cls-10,.cls-29,.cls-33{opacity:0.5;}.cls-11{fill:#9a836c;}.cls-12{fill:#a38671;}.cls-13,.cls-30,.cls-32,.cls-36,.cls-39{mix-blend-mode:multiply;}.cls-14{fill:#c4b29d;}.cls-15{fill:#7d7e81;}.cls-16{fill:#72737c;}.cls-17{fill:#a7a9ac;}.cls-18{fill:#9d9fa5;}.cls-19{fill:#bec0c2;}.cls-20{fill:#b4b4b4;}.cls-21{fill:#d8d9da;}.cls-22{fill:#c7c8ca;}.cls-23{fill:#77777d;}.cls-24{fill:#707377;}.cls-25{fill:#58595b;}.cls-26{fill:#6e6c70;}.cls-27{fill:#b9c0b4;}.cls-28{fill:#d6d3ce;}.cls-29{fill:#593611;}.cls-30{opacity:0.6;}.cls-31{fill:#beaa8c;}.cls-33{mix-blend-mode:screen;}.cls-34{fill:#937e67;}.cls-35{fill:#e4d3aa;}.cls-36{opacity:0.2;}.cls-37{fill:#a38973;}.cls-38{fill:#ad9577;}.cls-39,.cls-41{opacity:0.3;}.cls-40{fill:#513a2d;}.cls-41{fill:#fff;}</style></defs><g class="cls-1"><g id="Layer_1" data-name="Layer 1"><path class="cls-2" d="M112.45,11.81a8.65,8.65,0,0,1,.1.89,28.93,28.93,0,0,1-1.25,10.07c-1,3.35-4.36,12.62-6,14.33-.88.69-1.76,1.37-2.65,2-4.05,2.89-7.76,6.28-12,8.94-1.49.94-3.18,1.62-4.6,2.67a9.91,9.91,0,0,0-2.24,2.54,63.42,63.42,0,0,0-3.23,6.1,60.82,60.82,0,0,1-5.3,8.75c-.56.72-1.38,1.56-2.08,2.46q-2.64.89-5.29,1.69A44.59,44.59,0,0,1,60.59,74a25.49,25.49,0,0,1-4.18.1c-.85-.44-1.68-.88-2.48-1.36-3.47-2-7.2-4.08-10.12-6.87a54,54,0,0,1-6.28-6.73c-1.83-2.45-4.94-5.64-5-8,0-.87-1-1.67-1.57-2.32a12,12,0,0,0-3.27-2.3c-3.84-2.19-14.8-12.44-16.33-16.23-1.23-2.86-.75-6-.84-9,0-.27-1.71-.51-5.32-4a19.32,19.32,0,0,1-2.5-3.65c-.18-.28-.33-.57-.49-.86.14-1.46,0-6.13,1.28-7.52a30.25,30.25,0,0,1,8-1A38.32,38.32,0,0,1,20.6,5.63C21,5.75,24,5.1,24.9,5c2.4-.22,4.79-.47,7.19-.7a60.67,60.67,0,0,1,11.81.53c2.06.21,9.42.84,10.68,1.77.47.35,7.13-1.34,10.24-1.21s21,.15,26.62,2.88c.26.12,8.93-1.55,13.15-.24C107.49,9,110.18,9.73,112.45,11.81Z"/><path class="cls-3" d="M6.46,8.4C5.62,9.57,4,12.16,2.25,12.62c.12-1.57,0-6,1.27-7.4a44.42,44.42,0,0,1,5.55-.91c-.31.47-.63,1-.92,1.44C7.61,6.65,7.07,7.55,6.46,8.4Z"/><path class="cls-4" d="M18.48,11.57a2,2,0,0,0,.18.43A22.57,22.57,0,0,1,17,14.62C15,17.19,13.05,19.72,10.11,21a19.74,19.74,0,0,1-4.88-3.72,19.32,19.32,0,0,1-2.5-3.65c-.1-.16-.2-.32-.29-.49,1.5-.21,2.88-1.92,3.67-3.1S7.6,7.48,8.34,6.2c.39-.66.82-1.29,1.25-1.93a16.13,16.13,0,0,1,2,0c1.62.13,3.33.24,5,.48a37.25,37.25,0,0,0,1.1,4.52C17.92,10,18.18,10.81,18.48,11.57Z"/><path class="cls-5" d="M16.11,27A43.43,43.43,0,0,0,22,19.69c.74-1.23,1.62-2.47,2.28-3.77,0,2.35.34,4.72.5,7.06.19,2.62.31,5.24.43,7.86.21,4.51-.45,9-.69,13.42C20,40.61,13.47,34.18,11.68,30.92a7.74,7.74,0,0,0,1.61-1.17C14.26,28.88,15.21,28,16.11,27Z"/><path class="cls-4" d="M42.42,9.59c.75,2.95,1.91,5.77,2.65,8.72,1.65,6.62-.46,13.42-.48,20.13-.36.42-.72.84-1.1,1.25a62.75,62.75,0,0,1-7,6.89,9.12,9.12,0,0,1-3.48,2,14.57,14.57,0,0,1-2,.31h0a12,12,0,0,0-3.27-2.3,22.77,22.77,0,0,1-2.83-2,110,110,0,0,0,1-13.32c0-2.89-.17-5.78-.39-8.66-.11-1.38-.22-2.75-.35-4.13a22.67,22.67,0,0,0-.45-3.49,21,21,0,0,0,.77-3.1c.48-2.35,1.18-4.67,1.57-7l5-.49a47.88,47.88,0,0,1,9.26.27c0,.13.07.27.1.41C41.77,6.53,42,8.07,42.42,9.59Z"/><path class="cls-6" d="M19,11.26c-.07-.17-.16-.33-.2-.45-.27-.8-.6-1.57-.86-2.37-.41-1.21-.76-2.44-1.13-3.66a21.68,21.68,0,0,1,3.58.8,16.7,16.7,0,0,1-.6,3.72A14.59,14.59,0,0,1,19,11.26Z"/><path class="cls-4" d="M80.89,42.47c-1-1.58-1.85-3.3-2.75-4.95a15.61,15.61,0,0,0-1.4-2.72l.76-.62a.75.75,0,0,0,.41-.32,41.56,41.56,0,0,0,5.31-4.67A38.66,38.66,0,0,0,86,25.59c.81-1.16,1.73-2.29,2.42-3.52,1.26-2.21,1.65-4.85,2.13-7.32.26-1.33.63-2.65.81-4a12,12,0,0,0,2.36,1.7c1.13.74,2.38,1.29,3.56,1.95s2.58,1.34,3.81,2.1c.61.37,1.31,1.19,2,1.35,0,1.63,0,3.26.14,4.88.19,2.89.32,5.78.64,8.65a38.17,38.17,0,0,0,.66,4.13c.13.59.27,1.22.45,1.83-.77.6-1.55,1.2-2.33,1.75-4.05,2.89-7.76,6.28-12,8.94-.94.59-2,1.09-3,1.64A32.81,32.81,0,0,1,80.89,42.47Z"/><g class="cls-7"><path class="cls-3" d="M71.87,56.21c-.16-3.62-.5-7.22-.6-10.84a34.07,34.07,0,0,1,.07-4.95,11.85,11.85,0,0,0,.06-3.85,21.26,21.26,0,0,0,3.66-1.14,5.85,5.85,0,0,0,.78-.41c1,1.3,1.64,2.75,2.51,4.11s1.94,3,2.92,4.53c1.56,2.38,3.44,4.86,6,6.31-.39.23-.77.47-1.14.74a9.91,9.91,0,0,0-2.24,2.54,63.42,63.42,0,0,0-3.23,6.1,60.82,60.82,0,0,1-5.3,8.75c-.51.65-1.22,1.4-1.87,2.2-.14-1.51-.43-3-.63-4.49C72.39,62.64,72,59.41,71.87,56.21Z"/></g><path class="cls-4" d="M43.76,40.38a85.53,85.53,0,0,0,6.73-8.32c.94-1.34,1.9-2.69,2.78-4.08A11.76,11.76,0,0,0,55,24.62l.17-.47,0,0a.59.59,0,0,1,0,.08.34.34,0,0,0,.12.14c.35.22.67,1.63.87,2A10.2,10.2,0,0,0,57.3,28.2a26.23,26.23,0,0,0,3.39,3.52,42.92,42.92,0,0,0,4,3.18l.65.47c.61.52,1.26,1,1.87,1.5s.51.51,1.1.38c.76-.18,1.52-.34,2.29-.51l.34-.08a35.87,35.87,0,0,1-.18,4.75c-.1,1.56,0,3.14,0,4.71,0,2.57-.06,5.15.16,7.71v0l0,.23a14.64,14.64,0,0,1-1.33,2.1c-.75,1-1.62,1.92-2.35,2.93-1.4,1.91-2.41,4-3.86,5.91a91.82,91.82,0,0,1-7.29,9c-.77-.41-1.53-.81-2.26-1.25-3.47-2-7.2-4.08-10.12-6.87a54,54,0,0,1-6.28-6.73c-1.83-2.45-4.94-5.64-5-8,0-.76-.78-1.48-1.35-2.08A8.18,8.18,0,0,0,36,47.64,52,52,0,0,0,43.76,40.38Z"/><path class="cls-8" d="M64.35,64.85c1.62-2.44,2.88-5.07,4.78-7.33.65-.79,1.42-1.57,2-2.43.05.39.1.78.17,1.17.54,3.06.75,6.19,1.17,9.27.23,1.67.53,3.37.66,5.06-1.72.58-3.44,1.13-5.18,1.66A44.59,44.59,0,0,1,60.59,74a23.72,23.72,0,0,1-3.56.12C60,71.57,62.21,68.07,64.35,64.85Z"/><g class="cls-7"><path class="cls-9" d="M23.84,15.2c-.61,1.19-1.36,2.33-2.05,3.48a46.65,46.65,0,0,1-5.74,7.8,19.12,19.12,0,0,1-4.52,4.14c0-.1-.1-.2-.14-.3-1.23-2.86-.75-6-.84-9,0,0,0-.06-.07-.1,2.86-1.16,5.18-3.88,7-6.21a17.08,17.08,0,0,0,2.89-5.23,12.19,12.19,0,0,0,.37-4.11c.67,0,3.36-.55,4.18-.62l1.82-.18C26.2,6.93,25.57,9,25.12,11.1A16.7,16.7,0,0,1,23.84,15.2Z"/></g><path class="cls-8" d="M81.81,11.15a50.34,50.34,0,0,1-.32,8c-.22,1.33-.57,2.62-.78,3.95s-.4,2.89-.7,4.31c-.36,1.74-.56,3.76-1.46,5.34a20.28,20.28,0,0,1-4,2.15,26.17,26.17,0,0,1-3.4,1l-1.92.45c-.79.18-1.16.33-1.86-.15l-.26-.19a17.23,17.23,0,0,0-1.8-1.46c-1.33-1.05-2.64-2.11-3.9-3.24-2.26-2-4.46-4.17-5.09-7.21-.11-.53-.19-1.06-.29-1.59s-.26-.85-.3-1.3a11.8,11.8,0,0,1,.1-1.46c0-.57,0-1.14,0-1.71,0-1.09,0-2.18,0-3.27-.05-2-.1-4.09-.29-6.13-.06-.69-.13-1.39-.24-2.08,1.87-.18,6.94-1.34,9.54-1.23,1.94.08,10.08.12,17.13.86A33.4,33.4,0,0,0,81.81,11.15Z"/><g class="cls-10"><path class="cls-6" d="M48.09,20.37a15.61,15.61,0,0,1-1.62,2.73,20.56,20.56,0,0,0-.8-4.25c-.87-3.24-2.17-6.36-2.93-9.63-.34-1.45-.55-3-.88-4.58l2,.21c1.75.18,7.31.65,9.72,1.37-.56,3-2,5.74-3,8.59A57.6,57.6,0,0,1,48.09,20.37Z"/></g><g class="cls-10"><path class="cls-11" d="M89.94,14c-.49,2.5-.84,5.14-2,7.43-.17.33-.35.64-.54,1a10.89,10.89,0,0,0-1-1.24c-.61-.81-1.21-1.63-1.76-2.48s-.91-1.49-1.34-2.26c-.25-.44-.47-.94-.74-1.41.06-.84.08-1.67.07-2.52,0-1.37,0-2.75,0-4.12a19.29,19.29,0,0,1,.21-2,34.49,34.49,0,0,1,8.11,1.69c-.06.74-.12,1.49-.22,2.23C90.52,11.55,90.18,12.78,89.94,14Z"/></g><g class="cls-7"><path class="cls-3" d="M82.26,29.64a23.74,23.74,0,0,1-3.17,2.77,16.2,16.2,0,0,0,1.06-4c.3-1.38.49-2.77.75-4.15.23-1.2.57-2.37.83-3.56a39.62,39.62,0,0,0,.69-4.32,15.46,15.46,0,0,0,1.31,2.12c.58.83,1.2,1.64,1.82,2.44s.94,1.4,1.47,2c-.57.86-1.18,1.68-1.73,2.54A27,27,0,0,1,82.26,29.64Z"/></g><path class="cls-3" d="M111.3,22.77c-1,3.31-4.27,12.37-5.9,14.25a18,18,0,0,1-.65-2.53,36,36,0,0,1-.43-4.15q-.19-4-.41-8a71.49,71.49,0,0,1,0-8.66c.14-1.91.23-3.81.45-5.69l.2.05c2.9.91,5.59,1.68,7.86,3.76a8.65,8.65,0,0,1,.1.89A28.93,28.93,0,0,1,111.3,22.77Z"/><g class="cls-10"><path class="cls-12" d="M103.29,13.31c-.1,1.36-.15,2.72-.17,4.09a24.83,24.83,0,0,0-2.49-1.33l-3.51-2a41.44,41.44,0,0,1-3.59-2.46,14,14,0,0,0-2.09-1.64c0-.55.06-1.09.06-1.64.78,0,8.51-1.41,12.69-.35L104,9.34A38.21,38.21,0,0,0,103.29,13.31Z"/></g><path class="cls-3" d="M55,10.35a54.39,54.39,0,0,1,0,9.55,15.94,15.94,0,0,1-.6,4.3,15.9,15.9,0,0,1-2.07,4c-.88,1.28-1.75,2.56-2.66,3.82-1.53,2.12-3.15,4.18-4.86,6.16.36-3.07.67-6.15,1.08-9.23a47.15,47.15,0,0,0,.54-4.76,24.46,24.46,0,0,0,1.9-3.55c.91-2,2.08-3.91,2.81-6,.63-1.77,1.41-3.48,2.06-5.24A12.82,12.82,0,0,0,54,6.5a.61.61,0,0,1,0-.14,2.18,2.18,0,0,1,.53.26h0c0,.18,0,.32,0,.4C54.73,8.14,54.88,9.24,55,10.35Z"/><g class="cls-13"><path class="cls-14" d="M112.55,12.7a8.65,8.65,0,0,0-.1-.89c-2.27-2.08-5-2.85-7.86-3.76-4.22-1.31-12.89.36-13.15.24-5.6-2.73-23.6-2.76-26.62-2.88S55.05,7,54.58,6.62C53.32,5.69,46,5.06,43.9,4.85a60.67,60.67,0,0,0-11.81-.53c-2.4.23-4.79.48-7.19.7-.89.08-3.95.73-4.3.61a38.32,38.32,0,0,0-9-1.37,30.25,30.25,0,0,0-8,1c-1.28,1.39-1.14,6.06-1.28,7.52.08.15.16.3.25.45,2.44-1,4.46-2.89,6.84-4A5.58,5.58,0,0,1,13,8.56c1.28.37,2,1.43,2.83,2.41a2.74,2.74,0,0,1,.82,2.56,11.83,11.83,0,0,1-2.23,3.73A12,12,0,0,1,10.07,21c.33.18.48.26.48.34.09,3-.39,6.17.84,9a6.14,6.14,0,0,0,.45.88,34.53,34.53,0,0,0,2.87-2.14A31.24,31.24,0,0,1,18.56,27c2.15-.92,4.5-1,5.7,1.29s1.15,5,1.19,7.37c0,.26,0,.53,0,.8.14-.94.3-1.88.46-2.82.28-1.61.39-3.59,1.57-4.85a6.15,6.15,0,0,1,1.9-1.19c1.25-.58,2.55-1.1,3.81-1.67a28.15,28.15,0,0,1,7.49-2.62,2.5,2.5,0,0,1,2.89,1.91,8.51,8.51,0,0,1,.29,2.61c0,1.17,0,2.33-.06,3.5a26.2,26.2,0,0,1-4.26,13.08,10.56,10.56,0,0,1-5.92,4.32,9,9,0,0,1-2.69.11l0,.06c.56.65,1.55,1.45,1.57,2.32a6.42,6.42,0,0,0,1.27,3.18,3.87,3.87,0,0,1,.05-1,4.67,4.67,0,0,1,1.25-2.17,18.13,18.13,0,0,1,5.13-3.38q4-2.09,7.86-4.3c1.25-.71,2.48-1.45,3.68-2.23a9.49,9.49,0,0,1,3-1.42c1.73-.41,3.24.53,4.52,1.57,1.75,1.41,3.4,3,5.11,4.42a13.41,13.41,0,0,1,3.63,4.27c.87,1.83.49,3.66-.2,5.47-1.74,4.63-5,8.54-6.58,13.24,1.62-1.38,3-3.07,4.62-4.45a9.58,9.58,0,0,1,2.78-1.7c.48-.18,1.17-.54,1.63-.11a4,4,0,0,1,.75,2c.33,1.37.91,2.7,1.34,4,.21.65.42,1.3.61,2l.19-.06c.7-.9,1.52-1.74,2.08-2.46a60.82,60.82,0,0,0,5.3-8.75,63.42,63.42,0,0,1,3.23-6.1,9.91,9.91,0,0,1,2.24-2.54,14.59,14.59,0,0,1,1.5-1A27.17,27.17,0,0,1,83,44.7c-1.22-1.72-2.9-3.79-2.43-6.06.88-4.18,5.7-6.39,8.59-9,2.13-1.92,4.11-4,6.36-5.77,1.39-1.11,4.26-3.62,6.21-2.52.95.53,1.13,2.09,1.25,3,.26,1.88.14,3.8.22,5.69a23.12,23.12,0,0,0,1.57,6.65c.08.23.16.44.24.66l.37-.28c1.61-1.71,4.94-11,6-14.33A28.93,28.93,0,0,0,112.55,12.7ZM77.22,33.6A12.43,12.43,0,0,1,72,36a20.41,20.41,0,0,1-3,.76,7.41,7.41,0,0,1-1.88-.07c-.52-.07-.38-.69-.38-.69-.67-1.2-2.74-2.35-3.85-3.14a20.48,20.48,0,0,1-5.13-5.45c-1-1.83-.41-2.32.67-4s3.39-3,5.19-4.14a37.49,37.49,0,0,1,7.07-3.42c1.75-.61,3.87-1.27,5.71-.73A4.22,4.22,0,0,1,79,18.34a26.3,26.3,0,0,1,.67,5.6C79.88,27.22,79.81,31.21,77.22,33.6Z"/></g><polygon class="cls-15" points="66.74 89.27 67.81 89.09 73.19 70.64 73.19 65.63 60.65 69.39 66.74 89.27"/><path class="cls-16" d="M73.18,69.36l-4.56,1a2.44,2.44,0,0,1-1.27,2.2,6.39,6.39,0,0,1-2.55.75.88.88,0,0,0-.66.29.84.84,0,0,0,0,.68l2.85,14.6a2.46,2.46,0,0,1-.4-.3L60.79,69.86a2.21,2.21,0,0,1,.46-.65l2.82-.85a10.57,10.57,0,0,0,1.39-.1A8.72,8.72,0,0,0,68.54,67l4.65-1.39C73.18,66.87,73.18,68.12,73.18,69.36Z"/><path class="cls-17" d="M60.65,69.39l6.09-.54,6.45-3.22,10-15.94a22,22,0,0,0-9.86,0,55.56,55.56,0,0,1-9.49,1.42l-1.25,2.33Z"/><path class="cls-18" d="M73.82,50c-1.36.47-2.42,1.58-3.75,2.12-1,.42-2.17.48-3.23.81a3.06,3.06,0,0,0-2.28,2.18c0,.3,0,.64-.26.85s-.51.2-.72.37a1.14,1.14,0,0,0-.32.71c-.74,4-1.48,8.21-.84,12.24a3.68,3.68,0,0,0-1.15,0,6.94,6.94,0,0,1,0-.79,81.91,81.91,0,0,1,1-12,7.5,7.5,0,0,1,1.8-4.15,7.28,7.28,0,0,1,2.37-1.37,30.2,30.2,0,0,1,14.6-2C79,50.37,76.16,49.17,73.82,50Z"/><path class="cls-19" d="M66.74,89.23s-4.3-.36-5.37-1.08-6.81-10-8.6-13.43S47.4,64,47.4,64l-1.26-3.4L44.53,55l-.18-5.38.18-2.14-3.76-3-1.61-1.79-.36-2.87-.36-2.68-2.33-3.76-.18-2L55.46,16v5.2l-.36,2.68L54.2,28l6.63,21.5,1.61,4.65L61.9,57.7,60.65,69.35,62.37,75Z"/><path class="cls-20" d="M54.34,28.81c-.8.3-1.46-.74-1.52-1.6s0-1.87-.63-2.4a2.17,2.17,0,0,0-2.22.1,9.73,9.73,0,0,0-4.47,4.6,3.25,3.25,0,0,1-.75,1.2c-.71.59-1.77.32-2.65,0a3.08,3.08,0,0,0-1.81,2.81c-.11,1.18.11,2.38-.09,3.55-.32,1.89-1.7,3.83-.82,5.54a9.14,9.14,0,0,0,.66,1l-.88-1-.36-2.87-.36-2.68-2.33-3.76-.18-2L40.6,27.7c.39-.16.77-.32,1.13-.51,2-1.05,3.48-2.86,5.12-4.42v0L50.6,19.8a26.18,26.18,0,0,1,4.86-2.48v.25a76.12,76.12,0,0,0-1,9.4l-.22,1,.16.5C54.35,28.58,54.34,28.7,54.34,28.81Z"/><path class="cls-15" d="M83.22,49.69a25.45,25.45,0,0,0-1.44-4.84c-.89-2-2.68-7.7-2.68-7.7l-.72-5.55s-7.52-4.66-10.74-5.19a57.32,57.32,0,0,0-7.71-.54L54.2,28l8.24,26.15c-.71-.75.36-2.08,1.23-2.63a4.37,4.37,0,0,1,3-.63C67.94,51.12,77.68,47.82,83.22,49.69Z"/><path class="cls-17" d="M55.46,18.89c-.08.24-.17.47-.26.69-1.84-.73-4,.06-5.52,1.29S47,23.74,45.49,25.08a10.56,10.56,0,0,0-.7,7.84,7,7,0,0,1-1.06-5.32,14.64,14.64,0,0,0-5.42,2.81l-1.67,1.2a3.38,3.38,0,0,0-.64.55l-.07-.74L55.09,16.31a2.19,2.19,0,0,1,.37.48Z"/><path class="cls-21" d="M61.37,88.15c-1-.69-6.39-9.35-8.39-13a46.26,46.26,0,0,0,4.59,6.57,16.15,16.15,0,0,0,7,4.86,2.36,2.36,0,0,1,.89.42,2.13,2.13,0,0,1,.43.63l.86,1.62C66.47,89.2,62.41,88.85,61.37,88.15Z"/><path class="cls-22" d="M63.41,52.65a1.22,1.22,0,0,1,1-1,9,9,0,0,1,1.48-.12,8.09,8.09,0,0,0,1.19-.24l4.8-1.2a18.86,18.86,0,0,0-7.81,1.13,1.56,1.56,0,0,0-.39.19A.92.92,0,0,0,63.41,52.65Z"/><path class="cls-21" d="M65,84.65A10.36,10.36,0,0,0,66,88a8.53,8.53,0,0,0-2.25-1.25l-3.15-1.36a3.2,3.2,0,0,1,1.79.62,1.36,1.36,0,0,0,.52.3c.4.09.76-.23,1-.53Z"/><path class="cls-18" d="M68.59,64.5a.72.72,0,0,1,.53.86,1.85,1.85,0,0,1-.61.93,6.57,6.57,0,0,1-3.14,1.88.88.88,0,0,1-.66,0c-.19-.12-.27-.44-.08-.57.4,0,.7-.38.84-.75a4.46,4.46,0,0,1,.45-1.1c.45-.58,1.29-.62,1.94-.95A1.35,1.35,0,0,1,68.59,64.5Z"/><path class="cls-18" d="M74.67,63.18a5.53,5.53,0,0,1-1.12,1.58,1.81,1.81,0,0,1-1.79.42,10.41,10.41,0,0,0,.75-3,3.47,3.47,0,0,0-.19-1.81c-.68-1.47-2.85-1.79-3.48-3.29a3.68,3.68,0,0,1,.36-2.88,7.67,7.67,0,0,1,3.11-3.85,9.7,9.7,0,0,1,3.38-.83,22.76,22.76,0,0,1,6.89-.11c-.52,1.08-1,2.16-1.55,3.24a15.88,15.88,0,0,1-1.41,2.56c-.51.7-1.11,1.31-1.62,2a17.65,17.65,0,0,0-1.23,2Z"/><path class="cls-23" d="M73.45,49.79a20,20,0,0,1,9.77-.1c-5.15-3.47-11.76-3.81-18-3.5,0-3.5-1.67-6.75-3.18-9.91s-2.9-6.64-2.22-10.08c.11-.57.38-1.23,1-1.32a20.78,20.78,0,0,1-6.34,2.74,41,41,0,0,0,2.16,8.83l5.28,16.22c1.52-1.15,3.57-1.24,5.46-1.53C69.43,50.82,71.42,50.21,73.45,49.79Z"/><polygon class="cls-24" points="54.2 28.02 55.1 23.9 55.28 20.5 55.46 18.7 55.46 16.02 67.28 20.14 74.62 23 78.02 25.33 79.64 26.76 79.46 29.99 78.38 31.6 67.64 26.41 59.93 25.87 54.2 28.02"/><path class="cls-25" d="M79.63,26.76,79.46,30l-.55.82a1,1,0,0,1-.16.06,4.81,4.81,0,0,1-.6-3.36,1.82,1.82,0,0,0,.06-.8,1.49,1.49,0,0,0-.62-.74A22.3,22.3,0,0,0,71,22.54,8,8,0,0,0,69.79,26c-.47-.69-.38-1.61-.68-2.38a3.86,3.86,0,0,0-3-2,21.26,21.26,0,0,1-3.65-.73c-1.82-.72-3.43-2.56-5.33-2.1a.78.78,0,0,0-.36.16,1,1,0,0,0-.22.69,23.31,23.31,0,0,1-1.9,7.78c.1-1,.19-1.93.26-2.89l.14-.61.18-3.4.18-1.8V16l11.82,4.12L74.62,23,78,25.33Z"/><path class="cls-20" d="M53.55,59.1c1.44-1.52,2.69-3.43,2.65-5.52a8.37,8.37,0,0,0-2.05-4.73,22.72,22.72,0,0,0-4-4,89.33,89.33,0,0,1,4.3-11.43q3.73,8.34,6.65,17a3.53,3.53,0,0,1,.27,1.66A3.37,3.37,0,0,1,61,53.16,14.12,14.12,0,0,1,53.55,59.1Z"/><path class="cls-23" d="M62.7,46a1.44,1.44,0,0,0,1.4,1.67l6.46,1.21a1.75,1.75,0,0,1,.25-1.32,23.16,23.16,0,0,1-5.09-4.18l-3.63-3.61C62.29,41.86,62.5,43.93,62.7,46Z"/><path class="cls-26" d="M69.39,50c2,.6,3.79-1.83,6.24-.64-3.43.62-6.85,1.44-10.29,2.06a4.91,4.91,0,0,0-3.17,1.44l-4.68-12A20.11,20.11,0,0,1,56,35.82c-.17-1.56,0-3.3-1-4.53a17.64,17.64,0,0,1,2.77,5.14c.46,1.34.76,2.74,1.32,4,1.65,3.88,5.33,6.43,8.83,8.77A5.53,5.53,0,0,0,69.39,50Z"/><path class="cls-23" d="M71.82,75.16c-1.6,2.73-1.51,6.17-2.85,9l-1.2-5.68a.72.72,0,0,1,0-.48A.8.8,0,0,1,68,77.8,15.43,15.43,0,0,1,71.82,75.16Z"/><path class="cls-27" d="M63.1,53.1A3.09,3.09,0,0,1,65,51.9a81.24,81.24,0,0,1,12.72-2.67c-3.17-.44-6.88,1.42-10.09,1.61a12.09,12.09,0,0,0-2.82.26A2.26,2.26,0,0,0,63.1,53.1Z"/><path class="cls-20" d="M56.77,61.17a21.22,21.22,0,0,0,4.35-4.06c.05,2.09.09,4.18.09,6.27a6.14,6.14,0,0,1-.5,2.92A7.12,7.12,0,0,1,58,68.65a5.89,5.89,0,0,0-2.54,2.69c-.08.25-.14.5-.23.75a1.28,1.28,0,0,1-.21.4,1.15,1.15,0,0,1-1.46.22,2,2,0,0,1-.77-2.17,6.65,6.65,0,0,1,1.14-2.17,8.9,8.9,0,0,0,1.86-4.67,3.28,3.28,0,0,1,.31-2A2.51,2.51,0,0,1,56.77,61.17Z"/><path class="cls-20" d="M48.89,61.9a3.24,3.24,0,0,1,1.28-2.13,22.27,22.27,0,0,1,2.14-1.37,12,12,0,0,0,4.21-4.55,2,2,0,0,1,.66-.87c.32-.18.83-.09.92.27a5.16,5.16,0,0,1-1.35,3.87,10.1,10.1,0,0,1-2.56,1.8Q51.55,60.42,48.89,61.9Z"/><path class="cls-28" d="M46,45.07a1.14,1.14,0,0,1-.34.59A3.12,3.12,0,0,0,46,45.07Z"/><path class="cls-28" d="M46.21,41.2a.56.56,0,0,0,.25.16.88.88,0,0,0-.22.1Z"/><path class="cls-28" d="M46,45.07a4.1,4.1,0,0,0-.18-1.75,1.88,1.88,0,0,1,.43-1.86A6.85,6.85,0,0,1,46,45.07Z"/><path class="cls-28" d="M48.56,37.43a1.42,1.42,0,0,1,.33-.11c0,.08-.06.15-.08.23A1.15,1.15,0,0,0,48.56,37.43Z"/><path class="cls-28" d="M47.88,38.19c-.19.71,0,1.47-.1,2.18s-.8,1.16-1.32,1a.53.53,0,0,1,.17,0c0-.25,0-.5,0-.75.43.06.71-.49.67-.92a7.48,7.48,0,0,1-.24-1.29,1.17,1.17,0,0,1,1.48-.93A1.27,1.27,0,0,0,47.88,38.19Z"/><path class="cls-28" d="M62.84,76.15c1.23,4.12,2.75,7.71,3,12Q62.94,78.56,60,69c0-.25-.08-.5-.13-.74-.2.16-.41.31-.62.45l-1.62,1a3.91,3.91,0,0,0-1.23,1,17.09,17.09,0,0,0-.71,1.71c-.27.56-.9,1-1.47.82a4.69,4.69,0,0,0,1.66-2.37,4.87,4.87,0,0,1,.33-1,3.33,3.33,0,0,1,1.28-1.13l2.64-1.63a5.41,5.41,0,0,0,.75-2.1c.37-3.24.85-6.71,1.21-9.94h0c0-.16-.26-.46-.26-.62.09-.38-.27-.29-.32-.66,0-.06,0-.12,0-.17a5.52,5.52,0,0,0-1.46,1.47c-.74,1.12-1.22,2.64-2.51,3a13.59,13.59,0,0,1-1.41.18,5.12,5.12,0,0,0-1.69.79,28.1,28.1,0,0,0-3.56,2.55c-1,.86-2.07,1.94-3.31,1.63l2.22-1.46,2.1-1.37,2.31-1.54,1.07-.71a15.9,15.9,0,0,0,3.61-3,11.58,11.58,0,0,1,1.56-1.85,2.6,2.6,0,0,1,1-.52,7.31,7.31,0,0,0-.43-1.7L56.9,39.42a46.6,46.6,0,0,1-2.44-8.71c-.07-.54-.13-1.09-.17-1.63a3.45,3.45,0,0,1-2.08,1.46,1.31,1.31,0,0,0-.65.27c-.26.29-.12.74,0,1.1.6,1.36,1.19,2.73,1.78,4.1A2.29,2.29,0,0,0,51,35.66a2.58,2.58,0,0,0-1.48,1.93.61.61,0,0,0-.62-.27,4.58,4.58,0,0,1,1.57-2.25c.47-.36,1-.66,1.22-1.21s-.4-1.31-.88-1l-.18-3.12a4.58,4.58,0,0,0,3.59-2.29,59.51,59.51,0,0,1,1.33-11.64c.78,3.56-.57,7.21-.73,10.85-.17,4.15,1.21,8.2,2.57,12.13l4.8,13.82L63.5,52C61.41,59.81,60.53,68.39,62.84,76.15Z"/><path class="cls-29" d="M35.94,31.42h0l.07.74h0l.1,1.19,2.33,3.76.36,2.68.36,2.87.88,1h0l.73.81,3.76,3-.18,2.14L44.53,55l1.61,5.55L47.4,64S51,71.32,52.77,74.72c.55,1,1.46,2.63,2.5,4.36l0,0,.26.43,0,.09.24.4.09.13c.07.12.14.24.22.36l.11.18.21.35.12.19.19.31c.05.08.1.15.14.23l.19.29c.05.08.1.16.14.24l.18.28.16.24.17.28.15.23c.06.09.11.18.17.26s.11.17.16.25l.15.24.17.25.14.22c.06.08.11.16.16.24L59,85l.15.23.14.21.15.22c0,.07.09.13.13.19l.15.22.12.17.14.2.11.16.13.18.11.15.12.16.1.13a1,1,0,0,0,.12.15l.08.11.11.13a.73.73,0,0,0,.08.09.36.36,0,0,0,.1.11l.06.07.09.1,0,0,.12.09a1,1,0,0,0,.23.13l.08,0,.22.09.11,0,.24.07.12,0,.27.08.12,0,.31.07.1,0,.35.07.09,0,.37.06.09,0,.37,0,.07,0,.37,0H65l.36,0h0l.33,0h0l.31,0h0l.27,0h0l.2,0h.19v0l1.07-.18,5.38-18.45v-5l10-15.94a25.45,25.45,0,0,0-1.44-4.84c-.89-2-2.68-7.7-2.68-7.7l-.72-5.55L79.46,30l.17-3.23L78,25.33,74.62,23l-7.34-2.86-11.7-4.08a1.57,1.57,0,0,0,0-.23c0,.06,0,.13,0,.2h0v0L35.93,31.38ZM63.3,52v0l-.52.26,0,0A3.72,3.72,0,0,1,63.3,52Zm17.82-2.74-.59,0h0l.07,0Zm1.51.27h-.09Z"/><g class="cls-30"><path class="cls-31" d="M86.09,50.71a9.91,9.91,0,0,0-2.24,2.54,57.26,57.26,0,0,0-3.15,6c.28-1.46.58-2.94.73-4.4.18-1.66-.8-2.87-1.67-4.2a20.69,20.69,0,0,0-3.12-3.86c-.56-.51-1.67-1.49-2.52-1a3.4,3.4,0,0,0-1.23,2.38c-.31,1.54-.49,3.1-.76,4.65-.25,1.38-.5,2.75-.7,4.14a84.34,84.34,0,0,1-.58-12.51c0-2.2,0-4.39.11-6.58,0-.5,0-1,0-1.52.34-.1.69-.21,1-.3a16.88,16.88,0,0,0,3.87-1.48c2,3.22,4,6.44,6,9.6a45.61,45.61,0,0,0,3.79,4.2,12,12,0,0,0,1.66,1.52A13.86,13.86,0,0,0,86.09,50.71Z"/></g><g class="cls-32"><path class="cls-31" d="M111.14,11.67c-1.46-.33-3.47-.55-4.81.26s-1.59,2.79-1.92,4.08a30.66,30.66,0,0,0-.86,5.3A2.93,2.93,0,0,0,102,18.86c-2-1.06-4.33-1.38-6.44-2.23-1.22-.49-2.56-1-3.7-.05S90,19.11,89.06,20.34a15.83,15.83,0,0,0,.47-1.86,11,11,0,0,0,.24-2.75c-.08-1.61-.18-4-1.31-5.3-1.43-1.61-3.14,1.66-3.54,2.69-1.16,3,.25,5.79,1.58,8.46-1.07-1.27-1.86-2.84-3.36-3.65-.48-.26-.56-.47-1-.09a2.11,2.11,0,0,0-.3.37c.08-1.08.17-2.17.25-3.26.14-1.9.59-4.31,0-6.18s-2.13-2-3.84-1.91c-2.72.19-5.4.78-8.11,1s-5.64-.1-8.16.86a5.07,5.07,0,0,0-2.94,3.77c-.54,2.06-.94,4.06-1.68,6.07S55.65,23,56.27,25.17A11.38,11.38,0,0,0,60,30.25a22.22,22.22,0,0,0,3,2.64c.5.36,1.19.79,1.87,1.26l-1.47-.73a16.22,16.22,0,0,0-4.1-1.67,4.14,4.14,0,0,0-3.41.74c-2.52,1.65-4.72,3.72-7.21,5.41-1.17.79-2.4,1.49-3.63,2.16a12.91,12.91,0,0,1-2.66,1.18c3.24-2.87,5.73-6.68,8.27-10.14a36.51,36.51,0,0,0,3.69-5.48c.4-.84,1.14-2.28.83-3.3a24.78,24.78,0,0,0,.38-6.21c0-.71-.13-4.54-1.75-3.78a4.29,4.29,0,0,0-1.66,2.19,26.29,26.29,0,0,1-1.92,3.54c-1,1.51-2.14,3-3.1,4.5-.34.55-.77,1.06-1.14,1.61a17.87,17.87,0,0,0-1.28-5.79c-1-2.34-2.22-4.57-3.28-6.88a24.12,24.12,0,0,0-1.72-3.21,4.69,4.69,0,0,0-1.56-1.66,4.14,4.14,0,0,0-3.51,0c-3,1.21-5.37,3.6-7.69,5.76C24.2,15,22.8,18.61,20.25,21.26l.45-1a21.55,21.55,0,0,0,1.78-4.7c.1-.5.62-2.69-.12-3-.29-.13-.6.06-.84.23a17.4,17.4,0,0,0-2,1.77c-1.25,1.28-2.33,2.7-3.51,4S13.49,21,12.33,22.25c-1.57,1.77-1.64,4.24-1.42,6.6-.6-2.43-.29-5-.36-7.52a8.83,8.83,0,0,0,2.27-1.78,35,35,0,0,0,3.79-4.37,12.65,12.65,0,0,0,2.54-4.57c.18-.82.21-1.68.42-2.49a2.21,2.21,0,0,0,.06-1.5A4.71,4.71,0,0,0,18.29,5a19.09,19.09,0,0,1,2.31.61C21,5.75,24,5.1,24.9,5c2.4-.22,4.79-.47,7.19-.7a60.67,60.67,0,0,1,11.81.53c2.06.21,9.42.84,10.68,1.77.47.35,7.13-1.34,10.24-1.21s21,.15,26.62,2.88c.26.12,8.93-1.55,13.15-.24,2.9.91,5.59,1.68,7.86,3.76,0,.12,0,.24,0,.36A6.18,6.18,0,0,0,111.14,11.67Z"/></g><g class="cls-30"><path class="cls-31" d="M10.25,21.05l-.18-.1a9.43,9.43,0,0,0,2.5-1.67A7.43,7.43,0,0,1,10.25,21.05Z"/></g><g class="cls-30"><path class="cls-31" d="M12.18,4.41A5.6,5.6,0,0,0,10,5.8c-1.35,1.27-2.59,2.66-3.9,4A4.93,4.93,0,0,0,7,6.51a.2.2,0,0,0-.22-.15C5.52,6.5,3.79,6.52,3,7.59a4.9,4.9,0,0,0-.45.76,6.14,6.14,0,0,1,1-3.13,30.25,30.25,0,0,1,8-1l.89.07Z"/></g><g class="cls-33"><path class="cls-34" d="M43.81,31.28a26.2,26.2,0,0,1-4.26,13.08,10.56,10.56,0,0,1-5.92,4.32,6.87,6.87,0,0,1-1.76.16l.79-.13a8.17,8.17,0,0,0,2.94-1.45c2-1.39,2.44-3.57,2.37-5.9A23.34,23.34,0,0,0,37,35c-.5-1.61-1.22-3.33-2.77-4.17a5.77,5.77,0,0,0-4.79-.21c-2,.87-2.55,3-3.13,4.93a30.6,30.6,0,0,0-1,4.72c-.13.87-.24,1.74-.43,2.59a4.63,4.63,0,0,1-.36,1.31l0,0a41.59,41.59,0,0,0,.43-6.39,38,38,0,0,0-.4-4.13,10.62,10.62,0,0,0-.89-3.39c-1.15-2.23-3.19-2.64-5.48-2a28.32,28.32,0,0,0-4.25,1.44,6.14,6.14,0,0,1,.87-.65A31.24,31.24,0,0,1,18.56,27c2.15-.92,4.5-1,5.7,1.29s1.15,5,1.19,7.37c0,.26,0,.53,0,.8.14-.94.3-1.88.46-2.82.28-1.61.39-3.59,1.57-4.85a6.15,6.15,0,0,1,1.9-1.19c1.25-.58,2.55-1.1,3.81-1.67a28.15,28.15,0,0,1,7.49-2.62,2.5,2.5,0,0,1,2.89,1.91,8.51,8.51,0,0,1,.29,2.61C43.88,29,43.9,30.11,43.81,31.28Z"/><g class="cls-30"><path class="cls-35" d="M104,38.11a1.74,1.74,0,0,0,0-.22c.15-.7-.88-1.08-1.22-1.48a20.11,20.11,0,0,1-1.86-3c-1-1.82-2.41-3.29-4.63-3.27s-4.27,1.34-6.11,2.3a40.33,40.33,0,0,0-5.05,2.84c-1.39,1-2.94,2.38-3.12,4.21-.22,2.22.88,4.35,2.16,6.09.74,1,1.48,2,2.15,3.07l.14.21A26.59,26.59,0,0,1,83,44.7c-1.22-1.72-2.9-3.79-2.43-6.06.88-4.18,5.7-6.39,8.59-9,2.13-1.92,4.11-4,6.36-5.77,1.39-1.11,4.26-3.62,6.21-2.52.95.53,1.13,2.09,1.25,3,.26,1.88.14,3.8.22,5.69a23.12,23.12,0,0,0,1.57,6.65c.08.23.16.44.24.66l.37-.28Z"/></g><g class="cls-30"><path class="cls-35" d="M63,65a42.47,42.47,0,0,1,1.55-4.35c.88-2.08,2-4.56,1.31-6.85a7.9,7.9,0,0,0-1.76-2.63c-.86-1-1.72-2-2.67-2.93-1.71-1.67-3.67-3.29-6.14-3.59s-5,.4-7.41,1a28,28,0,0,0-7.45,3.21c-1.15.67-2.31,1.3-3.46,2a8.25,8.25,0,0,0-2.31,1.75,4.33,4.33,0,0,0-.7,2,1.88,1.88,0,0,1-.12-.18,3.79,3.79,0,0,1,.05-1,4.67,4.67,0,0,1,1.25-2.17,18.13,18.13,0,0,1,5.13-3.38q4-2.09,7.86-4.3c1.25-.71,2.48-1.45,3.68-2.23a9.49,9.49,0,0,1,3-1.42c1.73-.41,3.24.53,4.52,1.57,1.75,1.41,3.4,3,5.11,4.42a13.41,13.41,0,0,1,3.63,4.27c.87,1.83.49,3.66-.2,5.47C66.65,58.94,64.61,61.88,63,65Z"/></g><g class="cls-30"><path class="cls-35" d="M77.22,33.6A12.43,12.43,0,0,1,72,36a20.41,20.41,0,0,1-3,.76c-.21,0-.43,0-.64,0a15.8,15.8,0,0,0,3.14-1.17c1.83-.88,4-1.95,5.15-3.69a7.75,7.75,0,0,0,1-5.1,14.57,14.57,0,0,0-1.59-6.33c-1-1.69-3-2.14-4.82-2-4.5.46-9.54,1.8-12.47,5.5A4,4,0,0,0,58,27.76l-.19-.32c-1-1.83-.41-2.32.67-4s3.39-3,5.19-4.14a37.49,37.49,0,0,1,7.07-3.42c1.75-.61,3.87-1.27,5.71-.73A4.22,4.22,0,0,1,79,18.34a26.3,26.3,0,0,1,.67,5.6C79.88,27.22,79.81,31.21,77.22,33.6Z"/></g><g class="cls-30"><path class="cls-35" d="M16.66,13.53a11.83,11.83,0,0,1-2.23,3.73c-.3.39-.63.78-1,1.16a18.41,18.41,0,0,0,1.12-2.37c.65-1.54,1.77-3.81-.07-5s-3.95-.48-5.79.25c-1.22.49-2.42,1.09-3.69,1.46a10.73,10.73,0,0,1-2.39.41c2.38-1,4.37-2.86,6.7-4A5.58,5.58,0,0,1,13,8.56c1.28.37,2,1.43,2.83,2.41A2.74,2.74,0,0,1,16.66,13.53Z"/></g></g><g class="cls-36"><path class="cls-37" d="M30.79,24.55c-.39.79-2.42,2.27-3.3,1.58a3.68,3.68,0,0,1-1.35-3c.3-4,6.17-1.69,4.65,1.42Z"/><path class="cls-37" d="M34.42,23c-.56,2.11-2.39.15-2.66-1-1.45-2.52,3.9-.58,2.66,1Z"/><path class="cls-37" d="M63.26,41.67c-1.63-.12-6.72-5-3.62-5.93a3.17,3.17,0,0,1,3.85,1.54c.34.71,1.31,4.5-.23,4.39Z"/><path class="cls-37" d="M66.69,45.76a3.39,3.39,0,0,1-2.14-1.92c-.34-.76.23-2.79,1.27-2.79,1.44,0,2.35,5,.87,4.71Z"/><path class="cls-37" d="M56.46,37c.21,1.89-2.84,1.65-2.21.09.42-1,2.79-1.53,2.21-.09C56.49,37.27,56.56,36.76,56.46,37Z"/><path class="cls-37" d="M51.48,27.9c-1.07,1.57-2.72-2.72-1.34-4.06.49-.47,2.54-1,2.68.09a5.9,5.9,0,0,1-1.34,4Z"/><path class="cls-37" d="M49.24,30.05c0,1.34-1.49,2.58-1.64.61-.14-1.74,1.62-2.76,1.64-.61Z"/><path class="cls-37" d="M64.3,16.38c-.26,1.67-2.22,2.48-3.71,2.6s-1.45-1.79-1.24-2.72c.27-1.24.91-3.07,2.36-3.31,1.78-.3,2.82,2,2.59,3.43Z"/><path class="cls-37" d="M67.8,14.5c-.54,2.29-2.57,1.39-2.78-.5-.24-2.26,3.18-1.19,2.78.5C67.62,15.27,68.07,13.36,67.8,14.5Z"/><path class="cls-37" d="M71.87,14.3c-.47.14-2.76,0-1.67-1,1.52-1.37,2.94.65,1.67,1Z"/><path class="cls-37" d="M84.84,24.09c-.21,2-2.23,2.5-2.43.15-.23-2.85,2.66-2.4,2.43-.15C84.76,24.82,84.87,23.78,84.84,24.09Z"/><path class="cls-37" d="M82.35,27.05c.69,1.21-1.31,1.74-1.13.6-.34-1.26.48-1.73,1.13-.6C82.51,27.33,82.34,27,82.35,27.05Z"/><path class="cls-37" d="M78.08,58.54c-1.43,1-2.91-6-.49-6.4C79,51.94,79.84,53.9,80,55a3.88,3.88,0,0,1-1.92,3.59Z"/><path class="cls-37" d="M81.5,51.46c.11,1.17-4.64.1-3.09-2.29,1.28-2,5.13.72,3.09,2.29C81.53,51.82,82.17,50.94,81.5,51.46Z"/><path class="cls-37" d="M79.24,47.41a1.51,1.51,0,0,1-1.32-2.56c1.55-1.77,3,2.35,1.32,2.56Z"/><path class="cls-37" d="M77.25,44.05c-.54-.3-1-2,0-2.11s.91,2.61,0,2.11Z"/><path class="cls-37" d="M74.9,65.5c-.7,1.74-2.72-.86-2.05-2.27,0-.64.87-2,1.39-.94.4.83,1,2.26.66,3.21C74.7,66,75.11,65,74.9,65.5Z"/><path class="cls-37" d="M74.31,60.38c-.56,1.08-2-.29-1.46-1.21.7-1.34,1.91.35,1.46,1.21C74.2,60.59,74.41,60.18,74.31,60.38Z"/><path class="cls-37" d="M24.25,21.58a2.2,2.2,0,0,1-.42,1.81c-.32.43-1.65.75-2,.16-.45-.82,2.06-2.88,2.39-2C24.43,22.08,24.15,21.31,24.25,21.58Z"/><path class="cls-37" d="M21.5,30.45c1-.72,1.83,1.08.75,1.22-.71.08-1.74-1.1-.75-1.22C21.64,30.35,21.32,30.47,21.5,30.45Z"/><path class="cls-37" d="M44.43,49.19c1,.49-2.5,3.55-3.47,2.29-.54-.71.29-1.83.84-2.25a2.51,2.51,0,0,1,2.63,0Z"/><path class="cls-37" d="M39.35,49.48C40,49.05,40.86,52.07,39,52c-1.52-.11-1.2-3.13.32-2.47C39.55,49.35,38.85,49.26,39.35,49.48Z"/><path class="cls-37" d="M37.77,52a1,1,0,0,1-1,1.55c-1.48-.32.38-2.44,1-1.55Z"/><path class="cls-37" d="M36.5,54.22c0,.4-.86,1.18-1.19.66s1.19-1.33,1.19-.66Z"/><path class="cls-37" d="M49.36,48.8c1.21-.15.37,1.81-.64,1.88-.35.21-1.41.14-1-.5.35-.48,1-1.3,1.61-1.38C49.71,48.76,49,48.85,49.36,48.8Z"/><path class="cls-37" d="M46.66,50.74c.79,0,.45,1.2-.23,1.21-1,0-.4-1.19.23-1.21Z"/><path class="cls-37" d="M14.79,23.59c-1.61-1.18-.2-3.1.94-4,.78-.62,2.62-2,2.7-.11.06,1.55-1.46,5.72-3.64,4.12Z"/><path class="cls-37" d="M20.16,17.74c-.15,1.6-1.88.79-2-.35a1.51,1.51,0,0,1,.91-1.48c1-.53,1.1,1.35,1.05,1.83C20.14,18.05,20.18,17.57,20.16,17.74Z"/><path class="cls-37" d="M41.8,17c-1.75.11-3.59-1.94-1.92-3.41,2.18-1.89,3.54,3.31,1.92,3.41Z"/><path class="cls-37" d="M41.42,11.29c0,1.32-2.53,1-2.21-.56a2.34,2.34,0,0,1,1-1.48c1.17-.82,1.16,1.6,1.16,2Z"/><path class="cls-37" d="M97.79,19.85c-.36,1.63-4.05,2.63-3.65.61A4.93,4.93,0,0,1,96,17.62c1.15-.89,2,1.45,1.79,2.23Z"/><path class="cls-37" d="M93,23.78c-.63-.08-1.32-.9-1-1.41,1.32-1.9,2.19,1.56,1,1.41Z"/><path class="cls-37" d="M107,22.65a1.13,1.13,0,0,1-2.16.27c-.72-1.23-1.23-2.21-.5-3.64.35-.7,1.77-2.24,2.37-.84a6.54,6.54,0,0,1,.29,4.21C106.76,23.54,107.36,21.34,107,22.65Z"/><path class="cls-37" d="M107.14,26.53c-.39,2-2,.46-2.32-.61-.41-1.4,2.71-1.35,2.32.61C107,27.08,107.21,26.15,107.14,26.53Z"/><path class="cls-37" d="M108.87,19.65c-.4,1.43-1.36-1.13-1.32-1.52.08-.78,1-.58,1.31-.09a2.09,2.09,0,0,1,0,1.61C108.76,20,109,19.35,108.87,19.65Z"/><path class="cls-37" d="M107.76,14.26c-1.77.12-3.1-3.08-.86-3.5,1.85-.35,2.91,3.35.86,3.5Z"/><path class="cls-37" d="M110.42,12.9c-.56.39-1.54-.68-1.14-1.23.62-.86,2,.68,1.14,1.23Z"/><path class="cls-37" d="M32.18,17.8c-.14,1.28-2.88.62-2.7-.9.1-.82.94-1.25,1.66-1.42.94-.21,1.1,1.8,1,2.32C32.15,18.14,32.25,17.22,32.18,17.8Z"/><path class="cls-37" d="M57.12,31.19c-.18.37-1.11,1.05-1.52.73A1.7,1.7,0,0,1,55,30.54c.14-1.86,2.84-.78,2.14.65Z"/><path class="cls-37" d="M58.66,34.33c-.26,1-1.1.07-1.23-.45-.66-1.16,1.8-.27,1.23.45Z"/><path class="cls-37" d="M66.63,32.73c-.49.73-1.25-1.25-.61-1.86.22-.22,1.16-.47,1.23,0a2.73,2.73,0,0,1-.62,1.83Z"/><path class="cls-37" d="M72.53,27.43c-.12.77-1,1.15-1.71,1.2s-.66-.82-.57-1.25.42-1.41,1.09-1.52,1.29.89,1.19,1.57S72.61,26.91,72.53,27.43Z"/><path class="cls-37" d="M62.18,27.74c-.8.05-1.65-.9-.88-1.57,1-.87,1.63,1.52.88,1.57Z"/><path class="cls-37" d="M62,25.1c0,.6-1.17.43-1-.26a1.13,1.13,0,0,1,.48-.69c.54-.37.54.74.54,1Z"/><path class="cls-37" d="M37.25,20.91c-.06.59-1.33.28-1.24-.41,0-.38.43-.58.76-.66s.51.83.48,1.07S37.28,20.64,37.25,20.91Z"/></g><path class="cls-38" d="M79.76,23.73c0,.1-.23-.79-.25-.9A26.82,26.82,0,0,0,78,18c-.75-1.89-3.53-1.41-5.13-1.06a41,41,0,0,0-11.59,4h0a20.54,20.54,0,0,1,6.22-3.47A30.68,30.68,0,0,1,74.42,15c1.24-.19,2.93,0,3.61,1.15C79.35,18.3,79.71,21.37,79.76,23.73Z"/><g class="cls-39"><path class="cls-40" d="M24.74,14.94a22.67,22.67,0,0,1,.45,3.49c.13,1.38.24,2.75.35,4.13.22,2.88.37,5.77.39,8.66a110,110,0,0,1-1,13.32l-.35-.28c.24-4.47.9-8.91.69-13.42C25.11,28.22,25,25.6,24.8,23c-.16-2.34-.51-4.71-.5-7.06-.66,1.3-1.54,2.54-2.28,3.77A43.43,43.43,0,0,1,16.11,27c-.9.94-1.85,1.86-2.82,2.73a7.74,7.74,0,0,1-1.61,1.17c0-.1-.11-.2-.15-.3a19.12,19.12,0,0,0,4.52-4.14,46.65,46.65,0,0,0,5.74-7.8c.69-1.15,1.44-2.29,2.05-3.48a16.7,16.7,0,0,0,1.28-4.1c.45-2.11,1.08-4.17,1.6-6.26l.36,0c-.39,2.36-1.09,4.68-1.57,7A21,21,0,0,1,24.74,14.94Z"/><path class="cls-40" d="M20.35,9.75A17.08,17.08,0,0,1,17.46,15c-1.8,2.33-4.12,5.05-7,6.21L10.11,21C13.05,19.72,15,17.19,17,14.62A22.57,22.57,0,0,0,18.66,12a2,2,0,0,1-.18-.43c-.3-.76-.56-1.53-.81-2.31a37.25,37.25,0,0,1-1.1-4.52l.28,0C17.22,6,17.57,7.23,18,8.44c.26.8.59,1.57.86,2.37,0,.12.13.28.2.45a14.59,14.59,0,0,0,.79-2,16.7,16.7,0,0,0,.6-3.72l.17,0h.12A12.19,12.19,0,0,1,20.35,9.75Z"/><path class="cls-40" d="M6.11,10c-.79,1.18-2.17,2.89-3.67,3.1l-.2-.37s0-.08,0-.12c1.78-.46,3.37-3,4.21-4.22.61-.85,1.15-1.75,1.69-2.65.29-.49.61-1,.92-1.44l.52,0c-.43.64-.86,1.27-1.25,1.93C7.6,7.48,6.92,8.78,6.11,10Z"/><path class="cls-40" d="M103.94,13.69c.14-1.91.23-3.81.45-5.69l-.2-.06L104,9.34a38.21,38.21,0,0,0-.66,4c-.1,1.36-.15,2.72-.17,4.09a24.83,24.83,0,0,0-2.49-1.33l-3.51-2a41.44,41.44,0,0,1-3.59-2.46,14,14,0,0,0-2.09-1.64c0-.55.06-1.09.06-1.64h-.06a5.25,5.25,0,0,0-.53-.24c-.06.74-.12,1.49-.22,2.23-.17,1.27-.51,2.5-.75,3.76-.49,2.5-.84,5.14-2,7.43-.17.33-.35.64-.54,1a10.89,10.89,0,0,0-1-1.24c-.61-.81-1.21-1.63-1.76-2.48s-.91-1.49-1.34-2.26c-.25-.44-.47-.94-.74-1.41.06-.84.08-1.67.07-2.52,0-1.37,0-2.75,0-4.12a19.29,19.29,0,0,1,.21-2L82,6.27a33.4,33.4,0,0,0-.14,4.88,50.34,50.34,0,0,1-.32,8c-.22,1.33-.57,2.62-.78,3.95s-.4,2.89-.7,4.31c-.36,1.74-.56,3.76-1.46,5.34a20.28,20.28,0,0,1-4,2.15,26.17,26.17,0,0,1-3.4,1l-1.92.45c-.79.18-1.16.33-1.86-.15l-.26-.19a17.23,17.23,0,0,0-1.8-1.46c-1.33-1.05-2.64-2.11-3.9-3.24-2.26-2-4.46-4.17-5.09-7.21-.11-.53-.19-1.06-.29-1.59s-.26-.85-.3-1.3a11.8,11.8,0,0,1,.1-1.46c0-.57,0-1.14,0-1.71,0-1.09,0-2.18,0-3.27-.05-2-.1-4.09-.29-6.13-.06-.69-.13-1.39-.24-2.08a1.9,1.9,0,0,1-.67,0c0,.18,0,.32,0,.4.07,1.11.22,2.21.35,3.32a54.39,54.39,0,0,1,0,9.55,15.94,15.94,0,0,1-.6,4.3,15.9,15.9,0,0,1-2.07,4c-.88,1.28-1.75,2.56-2.66,3.82-1.53,2.12-3.15,4.18-4.86,6.16.36-3.07.67-6.15,1.08-9.23a47.15,47.15,0,0,0,.54-4.76,24.46,24.46,0,0,0,1.9-3.55c.91-2,2.08-3.91,2.81-6,.63-1.77,1.41-3.48,2.06-5.24A12.82,12.82,0,0,0,54,6.5a.61.61,0,0,1,0-.14,3.62,3.62,0,0,0-.43-.14c-.56,3-2,5.74-3,8.59a57.6,57.6,0,0,1-2.5,5.56,15.61,15.61,0,0,1-1.62,2.73,20.56,20.56,0,0,0-.8-4.25c-.87-3.24-2.17-6.36-2.93-9.63-.34-1.45-.55-3-.88-4.58l-.51,0c0,.13.07.27.1.41.32,1.53.58,3.07,1,4.59.75,2.95,1.91,5.77,2.65,8.72,1.65,6.62-.46,13.42-.48,20.13-.36.42-.72.84-1.1,1.25a62.75,62.75,0,0,1-7,6.89,9.12,9.12,0,0,1-3.48,2,14.57,14.57,0,0,1-2,.31l.22.24A8.18,8.18,0,0,0,36,47.64a52,52,0,0,0,7.73-7.26,85.53,85.53,0,0,0,6.73-8.32c.94-1.34,1.9-2.69,2.78-4.08A11.76,11.76,0,0,0,55,24.62l.17-.47,0,0a.59.59,0,0,1,0,.08.34.34,0,0,0,.12.14c.35.22.67,1.63.87,2A10.2,10.2,0,0,0,57.3,28.2a26.23,26.23,0,0,0,3.39,3.52,42.92,42.92,0,0,0,4,3.18l.65.47c.61.52,1.26,1,1.87,1.5s.51.51,1.1.38c.76-.18,1.52-.34,2.29-.51l.34-.08a35.87,35.87,0,0,1-.18,4.75c-.1,1.56,0,3.14,0,4.71,0,2.57-.06,5.15.16,7.71v0l0,.23a14.64,14.64,0,0,1-1.33,2.1c-.75,1-1.62,1.92-2.35,2.93-1.4,1.91-2.41,4-3.86,5.91a91.82,91.82,0,0,1-7.29,9,1.51,1.51,0,0,1,.22.11l.62,0c3-2.58,5.18-6.08,7.32-9.3,1.62-2.44,2.88-5.07,4.78-7.33.65-.79,1.42-1.57,2-2.43.05.39.1.78.17,1.17.54,3.06.75,6.19,1.17,9.27.23,1.67.53,3.37.66,5.06l.11,0,.21-.26c-.14-1.51-.43-3-.63-4.49-.43-3.17-.81-6.4-.95-9.6-.16-3.62-.5-7.22-.6-10.84a34.07,34.07,0,0,1,.07-4.95,11.85,11.85,0,0,0,.06-3.85,21.26,21.26,0,0,0,3.66-1.14,5.85,5.85,0,0,0,.78-.41c1,1.3,1.64,2.75,2.51,4.11s1.94,3,2.92,4.53c1.56,2.38,3.44,4.86,6,6.31.16-.1.33-.2.51-.29a32.81,32.81,0,0,1-6.85-7.21c-1-1.58-1.85-3.3-2.75-4.95a15.61,15.61,0,0,0-1.4-2.72l.76-.62a.75.75,0,0,0,.41-.32,41.56,41.56,0,0,0,5.31-4.67A38.66,38.66,0,0,0,86,25.59c.81-1.16,1.73-2.29,2.42-3.52,1.26-2.21,1.65-4.85,2.13-7.32.26-1.33.63-2.65.81-4a12,12,0,0,0,2.36,1.7c1.13.74,2.38,1.29,3.56,1.95s2.58,1.34,3.81,2.1c.61.37,1.31,1.19,2,1.35,0,1.63,0,3.26.14,4.88.19,2.89.32,5.78.64,8.65a38.17,38.17,0,0,0,.66,4.13c.13.59.27,1.22.45,1.83l.32-.25a.27.27,0,0,0,.07-.08,18,18,0,0,1-.65-2.53,36,36,0,0,1-.43-4.15q-.19-4-.41-8A71.49,71.49,0,0,1,103.94,13.69ZM87,23c-.57.86-1.18,1.68-1.73,2.54a27,27,0,0,1-3,4.11,23.74,23.74,0,0,1-3.17,2.77,16.2,16.2,0,0,0,1.06-4c.3-1.38.49-2.77.75-4.15.23-1.2.57-2.37.83-3.56a39.62,39.62,0,0,0,.69-4.32,15.46,15.46,0,0,0,1.31,2.12c.58.83,1.2,1.64,1.82,2.44S86.49,22.36,87,23Z"/></g><path class="cls-41" d="M112.49,12.17h0c0-.12,0-.24,0-.36-2.27-2.08-5-2.85-7.86-3.76l-.2-.05-.2-.06L104,7.89l-.39-.08-.49-.08-.42-.05-.53,0-.44,0-.56,0-.45,0h-1l-.65,0-.39,0-.78,0h-.25l-1,.08-.32,0-.65.07-.38,0-.53,0-.36,0L93.82,8l-.3,0L93,8.12h0l-.76.1-.2,0-.22,0h-.39a5.25,5.25,0,0,0-.53-.24h0l-.72-.27-.18,0c-.19-.07-.4-.13-.61-.19l-.27-.07-.6-.15-.3-.07c-.22-.06-.44-.1-.68-.15L87.28,7l-1-.18h0l-1.06-.17-.29,0-.79-.12-.39,0L83,6.39l-.22,0-.24,0-.39,0-.22,0-.21,0-.91-.09-.34,0c-.81-.08-1.64-.14-2.46-.2l-.37,0-.88-.05-.4,0-.9-.05-.31,0L74,5.69h-.32l-.84,0h-.4l-.74,0-.38,0-.85,0-.37,0-.76,0H67.6l-1.69,0H64l-.45,0-.24,0-.46,0-.25,0a4.6,4.6,0,0,0-.52.06l-.21,0-1.56.22-.09,0L59.54,6h-.08l-3.18.54-.21,0-.28,0-.22,0-.22,0h-.14l-.29,0h-.09l-.18,0-.07,0a1.74,1.74,0,0,0-.28-.16l-.12,0-.13,0-.11,0-.22-.07-.1,0-.18,0-.23-.07L52.86,6l-.25,0-.55-.11-.35-.07-.44-.07-.35-.06-.4-.06-.38,0-.39-.06-.39,0L49,5.39l-.4,0-.41,0-.36,0-.7-.08-.43,0-.29,0-.4,0-.29,0-.36,0-.24,0L43.9,4.85,41.52,4.6h-.18l-2.16-.19-.32,0-2-.12h-.24q-1,0-2,0h-.46c-.69,0-1.39,0-2.07.11-2.4.23-4.79.48-7.19.7l-.37,0h0L24,5.14l-.1,0-.45.08a26.21,26.21,0,0,1-2.77.4H20.6c-.37-.12-.75-.23-1.13-.33l-.1,0-.67-.15h0L18.29,5h0c-.52-.1-1-.18-1.56-.26l-.16,0h0c-1.69-.24-3.4-.35-5-.48-.27,0-.57,0-.88,0h-.09A20.28,20.28,0,0,0,8,4.43l-.27,0-1,.14-.38.07-1,.17L5,4.92l-1.46.3a3.17,3.17,0,0,0-.21.27v0a.56.56,0,0,0,0,.08h0l-.12.22a.08.08,0,0,0,0,0,1.17,1.17,0,0,0,0,.11h0A1.8,1.8,0,0,0,3,6.2s0,.06,0,.1l0,.11-.06.21-.05.15s0,.06,0,.1a1.16,1.16,0,0,0,0,.18,2.25,2.25,0,0,0-.05.22s0,.06,0,.08a.77.77,0,0,0,0,.15l-.06.31s0,.07,0,.1-.05.31-.07.47v.06L2.45,9V9c-.13,1.44-.14,2.89-.2,3.65,0,0,0,.08,0,.12l.2.37,0,0,0,0h0c.08.14.15.28.24.41a19.32,19.32,0,0,0,2.5,3.65c.28.28.55.53.81.77l.23.21.57.5.17.14.63.51.19.14.41.3.19.14.45.3.15.09.3.19.16.09.23.13.2.11.15.08,0,0,.21.12,0,0a.52.52,0,0,1,.11.07l0,0s.06.06.06.09c0,.36,0,.72,0,1.08,0,.14,0,.28,0,.42,0,.34,0,.68,0,1,0,.17,0,.33,0,.49v.64c0,.16,0,.32,0,.47s0,.4,0,.59l0,.52c0,.29,0,.59.08.88s0,.4.08.6.06.32.09.48.05.26.08.38,0,0,0-.07a8.61,8.61,0,0,0,.49,1.54c0,.1.09.2.14.3s0,0,0,.05l.09.18a.25.25,0,0,1,0,.07l0,.06v0l.09.16,0,0h0l.1.14c.09.15.18.3.29.46s.17.25.27.38.28.39.44.6l.43.54q.26.33.54.66l.4.47c.17.19.34.39.52.58s.27.31.42.47l.74.81.53.55.71.73.49.49.65.65.48.46,1,.94.48.44.74.68.5.45.65.58.48.42,1,.85c.14.12.28.22.41.34l.35.28h0l0,0h0l.07,0,.35.28h0l.11.09.84.65.29.21.61.43.25.17c.26.17.5.33.72.45A12,12,0,0,1,31,48.85c.13.15.29.31.45.48l.07.07.18.2.09.1.15.17L32,50a1.83,1.83,0,0,1,.13.16l.08.12a1.62,1.62,0,0,1,.1.18.75.75,0,0,1,.07.12,1.46,1.46,0,0,1,.07.19s0,.07,0,.11a1.57,1.57,0,0,1,.05.3,3.26,3.26,0,0,0,.09.68l0,.12a6.35,6.35,0,0,0,.23.7l0,.08a10.28,10.28,0,0,0,.88,1.6h0c1.08,1.65,2.61,3.36,3.7,4.82a54,54,0,0,0,6.28,6.73,39.22,39.22,0,0,0,7,5.06c.7,1.4,1.39,2.75,1.92,3.76l.23.42,0,0a.64.64,0,0,1,.08.14l.15.27.11.2.17.3c.09.15.17.31.27.47l.1.18.14.24.29.5.18.31.12.21.28.47.28.47.05.08a.75.75,0,0,0,.07.12l0,0v0l.09.15.16.26,0,0,0,.05.23.4.09.13,0,0,.09.16.11.17.05.09,0,.07v0l.21.35.12.19,0,.06.08.11.08.14.06.09.06.11,0,0,.19.29c.05.08.1.16.14.24l0,0,.08.13.06.1.05.07.08.13,0,0,.17.28.15.23,0,.07.08.12.05.07,0,.07.08.12,0,.06.15.24.17.25,0,.06.07.11,0,0,0,0,.08.13,0,.06L59,85l.15.23,0,.07.06.1,0,0,0,0,.08.11.05.08c0,.07.09.13.13.19l.15.22,0,.07.05.08,0,0v0l.07.09.06.09.11.16.13.18.06.07,0,.07h0l0,.06.06.09.1.13a1,1,0,0,0,.12.15l.05.07,0,0h0l0,0,.07.09a.73.73,0,0,0,.08.09.36.36,0,0,0,.1.11l0,.06h0l.08.08,0,0,.12.09a1,1,0,0,0,.23.13h0l.08,0h0l.21.09.11,0,.24.07.11,0,.28.08h0l.11,0,.31.07.11,0,.34.06.09,0,.37.06h0l.09,0,.37,0h.08l.37,0h0l.4,0h.05l.34,0h0l.33,0h0l.49,0h.18v0l1.07-.18,5.38-18.45v-.07h0l.37-.45.32-.39.08-.08.75-.86.11-.13.45-.55a60.82,60.82,0,0,0,5.3-8.75.8.8,0,0,0,.08-.16h0c.11-.21.21-.42.31-.63.36-.72.72-1.45,1.07-2.18a.61.61,0,0,0,.07-.14c.19-.38.39-.75.59-1.12.07-.14.14-.28.22-.42.28-.5.57-1,.89-1.46a9.91,9.91,0,0,1,2.24-2.54,13.86,13.86,0,0,1,1.31-.84h0l.69-.39,1.18-.63c.48-.26.95-.52,1.4-.8,4.23-2.66,7.94-6,12-8.94.42-.29.83-.6,1.24-.91l1.42-1.09.06-.08.09-.11a2.59,2.59,0,0,0,.21-.3,1,1,0,0,0,.11-.17,3.68,3.68,0,0,0,.25-.41l.11-.19.28-.52.1-.2c.1-.2.2-.4.3-.62l.1-.21.32-.72.09-.19c.11-.26.23-.52.34-.8l.09-.22c.12-.27.23-.54.35-.83,0-.06,0-.13.08-.2.12-.29.23-.58.35-.88l.08-.2.35-.9a2,2,0,0,1,.08-.22l.33-.87.11-.32c.1-.26.19-.51.28-.76s.08-.21.11-.31c.09-.25.18-.49.26-.73l.15-.44c.07-.17.13-.36.19-.53s.12-.34.17-.51.09-.27.14-.4.14-.45.21-.66c0,0,0-.1,0-.14.08-.25.15-.49.22-.69a28.93,28.93,0,0,0,1.25-10.07C112.54,12.52,112.51,12.35,112.49,12.17Z"/></g></g></svg>