<svg id="Layer_1" data-name="Layer 1" xmlns="http://www.w3.org/2000/svg" viewBox="0 0 129.77 115.76"><defs><style>.cls-1{fill:red;}</style></defs><path class="cls-1" d="M122.9,44.72h0c-.08-.24-.17-.49-.26-.72a12,12,0,0,0-1.15-2.17,8,8,0,0,0-.5-.69,12.23,12.23,0,0,0-1.19-1.32c-.18-.17-.38-.36-.56-.51a14.82,14.82,0,0,0-1.54-1.12c-.2-.13-.42-.26-.64-.38s-.6-.32-.89-.46l-.58-.26c-.36-.16-.76-.32-1.13-.45l-.71-.24-.56-.18-.64-.17-.32-.09c-.48-.12-1-.24-1.5-.34l-.27-.06a120.89,120.89,0,0,0-15.1-1.48c-2.67-.16-6.32-.38-8.72-.66-1-2.15-2.2-5.48-3.11-7.91C78.75,12.77,75,2.71,65.27,2.61h-.12c-9.62,0-13.59,9.94-18.61,22.52-1,2.41-2.28,5.72-3.28,7.85-2.41.24-6.07.38-8.74.48C20.77,34,9.9,34.4,6.77,43.55s5.29,16.11,16,24.76c2,1.63,4.76,3.85,6.53,5.45-.52,2.29-1.48,5.63-2.18,8.07-.48,1.65-1,3.32-1.41,5,0,.15-.09.31-.13.47-1.63,6-2.32,9.89-2.3,13.07,0,.54,0,1,.08,1.61l0,.14a13.94,13.94,0,0,0,.22,1.49c0,.13.07.34.1.47a14.11,14.11,0,0,0,.5,1.65l.2.5a11.66,11.66,0,0,0,1,1.94,5.72,5.72,0,0,0,.39.57,11.48,11.48,0,0,0,2.46,2.46,12,12,0,0,0,7.13,2.25c5.77,0,11.87-3.65,21.35-9.6,2.27-1.43,5.38-3.38,7.48-4.53,2.08,1.19,5.15,3.2,7.38,4.67,9.2,6,15.13,9.76,20.79,10h.64a12,12,0,0,0,6.89-2.1c8.06-5.63,5.29-16.07,1.79-29.29-.65-2.46-1.54-5.81-2-8.11,1.81-1.57,4.6-3.73,6.66-5.32,2.54-2,5.18-4,7.53-6,4.59-3.9,9.5-8.59,9.53-14.88A11.5,11.5,0,0,0,122.9,44.72ZM107.44,55.53C100.72,61.24,90.6,68,89.57,71c-1.6,4.69,8.77,29.79,4.67,32.66a2.2,2.2,0,0,1-1.36.3C86.8,103.7,69,88.67,64.37,88.63c-5-.06-26.13,17.39-30.18,14.45a2.13,2.13,0,0,1-.33-.34l0,0a2.37,2.37,0,0,1-.22-.42l0-.09a2.76,2.76,0,0,1-.15-.46s0-.07,0-.11a4.85,4.85,0,0,1-.09-.57.28.28,0,0,0,0-.09q0-.33,0-.72h0c0-2.52.85-6.31,2-10.37h0c2.13-7.86,5.13-16.73,4.29-19.35-1.5-4.72-24.91-19-23.31-23.73s29.07-2.2,33.17-5.07S60.13,12.56,65.17,12.61,76.28,39.09,80.32,42c3.08,2.25,19.74,1.67,28.19,3.34l.2,0,1.05.24.19.05.42.12.33.1.36.12c.19.07.38.14.55.22l.23.11.34.17.19.12a3.27,3.27,0,0,1,.41.28l.08.08.25.27.08.11a1.66,1.66,0,0,1,.18.35v0a1.78,1.78,0,0,1,.07.47C113.44,50,110.88,52.61,107.44,55.53Z"/></svg>