<svg id="Layer_1" data-name="Layer 1" xmlns="http://www.w3.org/2000/svg" viewBox="0 0 130.59 118.35"><defs><style>.cls-1{fill:#0dff00;}</style></defs><path class="cls-1" d="M121.34,44.94h0c-.08-.25-.17-.49-.27-.73A12.27,12.27,0,0,0,119.93,42c-.16-.23-.32-.46-.5-.69A13.16,13.16,0,0,0,118.24,40c-.18-.18-.38-.36-.56-.51a12.38,12.38,0,0,0-1.54-1.12L115.5,38c-.29-.16-.6-.33-.9-.46L114,37.3c-.37-.16-.76-.31-1.13-.45l-.72-.24-.56-.17-.63-.18-.32-.08c-.48-.12-1-.24-1.51-.35l-.27,0A118.77,118.77,0,0,0,93.8,34.29c-2.67-.16-6.32-.37-8.72-.65-1-2.16-2.2-5.48-3.11-7.91C77.19,13,73.41,2.92,63.7,2.82h-.11C54,2.82,50,12.76,45,25.35c-1,2.41-2.28,5.71-3.28,7.85-2.4.23-6.06.37-8.73.47-13.76.53-24.62.95-27.75,10.09s5.29,16.12,16,24.77c2,1.63,4.77,3.85,6.54,5.44-.52,2.3-1.48,5.63-2.19,8.08-.47,1.65-.95,3.32-1.4,5-.05.15-.09.3-.14.46-1.62,6-2.31,9.9-2.29,13.08,0,.53,0,1,.08,1.61v.14c.06.53.14,1.06.23,1.49,0,.13.07.33.1.46a13.73,13.73,0,0,0,.5,1.66c.06.17.13.35.2.5a12.45,12.45,0,0,0,1,1.94l.39.56a11.52,11.52,0,0,0,2.47,2.46,12,12,0,0,0,7.13,2.26c5.76,0,11.87-3.65,21.35-9.61,2.26-1.42,5.37-3.37,7.48-4.53,2.08,1.2,5.14,3.21,7.37,4.67,9.21,6,15.14,9.76,20.8,10h.63a11.94,11.94,0,0,0,6.9-2.1c8-5.62,5.29-16.06,1.79-29.28-.66-2.46-1.55-5.82-2-8.12,1.8-1.56,4.6-3.73,6.65-5.32,2.55-2,5.18-4,7.53-6,4.6-3.91,9.51-8.6,9.53-14.89A11.43,11.43,0,0,0,121.34,44.94Zm-15.46,10.8C99.15,61.46,89,68.23,88,71.24c-1.61,4.69,8.77,29.79,4.66,32.65a2.11,2.11,0,0,1-1.35.3c-6.08-.27-23.89-15.3-28.51-15.35-5,0-26.14,17.4-30.18,14.45a1.78,1.78,0,0,1-.33-.34l0,0a2.27,2.27,0,0,1-.22-.41.36.36,0,0,1,0-.09,4.41,4.41,0,0,1-.14-.47.36.36,0,0,1,0-.11,4.37,4.37,0,0,1-.09-.56s0-.06,0-.09q0-.34,0-.72v0c0-2.52.84-6.3,1.94-10.36h0c2.13-7.86,5.13-16.73,4.29-19.36C36.47,66,13.06,51.69,14.67,47s29.06-2.2,33.17-5.06S58.57,12.77,63.6,12.82,74.71,39.3,78.76,42.25c3.07,2.24,19.74,1.66,28.19,3.34l.2,0c.36.07.71.15,1,.24l.19,0,.43.12.33.11.36.12.55.21.23.11.33.18.2.11a2.58,2.58,0,0,1,.4.29.34.34,0,0,1,.09.08,2,2,0,0,1,.24.26l.09.12a1.42,1.42,0,0,1,.17.35h0a1.49,1.49,0,0,1,.07.47C111.88,50.18,109.32,52.83,105.88,55.74Z"/></svg>