<svg id="Layer_1" data-name="Layer 1" xmlns="http://www.w3.org/2000/svg" viewBox="0 0 137.88 92.94"><defs><style>.cls-1{fill:red;}</style></defs><path class="cls-1" d="M135.17,19c0-.31-.06-.61-.1-1s-.06-.56-.11-.84a10,10,0,0,0-3.12-5.77C128,8,123.9,6.69,120.58,5.66l-.37-.11-.46-.14-.41-.11a7,7,0,0,0-.69-.15L118,5l-.85-.13-.12,0-.63-.08-.81-.08-.7,0-.78,0-.61,0h-1.42l-1.33,0-1.26.07-1.11.08-1.21.12-1.87.21-.61-.18-.34-.09-.84-.21-.42-.1-.9-.2-.33-.07-1.2-.22h-.06l-1.29-.21-1.25-.18-1.51-.18L94,3.21,91.33,3,90,2.9l-1.39-.08L86.05,2.7l-2.84-.11-5.37-.14H76.68l-.34,0c-.24,0-.49,0-.72,0l-1.05.08-.33,0-1,.11L71.37,3l-.76.13-2.16.37-.63-.16-.5-.11-.74-.15-1-.18L64.3,2.7,62,2.4l-1.75-.19-5.33-.54c-.77-.08-1.53-.15-2.33-.21l-.35,0c-.75-.06-1.51-.11-2.26-.14l-.32,0c-.65,0-1.31,0-2,0H46.56c-1.06,0-1.94.08-2.78.16l-3,.28-4.18.41c-.23,0-.54,0-.88.1l-.2,0-.6.1.07.43-.13,0-.07-.38L34,2.5l-.48-.11-.67-.15c-.67-.13-1.35-.24-2-.34l-.35,0c-1.77-.24-3.49-.37-5-.48l-.46,0c-.51,0-1.08-.06-1.67-.06h-.16a32.91,32.91,0,0,0-3.78.27L19,1.59l-1.16.18-.46.07c-.39.06-.79.14-1.22.22l-.45.08L14,2.49a10.06,10.06,0,0,0-5.21,3A12.81,12.81,0,0,0,7.62,7l-.15.23c-.12.2-.25.41-.36.63s-.19.35-.28.54a4.81,4.81,0,0,0-.22.46,4.68,4.68,0,0,0-.19.45c-.06.14-.11.28-.17.43l-.14.39L6,10.5c0,.15-.18.62-.2.71s-.12.45-.12.45-.12.55-.14.66l0,.25,0,.23c0,.16-.1.6-.11.67,0,.24-.07.49-.11.84s-.06.49-.09.79C5,16.26,5,17.35,5,18.15q0,.45,0,.75h0v0A10,10,0,0,0,6.06,24.5l.38.68c.14.24.28.49.42.72s.24.39.36.6a23.25,23.25,0,0,0,3.67,4.95c.37.36.71.69,1,1l.35.32.81.7.14.12c0,.18,0,.37,0,.6,0,.47.07,1,.13,1.5,0,.32.08.64.14,1s.1.55.15.81.1.53.17.8.1.4.16.6a19,19,0,0,0,.82,2.38c.11.26.23.53.36.8l.39.75.3.52,0,0,.26.41.47.73L17,45c.19.27.4.56.64.87l.6.76c.21.26.43.53.67.81l.39.45.71.81.48.54.85.92.63.65.77.8.44.44,1.36,1.34c.35.34.7.68,1.05,1l.43.4,1,.89.54.48,1.25,1.11,1.13,1,1.56,1.27c.36.29.71.55,1,.78l.39.29c.3.22.59.43.93.66l.29.2c.47.31.91.59,1.32.82l.55.31c.11.33.23.66.38,1,0,.06.06.15.09.22A20.24,20.24,0,0,0,38,66.67l.2.32c.93,1.4,2,2.67,2.86,3.79.4.49.78,1,1.12,1.42a64,64,0,0,0,7.38,8,55.54,55.54,0,0,0,10.7,7.52l1.23.72c1,.6,2,1.12,2.81,1.55l.17.09a10.07,10.07,0,0,0,4.06,1.1c.68,0,1.36.06,2,.06l1.2,0h.15c.91,0,1.73-.09,2.5-.19a49.25,49.25,0,0,0,8.75-2l.31-.09c1.65-.5,3.41-1.06,5.46-1.74l.11,0a10.22,10.22,0,0,0,4.69-3.29l.16-.19,1.25-1.45c.26-.31.51-.62.76-.94A70.14,70.14,0,0,0,102.14,71s.3-.58.4-.79l1.21-2.47.46-.86.16-.31c.16-.28.3-.51.43-.71l.15-.23.56-.31,1.16-.62c.61-.33,1.28-.7,2-1.15a91.14,91.14,0,0,0,8.08-5.89c1.52-1.21,3-2.34,4.4-3.37.49-.35,1-.72,1.47-1.09s1-.77,1.51-1.16A9.11,9.11,0,0,0,125.28,51c.14-.14.28-.3.42-.47l.37-.47c.18-.23.36-.48.56-.77l.26-.4c.16-.26.33-.52.48-.79l.18-.32.45-.85.12-.24c.14-.27.27-.55.4-.81l.13-.28.37-.83s.4-.89.54-1.24l.49-1.16s.34-.85.45-1.15l.49-1.25.59-1.57h0l.28-.78.75-2.13.56-1.67s.26-.81.33-1.06A38.65,38.65,0,0,0,135.17,19ZM122.05,35.29c-.1.28-.21.56-.32.84l-.09.26-.36.93c0,.06,0,.11-.07.16-.12.32-.24.62-.37.93l-.06.16-.36.86a1.54,1.54,0,0,1-.08.19c-.11.27-.23.54-.34.8l-.09.19-.32.72c0,.07-.07.14-.1.2-.1.23-.21.43-.31.63l-.09.2c-.1.19-.19.36-.29.52a1.14,1.14,0,0,1-.1.19c-.09.15-.17.29-.25.41l-.1.17c-.08.12-.15.21-.22.3l-.09.11-.07.08-1.41,1.08c-.41.32-.82.62-1.24.92-4,2.89-7.76,6.28-12,8.94-.45.28-.92.54-1.4.8l-1.18.63-.69.39h0a13.86,13.86,0,0,0-1.31.84,10,10,0,0,0-2.24,2.53c-.32.48-.61,1-.89,1.47l-.23.43c-.19.37-.39.73-.57,1.11l-.11.21c-.34.7-.68,1.4-1,2.1l-.32.64h0a1.19,1.19,0,0,1-.08.16A60.18,60.18,0,0,1,88,75.13l-.45.56-.11.12-.77.88,0,.07-.33.39c-.13.15-.25.29-.37.45l-.19.06h0c-1.69.56-3.39,1.11-5.1,1.62a42.67,42.67,0,0,1-7.36,1.78c-.57.07-1.14.11-1.7.13h-.16c-.78,0-1.55,0-2.32,0l-.22-.12c-.77-.4-1.53-.81-2.26-1.24-3.47-2-7.2-4.09-10.12-6.87a55.45,55.45,0,0,1-6.28-6.73c-1.09-1.46-2.62-3.18-3.7-4.82h0a10.2,10.2,0,0,1-.88-1.59l0-.08a7.13,7.13,0,0,1-.23-.7l0-.13a3.17,3.17,0,0,1-.09-.67,1.57,1.57,0,0,0-.05-.3.36.36,0,0,0,0-.11,1.07,1.07,0,0,0-.07-.19.54.54,0,0,0-.07-.13l-.1-.17-.08-.12L44.66,57l-.09-.11-.15-.17-.09-.11-.19-.19-.06-.07c-.16-.17-.32-.33-.45-.48a12,12,0,0,0-3.27-2.3c-.22-.13-.47-.28-.72-.45L39.39,53l-.61-.44-.29-.2-.84-.65-.11-.09h0l-.35-.28-.07,0h0l0,0h0l-.34-.28-.42-.34-1-.85-.47-.42-.66-.58-.5-.45L33,47.62l-.51-.47-1-.92L31,45.77l-.65-.65-.49-.49c-.24-.24-.47-.48-.7-.73l-.55-.56-.73-.8-.43-.47L27,41.49l-.4-.47c-.19-.22-.36-.44-.53-.65l-.45-.56c-.15-.2-.3-.4-.43-.59s-.18-.26-.27-.38-.2-.31-.29-.46l-.1-.15h0l0,0-.09-.15v0l0-.06a.25.25,0,0,0,0-.07l-.09-.18s0,0,0-.05l-.14-.3a9.5,9.5,0,0,1-.49-1.54s0,0,0,.07-.05-.25-.08-.38-.07-.32-.09-.48a6,6,0,0,1-.08-.61c0-.29-.06-.58-.08-.87l0-.52c0-.19,0-.39,0-.59s0-.31,0-.47v-.65c0-.15,0-.31,0-.47,0-.34,0-.68,0-1,0-.14,0-.28,0-.42,0-.36,0-.72,0-1.08,0,0,0-.06-.06-.09l0,0L23,28.14l0,0-.2-.11h0l0,0-.17-.09-.18-.1-.24-.13L22,27.58l-.31-.19-.12-.08c-.15-.1-.31-.2-.47-.32l-.19-.13-.41-.3-.18-.14-.64-.51-.17-.15-.57-.5-.23-.2c-.26-.24-.53-.49-.81-.77a19.32,19.32,0,0,1-2.5-3.65c-.09-.13-.16-.27-.24-.41h0l0-.05,0,0-.2-.37s0-.08,0-.12c.06-.76.07-2.2.2-3.64v0l.06-.51v-.07c0-.15,0-.31.07-.46s0-.07,0-.1l.06-.31a.77.77,0,0,1,0-.15s0-.05,0-.08a2.25,2.25,0,0,1,.05-.22,1.62,1.62,0,0,1,0-.19s0-.06,0-.1l.05-.14c0-.08,0-.14.06-.21l0-.11a1,1,0,0,1,0-.1A1.8,1.8,0,0,1,15.7,13h0a1.17,1.17,0,0,1,.05-.11.14.14,0,0,1,0-.06l.12-.21h0l0-.09v0l.21-.27L17.62,12l.39-.07,1-.18.38-.06.95-.14.27,0a22.45,22.45,0,0,1,2.62-.2h.09c.31,0,.61,0,.88,0,1.62.12,3.33.24,5,.48h0l.16,0c.53.07,1.05.16,1.56.26h0l.37.08h0l.67.16.1,0c.38.1.76.21,1.13.34h.12a24.33,24.33,0,0,0,2.77-.41l.45-.07.1,0,.46-.07h0l.37,0c2.4-.22,4.79-.47,7.19-.7.68-.06,1.38-.09,2.07-.11h.46c.68,0,1.36,0,2,0h.26c.65,0,1.29.07,1.94.12l.34,0c.72.05,1.43.12,2.15.19h0l.23,0,2.32.24,1.28.12h.09l.46.05.2,0,.47,0,.21,0,1.6.17.35.05.41,0,.38.05.41,0,.37.05.4.06.37.06.38.06.41.07.41.07.51.1.26.06.34.08.24.07.17,0,.1,0,.22.07.11,0,.12.06.13.05a1.21,1.21,0,0,1,.28.16l.07,0,.18,0h.09l.29,0H68l.22,0,.23,0,.27,0,.21,0c.87-.13,2-.33,3.16-.53l.11,0,.7-.11.1,0c.53-.08,1.06-.16,1.57-.22l.18,0,.55-.07.24,0,.46,0,.24,0,.45,0h2.47l.74,0h.21l.62,0H81l.59,0H82l.91,0H83l1,0,.33,0,.76,0,.42,0,.82,0h.33l1.17.06.27,0,.94,0,.39,0,.89.06.35,0c.83.06,1.65.12,2.47.2l.35,0,.89.09.22,0,.22,0,.39.05.24,0,.22,0,.74.09.39.05.78.11.31.05,1.05.17h0l1,.18.27.06.68.14.29.07.6.16.27.07.61.18.18.06c.26.09.5.17.72.26h0a5.27,5.27,0,0,1,.53.23h.24l.15,0,.22,0,.21,0,.38-.05.4,0,.47-.06.32,0,.47-.05.37-.05.53-.06.38,0,.62-.06.36,0,1-.08h.29l.75-.05h.4l.64,0h1l.45,0,.56,0,.44,0,.53.05.42.06.49.08.39.08.24.05.2.06.2.05c2.9.91,5.59,1.68,7.86,3.75,0,.12,0,.25,0,.37h0c0,.17.05.35.06.53a28.84,28.84,0,0,1-1.25,10.06l-.22.69-.09.28c-.06.17-.11.35-.18.54s-.08.24-.12.36-.11.35-.18.53-.13.39-.2.59l-.14.39-.24.68c0,.12-.08.24-.13.36l-.3.82,0,.14Z"/></svg>