<svg id="Layer_1" data-name="Layer 1" xmlns="http://www.w3.org/2000/svg" viewBox="0 0 134.84 107.76"><defs><style>.cls-1{fill:red;}</style></defs><path class="cls-1" d="M134.8,18.89v-.07c0-.2,0-.45,0-.74,0-.8-.08-1.9-.18-3V15c0-.26-.05-.51-.09-.76v-.08c0-.24-.06-.47-.1-.73,0-.07,0-.15,0-.2s-.06-.33-.09-.53-.07-.37-.08-.41-.06-.31-.1-.47-.13-.56-.16-.65l-.06-.24s-.22-.74-.26-.85l-.15-.41a4.7,4.7,0,0,0-.17-.45c-.09-.23-.19-.45-.28-.66,0,0-.07-.13-.1-.2l-.31-.59c-.12-.22-.25-.44-.37-.63l-.17-.26a13.81,13.81,0,0,0-1.13-1.46,10.09,10.09,0,0,0-5.22-3L124,2.06,123.57,2c-.41-.07-.8-.15-1.26-.22l-.38-.06-1.16-.17-.4-.06a31.36,31.36,0,0,0-3.75-.27h-.21c-.58,0-1.13,0-1.65.05l-.55.05c-1.53.11-3.27.25-5.07.5l-.22,0c-.7.1-1.39.21-2.08.35l-1.1.24-.92-.15L104,2.13,103.08,2c-1.38-.12-2.76-.26-4.15-.4l-3-.29c-.85-.08-1.73-.13-2.82-.15L92,1.16c-.64,0-1.29,0-1.89,0l-.34,0c-.76,0-1.52.08-2.3.14l-.35,0-2.35.22-5.31.54-1.71.19-.89.11-1.67.22-1.37.22L73.09,3l-.71.14L72,3.24l-.7.17-2-.33L68.24,2.9,66.4,2.64,65.18,2.5l-.62,0-.44,0-.74,0H61.83l-5.46.14h0l-2.23.08-2.82.13-1.22.07-1.34.09L47,3l-1.28.11-1.36.14-.9.09-1.83.23-1.27.18L39.11,4l-.18,0-1.12.21-.27,0-.9.2-.41.09-.81.21L35,4.88l-.58.17-1.9-.22-1.12-.11-1.18-.09-1.29-.07-.48,0-.8,0H26.22l-.62,0-.78,0-.69,0-.85.09c-.25,0-.49.06-.66.08l-.91.15-.66.14a5.05,5.05,0,0,0-.56.12L20,5.34l-.45.13-.38.12c-3.32,1-7.44,2.31-11.25,5.8a10,10,0,0,0-3.12,5.77c0,.3-.09.59-.11.84s-.07.62-.1.93A38.71,38.71,0,0,0,6.22,32.65c.07.25.16.53.25.82l.32,1,.68,2,.69,1.93.47,1.25.5,1.3.49,1.22s.32.8.47,1.14l.58,1.36c.13.3.52,1.13.52,1.13.14.29.27.56.4.81l.14.3.43.79.18.33c.17.3.33.56.46.76s.16.26.27.42.39.56.58.8.29.38.43.54l.28.32A9.9,9.9,0,0,0,15.62,52l1.49,1.14c.49.38,1,.75,1.48,1.1,1.43,1,2.88,2.16,4.4,3.36a92.48,92.48,0,0,0,8.07,5.9c.71.45,1.38.82,2,1.14l1.17.63.54.31a1.77,1.77,0,0,1,.16.23,7.9,7.9,0,0,1,.44.72l.2.38c.14.26.28.52.41.79L37.1,70l.5,1a70.53,70.53,0,0,0,6.21,10.17c.24.31.5.63.8,1l.27.31,4.78,16.43a10,10,0,0,0,8,7.07l1.08.18a10.16,10.16,0,0,0,1.64.13,9.9,9.9,0,0,0,1.88-.18l1.63-.2,1.31-.21.8-.15.56-.12v0l.09,0h0l.2,0,.73-.19.66-.2.32-.11.7-.27.22-.09.31-.14a13,13,0,0,0,1.47-.83,10.52,10.52,0,0,0,1.27-1l.14-.13L73,102l.34-.36.44-.5.62-.77.28-.37s1.06-1.51,1.06-1.51S77.38,96,77.4,96L69,90.64,77.4,96l.53-.83.51-.81,2.27-3.72,1.58-2.72.87-1.59L83.88,85a41.4,41.4,0,0,0,6.3-4.86,63.29,63.29,0,0,0,7.38-8c.33-.44.72-.92,1.11-1.41a47.52,47.52,0,0,0,3-3.94,19.81,19.81,0,0,0,1.65-3c0-.09.09-.19.12-.27.13-.32.26-.64.36-1l.57-.32c.38-.22.83-.49,1.3-.81l.35-.23.88-.63.35-.26,1-.76.17-.14,1.43-1.17,1.13-1,.36-.32,1.46-1.29,1.34-1.24,1.08-1,.38-.38L117,51.58l.8-.83.61-.64.82-.89.44-.48.69-.78.49-.58c.24-.27.46-.54.67-.81l.59-.75c.22-.29.43-.57.62-.84s.27-.37.44-.63.28-.42.4-.62a4.66,4.66,0,0,0,.3-.47l.29-.5.42-.8c.13-.27.25-.55.36-.81a19,19,0,0,0,.82-2.38c0-.19.11-.38.15-.58s.12-.53.18-.82.11-.55.15-.8.1-.67.15-1.08.09-.93.12-1.42c0,0,0-.42,0-.59l.18-.16.78-.68.3-.27c.34-.31.69-.64,1.06-1a23.57,23.57,0,0,0,3.66-4.94c.12-.21.24-.42.34-.57s.29-.49.47-.8l.34-.64A9.92,9.92,0,0,0,134.8,18.89Zm-10.16,1.19,0,0,0,.05h0c-.08.13-.15.27-.24.41a19.64,19.64,0,0,1-2.5,3.65c-.28.28-.55.53-.81.77l-.23.2-.57.5-.17.14-.64.51-.18.14-.41.31-.19.13-.46.31-.14.08-.3.19-.16.09-.23.14-.23.12-.11.06,0,0-.21.11,0,0-.11.07,0,0a.12.12,0,0,0-.06.09c0,.36,0,.72,0,1.08,0,.14,0,.28,0,.43,0,.34,0,.68,0,1v.47c0,.21,0,.43,0,.65s0,.31,0,.46,0,.4,0,.6l0,.51c0,.3,0,.59-.08.88s0,.4-.08.6-.06.32-.09.48,0,.26-.08.39a.17.17,0,0,1,0-.07,9.82,9.82,0,0,1-.49,1.54l-.14.3s0,0,0,0a1.62,1.62,0,0,1-.1.18l0,.08a.21.21,0,0,0,0,.06l0,0-.08.16,0,0h0l-.1.15-.29.45-.27.39c-.13.19-.28.39-.44.59l-.43.55-.54.66-.4.46-.52.59-.42.47-.74.79c-.17.19-.35.37-.53.56l-.72.74-.48.48-.66.66-.47.46-1,.93-.48.44-.74.69-.5.44-.66.6-.47.4-1,.85-.41.34-.35.29h0l0,0h0l-.07.06-.35.28h0l-.11.09-.85.65-.28.21c-.21.16-.42.3-.62.44l-.24.16c-.26.17-.5.33-.72.45a12.41,12.41,0,0,0-3.27,2.3c-.13.16-.29.32-.45.48l-.07.08-.18.19-.1.11-.14.16-.1.12-.12.16-.08.13a1,1,0,0,0-.1.17.75.75,0,0,0-.07.12,1.59,1.59,0,0,0-.07.2.42.42,0,0,0,0,.1,1.12,1.12,0,0,0,0,.31,3.17,3.17,0,0,1-.09.67l0,.13a5.28,5.28,0,0,1-.24.7l0,.07a9.84,9.84,0,0,1-.88,1.6h0c-1.08,1.65-2.61,3.37-3.7,4.82a54,54,0,0,1-6.28,6.73,38.74,38.74,0,0,1-7,5.06C75.67,79,75.13,80.1,74.66,81l-.35.68-.23.43v0a1.09,1.09,0,0,1-.08.15l-.14.26-.11.2-.18.31c-.08.15-.17.3-.25.46l-.11.18c0,.08-.09.16-.14.24l-.29.51-.19.32-.11.19-.27.46-.3.5,0,0-.09.16,0,0,0,0-.08.13-.16.27,0,0,0,.06-.24.39-.08.14,0,0-.1.17-.1.17,0,.07-.06.1h0L70.6,88l-.12.19,0,0-.09.14-.07.13-.05.07-.08.13,0,0-.18.3-.15.23,0,0-.09.14-.06.1,0,.07-.08.13,0,0-.17.27-.15.24,0,0-.09.14,0,.07,0,0-.1.14,0,.06-.15.23-.17.25,0,.06-.07.12,0,0,0,0-.08.12,0,.07-.15.22-.15.23,0,.07-.07.1,0,0,0,0-.08.11,0,.08-.13.18-.15.22,0,.07-.06.08v0l-.07.1-.06.08L67,93.6a1.41,1.41,0,0,1-.14.18l0,.08,0,.06h0l0,.07-.06.09a1.13,1.13,0,0,0-.1.13,1.58,1.58,0,0,0-.12.15l0,.07,0,0h0l0,0-.07.09-.08.09-.1.11,0,.05,0,0h0l-.08.08-.05,0-.11.1-.23.12h0l-.08,0h0a1.31,1.31,0,0,1-.21.08l-.1,0-.25.08-.11,0-.29.07-.1,0-.32.07h0l-.09,0h0l-.34.07-.11,0-.35.06H63l-.36.06h-.06l-.39,0h0l-.37.05h0l-.34,0h-.07l-.27,0h0l-.25,0h0l-.18,0h-.19v0l-1.08-.17L53.89,77.61v-.07l0,0c-.12-.15-.24-.3-.37-.44l-.33-.39-.07-.09-.75-.86-.11-.13-.45-.55a59.84,59.84,0,0,1-5.3-8.74c0-.06-.06-.11-.08-.16h0c-.11-.21-.22-.43-.32-.64-.35-.7-.69-1.39-1-2.09l-.11-.22c-.18-.37-.38-.74-.57-1.1l-.23-.43c-.28-.5-.57-1-.89-1.47A10.26,10.26,0,0,0,41,57.67c-.42-.3-.86-.57-1.31-.83h0q-.34-.21-.69-.39l-1.18-.64c-.48-.25-.95-.51-1.4-.8-4.23-2.65-7.94-6-12-8.94-.41-.29-.82-.6-1.23-.91l-1.42-1.09L21.68,44a1.25,1.25,0,0,1-.09-.12l-.22-.29-.1-.17c-.08-.13-.17-.26-.25-.41l-.11-.19-.28-.53-.09-.19c-.11-.2-.21-.41-.31-.63l-.1-.2c-.11-.24-.21-.47-.33-.72a1.54,1.54,0,0,0-.08-.19l-.35-.8a1.67,1.67,0,0,0-.08-.2c-.12-.28-.23-.57-.35-.86a1,1,0,0,0-.07-.15l-.36-.92-.09-.24c-.11-.28-.23-.57-.34-.86L18,36c-.11-.27-.21-.55-.31-.82L17.58,35c-.1-.28-.21-.56-.3-.84l-.12-.33c-.09-.24-.17-.47-.25-.7l-.14-.4c-.07-.19-.14-.39-.2-.58l-.19-.54c0-.12-.08-.25-.12-.36s-.11-.36-.17-.53L16,30.42c-.08-.25-.16-.48-.22-.69a28.9,28.9,0,0,1-1.25-10.07c0-.17,0-.35.06-.53h0c0-.12,0-.24,0-.36,2.27-2.08,5-2.85,7.86-3.75l.2-.06.19-.05.25-.05.39-.08L24,14.7l.42-.06.53-.05.44,0,.56,0h1.49l.63,0h.41l.73,0,.3,0,1,.08.36,0,.62.06.38,0,.53.06.37,0,.47.06.32,0,.47.06.4.05.38,0,.21,0,.22,0h.38l.54-.24h0c.23-.09.47-.18.73-.26l.17-.06.62-.18.26-.08.61-.15.29-.07.68-.15L39.8,14q.47-.11,1-.18h0l1.05-.17.31,0,.77-.11.4-.05.73-.09.23,0,.25,0,.36,0,.24,0,.22,0,.89-.08.35,0,1.19-.1h0l1.23-.1.37,0,.87-.06.41,0,.9-.06h.31l1.16-.06.33,0,.82,0,.43,0,.71,0h.39l1,0h.11l.91,0h.38l.57,0h1.89l.59,0H63l.44,0h.25l.46,0,.24,0,.54.06.19,0,1.56.23h.1l.7.12.13,0,3.13.53.24,0,.26,0,.23,0,.21,0h.15l.28,0h.1l.17,0,.08,0a2.18,2.18,0,0,1,.27-.15l.13-.06.13,0,.11,0,.22-.07.09,0,.18,0,.24-.06.34-.08.26-.06.5-.1.42-.08.41-.07.37-.06.38-.06.39-.05.38,0,.41-.06.36-.05.43,0,.35,0,1.6-.18.21,0,.47-.05.2,0,.46,0h.08l1.29-.13,2.32-.24.23,0h0l2.15-.2.33,0c.65-.05,1.3-.1,2-.12l.24,0c.68,0,1.36,0,2,0h.46c.69,0,1.38,0,2.07.11,2.4.22,4.79.47,7.19.69l.37,0h0l.47.08h.08l.48.08a27,27,0,0,0,2.74.41l.13,0c.37-.12.74-.23,1.13-.33l.09,0,.68-.16h0l.37-.08h0c.51-.1,1-.19,1.55-.26l.17,0h0c1.69-.23,3.4-.35,5-.47a8.24,8.24,0,0,1,.88,0h.09a22.39,22.39,0,0,1,2.62.19l.27,0,1,.14.37.06,1,.18.39.07,1.46.3a3.4,3.4,0,0,1,.21.28v0l0,.09h0a2,2,0,0,1,.12.21s0,0,0,.05a1.17,1.17,0,0,0,0,.11c0,.07,0,.14.08.22l0,.09,0,.11.06.21,0,.15a.36.36,0,0,0,0,.1c0,.06,0,.13,0,.19a1.42,1.42,0,0,1,0,.22s0,0,0,.08,0,.09,0,.14l.06.32s0,.06,0,.09,0,.31.06.47v.06l.06.51v0c.13,1.43.14,2.87.2,3.63a.45.45,0,0,0,0,.12C124.77,19.83,124.7,20,124.64,20.08Z"/></svg>