<svg xmlns="http://www.w3.org/2000/svg" xmlns:xlink="http://www.w3.org/1999/xlink" viewBox="0 0 244.94 211.33"><defs><style>.cls-1{isolation:isolate;}.cls-2{fill:#1f383a;}.cls-3{fill:#1a2f30;}.cls-4{fill:#49e017;stroke:#000f38;stroke-width:0.98px;}.cls-10,.cls-11,.cls-12,.cls-13,.cls-14,.cls-15,.cls-16,.cls-17,.cls-18,.cls-19,.cls-20,.cls-21,.cls-22,.cls-23,.cls-4{stroke-miterlimit:10;}.cls-5{fill:#3e6370;}.cls-6{fill:#a3b8c6;}.cls-7{fill:#87a0ad;}.cls-8{fill:#264047;}.cls-9{fill:#0f1119;}.cls-10,.cls-11,.cls-12,.cls-13,.cls-14,.cls-15,.cls-16,.cls-17,.cls-18,.cls-19,.cls-20,.cls-21,.cls-22,.cls-23{fill:#cacaff;stroke-width:0.24px;}.cls-10{stroke:url(#radial-gradient);}.cls-11{stroke:url(#radial-gradient-2);}.cls-12{stroke:url(#radial-gradient-3);}.cls-13{stroke:url(#radial-gradient-4);}.cls-14{stroke:url(#radial-gradient-5);}.cls-15{stroke:url(#radial-gradient-6);}.cls-16{stroke:url(#radial-gradient-7);}.cls-17{stroke:url(#radial-gradient-8);}.cls-18{stroke:url(#radial-gradient-9);}.cls-19{stroke:url(#radial-gradient-10);}.cls-20{stroke:url(#radial-gradient-11);}.cls-21{stroke:url(#radial-gradient-12);}.cls-22{stroke:url(#radial-gradient-13);}.cls-23{stroke:url(#radial-gradient-14);}.cls-24,.cls-35{fill:#fff;}.cls-24,.cls-34{mix-blend-mode:overlay;}.cls-24{opacity:0.2;}.cls-25{fill:#648793;}.cls-26,.cls-30{mix-blend-mode:multiply;}.cls-26,.cls-34{opacity:0.5;}.cls-27{fill:#002e72;}.cls-28{fill:#00388e;}.cls-29{fill:#00273d;}.cls-31{fill:#007dc6;}.cls-32{fill:#fff53b;}.cls-33{fill:#f9ff00;}.cls-36{fill:#ffec00;}.cls-37{fill:#07395b;}.cls-38{fill:#e2ba13;}.cls-39{opacity:0.29;fill:url(#radial-gradient-15);}.cls-40,.cls-41,.cls-42,.cls-43,.cls-44{opacity:0.39;}.cls-40{fill:url(#linear-gradient);}.cls-41{fill:url(#linear-gradient-2);}.cls-42{fill:url(#linear-gradient-3);}.cls-43{fill:url(#linear-gradient-4);}</style><radialGradient id="radial-gradient" cx="213.97" cy="333.4" r="1" gradientTransform="matrix(0.99, 0.25, -0.25, 0.99, -39.55, -295.7)" gradientUnits="userSpaceOnUse"><stop offset="0" stop-color="#dedede"/><stop offset="0.27" stop-color="#dbdbdb"/><stop offset="0.44" stop-color="#d3d3d3"/><stop offset="0.58" stop-color="#c4c4c4"/><stop offset="0.71" stop-color="#afafaf"/><stop offset="0.83" stop-color="#949494"/><stop offset="0.94" stop-color="#747474"/><stop offset="1" stop-color="#5e5e5e"/></radialGradient><radialGradient id="radial-gradient-2" cx="206.14" cy="337.24" r="1" xlink:href="#radial-gradient"/><radialGradient id="radial-gradient-3" cx="198.02" cy="342.8" r="1" xlink:href="#radial-gradient"/><radialGradient id="radial-gradient-4" cx="221.34" cy="331.03" r="1" xlink:href="#radial-gradient"/><radialGradient id="radial-gradient-5" cx="230.34" cy="328.65" r="1" xlink:href="#radial-gradient"/><radialGradient id="radial-gradient-6" cx="240.09" cy="327.15" r="1" xlink:href="#radial-gradient"/><radialGradient id="radial-gradient-7" cx="250.71" cy="326.03" r="1" xlink:href="#radial-gradient"/><radialGradient id="radial-gradient-8" cx="260.08" cy="325.78" r="1" xlink:href="#radial-gradient"/><radialGradient id="radial-gradient-9" cx="269.2" cy="325.9" r="1" xlink:href="#radial-gradient"/><radialGradient id="radial-gradient-10" cx="280.08" cy="326.9" r="1" xlink:href="#radial-gradient"/><radialGradient id="radial-gradient-11" cx="290.57" cy="328.65" r="1" xlink:href="#radial-gradient"/><radialGradient id="radial-gradient-12" cx="300.69" cy="330.78" r="1" xlink:href="#radial-gradient"/><radialGradient id="radial-gradient-13" cx="310.94" cy="334.78" r="1" xlink:href="#radial-gradient"/><radialGradient id="radial-gradient-14" cx="320.44" cy="340.28" r="1" xlink:href="#radial-gradient"/><radialGradient id="radial-gradient-15" cx="151.51" cy="464.62" r="61.64" gradientTransform="matrix(1, 0.26, -0.25, 0.99, 111.27, -433.88)" gradientUnits="userSpaceOnUse"><stop offset="0.15" stop-color="#518ee0"/><stop offset="0.3" stop-color="#5192e1"/><stop offset="0.46" stop-color="#4f9fe2"/><stop offset="0.63" stop-color="#4db5e5"/><stop offset="0.8" stop-color="#4ad3e9"/><stop offset="0.98" stop-color="#46faee"/><stop offset="1" stop-color="#45ffef"/></radialGradient><linearGradient id="linear-gradient" x1="54.56" y1="457.17" x2="54.56" y2="388.53" gradientTransform="translate(202.75 -379.66) rotate(14.43)" gradientUnits="userSpaceOnUse"><stop offset="0.15" stop-color="#83c0e0" stop-opacity="0"/><stop offset="0.36" stop-color="#82c1e0" stop-opacity="0.01"/><stop offset="0.48" stop-color="#80c3e1" stop-opacity="0.04"/><stop offset="0.57" stop-color="#7dc6e1" stop-opacity="0.09"/><stop offset="0.65" stop-color="#78cbe3" stop-opacity="0.17"/><stop offset="0.73" stop-color="#72d1e4" stop-opacity="0.27"/><stop offset="0.79" stop-color="#6bd9e6" stop-opacity="0.39"/><stop offset="0.85" stop-color="#62e2e8" stop-opacity="0.54"/><stop offset="0.91" stop-color="#57eceb" stop-opacity="0.7"/><stop offset="0.97" stop-color="#4cf8ed" stop-opacity="0.89"/><stop offset="1" stop-color="#45ffef"/></linearGradient><linearGradient id="linear-gradient-2" x1="54.85" y1="463.32" x2="54.85" y2="394.68" xlink:href="#linear-gradient"/><linearGradient id="linear-gradient-3" x1="2452.13" y1="-4281.22" x2="2452.13" y2="-4349.03" gradientTransform="matrix(0.45, -0.97, 0.42, 0.2, 835.1, 3280.75)" xlink:href="#linear-gradient"/><linearGradient id="linear-gradient-4" x1="3249.55" y1="5487.11" x2="3249.55" y2="5418.94" gradientTransform="matrix(0.07, -1.06, -0.47, -0.03, 2489.74, 3706.61)" xlink:href="#linear-gradient"/></defs><g class="cls-1"><g id="Layer_1" data-name="Layer 1"><path class="cls-2" d="M213,175.93c-3.74,15-52.76,34.36-104.08,21.56s-85.49-52.92-81.75-67.92,48.37-16.77,99.69-4S216.72,160.94,213,175.93Z"/><path class="cls-3" d="M109.81,193.85c-40.15-10-85.08-49.43-82.44-64.9-.07.21-.16.41-.22.62-3.74,15,30.44,55.12,81.75,67.92S209.24,190.92,213,175.93c.05-.21.06-.43.1-.65C208.13,190.18,150.82,204.08,109.81,193.85Z"/><ellipse class="cls-4" cx="114.28" cy="182.93" rx="7.25" ry="10.38" transform="translate(-91.53 247.47) rotate(-75.42)"/><ellipse class="cls-4" cx="51.37" cy="150.41" rx="7.25" ry="10.38" transform="translate(-103.22 113.5) rotate(-57.72)"/><ellipse class="cls-4" cx="186.41" cy="181.14" rx="10.38" ry="7.25" transform="translate(-9.58 10.41) rotate(-3.12)"/><path class="cls-5" d="M236.46,169.57s-40.39,18.36-120.29-.52C28.26,147.12,9.41,112.93,9.41,112.93l2.3-9.2,227,56.64Z"/><path class="cls-6" d="M11.86,104.56S25,82.28,68.65,78.09C115.73,73.57,164.07,88.2,195.89,107s43.66,41.7,42.84,53.43c0,0-35.62,17.53-121.22-3.82S11.86,104.56,11.86,104.56Z"/><path class="cls-7" d="M238.75,160.37S203.11,178,117.51,156.63,11.86,104.56,11.86,104.56s126.27,56,127.73,3.69C139.59,108.25,216.14,133.49,238.75,160.37Z"/><path class="cls-8" d="M69.17,92.43s20,20.43,61.92,30.9,66.56-.28,66.56-.28-8.74-20.4-59.47-33.06S69.17,92.43,69.17,92.43Z"/><path class="cls-9" d="M73.6,96.26l-4.43-3.83s18.53-15,69-2.44,59.47,33.06,59.47,33.06l-4.21.92s-11-19.52-56.15-30.78S73.6,96.26,73.6,96.26Z"/><circle class="cls-10" cx="90.17" cy="87.89" r="0.89"/><circle class="cls-11" cx="81.45" cy="89.75" r="0.89"/><circle class="cls-12" cx="72.02" cy="93.26" r="0.89"/><circle class="cls-13" cx="98.07" cy="87.36" r="0.89"/><circle class="cls-14" cx="107.58" cy="87.23" r="0.89"/><circle class="cls-15" cx="117.62" cy="88.15" r="0.89"/><circle class="cls-16" cx="128.43" cy="89.67" r="0.89"/><circle class="cls-17" cx="137.79" cy="91.74" r="0.89"/><circle class="cls-18" cx="146.8" cy="94.12" r="0.89"/><circle class="cls-19" cx="157.34" cy="97.8" r="0.89"/><circle class="cls-20" cx="167.32" cy="102.13" r="0.89"/><circle class="cls-21" cx="176.83" cy="106.74" r="0.89"/><circle class="cls-22" cx="186" cy="113.25" r="0.89"/><circle class="cls-23" cx="194.06" cy="121.05" r="0.89"/><path class="cls-24" d="M75.8,97.81s-19.8.61-41.7,25.55c0,0,3.25,2.86,12.45,7.64,0,0,13.75-20.74,38.14-26.88Z"/><path d="M155.49,126.72l-.9.16a2.53,2.53,0,0,1-2.92-2.06l-3.15-18a2.53,2.53,0,0,1,2.06-2.93l.9-.16a2.53,2.53,0,0,1,2.92,2.06l3.15,18A2.54,2.54,0,0,1,155.49,126.72Z"/><path d="M177.76,126.71l-.9.15a2.53,2.53,0,0,1-2.93-2l-3.14-18a2.53,2.53,0,0,1,2.05-2.93l.91-.16a2.53,2.53,0,0,1,2.92,2.06l3.14,18A2.54,2.54,0,0,1,177.76,126.71Z"/><path class="cls-25" d="M11.86,104.56s18.4,30.3,105.65,52.07,121.19,3.69,121.19,3.69-32,23-121.88.52S11.86,104.56,11.86,104.56Z"/><g class="cls-26"><path class="cls-27" d="M137.58,140.89a14.07,14.07,0,1,1-10.42-16.95A14.07,14.07,0,0,1,137.58,140.89Z"/></g><path class="cls-28" d="M137.48,140a13.76,13.76,0,1,1-10.2-16.58A13.77,13.77,0,0,1,137.48,140Z"/><path class="cls-29" d="M137.34,140a13.88,13.88,0,0,1-15,10.45c-7.18-.81-12.28-7.45-11.89-14.51a13.87,13.87,0,0,1,12.4-12.74c7.34-.77,13.78,4.87,14.73,12a13.66,13.66,0,0,1-.28,4.81c0,.08.25.15.26.07a14,14,0,0,0-5.8-14.71,14.18,14.18,0,0,0-15.19-.19,13.86,13.86,0,1,0,21,14.9C137.63,140,137.36,139.88,137.34,140Z"/><g class="cls-30"><path class="cls-31" d="M135,139.41a11.23,11.23,0,1,1-8.32-13.52A11.23,11.23,0,0,1,135,139.41Z"/></g><path class="cls-32" d="M133.86,139.13A10,10,0,1,1,126.42,127,10,10,0,0,1,133.86,139.13Z"/><path class="cls-33" d="M133.73,139.1a10.11,10.11,0,0,1-11.61,7.5c-5.57-1-8.83-6.76-7.67-12.08a10.07,10.07,0,0,1,11.61-7.5c5.57,1,8.83,6.75,7.67,12.08,0,.08.25.15.26.08a10.18,10.18,0,0,0-19.8-4.74c-1.41,5.44,2.29,10.83,7.55,12.19A10.22,10.22,0,0,0,134,139.18C134,139.1,133.75,139,133.73,139.1Z"/><g class="cls-34"><path class="cls-35" d="M129.91,131.29c.35,2.38-2.08,4.71-5.41,5.19s-6.31-1.07-6.65-3.46,2.08-4.71,5.41-5.19S129.57,128.9,129.91,131.29Z"/></g><path class="cls-36" d="M127.26,127.28a8.55,8.55,0,1,1-1.7-.4,10,10,0,1,0,1.7.4Z"/><g class="cls-26"><path class="cls-27" d="M203,140.24c1.72,7.43,8.5,14.74,15.15,16.33s10.64-3.16,8.92-10.6-8.5-14.74-15.15-16.32S201.28,132.8,203,140.24Z"/></g><path class="cls-28" d="M204.44,139.86c1.66,7.19,8.22,14.25,14.64,15.78s10.29-3,8.63-10.24-8.23-14.25-14.65-15.78S202.77,132.67,204.44,139.86Z"/><path class="cls-37" d="M204.31,139.83a23.17,23.17,0,0,0,11.33,14.55c4,2.15,9.72,2.65,11.91-2.17,1.23-2.7.65-6-.26-8.67a23.34,23.34,0,0,0-5.14-8.29c-3.29-3.56-8.77-7.17-13.85-5.65-4.36,1.32-4.81,6.48-4,10.23,0,.08.28.13.26,0-.63-2.88-.64-6.1,1.36-8.47,2.17-2.58,5.92-2.28,8.77-1.23,6.3,2.33,11.32,8.79,12.88,15.2.69,2.84.59,6.14-1.36,8.47-2.17,2.57-5.93,2.28-8.78,1.23-6.3-2.33-11.31-8.79-12.87-15.2C204.55,139.8,204.29,139.76,204.31,139.83Z"/><path class="cls-27" d="M227.71,145.4a22.29,22.29,0,0,0-4.59-8.93,20.59,20.59,0,0,1,4,7.94c1.55,6.69-2,11-8,9.54s-12.09-8-13.64-14.7,2-10.86,7.83-9.58l-.2,0c-6.43-1.54-10.29,3-8.62,10.24s8.22,14.25,14.64,15.78S229.37,152.59,227.71,145.4Z"/><path class="cls-27" d="M207.31,140.08c1.35,5.81,6.64,11.51,11.84,12.75s8.31-2.46,7-8.27-6.64-11.52-11.83-12.75S206,134.27,207.31,140.08Z"/><path class="cls-32" d="M208.35,139.82c1.22,5.25,6,10.41,10.7,11.52s7.51-2.23,6.29-7.47-6-10.41-10.69-11.53S207.14,134.57,208.35,139.82Z"/><path class="cls-38" d="M208.23,139.78c1.21,4.91,5.18,9.95,10.16,11.44,2,.59,4.11.64,5.75-.77,1.85-1.58,1.79-4.39,1.33-6.55-1-4.89-5.3-10-10.16-11.43-2-.59-4.12-.65-5.76.76-1.84,1.58-1.78,4.4-1.32,6.55,0,.08.27.15.26.07a7.4,7.4,0,0,1,.75-5.89c1.44-2.08,4.26-2,6.4-1.27,4.7,1.59,8.41,6.44,9.58,11.15a7.3,7.3,0,0,1-.76,5.88c-1.44,2.08-4.26,2-6.4,1.27-4.7-1.59-8.41-6.44-9.57-11.14C208.46,139.77,208.21,139.71,208.23,139.78Z"/><path class="cls-36" d="M225.34,143.87c-1.21-5.25-6-10.41-10.69-11.53s-7.51,2.23-6.3,7.48,6,10.41,10.7,11.52S226.56,149.11,225.34,143.87ZM219,148c-3.75-.9-7.58-5-8.55-9.22s1.28-6.88,5-6,7.59,5,8.56,9.22S222.7,148.9,219,148Z"/><g class="cls-26"><path class="cls-27" d="M55.89,103.54c-5,5.75-14.43,9-21,7.3S26.94,103.05,32,97.3,46.38,88.27,53,90,60.91,97.78,55.89,103.54Z"/></g><path class="cls-28" d="M54.8,102.53c-4.84,5.56-13.95,8.72-20.34,7s-7.65-7.52-2.81-13.09,14-8.72,20.35-7S59.65,97,54.8,102.53Z"/><path class="cls-37" d="M54.93,102.57a23.23,23.23,0,0,1-16.83,7.52c-4.53,0-9.84-2.23-9.5-7.51.18-3,2.23-5.59,4.3-7.53a23.32,23.32,0,0,1,8.43-4.91c4.58-1.59,11.11-2.21,14.88,1.52,3.23,3.21,1.21,8-1.28,10.91,0,.06-.31,0-.25-.08,1.91-2.25,3.42-5.09,2.77-8.12-.7-3.3-4.15-4.8-7.16-5.2-6.66-.91-14.12,2.44-18.51,7.36-2,2.19-3.41,5.14-2.78,8.12.71,3.29,4.16,4.8,7.17,5.2,6.66.91,14.12-2.44,18.51-7.36C54.73,102.43,55,102.51,54.93,102.57Z"/><path class="cls-27" d="M31.65,96.49a22.28,22.28,0,0,1,8.25-5.72,20.31,20.31,0,0,0-7.24,5.14c-4.51,5.17-3.34,10.63,2.61,12.18s14.43-1.39,18.94-6.57S57.58,91,51.8,89.39l.2,0c6.4,1.66,7.65,7.52,2.8,13.09s-13.95,8.72-20.34,7S26.81,102.06,31.65,96.49Z"/><path class="cls-27" d="M52.16,101.37c-3.91,4.5-11.27,7-16.43,5.7S29.55,101,33.46,96.5s11.27-7,16.44-5.7S56.08,96.88,52.16,101.37Z"/><path class="cls-32" d="M51.36,100.65c-3.53,4.07-10.18,6.37-14.85,5.16s-5.58-5.5-2-9.56,10.19-6.37,14.86-5.15S54.9,96.59,51.36,100.65Z"/><path class="cls-38" d="M51.49,100.68c-3.37,3.76-9.25,6.35-14.34,5.32-2-.4-3.93-1.36-4.72-3.38-.89-2.25.48-4.72,1.9-6.4,3.22-3.83,9.37-6.32,14.35-5.32,2,.4,3.93,1.36,4.72,3.38.88,2.26-.49,4.72-1.91,6.4-.05.07-.31,0-.26-.06a7.4,7.4,0,0,0,2.1-5.55c-.29-2.52-2.82-3.76-5-4.13-4.89-.8-10.45,1.73-13.69,5.34a7.24,7.24,0,0,0-2.09,5.55c.29,2.52,2.82,3.76,5,4.13,4.9.81,10.46-1.74,13.69-5.34C51.29,100.56,51.54,100.63,51.49,100.68Z"/><path class="cls-36" d="M36.51,105.81c4.67,1.21,11.32-1.09,14.85-5.16s2.62-8.34-2-9.55S38,92.18,34.46,96.25,31.84,104.59,36.51,105.81Zm0-10.55c2.83-3.25,8.15-5.1,11.88-4.13s4.47,4.4,1.64,7.65-8.15,5.1-11.89,4.12S33.7,98.51,36.53,95.26Z"/><path class="cls-39" d="M69,93.48c3.43,3.23,63.12,52.13,129.71,30.25l-1-71.94c-.23-16.38-11.8-32.18-29.7-40l-1.61-.68C141.76.86,113.9,8.72,103.5,28.34Z"/><path class="cls-40" d="M186.43,88.2S173.82,53.46,149,47,96.42,64.84,96.42,64.84c-10.66-5.36,11.64-68.78,62-54.68C205.14,19.82,201.28,88.69,186.43,88.2Z"/><path class="cls-41" d="M185.19,94.23S172.57,59.49,147.71,53,95.18,70.87,95.18,70.87c-10.67-5.36,11.63-68.78,61.94-54.68C203.89,25.85,200,94.72,185.19,94.23Z"/><path class="cls-42" d="M141.72,24.13S119.54,38.39,108,63.4s-16.63,43.08-16.63,43.08c-16.3-10.6-23.3.09.62-50.59C112.43,8.94,146.88,9.36,141.72,24.13Z"/><path class="cls-43" d="M166.38,30.53S179,53.82,177.13,81.35s-6.07,45.81-6.07,45.81c19.35-1.34,20.37,11.42,23.69-44.6C199.31,31.49,168.94,15.09,166.38,30.53Z"/><g class="cls-44"><path class="cls-35" d="M188.41,86.3a37,37,0,0,0-.49-7.84,121.91,121.91,0,0,0-5.52-23.11,52.2,52.2,0,0,0-3.17-7.06c-2.39-4.46-4.18-9-6.76-13.31A64.26,64.26,0,0,0,168,28.39l.38-.68c5.93.83,10.9,5.15,14.26,9.88s4.58,10.53,5.76,16.06q.89,4.11,1.4,8.23a93.28,93.28,0,0,1,.2,20.59,16.48,16.48,0,0,1-.9,4.16l-.71-.33Z"/></g></g></g></svg>