<svg xmlns="http://www.w3.org/2000/svg" viewBox="0 0 113.22 83.76"><defs><style>.cls-1{isolation:isolate;}.cls-2{fill:#cdba97;}.cls-3{fill:#a8916f;}.cls-4{fill:#8e7250;}.cls-20,.cls-5{opacity:0.4;}.cls-6{fill:#c1a68c;}.cls-7{fill:#a38e72;}.cls-21,.cls-8{opacity:0.5;}.cls-9{fill:#a38a73;}.cls-10{fill:#9a836c;}.cls-11{fill:#b79f88;}.cls-12{fill:#77777d;}.cls-13{fill:#937e67;}.cls-14{fill:#67676e;}.cls-15{fill:#a38671;}.cls-16,.cls-18,.cls-20,.cls-23,.cls-26{mix-blend-mode:multiply;}.cls-17{fill:#c4b29d;}.cls-18{opacity:0.6;}.cls-19{fill:#beaa8c;}.cls-21{mix-blend-mode:screen;}.cls-22{fill:#e4d3aa;}.cls-23{opacity:0.2;}.cls-24{fill:#a38973;}.cls-25{fill:#ad9577;}.cls-26,.cls-28{opacity:0.3;}.cls-27{fill:#513a2d;}.cls-28{fill:#fff;}</style></defs><g class="cls-1"><g id="Layer_1" data-name="Layer 1"><path class="cls-2" d="M109,8.81c.06.33.11.65.15,1a35.16,35.16,0,0,1-.72,11.11c-.84,3.73-3.66,14.06-5.15,16-.84.79-1.67,1.58-2.51,2.32-3.86,3.36-7.35,7.25-11.38,10.36C88,50.69,86.32,51.52,85,52.74a10.77,10.77,0,0,0-2.08,2.88C81.72,57.79,47,74.29,44,71.36a58.15,58.15,0,0,1-6.55-7.1c-1.93-2.6-5.16-6-5.31-8.54-.06-1-1.08-1.8-1.67-2.48a11.84,11.84,0,0,0-3.35-2.37c-3.9-2.23-15.25-13-16.95-17.06-1.36-3.09-1-6.56-1.3-9.88C8.89,23.63,18,6.28,18,6.28s3.33-.74,4.21-.87c2.35-.35,4.7-.73,7.05-1.09,3.84-.59,7.84-.23,11.7,0,2,.14,9.34.49,10.63,1.45.48.36,7-1.79,10-1.8s20.76-.8,26.44,1.93c.26.13,8.73-2.11,13-.86C104,5.92,106.65,6.64,109,8.81Z"/><path class="cls-3" d="M14.67,30a46.61,46.61,0,0,0,5.45-8.32c.68-1.39,1.48-2.79,2.07-4.24.11,2.58.57,5.16.85,7.72.32,2.86.58,5.74.83,8.61.43,4.94,0,9.84,0,14.76C19.22,44.7,12.43,38,10.5,34.45A7.38,7.38,0,0,0,12,33.09C12.94,32.09,13.83,31,14.67,30Z"/><path class="cls-4" d="M39.74,9.62c.9,3.2,2.19,6.25,3.07,9.45,2,7.19.24,14.75.56,22.12-.34.47-.67,1-1,1.42a65.21,65.21,0,0,1-6.6,7.89,8.75,8.75,0,0,1-3.34,2.31,14.15,14.15,0,0,1-1.93.43h0a11.84,11.84,0,0,0-3.35-2.37,24.71,24.71,0,0,1-2.89-2.07,135.69,135.69,0,0,0,.34-14.68c-.17-3.17-.47-6.33-.83-9.49-.18-1.5-.36-3-.56-4.51a25.66,25.66,0,0,0-.63-3.81,24.25,24.25,0,0,0,.61-3.44c.35-2.6.93-5.18,1.18-7.79l4.92-.76a43.12,43.12,0,0,1,9.16-.15c0,.15.09.3.12.45C39,6.29,39.29,8,39.74,9.62Z"/><path class="cls-4" d="M79.41,43.94c-1.11-1.69-2-3.54-3-5.32a17.34,17.34,0,0,0-1.52-2.92c.24-.24.48-.48.73-.71a.82.82,0,0,0,.38-.38,42.32,42.32,0,0,0,5-5.36,41.63,41.63,0,0,0,2.55-4.08c.74-1.32,1.59-2.59,2.21-4,1.13-2.49,1.38-5.41,1.73-8.14.18-1.47.49-2.94.59-4.42a12.16,12.16,0,0,0,2.41,1.76c1.16.76,2.42,1.31,3.63,2S96.76,13.73,98,14.5c.62.38,1.36,1.25,2.08,1.39.08,1.79.21,3.57.4,5.35.33,3.16.61,6.33,1.07,9.47.23,1.51.49,3,.86,4.5.16.64.33,1.32.55,2-.74.7-1.47,1.39-2.21,2-3.86,3.36-7.35,7.25-11.38,10.36-.91.7-1.89,1.29-2.84,1.94A35.1,35.1,0,0,1,79.41,43.94Z"/><g class="cls-5"><path class="cls-6" d="M21.69,16.64c-.54,1.33-1.22,2.61-1.84,3.9a51.23,51.23,0,0,1-5.27,8.84C13.33,31,12,33,10.33,34.13a3,3,0,0,1-.15-.32c-1.36-3.09-1-6.56-1.3-9.88,0,0,0-.06-.07-.1,2.77-1.41,4.91-4.5,6.57-7.14A19.67,19.67,0,0,0,18,10.81a14.63,14.63,0,0,0,.16-4.52c.65,0,3.28-.76,4.09-.88L24,5.13c-.4,2.32-.92,4.61-1.26,6.94A19.59,19.59,0,0,1,21.69,16.64Z"/></g><path class="cls-7" d="M78.72,9.51a62.26,62.26,0,0,1,.09,8.85c-.14,1.47-.43,2.91-.57,4.37s-.25,3.19-.47,4.77c-.26,1.92-.36,4.15-1.16,5.92A19.84,19.84,0,0,1,72.73,36a23.21,23.21,0,0,1-3.3,1.28l-1.88.59c-.77.24-1.12.42-1.84-.08l-.27-.19A18.68,18.68,0,0,0,63.59,36c-1.37-1.08-2.71-2.19-4-3.36C57.24,30.57,55,28.3,54.18,25c-.14-.57-.25-1.15-.37-1.73s-.3-.92-.36-1.41a14.39,14.39,0,0,1,0-1.61c0-.63,0-1.25,0-1.88,0-1.19-.11-2.39-.19-3.59-.15-2.24-.31-4.49-.6-6.71-.09-.76-.2-1.52-.34-2.27C54.13,5.5,59.08,4,61.64,4c1.92,0,10-.33,17,.16A39.68,39.68,0,0,0,78.72,9.51Z"/><g class="cls-8"><path class="cls-9" d="M45.9,21.18a17.88,17.88,0,0,1-1.46,3.08,24.36,24.36,0,0,0-1-4.63C42.41,16.11,41,12.75,40,9.2c-.4-1.58-.7-3.31-1.1-5l2,.13c1.73.12,7.24.39,9.66,1.06C50.23,8.7,49,11.8,48.08,15,47.47,17.09,46.7,19.15,45.9,21.18Z"/></g><g class="cls-8"><path class="cls-10" d="M86.88,12.31c-.35,2.76-.56,5.68-1.6,8.25-.15.36-.32.72-.49,1.07a13.43,13.43,0,0,0-1.07-1.31c-.64-.86-1.28-1.73-1.86-2.64s-1-1.6-1.44-2.41c-.27-.48-.52-1-.8-1.52,0-.92,0-1.84-.07-2.77-.08-1.51-.19-3-.21-4.53,0-.76,0-1.5.1-2.24a30.84,30.84,0,0,1,8.1,1.48c0,.82-.05,1.64-.11,2.45C87.33,9.55,87.06,10.92,86.88,12.31Z"/></g><g class="cls-5"><path class="cls-11" d="M80.11,29.78a24.56,24.56,0,0,1-3,3.19A19.58,19.58,0,0,0,78,28.55c.23-1.52.34-3.06.53-4.59.16-1.33.44-2.62.64-3.94q.34-2.39.45-4.77A19.76,19.76,0,0,0,81,17.51c.62.89,1.28,1.74,1.93,2.6.52.69,1,1.49,1.55,2.16-.51,1-1.08,1.9-1.57,2.86A28.88,28.88,0,0,1,80.11,29.78Z"/></g><path class="cls-3" d="M32.25,52.59s-2.77-1.84-2.95-3.69.37-4.8-.37-5.72a9.31,9.31,0,0,1-1.48-2.4c-.18-.55-.55-2.76-.55-2.76s1.47-2.4,2.4-4.06a9.92,9.92,0,0,1,2-2.59s10.33-3.13,14-2.95a22.71,22.71,0,0,0,6.46-.74h2.95s6.64-6.82,7.56-7.75a8.88,8.88,0,0,1,3.32-1.47L64.17,33.4S55.31,43.92,53.1,46.13a28,28,0,0,0-2.59,2.77Z"/><path class="cls-3" d="M63.61,64C62,70.3,60.29,71.78,60.48,74.36A8,8,0,0,0,63,79C65.76,73,68.93,66.47,74.84,63.41c2.47-1.28,5.25-1.86,7.73-3.12C87,58,90.16,53.73,92,49.1s2.57-9.64,3.27-14.58c-3.19.19-6.56,0-9.33-1.58-1.77-1-3.47-2.63-3.64-4.68a18,18,0,0,0-.08-2.08c-.36-1.8-2.29-2.76-4-3.41S74.56,21.3,74,19.55a27.05,27.05,0,0,0-3,17.52l0,.58-1.29,5s1.85,6.27.56,8.12A42.67,42.67,0,0,0,63.61,64Z"/><path class="cls-3" d="M82.75,29.78a61,61,0,0,0-3.86,8.33l6.14-3a4,4,0,0,1,1.78-.56c1.49,0,2.41,1.65,3.77,2.27a10.73,10.73,0,0,1,1.68.68c1,.68,1.13,2.09,1.15,3.31l.09,3.72a92.71,92.71,0,0,0,1.79-10c-3.19.19-6.56,0-9.33-1.58A8.07,8.07,0,0,1,82.75,29.78Z"/><path class="cls-3" d="M61,74.12a15.64,15.64,0,0,1,1.52-5.51c1.2-2.63,2.76-5.14,3.42-8a6.29,6.29,0,0,1,.41-1.36,5.16,5.16,0,0,1,1-1.21c2.91-3,5.7-6.94,4.72-11-.55-2.26-2.22-4.54-1.29-6.67a10.6,10.6,0,0,1,1.9-2.35c1.32-1.53,1.92-3.53,2.71-5.4,1.3-3.11,3.5-6.18,6.42-7.63a7.5,7.5,0,0,0-3.52-2.28A12.06,12.06,0,0,1,74,19.65c-.43,5.19-3.75,9.47-2.54,13.8a5.21,5.21,0,0,1,.36,1.9,4.19,4.19,0,0,1-.51,1.38c-.11.23-.22.47-.32.7v.22l-1.29,5s1.36,4.64.93,7.11a3.73,3.73,0,0,1,.06,1.93,5,5,0,0,1-.94,1.61l-2.67,3.46c-.59.76-1.17,1.54-1.69,2.35A32.68,32.68,0,0,0,63.61,64c-1.25,4.74-2.5,6.74-3,8.55A6.3,6.3,0,0,0,61,74.12Z"/><path class="cls-12" d="M32.35,52.57l.21,0-.13-.12A.8.8,0,0,1,32.35,52.57Z"/><path class="cls-13" d="M62.79,34.76l-5.88-2.11-1.81.75L41.84,43.5l-6.93,8.55-2.75,4,1.34,3.08a8.42,8.42,0,0,0,1.33,2.66c.74.74,2.4,3.69,5.35,6.09a38.14,38.14,0,0,1,5.72,6.27s5.17,2.4,5.91,3.14,5.72,1.84,6.45,1.84,1.11.19,3,.37S63,79,63,79s-2.88-3.55-2.51-4.65,2.21-7,2.21-7l1.66-5,2-3.69L69,54.21l1.3-3.51.18-2.58-.18-2.59-.56-3Z"/><path class="cls-14" d="M61.4,36.17c.1-.19.18-.38.27-.58l0,0Z"/><path class="cls-13" d="M27.91,36.34c1.19-1.1,2.34-2.17,3.85-1.9a2.58,2.58,0,0,0,.86.11c.51-.1.81-.61,1.12-1,1.23-1.59,3.43-1.94,5.42-2.18a72.6,72.6,0,0,0,1.34,7.89c.18-1.69.35-3.38.53-5.07s.45-3.63,1.78-4.74a4.86,4.86,0,0,1,2.72-1h-.18c-3.69-.18-14,2.95-14,2.95a9.92,9.92,0,0,0-2,2.59C28.88,34.7,28.36,35.59,27.91,36.34Z"/><path class="cls-11" d="M108.42,20.9c-.83,3.68-3.58,13.78-5.09,15.92a24.81,24.81,0,0,1-.78-2.75c-.29-1.5-.49-3-.63-4.54-.26-2.91-.54-5.83-.81-8.74a86.41,86.41,0,0,1-.42-9.52c0-2.1,0-4.18.15-6.26l.2,0c2.91.86,5.61,1.58,7.95,3.75.06.33.11.65.15,1A35.16,35.16,0,0,1,108.42,20.9Z"/><g class="cls-8"><path class="cls-15" d="M100,10.89c0,1.5,0,3,0,4.49A23.45,23.45,0,0,0,97.55,14L94,12a38,38,0,0,1-3.67-2.53,14.18,14.18,0,0,0-2.16-1.7c0-.61,0-1.21,0-1.8.77,0,8.32-1.95,12.51-1l-.18,1.54C100.3,8,100.06,9.41,100,10.89Z"/></g><path class="cls-11" d="M52.21,9.87a65.55,65.55,0,0,1,.53,10.48,20.37,20.37,0,0,1-.37,4.75,18.35,18.35,0,0,1-1.85,4.45c-.8,1.44-1.59,2.89-2.42,4.31-1.41,2.39-2.9,4.73-4.49,7,.2-3.4.35-6.79.6-10.18.13-1.73.31-3.51.28-5.25a28.66,28.66,0,0,0,1.7-4c.79-2.2,1.85-4.38,2.46-6.66.54-2,1.22-3.88,1.77-5.85a14.66,14.66,0,0,0,.63-3.23.86.86,0,0,0,0-.16,2.27,2.27,0,0,1,.54.26l0,0a4.17,4.17,0,0,1,.06.43C51.83,7.46,52,8.66,52.21,9.87Z"/><g class="cls-16"><path class="cls-17" d="M109.14,9.79c0-.33-.09-.65-.15-1-2.34-2.17-5-2.89-7.95-3.75-4.23-1.25-12.7,1-13,.86C82.4,3.19,64.63,4,61.64,4s-9.56,2.16-10,1.8C50.31,4.83,43,4.48,41,4.34c-3.86-.25-7.86-.61-11.7,0-2.35.36-4.7.74-7,1.09-.88.13-4.21.87-4.21.87S10.07,22.65,8.4,23.59c.33.17.49.25.48.34.25,3.32-.06,6.79,1.3,9.88a7.17,7.17,0,0,0,.49.94c1-.57,1.87-1.85,2.72-2.48a30.31,30.31,0,0,1,3.7-2.49c2.07-1.12,4.38-1.3,5.68,1.15s1.4,5.41,1.56,8c0,.29,0,.59.05.88.09-1,.2-2.08.31-3.12.2-1.78.2-3.95,1.3-5.39a6,6,0,0,1,1.82-1.39c1.2-.7,2.45-1.33,3.67-2a26.29,26.29,0,0,1,7.26-3.22c1.43-.31,2.45.52,2.95,2a10.85,10.85,0,0,1,.43,2.84c.06,1.29.14,2.56.11,3.86A30.94,30.94,0,0,1,38.7,47.92a10.61,10.61,0,0,1-5.62,5,7.9,7.9,0,0,1-2.66.25l.06.06c.59.68,1.61,1.52,1.67,2.48a7.48,7.48,0,0,0,1.42,3.42,4.61,4.61,0,0,1,0-1,5.33,5.33,0,0,1,1.13-2.44,17.75,17.75,0,0,1,4.89-3.94c2.54-1.65,5.05-3.36,7.53-5.09,1.2-.83,2.38-1.71,3.53-2.62a9,9,0,0,1,2.93-1.7c1.68-.52,3.22.44,4.54,1.52,1.79,1.46,3.51,3.09,5.27,4.61A14.53,14.53,0,0,1,67.18,53a8.13,8.13,0,0,1,.09,6c-1.49,5.17-4.53,9.61-5.82,14.84,1.53-1.59,2.79-3.5,4.33-5.1.79-.82,15.94-10.91,17.11-13.08A10.77,10.77,0,0,1,85,52.74a15.31,15.31,0,0,1,1.43-1.12,29,29,0,0,1-4.84-5.33c-1.29-1.84-3.06-4-2.71-6.55.66-4.62,5.3-7.27,8-10.27,2-2.21,3.85-4.56,6-6.63,1.31-1.28,4-4.17,6-3.06,1,.54,1.21,2.25,1.39,3.28.34,2.05.33,4.16.5,6.23a27.92,27.92,0,0,0,1.89,7.23c.09.24.18.48.28.72l.35-.33c1.49-1.95,4.31-12.28,5.15-16A35.16,35.16,0,0,0,109.14,9.79ZM75.33,34.37a11.85,11.85,0,0,1-5,2.9,18.4,18.4,0,0,1-2.88,1,6.74,6.74,0,0,1-1.85,0c-.52-.06-.42-.75-.42-.75-.72-1.29-2.83-2.45-4-3.26a21.9,21.9,0,0,1-5.34-5.75c-1.07-2-.53-2.53.45-4.45,1-2.07,3.19-3.47,4.92-4.77a35.21,35.21,0,0,1,6.79-4.09c1.7-.75,3.76-1.57,5.61-1.06,1.46.4,2.23,1.93,2.68,3.4a32.91,32.91,0,0,1,1,6.12C77.63,27.24,77.77,31.63,75.33,34.37Z"/></g><g class="cls-18"><path class="cls-19" d="M85,52.74a10.77,10.77,0,0,0-2.08,2.88,65.37,65.37,0,0,0-2.8,6.68c.19-1.62.42-3.25.49-4.86.09-1.83-.94-3.12-1.86-4.53a21.85,21.85,0,0,0-3.29-4.09c-.57-.54-1.72-1.57-2.53-1a3.92,3.92,0,0,0-1.09,2.67c-.23,1.71-.32,3.43-.52,5.14-.17,1.53-.35,3-.47,4.58a101.35,101.35,0,0,1-1.21-13.71c-.12-2.41-.22-4.81-.24-7.22,0-.55,0-1.11,0-1.67l1-.38a15.24,15.24,0,0,0,3.75-1.81c2.11,3.45,4.25,6.89,6.46,10.26a47.61,47.61,0,0,0,4,4.44,12.28,12.28,0,0,0,1.72,1.59A14.67,14.67,0,0,0,85,52.74Z"/></g><g class="cls-20"><path class="cls-19" d="M107.69,8.73c-1.45-.3-3.45-.45-4.73.5s-1.43,3.14-1.69,4.57a37.15,37.15,0,0,0-.57,5.85A3.3,3.3,0,0,0,99.07,17c-2-1.07-4.35-1.32-6.47-2.15-1.24-.49-2.58-1-3.66.12s-1.72,2.86-2.6,4.26a19.16,19.16,0,0,0,.37-2.07,13.42,13.42,0,0,0,.1-3c-.17-1.75-.39-4.39-1.57-5.74-1.49-1.7-3,2-3.35,3.11-1,3.36.54,6.34,2,9.22-1.13-1.35-2-3-3.51-3.86-.48-.27-.57-.49-1-.05a1.88,1.88,0,0,0-.27.42c0-1.2,0-2.39.07-3.59,0-2.09.36-4.77-.31-6.78S76.69,4.75,75,5c-2.68.34-5.29,1.11-8,1.52s-5.57.15-8,1.32c-1.61.78-2.36,2.44-2.7,4.28-.43,2.28-.72,4.5-1.36,6.73s-1.49,4.94-.77,7.27a12.47,12.47,0,0,0,4,5.4,22.81,22.81,0,0,0,3,2.77c.51.36,1.22.8,1.91,1.29-.5-.24-1-.48-1.49-.74a15.22,15.22,0,0,0-4.13-1.64,3.8,3.8,0,0,0-3.33,1c-2.4,1.94-4.47,4.31-6.84,6.27a40.69,40.69,0,0,1-3.48,2.54,11.67,11.67,0,0,1-2.56,1.42c3.06-3.3,5.32-7.59,7.65-11.51a41,41,0,0,0,3.36-6.19c.35-.93,1-2.55.65-3.66A30.07,30.07,0,0,0,53,16.16c-.08-.77-.36-5-1.91-4.05a4.56,4.56,0,0,0-1.53,2.48,29.06,29.06,0,0,1-1.72,4c-.93,1.71-2,3.35-2.83,5.09-.31.61-.7,1.2-1,1.82a21.8,21.8,0,0,0-1.56-6.3c-1.11-2.51-2.43-4.92-3.6-7.4A26.38,26.38,0,0,0,37,8.32a5,5,0,0,0-1.63-1.76,3.7,3.7,0,0,0-3.46.21C29,8.23,26.77,11,24.59,13.44c-2.56,2.91-3.75,7-6.13,10l.4-1.11a25.66,25.66,0,0,0,1.51-5.25c.07-.55.47-3-.27-3.29-.3-.13-.59.08-.82.29a17.81,17.81,0,0,0-1.86,2c-1.16,1.47-2.16,3.08-3.25,4.61s-2.4,2.71-3.48,4.19c-1.45,2-1.4,4.72-1.06,7.31-.71-2.65-.55-5.5-.75-8.24A9,9,0,0,0,11,21.92a38,38,0,0,0,3.51-5,14.36,14.36,0,0,0,2.28-5.14c.13-.91.12-1.85.28-2.75.09-.53.9-2.78.9-2.78s3.33-.74,4.21-.87c2.35-.35,4.7-.73,7.05-1.09,3.84-.59,7.84-.23,11.7,0,2,.14,9.34.49,10.63,1.45.48.36,7-1.79,10-1.8s20.76-.8,26.44,1.93c.26.13,8.73-2.11,13-.86,2.91.86,5.61,1.58,7.95,3.75,0,.13,0,.27.06.4A5.34,5.34,0,0,0,107.69,8.73Z"/></g><g class="cls-18"><path class="cls-19" d="M8.58,23.68l-.18-.09a10,10,0,0,0,2.38-1.95A7.57,7.57,0,0,1,8.58,23.68Z"/></g><g class="cls-21"><path class="cls-13" d="M42.23,33.37A30.94,30.94,0,0,1,38.7,47.92a10.61,10.61,0,0,1-5.62,5,5.94,5.94,0,0,1-1.73.25c.26,0,.52-.1.77-.17A7.68,7.68,0,0,0,35,51.29c1.87-1.63,2.22-4,2-6.59a28.64,28.64,0,0,0-1.3-6.89c-.57-1.74-1.37-3.6-2.95-4.46a5.19,5.19,0,0,0-4.73,0c-1.91,1-2.36,3.43-2.84,5.56a36.53,36.53,0,0,0-.79,5.22c-.08,1-.15,1.92-.29,2.87a5.75,5.75,0,0,1-.28,1.45l0,0a50,50,0,0,0,.09-7c-.11-1.52-.35-3-.61-4.52a13,13,0,0,0-1.05-3.68c-1.25-2.39-3.28-2.74-5.52-1.93A25.85,25.85,0,0,0,12.57,33a7,7,0,0,1,.82-.75,30.31,30.31,0,0,1,3.7-2.49c2.07-1.12,4.38-1.3,5.68,1.15s1.4,5.41,1.56,8c0,.29,0,.59.05.88.09-1,.2-2.08.31-3.12.2-1.78.2-3.95,1.3-5.39a6,6,0,0,1,1.82-1.39c1.2-.7,2.45-1.33,3.67-2a26.29,26.29,0,0,1,7.26-3.22c1.43-.31,2.45.52,2.95,2a10.85,10.85,0,0,1,.43,2.84C42.18,30.8,42.26,32.07,42.23,33.37Z"/><g class="cls-18"><path class="cls-22" d="M75.33,34.37a11.85,11.85,0,0,1-5,2.9,18.4,18.4,0,0,1-2.88,1,4.34,4.34,0,0,1-.63.06,15.35,15.35,0,0,0,3-1.42c1.76-1.05,3.83-2.33,4.89-4.3A9.33,9.33,0,0,0,75.52,27a17.18,17.18,0,0,0-1.9-6.88,4.5,4.5,0,0,0-4.85-1.92c-4.42.71-9.33,2.41-12,6.61a4.78,4.78,0,0,0-.65,4.08l-.2-.34c-1.07-2-.53-2.53.45-4.45,1-2.07,3.19-3.47,4.92-4.77a35.21,35.21,0,0,1,6.79-4.09c1.7-.75,3.76-1.57,5.61-1.06,1.46.4,2.23,1.93,2.68,3.4a32.91,32.91,0,0,1,1,6.12C77.63,27.24,77.77,31.63,75.33,34.37Z"/></g></g><g class="cls-23"><path class="cls-24" d="M29,26.58c-.34.88-2.26,2.6-3.17,1.88a4.19,4.19,0,0,1-1.48-3.22c.08-4.46,6-2.14,4.65,1.34C28.65,27.59,29.3,25.88,29,26.58Z"/><path class="cls-24" d="M32.54,24.72c-.45,2.34-2.36.27-2.68-1-1.56-2.7,3.82-.81,2.68,1Z"/><path class="cls-24" d="M62,43.87c-1.61-.06-6.88-5.2-3.87-6.35A3,3,0,0,1,62,39c.37.76,1.52,4.88,0,4.83C60.77,43.83,62.47,43.88,62,43.87Z"/><path class="cls-24" d="M65.56,48.2a3.51,3.51,0,0,1-2.2-2c-.38-.81.08-3.07,1.11-3.12C65.89,43,67,48.39,65.56,48.2Z"/><path class="cls-24" d="M55,39.08c.3,2.06-2.72,1.94-2.18.2.36-1.15,2.68-1.8,2.18-.2C55.06,39.35,55.11,38.79,55,39.08Z"/><path class="cls-24" d="M49.63,29.3c-1,1.78-2.82-2.86-1.53-4.39.46-.54,2.45-1.23,2.65,0a7,7,0,0,1-1.12,4.42C49.38,29.76,50.38,28,49.63,29.3Z"/><path class="cls-24" d="M47.53,31.76c.09,1.47-1.34,2.91-1.59.75-.22-1.91,1.46-3.11,1.59-.75C47.54,31.88,47.52,31.48,47.53,31.76Z"/><path class="cls-24" d="M61.69,16.06c-.17,1.84-2.06,2.83-3.53,3s-1.51-1.89-1.36-2.93c.2-1.36.74-3.4,2.16-3.74,1.74-.41,2.89,2,2.73,3.65C61.52,17.88,61.81,14.8,61.69,16.06Z"/><path class="cls-24" d="M65.05,13.83c-.41,2.54-2.46,1.65-2.76-.41-.36-2.48,3.07-1.46,2.76.41C64.92,14.69,65.26,12.58,65.05,13.83Z"/><path class="cls-24" d="M69.06,13.43c-.45.18-2.73.08-1.7-1,1.43-1.58,2.93.57,1.7,1Z"/><path class="cls-24" d="M82.37,23.58c-.11,2.22-2.08,2.84-2.39.27-.38-3.12,2.5-2.75,2.39-.27C82.33,24.38,82.38,23.23,82.37,23.58Z"/><path class="cls-24" d="M80.06,26.93c.74,1.3-1.2,2-1.08.72-.4-1.37.39-1.92,1.08-.72C80.23,27.24,80.05,26.92,80.06,26.93Z"/><path class="cls-24" d="M77.47,61.7c-1.36,1.16-3.19-6.5-.81-7,1.34-.29,2.31,1.83,2.52,3a4.41,4.41,0,0,1-1.71,4Z"/><path class="cls-24" d="M80.48,53.77c.17,1.28-4.57.32-3.17-2.37,1.16-2.22,5.1.55,3.17,2.37C80.53,54.17,81.12,53.17,80.48,53.77Z"/><path class="cls-24" d="M78,49.43c-1.52.28-2.33-1.49-1.43-2.75,1.43-2,3.09,2.44,1.43,2.75Z"/><path class="cls-24" d="M75.9,45.83c-.55-.3-1.06-2.2-.11-2.31s1,2.83.11,2.31C75.62,45.68,76.23,46,75.9,45.83Z"/><path class="cls-24" d="M73.84,63.9c-.5,1.21-2-.23-1.51-1.27.63-1.5,1.9.3,1.51,1.27C73.74,64.13,73.93,63.67,73.84,63.9Z"/><path class="cls-24" d="M22.42,23.62a2.6,2.6,0,0,1-.31,2c-.3.49-1.59.9-1.94.27-.49-.88,1.88-3.26,2.25-2.27C22.63,24.16,22.31,23.33,22.42,23.62Z"/><path class="cls-24" d="M20.17,33.48c.95-.83,1.86,1.11.8,1.3-.7.13-1.78-1.12-.8-1.3C20.3,33.37,20,33.51,20.17,33.48Z"/><path class="cls-24" d="M43.77,53c1,.5-2.29,4-3.31,2.67-.57-.75.19-2,.71-2.5a2.27,2.27,0,0,1,2.6-.17Z"/><path class="cls-24" d="M38.77,53.55c.59-.5,1.62,2.77-.2,2.72-1.5,0-1.34-3.38.2-2.72C39,53.39,38.26,53.33,38.77,53.55Z"/><path class="cls-24" d="M37.34,56.42a1.06,1.06,0,0,1-.94,1.75c-1.48-.28.25-2.7.94-1.75Z"/><path class="cls-24" d="M36.19,58.88c0,.43-.78,1.34-1.14.78s1.11-1.52,1.14-.78C36.2,59.09,36.18,58.61,36.19,58.88Z"/><path class="cls-24" d="M48.62,52.34c1.18-.23.45,2-.54,2.09-.34.24-1.39.21-1-.5.31-.55.88-1.47,1.52-1.59C49,52.27,48.27,52.4,48.62,52.34Z"/><path class="cls-24" d="M46,54.6c.78-.06.51,1.29-.16,1.33-1,.07-.45-1.29.16-1.33Z"/><path class="cls-24" d="M13.19,26.27c-1.65-1.23-.36-3.4.72-4.45.74-.72,2.48-2.35,2.66-.25.14,1.7-1.15,6.35-3.38,4.7C12.15,25.49,15.46,28,13.19,26.27Z"/><path class="cls-24" d="M18.19,19.6c-.06,1.76-1.82.95-2-.3a1.65,1.65,0,0,1,.82-1.66c.93-.64,1.15,1.42,1.13,2C18.18,19.94,18.2,19.4,18.19,19.6Z"/><path class="cls-24" d="M39.51,17.83c-1.71.2-3.64-2-2.06-3.65,2-2.19,3.66,3.46,2.06,3.65C38.6,17.94,39.88,17.78,39.51,17.83Z"/><path class="cls-24" d="M38.85,11.54c.07,1.44-2.45,1.15-2.22-.52a2.63,2.63,0,0,1,1-1.68c1.11-.95,1.23,1.7,1.25,2.2C38.86,11.77,38.84,11.23,38.85,11.54Z"/><path class="cls-24" d="M94.94,18.32c-.27,1.81-3.87,3.07-3.58.84a5.49,5.49,0,0,1,1.7-3.2c1.08-1,2,1.49,1.88,2.36Z"/><path class="cls-24" d="M90.42,22.86c-.63-.06-1.35-.93-1-1.51,1.21-2.15,2.24,1.61,1,1.51Z"/><path class="cls-24" d="M104.17,21c-.25,1.3-1.49,1.47-2.12.39-.78-1.31-1.32-2.36-.68-4,.31-.79,1.63-2.54,2.3-1a8,8,0,0,1,.5,4.61Z"/><path class="cls-24" d="M104.51,25.22c-.29,2.18-2,.6-2.33-.56-.47-1.52,2.61-1.61,2.33.56C104.43,25.84,104.56,24.81,104.51,25.22Z"/><path class="cls-24" d="M105.87,17.59c-.33,1.59-1.4-1.17-1.39-1.6,0-.86,1-.7,1.29-.16a2.54,2.54,0,0,1,.1,1.76C105.77,18,105.93,17.25,105.87,17.59Z"/><path class="cls-24" d="M104.49,11.72c-1.74.22-3.22-3.24-1-3.8,1.81-.47,3.05,3.55,1,3.8Z"/><path class="cls-24" d="M107.05,10.11c-.54.46-1.56-.67-1.19-1.29.57-1,2,.65,1.19,1.29Z"/><path class="cls-24" d="M30.06,19.1c-.07,1.42-2.82.81-2.71-.86a2,2,0,0,1,1.57-1.63c.91-.28,1.17,1.92,1.14,2.49C30,19.48,30.1,18.46,30.06,19.1Z"/><path class="cls-24" d="M55.37,32.65c-.16.41-1,1.2-1.46.87A2,2,0,0,1,53.22,32c0-2.05,2.76-1,2.15.62C55.19,33.11,55.49,32.33,55.37,32.65Z"/><path class="cls-24" d="M57.05,36c-.21,1.08-1.08.13-1.23-.44-.72-1.24,1.76-.37,1.23.44Z"/><path class="cls-24" d="M64.84,33.9c-.45.82-1.3-1.31-.7-2,.21-.25,1.12-.56,1.21,0a3.21,3.21,0,0,1-.51,2Z"/><path class="cls-24" d="M70.39,27.81a1.76,1.76,0,0,1-1.63,1.39c-.67.09-.7-.87-.63-1.34.1-.63.35-1.57,1-1.72.8-.19,1.33.92,1.26,1.67S70.44,27.23,70.39,27.81Z"/><path class="cls-24" d="M60.19,28.63c-.79.09-1.68-.91-.95-1.68.94-1,1.68,1.59.95,1.68Z"/><path class="cls-24" d="M59.88,25.73c0,.67-1.13.53-1-.23a1.23,1.23,0,0,1,.44-.78c.52-.43.57.79.58,1S59.87,25.59,59.88,25.73Z"/><path class="cls-24" d="M35.23,22.28c0,.65-1.3.37-1.25-.4a.9.9,0,0,1,.72-.75c.42-.13.54.89.53,1.15S35.24,22,35.23,22.28Z"/></g><path class="cls-25" d="M77.34,23.41a8.5,8.5,0,0,1-.3-1,31.29,31.29,0,0,0-1.71-5.28c-.84-2-3.56-1.38-5.12-.92-3.84,1.13-7.88,2.51-11.24,4.9,0,0,0,0,0,0a19.83,19.83,0,0,1,6-4.1,28.12,28.12,0,0,1,6.68-3c1.22-.27,2.89-.14,3.63,1.09C76.65,17.48,77.17,20.83,77.34,23.41Z"/><g class="cls-26"><path class="cls-27" d="M22.56,16.31a25.66,25.66,0,0,1,.63,3.81c.2,1.5.38,3,.56,4.51.36,3.16.66,6.32.83,9.49a135.69,135.69,0,0,1-.34,14.68l-.36-.3c0-4.92.42-9.82,0-14.76-.25-2.87-.51-5.75-.83-8.61-.28-2.56-.74-5.14-.85-7.72-.59,1.45-1.39,2.85-2.07,4.24A46.61,46.61,0,0,1,14.67,30C13.83,31,12.94,32.09,12,33.09a7.38,7.38,0,0,1-1.53,1.36c-.06-.11-.12-.21-.17-.32C12,33,13.33,31,14.58,29.38a51.23,51.23,0,0,0,5.27-8.84c.62-1.29,1.3-2.57,1.84-3.9a19.59,19.59,0,0,0,1-4.57c.34-2.33.86-4.62,1.26-6.94l.35,0c-.25,2.61-.83,5.19-1.18,7.79A24.25,24.25,0,0,1,22.56,16.31Z"/><path class="cls-27" d="M71.21,59.43c-.34-4-.86-7.9-1.15-11.87a42.94,42.94,0,0,1-.18-5.44,14.62,14.62,0,0,0-.14-4.23,18.75,18.75,0,0,0,3.56-1.42,6.28,6.28,0,0,0,.75-.48c1,1.38,1.75,2.95,2.68,4.39,1,1.62,2.07,3.24,3.12,4.84,1.67,2.55,3.65,5.18,6.2,6.65l.49-.34a35.1,35.1,0,0,1-7.13-7.59c-1.11-1.69-2-3.54-3-5.32a17.34,17.34,0,0,0-1.52-2.92c.24-.24.48-.48.73-.71a.82.82,0,0,0,.38-.38,42.32,42.32,0,0,0,5-5.36,41.63,41.63,0,0,0,2.55-4.08c.74-1.32,1.59-2.59,2.21-4,1.13-2.49,1.38-5.41,1.73-8.14.18-1.47.49-2.94.59-4.42a12.16,12.16,0,0,0,2.41,1.76c1.16.76,2.42,1.31,3.63,2S96.76,13.73,98,14.5c.62.38,1.36,1.25,2.08,1.39.08,1.79.21,3.57.4,5.35.33,3.16.61,6.33,1.07,9.47.23,1.51.49,3,.86,4.5.16.64.33,1.32.55,2l.3-.28.06-.09a24.81,24.81,0,0,1-.78-2.75c-.29-1.5-.49-3-.63-4.54-.26-2.91-.54-5.83-.81-8.74a86.41,86.41,0,0,1-.42-9.52c0-2.1,0-4.18.15-6.26l-.19,0-.18,1.54c-.17,1.46-.41,2.91-.44,4.39s0,3,0,4.49A23.45,23.45,0,0,0,97.55,14L94,12a38,38,0,0,1-3.67-2.53,14.18,14.18,0,0,0-2.16-1.7c0-.61,0-1.21,0-1.8h-.06c-.17-.08-.35-.16-.54-.23,0,.82-.05,1.64-.11,2.45-.1,1.41-.37,2.78-.55,4.17-.35,2.76-.56,5.68-1.6,8.25-.15.36-.32.72-.49,1.07a13.43,13.43,0,0,0-1.07-1.31c-.64-.86-1.28-1.73-1.86-2.64s-1-1.6-1.44-2.41c-.27-.48-.52-1-.8-1.52,0-.92,0-1.84-.07-2.77-.08-1.51-.19-3-.21-4.53,0-.76,0-1.5.1-2.24l-.84-.06a39.68,39.68,0,0,0,.12,5.36,62.26,62.26,0,0,1,.09,8.85c-.14,1.47-.43,2.91-.57,4.37s-.25,3.19-.47,4.77c-.26,1.92-.36,4.15-1.16,5.92A19.84,19.84,0,0,1,72.73,36a23.21,23.21,0,0,1-3.3,1.28l-1.88.59c-.77.24-1.12.42-1.84-.08l-.27-.19A18.68,18.68,0,0,0,63.59,36c-1.37-1.08-2.71-2.19-4-3.36C57.24,30.57,55,28.3,54.18,25c-.14-.57-.25-1.15-.37-1.73s-.3-.92-.36-1.41a14.39,14.39,0,0,1,0-1.61c0-.63,0-1.25,0-1.88,0-1.19-.11-2.39-.19-3.59-.15-2.24-.31-4.49-.6-6.71-.09-.76-.2-1.52-.34-2.27a1.65,1.65,0,0,1-.66,0,4.17,4.17,0,0,1,.06.43c.14,1.22.34,2.42.52,3.63a65.55,65.55,0,0,1,.53,10.48,20.37,20.37,0,0,1-.37,4.75,18.35,18.35,0,0,1-1.85,4.45c-.8,1.44-1.59,2.89-2.42,4.31-1.41,2.39-2.9,4.73-4.49,7,.2-3.4.35-6.79.6-10.18.13-1.73.31-3.51.28-5.25a28.66,28.66,0,0,0,1.7-4c.79-2.2,1.85-4.38,2.46-6.66.54-2,1.22-3.88,1.77-5.85a14.66,14.66,0,0,0,.63-3.23.86.86,0,0,0,0-.16,3.68,3.68,0,0,0-.43-.13C50.23,8.7,49,11.8,48.08,15c-.61,2.12-1.38,4.18-2.18,6.21a17.88,17.88,0,0,1-1.46,3.08,24.36,24.36,0,0,0-1-4.63C42.41,16.11,41,12.75,40,9.2c-.4-1.58-.7-3.31-1.1-5l-.51,0c0,.15.09.3.12.45.4,1.67.74,3.35,1.19,5,.9,3.2,2.19,6.25,3.07,9.45,2,7.19.24,14.75.56,22.12-.34.47-.67,1-1,1.42a65.21,65.21,0,0,1-6.6,7.89,8.75,8.75,0,0,1-3.34,2.31,14.15,14.15,0,0,1-1.93.43l.23.26a7.58,7.58,0,0,0,4.68-1.82,53.62,53.62,0,0,0,7.26-8.32,91.07,91.07,0,0,0,6.21-9.45c.87-1.51,1.74-3,2.54-4.6a13.26,13.26,0,0,0,1.49-3.78c0-.17.1-.34.14-.51l0,0s0,.05,0,.08a.38.38,0,0,0,.13.15c.35.22.74,1.76,1,2.19a11.86,11.86,0,0,0,1.18,1.9,27.5,27.5,0,0,0,3.53,3.7,42.21,42.21,0,0,0,4.16,3.31l.67.49c.63.54,1.29,1,1.92,1.55s.53.54,1.1.37L69,38.11l.33-.1a41.33,41.33,0,0,1,.06,5.22c0,1.72.18,3.45.27,5.17.15,2.82.21,5.66.56,8.46v0l0,.25a15.64,15.64,0,0,1-1.2,2.37c-.69,1.13-1.5,2.18-2.17,3.32-1.28,2.16-2.17,4.54-3.5,6.67C61.21,73,60,75.75,57.46,78.9l.22.11h.6c2.79-3,4-6.11,6-9.74,1.48-2.77,2.59-5.71,4.34-8.28a30.71,30.71,0,0,0,1.85-2.75c.07.42.15.85.24,1.27ZM84.46,22.27c-.51,1-1.08,1.9-1.57,2.86a28.88,28.88,0,0,1-2.78,4.65,24.56,24.56,0,0,1-3,3.19A19.58,19.58,0,0,0,78,28.55c.23-1.52.34-3.06.53-4.59.16-1.33.44-2.62.64-3.94q.34-2.39.45-4.77A19.76,19.76,0,0,0,81,17.51c.62.89,1.28,1.74,1.93,2.6C83.43,20.8,83.91,21.6,84.46,22.27Z"/></g><path class="cls-28" d="M109.05,9.21h0c0-.13,0-.27-.06-.4-2.34-2.17-5-2.89-7.95-3.75l-.2,0-.19,0-.25,0L100,4.84l-.49-.06-.42,0-.52,0h-.44c-.18,0-.37,0-.55,0h-.45l-.58,0-.44,0-.62,0-.41,0-.75.09-.26,0-1,.13-.35,0-.6.09-.41.07-.48.08-.39.07-.44.08-.33.06-.46.09-.23,0-.53.1-.2,0-.21,0-.15,0-.12,0h-.11c-.17-.08-.35-.16-.54-.23h0c-.23-.09-.47-.17-.73-.25l-.17,0c-.2-.07-.41-.12-.62-.18l-.27-.07L85.14,5l-.29-.06-.68-.13-.27,0c-.31,0-.63-.11-1-.15h0l-1-.14-.3,0-.78-.08-.39,0-.74-.07-.22,0-.23,0-.39,0-.22,0h-.21l-.9-.06-.34,0C76.34,4,75.53,4,74.72,4l-.38,0-.86,0H63.56l-.85,0H61.64l-.57,0h-.2l-.44,0-.23,0-.46.06-.24,0L59,4.3l-.19,0c-.5.09-1,.2-1.53.32l-.09,0-.7.16-.1,0c-1.15.27-2.24.54-3.09.73l-.22,0-.27.05-.21,0-.22,0-.14,0-.28,0h-.1l-.17,0s-.06,0-.07,0l-.28-.15-.13-.06-.13,0L51,5.5l-.22-.07-.1,0-.17-.05-.24-.06-.35-.07-.25,0-.53-.09L48.71,5,48.29,5l-.37,0-.37,0-.4,0-.37,0-.41,0-.37,0-.4,0-.39,0-1-.09h0l-.47,0-.24,0-.47,0h-.18l-.46,0H42.2l-.67,0H41.4l-.43,0-2.3-.15-.24,0h0l-2.13-.11H36C35.31,4,34.67,4,34,4h-.25c-.67,0-1.34,0-2,.06l-.45,0c-.69.05-1.37.11-2.05.22-2.35.36-4.7.74-7,1.09-.88.13-4.21.87-4.21.87s-4.82,9.17-7.45,14.29a11.71,11.71,0,0,1-2.16,3,2.38,2.38,0,0,1,.42.25.12.12,0,0,1,.06.09c0,.4,0,.79.07,1.19,0,.15,0,.31,0,.46,0,.37,0,.75,0,1.12,0,.17,0,.35,0,.53l0,.7,0,.51c0,.22,0,.44.05.66s0,.37,0,.56.08.65.13,1,.06.43.1.65l.12.52c0,.14.06.28.1.42a.22.22,0,0,1,0-.08,10.92,10.92,0,0,0,.56,1.67,3,3,0,0,0,.15.32l0,0a1.86,1.86,0,0,0,.1.2.25.25,0,0,0,0,.07.43.43,0,0,0,0,.07l0,0a1.29,1.29,0,0,0,.09.16l0,0h0l.1.15.31.49c.1.13.19.27.29.41l.46.63.46.59.56.69.42.49.54.62.44.5q.38.42.78.84c.18.19.36.39.55.58s.49.52.75.78l.5.51.68.69.49.48,1,1,.49.46c.25.25.51.49.77.72l.51.47.68.61.49.44,1,.88.42.35.37.3h0l0,0h0l.07,0,.36.3h0l.11.09.87.68.29.21.63.45.25.17c.26.18.51.34.73.47a11.84,11.84,0,0,1,3.35,2.37c.59.68,1.61,1.52,1.67,2.48,0,.09,0,.18,0,.28l0,0,0,.08c0,.11,0,.23.07.34a.74.74,0,0,0,0,.14,6.32,6.32,0,0,0,.27.76l0,.08a11.05,11.05,0,0,0,.79,1.46l.1.22a8.42,8.42,0,0,0,1.33,2.66c.74.74,2.4,3.69,5.35,6.09a38.14,38.14,0,0,1,5.72,6.27s5.17,2.4,5.91,3.14,5.72,1.84,6.45,1.84,1.11.19,3,.37c1.57.16,1.75-.32,1.77-.47h0c2.52-5.5,5.36-11.34,10.28-14.67a.57.57,0,0,0,.5-.33c.35-.22.71-.42,1.07-.61a46,46,0,0,1,5.37-2.11l-.12,1c.15-.37.29-.74.44-1.12a19.37,19.37,0,0,0,2-.89C87,58,90.16,53.73,92,49.1c.33-.82.61-1.66.87-2.5,2.65-2.42,5.17-5,7.87-7.37l1.17-1.06,1.34-1.26.06-.09.08-.13.2-.33a1.74,1.74,0,0,1,.1-.19l.22-.47.09-.21c.09-.19.17-.38.26-.59a2,2,0,0,1,.08-.22l.27-.7a2,2,0,0,0,.08-.22c.1-.26.19-.53.29-.81,0-.07,0-.15.08-.22l.3-.89.06-.21c.11-.32.21-.64.31-1l.06-.21c.11-.33.21-.66.31-1a2.17,2.17,0,0,0,.07-.24l.3-1,.06-.24.29-1c0-.1,0-.19.08-.29.08-.31.17-.61.25-.91l.09-.32c.07-.28.15-.56.22-.83s.07-.26.1-.4.13-.47.19-.7l.09-.37c.06-.21.11-.43.16-.63l.11-.44c0-.15.08-.32.11-.46s.13-.53.18-.76a35.16,35.16,0,0,0,.72-11.11C109.12,9.6,109.08,9.4,109.05,9.21ZM60.48,74.32v0s0,0,0,.08l0,.06A.57.57,0,0,1,60.48,74.32Z"/></g></g></svg>