<svg id="Layer_1" data-name="Layer 1" xmlns="http://www.w3.org/2000/svg" viewBox="0 0 137.88 106.98"><defs><style>.cls-1{fill:red;}</style></defs><path class="cls-1" d="M5.56,25.27a24.11,24.11,0,0,0,3.65,4.94l1,1,.32.29.79.69.17.14c0,.18,0,.37,0,.61,0,.48.07.95.12,1.42s.09.7.14,1,.11.56.16.83.11.54.17.81.1.39.16.57a18.26,18.26,0,0,0,.82,2.4c.11.25.23.53.36.8l.1.2s.26.49.29.54l.3.52,0,0a4.37,4.37,0,0,0,.25.4c.14.23.3.47.48.74l.37.54c.21.29.43.58.64.85l.59.76.67.82.51.59.63.71.47.53.86.92.58.61.82.84.53.54,1.25,1.23,1.06,1,1.36,1.25.35.32,1.47,1.3,1.1.94.85.7.74.59,1,.8.36.27.87.61.38.26c.46.3.89.57,1.29.8l.55.31c.1.31.21.6.32.87l.15.34a20.55,20.55,0,0,0,1.66,3c1,1.47,2,2.78,3,3.94.4.49.78,1,1.12,1.41a64,64,0,0,0,7.38,8,41.55,41.55,0,0,0,6.3,4.86c.26.5.5,1,.72,1.39l.19.35,1,1.8,1.08,1.85,1.43,2.38s2,3.23,2,3.23l1.7,2.57.78,1.11.7.92.36.46.13.15.31.36.32.34.18.18.36.35a11.38,11.38,0,0,0,1.31,1,12,12,0,0,0,1.54.87l.52.22c.21.1.44.18.68.27l.39.13.47.15.36.1.58.15.07-.27.12.06-.05.24.53.12.7.14.62.11.63.1.59.08,1.24.15a9.6,9.6,0,0,0,1.94.19,10.19,10.19,0,0,0,1.65-.13l1.08-.18a10,10,0,0,0,8-7.07l4.78-16.43.3-.35c.27-.32.52-.63.76-.94a70.6,70.6,0,0,0,6.24-10.21l.4-.79,1.21-2.47c.14-.29.29-.56.45-.85l.16-.32c.16-.28.3-.52.44-.72l.15-.23s.42-.24.57-.31l1.15-.62c.61-.33,1.28-.7,2-1.14a91.18,91.18,0,0,0,8.08-5.9c1.52-1.2,3-2.34,4.39-3.36.5-.35,1-.72,1.49-1.1s1-.76,1.49-1.15a10.63,10.63,0,0,0,1.26-1.16c.1-.11.21-.23.31-.36s.27-.32.41-.51.37-.48.57-.79c.09-.13.18-.27.25-.39s.32-.5.44-.73.16-.27.22-.38.28-.51.42-.78l.15-.31.41-.84.48-1s.4-.91.52-1.21c0,0,.37-.87.5-1.21,0,0,.35-.85.46-1.15l.47-1.19.45-1.2.43-1.17L131,34.2l.59-1.75.3-1a38.71,38.71,0,0,0,1.67-13.7c0-.32-.06-.64-.1-.95s-.06-.56-.11-.84a10,10,0,0,0-3.12-5.77c-3.81-3.49-7.94-4.77-11.26-5.8l-.37-.12-.45-.13-.4-.11L117,3.91l-.64-.13-.85-.14-.12,0-.63-.08-.8-.08-.71,0-.78,0-.62,0h-1.41l-1.3,0-1,.05-.31,0-1.21.09-1.12.11-1.87.21-.58-.17-.38-.1-.88-.22-.37-.09-.89-.19L100.2,3l-1.15-.22H99L97.73,2.6l-.23,0v.09h-.13V2.55l-1-.13-1.51-.19L92.39,2c-.89-.08-1.78-.15-2.68-.21L88.4,1.67,87,1.58l-2.72-.13-2.49-.09-5.6-.15H74.68l-.71,0-.31,0-1.11.1-.92.11-1.83.26-.89.15-2.12.36-.17,0-1-.23-.77-.15-1.06-.19L63,1.51,61.6,1.32l-2.26-.27L55.9.7,53.31.43,51,.22l-.35,0c-.76-.06-1.52-.1-2.26-.14H48c-.66,0-1.31,0-2,0h-.54L44.9,0C43.84,0,43,.09,42.12.17l-3,.29L35,.86,34.1,1l-.67.1-1.11.19L31.19,1C30.51.88,29.83.76,29.14.67L28.79.62C27,.38,25.3.25,23.78.13l-.46,0c-.51,0-1.08,0-1.67,0h-.16A30.68,30.68,0,0,0,17.71.3l-.39.06L16.16.53,15.7.6,14.47.82,14,.91l-1.68.34a10,10,0,0,0-5.18,3A12.36,12.36,0,0,0,6,5.77a3,3,0,0,0-.21.33c-.1.16-.2.34-.3.52l-.3.56c-.05.11-.11.23-.15.33s-.16.36-.24.55l-.17.44-.14.4c0,.12-.09.25-.13.39l-.1.35c0,.13-.1.36-.14.5l-.21.94c0,.09-.06.31-.06.31l-.14.84c0,.25-.07.49-.1.74,0,0-.1.86-.1.87-.11,1.17-.15,2.28-.18,3.08,0,.29,0,.55,0,.75v.08a10.06,10.06,0,0,0,1.18,5.56l.36.65c.13.24.27.48.41.7S5.44,25.06,5.56,25.27Zm7.67-6.85c.06-.76.07-2.21.2-3.65v0l.06-.51v-.06c0-.16,0-.32.07-.47s0-.06,0-.1l.06-.31a.59.59,0,0,1,0-.14s0-.06,0-.08a1.42,1.42,0,0,1,.05-.22,1.06,1.06,0,0,1,0-.19s0-.07,0-.1,0-.1.05-.15l.06-.21,0-.11a1,1,0,0,0,0-.1,1.8,1.8,0,0,1,.08-.21h0a1.17,1.17,0,0,1,.05-.11.08.08,0,0,1,0,0l.12-.22h0s0-.06,0-.08v0A2.27,2.27,0,0,1,14.5,11l1.46-.3.38-.07,1-.18.38-.06,1-.15.27,0A20.28,20.28,0,0,1,21.56,10h.09c.31,0,.61,0,.88,0,1.62.13,3.33.25,5,.48h0l.16,0c.53.08,1,.16,1.56.27h0l.37.08h0l.67.15.1,0c.38.1.76.21,1.13.33h.12a26.21,26.21,0,0,0,2.77-.4l.45-.08.1,0,.46-.07h0a3.19,3.19,0,0,1,.37,0c2.4-.22,4.79-.47,7.19-.7.68-.06,1.38-.09,2.07-.11h.46c.68,0,1.36,0,2,0h.24l2,.12.32,0c.72.06,1.44.12,2.16.2h.18l2.38.25,1.19.12.24,0,.36,0,.29,0,.4.05.29,0,.43,0,.7.08.36,0,.41.05.4,0,.39.05.39,0,.39.06.38.05.4.06.35.06.44.07.35.07.55.11.25.05.35.09.23.06.18,0,.1,0,.22.07.11,0,.13.05.12.06a1.77,1.77,0,0,1,.28.15l.07,0,.18,0h.38l.14,0,.22,0,.22,0,.28,0,.21,0,3.18-.54h.08l.72-.12h.09c.53-.09,1-.16,1.56-.23l.21,0,.52-.06.25,0,.46,0,.24,0,.45,0h.2a5.61,5.61,0,0,1,.58,0h1.09l1.69,0h1.75l.76,0h.37l.85,0h.38l.74,0h.4l.84,0,.32,0,1.16.05.31,0,.9,0,.4,0,.88.06.37,0,2.46.2.34,0,.91.09.21,0,.22,0,.39,0,.24,0,.22,0,.74.09.39.06.79.11.29,0,1.06.17h0l1,.18.26.06.68.15.3.07.6.15.27.07c.21.06.42.12.61.19l.18.05.72.27h0l.53.24h.39l.22,0,.2,0,.76-.1h0l.51-.07.3,0,.49-.06.36,0,.53-.06.38,0,.65-.07.32,0,1-.07.25,0,.78,0,.39,0h2.14l.56,0,.44,0,.53.05.42,0,.49.08.39.08.24.06.2.05.2.06c2.9.9,5.59,1.67,7.86,3.75,0,.12,0,.24,0,.36h0c0,.18,0,.35.06.53a28.93,28.93,0,0,1-1.25,10.07l-.22.69s0,.1,0,.14q-.11.32-.21.66c0,.13-.09.27-.14.4s-.11.33-.17.51-.12.36-.19.54l-.15.43c-.08.24-.17.49-.26.73s-.07.2-.11.31-.18.51-.28.76l-.11.32-.33.87c0,.08-.06.15-.08.22l-.35.9-.08.2c-.12.3-.23.59-.35.88l-.08.21c-.12.28-.23.55-.35.82l-.09.23c-.11.27-.23.53-.34.79l-.09.2-.32.71-.1.21c-.1.22-.2.42-.3.62s-.07.14-.1.2l-.28.52c0,.07-.07.14-.11.2a4.66,4.66,0,0,1-.25.4,1,1,0,0,1-.11.17,2.59,2.59,0,0,1-.21.3l-.09.11-.06.08L114.9,44c-.41.31-.82.62-1.24.91-4,2.9-7.76,6.28-12,8.94-.45.29-.92.55-1.4.8l-1.18.64-.69.38h0a13.86,13.86,0,0,0-1.31.84,10.08,10.08,0,0,0-2.24,2.54c-.32.47-.61,1-.89,1.46-.08.14-.15.29-.22.43-.2.37-.4.73-.59,1.11a.61.61,0,0,1-.07.14c-.35.73-.71,1.46-1.07,2.18-.1.21-.2.42-.31.63h0a.8.8,0,0,1-.08.16,60.82,60.82,0,0,1-5.3,8.75l-.45.55-.11.13-.75.86-.08.08-.32.39-.37.45,0,0v.06L78.79,94.89l-1.07.18v0h-.18L77,95h0l-.33,0h0l-.34,0h0l-.4-.05h0l-.37,0h-.08l-.37-.06-.09,0h0l-.37-.06-.09,0-.34-.06-.11,0-.31-.07-.11,0h0l-.28-.08-.11,0L73,94.24l-.11,0-.21-.08h0l-.08,0h0a1,1,0,0,1-.23-.13.74.74,0,0,1-.12-.09l0,0-.08-.08h0l0,0-.1-.11-.08-.09a.86.86,0,0,1-.07-.1l0,0h0l0,0,0-.06-.12-.15-.1-.14-.06-.09,0-.06h0l0-.06-.06-.08-.13-.18L71,92.28l-.06-.09-.07-.09v0l0,0,0-.08,0-.07-.15-.22c0-.06-.09-.12-.13-.19l0-.08-.08-.11,0,0,0,0-.06-.1,0-.08L70,90.85l-.15-.23,0-.06-.08-.13,0-.05,0,0-.07-.12,0-.06-.17-.25-.15-.24,0-.06-.08-.12,0-.07,0-.07-.08-.12,0-.06-.15-.24-.17-.28,0,0-.08-.14,0-.07-.06-.09-.08-.14,0-.05c0-.08-.09-.16-.14-.24l-.19-.29,0,0-.06-.1-.06-.1-.08-.14-.08-.11,0-.06-.12-.19-.21-.35v0l0-.07,0-.08L67,86.17,66.94,86l0,0-.09-.14c-.08-.13-.16-.26-.23-.4l0,0,0,0-.16-.26L66.29,85v0l0-.05a.75.75,0,0,1-.07-.12l-.05-.08-.28-.47-.28-.47-.12-.21-.18-.3c-.1-.18-.2-.34-.29-.51s-.1-.16-.14-.24l-.1-.18c-.1-.16-.18-.31-.27-.46s-.11-.21-.17-.3a2.12,2.12,0,0,0-.11-.21L64,81.06a1,1,0,0,0-.08-.14l0,0-.23-.42c-.53-1-1.22-2.36-1.92-3.76a39.22,39.22,0,0,1-7-5.06A54,54,0,0,1,48.51,65c-1.09-1.46-2.62-3.17-3.7-4.82h0a10.28,10.28,0,0,1-.88-1.6s0,0,0-.08a6.35,6.35,0,0,1-.23-.7l0-.12a3.25,3.25,0,0,1-.09-.67,1.54,1.54,0,0,0,0-.31s0-.07,0-.11a1.46,1.46,0,0,0-.07-.19.75.75,0,0,0-.07-.12,1,1,0,0,0-.1-.17L43.13,56a1.83,1.83,0,0,0-.13-.16l-.09-.12-.15-.17-.09-.1-.18-.2-.07-.07c-.16-.17-.32-.33-.45-.48a12,12,0,0,0-3.27-2.3c-.22-.12-.46-.28-.72-.45l-.25-.17-.61-.43-.29-.21L36,50.44l-.11-.09h0l-.35-.29L35.45,50h0l0,0h0l-.35-.29-.41-.34-1-.84-.48-.42-.65-.58-.5-.46-.74-.68-.48-.44-1-.93-.48-.47-.65-.65-.49-.48-.71-.74L27,42.11l-.74-.81c-.15-.15-.29-.31-.42-.46l-.52-.59-.4-.47q-.29-.33-.54-.66l-.43-.54c-.16-.2-.31-.4-.44-.6s-.18-.25-.27-.38-.2-.31-.29-.46l-.1-.14h0l0,0-.09-.16v0l0-.07,0-.07-.09-.18a.08.08,0,0,1,0,0c-.05-.1-.1-.2-.14-.3a8.77,8.77,0,0,1-.49-1.53s0,0,0,.07c0-.13-.05-.26-.08-.39s-.07-.32-.09-.48-.06-.4-.08-.6-.06-.59-.08-.88l0-.51c0-.2,0-.4,0-.6s0-.31,0-.47v-.64c0-.16,0-.32,0-.48,0-.34,0-.68,0-1,0-.14,0-.28,0-.42,0-.36,0-.72,0-1.08,0,0,0-.06-.06-.09l0,0a.52.52,0,0,0-.11-.07l0,0-.21-.12,0,0-.15-.07-.2-.12-.23-.13-.16-.09-.3-.19a1.19,1.19,0,0,1-.15-.09l-.45-.3-.19-.14-.41-.3-.19-.14c-.2-.16-.41-.32-.63-.51l-.17-.14-.57-.5L17,23.82c-.26-.24-.53-.49-.81-.77a19.32,19.32,0,0,1-2.5-3.65c-.09-.13-.16-.27-.24-.41h0l0,0,0,0-.2-.37S13.23,18.46,13.23,18.42Z"/></svg>