<svg xmlns="http://www.w3.org/2000/svg" xmlns:xlink="http://www.w3.org/1999/xlink" viewBox="0 0 498.35 418.59"><defs><style>.cls-1,.cls-40{fill:none;}.cls-2{isolation:isolate;}.cls-3{fill:#1f383a;}.cls-4{fill:#1a2f30;}.cls-5{fill:#49e017;stroke:#000f38;}.cls-11,.cls-12,.cls-13,.cls-14,.cls-15,.cls-16,.cls-17,.cls-18,.cls-19,.cls-20,.cls-21,.cls-22,.cls-23,.cls-24,.cls-40,.cls-5{stroke-miterlimit:10;}.cls-6{fill:#3e6370;}.cls-7{fill:#a3b8c6;}.cls-8{fill:#87a0ad;}.cls-9{fill:#264047;}.cls-10{fill:#0f1119;}.cls-11,.cls-12,.cls-13,.cls-14,.cls-15,.cls-16,.cls-17,.cls-18,.cls-19,.cls-20,.cls-21,.cls-22,.cls-23,.cls-24{fill:#cacaff;stroke-width:0.25px;}.cls-11{stroke:url(#radial-gradient);}.cls-12{stroke:url(#radial-gradient-2);}.cls-13{stroke:url(#radial-gradient-3);}.cls-14{stroke:url(#radial-gradient-4);}.cls-15{stroke:url(#radial-gradient-5);}.cls-16{stroke:url(#radial-gradient-6);}.cls-17{stroke:url(#radial-gradient-7);}.cls-18{stroke:url(#radial-gradient-8);}.cls-19{stroke:url(#radial-gradient-9);}.cls-20{stroke:url(#radial-gradient-10);}.cls-21{stroke:url(#radial-gradient-11);}.cls-22{stroke:url(#radial-gradient-12);}.cls-23{stroke:url(#radial-gradient-13);}.cls-24{stroke:url(#radial-gradient-14);}.cls-25,.cls-36{fill:#fff;}.cls-25,.cls-35{mix-blend-mode:overlay;}.cls-25{opacity:0.2;}.cls-26{fill:#648793;}.cls-27,.cls-31{mix-blend-mode:multiply;}.cls-27,.cls-35{opacity:0.5;}.cls-28{fill:#002e72;}.cls-29{fill:#00388e;}.cls-30{fill:#00273d;}.cls-32{fill:#007dc6;}.cls-33{fill:#fff53b;}.cls-34{fill:#f9ff00;}.cls-37{fill:#ffec00;}.cls-38{fill:#07395b;}.cls-39{fill:#e2ba13;}.cls-40{stroke:#293459;}.cls-41{clip-path:url(#clip-path);}.cls-42{fill:#d5e6ad;}.cls-43{fill:#3b3b4c;}.cls-44{fill:#4e4d62;}.cls-45{fill:#2d5e63;}.cls-46{opacity:0.29;fill:url(#radial-gradient-15);}.cls-47,.cls-48,.cls-49,.cls-50,.cls-51{opacity:0.39;}.cls-47{fill:url(#linear-gradient);}.cls-48{fill:url(#linear-gradient-2);}.cls-49{fill:url(#linear-gradient-3);}.cls-50{fill:url(#linear-gradient-4);}</style><radialGradient id="radial-gradient" cx="144.57" cy="139.69" r="1.95" gradientTransform="translate(11.9 63.65) rotate(-0.58)" gradientUnits="userSpaceOnUse"><stop offset="0" stop-color="#dedede"/><stop offset="0.27" stop-color="#dbdbdb"/><stop offset="0.44" stop-color="#d3d3d3"/><stop offset="0.58" stop-color="#c4c4c4"/><stop offset="0.71" stop-color="#afafaf"/><stop offset="0.83" stop-color="#949494"/><stop offset="0.94" stop-color="#747474"/><stop offset="1" stop-color="#5e5e5e"/></radialGradient><radialGradient id="radial-gradient-2" cx="128.19" cy="147.7" r="1.95" xlink:href="#radial-gradient"/><radialGradient id="radial-gradient-3" cx="111.21" cy="159.33" r="1.95" xlink:href="#radial-gradient"/><radialGradient id="radial-gradient-4" cx="159.98" cy="134.73" r="1.95" xlink:href="#radial-gradient"/><radialGradient id="radial-gradient-5" cx="178.8" cy="129.76" r="1.95" xlink:href="#radial-gradient"/><radialGradient id="radial-gradient-6" cx="199.18" cy="126.63" r="1.95" xlink:href="#radial-gradient"/><radialGradient id="radial-gradient-7" cx="221.39" cy="124.27" r="1.95" xlink:href="#radial-gradient"/><radialGradient id="radial-gradient-8" cx="240.98" cy="123.75" r="1.95" xlink:href="#radial-gradient"/><radialGradient id="radial-gradient-9" cx="260.06" cy="124.01" r="1.95" xlink:href="#radial-gradient"/><radialGradient id="radial-gradient-10" cx="282.79" cy="126.1" r="1.95" xlink:href="#radial-gradient"/><radialGradient id="radial-gradient-11" cx="304.74" cy="129.76" r="1.95" xlink:href="#radial-gradient"/><radialGradient id="radial-gradient-12" cx="325.9" cy="134.2" r="1.95" xlink:href="#radial-gradient"/><radialGradient id="radial-gradient-13" cx="347.33" cy="142.56" r="1.95" xlink:href="#radial-gradient"/><radialGradient id="radial-gradient-14" cx="367.19" cy="154.06" r="1.95" xlink:href="#radial-gradient"/><clipPath id="clip-path"><path class="cls-1" d="M120.46,221.76c8.37,4.56,150.36,69.75,270.38-6.66l-38-139.87c-8.68-31.85-39.37-56.81-78.54-63.1-1.16-.19-2.33-.37-3.51-.53-53.55-7.42-104.42,22-115,65.58Z"/></clipPath><radialGradient id="radial-gradient-15" cx="275.33" cy="125.95" r="127.35" gradientTransform="matrix(1.01, 0, 0, 1, -22.86, 4.02)" gradientUnits="userSpaceOnUse"><stop offset="0.15" stop-color="#518ee0"/><stop offset="0.3" stop-color="#5192e1"/><stop offset="0.46" stop-color="#4f9fe2"/><stop offset="0.63" stop-color="#4db5e5"/><stop offset="0.8" stop-color="#4ad3e9"/><stop offset="0.98" stop-color="#46faee"/><stop offset="1" stop-color="#45ffef"/></radialGradient><linearGradient id="linear-gradient" x1="259.03" y1="135.31" x2="259.03" y2="-3.49" gradientTransform="translate(-4.02 11.8) rotate(0.25)" gradientUnits="userSpaceOnUse"><stop offset="0.15" stop-color="#83c0e0" stop-opacity="0"/><stop offset="0.36" stop-color="#82c1e0" stop-opacity="0.01"/><stop offset="0.48" stop-color="#80c3e1" stop-opacity="0.04"/><stop offset="0.57" stop-color="#7dc6e1" stop-opacity="0.09"/><stop offset="0.65" stop-color="#78cbe3" stop-opacity="0.17"/><stop offset="0.73" stop-color="#72d1e4" stop-opacity="0.27"/><stop offset="0.79" stop-color="#6bd9e6" stop-opacity="0.39"/><stop offset="0.85" stop-color="#62e2e8" stop-opacity="0.54"/><stop offset="0.91" stop-color="#57eceb" stop-opacity="0.7"/><stop offset="0.97" stop-color="#4cf8ed" stop-opacity="0.89"/><stop offset="1" stop-color="#45ffef"/></linearGradient><linearGradient id="linear-gradient-2" x1="259.6" y1="147.77" x2="259.6" y2="8.97" xlink:href="#linear-gradient"/><linearGradient id="linear-gradient-3" x1="2803.84" y1="-5126.1" x2="2803.84" y2="-5263.77" gradientTransform="matrix(0.2, -1.05, 0.46, 0.09, 2008.66, 3520.35)" xlink:href="#linear-gradient"/><linearGradient id="linear-gradient-4" x1="3675.39" y1="5548.37" x2="3675.39" y2="5410.7" gradientTransform="matrix(-0.19, -1.05, -0.46, 0.08, 3551.32, 3526.97)" xlink:href="#linear-gradient"/></defs><g class="cls-2"><g id="Layer_1" data-name="Layer 1"><path class="cls-3" d="M446.34,312.92c.31,31.61-86.75,95.2-194.93,96.28S54.9,348.47,54.58,316.86s87.13-58.11,195.31-59.2S446,281.32,446.34,312.92Z"/><path class="cls-4" d="M251.33,401.55c-84.64.85-193.88-54-196.64-86,0,.45-.11.89-.1,1.34.31,31.61,88.64,93.43,196.82,92.34s195.24-64.67,194.93-96.28c0-.44-.09-.89-.13-1.33C444.09,343.62,337.78,400.68,251.33,401.55Z"/><ellipse class="cls-5" cx="254.55" cy="377.61" rx="21.22" ry="14.83"/><ellipse class="cls-5" cx="113.26" cy="345.63" rx="14.83" ry="21.22" transform="translate(-250.45 348.44) rotate(-72.3)"/><ellipse class="cls-5" cx="396.43" cy="336.91" rx="21.22" ry="14.83" transform="translate(-83.67 136.49) rotate(-17.7)"/><path class="cls-6" d="M489.55,288.24s-70.5,57.15-238.4,60.92C65.82,351,10.88,293.05,10.88,293.05l-.19-19.4,478.66-4.81Z"/><path class="cls-7" d="M11.43,275.21s14.44-50.84,98.78-81.65c90.88-33.19,194.12-29.12,266.8-8.25S484.94,245.37,489.36,269c0,0-61.5,53.05-242,54.86S11.43,275.21,11.43,275.21Z"/><path class="cls-8" d="M489.35,268.84s-61.49,53.23-241.95,55-236-48.67-236-48.67S290.24,321,266.2,216.73C266.2,216.73,430.74,227.27,489.35,268.84Z"/><path class="cls-9" d="M118.63,221.69s50,30.17,138.5,29.28,131.62-34.84,131.62-34.84S361,180.24,254,181.32,118.63,221.69,118.63,221.69Z"/><path class="cls-10" d="M129.38,227l-10.75-5.3s28.94-39.3,135.37-40.37,134.75,34.81,134.75,34.81l-7.85,4s-31.9-33-127-32S129.38,227,129.38,227Z"/><circle class="cls-11" cx="157.87" cy="201.88" r="1.83"/><circle class="cls-12" cx="141.57" cy="210.06" r="1.83"/><circle class="cls-13" cx="124.71" cy="221.86" r="1.83"/><circle class="cls-14" cx="173.23" cy="196.76" r="1.83"/><circle class="cls-15" cx="192" cy="191.61" r="1.83"/><circle class="cls-16" cx="212.34" cy="188.27" r="1.83"/><circle class="cls-17" cx="234.53" cy="185.69" r="1.83"/><circle class="cls-18" cx="254.12" cy="184.98" r="1.83"/><circle class="cls-19" cx="273.2" cy="185.05" r="1.83"/><circle class="cls-20" cx="295.95" cy="186.91" r="1.83"/><circle class="cls-21" cx="317.93" cy="190.34" r="1.83"/><circle class="cls-22" cx="339.14" cy="194.57" r="1.83"/><circle class="cls-23" cx="360.65" cy="202.72" r="1.83"/><circle class="cls-24" cx="380.62" cy="214.02" r="1.83"/><path class="cls-25" d="M134.52,228.93s-38.88,11.41-69.38,72c0,0,7.89,4,28.58,8.73,0,0,16.53-48.14,61.66-72.86Z"/><path class="cls-26" d="M11.43,275.21s52,50.52,236,48.67,241.82-55.1,241.82-55.1-51.51,61.9-241,63.81S11.43,275.21,11.43,275.21Z"/><g class="cls-27"><path class="cls-28" d="M279,282.39a28.79,28.79,0,1,1-29.37-28.2A28.79,28.79,0,0,1,279,282.39Z"/></g><path class="cls-29" d="M278.36,280.68a28.15,28.15,0,1,1-28.72-27.57A28.14,28.14,0,0,1,278.36,280.68Z"/><path class="cls-30" d="M278.07,280.67a28.36,28.36,0,0,1-24.23,28.38c-14.63,2.12-28.15-8.42-31-22.59-2.71-13.43,5.37-26.84,18-31.6,14.12-5.32,29.78,2.53,35.33,16.14a27.8,27.8,0,0,1,1.92,9.67c0,.16.58.16.56,0-.4-11.65-7.86-22.42-19.07-26.13A29,29,0,0,0,229.39,262c-8.62,9-9.79,22.91-3.71,33.56,5.68,9.91,17.15,15,28.3,13.7,14.27-1.66,24.75-14.45,24.65-28.58C278.64,280.52,278.07,280.51,278.07,280.67Z"/><g class="cls-31"><path class="cls-32" d="M273.17,280.78a23,23,0,1,1-23.43-22.48A23,23,0,0,1,273.17,280.78Z"/></g><path class="cls-33" d="M270.76,280.83a20.55,20.55,0,1,1-21-20.12A20.55,20.55,0,0,1,270.76,280.83Z"/><path class="cls-34" d="M270.48,280.82a20.68,20.68,0,0,1-19.12,20.83c-11.54.9-21-8.83-21.41-20-.43-10.91,8.49-20,19.12-20.84,11.54-.89,21,8.83,21.41,20,0,.17.57.18.55,0A21,21,0,0,0,249.8,260.6c-11.45,0-20.43,9.85-20.41,21.06,0,11.5,10.12,20.28,21.24,20.25,11.45,0,20.43-9.86,20.4-21.07C271,280.68,270.48,280.66,270.48,280.82Z"/><g class="cls-35"><path class="cls-36" d="M258.89,267.33c1.92,4.54-1.68,10.4-8,13.06s-13,1.13-15-3.42,1.68-10.4,8-13.06S257,262.78,258.89,267.33Z"/></g><path class="cls-37" d="M251.59,260.77a17.41,17.41,0,1,1-3.59.07,20.57,20.57,0,1,0,3.59-.07Z"/><g class="cls-27"><path class="cls-28" d="M408.2,247.4c7.24,13.83,24.43,24.82,38.4,24.53s19.44-11.74,12.21-25.57-24.43-24.81-38.41-24.52S401,233.56,408.2,247.4Z"/></g><path class="cls-29" d="M410.86,245.9c7,13.39,23.61,24,37.12,23.71s18.8-11.33,11.8-24.72-23.62-24-37.13-23.69S403.85,232.53,410.86,245.9Z"/><path class="cls-38" d="M410.58,245.93a47.45,47.45,0,0,0,29.93,23c9,2.2,20.61.23,22.46-10.43,1-6-1.79-12.18-5-17a47.82,47.82,0,0,0-14.45-13.77c-8.36-5.34-21.06-9.68-30.33-4-8,4.85-6.2,15.3-2.64,22.31.07.14.62.1.55,0-2.74-5.39-4.4-11.76-1.67-17.48,3-6.22,10.54-7.56,16.73-6.94,13.67,1.36,26.93,11.57,33.32,23.45,2.83,5.27,4.34,11.85,1.67,17.48-3,6.2-10.55,7.56-16.74,6.94-13.67-1.37-26.93-11.58-33.31-23.45C411.05,245.75,410.5,245.78,410.58,245.93Z"/><path class="cls-28" d="M459.78,244.89a45.51,45.51,0,0,0-13.69-15.3,42,42,0,0,1,12,13.66c6.51,12.45,1.6,22.76-11,23S419,256.63,412.5,244.19s-1.69-22.52,10.57-23h-.42c-13.52.27-18.8,11.33-11.79,24.7s23.61,24,37.12,23.71S466.78,258.28,459.78,244.89Z"/><path class="cls-28" d="M416.66,244.87c5.65,10.8,19.07,19.37,30,19.15s15.19-9.16,9.53-20-19.08-19.38-30-19.15S411,234.06,416.66,244.87Z"/><path class="cls-33" d="M418.59,243.81c5.11,9.77,17.24,17.52,27.1,17.31s13.72-8.28,8.62-18-17.24-17.52-27.11-17.31S413.48,234,418.59,243.81Z"/><path class="cls-39" d="M418.32,243.8c4.92,9.09,15.39,17,26,17.41,4.2.15,8.46-.84,11-4.48,2.84-4.07,1.28-9.62-.74-13.65-4.59-9.15-15.64-17-26-17.4-4.2-.15-8.47.84-11,4.48-2.82,4.07-1.27,9.62.76,13.64.07.16.61.15.55,0-1.89-3.76-3-8-1.54-12.06,1.78-4.86,7.4-6.13,12-5.8,10.13.72,20,8.41,24.71,17.12,2,3.64,3,8,1.53,12-1.78,4.86-7.4,6.14-12,5.8-10.13-.72-20-8.42-24.69-17.11C418.78,243.66,418.24,243.68,418.32,243.8Z"/><path class="cls-37" d="M454.31,243.08c-5.11-9.77-17.24-17.52-27.11-17.31s-13.72,8.27-8.61,18,17.24,17.52,27.1,17.31S459.41,252.84,454.31,243.08Zm-10.53,11.48c-7.88.16-17.6-6-21.68-13.84s-1-14.28,6.89-14.44,17.6,6,21.68,13.85S451.67,254.4,443.78,254.56Z"/><g class="cls-27"><path class="cls-28" d="M98.07,250.51c-6.95,14-23.92,25.31-37.9,25.3S40.5,264.47,47.46,250.49s23.92-25.29,37.9-25.28S105,236.54,98.07,250.51Z"/></g><path class="cls-29" d="M95.39,249.07c-6.72,13.52-23.12,24.47-36.64,24.46s-19-11-12.29-24.48,23.13-24.45,36.65-24.44S102.12,235.56,95.39,249.07Z"/><path class="cls-38" d="M95.66,249.09a47.39,47.39,0,0,1-29.45,23.56c-8.95,2.38-20.61.65-22.67-10-1.17-5.95,1.55-12.21,4.63-17.12a47.84,47.84,0,0,1,14.17-14.06c8.25-5.51,20.86-10.1,30.24-4.65,8,4.69,6.5,15.17,3.08,22.25-.06.15-.61.12-.54,0,2.63-5.44,4.16-11.84,1.31-17.5-3.09-6.16-10.69-7.35-16.86-6.61-13.64,1.64-26.69,12.12-32.84,24.12C44,254.4,42.62,261,45.41,266.58c3.1,6.14,10.7,7.35,16.87,6.6,13.64-1.64,26.69-12.11,32.84-24.12C95.2,248.92,95.75,249,95.66,249.09Z"/><path class="cls-28" d="M46.46,249.05a45.45,45.45,0,0,1,13.38-15.58,41.71,41.71,0,0,0-11.69,13.9c-6.26,12.57-1.15,22.78,11.44,22.79S87.44,260,93.71,247.39s1.24-22.54-11-22.78c.14,0,.29,0,.43,0,13.51,0,19,10.95,12.28,24.46s-23.12,24.47-36.64,24.46S39.73,262.57,46.46,249.05Z"/><path class="cls-28" d="M89.57,248.15C84.13,259.07,70.89,267.91,60,267.9S44.6,259.05,50,248.14s18.68-19.76,29.6-19.75S95,237.24,89.57,248.15Z"/><path class="cls-33" d="M87.62,247.14C82.71,257,70.73,265,60.87,265s-13.89-8-9-17.87,16.89-17.86,26.76-17.85S92.53,237.27,87.62,247.14Z"/><path class="cls-39" d="M87.89,247.13c-4.74,9.18-15,17.33-25.66,17.92-4.2.24-8.48-.67-11.08-4.26-2.92-4-1.47-9.59.47-13.66,4.4-9.24,15.29-17.34,25.66-17.92,4.2-.24,8.49.67,11.09,4.26,2.91,4,1.46,9.59-.48,13.66-.07.15-.61.15-.55,0,1.81-3.8,2.87-8,1.29-12.08-1.87-4.83-7.52-6-12.11-5.57-10.11.93-19.81,8.81-24.36,17.62-1.9,3.68-2.83,8.1-1.29,12.07,1.88,4.83,7.53,6,12.12,5.57,10.12-.93,19.81-8.83,24.35-17.61C87.42,247,88,247,87.89,247.13Z"/><path class="cls-37" d="M60.87,265c9.86,0,21.84-8,26.75-17.85s.89-17.86-9-17.87-21.85,8-26.76,17.85S51,265,60.87,265Zm-5.4-20.89c3.92-7.9,13.51-14.28,21.4-14.28s11.11,6.4,7.18,14.29-13.52,14.28-21.41,14.28S51.54,252,55.47,244.1Z"/><path class="cls-40" d="M127.28,187.81q-8.59,2.66-17.07,5.75c-75.58,27.61-95,71.3-98.24,80.08H10.69l.2,19.4s12,12.71,43.87,26c3,23.21,48.95,60.33,113.94,78.85,1.79.51,3.58,1,5.39,1.49,5.7,1.5,11.53,2.87,17.48,4.06l1.53.31.27,0q4.49.89,9,1.62l.39.06q6.87,1.11,13.91,1.9l3.79.4,1.06.11a284.61,284.61,0,0,0,29.85,1.27,291.32,291.32,0,0,0,75.23-10.8c70.59-19.72,119.94-61.67,119.7-85.48h0c0-.3,0-.6,0-.9,29.6-12.72,43.26-23.78,43.26-23.78l-.2-19.4,0,0c-4.51-23.3-38.78-61.48-109-82.52"/><g class="cls-41"><ellipse class="cls-42" cx="288.76" cy="225.29" rx="4.54" ry="3.24" transform="translate(46.46 499.94) rotate(-86.54)"/><ellipse class="cls-42" cx="221.27" cy="206.73" rx="3.73" ry="4.88" transform="translate(1.57 415.13) rotate(-86.54)"/><path class="cls-43" d="M244.16,253.38S276.77,215,357.32,233.66c0,0-15.65,5.46-15.79,5.82S277.28,261.29,244.16,253.38Z"/><path class="cls-44" d="M283.33,246.24a10.48,10.48,0,0,1-6.14,3.2,10.8,10.8,0,0,1-8.26-2.56c0-1.83,0-3.68,0-5.54,0-5.22.11-10.59.31-16.08.95-.47,1.87-.94,2.73-1.41,6.52,1.27,9,3.56,10,5.54.16.31.34.74.59,1.2,0,1.57,0,3.11.1,4.61C282.77,239.08,283,242.77,283.33,246.24Z"/><path class="cls-44" d="M285.78,193.6c-.11.57-.21,1.16-.32,1.74-.25,1.42-2.69,33.77-2.92,35.25-2.64.93-7.65.28-9.34,1.47-2.38,1.67.78-9.51-4-5.79.35-5.31,1.59-26.71,2.09-31.75l.18-1.79c.43-.33,5.22-3.87,10.35-2A9.75,9.75,0,0,1,285.78,193.6Z"/><path class="cls-43" d="M287.58,194.66a3.12,3.12,0,0,1-2.12.68c.1-.58.21-1.17.32-1.74a9.66,9.66,0,0,0-4-2.84c-5.13-1.9-9.92,1.64-10.35,2-.07.59-.12,1.19-.18,1.79a2.87,2.87,0,0,1-1.48-1.16,3,3,0,0,1-.4-2.15c.18-.23,4.65-5.46,11.23-4.35a12.32,12.32,0,0,1,8.09,5.52A3.18,3.18,0,0,1,287.58,194.66Z"/><path class="cls-43" d="M316.89,185.75a9.81,9.81,0,0,1-17.09,4.61,11.62,11.62,0,0,1,6.17-6.05C311.54,182.09,316.52,185.48,316.89,185.75Z"/><path class="cls-44" d="M308.68,225.59c-1.87-7.86-6.61-31.23-8.88-35.23a9.81,9.81,0,0,0,17.09-4.61c1.08,2.7,6.67,36.47,7.63,39.68C320,225.9,309.38,224.89,308.68,225.59Z"/><path class="cls-44" d="M323.91,237.07a11.48,11.48,0,0,1-16.3-1c.36-2,.68-4.33.89-6.93.09-1.14.15-2.33.18-3.56,2.66-.15,3.78-1.43,6.52-1.93a13.7,13.7,0,0,1,6.8.67,15.34,15.34,0,0,1,2.52,1.1c0,1.28,0,2.52-.06,3.73C324.37,232,324.16,234.66,323.91,237.07Z"/><ellipse class="cls-45" cx="295.5" cy="237.48" rx="1.28" ry="2.75" transform="translate(40.63 518.12) rotate(-86.54)"/><ellipse class="cls-45" cx="303.83" cy="241.49" rx="1.28" ry="2.75" transform="translate(44.45 530.2) rotate(-86.54)"/><ellipse class="cls-45" cx="311.28" cy="245.5" rx="1.28" ry="2.75" transform="translate(47.45 541.4) rotate(-86.54)"/><ellipse class="cls-45" cx="329.9" cy="234.89" rx="1.28" ry="2.75" transform="translate(75.53 550.02) rotate(-86.54)"/><ellipse class="cls-45" cx="337.43" cy="236.63" rx="1.28" ry="2.75" transform="translate(80.87 559.17) rotate(-86.54)"/><ellipse class="cls-45" cx="343.64" cy="238.25" rx="1.28" ry="2.75" transform="translate(85.09 566.88) rotate(-86.54)"/><ellipse class="cls-45" cx="287.81" cy="241.04" rx="1.28" ry="2.75" transform="translate(29.84 513.79) rotate(-86.54)"/><ellipse class="cls-45" cx="296.14" cy="245.05" rx="1.28" ry="2.75" transform="translate(33.67 525.87) rotate(-86.54)"/><ellipse class="cls-45" cx="303.74" cy="248.32" rx="1.28" ry="2.75" transform="translate(37.55 536.53) rotate(-86.54)"/></g><path class="cls-46" d="M119.26,222.06c8.34,4.61,149.68,70.69,269.72-5.55L351.64,75.87c-8.52-32-39-57.23-78.06-63.71-1.16-.2-2.33-.38-3.5-.55C216.7,3.93,165.83,33.29,155.05,77Z"/><path class="cls-47" d="M348.06,148.62s-41.9-61.85-93.9-62.07-94.44,61.27-94.44,61.27c-23.59-5.19-11-140.76,94.77-138.28C351.12,5.1,377.46,142.15,348.06,148.62Z"/><path class="cls-48" d="M348.57,161.08S306.68,99.23,254.67,99s-94.43,61.27-94.43,61.27C136.64,155.08,149.23,19.51,255,22,351.64,17.56,378,154.61,348.57,161.08Z"/><path class="cls-49" d="M228.67,45.29s-36.56,39.07-46.94,93.92S170.29,232,170.29,232c-37.24-12.63-45.75,11.83-23.71-99.56C163.64,30.14,231.52,13.73,228.67,45.29Z"/><path class="cls-50" d="M280.26,45.51s36.23,39.38,46.14,94.32S337,232.74,337,232.74c37.34-12.31,45.64,12.22,24.56-99.35C345.42,30.92,277.68,13.92,280.26,45.51Z"/><g class="cls-51"><path class="cls-36" d="M349.66,139.24c-.36-5.27-2.43-10.5-4-15.54-1.76-5.12-3.75-10.17-5.91-15.12A218.93,218.93,0,0,0,325,79.89c-5.56-9-12.52-17.08-19.45-25-7-7.72-14.89-14.47-24.7-19.51l.21-.77a41.84,41.84,0,0,1,16.24,4.76c15.72,8,25.42,22.12,33.25,37.33a195.74,195.74,0,0,1,13,30.46c2.93,9.16,5.61,18.44,6.88,28a17.62,17.62,0,0,1,.1,4.25l-.79-.16Z"/></g></g></g></svg>