<svg id="Layer_1" data-name="Layer 1" xmlns="http://www.w3.org/2000/svg" viewBox="0 0 136.94 108.47"><defs><style>.cls-1{fill:#0dff00;}</style></defs><path class="cls-1" d="M133.41,18.89v-.07c0-.2,0-.45,0-.74,0-.8-.08-1.9-.18-3a.37.37,0,0,0,0-.11c0-.26-.05-.51-.08-.76a.19.19,0,0,0,0-.08c0-.24-.06-.47-.09-.73a2,2,0,0,1,0-.2c0-.17-.06-.33-.09-.53s-.07-.37-.08-.41-.06-.31-.1-.47-.13-.56-.16-.65l-.06-.24s-.23-.74-.26-.85l-.15-.41c-.06-.16-.11-.31-.17-.45s-.19-.45-.29-.66l-.1-.2c-.1-.2-.2-.4-.31-.59s-.24-.44-.36-.63l-.17-.26a12.67,12.67,0,0,0-1.14-1.46,10,10,0,0,0-5.21-3l-1.73-.36L122.17,2c-.4-.07-.79-.15-1.25-.22l-.39-.06-1.15-.17-.4-.06a31.36,31.36,0,0,0-3.75-.27H115c-.58,0-1.13,0-1.65.05l-.55.05c-1.53.11-3.27.25-5.07.5l-.22,0c-.7.1-1.39.21-2.08.35l-1.1.24-.92-.15-.88-.14L101.69,2c-1.38-.12-2.77-.26-4.15-.4l-3-.29c-.85-.08-1.72-.13-2.81-.15l-1.15,0c-.65,0-1.29,0-1.89,0l-.35,0c-.75,0-1.51.08-2.3.14l-.34,0-2.35.22L78,2.14l-1.71.19-.89.11-1.68.22-1.36.22L71.7,3,71,3.15l-.41.09-.7.17-2-.33L66.84,2.9,65,2.64,63.79,2.5l-.62,0-.44,0-.74,0H60.44L55,2.52h0l-2.22.08L50,2.73l-1.23.07-1.34.09L45.58,3l-1.28.11-1.37.14-.9.09-1.82.23-1.27.18L37.71,4l-.17,0-1.12.21-.28,0-.89.2-.41.09L34,4.76l-.43.12L33,5.05l-1.9-.22L30,4.72l-1.17-.09-1.29-.07-.48,0-.8,0H24.83l-.62,0-.78,0-.69,0-.85.09c-.25,0-.49.06-.66.08l-.91.15-.67.14a4.88,4.88,0,0,0-.55.12l-.53.14-.45.13-.38.12c-3.32,1-7.44,2.31-11.26,5.8a10,10,0,0,0-3.11,5.77c-.05.3-.09.59-.11.84s-.08.62-.1.93A38.92,38.92,0,0,0,4.82,32.65l.26.82.31,1,.69,2,.69,1.93.47,1.25.5,1.3.48,1.22.47,1.14s.57,1.33.59,1.36c.13.3.52,1.13.52,1.13.13.29.27.56.4.81l.14.3.42.79L11,48c.17.3.33.56.46.76s.16.26.27.42.39.56.58.8.29.38.43.54l.28.32A9.27,9.27,0,0,0,14.23,52l1.49,1.14c.49.38,1,.75,1.48,1.1,1.43,1,2.87,2.16,4.4,3.36a91,91,0,0,0,8.07,5.9c.71.45,1.38.82,2,1.14l1.16.63.55.31c0,.06.1.13.16.23s.28.43.44.72l.2.38c.14.26.28.52.41.79L35.71,70l.5,1a70.53,70.53,0,0,0,6.21,10.17c.24.31.5.63.8,1l.27.31,4.78,16.43a10,10,0,0,0,7.95,7.07l1.08.18a10.07,10.07,0,0,0,1.64.13,9.72,9.72,0,0,0,1.87-.18l1.64-.2,1.31-.21.8-.15.56-.12v0l.09,0h0l.2,0,.73-.19.66-.2.32-.11.7-.27.22-.09.31-.14a12.06,12.06,0,0,0,1.46-.83,10.61,10.61,0,0,0,1.28-1l.14-.13.41-.4.34-.36.44-.5.62-.77.28-.37s1.06-1.51,1.06-1.51S76,96,76,96l-8.44-5.36L76,96l.53-.83.51-.81,2.27-3.72,1.58-2.72.87-1.59L82.49,85a40.85,40.85,0,0,0,6.29-4.86,62.58,62.58,0,0,0,7.39-8c.33-.44.72-.92,1.11-1.41a45.39,45.39,0,0,0,3-3.94,19.07,19.07,0,0,0,1.66-3c0-.09.09-.19.12-.27q.19-.48.36-1l.56-.32c.39-.22.84-.49,1.31-.81l.34-.23.89-.63.35-.26,1-.76.18-.14,1.43-1.17,1.13-1,.36-.32,1.45-1.29,1.35-1.24,1.07-1,.39-.38,1.41-1.39.8-.83.61-.64.82-.89.43-.48.7-.78.49-.58.67-.81.59-.75c.22-.29.43-.57.62-.84s.27-.37.44-.63.28-.42.4-.62a4.66,4.66,0,0,0,.3-.47l.29-.5s.37-.71.41-.8c.14-.27.26-.55.37-.81a17.48,17.48,0,0,0,.81-2.38,5.5,5.5,0,0,0,.16-.58c.07-.27.12-.53.18-.82s.11-.55.15-.8.1-.67.14-1.08.1-.93.13-1.42c0,0,0-.42,0-.59l.18-.16c.26-.21.52-.44.79-.68l.3-.27c.34-.31.69-.64,1.06-1a23.14,23.14,0,0,0,3.65-4.94c.13-.21.25-.42.35-.57s.29-.49.46-.8l.35-.64A9.92,9.92,0,0,0,133.41,18.89Zm-10.17,1.19,0,0,0,.05h0l-.24.41a20.14,20.14,0,0,1-2.5,3.65c-.28.28-.55.53-.81.77l-.23.2-.57.5-.17.14-.64.51a1.33,1.33,0,0,1-.19.14l-.4.31-.19.13-.46.31-.14.08-.3.19-.16.09-.23.14-.24.12-.1.06,0,0-.21.11,0,0-.12.07,0,0a.12.12,0,0,0-.06.09c0,.36,0,.72,0,1.08v.43c0,.34,0,.68,0,1v1.58c0,.2,0,.4,0,.6l0,.51c0,.3,0,.59-.08.88s0,.4-.08.6l-.09.48c0,.13,0,.26-.08.39v-.07a9.77,9.77,0,0,1-.48,1.54l-.14.3a.08.08,0,0,0,0,0l-.1.18,0,.08,0,.06,0,0a.83.83,0,0,1-.09.16v0h0l-.1.15-.29.45-.27.39-.44.59-.43.55-.54.66c-.13.15-.27.3-.4.46l-.52.59-.42.47-.74.79c-.17.19-.35.37-.53.56l-.72.74L108,45l-.66.66-.47.46-1,.93-.47.44-.74.69-.5.44-.66.6-.47.4c-.34.3-.67.58-1,.85l-.41.34-.35.29h0l0,0h0l-.06.06-.35.28h0l-.12.09-.84.65-.28.21-.62.44-.24.16c-.26.17-.5.33-.72.45a12.41,12.41,0,0,0-3.27,2.3q-.21.24-.45.48l-.07.08-.18.19-.1.11-.14.16-.1.12-.12.16-.09.13-.1.17-.06.12-.08.2,0,.1a1.12,1.12,0,0,0-.05.31,3.17,3.17,0,0,1-.09.67l0,.13a5.28,5.28,0,0,1-.24.7l0,.07a10.67,10.67,0,0,1-.88,1.6h0c-1.08,1.65-2.61,3.37-3.7,4.82a54.77,54.77,0,0,1-6.28,6.73,38.74,38.74,0,0,1-7,5.06C74.28,79,73.74,80.1,73.27,81l-.35.68-.23.43v0a1.09,1.09,0,0,1-.08.15c-.05.08-.09.17-.14.26l-.12.2a3.07,3.07,0,0,1-.17.31l-.26.46a1.62,1.62,0,0,1-.1.18l-.14.24-.29.51a3.37,3.37,0,0,0-.19.32l-.12.19-.26.46-.31.5v0l-.09.16,0,0,0,0-.08.13-.16.27,0,0,0,.06-.24.39-.08.14,0,0-.1.17-.1.17,0,.07-.07.1h0l-.21.34-.12.19,0,0-.09.14-.08.13,0,.07-.07.13,0,0-.18.3-.15.23,0,0-.09.14-.06.1,0,.07-.09.13,0,0c-.06.09-.12.18-.17.27l-.16.24,0,0-.09.14,0,.07,0,0-.1.14,0,.06-.15.23-.17.25,0,.06L67,91.5l0,0,0,0-.08.12,0,.07-.15.22-.15.23,0,.07-.07.1,0,0,0,0-.08.11,0,.08-.13.18-.15.22,0,.07-.06.08v0l0,0-.06.1-.06.08-.12.16a.83.83,0,0,1-.13.18l0,.08,0,.06h0l0,.07-.07.09a1.13,1.13,0,0,1-.1.13l-.11.15-.06.07,0,0h0l0,0-.08.09-.07.09-.1.11,0,.05v0h0l-.07.08,0,0-.11.1-.23.12h0l-.09,0h0l-.21.08-.11,0-.24.08-.11,0-.29.07-.1,0-.33.07h0l-.09,0h0l-.33.07-.11,0-.35.06h-.1l-.37.06h-.05l-.39,0h0l-.37.05h0l-.34,0h-.07l-.28,0h0l-.24,0h0l-.18,0H59v0l-1.08-.17L52.5,77.61v-.07l0,0-.37-.44-.33-.39-.07-.09-.75-.86-.11-.13-.45-.55a60.78,60.78,0,0,1-5.31-8.74.8.8,0,0,0-.08-.16h0c-.11-.21-.21-.43-.32-.64l-1-2.09-.11-.22c-.18-.37-.38-.74-.58-1.1-.07-.15-.14-.29-.22-.43-.28-.5-.57-1-.89-1.47a10.1,10.1,0,0,0-2.25-2.54,14.53,14.53,0,0,0-1.31-.83h0c-.23-.14-.46-.27-.7-.39L36.4,55.8c-.48-.25-.95-.51-1.41-.8-4.22-2.65-7.93-6-12-8.94-.41-.29-.82-.6-1.23-.91l-1.42-1.09L20.29,44l-.09-.12L20,43.58l-.1-.17c-.09-.13-.17-.26-.26-.41l-.1-.19-.28-.53a1.74,1.74,0,0,0-.1-.19l-.31-.63-.09-.2-.33-.72a1.54,1.54,0,0,0-.08-.19l-.35-.8a1.67,1.67,0,0,0-.08-.2c-.12-.28-.24-.57-.35-.86a1,1,0,0,1-.07-.15l-.36-.92a2.44,2.44,0,0,0-.1-.24l-.33-.86-.1-.28c-.11-.27-.21-.55-.31-.82L16.19,35l-.31-.84-.11-.33c-.09-.24-.17-.47-.25-.7s-.1-.26-.14-.4l-.21-.58L15,31.59c0-.12-.08-.25-.12-.36s-.12-.36-.17-.53-.07-.19-.09-.28c-.08-.25-.16-.48-.22-.69a29.14,29.14,0,0,1-1.26-10.07l.06-.53h0c0-.12,0-.24.05-.36,2.26-2.08,5-2.85,7.86-3.75l.2-.06.19-.05.25-.05.39-.08.49-.08.42-.06.53-.05.44,0,.56,0h1.49l.63,0h.41l.73,0,.3,0,1,.08.35,0,.62.06.38,0,.54.06.36,0,.48.06.32,0,.47.06.4.05.38,0,.21,0,.22,0h.38l.54-.24h0c.23-.09.47-.18.73-.26l.17-.06.62-.18.26-.08.61-.15.29-.07.68-.15.27-.05q.47-.11,1-.18h0l1.05-.17.3,0,.78-.11.4-.05.73-.09.23,0,.24,0,.37,0,.24,0,.22,0,.88-.08.36,0,1.19-.1h0l1.24-.1.37,0,.87-.06.41,0,.9-.06h.31l1.16-.06.33,0,.82,0,.43,0,.71,0h.39l1,0h.11l.91,0h.37l.57,0h1.9l.59,0h1.88l.44,0h.25l.46,0,.24,0,.54.06.19,0,1.56.23h.1l.7.12.12,0,3.14.53.23,0,.27,0,.23,0,.21,0h.15l.28,0h.1l.17,0,.08,0a1.63,1.63,0,0,1,.27-.15l.13-.06.13,0,.11,0,.22-.07.09,0,.18,0,.24-.06.34-.08.26-.06.5-.1.42-.08.41-.07.37-.06.38-.06.39-.05.38,0,.41-.06.36-.05.42,0,.36,0,1.6-.18.21,0,.47-.05L80,12l.47,0h.08l1.28-.13,2.33-.24.23,0h0l2.15-.2.33,0c.65-.05,1.3-.1,2-.12l.25,0c.68,0,1.36,0,2,0h.47c.69,0,1.38,0,2.07.11,2.4.22,4.79.47,7.19.69l.37,0h0l.46.08h.09l.48.08a27,27,0,0,0,2.74.41l.12,0q.56-.18,1.14-.33l.09,0,.67-.16h0l.37-.08h0c.51-.1,1-.19,1.55-.26l.16,0h0c1.69-.23,3.4-.35,5-.47a8.24,8.24,0,0,1,.88,0h.09a22.23,22.23,0,0,1,2.61.19l.28,0,1,.14.37.06,1,.18.39.07,1.46.3a2,2,0,0,1,.2.28l0,0,0,.09h0a1,1,0,0,1,.11.21l0,.05a.76.76,0,0,1,0,.11l.09.22,0,.09a.76.76,0,0,1,0,.11l.06.21a.83.83,0,0,1,0,.15l0,.1c0,.06,0,.13,0,.19s0,.14,0,.22a.19.19,0,0,1,0,.08l0,.14.06.32a.28.28,0,0,0,0,.09l.06.47v.06c0,.17,0,.34,0,.51v0c.13,1.43.14,2.87.2,3.63a.45.45,0,0,0,0,.12Z"/></svg>