<svg id="Layer_1" data-name="Layer 1" xmlns="http://www.w3.org/2000/svg" xmlns:xlink="http://www.w3.org/1999/xlink" viewBox="0 0 130.72 116.92"><defs><style>.cls-1{fill:url(#radial-gradient);}.cls-2{opacity:0.05;fill:url(#radial-gradient-2);}.cls-3{opacity:0.8;fill:url(#radial-gradient-3);}</style><radialGradient id="radial-gradient" cx="144.97" cy="114.45" r="49.06" gradientTransform="translate(-73.39 -47.31) scale(0.97 0.95)" gradientUnits="userSpaceOnUse"><stop offset="0.32" stop-color="#fff"/><stop offset="0.5" stop-color="#cac9c9"/><stop offset="0.74" stop-color="#8b898a"/><stop offset="0.91" stop-color="#636162"/><stop offset="1" stop-color="#545253"/></radialGradient><radialGradient id="radial-gradient-2" cx="73.92" cy="73.35" r="35.46" gradientTransform="matrix(1, 0, 0, 1, 0, 0)" xlink:href="#radial-gradient"/><radialGradient id="radial-gradient-3" cx="41.76" cy="30.77" r="20.38" gradientTransform="matrix(1, 0, 0, 1, 0, 0)" xlink:href="#radial-gradient"/></defs><path class="cls-1" d="M94.8,103.17c-4.11,2.87-24.84-15-29.87-15S38.8,105.51,34.76,102.57,41.61,74.73,40.1,70,15.18,51,16.79,46.28,45.86,44.08,50,41.22,60.69,12.05,65.73,12.1,76.84,38.58,80.88,41.53s31.55,1,33.06,5.73S91.74,65.83,90.13,70.51,98.9,100.31,94.8,103.17Z"/><path class="cls-2" d="M90,43.22c-2.35,24.85-25.44,44.6-54.2,46.15-1.7,6.26-2.84,11.89-1,13.2,4,3,25.14-14.5,30.18-14.45s25.76,17.92,29.86,15-6.27-28-4.66-32.66S115.44,52,113.94,47.27C112.9,44,99.54,43.92,90,43.22Z"/><path class="cls-3" d="M65.16,14a47,47,0,0,0-2.9,5.79c-2.38,5.6-4.46,11.31-6.65,17a13.51,13.51,0,0,1-2.83,5,9.22,9.22,0,0,1-4.38,2.21,29.73,29.73,0,0,1-5.13.56c-5,.24-10,.17-15,.29a27,27,0,0,0-6.53,1,11.63,11.63,0,0,0-3.41,1.77c0,.19,2.68-.51,3.7-.79a26.34,26.34,0,0,1,6.34-.64c5-.11,9.91.27,14.89,0A48.75,48.75,0,0,0,50,45.49,10.32,10.32,0,0,0,54.91,43a12.6,12.6,0,0,0,3-5.61c2.16-7.42,2.76-9.36,5.33-17.27C63.84,18.26,65.34,13.94,65.16,14Z"/></svg>