<svg id="Layer_1" data-name="Layer 1" xmlns="http://www.w3.org/2000/svg" viewBox="0 0 138.35 97.18"><defs><style>.cls-1{fill:#0dff00;}</style></defs><path class="cls-1" d="M134,21.62c0-.31-.06-.61-.1-.95s-.06-.56-.11-.84a10,10,0,0,0-3.11-5.77c-3.82-3.5-8-4.78-11.26-5.81l-.37-.11L118.6,8l-.41-.11-.69-.16-.65-.13L116,7.46h-.11l-.63-.08-.81-.08-.71,0-.78,0-.61,0h-1.42l-1.32,0-1.26.07-1.11.09L106,7.49l-1.88.22-.61-.18-.34-.09-.83-.21-.43-.11-.9-.19-.33-.07-1.2-.22h-.06l-1.29-.21-1.25-.18L95.4,6.05,92.87,5.8c-.88-.08-1.77-.16-2.7-.22l-1.31-.09-1.39-.08-2.58-.13-2.84-.1L76.68,5h-1.5l-.72,0-1,.08-.32,0-1,.11-1.89.27-.76.13-2.17.36-.63-.15-.5-.11-.73-.15-1-.18-1.27-.19L60.87,5,59.12,4.8l-5.34-.54L51.45,4,51.1,4c-.75-.06-1.5-.11-2.26-.14l-.31,0-2,0H45.4c-1,0-1.94.07-2.78.15l-3,.29c-1.39.14-2.79.28-4.17.4l-.89.11-.2,0-.6.1.08.43-.13,0-.07-.38-.86.15L32.35,5l-.68-.15c-.67-.13-1.35-.24-2-.34l-.35,0c-1.77-.24-3.48-.37-5-.49l-.46,0c-.51,0-1.08-.06-1.67-.06H22a32.59,32.59,0,0,0-3.77.27l-.39,0-1.17.17-.46.08c-.39.06-.79.14-1.22.22l-.45.08-1.67.35a10,10,0,0,0-5.21,3A11.85,11.85,0,0,0,6.47,9.59l-.15.23c-.13.2-.25.41-.37.63s-.19.35-.28.54-.15.31-.22.45-.13.3-.19.46-.11.28-.17.43-.1.28-.14.39l-.12.37-.2.7c0,.06-.11.46-.11.46s-.13.54-.15.66,0,.25,0,.25l0,.23c0,.16-.1.6-.11.67,0,.24-.07.49-.11.83s-.06.5-.09.79c-.1,1.17-.15,2.26-.18,3.06,0,.3,0,.55,0,.74h0v0a10,10,0,0,0,1.15,5.57l.37.68.42.72q.18.29.36.6A23.59,23.59,0,0,0,9.73,34l1,1,.36.32.8.7.15.12c0,.18,0,.37,0,.6,0,.47.07.95.14,1.5,0,.32.07.64.13,1s.1.55.16.81.1.53.16.8.11.4.17.6a17.48,17.48,0,0,0,.81,2.38c.11.26.23.53.36.8,0,0,.36.68.39.75l.3.52,0,0c.07.13.16.27.25.41l.48.73.38.55c.19.27.41.56.65.87l.59.76.67.81.39.45.71.81.49.54.84.92.63.65.77.8.44.44L23.38,56l1.06,1,.42.4,1,.89.54.48,1.26,1.11,1.12,1,1.57,1.27,1,.78.4.29.93.66.28.19c.47.32.92.59,1.33.83l.54.31c.11.32.24.66.38,1,0,.06.06.15.1.22a20.14,20.14,0,0,0,1.54,2.86l.21.31a47.56,47.56,0,0,0,2.86,3.8c.39.49.78,1,1.11,1.42a63.15,63.15,0,0,0,7.38,8,55.17,55.17,0,0,0,10.7,7.53l1.23.72c1,.59,2,1.12,2.81,1.54l.18.1a10,10,0,0,0,4,1.1c.68,0,1.37.06,2.05.06l1.2,0h.15c.91,0,1.73-.1,2.51-.19a50,50,0,0,0,8.74-2l.31-.09c1.65-.5,3.41-1.06,5.46-1.74l.11,0a10.24,10.24,0,0,0,4.69-3.29l.16-.19L94,84.74c.27-.32.52-.62.77-.94A70.93,70.93,0,0,0,101,73.58l.4-.79,1.22-2.47c.13-.27.27-.54.45-.86l.16-.32c.16-.27.3-.51.43-.7s.11-.17.16-.23l.56-.31,1.15-.62c.61-.34,1.28-.7,2-1.15a92.43,92.43,0,0,0,8.07-5.89c1.52-1.21,3-2.35,4.41-3.37.49-.35,1-.72,1.47-1.09L123,54.62a10.66,10.66,0,0,0,1.16-1.07c.14-.14.28-.3.42-.47s.25-.3.37-.47.37-.48.56-.77.2-.3.26-.4c.17-.26.33-.52.48-.79l.18-.32c.14-.26.29-.53.46-.86l.11-.23c.14-.27.28-.55.4-.81l.13-.29c.13-.28.27-.57.38-.82l.54-1.24.48-1.16.46-1.15.48-1.25.59-1.58h0l.28-.77.75-2.13.56-1.67.34-1.06A38.66,38.66,0,0,0,134,21.62ZM120.89,37.88l-.31.84a2.77,2.77,0,0,0-.1.26l-.36.93-.06.16c-.13.31-.25.62-.37.93,0,0,0,.1-.07.16-.12.29-.23.58-.35.86a1.54,1.54,0,0,0-.08.19c-.12.27-.23.54-.35.8a1.54,1.54,0,0,0-.08.19l-.33.72-.09.2-.31.63a1.86,1.86,0,0,0-.1.2l-.28.52a1.74,1.74,0,0,0-.1.19c-.09.15-.17.28-.26.41l-.1.17-.22.29-.09.12-.06.07c-.47.37-.95.74-1.42,1.09s-.82.62-1.23.92c-4.06,2.89-7.77,6.28-12,8.94-.46.28-.93.54-1.41.8l-1.18.63-.69.39h0a12.69,12.69,0,0,0-1.31.84,9.88,9.88,0,0,0-2.25,2.53c-.32.48-.61,1-.89,1.47-.08.14-.15.29-.22.43-.2.36-.4.73-.58,1.1,0,.07-.07.15-.11.22-.34.7-.68,1.4-1,2.09-.1.22-.21.43-.31.64h0a1.19,1.19,0,0,0-.08.16,60.24,60.24,0,0,1-5.31,8.74l-.45.56-.11.12-.76.88-.06.07-.33.39-.37.44-.18.06h0c-1.7.57-3.4,1.12-5.11,1.63a43.27,43.27,0,0,1-7.35,1.78c-.58.07-1.15.11-1.71.13h-.15c-.78,0-1.56,0-2.33,0l-.21-.12c-.78-.4-1.54-.81-2.27-1.24-3.47-2.05-7.2-4.09-10.12-6.88A55.41,55.41,0,0,1,49,68.8c-1.09-1.46-2.62-3.18-3.7-4.83h0a10.67,10.67,0,0,1-.88-1.6l0-.07a5.28,5.28,0,0,1-.24-.7l0-.13A3.17,3.17,0,0,1,44,60.8a1.18,1.18,0,0,0,0-.31l0-.1-.08-.2-.06-.12-.1-.17-.09-.12-.12-.17-.1-.12-.14-.16-.1-.11L43,59,42.93,59l-.46-.48a12,12,0,0,0-3.27-2.3c-.22-.13-.46-.28-.72-.46l-.24-.16-.62-.44-.28-.21-.85-.64a.48.48,0,0,0-.11-.09h0L36,53.89,36,53.83h0l0,0h0l-.35-.28-.42-.35-1-.84-.47-.42L33,51.33l-.5-.45-.73-.67-.51-.48c-.32-.3-.64-.6-.95-.91-.17-.15-.32-.31-.48-.47s-.44-.42-.65-.64l-.49-.49L28,46.49l-.54-.57-.74-.79-.42-.47-.52-.59-.4-.46L24.86,43c-.16-.19-.3-.38-.44-.56s-.31-.4-.44-.59-.18-.26-.27-.39-.2-.3-.29-.45l-.1-.15h0v0a1.19,1.19,0,0,1-.09-.15l0,0,0-.06,0-.07L23,40.3a.08.08,0,0,0,0,0l-.14-.3a9.77,9.77,0,0,1-.48-1.54v.07c0-.13-.05-.26-.08-.38s-.07-.32-.09-.49-.06-.4-.08-.6-.06-.58-.08-.87l0-.52c0-.2,0-.4,0-.59V33.44c0-.34,0-.68,0-1V32c0-.36,0-.72,0-1.07,0,0,0-.06-.06-.1l0,0-.1-.07,0,0-.21-.11h0l0,0-.17-.09-.19-.1L21,30.26l-.15-.09L20.5,30l-.12-.07-.47-.32-.18-.13c-.14-.09-.27-.2-.41-.3L19.13,29l-.64-.51-.17-.15-.57-.5-.22-.2c-.27-.24-.54-.49-.82-.77a19.8,19.8,0,0,1-2.5-3.65L14,22.82h0l0-.05,0,0-.21-.37a.53.53,0,0,0,0-.12c.06-.76.07-2.2.2-3.64v0c0-.18,0-.35.05-.52V18l.06-.46a.38.38,0,0,0,0-.1l.06-.31,0-.15a.22.22,0,0,1,0-.08c0-.07,0-.15.05-.22s0-.12,0-.19l0-.1a.83.83,0,0,1,0-.15l.06-.2a.56.56,0,0,1,0-.12l0-.09a1.8,1.8,0,0,0,.08-.21h0a.56.56,0,0,1,0-.12l0-.05a2.12,2.12,0,0,1,.11-.21h0l0-.09,0,0a1.89,1.89,0,0,1,.2-.27c.51-.12,1-.21,1.46-.31l.39-.07,1-.18.37-.06,1-.14.26,0a24.62,24.62,0,0,1,2.62-.19h.09c.31,0,.61,0,.88,0,1.62.12,3.33.24,5,.47h0l.17,0c.52.07,1,.16,1.55.26h0l.37.08h0l.67.16.09,0c.39.1.77.21,1.14.34h.12A24.23,24.23,0,0,0,35,14.86l.45-.08h.1L36,14.7h0l.37,0c2.4-.21,4.79-.46,7.19-.69.69-.07,1.38-.1,2.07-.11h.47c.67,0,1.35,0,2,0h.25l2,.12.33,0,2.15.2h0l.23,0c.78.08,1.55.17,2.33.24l1.27.13h.09l.47,0,.19,0,.47.05.21,0,1.6.18.36,0,.4.06.39,0,.4.06.37.05.4.06.38.06.37.05.41.08.42.07.5.1.26.06.34.08.24.06.18.05.09,0,.22.08.11,0,.13.06.13.05a1.63,1.63,0,0,1,.27.15s0,0,.08,0l.17,0h.1l.28,0h.15l.22,0,.22,0,.27,0,.22,0c.87-.13,2-.34,3.16-.53l.1,0,.71-.11.1,0c.52-.08,1-.16,1.56-.22l.19,0,.54-.06.24,0,.46,0,.25,0,.44,0h.78l.4,0h.7l.59,0,.74,0h1.14l.59,0h.37l.91,0h.11l1,0h.33l.77,0,.41,0,.82,0h.33l1.17.06h.27l.94.06.39,0,.89.06.36,0c.82,0,1.64.12,2.46.19l.36,0,.89.09.21,0,.23,0,.39,0,.23,0,.22,0,.75.09.39.05.78.11.3,0,1,.17h0l1,.18.27,0,.68.15.29.07.61.15.27.08.6.18.19.06c.25.08.49.17.72.26h0c.19.07.37.15.54.23h.23l.15,0,.22,0,.21,0,.38-.05.4-.05.47-.06.32,0,.48-.06.36,0,.54-.06.38,0,.61-.06.36,0,1-.08.29,0,.74,0h.4l.64,0h1.49l.56,0,.44,0,.53.05.42.06.49.08.39.08.25.05.19.06.2.05c2.9.9,5.6,1.68,7.86,3.75,0,.12,0,.24,0,.37h0c0,.17,0,.35.07.53a29.09,29.09,0,0,1-1.26,10.06c-.06.21-.14.44-.22.69,0,.09-.06.19-.09.28s-.11.34-.17.53l-.12.36-.18.54-.21.58c0,.14-.09.26-.14.4s-.15.45-.24.67-.08.24-.13.37-.19.54-.3.82l0,.14Z"/></svg>