<svg id="Layer_1" data-name="Layer 1" xmlns="http://www.w3.org/2000/svg" viewBox="0 0 138.12 96.94"><defs><style>.cls-1{fill:red;}</style></defs><path class="cls-1" d="M134.87,20v-.14q0-.3,0-.75c0-.8-.08-1.9-.18-3.07h0c0-.26-.05-.51-.09-.76v-.08c0-.21-.06-.43-.1-.69a1.66,1.66,0,0,0,0-.22s-.09-.54-.09-.54-.08-.45-.1-.52l-.1-.46-.14-.58-.09-.33-.21-.68-.17-.48-.16-.42c-.07-.16-.13-.32-.2-.46s-.17-.36-.2-.43-.2-.38-.3-.57l0-.09-.24-.42-.2-.32A12.36,12.36,0,0,0,131,6.4a10,10,0,0,0-5.2-3l-1.67-.34L123.64,3l-1.23-.22L122,2.69l-1.29-.19-.26,0a33.55,33.55,0,0,0-3.8-.27h-.17c-.58,0-1.13,0-1.64.06l-.53,0c-1.52.12-3.24.25-5,.49l-.29,0c-.69.1-1.37.21-2,.35l-1.14.25-.94-.16L104,3.12c-.35-.05-.65-.08-.88-.1L99,2.62l-3-.29c-.85-.08-1.73-.13-2.78-.16H92c-.65,0-1.3,0-2,0h-.28c-.76,0-1.52.08-2.3.14l-.35,0c-.78.06-1.55.13-2.32.21l-3.45.35-4,.43L75.6,3.6l-1.34.21-1,.18-.83.16-.32.07-.76.19-1.92-.33L68.33,3.9l-1.89-.27-.91-.1-1-.09-.39,0-.73,0H61.93L61,3.4l-1.77,0-4.94.15-2.83.13-1.31.08-1.75.11-2.67.22-1.36.13-1,.11-1.75.21-1.23.18L39.14,5l-1.22.22-.35.07-.84.19-.44.1-.88.22L35,5.88,34.47,6,33,5.87l-1.52-.15-1.2-.09L29,5.56l-1.35,0H26.31l-.62,0-.84,0-.65,0-.85.08-.71.09-.89.15c-.22,0-.43.08-.62.13l-.64.14-.43.12-.48.14-.39.12c-3.31,1-7.44,2.31-11.25,5.8a10,10,0,0,0-3.12,5.76c-.05.29-.08.58-.11.84s-.07.62-.1.93A38.71,38.71,0,0,0,6.28,33.64c.08.26.16.54.26.84,0,0,.31.94.31.94l.32,1,.55,1.56.92,2.51.55,1.43.47,1.2s.33.78.48,1.15l.59,1.37.4.87.11.25c.14.3.28.57.41.83l.14.29.42.78.19.34c.17.3.33.56.45.75l.28.43c.2.3.38.55.57.79s.3.38.44.55.24.28.36.4A9.11,9.11,0,0,0,15.67,53l1.5,1.16c.49.37,1,.74,1.48,1.09,1.44,1,2.88,2.16,4.4,3.37a93.23,93.23,0,0,0,8.08,5.9c.72.45,1.41.83,2,1.14l1.14.62.57.31.16.24c.13.19.27.43.43.71l.17.33c.15.27.3.55.44.84L37.17,71l.48,1a70.69,70.69,0,0,0,6.23,10.21l.79,1,1,1.1.41.49a10,10,0,0,0,4.7,3.3l.18.06c2,.66,3.73,1.22,5.39,1.72l.33.1a49.71,49.71,0,0,0,8.73,2c.78.1,1.6.16,2.46.19h.27l1.12,0c.69,0,1.37,0,2-.06a9.87,9.87,0,0,0,4-1.1l.24-.12c.75-.4,1.74-.92,2.74-1.51l1.26-.74a55.67,55.67,0,0,0,10.68-7.51,64,64,0,0,0,7.38-8c.33-.45.72-.92,1.11-1.41a47.52,47.52,0,0,0,3-3.94,21.36,21.36,0,0,0,1.63-3l.14-.32q.2-.48.36-1l.55-.31c.39-.23.84-.5,1.31-.81l.38-.27c.27-.18.55-.38.89-.63l.32-.24,1-.77.61-.48s1-.82,1-.82c.37-.31.75-.63,1.12-1l1.29-1.13.53-.49,1.34-1.23,1.08-1,.45-.44L117,52.58l.81-.83.59-.63.86-.91.49-.55c.21-.24.42-.47.61-.7l.49-.57c.24-.29.47-.56.7-.85s.38-.48.57-.73.44-.57.63-.84l.42-.61c.17-.25.33-.49.45-.69s.18-.28.26-.42.3-.52.36-.63.31-.58.35-.67c.13-.27.25-.54.36-.8a17.48,17.48,0,0,0,.81-2.38,6.09,6.09,0,0,0,.17-.61c.06-.25.12-.51.17-.79s.11-.56.15-.8.1-.67.15-1.08.09-1,.13-1.49l0-.53.18-.15.8-.7.28-.25c.34-.32.69-.64,1.06-1a23.14,23.14,0,0,0,3.65-4.94l.35-.58c.14-.22.27-.44.4-.67,0-.05.42-.78.42-.78A10,10,0,0,0,134.87,20ZM124.7,21.07l0,0,0,0h0c-.08.14-.15.28-.24.41a19.32,19.32,0,0,1-2.5,3.65c-.28.28-.55.53-.81.77l-.23.21-.57.49-.17.15-.64.51-.19.14-.4.3-.19.14-.46.3-.14.09-.3.19-.16.09-.23.13-.18.1c-.07,0-.12.07-.18.09l0,0-.21.11,0,0a.52.52,0,0,0-.11.07l0,0a.12.12,0,0,0-.06.09c0,.36,0,.71,0,1.07,0,.15,0,.3,0,.45,0,.33,0,.66,0,1v.5c0,.21,0,.42,0,.64s0,.31,0,.47,0,.4,0,.59l0,.52c0,.29,0,.59-.08.88s0,.4-.08.6-.06.32-.09.48,0,.26-.08.38a.2.2,0,0,1,0-.07,9.5,9.5,0,0,1-.49,1.54c0,.1-.09.2-.14.3l0,.05a1.62,1.62,0,0,1-.1.18l0,.07,0,.06,0,0-.08.15,0,0h0l-.1.15-.29.46c-.09.12-.17.25-.27.38s-.29.39-.44.6l-.43.54q-.26.33-.54.66l-.4.47-.52.58-.42.47q-.36.4-.75.81l-.52.54c-.23.25-.47.5-.72.74l-.48.49-.66.65-.47.46-1,.94-.48.44-.74.68-.5.45-.66.59-.47.41-1,.85-.42.34-.34.28h0l0,0h0a.18.18,0,0,0-.07,0l-.35.28h0l-.11.09-.84.64-.29.22-.61.43-.25.17c-.26.17-.5.33-.72.45a12,12,0,0,0-3.27,2.3c-.13.15-.29.31-.45.48l-.07.07-.18.19a.52.52,0,0,1-.1.11,2.09,2.09,0,0,1-.14.17l-.09.11-.13.17-.08.12-.1.17-.07.13a1.46,1.46,0,0,0-.07.19.49.49,0,0,0,0,.11,1,1,0,0,0,0,.3,3.08,3.08,0,0,1-.09.67l0,.13a5.28,5.28,0,0,1-.24.7l0,.08a10.75,10.75,0,0,1-.88,1.6h0c-1.08,1.64-2.61,3.36-3.7,4.82a55.45,55.45,0,0,1-6.28,6.73c-2.92,2.79-6.65,4.82-10.12,6.87-.73.43-1.49.84-2.27,1.24l-.21.12c-.77,0-1.54,0-2.32,0h-.16c-.56,0-1.13-.06-1.71-.13a42.56,42.56,0,0,1-7.35-1.78c-1.71-.51-3.41-1.06-5.1-1.62h0l-.19-.06c-.12-.16-.25-.3-.37-.45l-.33-.39-.06-.08-.76-.87-.11-.12-.45-.55a59.94,59.94,0,0,1-5.3-8.75,1.19,1.19,0,0,1-.08-.16h0l-.32-.63-1.07-2.18a.91.91,0,0,0-.07-.14c-.18-.38-.38-.75-.58-1.12-.07-.14-.14-.28-.22-.42-.28-.5-.57-1-.89-1.47a10,10,0,0,0-2.24-2.53,13.86,13.86,0,0,0-1.31-.84h0L39,57.43l-1.18-.63c-.48-.26-1-.52-1.4-.8-4.23-2.66-7.94-6-12-8.94-.41-.3-.82-.6-1.23-.92L21.8,45.06,21.74,45a1.25,1.25,0,0,1-.09-.12c-.07-.09-.14-.17-.22-.29l-.1-.17a4.06,4.06,0,0,1-.25-.41L21,43.8l-.28-.52-.1-.21-.3-.61-.11-.23c-.1-.23-.21-.45-.31-.69a2.14,2.14,0,0,1-.1-.22q-.16-.37-.33-.78a1.47,1.47,0,0,1-.1-.22c-.11-.27-.23-.54-.34-.83l-.09-.21c-.11-.29-.23-.57-.34-.87,0-.08-.07-.17-.1-.26l-.33-.84L18,37c-.1-.28-.21-.55-.31-.82l-.12-.32-.27-.76c-.05-.12-.09-.24-.13-.36L17,34.11l-.18-.53c-.06-.15-.11-.31-.16-.45s-.14-.42-.21-.63l-.1-.27c-.08-.26-.16-.49-.23-.72l0-.09c-.08-.25-.15-.49-.22-.7a28.84,28.84,0,0,1-1.25-10.06c0-.18,0-.35.06-.53h0c0-.12,0-.25,0-.37,2.27-2.07,5-2.84,7.86-3.75l.2-.05.19-.06.25-.05.39-.08.49-.08.42-.06.53-.05.44,0,.56,0,.45,0h1l.63,0,.41,0,.77,0h.26l1,.08.3,0,.67.06.35,0,.56.06.36.05.48.05.31,0,.5.07h0l.76.1.2,0,.22,0,.15,0h.23c.17-.08.35-.16.54-.23h0c.22-.1.46-.18.72-.27l.17-.05.62-.19.26-.07.61-.16.29-.07.68-.14.27-.06,1-.18h0l1-.17.31-.05.77-.11.4-.05.73-.09.23,0,.24,0,.38-.05.23,0,.21,0,.91-.09.33,0c.82-.08,1.65-.14,2.47-.2l.37,0,.88,0,.4,0,.9,0,.31,0,1.16-.06h.32l.84,0h.4l.74,0,.38,0,.85,0H57l.75,0h1.76l1.69,0H63.1l.44,0,.25,0,.46,0,.25,0,.52.06.2,0c.51.06,1,.14,1.56.22l.1,0,.72.11.08,0c1.18.19,2.3.4,3.18.53l.21,0,.27,0,.23,0,.22,0h.14l.29,0h.09l.17,0,.08,0a1.38,1.38,0,0,1,.27-.16l.13-.05.13-.06.11,0,.22-.07.09,0,.18,0,.24-.07.35-.08.25-.06.55-.1.35-.07.44-.07.35-.06.4-.06L77,13.5l.39-.05.39,0,.39-.05.4,0,.41-.05.36,0,.7-.08.42-.05.3,0,.4,0,.28,0,.37,0,.24,0,1.19-.11,2.38-.25.17,0h0c.71-.07,1.43-.14,2.15-.19l.33,0c.65-.05,1.3-.09,2-.12h.24q1,0,2,0H93c.69,0,1.38.05,2.07.11,2.4.23,4.79.48,7.19.7l.37,0h0l.46.07.1,0,.45.07a24.23,24.23,0,0,0,2.76.41h.13c.37-.13.74-.24,1.13-.34l.09,0,.68-.16h0l.37-.08h0c.51-.1,1-.18,1.55-.26l.17,0h0c1.69-.24,3.4-.35,5-.48.27,0,.57,0,.88,0h.09a22.45,22.45,0,0,1,2.62.2l.26,0,1,.14.37.06,1,.18.39.08,1.46.3a3.17,3.17,0,0,1,.21.27v0l0,.09h0l.12.21a.14.14,0,0,0,0,.06,1.17,1.17,0,0,1,0,.11h0l.08.21a1,1,0,0,1,0,.1l0,.11.06.21,0,.14a.43.43,0,0,0,0,.11c0,.06,0,.12,0,.18a2.25,2.25,0,0,1,0,.22s0,.06,0,.08,0,.1,0,.15l.06.31s0,.07,0,.1,0,.31.07.46v.06l.06.52v0c.13,1.44.14,2.89.2,3.65a.49.49,0,0,0,0,.12Z"/></svg>