<svg id="Layer_1" data-name="Layer 1" xmlns="http://www.w3.org/2000/svg" xmlns:xlink="http://www.w3.org/1999/xlink" viewBox="0 0 131.69 175.29"><defs><style>.cls-1{opacity:0.43;fill:url(#linear-gradient);}.cls-2{fill:#5e3a17;}.cls-3{fill:#49280d;}.cls-4{fill:#ffd3b6;}.cls-5{fill:#eaae81;}.cls-6{fill:none;stroke:#3f1d06;stroke-miterlimit:10;stroke-width:2px;}.cls-7,.cls-9{fill:#fff;}.cls-7{opacity:0.4;}.cls-8{opacity:0.5;}</style><linearGradient id="linear-gradient" x1="66.51" y1="170.62" x2="66.51" y2="68.36" gradientUnits="userSpaceOnUse"><stop offset="0" stop-color="#7dc0ff" stop-opacity="0"/><stop offset="0.49" stop-color="#334961" stop-opacity="0.55"/><stop offset="0.88" stop-color="#060000"/></linearGradient></defs><path class="cls-1" d="M120.77,141.47c-27.13,38-73.74,37-108.53,7.85l1.11-81c20.67,48.75,93.74,35.11,106.36,0Z"/><path class="cls-2" d="M119.69,85.44c-10.49,22.21-98.38,20.88-106.36,0V19.92H119.69Z"/><ellipse class="cls-3" cx="66.51" cy="19.92" rx="53.18" ry="11.33"/><ellipse class="cls-4" cx="66.51" cy="19.65" rx="50.18" ry="10.29"/><ellipse class="cls-5" cx="67.21" cy="19.65" rx="48.29" ry="9.63"/><polygon class="cls-3" points="17.46 24.31 17.46 63.35 21.44 27.1 23.66 26.63 17.46 24.31"/><polygon class="cls-3" points="96.47 29.28 98.96 29.94 100.59 89.48 102.21 29.28 101.33 27.8 96.47 29.28"/><polygon class="cls-3" points="50.98 30.73 48.7 31.16 51.77 58.04 54.6 32.27 57.94 31.1 50.98 30.73"/><path class="cls-2" d="M120.39,85.44C109.91,107.65,22,106.32,14,85.44V19.92H120.39Z"/><ellipse class="cls-3" cx="67.21" cy="19.92" rx="53.18" ry="11.33"/><ellipse class="cls-4" cx="67.21" cy="19.65" rx="50.18" ry="10.29"/><ellipse class="cls-5" cx="67.92" cy="19.65" rx="48.29" ry="9.63"/><polygon class="cls-3" points="18.17 24.31 18.17 63.35 22.15 27.1 24.37 26.63 18.17 24.31"/><polygon class="cls-3" points="97.18 29.28 99.67 29.94 101.29 89.48 102.92 29.28 102.04 27.8 97.18 29.28"/><polygon class="cls-3" points="51.69 30.73 49.4 31.16 52.48 58.04 55.31 32.27 58.64 31.1 51.69 30.73"/><path class="cls-6" d="M66.51,8.59c-29.38,0-53.18,5.07-53.18,11.33V85.44c8,20.88,95.87,22.21,106.36,0V19.92C119.69,13.66,95.88,8.59,66.51,8.59Z"/><path class="cls-7" d="M66.84,9.53h-.68c-28.65,0-51.87,5-51.87,11.09V84.77C18.23,95.09,42,100.52,65.93,100.58c23.68.17,47.66-4.94,52.78-15.81V20.62C118.71,14.5,95.49,9.53,66.84,9.53Z"/><g class="cls-8"><path class="cls-9" d="M6.54,87.27C9.35,96,25,101,33.07,103.48,57.6,110.18,88.54,112,111.25,99a46.41,46.41,0,0,0,12.23-10.34,43.87,43.87,0,0,1-11.71,11.17C88.89,114.2,57.63,112.49,32.62,105c-8.18-2.69-23.86-8.58-26.08-17.7Z"/></g><g class="cls-8"><path class="cls-9" d="M13.05,105.89C17.73,112,30.79,115,38.19,116.68c18.1,3.65,37.07,4.51,55.2.55,9-2.08,17.82-5.53,25.14-11.34a48.73,48.73,0,0,1-11.54,8c-21.38,10.18-46.5,9.48-69.15,4.35-7.52-2-20.44-5.6-24.79-12.31Z"/></g></svg>