<svg id="Layer_1" data-name="Layer 1" xmlns="http://www.w3.org/2000/svg" viewBox="0 0 131.69 119.49"><defs><style>.cls-1{fill:#0dff00;}</style></defs><path class="cls-1" d="M106.19,5.67C95.48,3.39,81.39,2.13,66.51,2.13s-29,1.26-39.69,3.54C20.39,7,3.33,10.67,3.33,23.46V89A9.91,9.91,0,0,0,4,92.56c8,21,50,22.59,62.7,22.59h0c12.13,0,52.45-1.58,62-21.89a10,10,0,0,0,1-4.27V23.46C129.69,10.67,112.62,7,106.19,5.67ZM119.69,89c-10.49,22.2-98.38,20.88-106.36,0V23.46c0-6.26,23.8-11.33,53.18-11.33s53.18,5.07,53.18,11.33Z"/></svg>