<svg id="Layer_1" data-name="Layer 1" xmlns="http://www.w3.org/2000/svg" viewBox="0 0 131.69 121.85"><defs><style>.cls-1{fill:red;}</style></defs><path class="cls-1" d="M106.19,7.79C95.48,5.51,81.39,4.25,66.51,4.25s-29,1.26-39.69,3.54c-6.43,1.37-23.49,5-23.49,17.79V91.11A9.91,9.91,0,0,0,4,94.68c8,21,50,22.59,62.7,22.59h0c12.13,0,52.45-1.58,62-21.89a10,10,0,0,0,1-4.27V25.58C129.69,12.8,112.62,9.16,106.19,7.79Zm13.5,83.32c-10.49,22.21-98.38,20.88-106.36,0V25.58c0-6.25,23.8-11.33,53.18-11.33s53.18,5.08,53.18,11.33Z"/></svg>