<svg xmlns="http://www.w3.org/2000/svg" xmlns:xlink="http://www.w3.org/1999/xlink" width="252" height="368.47" viewBox="0 0 252 368.47">
  <defs>
    <style>
      .cls-1, .cls-14, .cls-8 {
        fill: none;
      }

      .cls-2 {
        isolation: isolate;
      }

      .cls-12, .cls-3 {
        fill: #f9d1c7;
      }

      .cls-14, .cls-3 {
        stroke: #6e4c2d;
      }

      .cls-11, .cls-14, .cls-15, .cls-17, .cls-3, .cls-4, .cls-5, .cls-7, .cls-8, .cls-9 {
        stroke-miterlimit: 10;
      }

      .cls-15, .cls-4 {
        fill: #94d9f2;
      }

      .cls-4 {
        stroke: #2f7b8d;
      }

      .cls-5 {
        fill: #086797;
        stroke: #07465f;
      }

      .cls-6 {
        fill: #043d5b;
      }

      .cls-7 {
        fill: #1882a9;
        stroke: #053651;
      }

      .cls-8 {
        stroke: #2b3880;
      }

      .cls-9 {
        fill: #7d4c2b;
      }

      .cls-11, .cls-9 {
        stroke: #56331c;
      }

      .cls-10 {
        fill: #512f19;
      }

      .cls-11 {
        fill: #693e20;
      }

      .cls-13 {
        fill: #6e4c2d;
      }

      .cls-15 {
        stroke: #29589a;
      }

      .cls-16 {
        fill: #f38698;
      }

      .cls-17 {
        fill: #39c5ec;
        stroke: #136073;
      }

      .cls-18 {
        fill: #e8a89a;
      }

      .cls-19 {
        clip-path: url(#clip-path);
      }

      .cls-20 {
        fill: #c43127;
      }

      .cls-21 {
        fill: #589b43;
      }

      .cls-22 {
        fill: #94c949;
      }

      .cls-23 {
        fill: #5f3a18;
      }

      .cls-24 {
        fill: #c3975c;
      }

      .cls-24, .cls-27 {
        mix-blend-mode: multiply;
      }

      .cls-25 {
        fill: #e24226;
      }

      .cls-26 {
        fill: #f16751;
      }

      .cls-27 {
        fill: #ffd494;
      }

      .cls-28 {
        clip-path: url(#clip-path-2);
      }

      .cls-29 {
        fill: #dc9e8f;
      }

      .cls-30 {
        fill: #352618;
      }

      .cls-31 {
        fill: #fff;
      }

      .cls-32 {
        fill: #3e2f19;
      }

      .cls-33 {
        fill: #2e2b21;
      }

      .cls-34 {
        fill: #6e2a27;
      }

      .cls-35 {
        fill: #d36754;
      }

      .cls-36 {
        fill: #f6978f;
      }

      .cls-37 {
        fill: #e9827d;
      }
    </style>
    <clipPath id="clip-path">
      <path class="cls-1" d="M60.37,250.75a42.11,42.11,0,0,1,3.22,14s-4.86,3.49-6.31,5.64c0,0-32.15.95-43.21-10s19.18-12.53,19.18-12.53S57,245.46,60.37,250.75Z"/>
    </clipPath>
    <clipPath id="clip-path-2">
      <path class="cls-1" d="M71.67,253.85s1.76,8,1.74,10.7c0,0,2.9.94,6.33,5.59,0,0,5.14-.12,5.48-2.52,0,0,4.6-7.3,4.14-9.69S75.27,239.9,71.67,253.85Z"/>
    </clipPath>
  </defs>
  <g class="cls-2">
    <g id="Layer_1" data-name="Layer 1">
      <g>
        <g>
          <g>
            <path class="cls-3" d="M99.06,293.33s-2.12,5.13-4.63,11.71c0,.1-.08.2-.11.3-.49,1.26-1,2.58-1.47,3.92-.32.85-.64,1.71-.95,2.58a.83.83,0,0,0,0,.12c-1.8,5-3.51,10.05-4.54,14,0,0-5,12.79-12.41,9.92s-6-14.23-6-14.23l4.29-13.94.75-2.45,1.19-3.86,3.69-12Z"/>
            <path class="cls-4" d="M92.85,309.26c-.32.85-.64,1.71-.95,2.58a.83.83,0,0,0,0,.12c-1.8,5-3.51,10.05-4.54,14,0,0-5,12.79-12.41,9.92s-6-14.23-6-14.23l4.29-13.94.75-2.45Z"/>
          </g>
          <g>
            <polygon class="cls-3" points="137.58 332.23 115.78 323.35 115.89 308.41 115.91 305.95 115.94 302.45 116.04 289.93 137.05 289.28 136.1 302.5 135.9 305.28 135.69 308.19 135.1 316.43 137.58 332.23"/>
            <path class="cls-4" d="M137.58,332.23l-21.8-8.88.11-14.94,0-2.46c3.58,1.33,10.69,2.85,20-.67l-.21,2.91-.59,8.24Z"/>
            <path class="cls-4" d="M135.75,302.89l.35-.39c-7.26,3.53-15.32,1.6-19.88,0l0,6.11c10.17,4.13,16.29,2.27,19.19.54Z"/>
          </g>
          <g>
            <path class="cls-5" d="M160.16,338c-15.8,7.83-40.86-.65-40.86-.65-9.84-.52-10.56-2.2-8.92-5.66l0-.09c1.7-3.52,1.18-7.18,1.44-11a4.28,4.28,0,0,1,3.92-4.05l.52,3.52-1.7-.78a13.47,13.47,0,0,0,1.33,1.29c5,4.24,11.86,4.46,11.86,4.46l2.08,1.42a8,8,0,0,1-.78-9.78c3.4-5.48,7.83-1.05,7.83-1.05,1.8,3.75,3,5.3,4.58,6.16a6.78,6.78,0,0,0,1.16.51c.57.2,1.21.38,1.93.56l1.77.45.73.2c.53.15,1.09.31,1.7.51,1,.33,2.21.74,3.54,1.28,5.37,2.17,7.27,5.53,7.86,8.23A9.82,9.82,0,0,1,160.16,338Z"/>
            <g>
              <path class="cls-6" d="M142.66,322.31c-4.76,2.8-4.71,6.07-4.71,6.07l-1.18-.55c.49-3,3-5,4.73-6A6.78,6.78,0,0,0,142.66,322.31Z"/>
              <path class="cls-6" d="M146.36,323.32a9.49,9.49,0,0,0-5.83,5.8l-1.29-.43a10.18,10.18,0,0,1,5.35-5.82Z"/>
              <path class="cls-6" d="M148.79,324a9.16,9.16,0,0,0-5,5.58l-1.47-.12c1.81-3.65,3.48-5.28,4.77-6C147.62,323.67,148.18,323.83,148.79,324Z"/>
            </g>
            <path class="cls-7" d="M160.16,338c-15.8,7.83-40.86-.65-40.86-.65-9.84-.52-10.56-2.2-8.92-5.66,1.25.94,3.86,2.09,9.31,2.65a88.82,88.82,0,0,0,29.7,3.4c7.44-.44,10.1-2.29,10.8-4.17A9.82,9.82,0,0,1,160.16,338Z"/>
          </g>
          <g>
            <path class="cls-5" d="M89.55,338.79c0,.49-.09,1-.14,1.53,0,0,.52,1.31-4.57,1.83s-.55,5-11.26,8-23.08.19-24.25-7a5.7,5.7,0,0,1,.22-2.66c1.22-3.68,5.89-6.74,9.18-8.5.56-.31,1.09-.57,1.55-.8,1.11-.54,1.85-.83,1.85-.83l.07,0a6.51,6.51,0,0,0,1.38-.84,8.08,8.08,0,0,0,1-1,8.48,8.48,0,0,0,.78-1,9.34,9.34,0,0,0,1-2c1.44-3.79,3.79-8.23,8.88-7.05s3.65,12,3.65,12l-3.26,3.52,12.4-9,.92-4.44S91.51,317.49,89.55,338.79Z"/>
            <g>
              <path class="cls-6" d="M68.65,335.49l-.88.68A18.17,18.17,0,0,0,59.28,332c.57-.31,1.09-.57,1.55-.8C66.76,332.92,68.65,335.49,68.65,335.49Z"/>
              <path class="cls-6" d="M72.08,333.83l-.88.68a18.19,18.19,0,0,0-8.45-4.14,6.51,6.51,0,0,0,1.38-.84C70.16,331.21,72.08,333.83,72.08,333.83Z"/>
              <path class="cls-6" d="M74.23,332l-.88.68a18.09,18.09,0,0,0-8.18-4.08,7.54,7.54,0,0,0,.78-1C72.24,329.26,74.23,332,74.23,332Z"/>
            </g>
            <path class="cls-7" d="M89.41,340.32s.52,1.31-4.57,1.83-.55,5-11.26,8-23.08.19-24.25-7a5.7,5.7,0,0,1,.22-2.66c.9,2.85,3.52,6.78,11.11,7.69,12.24,1.47,18.5-2.35,22.22-7.64,0,0-.16-1.15,6.67-1.79C89.51,339.28,89.46,339.8,89.41,340.32Z"/>
          </g>
        </g>
        <g>
          <path class="cls-5" d="M86.27,237.32s5.36-16-10.31,51.7c0,0,7.31,8.09,24,8,0,0,11.75-.52,13.58-7.18l.91-2.61.39,2.74s6,7.31,22.06,5.48,14.89-6.52,14.89-6.52,5.74-37.47.91-58.22-61.88.52-61.88.52S85.75,232.49,86.27,237.32Z"/>
          <g>
            <path class="cls-8" d="M113.62,289.08A47.38,47.38,0,0,0,116.36,274"/>
            <path class="cls-8" d="M113.52,274.79s8.91-1,13.81-8.42"/>
            <path class="cls-8" d="M95.9,246.79s-2.74,10.28-13,12.14"/>
          </g>
        </g>
        <g>
          <g>
            <path class="cls-9" d="M85.52,267.15a29.48,29.48,0,0,1-2,9.78c-.13.32-.27.64-.4,1a28.16,28.16,0,0,1-3.89,6.53c-.35.44-.72.87-1.11,1.31a24.66,24.66,0,0,1-2.06,2h0l-.58.51h0A28.49,28.49,0,0,1,69.57,292l-.64.3A37.87,37.87,0,0,1,65,293.87c-1.15.38-2.31.71-3.47,1h0a42.61,42.61,0,0,1-7.33,1.06H54a45.46,45.46,0,0,1-8.74-.38l-.18,0A47.84,47.84,0,0,1,36,293.33l-.27-.1c-1-.37-2-.76-3-1.19a40.08,40.08,0,0,1-3.93-2c-.58-.32-1.15-.67-1.7-1l-.27-.18a34.86,34.86,0,0,1-4-3,21.64,21.64,0,0,1-4.12-5c-.39-.63-.74-1.27-1.07-1.92a35.38,35.38,0,0,1-2.8-7.89c-.1-.45-.19-.88-.28-1.31a46.72,46.72,0,0,1-.93-10.15l7.86.29h.21l7.79.29,39.6,4.91,1.23-1.78L80,266.46l.81.1Z"/>
            <path class="cls-10" d="M47.5,238.24s-10-5-13.57,5.09-2.22,13.84-2.22,13.84l-9.92.13s-3.66-16.58,15.4-30.55Z"/>
            <g>
              <path class="cls-10" d="M27.11,289c.1.22.2.43.29.64l-.18,0-.38-.78c-1-2.05-1.86-4-2.58-5.85-.2-.53-.39-1-.57-1.55a53.59,53.59,0,0,1-1.93-6.73c-.11-.53-.21-1-.3-1.55-1.24-6.88-.42-11.45.06-13.28a6.3,6.3,0,0,1,.27-.91c0,.31-.05.62-.06.92a59.75,59.75,0,0,0,.75,13.69c.09.52.18,1,.28,1.52a65.4,65.4,0,0,0,1.64,6.59c.16.51.32,1,.48,1.49C25.62,285.45,26.4,287.42,27.11,289Z"/>
              <path class="cls-10" d="M35.68,292.53l.33.8-.27-.1c-.12-.25-.24-.49-.35-.74s-.34-.72-.5-1.07a65,65,0,0,1-2.46-6.32c-.13-.4-.26-.8-.37-1.18a50.36,50.36,0,0,1-1.52-6.45c-.06-.42-.13-.83-.18-1.23C29.3,268.33,31,264,31,264a59.05,59.05,0,0,0,.37,12.52c.06.4.11.8.18,1.2a63,63,0,0,0,1.33,6.39l.3,1.14c.66,2.33,1.38,4.43,2.09,6.24Z"/>
            </g>
            <g>
              <path class="cls-10" d="M68.94,261S74.2,274,60.76,296.13A61.74,61.74,0,0,0,68.94,261Z"/>
              <path class="cls-10" d="M59.9,279.44c0,.34-.11.69-.19,1a49.75,49.75,0,0,1-1.54,5.93l-.34,1c-.62,1.78-1.37,3.67-2.28,5.66-.15.32-.3.65-.46,1-.29.6-.59,1.22-.91,1.84H54c.26-.57.52-1.19.8-1.85.13-.32.27-.64.39-1,.67-1.67,1.34-3.57,1.95-5.66.1-.33.2-.67.29-1a60.78,60.78,0,0,0,1.33-5.94c.06-.34.12-.68.17-1A56.81,56.81,0,0,0,59.44,266S61.37,270.74,59.9,279.44Z"/>
            </g>
            <path class="cls-10" d="M79.59,277.6c-.09.39-.19.77-.29,1.17a58.61,58.61,0,0,1-2,6c-.17.41-.33.83-.51,1.25-.24.58-.5,1.18-.78,1.78h0l-.58.51c.27-.7.55-1.42.83-2.2.14-.4.29-.82.43-1.24.61-1.79,1.18-3.75,1.68-5.87.09-.4.18-.8.26-1.2A59.32,59.32,0,0,0,80,266.46c0-1.82-.47,1.14-.62-.78,0,0,1.25-2.85,1.43.88A38.43,38.43,0,0,1,79.59,277.6Z"/>
            <path class="cls-10" d="M45.58,267.64,45.44,279v.87L45.36,286v.86l-.07,5.89v.86l0,1.93-.18,0L45,293.59l0-.86-.16-5.91,0-.87-.17-6.21,0-.88-.3-11.22Z"/>
            <path class="cls-10" d="M83.48,276.93c-.13.32-.27.64-.4,1q-1.65.45-3.78.87l-.92.19a90.27,90.27,0,0,1-10.33,1.25h0l-.83.06c-2.29.13-4.79.21-7.5.21h-1c-3.46,0-7.25-.18-11.4-.5l-1.91-.16-.8-.08a105.74,105.74,0,0,1-13.09-2c-.34-.07-.67-.15-1-.24a61.93,61.93,0,0,1-7.78-2.35l-1-.39a34.13,34.13,0,0,1-6.89-3.66c-.1-.45-.19-.88-.28-1.31a58.58,58.58,0,0,0,6.87,3.42l1,.42a68.11,68.11,0,0,0,7.88,2.64l1,.27a90.27,90.27,0,0,0,13.25,2.35l.83.09a119.46,119.46,0,0,0,13.47.52l1,0c2.64-.06,5.19-.2,7.61-.39l.89-.07c3.82-.32,7.28-.77,10.24-1.22l1-.16C81,277.37,82.33,277.14,83.48,276.93Z"/>
            <path class="cls-10" d="M79.19,284.43c-.35.44-.72.87-1.11,1.31L76.8,286l-.53.09a94.46,94.46,0,0,1-10.84,1.18l-.44,0c-2.21.11-4.59.17-7.16.16h-.71c-3.34,0-7-.19-11-.5l-.81-.07-.53,0a116.75,116.75,0,0,1-11.65-1.58l-.74-.14a75.25,75.25,0,0,1-7.55-1.9l-.62-.19a48.36,48.36,0,0,1-5.52-2.13c-.39-.63-.74-1.27-1.07-1.92a63.1,63.1,0,0,0,6,2.5c.23.09.47.18.71.25a74.22,74.22,0,0,0,7.66,2.21c.27.06.53.13.81.18A91.93,91.93,0,0,0,44.8,286l.56.05a118,118,0,0,0,12,.42h.76c2.51-.05,4.95-.17,7.27-.34l.51,0c4-.3,7.63-.74,10.75-1.2l.61-.1Z"/>
            <path class="cls-10" d="M68.93,292.32A37.87,37.87,0,0,1,65,293.87L62,294h0c-2.15.08-4.43.1-6.88.06h-.31c-2.94-.06-6.1-.2-9.51-.46l-.26,0h0c-3.41-.27-6.5-.63-9.31-1.06l-.29,0c-.91-.15-1.8-.29-2.65-.45a40.08,40.08,0,0,1-3.93-2c2,.54,4.05,1,6.08,1.36l.37.06c3.25.59,6.52,1,9.72,1.25l.3,0c3.38.26,6.69.36,9.89.34h.38q3.63,0,7-.25h.1C64.85,292.7,67,292.52,68.93,292.32Z"/>
            <path class="cls-11" d="M14.25,260.59s5.68,9.69,43.17,10.09c0,0,5.29-6.27,10.87-7.25s11.46,6.95,11.46,6.95,6.07-.29,5.77-3.23S67,255.89,36,255.21a21.58,21.58,0,0,0-9-4s-2.84-.39-7,4S12.29,259.22,14.25,260.59Z"/>
            <g>
              <path class="cls-9" d="M50.47,238.27s14,5.78,14.1,35.25c0,0,5.39,2.15,9.4-.49,0,0,.2-21-10.48-38.29S50.47,238.27,50.47,238.27Z"/>
              <ellipse class="cls-10" cx="69.43" cy="270.12" rx="1.37" ry="1.79"/>
            </g>
            <ellipse class="cls-10" cx="27.2" cy="254.68" rx="1.24" ry="1.57"/>
          </g>
          <g>
            <path class="cls-3" d="M78.87,192.65a66.67,66.67,0,0,0-6.47,7.83s-.19,3.72-5.58,9.4c0,0-5.28,6.75-6.46,12.14a58.58,58.58,0,0,1,5.58,8.51,68.05,68.05,0,0,1,.59,9.4s-2.64-5.87-7.15-7.05c0,0-5.58,1-6.26,5.78,0,0,0,4.41,3.33,5.68,0,0,2.74,2.15-.89,3.13s-7-2.93-7-2.93-3.24,1.66-5.68-2.94c0,0-2.55,2.05-5.09-3L37,236.12s-2.05,1.46-2.93-4,3.42-10.47,10.18-16c0,0,3.82-23.89,19-37.69C63.2,178.45,81,186.67,78.87,192.65Z"/>
            <g>
              <g>
                <line class="cls-12" x1="71.91" y1="202.24" x2="72.7" y2="196.56"/>
                <polygon class="cls-13" points="71.42 202.17 72.7 196.56 72.41 202.31 71.42 202.17 71.42 202.17"/>
              </g>
              <g>
                <line class="cls-12" x1="61.83" y1="223.78" x2="57.91" y2="219.86"/>
                <polygon class="cls-13" points="61.48 224.13 57.91 219.86 62.18 223.43 61.48 224.13 61.48 224.13"/>
              </g>
            </g>
            <g>
              <g>
                <path class="cls-12" d="M49.69,245.51s-3.82-1.17-1.76-10.67"/>
                <path class="cls-13" d="M49.54,246c-2.94-1.7-2.55-5.47-2.21-8.32.15-1,.37-1.89.6-2.83-.14.95-.29,1.9-.35,2.86-.1,2.46-.17,6,2.26,7.34l-.3,1Z"/>
              </g>
              <g>
                <path class="cls-12" d="M43.23,242.48s-2.35-3.23-.59-9.4"/>
                <path class="cls-13" d="M42.82,242.77c-1.62-3-1.2-6.57-.18-9.69-.66,3-.75,6.5,1,9.11l-.81.58Z"/>
              </g>
              <g>
                <path class="cls-12" d="M37.75,238.56a11.23,11.23,0,0,1,.09-10"/>
                <path class="cls-13" d="M37.31,238.81a11.68,11.68,0,0,1,.53-10.23,11.25,11.25,0,0,0,.34,9.73l-.87.5Z"/>
              </g>
            </g>
          </g>
          <g>
            <path class="cls-3" d="M173.35,180.21l4.11,5.48s20.75,1.37,30.94-1.56c8.48-2.45,7.8-5.58,13.5-6.31,2.72-.34,6.57.33,8.86-1.17,1.41-.92,6-5.24,8.12-2.41,0,0,1.59,3.94-5,8.29a33.16,33.16,0,0,1-7.08,3.56s.18,1.39,11.32,5.08a2.59,2.59,0,0,1,1.71,1.85l0,.07a3.18,3.18,0,0,1-3.12,3.87h-.13s2.44,1.76.05,4.4c0,0-.8,1.24-3.53.36,0,0,2.56,2.55,0,4.67-1.93,1.6-6.13-.79-6.13-.79a2.6,2.6,0,0,1,1.19,3.33c-1.19,2.87-9.21,2.82-17.83-10.4,0,0-8.22,8.22-39.75,8.42,0,0-4.11,0-10.86-6.95Z"/>
            <path class="cls-3" d="M226.8,186.09s-1.76,6.16-10.87,6.36"/>
            <path class="cls-14" d="M223.28,208.15s-6.62-3.87-5.87-6.71c1-3.71,7.87,1.74,10.21,4.47"/>
            <path class="cls-14" d="M221.07,200.6s-2.33-5.38,2.5-4.28a20.82,20.82,0,0,1,9.55,5.39"/>
            <path class="cls-14" d="M224.18,196c-.13-.22-2.21-4.25,2.11-3.73s10.44,4.81,10.44,4.81"/>
            <path class="cls-14" d="M228.26,192.93s-3.09-4.29,2.34-3.81a24.6,24.6,0,0,1,8.28,2.46"/>
          </g>
          <path class="cls-15" d="M157,208.92c-.05,4.53-.05,11.53.2,17.72a72,72,0,0,0,1.05,10.94s-10.18,15.67-37,15.08-37.6-14.88-37.6-14.88l1.7-12.38,2.21-16.13,3.34-24.36-7.44,7.84S70,195.68,61.34,176.49c0,0,3.24-4,8.12-9.05A124,124,0,0,1,79.51,158a72.58,72.58,0,0,1,6.5-4.85A44.61,44.61,0,0,1,102,147.26c1-.2,2.05-.37,3.11-.52a15.38,15.38,0,0,0-.43,3.61c0,8.81,7.7,16,17.21,16s17.21-7.15,17.21-16c0-.22,0-.43,0-.65,1,.34,2,.7,3,1.1a6.07,6.07,0,0,1,.59.24,47.45,47.45,0,0,1,15.67,11c3.52,3.71,8.06,8.7,11.86,12.92l.37.4h0c4,4.49,7.15,8,7.15,8s-9,20.17-20.56,20.76C157.09,204.1,157.05,206,157,208.92Z"/>
          <path class="cls-3" d="M139.06,150.35c-3.15,17.91-18.39,16.35-18.39,16.35-17.82-2.74-15.47-17.82-15.47-17.82a10.26,10.26,0,0,0,1.73-2.22,7,7,0,0,0,.62-6.2l.79-.39s30.15-4.31,28.78,2.94a11.2,11.2,0,0,0,0,5.36C137.7,150.31,139.06,150.35,139.06,150.35Z"/>
          <path class="cls-16" d="M170.21,176.62s.4-.92.39-.91l-.26.52c-.12.5-2.91,11.25-13.34,21.11l-.3-6.16s-4.6,5.58-33.48,6.65S90,191.76,90,191.76l.88-6.85s-12.18-2.06-21.08-17.3A126.19,126.19,0,0,1,80,158.35a32.74,32.74,0,0,0,11.88,11.48l.2,4s7.92,6.75,32.7,5.58S156.41,175,156.41,175l.09,4.8s6.56-7.22,6.66-11.81l7.44,7.7Z"/>
          <path class="cls-16" d="M157,226.64c-4.13,2.47-14.16,6.82-34.08,7.52-18.54.64-30.89-4.91-37.13-8.76l2.19-16.13a68.82,68.82,0,0,0,34.74,7.07c17.27-1,29.24-5.35,34.08-7.42C156.71,213.45,156.71,220.45,157,226.64Z"/>
          <path class="cls-17" d="M137.53,149.44c0,.2,0,.39,0,.59,0,8-7,14.56-15.7,14.56s-15.7-6.52-15.7-14.56a13.79,13.79,0,0,1,.4-3.29q-1.45.21-2.85.48a15.3,15.3,0,0,0-.25,2.81c0,9.42,8,18.82,18.2,18.82,10,0,18.35-9.17,18.59-18.4C139.35,150.08,138.45,149.75,137.53,149.44Z"/>
          <path class="cls-15" d="M156.8,209.19s-.43-31.2-.43-42.36"/>
          <path class="cls-15" d="M89.73,193.43s2.42-17.72,2.29-31.69"/>
          <path class="cls-18" d="M136.75,144.18a11.33,11.33,0,0,0,0,5.36C125,154.1,113,150.38,107,147.83a7.07,7.07,0,0,0,.62-6.19l.77-.4S138.1,136.94,136.75,144.18Z"/>
        </g>
        <path class="cls-4" d="M94.09,305c0,.1,0-.1,0,0l-2.55,7s-1,.2-1,.24c-4.19.29-11.72.15-17.14-4.4l2-6.36C79.13,304,85.12,306.77,94.09,305Z"/>
        <g>
          <g class="cls-19">
            <g>
              <path class="cls-20" d="M47.67,254.42s-6-2.77-11.08-.89a6.37,6.37,0,0,0,4.94,2C44.92,255.52,47.53,255,47.67,254.42Z"/>
              <g>
                <path class="cls-21" d="M38.45,249.86s-.39,2.76,2.88,4C41.33,253.9,41.16,250.22,38.45,249.86Z"/>
                <path class="cls-22" d="M41.32,253.89c-3.26-1.27-2.87-4-2.87-4h0Z"/>
              </g>
              <g>
                <path class="cls-23" d="M41,255.47s.84-3.85-.06-5.5a2.4,2.4,0,0,1,2.38.53,34,34,0,0,0-.82,5Z"/>
                <path class="cls-24" d="M41,250a1.93,1.93,0,0,1,.82-.11s.1,1.73.12,2.34a12.75,12.75,0,0,0,.62,3.25v0H41S41.85,251.62,41,250Z"/>
              </g>
              <path class="cls-25" d="M31.73,258c-2.38,6,2.61,13.65,10.13,13.91,4.78.16,10-5,10-9.88,0-4.5-1.35-7.42-6.12-8-.87-.1-3.48.88-3.83.88a2.92,2.92,0,0,1-1.8-.54C37.76,252.45,33.62,253.28,31.73,258Z"/>
              <path class="cls-26" d="M49.68,264.09a1.64,1.64,0,0,1-1.52-.46,6,6,0,0,1-1.32-3.89,6.48,6.48,0,0,0-.44-2.9,2.22,2.22,0,0,0-.85-.89,1.58,1.58,0,0,1,.32,0c3,0,4.8,2.89,4.8,6A6,6,0,0,1,50.3,264Z"/>
              <path class="cls-27" d="M33.87,254.93a11.41,11.41,0,0,0-.69,5.55,10.45,10.45,0,0,0,2.17,5.61,8.87,8.87,0,0,0,4.9,3.3,11.08,11.08,0,0,0,6.46-.67,12.76,12.76,0,0,0,2.45-1.35c-1.72,2.75-3.86,4.58-7.3,4.58-5.35,0-10.58-5.06-10.58-10.52A8.91,8.91,0,0,1,33.87,254.93Z"/>
            </g>
            <g>
              <path class="cls-20" d="M33.25,255.31s-6-2.77-11.07-.89a6.35,6.35,0,0,0,4.94,2C30.51,256.41,33.11,255.88,33.25,255.31Z"/>
              <g>
                <path class="cls-21" d="M24,250.75s-.39,2.76,2.89,4C26.92,254.79,26.75,251.11,24,250.75Z"/>
                <path class="cls-22" d="M26.91,254.79c-3.27-1.28-2.88-4-2.88-4h0Z"/>
              </g>
              <g>
                <path class="cls-23" d="M26.59,256.36s.84-3.85-.05-5.5a2.38,2.38,0,0,1,2.37.53,34,34,0,0,0-.82,5Z"/>
                <path class="cls-24" d="M26.54,250.86a1.9,1.9,0,0,1,.81-.11s.11,1.73.13,2.34a12.54,12.54,0,0,0,.61,3.26v0h-1.5S27.43,252.51,26.54,250.86Z"/>
              </g>
              <path class="cls-25" d="M17.32,258.93c-2.39,6,2.61,13.65,10.12,13.91,4.78.16,10-5,10-9.88,0-4.5-1.35-7.42-6.12-8-.87-.1-3.47.88-3.83.88a2.89,2.89,0,0,1-1.79-.54C23.35,253.34,19.21,254.17,17.32,258.93Z"/>
              <path class="cls-26" d="M35.27,265a1.61,1.61,0,0,1-1.52-.46,5.92,5.92,0,0,1-1.32-3.89,6.48,6.48,0,0,0-.45-2.9,2.15,2.15,0,0,0-.85-.89,1.66,1.66,0,0,1,.32,0c3,0,4.8,2.89,4.8,6a6.28,6.28,0,0,1-.36,2.09Z"/>
              <path class="cls-27" d="M19.45,255.82a11.29,11.29,0,0,0-.68,5.55A10.37,10.37,0,0,0,20.94,267a8.8,8.8,0,0,0,4.9,3.3,11.09,11.09,0,0,0,6.46-.66,13.3,13.3,0,0,0,2.44-1.36c-1.72,2.75-3.86,4.58-7.3,4.58-5.35,0-10.57-5.06-10.57-10.52A8.9,8.9,0,0,1,19.45,255.82Z"/>
            </g>
            <g>
              <path class="cls-20" d="M61.62,253.65s-6-2.77-11.07-.89a6.35,6.35,0,0,0,4.94,2C58.88,254.75,61.48,254.22,61.62,253.65Z"/>
              <g>
                <path class="cls-21" d="M52.4,249.08s-.38,2.77,2.89,4C55.29,253.12,55.12,249.44,52.4,249.08Z"/>
                <path class="cls-22" d="M55.28,253.12c-3.26-1.28-2.88-4-2.88-4h0Z"/>
              </g>
              <g>
                <path class="cls-23" d="M55,254.69s.84-3.84-.06-5.49a2.38,2.38,0,0,1,2.37.53,35.45,35.45,0,0,0-.82,5Z"/>
                <path class="cls-24" d="M54.91,249.2a1.93,1.93,0,0,1,.82-.11s.1,1.73.12,2.34a12.46,12.46,0,0,0,.61,3.25v0H55S55.81,250.85,54.91,249.2Z"/>
              </g>
              <path class="cls-25" d="M45.69,257.27c-2.39,6,2.61,13.65,10.13,13.91,4.77.16,9.94-5,9.94-9.88,0-4.51-1.35-7.42-6.12-8-.87-.1-3.47.88-3.82.88a3,3,0,0,1-1.8-.54C51.72,251.68,47.58,252.5,45.69,257.27Z"/>
              <path class="cls-26" d="M63.64,263.32a1.64,1.64,0,0,1-1.52-.46A6,6,0,0,1,60.8,259a6.39,6.39,0,0,0-.45-2.9,2.17,2.17,0,0,0-.84-.88,1.47,1.47,0,0,1,.32,0c3,0,4.79,2.9,4.79,6a6.24,6.24,0,0,1-.36,2.09C64.05,263.27,63.85,263.3,63.64,263.32Z"/>
              <path class="cls-27" d="M47.83,254.15a11.33,11.33,0,0,0-.69,5.56,10.37,10.37,0,0,0,2.17,5.61,8.83,8.83,0,0,0,4.9,3.3,11.09,11.09,0,0,0,6.46-.67,13.66,13.66,0,0,0,2.45-1.35c-1.73,2.75-3.86,4.58-7.3,4.58-5.36,0-10.58-5.06-10.58-10.52A8.89,8.89,0,0,1,47.83,254.15Z"/>
            </g>
          </g>
          <g class="cls-28">
            <g>
              <path class="cls-20" d="M82.74,255.4s-6-2.77-11.07-.89a6.35,6.35,0,0,0,4.94,2C80,256.5,82.6,256,82.74,255.4Z"/>
              <g>
                <path class="cls-21" d="M73.52,250.83s-.39,2.76,2.88,4C76.4,254.87,76.24,251.19,73.52,250.83Z"/>
                <path class="cls-22" d="M76.4,254.87c-3.27-1.28-2.88-4-2.88-4h0Z"/>
              </g>
              <g>
                <path class="cls-23" d="M76.08,256.44s.84-3.84,0-5.49a2.38,2.38,0,0,1,2.37.53,34,34,0,0,0-.82,5Z"/>
                <path class="cls-24" d="M76,251a2,2,0,0,1,.81-.12s.11,1.73.13,2.35a12.46,12.46,0,0,0,.61,3.25v0h-1.5S76.92,252.6,76,251Z"/>
              </g>
              <path class="cls-25" d="M66.81,259c-2.39,6,2.61,13.65,10.12,13.9,4.78.17,9.95-5,9.95-9.87,0-4.51-1.35-7.42-6.12-8-.87-.1-3.47.88-3.83.88a3,3,0,0,1-1.79-.54C72.84,253.43,68.7,254.25,66.81,259Z"/>
              <path class="cls-26" d="M84.76,265.07a1.68,1.68,0,0,1-1.53-.46,6,6,0,0,1-1.31-3.9,6.65,6.65,0,0,0-.45-2.9,2.07,2.07,0,0,0-.85-.88,1.65,1.65,0,0,1,.32,0c3,0,4.8,2.9,4.8,6a6,6,0,0,1-.37,2.09C85.17,265,85,265,84.76,265.07Z"/>
              <path class="cls-27" d="M68.94,255.9a11.33,11.33,0,0,0-.68,5.56,10.32,10.32,0,0,0,2.17,5.61,8.85,8.85,0,0,0,4.9,3.3,11.14,11.14,0,0,0,6.45-.67,14,14,0,0,0,2.45-1.35c-1.72,2.75-3.86,4.57-7.3,4.57-5.35,0-10.57-5.06-10.57-10.51A8.92,8.92,0,0,1,68.94,255.9Z"/>
            </g>
          </g>
        </g>
        <g>
          <g>
            <path class="cls-3" d="M83.62,105c2.34,7.36,8.87,11.34,14.87,9.73s4.48-5.75,2.15-13.1S98,95,92.82,91.44C81.4,83.7,81.29,97.6,83.62,105Z"/>
            <path class="cls-29" d="M90.29,94a3.15,3.15,0,0,0-2.67-.21c-1.09.53-1.43,1.87-1.51,3.06a19.56,19.56,0,0,0,3.63,12,5.1,5.1,0,0,0,1.42,1.54,1.74,1.74,0,0,0,2.78-1.87c-.23-1.94-1.81-3.47-3-5a3.85,3.85,0,0,1-.78-1.41,1.41,1.41,0,0,1,.42-1.44,2,2,0,0,1,1.22-.31,11.39,11.39,0,0,1,2.6.43c.56-1.18-.33-2.53-.94-3.53A8.05,8.05,0,0,0,90.29,94Z"/>
          </g>
          <path class="cls-3" d="M104.82,63.72c24.35-9-2.46-30.47,27-25,28.62,5.34,42.85,22.69,39.22,47.75-1.67,11.58-7.46,23-7.5,23.66-2.07,29.74-33.36,39.5-50.72,36.26-7.58-1.42-10.31-5.88-16.11-12.35-7.09-7.91-11.76-18.86-8.23-39.34C88.63,94.1,84.52,71.2,104.82,63.72Z"/>
          <path class="cls-29" d="M155.33,71.38s-7.62,7.42-39.77,1.49l1.64-4.1s-3,5.61-22.23,5.46L88.09,96.51l3-48.55,68.8,6.86,8.58,12.41L165.8,79.9s2,26.72-.56,35.18l-.82-1.62a47.9,47.9,0,0,1-5.18-19.78h0S152.25,95.2,155.33,71.38Z"/>
          <path class="cls-30" d="M159,65.49s1.58,10.56-41.9,5.2c0,0,1.2-.31,6.68-9.62-7,11.43-18.24,9.75-26.87,10.84L95.6,58.71l-7.51,37.8s-2.17-11.77-2.48-16.65c0,0-3.13-11.52.39-19.6,0,0-.45.21-2,4.18,0,0-8.27-20.88,21.67-33,0,0-1.36-2-8.5.11,0,0,14.64-11.84,40.23-8.32,13.38,1.84,23.51,3.17,27.4,17.06,0,0,17.56-8.28,21.47,12.72,0,0-10.34-7.72-14.29-3.72,0,0,13,4,13.1,23.5.13,18.37-6.72,30.42-18.46,42.11a35.62,35.62,0,0,1-3.36-28.1l-4.68,5.4S152.33,86.15,159,65.49Z"/>
          <g>
            <path class="cls-12" d="M120.83,111s0,3-4.67,2c-8.54-1.82-2.11-6.2-2.11-6.2"/>
            <path class="cls-13" d="M120.83,111c.32,2.53-3,3.05-4.81,2.47s-4.81-1.27-4.58-3.67a4.89,4.89,0,0,1,2.61-3,9.72,9.72,0,0,0-1.31,1.42c-1.43,1.88-.48,3.15,1.66,3.81s5.49,1.68,6.43-1Z"/>
          </g>
          <g>
            <path class="cls-3" d="M159.37,125.2c5.27,6.61,12.91,3.22,16.66-3.13s7.2-19.7-4-15.69a13.57,13.57,0,0,0-9.15,7.26"/>
            <path class="cls-29" d="M173.4,109.59a2.35,2.35,0,0,1,2.22.59c.76.84.69,2.22.45,3.39a20.1,20.1,0,0,1-6,10.41,4.15,4.15,0,0,1-1.54,1,1.51,1.51,0,0,1-1.67-.45,2.35,2.35,0,0,1-.11-2.18c.68-1.79,2.35-2.78,3.75-3.92a3.67,3.67,0,0,0,1-1.12,1.64,1.64,0,0,0,0-1.51,1.74,1.74,0,0,0-.92-.66,8.74,8.74,0,0,0-2.21-.37c-.16-1.29.9-2.32,1.65-3.1A6.68,6.68,0,0,1,173.4,109.59Z"/>
          </g>
          <g>
            <g>
              <ellipse class="cls-31" cx="137.08" cy="101.16" rx="8.36" ry="7.95" transform="translate(8.19 212.57) rotate(-77.27)"/>
              <path class="cls-32" d="M135.25,109.26a7.78,7.78,0,0,0,9.12-6.45c1.3-9.89-11.51-12.78-14.58-3.3a7.78,7.78,0,0,0,5.46,9.75Zm0,.1c-7-1.54-8.27-11.38-2.46-15.21A7.79,7.79,0,0,1,144,96.68c3.59,6-1.75,14.31-8.76,12.68Z"/>
            </g>
            <ellipse class="cls-33" cx="137.47" cy="101.16" rx="4.93" ry="4.62" transform="matrix(0.09, -1, 1, 0.09, 24.71, 229.28)"/>
            <ellipse class="cls-31" cx="134.94" cy="98.53" rx="1.48" ry="1.39" transform="translate(-4.3 190.88) rotate(-69.69)"/>
          </g>
          <g>
            <g>
              <ellipse class="cls-31" cx="104.94" cy="97.67" rx="8.36" ry="7.77" transform="translate(-13.47 178.5) rotate(-77.27)"/>
              <path class="cls-32" d="M103.1,105.78c4.21,1,8.37-2.4,9-6.5,1.17-6.34-5.39-11.55-10.84-7.86-5.51,3.41-4.78,12.75,1.89,14.36Zm0,.09c-6.94-1.56-8-11.33-2.37-15.16a7.52,7.52,0,0,1,11,2.5c3.42,5.87-1.72,14.23-8.66,12.66Z"/>
            </g>
            <ellipse class="cls-33" cx="105.46" cy="96.98" rx="4.93" ry="4.62" transform="translate(-22.09 162.22) rotate(-69.69)"/>
            <ellipse class="cls-31" cx="102.94" cy="94.78" rx="1.48" ry="1.39" transform="translate(-21.68 158.42) rotate(-69.69)"/>
          </g>
          <path class="cls-33" d="M97.65,83.79s12.38-6.66,15.67.92c0,0,.42-11-10.93-4.63Z"/>
          <path class="cls-33" d="M148.92,91.58s-9.14-10.86-15-5.07c0,0,2.71-10.37,11.87-.19Z"/>
          <g>
            <path class="cls-34" d="M134,122.63c-2.35,2.94-10,12.19-18.67,11.71-5.26-.29-7-5-8.84-8.5-.48-.9-.92-1.85-1.36-2.79h0c-.22-.48-.44-1-.67-1.43a26.44,26.44,0,0,0-2-3.57h0c-.18-.26-.37-.52-.57-.77l-.24-.29s6.72,5.8,30.07,4.87l1.95-.23.78-.09.44,0S134.58,121.93,134,122.63Z"/>
            <path class="cls-35" d="M108.68,128.06a5.88,5.88,0,0,1,5.2-.27,11.6,11.6,0,0,1,8,2.86S113.86,134.11,108.68,128.06Z"/>
            <path class="cls-31" d="M134.45,121.53c-11.78,7.25-21.13,5.71-26,3.22-2.07-1.06-1.28-4.92-4.83-5.74a10.35,10.35,0,0,1-1.76-1.74l-.24-.29s6.72,5.8,30.07,4.87l1.95-.23Z"/>
            <path class="cls-36" d="M134,122.63c-2.35,2.94-12.19,14.6-20.09,12.24-9-2.7-8.89-12.16-10.74-15.68C110.18,137.07,120.88,133.85,134,122.63Z"/>
            <path class="cls-37" d="M133.67,121.62c-18.35,5.12-27.79-.61-31.21-3.57h0l-.08-.06c-.17-.26-.33-.5-.49-.71l-.24-.29s6.72,5.8,30.07,4.87Z"/>
            <path class="cls-35" d="M134,119.8s2.66.87.95,3.57C135,123.37,137.43,119.91,134,119.8Z"/>
            <path class="cls-35" d="M102.34,116.1s-1.71.16-1,2.6C101.29,118.7,99.82,116.12,102.34,116.1Z"/>
          </g>
        </g>
      </g>
    </g>
  </g>
</svg>
