<svg xmlns="http://www.w3.org/2000/svg" xmlns:xlink="http://www.w3.org/1999/xlink" width="534.23" height="438" viewBox="0 0 534.23 438">
  <defs>
    <style>
      .cls-1, .cls-40, .cls-43, .cls-48, .cls-51 {
        fill: none;
      }

      .cls-2 {
        isolation: isolate;
      }

      .cls-3 {
        fill: #1f383b;
      }

      .cls-4 {
        fill: #1b3031;
      }

      .cls-5 {
        fill: #69bd45;
        stroke: #071538;
      }

      .cls-11, .cls-12, .cls-13, .cls-14, .cls-15, .cls-16, .cls-17, .cls-18, .cls-19, .cls-20, .cls-21, .cls-22, .cls-23, .cls-24, .cls-40, .cls-43, .cls-48, .cls-5, .cls-51, .cls-62, .cls-63 {
        stroke-miterlimit: 10;
      }

      .cls-6 {
        fill: #3f6471;
      }

      .cls-7 {
        fill: #a3b8c7;
      }

      .cls-8 {
        fill: #88a0ad;
      }

      .cls-9 {
        fill: #264148;
      }

      .cls-10 {
        fill: #12141b;
      }

      .cls-11, .cls-12, .cls-13, .cls-14, .cls-15, .cls-16, .cls-17, .cls-18, .cls-19, .cls-20, .cls-21, .cls-22, .cls-23, .cls-24 {
        fill: #ccc9e5;
        stroke-width: 0.25px;
      }

      .cls-11 {
        stroke: url(#radial-gradient);
      }

      .cls-12 {
        stroke: url(#radial-gradient-2);
      }

      .cls-13 {
        stroke: url(#radial-gradient-3);
      }

      .cls-14 {
        stroke: url(#radial-gradient-4);
      }

      .cls-15 {
        stroke: url(#radial-gradient-5);
      }

      .cls-16 {
        stroke: url(#radial-gradient-6);
      }

      .cls-17 {
        stroke: url(#radial-gradient-7);
      }

      .cls-18 {
        stroke: url(#radial-gradient-8);
      }

      .cls-19 {
        stroke: url(#radial-gradient-9);
      }

      .cls-20 {
        stroke: url(#radial-gradient-10);
      }

      .cls-21 {
        stroke: url(#radial-gradient-11);
      }

      .cls-22 {
        stroke: url(#radial-gradient-12);
      }

      .cls-23 {
        stroke: url(#radial-gradient-13);
      }

      .cls-24 {
        stroke: url(#radial-gradient-14);
      }

      .cls-25, .cls-36 {
        fill: #fff;
      }

      .cls-25, .cls-35 {
        mix-blend-mode: overlay;
      }

      .cls-25 {
        opacity: 0.2;
      }

      .cls-26 {
        fill: #648794;
      }

      .cls-27, .cls-31 {
        mix-blend-mode: multiply;
      }

      .cls-27, .cls-35 {
        opacity: 0.5;
      }

      .cls-28 {
        fill: #23366e;
      }

      .cls-29 {
        fill: #224088;
      }

      .cls-30 {
        fill: #00273d;
      }

      .cls-32 {
        fill: #127dc2;
      }

      .cls-33 {
        fill: #fbef46;
      }

      .cls-34 {
        fill: #f1e913;
      }

      .cls-37 {
        fill: #fdeb07;
      }

      .cls-38 {
        fill: #0a3a5b;
      }

      .cls-39 {
        fill: #e2ba23;
      }

      .cls-40 {
        stroke: #293559;
      }

      .cls-41 {
        clip-path: url(#clip-path);
      }

      .cls-42, .cls-63 {
        fill: #72cddd;
      }

      .cls-43 {
        stroke: #1a4f99;
      }

      .cls-44 {
        fill: #f7f5f2;
      }

      .cls-45, .cls-57 {
        fill: #010101;
      }

      .cls-45, .cls-64 {
        opacity: 0.28;
      }

      .cls-46 {
        fill: #1b406c;
      }

      .cls-47 {
        fill: #180c0d;
      }

      .cls-48 {
        stroke: #316fb5;
      }

      .cls-49, .cls-62 {
        fill: #4eaadf;
      }

      .cls-50 {
        fill: #1a4f99;
      }

      .cls-51 {
        stroke: #070707;
      }

      .cls-52 {
        fill: #2c2d73;
      }

      .cls-53 {
        fill: #3a9ec1;
      }

      .cls-54 {
        fill: #fff3e0;
      }

      .cls-55 {
        opacity: 0.57;
      }

      .cls-56 {
        opacity: 0.54;
      }

      .cls-58 {
        fill: #d5e6ad;
      }

      .cls-59 {
        fill: #3c3c4c;
      }

      .cls-60 {
        fill: #504e63;
      }

      .cls-61 {
        fill: #2f5f64;
      }

      .cls-62 {
        stroke: #276aaf;
      }

      .cls-63 {
        stroke: #2d5eac;
      }

      .cls-65 {
        opacity: 0.29;
        fill: url(#radial-gradient-15);
      }

      .cls-66, .cls-67, .cls-68, .cls-69, .cls-70 {
        opacity: 0.39;
      }

      .cls-66 {
        fill: url(#linear-gradient);
      }

      .cls-67 {
        fill: url(#linear-gradient-2);
      }

      .cls-68 {
        fill: url(#linear-gradient-3);
      }

      .cls-69 {
        fill: url(#linear-gradient-4);
      }
    </style>
    <radialGradient id="radial-gradient" cx="168.84" cy="148.04" r="1.95" gradientTransform="translate(-2.49 57.21) rotate(-0.58)" gradientUnits="userSpaceOnUse">
      <stop offset="0" stop-color="#dfdfde"/>
      <stop offset="0.27" stop-color="#dcdcdb"/>
      <stop offset="0.44" stop-color="#d4d4d3"/>
      <stop offset="0.58" stop-color="#c5c5c5"/>
      <stop offset="0.71" stop-color="#b0b1b0"/>
      <stop offset="0.83" stop-color="#959696"/>
      <stop offset="0.94" stop-color="#757676"/>
      <stop offset="1" stop-color="#5e5f5f"/>
    </radialGradient>
    <radialGradient id="radial-gradient-2" cx="152.46" cy="156.05" r="1.95" xlink:href="#radial-gradient"/>
    <radialGradient id="radial-gradient-3" cx="135.48" cy="167.68" r="1.95" xlink:href="#radial-gradient"/>
    <radialGradient id="radial-gradient-4" cx="184.25" cy="143.07" r="1.95" xlink:href="#radial-gradient"/>
    <radialGradient id="radial-gradient-5" cx="203.07" cy="138.11" r="1.95" xlink:href="#radial-gradient"/>
    <radialGradient id="radial-gradient-6" cx="223.45" cy="134.97" r="1.95" xlink:href="#radial-gradient"/>
    <radialGradient id="radial-gradient-7" cx="245.66" cy="132.62" r="1.95" xlink:href="#radial-gradient"/>
    <radialGradient id="radial-gradient-8" cx="265.26" cy="132.1" r="1.95" xlink:href="#radial-gradient"/>
    <radialGradient id="radial-gradient-9" cx="284.33" cy="132.36" r="1.95" xlink:href="#radial-gradient"/>
    <radialGradient id="radial-gradient-10" cx="307.06" cy="134.45" r="1.95" xlink:href="#radial-gradient"/>
    <radialGradient id="radial-gradient-11" cx="329.01" cy="138.11" r="1.95" xlink:href="#radial-gradient"/>
    <radialGradient id="radial-gradient-12" cx="350.18" cy="142.55" r="1.95" xlink:href="#radial-gradient"/>
    <radialGradient id="radial-gradient-13" cx="371.6" cy="150.91" r="1.95" xlink:href="#radial-gradient"/>
    <radialGradient id="radial-gradient-14" cx="391.46" cy="162.41" r="1.95" xlink:href="#radial-gradient"/>
    <clipPath id="clip-path">
      <path class="cls-1" d="M130.42,223.43c8.37,4.56,150.36,69.74,270.38-6.67l-38-139.87c-8.68-31.85-39.37-56.81-78.54-63.1-1.16-.19-2.33-.36-3.51-.53-53.55-7.42-104.42,22-115,65.58Z"/>
    </clipPath>
    <radialGradient id="radial-gradient-15" cx="281.99" cy="136.74" r="127.35" gradientTransform="matrix(1.01, 0, 0, 1, -21.32, -2.05)" gradientUnits="userSpaceOnUse">
      <stop offset="0.15" stop-color="#5a8cc9"/>
      <stop offset="0.35" stop-color="#5c90ca"/>
      <stop offset="0.56" stop-color="#639dcc"/>
      <stop offset="0.79" stop-color="#6fb3cf"/>
      <stop offset="1" stop-color="#7dced3"/>
    </radialGradient>
    <linearGradient id="linear-gradient" x1="271.84" y1="139.86" x2="271.84" y2="1.06" gradientTransform="translate(-8.5 11.91) rotate(-0.15)" gradientUnits="userSpaceOnUse">
      <stop offset="0.15" stop-color="#85c0e0" stop-opacity="0"/>
      <stop offset="0.37" stop-color="#85c0e0" stop-opacity="0.01"/>
      <stop offset="0.5" stop-color="#85c1df" stop-opacity="0.05"/>
      <stop offset="0.6" stop-color="#84c2df" stop-opacity="0.11"/>
      <stop offset="0.68" stop-color="#83c3dd" stop-opacity="0.21"/>
      <stop offset="0.76" stop-color="#82c5dc" stop-opacity="0.32"/>
      <stop offset="0.83" stop-color="#81c7da" stop-opacity="0.47"/>
      <stop offset="0.9" stop-color="#80c9d8" stop-opacity="0.65"/>
      <stop offset="0.96" stop-color="#7eccd5" stop-opacity="0.84"/>
      <stop offset="1" stop-color="#7dced3"/>
    </linearGradient>
    <linearGradient id="linear-gradient-2" x1="272.41" y1="152.31" x2="272.41" y2="13.51" xlink:href="#linear-gradient"/>
    <linearGradient id="linear-gradient-3" x1="3582.7" y1="-2865.47" x2="3582.7" y2="-3003.15" gradientTransform="matrix(0.19, -1.05, 0.46, 0.08, 850.7, 4137.1)" xlink:href="#linear-gradient"/>
    <linearGradient id="linear-gradient-4" x1="4227.54" y1="5032.35" x2="4227.54" y2="4894.68" gradientTransform="matrix(-0.2, -1.05, -0.46, 0.09, 3455.54, 4130.42)" xlink:href="#linear-gradient"/>
  </defs>
  <g class="cls-2">
    <g id="Layer_1" data-name="Layer 1">
      <g>
        <g>
          <g>
            <path class="cls-3" d="M456.3,314.59c.31,31.61-86.75,95.19-194.93,96.28S64.86,350.13,64.54,318.52s87.13-58.11,195.31-59.2S456,283,456.3,314.59Z"/>
            <path class="cls-4" d="M261.29,403.21c-84.64.85-193.88-54-196.64-86,0,.44-.11.89-.1,1.33.31,31.61,88.64,93.43,196.82,92.35S456.61,346.2,456.3,314.59c0-.45-.09-.89-.13-1.34C454.05,345.29,347.74,402.34,261.29,403.21Z"/>
            <ellipse class="cls-5" cx="264.51" cy="379.28" rx="21.22" ry="14.83"/>
            <ellipse class="cls-5" cx="123.22" cy="347.3" rx="14.83" ry="21.22" transform="translate(-245.1 359.08) rotate(-72.3)"/>
            <ellipse class="cls-5" cx="406.39" cy="338.57" rx="21.22" ry="14.83" transform="translate(-83.7 139.59) rotate(-17.7)"/>
          </g>
          <path class="cls-6" d="M499.51,289.9s-70.5,57.15-238.4,60.93C75.78,352.69,20.84,294.71,20.84,294.71l-.19-19.39,478.66-4.81Z"/>
          <g>
            <path class="cls-7" d="M21.39,276.88S35.83,226,120.17,195.23C211.05,162,314.29,166.1,387,187S494.9,247,499.32,270.68c0,0-61.5,53.05-242,54.87S21.39,276.88,21.39,276.88Z"/>
            <path class="cls-8" d="M499.31,270.51s-61.49,53.22-241.95,55-236-48.67-236-48.67,278.81,45.8,254.77-58.48C276.16,218.4,440.7,228.94,499.31,270.51Z"/>
            <g>
              <path class="cls-9" d="M128.59,223.35s50,30.17,138.5,29.28S398.71,217.8,398.71,217.8,370.91,181.91,264,183,128.59,223.35,128.59,223.35Z"/>
              <path class="cls-10" d="M139.34,228.66l-10.75-5.31S157.53,184.05,264,183,398.71,217.8,398.71,217.8l-7.85,4s-31.9-33-127-32S139.34,228.66,139.34,228.66Z"/>
              <g>
                <circle class="cls-11" cx="167.83" cy="203.55" r="1.83"/>
                <circle class="cls-12" cx="151.53" cy="211.72" r="1.83"/>
                <circle class="cls-13" cx="134.67" cy="223.52" r="1.83"/>
                <circle class="cls-14" cx="183.19" cy="198.43" r="1.83"/>
                <circle class="cls-15" cx="201.96" cy="193.27" r="1.83"/>
                <circle class="cls-16" cx="222.3" cy="189.93" r="1.83"/>
                <circle class="cls-17" cx="244.49" cy="187.36" r="1.83"/>
                <circle class="cls-18" cx="264.08" cy="186.64" r="1.83"/>
                <circle class="cls-19" cx="283.16" cy="186.71" r="1.83"/>
                <circle class="cls-20" cx="305.91" cy="188.57" r="1.83"/>
                <circle class="cls-21" cx="327.89" cy="192.01" r="1.83"/>
                <circle class="cls-22" cx="349.1" cy="196.24" r="1.83"/>
                <circle class="cls-23" cx="370.61" cy="204.38" r="1.83"/>
                <circle class="cls-24" cx="390.58" cy="215.68" r="1.83"/>
              </g>
            </g>
            <path class="cls-25" d="M144.48,230.6s-38.88,11.4-69.38,72c0,0,7.89,4,28.58,8.72,0,0,16.53-48.14,61.66-72.85Z"/>
          </g>
          <path class="cls-26" d="M21.39,276.88s52,50.52,236,48.67,241.82-55.11,241.82-55.11-51.51,61.9-241,63.81S21.39,276.88,21.39,276.88Z"/>
          <g>
            <g>
              <g class="cls-27">
                <path class="cls-28" d="M289,284.05a28.79,28.79,0,1,1-29.37-28.19A28.79,28.79,0,0,1,289,284.05Z"/>
              </g>
              <g>
                <path class="cls-29" d="M288.32,282.34a28.15,28.15,0,1,1-28.72-27.56A28.13,28.13,0,0,1,288.32,282.34Z"/>
                <path class="cls-30" d="M288,282.34a28.36,28.36,0,0,1-24.23,28.38c-14.63,2.11-28.15-8.43-31-22.59-2.71-13.43,5.38-26.85,18-31.61,14.12-5.32,29.78,2.53,35.33,16.14a27.85,27.85,0,0,1,1.92,9.68c0,.16.58.16.56,0-.4-11.65-7.86-22.43-19.07-26.14a29,29,0,0,0-30.17,7.45c-8.62,9-9.79,22.92-3.71,33.56,5.68,9.91,17.15,15,28.3,13.7,14.27-1.65,24.75-14.44,24.65-28.57C288.6,282.18,288,282.17,288,282.34Z"/>
              </g>
              <g class="cls-31">
                <path class="cls-32" d="M283.13,282.44A23,23,0,1,1,259.7,260,23,23,0,0,1,283.13,282.44Z"/>
              </g>
              <g>
                <path class="cls-33" d="M280.72,282.49a20.55,20.55,0,1,1-21-20.12A20.56,20.56,0,0,1,280.72,282.49Z"/>
                <path class="cls-34" d="M280.44,282.49a20.66,20.66,0,0,1-19.12,20.82c-11.54.9-21-8.83-21.41-20-.43-10.9,8.49-20,19.12-20.83,11.54-.89,21,8.83,21.41,20,0,.16.57.17.55,0a21,21,0,0,0-21.23-20.25c-11.45,0-20.43,9.86-20.41,21.06,0,11.5,10.12,20.28,21.24,20.25,11.45,0,20.43-9.86,20.4-21.06C281,282.34,280.44,282.32,280.44,282.49Z"/>
              </g>
              <g class="cls-35">
                <path class="cls-36" d="M268.85,269c1.92,4.55-1.68,10.4-8,13.07s-13,1.13-14.95-3.42,1.68-10.4,8-13.06S267,264.44,268.85,269Z"/>
              </g>
              <path class="cls-37" d="M261.55,262.43a17.41,17.41,0,1,1-3.59.07,20.57,20.57,0,1,0,3.59-.07Z"/>
            </g>
            <g>
              <g class="cls-27">
                <path class="cls-28" d="M418.16,249.06c7.24,13.83,24.43,24.82,38.4,24.53S476,261.85,468.77,248s-24.43-24.81-38.41-24.52S410.92,235.23,418.16,249.06Z"/>
              </g>
              <g>
                <path class="cls-29" d="M420.82,247.57c7,13.38,23.61,24,37.12,23.71s18.8-11.34,11.8-24.72-23.62-24-37.13-23.7S413.81,234.2,420.82,247.57Z"/>
                <path class="cls-38" d="M420.54,247.59a47.42,47.42,0,0,0,29.93,23c9,2.2,20.61.24,22.46-10.43,1.05-6-1.79-12.18-5-17a47.94,47.94,0,0,0-14.45-13.77c-8.36-5.34-21.06-9.67-30.33-4-7.95,4.85-6.19,15.3-2.64,22.31.07.15.62.11.55,0-2.74-5.39-4.4-11.76-1.67-17.48,3-6.21,10.54-7.56,16.73-6.94,13.67,1.37,26.93,11.58,33.32,23.45,2.83,5.28,4.34,11.85,1.67,17.48-3,6.21-10.55,7.56-16.74,6.94-13.67-1.36-26.93-11.57-33.31-23.45C421,247.41,420.46,247.45,420.54,247.59Z"/>
              </g>
              <path class="cls-28" d="M469.74,246.56a45.54,45.54,0,0,0-13.69-15.31,41.94,41.94,0,0,1,12,13.67c6.51,12.44,1.6,22.75-11,23s-28.06-9.64-34.58-22.08-1.69-22.51,10.57-23a2.94,2.94,0,0,0-.42,0c-13.52.27-18.8,11.34-11.79,24.71s23.61,24,37.12,23.71S476.74,259.94,469.74,246.56Z"/>
              <path class="cls-28" d="M426.62,246.53c5.65,10.8,19.07,19.38,30,19.15s15.19-9.16,9.53-20-19.08-19.38-30-19.15S421,235.73,426.62,246.53Z"/>
              <g>
                <path class="cls-33" d="M428.55,245.48c5.11,9.76,17.24,17.51,27.11,17.3s13.71-8.28,8.61-18S447,227.23,437.16,227.43,423.44,235.71,428.55,245.48Z"/>
                <path class="cls-39" d="M428.28,245.47c4.92,9.08,15.39,17,26,17.41,4.2.15,8.46-.85,11-4.48,2.83-4.08,1.27-9.63-.75-13.65-4.59-9.15-15.64-17-26-17.41-4.2-.15-8.47.85-11,4.48-2.82,4.07-1.27,9.62.76,13.65.07.15.61.15.55,0-1.89-3.76-3-8-1.54-12,1.78-4.86,7.4-6.13,12-5.81,10.12.72,20,8.41,24.7,17.12,2,3.65,3,8,1.53,12.05-1.78,4.86-7.4,6.14-12,5.81-10.13-.72-20-8.43-24.69-17.12C428.74,245.33,428.2,245.35,428.28,245.47Z"/>
              </g>
              <path class="cls-37" d="M464.27,244.74c-5.11-9.77-17.24-17.51-27.11-17.31s-13.72,8.28-8.61,18,17.24,17.51,27.11,17.3S469.37,254.5,464.27,244.74Zm-10.53,11.49c-7.88.16-17.6-6-21.68-13.85s-1-14.27,6.89-14.44,17.6,6,21.68,13.85S461.63,256.06,453.74,256.23Z"/>
            </g>
            <g>
              <g class="cls-27">
                <path class="cls-28" d="M108,252.18c-7,14-23.92,25.3-37.9,25.29s-19.67-11.34-12.71-25.31,23.92-25.3,37.9-25.29S115,238.2,108,252.18Z"/>
              </g>
              <g>
                <path class="cls-29" d="M105.35,250.74c-6.72,13.52-23.12,24.46-36.64,24.45s-19-11-12.29-24.48,23.13-24.45,36.65-24.44S112.08,237.23,105.35,250.74Z"/>
                <path class="cls-38" d="M105.62,250.76a47.42,47.42,0,0,1-29.45,23.56c-9,2.37-20.61.64-22.67-10-1.17-5.95,1.55-12.2,4.63-17.12A48,48,0,0,1,72.3,233.15c8.25-5.51,20.86-10.09,30.24-4.65,8,4.69,6.5,15.17,3.08,22.26-.06.14-.61.11-.54,0,2.63-5.44,4.16-11.85,1.31-17.51-3.09-6.16-10.69-7.35-16.86-6.6-13.64,1.63-26.69,12.11-32.84,24.11-2.73,5.33-4.11,11.94-1.32,17.51,3.1,6.15,10.7,7.35,16.87,6.6,13.64-1.64,26.69-12.11,32.84-24.11C105.16,250.58,105.71,250.61,105.62,250.76Z"/>
              </g>
              <path class="cls-28" d="M56.42,250.71A45.54,45.54,0,0,1,69.8,235.13,41.74,41.74,0,0,0,58.11,249c-6.26,12.57-1.15,22.78,11.44,22.78s27.85-10.19,34.12-22.76,1.24-22.55-11-22.78h.43c13.51,0,19,11,12.28,24.47S82.23,275.2,68.71,275.19,49.69,264.23,56.42,250.71Z"/>
              <path class="cls-28" d="M99.53,249.82c-5.44,10.91-18.68,19.75-29.6,19.74S54.56,260.71,60,249.8,78.68,230,89.6,230.05,105,238.9,99.53,249.82Z"/>
              <g>
                <path class="cls-33" d="M97.58,248.8c-4.91,9.87-16.89,17.86-26.75,17.85s-13.89-8-9-17.86,16.89-17.86,26.76-17.86S102.49,238.93,97.58,248.8Z"/>
                <path class="cls-39" d="M97.85,248.79c-4.74,9.18-15,17.33-25.66,17.93-4.2.23-8.48-.68-11.08-4.26-2.92-4-1.47-9.6.47-13.66,4.4-9.24,15.29-17.35,25.66-17.93,4.2-.23,8.49.68,11.09,4.26,2.91,4,1.46,9.59-.48,13.66-.07.16-.61.16-.55,0,1.81-3.79,2.87-8,1.3-12.08-1.88-4.82-7.53-6-12.12-5.56-10.11.92-19.81,8.81-24.36,17.61-1.9,3.69-2.83,8.11-1.29,12.08,1.88,4.82,7.53,6,12.12,5.56,10.12-.92,19.81-8.82,24.35-17.61C97.38,248.66,97.92,248.66,97.85,248.79Z"/>
              </g>
              <path class="cls-37" d="M70.83,266.65c9.86,0,21.84-8,26.75-17.85s.89-17.86-9-17.87-21.85,8-26.76,17.86S61,266.64,70.83,266.65Zm-5.4-20.89c3.92-7.89,13.51-14.28,21.4-14.28s11.11,6.4,7.18,14.3S80.5,260.06,72.6,260.06,61.5,253.65,65.43,245.76Z"/>
            </g>
          </g>
          <path class="cls-40" d="M137.24,189.47q-8.6,2.67-17.07,5.76c-75.58,27.61-95,71.3-98.24,80.07l-1.28,0,.2,19.39s12,12.71,43.87,26c3,23.2,49,60.32,113.94,78.85,1.79.51,3.58,1,5.39,1.48q8.55,2.26,17.48,4.07l1.53.31.27.05q4.48.87,9,1.61l.39.06q6.87,1.11,13.91,1.91c1.26.14,2.52.26,3.79.39l1.06.11a284.59,284.59,0,0,0,29.85,1.28,291.32,291.32,0,0,0,75.23-10.81c70.59-19.72,119.94-61.66,119.7-85.47h0c0-.3,0-.6-.05-.9,29.6-12.71,43.26-23.78,43.26-23.78l-.2-19.39,0,0c-4.51-23.31-38.78-61.49-109-82.52"/>
        </g>
        <g class="cls-41">
          <path class="cls-42" d="M307.4,183.39c-.52,0,12.31,11.31,2.62,17.77.33-.37,1.36-10.41-3.3-9.93-.2.5-7,25.86,2.58,39.49-.4-.1-7.81,4.47-14.94,0-.09-.07.94,7.33,10.49,9.77-.3,0-7,4.6-14.18-1.9.83.79,9.15,9.31,4.06,20.28-.18-.28-2.24-12.28-8.9-15.75.09.19,7,30.38-7.31,36.84.19-.28,7-21.56-7.42-26.06.29.19,4,21.94-9.09,27.75.28.09,2.06-12.28-3.56-17.16.19,0-13,24.76-35.82,14.63.24,0,12.52-5.22,13.4-13.73-.53.84-16.32,9.58-26.7,5.29.14.06,15.71-8.05,6.09-14.34a20.6,20.6,0,0,1-11.32,7.74c-.31.09-.64.16-1,.22a18,18,0,0,1-7.84-.26,12.52,12.52,0,0,0,2.9-2.4c3.53-3.53,8.73-10.44,6.81-17.11a71,71,0,0,1-11,.22c-3.42-.26-6.67-1-8-2.61,0-.08,8.1-4.21,6.19-11.77-.38.53-18,12.53-28-4.13a22.22,22.22,0,0,0,13.31-1.78,24.13,24.13,0,0,0,8.93-8A36.61,36.61,0,0,0,192,205.08c3.95-12.53,17.86-45.94,18-51.11a1.21,1.21,0,0,0-.19-.73c-1.43-2-10.18,2.19-10.18,2.19s4-14.06,8.7-16.17,7.14-13,7.14-13c1.65-.66,6-4.63,7.11-7.78s6.79-48,43.21-52,47.51,23.18,49.32,29.88,0,32,1.17,35.18,4.7,10.33,3.29,12.65-7.84,7.7-7.84,9.51-1.93,22,6.29,25.19C324.62,182,312.15,185.57,307.4,183.39Z"/>
          <path class="cls-43" d="M307.41,183.67c-.52,0,12.31,11.31,2.62,17.77.33-.37,1.36-10.41-3.3-9.93-.2.5-7,25.86,2.58,39.49-.4-.1-7.81,4.47-14.94,0-.09-.07.94,7.33,10.49,9.77-.3,0-7,4.6-14.18-1.9.83.8,9.15,9.31,4.06,20.28-.18-.28-2.24-12.28-8.9-15.75.09.19,7,30.38-7.31,36.85.19-.29,7-21.57-7.42-26.07.29.19,4,21.94-9.09,27.76.28.09,2.06-12.29-3.56-17.16.19,0-13,24.75-35.82,14.62.24,0,12.52-5.21,13.4-13.73-.53.84-16.32,9.58-26.7,5.29.14.07,15.71-8,6.09-14.34a20.64,20.64,0,0,1-11.32,7.75c-.31.08-.64.15-1,.21a18,18,0,0,1-7.84-.26,12.52,12.52,0,0,0,2.9-2.4c3.53-3.53,8.73-10.44,6.81-17.11a71,71,0,0,1-11,.22c-3.42-.26-6.67-1-8-2.61,0-.07,8.1-4.21,6.19-11.77-.38.53-18,12.53-28-4.13a22.22,22.22,0,0,0,13.31-1.78,24.13,24.13,0,0,0,8.93-8A36.61,36.61,0,0,0,192,205.36c4-12.53,17.86-45.94,18-51.1a1.22,1.22,0,0,0-.19-.74c-1.43-2-10.18,2.19-10.18,2.19s4-14.05,8.7-16.17,7.14-13,7.14-13c1.65-.66,6-4.63,7.11-7.77s6.79-48,43.21-52,47.51,23.17,49.32,29.87,0,32,1.17,35.18,4.7,10.34,3.29,12.65-7.84,7.71-7.84,9.51-1.93,22,6.29,25.19C324.63,182.25,312.16,185.85,307.41,183.67Z"/>
          <path class="cls-44" d="M314.79,118.47c0,4.26.09,10.45-4.11,14.9a11.92,11.92,0,0,1-7.16,3.84,11.26,11.26,0,0,1-3.87-.29,12.43,12.43,0,0,1-6.06-3.27,9,9,0,0,1-1.1-1.29,24.1,24.1,0,0,1-4.21-10.89c-.64-7,3.09-19.2,11.4-20.18,6.06-.72,12.24,4.76,14.29,10.32A20.1,20.1,0,0,1,314.79,118.47Z"/>
          <path class="cls-45" d="M307,103.1a11.28,11.28,0,0,0-7.47-2c-8.29,1-12.07,13.29-11.38,20.22a24,24,0,0,0,4.21,10.89c.19.24.56.72,1.1,1.29a12.38,12.38,0,0,0,6.06,3.27,11.84,11.84,0,0,0,3.86.29l.85-.12a10,10,0,0,1-2.84.75,12.58,12.58,0,0,1-4.1-.29,13.93,13.93,0,0,1-6.42-3.41,11,11,0,0,1-1.19-1.35,25.59,25.59,0,0,1-4.43-11.51c-.68-7.34,3.25-20.26,12.08-21.35C300.72,99.3,304.13,100.75,307,103.1Z"/>
          <ellipse class="cls-46" cx="307.91" cy="119.88" rx="7.72" ry="5.92" transform="translate(173.37 421.68) rotate(-87.25)"/>
          <ellipse class="cls-47" cx="307.88" cy="119.49" rx="4.11" ry="3.16" transform="translate(173.74 421.28) rotate(-87.25)"/>
          <ellipse class="cls-44" cx="306.4" cy="116.34" rx="1.5" ry="1.15" transform="translate(175.48 416.8) rotate(-87.25)"/>
          <path class="cls-48" d="M314.79,118.47c0,4.26.09,10.45-4.11,14.9a11.92,11.92,0,0,1-7.16,3.84,11.26,11.26,0,0,1-3.87-.29,12.43,12.43,0,0,1-6.06-3.27,9,9,0,0,1-1.1-1.29,24.1,24.1,0,0,1-4.21-10.89c-.64-7,3.09-19.2,11.4-20.18,6.06-.72,12.24,4.76,14.29,10.32A20.1,20.1,0,0,1,314.79,118.47Z"/>
          <path class="cls-44" d="M283.68,117.19c-.26,4.92-.62,12.07-5.78,16.92a13.78,13.78,0,0,1-8.53,3.93,12.36,12.36,0,0,1-4.44-.61,14.21,14.21,0,0,1-6.77-4.19,10.19,10.19,0,0,1-1.18-1.56,27.73,27.73,0,0,1-4.1-12.86c-.26-8.07,4.89-21.95,14.55-22.5,7-.42,13.79,6.34,15.78,12.9C283.92,111.83,283.84,113.85,283.68,117.19Z"/>
          <path class="cls-45" d="M275.69,98.91a13.12,13.12,0,0,0-8.49-2.81c-9.63.61-14.84,14.51-14.53,22.56a27.85,27.85,0,0,0,4.11,12.86c.2.29.6.87,1.18,1.56a14.18,14.18,0,0,0,6.76,4.19,13.69,13.69,0,0,0,4.45.61l1-.08a12.07,12.07,0,0,1-3.34.67,14.84,14.84,0,0,1-4.7-.61,16.13,16.13,0,0,1-7.18-4.39,12.24,12.24,0,0,1-1.28-1.64,29.54,29.54,0,0,1-4.32-13.6c-.28-8.51,5.16-23.15,15.42-23.8C268.76,94.09,272.6,96,275.69,98.91Z"/>
          <ellipse class="cls-46" cx="272.99" cy="116.68" rx="9.61" ry="7.36" transform="translate(131.37 377.6) rotate(-84.65)"/>
          <ellipse class="cls-47" cx="274" cy="116.34" rx="5.12" ry="3.93" transform="translate(132.62 378.3) rotate(-84.65)"/>
          <ellipse class="cls-44" cx="271.54" cy="113.61" rx="1.87" ry="1.43" transform="translate(133.11 373.37) rotate(-84.65)"/>
          <path class="cls-48" d="M283.68,117.19c-.26,4.92-.62,12.07-5.78,16.92a13.78,13.78,0,0,1-8.53,3.93,12.36,12.36,0,0,1-4.44-.61,14.21,14.21,0,0,1-6.77-4.19,10.19,10.19,0,0,1-1.18-1.56,27.73,27.73,0,0,1-4.1-12.86c-.26-8.07,4.89-21.95,14.55-22.5,7-.42,13.79,6.34,15.78,12.9C283.92,111.83,283.84,113.85,283.68,117.19Z"/>
          <path class="cls-49" d="M265.56,82.54c-.17,0-6.92-2.6-8.18-1.5s-1.58,3.17,1.19,4.13c0,0-8.51.25-6.72,4.46-.17-.15-6.23,2-2.17,4.59-.26,0-4.25,3.65-1.64,6,6.21-7.83,10-9.75,12.32-9.94a21.7,21.7,0,0,0,3.89-.72c2.43-.67,4.49-1.24,4.82-2.54S267.93,83.84,265.56,82.54Z"/>
          <path class="cls-49" d="M296,87.73c.1-.07,3.89-3.38,5-3s1.81,1.68.23,3c0,0,5.62-1.91,5.48,1.28.07-.14,4.56-.2,2.53,2.47.17-.07,3.67,1.34,2.53,3.5-6-3.59-8.89-3.93-10.47-3.48a15.68,15.68,0,0,1-2.72.48c-1.75.15-3.23.28-3.77-.49S294.74,89.16,296,87.73Z"/>
          <g>
            <path class="cls-50" d="M302.35,156.35a41.17,41.17,0,0,0,14.25-7.75,41.47,41.47,0,0,1-14,8.7l-.3-1Z"/>
            <path class="cls-51" d="M244.59,134.55v0"/>
            <g>
              <path class="cls-52" d="M307.08,191.86c-.29.34-.6.68-.91,1a27.12,27.12,0,0,1-6.27,5,32,32,0,0,1-9.85,3.69l-.49.1c-.32.06-.65.12-1,.16-.49.09-1,.17-1.45.23l-.45.06-1.47.14c-1.33.11-2.68.16-4,.15h-.32c-1.64,0-3.31-.11-4.94-.28l-1.14-.13c-1.2-.16-2.39-.34-3.58-.57-.39-.07-.79-.14-1.18-.23l-.12,0h0c-8.52-1.78-16.13-5.26-20.52-8.8a15.33,15.33,0,0,1-2.68-2.66c-.12-.16-.23-.3-.33-.46a38.14,38.14,0,0,1-2.22-6.36c-5-19,.49-45.28.3-49.09a41.37,41.37,0,0,0,1.9,6.8,30.93,30.93,0,0,0,4.65,8.31,25.53,25.53,0,0,0,4.09,4.15l.18.16a32.71,32.71,0,0,0,3.11,2.17,34.7,34.7,0,0,0,11.74,4.27c.83.17,1.68.3,2.52.4.36.05.73.1,1.09.13h.09l1.45.13h0c1,.07,1.93.12,2.89.14a68.82,68.82,0,0,0,9.68-.46l.31,0c2.48-.29,4.78-.67,6.8-1.07,1.63-.32,3.08-.65,4.31-1,.74-.17,1.41-.35,2-.49l.72-.21c.13,0,.27-.07.4-.12-.38,2.14-.69,4.16-.91,6.06C298.52,187.05,306.51,192.43,307.08,191.86Z"/>
              <path class="cls-53" d="M306.17,192.87a27.12,27.12,0,0,1-6.27,5,32,32,0,0,1-9.85,3.69l-.49.1c-.32.06-.65.12-1,.16-.49.09-1,.17-1.45.23l-.45.06-1.47.14c-1.33.11-2.68.16-4,.15h-.32c-1.64,0-3.31-.11-4.94-.28l-1.14-.13c-1.2-.16-2.39-.34-3.58-.57-.39-.07-.79-.14-1.18-.23l-.12,0h0c-8.52-1.78-16.13-5.26-20.52-8.8a15.33,15.33,0,0,1-2.68-2.66c-.12-.16-.23-.3-.33-.46a38.14,38.14,0,0,1-2.22-6.36c8.44-1.74,22.34-2.57,33.05,6.9C278.21,189.52,293.94,181,306.17,192.87Z"/>
              <g>
                <path class="cls-54" d="M288.19,159.94c-.08.14-.15.28-.22.42s-.26.53-.41.82c0,0-.05.11-.09.17s-.15.33-.24.5c-1.16,2.44-1.43,3.49-1.9,4.4a6.2,6.2,0,0,1-5.46,3.62c-2.53-.12-5.86-3.28-8.77-8.44-.33-.57-.65-1.17-1-1.8.83.17,1.68.3,2.52.4.36.05.73.1,1.09.13h.09l1.45.13h0c1,.07,1.93.12,2.89.14a68.82,68.82,0,0,0,9.68-.46Z"/>
                <path class="cls-54" d="M272.67,160c-.42.36-.94.81-1.57,1.4l-.14.13c0,.05-.09.08-.14.14s-.27.24-.39.37c-1.95,1.87-2.58,2.76-3.34,3.45a6.19,6.19,0,0,1-6.38,1.46c-2.27-1-4.25-4.94-5.18-10.57-.17-1.06-.32-2.2-.41-3.38l.18.16a32.71,32.71,0,0,0,3.11,2.17,34.7,34.7,0,0,0,11.74,4.27C271,159.8,271.83,159.93,272.67,160Z"/>
                <path class="cls-54" d="M258.41,155.36c-.37.12-.79.26-1.25.43l-.18.07a4.13,4.13,0,0,0-.52.19c-.33.12-.65.24-.93.36-1.84.73-2.65,1.2-3.49,1.49a6.22,6.22,0,0,1-6.45-1.19c-2.12-2.25-2-8.6.79-16.14a30.93,30.93,0,0,0,4.65,8.31,25.53,25.53,0,0,0,4.09,4.15l.18.16A32.71,32.71,0,0,0,258.41,155.36Z"/>
                <path class="cls-54" d="M302,157.22c-2.61,8.56-7.75,11.65-10.81,9.41-1.35-1-2.27-3-2.87-5-.09-.28-.17-.55-.24-.82s-.07-.29-.1-.44-.06-.25-.09-.38l.31,0c2.48-.29,4.78-.67,6.8-1.07,1.63-.32,3.08-.65,4.31-1,.74-.17,1.41-.35,2-.49Z"/>
                <path class="cls-54" d="M269.93,201.14c-8.53-1.78-16.13-5.26-20.53-8.8a16.06,16.06,0,0,1-2.68-2.66c2-2.8,5.16-6,8.69-5.77,3.72.27,6.27,4.18,10.9,11.08C267.82,197.29,269,199.38,269.93,201.14Z"/>
                <path class="cls-54" d="M284.12,202.23c-1,.08-1.93.13-2.9.15h-.32c-1.64,0-3.31-.11-4.94-.28l-1.14-.13c-1.2-.16-2.39-.34-3.58-.57-.39-.07-.79-.14-1.18-.23a8,8,0,0,1,.23-5.82c.91-2,2.91-4.45,5.18-4.63C278.68,190.47,282.77,194.86,284.12,202.23Z"/>
                <path class="cls-54" d="M299.9,197.85a32,32,0,0,1-9.85,3.69c-1,.19-1.94.35-2.9.49l-.44.06h0a8.41,8.41,0,0,1-1.83-5.9c.21-2.23,1.3-5.23,3.39-6.14C291.14,188.81,296.24,191.56,299.9,197.85Z"/>
              </g>
            </g>
            <path class="cls-43" d="M301.64,162.87q.35-2.85.92-6.06l-1.13.32c-.56.15-1.22.32-2,.49-1.22.3-2.68.64-4.3,1a78.84,78.84,0,0,1-16.79,1.57c-1,0-1.93-.07-2.9-.15h0l-1.44-.12h-.09c-6.56-.7-13.12-2.68-18.46-7a25.94,25.94,0,0,1-4.27-4.3,34.23,34.23,0,0,1-6.51-14.89,0,0,0,1,0,0,0c0,5.05-6.53,36.74,1.92,55.23.1.15.2.3.32.45a15.33,15.33,0,0,0,2.68,2.66c4.4,3.55,12,7,20.52,8.81h0c.44.1.87.18,1.31.26,1.18.23,2.37.41,3.57.56l1.15.14a50.27,50.27,0,0,0,9.26.13,41.36,41.36,0,0,0,4.33-.59,29.77,29.77,0,0,0,17.47-9.71s0,0,0,0C306.17,191.77,298.78,186,301.64,162.87Z"/>
          </g>
          <g class="cls-55">
            <ellipse class="cls-36" cx="236.41" cy="96.41" rx="8.86" ry="4.43" transform="translate(48.15 268.88) rotate(-64.68)"/>
            <ellipse class="cls-36" cx="229.43" cy="125.6" rx="13.76" ry="7.08" transform="translate(32.87 298.16) rotate(-69.98)"/>
          </g>
          <g class="cls-56">
            <path class="cls-50" d="M238.7,134.88c1.11-2.21,3.54-4.91,6.06-4.4a14.57,14.57,0,0,1,4.57,3.73c-1.24-.67-2.51-1.5-3.72-2.22a7.48,7.48,0,0,0-1.13-.57c-1.95-.22-4.16,2-5.78,3.46Z"/>
          </g>
          <g class="cls-56">
            <path class="cls-50" d="M255.82,147.91a51.68,51.68,0,0,0,49.51,3.15,52.81,52.81,0,0,0,6.52-3.56c-16,12.33-39.88,12.55-56,.41Z"/>
          </g>
          <g class="cls-56">
            <path class="cls-50" d="M238.7,175.47c.16,2.66.47,5.32.82,8,.55,3.18.73,6.64,2.4,9.38,2.48,1.93,5.72,3.3,8.52,4.83a32.38,32.38,0,0,0,3.62,1.72,44.92,44.92,0,0,1-7.51-2.88c-1.83-.94-3.87-1.62-5.39-3.06-1.91-2.93-2-6.59-2.41-9.91a50.2,50.2,0,0,1-.05-8Z"/>
          </g>
          <rect class="cls-57" x="285.94" y="206.2" width="12.21" height="47.71" rx="4.13" transform="translate(-63.12 120.19) rotate(-21.04)"/>
          <rect class="cls-57" x="330.63" y="197.39" width="12.21" height="47.71" rx="4.13" transform="translate(-56.98 135.65) rotate(-21.04)"/>
          <path class="cls-49" d="M308.07,206.84l9-1.13,0,17.38a25,25,0,0,1-10.06,3.51"/>
          <path class="cls-42" d="M311.87,225.13a22.65,22.65,0,0,1-8.05,2.44l1-20.06,7-.89Z"/>
          <path class="cls-43" d="M307.42,206.8l9-1.13,0,17.38a25.15,25.15,0,0,1-10.06,3.52"/>
          <ellipse class="cls-58" cx="298.72" cy="226.95" rx="4.54" ry="3.24" transform="translate(54.16 511.44) rotate(-86.54)"/>
          <ellipse class="cls-58" cx="231.23" cy="208.39" rx="3.73" ry="4.88" transform="translate(9.27 426.63) rotate(-86.54)"/>
          <path class="cls-59" d="M254.12,255s32.61-38.33,113.16-19.72c0,0-15.65,5.46-15.79,5.82S287.24,263,254.12,255Z"/>
          <g>
            <path class="cls-49" d="M212.31,203.4A55.07,55.07,0,0,0,223,223.27a53.6,53.6,0,0,0,7.9,7.61,69.53,69.53,0,0,0,37.16.26,65.52,65.52,0,0,0,11.11-4.22c.95-.46,1.87-.93,2.73-1.41,6.52,1.27,9,3.56,10,5.54.16.31.34.74.59,1.21a5.27,5.27,0,0,0,2.3,2.37,4.37,4.37,0,0,0,3.3.2c1.9-.86,2.95-4.05,1.77-7.61h.05a3.1,3.1,0,0,0,2.26-.17c.8-.45,1.25-1.35,1.54-3.05a19.63,19.63,0,0,0-.63-8.46c1.12-.4,3.52-1.45,4.42-3.72,1.57-3.91-2.18-9.25-6.37-10.71a9.62,9.62,0,0,0-6.44.25,28.43,28.43,0,0,0-6.74,3.77c-2.38,1.66-3.2,2.86-8,6.59l-.86.66c-2.13,1.63-3.2,2.45-4.09,3-4.29,2.6-8.33,3-13.16,3.52a49.89,49.89,0,0,1-17.27-1.14c-1.87-.48-3.4-1-4.5-1.38-3.32-8.16-5.76-14.66-7.32-18.9-3.08-8.38-4.8-13.65-9.13-14.89a8.41,8.41,0,0,0-5.31.43"/>
            <path class="cls-49" d="M212.31,203.4A55.07,55.07,0,0,0,223,223.27a53.6,53.6,0,0,0,7.9,7.61,69.53,69.53,0,0,0,37.16.26,65.52,65.52,0,0,0,11.11-4.22c.95-.46,1.87-.93,2.73-1.41,6.52,1.27,9,3.56,10,5.54.16.31.34.74.59,1.21a5.27,5.27,0,0,0,2.3,2.37,4.37,4.37,0,0,0,3.3.2c1.9-.86,2.95-4.05,1.77-7.61h.05a3.1,3.1,0,0,0,2.26-.17c.8-.45,1.25-1.35,1.54-3.05a19.63,19.63,0,0,0-.63-8.46c1.12-.4,3.52-1.45,4.42-3.72,1.57-3.91-2.18-9.25-6.37-10.71a9.62,9.62,0,0,0-6.44.25,28.43,28.43,0,0,0-6.74,3.77c-2.38,1.66-3.2,2.86-8,6.59l-.86.66c-2.13,1.63-3.2,2.45-4.09,3-4.29,2.6-8.33,3-13.16,3.52a49.89,49.89,0,0,1-17.27-1.14c-1.87-.48-3.4-1-4.5-1.38-3.32-8.16-5.76-14.66-7.32-18.9-3.08-8.38-4.8-13.65-9.13-14.89a8.41,8.41,0,0,0-5.31.43"/>
            <path class="cls-49" d="M303.53,215.61s-3.37-5.26-8.33-6.57"/>
            <path class="cls-49" d="M300.43,227.78s-3.37-5.27-8.34-6.57"/>
          </g>
          <path class="cls-60" d="M293.29,247.9a10.43,10.43,0,0,1-6.14,3.2,10.76,10.76,0,0,1-8.26-2.56c0-1.83,0-3.68,0-5.54q0-7.83.31-16.08c.95-.46,1.87-.93,2.73-1.41,6.52,1.27,9,3.56,10,5.54.16.31.34.74.59,1.21,0,1.56.05,3.1.1,4.61C292.73,240.75,293,244.43,293.29,247.9Z"/>
          <path class="cls-60" d="M295.74,195.26c-.11.58-.21,1.16-.32,1.75-.25,1.42-.49,2.87-.72,4.36a28.43,28.43,0,0,0-6.74,3.77c-2.38,1.66-3.2,2.86-8,6.59q.54-8,1.28-15.55l.18-1.78c.43-.33,5.22-3.87,10.35-2A9.75,9.75,0,0,1,295.74,195.26Z"/>
          <path class="cls-59" d="M297.54,196.33a3.15,3.15,0,0,1-2.12.67c.1-.58.21-1.17.32-1.74a9.75,9.75,0,0,0-4-2.84c-5.13-1.9-9.92,1.64-10.35,2-.07.6-.12,1.19-.18,1.79a2.82,2.82,0,0,1-1.48-1.16,3,3,0,0,1-.4-2.15c.18-.23,4.65-5.45,11.23-4.34a12.28,12.28,0,0,1,8.09,5.51A3.21,3.21,0,0,1,297.54,196.33Z"/>
          <path class="cls-59" d="M326.85,187.41A9.8,9.8,0,0,1,309.76,192a11.61,11.61,0,0,1,6.17-6C321.5,183.75,326.48,187.14,326.85,187.41Z"/>
          <path class="cls-60" d="M318.55,203.06c-1.14,1.88-1.05,3.85-.1,4.67a2.16,2.16,0,0,0,.68.37,15.17,15.17,0,0,0-2.3,1.87A68.54,68.54,0,0,0,309.76,192a9.8,9.8,0,0,0,17.09-4.61c1.09,2.7,2.14,5.66,3.1,8.87A15.85,15.85,0,0,0,318.55,203.06Z"/>
          <path class="cls-49" d="M343.81,213.13a4.65,4.65,0,0,1-2.56.47,5.63,5.63,0,0,1-1.25,5.63,4.39,4.39,0,0,1-2.3,1.09l.24.45c1,2.18.7,4.49-.64,5.73a3.86,3.86,0,0,1-2.18.95,7.32,7.32,0,0,0-.64-.36A15.34,15.34,0,0,0,332,226a13.73,13.73,0,0,0-6.8-.66c-2.74.49-3.86,1.77-6.52,1.92h-.51a3.11,3.11,0,0,1-2-.56,3.84,3.84,0,0,1-1.15-2.93,5.75,5.75,0,0,1,1.42-3.44,3,3,0,0,1-2.3.13c-1.14-.55-1.72-2.44-1.1-4.54a15.83,15.83,0,0,1,3.82-5.95,15.17,15.17,0,0,1,2.3-1.87,2.16,2.16,0,0,1-.68-.37c-.95-.82-1-2.79.1-4.67a15.85,15.85,0,0,1,11.4-6.78,15.46,15.46,0,0,1,3.84.08,15.77,15.77,0,0,1,12.54,10.26C346.82,209.48,345.77,212.09,343.81,213.13Z"/>
          <path class="cls-43" d="M344.05,213.08a4.48,4.48,0,0,1-2.56.47,5.62,5.62,0,0,1-1.25,5.63,4.5,4.5,0,0,1-2.3,1.1q.15.25.24.45c1,2.18.7,4.48-.64,5.72a3.86,3.86,0,0,1-2.18,1l-.64-.36A14.57,14.57,0,0,0,332.2,226a13.7,13.7,0,0,0-6.8-.67c-2.74.5-3.86,1.78-6.52,1.92l-.51,0a3.17,3.17,0,0,1-2-.56,3.87,3.87,0,0,1-1.15-2.94,5.77,5.77,0,0,1,1.42-3.44,2.91,2.91,0,0,1-2.3.13c-1.14-.55-1.72-2.43-1.1-4.53a15.86,15.86,0,0,1,3.82-6,16.49,16.49,0,0,1,2.3-1.87,2,2,0,0,1-.68-.36c-.95-.82-1-2.8.1-4.67a15.71,15.71,0,0,1,27.78,3.56C347.06,209.43,346,212,344.05,213.08Z"/>
          <path class="cls-60" d="M333.87,238.73a11.49,11.49,0,0,1-16.3-1,68.83,68.83,0,0,0,.89-6.94c.09-1.13.15-2.32.18-3.56,2.66-.15,3.78-1.43,6.52-1.92a13.85,13.85,0,0,1,6.8.66,15.34,15.34,0,0,1,2.52,1.1c0,1.28,0,2.52-.06,3.73C334.33,233.68,334.12,236.33,333.87,238.73Z"/>
          <path class="cls-50" d="M319.13,208.1c7.46-2.49,17.6-1.75,22.12,5.5-5.56-6.14-14.42-6.52-22.12-5.5Z"/>
          <path class="cls-50" d="M316.41,220.33c6-4.7,15.62-5.76,21.29,0a26.14,26.14,0,0,0-3.76-1.93c-5.79-2.14-12.13-.68-17.53,1.93Z"/>
          <ellipse class="cls-61" cx="305.46" cy="239.14" rx="1.28" ry="2.75" transform="translate(48.33 529.62) rotate(-86.54)"/>
          <ellipse class="cls-61" cx="313.79" cy="243.15" rx="1.28" ry="2.75" transform="translate(52.15 541.7) rotate(-86.54)"/>
          <ellipse class="cls-61" cx="321.24" cy="247.16" rx="1.28" ry="2.75" transform="translate(55.14 552.9) rotate(-86.54)"/>
          <ellipse class="cls-61" cx="339.86" cy="236.56" rx="1.28" ry="2.75" transform="translate(83.23 561.52) rotate(-86.54)"/>
          <ellipse class="cls-61" cx="347.39" cy="238.3" rx="1.28" ry="2.75" transform="translate(88.57 570.68) rotate(-86.54)"/>
          <ellipse class="cls-61" cx="353.6" cy="239.91" rx="1.28" ry="2.75" transform="translate(92.79 578.39) rotate(-86.54)"/>
          <ellipse class="cls-61" cx="297.77" cy="242.71" rx="1.28" ry="2.75" transform="translate(37.54 525.29) rotate(-86.54)"/>
          <ellipse class="cls-61" cx="306.1" cy="246.72" rx="1.28" ry="2.75" transform="translate(41.36 537.37) rotate(-86.54)"/>
          <ellipse class="cls-61" cx="313.7" cy="249.99" rx="1.28" ry="2.75" transform="translate(45.24 548.04) rotate(-86.54)"/>
          <path class="cls-62" d="M295,75.7c5.75-13.07-3.52-25.42-3.81-25.17-4.58,5.44-13.76,8-19.16,4-4.4-6.14,8.75-22.39,19.46-11.75,16.53,18.7,7.39,33.93,7.39,33.93"/>
          <path class="cls-62" d="M295.35,75.59c5.75-13.08-3.52-25.42-3.81-25.17-4.58,5.43-13.76,8-19.16,4C268,48.25,281.13,32,291.84,42.64c16.53,18.69,7.39,33.93,7.39,33.93"/>
          <path class="cls-62" d="M258.41,70.89c.26-1.23-1.36-23.93-22.79-24.51-8.57,1.48-9.08,20.4,6.4,12.49,4.65-3.26,4-4.06,4-4.06s14.78,7.55,6.5,19"/>
          <path class="cls-62" d="M258.21,71c.27-1.22-1.35-23.93-22.78-24.5-8.58,1.48-9.09,20.4,6.39,12.48,4.65-3.25,4.06-4,4.06-4s14.77,7.55,6.5,19"/>
          <path class="cls-62" d="M265,69.24c.37-1,3.51-6.3-2.1-9.73.17,0,8.56,1,7.3,9.71.18-.32,5.39-8.76-3.32-12.88,0,.16,9.61-1.29,8,13,.33.06,5.4-3.44,4.19-9.37.31.34,4.8,4,2.52,11.58"/>
          <path class="cls-63" d="M265.12,69.56c.37-1,3.51-6.3-2.09-9.74.16,0,8.55,1,7.29,9.72.18-.32,5.39-8.76-3.32-12.89,0,.17,9.61-1.29,8,13.06.33.06,5.41-3.44,4.19-9.38.31.34,4.8,4,2.52,11.59"/>
          <ellipse class="cls-42" cx="235.28" cy="54.75" rx="2.66" ry="5.44" transform="translate(7.92 136.36) rotate(-32.85)"/>
          <ellipse class="cls-42" cx="278.28" cy="52.15" rx="2.66" ry="5.44" transform="translate(153.48 306.28) rotate(-74.46)"/>
          <path class="cls-42" d="M231.23,193.65s-1,17.32-13.91,21.48l7.34,10s13.49-2.08,13.58-13.34Z"/>
          <path class="cls-42" d="M247.62,218.48a58.19,58.19,0,0,0,17.92,0s5.12,4.76,1.69,12.55c0,0-11.27,4.12-22.78,2.25C244.45,233.28,250.33,229.12,247.62,218.48Z"/>
          <g class="cls-64">
            <polyline class="cls-57" points="282.75 220.28 282.81 220.46 282.84 220.87"/>
            <path class="cls-57" d="M213,204.1s0,0,0-.08"/>
            <path class="cls-57" d="M283.09,224.46c-.85.49-1.76,1-2.7,1.47a65.64,65.64,0,0,1-11,4.48,69.52,69.52,0,0,1-37.16.63,53.29,53.29,0,0,1-8.08-7.41A55.38,55.38,0,0,1,213,204.1s-.17-4.28.87-5A55.1,55.1,0,0,0,224.4,218a53.79,53.79,0,0,0,8,7.61,71,71,0,0,0,37.56.29,67,67,0,0,0,11.21-4.21l1.69-.84Z"/>
            <path class="cls-57" d="M213.86,199.08c.24-.18.55-.17.94.14"/>
          </g>
          <g>
            <path class="cls-43" d="M212.31,203.4A55.07,55.07,0,0,0,223,223.27a53.6,53.6,0,0,0,7.9,7.61,69.53,69.53,0,0,0,37.16.26,65.52,65.52,0,0,0,11.11-4.22c.95-.46,1.87-.93,2.73-1.41,6.52,1.27,9,3.56,10,5.54.16.31.34.74.59,1.21a5.27,5.27,0,0,0,2.3,2.37,4.37,4.37,0,0,0,3.3.2c1.9-.86,2.95-4.05,1.77-7.61h.05a3.1,3.1,0,0,0,2.26-.17c.8-.45,1.25-1.35,1.54-3.05a19.63,19.63,0,0,0-.63-8.46c1.12-.4,3.52-1.45,4.42-3.72,1.57-3.91-2.18-9.25-6.37-10.71a9.62,9.62,0,0,0-6.44.25,28.43,28.43,0,0,0-6.74,3.77c-2.38,1.66-3.2,2.86-8,6.59l-.86.66c-2.13,1.63-3.2,2.45-4.09,3-4.29,2.6-8.33,3-13.16,3.52a49.89,49.89,0,0,1-17.27-1.14c-1.87-.48-3.4-1-4.5-1.38-3.32-8.16-5.76-14.66-7.32-18.9-3.08-8.38-4.8-13.65-9.13-14.89a8.41,8.41,0,0,0-5.31.43"/>
            <path class="cls-43" d="M212.31,203.4A55.07,55.07,0,0,0,223,223.27a53.6,53.6,0,0,0,7.9,7.61,69.53,69.53,0,0,0,37.16.26,65.52,65.52,0,0,0,11.11-4.22c.95-.46,1.87-.93,2.73-1.41,6.52,1.27,9,3.56,10,5.54.16.31.34.74.59,1.21a5.27,5.27,0,0,0,2.3,2.37,4.37,4.37,0,0,0,3.3.2c1.9-.86,2.95-4.05,1.77-7.61h.05a3.1,3.1,0,0,0,2.26-.17c.8-.45,1.25-1.35,1.54-3.05a19.63,19.63,0,0,0-.63-8.46c1.12-.4,3.52-1.45,4.42-3.72,1.57-3.91-2.18-9.25-6.37-10.71a9.62,9.62,0,0,0-6.44.25,28.43,28.43,0,0,0-6.74,3.77c-2.38,1.66-3.2,2.86-8,6.59l-.86.66c-2.13,1.63-3.2,2.45-4.09,3-4.29,2.6-8.33,3-13.16,3.52a49.89,49.89,0,0,1-17.27-1.14c-1.87-.48-3.4-1-4.5-1.38-3.32-8.16-5.76-14.66-7.32-18.9-3.08-8.38-4.8-13.65-9.13-14.89a8.41,8.41,0,0,0-5.31.43"/>
            <path class="cls-43" d="M303.53,215.61s-3.37-5.26-8.33-6.57"/>
            <path class="cls-43" d="M300.43,227.78s-3.37-5.27-8.34-6.57"/>
          </g>
        </g>
        <g>
          <path class="cls-65" d="M129,225.83c8.37,4.56,150.15,69.66,269.67-7.39L360.41,78.05c-8.74-32-39.42-56.95-78.49-63.17-1.16-.19-2.33-.36-3.51-.52C225,7,174.32,36.75,163.83,80.52Z"/>
          <path class="cls-66" d="M357.32,150.82S315,89.26,263,89.4s-94,61.91-94,61.91c-23.63-5-12-140.68,93.81-138.92C359.41,7.29,386.69,144.15,357.32,150.82Z"/>
          <path class="cls-67" d="M357.93,163.28s-42.32-61.56-94.32-61.43-94,61.91-94,61.91c-23.64-5-12-140.68,93.81-138.91C360,19.74,387.29,156.61,357.93,163.28Z"/>
          <path class="cls-68" d="M237.24,48.31s-36.3,39.32-46.3,94.24-10.81,92.9-10.81,92.9c-37.32-12.38-45.66,12.14-24.39-99.4C172.1,33.61,239.87,16.73,237.24,48.31Z"/>
          <path class="cls-69" d="M288.83,48.18s36.49,39.13,46.77,94S346.88,235,346.88,235c37.26-12.57,45.73,11.91,23.89-99.52C353.89,33.14,286,16.61,288.83,48.18Z"/>
          <g class="cls-70">
            <path class="cls-36" d="M358.87,141.43c-.4-5.26-2.51-10.48-4.13-15.51-1.8-5.11-3.82-10.14-6-15.08a220,220,0,0,0-15-28.58c-5.62-9-12.64-17-19.62-24.87-7.09-7.67-15-14.37-24.84-19.34l.2-.77a41.85,41.85,0,0,1,16.28,4.64c15.78,7.87,25.57,21.95,33.51,37.11a196.2,196.2,0,0,1,13.18,30.36c3,9.14,5.74,18.41,7.06,28a16.56,16.56,0,0,1,.13,4.24l-.78-.15Z"/>
          </g>
        </g>
      </g>
    </g>
  </g>
</svg>
