<svg id="Layer_1" data-name="Layer 1" xmlns="http://www.w3.org/2000/svg" width="159.37" height="260.95" viewBox="0 0 159.37 260.95">
  <defs>
    <style>
      .cls-1 {
        fill: #1e4583;
        stroke: #1a244f;
      }

      .cls-1, .cls-11, .cls-23, .cls-24, .cls-3, .cls-4, .cls-6, .cls-7, .cls-8 {
        stroke-miterlimit: 10;
      }

      .cls-2 {
        fill: #273573;
      }

      .cls-14, .cls-3 {
        fill: #f9d1c7;
      }

      .cls-3 {
        stroke: #6e4c2d;
      }

      .cls-4 {
        fill: #d82027;
        stroke: #6d0e1a;
      }

      .cls-5 {
        fill: #c12126;
      }

      .cls-11, .cls-6 {
        fill: #fecb4b;
      }

      .cls-6 {
        stroke: #725422;
      }

      .cls-7 {
        fill: #6dcdf1;
        stroke: #3e2e15;
      }

      .cls-8 {
        fill: #fbaa19;
        stroke: #4a3120;
      }

      .cls-9 {
        fill: #fecc52;
      }

      .cls-10 {
        fill: #4c2d1a;
      }

      .cls-11 {
        stroke: #563e16;
      }

      .cls-12 {
        fill: #dc9e8f;
      }

      .cls-13 {
        fill: #352618;
      }

      .cls-15 {
        fill: #6e4c2d;
      }

      .cls-16, .cls-25 {
        fill: #fff;
      }

      .cls-17 {
        fill: #3e2f19;
      }

      .cls-18 {
        fill: #2e2b21;
      }

      .cls-19 {
        fill: #6e2a27;
      }

      .cls-20 {
        fill: #d36754;
      }

      .cls-21 {
        fill: #f6978f;
      }

      .cls-22 {
        fill: #e9827d;
      }

      .cls-23 {
        fill: #17489c;
        stroke: #214082;
        opacity: 0.25;
      }

      .cls-24 {
        fill: none;
        stroke: #700d1b;
      }

      .cls-25 {
        opacity: 0.35;
      }
    </style>
  </defs>
  <g>
    <g>
      <path class="cls-1" d="M50.9,124.58S34.8,168.51,37,198c0,0,.27,10.91,13.64,5.18s23.18-2.18,29.19,1.64,17.73,5.73,27-6,17.19.54,25.38-6.82,12.82-14.73,7.91-20.74c0,0-10.91-.81-37.1-40.37S50.9,124.58,50.9,124.58Z"/>
      <path class="cls-2" d="M113.92,193.33s-17.19-24.82-22.1-59.47c0,0,12,48.56,25.37,58.93Z"/>
      <path class="cls-2" d="M97.28,206.15s-13.64-30-19.65-84c0,0,3.28,50.19,17.74,85.11Z"/>
      <path class="cls-2" d="M54.17,201.79s8.19-21.55,7.91-64.66c0,0-3.27,50.47-11.45,66Z"/>
      <path class="cls-2" d="M138.47,184.6s-19.64-10.37-33.28-44.19C105.19,140.41,120.19,184.33,138.47,184.6Z"/>
    </g>
    <path class="cls-3" d="M51.45,104.74s2.82-1.88,8.94-3.14V96.43L79.06,98l1.41,3.46,7.31,2S79.68,117.29,51.45,104.74Z"/>
    <g>
      <path class="cls-3" d="M33.29,164.36s-1.83-2.77,2.45-3.14a16.12,16.12,0,0,1,7.44,1.08l-1.82,3.25-4.1,1.54-3.39-.67-1-2.94"/>
      <path class="cls-3" d="M28.76,166,27,163.7A2.75,2.75,0,0,1,31.24,162l2.81,2.12,6.37.95,2.76-2.74-4.13,5.62L34,169.43Z"/>
      <path class="cls-3" d="M25,166.47s-3-2-.11-3.31,5,.62,7.38,2.92,8.48-1.61,8.48-1.61l1.75,1.89-4.18,4-6.76.88Z"/>
      <path class="cls-3" d="M36.31,160.17l3.29,3.88s-5.81,1.39-7.52,4.84c0,0-4.13-4.38-7.16-3.11s1.51,6.16,7.58,6.33S46,168.78,48,164.76s1.86-11.31-4.36-13.52S36.31,160.17,36.31,160.17Z"/>
    </g>
    <path class="cls-4" d="M44.11,151.15a17.85,17.85,0,0,1-6.42,8.76l-.95.7s-1.45-.75-3.66-2c-8.11-4.65-26.41-16.34-20.5-24,7.13-9.19,29.49-27.12,29.49-27.12l.63,1.43.63,18.84-13.49,8.85L41,148Z"/>
    <path class="cls-4" d="M133,125.72l-.48,11.21a32.79,32.79,0,0,1-3.82,1.28c-4.89,1.34-13.74,2.82-22-.77l-11.56-9,3.4-20.23s.71.08,3.06,2.83,6.53,8.43,13.39,15.53l12.12-.56Z"/>
    <g>
      <g>
        <path class="cls-4" d="M99.76,108.88l-.3,1.21-3.15,12.7-2.82,30.28-.94,3.36V157l.73.45.73.82.11,1.09c-.27,14.37,1.57,51.48,1.57,66.55l-4.4.51L81,227.6l-6.71-41.11-.87-5.37-.34-1.6-1.38.17-.82.1L70.69,181l-7.32,54.81-14.59-7.9-1.72-68.05,1.25-.55v-2.73l-.94-2.73-5.08-32.52-.34-4-.86-9.62s4.74-3.12,14.52-5.31c.76-.17,1.55-.34,2.37-.49,1.25,3.46,7,7,13.86,7,6.48,0,11.94-3.24,13.6-6.4a15.08,15.08,0,0,1,2.34.65c1.25.58,2.64.58,4.74,1.34a24.51,24.51,0,0,1,6.6,3.81Z"/>
        <path class="cls-5" d="M92.55,156.43V157l.73.45.73.82.11,1.09c-.27,14.37,1.57,51.48,1.57,66.55l-4.4.51L88.47,173,74.31,186.49l-.87-5.37-.34-1.6-1.38.17-.51-5.89,12.87-23.19c2.11-28.89,5.69-41,8.44-46a24.51,24.51,0,0,1,6.6,3.81l.34,1.71-3.15,12.7-2.82,30.28Z"/>
        <path class="cls-6" d="M93.91,177C70.28,192.91,74.8,193.71,72.8,193c-.3,0-.59.05-.88.05s-.59,0-.89-.05,0,.31-1.16-.83c-2.12-2-7.87-6.73-22.34-16.48v-.12L47.13,165h0c8,2,27.12,5.44,47.07.19Z"/>
        <path class="cls-7" d="M46.74,161s23.9,5.13,47.79-.21l.23.8a11.2,11.2,0,0,1-.51,7.63h0s-20.69,6-47.72-.58h0a11.89,11.89,0,0,1,.06-7.18Z"/>
        <rect class="cls-6" x="70.8" y="162.23" width="2.82" height="10.12"/>
        <rect class="cls-6" x="57.15" y="162.25" width="2.82" height="10.12"/>
        <rect class="cls-6" x="83.74" y="162.11" width="2.82" height="10.12"/>
      </g>
      <path class="cls-8" d="M87.78,103.42c-.72,4.87-7.63,8.69-16.06,8.69-8.9,0-16.11-4.26-16.11-9.53v0c.76-.19,1.55-.38,2.37-.56,1.25,4,7,7,13.86,7,6.48,0,11.94-2.67,13.6-6.31C86.2,102.9,87,103.15,87.78,103.42Z"/>
      <path class="cls-9" d="M87.61,125.05c0-3.11-3.9-5.64-8.71-5.64-3.38,0-6.3,1.24-7.75,3.07-1.5-1.7-4.32-2.84-7.54-2.84-4.81,0-8.71,2.53-8.71,5.65,0,2.66,2.83,4.88,6.63,5.48,1.07,2.8,5.07,4.87,9.84,4.87,4.94,0,9-2.22,9.94-5.16C84.94,129.8,87.61,127.63,87.61,125.05Z"/>
      <path class="cls-4" d="M84.6,126.22c0-2.33-3.18-4.22-7.1-4.22-2.76,0-5.15.93-6.33,2.29A8.77,8.77,0,0,0,65,122.17c-3.93,0-7.11,1.89-7.11,4.23,0,2,2.31,3.66,5.42,4.11.87,2.09,4.13,3.64,8,3.64s7.39-1.66,8.11-3.86C82.43,129.78,84.6,128.15,84.6,126.22Z"/>
    </g>
    <g>
      <g>
        <path class="cls-10" d="M48.91,221.84l1.44,18.68s-11.58,1-11.42,7.52,17.36,6.78,22.45,1.92l.63-.25c1.5-.59,3.61-1.1,3.56-2.55-.08-2.17-1.68-6.19-3.42-8.54-2.9-3.9,0-15.35,0-15.35S52.17,215.11,48.91,221.84Z"/>
        <path class="cls-11" d="M47.37,206.8l2,29.86c.08,1.1-.09,1.78-1.32,2-3.33.65-9.39,2.49-9.28,7.19.16,6.5,17.37,6.78,22.45,1.92l1.87-.57a2.74,2.74,0,0,0,2.09-2.86A46.32,46.32,0,0,1,65.1,236a134,134,0,0,0,.31-13.91S50.63,200.06,47.37,206.8Z"/>
      </g>
      <path class="cls-11" d="M40.78,241.71s3.77-5.11,18.59-2.86"/>
      <path class="cls-10" d="M47.61,210.37a68.56,68.56,0,0,1,11.83,11h0c.79.92,1.59,1.89,2.42,2.92h0c1,1.21,1.93,2.5,2.91,3.87l.12.1,0,.15-.08,1.16,0,.64v.06c-.78-1.13-1.86-2.63-3.2-4.34s-3.22-4-5.24-6.12a67.43,67.43,0,0,0-8.58-7.77Z"/>
    </g>
    <g>
      <g>
        <path class="cls-10" d="M95.7,220.68l-1.49,18.67s11.86,1,11.69,7.52-17.79,6.78-23,1.93l-.65-.25c-1.53-.59-2.74-1.91-2.45-3.36.82-4.16.76-7.81,2.54-10.16,3-3.91-.17-12.92-.17-12.92S92.37,213.94,95.7,220.68Z"/>
        <path class="cls-11" d="M97.46,205.62l-2,29.87c-.08,1.1.09,1.77,1.32,2,3.34.66,9.39,2.49,9.28,7.2-.16,6.49-17.37,6.78-22.45,1.92l-2.73-.76s.31,1.06-.32-10c-.47-8.25-1.1-15-1.1-15S94.2,198.89,97.46,205.62Z"/>
      </g>
      <path class="cls-11" d="M104.05,240.54s-3.76-5.12-18.59-2.87"/>
      <path class="cls-10" d="M97.1,210.92a66.65,66.65,0,0,0-8.57,7.77c-2,2.15-3.79,4.25-5.24,6.12-1.34,1.71-2.42,3.21-3.2,4.34v-.07l0-.63L80,227.29v-.16l.11-.1c1-1.37,2-2.65,2.92-3.86h0c.82-1,1.62-2,2.42-2.92h0A68.56,68.56,0,0,1,97.22,209.2Z"/>
    </g>
    <path class="cls-11" d="M80.59,236.44s-3.46,5.47.25,9.42c0,0,.58-.24,3.51,1.3"/>
    <path class="cls-4" d="M29.84,136.62s-3-3.6-10.51,0"/>
    <path class="cls-4" d="M115,126.56a6.86,6.86,0,0,0-7.82,4.16"/>
    <g>
      <g>
        <path class="cls-3" d="M101.44,75.37c-2.39,5.14-7.52,7.44-11.75,5.7s-2.73-4.6-.34-9.75,2.51-4.57,6.64-6.66C105,60.08,103.83,70.22,101.44,75.37Z"/>
        <path class="cls-12" d="M97.6,66.76a2.27,2.27,0,0,1,2,.1,2.52,2.52,0,0,1,.82,2.37,14.36,14.36,0,0,1-3.77,8.41,3.63,3.63,0,0,1-1.18,1A1.28,1.28,0,0,1,93.58,77c.35-1.4,1.64-2.36,2.69-3.4a2.86,2.86,0,0,0,.7-1,1,1,0,0,0-.17-1.09,1.53,1.53,0,0,0-.86-.34,9,9,0,0,0-1.94.07c-.29-.91.48-1.81,1-2.48A5.91,5.91,0,0,1,97.6,66.76Z"/>
      </g>
      <path class="cls-3" d="M89.83,43.33c-16.91-8.81,4.64-22-17.38-20.72C51.08,23.83,39.09,35.15,39.4,53.76c.14,8.6,3.29,17.48,3.26,17.95-1.26,21.87,20.63,31.91,33.59,31.16,5.66-.32,8.07-3.32,12.9-7.5,5.91-5.1,10.33-12.65,9.67-27.91C98.8,67,103.93,50.68,89.83,43.33Z"/>
      <path class="cls-12" d="M52.29,44.21S57.15,50.32,81.15,49l-.81-3.14S82,50.22,96,51.91L99,68.8l2.3-35.69L50.47,31.7,43.06,40l.8,9.49s-4,19.29-2.87,25.7L41.74,74a35.19,35.19,0,0,0,5.62-13.94h0S52.31,61.86,52.29,44.21Z"/>
      <path class="cls-13" d="M50.15,39.56S48,47.12,80.22,47.26c0,0-.85-.33-4-7.63,4,9,12.38,8.81,18.57,10.41l2.2-9.5L99,68.8s2.68-8.38,3.36-11.91c0,0,2.52-9.88.72-16.1a32.4,32.4,0,0,1,2.17,5.93s7.67-15.38-13-27c0,0,1.18-1.32,6.19.87,0,0-9.57-10-28.55-9.81-9.93.09-17.44.11-21.57,9.88,0,0-12-7.68-16.84,7.27,0,0,8.25-4.67,10.77-1.38,0,0-9.84,1.73-11.75,15.91C28.63,55.84,32.5,65.27,40,74.88A26.18,26.18,0,0,0,45,54.71L48,59.08S53.1,55.25,50.15,39.56Z"/>
      <g>
        <path class="cls-14" d="M73.75,76.28s-.28,2.19,3.22,1.89c6.4-.53,2.11-4.32,2.11-4.32"/>
        <path class="cls-15" d="M73.75,76.28c.62,2,3,1.4,4.57,1.23,2.61-.4,2.06-2,.76-3.66a3.5,3.5,0,0,1,1.71,2.43c.17,2.87-8.07,3.53-7,0Z"/>
      </g>
      <g>
        <path class="cls-3" d="M42.87,74.31a10,10,0,0,0-6-6.15c-7.81-4-6.55,6.09-4.4,11.07s7.4,8.16,11.85,3.84"/>
        <path class="cls-12" d="M35.55,70.37a1.73,1.73,0,0,0-1.67.23A2.93,2.93,0,0,0,33.23,73a14.81,14.81,0,0,0,3.4,8.14,3,3,0,0,0,1,.91,1.09,1.09,0,0,0,1.25-.17,1.7,1.7,0,0,0,.29-1.57c-.33-1.37-1.45-2.25-2.37-3.22a2.68,2.68,0,0,1-.62-.9,1.24,1.24,0,0,1,.12-1.11,1.25,1.25,0,0,1,.73-.39,6.09,6.09,0,0,1,1.65-.06,3.06,3.06,0,0,0-.92-2.42A4.88,4.88,0,0,0,35.55,70.37Z"/>
      </g>
      <g>
        <g>
          <ellipse class="cls-16" cx="62.82" cy="67.62" rx="5.84" ry="6.14" transform="translate(-6.13 6.26) rotate(-5.44)"/>
          <path class="cls-17" d="M63.41,73.78c-5.34.59-9-6.08-5.78-10.51a6.25,6.25,0,0,1,9.46-.9c4,3.75,1.66,11-3.68,11.41Zm0-.1c7.55-1,6.46-12.55-1.16-12.08-7.56,1-6.45,12.54,1.16,12.08Z"/>
        </g>
        <ellipse class="cls-18" cx="62.53" cy="67.58" rx="3.62" ry="3.39" transform="translate(-7.49 127.36) rotate(-87.71)"/>
        <ellipse class="cls-16" cx="64.62" cy="65.9" rx="1.02" ry="1.09" transform="translate(-13.18 16.25) rotate(-13.02)"/>
      </g>
      <g>
        <g>
          <ellipse class="cls-16" cx="86.58" cy="68.07" rx="5.71" ry="6.14" transform="translate(-6.07 8.52) rotate(-5.44)"/>
          <path class="cls-17" d="M87.17,74.24c-5.28.54-8.75-6.11-5.72-10.48a6.07,6.07,0,0,1,9.34-.89c3.81,3.72,1.66,10.91-3.62,11.37Zm0-.1c5.08-.48,6.72-7.44,3-10.63a5.41,5.41,0,0,0-8.06.76c-3,3.84-.07,10.36,5,9.87Z"/>
        </g>
        <ellipse class="cls-18" cx="86.26" cy="67.52" rx="3.39" ry="3.62" transform="translate(-12.99 21.16) rotate(-13.02)"/>
        <ellipse class="cls-16" cx="88.31" cy="66.15" rx="1.02" ry="1.09" transform="translate(-12.63 21.59) rotate(-13.02)"/>
      </g>
      <path class="cls-18" d="M93.19,58.63s-8.41-6-11.51-.79c0,0,.72-8.06,8.4-2.36Z"/>
      <path class="cls-18" d="M55.08,59.53s7.68-7.07,11.44-2.3c0,0-1-7.81-8.64-1.24Z"/>
      <g>
        <path class="cls-19" d="M63.05,83.56c1.44,2.36,6.13,9.81,12.52,10.28,3.86.28,5.56-3,7.24-5.38.44-.61.84-1.26,1.25-1.9h0l.62-1a20.81,20.81,0,0,1,1.8-2.42h0c.16-.18.32-.35.49-.51l.2-.2s-5.44,3.61-22.37.75l-1.41-.35-.56-.14-.31-.07S62.7,83,63.05,83.56Z"/>
        <path class="cls-20" d="M81,89.88a4.31,4.31,0,0,0-3.77-.68,8.51,8.51,0,0,0-6.08,1.33S76.67,93.81,81,89.88Z"/>
        <path class="cls-16" d="M62.83,82.71c7.92,6.39,14.88,6.14,18.64,4.78,1.61-.59,1.39-3.47,4.06-3.74A7.33,7.33,0,0,0,87,82.65l.2-.2s-5.44,3.61-22.37.75l-1.41-.35Z"/>
        <path class="cls-21" d="M63.05,83.56c1.44,2.36,7.53,11.77,13.51,10.79,6.83-1.12,7.61-8,9.29-10.42C79.08,96.3,71.58,93,63.05,83.56Z"/>
        <path class="cls-22" d="M63.39,82.85c12.91,5.44,20.33,2.15,23.09.31h0l.07,0c.14-.18.29-.33.42-.47l.2-.2s-5.44,3.61-22.37.75Z"/>
        <path class="cls-20" d="M63.32,81.49s-2,.39-1,2.52C62.3,84,60.81,81.25,63.32,81.49Z"/>
        <path class="cls-20" d="M86.75,81.75s1.23.27.52,2C87.27,83.75,88.59,82,86.75,81.75Z"/>
      </g>
    </g>
    <g>
      <path class="cls-23" d="M99,70.7c-2.43,3.7-8.55,8-13.6,6.66a7,7,0,0,1-1.83-.78,7.71,7.71,0,0,1-1.92-1.65c-5.24-6.11-8.35-1.3-8.35-1.3-17.17,7.83-30.75,0-30.75,0l-1.8-3.87C56.47,54.7,68.6,59.87,72.64,62.93s8.08-.23,8.08-.23a16.24,16.24,0,0,1,12.5-1.44,17.65,17.65,0,0,1,2.39.9,14.68,14.68,0,0,1,3.18,2Z"/>
      <path class="cls-24" d="M99,70.7c-2.43,3.7-8.55,8-13.6,6.66a7,7,0,0,1-1.83-.78,7.71,7.71,0,0,1-1.92-1.65c-5.24-6.11-8.35-1.3-8.35-1.3-17.17,7.83-30.75,0-30.75,0l-1.8-3.87C56.47,54.7,68.6,59.87,72.64,62.93s8.08-.23,8.08-.23a16.24,16.24,0,0,1,12.5-1.44,17.65,17.65,0,0,1,2.39.9,14.68,14.68,0,0,1,3.18,2Z"/>
      <polygon class="cls-25" points="48.92 75.93 59.17 59.61 62.23 59.51 50.82 76.56 48.92 75.93"/>
      <path class="cls-25" d="M95.61,62.16,85.43,77.36a7,7,0,0,1-1.83-.78l9.62-15.32A17.65,17.65,0,0,1,95.61,62.16Z"/>
    </g>
    <path class="cls-8" d="M44.11,151.15a17.85,17.85,0,0,1-6.42,8.76l-.95.7s-1.45-.75-3.66-2A18.63,18.63,0,0,0,41,148Z"/>
    <path class="cls-8" d="M133,125.72l-.48,11.21a32.79,32.79,0,0,1-3.82,1.28c-4.06-5.61-3.16-9.72-1.64-12.21Z"/>
    <g>
      <path class="cls-3" d="M129.27,132.41c.12,3.91,4.36,5.75,4.36,5.75,13.47,4.42,19.51-2.41,21.64-6.68a7.21,7.21,0,0,0,.6-1.66c.17-2.58-1-2.79-1-2.79l.29-.76a2.92,2.92,0,0,0-.06-1.31h0a2.57,2.57,0,0,0-3.44-.66c-3.35,1.76-8.77,1.79-11.85.73s-1.6-5.24-1.6-5.24c1.56-4.64-2.19-7.89-5-7.39s-3.23,3.55-2.13,5.89.34,3.29.34,3.29a10.2,10.2,0,0,0-2.54,5"/>
      <path class="cls-3" d="M144.64,134.28c.88,2.18,11.43-6.33,9.72-1.22"/>
      <path class="cls-3" d="M145.36,130a26.88,26.88,0,0,0,7.46-2.28c2.64-1.65,3.26.39,2.7,3.19"/>
      <path class="cls-3" d="M140,134.49c2.73-.62,7.31-2,8.1-.85,0,0,1.88,4-6.22,5.12"/>
      <path class="cls-3" d="M138,123.69a8.35,8.35,0,0,1,2.14,4.37,4.88,4.88,0,0,1-1,4.14"/>
      <path class="cls-3" d="M154.62,124.48a2.22,2.22,0,0,1-.08,2.66"/>
    </g>
    <polygon class="cls-6" points="37.85 111.07 43.19 128.32 41.41 107.61 37.85 111.07"/>
    <path class="cls-6" d="M99.12,108.38s-4.69,7.29-3.54,20.88c0,0,1.26-13,5-19.45Z"/>
  </g>
</svg>
