<svg id="bd57ac09-e11f-4b80-aced-821985617dee" data-name="Layer 1" xmlns="http://www.w3.org/2000/svg" xmlns:xlink="http://www.w3.org/1999/xlink" width="165.1" height="210.6" viewBox="0 0 165.1 210.6">
  <defs>
    <style>
      .a0089217-58d2-4448-a26d-a1982bf53bcd, .bac66474-c1e7-4bf7-b049-5970113535eb {
        fill: none;
      }

      .b8a2d4b8-b218-48dc-87c2-b15dded6a94e {
        clip-path: url(#b392508c-208d-4bcf-848a-c544d64e9764);
      }

      .aa3abfa5-d838-4cef-a6e5-ea5791e54430 {
        clip-path: url(#a6641705-b9eb-4f7e-b397-9ecb71f29d66);
      }

      .bb6d2075-4ddc-4e16-8fd0-1eb8786f3844 {
        fill: url(#ef752834-5565-45ce-b29a-09905a0421b8);
      }

      .b0c7c76b-35c3-477a-bbf3-be0924f645b6 {
        fill: #d81f25;
        stroke: #5b0c12;
      }

      .a0089217-58d2-4448-a26d-a1982bf53bcd, .a1e005a4-e8a3-4561-978a-8a8fef8d5fe7, .a4b55e58-9cc3-407e-9c46-07c0fe7ba31d, .ac055e52-42eb-4683-834e-9790fb0012e1, .b0c7c76b-35c3-477a-bbf3-be0924f645b6, .e50272c0-0099-49ff-aa4c-9c2f4b48e1f7, .ed728e32-2318-4fc8-a5f5-31230f33a599, .ee852a9d-3293-448b-bb60-24fd2427c621 {
        stroke-miterlimit: 10;
      }

      .a0089217-58d2-4448-a26d-a1982bf53bcd, .a1e005a4-e8a3-4561-978a-8a8fef8d5fe7, .ac055e52-42eb-4683-834e-9790fb0012e1, .b0c7c76b-35c3-477a-bbf3-be0924f645b6, .e50272c0-0099-49ff-aa4c-9c2f4b48e1f7, .ee852a9d-3293-448b-bb60-24fd2427c621 {
        stroke-width: 0.5px;
      }

      .a99ab7a3-f53c-4b21-8355-5ba9e6413776 {
        fill: #fecc51;
      }

      .ac055e52-42eb-4683-834e-9790fb0012e1, .fa0f71ad-70d5-427a-a28e-0696f7bafc63 {
        fill: #fbd3c7;
      }

      .ac055e52-42eb-4683-834e-9790fb0012e1 {
        stroke: #453323;
      }

      .a4b55e58-9cc3-407e-9c46-07c0fe7ba31d {
        fill: #f7edeb;
        stroke: #bf9b82;
      }

      .fea958d2-a438-4e69-a35c-9e7d82cddc43 {
        fill: #2d2b21;
      }

      .fd66d52b-59f3-405f-b288-c5c37d6462c6 {
        fill: #fff;
      }

      .fb72ca46-d5ed-4303-bcd3-ac82d1680d6d {
        fill: #3d2e17;
      }

      .b8bf065f-bb74-4acf-802f-ef342544d591 {
        fill: #453323;
      }

      .b58b118b-c989-4925-9a5c-8aee18fbe69c {
        fill: #ef8d7d;
      }

      .ed728e32-2318-4fc8-a5f5-31230f33a599 {
        fill: #1044a0;
        stroke: #143d84;
        opacity: 0.25;
      }

      .a0089217-58d2-4448-a26d-a1982bf53bcd {
        stroke: #700418;
      }

      .e50272c0-0099-49ff-aa4c-9c2f4b48e1f7 {
        fill: #fecb4b;
        stroke: #664f1c;
      }

      .eeff60b2-ac26-4558-9421-17ea51f2d86a {
        fill: #4c2c17;
      }

      .a1e005a4-e8a3-4561-978a-8a8fef8d5fe7 {
        fill: #6bcdf2;
        stroke: #245666;
      }

      .ee852a9d-3293-448b-bb60-24fd2427c621 {
        fill: #82d1f9;
        stroke: #4693aa;
      }

      .e4f1d957-75b7-4575-99f1-da5b7cad936c {
        fill: #5db5d8;
      }
    </style>
    <clipPath id="b392508c-208d-4bcf-848a-c544d64e9764">
      <rect class="bac66474-c1e7-4bf7-b049-5970113535eb" x="-1588.5" y="-129.6" width="1280" height="720"/>
    </clipPath>
    <clipPath id="a6641705-b9eb-4f7e-b397-9ecb71f29d66">
      <rect class="bac66474-c1e7-4bf7-b049-5970113535eb" x="-1748.5" y="-219.6" width="1600" height="900"/>
    </clipPath>
    <linearGradient id="ef752834-5565-45ce-b29a-09905a0421b8" x1="3651.47" y1="1933.7" x2="3651.47" y2="-657.21" gradientUnits="userSpaceOnUse">
      <stop offset="0" stop-color="#a4f2ff"/>
      <stop offset="0.25" stop-color="#69e3ff"/>
      <stop offset="0.49" stop-color="#34d5ff"/>
      <stop offset="0.62" stop-color="#1fd0ff"/>
      <stop offset="0.69" stop-color="#25c3ff"/>
      <stop offset="0.83" stop-color="#36a2ff"/>
      <stop offset="1" stop-color="#4d73ff"/>
    </linearGradient>
  </defs>
  <g class="b8a2d4b8-b218-48dc-87c2-b15dded6a94e">
    <g class="aa3abfa5-d838-4cef-a6e5-ea5791e54430">
      <rect class="bb6d2075-4ddc-4e16-8fd0-1eb8786f3844" x="-1748.5" y="-219.6" width="10800" height="2050"/>
    </g>
  </g>
  <g>
    <path class="b0c7c76b-35c3-477a-bbf3-be0924f645b6" d="M118,89.1s-.3,20.1-28.7,48.3c0,0-20-3.4-25.9-20.5L89.1,79Z"/>
    <path class="a99ab7a3-f53c-4b21-8355-5ba9e6413776" d="M112.5,105.2s-4.9-2-6.1,2.1-.9,5.3-.9,5.3-3.2.5,0,5.5l-1.5,1.6s-3.5-5.5-.1-8.6a8.4,8.4,0,0,1,2.1-6.6c2.7-3,7.6-1.2,7.6-1.2Z"/>
    <g>
      <g>
        <path class="ac055e52-42eb-4683-834e-9790fb0012e1" d="M110.8,84s-6.8-1.4-10.9,3.2-8.3-12-8.3-12L99,59.8l11.3,3Z"/>
        <g>
          <path class="a4b55e58-9cc3-407e-9c46-07c0fe7ba31d" d="M126.6,73.4a14.2,14.2,0,0,0,7,5.9s.8.4,1.4-1.9S126.3,70,126.6,73.4Z"/>
          <path class="ac055e52-42eb-4683-834e-9790fb0012e1" d="M142.4,72.4c-2,.3-3-1.1-4.3,2.3l-1,2.5c-.5,1.1-.7,1.2-.7,1.2a14.7,14.7,0,0,1-9.7-5.6c0,.1.1.2.2.4a1.6,1.6,0,0,0,.3.8c.8,1.9,2.6,5.5,5.9,7.3,0,0,1.2.8.4,1.5a3.7,3.7,0,0,1-1.5.6c-3.1.6-2.9,4.3-6.2,6.5s-10.2.4-15.3-3.6-11.6-11.1-12.6-21,9.9-30,9.9-30l8.7-5,8.4-.3,18.9,7.1s5.2,10.3,1.8,16.6-5.8,8.6-3.5,13.2S144.4,72,142.4,72.4Z"/>
          <path class="fea958d2-a438-4e69-a35c-9e7d82cddc43" d="M101,13.5s4.4-9.6,19.2-7.2,21.3,9.5,21.3,9.5l-8.4-.7s13.3,6.4,19.7,18.4-7,19.8-7,19.8a18.2,18.2,0,0,0,.4-7.9,18.7,18.7,0,0,0-3.8-7.7s4,10.1-3.5,6.8a33.8,33.8,0,0,1-11.8-8.4S128,48.2,116,52.3l.2-8.8A32.7,32.7,0,0,1,101,57.6l-1.5,8.1L95.7,75.9s-7.8-2.2-13.5-21.7.5-33.9,14.7-35c0,0-2.6-4.7-11-1.8C85.9,17.4,89.8,9.6,101,13.5Z"/>
          <g>
            <g>
              <ellipse class="fd66d52b-59f3-405f-b288-c5c37d6462c6" cx="134.7" cy="62.3" rx="5.5" ry="3.2" transform="translate(13 147.2) rotate(-59.7)"/>
              <path class="fb72ca46-d5ed-4303-bcd3-ac82d1680d6d" d="M137.6,63.9c-1.2,2-3.3,4.6-5.9,3.6-4.6-3,1.2-13,6.1-10.4,2.1,1.7.9,4.9-.2,6.8Zm-.1,0c1-1.8,2-4.8,0-6.3-3.9-1.8-8.9,6.9-5.5,9.4s4.4-1.3,5.5-3.1Z"/>
            </g>
            <ellipse class="fea958d2-a438-4e69-a35c-9e7d82cddc43" cx="135.9" cy="63.3" rx="3.6" ry="1.7" transform="translate(12.7 148.7) rotate(-59.7)"/>
            <ellipse class="fd66d52b-59f3-405f-b288-c5c37d6462c6" cx="137.3" cy="61.1" rx="0.9" ry="0.6" transform="translate(15.3 148.8) rotate(-59.7)"/>
            <path class="fea958d2-a438-4e69-a35c-9e7d82cddc43" d="M142,53.4s-1.9-6.9-11-.1a11.3,11.3,0,0,1,10.6-3.9S145.3,50.8,142,53.4Z"/>
          </g>
          <g>
            <path class="ac055e52-42eb-4683-834e-9790fb0012e1" d="M102.7,57.7s-.4-5.4-3.6-7.4S91,53.7,92.5,60.6s4.8,10.1,10.1,4.1"/>
            <path class="ac055e52-42eb-4683-834e-9790fb0012e1" d="M100.5,59.7s-1.4-8.5-5.7-5"/>
            <g>
              <path class="fa0f71ad-70d5-427a-a28e-0696f7bafc63" d="M99.4,56.8a4.1,4.1,0,0,0-3,4.5"/>
              <path class="b8bf065f-bb74-4acf-802f-ef342544d591" d="M99.4,56.8a7,7,0,0,0-3,4.5,4.1,4.1,0,0,1,.6-2.8,3.7,3.7,0,0,1,2.4-1.7Z"/>
            </g>
          </g>
          <g>
            <path class="fa0f71ad-70d5-427a-a28e-0696f7bafc63" d="M127.8,71.2s-.8,2.3-3.7,1.6"/>
            <path class="b8bf065f-bb74-4acf-802f-ef342544d591" d="M127.8,71.2a2.3,2.3,0,0,1-3.7,1.6h0a3,3,0,0,0,2.1-.1c1-.4,1.1-.9,1.6-1.5Z"/>
          </g>
          <path class="b58b118b-c989-4925-9a5c-8aee18fbe69c" d="M137.1,77.2c-.5,1.1-.7,1.2-.7,1.2a14.7,14.7,0,0,1-9.7-5.6c0,.1.1.2.2.4l-.3-.6a20.6,20.6,0,0,0,8.5,4.3l1.9.3Z"/>
          <path class="b58b118b-c989-4925-9a5c-8aee18fbe69c" d="M126.7,73.1a1.8,1.8,0,0,0,.1.5l-.2-.2Z"/>
          <path class="b58b118b-c989-4925-9a5c-8aee18fbe69c" d="M133.5,82.8a12.6,12.6,0,0,1-2.7-2,13.8,13.8,0,0,1-4-7.2l.4.4c.8,1.9,2.6,5.5,5.9,7.3C133.1,81.3,134.3,82.1,133.5,82.8Z"/>
        </g>
        <g>
          <path class="ed728e32-2318-4fc8-a5f5-31230f33a599" d="M104.4,53.7l6.3,1.4s3-2.5,17.1-1.4,14.7,4.9,12.8,11.2a2.4,2.4,0,0,0-3,2.5c-.2,3-11.8,2-27.2-9.6L103.1,56Z"/>
          <path class="a0089217-58d2-4448-a26d-a1982bf53bcd" d="M104.4,53.7l6.3,1.4s3-2.5,17.1-1.4,14.7,4.9,12.8,11.2a2.4,2.4,0,0,0-3,2.5c-.2,3-11.8,2-27.2-9.6L103.1,56Z"/>
        </g>
      </g>
      <g>
        <g>
          <path class="ac055e52-42eb-4683-834e-9790fb0012e1" d="M144,65.9s1.8-4.3,4.2-5.5c0,0,1-.6,3.8-.1,0,0,2.7-2.1,4.4-.4,0,0,.7.7-.2,2.9,0,0,2.7,0,1.8,3.4,0,0,1.5.3.6,3.5,0,0,1.7,2.1-2.2,3.9a46.1,46.1,0,0,1-8.3,2.7l-4.6-10.1"/>
          <line class="ac055e52-42eb-4683-834e-9790fb0012e1" x1="144.7" y1="65.6" x2="152.3" y2="60.3"/>
        </g>
        <g>
          <path class="b0c7c76b-35c3-477a-bbf3-be0924f645b6" d="M84.2,142.1s-5.1,13.3-13.5,18.6-16.4-5.5-16.4-5.5Z"/>
          <g>
            <g>
              <path class="e50272c0-0099-49ff-aa4c-9c2f4b48e1f7" d="M69.2,158.3c12.5,2,1.1,4.2,1.1,4.2-11.6,4.7-37,13.5-37,13.5s10.3,8,6.4,21.2c0,0-1.6,5.4-6.6,4.9h-.5c-5.4-.8-11.1-5.5-11.6-17.2a25.9,25.9,0,0,0-3-9.5c-1.9-3.3-1.3-6.9,1.5-8.9a8.8,8.8,0,0,1,3.8-1.6c3.5-.7,9.1-5,13.1-8.4l1.2-1,3.6-3.2Z"/>
              <path class="eeff60b2-ac26-4558-9421-17ea51f2d86a" d="M33.1,202.1h-.5c-5.4-.8-11.1-5.5-11.6-17.2a25.9,25.9,0,0,0-3-9.5c-1.9-3.3-1.3-6.9,1.5-8.9-.4,2-.5,5.6,1.7,11a58.3,58.3,0,0,1,2.4,12.8C24.2,196.1,30.4,200.5,33.1,202.1Z"/>
              <path class="eeff60b2-ac26-4558-9421-17ea51f2d86a" d="M71.4,161.4c-1,.4.3.8-.8,1.2h-.9c-7-.2-21.9-2.9-33.3-6.2l1.2-1C43.5,156.7,59.7,161.1,71.4,161.4Z"/>
            </g>
            <path class="e50272c0-0099-49ff-aa4c-9c2f4b48e1f7" d="M28.6,172.2s2.5.1,4.4,4.3"/>
          </g>
          <path class="b0c7c76b-35c3-477a-bbf3-be0924f645b6" d="M59.9,124.5s-24,26-29.4,32.3,33.2,3.1,33.2,3.1,4.9-5.7,10.3-17.5l1.7-4.2"/>
          <g>
            <g>
              <path class="e50272c0-0099-49ff-aa4c-9c2f4b48e1f7" d="M59.3,163l-.7.2h0l-3.3,1.3h0C43.7,169.2,25.6,178,25.6,178s6.7,10.9,3.9,22.7c0,0-1.7,5.4-6.7,4.9h-.5c-5.4-.9-11.1-5.6-11.6-17.3a25.2,25.2,0,0,0-3-9.4c-1.9-3.4-1.3-6.9,1.5-9a8.8,8.8,0,0,1,3.8-1.6c3.5-.7,9.1-5,13.1-8.3l1.3-1.1c2.1-1.8,3.5-3.2,3.5-3.2s23.4,4.7,34.8,2.9C65.7,158.6,70.2,159.2,59.3,163Z"/>
              <path class="eeff60b2-ac26-4558-9421-17ea51f2d86a" d="M22.8,205.6h-.5c-5.4-.9-11.1-5.6-11.6-17.3a25.2,25.2,0,0,0-3-9.4c-1.9-3.4-1.3-6.9,1.5-9-.4,2-.5,5.6,1.7,11a61.8,61.8,0,0,1,2.5,12.9C13.9,199.6,20.1,204,22.8,205.6Z"/>
              <path class="eeff60b2-ac26-4558-9421-17ea51f2d86a" d="M58.6,163.2l-3.3,1.3h0A125.3,125.3,0,0,1,26.1,160l1.3-1.1C33.2,160.2,46.9,162.9,58.6,163.2Z"/>
            </g>
            <path class="e50272c0-0099-49ff-aa4c-9c2f4b48e1f7" d="M18.3,175.8s6-.7,7.9,3.5"/>
          </g>
          <path class="e50272c0-0099-49ff-aa4c-9c2f4b48e1f7" d="M63,120.9s-4,2-8.3,9.3c0,0,15.9-8,16.3,18.1a26.1,26.1,0,0,1,12-3.5l3.6-3.6Z"/>
          <g>
            <path class="a1e005a4-e8a3-4561-978a-8a8fef8d5fe7" d="M91.8,135.8c-3,5.7-5.9,6.1-5.9,6.1l-1.6-.6L81.5,140a45.6,45.6,0,0,1-8-4.6l-2.7-2.1a47.4,47.4,0,0,1-5.5-5.7,24.4,24.4,0,0,1-1.6-2.3,28.2,28.2,0,0,1-2-3.6l4-5.5c.9,1.5,1.9,2.8,2.8,4.1a25,25,0,0,0,1.8,2.4,58,58,0,0,0,5.2,5.6l2.3,1.9a28.5,28.5,0,0,0,8.2,4.5,23.7,23.7,0,0,0,3.2.9Z"/>
            <path class="e50272c0-0099-49ff-aa4c-9c2f4b48e1f7" d="M70.3,122.7l-5,4.9a24.4,24.4,0,0,1-1.6-2.3l4.8-5A25,25,0,0,0,70.3,122.7Z"/>
            <path class="e50272c0-0099-49ff-aa4c-9c2f4b48e1f7" d="M77.8,130.2l-4.3,5.2-2.7-2.1,4.7-5Z"/>
            <path class="e50272c0-0099-49ff-aa4c-9c2f4b48e1f7" d="M89.2,135.6l-4.9,5.7L81.5,140l4.5-5.3A23.7,23.7,0,0,0,89.2,135.6Z"/>
          </g>
        </g>
        <g>
          <path class="b0c7c76b-35c3-477a-bbf3-be0924f645b6" d="M149.5,76l-3.8,2.3L125.1,90.7l-25.3.7-.2.2c-6.9,6.7-9.7-1.5-9.7-1.5-4.4-12.6,7-16,7-16h.9l24.7.2,19-8.3,2.9-1.2Z"/>
          <polygon class="e50272c0-0099-49ff-aa4c-9c2f4b48e1f7" points="149.5 76 145.7 78.3 141.5 66 144.4 64.8 149.5 76"/>
          <path class="e50272c0-0099-49ff-aa4c-9c2f4b48e1f7" d="M99.6,91.6c-6.9,6.7-9.7-1.5-9.7-1.5-4.4-12.6,7-16,7-16h.9c-2.4,2.2-5.9,6.4-5.2,11.4S96.7,91.2,99.6,91.6Z"/>
        </g>
        <path class="ee852a9d-3293-448b-bb60-24fd2427c621" d="M100.1,74.3s-7,5.5-18.1,20.3-13.3,27.3-48,56c0,0-9.4,3.6-10.1-9.7,0,0-6.6-12.4,4.8-23.2,0,0-10-7.1-7.5-12,0,0-1.8-1.4,13.3-3.8,0,0-2.5-7.8,1.1-14.1s6.8-6.2,6.8-6.2,3,6.5,12.4,7.6,23.6-7.3,23.6-7.3,10.3-6.9,16.7-8S100.1,74.3,100.1,74.3Z"/>
        <path class="e4f1d957-75b7-4575-99f1-da5b7cad936c" d="M23.9,142.5s34.4-20,53.6-45.3C77.5,97.2,45.1,130.5,23.9,142.5Z"/>
        <path class="e4f1d957-75b7-4575-99f1-da5b7cad936c" d="M27.9,116.8s21.3-5.2,47.4-28.9C75.3,87.9,50.1,114.6,27.9,116.8Z"/>
        <path class="e4f1d957-75b7-4575-99f1-da5b7cad936c" d="M33.4,101.8s32-7.8,44.5-19.3C77.9,82.5,52.5,102,33.4,101.8Z"/>
      </g>
    </g>
  </g>
</svg>
