<svg id="b96038e3-c63e-4a8a-b5e8-b1cbbbbb107b" data-name="Layer 1" xmlns="http://www.w3.org/2000/svg" xmlns:xlink="http://www.w3.org/1999/xlink" width="100.3" height="241.1" viewBox="0 0 100.3 241.1">
  <defs>
    <style>
      .b6dc8d41-3bf4-4346-a002-eb72fe2f1c7c, .e2d52131-6784-41f8-a7d2-c76e0a347fa9 {
        fill: none;
      }

      .a26f6f02-85e3-41c3-8f1b-ba2f4f48382b {
        clip-path: url(#bc02b4a6-acfa-4997-9cf5-2613e2e67dce);
      }

      .a92fb166-bf9e-46a4-9b28-601edaebc337 {
        clip-path: url(#be95abac-05c4-4584-a102-bdd567aac4dc);
      }

      .ec5c5a43-147d-4f07-9e12-822ed440f916 {
        fill: url(#b0845f3c-db38-48cd-bc29-079259812c58);
      }

      .ba75cde9-a5d1-49cf-8dfc-5111ed5ac543 {
        fill: #82d1f9;
        stroke: #4693aa;
      }

      .a0251b04-a6e7-4c54-9f79-58b1b90bb4bc, .aa4a9ee6-1272-4d73-928a-8a21947a6fab, .ac55c21f-68b8-4b0b-9803-a89505e43a0a, .b1827b90-3aa3-4e4c-87f5-41e2df4082d3, .b3f3bdbe-bfa4-46e9-8056-0893561cb36b, .ba75cde9-a5d1-49cf-8dfc-5111ed5ac543, .bf075496-8a6f-420f-9351-f50f8d3b96e0, .e2d52131-6784-41f8-a7d2-c76e0a347fa9 {
        stroke-miterlimit: 10;
      }

      .a0251b04-a6e7-4c54-9f79-58b1b90bb4bc, .aa4a9ee6-1272-4d73-928a-8a21947a6fab, .ac55c21f-68b8-4b0b-9803-a89505e43a0a, .b3f3bdbe-bfa4-46e9-8056-0893561cb36b, .ba75cde9-a5d1-49cf-8dfc-5111ed5ac543, .e2d52131-6784-41f8-a7d2-c76e0a347fa9 {
        stroke-width: 0.5px;
      }

      .a5254500-1925-4b21-81ac-fc68a5993f1d {
        fill: #5db5d8;
      }

      .a0251b04-a6e7-4c54-9f79-58b1b90bb4bc, .b9f0f605-8aa5-4adb-a181-271ec110c9d7 {
        fill: #fbd3c7;
      }

      .a0251b04-a6e7-4c54-9f79-58b1b90bb4bc {
        stroke: #453323;
      }

      .ac55c21f-68b8-4b0b-9803-a89505e43a0a {
        fill: #d81f25;
        stroke: #5b0c12;
      }

      .fb7760a5-abb9-4f42-b514-f51aad00f2d2 {
        fill: #fecc51;
      }

      .b3f3bdbe-bfa4-46e9-8056-0893561cb36b {
        fill: #fecb4b;
        stroke: #664f1c;
      }

      .ba16891c-fb2c-4b9d-919d-4defc23e0ecf {
        fill: #4c2c17;
      }

      .b1827b90-3aa3-4e4c-87f5-41e2df4082d3 {
        fill: #f7edeb;
        stroke: #bf9b82;
      }

      .fab2cab9-5fd2-442b-aae8-2269781d1f0d {
        fill: #2d2b21;
      }

      .e911ad43-1541-46a4-b8b9-5018d6b26984 {
        fill: #fff;
      }

      .a84d1c7a-b39d-47d2-9a44-80baa28263b6 {
        fill: #3d2e17;
      }

      .b9f32a8a-2cc9-472a-939d-97f79b287b58 {
        fill: #453323;
      }

      .f87733fc-21e1-4602-b868-018fdb867199 {
        fill: #ef8d7d;
      }

      .bf075496-8a6f-420f-9351-f50f8d3b96e0 {
        fill: #1044a0;
        stroke: #143d84;
        opacity: 0.25;
      }

      .e2d52131-6784-41f8-a7d2-c76e0a347fa9 {
        stroke: #700418;
      }

      .aa4a9ee6-1272-4d73-928a-8a21947a6fab {
        fill: #6bcdf2;
        stroke: #245666;
      }
    </style>
    <clipPath id="bc02b4a6-acfa-4997-9cf5-2613e2e67dce">
      <rect class="b6dc8d41-3bf4-4346-a002-eb72fe2f1c7c" x="-1309.9" y="-129.6" width="1280" height="720"/>
    </clipPath>
    <clipPath id="be95abac-05c4-4584-a102-bdd567aac4dc">
      <rect class="b6dc8d41-3bf4-4346-a002-eb72fe2f1c7c" x="-1469.9" y="-219.6" width="1600" height="900"/>
    </clipPath>
    <linearGradient id="b0845f3c-db38-48cd-bc29-079259812c58" x1="3930.11" y1="1933.7" x2="3930.11" y2="-657.21" gradientUnits="userSpaceOnUse">
      <stop offset="0" stop-color="#a4f2ff"/>
      <stop offset="0.25" stop-color="#69e3ff"/>
      <stop offset="0.49" stop-color="#34d5ff"/>
      <stop offset="0.62" stop-color="#1fd0ff"/>
      <stop offset="0.69" stop-color="#25c3ff"/>
      <stop offset="0.83" stop-color="#36a2ff"/>
      <stop offset="1" stop-color="#4d73ff"/>
    </linearGradient>
  </defs>
  <g class="a26f6f02-85e3-41c3-8f1b-ba2f4f48382b">
    <g class="a92fb166-bf9e-46a4-9b28-601edaebc337">
      <rect class="ec5c5a43-147d-4f07-9e12-822ed440f916" x="-1469.9" y="-219.6" width="10800" height="2050"/>
    </g>
  </g>
  <g>
    <g>
      <path class="ba75cde9-a5d1-49cf-8dfc-5111ed5ac543" d="M48.5,87.3S26.6,130,47,180.7c0,0-3.8,6.1-12.1.5,0,0-7.2,5.5-14.7-6.4,0,0-11.9-.5-13.3-5.7l3.9-6.9s-6.5-3-4.1-7.1,22.9-39.7,28.4-55.5S49.9,75.6,48.5,87.3Z"/>
      <path class="a5254500-1925-4b21-81ac-fc68a5993f1d" d="M35.3,181.6s-4.7-50.2,4.3-75.8C39.6,105.8,27.9,130.4,35.3,181.6Z"/>
      <path class="a5254500-1925-4b21-81ac-fc68a5993f1d" d="M9.3,164.3,37.4,103S17.3,151.7,9.3,164.3Z"/>
      <path class="a5254500-1925-4b21-81ac-fc68a5993f1d" d="M20.2,174.8s5.3-42.9,20.1-77.5C40.3,97.3,26.5,138.6,20.2,174.8Z"/>
    </g>
    <path class="a0251b04-a6e7-4c54-9f79-58b1b90bb4bc" d="M46.7,67.8a43.7,43.7,0,0,1-2.3,26l17.7-2.3L66,76.7Z"/>
    <g>
      <polygon class="a0251b04-a6e7-4c54-9f79-58b1b90bb4bc" points="77.9 119 76.9 130.3 83.6 130.7 89.4 123.4 83.1 120.3 77.9 119"/>
      <g>
        <path class="a0251b04-a6e7-4c54-9f79-58b1b90bb4bc" d="M76.7,119.4s1.2-1.6,4.9-2.2c0,0,3.2-4,5-2.5s-3,5.3-3,5.3,4.9.5,7.5,3.9a2.8,2.8,0,0,1-3,2.3s2.9,1.4-.8,3c0,0,1.3,2.6-2.7,3.1s-6.1.3-4.8-2.4l2.1-1s-2.8-1.5.9-3.3c0,0-3-1.4,0-2.6h5.3"/>
        <line class="a0251b04-a6e7-4c54-9f79-58b1b90bb4bc" x1="81.5" y1="129" x2="87.3" y2="129.2"/>
        <line class="a0251b04-a6e7-4c54-9f79-58b1b90bb4bc" x1="82.7" y1="125.2" x2="88.5" y2="126.3"/>
      </g>
      <g>
        <polygon class="ac55c21f-68b8-4b0b-9803-a89505e43a0a" points="75.9 116.2 79.6 117.2 77.6 131.2 74.6 130.2 54.7 123.2 51.7 102.3 65.3 97.2 64.4 113.3 75.9 116.2"/>
        <polygon class="fb7760a5-abb9-4f42-b514-f51aad00f2d2" points="79.6 117.2 77.6 131.2 74.6 130.2 75.9 116.2 79.6 117.2"/>
      </g>
      <path class="a0251b04-a6e7-4c54-9f79-58b1b90bb4bc" d="M79.4,124.2s3.5-1,4.2-4.2"/>
    </g>
    <g>
      <polygon class="ac55c21f-68b8-4b0b-9803-a89505e43a0a" points="69.7 156.7 69.9 181.8 64.3 199.2 52.4 191.5 55.2 165.9 69.7 156.7"/>
      <g>
        <path class="b3f3bdbe-bfa4-46e9-8056-0893561cb36b" d="M86.4,231.4c-4.8,3.3-27.4-5.5-27.4-5.5l.8-23.9v-1.6l.2-5.8,6.8-9.6v-.3l3.9-7.1s1.1-2.2.1,7.1l-.3,2.6a19.5,19.5,0,0,1-.2,2.3c-1.8,14.9-2,27.1-2,27.1a15.7,15.7,0,0,1,12.7,1.1C88.1,221.4,91.3,228,86.4,231.4Z"/>
        <path class="b3f3bdbe-bfa4-46e9-8056-0893561cb36b" d="M63.6,217.9s4.9-2.4,8.9-1.9"/>
        <path class="ba16891c-fb2c-4b9d-919d-4defc23e0ecf" d="M59.8,202l10.9-14.7.3-2.6L59.9,200.4Z"/>
      </g>
      <path class="ac55c21f-68b8-4b0b-9803-a89505e43a0a" d="M40.1,161.8s7.3,36.9,7.7,45.8c0,0,12.7-14.9,17.2-26.8l.8-18.5s-10.9-7.2-20.3-6.1S40.1,161.8,40.1,161.8Z"/>
      <path class="b3f3bdbe-bfa4-46e9-8056-0893561cb36b" d="M38.1,146s-.9,12.9,2.9,19.9c0,0,2.9-17.3,24.9-.7l4-5.5.5-7.4-13.4.4Z"/>
      <g>
        <g>
          <g>
            <path class="b3f3bdbe-bfa4-46e9-8056-0893561cb36b" d="M87.2,231.5c-1.8,3-7.2,5.5-21.3,3.3a58,58,0,0,0-10.5-1,6.4,6.4,0,0,1-6.2-3.2,6,6,0,0,1-.6-1.9,8.8,8.8,0,0,1,.3-3.9c1-3.2-.1-9.7-1.1-14.5l-.3-1.5c-.6-2.6-1.1-4.3-1.1-4.3s14.2-17.4,17.7-27.7c0,0,2.4-3.4.8,7.3a1.7,1.7,0,0,1-.1.7h0c-.1,1-.2,2.1-.4,3.3h0c-1.2,11.7-1.9,30.6-1.9,30.6s19.1-4.1,24.9,6.3C87.4,225,89,228.5,87.2,231.5Z"/>
            <path class="ba16891c-fb2c-4b9d-919d-4defc23e0ecf" d="M64.8,184.8c-.1,1-.2,2.1-.4,3.3h0a118,118,0,0,1-16.6,22.2l-.3-1.5C51.1,204.5,59.4,194.4,64.8,184.8Z"/>
          </g>
          <path class="b3f3bdbe-bfa4-46e9-8056-0893561cb36b" d="M57.5,223.7s2.1-5.3,6.4-5"/>
        </g>
        <path class="ba16891c-fb2c-4b9d-919d-4defc23e0ecf" d="M87.2,231.5c-1.8,3-7.2,5.5-21.3,3.3a58,58,0,0,0-10.5-1,6.4,6.4,0,0,1-6.2-3.2,21.2,21.2,0,0,0,8,1.3c6.7.1,22.3,3.9,29.4-.1Z"/>
      </g>
    </g>
    <path class="ac55c21f-68b8-4b0b-9803-a89505e43a0a" d="M40.2,95.2c1.8,2.2,2.4,12.6,1.1,28.5s-4.8,23.5-1.9,27.4,25.8,6.8,33.5-2.4c0,0,1.9-32.3-5.6-50.5s-21-15.6-21-15.6Z"/>
    <path class="fb7760a5-abb9-4f42-b514-f51aad00f2d2" d="M69.9,107.8s-8.4-.5-2.9,6.6c0,0-2,3.8,4.5,6.5l.5,3.3s-8.6-3.5-6.9-9.8c0,0-6.2-7,4.2-9.5l1.1,3.2"/>
    <g>
      <g>
        <path class="b1827b90-3aa3-4e4c-87f5-41e2df4082d3" d="M74.4,69.7a13.7,13.7,0,0,0,7.9,4.6s.8.3,1-2.1S73.5,66.5,74.4,69.7Z"/>
        <path class="a0251b04-a6e7-4c54-9f79-58b1b90bb4bc" d="M89.8,66c-1.9.7-3.2-.6-3.8,3q-.4,1.8-.6,2.7a3.6,3.6,0,0,1-.5,1.3,14.8,14.8,0,0,1-10.5-3.9c0,.1.1.2.2.4l.5.7c1.1,1.7,3.5,5,7.1,6.2,0,0,1.3.6.7,1.4s-.6.5-1.4.8c-3,1.2-2.1,4.7-5,7.6s-10,2.1-15.7-.9-13.3-9-16-18.6,4.5-31.3,4.5-31.3L57,29l8.2-1.7L85.1,31s6.9,9.2,4.6,16-4.2,9.5-1.1,13.6S91.7,65.3,89.8,66Z"/>
        <path class="fab2cab9-5fd2-442b-aae8-2269781d1f0d" d="M38.8,15.2S41.5,4.9,56.4,4.8s22.7,5.6,22.7,5.6l-8.4.8s14.2,4,22.6,14.7-3.5,20.7-3.5,20.7a17.4,17.4,0,0,0-.9-7.9,19,19,0,0,0-5.1-6.8s5.6,9.2-2.3,7.3a33.7,33.7,0,0,1-13.1-6.3s3,11.8-8,17.9L59,42.1A32.9,32.9,0,0,1,46.4,58.6v8.3L44.4,77.5s-8.1-.7-17-18.9S22,25,35.7,21.5c0,0-3.4-4.2-11.1.2C24.6,21.7,27.1,13.3,38.8,15.2Z"/>
        <g>
          <g>
            <ellipse class="e911ad43-1541-46a4-b8b9-5018d6b26984" cx="80.5" cy="57.4" rx="5.5" ry="3.2" transform="translate(-1.3 112.9) rotate(-69.7)"/>
            <path class="a84d1c7a-b39d-47d2-9a44-80baa28263b6" d="M83.6,58.5c-.9,2.1-2.5,5.1-5.2,4.5-4.5-2-1.9-10,2.1-11.3s4.2,4.2,3.1,6.8Zm-.1,0c2.3-6.8-3.3-8.9-6-2.2s3.3,8.9,6,2.2Z"/>
          </g>
          <ellipse class="fab2cab9-5fd2-442b-aae8-2269781d1f0d" cx="81.8" cy="58.2" rx="3.6" ry="1.7" transform="matrix(0.35, -0.94, 0.94, 0.35, -1.14, 114.71)"/>
          <ellipse class="e911ad43-1541-46a4-b8b9-5018d6b26984" cx="82.8" cy="55.8" rx="0.9" ry="0.6" transform="translate(1.8 114.1) rotate(-69.7)"/>
          <path class="fab2cab9-5fd2-442b-aae8-2269781d1f0d" d="M86.1,47.3S83,40.9,75.2,49.1A11.5,11.5,0,0,1,85,43.5S88.9,44.2,86.1,47.3Z"/>
        </g>
        <g>
          <path class="a0251b04-a6e7-4c54-9f79-58b1b90bb4bc" d="M48.2,58.4s-1.4-5.2-4.9-6.6-7.4,4.7-4.7,11.3,6.5,9.1,10.7,2.2"/>
          <path class="a0251b04-a6e7-4c54-9f79-58b1b90bb4bc" d="M46.3,60.8s-2.8-8.1-6.4-4"/>
          <g>
            <path class="b9f0f605-8aa5-4adb-a181-271ec110c9d7" d="M44.7,58.1a4.1,4.1,0,0,0-2.1,5"/>
            <path class="b9f32a8a-2cc9-472a-939d-97f79b287b58" d="M44.7,58.1A6.7,6.7,0,0,0,42.6,63a3.7,3.7,0,0,1,.1-2.9,3.9,3.9,0,0,1,2-2Z"/>
          </g>
        </g>
        <g>
          <path class="b9f0f605-8aa5-4adb-a181-271ec110c9d7" d="M75.2,67.4s-.4,2.4-3.4,2.2"/>
          <path class="b9f32a8a-2cc9-472a-939d-97f79b287b58" d="M75.2,67.4a2.3,2.3,0,0,1-3.4,2.2h0a3.6,3.6,0,0,0,2.1-.5c.8-.5.9-1,1.3-1.7Z"/>
        </g>
        <path class="f87733fc-21e1-4602-b868-018fdb867199" d="M85.4,71.7a3.6,3.6,0,0,1-.5,1.3,14.8,14.8,0,0,1-10.5-3.9c0,.1.1.2.2.4l-.3-.6a19.9,19.9,0,0,0,9.1,2.8c2.6-.1,2,0,2,0Z"/>
        <path class="f87733fc-21e1-4602-b868-018fdb867199" d="M74.4,69.4l.2.5-.2-.2Z"/>
        <path class="f87733fc-21e1-4602-b868-018fdb867199" d="M82.9,77.8a11.7,11.7,0,0,1-3.1-1.5,14.4,14.4,0,0,1-5.2-6.4l.5.3c1.1,1.7,3.5,5,7.1,6.2C82.2,76.4,83.5,77,82.9,77.8Z"/>
      </g>
      <g>
        <path class="bf075496-8a6f-420f-9351-f50f8d3b96e0" d="M49.1,54.2l6.5.3s2.5-3,16.5-4.4,15.5,2.3,14.6,8.8a2.4,2.4,0,0,0-2.5,3c.3,3-11.3,4.1-28.4-4.7l-7.6-.5Z"/>
        <path class="e2d52131-6784-41f8-a7d2-c76e0a347fa9" d="M49.1,54.2l6.5.3s2.5-3,16.5-4.4,15.5,2.3,14.6,8.8a2.4,2.4,0,0,0-2.5,3c.3,3-11.3,4.1-28.4-4.7l-7.6-.5Z"/>
      </g>
    </g>
    <g>
      <path class="aa4a9ee6-1272-4d73-928a-8a21947a6fab" d="M72.1,150.9,70,152.1l-2.7,1.3a38.8,38.8,0,0,1-7.9,2.4l-2.6.3h-.2a31.3,31.3,0,0,1-9-1.1l-3-.7a54.2,54.2,0,0,1-5.9-2.1s-2.4-3.1-.9-5.6a44.2,44.2,0,0,0,6.2,1.9l2.9.6a48.6,48.6,0,0,0,9,.8l2.8-.2a33.4,33.4,0,0,0,8-1.6c.9-.2,1.8-.6,2.7-.9L72,146S72.9,147.2,72.1,150.9Z"/>
      <path class="b3f3bdbe-bfa4-46e9-8056-0893561cb36b" d="M47.6,155l-3-.7-.6-5.8,2.9.6Z"/>
      <path class="b3f3bdbe-bfa4-46e9-8056-0893561cb36b" d="M59.4,155.8l-2.6.3h-.2l-.7-6.2,2.8-.2Z"/>
      <path class="b3f3bdbe-bfa4-46e9-8056-0893561cb36b" d="M70,152.1l-2.7,1.3-.6-5.3c.9-.2,1.8-.6,2.7-.9Z"/>
    </g>
    <path class="ac55c21f-68b8-4b0b-9803-a89505e43a0a" d="M64.9,156.5s.1,3.1.9,9.9"/>
    <g>
      <g>
        <path class="a0251b04-a6e7-4c54-9f79-58b1b90bb4bc" d="M72.7,134.1a7.6,7.6,0,0,1,6.2-1.7c3.6.6,5,2.2,6.9,1.6,0,0,1.7,2-1.3,3.4,0,0,2.5,1.2,1.8,2.6a2.7,2.7,0,0,1-1.8,1.4s2.4,3-1.5,4.5c0,0,1.8,2.7-2.2,3.4,0,0,1,3.1-4.2,2.3s-7.8-6.7-7.8-6.7l4-11"/>
        <path class="a0251b04-a6e7-4c54-9f79-58b1b90bb4bc" d="M77.5,134.6s4.3,2.8,7,2.8"/>
      </g>
      <g>
        <path class="ac55c21f-68b8-4b0b-9803-a89505e43a0a" d="M60.9,99.3l-3.6-2-.5-.2-6,21.2c8.3,9.8,14.8,13.3,18.7,14.5a9.5,9.5,0,0,0,4,.7c1.1,5.9-4.6,14.2-4.6,14.2a33.3,33.3,0,0,1-4.5-1.3,65,65,0,0,1-27.5-19.1c-3.1-10.1,2.6-35.2,5.5-38.9l1.7-2.1h.1c2.7-2.8,6.2-4.6,11.5.3S60.9,99.3,60.9,99.3Z"/>
        <path class="fb7760a5-abb9-4f42-b514-f51aad00f2d2" d="M73.5,133.5c1.1,5.9-4.6,14.2-4.6,14.2a33.3,33.3,0,0,1-4.5-1.3c2-3.1,4.8-8.3,5.1-13.6A9.5,9.5,0,0,0,73.5,133.5Z"/>
        <path class="fb7760a5-abb9-4f42-b514-f51aad00f2d2" d="M60.9,99.3l-3.6-2c-.1-4.8-2.5-7-2.5-7a10.4,10.4,0,0,0-10.6-4c2.7-2.8,6.2-4.6,11.5.3S60.9,99.3,60.9,99.3Z"/>
      </g>
    </g>
  </g>
</svg>
