<svg id="ecc9f7ce-4a30-4f6e-92cc-9ae4609d4bb1" data-name="Layer 1" xmlns="http://www.w3.org/2000/svg" xmlns:xlink="http://www.w3.org/1999/xlink" width="137.7" height="212.5" viewBox="0 0 137.7 212.5">
  <defs>
    <style>
      .a25a4b8d-54b0-4222-b374-56b5897ae3c6, .ae334640-6edb-4384-8089-84fba991de07, .bc0960fb-a937-4742-8816-4f80ecdb2ddf {
        fill: none;
      }

      .ff0df620-220c-4b4c-a320-83be61ead4c9 {
        clip-path: url(#b54cbabf-8c18-4b17-be29-9552da35678f);
      }

      .fcbda2b7-1896-4907-a2e3-1e4a52204a95 {
        clip-path: url(#b3b61d69-20d4-47ed-a7ca-83259b46176b);
      }

      .be3e190c-4d29-41f9-bfb9-d6f3e08940e6 {
        fill: url(#a3ce7a16-074f-4145-a656-d6bc81dbfac4);
      }

      .a16c067d-e426-4b74-aba4-0e0c9e647685, .ad76e2a2-a17d-4bd8-ab9b-639e570ff64a {
        fill: #fbd3c7;
      }

      .a16c067d-e426-4b74-aba4-0e0c9e647685 {
        stroke: #453323;
      }

      .a16c067d-e426-4b74-aba4-0e0c9e647685, .a25a4b8d-54b0-4222-b374-56b5897ae3c6, .a6a3d744-a4e9-44b3-b7e4-4a840b8f088a, .ad256d7b-1270-4cd9-9740-161fc0776427, .af9bb223-f63b-4c3a-ab70-a22104dab930, .b9e71972-4a55-4c3a-b84b-bd677027131c, .bc0960fb-a937-4742-8816-4f80ecdb2ddf, .be17c85d-db98-4d1d-bbc8-4cdcddfb4213, .fd9553b6-1728-4aa0-86b0-af6648d4618b {
        stroke-miterlimit: 10;
      }

      .a16c067d-e426-4b74-aba4-0e0c9e647685, .a25a4b8d-54b0-4222-b374-56b5897ae3c6, .ad256d7b-1270-4cd9-9740-161fc0776427, .af9bb223-f63b-4c3a-ab70-a22104dab930, .b9e71972-4a55-4c3a-b84b-bd677027131c, .bc0960fb-a937-4742-8816-4f80ecdb2ddf, .be17c85d-db98-4d1d-bbc8-4cdcddfb4213 {
        stroke-width: 0.5px;
      }

      .fd9553b6-1728-4aa0-86b0-af6648d4618b {
        fill: #f7edeb;
        stroke: #bf9b82;
      }

      .bffc2ad7-28c4-4a51-8e5b-7d198976ebb8 {
        fill: #2d2b21;
      }

      .ed9f8327-cc72-4e6c-838c-97fe6a881a13 {
        fill: #fff;
      }

      .bc7e7e37-4556-450c-96c6-9fe7047e8dc0 {
        fill: #3d2e17;
      }

      .a47e057a-57ac-4eac-8e8b-1afeb327bc3b {
        fill: #453323;
      }

      .ae3085f8-3328-4694-b255-6fc4d5b09319 {
        fill: #ef8d7d;
      }

      .a6a3d744-a4e9-44b3-b7e4-4a840b8f088a {
        fill: #1044a0;
        stroke: #143d84;
        opacity: 0.25;
      }

      .bc0960fb-a937-4742-8816-4f80ecdb2ddf {
        stroke: #700418;
      }

      .af9bb223-f63b-4c3a-ab70-a22104dab930 {
        fill: #d81f25;
      }

      .a25a4b8d-54b0-4222-b374-56b5897ae3c6, .af9bb223-f63b-4c3a-ab70-a22104dab930 {
        stroke: #5b0c12;
      }

      .ff18d008-7ea4-4627-b216-6ac04ab17720 {
        fill: #fecc51;
      }

      .ad256d7b-1270-4cd9-9740-161fc0776427 {
        fill: #fecb4b;
        stroke: #664f1c;
      }

      .a847e553-ed00-4029-90fa-151a7ad86ed5 {
        fill: #4c2c17;
      }

      .be17c85d-db98-4d1d-bbc8-4cdcddfb4213 {
        fill: #6bcdf2;
        stroke: #245666;
      }

      .b9e71972-4a55-4c3a-b84b-bd677027131c {
        fill: #82d1f9;
        stroke: #4693aa;
      }

      .eecc0b7b-a49b-49d5-8fef-dfa492e2d21e {
        fill: #5db5d8;
      }
    </style>
    <clipPath id="b54cbabf-8c18-4b17-be29-9552da35678f">
      <rect class="ae334640-6edb-4384-8089-84fba991de07" x="-1773.6" y="-129.6" width="1280" height="720"/>
    </clipPath>
    <clipPath id="b3b61d69-20d4-47ed-a7ca-83259b46176b">
      <rect class="ae334640-6edb-4384-8089-84fba991de07" x="-1933.6" y="-219.6" width="1600" height="900"/>
    </clipPath>
    <linearGradient id="a3ce7a16-074f-4145-a656-d6bc81dbfac4" x1="3466.36" y1="1933.7" x2="3466.36" y2="-657.21" gradientUnits="userSpaceOnUse">
      <stop offset="0" stop-color="#a4f2ff"/>
      <stop offset="0.25" stop-color="#69e3ff"/>
      <stop offset="0.49" stop-color="#34d5ff"/>
      <stop offset="0.62" stop-color="#1fd0ff"/>
      <stop offset="0.69" stop-color="#25c3ff"/>
      <stop offset="0.83" stop-color="#36a2ff"/>
      <stop offset="1" stop-color="#4d73ff"/>
    </linearGradient>
  </defs>
  <g class="ff0df620-220c-4b4c-a320-83be61ead4c9">
    <g class="fcbda2b7-1896-4907-a2e3-1e4a52204a95">
      <rect class="be3e190c-4d29-41f9-bfb9-d6f3e08940e6" x="-1933.6" y="-219.6" width="10800" height="2050"/>
    </g>
  </g>
  <g>
    <path class="a16c067d-e426-4b74-aba4-0e0c9e647685" d="M71.2,62.1s-2.8,0-8.9,18.3L75,89.3,86.5,74.5Z"/>
    <g>
      <g>
        <path class="fd9553b6-1728-4aa0-86b0-af6648d4618b" d="M95.7,72.6a14.2,14.2,0,0,0,6.9,6.1s.7.4,1.4-1.9S95.5,69.3,95.7,72.6Z"/>
        <path class="a16c067d-e426-4b74-aba4-0e0c9e647685" d="M111.6,72c-2,.3-3.1-1.2-4.4,2.2a22.2,22.2,0,0,1-1.1,2.5,5.7,5.7,0,0,1-.7,1.2,15,15,0,0,1-9.5-5.8.8.8,0,0,0,.1.3l.3.8c.7,1.9,2.5,5.6,5.8,7.5,0,0,1.1.8.3,1.5a2.8,2.8,0,0,1-1.5.5c-3.1.6-3,4.2-6.3,6.4s-10.3.2-15.3-3.9S68,73.8,67.3,63.9,77.9,34.1,77.9,34.1l8.8-4.8H95l18.8,7.6s4.9,10.3,1.4,16.6-6,8.5-3.8,13.1S113.6,71.6,111.6,72Z"/>
        <path class="bffc2ad7-28c4-4a51-8e5b-7d198976ebb8" d="M71.5,12.1s4.7-9.5,19.4-6.7,21.1,10,21.1,10l-8.4-.9s13.1,6.7,19.2,18.9S115.4,53,115.4,53a18.3,18.3,0,0,0,.6-7.9,18.6,18.6,0,0,0-3.7-7.8s3.8,10.2-3.6,6.8a34.4,34.4,0,0,1-11.6-8.7s.6,12.1-11.4,15.9l.3-8.8A32.5,32.5,0,0,1,70.5,56.2l-1.7,8.1-4,10.1s-7.8-2.4-13-22,1.3-33.9,15.5-34.6c0,0-2.5-4.8-10.9-2.1C56.4,15.7,60.4,8,71.5,12.1Z"/>
        <g>
          <g>
            <ellipse class="ed9f8327-cc72-4e6c-838c-97fe6a881a13" cx="104.1" cy="61.7" rx="5.5" ry="3.2" transform="translate(-3 118) rotate(-58.4)"/>
            <path class="bc7e7e37-4556-450c-96c6-9fe7047e8dc0" d="M106.9,63.4c-1.2,1.9-3.4,4.5-5.9,3.4-4.6-3.1,1.5-12.9,6.3-10.2,2.1,1.8.8,4.9-.4,6.8Zm-.1,0c1.1-1.8,2.1-4.8.2-6.3-3.8-1.9-9.1,6.7-5.7,9.3,2.2,1,4.4-1.3,5.5-3Z"/>
          </g>
          <ellipse class="bffc2ad7-28c4-4a51-8e5b-7d198976ebb8" cx="105.3" cy="62.8" rx="3.6" ry="1.7" transform="translate(-3.4 119.4) rotate(-58.4)"/>
          <ellipse class="ed9f8327-cc72-4e6c-838c-97fe6a881a13" cx="106.7" cy="60.6" rx="0.9" ry="0.6" transform="translate(-0.9 119.7) rotate(-58.4)"/>
          <path class="bffc2ad7-28c4-4a51-8e5b-7d198976ebb8" d="M111.6,53s-1.8-7-11-.4c0,0,4.1-5,10.6-3.6C111.2,49,115,50.5,111.6,53Z"/>
        </g>
        <g>
          <path class="a16c067d-e426-4b74-aba4-0e0c9e647685" d="M72.3,56.3s-.4-5.3-3.5-7.4S60.6,52.1,62,59.1s4.5,10.2,10,4.2"/>
          <path class="a16c067d-e426-4b74-aba4-0e0c9e647685" d="M70,58.3s-1.2-8.5-5.6-5.1"/>
          <g>
            <path class="ad76e2a2-a17d-4bd8-ab9b-639e570ff64a" d="M68.9,55.4a4.1,4.1,0,0,0-3.1,4.4"/>
            <path class="a47e057a-57ac-4eac-8e8b-1afeb327bc3b" d="M68.9,55.4a7.1,7.1,0,0,0-3.1,4.4,4.2,4.2,0,0,1,.7-2.8,3.8,3.8,0,0,1,2.4-1.6Z"/>
          </g>
        </g>
        <g>
          <path class="ad76e2a2-a17d-4bd8-ab9b-639e570ff64a" d="M96.9,70.5s-.8,2.2-3.7,1.5"/>
          <path class="a47e057a-57ac-4eac-8e8b-1afeb327bc3b" d="M97,70.5c0,1.8-2.5,2.6-3.8,1.5h0a4.1,4.1,0,0,0,2.2-.1A3.7,3.7,0,0,0,97,70.5Z"/>
        </g>
        <path class="ae3085f8-3328-4694-b255-6fc4d5b09319" d="M106.1,76.7a5.7,5.7,0,0,1-.7,1.2,15,15,0,0,1-9.5-5.8.8.8,0,0,0,.1.3,1.5,1.5,0,0,1-.2-.6,18.8,18.8,0,0,0,8.4,4.5l1.9.4Z"/>
        <path class="ae3085f8-3328-4694-b255-6fc4d5b09319" d="M95.8,72.3a1.8,1.8,0,0,0,.1.5l-.2-.2Z"/>
        <path class="ae3085f8-3328-4694-b255-6fc4d5b09319" d="M102.4,82.2a10.9,10.9,0,0,1-2.7-2.1,13.7,13.7,0,0,1-3.8-7.3l.4.4c.7,1.9,2.5,5.6,5.8,7.5C102.1,80.7,103.2,81.5,102.4,82.2Z"/>
      </g>
      <g>
        <path class="a6a3d744-a4e9-44b3-b7e4-4a840b8f088a" d="M74,52.4,80.3,54s3-2.4,17-1,14.7,5.2,12.6,11.5a2.4,2.4,0,0,0-3,2.4c-.3,3-11.9,1.7-27-10.2l-7.3-2Z"/>
        <path class="bc0960fb-a937-4742-8816-4f80ecdb2ddf" d="M74,52.4,80.3,54s3-2.4,17-1,14.7,5.2,12.6,11.5a2.4,2.4,0,0,0-3,2.4c-.3,3-11.9,1.7-27-10.2l-7.3-2Z"/>
      </g>
    </g>
    <g>
      <g>
        <path class="a16c067d-e426-4b74-aba4-0e0c9e647685" d="M115.9,71.2a7.6,7.6,0,0,1,3.3-5.5c3-2.1,5-1.8,6-3.5,0,0,2.6.2,1.5,3.2,0,0,2.6-.8,3,.7a2.6,2.6,0,0,1-.3,2.3s3.8.5,2.1,4.2c0,0,3.1.8.7,4,0,0,2.9,1.6-1.4,4.6s-10.3.5-10.3.5L115.8,71"/>
        <path class="a16c067d-e426-4b74-aba4-0e0c9e647685" d="M119.7,68.3s5-.9,7-2.9"/>
      </g>
      <path class="af9bb223-f63b-4c3a-ab70-a22104dab930" d="M84.8,96l-.2.4c-1,2-4.9,12.1-2.5,33,0,0-14,12.1-37,4.4s-.6,0-.6,0,3.3-41.5,10-49.5S84.8,96,84.8,96Z"/>
      <g>
        <path class="af9bb223-f63b-4c3a-ab70-a22104dab930" d="M122.6,82.3l-2.7,2.8a95.6,95.6,0,0,1-23.1,16.7c-9.6.9-31.3-6.3-31.3-6.3l-.2.4-1.9,3.8c-15.2-15.6-1.2-23.2-1.2-23.2l1,.3c22.9,6,31.9,9.3,31.9,9.3,8.1-1.6,15.1-8.9,18.5-13l2.2-2.8C122.3,77.3,122.6,82.3,122.6,82.3Z"/>
        <path class="ff18d008-7ea4-4627-b216-6ac04ab17720" d="M65.3,95.9l-1.9,3.8c-15.2-15.6-1.2-23.2-1.2-23.2l1,.3C60.9,78.8,54.3,86,65.3,95.9Z"/>
        <path class="ff18d008-7ea4-4627-b216-6ac04ab17720" d="M122.6,82.3l-2.7,2.8a19.1,19.1,0,0,0-6.3-12l2.2-2.8C122.3,77.3,122.6,82.3,122.6,82.3Z"/>
      </g>
      <g>
        <g>
          <path class="ad256d7b-1270-4cd9-9740-161fc0776427" d="M93.2,141.7c.1.5.2,1.1.3,1.9v.3c.5,5.8-3.8,31.1.7,35.7h0a24.1,24.1,0,0,1,10.9,0c5,1.2,8.8,4.9,9.1,8.5a3.2,3.2,0,0,1-.1,1.7,29.8,29.8,0,0,1-22.7,3.9s-6.3,1.1-9.7-1.3a2.6,2.6,0,0,1-1.2-2.1c-.1-1.9,1.4-4.5,1-9.1a46.5,46.5,0,0,0-2.7-11.5l-1-2.4-1.5-3.4s4-11.3,15.1-24.8C91.4,139.1,92.4,138.7,93.2,141.7Z"/>
          <path class="a847e553-ed00-4029-90fa-151a7ad86ed5" d="M114.2,188.1a3.2,3.2,0,0,1-.1,1.7,29.8,29.8,0,0,1-22.7,3.9s-6.3,1.1-9.7-1.3a2.6,2.6,0,0,1-1.2-2.1c1.4,1,4.6,2.2,11.5,1.4C92,191.7,100.8,194.1,114.2,188.1Z"/>
          <path class="a847e553-ed00-4029-90fa-151a7ad86ed5" d="M93.2,141.7c.1.5.2,1.1.3,1.9v.3c-3.1,5-11.9,19-14.7,25.8l-1-2.4C80.3,162.7,86.4,151.6,93.2,141.7Z"/>
          <path class="a25a4b8d-54b0-4222-b374-56b5897ae3c6" d="M88.7,183.8a20,20,0,0,1,5.9-4.4"/>
        </g>
        <polygon class="af9bb223-f63b-4c3a-ab70-a22104dab930" points="69.9 148.5 75.8 161.8 86.9 162.4 83.9 148.2 76.5 144.7 69.9 148.5"/>
        <path class="af9bb223-f63b-4c3a-ab70-a22104dab930" d="M58.2,146.7s5.6,4.2,19.9,6.2l-2,7.3,27.5-7s1.9-3.1-2-7.8a40.1,40.1,0,0,0-7.9-7.2s-9.1-3-24.3,2S58.2,146.7,58.2,146.7Z"/>
        <g>
          <path class="ad256d7b-1270-4cd9-9740-161fc0776427" d="M104.2,153.8c-.3.5-.6,1.1-1.1,1.8l-.2.3c-3.8,5-25.4,22.2-25.2,29.2h0a28.3,28.3,0,0,1,8.7,8c3.1,4.7,3.3,10.4,1,13.6a5.3,5.3,0,0,1-1.3,1.3,32.6,32.6,0,0,1-20.8-13.5s-5.9-3.8-6.7-8.2a2.7,2.7,0,0,1,.5-2.6c1.3-1.7,4.8-2.1,7.8-6.1s4.3-7.8,5.7-11.8a16.1,16.1,0,0,0,.9-2.6l1.3-3.8s11.3-6.2,29.9-9C104.7,150.4,105.8,150.9,104.2,153.8Z"/>
          <path class="a847e553-ed00-4029-90fa-151a7ad86ed5" d="M87.4,206.7a5.3,5.3,0,0,1-1.3,1.3,32.6,32.6,0,0,1-20.8-13.5s-5.9-3.8-6.7-8.2a2.7,2.7,0,0,1,.5-2.6c.4,1.9,2.1,5.2,8.1,9.5C67.2,193.2,72.4,201.7,87.4,206.7Z"/>
          <path class="a847e553-ed00-4029-90fa-151a7ad86ed5" d="M104.2,153.8c-.3.5-.6,1.1-1.1,1.8l-.2.3c-6.1,1.7-23.1,6.5-30.3,9.9a16.1,16.1,0,0,0,.9-2.6A316.3,316.3,0,0,1,104.2,153.8Z"/>
          <path class="a25a4b8d-54b0-4222-b374-56b5897ae3c6" d="M70.3,184.5a19.4,19.4,0,0,1,7.8.8"/>
        </g>
        <path class="ad256d7b-1270-4cd9-9740-161fc0776427" d="M46.8,136.1s.2,8.2,14.7,12.6c0,0-1.2-6.3,14.9-8.7s20.2.4,20.2.4-7.2-6.5-13.9-9.4C82.7,131,57.4,139.6,46.8,136.1Z"/>
        <g>
          <path class="be17c85d-db98-4d1d-bbc8-4cdcddfb4213" d="M81.9,133.2a15.9,15.9,0,0,1-2.8,2,32,32,0,0,1-5.5,2.6,22.6,22.6,0,0,1-3.1,1l-3.1.5a48.9,48.9,0,0,1-10.8.1l-3.1-.3a58.9,58.9,0,0,1-6.6-1.2,10.5,10.5,0,0,1-.2-5.4,51.2,51.2,0,0,0,6.3,1l3.1.3a58.4,58.4,0,0,0,10.5-.3l3.1-.5a36.3,36.3,0,0,0,8.2-2.9,18.5,18.5,0,0,0,2.7-1.7,10.9,10.9,0,0,0,1.7-1.5l1,4.1S83.4,131.8,81.9,133.2Z"/>
          <path class="ad256d7b-1270-4cd9-9740-161fc0776427" d="M56.6,139.4l-3.1-.3-.5-5.6,3.1.3Z"/>
          <path class="ad256d7b-1270-4cd9-9740-161fc0776427" d="M70.5,138.8l-3.1.5-.8-5.8,3.1-.5Z"/>
          <path class="ad256d7b-1270-4cd9-9740-161fc0776427" d="M81.9,133.2a15.9,15.9,0,0,1-2.8,2l-1.2-5.1a18.5,18.5,0,0,0,2.7-1.7Z"/>
        </g>
      </g>
      <path class="ff18d008-7ea4-4627-b216-6ac04ab17720" d="M81.8,105.7l-.2,2.6s-4.5.3-4.8,4,2.1,4.8,2.1,4.8-2.9,2.5.4,3.4l1.9.2-.2,2.1s-7,.2-4.8-5a6.7,6.7,0,0,1-1.1-7.8A7.4,7.4,0,0,1,81.8,105.7Z"/>
      <g>
        <path class="b9e71972-4a55-4c3a-b84b-bd677027131c" d="M63.9,77.3s-7-1.2-8.7,15.2-10.1,48.3-13.8,53.3c0,0-12.4,7-15.3-5l-3.9,3.9A27.6,27.6,0,0,1,6.4,117.2l17.8-11s-9.7-9.1,2.5-26.9c0,0,3,4.7,6.4,5.7,0,0-2.1-10.9,9.3-15.7,0,0,.1,11.1,10.3,10.4,0,0,2.4.8,5.1-1.7S63.9,77.3,63.9,77.3Z"/>
        <path class="eecc0b7b-a49b-49d5-8fef-dfa492e2d21e" d="M24.4,141.9A207.2,207.2,0,0,0,37,122.7S33.1,136.1,24.4,141.9Z"/>
        <path class="eecc0b7b-a49b-49d5-8fef-dfa492e2d21e" d="M10.1,133.5s33.1-27.3,40.7-43.4C50.8,90.1,40.9,113.1,10.1,133.5Z"/>
        <path class="eecc0b7b-a49b-49d5-8fef-dfa492e2d21e" d="M23.4,106s23.1-10.3,34-25.6C57.4,80.4,45.2,99.1,23.4,106Z"/>
        <path class="eecc0b7b-a49b-49d5-8fef-dfa492e2d21e" d="M31.4,84.4s13.1,4.7,24.3-4.7A20.6,20.6,0,0,1,31.4,84.4Z"/>
      </g>
    </g>
  </g>
</svg>
