<svg id="bfc2f15a-32ee-4bd2-ad18-fa3eaf07d742" data-name="Layer 1" xmlns="http://www.w3.org/2000/svg" xmlns:xlink="http://www.w3.org/1999/xlink" width="97.7" height="238.6" viewBox="0 0 97.7 238.6">
  <defs>
    <style>
      .a9055571-1eac-4a99-b84e-9a04deca430b, .e8215b75-2de6-4aad-9d96-2729e67c57e4 {
        fill: none;
      }

      .e52f159c-c334-49ec-993c-989d2b00241f {
        clip-path: url(#aff71cbc-de81-45b3-8ab0-f9b41916284f);
      }

      .f3b733fc-5372-4251-87ee-d064622283e1 {
        clip-path: url(#fdaf971f-781c-4ee1-87b8-ad811c941295);
      }

      .a1264b20-aee5-4113-abb0-310339e7439c {
        fill: url(#fb7beb94-3a36-43f4-9ed3-113e3e079a68);
      }

      .b5bde47e-65f3-497c-ab60-8456f4c3fc4a {
        fill: #82d1f9;
        stroke: #4693aa;
      }

      .a09ee38f-4ae6-4500-b74e-cb5ac4fe4743, .b423ecbc-e607-4ae3-8ada-316cbc4677a3, .b5bde47e-65f3-497c-ab60-8456f4c3fc4a, .bc2ebb26-d1e3-4309-8760-f33fa921c514, .e5784e27-e0ad-44a7-9808-42c85cc24a3b, .e8215b75-2de6-4aad-9d96-2729e67c57e4, .ef5ccb9a-f2bb-4f22-8672-1b8a2b2d424d, .f71559b4-58d6-4cc5-9b3f-1931e930464c {
        stroke-miterlimit: 10;
      }

      .a09ee38f-4ae6-4500-b74e-cb5ac4fe4743, .b423ecbc-e607-4ae3-8ada-316cbc4677a3, .b5bde47e-65f3-497c-ab60-8456f4c3fc4a, .bc2ebb26-d1e3-4309-8760-f33fa921c514, .e8215b75-2de6-4aad-9d96-2729e67c57e4, .f71559b4-58d6-4cc5-9b3f-1931e930464c {
        stroke-width: 0.5px;
      }

      .ebda421f-f9a9-4747-8059-6eafeb071177 {
        fill: #5db5d8;
      }

      .b423ecbc-e607-4ae3-8ada-316cbc4677a3, .bb73a409-36d1-446a-b69d-bd296cea0be2 {
        fill: #fbd3c7;
      }

      .b423ecbc-e607-4ae3-8ada-316cbc4677a3 {
        stroke: #453323;
      }

      .a09ee38f-4ae6-4500-b74e-cb5ac4fe4743 {
        fill: #d81f25;
        stroke: #5b0c12;
      }

      .a12c6ea2-e618-4012-8dcd-a4aed9509d4c {
        fill: #fecc51;
      }

      .f71559b4-58d6-4cc5-9b3f-1931e930464c {
        fill: #fecb4b;
        stroke: #664f1c;
      }

      .a935fb68-6b09-4854-b31e-efb6e374580e {
        fill: #4c2c17;
      }

      .ef5ccb9a-f2bb-4f22-8672-1b8a2b2d424d {
        fill: #f7edeb;
        stroke: #bf9b82;
      }

      .b4dc9d58-ff53-4152-9f5f-f8fff6e97daf {
        fill: #2d2b21;
      }

      .f8061eaa-d719-4486-ae0d-6beb338ac1ea {
        fill: #fff;
      }

      .e45df262-c8c6-495c-9345-5dbcd6e7268d {
        fill: #3d2e17;
      }

      .a02e834d-14f7-40d4-a149-cf6386b99084 {
        fill: #453323;
      }

      .a0432b23-8874-4f5a-b018-5b7a06c58fff {
        fill: #ef8d7d;
      }

      .e5784e27-e0ad-44a7-9808-42c85cc24a3b {
        fill: #1044a0;
        stroke: #143d84;
        opacity: 0.25;
      }

      .e8215b75-2de6-4aad-9d96-2729e67c57e4 {
        stroke: #700418;
      }

      .bc2ebb26-d1e3-4309-8760-f33fa921c514 {
        fill: #6bcdf2;
        stroke: #245666;
      }
    </style>
    <clipPath id="aff71cbc-de81-45b3-8ab0-f9b41916284f">
      <rect class="a9055571-1eac-4a99-b84e-9a04deca430b" x="-2128.3" y="-129.6" width="1280" height="720"/>
    </clipPath>
    <clipPath id="fdaf971f-781c-4ee1-87b8-ad811c941295">
      <rect class="a9055571-1eac-4a99-b84e-9a04deca430b" x="-2288.3" y="-219.6" width="1600" height="900"/>
    </clipPath>
    <linearGradient id="fb7beb94-3a36-43f4-9ed3-113e3e079a68" x1="3111.75" y1="1933.7" x2="3111.75" y2="-657.21" gradientUnits="userSpaceOnUse">
      <stop offset="0" stop-color="#a4f2ff"/>
      <stop offset="0.25" stop-color="#69e3ff"/>
      <stop offset="0.49" stop-color="#34d5ff"/>
      <stop offset="0.62" stop-color="#1fd0ff"/>
      <stop offset="0.69" stop-color="#25c3ff"/>
      <stop offset="0.83" stop-color="#36a2ff"/>
      <stop offset="1" stop-color="#4d73ff"/>
    </linearGradient>
  </defs>
  <g class="e52f159c-c334-49ec-993c-989d2b00241f">
    <g class="f3b733fc-5372-4251-87ee-d064622283e1">
      <rect class="a1264b20-aee5-4113-abb0-310339e7439c" x="-2288.3" y="-219.6" width="10800" height="2050"/>
    </g>
  </g>
  <g>
    <g>
      <path class="b5bde47e-65f3-497c-ab60-8456f4c3fc4a" d="M45.4,86.4s-21.9,42.7-1.5,93.4c0,0-3.8,6.1-12.1.5,0,0-7.2,5.5-14.7-6.4,0,0-11.9-.5-13.3-5.8l3.9-6.9s-6.5-3-4.1-7S26.5,114.5,32,98.7,46.8,74.7,45.4,86.4Z"/>
      <path class="ebda421f-f9a9-4747-8059-6eafeb071177" d="M32.2,180.7s-4.7-50.2,4.3-75.8C36.5,104.9,24.8,129.5,32.2,180.7Z"/>
      <path class="ebda421f-f9a9-4747-8059-6eafeb071177" d="M6.2,163.4l28.1-61.3S14.2,150.7,6.2,163.4Z"/>
      <path class="ebda421f-f9a9-4747-8059-6eafeb071177" d="M17.1,173.9S22.4,131,37.3,96.3C37.3,96.3,23.4,137.6,17.1,173.9Z"/>
    </g>
    <path class="b423ecbc-e607-4ae3-8ada-316cbc4677a3" d="M43.6,66.9a43.7,43.7,0,0,1-2.3,26L59,90.6l3.9-14.9Z"/>
    <g>
      <polygon class="b423ecbc-e607-4ae3-8ada-316cbc4677a3" points="74.8 118.1 73.9 129.3 80.5 129.8 86.3 122.5 80 119.3 74.8 118.1"/>
      <g>
        <path class="b423ecbc-e607-4ae3-8ada-316cbc4677a3" d="M73.6,118.4s1.2-1.6,4.9-2.1c0,0,3.3-4,5-2.6s-3,5.3-3,5.3,4.9.5,7.5,3.9a2.9,2.9,0,0,1-3,2.4s2.9,1.3-.8,3c0,0,1.3,2.6-2.7,3.1s-6.1.3-4.8-2.4l2.1-1.1s-2.8-1.4.9-3.2c0,0-3-1.4,0-2.7H85"/>
        <line class="b423ecbc-e607-4ae3-8ada-316cbc4677a3" x1="78.4" y1="128.1" x2="84.2" y2="128.3"/>
        <line class="b423ecbc-e607-4ae3-8ada-316cbc4677a3" x1="79.6" y1="124.3" x2="85.4" y2="125.4"/>
      </g>
      <g>
        <polygon class="a09ee38f-4ae6-4500-b74e-cb5ac4fe4743" points="72.8 115.3 76.5 116.2 74.5 130.3 71.5 129.3 51.6 122.2 48.6 101.4 62.2 96.2 61.3 112.4 72.8 115.3"/>
        <polygon class="a12c6ea2-e618-4012-8dcd-a4aed9509d4c" points="76.5 116.2 74.5 130.3 71.5 129.3 72.8 115.3 76.5 116.2"/>
      </g>
      <path class="b423ecbc-e607-4ae3-8ada-316cbc4677a3" d="M76.3,123.3s3.5-1,4.2-4.3"/>
    </g>
    <g>
      <polygon class="a09ee38f-4ae6-4500-b74e-cb5ac4fe4743" points="66.6 155.8 66.8 180.9 61.2 198.3 49.3 190.6 52.1 164.9 66.6 155.8"/>
      <g>
        <path class="f71559b4-58d6-4cc5-9b3f-1931e930464c" d="M83.4,230.4c-4.9,3.3-27.5-5.4-27.5-5.4l.9-23.9v-1.6l.2-5.8,6.8-9.7v-.3l4-7s1-2.2,0,7.1c-.1.8-.2,1.6-.3,2.6a19.5,19.5,0,0,1-.2,2.3c-1.8,14.9-2,27.1-2,27.1a15.7,15.7,0,0,1,12.7,1.1C85.1,220.4,88.2,227.1,83.4,230.4Z"/>
        <path class="f71559b4-58d6-4cc5-9b3f-1931e930464c" d="M60.6,216.9s4.8-2.3,8.8-1.8"/>
        <path class="a935fb68-6b09-4854-b31e-efb6e374580e" d="M56.8,201.1l10.8-14.7c.1-1,.2-1.8.3-2.6L56.8,199.5Z"/>
      </g>
      <path class="a09ee38f-4ae6-4500-b74e-cb5ac4fe4743" d="M37,160.9s7.3,36.9,7.7,45.8c0,0,12.7-14.9,17.2-26.9l.8-18.4s-10.9-7.2-20.3-6.2S37,160.9,37,160.9Z"/>
      <path class="f71559b4-58d6-4cc5-9b3f-1931e930464c" d="M35,145.1s-.9,12.9,2.9,19.8c0,0,2.9-17.2,24.9-.6l4-5.5.5-7.5-13.4.5Z"/>
      <g>
        <g>
          <g>
            <path class="f71559b4-58d6-4cc5-9b3f-1931e930464c" d="M84.1,230.6c-1.8,3-7.2,5.4-21.3,3.2a63,63,0,0,0-10.5-.9,6.4,6.4,0,0,1-6.2-3.2,5.9,5.9,0,0,1-.6-2,8.5,8.5,0,0,1,.3-3.8c1-3.2-.1-9.7-1.1-14.5l-.3-1.5c-.6-2.6-1.1-4.4-1.1-4.4S57.5,186.2,61,175.9c0,0,2.4-3.4.8,7.3a2,2,0,0,1-.1.7h0l-.3,3.2h-.1c-1.2,11.7-1.9,30.6-1.9,30.6s19.1-4,24.9,6.4C84.3,224.1,85.9,227.6,84.1,230.6Z"/>
            <path class="a935fb68-6b09-4854-b31e-efb6e374580e" d="M61.7,183.9l-.3,3.2h-.1a121.3,121.3,0,0,1-16.6,22.2l-.3-1.5C48,203.6,56.3,193.5,61.7,183.9Z"/>
          </g>
          <path class="f71559b4-58d6-4cc5-9b3f-1931e930464c" d="M54.4,222.8s2.1-5.3,6.4-5"/>
        </g>
        <path class="a935fb68-6b09-4854-b31e-efb6e374580e" d="M84.1,230.6c-1.8,3-7.2,5.4-21.3,3.2a63,63,0,0,0-10.5-.9,6.4,6.4,0,0,1-6.2-3.2,26.3,26.3,0,0,0,8,1.3c6.7.1,22.3,3.9,29.4-.1Z"/>
      </g>
    </g>
    <path class="a09ee38f-4ae6-4500-b74e-cb5ac4fe4743" d="M37.1,94.3c1.8,2.2,2.4,12.5,1.1,28.5s-4.8,23.5-1.9,27.4,25.8,6.8,33.5-2.4c0,0,1.9-32.3-5.5-50.5S43.2,81.7,43.2,81.7Z"/>
    <path class="a12c6ea2-e618-4012-8dcd-a4aed9509d4c" d="M66.8,106.9s-8.4-.5-2.9,6.6c0,0-2,3.8,4.5,6.5l.5,3.3s-8.6-3.6-6.9-9.8c0,0-6.2-7,4.2-9.5l1.1,3.1"/>
    <g>
      <g>
        <path class="ef5ccb9a-f2bb-4f22-8672-1b8a2b2d424d" d="M71.3,68.8a13.7,13.7,0,0,0,7.9,4.6s.8.3,1.1-2.1S70.5,65.5,71.3,68.8Z"/>
        <path class="b423ecbc-e607-4ae3-8ada-316cbc4677a3" d="M86.7,65c-1.9.8-3.2-.5-3.8,3a18.1,18.1,0,0,1-.6,2.8,3.6,3.6,0,0,1-.5,1.3,15.3,15.3,0,0,1-10.5-3.9c.1,0,.1.1.2.3l.5.8c1.1,1.7,3.6,4.9,7.1,6.2,0,0,1.3.6.7,1.4a3.9,3.9,0,0,1-1.4.8c-3,1.2-2.1,4.7-5,7.5s-10,2.2-15.7-.9-13.3-8.9-16-18.5,4.5-31.3,4.5-31.3l7.7-6.4,8.2-1.7L82,30.1s6.9,9.2,4.6,16-4.2,9.5-1.1,13.6S88.6,64.3,86.7,65Z"/>
        <path class="b4dc9d58-ff53-4152-9f5f-f8fff6e97daf" d="M35.7,14.2S38.4,4,53.3,3.8,76,9.5,76,9.5l-8.4.8s14.2,4,22.6,14.7-3.5,20.7-3.5,20.7a17.4,17.4,0,0,0-.9-7.9,18.8,18.8,0,0,0-5.1-6.9s5.7,9.2-2.3,7.3A32.8,32.8,0,0,1,65.3,32s3,11.8-8,17.8l-1.4-8.6A32.9,32.9,0,0,1,43.3,57.7v8.2L41.3,76.6s-8.1-.8-17-19-5.4-33.5,8.3-37c0,0-3.4-4.2-11.1.1C21.5,20.7,24,12.4,35.7,14.2Z"/>
        <g>
          <g>
            <ellipse class="f8061eaa-d719-4486-ae0d-6beb338ac1ea" cx="77.4" cy="56.5" rx="5.5" ry="3.2" transform="matrix(0.35, -0.94, 0.94, 0.35, -2.42, 109.43)"/>
            <path class="e45df262-c8c6-495c-9345-5dbcd6e7268d" d="M80.5,57.6c-.9,2.1-2.5,5-5.2,4.5-4.5-2.1-1.9-10,2.1-11.3s4.2,4.2,3.1,6.8Zm-.1,0c.7-2,1.1-5.2-1.1-6.3-4.1-1-7.6,8.4-3.8,10.3s4.1-2.1,4.9-4Z"/>
          </g>
          <ellipse class="b4dc9d58-ff53-4152-9f5f-f8fff6e97daf" cx="78.7" cy="57.2" rx="3.6" ry="1.7" transform="translate(-2.3 111.2) rotate(-69.7)"/>
          <ellipse class="f8061eaa-d719-4486-ae0d-6beb338ac1ea" cx="79.7" cy="54.8" rx="0.9" ry="0.6" transform="translate(0.6 110.6) rotate(-69.7)"/>
          <path class="b4dc9d58-ff53-4152-9f5f-f8fff6e97daf" d="M83,46.4s-3.1-6.5-10.9,1.8a11.5,11.5,0,0,1,9.8-5.6S85.8,43.3,83,46.4Z"/>
        </g>
        <g>
          <path class="b423ecbc-e607-4ae3-8ada-316cbc4677a3" d="M45.1,57.4s-1.4-5.1-4.9-6.6-7.3,4.7-4.7,11.3,6.5,9.1,10.7,2.2"/>
          <path class="b423ecbc-e607-4ae3-8ada-316cbc4677a3" d="M43.2,59.8s-2.8-8.1-6.4-3.9"/>
          <g>
            <path class="bb73a409-36d1-446a-b69d-bd296cea0be2" d="M41.6,57.2a4,4,0,0,0-2.1,4.9"/>
            <path class="a02e834d-14f7-40d4-a149-cf6386b99084" d="M41.6,57.2a6.5,6.5,0,0,0-2.1,4.9,3.7,3.7,0,0,1,.1-2.9,3.9,3.9,0,0,1,2-2Z"/>
          </g>
        </g>
        <g>
          <path class="bb73a409-36d1-446a-b69d-bd296cea0be2" d="M72.1,66.5s-.4,2.3-3.4,2.2"/>
          <path class="a02e834d-14f7-40d4-a149-cf6386b99084" d="M72.1,66.5c.3,1.7-1.9,3-3.4,2.2h.1a2.8,2.8,0,0,0,2-.4,3.4,3.4,0,0,0,1.3-1.7Z"/>
        </g>
        <path class="a0432b23-8874-4f5a-b018-5b7a06c58fff" d="M82.3,70.8a3.6,3.6,0,0,1-.5,1.3,15.3,15.3,0,0,1-10.5-3.9c.1,0,.1.1.2.3l-.3-.5a19.6,19.6,0,0,0,9.1,2.7h2Z"/>
        <path class="a0432b23-8874-4f5a-b018-5b7a06c58fff" d="M71.3,68.5l.2.5-.2-.2Z"/>
        <path class="a0432b23-8874-4f5a-b018-5b7a06c58fff" d="M79.8,76.9a11.7,11.7,0,0,1-3.1-1.5A15,15,0,0,1,71.5,69l.5.3c1.1,1.7,3.6,4.9,7.1,6.2C79.1,75.5,80.4,76.1,79.8,76.9Z"/>
      </g>
      <g>
        <path class="e5784e27-e0ad-44a7-9808-42c85cc24a3b" d="M46,53.3l6.5.2S55,50.6,69,49.2,84.5,51.5,83.6,58a2.4,2.4,0,0,0-2.5,3c.3,3-11.2,4-28.4-4.7l-7.6-.5Z"/>
        <path class="e8215b75-2de6-4aad-9d96-2729e67c57e4" d="M46,53.3l6.5.2S55,50.6,69,49.2,84.5,51.5,83.6,58a2.4,2.4,0,0,0-2.5,3c.3,3-11.2,4-28.4-4.7l-7.6-.5Z"/>
      </g>
    </g>
    <g>
      <path class="bc2ebb26-d1e3-4309-8760-f33fa921c514" d="M69,149.9a18.3,18.3,0,0,1-2.1,1.3l-2.7,1.2a33.3,33.3,0,0,1-7.9,2.5,11.5,11.5,0,0,1-2.6.3h-.2a35.2,35.2,0,0,1-9-1.1l-2.9-.8a59.3,59.3,0,0,1-5.9-2s-2.5-3.1-1-5.7a36.5,36.5,0,0,0,6.2,2l2.9.6a41.6,41.6,0,0,0,9,.7h2.8a33.4,33.4,0,0,0,8-1.6l2.7-1,2.6-1.1S69.8,146.3,69,149.9Z"/>
      <path class="f71559b4-58d6-4cc5-9b3f-1931e930464c" d="M44.5,154.1l-2.9-.8-.7-5.7,2.9.6Z"/>
      <path class="f71559b4-58d6-4cc5-9b3f-1931e930464c" d="M56.3,154.9a11.5,11.5,0,0,1-2.6.3h-.2l-.7-6.3h2.8Z"/>
      <path class="f71559b4-58d6-4cc5-9b3f-1931e930464c" d="M66.9,151.2l-2.7,1.2-.6-5.2,2.7-1Z"/>
    </g>
    <path class="a09ee38f-4ae6-4500-b74e-cb5ac4fe4743" d="M61.8,155.6s.1,3.1.9,9.8"/>
    <g>
      <g>
        <path class="b423ecbc-e607-4ae3-8ada-316cbc4677a3" d="M69.6,133.1a8,8,0,0,1,6.2-1.7c3.6.7,5,2.3,6.9,1.7,0,0,1.7,1.9-1.2,3.3,0,0,2.4,1.3,1.7,2.7a2.7,2.7,0,0,1-1.8,1.4s2.4,3-1.5,4.5c0,0,1.8,2.7-2.2,3.4,0,0,1,3.1-4.2,2.3s-7.8-6.8-7.8-6.8l4-10.9"/>
        <path class="b423ecbc-e607-4ae3-8ada-316cbc4677a3" d="M74.4,133.7s4.3,2.8,7.1,2.7"/>
      </g>
      <g>
        <path class="a09ee38f-4ae6-4500-b74e-cb5ac4fe4743" d="M57.8,98.4l-3.6-2-.5-.2-6,21.1c8.3,9.8,14.8,13.4,18.7,14.6a12.3,12.3,0,0,0,4,.7c1.1,5.9-4.6,14.2-4.6,14.2l-4.5-1.3a65,65,0,0,1-27.5-19.1c-3.1-10.1,2.6-35.2,5.5-39a17.1,17.1,0,0,1,1.8-2h0c2.7-2.9,6.2-4.6,11.6.3S57.8,98.4,57.8,98.4Z"/>
        <path class="a12c6ea2-e618-4012-8dcd-a4aed9509d4c" d="M70.4,132.6c1.1,5.9-4.6,14.2-4.6,14.2l-4.5-1.3c2-3.1,4.8-8.3,5.1-13.6A12.3,12.3,0,0,0,70.4,132.6Z"/>
        <path class="a12c6ea2-e618-4012-8dcd-a4aed9509d4c" d="M57.8,98.4l-3.6-2c-.1-4.9-2.5-7.1-2.5-7.1a10.3,10.3,0,0,0-10.6-3.9c2.7-2.9,6.2-4.6,11.6.3S57.8,98.4,57.8,98.4Z"/>
      </g>
    </g>
  </g>
</svg>
