<svg id="b22cdac6-cebb-42e7-aafb-22c1157ae614" data-name="Layer 1" xmlns="http://www.w3.org/2000/svg" xmlns:xlink="http://www.w3.org/1999/xlink" width="138.3" height="195" viewBox="0 0 138.3 195">
  <defs>
    <style>
      .e40c5805-fdb8-487a-b93c-fa2c03a8cd5c, .f929369a-f0ec-4ffc-a532-3bd8ffe4322c {
        fill: none;
      }

      .f0e15566-8421-4988-9ff4-c067683b4eda {
        clip-path: url(#eae50270-2e03-45c2-b9d4-ad37580bf377);
      }

      .b5987d7b-3d00-4c4b-881c-3377efa60ab9 {
        clip-path: url(#a57c1700-7be0-4dc7-8576-10c0a561fb36);
      }

      .a9e685da-9fe7-4bc5-9d5f-390d7d5ff8e5 {
        fill: url(#fb37b102-bf63-459e-a367-62902ed3f393);
      }

      .b00d3b73-d327-4a1c-8075-8fba67084781, .bb611431-c00b-4650-9c05-8d096281f66c {
        fill: #fbd3c7;
      }

      .bb611431-c00b-4650-9c05-8d096281f66c {
        stroke: #453323;
      }

      .a9337324-8b54-453f-94a3-94d02930cb5c, .b859206a-7780-467d-bbcb-2be26b3cd72e, .bb611431-c00b-4650-9c05-8d096281f66c, .be0f5877-e409-49d1-ad35-b9b7b1e5bf3b, .be381193-5aa4-44cc-9419-657026406e98, .e0c695c6-720b-439e-9436-9f6b88bf593f, .f464a37d-8a4c-4010-9cf2-231ead17f23a, .f929369a-f0ec-4ffc-a532-3bd8ffe4322c {
        stroke-miterlimit: 10;
      }

      .b859206a-7780-467d-bbcb-2be26b3cd72e, .bb611431-c00b-4650-9c05-8d096281f66c, .be0f5877-e409-49d1-ad35-b9b7b1e5bf3b, .be381193-5aa4-44cc-9419-657026406e98, .e0c695c6-720b-439e-9436-9f6b88bf593f, .f929369a-f0ec-4ffc-a532-3bd8ffe4322c {
        stroke-width: 0.5px;
      }

      .e0c695c6-720b-439e-9436-9f6b88bf593f {
        fill: #d81f25;
        stroke: #5b0c12;
      }

      .be0f5877-e409-49d1-ad35-b9b7b1e5bf3b {
        fill: #fecb4b;
        stroke: #664f1c;
      }

      .a9337324-8b54-453f-94a3-94d02930cb5c {
        fill: #f7edeb;
        stroke: #bf9b82;
      }

      .be068348-2650-4d44-ad13-5a6b0475a571 {
        fill: #2d2b21;
      }

      .a9d95327-7704-4611-9d98-0e1006c44ac3 {
        fill: #fff;
      }

      .a29f2ebd-a1fe-4905-a7cb-985e14bcf765 {
        fill: #3d2e17;
      }

      .b468b94e-e57f-4ad5-87e9-2335109600c3 {
        fill: #453323;
      }

      .ae8e6188-b974-4bc1-a881-0fbe252179da {
        fill: #ef8d7d;
      }

      .f464a37d-8a4c-4010-9cf2-231ead17f23a {
        fill: #1044a0;
        stroke: #143d84;
        opacity: 0.25;
      }

      .f929369a-f0ec-4ffc-a532-3bd8ffe4322c {
        stroke: #700418;
      }

      .beaa639f-db76-4761-a06c-ccb4f6bedcb2 {
        fill: #4c2c17;
      }

      .b859206a-7780-467d-bbcb-2be26b3cd72e {
        fill: #6bcdf2;
        stroke: #245666;
      }

      .be381193-5aa4-44cc-9419-657026406e98 {
        fill: #82d1f9;
        stroke: #4693aa;
      }

      .bfd044d0-c969-466a-80d3-16bdbdefbe33 {
        fill: #5db5d8;
      }

      .fea46887-de4d-4a93-bf29-065afae2ecfa {
        fill: #fecc51;
      }
    </style>
    <clipPath id="eae50270-2e03-45c2-b9d4-ad37580bf377">
      <rect class="e40c5805-fdb8-487a-b93c-fa2c03a8cd5c" x="-1430.2" y="-129.6" width="1280" height="720"/>
    </clipPath>
    <clipPath id="a57c1700-7be0-4dc7-8576-10c0a561fb36">
      <rect class="e40c5805-fdb8-487a-b93c-fa2c03a8cd5c" x="-1590.2" y="-219.6" width="1600" height="900"/>
    </clipPath>
    <linearGradient id="fb37b102-bf63-459e-a367-62902ed3f393" x1="3809.79" y1="1933.7" x2="3809.79" y2="-657.21" gradientUnits="userSpaceOnUse">
      <stop offset="0" stop-color="#a4f2ff"/>
      <stop offset="0.25" stop-color="#69e3ff"/>
      <stop offset="0.49" stop-color="#34d5ff"/>
      <stop offset="0.62" stop-color="#1fd0ff"/>
      <stop offset="0.69" stop-color="#25c3ff"/>
      <stop offset="0.83" stop-color="#36a2ff"/>
      <stop offset="1" stop-color="#4d73ff"/>
    </linearGradient>
  </defs>
  <g class="f0e15566-8421-4988-9ff4-c067683b4eda">
    <g class="b5987d7b-3d00-4c4b-881c-3377efa60ab9">
      <rect class="a9e685da-9fe7-4bc5-9d5f-390d7d5ff8e5" x="-1590.2" y="-219.6" width="10800" height="2050"/>
    </g>
  </g>
  <g>
    <g>
      <g>
        <path class="bb611431-c00b-4650-9c05-8d096281f66c" d="M35.5,86.7a15.1,15.1,0,0,0-2.3,7.2c0,3.7-3.8,5.4-4.7,2.4s.5-5.2-1.8-4.9-2.9,4.3-2.5,7.3.1,4.3-1.9,4-3-1.2-3.9-4.6c0,0-3,.7-3.3-3.5,0,0-3,.3-2.2-4.4,0,0-1.3-1.1,1.4-5.7S31.6,75,31.6,75Z"/>
        <path class="bb611431-c00b-4650-9c05-8d096281f66c" d="M18.6,99.2a10.6,10.6,0,0,1,.8-7.3"/>
        <path class="bb611431-c00b-4650-9c05-8d096281f66c" d="M15.1,95.4s-.5-3.9,1.6-6.7"/>
        <path class="bb611431-c00b-4650-9c05-8d096281f66c" d="M12.8,91.2s-.1-4.1,2.5-5.8"/>
      </g>
      <g>
        <path class="e0c695c6-720b-439e-9436-9f6b88bf593f" d="M81.6,87.9l-1.7-.5a102.2,102.2,0,0,0-27.1-2.9c-7.1.2-11.4.9-14.1,1.7s-4.1,2-4.1,2L31.2,74.4l4.5-.8c8-1.3,25-4,34.9-3.6a33.4,33.4,0,0,1,8.3,1c5.6,1.4,6.4,4.4,7.3,8.5C87.5,85.1,81.6,87.9,81.6,87.9Z"/>
        <path class="be0f5877-e409-49d1-ad35-b9b7b1e5bf3b" d="M38.7,86.2c-3.6,1-4.1,2-4.1,2L31.2,74.4l4.5-.8A33.2,33.2,0,0,1,38.7,86.2Z"/>
        <path class="be0f5877-e409-49d1-ad35-b9b7b1e5bf3b" d="M81.6,87.9l-1.7-.5a15.1,15.1,0,0,0,1.9-5.7c.8-5.6-1.3-9-2.9-10.7,5.6,1.4,6.4,4.4,7.3,8.5C87.5,85.1,81.6,87.9,81.6,87.9Z"/>
      </g>
    </g>
    <g>
      <path class="bb611431-c00b-4650-9c05-8d096281f66c" d="M102.5,81s-6.9.8-9.4,6.5-11.6-8.9-11.6-8.9l2.3-16.8,11.6-.7Z"/>
      <g>
        <path class="a9337324-8b54-453f-94a3-94d02930cb5c" d="M114.2,66a14.1,14.1,0,0,0,8.5,3.5s.8.1.7-2.3S112.9,62.9,114.2,66Z"/>
        <path class="bb611431-c00b-4650-9c05-8d096281f66c" d="M128.9,60.1c-1.8,1-3.2-.1-3.4,3.5a17,17,0,0,1-.2,2.8,5.1,5.1,0,0,1-.2,1.3,14.6,14.6,0,0,1-11-2.3l.3.3.5.7c1.3,1.5,4.3,4.4,8,5.1,0,0,1.3.4.8,1.3s-.5.6-1.2,1c-2.8,1.6-1.5,5-3.9,8.2s-9.6,3.5-15.7,1.4-14.4-7-18.5-16.1.1-31.6.1-31.6l6.7-7.5L99,25.4l20.2.8s8.2,8.1,6.9,15.2-2.8,10,.8,13.6S130.7,59.1,128.9,60.1Z"/>
        <path class="be068348-2650-4d44-ad13-5a6b0475a571" d="M71.2,17.1S72.4,6.6,87.1,4.3s23.3,2.4,23.3,2.4l-8.2,1.9s14.6,2,24.4,11.4-.5,21-.5,21a17.6,17.6,0,0,0-2-7.7,19,19,0,0,0-6.1-6.1s7,8.3-1.2,7.6A35.5,35.5,0,0,1,103,30.5s4.7,11.2-5.4,18.8L95,40.9A32.8,32.8,0,0,1,84.9,59L86,67.2,85.6,78s-8.1.4-19.5-16.3S55.9,29.3,69,23.9c0,0-3.9-3.7-10.9,1.7C58.1,25.6,59.3,16.9,71.2,17.1Z"/>
        <g>
          <g>
            <ellipse class="a9d95327-7704-4611-9d98-0e1006c44ac3" cx="118.4" cy="52.9" rx="5.5" ry="3.2" transform="translate(41.9 157.7) rotate(-77.9)"/>
            <path class="a29f2ebd-a1fe-4905-a7cb-985e14bcf765" d="M121.7,53.6c-.5,2.8-3.4,7.4-6.3,4.1a7.6,7.6,0,0,1,2.2-10.4c4-1.8,4.8,3.6,4.1,6.3Zm-.1,0c.3-2,.3-5.2-2-6-4.2-.5-6.3,9.4-2.3,10.7s3.8-2.7,4.3-4.7Z"/>
          </g>
          <ellipse class="be068348-2650-4d44-ad13-5a6b0475a571" cx="119.9" cy="53.5" rx="3.6" ry="1.7" transform="translate(42.4 159.5) rotate(-77.9)"/>
          <ellipse class="a9d95327-7704-4611-9d98-0e1006c44ac3" cx="120.5" cy="51" rx="0.9" ry="0.6" transform="translate(45.4 158.2) rotate(-77.9)"/>
          <path class="be068348-2650-4d44-ad13-5a6b0475a571" d="M122.6,42.2s-4-6-10.5,3.3a11.4,11.4,0,0,1,8.8-7S124.9,38.7,122.6,42.2Z"/>
        </g>
        <g>
          <path class="bb611431-c00b-4650-9c05-8d096281f66c" d="M86.6,58.5s-2.1-4.9-5.7-5.8-6.7,5.7-3.1,11.9,7.7,8,10.9.6"/>
          <path class="bb611431-c00b-4650-9c05-8d096281f66c" d="M85.1,61.2s-3.9-7.7-7-3"/>
          <g>
            <path class="b00d3b73-d327-4a1c-8075-8fba67084781" d="M83.1,58.7A4.3,4.3,0,0,0,81.7,64"/>
            <path class="b468b94e-e57f-4ad5-87e9-2335109600c3" d="M83.2,58.8A6.5,6.5,0,0,0,81.7,64a4.8,4.8,0,0,1-.3-2.9,3.9,3.9,0,0,1,1.8-2.3Z"/>
          </g>
        </g>
        <g>
          <path class="b00d3b73-d327-4a1c-8075-8fba67084781" d="M114.6,63.6s0,2.4-3,2.7"/>
          <path class="b468b94e-e57f-4ad5-87e9-2335109600c3" d="M114.6,63.6c.6,1.7-1.4,3.3-3,2.7h0a3.5,3.5,0,0,0,2-.7,2.8,2.8,0,0,0,1-1.9Z"/>
        </g>
        <path class="ae8e6188-b974-4bc1-a881-0fbe252179da" d="M125.3,66.4a5.1,5.1,0,0,1-.2,1.3,14.6,14.6,0,0,1-11-2.3l.3.3-.5-.4a20.6,20.6,0,0,0,9.5,1.4l1.9-.3Z"/>
        <path class="ae8e6188-b974-4bc1-a881-0fbe252179da" d="M114.2,65.7a1,1,0,0,0,.2.5l-.2-.2Z"/>
        <path class="ae8e6188-b974-4bc1-a881-0fbe252179da" d="M123.7,72.8a15.1,15.1,0,0,1-3.2-1,14,14,0,0,1-6.1-5.6l.5.2c1.3,1.5,4.3,4.4,8,5.1C122.9,71.5,124.2,71.9,123.7,72.8Z"/>
      </g>
      <g>
        <path class="f464a37d-8a4c-4010-9cf2-231ead17f23a" d="M87,54.3l6.4-.7s2.1-3.3,15.7-6.6,15.6,0,15.7,6.6a2.5,2.5,0,0,0-2.1,3.3c.8,2.9-10.5,5.6-28.7-.6l-7.6.6Z"/>
        <path class="f929369a-f0ec-4ffc-a532-3bd8ffe4322c" d="M87,54.3l6.4-.7s2.1-3.3,15.7-6.6,15.6,0,15.7,6.6a2.5,2.5,0,0,0-2.1,3.3c.8,2.9-10.5,5.6-28.7-.6l-7.6.6Z"/>
      </g>
    </g>
    <g>
      <path class="e0c695c6-720b-439e-9436-9f6b88bf593f" d="M68.8,123.2s11,5.1,16.1,14.4L74.4,147.9,58.2,134.6Z"/>
      <path class="e0c695c6-720b-439e-9436-9f6b88bf593f" d="M29.1,121.5s-3.6,13.7,23.1,25.7l-.8,17.6,24.3-25.3-9.3-8.9-2.7-3.2S47.2,117.8,29.1,121.5Z"/>
      <g>
        <path class="be0f5877-e409-49d1-ad35-b9b7b1e5bf3b" d="M88.8,179.5v.8s-3.8,7.2-21.2.7c0,0-10.3.5-13.7-3.2a3.6,3.6,0,0,1-.5-2.2,14.6,14.6,0,0,1,1.6-6.1s.6-1.9,1.2-4.6c.1-.8.3-1.6.4-2.5s.1,1.7,0,0a76.5,76.5,0,0,1,22.3-23.1,20.6,20.6,0,0,1,7.9-3.8s.7.2.4,1.3l-1.4,4c-1.6,5-10.1,18.1-16.3,27.4,0,0,7.4-.3,11.3.9S88.8,174.3,88.8,179.5Z"/>
        <path class="be0f5877-e409-49d1-ad35-b9b7b1e5bf3b" d="M69.5,168.2a11.9,11.9,0,0,0-6.1,3.5"/>
        <path class="beaa639f-db76-4761-a06c-ccb4f6bedcb2" d="M87.2,136.1c-.2.8-.5,1.7-.8,2.7h0l-24,25.3c.1-.7.3-1.6.4-2.4Z"/>
        <path class="beaa639f-db76-4761-a06c-ccb4f6bedcb2" d="M88.8,179.5v.8s-3.8,7.2-21.2.7c0,0-10.3.5-13.7-3.2a3.6,3.6,0,0,1-.5-2.2c1.2,1,4.7,2.7,14.5,3.6C67.9,179.2,81.8,183.8,88.8,179.5Z"/>
      </g>
      <g>
        <path class="be0f5877-e409-49d1-ad35-b9b7b1e5bf3b" d="M83.3,184.3v.7s-3.8,7.2-21.2.7c0,0-10.3.6-13.7-3.1a3.5,3.5,0,0,1-.6-2.2,16,16,0,0,1,1.7-6.2s.6-1.9,1.2-4.5c.1-.8.3-1.6.4-2.5a26.1,26.1,0,0,0,.2-4.9s9.9-14.8,24.9-24.9c0,0,.6-.1-.7,4.2h0l-.8,2.8h0c-1.6,5-4.8,13.6-10.7,28.5,0,0,7.4-.2,11.3,1S83.3,179.1,83.3,184.3Z"/>
        <path class="be0f5877-e409-49d1-ad35-b9b7b1e5bf3b" d="M63.9,172.9a12.4,12.4,0,0,0-6,3.6"/>
        <path class="beaa639f-db76-4761-a06c-ccb4f6bedcb2" d="M75.5,141.6l-.8,2.8h0l-24,25.3c.1-.8.3-1.6.4-2.5Z"/>
        <path class="beaa639f-db76-4761-a06c-ccb4f6bedcb2" d="M83.3,184.3v.7s-3.8,7.2-21.2.7c0,0-10.3.6-13.7-3.1a3.5,3.5,0,0,1-.6-2.2c1.3.9,4.8,2.7,14.5,3.5C62.3,183.9,76.3,188.6,83.3,184.3Z"/>
      </g>
    </g>
    <path class="e0c695c6-720b-439e-9436-9f6b88bf593f" d="M73.2,74.2s12.3-.7,18.7,6.5,1.8,17.2-1.2,20.4-19.3,14.2-22.8,19-33.8-.5-33.8-.5S46.8,96.7,61.5,83.3,73.2,74.2,73.2,74.2Z"/>
    <g>
      <path class="be0f5877-e409-49d1-ad35-b9b7b1e5bf3b" d="M30.2,131.3s12.6-6.7,34.9-2.4a7.9,7.9,0,0,1,6.2-4.6l-3.8-2.4-36.9-1S26.2,124.5,30.2,131.3Z"/>
      <g>
        <path class="b859206a-7780-467d-bbcb-2be26b3cd72e" d="M69.3,118.4l-1,4.2a44.2,44.2,0,0,1-5.5,1.4l-3.6.5a63,63,0,0,1-9.7.4l-3.3-.2c-3.9-.2-7.5-.6-10.4-1l-3.4-.6-2.7-.5c-1.8-5.5,2.6-6.6,2.6-6.6l.8.3,3.3.8a77.5,77.5,0,0,0,10,1.5l3.1.2H62.6Z"/>
        <g>
          <path class="be0f5877-e409-49d1-ad35-b9b7b1e5bf3b" d="M49.5,124.9l-3.3-.2.2-6.1,3.1.2Z"/>
          <path class="be0f5877-e409-49d1-ad35-b9b7b1e5bf3b" d="M62.8,124l-3.6.5.3-5.6h3.1Z"/>
          <path class="be0f5877-e409-49d1-ad35-b9b7b1e5bf3b" d="M36.4,117.1l-.6,6.6-3.4-.6.7-6.8Z"/>
        </g>
      </g>
    </g>
    <g>
      <path class="be381193-5aa4-44cc-9419-657026406e98" d="M69.8,80.5s-34.1,20-44,67.6c0,0-5.3,2.5-8.1-5.9,0,0-7.3.4-6.7-12.2,0,0-7.6-6.5-6.1-11l5.7-3.1s-2.8-5.5.6-7.2S44.5,91.4,55.4,82.6,76.1,72.7,69.8,80.5Z"/>
      <path class="bfd044d0-c969-466a-80d3-16bdbdefbe33" d="M17.8,142.7s19.9-39.1,37.7-53.2C55.5,89.5,36.5,101.4,17.8,142.7Z"/>
      <path class="bfd044d0-c969-466a-80d3-16bdbdefbe33" d="M8.6,116.7,55.3,86.3S19.8,111.6,8.6,116.7Z"/>
      <path class="bfd044d0-c969-466a-80d3-16bdbdefbe33" d="M11,130s23.2-28.7,48.9-46.4C59.9,83.6,31.8,106.7,11,130Z"/>
    </g>
    <g>
      <g>
        <g>
          <path class="bb611431-c00b-4650-9c05-8d096281f66c" d="M35,89.9a15.1,15.1,0,0,0-2.3,7.2c0,3.7-3.8,5.4-4.7,2.4s.5-5.2-1.8-4.9-3,4.3-2.5,7.3.1,4.3-1.9,4-3-1.2-3.9-4.6c0,0-3,.7-3.3-3.5,0,0-3.1.3-2.2-4.3,0,0-1.3-1.2,1.4-5.8s17.3-9.5,17.3-9.5Z"/>
          <path class="bb611431-c00b-4650-9c05-8d096281f66c" d="M18.1,102.4a10.6,10.6,0,0,1,.8-7.3"/>
          <path class="bb611431-c00b-4650-9c05-8d096281f66c" d="M14.6,98.6s-.5-3.9,1.6-6.7"/>
          <path class="bb611431-c00b-4650-9c05-8d096281f66c" d="M12.3,94.4s-.1-4.1,2.5-5.8"/>
        </g>
        <g>
          <path class="e0c695c6-720b-439e-9436-9f6b88bf593f" d="M81.1,91.1l-1.7-.5a102.8,102.8,0,0,0-27.1-2.9c-7.1.2-11.4.9-14.1,1.7s-4.1,2-4.1,2L30.7,77.7l4.5-.8c8-1.4,25-4.1,34.9-3.7a33.4,33.4,0,0,1,8.3,1c5.6,1.4,6.4,4.4,7.3,8.5S81.1,91.1,81.1,91.1Z"/>
          <path class="be0f5877-e409-49d1-ad35-b9b7b1e5bf3b" d="M38.2,89.4c-3.6,1-4.1,2-4.1,2L30.7,77.7l4.5-.8A32,32,0,0,1,38.2,89.4Z"/>
          <path class="be0f5877-e409-49d1-ad35-b9b7b1e5bf3b" d="M81.1,91.1l-1.7-.5a17.1,17.1,0,0,0,1.9-5.7c.8-5.6-1.3-9-2.9-10.7,5.6,1.4,6.4,4.4,7.3,8.5S81.1,91.1,81.1,91.1Z"/>
        </g>
      </g>
      <path class="fea46887-de4d-4a93-bf29-065afae2ecfa" d="M93.1,96.7,92.2,99s-4.3-2.2-7.2.1-2.1,4.8-2.1,4.8-3.8-.4-2.2,2.6l1.1,1.5-1.6,1.4s-4.9-5.1.4-7a6.6,6.6,0,0,1,4.9-6.1C90.5,94.9,93.1,96.7,93.1,96.7Z"/>
    </g>
  </g>
</svg>
