<svg id="a7293e6f-f00e-48ff-94dd-974e35b55a0f" data-name="Layer 1" xmlns="http://www.w3.org/2000/svg" xmlns:xlink="http://www.w3.org/1999/xlink" width="176.9" height="225.1" viewBox="0 0 176.9 225.1">
  <defs>
    <style>
      .a0e4e003-4bea-4d87-a163-8f2451728db7, .ab383bcc-debb-450a-9df6-5c5d6ca27eeb {
        fill: none;
      }

      .fc84245b-a8d4-4608-ada4-d7975afafa22 {
        clip-path: url(#eceb8a3e-81f9-4abb-b20e-cb18d7524e91);
      }

      .baf21514-c306-46e1-97ed-8ab733b57b92 {
        clip-path: url(#bb88ad2a-0714-4a77-91d0-f8e335ab04ad);
      }

      .e4c99616-42a9-4379-bff2-85132950605e {
        fill: url(#a5655a57-b304-4359-a59b-0365045783f2);
      }

      .a0f9d66a-bb51-4192-a74d-df9b9dfa1d68, .a5ba067d-5014-455a-8b0c-6a7a32219d04 {
        fill: #fbd3c7;
      }

      .a0f9d66a-bb51-4192-a74d-df9b9dfa1d68 {
        stroke: #453323;
      }

      .a0f9d66a-bb51-4192-a74d-df9b9dfa1d68, .a2731ffd-5ac2-4d46-979e-e0a90f6e8c2c, .a5d460ae-d091-447e-938e-2608bae1c485, .a612c582-eebf-48ef-8a7f-281589ea59ec, .a651a3f6-472f-467e-9bfe-4054d42bbc70, .ab383bcc-debb-450a-9df6-5c5d6ca27eeb, .bc1ec7a6-bfe7-4088-a459-ae14cc1748e1, .e6014555-db18-4acf-917c-5b2492d903b8 {
        stroke-miterlimit: 10;
      }

      .a0f9d66a-bb51-4192-a74d-df9b9dfa1d68, .a2731ffd-5ac2-4d46-979e-e0a90f6e8c2c, .a5d460ae-d091-447e-938e-2608bae1c485, .ab383bcc-debb-450a-9df6-5c5d6ca27eeb, .bc1ec7a6-bfe7-4088-a459-ae14cc1748e1, .e6014555-db18-4acf-917c-5b2492d903b8 {
        stroke-width: 0.5px;
      }

      .e6014555-db18-4acf-917c-5b2492d903b8 {
        fill: #d81f25;
        stroke: #5b0c12;
      }

      .bdf8c3e7-cf1a-49fd-88ee-fb3e4417e440 {
        fill: #fecc51;
      }

      .a2731ffd-5ac2-4d46-979e-e0a90f6e8c2c {
        fill: #fecb4b;
        stroke: #664f1c;
      }

      .b9917974-43f6-4359-b202-5a86ada51f5d {
        fill: #4c2c17;
      }

      .a5d460ae-d091-447e-938e-2608bae1c485 {
        fill: #82d1f9;
        stroke: #4693aa;
      }

      .bec9f4c6-4366-4c5b-94c2-4f6dea122c32 {
        fill: #5db5d8;
      }

      .a612c582-eebf-48ef-8a7f-281589ea59ec {
        fill: #f7edeb;
        stroke: #bf9b82;
      }

      .f6caf839-826d-4135-a38c-e3f22ec2c10e {
        fill: #2d2b21;
      }

      .ac4e4d92-4423-4c16-b8ca-f2ba5d173f1d {
        fill: #fff;
      }

      .ffcdf418-773f-4c4e-9ae0-ef52094b1419 {
        fill: #3d2e17;
      }

      .a7b4e1ed-9cff-4b28-9c73-607909a472b6 {
        fill: #453323;
      }

      .bc73424f-cc93-446d-a5a5-d11e7153cd73 {
        fill: #ef8d7d;
      }

      .a651a3f6-472f-467e-9bfe-4054d42bbc70 {
        fill: #1044a0;
        stroke: #143d84;
        opacity: 0.25;
      }

      .ab383bcc-debb-450a-9df6-5c5d6ca27eeb {
        stroke: #700418;
      }

      .bc1ec7a6-bfe7-4088-a459-ae14cc1748e1 {
        fill: #6bcdf2;
        stroke: #245666;
      }
    </style>
    <clipPath id="eceb8a3e-81f9-4abb-b20e-cb18d7524e91">
      <rect class="a0e4e003-4bea-4d87-a163-8f2451728db7" x="-1931.3" y="-129.6" width="1280" height="720"/>
    </clipPath>
    <clipPath id="bb88ad2a-0714-4a77-91d0-f8e335ab04ad">
      <rect class="a0e4e003-4bea-4d87-a163-8f2451728db7" x="-2091.3" y="-219.6" width="1600" height="900"/>
    </clipPath>
    <linearGradient id="a5655a57-b304-4359-a59b-0365045783f2" x1="3308.66" y1="1933.7" x2="3308.66" y2="-657.21" gradientUnits="userSpaceOnUse">
      <stop offset="0" stop-color="#a4f2ff"/>
      <stop offset="0.25" stop-color="#69e3ff"/>
      <stop offset="0.49" stop-color="#34d5ff"/>
      <stop offset="0.62" stop-color="#1fd0ff"/>
      <stop offset="0.69" stop-color="#25c3ff"/>
      <stop offset="0.83" stop-color="#36a2ff"/>
      <stop offset="1" stop-color="#4d73ff"/>
    </linearGradient>
  </defs>
  <g class="fc84245b-a8d4-4608-ada4-d7975afafa22">
    <g class="baf21514-c306-46e1-97ed-8ab733b57b92">
      <rect class="e4c99616-42a9-4379-bff2-85132950605e" x="-2091.3" y="-219.6" width="10800" height="2050"/>
    </g>
  </g>
  <g>
    <path class="a0f9d66a-bb51-4192-a74d-df9b9dfa1d68" d="M89.2,59.7A43.8,43.8,0,0,1,76.1,82.2l19.7,8.3,7.1-14.6Z"/>
    <g>
      <g>
        <polygon class="a0f9d66a-bb51-4192-a74d-df9b9dfa1d68" points="73.9 119 65 125.9 69.2 131.2 78.5 130.4 76.5 123.6 73.9 119"/>
        <g>
          <path class="a0f9d66a-bb51-4192-a74d-df9b9dfa1d68" d="M72.8,118.3s2-.2,5,2.2c0,0,5.1-.4,5.2,1.9s-5.9,1.4-5.9,1.4,3,3.9,2.2,8.1a2.7,2.7,0,0,1-3.7-.6s.9,3.1-2.8,1.5c0,0-1,2.7-4.1.2s-4.3-4.3-1.5-5.2l2.2.8s-.9-3.1,3-1.5c0,0-1-3.2,1.9-1.9l3.7,4"/>
          <line class="a0f9d66a-bb51-4192-a74d-df9b9dfa1d68" x1="69" y1="128.4" x2="72.8" y2="132.8"/>
          <line class="a0f9d66a-bb51-4192-a74d-df9b9dfa1d68" x1="72.6" y1="126.7" x2="75.8" y2="131.7"/>
        </g>
        <g>
          <polygon class="e6014555-db18-4acf-917c-5b2492d903b8" points="74.6 115.6 76.4 119 64.7 127.1 63.5 124.2 55.1 104.8 68.3 88.4 81.4 94.9 68.9 105.2 74.6 115.6"/>
          <polygon class="bdf8c3e7-cf1a-49fd-88ee-fb3e4417e440" points="76.4 119 64.7 127.1 63.5 124.2 74.6 115.6 76.4 119"/>
        </g>
        <path class="a0f9d66a-bb51-4192-a74d-df9b9dfa1d68" d="M71.1,123.6s3.2,1.9,6,.2"/>
      </g>
      <g>
        <polygon class="e6014555-db18-4acf-917c-5b2492d903b8" points="118.9 142.3 130.8 164.5 133.9 182.5 119.8 181.2 110.3 157.2 118.9 142.3"/>
        <g>
          <path class="a2731ffd-5ac2-4d46-979e-e0a90f6e8c2c" d="M171.9,204.1c-2.9,5.6-29.1,8.6-29.1,8.6l-11.3-23.4-.7-1.5-2.8-5.7,1.7-12.7v-9.1s-.1-2.6,3.7,6.8c.3.8.7,1.7,1,2.6l1,2.4c5.8,15.2,11.8,27,11.8,27a28.2,28.2,0,0,1,14.1-3.8C169.8,195.2,174.9,198.5,171.9,204.1Z"/>
          <path class="a2731ffd-5ac2-4d46-979e-e0a90f6e8c2c" d="M145.2,202.4s.1-2.7,4.2-4.2"/>
          <path class="b9917974-43f6-4359-b202-5a86ada51f5d" d="M131.5,189.3l3-19.6c-.3-.9-.7-1.8-1-2.6l-2.7,20.7Z"/>
        </g>
        <path class="e6014555-db18-4acf-917c-5b2492d903b8" d="M95,160.7s24.9,29.7,29.3,37.4c0,0,5-20.3,3.4-33l-9.7-16s-13-1.3-20.8,4S95,160.7,95,160.7Z"/>
        <path class="a2731ffd-5ac2-4d46-979e-e0a90f6e8c2c" d="M86,147.6s5.1,11.8,11.8,16.2c0,0-5.6-16.6,21.7-12.2l.9-6.6-3-6.9-11.6,6.7Z"/>
        <g>
          <g>
            <path class="a2731ffd-5ac2-4d46-979e-e0a90f6e8c2c" d="M130.4,168.7l.3.7h0c.4,1,.8,2.1,1.3,3.2h0c4.7,11.5,13.7,29.6,13.7,29.6s10.8-6.8,22.7-4.1c0,0,5.4,1.6,4.9,6.7v.4c-.8,5.5-5.5,11.2-17.2,11.7a26.5,26.5,0,0,0-9.4,3.1c-3.4,1.9-6.9,1.4-9-1.4a10.1,10.1,0,0,1-1.6-3.8c-.7-3.4-5-9-8.4-13l-1.1-1.2-3.2-3.5s4.5-23.5,2.5-34.9C125.9,162.3,126.5,157.9,130.4,168.7Z"/>
            <path class="b9917974-43f6-4359-b202-5a86ada51f5d" d="M173.3,204.9v.4c-.8,5.5-5.5,11.2-17.2,11.7a26.5,26.5,0,0,0-9.4,3.1c-3.4,1.9-6.9,1.4-9-1.4,2,.4,5.6.5,11-1.8a61.7,61.7,0,0,1,12.8-2.5C167.4,213.8,171.7,207.6,173.3,204.9Z"/>
            <path class="b9917974-43f6-4359-b202-5a86ada51f5d" d="M130.7,169.4c.4,1,.8,2.1,1.3,3.2h0a128.8,128.8,0,0,1-4.3,29.2l-1.1-1.2C127.8,194.8,130.4,181.1,130.7,169.4Z"/>
          </g>
          <path class="a2731ffd-5ac2-4d46-979e-e0a90f6e8c2c" d="M143.5,209.6s-.7-6,3.5-8"/>
        </g>
      </g>
      <path class="e6014555-db18-4acf-917c-5b2492d903b8" d="M71.5,98.1s8,5.3,10.1,21.5-.2,24,3.4,27.3,26.7,1.7,32.4-8.8c0,0-5.2-30.8-16-47.2S78.5,78.3,78.5,78.3Z"/>
      <g>
        <g>
          <path class="a0f9d66a-bb51-4192-a74d-df9b9dfa1d68" d="M68.6,131.9a7.5,7.5,0,0,1,5.6,3.2c2.1,3,1.9,5,3.7,6,0,0-.2,2.5-3.3,1.5,0,0,.9,2.6-.6,3a2.1,2.1,0,0,1-2.2-.2s-.5,3.8-4.3,2.1c0,0-.6,3.2-4,.8,0,0-1.4,3-4.6-1.3s-.7-10.3-.7-10.3l10.6-4.9"/>
          <path class="a0f9d66a-bb51-4192-a74d-df9b9dfa1d68" d="M71.6,135.7s1.1,5,3,6.9"/>
        </g>
        <g>
          <path class="e6014555-db18-4acf-917c-5b2492d903b8" d="M84.8,98.9,83.6,95v-.5L64.3,105.2c-1.1,12.8,1,19.9,2.9,23.5a9.7,9.7,0,0,0,2.4,3.3c-3.4,5-13.3,6.9-13.3,6.9a43.6,43.6,0,0,1-2.3-4.2c-8-16.3-5.9-33-5.9-33,4.9-9.3,26.6-23,31.4-23.6l2.7-.2h0c3.9-.1,7.6,1.1,8,8.4C90.5,95.3,84.8,98.9,84.8,98.9Z"/>
          <path class="bdf8c3e7-cf1a-49fd-88ee-fb3e4417e440" d="M69.6,132c-3.4,5-13.3,6.9-13.3,6.9a43.6,43.6,0,0,1-2.3-4.2c3.6-.8,9.2-2.5,13.2-6A9.7,9.7,0,0,0,69.6,132Z"/>
          <path class="bdf8c3e7-cf1a-49fd-88ee-fb3e4417e440" d="M84.8,98.9,83.6,95c3.4-3.5,3.3-6.8,3.3-6.8a10.4,10.4,0,0,0-4.7-10.3c3.9-.1,7.6,1.1,8,8.4C90.5,95.3,84.8,98.9,84.8,98.9Z"/>
        </g>
      </g>
      <path class="bdf8c3e7-cf1a-49fd-88ee-fb3e4417e440" d="M106.9,101.1s-8.3,1.1-1.6,7c0,0-1.1,4.1,5.7,5.5l1.2,3.2s-9.2-1.9-8.7-8.3c0,0-7.4-5.7,2.3-10.1l1.7,2.8"/>
    </g>
    <g>
      <path class="a5d460ae-d091-447e-938e-2608bae1c485" d="M79.5,78.1s-17.3,8.6-25,17.5S32.7,115.1,7.3,116c0,0-2.6-12.7,2.9-25.1L3.9,87.3S5.2,77.2,16.5,69.6L5.8,57.2s23,7.8,26.5-9.3C32.3,47.9,51.5,77,79.5,78.1Z"/>
      <path class="bec9f4c6-4366-4c5b-94c2-4f6dea122c32" d="M9,89.9s17.7,11.8,43.5,3.5C52.5,93.4,29,104.6,9,89.9Z"/>
      <path class="bec9f4c6-4366-4c5b-94c2-4f6dea122c32" d="M16.3,68.8S30.2,82.1,56.1,85.9C56.1,85.9,30.9,84.6,16.3,68.8Z"/>
      <path class="bec9f4c6-4366-4c5b-94c2-4f6dea122c32" d="M6.9,57.6s26.3,24.1,59.5,24C66.4,81.6,30.6,83.6,6.9,57.6Z"/>
    </g>
    <g>
      <g>
        <path class="a612c582-eebf-48ef-8a7f-281589ea59ec" d="M113.4,73.2a14.2,14.2,0,0,0,5.2,7.6s.7.6,1.9-1.5S114.1,69.9,113.4,73.2Z"/>
        <path class="a0f9d66a-bb51-4192-a74d-df9b9dfa1d68" d="M129,76.4c-2-.1-2.7-1.8-4.8,1.1l-1.7,2.2a4.4,4.4,0,0,1-.9,1,15.2,15.2,0,0,1-7.9-8v.4a2.2,2.2,0,0,1,.1.9c.3,2,1.2,6,3.8,8.6,0,0,.9,1.1.1,1.5a2.4,2.4,0,0,1-1.6.2c-3.2-.2-4,3.4-7.8,4.7s-10-2.4-13.8-7.5-8.2-13.8-6.6-23.6,17.5-26.4,17.5-26.4l9.7-2.5,8.1,2,16.4,11.8s2.3,11.3-2.6,16.4-7.9,6.9-6.8,11.9S131,76.6,129,76.4Z"/>
        <path class="f6caf839-826d-4135-a38c-e3f22ec2c10e" d="M104.5,8.7s6.8-8.1,20.4-1.9S143,21.6,143,21.6l-7.9-2.8s11.1,9.6,14.1,22.9-12,17.2-12,17.2a16.5,16.5,0,0,0,2.5-7.5,18.6,18.6,0,0,0-1.6-8.4s1.2,10.7-5.2,5.6a34.4,34.4,0,0,1-9.2-11.2s-2.3,11.9-14.9,12.7l2.5-8.4a32.9,32.9,0,0,1-18.4,9.5l-3.6,7.5L83,67.5s-7-4.1-7.3-24.4S85.1,10.4,99,13.2c0,0-1.2-5.3-10.1-4.7C88.9,8.5,94.7,2,104.5,8.7Z"/>
        <g>
          <g>
            <ellipse class="ac4e4d92-4423-4c16-b8ca-f2ba5d173f1d" cx="124.2" cy="64.7" rx="5.5" ry="3.2" transform="translate(-9.8 105.4) rotate(-44.4)"/>
            <path class="ffcdf418-773f-4c4e-9ae0-ef52094b1419" d="M126.5,67c-1.6,1.5-4.4,3.5-6.6,1.9-3.7-4.1,4.6-12.2,8.6-8.4,1.6,2.2-.4,4.9-2,6.5Zm-.1-.1c1.5-1.4,3.2-4.1,1.7-6.1-3.2-2.6-10.4,4.4-7.8,7.7,1.9,1.6,4.6-.1,6.1-1.6Z"/>
          </g>
          <ellipse class="f6caf839-826d-4135-a38c-e3f22ec2c10e" cx="125.1" cy="66" rx="3.6" ry="1.7" transform="translate(-10.4 106.4) rotate(-44.4)"/>
          <ellipse class="ac4e4d92-4423-4c16-b8ca-f2ba5d173f1d" cx="127" cy="64.2" rx="0.9" ry="0.6" transform="translate(-8.6 107.3) rotate(-44.4)"/>
          <path class="f6caf839-826d-4135-a38c-e3f22ec2c10e" d="M133.6,58s-.1-7.2-10.6-3a11.3,11.3,0,0,1,11.2-1S137.4,56.4,133.6,58Z"/>
        </g>
        <g>
          <path class="a0f9d66a-bb51-4192-a74d-df9b9dfa1d68" d="M94.6,51.8s.9-5.3-1.6-8.1-8.7,1.1-9.1,8.3,2,11,8.7,6.5"/>
          <path class="a0f9d66a-bb51-4192-a74d-df9b9dfa1d68" d="M91.9,53.1s.9-8.5-4.2-6.3"/>
          <g>
            <path class="a5ba067d-5014-455a-8b0c-6a7a32219d04" d="M91.6,50a4.3,4.3,0,0,0-4.1,3.6"/>
            <path class="a7b4e1ed-9cff-4b28-9c73-607909a472b6" d="M91.6,50.1a6.8,6.8,0,0,0-4.1,3.5A4.3,4.3,0,0,1,88.8,51a3.7,3.7,0,0,1,2.8-.9Z"/>
          </g>
        </g>
        <g>
          <path class="a5ba067d-5014-455a-8b0c-6a7a32219d04" d="M115.1,71.4s-1.3,2-3.9.6"/>
          <path class="a7b4e1ed-9cff-4b28-9c73-607909a472b6" d="M115.2,71.5c-.5,1.7-3,1.9-4,.5h0a3.1,3.1,0,0,0,4-.5Z"/>
        </g>
        <path class="bc73424f-cc93-446d-a5a5-d11e7153cd73" d="M122.5,79.7a4.4,4.4,0,0,1-.9,1,15.2,15.2,0,0,1-7.9-8v-.2a19.8,19.8,0,0,0,7,6.3l1.8.9Z"/>
        <path class="bc73424f-cc93-446d-a5a5-d11e7153cd73" d="M113.6,73v.5a.4.4,0,0,0-.1-.3Z"/>
        <path class="bc73424f-cc93-446d-a5a5-d11e7153cd73" d="M117.7,84.1a8.9,8.9,0,0,1-2.2-2.6,15.1,15.1,0,0,1-2-8l.3.5c.3,2,1.2,6,3.8,8.6C117.6,82.6,118.5,83.7,117.7,84.1Z"/>
      </g>
      <g>
        <path class="a651a3f6-472f-467e-9bfe-4054d42bbc70" d="M97.2,48.4l5.7,3s3.6-1.6,16.8,3.1,13,8.7,9.5,14.2a2.5,2.5,0,0,0-3.6,1.6c-1,2.9-11.9-1.1-23.7-16.3l-6.6-3.7Z"/>
        <path class="ab383bcc-debb-450a-9df6-5c5d6ca27eeb" d="M97.2,48.4l5.7,3s3.6-1.6,16.8,3.1,13,8.7,9.5,14.2a2.5,2.5,0,0,0-3.6,1.6c-1,2.9-11.9-1.1-23.7-16.3l-6.6-3.7Z"/>
      </g>
    </g>
    <g>
      <path class="bc1ec7a6-bfe7-4088-a459-ae14cc1748e1" d="M118.2,139.2l-1.9,1.7a26.7,26.7,0,0,1-2.3,1.8,34.3,34.3,0,0,1-7.1,4.3,18.4,18.4,0,0,1-2.5.9h-.1a33.4,33.4,0,0,1-9.1,1.1h-3c-3.5-.2-6.2-.6-6.2-.6s-3.1-2.4-2.3-5.3a38.5,38.5,0,0,0,6.6.5h2.9a53.6,53.6,0,0,0,9-1.4l2.6-.8a32.7,32.7,0,0,0,7.4-3.4l2.4-1.6,2.3-1.7S118,135.5,118.2,139.2Z"/>
      <path class="a2731ffd-5ac2-4d46-979e-e0a90f6e8c2c" d="M95.2,149h-3l-1.9-5.4h2.9Z"/>
      <path class="a2731ffd-5ac2-4d46-979e-e0a90f6e8c2c" d="M106.9,147a18.4,18.4,0,0,1-2.5.9h-.1l-2.1-5.9,2.6-.8Z"/>
      <path class="a2731ffd-5ac2-4d46-979e-e0a90f6e8c2c" d="M116.3,140.9a26.7,26.7,0,0,1-2.3,1.8l-1.8-4.9,2.4-1.6Z"/>
    </g>
    <path class="e6014555-db18-4acf-917c-5b2492d903b8" d="M114.8,144.5a46.6,46.6,0,0,1,5.4,8"/>
  </g>
</svg>
